<svg id="Icons" xmlns="http://www.w3.org/2000/svg" viewBox="0 0 48 48"><defs><style>.cls-1{fill:#ffe500;}.cls-2{fill:#ebcb00;}.cls-3{fill:#fff48c;}.cls-4{fill:#45413c;opacity:0.15;}.cls-5{fill:none;}.cls-5,.cls-7,.cls-8{stroke:#45413c;stroke-linecap:round;stroke-linejoin:round;}.cls-6{fill:#ffaa54;}.cls-7{fill:#ffb0ca;}.cls-8{fill:#ff87af;}.cls-9{fill:#00b8f0;}.cls-10{fill:#4acfff;}</style></defs><title>04-rolling-on-the-floor-laughing-1</title><g id="_Group_" data-name="&lt;Group&gt;"><circle id="_Ellipse_" data-name="&lt;Ellipse&gt;" class="cls-1" cx="24" cy="21" r="16.05"/><path id="_Compound_Path_" data-name="&lt;Compound Path&gt;" class="cls-2" d="M19.82,5.5A16.05,16.05,0,1,0,39.5,16.82,16.05,16.05,0,0,0,19.82,5.5Zm7.73,28.67a14.64,14.64,0,1,1,10.33-18A14.63,14.63,0,0,1,27.55,34.17Z"/><path id="_Path_" data-name="&lt;Path&gt;" class="cls-3" d="M25.31,7.35C25.48,8,23.54,9.07,21,9.76s-4.79.74-5,.09,1.77-1.72,4.33-2.41S25.13,6.71,25.31,7.35Z"/><ellipse id="_Ellipse_2" data-name="&lt;Ellipse&gt;" class="cls-4" cx="24" cy="43.5" rx="12.84" ry="1.5"/><circle id="_Ellipse_3" data-name="&lt;Ellipse&gt;" class="cls-5" cx="24" cy="21" r="16.05"/><path id="_Path_2" data-name="&lt;Path&gt;" class="cls-6" d="M36.28,21.84c.17.65-.55,1.4-1.62,1.69s-2.08,0-2.25-.64S33,21.49,34,21.2,36.11,21.2,36.28,21.84Z"/><path id="_Path_3" data-name="&lt;Path&gt;" class="cls-6" d="M13.81,27.9c.17.65,1.18.93,2.25.64s1.8-1,1.62-1.68-1.18-.93-2.25-.64S13.64,27.26,13.81,27.9Z"/><g id="_Group_2" data-name="&lt;Group&gt;"><path id="_Path_4" data-name="&lt;Path&gt;" class="cls-7" d="M21,28.46a.8.8,0,0,0-.49.41.77.77,0,0,0,0,.63,5.69,5.69,0,0,0,10.83-2.92A.73.73,0,0,0,31,26a.77.77,0,0,0-.63-.11Z"/><path id="_Path_5" data-name="&lt;Path&gt;" class="cls-8" d="M30.9,29.4a9.21,9.21,0,0,0-4.6.15,9.09,9.09,0,0,0-4,2.18A5.77,5.77,0,0,0,30.9,29.4Z"/></g><g id="_Group_3" data-name="&lt;Group&gt;"><g id="_Group_4" data-name="&lt;Group&gt;"><path id="_Path_6" data-name="&lt;Path&gt;" class="cls-9" d="M46.92,23c-2.43,4.21-6.69-1.79-10.1-1.56C40.52,16.74,49.34,18.76,46.92,23Z"/><path id="_Path_7" data-name="&lt;Path&gt;" class="cls-10" d="M36.82,21.42h.25c4.07-2.85,10.7-.91,8.74,2.76A3.15,3.15,0,0,0,46.92,23C49.34,18.76,40.52,16.74,36.82,21.42Z"/><path id="_Path_8" data-name="&lt;Path&gt;" class="cls-5" d="M46.92,23c-2.43,4.21-6.69-1.79-10.1-1.56C40.52,16.74,49.34,18.76,46.92,23Z"/></g><g id="_Group_5" data-name="&lt;Group&gt;"><path id="_Path_9" data-name="&lt;Path&gt;" class="cls-9" d="M40.49,12c1.84,2.61-2.91,3.49-3.72,5.59C35,14.06,38.65,9.36,40.49,12Z"/><path id="_Path_10" data-name="&lt;Path&gt;" class="cls-10" d="M36.77,17.56l.07-.15c-.57-3.22,2.41-6.63,4.06-4.45a2.14,2.14,0,0,0-.41-1C38.65,9.36,35,14.06,36.77,17.56Z"/><path id="_Path_11" data-name="&lt;Path&gt;" class="cls-5" d="M40.49,12c1.84,2.61-2.91,3.49-3.72,5.59C35,14.06,38.65,9.36,40.49,12Z"/></g><g id="_Group_6" data-name="&lt;Group&gt;"><path id="_Path_12" data-name="&lt;Path&gt;" class="cls-9" d="M47.17,14.89c-.3,2.23-3.18.4-4.6,1.1C43.34,13.34,47.47,12.66,47.17,14.89Z"/><path id="_Path_13" data-name="&lt;Path&gt;" class="cls-10" d="M42.57,16l.11-.05c1.24-1.93,4.42-2.26,4.23-.34a1.55,1.55,0,0,0,.26-.71C47.47,12.66,43.34,13.34,42.57,16Z"/><path id="_Path_14" data-name="&lt;Path&gt;" class="cls-5" d="M47.17,14.89c-.3,2.23-3.18.4-4.6,1.1C43.34,13.34,47.47,12.66,47.17,14.89Z"/></g></g><g id="_Group_7" data-name="&lt;Group&gt;"><g id="_Group_8" data-name="&lt;Group&gt;"><path id="_Path_15" data-name="&lt;Path&gt;" class="cls-9" d="M5.18,34.23c4.22,2.42,4.88-4.91,8-6.43C7.58,25.62,1,31.8,5.18,34.23Z"/><path id="_Path_16" data-name="&lt;Path&gt;" class="cls-10" d="M13.13,27.8l-.22.13c-5-.42-9.71,4.59-6.17,6.78a3.22,3.22,0,0,1-1.56-.48C1,31.8,7.58,25.62,13.13,27.8Z"/><path id="_Path_17" data-name="&lt;Path&gt;" class="cls-5" d="M5.18,34.23c4.22,2.42,4.88-4.91,8-6.43C7.58,25.62,1,31.8,5.18,34.23Z"/></g><g id="_Group_9" data-name="&lt;Group&gt;"><path id="_Path_18" data-name="&lt;Path&gt;" class="cls-9" d="M5.21,21.49c-.28,3.18,4.27,1.55,6,3C11,20.54,5.49,18.31,5.21,21.49Z"/><path id="_Path_19" data-name="&lt;Path&gt;" class="cls-10" d="M11.23,24.44l-.14-.09c-1.12-3.07-5.41-4.52-5.74-1.8a2,2,0,0,1-.14-1.06C5.49,18.31,11,20.54,11.23,24.44Z"/><path id="_Path_20" data-name="&lt;Path&gt;" class="cls-5" d="M5.21,21.49c-.28,3.18,4.27,1.55,6,3C11,20.54,5.49,18.31,5.21,21.49Z"/></g><g id="_Group_10" data-name="&lt;Group&gt;"><path id="_Path_21" data-name="&lt;Path&gt;" class="cls-9" d="M.9,27.36c1.38,1.78,3-1.24,4.53-1.36C3.43,24.1-.48,25.59.9,27.36Z"/><path id="_Path_22" data-name="&lt;Path&gt;" class="cls-10" d="M5.43,26l-.12,0c-2-1.05-5,.27-3.83,1.82a1.45,1.45,0,0,1-.58-.48C-.48,25.59,3.43,24.1,5.43,26Z"/><path id="_Path_23" data-name="&lt;Path&gt;" class="cls-5" d="M.9,27.36c1.38,1.78,3-1.24,4.53-1.36C3.43,24.1-.48,25.59.9,27.36Z"/></g></g><path id="_Path_24" data-name="&lt;Path&gt;" class="cls-5" d="M32.77,15.73l-2.15,1.91A.81.81,0,0,0,31,19l2.83.57"/><path id="_Path_25" data-name="&lt;Path&gt;" class="cls-5" d="M13.77,20.85l2.82.57A.8.8,0,0,1,17,22.81l-2.15,1.91"/></g></svg>