<svg id="Icons" xmlns="http://www.w3.org/2000/svg" viewBox="0 0 48 48"><defs><style>.cls-1{fill:#45413c;opacity:0.15;}.cls-2{fill:#ffe500;}.cls-3{fill:#ebcb00;}.cls-4{fill:#fff48c;}.cls-5{fill:none;}.cls-5,.cls-7,.cls-8,.cls-9{stroke:#45413c;stroke-linecap:round;stroke-linejoin:round;}.cls-6{fill:#ffaa54;}.cls-7{fill:#ffb0ca;}.cls-8{fill:#ff87af;}.cls-9{fill:#fff;}</style></defs><title>05-rolling-on-the-floor-laughing-2</title><g id="_Group_" data-name="&lt;Group&gt;"><ellipse id="_Ellipse_" data-name="&lt;Ellipse&gt;" class="cls-1" cx="24" cy="45.5" rx="16" ry="1.5"/><circle id="_Ellipse_2" data-name="&lt;Ellipse&gt;" class="cls-2" cx="24" cy="21.5" r="20"/><path id="_Compound_Path_" data-name="&lt;Compound Path&gt;" class="cls-3" d="M24,1.5a20,20,0,1,0,20,20A20,20,0,0,0,24,1.5Zm0,37A18.25,18.25,0,1,1,42.25,20.25,18.25,18.25,0,0,1,24,38.5Z"/><ellipse id="_Ellipse_3" data-name="&lt;Ellipse&gt;" class="cls-4" cx="12.69" cy="10.19" rx="6" ry="1.5" transform="translate(-3.49 11.95) rotate(-45)"/><circle id="_Ellipse_4" data-name="&lt;Ellipse&gt;" class="cls-5" cx="24" cy="21.5" r="20"/><path id="_Path_" data-name="&lt;Path&gt;" class="cls-6" d="M35,9.83c.59.59.27,1.85-.71,2.83S32,14,31.42,13.37s-.26-1.85.71-2.83S34.37,9.25,35,9.83Z"/><path id="_Path_2" data-name="&lt;Path&gt;" class="cls-7" d="M35.64,33.14c-5.5,5.5-13.83,6.26-19.4,2a1.41,1.41,0,0,1,.13-2.25A86.93,86.93,0,0,0,35.42,13.87a1.41,1.41,0,0,1,2.25-.13C41.9,19.31,41.14,27.64,35.64,33.14Z"/><path id="_Path_3" data-name="&lt;Path&gt;" class="cls-8" d="M30.9,28.4a25,25,0,0,1,9.48-6.26A16.21,16.21,0,0,1,24.64,37.88,25,25,0,0,1,30.9,28.4Z"/><path id="_Path_4" data-name="&lt;Path&gt;" class="cls-5" d="M26.09,7,25,10.44a1,1,0,0,0,1.26,1.26l3.41-1.13"/><path id="_Path_5" data-name="&lt;Path&gt;" class="cls-6" d="M12.33,32.46c.59.59,1.85.27,2.83-.71s1.29-2.24.71-2.83S14,28.66,13,29.63,11.75,31.87,12.33,32.46Z"/><path id="_Path_6" data-name="&lt;Path&gt;" class="cls-5" d="M9.53,23.59l3.41-1.13a1,1,0,0,1,1.26,1.26l-1.13,3.41"/><path class="cls-9" d="M16.37,32.92a88.21,88.21,0,0,0,10.27-8.78,88.21,88.21,0,0,0,8.78-10.27,1.41,1.41,0,0,1,2.25-.13c.2.26.38.54.56.82A94.07,94.07,0,0,1,28.6,26.1a94.07,94.07,0,0,1-11.54,9.63c-.28-.18-.56-.36-.82-.56A1.41,1.41,0,0,1,16.37,32.92Z"/></g></svg>