<svg id="Icons" xmlns="http://www.w3.org/2000/svg" viewBox="0 0 48 48"><defs><style>.cls-1{fill:#ffe500;}.cls-2{fill:#ebcb00;}.cls-3{fill:#fff48c;}.cls-4{fill:none;}.cls-4,.cls-6,.cls-7,.cls-8{stroke:#45413c;stroke-linecap:round;stroke-linejoin:round;}.cls-5{fill:#ffaa54;}.cls-6{fill:#ffb0ca;}.cls-7{fill:#ff87af;}.cls-8{fill:#4aeff7;}.cls-9{fill:#45413c;opacity:0.15;}.cls-10{fill:#ff6242;}.cls-11{fill:#ff866e;}</style></defs><title>13-smiling-face-with-heart-eyes</title><g id="_Group_" data-name="&lt;Group&gt;"><circle id="_Ellipse_" data-name="&lt;Ellipse&gt;" class="cls-1" cx="24" cy="21.5" r="20"/><path id="_Compound_Path_" data-name="&lt;Compound Path&gt;" class="cls-2" d="M24,1.5a20,20,0,1,0,20,20A20,20,0,0,0,24,1.5Zm0,37A18.25,18.25,0,1,1,42.25,20.25,18.25,18.25,0,0,1,24,38.5Z"/><ellipse id="_Ellipse_2" data-name="&lt;Ellipse&gt;" class="cls-3" cx="24" cy="5.5" rx="6" ry="1.5"/><circle id="_Ellipse_3" data-name="&lt;Ellipse&gt;" class="cls-4" cx="24" cy="21.5" r="20"/><ellipse id="_Ellipse_4" data-name="&lt;Ellipse&gt;" class="cls-5" cx="13.09" cy="23.23" rx="2.5" ry="1.5"/><ellipse id="_Ellipse_5" data-name="&lt;Ellipse&gt;" class="cls-5" cx="34.91" cy="23.23" rx="2.5" ry="1.5"/><path id="_Path_" data-name="&lt;Path&gt;" class="cls-6" d="M15.73,28a1,1,0,0,0-.75.34,1,1,0,0,0-.25.78,9.34,9.34,0,0,0,18.54,0,1,1,0,0,0-.25-.78,1,1,0,0,0-.75-.34Z"/><path id="_Path_2" data-name="&lt;Path&gt;" class="cls-7" d="M31.36,33.73A15,15,0,0,0,24,32a15,15,0,0,0-7.36,1.73,9.32,9.32,0,0,0,14.72,0Z"/><path id="_Path_3" data-name="&lt;Path&gt;" class="cls-8" d="M31.52,32.23a.43.43,0,0,1,.81.19v9.19a1.63,1.63,0,0,1-3.25,0v-5a3.62,3.62,0,0,1,1-2.53A7.93,7.93,0,0,0,31.52,32.23Z"/><ellipse id="_Ellipse_6" data-name="&lt;Ellipse&gt;" class="cls-9" cx="24" cy="45.5" rx="16" ry="1.5"/><g id="_Group_2" data-name="&lt;Group&gt;"><path id="_Path_4" data-name="&lt;Path&gt;" class="cls-10" d="M37.68,15.82a4.37,4.37,0,0,1-2.52,2.35l-6,2-2.49-5.84a4.32,4.32,0,0,1,.09-3.45A3.39,3.39,0,0,1,29,9a2.67,2.67,0,0,1,3.17,1.87l.47,1.51,1.43-.65a2.66,2.66,0,0,1,3.5,1.12A3.37,3.37,0,0,1,37.68,15.82Z"/><path id="_Path_5" data-name="&lt;Path&gt;" class="cls-11" d="M27.8,11.73A2.68,2.68,0,0,1,31,13.6l.46,1.51,1.44-.65a2.67,2.67,0,0,1,3.5,1.12,3.16,3.16,0,0,1,.37,1.57,4.51,4.51,0,0,0,.94-1.33,3.37,3.37,0,0,0-.07-3,2.66,2.66,0,0,0-3.5-1.12l-1.43.65-.47-1.51A2.67,2.67,0,0,0,29,9a3.39,3.39,0,0,0-2.29,2,4.56,4.56,0,0,0-.38,1.6A3.13,3.13,0,0,1,27.8,11.73Z"/><path id="_Path_6" data-name="&lt;Path&gt;" class="cls-4" d="M37.68,15.82a4.37,4.37,0,0,1-2.52,2.35l-6,2-2.49-5.84a4.32,4.32,0,0,1,.09-3.45A3.39,3.39,0,0,1,29,9a2.67,2.67,0,0,1,3.17,1.87l.47,1.51,1.43-.65a2.66,2.66,0,0,1,3.5,1.12A3.37,3.37,0,0,1,37.68,15.82Z"/></g><g id="_Group_3" data-name="&lt;Group&gt;"><path id="_Path_7" data-name="&lt;Path&gt;" class="cls-10" d="M6.3,8a4.08,4.08,0,0,1,5.49-1.29L13.9,7.9l.9-2.24A4.08,4.08,0,0,1,19.87,3.2a5.17,5.17,0,0,1,3.27,3.26,6.67,6.67,0,0,1-.29,5.27l-4.52,8.62L9.38,16.52a6.66,6.66,0,0,1-3.55-3.9A5.14,5.14,0,0,1,6.3,8Z"/><path id="_Path_8" data-name="&lt;Path&gt;" class="cls-11" d="M7.87,12.42a4.08,4.08,0,0,1,5.49-1.29l2.11,1.17.9-2.24a4.08,4.08,0,0,1,5.07-2.47,4.88,4.88,0,0,1,2.08,1.34,7,7,0,0,0-.38-2.47A5.17,5.17,0,0,0,19.87,3.2,4.08,4.08,0,0,0,14.8,5.66L13.9,7.9,11.79,6.73A4.08,4.08,0,0,0,6.3,8a5.14,5.14,0,0,0-.47,4.6A6.93,6.93,0,0,0,7.1,14.79,4.66,4.66,0,0,1,7.87,12.42Z"/><path id="_Path_9" data-name="&lt;Path&gt;" class="cls-4" d="M6.3,8a4.08,4.08,0,0,1,5.49-1.29L13.9,7.9l.9-2.24A4.08,4.08,0,0,1,19.87,3.2a5.17,5.17,0,0,1,3.27,3.26,6.67,6.67,0,0,1-.29,5.27l-4.52,8.62L9.38,16.52a6.66,6.66,0,0,1-3.55-3.9A5.14,5.14,0,0,1,6.3,8Z"/></g></g></svg>