<svg id="Icons" xmlns="http://www.w3.org/2000/svg" viewBox="0 0 48 48"><defs><style>.cls-1{fill:#ffe500;}.cls-2{fill:#ebcb00;}.cls-3{fill:none;}.cls-3,.cls-5,.cls-6,.cls-7{stroke:#45413c;stroke-linecap:round;stroke-linejoin:round;}.cls-4{fill:#fff48c;}.cls-5{fill:#ffb0ca;}.cls-6{fill:#ff87af;}.cls-7{fill:#fff;}.cls-8{fill:#45413c;opacity:0.15;}</style></defs><title>20-star-struck-2</title><g id="_Group_" data-name="&lt;Group&gt;"><circle id="_Ellipse_" data-name="&lt;Ellipse&gt;" class="cls-1" cx="24" cy="21.5" r="20"/><path id="_Compound_Path_" data-name="&lt;Compound Path&gt;" class="cls-2" d="M24,1.5a20,20,0,1,0,20,20A20,20,0,0,0,24,1.5Zm0,37A18.25,18.25,0,1,1,42.25,20.25,18.25,18.25,0,0,1,24,38.5Z"/><circle id="_Ellipse_2" data-name="&lt;Ellipse&gt;" class="cls-3" cx="24" cy="21.5" r="20"/><ellipse id="_Ellipse_3" data-name="&lt;Ellipse&gt;" class="cls-4" cx="24" cy="5.5" rx="6" ry="1.5"/><g id="_Group_2" data-name="&lt;Group&gt;"><path id="_Path_" data-name="&lt;Path&gt;" class="cls-5" d="M17.94,29.21a.94.94,0,0,0-.71.33,1,1,0,0,0-.22.76,7.07,7.07,0,0,0,14,0,1,1,0,0,0-.22-.76.94.94,0,0,0-.71-.33Z"/><path id="_Path_2" data-name="&lt;Path&gt;" class="cls-6" d="M29.57,33.56A11.26,11.26,0,0,0,24,32.24a11.26,11.26,0,0,0-5.57,1.32,7,7,0,0,0,11.14,0Z"/></g><path id="_Path_3" data-name="&lt;Path&gt;" class="cls-7" d="M20.75,23.42a.32.32,0,0,0,0-.63c-5-1.43-5.4-1.84-6.83-6.82a.32.32,0,0,0-.63,0c-1.43,5-1.85,5.4-6.82,6.82a.32.32,0,0,0,0,.63c5,1.43,5.4,1.85,6.82,6.83a.32.32,0,0,0,.63,0C15.35,25.27,15.76,24.85,20.75,23.42Z"/><path id="_Path_4" data-name="&lt;Path&gt;" class="cls-7" d="M27.25,23.42a.32.32,0,0,1,0-.63c5-1.43,5.4-1.84,6.82-6.82a.41.41,0,0,1,.32-.26.38.38,0,0,1,.32.26c1.43,5,1.85,5.4,6.82,6.82a.32.32,0,0,1,0,.63c-5,1.43-5.4,1.85-6.82,6.83a.35.35,0,0,1-.32.25.38.38,0,0,1-.32-.25C32.65,25.27,32.24,24.85,27.25,23.42Z"/><ellipse id="_Ellipse_4" data-name="&lt;Ellipse&gt;" class="cls-8" cx="24" cy="45.5" rx="16" ry="1.5"/></g></svg>