<svg id="Icons" xmlns="http://www.w3.org/2000/svg" viewBox="0 0 48 48"><defs><style>.cls-1{fill:#ffe500;}.cls-2{fill:#ebcb00;}.cls-3{fill:#fff48c;}.cls-4,.cls-7{fill:#45413c;}.cls-4{opacity:0.15;}.cls-5{fill:none;}.cls-5,.cls-7{stroke:#45413c;stroke-linecap:round;stroke-linejoin:round;}.cls-6{fill:#ffaa54;}</style></defs><title>21-thinking-face</title><g id="_Group_" data-name="&lt;Group&gt;"><circle id="_Ellipse_" data-name="&lt;Ellipse&gt;" class="cls-1" cx="24" cy="21.5" r="20"/><path id="_Compound_Path_" data-name="&lt;Compound Path&gt;" class="cls-2" d="M24,1.5a20,20,0,1,0,20,20A20,20,0,0,0,24,1.5Zm0,37A18.25,18.25,0,1,1,42.25,20.25,18.25,18.25,0,0,1,24,38.5Z"/><ellipse id="_Ellipse_2" data-name="&lt;Ellipse&gt;" class="cls-3" cx="24" cy="5.5" rx="6" ry="1.5"/><ellipse id="_Ellipse_3" data-name="&lt;Ellipse&gt;" class="cls-4" cx="24" cy="45.5" rx="16" ry="1.5"/><circle id="_Ellipse_4" data-name="&lt;Ellipse&gt;" class="cls-5" cx="24" cy="21.5" r="20"/><path id="_Path_" data-name="&lt;Path&gt;" class="cls-6" d="M38.5,23.5c0,.83-1.12,1.5-2.5,1.5s-2.5-.67-2.5-1.5S34.62,22,36,22,38.5,22.67,38.5,23.5Z"/><path id="_Path_2" data-name="&lt;Path&gt;" class="cls-6" d="M9.5,23.5c0,.83,1.12,1.5,2.5,1.5s2.5-.67,2.5-1.5S13.38,22,12,22,9.5,22.67,9.5,23.5Z"/><path id="_Path_3" data-name="&lt;Path&gt;" class="cls-5" d="M30.35,30c-1.47-1.49-4.21-2.5-7.35-2.5a13.43,13.43,0,0,0-2.5.23"/><circle id="_Ellipse_5" data-name="&lt;Ellipse&gt;" class="cls-7" cx="18.67" cy="19" r="1"/><circle id="_Ellipse_6" data-name="&lt;Ellipse&gt;" class="cls-7" cx="28" cy="19.03" r="1"/><path id="_Path_4" data-name="&lt;Path&gt;" class="cls-5" d="M21,15.5s-3-4.5-6.33-3"/><path id="_Path_5" data-name="&lt;Path&gt;" class="cls-5" d="M33.5,15.5a11.77,11.77,0,0,1-6.95.83"/></g></svg>