<svg id="Icons" xmlns="http://www.w3.org/2000/svg" viewBox="0 0 48 48"><defs><style>.cls-1{fill:#ffe500;}.cls-2{fill:#ebcb00;}.cls-3{fill:#fff48c;}.cls-4{fill:#45413c;opacity:0.15;}.cls-5,.cls-7{fill:none;stroke:#45413c;stroke-linecap:round;}.cls-5{stroke-linejoin:round;}.cls-6{fill:#ffaa54;}.cls-7{stroke-miterlimit:10;}</style></defs><title>28-persevering-face</title><g id="_Group_" data-name="&lt;Group&gt;"><circle id="_Ellipse_" data-name="&lt;Ellipse&gt;" class="cls-1" cx="24" cy="21.5" r="20"/><path id="_Compound_Path_" data-name="&lt;Compound Path&gt;" class="cls-2" d="M24,1.5a20,20,0,1,0,20,20A20,20,0,0,0,24,1.5Zm0,37A18.25,18.25,0,1,1,42.25,20.25,18.25,18.25,0,0,1,24,38.5Z"/><ellipse id="_Ellipse_2" data-name="&lt;Ellipse&gt;" class="cls-3" cx="24" cy="5.5" rx="6" ry="1.5"/><ellipse id="_Ellipse_3" data-name="&lt;Ellipse&gt;" class="cls-4" cx="24" cy="44.91" rx="16" ry="1.5"/><circle id="_Ellipse_4" data-name="&lt;Ellipse&gt;" class="cls-5" cx="24" cy="21.5" r="20"/><path id="_Path_" data-name="&lt;Path&gt;" class="cls-6" d="M38.5,26.5c0,.83-1.12,1.5-2.5,1.5s-2.5-.67-2.5-1.5S34.62,25,36,25,38.5,25.67,38.5,26.5Z"/><path id="_Path_2" data-name="&lt;Path&gt;" class="cls-6" d="M9.5,26.5c0,.83,1.12,1.5,2.5,1.5s2.5-.67,2.5-1.5S13.38,25,12,25,9.5,25.67,9.5,26.5Z"/><path id="_Path_3" data-name="&lt;Path&gt;" class="cls-5" d="M36.26,18l-3.21,1.61a1,1,0,0,0,0,1.78L36.26,23"/><path id="_Path_4" data-name="&lt;Path&gt;" class="cls-5" d="M11.74,18,15,19.61a1,1,0,0,1,0,1.78L11.74,23"/><path id="_Path_5" data-name="&lt;Path&gt;" class="cls-5" d="M13,16a11.43,11.43,0,0,0,3.37-1.1,11.18,11.18,0,0,0,2.88-2.06"/><path id="_Path_6" data-name="&lt;Path&gt;" class="cls-5" d="M35,16a11.43,11.43,0,0,1-3.37-1.1,11.18,11.18,0,0,1-2.88-2.06"/><path id="_Path_7" data-name="&lt;Path&gt;" class="cls-7" d="M19,31.5a9,9,0,0,1,10,0"/></g></svg>