<svg id="Icons" xmlns="http://www.w3.org/2000/svg" viewBox="0 0 48 48"><defs><style>.cls-1{fill:#ffe500;}.cls-2{fill:#ebcb00;}.cls-3{fill:none;}.cls-3,.cls-6,.cls-8{stroke:#45413c;stroke-linecap:round;stroke-linejoin:round;}.cls-4{fill:#fff48c;}.cls-5,.cls-6,.cls-9{fill:#45413c;}.cls-5{opacity:0.15;}.cls-7{fill:#ffaa54;}.cls-8{fill:#fff;}</style></defs><title>30-zipper-mouth-face</title><g id="_Group_" data-name="&lt;Group&gt;"><g id="_Group_2" data-name="&lt;Group&gt;"><circle id="_Ellipse_" data-name="&lt;Ellipse&gt;" class="cls-1" cx="24" cy="21.5" r="20"/><path id="_Compound_Path_" data-name="&lt;Compound Path&gt;" class="cls-2" d="M24,1.5a20,20,0,1,0,20,20A20,20,0,0,0,24,1.5Zm0,37A18.25,18.25,0,1,1,42.25,20.25,18.25,18.25,0,0,1,24,38.5Z"/><circle id="_Ellipse_2" data-name="&lt;Ellipse&gt;" class="cls-3" cx="24" cy="21.5" r="20"/><ellipse id="_Ellipse_3" data-name="&lt;Ellipse&gt;" class="cls-4" cx="24" cy="5.5" rx="6" ry="1.5"/><ellipse id="_Ellipse_4" data-name="&lt;Ellipse&gt;" class="cls-5" cx="24" cy="45.5" rx="16" ry="1.5"/><path id="_Path_" data-name="&lt;Path&gt;" class="cls-6" d="M15,21.5a1,1,0,1,1-1-1A1,1,0,0,1,15,21.5Z"/><path id="_Path_2" data-name="&lt;Path&gt;" class="cls-6" d="M34.5,21.5a1,1,0,1,1-1-1A1,1,0,0,1,34.5,21.5Z"/><path id="_Path_3" data-name="&lt;Path&gt;" class="cls-7" d="M38.5,26.5c0,.83-1.12,1.5-2.5,1.5s-2.5-.67-2.5-1.5S34.62,25,36,25,38.5,25.67,38.5,26.5Z"/><path id="_Path_4" data-name="&lt;Path&gt;" class="cls-7" d="M9.5,26.5c0,.83,1.12,1.5,2.5,1.5s2.5-.67,2.5-1.5S13.38,25,12,25,9.5,25.67,9.5,26.5Z"/><line id="_Line_" data-name="&lt;Line&gt;" class="cls-3" x1="35" y1="32" x2="13" y2="32"/><path id="_Path_5" data-name="&lt;Path&gt;" class="cls-8" d="M16.5,33.5a1,1,0,0,1-2,0v-3a1,1,0,0,1,2,0Z"/><path id="_Path_6" data-name="&lt;Path&gt;" class="cls-8" d="M21,33.5a1,1,0,0,1-2,0v-3a1,1,0,0,1,2,0Z"/><path id="_Path_7" data-name="&lt;Path&gt;" class="cls-8" d="M25.5,33.5a1,1,0,0,1-2,0v-3a1,1,0,0,1,2,0Z"/><path id="_Path_8" data-name="&lt;Path&gt;" class="cls-8" d="M30,33.5a1,1,0,0,1-2,0v-3a1,1,0,0,1,2,0Z"/><path id="_Compound_Path_2" data-name="&lt;Compound Path&gt;" class="cls-8" d="M32.81,32.3a2.38,2.38,0,0,0-.34,3.21l2.87,3.86a2.79,2.79,0,1,0,4.17-3.67L36,32.37A2.39,2.39,0,0,0,32.81,32.3Z"/><path class="cls-9" d="M37.42,36.54a1,1,0,1,0,1,1,1,1,0,0,0-1-1Z"/></g></g></svg>