<svg id="Icons" xmlns="http://www.w3.org/2000/svg" viewBox="0 0 48 48"><defs><style>.cls-1{fill:#ffe500;}.cls-2{fill:#ebcb00;}.cls-3{fill:#fff48c;}.cls-4{fill:#45413c;opacity:0.15;}.cls-5,.cls-9{fill:none;}.cls-10,.cls-11,.cls-5,.cls-9{stroke:#45413c;stroke-linejoin:round;}.cls-10,.cls-11,.cls-5{stroke-linecap:round;}.cls-6{fill:#ffaa54;}.cls-7{fill:#00b8f0;}.cls-8{fill:#4acfff;}.cls-10{fill:#ffb0ca;}.cls-11{fill:#fff;}</style></defs><title>33-sleepy-face</title><g id="_Group_" data-name="&lt;Group&gt;"><circle id="_Ellipse_" data-name="&lt;Ellipse&gt;" class="cls-1" cx="24" cy="21.5" r="20"/><path id="_Compound_Path_" data-name="&lt;Compound Path&gt;" class="cls-2" d="M24,1.5a20,20,0,1,0,20,20A20,20,0,0,0,24,1.5Zm0,37A18.25,18.25,0,1,1,42.25,20.25,18.25,18.25,0,0,1,24,38.5Z"/><ellipse id="_Ellipse_2" data-name="&lt;Ellipse&gt;" class="cls-3" cx="24" cy="5.5" rx="6" ry="1.5"/><ellipse id="_Ellipse_3" data-name="&lt;Ellipse&gt;" class="cls-4" cx="24" cy="45.5" rx="16" ry="1.5"/><circle id="_Ellipse_4" data-name="&lt;Ellipse&gt;" class="cls-5" cx="24" cy="21.5" r="20"/><path id="_Path_" data-name="&lt;Path&gt;" class="cls-6" d="M9.5,26.5c0,.83,1.12,1.5,2.5,1.5s2.5-.67,2.5-1.5S13.38,25,12,25,9.5,25.67,9.5,26.5Z"/><path id="_Path_2" data-name="&lt;Path&gt;" class="cls-5" d="M38,20.5a1.75,1.75,0,0,1-3.5,0"/><path id="_Path_3" data-name="&lt;Path&gt;" class="cls-5" d="M13.5,20.5a1.75,1.75,0,0,1-3.5,0"/><path id="_Path_4" data-name="&lt;Path&gt;" class="cls-7" d="M29.48,26.42a.5.5,0,0,1,.26-.92H32.5A11.5,11.5,0,0,1,44,37a4,4,0,0,1-8,0,11.72,11.72,0,0,0-5.51-9.94Z"/><path id="_Path_5" data-name="&lt;Path&gt;" class="cls-8" d="M44,37A11.5,11.5,0,0,0,32.5,25.5H29.74a.5.5,0,0,0-.26.92l.92.58H31A11.5,11.5,0,0,1,42.5,38.5a3.84,3.84,0,0,1-.54,2A4,4,0,0,0,44,37Z"/><path id="_Path_6" data-name="&lt;Path&gt;" class="cls-9" d="M29.48,26.42a.5.5,0,0,1,.26-.92H32.5A11.5,11.5,0,0,1,44,37a4,4,0,0,1-8,0,11.72,11.72,0,0,0-5.51-9.94Z"/><g id="_Group_2" data-name="&lt;Group&gt;"><path id="_Path_7" data-name="&lt;Path&gt;" class="cls-10" d="M16.74,35.36a2.5,2.5,0,0,1-.19-3.53,10,10,0,0,1,14.9,0,2.5,2.5,0,1,1-3.72,3.34,5,5,0,0,0-7.46,0A2.5,2.5,0,0,1,16.74,35.36Z"/></g><path id="_Path_8" data-name="&lt;Path&gt;" class="cls-5" d="M31,13.5a11.66,11.66,0,0,1,6.25,3.16"/><path id="_Path_9" data-name="&lt;Path&gt;" class="cls-5" d="M17,13.5a11.66,11.66,0,0,0-6.25,3.16"/><path class="cls-11" d="M30.61,31a10,10,0,0,0-13.22,0Z"/></g></svg>