<svg id="Icons" xmlns="http://www.w3.org/2000/svg" viewBox="0 0 48 48"><defs><style>.cls-1{fill:#45413c;opacity:0.15;}.cls-2{fill:#ffe500;}.cls-3{fill:#ebcb00;}.cls-11,.cls-4{fill:none;}.cls-11,.cls-4,.cls-5,.cls-6,.cls-8,.cls-9{stroke:#45413c;stroke-linejoin:round;}.cls-4,.cls-5,.cls-6,.cls-8{stroke-linecap:round;}.cls-5{fill:#ffb0ca;}.cls-6{fill:#ff866e;}.cls-7{fill:#ffaa54;}.cls-8{fill:#4aeff7;}.cls-9{fill:#dabff5;}.cls-10{fill:#eddbff;}</style></defs><title>35-sleeping-face</title><g id="_Group_" data-name="&lt;Group&gt;"><ellipse id="_Ellipse_" data-name="&lt;Ellipse&gt;" class="cls-1" cx="23.96" cy="45.41" rx="11.67" ry="1.59"/><circle id="_Ellipse_2" data-name="&lt;Ellipse&gt;" class="cls-2" cx="24" cy="27.54" r="13.46"/><path id="_Compound_Path_" data-name="&lt;Compound Path&gt;" class="cls-3" d="M24,14.09A13.46,13.46,0,1,0,37.46,27.54,13.46,13.46,0,0,0,24,14.09ZM24,39A12.28,12.28,0,1,1,36.28,26.7,12.28,12.28,0,0,1,24,39Z"/><circle id="_Ellipse_3" data-name="&lt;Ellipse&gt;" class="cls-4" cx="24" cy="27.54" r="13.46"/><circle id="_Ellipse_4" data-name="&lt;Ellipse&gt;" class="cls-5" cx="24" cy="34.1" r="5.38"/><ellipse id="_Path_" data-name="&lt;Path&gt;" class="cls-6" cx="24" cy="36.96" rx="4.55" ry="2.52"/><path id="_Path_2" data-name="&lt;Path&gt;" class="cls-7" d="M34.77,31.58c0,.56-.76,1-1.69,1s-1.68-.45-1.68-1,.75-1,1.68-1S34.77,31,34.77,31.58Z"/><path id="_Path_3" data-name="&lt;Path&gt;" class="cls-7" d="M13.23,31.58c0,.56.76,1,1.69,1s1.68-.45,1.68-1-.75-1-1.68-1S13.23,31,13.23,31.58Z"/><path id="_Path_4" data-name="&lt;Path&gt;" class="cls-8" d="M25.68,39.57a1.77,1.77,0,0,1,1-1.58,1.82,1.82,0,0,0,.62-.52l.56-.74a.67.67,0,0,1,1.21.4V39a1.18,1.18,0,0,1-1.18,1.18.5.5,0,0,0-.51.5v4.88a.84.84,0,0,1-1.68,0Z"/><path id="_Path_5" data-name="&lt;Path&gt;" class="cls-4" d="M33.42,27.54a1.18,1.18,0,1,1-2.35,0"/><path id="_Path_6" data-name="&lt;Path&gt;" class="cls-4" d="M16.94,27.54a1.18,1.18,0,0,1-2.36,0"/><g id="_Group_2" data-name="&lt;Group&gt;"><path id="_Path_7" data-name="&lt;Path&gt;" class="cls-9" d="M25.57,17.69l-5.93-1.13a.93.93,0,0,1-.38-1.66l5.43-4-3.84-.73a1,1,0,0,1-.74-1.09.93.93,0,0,1,1.09-.74l5.94,1.13a.93.93,0,0,1,.37,1.66l-5.43,4,3.84.73a.93.93,0,1,1-.35,1.83Z"/></g><g id="_Group_3" data-name="&lt;Group&gt;"><path id="_Path_8" data-name="&lt;Path&gt;" class="cls-9" d="M14.76,23.66,9.94,25.6a.8.8,0,0,1-1-1L11,19.15,7.86,20.41a.8.8,0,0,1-1-.45.79.79,0,0,1,.44-1L12.08,17a.8.8,0,0,1,1.05,1l-2.08,5.41,3.12-1.25a.8.8,0,1,1,.59,1.48Z"/></g><g id="_Group_4" data-name="&lt;Group&gt;"><path id="_Path_9" data-name="&lt;Path&gt;" class="cls-9" d="M17.58,14.17,6.3,16.38a1.44,1.44,0,0,1-1.46-2.24L12,4,4.17,5.57a1.44,1.44,0,1,1-.55-2.83L14.9.53a1.43,1.43,0,0,1,1.46,2.23L9.25,12.87,17,11.34a1.44,1.44,0,0,1,.55,2.83Z"/></g><g id="_Group_5" data-name="&lt;Group&gt;"><path id="_Path_10" data-name="&lt;Path&gt;" class="cls-10" d="M4.19,4.29,15.48,2.07a1.47,1.47,0,0,1,1.08.24,1.44,1.44,0,0,0-.17-1.16A1.43,1.43,0,0,0,14.91.53L3.62,2.74a1.44,1.44,0,0,0-.54,2.6A1.44,1.44,0,0,1,4.19,4.29Z"/></g><g id="_Group_6" data-name="&lt;Group&gt;"><path id="_Path_11" data-name="&lt;Path&gt;" class="cls-11" d="M17.58,14.17,6.3,16.38a1.44,1.44,0,0,1-1.46-2.24L12,4,4.17,5.57a1.44,1.44,0,1,1-.55-2.83L14.9.53a1.43,1.43,0,0,1,1.46,2.23L9.25,12.87,17,11.34a1.44,1.44,0,0,1,.55,2.83Z"/></g></g></svg>