<svg id="Icons" xmlns="http://www.w3.org/2000/svg" viewBox="0 0 48 48"><defs><style>.cls-1{fill:#ffe500;}.cls-2{fill:#ebcb00;}.cls-3{fill:#fff48c;}.cls-4{fill:none;}.cls-4,.cls-6,.cls-7,.cls-8{stroke:#45413c;stroke-linecap:round;stroke-linejoin:round;}.cls-5{fill:#ffaa54;}.cls-6{fill:#ffb0ca;}.cls-7{fill:#ff87af;}.cls-8{fill:#4aeff7;}.cls-9{fill:#45413c;opacity:0.15;}</style></defs><title>41-drooling-face-1</title><g id="_Group_" data-name="&lt;Group&gt;"><circle id="_Ellipse_" data-name="&lt;Ellipse&gt;" class="cls-1" cx="24" cy="21.5" r="20"/><path id="_Compound_Path_" data-name="&lt;Compound Path&gt;" class="cls-2" d="M24,1.5a20,20,0,1,0,20,20A20,20,0,0,0,24,1.5Zm0,37A18.25,18.25,0,1,1,42.25,20.25,18.25,18.25,0,0,1,24,38.5Z"/><ellipse id="_Ellipse_2" data-name="&lt;Ellipse&gt;" class="cls-3" cx="24" cy="5.5" rx="6" ry="1.5"/><circle id="_Ellipse_3" data-name="&lt;Ellipse&gt;" class="cls-4" cx="24" cy="21.5" r="20"/><path id="_Path_" data-name="&lt;Path&gt;" class="cls-5" d="M38.5,26.5c0,.83-1.12,1.5-2.5,1.5s-2.5-.67-2.5-1.5S34.62,25,36,25,38.5,25.67,38.5,26.5Z"/><path id="_Path_2" data-name="&lt;Path&gt;" class="cls-5" d="M9.5,26.5c0,.83,1.12,1.5,2.5,1.5s2.5-.67,2.5-1.5S13.38,25,12,25,9.5,25.67,9.5,26.5Z"/><g id="_Group_2" data-name="&lt;Group&gt;"><path id="_Path_3" data-name="&lt;Path&gt;" class="cls-4" d="M39.91,19.42a7,7,0,0,0-9.33-3.36"/><path id="_Path_4" data-name="&lt;Path&gt;" class="cls-4" d="M8.09,19.42a7,7,0,0,1,9.33-3.36"/></g><g id="_Group_3" data-name="&lt;Group&gt;"><path id="_Path_5" data-name="&lt;Path&gt;" class="cls-6" d="M17.94,29.5a.94.94,0,0,0-.71.33,1,1,0,0,0-.22.76,7.09,7.09,0,0,0,14,0,1,1,0,0,0-.22-.76.94.94,0,0,0-.71-.33Z"/><path id="_Path_6" data-name="&lt;Path&gt;" class="cls-7" d="M29.57,33.84A11.37,11.37,0,0,0,24,32.53a11.37,11.37,0,0,0-5.57,1.31,7.16,7.16,0,0,0,11.14,0Z"/></g><path id="_Path_7" data-name="&lt;Path&gt;" class="cls-8" d="M29.52,32.23a.43.43,0,0,1,.81.19v9.19a1.63,1.63,0,0,1-3.25,0v-5a3.62,3.62,0,0,1,1-2.53A7.93,7.93,0,0,0,29.52,32.23Z"/><ellipse id="_Ellipse_4" data-name="&lt;Ellipse&gt;" class="cls-9" cx="24" cy="45.5" rx="16" ry="1.5"/><path id="_Path_8" data-name="&lt;Path&gt;" class="cls-4" d="M10.64,22.5A4,4,0,0,1,16,20.7"/><path id="_Path_9" data-name="&lt;Path&gt;" class="cls-4" d="M37.36,22.5A4,4,0,0,0,32,20.7"/></g></svg>