<svg id="Icons" xmlns="http://www.w3.org/2000/svg" viewBox="0 0 48 48"><defs><style>.cls-1{fill:#ffe500;}.cls-2{fill:#ebcb00;}.cls-3{fill:#fff48c;}.cls-4,.cls-7{fill:#45413c;}.cls-4{opacity:0.15;}.cls-5,.cls-6{fill:none;}.cls-5,.cls-6,.cls-7{stroke:#45413c;stroke-linecap:round;}.cls-5,.cls-7{stroke-linejoin:round;}.cls-6{stroke-miterlimit:10;}.cls-8{fill:#ffaa54;}</style></defs><title>47-upside-down-face</title><g id="_Group_" data-name="&lt;Group&gt;"><circle id="_Ellipse_" data-name="&lt;Ellipse&gt;" class="cls-1" cx="24" cy="21.5" r="20"/><path id="_Compound_Path_" data-name="&lt;Compound Path&gt;" class="cls-2" d="M24,1.5a20,20,0,1,0,20,20A20,20,0,0,0,24,1.5Zm0,37A18.25,18.25,0,1,1,42.25,20.25,18.25,18.25,0,0,1,24,38.5Z"/><ellipse id="_Ellipse_2" data-name="&lt;Ellipse&gt;" class="cls-3" cx="24" cy="5.5" rx="6" ry="1.5"/><ellipse id="_Ellipse_3" data-name="&lt;Ellipse&gt;" class="cls-4" cx="24" cy="45.5" rx="16" ry="1.5"/><circle id="_Ellipse_4" data-name="&lt;Ellipse&gt;" class="cls-5" cx="24" cy="21.5" r="20"/><path id="_Path_" data-name="&lt;Path&gt;" class="cls-6" d="M19,13.52a9,9,0,0,1,10,0"/><path id="_Path_2" data-name="&lt;Path&gt;" class="cls-7" d="M33.5,22.25a1,1,0,1,1,1,1A1,1,0,0,1,33.5,22.25Z"/><path id="_Path_3" data-name="&lt;Path&gt;" class="cls-7" d="M14.5,22.25a1,1,0,1,0-1,1A1,1,0,0,0,14.5,22.25Z"/><path id="_Path_4" data-name="&lt;Path&gt;" class="cls-8" d="M9.5,16.25c0-.83,1.12-1.5,2.5-1.5s2.5.67,2.5,1.5-1.12,1.5-2.5,1.5S9.5,17.08,9.5,16.25Z"/><path id="_Path_5" data-name="&lt;Path&gt;" class="cls-8" d="M38.5,16.25c0-.83-1.12-1.5-2.5-1.5s-2.5.67-2.5,1.5,1.12,1.5,2.5,1.5S38.5,17.08,38.5,16.25Z"/></g></svg>