<svg id="Icons" xmlns="http://www.w3.org/2000/svg" viewBox="0 0 48 48"><defs><style>.cls-1{fill:#ffe500;}.cls-2{fill:#ebcb00;}.cls-3{fill:#fff48c;}.cls-10,.cls-4{fill:#45413c;}.cls-4{opacity:0.15;}.cls-5{fill:none;}.cls-10,.cls-5,.cls-7,.cls-8,.cls-9{stroke:#45413c;stroke-linecap:round;stroke-linejoin:round;}.cls-6{fill:#ffaa54;}.cls-7{fill:#ffb0ca;}.cls-8{fill:#ff866e;}.cls-9{fill:#fff;}</style></defs><title>50-astonished-face</title><circle id="_Ellipse_" data-name="&lt;Ellipse&gt;" class="cls-1" cx="24" cy="21.5" r="20"/><path id="_Compound_Path_" data-name="&lt;Compound Path&gt;" class="cls-2" d="M24,1.5a20,20,0,1,0,20,20A20,20,0,0,0,24,1.5Zm0,37A18.25,18.25,0,1,1,42.25,20.25,18.25,18.25,0,0,1,24,38.5Z"/><ellipse id="_Ellipse_2" data-name="&lt;Ellipse&gt;" class="cls-3" cx="24" cy="5.5" rx="6" ry="1.5"/><ellipse id="_Ellipse_3" data-name="&lt;Ellipse&gt;" class="cls-4" cx="24" cy="45.5" rx="16" ry="1.5"/><circle id="_Ellipse_4" data-name="&lt;Ellipse&gt;" class="cls-5" cx="24" cy="21.5" r="20"/><path id="_Path_" data-name="&lt;Path&gt;" class="cls-6" d="M38.5,26.5c0,.83-1.12,1.5-2.5,1.5s-2.5-.67-2.5-1.5S34.62,25,36,25,38.5,25.67,38.5,26.5Z"/><path id="_Path_2" data-name="&lt;Path&gt;" class="cls-6" d="M9.5,26.5c0,.83,1.12,1.5,2.5,1.5s2.5-.67,2.5-1.5S13.38,25,12,25,9.5,25.67,9.5,26.5Z"/><g id="_Group_" data-name="&lt;Group&gt;"><circle id="_Ellipse_5" data-name="&lt;Ellipse&gt;" class="cls-7" cx="24" cy="31.5" r="7.5"/><ellipse id="_Path_3" data-name="&lt;Path&gt;" class="cls-8" cx="24" cy="35.48" rx="6.35" ry="3.52"/></g><circle class="cls-9" cx="13.98" cy="16.25" r="5"/><path id="_Path_4" data-name="&lt;Path&gt;" class="cls-10" d="M13,16.25a1,1,0,1,0,1-1A1,1,0,0,0,13,16.25Z"/><circle class="cls-9" cx="34.02" cy="16.25" r="5"/><path id="_Path_5" data-name="&lt;Path&gt;" class="cls-10" d="M35,16.25a1,1,0,1,1-1-1A1,1,0,0,1,35,16.25Z"/><path class="cls-5" d="M19,9.69c-1.54-1.44-5.83-3.44-8.23-.06"/><path class="cls-5" d="M29,9.69c1.54-1.44,5.83-3.44,8.23-.06"/></svg>