<svg id="Icons" xmlns="http://www.w3.org/2000/svg" viewBox="0 0 48 48"><defs><style>.cls-1{fill:#ffe500;}.cls-2{fill:#ebcb00;}.cls-3{fill:#fff48c;}.cls-4,.cls-7{fill:none;}.cls-4,.cls-7,.cls-8{stroke:#45413c;stroke-linecap:round;}.cls-4,.cls-8{stroke-linejoin:round;}.cls-5{fill:#45413c;opacity:0.15;}.cls-6{fill:#ffaa54;}.cls-7{stroke-miterlimit:10;}.cls-8{fill:#fff;}</style></defs><title>55-face-with-steam-from-nose</title><g id="_Group_" data-name="&lt;Group&gt;"><circle id="_Ellipse_" data-name="&lt;Ellipse&gt;" class="cls-1" cx="24" cy="21.5" r="20"/><path id="_Compound_Path_" data-name="&lt;Compound Path&gt;" class="cls-2" d="M24,1.5a20,20,0,1,0,20,20A20,20,0,0,0,24,1.5Zm0,37A18.25,18.25,0,1,1,42.25,20.25,18.25,18.25,0,0,1,24,38.5Z"/><ellipse id="_Ellipse_2" data-name="&lt;Ellipse&gt;" class="cls-3" cx="24" cy="5.5" rx="6" ry="1.5"/><circle id="_Ellipse_3" data-name="&lt;Ellipse&gt;" class="cls-4" cx="24" cy="21.5" r="20"/><ellipse id="_Ellipse_4" data-name="&lt;Ellipse&gt;" class="cls-5" cx="24" cy="45.5" rx="16" ry="1.5"/><path id="_Path_" data-name="&lt;Path&gt;" class="cls-4" d="M10.75,15.5a11.43,11.43,0,0,1,3.37,1.1A11.35,11.35,0,0,1,17,18.66"/><path id="_Path_2" data-name="&lt;Path&gt;" class="cls-4" d="M37.25,15.5A11.65,11.65,0,0,0,31,18.66"/><path id="_Path_3" data-name="&lt;Path&gt;" class="cls-6" d="M38.5,26.5c0,.83-1.12,1.5-2.5,1.5s-2.5-.67-2.5-1.5S34.62,25,36,25,38.5,25.67,38.5,26.5Z"/><path id="_Path_4" data-name="&lt;Path&gt;" class="cls-6" d="M9.5,26.5c0,.83,1.12,1.5,2.5,1.5s2.5-.67,2.5-1.5S13.38,25,12,25,9.5,25.67,9.5,26.5Z"/><path id="_Path_5" data-name="&lt;Path&gt;" class="cls-7" d="M19,31.5a9,9,0,0,1,10,0"/><path id="_Path_6" data-name="&lt;Path&gt;" class="cls-4" d="M38,20.5a1.75,1.75,0,0,1-3.5,0"/><path id="_Path_7" data-name="&lt;Path&gt;" class="cls-4" d="M13.5,20.5a1.75,1.75,0,0,1-3.5,0"/><path id="_Path_8" data-name="&lt;Path&gt;" class="cls-8" d="M41.69,34.86a2.62,2.62,0,0,0-3.54-1.09,2.55,2.55,0,0,0-.85.74L31,26a1.17,1.17,0,0,0-2,1.08l3.55,10a2.55,2.55,0,0,0-1.09.3A2.62,2.62,0,0,0,33.82,42a4.05,4.05,0,0,0,6.88-3.65A2.62,2.62,0,0,0,41.69,34.86Z"/><path id="_Path_9" data-name="&lt;Path&gt;" class="cls-8" d="M6.31,34.86a2.62,2.62,0,0,1,3.54-1.09,2.55,2.55,0,0,1,.85.74L17,26a1.17,1.17,0,0,1,2,1.08L15.46,37a2.55,2.55,0,0,1,1.09.3A2.62,2.62,0,0,1,14.18,42,4.05,4.05,0,0,1,7.3,38.35,2.62,2.62,0,0,1,6.31,34.86Z"/></g></svg>