<svg id="Icons" xmlns="http://www.w3.org/2000/svg" viewBox="0 0 48 48"><defs><style>.cls-1{fill:#ffe500;}.cls-2{fill:#ebcb00;}.cls-3{fill:#fff48c;}.cls-4{fill:#45413c;opacity:0.15;}.cls-5{fill:none;}.cls-5,.cls-6,.cls-8,.cls-9{stroke:#45413c;stroke-linecap:round;stroke-linejoin:round;}.cls-6{fill:#fff;}.cls-7{fill:#ffaa54;}.cls-8{fill:#ffb0ca;}.cls-9{fill:#ff87af;}</style></defs><title>58-anguished-face</title><g id="_Group_" data-name="&lt;Group&gt;"><circle id="_Ellipse_" data-name="&lt;Ellipse&gt;" class="cls-1" cx="24" cy="24.46" r="18.96"/><path id="_Compound_Path_" data-name="&lt;Compound Path&gt;" class="cls-2" d="M24,5.5a19,19,0,1,0,19,19A19,19,0,0,0,24,5.5Zm0,35.07a17.3,17.3,0,1,1,17.3-17.3A17.3,17.3,0,0,1,24,40.57Z"/><ellipse id="_Ellipse_2" data-name="&lt;Ellipse&gt;" class="cls-3" cx="24" cy="9.29" rx="5.69" ry="1.42"/><ellipse id="_Ellipse_3" data-name="&lt;Ellipse&gt;" class="cls-4" cx="24" cy="45.5" rx="15.17" ry="1.5"/><circle id="_Ellipse_4" data-name="&lt;Ellipse&gt;" class="cls-5" cx="24" cy="24.46" r="18.96"/><path id="_Path_" data-name="&lt;Path&gt;" class="cls-6" d="M18.79,23a3.32,3.32,0,1,1-3.32-3.32A3.32,3.32,0,0,1,18.79,23Z"/><path id="_Path_2" data-name="&lt;Path&gt;" class="cls-7" d="M37.74,29.2c0,.78-1.06,1.42-2.37,1.42S33,30,33,29.2s1.07-1.42,2.37-1.42S37.74,28.41,37.74,29.2Z"/><path id="_Path_3" data-name="&lt;Path&gt;" class="cls-7" d="M10.26,29.2c0,.78,1.06,1.42,2.37,1.42S15,30,15,29.2s-1.07-1.42-2.37-1.42S10.26,28.41,10.26,29.2Z"/><line id="_Line_" data-name="&lt;Line&gt;" class="cls-5" x1="28.27" y1="0.5" x2="28.27" y2="17.56"/><line id="_Line_2" data-name="&lt;Line&gt;" class="cls-5" x1="32.53" y1="2.18" x2="32.53" y2="17.82"/><line id="_Line_3" data-name="&lt;Line&gt;" class="cls-5" x1="36.8" y1="5.03" x2="36.8" y2="19.72"/><path id="_Path_4" data-name="&lt;Path&gt;" class="cls-6" d="M35.85,23a3.32,3.32,0,1,1-3.32-3.32A3.32,3.32,0,0,1,35.85,23Z"/><path id="_Path_5" data-name="&lt;Path&gt;" class="cls-8" d="M24,36.6a14.27,14.27,0,0,1,5.77,1.22c1.94.87,4.18.31,4.66-2.26C35.09,32,30.16,26.83,24,26.83S12.91,32,13.57,35.56c.48,2.57,2.72,3.13,4.66,2.26A14.27,14.27,0,0,1,24,36.6Z"/><path id="_Path_6" data-name="&lt;Path&gt;" class="cls-9" d="M24,36.6a14.27,14.27,0,0,1,5.77,1.22,3.37,3.37,0,0,0,3.56-.26,11.81,11.81,0,0,0-18.66,0,3.37,3.37,0,0,0,3.56.26A14.27,14.27,0,0,1,24,36.6Z"/></g></svg>