<svg id="Icons" xmlns="http://www.w3.org/2000/svg" xmlns:xlink="http://www.w3.org/1999/xlink" viewBox="0 0 48 48"><defs><style>.cls-1{fill:url(#linear-gradient);}.cls-2{fill:url(#linear-gradient-2);}.cls-3{fill:#4acfff;}.cls-4{fill:none;}.cls-4,.cls-7,.cls-8{stroke:#45413c;stroke-linecap:round;stroke-linejoin:round;}.cls-5{fill:#45413c;opacity:0.15;}.cls-6{fill:#ffaa54;}.cls-7{fill:#fff;}.cls-8{fill:#ffb0ca;}</style><linearGradient id="linear-gradient" x1="24" y1="41.5" x2="24" y2="1.5" gradientUnits="userSpaceOnUse"><stop offset="0" stop-color="#ffe500"/><stop offset="0.28" stop-color="#fde502"/><stop offset="0.39" stop-color="#f6e308"/><stop offset="0.46" stop-color="#ebe113"/><stop offset="0.52" stop-color="#dade23"/><stop offset="0.57" stop-color="#c4db38"/><stop offset="0.62" stop-color="#a8d652"/><stop offset="0.66" stop-color="#88d070"/><stop offset="0.69" stop-color="#62c994"/><stop offset="0.73" stop-color="#37c2bc"/><stop offset="0.76" stop-color="#09bae7"/><stop offset="0.76" stop-color="#00b8f0"/></linearGradient><linearGradient id="linear-gradient-2" x1="24" y1="41.5" x2="24" y2="1.5" gradientUnits="userSpaceOnUse"><stop offset="0" stop-color="#ebcb00"/><stop offset="0.29" stop-color="#e9cb02"/><stop offset="0.39" stop-color="#e3ca09"/><stop offset="0.47" stop-color="#d7c914"/><stop offset="0.53" stop-color="#c6c825"/><stop offset="0.58" stop-color="#b1c63b"/><stop offset="0.62" stop-color="#96c457"/><stop offset="0.66" stop-color="#76c277"/><stop offset="0.7" stop-color="#51bf9d"/><stop offset="0.74" stop-color="#29bbc6"/><stop offset="0.76" stop-color="#00b8f0"/></linearGradient></defs><title>59-fearful-face</title><g id="_Group_" data-name="&lt;Group&gt;"><circle id="_Ellipse_" data-name="&lt;Ellipse&gt;" class="cls-1" cx="24" cy="21.5" r="20"/><path id="_Compound_Path_" data-name="&lt;Compound Path&gt;" class="cls-2" d="M24,1.5a20,20,0,1,0,20,20A20,20,0,0,0,24,1.5Zm0,37A18.25,18.25,0,1,1,42.25,20.25,18.25,18.25,0,0,1,24,38.5Z"/><ellipse id="_Ellipse_2" data-name="&lt;Ellipse&gt;" class="cls-3" cx="24" cy="5.5" rx="6" ry="1.5"/><circle id="_Ellipse_3" data-name="&lt;Ellipse&gt;" class="cls-4" cx="24" cy="21.5" r="20"/><ellipse id="_Ellipse_4" data-name="&lt;Ellipse&gt;" class="cls-5" cx="24" cy="45.5" rx="16" ry="1.5"/><path id="_Path_" data-name="&lt;Path&gt;" class="cls-6" d="M38.5,26.5c0,.83-1.12,1.5-2.5,1.5s-2.5-.67-2.5-1.5S34.62,25,36,25,38.5,25.67,38.5,26.5Z"/><path id="_Path_2" data-name="&lt;Path&gt;" class="cls-6" d="M9.5,26.5c0,.83,1.12,1.5,2.5,1.5s2.5-.67,2.5-1.5S13.38,25,12,25,9.5,25.67,9.5,26.5Z"/><path id="_Path_3" data-name="&lt;Path&gt;" class="cls-4" d="M31,12.5a11.66,11.66,0,0,1,6.25,3.16"/><path id="_Path_4" data-name="&lt;Path&gt;" class="cls-4" d="M17,12.5a11.66,11.66,0,0,0-6.25,3.16"/><path id="_Path_5" data-name="&lt;Path&gt;" class="cls-7" d="M18,20.5A3.5,3.5,0,1,1,14.5,17,3.5,3.5,0,0,1,18,20.5Z"/><path id="_Path_6" data-name="&lt;Path&gt;" class="cls-7" d="M30,20.5A3.5,3.5,0,1,0,33.5,17,3.5,3.5,0,0,0,30,20.5Z"/><g id="_Group_2" data-name="&lt;Group&gt;"><g id="_Group_3" data-name="&lt;Group&gt;"><path id="_Path_7" data-name="&lt;Path&gt;" class="cls-8" d="M30.06,36a.94.94,0,0,0,.71-.33,1,1,0,0,0,.22-.76,7.09,7.09,0,0,0-14,0,1,1,0,0,0,.22.76.94.94,0,0,0,.71.33Z"/></g></g><path class="cls-7" d="M29.44,31.5a7.17,7.17,0,0,0-10.88,0Z"/></g></svg>