<svg id="Icons" xmlns="http://www.w3.org/2000/svg" xmlns:xlink="http://www.w3.org/1999/xlink" viewBox="0 0 48 48"><defs><style>.cls-1{fill:url(#linear-gradient);}.cls-2{fill:url(#linear-gradient-2);}.cls-3{fill:#4acfff;}.cls-4{fill:#45413c;opacity:0.15;}.cls-5{fill:none;}.cls-10,.cls-5,.cls-7,.cls-8,.cls-9{stroke:#45413c;stroke-linecap:round;stroke-linejoin:round;}.cls-6{fill:#ffaa54;}.cls-7{fill:#ffb0ca;}.cls-8{fill:#fff;}.cls-9{fill:#ffe500;}.cls-10{fill:#ff866e;}</style><linearGradient id="linear-gradient" x1="24" y1="41.5" x2="24" y2="1.5" gradientUnits="userSpaceOnUse"><stop offset="0" stop-color="#ffe500"/><stop offset="0.28" stop-color="#fde502"/><stop offset="0.39" stop-color="#f6e308"/><stop offset="0.46" stop-color="#ebe113"/><stop offset="0.52" stop-color="#dade23"/><stop offset="0.57" stop-color="#c4db38"/><stop offset="0.62" stop-color="#a8d652"/><stop offset="0.66" stop-color="#88d070"/><stop offset="0.69" stop-color="#62c994"/><stop offset="0.73" stop-color="#37c2bc"/><stop offset="0.76" stop-color="#09bae7"/><stop offset="0.76" stop-color="#00b8f0"/></linearGradient><linearGradient id="linear-gradient-2" x1="24" y1="41.5" x2="24" y2="1.5" gradientUnits="userSpaceOnUse"><stop offset="0" stop-color="#ebcb00"/><stop offset="0.29" stop-color="#e9cb02"/><stop offset="0.39" stop-color="#e3ca09"/><stop offset="0.47" stop-color="#d7c914"/><stop offset="0.53" stop-color="#c6c825"/><stop offset="0.58" stop-color="#b1c63b"/><stop offset="0.62" stop-color="#96c457"/><stop offset="0.66" stop-color="#76c277"/><stop offset="0.7" stop-color="#51bf9d"/><stop offset="0.74" stop-color="#29bbc6"/><stop offset="0.76" stop-color="#00b8f0"/></linearGradient></defs><title>64-face-screaming-in-fear</title><g id="_Group_" data-name="&lt;Group&gt;"><circle id="_Ellipse_" data-name="&lt;Ellipse&gt;" class="cls-1" cx="24" cy="21.5" r="20"/><path id="_Compound_Path_" data-name="&lt;Compound Path&gt;" class="cls-2" d="M24,1.5a20,20,0,1,0,20,20A20,20,0,0,0,24,1.5Zm0,37A18.25,18.25,0,1,1,42.25,20.25,18.25,18.25,0,0,1,24,38.5Z"/><ellipse id="_Ellipse_2" data-name="&lt;Ellipse&gt;" class="cls-3" cx="24" cy="5.5" rx="6" ry="1.5"/><ellipse id="_Ellipse_3" data-name="&lt;Ellipse&gt;" class="cls-4" cx="24" cy="45.5" rx="16" ry="1.5"/><circle id="_Ellipse_4" data-name="&lt;Ellipse&gt;" class="cls-5" cx="24" cy="21.5" r="20"/><path id="_Path_" data-name="&lt;Path&gt;" class="cls-6" d="M38.5,26.5c0,.83-1.12,1.5-2.5,1.5s-2.5-.67-2.5-1.5S34.62,25,36,25,38.5,25.67,38.5,26.5Z"/><ellipse id="_Ellipse_5" data-name="&lt;Ellipse&gt;" class="cls-6" cx="12" cy="26.5" rx="2.5" ry="1.5"/><ellipse id="_Ellipse_6" data-name="&lt;Ellipse&gt;" class="cls-7" cx="24" cy="31.5" rx="5" ry="8"/><path id="_Path_2" data-name="&lt;Path&gt;" class="cls-8" d="M37.41,16.54c1.54,2.48,1.32,5.39-.48,6.51s-4.5,0-6-2.47-1.32-5.38.48-6.5S35.88,14.06,37.41,16.54Z"/><path id="_Path_3" data-name="&lt;Path&gt;" class="cls-8" d="M10.59,16.54c-1.54,2.48-1.32,5.39.48,6.51s4.5,0,6-2.47,1.32-5.38-.48-6.5S12.12,14.06,10.59,16.54Z"/><path id="_Path_4" data-name="&lt;Path&gt;" class="cls-9" d="M14.76,45.15a1,1,0,0,1-1,.85H8a1,1,0,0,1-.8-.4,1,1,0,0,1-.16-.88c1.32-4.63-.33-12-3-16.6-1.5-2.62,1.73-2.56,3-1.82C16,32.37,15.21,42.22,14.76,45.15Z"/><path id="_Path_5" data-name="&lt;Path&gt;" class="cls-9" d="M33.24,45.15a1,1,0,0,0,1,.85H40a1,1,0,0,0,.8-.4,1,1,0,0,0,.16-.88c-1.32-4.63.33-12,3-16.6,1.5-2.62-1.73-2.56-3-1.82C32,32.37,32.79,42.22,33.24,45.15Z"/><path class="cls-10" d="M24,39.5c1.79,0,3.35-1.5,4.24-3.75C27.35,33.5,25.79,32,24,32s-3.35,1.5-4.24,3.75C20.65,38,22.21,39.5,24,39.5Z"/></g></svg>