<svg id="Icons" xmlns="http://www.w3.org/2000/svg" viewBox="0 0 48 48"><defs><style>.cls-1{fill:#ff6242;}.cls-2{fill:#e04122;}.cls-3{fill:#ff866e;}.cls-4,.cls-6{fill:none;}.cls-4,.cls-5,.cls-6{stroke:#45413c;stroke-linecap:round;}.cls-4,.cls-5{stroke-linejoin:round;}.cls-5,.cls-7{fill:#45413c;}.cls-6{stroke-miterlimit:10;}.cls-7{opacity:0.15;}</style></defs><title>68-pouting-face</title><g id="_Group_" data-name="&lt;Group&gt;"><circle id="_Ellipse_" data-name="&lt;Ellipse&gt;" class="cls-1" cx="24" cy="21.5" r="20"/><path id="_Compound_Path_" data-name="&lt;Compound Path&gt;" class="cls-2" d="M24,1.5a20,20,0,1,0,20,20A20,20,0,0,0,24,1.5Zm0,37A18.25,18.25,0,1,1,42.25,20.25,18.25,18.25,0,0,1,24,38.5Z"/><ellipse id="_Ellipse_2" data-name="&lt;Ellipse&gt;" class="cls-3" cx="24" cy="5.5" rx="6" ry="1.5"/><circle id="_Ellipse_3" data-name="&lt;Ellipse&gt;" class="cls-4" cx="24" cy="21.5" r="20"/><circle id="_Ellipse_4" data-name="&lt;Ellipse&gt;" class="cls-5" cx="15.5" cy="22.5" r="1"/><path id="_Path_" data-name="&lt;Path&gt;" class="cls-4" d="M19.33,21s-3-4.5-6.33-3"/><path id="_Path_2" data-name="&lt;Path&gt;" class="cls-4" d="M28.67,21s3-4.5,6.33-3"/><circle id="_Ellipse_5" data-name="&lt;Ellipse&gt;" class="cls-5" cx="32.5" cy="22.5" r="1"/><path id="_Path_3" data-name="&lt;Path&gt;" class="cls-6" d="M19,31.5a9,9,0,0,1,10,0"/><g id="_Group_2" data-name="&lt;Group&gt;"><path id="_Path_4" data-name="&lt;Path&gt;" class="cls-4" d="M30.92,8.37a2.51,2.51,0,0,1-2.92,2"/><path id="_Path_5" data-name="&lt;Path&gt;" class="cls-4" d="M34.4,13a3,3,0,0,1-1-4.13"/><path id="_Path_6" data-name="&lt;Path&gt;" class="cls-4" d="M28.54,12.77A3,3,0,0,1,32.6,14"/></g><path id="_Path_7" data-name="&lt;Path&gt;" class="cls-2" d="M38.5,27c0,.83-1.12,1.5-2.5,1.5s-2.5-.67-2.5-1.5,1.12-1.5,2.5-1.5S38.5,26.17,38.5,27Z"/><path id="_Path_8" data-name="&lt;Path&gt;" class="cls-2" d="M9.5,27c0,.83,1.12,1.5,2.5,1.5s2.5-.67,2.5-1.5-1.12-1.5-2.5-1.5S9.5,26.17,9.5,27Z"/><ellipse id="_Ellipse_6" data-name="&lt;Ellipse&gt;" class="cls-7" cx="24" cy="45.5" rx="16" ry="1.5"/></g></svg>