<svg id="Icons" xmlns="http://www.w3.org/2000/svg" viewBox="0 0 48 48"><defs><style>.cls-1{fill:#ff6242;}.cls-2{fill:#e04122;}.cls-3{fill:#ff866e;}.cls-4,.cls-6{fill:#45413c;}.cls-4{opacity:0.15;}.cls-5{fill:none;}.cls-5,.cls-6,.cls-7{stroke:#45413c;stroke-linecap:round;stroke-linejoin:round;}.cls-7{fill:#fff;}</style></defs><title>69-face-with-symbols-on-mouth</title><g id="_Group_" data-name="&lt;Group&gt;"><circle id="_Ellipse_" data-name="&lt;Ellipse&gt;" class="cls-1" cx="24" cy="21.5" r="20"/><path id="_Compound_Path_" data-name="&lt;Compound Path&gt;" class="cls-2" d="M24,1.5a20,20,0,1,0,20,20A20,20,0,0,0,24,1.5Zm0,37A18.25,18.25,0,1,1,42.25,20.25,18.25,18.25,0,0,1,24,38.5Z"/><ellipse id="_Ellipse_2" data-name="&lt;Ellipse&gt;" class="cls-3" cx="24" cy="5.5" rx="6" ry="1.5"/><ellipse id="_Ellipse_3" data-name="&lt;Ellipse&gt;" class="cls-4" cx="24" cy="45.26" rx="15" ry="1.5"/><circle id="_Ellipse_4" data-name="&lt;Ellipse&gt;" class="cls-5" cx="24" cy="21.5" r="20"/><path id="_Path_" data-name="&lt;Path&gt;" class="cls-2" d="M39.5,24.5c0,.83-1.12,1.5-2.5,1.5s-2.5-.67-2.5-1.5S35.62,23,37,23,39.5,23.67,39.5,24.5Z"/><path id="_Path_2" data-name="&lt;Path&gt;" class="cls-2" d="M8.5,24.5c0,.83,1.12,1.5,2.5,1.5s2.5-.67,2.5-1.5S12.38,23,11,23,8.5,23.67,8.5,24.5Z"/><path id="_Path_3" data-name="&lt;Path&gt;" class="cls-6" d="M14.5,20.5a1,1,0,1,1-1-1A1,1,0,0,1,14.5,20.5Z"/><path id="_Path_4" data-name="&lt;Path&gt;" class="cls-6" d="M33.5,20.5a1,1,0,1,0,1-1A1,1,0,0,0,33.5,20.5Z"/><path id="_Path_5" data-name="&lt;Path&gt;" class="cls-5" d="M31.5,18.5s2.29-4,6-2"/><path id="_Path_6" data-name="&lt;Path&gt;" class="cls-5" d="M16.5,18.5s-2.29-4-6-2"/><rect id="_Rectangle_" data-name="&lt;Rectangle&gt;" class="cls-7" x="7.5" y="27" width="33" height="11.5" rx="1" ry="1"/><g id="_Group_2" data-name="&lt;Group&gt;"><path id="_Compound_Path_2" data-name="&lt;Compound Path&gt;" class="cls-1" d="M13.79,32.24l1,1.12a5.49,5.49,0,0,1,.74-.78.57.57,0,0,1,.74.07.69.69,0,0,1,0,.84,4.76,4.76,0,0,1-.64.77l.66.74a.61.61,0,0,1,0,.92.67.67,0,0,1-1,0l-.67-.68a3.12,3.12,0,0,1-2.1.91A2.1,2.1,0,0,1,10.23,34,2.44,2.44,0,0,1,11.68,32,1.81,1.81,0,0,1,11,30.67c0-1,1-1.61,2-1.61S15,29.6,15,30.57A2,2,0,0,1,13.79,32.24Zm0,2-1.39-1.54c-.69.43-.82.81-.82,1.17a.9.9,0,0,0,1,.93A1.58,1.58,0,0,0,13.82,34.29Zm-.13-3.58a.61.61,0,0,0-1.21-.08,1.24,1.24,0,0,0,.51.82C13.46,31.23,13.69,31,13.69,30.71Z"/><path id="_Compound_Path_3" data-name="&lt;Compound Path&gt;" class="cls-1" d="M19,34.73v-1.6l-.69-.22A1.66,1.66,0,0,1,17,31.24,2.17,2.17,0,0,1,19,29.08v-.3c0-.26,0-.45.26-.45s.26,0,.26.45v.3a3,3,0,0,1,1.13.25.74.74,0,0,1,.54.69.66.66,0,0,1-.64.71c-.25,0-.73-.23-1-.26v1.28c1.28.37,2.17.77,2.17,2.14a2.09,2.09,0,0,1-1.34,2,2.35,2.35,0,0,1-.83.2v.31c0,.25,0,.45-.26.45s-.26,0-.26-.45v-.3a3.28,3.28,0,0,1-1.75-.44.69.69,0,0,1,.3-1.29C17.88,34.36,18.63,34.68,19,34.73Zm0-3.16V30.48a.63.63,0,0,0-.51.58C18.51,31.34,18.76,31.47,19,31.57Zm.52,1.72v1.39a.77.77,0,0,0,.62-.77C20.16,33.64,20,33.43,19.54,33.29Z"/><path id="_Compound_Path_4" data-name="&lt;Compound Path&gt;" class="cls-1" d="M23.5,36.12a.75.75,0,1,1,.75-.75A.76.76,0,0,1,23.5,36.12Zm-.69-2.71V29.72a.69.69,0,0,1,1.37,0v3.69a.69.69,0,0,1-1.37,0Z"/><path id="_Compound_Path_5" data-name="&lt;Compound Path&gt;" class="cls-1" d="M26.51,33.14l.16-1.1h-.82a.43.43,0,0,1-.47-.46.44.44,0,0,1,.47-.46h.95L27,29.58c0-.31.15-.46.47-.46s.47.28.42.61l-.19,1.39h.92l.21-1.54c0-.31.16-.46.48-.46s.47.27.42.61l-.19,1.39h.82a.44.44,0,0,1,.47.46.43.43,0,0,1-.47.46h-.95l-.15,1.1h.82a.46.46,0,0,1,0,.92h-1l-.21,1.54c0,.31-.16.46-.48.46S28,35.8,28,35.44l.19-1.38H27.3l-.21,1.54c0,.31-.16.46-.48.46s-.46-.29-.42-.62l.19-1.38h-.82a.43.43,0,0,1-.46-.46.43.43,0,0,1,.46-.46ZM27.6,32l-.15,1.1h.9l.16-1.1Z"/><path id="_Compound_Path_6" data-name="&lt;Compound Path&gt;" class="cls-1" d="M32.62,32.16a1.55,1.55,0,1,1,1.48-1.55A1.5,1.5,0,0,1,32.62,32.16Zm0-1a.57.57,0,0,0,0-1.14.51.51,0,0,0-.5.57A.51.51,0,0,0,32.62,31.18Zm-.34,4.11,3.17-6a.48.48,0,0,1,.71-.24.54.54,0,0,1,.22.76l-3.22,6c-.21.31-.45.48-.8.16A.55.55,0,0,1,32.28,35.29Zm3.72.83a1.55,1.55,0,1,1,1.47-1.55A1.5,1.5,0,0,1,36,36.12Zm0-1a.57.57,0,1,0-.5-.57A.51.51,0,0,0,36,35.14Z"/></g></g></svg>