<svg id="Icons" xmlns="http://www.w3.org/2000/svg" viewBox="0 0 48 48"><defs><style>.cls-1{fill:#ffe500;}.cls-2{fill:#ebcb00;}.cls-3,.cls-9{fill:#45413c;}.cls-3{opacity:0.15;}.cls-10,.cls-11,.cls-4,.cls-7{fill:none;}.cls-11,.cls-4,.cls-7,.cls-9{stroke:#45413c;}.cls-10,.cls-11,.cls-4,.cls-9{stroke-linecap:round;}.cls-10,.cls-4,.cls-9{stroke-linejoin:round;}.cls-5{fill:#e5f8ff;}.cls-6{fill:#fff;}.cls-11,.cls-7{stroke-miterlimit:10;}.cls-8{fill:#ffaa54;}.cls-10{stroke:#ff6242;}</style></defs><title>71-face-with-thermometer</title><g id="_Group_" data-name="&lt;Group&gt;"><circle id="_Ellipse_" data-name="&lt;Ellipse&gt;" class="cls-1" cx="24" cy="26" r="15.5"/><path id="_Path_" data-name="&lt;Path&gt;" class="cls-2" d="M37.06,17.68a15.47,15.47,0,0,0-26.14,0,3.07,3.07,0,0,0,3.7.54S17.7,16.68,24,16.68s9.34,1.55,9.34,1.55A3.11,3.11,0,0,0,37.06,17.68Z"/><path id="_Compound_Path_" data-name="&lt;Compound Path&gt;" class="cls-2" d="M24,10.5A15.5,15.5,0,1,0,39.5,26,15.5,15.5,0,0,0,24,10.5Zm0,28.68A14.15,14.15,0,1,1,38.14,25,14.15,14.15,0,0,1,24,39.18Z"/><ellipse id="_Ellipse_2" data-name="&lt;Ellipse&gt;" class="cls-3" cx="24" cy="45.5" rx="12.4" ry="1.5"/><circle id="_Ellipse_3" data-name="&lt;Ellipse&gt;" class="cls-4" cx="24" cy="26" r="15.5"/><g id="_Group_2" data-name="&lt;Group&gt;"><g id="_Group_3" data-name="&lt;Group&gt;"><path class="cls-5" d="M36.35,10.89c-.42-.24-4.41-2.33-12.35-2.33s-11.93,2.09-12.35,2.33a3.12,3.12,0,0,0-1.23,4.23,3.09,3.09,0,0,0,4.2,1.21S17.7,14.76,24,14.76s9.35,1.56,9.38,1.57a3.09,3.09,0,0,0,4.2-1.21A3.12,3.12,0,0,0,36.35,10.89Z"/></g><path class="cls-6" d="M11.65,12.83c.42-.24,4.41-2.33,12.35-2.33s11.93,2.09,12.35,2.33A3.11,3.11,0,0,1,37.8,14.6a3.12,3.12,0,0,0-1.45-3.71c-.42-.24-4.41-2.33-12.35-2.33s-11.93,2.09-12.35,2.33A3.12,3.12,0,0,0,10.2,14.6,3.11,3.11,0,0,1,11.65,12.83Z"/><g id="_Group_4" data-name="&lt;Group&gt;"><path class="cls-7" d="M36.35,10.89c-.42-.24-4.41-2.33-12.35-2.33s-11.93,2.09-12.35,2.33a3.12,3.12,0,0,0-1.23,4.23,3.09,3.09,0,0,0,4.2,1.21S17.7,14.76,24,14.76s9.35,1.56,9.38,1.57a3.09,3.09,0,0,0,4.2-1.21A3.12,3.12,0,0,0,36.35,10.89Z"/></g></g><path id="_Path_2" data-name="&lt;Path&gt;" class="cls-8" d="M35.24,29.88c0,.64-.87,1.16-1.94,1.16s-1.94-.52-1.94-1.16.87-1.17,1.94-1.17S35.24,29.23,35.24,29.88Z"/><path id="_Path_3" data-name="&lt;Path&gt;" class="cls-8" d="M12.76,29.88c0,.64.87,1.16,1.94,1.16s1.94-.52,1.94-1.16-.87-1.17-1.94-1.17S12.76,29.23,12.76,29.88Z"/><path id="_Path_4" data-name="&lt;Path&gt;" class="cls-9" d="M16.64,25.23a.78.78,0,0,1-.78.77.78.78,0,0,1,0-1.55A.78.78,0,0,1,16.64,25.23Z"/><path id="_Path_5" data-name="&lt;Path&gt;" class="cls-9" d="M31.36,25.23a.78.78,0,0,0,.78.77.78.78,0,0,0,0-1.55A.78.78,0,0,0,31.36,25.23Z"/><path id="_Path_6" data-name="&lt;Path&gt;" class="cls-4" d="M15.57,22.64a8.77,8.77,0,0,0,2.61-.86,8.88,8.88,0,0,0,2.24-1.59"/><path id="_Path_7" data-name="&lt;Path&gt;" class="cls-4" d="M32.43,22.64a8.77,8.77,0,0,1-2.61-.86,8.88,8.88,0,0,1-2.24-1.59"/><path id="_Path_8" data-name="&lt;Path&gt;" class="cls-6" d="M27.72,46.84a2.33,2.33,0,0,1-2.86-1.62L22,34.8a7.07,7.07,0,0,1,4.92.34L29.34,44A2.33,2.33,0,0,1,27.72,46.84Z"/><g id="_Group_5" data-name="&lt;Group&gt;"><path id="_Path_9" data-name="&lt;Path&gt;" class="cls-5" d="M29.34,44l-.19-.67a2.34,2.34,0,0,1-1.8,2.11,2.57,2.57,0,0,1-2.68-.89l.19.69A2.32,2.32,0,0,0,29.34,44Z"/></g><path id="_Path_10" data-name="&lt;Path&gt;" class="cls-4" d="M27.72,46.84a2.33,2.33,0,0,1-2.86-1.62L22,34.8a7.07,7.07,0,0,1,4.92.34L29.34,44A2.33,2.33,0,0,1,27.72,46.84Z"/><line id="_Line_" data-name="&lt;Line&gt;" class="cls-10" x1="27.27" y1="43.75" x2="24.73" y2="34.55"/><line id="_Line_2" data-name="&lt;Line&gt;" class="cls-4" x1="23.83" y1="41.48" x2="25.32" y2="41.07"/><line id="_Line_3" data-name="&lt;Line&gt;" class="cls-4" x1="24.45" y1="43.72" x2="25.94" y2="43.31"/><line id="_Line_4" data-name="&lt;Line&gt;" class="cls-4" x1="23.21" y1="39.24" x2="24.7" y2="38.83"/><line id="_Line_5" data-name="&lt;Line&gt;" class="cls-4" x1="22.59" y1="37" x2="24.09" y2="36.59"/><path id="_Path_11" data-name="&lt;Path&gt;" class="cls-11" d="M20.13,35.68a7,7,0,0,1,7.74,0"/><path id="_Path_12" data-name="&lt;Path&gt;" class="cls-4" d="M17.09,1.68c-2.42,2.19,2.57,3.23-.38,5.55"/><path id="_Path_13" data-name="&lt;Path&gt;" class="cls-4" d="M31.42,1.68C29,3.87,34,4.91,31,7.23"/><path id="_Path_14" data-name="&lt;Path&gt;" class="cls-4" d="M24.26.5c-2.42,2.2,2.56,3.23-.39,5.55"/></g></svg>