<svg id="Icons" xmlns="http://www.w3.org/2000/svg" viewBox="0 0 48 48"><defs><style>.cls-1{fill:#ffe500;}.cls-2{fill:#fff48c;}.cls-3{fill:#ebcb00;}.cls-4,.cls-7{fill:#45413c;}.cls-4{opacity:0.15;}.cls-5,.cls-8{fill:none;}.cls-5,.cls-7,.cls-8{stroke:#45413c;stroke-linecap:round;}.cls-5,.cls-7{stroke-linejoin:round;}.cls-6{fill:#ffaa54;}.cls-8{stroke-miterlimit:10;}.cls-9{fill:#f0f0f0;}.cls-10{fill:#fff;}.cls-11{fill:#e0e0e0;}</style></defs><title>72-face-with-head-bandage</title><g id="_Group_" data-name="&lt;Group&gt;"><circle id="_Ellipse_" data-name="&lt;Ellipse&gt;" class="cls-1" cx="24" cy="21.5" r="20"/><ellipse id="_Ellipse_2" data-name="&lt;Ellipse&gt;" class="cls-2" cx="24" cy="5.5" rx="6" ry="1.5"/><path id="_Compound_Path_" data-name="&lt;Compound Path&gt;" class="cls-3" d="M24,1.5a20,20,0,1,0,20,20A20,20,0,0,0,24,1.5Zm0,37A18.25,18.25,0,1,1,42.25,20.25,18.25,18.25,0,0,1,24,38.5Z"/><ellipse id="_Ellipse_3" data-name="&lt;Ellipse&gt;" class="cls-4" cx="24" cy="45.5" rx="16" ry="1.5"/><circle id="_Ellipse_4" data-name="&lt;Ellipse&gt;" class="cls-5" cx="24" cy="21.5" r="20"/><path id="_Path_" data-name="&lt;Path&gt;" class="cls-6" d="M38.5,26.5c0,.83-1.12,1.5-2.5,1.5s-2.5-.67-2.5-1.5S34.62,25,36,25,38.5,25.67,38.5,26.5Z"/><path id="_Path_2" data-name="&lt;Path&gt;" class="cls-6" d="M9.5,26.5c0,.83,1.12,1.5,2.5,1.5s2.5-.67,2.5-1.5S13.38,25,12,25,9.5,25.67,9.5,26.5Z"/><path id="_Path_3" data-name="&lt;Path&gt;" class="cls-7" d="M14.5,21.5a1,1,0,1,1-1-1A1,1,0,0,1,14.5,21.5Z"/><path id="_Path_4" data-name="&lt;Path&gt;" class="cls-7" d="M33.5,21.5a1,1,0,1,0,1-1A1,1,0,0,0,33.5,21.5Z"/><path id="_Path_5" data-name="&lt;Path&gt;" class="cls-5" d="M34.88,17.16a11.34,11.34,0,0,1-3.37-1.1A11.41,11.41,0,0,1,28.62,14"/><path id="_Path_6" data-name="&lt;Path&gt;" class="cls-8" d="M19,34a9,9,0,0,1,10,0"/><path id="_Path_7" data-name="&lt;Path&gt;" class="cls-9" d="M3,22a1,1,0,0,0,1.4.91L38.21,8.06a1,1,0,0,0,.58-.75,1,1,0,0,0-.3-.9,26.19,26.19,0,0,0-4.24-3.27,1,1,0,0,0-.9-.05L4,15.94a1,1,0,0,0-.58.69A26.81,26.81,0,0,0,3,22Z"/><path class="cls-10" d="M26.39,8,33,5.08a1,1,0,0,1,.9,0A25.06,25.06,0,0,1,37.73,8h.58a1,1,0,0,0,.48-.69,1,1,0,0,0-.3-.9,26.19,26.19,0,0,0-4.24-3.27,1,1,0,0,0-.9-.05L22.15,8Z"/><path class="cls-11" d="M18.94,16.5l4.57-2H7.3L4,15.94a1,1,0,0,0-.51.56Z"/><path id="_Path_8" data-name="&lt;Path&gt;" class="cls-11" d="M4,16.39a.78.78,0,0,0-.18.11"/><path id="_Path_9" data-name="&lt;Path&gt;" class="cls-5" d="M3,22a1,1,0,0,0,1.4.91L38.21,8.06a1,1,0,0,0,.58-.75,1,1,0,0,0-.3-.9,26.19,26.19,0,0,0-4.24-3.27,1,1,0,0,0-.9-.05L4,15.94a1,1,0,0,0-.58.69A26.81,26.81,0,0,0,3,22Z"/><path id="_Path_10" data-name="&lt;Path&gt;" class="cls-5" d="M38.8,7.32a1,1,0,0,1-.59.74L24,14.29l-4.46,1.94L4.38,22.88a1,1,0,0,1-.95-.08A1,1,0,0,1,3,22a25.43,25.43,0,0,1,.47-5.33,1,1,0,0,1,.36-.58A.49.49,0,0,1,4,16H4L8.21,14.1l25.13-11a1,1,0,0,1,.91.05,26.77,26.77,0,0,1,4.24,3.27A1.06,1.06,0,0,1,38.8,7.32Z"/><path id="_Path_11" data-name="&lt;Path&gt;" class="cls-9" d="M4.61,13.1a1,1,0,0,0,.92,1.4H42.47a1,1,0,0,0,.92-1.4,26.16,26.16,0,0,0-2.57-4.69A1,1,0,0,0,40,8H8a1,1,0,0,0-.81.41A26.16,26.16,0,0,0,4.61,13.1Z"/><path id="_Path_12" data-name="&lt;Path&gt;" class="cls-10" d="M42.12,10.5a18,18,0,0,0-1.3-2.09A1,1,0,0,0,40,8H8a1,1,0,0,0-.81.41,18,18,0,0,0-1.3,2.09Z"/><path id="_Path_13" data-name="&lt;Path&gt;" class="cls-5" d="M4.61,13.1a1,1,0,0,0,.92,1.4H42.47a1,1,0,0,0,.92-1.4,26.16,26.16,0,0,0-2.57-4.69A1,1,0,0,0,40,8H8a1,1,0,0,0-.81.41A26.16,26.16,0,0,0,4.61,13.1Z"/></g></svg>