<svg id="Icons" xmlns="http://www.w3.org/2000/svg" viewBox="0 0 48 48"><defs><style>.cls-1{fill:#6dd627;}.cls-2{fill:#46b000;}.cls-3{fill:#9ceb60;}.cls-4,.cls-6{fill:#45413c;}.cls-4{opacity:0.15;}.cls-5{fill:none;}.cls-5,.cls-6{stroke:#45413c;stroke-linecap:round;stroke-linejoin:round;}</style></defs><title>74-nauseated-face-2</title><g id="_Group_" data-name="&lt;Group&gt;"><circle id="_Ellipse_" data-name="&lt;Ellipse&gt;" class="cls-1" cx="24" cy="21.5" r="20"/><path id="_Compound_Path_" data-name="&lt;Compound Path&gt;" class="cls-2" d="M24,1.5a20,20,0,1,0,20,20A20,20,0,0,0,24,1.5Zm0,37A18.25,18.25,0,1,1,42.25,20.25,18.25,18.25,0,0,1,24,38.5Z"/><ellipse id="_Ellipse_2" data-name="&lt;Ellipse&gt;" class="cls-3" cx="24" cy="5.5" rx="6" ry="1.5"/><ellipse id="_Ellipse_3" data-name="&lt;Ellipse&gt;" class="cls-4" cx="24" cy="45.5" rx="16" ry="1.5"/><circle id="_Ellipse_4" data-name="&lt;Ellipse&gt;" class="cls-5" cx="24" cy="21.5" r="20"/><path id="_Path_" data-name="&lt;Path&gt;" class="cls-2" d="M38.5,27c0,.83-1.12,1.5-2.5,1.5s-2.5-.67-2.5-1.5,1.12-1.5,2.5-1.5S38.5,26.17,38.5,27Z"/><path id="_Path_2" data-name="&lt;Path&gt;" class="cls-2" d="M9.5,27c0,.83,1.12,1.5,2.5,1.5s2.5-.67,2.5-1.5-1.12-1.5-2.5-1.5S9.5,26.17,9.5,27Z"/><path id="_Path_3" data-name="&lt;Path&gt;" class="cls-6" d="M14.5,21.5a1,1,0,1,1-1-1A1,1,0,0,1,14.5,21.5Z"/><path id="_Path_4" data-name="&lt;Path&gt;" class="cls-6" d="M33.5,21.5a1,1,0,1,0,1-1A1,1,0,0,0,33.5,21.5Z"/><path id="_Path_5" data-name="&lt;Path&gt;" class="cls-5" d="M33.5,15s1.58,3.5,5,3.5"/><path id="_Path_6" data-name="&lt;Path&gt;" class="cls-5" d="M14.5,15s-1.58,3.5-5,3.5"/><line id="_Path_7" data-name="&lt;Path&gt;" class="cls-5" x1="18.5" y1="29.02" x2="29.5" y2="29.02"/><path id="_Path_8" data-name="&lt;Path&gt;" class="cls-5" d="M30.54,31.54a3.57,3.57,0,0,1,0-5"/><path id="_Path_9" data-name="&lt;Path&gt;" class="cls-5" d="M17.46,26.5a3.57,3.57,0,0,1,0,5"/></g></svg>