<svg id="Icons" xmlns="http://www.w3.org/2000/svg" viewBox="0 0 48 48"><defs><style>.cls-1{fill:#45413c;opacity:0.15;}.cls-2{fill:#ffe500;}.cls-3{fill:#ebcb00;}.cls-4{fill:#fff48c;}.cls-5{fill:none;}.cls-10,.cls-5,.cls-7{stroke:#45413c;stroke-linecap:round;stroke-linejoin:round;}.cls-6{fill:#ffaa54;}.cls-7{fill:#ffb0ca;}.cls-10,.cls-8{fill:#6dd627;}.cls-9{fill:#46b000;}</style></defs><title>75-face-vomiting</title><g id="_Group_" data-name="&lt;Group&gt;"><ellipse id="_Ellipse_" data-name="&lt;Ellipse&gt;" class="cls-1" cx="24" cy="45.5" rx="17.73" ry="1.5"/><circle id="_Ellipse_2" data-name="&lt;Ellipse&gt;" class="cls-2" cx="24" cy="19.68" r="18.18"/><path id="_Compound_Path_" data-name="&lt;Compound Path&gt;" class="cls-3" d="M24,1.5A18.19,18.19,0,1,0,42.18,19.68,18.18,18.18,0,0,0,24,1.5Zm0,33.64A16.6,16.6,0,1,1,40.59,18.55,16.59,16.59,0,0,1,24,35.14Z"/><ellipse id="_Ellipse_3" data-name="&lt;Ellipse&gt;" class="cls-4" cx="24" cy="5.14" rx="5.45" ry="1.36"/><circle id="_Ellipse_4" data-name="&lt;Ellipse&gt;" class="cls-5" cx="24" cy="19.68" r="18.18"/><path id="_Path_" data-name="&lt;Path&gt;" class="cls-6" d="M37.18,24.23c0,.75-1,1.36-2.27,1.36s-2.27-.61-2.27-1.36,1-1.37,2.27-1.37S37.18,23.48,37.18,24.23Z"/><path id="_Path_2" data-name="&lt;Path&gt;" class="cls-6" d="M10.82,24.23c0,.75,1,1.36,2.27,1.36s2.27-.61,2.27-1.36-1-1.37-2.27-1.37S10.82,23.48,10.82,24.23Z"/><ellipse id="_Path_3" data-name="&lt;Path&gt;" class="cls-7" cx="24" cy="30.14" rx="10" ry="5.45"/><path id="_Path_4" data-name="&lt;Path&gt;" class="cls-5" d="M33.78,14.83A10.75,10.75,0,0,1,28.09,12"/><path id="_Path_5" data-name="&lt;Path&gt;" class="cls-5" d="M14.22,14.83A10.75,10.75,0,0,0,19.91,12"/><path id="_Path_6" data-name="&lt;Path&gt;" class="cls-5" d="M35.15,16.5,32.23,18a.91.91,0,0,0,0,1.63l2.92,1.46"/><path id="_Path_7" data-name="&lt;Path&gt;" class="cls-5" d="M12.85,16.5,15.77,18a.91.91,0,0,1,0,1.63l-2.92,1.46"/><path id="_Path_8" data-name="&lt;Path&gt;" class="cls-8" d="M33,38.83a3.13,3.13,0,0,1,1.51.31,2,2,0,0,1,1.13,1.34c2.08.93,2.62,2,2.5,3.2s-1,1.82-4.54,1.82H14.46c-3.53,0-4.44-.61-4.55-1.82s.54-2.5,3.24-3.49a2.4,2.4,0,0,1,1.31-3.78c1.74-.29,1.81-1.82,1.81-4.09V26.68a14.35,14.35,0,0,1,7.73-2,14.35,14.35,0,0,1,7.73,2v6.55C31.73,34.86,31.92,37.31,33,38.83Z"/><path class="cls-9" d="M31.73,30.18v-3.5a14.35,14.35,0,0,0-7.73-2,14.35,14.35,0,0,0-7.73,2v3.5a14.35,14.35,0,0,1,7.73-2A14.35,14.35,0,0,1,31.73,30.18Z"/><path id="_Path_9" data-name="&lt;Path&gt;" class="cls-5" d="M33,38.83a3.13,3.13,0,0,1,1.51.31,2,2,0,0,1,1.13,1.34c2.08.93,2.62,2,2.5,3.2s-1,1.82-4.54,1.82H14.46c-3.53,0-4.44-.61-4.55-1.82s.54-2.5,3.24-3.49a2.4,2.4,0,0,1,1.31-3.78c1.74-.29,1.81-1.82,1.81-4.09V26.68a14.35,14.35,0,0,1,7.73-2,14.35,14.35,0,0,1,7.73,2v6.55C31.73,34.86,31.92,37.31,33,38.83Z"/><path id="_Path_10" data-name="&lt;Path&gt;" class="cls-5" d="M28.09,30.5c0,3.52.66,7.61,2.28,8.18s2.61-.25,4.09.46a2,2,0,0,1,0,3.63"/><path id="_Path_11" data-name="&lt;Path&gt;" class="cls-5" d="M16.27,32.32c0,2.27-.07,3.8-1.81,4.09s-2.53,3.16-.91,4.09a4.56,4.56,0,0,0,4.31-.1"/><path id="_Path_12" data-name="&lt;Path&gt;" class="cls-5" d="M19.46,33.23s-.21,5.82-2.28,8.18c-1.32,1.51-1.44,4.09,0,4.09"/><path id="_Path_13" data-name="&lt;Path&gt;" class="cls-5" d="M25.36,35.5s.8,5,1.82,5.91,2.45.45,3.64.91,1.4,3.18-.45,3.18"/><path id="_Path_14" data-name="&lt;Path&gt;" class="cls-5" d="M22.18,45.5a2.17,2.17,0,0,1-.91-2.73"/><path id="_Path_15" data-name="&lt;Path&gt;" class="cls-10" d="M39.33,36.5s.4-1.68.88-3.21A1.41,1.41,0,0,1,43,33.2C43.63,34.83,41.67,36.4,39.33,36.5Z"/><path id="_Path_16" data-name="&lt;Path&gt;" class="cls-10" d="M39.42,40.17a8.91,8.91,0,0,0,1.79-1.4c.88-1,2.77.55,1.4,1.8S39.42,40.17,39.42,40.17Z"/><path id="_Path_17" data-name="&lt;Path&gt;" class="cls-10" d="M7.84,40.39a12.46,12.46,0,0,1-.74-3.06C7,35.5,3.63,35.53,4,38.06S7.84,40.39,7.84,40.39Z"/></g></svg>