<svg id="Icons" xmlns="http://www.w3.org/2000/svg" viewBox="0 0 48 48"><defs><style>.cls-1{fill:#ffe500;}.cls-2{fill:#ebcb00;}.cls-3{fill:#fff48c;}.cls-4{fill:#45413c;opacity:0.15;}.cls-11,.cls-5{fill:none;stroke:#45413c;stroke-linejoin:round;}.cls-5{stroke-linecap:round;}.cls-6{fill:#ffaa54;}.cls-7{fill:#00b8f0;}.cls-8{fill:#4acfff;}.cls-9{fill:#e8f4fa;}.cls-10{fill:#fff;}</style></defs><title>76-sneezing-face</title><g id="_Group_" data-name="&lt;Group&gt;"><circle id="_Ellipse_" data-name="&lt;Ellipse&gt;" class="cls-1" cx="24" cy="21.5" r="20"/><path id="_Compound_Path_" data-name="&lt;Compound Path&gt;" class="cls-2" d="M24,1.5a20,20,0,1,0,20,20A20,20,0,0,0,24,1.5Zm0,37A18.25,18.25,0,1,1,42.25,20.25,18.25,18.25,0,0,1,24,38.5Z"/><ellipse id="_Ellipse_2" data-name="&lt;Ellipse&gt;" class="cls-3" cx="24" cy="5.5" rx="6" ry="1.5"/><ellipse id="_Ellipse_3" data-name="&lt;Ellipse&gt;" class="cls-4" cx="24" cy="45.5" rx="16" ry="1.5"/><circle id="_Ellipse_4" data-name="&lt;Ellipse&gt;" class="cls-5" cx="24" cy="21.5" r="20"/><path id="_Path_" data-name="&lt;Path&gt;" class="cls-6" d="M38.5,26.5c0,.83-1.12,1.5-2.5,1.5s-2.5-.67-2.5-1.5S34.62,25,36,25,38.5,25.67,38.5,26.5Z"/><path id="_Path_2" data-name="&lt;Path&gt;" class="cls-6" d="M9.5,26.5c0,.83,1.12,1.5,2.5,1.5s2.5-.67,2.5-1.5S13.38,25,12,25,9.5,25.67,9.5,26.5Z"/><path id="_Path_3" data-name="&lt;Path&gt;" class="cls-5" d="M36.26,18l-3.21,1.61a1,1,0,0,0,0,1.78L36.26,23"/><path id="_Path_4" data-name="&lt;Path&gt;" class="cls-5" d="M11.74,18,15,19.61a1,1,0,0,1,0,1.78L11.74,23"/><g id="_Group_2" data-name="&lt;Group&gt;"><path id="_Path_5" data-name="&lt;Path&gt;" class="cls-7" d="M38.82,44c-3.87-.91-.16-5.65-1.13-8.27C42.21,37.5,42.69,44.89,38.82,44Z"/><path id="_Path_6" data-name="&lt;Path&gt;" class="cls-8" d="M37.69,35.7l.06.19c3.18,2.53,3.21,8.18-.13,7.5a2.54,2.54,0,0,0,1.2.58C42.69,44.89,42.21,37.5,37.69,35.7Z"/><path id="_Path_7" data-name="&lt;Path&gt;" class="cls-5" d="M38.82,44c-3.87-.91-.16-5.65-1.13-8.27C42.21,37.5,42.69,44.89,38.82,44Z"/></g><g id="_Group_3" data-name="&lt;Group&gt;"><path id="_Path_8" data-name="&lt;Path&gt;" class="cls-7" d="M34.11,40.39c-2.81.13-1.2-3.8-2.37-5.39C35.16,35.35,36.91,40.27,34.11,40.39Z"/><path id="_Path_9" data-name="&lt;Path&gt;" class="cls-8" d="M31.74,35l.08.12c2.65,1.1,3.75,4.92,1.36,5.11a1.83,1.83,0,0,0,.93.16C36.91,40.27,35.16,35.35,31.74,35Z"/><path id="_Path_10" data-name="&lt;Path&gt;" class="cls-5" d="M34.11,40.39c-2.81.13-1.2-3.8-2.37-5.39C35.16,35.35,36.91,40.27,34.11,40.39Z"/></g><path id="_Path_11" data-name="&lt;Path&gt;" class="cls-5" d="M32.5,33.41l-1.79-1.79a1,1,0,0,0-1.42,0l-1.58,1.59a1,1,0,0,1-1.42,0l-1.58-1.59a1,1,0,0,0-1.42,0l-1.58,1.59a1,1,0,0,1-1.42,0l-1.58-1.59a1,1,0,0,0-1.42,0L15.5,33.41"/><g id="_Group_4" data-name="&lt;Group&gt;"><path id="_Path_12" data-name="&lt;Path&gt;" class="cls-9" d="M22.39,27.08a2.51,2.51,0,0,0-3.66-2.21C13.91,27.38,11.51,31.78,5,35.49a2,2,0,0,0,1.13,3.73,1.31,1.31,0,0,1,1,.4,1.59,1.59,0,0,1,.25,1.61,2,2,0,0,0,3.15,2A1.37,1.37,0,0,1,12,43.13a1.4,1.4,0,0,1,.73,1.28A1.94,1.94,0,0,0,16,46C21.5,41,22.49,31.6,22.39,27.08Z"/><g id="_Group_5" data-name="&lt;Group&gt;"><path id="_Path_13" data-name="&lt;Path&gt;" class="cls-10" d="M4.6,38.68a2,2,0,0,1,.91-1.13c6.53-3.71,8.92-8.11,13.74-10.62a2.49,2.49,0,0,1,3.15.74c0-.2,0-.4,0-.59a2.51,2.51,0,0,0-3.66-2.21C13.91,27.38,11.51,31.78,5,35.49a2,2,0,0,0-.93,2.32A2.11,2.11,0,0,0,4.6,38.68Z"/></g><path id="_Path_14" data-name="&lt;Path&gt;" class="cls-11" d="M22.39,27.08a2.51,2.51,0,0,0-3.66-2.21C13.91,27.38,11.51,31.78,5,35.49a2,2,0,0,0,1.13,3.73,1.31,1.31,0,0,1,1,.4,1.33,1.33,0,0,1,.35,1c0,.18-.06.38-.1.57a2,2,0,0,0,3.15,2A1.37,1.37,0,0,1,12,43.13a1.4,1.4,0,0,1,.73,1.28A1.94,1.94,0,0,0,16,46C21.5,41,22.49,31.6,22.39,27.08Z"/><path id="_Path_15" data-name="&lt;Path&gt;" class="cls-5" d="M7.14,39.62a24.37,24.37,0,0,0,8.36-8"/><path id="_Path_16" data-name="&lt;Path&gt;" class="cls-5" d="M12,43.13s5.15-5.16,6-9.69"/></g></g></svg>