<svg id="Icons" xmlns="http://www.w3.org/2000/svg" viewBox="0 0 48 48"><defs><style>.cls-1{fill:#45413c;opacity:0.15;}.cls-2{fill:#ffe500;}.cls-3{fill:#ebcb00;}.cls-4{fill:#fff48c;}.cls-5{fill:none;}.cls-5,.cls-7,.cls-8{stroke:#45413c;stroke-linecap:round;stroke-linejoin:round;}.cls-6{fill:#ffaa54;}.cls-7{fill:#ffb0ca;}.cls-8{fill:#ff87af;}.cls-9{fill:#fffacf;}</style></defs><title>77-smiling-face-with-halo</title><g id="_Group_" data-name="&lt;Group&gt;"><ellipse id="_Ellipse_" data-name="&lt;Ellipse&gt;" class="cls-1" cx="24" cy="45.5" rx="11" ry="1.5"/><circle id="_Ellipse_2" data-name="&lt;Ellipse&gt;" class="cls-2" cx="24" cy="26.96" r="13.96"/><path id="_Compound_Path_" data-name="&lt;Compound Path&gt;" class="cls-3" d="M24,13A14,14,0,1,0,38,27,14,14,0,0,0,24,13Zm0,25.83A12.74,12.74,0,1,1,36.74,26.09,12.74,12.74,0,0,1,24,38.83Z"/><ellipse id="_Ellipse_3" data-name="&lt;Ellipse&gt;" class="cls-4" cx="24" cy="15.79" rx="4.19" ry="1.05"/><circle id="_Ellipse_4" data-name="&lt;Ellipse&gt;" class="cls-5" cx="24" cy="26.96" r="13.96"/><path id="_Path_" data-name="&lt;Path&gt;" class="cls-6" d="M34.12,30.45c0,.58-.78,1.05-1.74,1.05s-1.75-.47-1.75-1.05.78-1,1.75-1S34.12,29.88,34.12,30.45Z"/><path id="_Path_2" data-name="&lt;Path&gt;" class="cls-6" d="M13.88,30.45c0,.58.78,1.05,1.74,1.05s1.75-.47,1.75-1.05-.78-1-1.75-1S13.88,29.88,13.88,30.45Z"/><path id="_Compound_Path_2" data-name="&lt;Compound Path&gt;" class="cls-4" d="M24,1.5c-7.17,0-13,1.88-13,4.19s5.82,4.19,13,4.19S37,8,37,5.69,31.17,1.5,24,1.5Zm0,5.86c-5.09,0-9.22-.75-9.22-1.67S18.91,4,24,4s9.22.75,9.22,1.68S29.09,7.36,24,7.36Z"/><path id="_Path_3" data-name="&lt;Path&gt;" class="cls-5" d="M14.23,27.84a1.22,1.22,0,1,1,2.44,0"/><path id="_Path_4" data-name="&lt;Path&gt;" class="cls-5" d="M31.33,27.84a1.22,1.22,0,1,1,2.44,0"/><g id="_Group_2" data-name="&lt;Group&gt;"><path id="_Path_5" data-name="&lt;Path&gt;" class="cls-7" d="M19.77,32.35a.66.66,0,0,0-.5.23.67.67,0,0,0-.15.53,4.94,4.94,0,0,0,9.76,0,.67.67,0,0,0-.15-.53.66.66,0,0,0-.5-.23Z"/><path id="_Path_6" data-name="&lt;Path&gt;" class="cls-8" d="M27.89,35.38A7.93,7.93,0,0,0,24,34.47a7.93,7.93,0,0,0-3.89.91,4.92,4.92,0,0,0,7.78,0Z"/></g><path class="cls-9" d="M24,7.36c-5.09,0-9.22-.75-9.22-1.67,0,1.63,4.13,3,9.22,3s9.22-1.33,9.22-3C33.22,6.61,29.09,7.36,24,7.36Z"/><path class="cls-2" d="M24,2.73c-5.09,0-9.22,1.33-9.22,3C14.78,4.76,18.91,4,24,4s9.22.75,9.22,1.68C33.22,4.06,29.09,2.73,24,2.73Z"/><path id="_Compound_Path_3" data-name="&lt;Compound Path&gt;" class="cls-5" d="M24,1.5c-7.17,0-13,1.88-13,4.19s5.82,4.19,13,4.19S37,8,37,5.69,31.17,1.5,24,1.5Zm0,5.86c-5.09,0-9.22-.75-9.22-1.67S18.91,4,24,4s9.22.75,9.22,1.68S29.09,7.36,24,7.36Z"/></g></svg>