<svg id="Icons" xmlns="http://www.w3.org/2000/svg" viewBox="0 0 48 48"><defs><style>.cls-1,.cls-7{fill:#45413c;}.cls-1{opacity:0.15;}.cls-2{fill:#ffe500;}.cls-3{fill:#ebcb00;}.cls-4{fill:#fff48c;}.cls-5{fill:none;}.cls-5,.cls-7{stroke:#45413c;stroke-linecap:round;stroke-linejoin:round;}.cls-6{fill:#ffaa54;}.cls-8{fill:#87898c;}.cls-9{fill:#bdbec0;}.cls-10{fill:#00b8f0;}.cls-11{fill:#4acfff;}</style></defs><title>83-face-with-monocle</title><g id="_Group_" data-name="&lt;Group&gt;"><ellipse id="_Ellipse_" data-name="&lt;Ellipse&gt;" class="cls-1" cx="24" cy="45.5" rx="16" ry="1.5"/><circle id="_Ellipse_2" data-name="&lt;Ellipse&gt;" class="cls-2" cx="24" cy="21.5" r="20"/><path id="_Compound_Path_" data-name="&lt;Compound Path&gt;" class="cls-3" d="M24,1.5a20,20,0,1,0,20,20A20,20,0,0,0,24,1.5Zm0,37A18.25,18.25,0,1,1,42.25,20.25,18.25,18.25,0,0,1,24,38.5Z"/><ellipse id="_Ellipse_3" data-name="&lt;Ellipse&gt;" class="cls-4" cx="24" cy="5.5" rx="6" ry="1.5"/><circle id="_Ellipse_4" data-name="&lt;Ellipse&gt;" class="cls-5" cx="24" cy="21.5" r="20"/><path id="_Path_" data-name="&lt;Path&gt;" class="cls-6" d="M38.5,26.5c0,.83-1.12,1.5-2.5,1.5s-2.5-.67-2.5-1.5S34.62,25,36,25,38.5,25.67,38.5,26.5Z"/><path id="_Path_2" data-name="&lt;Path&gt;" class="cls-6" d="M9.5,26.5c0,.83,1.12,1.5,2.5,1.5s2.5-.67,2.5-1.5S13.38,25,12,25,9.5,25.67,9.5,26.5Z"/><path id="_Path_3" data-name="&lt;Path&gt;" class="cls-7" d="M14.5,17.5a1,1,0,1,1-1-1A1,1,0,0,1,14.5,17.5Z"/><path id="_Path_4" data-name="&lt;Path&gt;" class="cls-7" d="M33.5,20.5a1,1,0,1,0,1-1A1,1,0,0,0,33.5,20.5Z"/><path id="_Rectangle_" data-name="&lt;Rectangle&gt;" class="cls-8" d="M42.5,14H44a1.5,1.5,0,0,1,1.5,1.5V17A1.5,1.5,0,0,1,44,18.5H42.5a0,0,0,0,1,0,0V14A0,0,0,0,1,42.5,14Z"/><path id="_Path_5" data-name="&lt;Path&gt;" class="cls-9" d="M44,14H42.5v1.5H44A1.5,1.5,0,0,1,45.5,17V15.5A1.5,1.5,0,0,0,44,14Z"/><path id="_Rectangle_2" data-name="&lt;Rectangle&gt;" class="cls-5" d="M42.5,14H44a1.5,1.5,0,0,1,1.5,1.5V17A1.5,1.5,0,0,1,44,18.5H42.5a0,0,0,0,1,0,0V14A0,0,0,0,1,42.5,14Z"/><circle id="_Path_6" data-name="&lt;Path&gt;" class="cls-8" cx="35" cy="16.5" r="8.5"/><path id="_Path_7" data-name="&lt;Path&gt;" class="cls-9" d="M35,10a8.5,8.5,0,0,1,8.44,7.5c0-.33.06-.66.06-1a8.5,8.5,0,0,0-17,0c0,.34,0,.67.06,1A8.5,8.5,0,0,1,35,10Z"/><circle id="_Path_8" data-name="&lt;Path&gt;" class="cls-5" cx="35" cy="16.5" r="8.5"/><circle id="_Path_9" data-name="&lt;Path&gt;" class="cls-10" cx="35" cy="16.5" r="6.5"/><path id="_Path_10" data-name="&lt;Path&gt;" class="cls-11" d="M35,10a6.5,6.5,0,0,0-5.65,9.71l7.82-9.33A6.51,6.51,0,0,0,35,10Z"/><circle id="_Path_11" data-name="&lt;Path&gt;" class="cls-5" cx="35" cy="16.5" r="6.5"/><path id="_Path_12" data-name="&lt;Path&gt;" class="cls-5" d="M45.5,16s1.5.06,1.5,2V35a3.72,3.72,0,0,1-4,4,3.68,3.68,0,0,1-4-4v-.27"/><path id="_Path_13" data-name="&lt;Path&gt;" class="cls-5" d="M21,28.62A6.61,6.61,0,0,1,24,28a6.61,6.61,0,0,1,3,.62"/><path id="_Path_14" data-name="&lt;Path&gt;" class="cls-5" d="M11,15s.42-2.5,2.5-2.5S16,15,16,15"/></g></svg>