<svg id="Icons" xmlns="http://www.w3.org/2000/svg" viewBox="0 0 48 48"><defs><style>.cls-1{fill:#45413c;opacity:0.15;}.cls-2{fill:#e8f4fa;}.cls-3{fill:none;}.cls-3,.cls-4{stroke:#45413c;stroke-linecap:round;stroke-linejoin:round;}.cls-4{fill:#525252;}.cls-5{fill:#87898c;}.cls-6{fill:#656769;}.cls-7{fill:#fff;}</style></defs><title>89-skull</title><g id="_Group_" data-name="&lt;Group&gt;"><ellipse id="_Ellipse_" data-name="&lt;Ellipse&gt;" class="cls-1" cx="24" cy="44.5" rx="11" ry="1.5"/><path class="cls-2" d="M24,2.5A17.66,17.66,0,0,0,6.34,20.16c0,12.47,5.74,10.15,5.74,17.64,0,1.44,1.65,2.66,3.09,2.66,2.78,0,3.28-1.81,3.45-3.39a1.14,1.14,0,0,1,1.13-1,1.16,1.16,0,0,1,1.16,1.16,3.09,3.09,0,1,0,6.18,0,1.16,1.16,0,0,1,1.16-1.16,1.14,1.14,0,0,1,1.13,1c.17,1.58.67,3.39,3.45,3.39,1.44,0,3.09-1.22,3.09-2.66,0-7.49,5.74-5.17,5.74-17.64A17.66,17.66,0,0,0,24,2.5Z"/><path class="cls-3" d="M24,2.5A17.66,17.66,0,0,0,6.34,20.16c0,12.47,5.74,10.15,5.74,17.64,0,1.44,1.65,2.66,3.09,2.66,2.78,0,3.28-1.81,3.45-3.39a1.14,1.14,0,0,1,1.13-1,1.16,1.16,0,0,1,1.16,1.16,3.09,3.09,0,1,0,6.18,0,1.16,1.16,0,0,1,1.16-1.16,1.14,1.14,0,0,1,1.13,1c.17,1.58.67,3.39,3.45,3.39,1.44,0,3.09-1.22,3.09-2.66,0-7.49,5.74-5.17,5.74-17.64A17.66,17.66,0,0,0,24,2.5Z"/><path id="_Path_" data-name="&lt;Path&gt;" class="cls-4" d="M24.78,29.08a.89.89,0,0,0-1.56,0l-1.16,2.13a.87.87,0,0,0,0,.87.89.89,0,0,0,.76.44h2.32a.89.89,0,0,0,.76-.44.87.87,0,0,0,0-.87Z"/><g id="_Group_2" data-name="&lt;Group&gt;"><circle id="_Ellipse_2" data-name="&lt;Ellipse&gt;" class="cls-5" cx="16.28" cy="24.35" r="4.19"/><path id="_Path_2" data-name="&lt;Path&gt;" class="cls-6" d="M16.28,21.92a4.18,4.18,0,0,1,4.09,3.31,4.24,4.24,0,0,0,.1-.88,4.2,4.2,0,0,0-8.39,0,4.24,4.24,0,0,0,.1.88A4.19,4.19,0,0,1,16.28,21.92Z"/><circle id="_Ellipse_3" data-name="&lt;Ellipse&gt;" class="cls-3" cx="16.28" cy="24.35" r="4.19"/></g><g id="_Group_3" data-name="&lt;Group&gt;"><circle id="_Ellipse_4" data-name="&lt;Ellipse&gt;" class="cls-5" cx="31.72" cy="24.35" r="4.19"/><path id="_Path_3" data-name="&lt;Path&gt;" class="cls-6" d="M31.72,21.92a4.19,4.19,0,0,1,4.1,3.31,4.24,4.24,0,0,0,.1-.88,4.2,4.2,0,0,0-8.39,0,4.24,4.24,0,0,0,.1.88A4.18,4.18,0,0,1,31.72,21.92Z"/><circle id="_Ellipse_5" data-name="&lt;Ellipse&gt;" class="cls-3" cx="31.72" cy="24.35" r="4.19"/></g><ellipse id="_Ellipse_6" data-name="&lt;Ellipse&gt;" class="cls-7" cx="24" cy="6.03" rx="5.3" ry="1.32"/></g></svg>