<svg id="Icons" xmlns="http://www.w3.org/2000/svg" viewBox="0 0 48 48"><defs><style>.cls-1,.cls-4{fill:#45413c;}.cls-1{opacity:0.15;}.cls-2{fill:#bf8256;}.cls-3{fill:#dea47a;}.cls-4,.cls-5,.cls-6,.cls-7{stroke:#45413c;stroke-linecap:round;stroke-linejoin:round;}.cls-5{fill:#ffb0ca;}.cls-6{fill:#ff87af;}.cls-7{fill:none;}.cls-8{fill:#915e3a;}</style></defs><title>95-pile-of-poo</title><g id="_Group_" data-name="&lt;Group&gt;"><ellipse id="_Ellipse_" data-name="&lt;Ellipse&gt;" class="cls-1" cx="24" cy="45.5" rx="11" ry="1.5"/><path id="_Path_" data-name="&lt;Path&gt;" class="cls-2" d="M38,24.86a5,5,0,0,0,.94-2.9c0-2.88-1.87-5-6.42-5a4.27,4.27,0,0,0-2.82-7.47H24.53c-1-.34-2.18-2.57-1.62-5.07a.7.7,0,0,0-.78-.84c-7.88,1.19-9.36,11-7.06,13.38C8.91,17,8,22.11,10,24.86c-9.24,3-7,16.64,2.61,16.64H35.37C45,41.5,47.22,27.83,38,24.86Z"/><g id="_Group_2" data-name="&lt;Group&gt;"><path id="_Path_2" data-name="&lt;Path&gt;" class="cls-3" d="M13.42,25.76a4.76,4.76,0,0,1,3.88-6.32,1.38,1.38,0,0,0,1.09-1.69A10.51,10.51,0,0,1,22.91,7.09a5.87,5.87,0,0,1,0-2.64.72.72,0,0,0-.17-.63.73.73,0,0,0-.61-.21c-7.88,1.19-9.36,11-7.06,13.38C8.91,17,8,22.11,10,24.86c-8.56,2.75-7.31,14.69.62,16.42C7,37.5,7.28,30.46,12.7,27.71A1.61,1.61,0,0,0,13.42,25.76Z"/></g><path id="_Path_3" data-name="&lt;Path&gt;" class="cls-4" d="M15,28.15a.91.91,0,1,1-.91-.91A.91.91,0,0,1,15,28.15Z"/><path id="_Path_4" data-name="&lt;Path&gt;" class="cls-4" d="M35.49,28.15a.91.91,0,1,1-.91-.91A.91.91,0,0,1,35.49,28.15Z"/><g id="_Group_3" data-name="&lt;Group&gt;"><path id="_Path_5" data-name="&lt;Path&gt;" class="cls-5" d="M18.16,31.33a.92.92,0,0,0-.9,1.05,6.82,6.82,0,0,0,13.48,0,.92.92,0,0,0-.9-1.05Z"/><path id="_Path_6" data-name="&lt;Path&gt;" class="cls-6" d="M29.37,35.52A10.87,10.87,0,0,0,24,34.26a10.87,10.87,0,0,0-5.37,1.26,6.8,6.8,0,0,0,10.74,0Z"/></g><path id="_Path_7" data-name="&lt;Path&gt;" class="cls-7" d="M38,24.86a5,5,0,0,0,.94-2.9c0-2.88-1.87-5-6.42-5a4.27,4.27,0,0,0-2.82-7.47H24.53c-1-.34-2.18-2.57-1.62-5.07a.72.72,0,0,0-.17-.63.73.73,0,0,0-.61-.21c-7.88,1.19-9.36,11-7.06,13.38C8.91,17,8,22.11,10,24.86c-9.24,3-7,16.64,2.61,16.64H35.37C45,41.5,47.22,27.83,38,24.86Z"/><ellipse id="_Ellipse_2" data-name="&lt;Ellipse&gt;" class="cls-8" cx="11.4" cy="32.7" rx="2.27" ry="1.36"/><ellipse id="_Ellipse_3" data-name="&lt;Ellipse&gt;" class="cls-8" cx="37.31" cy="32.7" rx="2.27" ry="1.36"/></g></svg>