<svg id="Icons" xmlns="http://www.w3.org/2000/svg" viewBox="0 0 48 48"><defs><style>.cls-1{fill:#ffe500;}.cls-2{fill:#ffa694;}.cls-3{fill:#fff48c;}.cls-4{fill:none;}.cls-4,.cls-7,.cls-8{stroke:#45413c;stroke-linecap:round;stroke-linejoin:round;}.cls-5{fill:#ff866e;}.cls-6{fill:#45413c;opacity:0.15;}.cls-7{fill:#ffb0ca;}.cls-8{fill:#ff87af;}.cls-9{fill:#00b8f0;}.cls-10{fill:#4acfff;}</style></defs><title>98-cat-face-with-tears-of-joy</title><path id="_Path_" data-name="&lt;Path&gt;" class="cls-1" d="M27.12,8.68s8.43-5.74,11.57-3.15-1.21,13.21-1.21,13.21Z"/><path id="_Path_2" data-name="&lt;Path&gt;" class="cls-2" d="M28.49,10.87s6-4.35,8.14-2.6-1.12,9.41-1.12,9.41Z"/><path id="_Path_3" data-name="&lt;Path&gt;" class="cls-1" d="M20.88,8.68S12.45,2.94,9.31,5.53s1.21,13.21,1.21,13.21Z"/><path id="_Path_4" data-name="&lt;Path&gt;" class="cls-3" d="M38.69,7.72a3.51,3.51,0,0,1,1.09,2.38c.18-2,0-3.71-1.09-4.57C35.55,2.94,27.12,8.68,27.12,8.68L28.49,10C31,8.52,36.34,5.78,38.69,7.72Z"/><path id="_Path_5" data-name="&lt;Path&gt;" class="cls-3" d="M9.31,7.72c2.35-1.94,7.68.8,10.2,2.29l1.37-1.33S12.45,2.94,9.31,5.53C8.26,6.39,8,8.14,8.22,10.1A3.51,3.51,0,0,1,9.31,7.72Z"/><path id="_Path_6" data-name="&lt;Path&gt;" class="cls-4" d="M27.12,8.68s8.43-5.74,11.57-3.15-1.21,13.21-1.21,13.21Z"/><path id="_Path_7" data-name="&lt;Path&gt;" class="cls-4" d="M20.88,8.68S12.45,2.94,9.31,5.53s1.21,13.21,1.21,13.21Z"/><path id="_Path_8" data-name="&lt;Path&gt;" class="cls-2" d="M19.51,10.87s-6-4.35-8.14-2.6,1.12,9.41,1.12,9.41Z"/><path id="_Path_9" data-name="&lt;Path&gt;" class="cls-5" d="M36.63,10.52a2,2,0,0,1,.63,1.17c.2-1.48.11-2.81-.63-3.42-2.13-1.75-8.14,2.6-8.14,2.6l1.38,1.34C31.77,11,35.14,9.29,36.63,10.52Z"/><path id="_Path_10" data-name="&lt;Path&gt;" class="cls-5" d="M11.37,10.52c1.49-1.23,4.86.52,6.76,1.69l1.38-1.34s-6-4.35-8.14-2.6c-.74.61-.83,1.94-.63,3.42A2,2,0,0,1,11.37,10.52Z"/><path id="_Path_11" data-name="&lt;Path&gt;" class="cls-4" d="M28.49,10.87s6-4.35,8.14-2.6-1.12,9.41-1.12,9.41Z"/><path id="_Path_12" data-name="&lt;Path&gt;" class="cls-4" d="M19.51,10.87s-6-4.35-8.14-2.6,1.12,9.41,1.12,9.41Z"/><ellipse id="_Ellipse_" data-name="&lt;Ellipse&gt;" class="cls-6" cx="24" cy="43.5" rx="11" ry="1.5"/><path id="_Path_13" data-name="&lt;Path&gt;" class="cls-1" d="M39.33,28.91l-.94-8.71A14.26,14.26,0,0,0,24,7.75,14.26,14.26,0,0,0,9.61,20.2l-.94,8.71a8.09,8.09,0,0,0,8.25,8.77h.46c1.25,1.55,3.74,2.61,6.62,2.61s5.37-1.06,6.62-2.61h.46A8.09,8.09,0,0,0,39.33,28.91Z"/><path id="_Path_14" data-name="&lt;Path&gt;" class="cls-3" d="M9.61,23.88A14.26,14.26,0,0,1,24,11.44,14.26,14.26,0,0,1,38.39,23.88l.81,7.49a7.74,7.74,0,0,0,.13-2.46l-.94-8.71A14.27,14.27,0,0,0,24,7.75,14.27,14.27,0,0,0,9.61,20.2l-.94,8.71a7.74,7.74,0,0,0,.13,2.46Z"/><path id="_Path_15" data-name="&lt;Path&gt;" class="cls-4" d="M39.33,28.91l-.94-8.71A14.26,14.26,0,0,0,24,7.75,14.26,14.26,0,0,0,9.61,20.2l-.94,8.71a8.09,8.09,0,0,0,8.25,8.77h.46c1.25,1.55,3.74,2.61,6.62,2.61s5.37-1.06,6.62-2.61h.46A8.09,8.09,0,0,0,39.33,28.91Z"/><path id="_Path_16" data-name="&lt;Path&gt;" class="cls-5" d="M26.68,30.25A3,3,0,0,1,24,32.48a3,3,0,0,1-2.68-2.23c0-.68,1.2-1.23,2.68-1.23S26.68,29.57,26.68,30.25Z"/><path id="_Path_17" data-name="&lt;Path&gt;" class="cls-2" d="M24,30.52a4,4,0,0,1,2.32.61,1.72,1.72,0,0,0,.36-.88c0-.68-1.2-1.23-2.68-1.23s-2.68.55-2.68,1.23a1.72,1.72,0,0,0,.36.88A4,4,0,0,1,24,30.52Z"/><path id="_Path_18" data-name="&lt;Path&gt;" class="cls-4" d="M26.68,30.25A3,3,0,0,1,24,32.48a3,3,0,0,1-2.68-2.23c0-.68,1.2-1.23,2.68-1.23S26.68,29.57,26.68,30.25Z"/><g id="_Group_" data-name="&lt;Group&gt;"><path id="_Path_19" data-name="&lt;Path&gt;" class="cls-7" d="M20.12,34.18a.57.57,0,0,0-.46.21.57.57,0,0,0-.14.48,4.54,4.54,0,0,0,9,0,.57.57,0,0,0-.14-.48.57.57,0,0,0-.46-.21Z"/><path id="_Path_20" data-name="&lt;Path&gt;" class="cls-8" d="M27.58,37A7.37,7.37,0,0,0,24,36.12a7.37,7.37,0,0,0-3.58.84,4.6,4.6,0,0,0,7.16,0Z"/></g><path id="_Path_21" data-name="&lt;Path&gt;" class="cls-4" d="M15.32,25.32a1.75,1.75,0,0,1,3.5,0"/><path id="_Path_22" data-name="&lt;Path&gt;" class="cls-4" d="M29.18,25.32a1.75,1.75,0,0,1,3.5,0"/><line id="_Path_23" data-name="&lt;Path&gt;" class="cls-4" x1="31.11" y1="29.94" x2="36.53" y2="29.11"/><line id="_Path_24" data-name="&lt;Path&gt;" class="cls-4" x1="31.11" y1="32.4" x2="36.53" y2="33.15"/><line id="_Path_25" data-name="&lt;Path&gt;" class="cls-4" x1="16.89" y1="29.94" x2="11.47" y2="29.11"/><line id="_Path_26" data-name="&lt;Path&gt;" class="cls-4" x1="16.89" y1="32.4" x2="11.47" y2="33.15"/><g id="_Group_2" data-name="&lt;Group&gt;"><g id="_Group_3" data-name="&lt;Group&gt;"><path id="_Path_27" data-name="&lt;Path&gt;" class="cls-9" d="M40,34c-4.44,1.42-3.57-5.58-6.14-7.62C39.48,25.41,44.43,32.53,40,34Z"/><path id="_Path_28" data-name="&lt;Path&gt;" class="cls-10" d="M33.84,26.33l.18.16c4.73.61,8.17,6.26,4.41,7.6A3,3,0,0,0,40,34C44.43,32.53,39.48,25.41,33.84,26.33Z"/><path id="_Path_29" data-name="&lt;Path&gt;" class="cls-4" d="M40,34c-4.44,1.42-3.57-5.58-6.14-7.62C39.48,25.41,44.43,32.53,40,34Z"/></g><g id="_Group_4" data-name="&lt;Group&gt;"><path id="_Path_30" data-name="&lt;Path&gt;" class="cls-9" d="M42.54,22c-.38,3-4.31.59-6.24,1.56C37.31,20,42.92,19,42.54,22Z"/><path id="_Path_31" data-name="&lt;Path&gt;" class="cls-10" d="M36.3,23.57l.15-.07c1.67-2.64,6-3.13,5.74-.52a2.05,2.05,0,0,0,.35-1C42.92,19,37.31,20,36.3,23.57Z"/><path id="_Path_32" data-name="&lt;Path&gt;" class="cls-4" d="M42.54,22c-.38,3-4.31.59-6.24,1.56C37.31,20,42.92,19,42.54,22Z"/></g><g id="_Group_5" data-name="&lt;Group&gt;"><path id="_Path_33" data-name="&lt;Path&gt;" class="cls-9" d="M45.38,28.39c-1.65,1.38-2.5-1.76-4-2.19C43.67,24.82,47,27,45.38,28.39Z"/><path id="_Path_34" data-name="&lt;Path&gt;" class="cls-10" d="M41.42,26.2l.1,0c2.14-.57,4.6,1.25,3.22,2.48a1.4,1.4,0,0,0,.64-.33C47,27,43.67,24.82,41.42,26.2Z"/><path id="_Path_35" data-name="&lt;Path&gt;" class="cls-4" d="M45.38,28.39c-1.65,1.38-2.5-1.76-4-2.19C43.67,24.82,47,27,45.38,28.39Z"/></g></g><g id="_Group_6" data-name="&lt;Group&gt;"><g id="_Group_7" data-name="&lt;Group&gt;"><path id="_Path_36" data-name="&lt;Path&gt;" class="cls-9" d="M8,34c4.44,1.42,3.57-5.58,6.14-7.62C8.52,25.41,3.57,32.53,8,34Z"/><path id="_Path_37" data-name="&lt;Path&gt;" class="cls-10" d="M14.16,26.33l-.18.16c-4.73.61-8.17,6.26-4.41,7.6A3,3,0,0,1,8,34C3.57,32.53,8.52,25.41,14.16,26.33Z"/><path id="_Path_38" data-name="&lt;Path&gt;" class="cls-4" d="M8,34c4.44,1.42,3.57-5.58,6.14-7.62C8.52,25.41,3.57,32.53,8,34Z"/></g><g id="_Group_8" data-name="&lt;Group&gt;"><path id="_Path_39" data-name="&lt;Path&gt;" class="cls-9" d="M5.46,22c.38,3,4.31.59,6.24,1.56C10.69,20,5.08,19,5.46,22Z"/><path id="_Path_40" data-name="&lt;Path&gt;" class="cls-10" d="M11.7,23.57l-.15-.07c-1.67-2.64-6-3.13-5.74-.52a2.05,2.05,0,0,1-.35-1C5.08,19,10.69,20,11.7,23.57Z"/><path id="_Path_41" data-name="&lt;Path&gt;" class="cls-4" d="M5.46,22c.38,3,4.31.59,6.24,1.56C10.69,20,5.08,19,5.46,22Z"/></g><g id="_Group_9" data-name="&lt;Group&gt;"><path id="_Path_42" data-name="&lt;Path&gt;" class="cls-9" d="M2.62,28.39c1.65,1.38,2.5-1.76,4-2.19C4.33,24.82,1,27,2.62,28.39Z"/><path id="_Path_43" data-name="&lt;Path&gt;" class="cls-10" d="M6.58,26.2l-.1,0c-2.14-.57-4.6,1.25-3.22,2.48a1.4,1.4,0,0,1-.64-.33C1,27,4.33,24.82,6.58,26.2Z"/><path id="_Path_44" data-name="&lt;Path&gt;" class="cls-4" d="M2.62,28.39c1.65,1.38,2.5-1.76,4-2.19C4.33,24.82,1,27,2.62,28.39Z"/></g></g></svg>