<svg id="Icons" xmlns="http://www.w3.org/2000/svg" viewBox="0 0 48 48"><defs><style>.cls-1{fill:#45413c;opacity:0.15;}.cls-2{fill:#ffda8f;}.cls-2,.cls-5{stroke:#45413c;stroke-linecap:round;stroke-linejoin:round;}.cls-3{fill:#ff6242;}.cls-4{fill:#ffa694;}.cls-5{fill:none;}.cls-6{fill:#ffbe3d;}.cls-7{fill:#614b44;}.cls-8{fill:#947063;}</style></defs><title>112-boy-2</title><ellipse id="_Ellipse_" data-name="&lt;Ellipse&gt;" class="cls-1" cx="24" cy="44.31" rx="15.17" ry="1.69"/><path id="_Path_" data-name="&lt;Path&gt;" class="cls-2" d="M43,22.91a3.68,3.68,0,0,0-3.15-3.64c-1.53-8-8-14.06-15.82-14.06s-14.29,6-15.82,14.06a3.67,3.67,0,0,0,0,7.27c1.53,8,8,14.06,15.82,14.06s14.29-6,15.82-14.06A3.67,3.67,0,0,0,43,22.91Z"/><g id="_Group_" data-name="&lt;Group&gt;"><g id="_Group_2" data-name="&lt;Group&gt;"><path id="_Path_2" data-name="&lt;Path&gt;" class="cls-3" d="M19,30.15a.78.78,0,0,0-.76.89,5.8,5.8,0,0,0,11.44,0,.78.78,0,0,0-.18-.62.76.76,0,0,0-.58-.27Z"/><path id="_Path_3" data-name="&lt;Path&gt;" class="cls-4" d="M24,32.53a7.11,7.11,0,0,0-4.41,1.35,5.86,5.86,0,0,0,8.82,0A7.11,7.11,0,0,0,24,32.53Z"/></g></g><g id="_Group_3" data-name="&lt;Group&gt;"><path id="_Path_4" data-name="&lt;Path&gt;" class="cls-5" d="M19,30.15a.78.78,0,0,0-.76.89,5.8,5.8,0,0,0,11.44,0,.78.78,0,0,0-.18-.62.76.76,0,0,0-.58-.27Z"/></g><ellipse id="_Ellipse_2" data-name="&lt;Ellipse&gt;" class="cls-6" cx="13.62" cy="27.69" rx="1.75" ry="1.05"/><ellipse id="_Ellipse_3" data-name="&lt;Ellipse&gt;" class="cls-6" cx="34.38" cy="27.69" rx="1.75" ry="1.05"/><path class="cls-7" d="M23.83,1.5a16,16,0,0,0-16,16v1.85a18.36,18.36,0,0,0,6.35-2A14.39,14.39,0,0,0,18.27,14v3.06a13.29,13.29,0,0,0,6.19-1.53A9.37,9.37,0,0,0,28,12.42a11.12,11.12,0,0,0,4.68,4.73,16.78,16.78,0,0,0,7.19,2.12V17.49A16,16,0,0,0,23.83,1.5Z"/><path class="cls-8" d="M23.83,1.5a16,16,0,0,0-16,16v1.85H8a16,16,0,0,1,31.69-.07h.15V17.49A16,16,0,0,0,23.83,1.5Z"/><path class="cls-5" d="M23.83,1.5a16,16,0,0,0-16,16v1.85a18.36,18.36,0,0,0,6.35-2A14.39,14.39,0,0,0,18.27,14v3.06a13.29,13.29,0,0,0,6.19-1.53A9.37,9.37,0,0,0,28,12.42a11.12,11.12,0,0,0,4.68,4.73,16.78,16.78,0,0,0,7.19,2.12V17.49A16,16,0,0,0,23.83,1.5Z"/><g id="_Group_4" data-name="&lt;Group&gt;"><path id="_Path_5" data-name="&lt;Path&gt;" class="cls-5" d="M18.1,22.77a1.83,1.83,0,0,0-3.37,0"/><path id="_Path_6" data-name="&lt;Path&gt;" class="cls-5" d="M33.27,22.77a1.83,1.83,0,0,0-3.37,0"/></g></svg>