<svg id="Icons" xmlns="http://www.w3.org/2000/svg" viewBox="0 0 48 48"><defs><style>.cls-1{fill:#614b44;}.cls-2{fill:#947063;}.cls-3{fill:none;}.cls-3,.cls-5{stroke:#45413c;stroke-linecap:round;stroke-linejoin:round;}.cls-4{fill:#45413c;opacity:0.15;}.cls-5{fill:#ffda8f;}.cls-6{fill:#ff6242;}.cls-7{fill:#ffa694;}.cls-8{fill:#ffbe3d;}</style></defs><title>115-girl-2</title><path id="_Path_" data-name="&lt;Path&gt;" class="cls-1" d="M10.58,29.93a5.94,5.94,0,0,0-5.06,1.89c-1.6,1.87-2.1,4.58-3.33,5.6a.87.87,0,0,0,0,1.37c3.27,2.56,6.87,2.58,9.36.26C14.3,36.47,16.14,31.54,10.58,29.93Z"/><path id="_Path_2" data-name="&lt;Path&gt;" class="cls-1" d="M37.44,29.93a5.94,5.94,0,0,1,5.06,1.89c1.6,1.87,2.1,4.58,3.33,5.6a.88.88,0,0,1,0,1.37c-3.28,2.56-6.87,2.58-9.37.26C33.72,36.47,31.88,31.54,37.44,29.93Z"/><path id="_Path_3" data-name="&lt;Path&gt;" class="cls-2" d="M2.16,38.79a9.7,9.7,0,0,0,1,.72,20.27,20.27,0,0,1,2.32-4.2,5.94,5.94,0,0,1,5.06-1.89,4.88,4.88,0,0,1,3.23,2.3c.87-2.29.38-4.74-3.23-5.79a5.94,5.94,0,0,0-5.06,1.89c-1.6,1.87-2.1,4.58-3.33,5.6A.87.87,0,0,0,2.16,38.79Z"/><path id="_Path_4" data-name="&lt;Path&gt;" class="cls-2" d="M37.44,33.42a5.94,5.94,0,0,1,5.06,1.89,20.75,20.75,0,0,1,2.32,4.2,10.82,10.82,0,0,0,1-.72.88.88,0,0,0,0-1.37c-1.23-1-1.73-3.73-3.33-5.6a5.94,5.94,0,0,0-5.06-1.89c-3.62,1.05-4.1,3.5-3.24,5.79A4.9,4.9,0,0,1,37.44,33.42Z"/><path id="_Path_5" data-name="&lt;Path&gt;" class="cls-3" d="M10.58,29.93a5.94,5.94,0,0,0-5.06,1.89c-1.6,1.87-2.1,4.58-3.33,5.6a.87.87,0,0,0,0,1.37c3.27,2.56,6.87,2.58,9.36.26C14.3,36.47,16.14,31.54,10.58,29.93Z"/><path id="_Path_6" data-name="&lt;Path&gt;" class="cls-3" d="M37.44,29.93a5.94,5.94,0,0,1,5.06,1.89c1.6,1.87,2.1,4.58,3.33,5.6a.88.88,0,0,1,0,1.37c-3.28,2.56-6.87,2.58-9.37.26C33.72,36.47,31.88,31.54,37.44,29.93Z"/><ellipse id="_Ellipse_" data-name="&lt;Ellipse&gt;" class="cls-4" cx="24" cy="44.36" rx="14.74" ry="1.64"/><path id="_Path_7" data-name="&lt;Path&gt;" class="cls-5" d="M42.42,23.56A3.57,3.57,0,0,0,39.37,20C37.88,12.23,31.56,6.38,24,6.38S10.12,12.23,8.63,20a3.57,3.57,0,0,0,0,7.07C10.12,34.9,16.44,40.75,24,40.75S37.88,34.9,39.37,27.1A3.57,3.57,0,0,0,42.42,23.56Z"/><g id="_Group_" data-name="&lt;Group&gt;"><g id="_Group_2" data-name="&lt;Group&gt;"><path id="_Path_8" data-name="&lt;Path&gt;" class="cls-6" d="M19.19,30.6a.74.74,0,0,0-.57.27.73.73,0,0,0-.18.6,5.64,5.64,0,0,0,11.12,0,.76.76,0,0,0-.18-.61.77.77,0,0,0-.57-.26Z"/><path id="_Path_9" data-name="&lt;Path&gt;" class="cls-7" d="M24,32.92a6.92,6.92,0,0,0-4.28,1.3,5.67,5.67,0,0,0,8.56,0A6.92,6.92,0,0,0,24,32.92Z"/></g></g><g id="_Group_3" data-name="&lt;Group&gt;"><path id="_Path_10" data-name="&lt;Path&gt;" class="cls-3" d="M19.19,30.6a.74.74,0,0,0-.57.27.73.73,0,0,0-.18.6,5.64,5.64,0,0,0,11.12,0,.76.76,0,0,0-.18-.61.77.77,0,0,0-.57-.26Z"/></g><ellipse id="_Ellipse_2" data-name="&lt;Ellipse&gt;" class="cls-8" cx="13.92" cy="28.21" rx="1.7" ry="1.02"/><ellipse id="_Ellipse_3" data-name="&lt;Ellipse&gt;" class="cls-8" cx="34.08" cy="28.21" rx="1.7" ry="1.02"/><path class="cls-1" d="M24,1.5A16.61,16.61,0,0,0,7.4,18.1v2.36L8.63,20h.86A17.24,17.24,0,0,0,24,12.11,17.24,17.24,0,0,0,38.51,20h.86l1.24.43V18.1A16.6,16.6,0,0,0,24,1.5Z"/><path class="cls-2" d="M24,1.5A16.61,16.61,0,0,0,7.4,18.1v2.36l.1,0a16.6,16.6,0,0,1,33,0l.1,0V18.1A16.6,16.6,0,0,0,24,1.5Z"/><path class="cls-3" d="M24,1.5A16.61,16.61,0,0,0,7.4,18.1v2.36L8.63,20h.86A17.24,17.24,0,0,0,24,12.11,17.24,17.24,0,0,0,38.51,20h.86l1.24.43V18.1A16.6,16.6,0,0,0,24,1.5Z"/><g id="_Group_4" data-name="&lt;Group&gt;"><path id="_Path_11" data-name="&lt;Path&gt;" class="cls-3" d="M18.27,22.63a1.77,1.77,0,0,0-3.28,0"/><path id="_Path_12" data-name="&lt;Path&gt;" class="cls-3" d="M33,22.63a1.77,1.77,0,0,0-3.28,0"/></g></svg>