<svg id="Icons" xmlns="http://www.w3.org/2000/svg" viewBox="0 0 48 48"><defs><style>.cls-1,.cls-6{fill:#45413c;}.cls-1{opacity:0.15;}.cls-2{fill:#724f3d;}.cls-3{fill:#a86c4d;}.cls-4{fill:none;}.cls-4,.cls-5,.cls-6{stroke:#45413c;stroke-linecap:round;stroke-linejoin:round;}.cls-5{fill:#ffe500;}.cls-7{fill:#ff6242;}.cls-8{fill:#ffa694;}.cls-9{fill:#ffaa54;}</style></defs><title>117-man-1</title><ellipse id="_Ellipse_" data-name="&lt;Ellipse&gt;" class="cls-1" cx="24" cy="44.5" rx="12.5" ry="1.5"/><path id="_Path_" data-name="&lt;Path&gt;" class="cls-2" d="M24,4.51A14.5,14.5,0,0,0,20.37,5c-2.76.62-6.35,1.67-9.6,1A6.19,6.19,0,0,0,12,10.78a14.53,14.53,0,0,0-2.6,8.32v7.64H38.59V19.1A14.59,14.59,0,0,0,24,4.51Z"/><g id="_Group_" data-name="&lt;Group&gt;"><path id="_Path_2" data-name="&lt;Path&gt;" class="cls-3" d="M24,4.51A14.5,14.5,0,0,0,20.37,5c-2.76.62-6.35,1.67-9.6,1a6.55,6.55,0,0,0,1,4.47c3,.28,6.12-.61,8.6-1.17A14.59,14.59,0,0,1,38.59,23.44V19.1A14.59,14.59,0,0,0,24,4.51Z"/></g><path id="_Path_3" data-name="&lt;Path&gt;" class="cls-4" d="M24,4.51A14.5,14.5,0,0,0,20.37,5c-2.76.62-6.35,1.67-9.6,1A6.19,6.19,0,0,0,12,10.78a14.53,14.53,0,0,0-2.6,8.32v7.64H38.59V19.1A14.59,14.59,0,0,0,24,4.51Z"/><path class="cls-5" d="M40.15,25.63a2.7,2.7,0,0,0-2.07-2.29l-.87-.25A3,3,0,0,1,35,20.16V17.09a2.77,2.77,0,0,0-2.08-2.68A23,23,0,0,1,24,16a23,23,0,0,1-8.9-1.61A2.77,2.77,0,0,0,13,17.09v3.07a3,3,0,0,1-2.23,2.93l-.87.25a2.63,2.63,0,0,0,.61,5.21h.17a13.45,13.45,0,0,0,26.6,0h.17A2.69,2.69,0,0,0,40.15,25.63Z"/><path id="_Path_4" data-name="&lt;Path&gt;" class="cls-6" d="M15.93,25.31a1.15,1.15,0,1,0,1.14-1.15A1.15,1.15,0,0,0,15.93,25.31Z"/><path id="_Path_5" data-name="&lt;Path&gt;" class="cls-6" d="M32.07,25.31a1.15,1.15,0,1,1-1.14-1.15A1.15,1.15,0,0,1,32.07,25.31Z"/><g id="_Group_2" data-name="&lt;Group&gt;"><g id="_Group_3" data-name="&lt;Group&gt;"><path id="_Path_6" data-name="&lt;Path&gt;" class="cls-7" d="M20.31,32.59a.61.61,0,0,0-.44.2.57.57,0,0,0-.13.47,4.32,4.32,0,0,0,8.52,0,.57.57,0,0,0-.13-.47.61.61,0,0,0-.44-.2Z"/><path id="_Path_7" data-name="&lt;Path&gt;" class="cls-8" d="M24,34.37a5.3,5.3,0,0,0-3.29,1,4.38,4.38,0,0,0,6.58,0A5.3,5.3,0,0,0,24,34.37Z"/></g></g><g id="_Group_4" data-name="&lt;Group&gt;"><path id="_Path_8" data-name="&lt;Path&gt;" class="cls-4" d="M20.31,32.59a.61.61,0,0,0-.44.2.57.57,0,0,0-.13.47,4.32,4.32,0,0,0,8.52,0,.57.57,0,0,0-.13-.47.61.61,0,0,0-.44-.2Z"/></g><ellipse id="_Ellipse_2" data-name="&lt;Ellipse&gt;" class="cls-9" cx="15.18" cy="30.19" rx="1.49" ry="0.89"/><ellipse id="_Ellipse_3" data-name="&lt;Ellipse&gt;" class="cls-9" cx="32.82" cy="30.19" rx="1.49" ry="0.89"/></svg>