<svg id="Icons" xmlns="http://www.w3.org/2000/svg" viewBox="0 0 48 48"><defs><style>.cls-1,.cls-6{fill:#45413c;}.cls-1{opacity:0.15;}.cls-2{fill:#724f3d;}.cls-3{fill:#a86c4d;}.cls-4{fill:none;}.cls-4,.cls-5,.cls-6{stroke:#45413c;stroke-linecap:round;stroke-linejoin:round;}.cls-5{fill:#ffe500;}.cls-7{fill:#ff6242;}.cls-8{fill:#ffa694;}.cls-9{fill:#ffaa54;}</style></defs><title>119-woman-1</title><ellipse id="_Ellipse_" data-name="&lt;Ellipse&gt;" class="cls-1" cx="24" cy="44.5" rx="12.5" ry="1.5"/><path id="_Path_" data-name="&lt;Path&gt;" class="cls-2" d="M24,1.5A16.16,16.16,0,0,1,40.16,17.66V38.74A1.81,1.81,0,0,1,39,40.43h0a40.31,40.31,0,0,1-30,0H9a1.81,1.81,0,0,1-1.14-1.69V17.66A16.16,16.16,0,0,1,24,1.5Z"/><path id="_Path_2" data-name="&lt;Path&gt;" class="cls-3" d="M24,1.5A16.16,16.16,0,0,0,7.84,17.66v4.47a16.16,16.16,0,0,1,32.32,0V17.66A16.16,16.16,0,0,0,24,1.5Z"/><path id="_Path_3" data-name="&lt;Path&gt;" class="cls-4" d="M24,1.5A16.16,16.16,0,0,1,40.16,17.66V38.74A1.81,1.81,0,0,1,39,40.43h0a40.31,40.31,0,0,1-30,0H9a1.81,1.81,0,0,1-1.14-1.69V17.66A16.16,16.16,0,0,1,24,1.5Z"/><g id="_Group_" data-name="&lt;Group&gt;"><path id="_Path_4" data-name="&lt;Path&gt;" class="cls-5" d="M37.47,21A13,13,0,0,1,29,13.57l-.93-2.21a23.56,23.56,0,0,1-14.78,9.17l-2.8.51a2.7,2.7,0,0,0,0,5.39l.17,0a13.45,13.45,0,0,0,26.6,0l.17,0a2.7,2.7,0,0,0,0-5.39Z"/></g><g id="_Group_2" data-name="&lt;Group&gt;"><path id="_Path_5" data-name="&lt;Path&gt;" class="cls-6" d="M15.93,23.18A1.15,1.15,0,1,0,17.07,22,1.14,1.14,0,0,0,15.93,23.18Z"/><path id="_Path_6" data-name="&lt;Path&gt;" class="cls-6" d="M32.07,23.18A1.15,1.15,0,1,1,30.93,22,1.14,1.14,0,0,1,32.07,23.18Z"/><g id="_Group_3" data-name="&lt;Group&gt;"><g id="_Group_4" data-name="&lt;Group&gt;"><path id="_Path_7" data-name="&lt;Path&gt;" class="cls-7" d="M20.31,30.47a.57.57,0,0,0-.44.2.54.54,0,0,0-.13.46,4.32,4.32,0,0,0,8.52,0,.54.54,0,0,0-.13-.46.57.57,0,0,0-.44-.2Z"/><path id="_Path_8" data-name="&lt;Path&gt;" class="cls-8" d="M24,32.24a5.37,5.37,0,0,0-3.29,1,4.36,4.36,0,0,0,6.58,0A5.37,5.37,0,0,0,24,32.24Z"/></g></g><g id="_Group_5" data-name="&lt;Group&gt;"><path id="_Path_9" data-name="&lt;Path&gt;" class="cls-4" d="M20.31,30.47a.57.57,0,0,0-.44.2.54.54,0,0,0-.13.46,4.32,4.32,0,0,0,8.52,0,.54.54,0,0,0-.13-.46.57.57,0,0,0-.44-.2Z"/></g><ellipse id="_Ellipse_2" data-name="&lt;Ellipse&gt;" class="cls-9" cx="15.18" cy="28.06" rx="1.49" ry="0.89"/><ellipse id="_Ellipse_3" data-name="&lt;Ellipse&gt;" class="cls-9" cx="32.82" cy="28.06" rx="1.49" ry="0.89"/></g></svg>