<svg id="Icons" xmlns="http://www.w3.org/2000/svg" viewBox="0 0 48 48"><defs><style>.cls-1,.cls-5{fill:#656769;}.cls-1,.cls-10,.cls-2,.cls-3,.cls-4{stroke:#45413c;stroke-linecap:round;stroke-linejoin:round;}.cls-2{fill:none;}.cls-3,.cls-7{fill:#ffe500;}.cls-4{fill:#724f3d;}.cls-6{fill:#525252;}.cls-8{fill:#ebcb00;}.cls-10,.cls-9{fill:#45413c;}.cls-9{opacity:0.15;}.cls-11{fill:#ff6242;}.cls-12{fill:#ffa694;}.cls-13{fill:#ffaa54;}</style></defs><title>131-woman-student-1</title><path id="_Path_" data-name="&lt;Path&gt;" class="cls-1" d="M23.55,17.33l-15-7.64a.5.5,0,0,1,0-.89l15-7.69a1,1,0,0,1,.92,0l15,7.69a.5.5,0,0,1,0,.89l-15,7.64A1,1,0,0,1,23.55,17.33Z"/><line id="_Path_2" data-name="&lt;Path&gt;" class="cls-2" x1="8.31" y1="9.24" x2="8.31" y2="17.19"/><path id="_Path_3" data-name="&lt;Path&gt;" class="cls-3" d="M9.27,17.18a1,1,0,0,0-1-1.07,1,1,0,0,0-1,1.07l-.19,3.69H9.46Z"/><path class="cls-4" d="M24,14.81c-5,0-9.65,1-10.88,2.38V31.38a1.24,1.24,0,0,0,.77,1.14h0a27.09,27.09,0,0,0,20.22,0h0a1.24,1.24,0,0,0,.77-1.14V17.19C33.65,15.86,29,14.81,24,14.81Z"/><path class="cls-5" d="M31.54,34.09,24,31.22l-7.54,2.87a6.76,6.76,0,0,0-4.35,6.31V45H35.89V40.4A6.76,6.76,0,0,0,31.54,34.09Z"/><path class="cls-6" d="M31.54,34.09,24,31.22l-7.54,2.87a6.76,6.76,0,0,0-4.35,6.31v3a6.76,6.76,0,0,1,4.35-6.31L24,34.21l7.54,2.87a6.76,6.76,0,0,1,4.35,6.31v-3A6.76,6.76,0,0,0,31.54,34.09Z"/><path class="cls-2" d="M31.54,34.09,24,31.22l-7.54,2.87a6.76,6.76,0,0,0-4.35,6.31V45H35.89V40.4A6.76,6.76,0,0,0,31.54,34.09Z"/><path id="_Path_4" data-name="&lt;Path&gt;" class="cls-7" d="M24,35.11h0S21.46,34,21.46,32.57V29.72A2.54,2.54,0,0,1,24,27.17h0a2.54,2.54,0,0,1,2.54,2.55v2.85C26.54,34,24,35.11,24,35.11Z"/><path id="_Path_5" data-name="&lt;Path&gt;" class="cls-8" d="M24,27.17a2.54,2.54,0,0,0-2.54,2.54v.6a2.54,2.54,0,0,0,5.08,0v-.59A2.54,2.54,0,0,0,24,27.17Z"/><path id="_Path_6" data-name="&lt;Path&gt;" class="cls-2" d="M24,35.11h0S21.46,34,21.46,32.57V29.72A2.54,2.54,0,0,1,24,27.17h0a2.54,2.54,0,0,1,2.54,2.55v2.85C26.54,34,24,35.11,24,35.11Z"/><line id="_Path_7" data-name="&lt;Path&gt;" class="cls-2" x1="13.45" y1="36.35" x2="17.06" y2="45"/><line id="_Path_8" data-name="&lt;Path&gt;" class="cls-2" x1="34.55" y1="36.35" x2="30.94" y2="45"/><line id="_Path_9" data-name="&lt;Path&gt;" class="cls-2" x1="20.54" y1="40.48" x2="21.27" y2="45"/><line id="_Path_10" data-name="&lt;Path&gt;" class="cls-2" x1="27.46" y1="40.48" x2="26.73" y2="45"/><ellipse id="_Ellipse_" data-name="&lt;Ellipse&gt;" class="cls-9" cx="24" cy="45.5" rx="15" ry="1.5"/><g id="_Group_" data-name="&lt;Group&gt;"><path id="_Path_11" data-name="&lt;Path&gt;" class="cls-3" d="M33.07,19.47a8.77,8.77,0,0,1-5.68-5L26.77,13a15.92,15.92,0,0,1-9.95,6.18l-1.88.34a1.81,1.81,0,1,0,0,3.62h.11a9,9,0,0,0,17.9,0h.12a1.81,1.81,0,1,0,0-3.62Z"/></g><path id="_Path_12" data-name="&lt;Path&gt;" class="cls-10" d="M18.57,20.91a.77.77,0,1,0,.77-.77A.76.76,0,0,0,18.57,20.91Z"/><path id="_Path_13" data-name="&lt;Path&gt;" class="cls-10" d="M29.43,20.91a.77.77,0,1,1-.77-.77A.76.76,0,0,1,29.43,20.91Z"/><g id="_Group_2" data-name="&lt;Group&gt;"><g id="_Group_3" data-name="&lt;Group&gt;"><g id="_Group_4" data-name="&lt;Group&gt;"><path id="_Path_14" data-name="&lt;Path&gt;" class="cls-11" d="M21.16,25.6a.44.44,0,0,0-.33.16.42.42,0,0,0-.1.35,3.32,3.32,0,0,0,6.54,0,.42.42,0,0,0-.1-.35.42.42,0,0,0-.33-.16Z"/><path id="_Path_15" data-name="&lt;Path&gt;" class="cls-12" d="M24,27a4,4,0,0,0-2.52.77,3.36,3.36,0,0,0,5,0A4,4,0,0,0,24,27Z"/></g></g></g><g id="_Group_5" data-name="&lt;Group&gt;"><path id="_Path_16" data-name="&lt;Path&gt;" class="cls-2" d="M21.16,25.6a.44.44,0,0,0-.33.16.42.42,0,0,0-.1.35,3.32,3.32,0,0,0,6.54,0,.42.42,0,0,0-.1-.35.42.42,0,0,0-.33-.16Z"/></g><ellipse id="_Ellipse_2" data-name="&lt;Ellipse&gt;" class="cls-13" cx="18.06" cy="24.19" rx="1" ry="0.6"/><ellipse id="_Ellipse_3" data-name="&lt;Ellipse&gt;" class="cls-13" cx="29.94" cy="24.19" rx="1" ry="0.6"/><path class="cls-5" d="M33.85,9c-.27-1.29-4.12-2.2-9.85-2.2s-9.58.91-9.85,2.2a74.6,74.6,0,0,0-1,8.16C14.35,15.86,19,14.81,24,14.81s9.65,1,10.88,2.38A74.6,74.6,0,0,0,33.85,9Z"/><path class="cls-6" d="M24,9.52a30.74,30.74,0,0,1,10.2,1.61C34,9.91,33.85,9,33.85,9c-.27-1.29-4.12-2.2-9.85-2.2s-9.58.91-9.85,2.2c0,0-.16.88-.35,2.1A30.74,30.74,0,0,1,24,9.52Z"/><path class="cls-2" d="M33.85,9c-.27-1.29-4.12-2.2-9.85-2.2s-9.58.91-9.85,2.2a74.6,74.6,0,0,0-1,8.16C14.35,15.86,19,14.81,24,14.81s9.65,1,10.88,2.38A74.6,74.6,0,0,0,33.85,9Z"/></svg>