<svg id="Icons" xmlns="http://www.w3.org/2000/svg" viewBox="0 0 48 48"><defs><style>.cls-1{fill:#724f3d;}.cls-2{fill:#a86c4d;}.cls-3{fill:none;}.cls-17,.cls-18,.cls-3,.cls-7,.cls-8,.cls-9{stroke:#45413c;stroke-linecap:round;stroke-linejoin:round;}.cls-4{fill:#656769;}.cls-5{fill:#525252;}.cls-18,.cls-6{fill:#45413c;}.cls-6{opacity:0.15;}.cls-7{fill:#f0f0f0;}.cls-8{fill:#fff;}.cls-19,.cls-9{fill:#ff6242;}.cls-10{fill:#f0d5a8;}.cls-11{fill:#f7e5c6;}.cls-12{fill:#debb7e;}.cls-13{fill:#b89558;}.cls-14,.cls-17{fill:#ffe500;}.cls-15{fill:#fff48c;}.cls-16{fill:#ebcb00;}.cls-20{fill:#ffa694;}.cls-21{fill:#ffaa54;}</style></defs><title>135-woman-judge-1</title><path id="_Path_" data-name="&lt;Path&gt;" class="cls-1" d="M20.39,6.32A10.88,10.88,0,0,1,31.27,17.19V31.38a1.23,1.23,0,0,1-.77,1.14h0a27.09,27.09,0,0,1-20.22,0h0a1.24,1.24,0,0,1-.77-1.14V17.19A10.88,10.88,0,0,1,20.39,6.32Z"/><path id="_Path_2" data-name="&lt;Path&gt;" class="cls-2" d="M20.39,6.32A10.88,10.88,0,0,0,9.51,17.19v3a10.88,10.88,0,0,1,21.76,0v-3A10.88,10.88,0,0,0,20.39,6.32Z"/><path id="_Path_3" data-name="&lt;Path&gt;" class="cls-3" d="M20.39,6.32A10.88,10.88,0,0,1,31.27,17.19V31.38a1.23,1.23,0,0,1-.77,1.14h0a27.09,27.09,0,0,1-20.22,0h0a1.24,1.24,0,0,1-.77-1.14V17.19A10.88,10.88,0,0,1,20.39,6.32Z"/><path class="cls-4" d="M27.94,32.84,20.39,30l-7.54,2.87A6.76,6.76,0,0,0,8.5,39.15V45H32.28V39.15A6.76,6.76,0,0,0,27.94,32.84Z"/><path class="cls-5" d="M27.94,32.84,20.39,30l-7.54,2.87A6.76,6.76,0,0,0,8.5,39.15v3a6.76,6.76,0,0,1,4.35-6.31L20.39,33l7.55,2.87a6.76,6.76,0,0,1,4.34,6.31v-3A6.76,6.76,0,0,0,27.94,32.84Z"/><path class="cls-3" d="M27.94,32.84,20.39,30l-7.54,2.87A6.76,6.76,0,0,0,8.5,39.15V45H32.28V39.15A6.76,6.76,0,0,0,27.94,32.84Z"/><ellipse id="_Ellipse_" data-name="&lt;Ellipse&gt;" class="cls-6" cx="20.41" cy="45.5" rx="13.5" ry="1.5"/><path class="cls-7" d="M20.39,30s-5,0-5,2.82a10,10,0,0,0,2.15,5.78l2.89-2.44,2.89,2.44a10,10,0,0,0,2.16-5.78C25.44,30,20.39,30,20.39,30Z"/><line id="_Path_4" data-name="&lt;Path&gt;" class="cls-3" x1="11.87" y1="45" x2="11.37" y2="42.59"/><line id="_Path_5" data-name="&lt;Path&gt;" class="cls-3" x1="28.92" y1="45" x2="29.42" y2="42.59"/><polygon id="_Path_6" data-name="&lt;Path&gt;" class="cls-8" points="17.5 38.59 20.39 42.12 23.28 38.59 20.39 36.15 17.5 38.59"/><polygon class="cls-9" points="21.87 37.4 20.39 36.15 18.92 37.4 19.69 38.85 19.27 40.75 20.39 42.12 21.51 40.75 21.09 38.85 21.87 37.4"/><path id="_Path_7" data-name="&lt;Path&gt;" class="cls-3" d="M10.86,34a6.82,6.82,0,0,0,1.35,4.57C13.89,41.06,16.77,45,16.77,45"/><path id="_Path_8" data-name="&lt;Path&gt;" class="cls-3" d="M29.92,34a6.77,6.77,0,0,1-1.34,4.57C26.89,41.06,24,45,24,45"/><rect id="_Rectangle_" data-name="&lt;Rectangle&gt;" class="cls-10" x="31.28" y="25.38" width="1.94" height="7.75" rx="0.97" ry="0.97" transform="translate(8.16 -7.01) rotate(14.19)"/><path id="_Path_9" data-name="&lt;Path&gt;" class="cls-11" d="M33.2,25.5a1,1,0,0,0-1.18.7l-.35,1.41a1.13,1.13,0,0,1,.85-.14l.25.07a1.07,1.07,0,0,1,.75.66l.39-1.52A1,1,0,0,0,33.2,25.5Z"/><rect id="_Rectangle_2" data-name="&lt;Rectangle&gt;" class="cls-3" x="31.28" y="25.38" width="1.94" height="7.75" rx="0.97" ry="0.97" transform="translate(8.16 -7.01) rotate(14.19)"/><rect id="_Rectangle_3" data-name="&lt;Rectangle&gt;" class="cls-10" x="41.89" y="28.06" width="1.94" height="7.75" rx="0.97" ry="0.97" transform="translate(9.14 -9.53) rotate(14.19)"/><path id="_Path_10" data-name="&lt;Path&gt;" class="cls-11" d="M43.81,28.18a1,1,0,0,0-1.18.7l-.35,1.41a1,1,0,0,1,.85-.14l.25.06a1.08,1.08,0,0,1,.75.67l.39-1.53A1,1,0,0,0,43.81,28.18Z"/><rect id="_Rectangle_4" data-name="&lt;Rectangle&gt;" class="cls-3" x="41.89" y="28.06" width="1.94" height="7.75" rx="0.97" ry="0.97" transform="translate(9.14 -9.53) rotate(14.19)"/><rect id="_Rectangle_5" data-name="&lt;Rectangle&gt;" class="cls-12" x="33.06" y="27.17" width="9" height="6.85" transform="translate(8.65 -8.27) rotate(14.19)"/><rect id="_Path_11" data-name="&lt;Path&gt;" class="cls-10" x="36.91" y="23.94" width="2.4" height="9" transform="translate(1.19 58.41) rotate(-75.81)"/><rect id="_Rectangle_6" data-name="&lt;Rectangle&gt;" class="cls-3" x="33.06" y="27.17" width="9" height="6.85" transform="translate(8.65 -8.27) rotate(14.19)"/><rect id="_Rectangle_7" data-name="&lt;Rectangle&gt;" class="cls-12" x="34.22" y="33.74" width="2.11" height="11.75" transform="translate(10.79 -7.44) rotate(14.19)"/><rect id="_Path_12" data-name="&lt;Path&gt;" class="cls-13" x="35.5" y="33.81" width="1.96" height="2.11" transform="translate(-6.27 61.69) rotate(-75.81)"/><rect id="_Rectangle_8" data-name="&lt;Rectangle&gt;" class="cls-3" x="34.22" y="33.74" width="2.11" height="11.75" transform="translate(10.79 -7.44) rotate(14.19)"/><path id="_Rectangle_9" data-name="&lt;Rectangle&gt;" class="cls-14" d="M32.33,36.62h0a1.54,1.54,0,0,1,1.54,1.54v6.73a0,0,0,0,1,0,0h0a2.34,2.34,0,0,1-2.34-2.34V37.41A.79.79,0,0,1,32.33,36.62Z" transform="translate(10.99 -6.77) rotate(14.19)"/><path id="_Path_13" data-name="&lt;Path&gt;" class="cls-15" d="M33.35,36.65a.8.8,0,0,0-1,.58l-.47,1.86a.79.79,0,0,1,1-.58A1.55,1.55,0,0,1,34,40.39l.47-1.86A1.55,1.55,0,0,0,33.35,36.65Z"/><path id="_Rectangle_10" data-name="&lt;Rectangle&gt;" class="cls-3" d="M32.33,36.62h0a1.54,1.54,0,0,1,1.54,1.54v6.73a0,0,0,0,1,0,0h0a2.34,2.34,0,0,1-2.34-2.34V37.41A.79.79,0,0,1,32.33,36.62Z" transform="translate(10.99 -6.77) rotate(14.19)"/><path id="_Path_14" data-name="&lt;Path&gt;" class="cls-14" d="M37,39l-1.94-.49a1.16,1.16,0,0,0-1.4.84,1.15,1.15,0,0,0,.78,1.37A1.15,1.15,0,0,0,34,43a1.15,1.15,0,0,0-.57,2.23l1.94.49h0A2.17,2.17,0,0,0,38,44.1l.62-2.44A2.19,2.19,0,0,0,37,39Z"/><g id="_Group_" data-name="&lt;Group&gt;"><path id="_Path_15" data-name="&lt;Path&gt;" class="cls-15" d="M37,39l-1.94-.49a1.16,1.16,0,0,0-1.4.84,1.18,1.18,0,0,0,0,.59,1.15,1.15,0,0,1,1.09-.32l1.94.49a2.17,2.17,0,0,1,1.58,2.65l.28-1.1A2.19,2.19,0,0,0,37,39Z"/></g><path id="_Path_16" data-name="&lt;Path&gt;" class="cls-3" d="M37,39l-1.94-.49a1.16,1.16,0,0,0-1.4.84,1.15,1.15,0,0,0,.78,1.37A1.15,1.15,0,0,0,34,43a1.15,1.15,0,0,0-.57,2.23l1.94.49h0A2.17,2.17,0,0,0,38,44.1l.62-2.44A2.19,2.19,0,0,0,37,39Z"/><path class="cls-14" d="M20.39,27.16a2.55,2.55,0,0,0-2.54,2.55v2.85c0,1.4,2.54,3.59,2.54,3.59s2.55-2.19,2.55-3.59V29.71A2.55,2.55,0,0,0,20.39,27.16Z"/><path id="_Path_17" data-name="&lt;Path&gt;" class="cls-16" d="M20.39,27.16a2.55,2.55,0,0,0-2.54,2.55v.59a2.55,2.55,0,0,0,5.09,0v-.59A2.55,2.55,0,0,0,20.39,27.16Z"/><path class="cls-3" d="M20.39,27.16a2.55,2.55,0,0,0-2.54,2.55v2.85c0,1.4,2.54,3.59,2.54,3.59s2.55-2.19,2.55-3.59V29.71A2.55,2.55,0,0,0,20.39,27.16Z"/><g id="_Group_2" data-name="&lt;Group&gt;"><path id="_Path_18" data-name="&lt;Path&gt;" class="cls-17" d="M29.46,19.47a8.77,8.77,0,0,1-5.68-5L23.16,13a15.92,15.92,0,0,1-9.95,6.18l-1.88.34a1.81,1.81,0,1,0,0,3.62h.11a9.05,9.05,0,0,0,17.91,0h.11a1.81,1.81,0,0,0,0-3.62Z"/></g><path id="_Path_19" data-name="&lt;Path&gt;" class="cls-18" d="M15,20.91a.77.77,0,1,0,.77-.77A.76.76,0,0,0,15,20.91Z"/><path id="_Path_20" data-name="&lt;Path&gt;" class="cls-18" d="M25.83,20.91a.78.78,0,1,1-.78-.77A.77.77,0,0,1,25.83,20.91Z"/><g id="_Group_3" data-name="&lt;Group&gt;"><g id="_Group_4" data-name="&lt;Group&gt;"><g id="_Group_5" data-name="&lt;Group&gt;"><g id="_Group_6" data-name="&lt;Group&gt;"><g id="_Group_7" data-name="&lt;Group&gt;"><g id="_Group_8" data-name="&lt;Group&gt;"><g id="_Group_9" data-name="&lt;Group&gt;"><path id="_Path_21" data-name="&lt;Path&gt;" class="cls-19" d="M17.56,25.6a.45.45,0,0,0-.44.51,3.32,3.32,0,0,0,6.55,0,.46.46,0,0,0-.44-.51Z"/><path id="_Path_22" data-name="&lt;Path&gt;" class="cls-20" d="M20.39,27a4,4,0,0,0-2.52.77,3.36,3.36,0,0,0,5,0A4,4,0,0,0,20.39,27Z"/></g></g></g></g></g></g></g><g id="_Group_10" data-name="&lt;Group&gt;"><path id="_Path_23" data-name="&lt;Path&gt;" class="cls-3" d="M17.56,25.6a.45.45,0,0,0-.44.51,3.32,3.32,0,0,0,6.55,0,.46.46,0,0,0-.44-.51Z"/></g><ellipse id="_Ellipse_2" data-name="&lt;Ellipse&gt;" class="cls-21" cx="14.45" cy="24.19" rx="1" ry="0.6"/><ellipse id="_Ellipse_3" data-name="&lt;Ellipse&gt;" class="cls-21" cx="26.33" cy="24.19" rx="1" ry="0.6"/></svg>