<svg id="Icons" xmlns="http://www.w3.org/2000/svg" viewBox="0 0 48 48"><defs><style>.cls-1,.cls-12{fill:#45413c;}.cls-1{opacity:0.15;}.cls-2{fill:#6dd627;}.cls-3,.cls-7{fill:#46b000;}.cls-4{fill:none;}.cls-10,.cls-11,.cls-12,.cls-17,.cls-18,.cls-4,.cls-7{stroke:#45413c;stroke-linecap:round;stroke-linejoin:round;}.cls-5{fill:#00b8f0;}.cls-6{fill:#009fd9;}.cls-11,.cls-8{fill:#ffcebf;}.cls-9{fill:#ffb59e;}.cls-10{fill:#a86c4d;}.cls-13{fill:#ff6242;}.cls-14{fill:#ffa694;}.cls-15{fill:#debb7e;}.cls-16{fill:#f0d5a8;}.cls-17{fill:#bf8256;}.cls-18{fill:#adc4d9;}.cls-19{fill:#ffdcd1;}</style></defs><title>138-man-farmer-2</title><ellipse id="_Ellipse_" data-name="&lt;Ellipse&gt;" class="cls-1" cx="24" cy="45.5" rx="15" ry="1.5"/><path id="_Rectangle_" data-name="&lt;Rectangle&gt;" class="cls-2" d="M24,31.22h0A11.88,11.88,0,0,1,35.88,43.1V45a0,0,0,0,1,0,0H12.12a0,0,0,0,1,0,0V43.1A11.88,11.88,0,0,1,24,31.22Z"/><path id="_Path_" data-name="&lt;Path&gt;" class="cls-3" d="M24,31.22A11.88,11.88,0,0,0,12.12,43.1V45h.15a11.87,11.87,0,0,1,23.46,0h.15V43.1A11.88,11.88,0,0,0,24,31.22Z"/><path id="_Rectangle_2" data-name="&lt;Rectangle&gt;" class="cls-4" d="M24,31.22h0A11.88,11.88,0,0,1,35.88,43.1V45a0,0,0,0,1,0,0H12.12a0,0,0,0,1,0,0V43.1A11.88,11.88,0,0,1,24,31.22Z"/><path class="cls-5" d="M29.94,32.81v6.36a1,1,0,0,1-1,1H19.06a1,1,0,0,1-1-1V32.81a12.41,12.41,0,0,0-2.19,1.62V45H32.13V34.43A12.41,12.41,0,0,0,29.94,32.81Z"/><path class="cls-6" d="M29.94,36.52a12,12,0,0,1,2.19,1.63V34.43a12.41,12.41,0,0,0-2.19-1.62Z"/><path class="cls-6" d="M18.06,36.52V32.81a12.41,12.41,0,0,0-2.19,1.62v3.72A12,12,0,0,1,18.06,36.52Z"/><path class="cls-4" d="M29.94,32.81v6.36a1,1,0,0,1-1,1H19.06a1,1,0,0,1-1-1V32.81a12.41,12.41,0,0,0-2.19,1.62V45H32.13V34.43A12.41,12.41,0,0,0,29.94,32.81Z"/><path class="cls-7" d="M24,30S19,29.94,19,32.79a10,10,0,0,0,2.16,5.77L24,36.13l2.89,2.43a10,10,0,0,0,2.16-5.77C29.05,29.94,24,30,24,30Z"/><path id="_Path_2" data-name="&lt;Path&gt;" class="cls-8" d="M24,36.13h0l-2.25-2.25a1,1,0,0,1-.29-.71v-3A2.54,2.54,0,0,1,24,27.63h0a2.54,2.54,0,0,1,2.54,2.55v3a1,1,0,0,1-.29.71Z"/><path id="_Path_3" data-name="&lt;Path&gt;" class="cls-9" d="M24,27.63a2.54,2.54,0,0,0-2.54,2.55v.59a2.54,2.54,0,0,0,5.08,0v-.59A2.54,2.54,0,0,0,24,27.63Z"/><path id="_Path_4" data-name="&lt;Path&gt;" class="cls-4" d="M24,36.13h0l-2.25-2.25a1,1,0,0,1-.29-.71v-3A2.54,2.54,0,0,1,24,27.63h0a2.54,2.54,0,0,1,2.54,2.55v3a1,1,0,0,1-.29.71Z"/><line id="_Path_5" data-name="&lt;Path&gt;" class="cls-4" x1="24" y1="36.13" x2="24" y2="40.17"/><path id="_Rectangle_3" data-name="&lt;Rectangle&gt;" class="cls-10" d="M24,6.91h0a9.82,9.82,0,0,1,9.82,9.82v5.14a0,0,0,0,1,0,0H14.18a0,0,0,0,1,0,0V16.73A9.82,9.82,0,0,1,24,6.91Z"/><path class="cls-11" d="M34.87,21.12a1.83,1.83,0,0,0-1.39-1.54l-.59-.16a2.06,2.06,0,0,1-1.5-2V15.38A1.88,1.88,0,0,0,30,13.57a15.34,15.34,0,0,1-6,1.09,15.34,15.34,0,0,1-6-1.09,1.88,1.88,0,0,0-1.4,1.81v2.06a2.06,2.06,0,0,1-1.5,2l-.59.16a1.83,1.83,0,0,0-1.39,1.54,1.81,1.81,0,0,0,1.81,2h.11a9,9,0,0,0,17.9,0h.11A1.81,1.81,0,0,0,34.87,21.12Z"/><path id="_Path_6" data-name="&lt;Path&gt;" class="cls-12" d="M18.57,20.91a.77.77,0,1,0,.77-.77A.76.76,0,0,0,18.57,20.91Z"/><path id="_Path_7" data-name="&lt;Path&gt;" class="cls-12" d="M29.43,20.91a.77.77,0,1,1-.77-.77A.76.76,0,0,1,29.43,20.91Z"/><g id="_Group_" data-name="&lt;Group&gt;"><g id="_Group_2" data-name="&lt;Group&gt;"><g id="_Group_3" data-name="&lt;Group&gt;"><g id="_Group_4" data-name="&lt;Group&gt;"><g id="_Group_5" data-name="&lt;Group&gt;"><g id="_Group_6" data-name="&lt;Group&gt;"><g id="_Group_7" data-name="&lt;Group&gt;"><path id="_Path_8" data-name="&lt;Path&gt;" class="cls-13" d="M21.16,25.6a.42.42,0,0,0-.33.16.42.42,0,0,0-.1.35,3.32,3.32,0,0,0,6.54,0,.42.42,0,0,0-.1-.35.44.44,0,0,0-.33-.16Z"/><path id="_Path_9" data-name="&lt;Path&gt;" class="cls-14" d="M24,27a4,4,0,0,0-2.52.77,3.36,3.36,0,0,0,5,0A4,4,0,0,0,24,27Z"/></g></g></g></g></g></g></g><g id="_Group_8" data-name="&lt;Group&gt;"><path id="_Path_10" data-name="&lt;Path&gt;" class="cls-4" d="M21.16,25.6a.42.42,0,0,0-.33.16.42.42,0,0,0-.1.35,3.32,3.32,0,0,0,6.54,0,.42.42,0,0,0-.1-.35.44.44,0,0,0-.33-.16Z"/></g><ellipse id="_Ellipse_2" data-name="&lt;Ellipse&gt;" class="cls-9" cx="18.06" cy="24.19" rx="1" ry="0.6"/><ellipse id="_Ellipse_3" data-name="&lt;Ellipse&gt;" class="cls-9" cx="29.94" cy="24.19" rx="1" ry="0.6"/><path id="_Rectangle_4" data-name="&lt;Rectangle&gt;" class="cls-15" d="M24,4.36h0a9.82,9.82,0,0,1,9.82,9.82v.19a0,0,0,0,1,0,0H14.18a0,0,0,0,1,0,0v-.19A9.82,9.82,0,0,1,24,4.36Z"/><path id="_Path_11" data-name="&lt;Path&gt;" class="cls-16" d="M24,4.36h0a9.83,9.83,0,0,0-9.82,9.83v.18h.3A9.81,9.81,0,0,1,24,6.91h0a9.81,9.81,0,0,1,9.52,7.46h.3v-.18A9.83,9.83,0,0,0,24,4.36Z"/><path id="_Rectangle_5" data-name="&lt;Rectangle&gt;" class="cls-4" d="M24,4.36h0a9.82,9.82,0,0,1,9.82,9.82v.19a0,0,0,0,1,0,0H14.18a0,0,0,0,1,0,0v-.19A9.82,9.82,0,0,1,24,4.36Z"/><path id="_Path_12" data-name="&lt;Path&gt;" class="cls-15" d="M24,9.37c-10,0-18.13,3.14-18.13,7,0,2.33,2.94,4.38,7.43,5.66a1.77,1.77,0,0,1,.88-2.39V18.12h0c0-1.91,4.4-3.46,9.82-3.46s9.82,1.55,9.82,3.46v1.61a1.75,1.75,0,0,1,1,1.39,1.8,1.8,0,0,1-.17.93c4.49-1.28,7.43-3.33,7.43-5.66C42.13,12.51,34,9.37,24,9.37Z"/><path id="_Path_13" data-name="&lt;Path&gt;" class="cls-16" d="M24,9.37c-10,0-18.13,3.14-18.13,7,0,1.89,1.93,3.59,5.05,4.85a3.4,3.4,0,0,1-1.63-2.6c0-3.15,6.59-5.7,14.71-5.7s14.71,2.55,14.71,5.7a3.4,3.4,0,0,1-1.63,2.6c3.12-1.26,5.05-3,5.05-4.85C42.13,12.51,34,9.37,24,9.37Z"/><path id="_Path_14" data-name="&lt;Path&gt;" class="cls-4" d="M24,9.37c-10,0-18.13,3.14-18.13,7,0,2.33,2.94,4.38,7.43,5.66a1.77,1.77,0,0,1,.88-2.39V18.12h0c0-1.91,4.4-3.46,9.82-3.46s9.82,1.55,9.82,3.46v1.61a1.75,1.75,0,0,1,1,1.39,1.8,1.8,0,0,1-.17.93c4.49-1.28,7.43-3.33,7.43-5.66C42.13,12.51,34,9.37,24,9.37Z"/><rect id="_Rectangle_6" data-name="&lt;Rectangle&gt;" class="cls-17" x="38.09" y="34.21" width="2.33" height="10.79"/><path id="_Path_15" data-name="&lt;Path&gt;" class="cls-18" d="M43.93,18.37h0a.93.93,0,0,0-.93.93v7.82a1.82,1.82,0,0,1-1.81,1.82h-1V19.3a.93.93,0,1,0-1.86,0v9.64h-1a1.82,1.82,0,0,1-1.81-1.82V19.3a.93.93,0,0,0-.93-.93h0a.93.93,0,0,0-.93.93v7.5a4,4,0,0,0,4,4h.69v3.41h1.86V30.8h.67a4,4,0,0,0,4-4V19.3A.93.93,0,0,0,43.93,18.37Z"/><path id="_Rectangle_7" data-name="&lt;Rectangle&gt;" class="cls-8" d="M36.55,36.73h0a1.54,1.54,0,0,1,1.54,1.54V45a0,0,0,0,1,0,0h0a2.34,2.34,0,0,1-2.34-2.34V37.52a.79.79,0,0,1,.79-.79Z"/><path id="_Path_16" data-name="&lt;Path&gt;" class="cls-19" d="M36.55,36.73a.79.79,0,0,0-.79.79v1.92a.79.79,0,0,1,.79-.79,1.54,1.54,0,0,1,1.54,1.54V38.27A1.54,1.54,0,0,0,36.55,36.73Z"/><path id="_Rectangle_8" data-name="&lt;Rectangle&gt;" class="cls-4" d="M36.55,36.73h0a1.54,1.54,0,0,1,1.54,1.54V45a0,0,0,0,1,0,0h0a2.34,2.34,0,0,1-2.34-2.34V37.52a.79.79,0,0,1,.79-.79Z"/><path id="_Path_17" data-name="&lt;Path&gt;" class="cls-8" d="M40.68,38.11h-2a1.15,1.15,0,0,0-.06,2.29,1.15,1.15,0,0,0,.06,2.29,1.16,1.16,0,0,0,0,2.31h2a2.19,2.19,0,0,0,2.19-2.19V40.3a2.19,2.19,0,0,0-2.19-2.19Z"/><g id="_Group_9" data-name="&lt;Group&gt;"><path id="_Path_18" data-name="&lt;Path&gt;" class="cls-19" d="M40.68,38.11h-2a1.15,1.15,0,0,0-1.15,1.15,1.13,1.13,0,0,0,.18.57,1.13,1.13,0,0,1,1-.58h2a2.19,2.19,0,0,1,2.19,2.19V40.3A2.19,2.19,0,0,0,40.68,38.11Z"/></g><path id="_Path_19" data-name="&lt;Path&gt;" class="cls-4" d="M40.68,38.11h-2a1.15,1.15,0,0,0-.06,2.29,1.15,1.15,0,0,0,.06,2.29,1.16,1.16,0,0,0,0,2.31h2a2.19,2.19,0,0,0,2.19-2.19V40.3a2.19,2.19,0,0,0-2.19-2.19Z"/><line id="_Path_20" data-name="&lt;Path&gt;" class="cls-4" x1="38.62" y1="40.4" x2="40.2" y2="40.4"/><line id="_Path_21" data-name="&lt;Path&gt;" class="cls-4" x1="38.68" y1="42.69" x2="40.2" y2="42.69"/></svg>