<svg id="Icons" xmlns="http://www.w3.org/2000/svg" viewBox="0 0 48 48"><defs><style>.cls-1{fill:#724f3d;}.cls-2{fill:#a86c4d;}.cls-3{fill:none;}.cls-12,.cls-13,.cls-3,.cls-7,.cls-8,.cls-9{stroke:#45413c;stroke-linecap:round;stroke-linejoin:round;}.cls-13,.cls-4{fill:#45413c;}.cls-4{opacity:0.15;}.cls-5{fill:#4acfff;}.cls-6{fill:#00b8f0;}.cls-7{fill:#009fd9;}.cls-8{fill:#fff;}.cls-9{fill:#f0f0f0;}.cls-10,.cls-12{fill:#ffe500;}.cls-11{fill:#ebcb00;}.cls-14{fill:#ff6242;}.cls-15{fill:#ffa694;}.cls-16{fill:#ffaa54;}</style></defs><title>155-woman-office-worker-1</title><path id="_Path_" data-name="&lt;Path&gt;" class="cls-1" d="M24,6.31A10.88,10.88,0,0,1,34.88,17.19V31.38a1.24,1.24,0,0,1-.77,1.14h0a27.18,27.18,0,0,1-20.22,0h0a1.24,1.24,0,0,1-.77-1.14V17.19A10.88,10.88,0,0,1,24,6.31Z"/><path id="_Path_2" data-name="&lt;Path&gt;" class="cls-2" d="M24,6.31A10.88,10.88,0,0,0,13.12,17.19v3a10.88,10.88,0,0,1,21.76,0v-3A10.88,10.88,0,0,0,24,6.31Z"/><path id="_Path_3" data-name="&lt;Path&gt;" class="cls-3" d="M24,6.31A10.88,10.88,0,0,1,34.88,17.19V31.38a1.24,1.24,0,0,1-.77,1.14h0a27.18,27.18,0,0,1-20.22,0h0a1.24,1.24,0,0,1-.77-1.14V17.19A10.88,10.88,0,0,1,24,6.31Z"/><ellipse id="_Ellipse_" data-name="&lt;Ellipse&gt;" class="cls-4" cx="23.98" cy="45.5" rx="13.5" ry="1.5"/><path class="cls-5" d="M31.54,32.84,24,30l-7.54,2.87a6.76,6.76,0,0,0-4.35,6.31V45H35.89V39.15A6.76,6.76,0,0,0,31.54,32.84Z"/><path class="cls-6" d="M31.54,32.84,24,30l-7.54,2.87a6.76,6.76,0,0,0-4.35,6.31v3a6.76,6.76,0,0,1,4.35-6.31L24,33l7.54,2.87a6.76,6.76,0,0,1,4.35,6.31v-3A6.76,6.76,0,0,0,31.54,32.84Z"/><path class="cls-3" d="M31.54,32.84,24,30l-7.54,2.87a6.76,6.76,0,0,0-4.35,6.31V45H35.89V39.15A6.76,6.76,0,0,0,31.54,32.84Z"/><polygon class="cls-7" points="17.43 32.47 15.53 36.84 17.96 37.78 16.46 39.09 18.96 45 21.28 45 18.63 32.01 17.43 32.47"/><polygon class="cls-8" points="24 29.97 18.63 32.01 21.28 45 26.72 45 29.37 32.01 24 29.97"/><polygon class="cls-7" points="17.43 32.47 15.53 36.84 17.96 37.78 16.46 39.09 18.96 45 21.74 45 20.4 31.34 17.43 32.47"/><polygon class="cls-7" points="30.57 32.47 32.47 36.84 30.04 37.78 31.54 39.09 29.04 45 26.26 45 27.6 31.34 30.57 32.47"/><path class="cls-9" d="M24,30S19,30,19,32.82a9.94,9.94,0,0,0,2.16,5.77L24,36.16l2.89,2.43a9.94,9.94,0,0,0,2.16-5.77C29.05,30,24,30,24,30Z"/><path class="cls-10" d="M24,27.17a2.54,2.54,0,0,0-2.54,2.55v2.85c0,1.4,2.54,3.59,2.54,3.59s2.54-2.19,2.54-3.59V29.72A2.54,2.54,0,0,0,24,27.17Z"/><path id="_Path_4" data-name="&lt;Path&gt;" class="cls-11" d="M24,27.17a2.54,2.54,0,0,0-2.54,2.54v.6a2.54,2.54,0,0,0,5.08,0v-.59A2.54,2.54,0,0,0,24,27.17Z"/><path class="cls-3" d="M24,27.17a2.54,2.54,0,0,0-2.54,2.55v2.85c0,1.4,2.54,3.59,2.54,3.59s2.54-2.19,2.54-3.59V29.72A2.54,2.54,0,0,0,24,27.17Z"/><g id="_Group_" data-name="&lt;Group&gt;"><path id="_Path_5" data-name="&lt;Path&gt;" class="cls-12" d="M33.07,19.46a8.72,8.72,0,0,1-5.68-5L26.77,13a15.9,15.9,0,0,1-9.95,6.17l-1.89.34a1.82,1.82,0,0,0,0,3.63h.12a9,9,0,0,0,17.9,0h.12a1.82,1.82,0,0,0,0-3.63Z"/></g><path id="_Path_6" data-name="&lt;Path&gt;" class="cls-13" d="M18.57,20.91a.77.77,0,0,0,1.54,0,.77.77,0,1,0-1.54,0Z"/><path id="_Path_7" data-name="&lt;Path&gt;" class="cls-13" d="M29.43,20.91a.77.77,0,0,1-1.54,0,.77.77,0,1,1,1.54,0Z"/><g id="_Group_2" data-name="&lt;Group&gt;"><g id="_Group_3" data-name="&lt;Group&gt;"><g id="_Group_4" data-name="&lt;Group&gt;"><g id="_Group_5" data-name="&lt;Group&gt;"><g id="_Group_6" data-name="&lt;Group&gt;"><g id="_Group_7" data-name="&lt;Group&gt;"><path id="_Path_8" data-name="&lt;Path&gt;" class="cls-14" d="M21.16,25.6a.46.46,0,0,0-.33.15.43.43,0,0,0-.1.36,3.32,3.32,0,0,0,6.54,0,.43.43,0,0,0-.1-.36.45.45,0,0,0-.33-.15Z"/><path id="_Path_9" data-name="&lt;Path&gt;" class="cls-15" d="M24,27a4.11,4.11,0,0,0-2.52.77,3.34,3.34,0,0,0,5,0A4.11,4.11,0,0,0,24,27Z"/></g></g></g></g></g></g><path id="_Path_10" data-name="&lt;Path&gt;" class="cls-3" d="M21.16,25.6a.46.46,0,0,0-.33.15.43.43,0,0,0-.1.36,3.32,3.32,0,0,0,6.54,0,.43.43,0,0,0-.1-.36.45.45,0,0,0-.33-.15Z"/><ellipse id="_Ellipse_2" data-name="&lt;Ellipse&gt;" class="cls-16" cx="18.06" cy="24.19" rx="1" ry="0.6"/><ellipse id="_Ellipse_3" data-name="&lt;Ellipse&gt;" class="cls-16" cx="29.94" cy="24.19" rx="1" ry="0.6"/></svg>