<svg id="Icons" xmlns="http://www.w3.org/2000/svg" viewBox="0 0 48 48"><defs><style>.cls-1,.cls-24{fill:#45413c;}.cls-1{opacity:0.15;}.cls-2{fill:#fff;}.cls-3{fill:#e0e0e0;}.cls-4{fill:none;}.cls-13,.cls-16,.cls-19,.cls-24,.cls-4,.cls-5,.cls-6{stroke:#45413c;stroke-linecap:round;stroke-linejoin:round;}.cls-5{fill:#f0f0f0;}.cls-14,.cls-6{fill:#00dba8;}.cls-19,.cls-7{fill:#ffcebf;}.cls-8{fill:#ffb59e;}.cls-13,.cls-9{fill:#80ddff;}.cls-10{fill:#b8ecff;}.cls-11{fill:#ff6196;}.cls-12{fill:#ff87af;}.cls-15{fill:#00f5bc;}.cls-16{fill:#e5feff;}.cls-17{fill:#a86c4d;}.cls-18{fill:#de926a;}.cls-20{fill:#ff6242;}.cls-21{fill:#ffa694;}.cls-22{fill:#00b8f0;}.cls-23{fill:#4acfff;}</style></defs><title>158-man-scientist-2</title><ellipse id="_Ellipse_" data-name="&lt;Ellipse&gt;" class="cls-1" cx="24" cy="45.5" rx="15" ry="1.5"/><path id="_Rectangle_" data-name="&lt;Rectangle&gt;" class="cls-2" d="M24,31.22h0A11.88,11.88,0,0,1,35.88,43.1V45a0,0,0,0,1,0,0H12.12a0,0,0,0,1,0,0V43.1A11.88,11.88,0,0,1,24,31.22Z"/><path id="_Path_" data-name="&lt;Path&gt;" class="cls-3" d="M24,31.22A11.88,11.88,0,0,0,12.12,43.1V45h.06a11.87,11.87,0,0,1,23.64,0h.06V43.1A11.88,11.88,0,0,0,24,31.22Z"/><path id="_Rectangle_2" data-name="&lt;Rectangle&gt;" class="cls-4" d="M24,31.22h0A11.88,11.88,0,0,1,35.88,43.1V45a0,0,0,0,1,0,0H12.12a0,0,0,0,1,0,0V43.1A11.88,11.88,0,0,1,24,31.22Z"/><path class="cls-5" d="M30.67,33.26S28.76,30.41,24,30.41s-6.67,2.85-6.67,2.85l2,1.85-.77,2.83L24,42.33l5.43-4.39-.77-2.83Z"/><path id="_Path_2" data-name="&lt;Path&gt;" class="cls-6" d="M26.54,32.57v1.82A5.49,5.49,0,0,1,24,39h0a5.49,5.49,0,0,1-2.54-4.65V32.57Z"/><rect id="_Rectangle_3" data-name="&lt;Rectangle&gt;" class="cls-7" x="21.46" y="27.17" width="5.09" height="7.94" rx="2.54" ry="2.54"/><path id="_Path_3" data-name="&lt;Path&gt;" class="cls-8" d="M24,27.17a2.54,2.54,0,0,0-2.54,2.54v.6a2.54,2.54,0,0,0,5.08,0v-.59A2.54,2.54,0,0,0,24,27.17Z"/><rect id="_Rectangle_4" data-name="&lt;Rectangle&gt;" class="cls-4" x="21.46" y="27.17" width="5.09" height="7.94" rx="2.54" ry="2.54"/><line id="_Path_4" data-name="&lt;Path&gt;" class="cls-4" x1="17.06" y1="45" x2="17.06" y2="42.59"/><line id="_Path_5" data-name="&lt;Path&gt;" class="cls-4" x1="30.94" y1="45" x2="30.94" y2="42.59"/><line id="_Path_6" data-name="&lt;Path&gt;" class="cls-4" x1="24" y1="39.04" x2="24" y2="45"/><path id="_Rectangle_5" data-name="&lt;Rectangle&gt;" class="cls-9" d="M35.8,28.65h4.73a0,0,0,0,1,0,0V44.33a2.36,2.36,0,0,1-2.36,2.36h0a2.36,2.36,0,0,1-2.36-2.36V28.65a0,0,0,0,1,0,0Z"/><path id="_Path_7" data-name="&lt;Path&gt;" class="cls-10" d="M40.53,29.13,35.8,35.91v8.42a2.37,2.37,0,0,0,4.73,0Z"/><path id="_Rectangle_6" data-name="&lt;Rectangle&gt;" class="cls-4" d="M35.8,28.65h4.73a0,0,0,0,1,0,0V44.33a2.36,2.36,0,0,1-2.36,2.36h0a2.36,2.36,0,0,1-2.36-2.36V28.65a0,0,0,0,1,0,0Z"/><path id="_Rectangle_7" data-name="&lt;Rectangle&gt;" class="cls-11" d="M35.8,32.39h4.73a0,0,0,0,1,0,0V44.33a2.36,2.36,0,0,1-2.36,2.36h0a2.36,2.36,0,0,1-2.36-2.36V32.39A0,0,0,0,1,35.8,32.39Z"/><path id="_Path_8" data-name="&lt;Path&gt;" class="cls-12" d="M35.8,35.91v8.42a2.37,2.37,0,0,0,4.73,0V32.39H38.26Z"/><path id="_Rectangle_8" data-name="&lt;Rectangle&gt;" class="cls-4" d="M35.8,32.39h4.73a0,0,0,0,1,0,0V44.33a2.36,2.36,0,0,1-2.36,2.36h0a2.36,2.36,0,0,1-2.36-2.36V32.39A0,0,0,0,1,35.8,32.39Z"/><rect id="_Rectangle_9" data-name="&lt;Rectangle&gt;" class="cls-13" x="35.03" y="26.72" width="6.27" height="1.92" rx="0.96" ry="0.96"/><rect id="_Rectangle_10" data-name="&lt;Rectangle&gt;" class="cls-14" x="38.36" y="34.97" width="4.33" height="2.31" rx="1.15" ry="1.15"/><path class="cls-15" d="M39.52,36.12h2a1.16,1.16,0,0,1,1,.58,1.15,1.15,0,0,0,.16-.58A1.16,1.16,0,0,0,41.54,35h-2a1.16,1.16,0,0,0-1.16,1.15,1.15,1.15,0,0,0,.16.58A1.16,1.16,0,0,1,39.52,36.12Z"/><rect id="_Rectangle_11" data-name="&lt;Rectangle&gt;" class="cls-4" x="38.36" y="34.97" width="4.33" height="2.31" rx="1.15" ry="1.15"/><rect id="_Rectangle_12" data-name="&lt;Rectangle&gt;" class="cls-6" x="38.36" y="37.28" width="4.33" height="2.31" rx="1.15" ry="1.15"/><rect id="_Rectangle_13" data-name="&lt;Rectangle&gt;" class="cls-6" x="38.36" y="39.58" width="4.33" height="2.31" rx="1.15" ry="1.15"/><path id="_Rectangle_14" data-name="&lt;Rectangle&gt;" class="cls-14" d="M34.26,33.53h0a1.54,1.54,0,0,1,1.54,1.54V41.8a0,0,0,0,1,0,0h0a2.34,2.34,0,0,1-2.34-2.34V34.33A.79.79,0,0,1,34.26,33.53Z"/><path id="_Path_9" data-name="&lt;Path&gt;" class="cls-15" d="M34.26,33.53a.79.79,0,0,0-.79.8v1.91a.79.79,0,0,1,.79-.79A1.54,1.54,0,0,1,35.8,37V35.08A1.54,1.54,0,0,0,34.26,33.53Z"/><path id="_Rectangle_15" data-name="&lt;Rectangle&gt;" class="cls-4" d="M34.26,33.53h0a1.54,1.54,0,0,1,1.54,1.54V41.8a0,0,0,0,1,0,0h0a2.34,2.34,0,0,1-2.34-2.34V34.33A.79.79,0,0,1,34.26,33.53Z"/><circle id="_Path_10" data-name="&lt;Path&gt;" class="cls-16" cx="37.68" cy="23.86" r="0.94"/><circle id="_Path_11" data-name="&lt;Path&gt;" class="cls-16" cx="37.43" cy="16.33" r="0.94"/><circle id="_Path_12" data-name="&lt;Path&gt;" class="cls-16" cx="40.53" cy="19.19" r="1.5"/><path id="_Path_13" data-name="&lt;Path&gt;" class="cls-17" d="M24,6.91a9.83,9.83,0,0,0-2.44.31c-1.86.42-4.28,1.12-6.47.7a4.2,4.2,0,0,0,.84,3.21,9.81,9.81,0,0,0-1.75,5.6v5.14H33.82V16.73A9.82,9.82,0,0,0,24,6.91Z"/><g id="_Group_" data-name="&lt;Group&gt;"><path id="_Path_14" data-name="&lt;Path&gt;" class="cls-18" d="M24,6.91a9.83,9.83,0,0,0-2.44.31c-1.86.42-4.28,1.12-6.47.7a4.47,4.47,0,0,0,.68,3,19.4,19.4,0,0,0,5.79-.79,9.81,9.81,0,0,1,12.26,9.51V16.73A9.82,9.82,0,0,0,24,6.91Z"/></g><path id="_Path_15" data-name="&lt;Path&gt;" class="cls-4" d="M24,6.91a9.83,9.83,0,0,0-2.44.31c-1.86.42-4.28,1.12-6.47.7a4.2,4.2,0,0,0,.84,3.21,9.81,9.81,0,0,0-1.75,5.6v5.14H33.82V16.73A9.82,9.82,0,0,0,24,6.91Z"/><path class="cls-19" d="M34.87,21.12a1.83,1.83,0,0,0-1.39-1.54l-.59-.16a2.06,2.06,0,0,1-1.5-2V15.38A1.88,1.88,0,0,0,30,13.57a15.34,15.34,0,0,1-6,1.09,15.34,15.34,0,0,1-6-1.09,1.88,1.88,0,0,0-1.4,1.81v2.06a2.06,2.06,0,0,1-1.5,2l-.59.16a1.83,1.83,0,0,0-1.39,1.54,1.81,1.81,0,0,0,1.81,2h.11a9,9,0,0,0,17.9,0h.11A1.81,1.81,0,0,0,34.87,21.12Z"/><g id="_Group_2" data-name="&lt;Group&gt;"><g id="_Group_3" data-name="&lt;Group&gt;"><g id="_Group_4" data-name="&lt;Group&gt;"><g id="_Group_5" data-name="&lt;Group&gt;"><g id="_Group_6" data-name="&lt;Group&gt;"><g id="_Group_7" data-name="&lt;Group&gt;"><g id="_Group_8" data-name="&lt;Group&gt;"><path id="_Path_16" data-name="&lt;Path&gt;" class="cls-20" d="M21.16,25.6a.44.44,0,0,0-.33.16.42.42,0,0,0-.1.35,3.32,3.32,0,0,0,6.54,0,.42.42,0,0,0-.1-.35.44.44,0,0,0-.33-.16Z"/><path id="_Path_17" data-name="&lt;Path&gt;" class="cls-21" d="M24,27a4,4,0,0,0-2.52.77,3.36,3.36,0,0,0,5,0A4,4,0,0,0,24,27Z"/></g></g></g></g></g></g></g><g id="_Group_9" data-name="&lt;Group&gt;"><path id="_Path_18" data-name="&lt;Path&gt;" class="cls-4" d="M21.16,25.6a.44.44,0,0,0-.33.16.42.42,0,0,0-.1.35,3.32,3.32,0,0,0,6.54,0,.42.42,0,0,0-.1-.35.44.44,0,0,0-.33-.16Z"/></g><ellipse id="_Ellipse_2" data-name="&lt;Ellipse&gt;" class="cls-8" cx="18.06" cy="24.79" rx="1" ry="0.6"/><ellipse id="_Ellipse_3" data-name="&lt;Ellipse&gt;" class="cls-8" cx="29.94" cy="24.79" rx="1" ry="0.6"/><path id="_Path_19" data-name="&lt;Path&gt;" class="cls-22" d="M16,19v3.55a1,1,0,0,0,.88,1l4.07.51a2.07,2.07,0,0,0,1.53-.42l.88-.67a1.14,1.14,0,0,1,1.38,0l.88.67a2.07,2.07,0,0,0,1.53.42l4.07-.51a1,1,0,0,0,.88-1V19a1,1,0,0,0-1-1H17A1,1,0,0,0,16,19Z"/><path id="_Path_20" data-name="&lt;Path&gt;" class="cls-23" d="M32.05,19a1,1,0,0,0-1-1H24.46l-4.17,6,.61.08a2.07,2.07,0,0,0,1.53-.42l.88-.67a1.14,1.14,0,0,1,1.38,0l.88.67a2.07,2.07,0,0,0,1.53.42l4.07-.51a1,1,0,0,0,.88-1Z"/><path id="_Path_21" data-name="&lt;Path&gt;" class="cls-4" d="M16,19v3.55a1,1,0,0,0,.88,1l4.07.51a2.07,2.07,0,0,0,1.53-.42l.88-.67a1.14,1.14,0,0,1,1.38,0l.88.67a2.07,2.07,0,0,0,1.53.42l4.07-.51a1,1,0,0,0,.88-1V19a1,1,0,0,0-1-1H17A1,1,0,0,0,16,19Z"/><path id="_Path_22" data-name="&lt;Path&gt;" class="cls-24" d="M18.82,20.91a.77.77,0,1,0,.77-.77A.76.76,0,0,0,18.82,20.91Z"/><path id="_Path_23" data-name="&lt;Path&gt;" class="cls-24" d="M29.18,20.91a.77.77,0,1,1-.77-.77A.76.76,0,0,1,29.18,20.91Z"/></svg>