<svg id="Icons" xmlns="http://www.w3.org/2000/svg" viewBox="0 0 48 48"><defs><style>.cls-1{fill:#525252;}.cls-1,.cls-11,.cls-12,.cls-5{stroke:#45413c;stroke-linecap:round;stroke-linejoin:round;}.cls-2{fill:#6dd627;}.cls-3{fill:#724f3d;}.cls-4{fill:#a86c4d;}.cls-5{fill:none;}.cls-12,.cls-6{fill:#45413c;}.cls-6{opacity:0.15;}.cls-7{fill:#ff87af;}.cls-8{fill:#ff6196;}.cls-11,.cls-9{fill:#ffe500;}.cls-10{fill:#ebcb00;}.cls-13{fill:#ff6242;}.cls-14{fill:#ffa694;}.cls-15{fill:#ffaa54;}.cls-16{fill:#adc4d9;}.cls-17{fill:#c0dceb;}.cls-18{fill:#fff;}</style></defs><title>163-woman-technologist-1</title><g id="_Group_" data-name="&lt;Group&gt;"><rect id="_Rectangle_" data-name="&lt;Rectangle&gt;" class="cls-1" x="4.67" y="4" width="38.67" height="25.21" rx="2" ry="2"/><rect id="_Rectangle_2" data-name="&lt;Rectangle&gt;" class="cls-2" x="7.56" y="6.59" width="8.73" height="2.67" rx="0.5" ry="0.5"/><rect id="_Rectangle_3" data-name="&lt;Rectangle&gt;" class="cls-2" x="17.62" y="6.59" width="17.41" height="2.67" rx="0.5" ry="0.5"/><rect id="_Rectangle_4" data-name="&lt;Rectangle&gt;" class="cls-2" x="36.02" y="6.59" width="4.42" height="2.67" rx="0.5" ry="0.5"/><rect id="_Rectangle_5" data-name="&lt;Rectangle&gt;" class="cls-2" x="7.56" y="10.93" width="2.11" height="2.67" rx="0.5" ry="0.5"/><rect id="_Rectangle_6" data-name="&lt;Rectangle&gt;" class="cls-2" x="11.07" y="10.93" width="9.04" height="2.67" rx="0.5" ry="0.5"/><rect id="_Rectangle_7" data-name="&lt;Rectangle&gt;" class="cls-2" x="21.46" y="10.93" width="4.52" height="2.67" rx="0.5" ry="0.5"/><rect id="_Rectangle_8" data-name="&lt;Rectangle&gt;" class="cls-2" x="27.17" y="10.93" width="13.26" height="2.67" rx="0.5" ry="0.5"/><rect id="_Rectangle_9" data-name="&lt;Rectangle&gt;" class="cls-2" x="7.42" y="15.27" width="10.06" height="2.67" rx="0.5" ry="0.5"/><rect id="_Rectangle_10" data-name="&lt;Rectangle&gt;" class="cls-2" x="18.57" y="15.27" width="21.87" height="2.67" rx="0.5" ry="0.5"/><rect id="_Rectangle_11" data-name="&lt;Rectangle&gt;" class="cls-2" x="7.42" y="19.61" width="6.76" height="2.67" rx="0.5" ry="0.5"/><rect id="_Rectangle_12" data-name="&lt;Rectangle&gt;" class="cls-2" x="15.68" y="19.61" width="15.26" height="2.67" rx="0.5" ry="0.5"/><rect id="_Rectangle_13" data-name="&lt;Rectangle&gt;" class="cls-2" x="32.18" y="19.61" width="2.65" height="2.67" rx="0.5" ry="0.5"/><rect id="_Rectangle_14" data-name="&lt;Rectangle&gt;" class="cls-2" x="36.02" y="19.61" width="4.42" height="2.67" rx="0.5" ry="0.5"/><rect id="_Rectangle_15" data-name="&lt;Rectangle&gt;" class="cls-2" x="7.42" y="23.95" width="24.76" height="2.67" rx="0.5" ry="0.5"/><rect id="_Rectangle_16" data-name="&lt;Rectangle&gt;" class="cls-2" x="33.5" y="23.95" width="6.94" height="2.67" rx="0.5" ry="0.5"/></g><path id="_Path_" data-name="&lt;Path&gt;" class="cls-3" d="M24,6.32A10.88,10.88,0,0,1,34.88,17.19v12a1.23,1.23,0,0,1-.77,1.14h0a27.09,27.09,0,0,1-20.22,0h0a1.23,1.23,0,0,1-.77-1.14v-12A10.88,10.88,0,0,1,24,6.32Z"/><path id="_Path_2" data-name="&lt;Path&gt;" class="cls-4" d="M24,6.32A10.88,10.88,0,0,0,13.12,17.19v3a10.88,10.88,0,0,1,21.76,0v-3A10.88,10.88,0,0,0,24,6.32Z"/><path id="_Path_3" data-name="&lt;Path&gt;" class="cls-5" d="M24,6.32A10.88,10.88,0,0,1,34.88,17.19v12a1.23,1.23,0,0,1-.77,1.14h0a27.09,27.09,0,0,1-20.22,0h0a1.23,1.23,0,0,1-.77-1.14v-12A10.88,10.88,0,0,1,24,6.32Z"/><ellipse id="_Ellipse_" data-name="&lt;Ellipse&gt;" class="cls-6" cx="24" cy="45.5" rx="15" ry="1.5"/><path id="_Rectangle_17" data-name="&lt;Rectangle&gt;" class="cls-7" d="M24,31.22h0A11.88,11.88,0,0,1,35.88,43.1V45a0,0,0,0,1,0,0H12.12a0,0,0,0,1,0,0V43.1A11.88,11.88,0,0,1,24,31.22Z"/><path id="_Path_4" data-name="&lt;Path&gt;" class="cls-8" d="M24,31.22h0A11.88,11.88,0,0,0,12.12,43.1V45h.13A11.88,11.88,0,0,1,24,34.8h0A11.88,11.88,0,0,1,35.75,45h.13V43.1A11.88,11.88,0,0,0,24,31.22Z"/><path id="_Rectangle_18" data-name="&lt;Rectangle&gt;" class="cls-5" d="M24,31.22h0A11.88,11.88,0,0,1,35.88,43.1V45a0,0,0,0,1,0,0H12.12a0,0,0,0,1,0,0V43.1A11.88,11.88,0,0,1,24,31.22Z"/><rect id="_Rectangle_19" data-name="&lt;Rectangle&gt;" class="cls-9" x="21.46" y="27.17" width="5.09" height="7.94" rx="2.54" ry="2.54"/><path id="_Path_5" data-name="&lt;Path&gt;" class="cls-10" d="M24,27.17a2.54,2.54,0,0,0-2.54,2.54v.6a2.54,2.54,0,0,0,5.08,0v-.59A2.54,2.54,0,0,0,24,27.17Z"/><rect id="_Rectangle_20" data-name="&lt;Rectangle&gt;" class="cls-5" x="21.46" y="27.17" width="5.09" height="7.94" rx="2.54" ry="2.54"/><line id="_Path_6" data-name="&lt;Path&gt;" class="cls-5" x1="17.06" y1="45" x2="17.06" y2="42.59"/><line id="_Path_7" data-name="&lt;Path&gt;" class="cls-5" x1="30.94" y1="45" x2="30.94" y2="42.59"/><g id="_Group_2" data-name="&lt;Group&gt;"><path id="_Path_8" data-name="&lt;Path&gt;" class="cls-11" d="M33.07,19.47a8.77,8.77,0,0,1-5.68-5L26.77,13a15.92,15.92,0,0,1-9.95,6.18l-1.88.34a1.81,1.81,0,1,0,0,3.62h.11a9,9,0,0,0,17.9,0h.12a1.81,1.81,0,1,0,0-3.62Z"/></g><path id="_Path_9" data-name="&lt;Path&gt;" class="cls-12" d="M18.57,20.91a.77.77,0,1,0,.77-.77A.76.76,0,0,0,18.57,20.91Z"/><path id="_Path_10" data-name="&lt;Path&gt;" class="cls-12" d="M29.43,20.91a.77.77,0,1,1-.77-.77A.76.76,0,0,1,29.43,20.91Z"/><g id="_Group_3" data-name="&lt;Group&gt;"><g id="_Group_4" data-name="&lt;Group&gt;"><g id="_Group_5" data-name="&lt;Group&gt;"><g id="_Group_6" data-name="&lt;Group&gt;"><g id="_Group_7" data-name="&lt;Group&gt;"><g id="_Group_8" data-name="&lt;Group&gt;"><g id="_Group_9" data-name="&lt;Group&gt;"><path id="_Path_11" data-name="&lt;Path&gt;" class="cls-13" d="M21.16,25.6a.44.44,0,0,0-.33.16.42.42,0,0,0-.1.35,3.32,3.32,0,0,0,6.54,0,.42.42,0,0,0-.1-.35.42.42,0,0,0-.33-.16Z"/><path id="_Path_12" data-name="&lt;Path&gt;" class="cls-14" d="M24,27a4,4,0,0,0-2.52.77,3.36,3.36,0,0,0,5,0A4,4,0,0,0,24,27Z"/></g></g></g></g></g></g></g><g id="_Group_10" data-name="&lt;Group&gt;"><path id="_Path_13" data-name="&lt;Path&gt;" class="cls-5" d="M21.16,25.6a.44.44,0,0,0-.33.16.42.42,0,0,0-.1.35,3.32,3.32,0,0,0,6.54,0,.42.42,0,0,0-.1-.35.42.42,0,0,0-.33-.16Z"/></g><ellipse id="_Ellipse_2" data-name="&lt;Ellipse&gt;" class="cls-15" cx="18.06" cy="24.19" rx="1" ry="0.6"/><ellipse id="_Ellipse_3" data-name="&lt;Ellipse&gt;" class="cls-15" cx="29.94" cy="24.19" rx="1" ry="0.6"/><path id="_Path_14" data-name="&lt;Path&gt;" class="cls-16" d="M32.52,45h-17a.76.76,0,0,1-.77-.62l-1.21-9.9a.73.73,0,0,1,.78-.77H33.72a.73.73,0,0,1,.78.77l-1.21,9.9A.76.76,0,0,1,32.52,45Z"/><path id="_Path_15" data-name="&lt;Path&gt;" class="cls-17" d="M14.28,36.94H33.72a.79.79,0,0,1,.46.15l.32-2.61a.73.73,0,0,0-.78-.77H14.28a.73.73,0,0,0-.78.77l.32,2.61A.79.79,0,0,1,14.28,36.94Z"/><path id="_Path_16" data-name="&lt;Path&gt;" class="cls-5" d="M32.52,45h-17a.76.76,0,0,1-.77-.62l-1.21-9.9a.73.73,0,0,1,.78-.77H33.72a.73.73,0,0,1,.78.77l-1.21,9.9A.76.76,0,0,1,32.52,45Z"/><path id="_Path_17" data-name="&lt;Path&gt;" class="cls-18" d="M25.19,39.36a1.43,1.43,0,0,1,.24-.85.65.65,0,0,0-.37-.24.81.81,0,0,0-.95.33.83.83,0,0,0-1-.33c-.5.1-.75.82-.57,1.59s.74,1.32,1.25,1.22a.7.7,0,0,0,.28-.15.61.61,0,0,0,.27.15c.41.08.85-.26,1.1-.8A1.33,1.33,0,0,1,25.19,39.36Z"/><ellipse id="_Path_18" data-name="&lt;Path&gt;" class="cls-18" cx="24.61" cy="37.65" rx="0.62" ry="0.24" transform="translate(-19.92 31.25) rotate(-48.65)"/></svg>