<svg id="Icons" xmlns="http://www.w3.org/2000/svg" viewBox="0 0 48 48"><defs><style>.cls-1,.cls-12{fill:#45413c;}.cls-1{opacity:0.15;}.cls-11,.cls-2{fill:#ffcebf;}.cls-3{fill:#ffb59e;}.cls-19,.cls-20,.cls-21,.cls-4{fill:none;}.cls-11,.cls-12,.cls-17,.cls-18,.cls-4,.cls-7,.cls-8{stroke:#45413c;}.cls-11,.cls-12,.cls-17,.cls-18,.cls-19,.cls-20,.cls-21,.cls-4,.cls-7,.cls-8{stroke-linecap:round;stroke-linejoin:round;}.cls-5{fill:#656769;}.cls-6,.cls-7{fill:#525252;}.cls-8{fill:#fff;}.cls-9{fill:#a86c4d;}.cls-10{fill:#de926a;}.cls-13{fill:#ff6242;}.cls-14{fill:#ffa694;}.cls-15{fill:#daedf7;}.cls-16{fill:#e8f4fa;}.cls-17{fill:#c0dceb;}.cls-18{fill:#87898c;}.cls-19{stroke:#48cf3e;}.cls-20{stroke:#ff4064;}.cls-21{stroke:#ffb700;}</style></defs><title>166-man-singer-2</title><ellipse id="_Ellipse_" data-name="&lt;Ellipse&gt;" class="cls-1" cx="23.98" cy="45.5" rx="13.5" ry="1.5"/><path class="cls-2" d="M24,27.17a2.54,2.54,0,0,0-2.54,2.55v2.85c0,1.4,2.54,3.59,2.54,3.59s2.54-2.19,2.54-3.59V29.72A2.54,2.54,0,0,0,24,27.17Z"/><path id="_Path_" data-name="&lt;Path&gt;" class="cls-3" d="M24,27.17a2.54,2.54,0,0,0-2.54,2.54v.6a2.54,2.54,0,0,0,5.08,0v-.59A2.54,2.54,0,0,0,24,27.17Z"/><path class="cls-4" d="M24,27.17a2.54,2.54,0,0,0-2.54,2.55v2.85c0,1.4,2.54,3.59,2.54,3.59s2.54-2.19,2.54-3.59V29.72A2.54,2.54,0,0,0,24,27.17Z"/><path class="cls-5" d="M31.54,32.84,24,30l-7.54,2.87a6.76,6.76,0,0,0-4.35,6.31V45H35.89V39.15A6.76,6.76,0,0,0,31.54,32.84Z"/><path class="cls-6" d="M31.54,32.84,24,30l-7.54,2.87a6.76,6.76,0,0,0-4.35,6.31v3a6.76,6.76,0,0,1,4.35-6.31L24,33l7.54,2.87a6.76,6.76,0,0,1,4.35,6.31v-3A6.76,6.76,0,0,0,31.54,32.84Z"/><path class="cls-4" d="M31.54,32.84,24,30l-7.54,2.87a6.76,6.76,0,0,0-4.35,6.31V45H35.89V39.15A6.76,6.76,0,0,0,31.54,32.84Z"/><polygon class="cls-7" points="17.43 32.47 15.53 36.84 17.96 37.78 16.46 39.09 18.96 45 21.28 45 18.63 32.01 17.43 32.47"/><polygon class="cls-7" points="30.57 32.47 32.47 36.84 30.04 37.78 31.54 39.09 29.04 45 26.72 45 29.37 32.01 30.57 32.47"/><polygon class="cls-8" points="24 29.97 18.63 32.01 21.28 45 26.72 45 29.37 32.01 24 29.97"/><path id="_Path_2" data-name="&lt;Path&gt;" class="cls-9" d="M24,6.91a9.83,9.83,0,0,0-2.44.31c-1.86.42-4.28,1.12-6.47.7a4.2,4.2,0,0,0,.84,3.21,9.81,9.81,0,0,0-1.75,5.6v5.14H33.82V16.73A9.82,9.82,0,0,0,24,6.91Z"/><g id="_Group_" data-name="&lt;Group&gt;"><path id="_Path_3" data-name="&lt;Path&gt;" class="cls-10" d="M24,6.91a9.83,9.83,0,0,0-2.44.31c-1.86.42-4.28,1.12-6.47.7a4.47,4.47,0,0,0,.68,3,19.4,19.4,0,0,0,5.79-.79,9.81,9.81,0,0,1,12.26,9.51V16.73A9.82,9.82,0,0,0,24,6.91Z"/></g><path id="_Path_4" data-name="&lt;Path&gt;" class="cls-4" d="M24,6.91a9.83,9.83,0,0,0-2.44.31c-1.86.42-4.28,1.12-6.47.7a4.2,4.2,0,0,0,.84,3.21,9.81,9.81,0,0,0-1.75,5.6v5.14H33.82V16.73A9.82,9.82,0,0,0,24,6.91Z"/><path class="cls-11" d="M34.87,21.12a1.83,1.83,0,0,0-1.39-1.54l-.59-.16a2.06,2.06,0,0,1-1.5-2V15.38A1.88,1.88,0,0,0,30,13.57a15.34,15.34,0,0,1-6,1.09,15.34,15.34,0,0,1-6-1.09,1.88,1.88,0,0,0-1.4,1.81v2.06a2.06,2.06,0,0,1-1.5,2l-.59.16a1.83,1.83,0,0,0-1.39,1.54,1.81,1.81,0,0,0,1.81,2h.11a9,9,0,0,0,17.9,0h.11A1.81,1.81,0,0,0,34.87,21.12Z"/><path id="_Path_5" data-name="&lt;Path&gt;" class="cls-12" d="M18.57,20.91a.77.77,0,1,0,.77-.77A.76.76,0,0,0,18.57,20.91Z"/><path id="_Path_6" data-name="&lt;Path&gt;" class="cls-12" d="M29.43,20.91a.77.77,0,1,1-.77-.77A.76.76,0,0,1,29.43,20.91Z"/><g id="_Group_2" data-name="&lt;Group&gt;"><g id="_Group_3" data-name="&lt;Group&gt;"><g id="_Group_4" data-name="&lt;Group&gt;"><g id="_Group_5" data-name="&lt;Group&gt;"><g id="_Group_6" data-name="&lt;Group&gt;"><g id="_Group_7" data-name="&lt;Group&gt;"><g id="_Group_8" data-name="&lt;Group&gt;"><path id="_Path_7" data-name="&lt;Path&gt;" class="cls-13" d="M21.16,25.6a.42.42,0,0,0-.33.16.42.42,0,0,0-.1.35,3.32,3.32,0,0,0,6.54,0,.42.42,0,0,0-.1-.35.44.44,0,0,0-.33-.16Z"/><path id="_Path_8" data-name="&lt;Path&gt;" class="cls-14" d="M24,27a4,4,0,0,0-2.52.77,3.36,3.36,0,0,0,5,0A4,4,0,0,0,24,27Z"/></g></g></g></g></g></g></g><g id="_Group_9" data-name="&lt;Group&gt;"><path id="_Path_9" data-name="&lt;Path&gt;" class="cls-4" d="M21.16,25.6a.42.42,0,0,0-.33.16.42.42,0,0,0-.1.35,3.32,3.32,0,0,0,6.54,0,.42.42,0,0,0-.1-.35.44.44,0,0,0-.33-.16Z"/></g><ellipse id="_Ellipse_2" data-name="&lt;Ellipse&gt;" class="cls-3" cx="18.06" cy="24.19" rx="1" ry="0.6"/><ellipse id="_Ellipse_3" data-name="&lt;Ellipse&gt;" class="cls-3" cx="29.94" cy="24.19" rx="1" ry="0.6"/><rect id="_Rectangle_" data-name="&lt;Rectangle&gt;" class="cls-15" x="21.09" y="30.45" width="5.81" height="8.13" rx="1.7" ry="1.7"/><path id="_Path_10" data-name="&lt;Path&gt;" class="cls-16" d="M25.2,30.45H22.8a1.71,1.71,0,0,0-1.71,1.7v1.72a1.71,1.71,0,0,1,1.71-1.7h2.4a1.71,1.71,0,0,1,1.71,1.7V32.15A1.71,1.71,0,0,0,25.2,30.45Z"/><rect id="_Rectangle_2" data-name="&lt;Rectangle&gt;" class="cls-4" x="21.09" y="30.45" width="5.81" height="8.13" rx="1.7" ry="1.7"/><line id="_Path_11" data-name="&lt;Path&gt;" class="cls-4" x1="25.32" y1="32.64" x2="26.91" y2="32.64"/><line id="_Path_12" data-name="&lt;Path&gt;" class="cls-4" x1="25.32" y1="34.51" x2="26.91" y2="34.51"/><line id="_Path_13" data-name="&lt;Path&gt;" class="cls-4" x1="25.32" y1="36.39" x2="26.91" y2="36.39"/><line id="_Path_14" data-name="&lt;Path&gt;" class="cls-4" x1="21.09" y1="32.64" x2="22.68" y2="32.64"/><line id="_Path_15" data-name="&lt;Path&gt;" class="cls-4" x1="21.09" y1="34.51" x2="22.68" y2="34.51"/><line id="_Path_16" data-name="&lt;Path&gt;" class="cls-4" x1="21.09" y1="36.39" x2="22.68" y2="36.39"/><path id="_Rectangle_3" data-name="&lt;Rectangle&gt;" class="cls-17" d="M22.17,38.57h3.67a0,0,0,0,1,0,0v1.1a.68.68,0,0,1-.68.68H22.85a.68.68,0,0,1-.68-.68v-1.1A0,0,0,0,1,22.17,38.57Z"/><rect id="_Rectangle_4" data-name="&lt;Rectangle&gt;" class="cls-18" x="23.07" y="40.36" width="1.86" height="4.64"/><g id="_Group_10" data-name="&lt;Group&gt;"><path id="_Path_17" data-name="&lt;Path&gt;" class="cls-19" d="M38.14,30.34a1.3,1.3,0,1,1-1.3-1.28A1.3,1.3,0,0,1,38.14,30.34Z"/><path id="_Path_18" data-name="&lt;Path&gt;" class="cls-19" d="M44.61,29A1.3,1.3,0,0,1,42,29a1.3,1.3,0,0,1,1.29-1.31A1.29,1.29,0,0,1,44.61,29Z"/><polyline id="_Path_19" data-name="&lt;Path&gt;" class="cls-19" points="38.14 30.34 38.1 24.51 44.56 21.86 44.62 29"/></g><g id="_Group_11" data-name="&lt;Group&gt;"><path id="_Path_20" data-name="&lt;Path&gt;" class="cls-20" d="M6.17,23.94a1.64,1.64,0,1,1-1.65-1.62A1.63,1.63,0,0,1,6.17,23.94Z"/><polyline id="_Path_21" data-name="&lt;Path&gt;" class="cls-20" points="6.17 23.94 6.11 16.57 8.58 18.19"/></g><g id="_Group_12" data-name="&lt;Group&gt;"><path id="_Path_22" data-name="&lt;Path&gt;" class="cls-21" d="M37.18,9.32a1.28,1.28,0,0,1-1.27,1.29,1.3,1.3,0,0,1-1.29-1.27,1.28,1.28,0,0,1,2.56,0Z"/><polyline id="_Path_23" data-name="&lt;Path&gt;" class="cls-21" points="37.18 9.32 37.14 3.56 39.07 4.82"/></g></svg>