<svg id="Icons" xmlns="http://www.w3.org/2000/svg" viewBox="0 0 48 48"><defs><style>.cls-1{fill:#a86c4d;}.cls-1,.cls-10,.cls-13,.cls-14,.cls-15,.cls-16,.cls-17,.cls-19,.cls-20,.cls-26,.cls-5{stroke:#45413c;stroke-linecap:round;stroke-linejoin:round;}.cls-2,.cls-20{fill:#45413c;}.cls-2{opacity:0.15;}.cls-3{fill:#fff;}.cls-4{fill:#f0f0f0;}.cls-5{fill:none;}.cls-10,.cls-6{fill:#00dba8;}.cls-7{fill:#00ad85;}.cls-19,.cls-8{fill:#ffcebf;}.cls-9{fill:#ffb59e;}.cls-11{fill:#debb7e;}.cls-12{fill:#f0d5a8;}.cls-13,.cls-21{fill:#ff6242;}.cls-14{fill:#ffe500;}.cls-15{fill:#daedf7;}.cls-16{fill:#bf8256;}.cls-17{fill:#fff5e3;}.cls-18{fill:#ffdcd1;}.cls-22{fill:#ffa694;}.cls-23{fill:#8ca4b8;}.cls-24,.cls-26{fill:#627b8c;}.cls-25{fill:#adc4d9;}</style></defs><title>172-woman-artist-2</title><path id="_Path_" data-name="&lt;Path&gt;" class="cls-1" d="M34.11,32.54h0a27.18,27.18,0,0,1-20.22,0h0a1.24,1.24,0,0,1-.77-1.14V17.21A10.88,10.88,0,0,1,24,6.33h0A10.88,10.88,0,0,1,34.88,17.21V31.4A1.23,1.23,0,0,1,34.11,32.54Z"/><ellipse id="_Ellipse_" data-name="&lt;Ellipse&gt;" class="cls-2" cx="23.34" cy="45.5" rx="17" ry="1.5"/><path id="_Rectangle_" data-name="&lt;Rectangle&gt;" class="cls-3" d="M24,31.22h0A11.88,11.88,0,0,1,35.88,43.1V45a0,0,0,0,1,0,0H12.12a0,0,0,0,1,0,0V43.1A11.88,11.88,0,0,1,24,31.22Z"/><path class="cls-4" d="M24,31.22A11.88,11.88,0,0,0,12.12,43.1V45h.11a11.88,11.88,0,0,1,23.54,0h.11V43.1A11.88,11.88,0,0,0,24,31.22Z"/><path id="_Rectangle_2" data-name="&lt;Rectangle&gt;" class="cls-5" d="M24,31.22h0A11.88,11.88,0,0,1,35.88,43.1V45a0,0,0,0,1,0,0H12.12a0,0,0,0,1,0,0V43.1A11.88,11.88,0,0,1,24,31.22Z"/><ellipse id="_Path_2" data-name="&lt;Path&gt;" class="cls-6" cx="24" cy="33.65" rx="4.71" ry="3.54"/><path id="_Path_3" data-name="&lt;Path&gt;" class="cls-7" d="M24,30.11a4.75,4.75,0,0,0-4.5,2.49A4.74,4.74,0,0,0,24,35.1a4.74,4.74,0,0,0,4.5-2.5A4.75,4.75,0,0,0,24,30.11Z"/><ellipse id="_Path_4" data-name="&lt;Path&gt;" class="cls-5" cx="24" cy="33.65" rx="4.71" ry="3.54"/><path class="cls-8" d="M24,27.16a2.54,2.54,0,0,0-2.54,2.55v2.84a2.54,2.54,0,1,0,5.08,0V29.71A2.54,2.54,0,0,0,24,27.16Z"/><path id="_Path_5" data-name="&lt;Path&gt;" class="cls-9" d="M24,27.16a2.54,2.54,0,0,0-2.54,2.54v.6a2.54,2.54,0,0,0,5.08,0v-.59A2.54,2.54,0,0,0,24,27.16Z"/><path class="cls-5" d="M24,27.16a2.54,2.54,0,0,0-2.54,2.55v2.84a2.54,2.54,0,1,0,5.08,0V29.71A2.54,2.54,0,0,0,24,27.16Z"/><line id="_Path_6" data-name="&lt;Path&gt;" class="cls-5" x1="17.06" y1="45" x2="17.06" y2="42.59"/><line id="_Path_7" data-name="&lt;Path&gt;" class="cls-5" x1="30.94" y1="45" x2="30.94" y2="42.58"/><path id="_Path_8" data-name="&lt;Path&gt;" class="cls-10" d="M26.1,37.08a4,4,0,0,0,2,1.44c1.3.36,2.14-.18,2.7.17-.82-2.26-2.76-3.43-4-2.86S26.1,37.08,26.1,37.08Z"/><path id="_Path_9" data-name="&lt;Path&gt;" class="cls-10" d="M25,37.12A4.71,4.71,0,0,0,24.61,40c.36,1.53,1.37,2.09,1.33,2.86,1.86-2.1,2-4.74.7-5.7S25,37.12,25,37.12Z"/><path id="_Path_10" data-name="&lt;Path&gt;" class="cls-10" d="M24,35.1a1.78,1.78,0,0,1,.81.83A4,4,0,0,1,25,37.12a2.29,2.29,0,0,0,1.85,0,1.78,1.78,0,0,0,.47-2.56C26.64,33.68,25.17,33.48,24,35.1Z"/><path id="_Path_11" data-name="&lt;Path&gt;" class="cls-11" d="M7.25,45S.6,37.42,6.33,36.55c6.21-.93,13,8.45,13,8.45Z"/><path id="_Path_12" data-name="&lt;Path&gt;" class="cls-12" d="M6.33,39.4c3.92-.59,8.05,2.92,10.57,5.6h2.39s-6.75-9.38-13-8.45c-2.54.39-2.65,2.08-2,3.86A2.73,2.73,0,0,1,6.33,39.4Z"/><path id="_Path_13" data-name="&lt;Path&gt;" class="cls-5" d="M7.25,45S.6,37.42,6.33,36.55c6.21-.93,13,8.45,13,8.45Z"/><ellipse id="_Path_14" data-name="&lt;Path&gt;" class="cls-13" cx="9" cy="39.33" rx="0.89" ry="1.71" transform="translate(-28.39 24.17) rotate(-55.03)"/><ellipse id="_Path_15" data-name="&lt;Path&gt;" class="cls-14" cx="13.61" cy="41.78" rx="0.89" ry="1.71" transform="translate(-28.42 28.99) rotate(-55.03)"/><polygon id="_Path_16" data-name="&lt;Path&gt;" class="cls-15" points="39.04 36.34 36.94 35.82 38.39 28.88 40.98 29.52 39.04 36.34"/><rect id="_Rectangle_3" data-name="&lt;Rectangle&gt;" class="cls-16" x="35.92" y="35.96" width="2.17" height="8.25" transform="translate(10.64 -7.68) rotate(13.81)"/><path id="_Path_17" data-name="&lt;Path&gt;" class="cls-17" d="M38.39,28.88c-.65-1.24.18-2.76,1.13-3.54a3.58,3.58,0,0,0,1.26-1.84,3.71,3.71,0,0,1,1.52,3.77A3.38,3.38,0,0,1,41,29.52Z"/><path id="_Path_18" data-name="&lt;Path&gt;" class="cls-13" d="M38.73,26.21a6.17,6.17,0,0,0,1.64.65,6.25,6.25,0,0,0,2,.17,3.75,3.75,0,0,0-1.57-3.53,3.58,3.58,0,0,1-1.26,1.84A3.91,3.91,0,0,0,38.73,26.21Z"/><path id="_Rectangle_4" data-name="&lt;Rectangle&gt;" class="cls-8" d="M34.22,36.24h0a1.54,1.54,0,0,1,1.54,1.54v6.73a0,0,0,0,1,0,0h0a2.34,2.34,0,0,1-2.34-2.34V37A.79.79,0,0,1,34.22,36.24Z" transform="translate(10.64 -7.09) rotate(13.81)"/><path id="_Path_19" data-name="&lt;Path&gt;" class="cls-18" d="M35.22,36.27a.78.78,0,0,0-1,.58l-.46,1.86a.79.79,0,0,1,1-.58A1.53,1.53,0,0,1,35.89,40l.46-1.86A1.54,1.54,0,0,0,35.22,36.27Z"/><path id="_Rectangle_5" data-name="&lt;Rectangle&gt;" class="cls-5" d="M34.22,36.24h0a1.54,1.54,0,0,1,1.54,1.54v6.73a0,0,0,0,1,0,0h0a2.34,2.34,0,0,1-2.34-2.34V37A.79.79,0,0,1,34.22,36.24Z" transform="translate(10.64 -7.09) rotate(13.81)"/><path id="_Path_20" data-name="&lt;Path&gt;" class="cls-8" d="M38.9,38.59,37,38.11a1.15,1.15,0,0,0-.6,2.22,1.15,1.15,0,0,0-.49,2.24,1.15,1.15,0,1,0-.55,2.24l1.93.47h0a2.19,2.19,0,0,0,2.65-1.6l.6-2.44a2.19,2.19,0,0,0-1.6-2.65Z"/><g id="_Group_" data-name="&lt;Group&gt;"><path id="_Path_21" data-name="&lt;Path&gt;" class="cls-18" d="M38.9,38.59,37,38.11a1.15,1.15,0,0,0-1.39.85,1.07,1.07,0,0,0,0,.59,1.15,1.15,0,0,1,1.09-.33l1.94.48a2.18,2.18,0,0,1,1.6,2.64l.27-1.1A2.19,2.19,0,0,0,38.9,38.59Z"/></g><path id="_Path_22" data-name="&lt;Path&gt;" class="cls-5" d="M38.9,38.59,37,38.11a1.15,1.15,0,0,0-.6,2.22,1.15,1.15,0,0,0-.49,2.24,1.15,1.15,0,1,0-.55,2.24l1.93.47h0a2.19,2.19,0,0,0,2.65-1.6l.6-2.44a2.19,2.19,0,0,0-1.6-2.65Z"/><g id="_Group_2" data-name="&lt;Group&gt;"><path id="_Path_23" data-name="&lt;Path&gt;" class="cls-19" d="M33.07,19.48a8.77,8.77,0,0,1-5.68-5L26.77,13a15.92,15.92,0,0,1-9.95,6.18l-1.88.34a1.82,1.82,0,1,0,0,3.63l.11,0a9.05,9.05,0,0,0,17.91,0l.11,0a1.82,1.82,0,0,0,0-3.63Z"/></g><path id="_Path_24" data-name="&lt;Path&gt;" class="cls-20" d="M18.57,20.92a.77.77,0,1,0,.77-.77A.77.77,0,0,0,18.57,20.92Z"/><path id="_Path_25" data-name="&lt;Path&gt;" class="cls-20" d="M29.44,20.92a.78.78,0,1,1-.78-.77A.78.78,0,0,1,29.44,20.92Z"/><g id="_Group_3" data-name="&lt;Group&gt;"><g id="_Group_4" data-name="&lt;Group&gt;"><g id="_Group_5" data-name="&lt;Group&gt;"><g id="_Group_6" data-name="&lt;Group&gt;"><g id="_Group_7" data-name="&lt;Group&gt;"><g id="_Group_8" data-name="&lt;Group&gt;"><g id="_Group_9" data-name="&lt;Group&gt;"><path id="_Path_26" data-name="&lt;Path&gt;" class="cls-21" d="M21.17,25.62a.45.45,0,0,0-.34.15.47.47,0,0,0-.1.36,3.32,3.32,0,0,0,6.55,0,.44.44,0,0,0-.11-.36.41.41,0,0,0-.33-.15Z"/><path id="_Path_27" data-name="&lt;Path&gt;" class="cls-22" d="M24,27a4,4,0,0,0-2.52.77,3.34,3.34,0,0,0,5,0A4,4,0,0,0,24,27Z"/></g></g></g></g></g></g></g><g id="_Group_10" data-name="&lt;Group&gt;"><path id="_Path_28" data-name="&lt;Path&gt;" class="cls-5" d="M21.17,25.62a.45.45,0,0,0-.34.15.47.47,0,0,0-.1.36,3.32,3.32,0,0,0,6.55,0,.44.44,0,0,0-.11-.36.41.41,0,0,0-.33-.15Z"/></g><ellipse id="_Ellipse_2" data-name="&lt;Ellipse&gt;" class="cls-9" cx="18.06" cy="24.21" rx="1" ry="0.6"/><ellipse id="_Ellipse_3" data-name="&lt;Ellipse&gt;" class="cls-9" cx="29.94" cy="24.21" rx="1" ry="0.6"/><path id="_Path_29" data-name="&lt;Path&gt;" class="cls-23" d="M13.21,16c0-1.06,4.85-1.92,10.82-1.92s10.82.86,10.82,1.92l-.35-3.84c0-1.05-4.68-1.91-10.47-1.91s-10.47.86-10.47,1.91Z"/><g id="_Group_11" data-name="&lt;Group&gt;"><path id="_Path_30" data-name="&lt;Path&gt;" class="cls-24" d="M13.22,15.94a.13.13,0,0,0,0,.06Z"/><path id="_Path_31" data-name="&lt;Path&gt;" class="cls-24" d="M24,10.25c-5.78,0-10.47.86-10.47,1.91l-.34,3.78c.17-1,4.94-1.86,10.81-1.86l1.68,0a20.52,20.52,0,0,0,5.68-3.3A43.73,43.73,0,0,0,24,10.25Z"/></g><path id="_Path_32" data-name="&lt;Path&gt;" class="cls-5" d="M13.21,16c0-1.06,4.85-1.92,10.82-1.92s10.82.86,10.82,1.92l-.35-3.84c0-1.05-4.68-1.91-10.47-1.91s-10.47.86-10.47,1.91Z"/><path id="_Path_33" data-name="&lt;Path&gt;" class="cls-23" d="M35.86,7.29C33.63,3.94,28,3.06,24,3.37A29.29,29.29,0,0,0,11,8.08c-1.83,1.3-2.46,2.6-1.93,3.39,1.12,2,7.07,2.47,16.18-1.21,5.19.11,9.22.92,9.22,1.9C34.5,12.16,37.82,10.25,35.86,7.29Z"/><path id="_Path_34" data-name="&lt;Path&gt;" class="cls-25" d="M9.5,12A7.1,7.1,0,0,1,11,10.55,29.17,29.17,0,0,1,24,5.84c4-.31,9.6.57,11.83,3.92a4.46,4.46,0,0,1,.33.6,2.94,2.94,0,0,0-.33-3.07C33.63,3.94,28,3.06,24,3.37A29.29,29.29,0,0,0,11,8.08c-1.83,1.3-2.46,2.6-1.93,3.39A2,2,0,0,0,9.5,12Z"/><path id="_Path_35" data-name="&lt;Path&gt;" class="cls-5" d="M35.86,7.29C33.63,3.94,28,3.06,24,3.37A29.29,29.29,0,0,0,11,8.08c-1.83,1.3-2.46,2.6-1.93,3.39,1.12,2,7.07,2.47,16.18-1.21,5.19.11,9.22.92,9.22,1.9C34.5,12.16,37.82,10.25,35.86,7.29Z"/><path id="_Path_36" data-name="&lt;Path&gt;" class="cls-5" d="M25.28,10.26c1.41-.57,2.89-1.23,4.44-2"/><ellipse id="_Path_37" data-name="&lt;Path&gt;" class="cls-26" cx="24.03" cy="3.37" rx="1.73" ry="1.09" transform="translate(-0.22 2.58) rotate(-6.11)"/></svg>