<svg id="Icons" xmlns="http://www.w3.org/2000/svg" viewBox="0 0 48 48"><defs><style>.cls-1{fill:#724f3d;}.cls-1,.cls-11,.cls-16,.cls-5,.cls-6,.cls-7,.cls-8{stroke:#45413c;stroke-linecap:round;stroke-linejoin:round;}.cls-11,.cls-2{fill:#45413c;}.cls-2{opacity:0.15;}.cls-3,.cls-7{fill:#656769;}.cls-16,.cls-4{fill:#525252;}.cls-5{fill:none;}.cls-6{fill:#fff;}.cls-8,.cls-9{fill:#ffe500;}.cls-10{fill:#ebcb00;}.cls-12{fill:#ff6242;}.cls-13{fill:#ffa694;}.cls-14{fill:#ffaa54;}.cls-15{fill:#87898c;}</style></defs><title>175-woman-pilot-1</title><path id="_Path_" data-name="&lt;Path&gt;" class="cls-1" d="M24,7.23A10.17,10.17,0,0,1,34.17,17.4V30.66a1.17,1.17,0,0,1-.72,1.07h0a25.41,25.41,0,0,1-18.9,0h0a1.17,1.17,0,0,1-.72-1.07V17.4A10.17,10.17,0,0,1,24,7.23Z"/><ellipse id="_Ellipse_" data-name="&lt;Ellipse&gt;" class="cls-2" cx="24" cy="45.5" rx="13.5" ry="1.5"/><path class="cls-3" d="M31.54,32.84,24,30l-7.54,2.87a6.76,6.76,0,0,0-4.35,6.31V45H35.89V39.15A6.76,6.76,0,0,0,31.54,32.84Z"/><path class="cls-4" d="M15.64,35.3l1.55-2.74-.73.28a6.76,6.76,0,0,0-4.35,6.31v3a6.73,6.73,0,0,1,4.35-6.3l.56-.22Z"/><path class="cls-4" d="M31.54,32.84l-.73-.28,1.55,2.74L31,35.64l.56.22a6.73,6.73,0,0,1,4.35,6.3v-3A6.76,6.76,0,0,0,31.54,32.84Z"/><path class="cls-5" d="M31.54,32.84,24,30l-7.54,2.87a6.76,6.76,0,0,0-4.35,6.31V45H35.89V39.15A6.76,6.76,0,0,0,31.54,32.84Z"/><polygon class="cls-5" points="30.23 35.83 32.36 35.3 30.81 32.56 24 29.97 17.19 32.56 15.64 35.3 17.77 35.83 17.05 38.05 21.92 45 26.08 45 30.95 38.05 30.23 35.83"/><polygon class="cls-6" points="24 36.16 21.11 38.59 21.92 45 26.08 45 26.89 38.59 24 36.16"/><path class="cls-6" d="M24,30S19,30,19,32.82a9.94,9.94,0,0,0,2.16,5.77L24,36.16l2.89,2.43a9.94,9.94,0,0,0,2.16-5.77C29.05,30,24,30,24,30Z"/><polygon class="cls-7" points="24 36.16 22.19 37.68 23.2 39.49 24.8 39.49 25.81 37.68 24 36.16"/><polygon class="cls-7" points="24.8 39.49 23.2 39.49 21.92 45 26.08 45 24.8 39.49"/><path id="_Path_2" data-name="&lt;Path&gt;" class="cls-8" d="M34.15,40.79H28.31l.42,1.3a.71.71,0,0,0,.66.53h3.69a.7.7,0,0,0,.65-.53Z"/><circle id="_Path_3" data-name="&lt;Path&gt;" class="cls-8" cx="31.23" cy="41.71" r="0.91"/><path class="cls-9" d="M24,27.17a2.54,2.54,0,0,0-2.54,2.55v2.85c0,1.4,2.54,3.59,2.54,3.59s2.54-2.19,2.54-3.59V29.72A2.54,2.54,0,0,0,24,27.17Z"/><path id="_Path_4" data-name="&lt;Path&gt;" class="cls-10" d="M24,27.17a2.54,2.54,0,0,0-2.54,2.54v.6a2.54,2.54,0,0,0,5.08,0v-.59A2.54,2.54,0,0,0,24,27.17Z"/><path class="cls-5" d="M24,27.17a2.54,2.54,0,0,0-2.54,2.55v2.85c0,1.4,2.54,3.59,2.54,3.59s2.54-2.19,2.54-3.59V29.72A2.54,2.54,0,0,0,24,27.17Z"/><g id="_Group_" data-name="&lt;Group&gt;"><path id="_Path_5" data-name="&lt;Path&gt;" class="cls-8" d="M33.06,19.46a8.72,8.72,0,0,1-5.67-5L26.77,13a15.9,15.9,0,0,1-9.95,6.17l-1.89.34a1.82,1.82,0,0,0,0,3.63h.12a9,9,0,0,0,17.9,0h.11a1.82,1.82,0,1,0,0-3.63Z"/></g><path id="_Path_6" data-name="&lt;Path&gt;" class="cls-11" d="M18.57,20.91a.77.77,0,0,0,1.54,0,.77.77,0,1,0-1.54,0Z"/><path id="_Path_7" data-name="&lt;Path&gt;" class="cls-11" d="M29.43,20.91a.77.77,0,0,1-1.54,0,.77.77,0,1,1,1.54,0Z"/><g id="_Group_2" data-name="&lt;Group&gt;"><g id="_Group_3" data-name="&lt;Group&gt;"><g id="_Group_4" data-name="&lt;Group&gt;"><g id="_Group_5" data-name="&lt;Group&gt;"><g id="_Group_6" data-name="&lt;Group&gt;"><g id="_Group_7" data-name="&lt;Group&gt;"><g id="_Group_8" data-name="&lt;Group&gt;"><path id="_Path_8" data-name="&lt;Path&gt;" class="cls-12" d="M21.16,25.6a.46.46,0,0,0-.33.15.43.43,0,0,0-.1.36,3.32,3.32,0,0,0,6.54,0,.43.43,0,0,0-.1-.36.46.46,0,0,0-.33-.15Z"/><path id="_Path_9" data-name="&lt;Path&gt;" class="cls-13" d="M24,27a4.11,4.11,0,0,0-2.52.77,3.34,3.34,0,0,0,5,0A4.11,4.11,0,0,0,24,27Z"/></g></g></g></g></g></g></g><g id="_Group_9" data-name="&lt;Group&gt;"><path id="_Path_10" data-name="&lt;Path&gt;" class="cls-5" d="M21.16,25.6a.46.46,0,0,0-.33.15.43.43,0,0,0-.1.36,3.32,3.32,0,0,0,6.54,0,.43.43,0,0,0-.1-.36.45.45,0,0,0-.33-.15Z"/></g><ellipse id="_Ellipse_2" data-name="&lt;Ellipse&gt;" class="cls-14" cx="18.06" cy="24.19" rx="1" ry="0.6"/><ellipse id="_Ellipse_3" data-name="&lt;Ellipse&gt;" class="cls-14" cx="29.94" cy="24.19" rx="1" ry="0.6"/><path id="_Path_11" data-name="&lt;Path&gt;" class="cls-7" d="M24,15.12a38.32,38.32,0,0,0-8.72.81c1.61,1.35.9,3,8.72,3s7.11-1.68,8.72-3A38.32,38.32,0,0,0,24,15.12Z"/><path id="_Path_12" data-name="&lt;Path&gt;" class="cls-3" d="M24,3.68c-6.21,0-11.88,4.91-11.88,7.84A3.63,3.63,0,0,0,14,14.36c.95-.77,5.07-1.35,10-1.35s9.07.58,10,1.35a3.63,3.63,0,0,0,1.86-2.84C35.88,8.59,30.21,3.68,24,3.68Z"/><path id="_Path_13" data-name="&lt;Path&gt;" class="cls-15" d="M24,6.13c5.37,0,10.34,3.68,11.58,6.57a2.52,2.52,0,0,0,.3-1.18c0-2.93-5.67-7.84-11.88-7.84S12.12,8.59,12.12,11.52a2.52,2.52,0,0,0,.3,1.18C13.66,9.81,18.63,6.13,24,6.13Z"/><path id="_Path_14" data-name="&lt;Path&gt;" class="cls-5" d="M24,3.68c-6.21,0-11.88,4.91-11.88,7.84A3.63,3.63,0,0,0,14,14.36c.95-.77,5.07-1.35,10-1.35s9.07.58,10,1.35a3.63,3.63,0,0,0,1.86-2.84C35.88,8.59,30.21,3.68,24,3.68Z"/><path id="_Path_15" data-name="&lt;Path&gt;" class="cls-8" d="M13.78,16.81c0-.93,4.57-1.69,10.22-1.69s10.22.76,10.22,1.69V14.7C34.22,13.77,29.65,13,24,13s-10.22.76-10.22,1.69Z"/><path id="_Path_16" data-name="&lt;Path&gt;" class="cls-16" d="M24,13c4.43,0,8.21.47,9.62,1.12C33.3,11.7,29.12,9.77,24,9.77s-9.3,1.93-9.62,4.36C15.79,13.48,19.57,13,24,13Z"/><path id="_Path_17" data-name="&lt;Path&gt;" class="cls-8" d="M27.64,8.86H20.36l.52,1.29a.87.87,0,0,0,.81.53h4.62a.87.87,0,0,0,.81-.53Z"/><path id="_Path_18" data-name="&lt;Path&gt;" class="cls-8" d="M28.66,7.05H19.34L20,8.34a1.17,1.17,0,0,0,1,.52H27a1.17,1.17,0,0,0,1-.52Z"/><path id="_Path_19" data-name="&lt;Path&gt;" class="cls-8" d="M25.51,9.17a1.51,1.51,0,0,1-1.9,1.46,1.55,1.55,0,0,1-1.12-1.52V8.56A1.51,1.51,0,0,1,24,7.05h0a1.51,1.51,0,0,1,1.51,1.51Z"/></svg>