<svg id="Icons" xmlns="http://www.w3.org/2000/svg" viewBox="0 0 48 48"><defs><style>.cls-1,.cls-7{fill:#45413c;}.cls-1{opacity:0.15;}.cls-2{fill:#fff;}.cls-3{fill:#e0e0e0;}.cls-4{fill:none;}.cls-13,.cls-14,.cls-4,.cls-5,.cls-6,.cls-7{stroke:#45413c;stroke-linecap:round;stroke-linejoin:round;}.cls-5{fill:#656769;}.cls-6{fill:#ffe500;}.cls-13,.cls-8{fill:#ff6242;}.cls-9{fill:#ffa694;}.cls-10{fill:#ffaa54;}.cls-11{fill:#00b8f0;}.cls-12{fill:#4acfff;}.cls-14{fill:#009fd9;}</style></defs><title>181-astronaut-1</title><ellipse id="_Ellipse_" data-name="&lt;Ellipse&gt;" class="cls-1" cx="24" cy="45.5" rx="15" ry="1.5"/><path class="cls-2" d="M32.74,32.84,24,30l-8.74,2.87a6.86,6.86,0,0,0-5,6.31V45H37.78V39.15A6.86,6.86,0,0,0,32.74,32.84Z"/><path class="cls-3" d="M32.74,32.84,24,30l-8.74,2.87a6.86,6.86,0,0,0-5,6.31v3a6.86,6.86,0,0,1,5-6.31L24,33l8.74,2.87a6.86,6.86,0,0,1,5,6.31v-3A6.86,6.86,0,0,0,32.74,32.84Z"/><path class="cls-4" d="M32.74,32.84,24,30l-8.74,2.87a6.86,6.86,0,0,0-5,6.31V45H37.78V39.15A6.86,6.86,0,0,0,32.74,32.84Z"/><ellipse id="_Path_" data-name="&lt;Path&gt;" class="cls-2" cx="24" cy="32.04" rx="9.1" ry="4.16"/><path id="_Path_2" data-name="&lt;Path&gt;" class="cls-3" d="M24,27.88c-4.48,0-8.2,1.48-8.95,3.43.75,1.95,4.47,3.43,9,3.43s8.2-1.48,9-3.43C32.2,29.36,28.48,27.88,24,27.88Z"/><ellipse id="_Path_3" data-name="&lt;Path&gt;" class="cls-4" cx="24" cy="32.04" rx="9.1" ry="4.16"/><line id="_Path_4" data-name="&lt;Path&gt;" class="cls-4" x1="32.21" y1="45" x2="32.21" y2="33.84"/><line id="_Path_5" data-name="&lt;Path&gt;" class="cls-4" x1="15.79" y1="45" x2="15.79" y2="33.84"/><path id="_Path_6" data-name="&lt;Path&gt;" class="cls-3" d="M38.49,16.24H37.6a13.92,13.92,0,0,0-27.2,0H9.51a1,1,0,0,0-1,1v3.92a1,1,0,0,0,1,1h.89a13.92,13.92,0,0,0,27.2,0h.89a1,1,0,0,0,1-1V17.24A1,1,0,0,0,38.49,16.24Z"/><path class="cls-2" d="M38.49,16.24H37.6a13.92,13.92,0,0,0-27.2,0H9.51a1,1,0,0,0-1,1v2.32a1,1,0,0,1,1-1,1.12,1.12,0,0,0,1.08-.82,13.92,13.92,0,0,1,26.8,0,1.12,1.12,0,0,0,1.08.82,1,1,0,0,1,1,1V17.24A1,1,0,0,0,38.49,16.24Z"/><path id="_Path_7" data-name="&lt;Path&gt;" class="cls-4" d="M38.49,16.24H37.6a13.92,13.92,0,0,0-27.2,0H9.51a1,1,0,0,0-1,1v3.92a1,1,0,0,0,1,1h.89a13.92,13.92,0,0,0,27.2,0h.89a1,1,0,0,0,1-1V17.24A1,1,0,0,0,38.49,16.24Z"/><circle id="_Path_8" data-name="&lt;Path&gt;" class="cls-5" cx="24" cy="19.2" r="11.6"/><path class="cls-6" d="M26.13,14.74H21.87a7,7,0,0,0-7,7A8.74,8.74,0,0,0,15,23.08a9.09,9.09,0,0,0,18,0,8.74,8.74,0,0,0,.11-1.37A7,7,0,0,0,26.13,14.74Z"/><path id="_Path_9" data-name="&lt;Path&gt;" class="cls-7" d="M18.57,20.91a.77.77,0,1,0,.77-.77A.76.76,0,0,0,18.57,20.91Z"/><path id="_Path_10" data-name="&lt;Path&gt;" class="cls-7" d="M29.43,20.91a.77.77,0,1,1-.77-.77A.76.76,0,0,1,29.43,20.91Z"/><g id="_Group_" data-name="&lt;Group&gt;"><g id="_Group_2" data-name="&lt;Group&gt;"><g id="_Group_3" data-name="&lt;Group&gt;"><g id="_Group_4" data-name="&lt;Group&gt;"><g id="_Group_5" data-name="&lt;Group&gt;"><g id="_Group_6" data-name="&lt;Group&gt;"><g id="_Group_7" data-name="&lt;Group&gt;"><path id="_Path_11" data-name="&lt;Path&gt;" class="cls-8" d="M21.16,25.6a.44.44,0,0,0-.33.16.41.41,0,0,0-.1.35,3.32,3.32,0,0,0,6.54,0,.41.41,0,0,0-.1-.35.44.44,0,0,0-.33-.16Z"/><path id="_Path_12" data-name="&lt;Path&gt;" class="cls-9" d="M24,27a4,4,0,0,0-2.52.77,3.36,3.36,0,0,0,5,0A4,4,0,0,0,24,27Z"/></g></g></g></g></g></g></g><g id="_Group_8" data-name="&lt;Group&gt;"><path id="_Path_13" data-name="&lt;Path&gt;" class="cls-4" d="M21.16,25.6a.44.44,0,0,0-.33.16.41.41,0,0,0-.1.35,3.32,3.32,0,0,0,6.54,0,.41.41,0,0,0-.1-.35.44.44,0,0,0-.33-.16Z"/></g><ellipse id="_Ellipse_2" data-name="&lt;Ellipse&gt;" class="cls-10" cx="18.06" cy="24.19" rx="1" ry="0.6"/><ellipse id="_Ellipse_3" data-name="&lt;Ellipse&gt;" class="cls-10" cx="29.94" cy="24.19" rx="1" ry="0.6"/><path class="cls-11" d="M24,7.6a11.61,11.61,0,0,0-11.36,9.23A29.46,29.46,0,0,1,24,14.74a29.46,29.46,0,0,1,11.36,2.09A11.61,11.61,0,0,0,24,7.6Z"/><path class="cls-12" d="M24,10.5c5.69,0,10.42,2.7,11.34,6.24a11.6,11.6,0,0,0-22.68,0C13.58,13.2,18.31,10.5,24,10.5Z"/><path class="cls-4" d="M24,7.6a11.61,11.61,0,0,0-11.36,9.23A29.46,29.46,0,0,1,24,14.74a29.46,29.46,0,0,1,11.36,2.09A11.61,11.61,0,0,0,24,7.6Z"/><rect id="_Rectangle_" data-name="&lt;Rectangle&gt;" class="cls-13" x="17.82" y="39.41" width="4.55" height="2.5"/><circle id="_Path_14" data-name="&lt;Path&gt;" class="cls-14" cx="28.92" cy="40.66" r="1.25"/></svg>