<svg id="Icons" xmlns="http://www.w3.org/2000/svg" viewBox="0 0 48 48"><defs><style>.cls-1,.cls-4{fill:#45413c;}.cls-1{opacity:0.15;}.cls-2{fill:#a86c4d;}.cls-11,.cls-14,.cls-2,.cls-3,.cls-4,.cls-7{stroke:#45413c;stroke-linecap:round;stroke-linejoin:round;}.cls-3{fill:#ffcebf;}.cls-5{fill:#ff6242;}.cls-6{fill:#ffa694;}.cls-7{fill:none;}.cls-8{fill:#ffb59e;}.cls-9{fill:#00b8f0;}.cls-10{fill:#4acfff;}.cls-11{fill:#009fd9;}.cls-12{fill:#525252;}.cls-13{fill:#656769;}.cls-14{fill:#ffe500;}</style></defs><title>188-man-police-officer-2</title><ellipse id="_Ellipse_" data-name="&lt;Ellipse&gt;" class="cls-1" cx="24" cy="44.49" rx="12.5" ry="1.5"/><g id="_Group_" data-name="&lt;Group&gt;"><path class="cls-2" d="M24,4.5A14.59,14.59,0,0,0,9.41,19.09v7.64H38.59V19.09A14.59,14.59,0,0,0,24,4.5Z"/><path class="cls-3" d="M40.15,25.62a2.73,2.73,0,0,0-2.07-2.3l-.87-.24A3,3,0,0,1,35,20.15V17.08A2.77,2.77,0,0,0,32.9,14.4,23,23,0,0,1,24,16a23,23,0,0,1-8.9-1.61A2.77,2.77,0,0,0,13,17.08v3.07a3,3,0,0,1-2.23,2.93l-.87.24a2.73,2.73,0,0,0-2.07,2.3,2.69,2.69,0,0,0,2.68,2.92h.17a13.45,13.45,0,0,0,26.6,0h.17A2.69,2.69,0,0,0,40.15,25.62Z"/><path id="_Path_" data-name="&lt;Path&gt;" class="cls-4" d="M15.93,25.3a1.15,1.15,0,1,0,1.14-1.15A1.15,1.15,0,0,0,15.93,25.3Z"/><path id="_Path_2" data-name="&lt;Path&gt;" class="cls-4" d="M32.07,25.3a1.15,1.15,0,1,1-1.14-1.15A1.15,1.15,0,0,1,32.07,25.3Z"/><g id="_Group_2" data-name="&lt;Group&gt;"><g id="_Group_3" data-name="&lt;Group&gt;"><path id="_Path_3" data-name="&lt;Path&gt;" class="cls-5" d="M20.31,32.58a.61.61,0,0,0-.44.2.56.56,0,0,0-.13.46,4.32,4.32,0,0,0,8.52,0,.56.56,0,0,0-.13-.46.57.57,0,0,0-.44-.2Z"/><path id="_Path_4" data-name="&lt;Path&gt;" class="cls-6" d="M24,34.36a5.3,5.3,0,0,0-3.29,1,4.38,4.38,0,0,0,6.58,0A5.3,5.3,0,0,0,24,34.36Z"/></g></g><g id="_Group_4" data-name="&lt;Group&gt;"><path id="_Path_5" data-name="&lt;Path&gt;" class="cls-7" d="M20.31,32.58a.61.61,0,0,0-.44.2.56.56,0,0,0-.13.46,4.32,4.32,0,0,0,8.52,0,.56.56,0,0,0-.13-.46.57.57,0,0,0-.44-.2Z"/></g><ellipse id="_Ellipse_2" data-name="&lt;Ellipse&gt;" class="cls-8" cx="15.18" cy="30.18" rx="1.49" ry="0.89"/><ellipse id="_Ellipse_3" data-name="&lt;Ellipse&gt;" class="cls-8" cx="32.82" cy="30.18" rx="1.49" ry="0.89"/></g><path id="_Path_6" data-name="&lt;Path&gt;" class="cls-9" d="M38.59,17.77S29.4,20.44,24,20.44,9.41,17.77,9.41,17.77L7.93,14.61a3,3,0,0,1,.89-3.67C11.89,8.63,18.19,4.5,24,4.5s12.11,4.13,15.18,6.44a3,3,0,0,1,.89,3.67Z"/><path id="_Path_7" data-name="&lt;Path&gt;" class="cls-10" d="M8,14.78a3,3,0,0,1,.82-1C11.89,11.5,18.19,7.37,24,7.37s12.11,4.13,15.18,6.45a3,3,0,0,1,.82,1l.07-.17a3,3,0,0,0-.89-3.67C36.11,8.63,29.81,4.5,24,4.5S11.89,8.63,8.82,10.94a3,3,0,0,0-.89,3.67Z"/><path id="_Path_8" data-name="&lt;Path&gt;" class="cls-7" d="M38.59,17.77S29.4,20.44,24,20.44,9.41,17.77,9.41,17.77L7.93,14.61a3,3,0,0,1,.89-3.67C11.89,8.63,18.19,4.5,24,4.5s12.11,4.13,15.18,6.44a3,3,0,0,1,.89,3.67Z"/><path class="cls-11" d="M24,13.31c-6.4,0-12,1.71-14.59,4.46,0,0,9.19,2.67,14.59,2.67s14.59-2.67,14.59-2.67C36,15,30.4,13.31,24,13.31Z"/><path id="_Path_9" data-name="&lt;Path&gt;" class="cls-12" d="M35.73,18.53S31.84,16.79,24,16.79s-11.73,1.74-11.73,1.74S13.81,22,24,22,35.73,18.53,35.73,18.53Z"/><path class="cls-13" d="M12.27,18.53a4.11,4.11,0,0,0,1.78,1.58A38.42,38.42,0,0,1,24,19a38.42,38.42,0,0,1,10,1.15,4.11,4.11,0,0,0,1.78-1.58S31.84,16.79,24,16.79,12.27,18.53,12.27,18.53Z"/><path id="_Path_10" data-name="&lt;Path&gt;" class="cls-7" d="M35.73,18.53S31.84,16.79,24,16.79s-11.73,1.74-11.73,1.74S13.81,22,24,22,35.73,18.53,35.73,18.53Z"/><path id="_Path_11" data-name="&lt;Path&gt;" class="cls-14" d="M24.38,8.31,24,8.1l-.38.21a2.51,2.51,0,0,1-2.28,0L20.9,8.1v3.42a3.65,3.65,0,0,0,3.1,3.4,3.65,3.65,0,0,0,3.1-3.4V8.1l-.44.23A2.51,2.51,0,0,1,24.38,8.31Z"/></svg>