<svg id="Icons" xmlns="http://www.w3.org/2000/svg" viewBox="0 0 48 48"><defs><style>.cls-1{fill:#a86c4d;}.cls-1,.cls-11,.cls-14,.cls-2,.cls-3,.cls-6{stroke:#45413c;stroke-linecap:round;stroke-linejoin:round;}.cls-2{fill:#ffcebf;}.cls-3,.cls-8{fill:#45413c;}.cls-4{fill:#ff6242;}.cls-5{fill:#ffa694;}.cls-6{fill:none;}.cls-7{fill:#ffb59e;}.cls-8{opacity:0.15;}.cls-9{fill:#00b8f0;}.cls-10{fill:#4acfff;}.cls-11{fill:#009fd9;}.cls-12{fill:#525252;}.cls-13{fill:#656769;}.cls-14{fill:#ffe500;}</style></defs><title>190-woman-police-officer-2</title><path id="_Path_" data-name="&lt;Path&gt;" class="cls-1" d="M24,3.59A16.16,16.16,0,0,0,7.84,19.75v17a2.21,2.21,0,0,1-2.57,2.42.5.5,0,0,0-.45.76c.67,1.13,2.35,3,6.18,3a10,10,0,0,0,8.13-3.87h9.74A10,10,0,0,0,37,42.93c3.83,0,5.51-1.85,6.18-3a.5.5,0,0,0-.45-.76,2.21,2.21,0,0,1-2.57-2.42v-17A16.16,16.16,0,0,0,24,3.59Z"/><g id="_Group_" data-name="&lt;Group&gt;"><path id="_Path_2" data-name="&lt;Path&gt;" class="cls-2" d="M37.47,23.16A13,13,0,0,1,29,15.69l-.93-2.21a23.62,23.62,0,0,1-14.78,9.18l-2.8.5a2.7,2.7,0,0,0,0,5.39h.17a13.45,13.45,0,0,0,26.6,0h.17a2.7,2.7,0,0,0,0-5.39Z"/></g><g id="_Group_2" data-name="&lt;Group&gt;"><path id="_Path_3" data-name="&lt;Path&gt;" class="cls-3" d="M15.93,25.31a1.15,1.15,0,1,0,1.14-1.15A1.15,1.15,0,0,0,15.93,25.31Z"/><path id="_Path_4" data-name="&lt;Path&gt;" class="cls-3" d="M32.07,25.31a1.15,1.15,0,1,1-1.14-1.15A1.15,1.15,0,0,1,32.07,25.31Z"/><g id="_Group_3" data-name="&lt;Group&gt;"><g id="_Group_4" data-name="&lt;Group&gt;"><path id="_Path_5" data-name="&lt;Path&gt;" class="cls-4" d="M20.31,32.59a.61.61,0,0,0-.44.2.57.57,0,0,0-.13.47,4.32,4.32,0,0,0,8.52,0,.57.57,0,0,0-.13-.47.61.61,0,0,0-.44-.2Z"/><path id="_Path_6" data-name="&lt;Path&gt;" class="cls-5" d="M24,34.37a5.3,5.3,0,0,0-3.29,1,4.38,4.38,0,0,0,6.58,0A5.3,5.3,0,0,0,24,34.37Z"/></g></g><g id="_Group_5" data-name="&lt;Group&gt;"><path id="_Path_7" data-name="&lt;Path&gt;" class="cls-6" d="M20.31,32.59a.61.61,0,0,0-.44.2.57.57,0,0,0-.13.47,4.32,4.32,0,0,0,8.52,0,.57.57,0,0,0-.13-.47.61.61,0,0,0-.44-.2Z"/></g><ellipse id="_Ellipse_" data-name="&lt;Ellipse&gt;" class="cls-7" cx="15.18" cy="30.19" rx="1.49" ry="0.89"/><ellipse id="_Ellipse_2" data-name="&lt;Ellipse&gt;" class="cls-7" cx="32.82" cy="30.19" rx="1.49" ry="0.89"/></g><ellipse id="_Ellipse_3" data-name="&lt;Ellipse&gt;" class="cls-8" cx="24" cy="44.5" rx="12.5" ry="1.5"/><path id="_Path_8" data-name="&lt;Path&gt;" class="cls-9" d="M40.2,18.24s-10.21,3-16.2,3-16.2-3-16.2-3L6.15,14.73a3.3,3.3,0,0,1,1-4.07C10.55,8.09,17.55,3.5,24,3.5s13.45,4.59,16.86,7.16a3.3,3.3,0,0,1,1,4.07Z"/><path id="_Path_9" data-name="&lt;Path&gt;" class="cls-10" d="M6.24,14.92a3.07,3.07,0,0,1,.9-1.07C10.55,11.28,17.55,6.69,24,6.69s13.45,4.59,16.86,7.16a3.21,3.21,0,0,1,.91,1.07l.08-.19a3.3,3.3,0,0,0-1-4.07C37.45,8.09,30.45,3.5,24,3.5S10.55,8.09,7.14,10.66a3.3,3.3,0,0,0-1,4.07Z"/><path id="_Path_10" data-name="&lt;Path&gt;" class="cls-6" d="M40.2,18.24s-10.21,3-16.2,3-16.2-3-16.2-3L6.15,14.73a3.3,3.3,0,0,1,1-4.07C10.55,8.09,17.55,3.5,24,3.5s13.45,4.59,16.86,7.16a3.3,3.3,0,0,1,1,4.07Z"/><path class="cls-11" d="M24,13.28c-7.1,0-13.29,1.9-16.2,5,0,0,10.21,3,16.2,3s16.2-3,16.2-3C37.29,15.18,31.1,13.28,24,13.28Z"/><path id="_Path_11" data-name="&lt;Path&gt;" class="cls-12" d="M37,19.08s-4.32-1.93-13-1.93-13,1.93-13,1.93,1.71,3.84,13,3.84S37,19.08,37,19.08Z"/><path class="cls-13" d="M11,19.08a4.57,4.57,0,0,0,2,1.76A42.45,42.45,0,0,1,24,19.56a42.45,42.45,0,0,1,11,1.28,4.57,4.57,0,0,0,2-1.76s-4.32-1.93-13-1.93S11,19.08,11,19.08Z"/><path id="_Path_12" data-name="&lt;Path&gt;" class="cls-6" d="M37,19.08s-4.32-1.93-13-1.93-13,1.93-13,1.93,1.71,3.84,13,3.84S37,19.08,37,19.08Z"/><path id="_Path_13" data-name="&lt;Path&gt;" class="cls-14" d="M24.42,7.73,24,7.5l-.42.23a2.73,2.73,0,0,1-2.53,0l-.5-.25v3.79A4.05,4.05,0,0,0,24,15.07a4.05,4.05,0,0,0,3.45-3.78V7.5l-.5.25A2.73,2.73,0,0,1,24.42,7.73Z"/></svg>