<svg id="Icons" xmlns="http://www.w3.org/2000/svg" viewBox="0 0 48 48"><defs><style>.cls-1,.cls-3{fill:#45413c;}.cls-1{opacity:0.15;}.cls-2{fill:#ffe500;}.cls-10,.cls-2,.cls-3,.cls-6{stroke:#45413c;stroke-linecap:round;stroke-linejoin:round;}.cls-4{fill:#ff6242;}.cls-5{fill:#ffa694;}.cls-6{fill:none;}.cls-7{fill:#ffaa54;}.cls-8{fill:#525252;}.cls-9{fill:#656769;}.cls-10{fill:#debb7e;}</style></defs><title>193-guard-1</title><ellipse id="_Ellipse_" data-name="&lt;Ellipse&gt;" class="cls-1" cx="24" cy="45.5" rx="12.5" ry="1.5"/><g id="_Group_" data-name="&lt;Group&gt;"><path class="cls-2" d="M39.17,32a2.56,2.56,0,0,0-1.94-2.15l-.82-.23a2.86,2.86,0,0,1-2.1-2.76V24a2.61,2.61,0,0,0-2-2.52A21.6,21.6,0,0,1,24,23a21.6,21.6,0,0,1-8.36-1.52,2.61,2.61,0,0,0-2,2.52v2.88a2.86,2.86,0,0,1-2.1,2.76l-.82.23a2.48,2.48,0,0,0,.58,4.9l.15,0a12.64,12.64,0,0,0,25,0l.15,0A2.53,2.53,0,0,0,39.17,32Z"/><path id="_Path_" data-name="&lt;Path&gt;" class="cls-3" d="M16.65,32.4a1.08,1.08,0,1,0,1.08-1.07A1.08,1.08,0,0,0,16.65,32.4Z"/><path id="_Path_2" data-name="&lt;Path&gt;" class="cls-3" d="M31.35,32.4a1.08,1.08,0,1,1-1.08-1.07A1.08,1.08,0,0,1,31.35,32.4Z"/><g id="_Group_2" data-name="&lt;Group&gt;"><g id="_Group_3" data-name="&lt;Group&gt;"><path id="_Path_3" data-name="&lt;Path&gt;" class="cls-4" d="M21,38.32a.48.48,0,0,0-.36.16.5.5,0,0,0-.11.39,3.56,3.56,0,0,0,7,0,.5.5,0,0,0-.11-.39.48.48,0,0,0-.36-.16Z"/><path id="_Path_4" data-name="&lt;Path&gt;" class="cls-5" d="M24,39.78a4.39,4.39,0,0,0-2.71.83,3.6,3.6,0,0,0,5.42,0A4.39,4.39,0,0,0,24,39.78Z"/></g></g><g id="_Group_4" data-name="&lt;Group&gt;"><path id="_Path_5" data-name="&lt;Path&gt;" class="cls-6" d="M21,38.32a.48.48,0,0,0-.36.16.5.5,0,0,0-.11.39,3.56,3.56,0,0,0,7,0,.5.5,0,0,0-.11-.39.48.48,0,0,0-.36-.16Z"/></g><ellipse id="_Ellipse_2" data-name="&lt;Ellipse&gt;" class="cls-7" cx="16.18" cy="36.29" rx="1.4" ry="0.84"/><ellipse id="_Ellipse_3" data-name="&lt;Ellipse&gt;" class="cls-7" cx="31.82" cy="36.29" rx="1.4" ry="0.84"/></g><path class="cls-8" d="M34.2,2.32A37.17,37.17,0,0,0,24,1,37.17,37.17,0,0,0,13.8,2.32,5.91,5.91,0,0,0,9.5,8V28.5a1,1,0,0,0,1,1h27a1,1,0,0,0,1-1V8A5.91,5.91,0,0,0,34.2,2.32Z"/><path class="cls-9" d="M34.2,2.32A37.17,37.17,0,0,0,24,1,37.17,37.17,0,0,0,13.8,2.32,5.91,5.91,0,0,0,9.5,8v4a5.91,5.91,0,0,1,4.3-5.68A37.17,37.17,0,0,1,24,5,37.17,37.17,0,0,1,34.2,6.32,5.91,5.91,0,0,1,38.5,12V8A5.91,5.91,0,0,0,34.2,2.32Z"/><path class="cls-6" d="M34.2,2.32A37.17,37.17,0,0,0,24,1,37.17,37.17,0,0,0,13.8,2.32,5.91,5.91,0,0,0,9.5,8V28.5a1,1,0,0,0,1,1h27a1,1,0,0,0,1-1V8A5.91,5.91,0,0,0,34.2,2.32Z"/><path class="cls-10" d="M34.69,29.5V33a10.69,10.69,0,0,1-21.38,0V29.5h-2v3.38a12.64,12.64,0,0,0,25.28,0V29.5Z"/></svg>