<svg id="Icons" xmlns="http://www.w3.org/2000/svg" viewBox="0 0 48 48"><defs><style>.cls-1,.cls-4{fill:#45413c;}.cls-1{opacity:0.15;}.cls-2{fill:#a86c4d;}.cls-12,.cls-2,.cls-3,.cls-4,.cls-7,.cls-9{stroke:#45413c;stroke-linecap:round;stroke-linejoin:round;}.cls-3{fill:#ffcebf;}.cls-5{fill:#ff6242;}.cls-6{fill:#ffa694;}.cls-7{fill:none;}.cls-8{fill:#ffb59e;}.cls-13,.cls-9{fill:#ffe500;}.cls-10{fill:#00dba8;}.cls-11{fill:#00f5bc;}.cls-12{fill:#ff87af;}.cls-14{fill:#fff48c;}</style></defs><title>197-prince-2</title><ellipse id="_Ellipse_" data-name="&lt;Ellipse&gt;" class="cls-1" cx="24" cy="45.5" rx="12.5" ry="1.5"/><g id="_Group_" data-name="&lt;Group&gt;"><g id="_Group_2" data-name="&lt;Group&gt;"><path class="cls-2" d="M24,7.76A14.59,14.59,0,0,0,9.41,22.35V30H38.59V22.35A14.59,14.59,0,0,0,24,7.76Z"/><path class="cls-3" d="M40.15,28.88a2.73,2.73,0,0,0-2.07-2.3l-.87-.24A3,3,0,0,1,35,23.41V20.34a2.77,2.77,0,0,0-2.08-2.68A23,23,0,0,1,24,19.27a23,23,0,0,1-8.9-1.61A2.77,2.77,0,0,0,13,20.34v3.07a3,3,0,0,1-2.23,2.93l-.87.24a2.73,2.73,0,0,0-2.07,2.3,2.69,2.69,0,0,0,2.68,2.92h.17a13.45,13.45,0,0,0,26.6,0h.17A2.69,2.69,0,0,0,40.15,28.88Z"/><path id="_Path_" data-name="&lt;Path&gt;" class="cls-4" d="M15.93,28.56a1.15,1.15,0,1,0,1.14-1.15A1.15,1.15,0,0,0,15.93,28.56Z"/><path id="_Path_2" data-name="&lt;Path&gt;" class="cls-4" d="M32.07,28.56a1.15,1.15,0,1,1-1.14-1.15A1.15,1.15,0,0,1,32.07,28.56Z"/><g id="_Group_3" data-name="&lt;Group&gt;"><g id="_Group_4" data-name="&lt;Group&gt;"><path id="_Path_3" data-name="&lt;Path&gt;" class="cls-5" d="M20.31,35.84a.61.61,0,0,0-.44.2.57.57,0,0,0-.13.47,4.32,4.32,0,0,0,8.52,0,.57.57,0,0,0-.13-.47.61.61,0,0,0-.44-.2Z"/><path id="_Path_4" data-name="&lt;Path&gt;" class="cls-6" d="M24,37.62a5.3,5.3,0,0,0-3.29,1,4.38,4.38,0,0,0,6.58,0A5.33,5.33,0,0,0,24,37.62Z"/></g></g><g id="_Group_5" data-name="&lt;Group&gt;"><path id="_Path_5" data-name="&lt;Path&gt;" class="cls-7" d="M20.31,35.84a.61.61,0,0,0-.44.2.57.57,0,0,0-.13.47,4.32,4.32,0,0,0,8.52,0,.57.57,0,0,0-.13-.47.61.61,0,0,0-.44-.2Z"/></g><ellipse id="_Ellipse_2" data-name="&lt;Ellipse&gt;" class="cls-8" cx="15.18" cy="33.44" rx="1.49" ry="0.89"/><ellipse id="_Ellipse_3" data-name="&lt;Ellipse&gt;" class="cls-8" cx="32.82" cy="33.44" rx="1.49" ry="0.89"/></g></g><g id="_Group_6" data-name="&lt;Group&gt;"><path class="cls-9" d="M38.92,11.93a2.18,2.18,0,0,1-4-.55L33.81,7l-2.14,3.53a2.8,2.8,0,0,1-5-.52L24,2.48,21.36,10a2.8,2.8,0,0,1-5,.52L14.19,7,13.1,11.38a2.18,2.18,0,0,1-4,.55L8.56,11l.55,9.48H38.89L39.44,11Z"/></g><circle id="_Path_6" data-name="&lt;Path&gt;" class="cls-9" cx="14.16" cy="6.42" r="1.19"/><circle id="_Path_7" data-name="&lt;Path&gt;" class="cls-9" cx="33.84" cy="6.42" r="1.19"/><circle id="_Path_8" data-name="&lt;Path&gt;" class="cls-9" cx="8.73" cy="11.29" r="1"/><circle id="_Path_9" data-name="&lt;Path&gt;" class="cls-9" cx="39.27" cy="11.29" r="1"/><ellipse id="_Path_10" data-name="&lt;Path&gt;" class="cls-10" cx="24" cy="13.27" rx="1.56" ry="2.22"/><path id="_Path_11" data-name="&lt;Path&gt;" class="cls-11" d="M24,12.82a1.65,1.65,0,0,1,1.43,1.33,3.12,3.12,0,0,0,.13-.88c0-1.23-.7-2.22-1.56-2.22s-1.56,1-1.56,2.22a3.12,3.12,0,0,0,.13.88A1.65,1.65,0,0,1,24,12.82Z"/><ellipse id="_Path_12" data-name="&lt;Path&gt;" class="cls-7" cx="24" cy="13.27" rx="1.56" ry="2.22"/><circle class="cls-9" cx="24" cy="2" r="1.5"/><circle id="_Path_13" data-name="&lt;Path&gt;" class="cls-12" cx="15.25" cy="14.46" r="1.19"/><circle id="_Path_14" data-name="&lt;Path&gt;" class="cls-12" cx="32.75" cy="14.46" r="1.19"/><path id="_Path_15" data-name="&lt;Path&gt;" class="cls-13" d="M38.9,20.51c0-1.86-6.67-3.38-14.9-3.38S9.1,18.65,9.1,20.51v3.37c0-1.86,6.67-3.37,14.9-3.37S38.9,22,38.9,23.88Z"/><path id="_Path_16" data-name="&lt;Path&gt;" class="cls-14" d="M24,17.13c-8.23,0-14.9,1.52-14.9,3.38v1.62c0-1.86,6.67-3.37,14.9-3.37s14.9,1.51,14.9,3.37V20.51C38.9,18.65,32.23,17.13,24,17.13Z"/><path id="_Path_17" data-name="&lt;Path&gt;" class="cls-7" d="M38.9,20.51c0-1.86-6.67-3.38-14.9-3.38S9.1,18.65,9.1,20.51v3.37c0-1.86,6.67-3.37,14.9-3.37S38.9,22,38.9,23.88Z"/></svg>