<svg id="Icons" xmlns="http://www.w3.org/2000/svg" viewBox="0 0 48 48"><defs><style>.cls-1,.cls-5{fill:#45413c;}.cls-1{opacity:0.15;}.cls-2{fill:#a86c4d;}.cls-3{fill:none;}.cls-3,.cls-4,.cls-5,.cls-9{stroke:#45413c;stroke-linecap:round;stroke-linejoin:round;}.cls-4{fill:#ffcebf;}.cls-6{fill:#ff6242;}.cls-7{fill:#ffa694;}.cls-8{fill:#ffb59e;}.cls-10,.cls-9{fill:#ffe500;}.cls-11{fill:#fff48c;}.cls-12{fill:#ff87af;}.cls-13{fill:#ffb0ca;}</style></defs><title>199-princess-2</title><ellipse id="_Ellipse_" data-name="&lt;Ellipse&gt;" class="cls-1" cx="24" cy="45.5" rx="18.5" ry="1.5"/><g id="_Group_" data-name="&lt;Group&gt;"><path id="_Path_" data-name="&lt;Path&gt;" class="cls-2" d="M28.88,41.47A10.06,10.06,0,0,0,37,45.35c3.83,0,5.51-1.85,6.18-3a.5.5,0,0,0-.45-.76,2.22,2.22,0,0,1-2.56-2.43h0v-17A16.21,16.21,0,0,0,24,5.93h0A16.21,16.21,0,0,0,7.8,22.13V39.18h0a2.22,2.22,0,0,1-2.56,2.43.5.5,0,0,0-.45.76c.67,1.13,2.35,3,6.18,3a10.06,10.06,0,0,0,8.15-3.88Z"/><path id="_Path_2" data-name="&lt;Path&gt;" class="cls-3" d="M28.88,41.47A10.06,10.06,0,0,0,37,45.35c3.83,0,5.51-1.85,6.18-3a.5.5,0,0,0-.45-.76,2.22,2.22,0,0,1-2.56-2.43h0v-17A16.21,16.21,0,0,0,24,5.93h0A16.21,16.21,0,0,0,7.8,22.13V39.18h0a2.22,2.22,0,0,1-2.56,2.43.5.5,0,0,0-.45.76c.67,1.13,2.35,3,6.18,3a10.06,10.06,0,0,0,8.15-3.88Z"/><g id="_Group_2" data-name="&lt;Group&gt;"><path id="_Path_3" data-name="&lt;Path&gt;" class="cls-4" d="M37.5,25.51A13,13,0,0,1,29.05,18l-.93-2.22A23.67,23.67,0,0,1,13.31,25l-2.81.5a2.7,2.7,0,0,0,0,5.4l.17,0a13.48,13.48,0,0,0,26.66,0l.17,0a2.7,2.7,0,1,0,0-5.4Z"/></g><path id="_Path_4" data-name="&lt;Path&gt;" class="cls-5" d="M15.91,27.66a1.15,1.15,0,1,0,2.3,0,1.15,1.15,0,0,0-2.3,0Z"/><path id="_Path_5" data-name="&lt;Path&gt;" class="cls-5" d="M32.09,27.66a1.15,1.15,0,1,1-2.3,0,1.15,1.15,0,0,1,2.3,0Z"/><g id="_Group_3" data-name="&lt;Group&gt;"><path id="_Path_6" data-name="&lt;Path&gt;" class="cls-6" d="M19.78,34.65a.67.67,0,0,0-.5.23.64.64,0,0,0-.15.53,4.94,4.94,0,0,0,9.74,0,.66.66,0,0,0-.65-.76Z"/><path id="_Path_7" data-name="&lt;Path&gt;" class="cls-7" d="M24,36.68a6.06,6.06,0,0,0-3.76,1.15,5,5,0,0,0,7.52,0A6.06,6.06,0,0,0,24,36.68Z"/></g><g id="_Group_4" data-name="&lt;Group&gt;"><path id="_Path_8" data-name="&lt;Path&gt;" class="cls-3" d="M19.78,34.65a.67.67,0,0,0-.5.23.64.64,0,0,0-.15.53,4.94,4.94,0,0,0,9.74,0,.66.66,0,0,0-.65-.76Z"/></g><ellipse id="_Ellipse_2" data-name="&lt;Ellipse&gt;" class="cls-8" cx="15.16" cy="32.55" rx="1.49" ry="0.89"/><ellipse id="_Ellipse_3" data-name="&lt;Ellipse&gt;" class="cls-8" cx="32.84" cy="32.55" rx="1.49" ry="0.89"/></g><path class="cls-9" d="M39.25,11a1.73,1.73,0,0,1-3.14-.44L34.57,4.5l-3,5.49a2.09,2.09,0,0,1-3.81-.21L24,.88l-3.75,8.9a2.09,2.09,0,0,1-3.81.21l-3-5.49-1.54,6.08A1.73,1.73,0,0,1,8.75,11L7.38,8.77l.54,6.11a1.64,1.64,0,0,0,.86,1.24C11.05,14.85,17,14,24,14s13,.9,15.22,2.17a1.64,1.64,0,0,0,.86-1.24l.54-6.11Z"/><path class="cls-10" d="M24,14c-8.93,0-16.2,1.48-16.2,3.31v3.31c0-1.83,7.27-3.31,16.2-3.31s16.2,1.48,16.2,3.31V17.26C40.2,15.43,32.93,14,24,14Z"/><path class="cls-11" d="M24,14c-8.93,0-16.2,1.48-16.2,3.31V18.7c0-1.83,7.27-3.32,16.2-3.32s16.2,1.49,16.2,3.32V17.26C40.2,15.43,32.93,14,24,14Z"/><path class="cls-3" d="M24,14c-8.93,0-16.2,1.48-16.2,3.31v3.31c0-1.83,7.27-3.31,16.2-3.31s16.2,1.48,16.2,3.31V17.26C40.2,15.43,32.93,14,24,14Z"/><ellipse id="_Path_9" data-name="&lt;Path&gt;" class="cls-12" cx="24" cy="10.29" rx="1.36" ry="1.89"/><path id="_Path_10" data-name="&lt;Path&gt;" class="cls-13" d="M24,9.9A1.43,1.43,0,0,1,25.25,11a2.56,2.56,0,0,0,.11-.75c0-1-.61-1.89-1.36-1.89s-1.36.85-1.36,1.89a2.56,2.56,0,0,0,.11.75A1.43,1.43,0,0,1,24,9.9Z"/><ellipse id="_Path_11" data-name="&lt;Path&gt;" class="cls-3" cx="24" cy="10.29" rx="1.36" ry="1.89"/></svg>