<svg id="Icons" xmlns="http://www.w3.org/2000/svg" viewBox="0 0 48 48"><defs><style>.cls-1,.cls-4{fill:#45413c;}.cls-1{opacity:0.15;}.cls-2{fill:#ffe500;}.cls-2,.cls-3,.cls-4,.cls-6,.cls-7{stroke:#45413c;stroke-linecap:round;stroke-linejoin:round;}.cls-3{fill:#ffcebf;}.cls-5{fill:#ffb59e;}.cls-6{fill:#a86c4d;}.cls-7{fill:none;}.cls-8{fill:#f0f0f0;}.cls-9{fill:#fff;}</style></defs><title>201-person-wearing-turban-2</title><ellipse id="_Ellipse_" data-name="&lt;Ellipse&gt;" class="cls-1" cx="24" cy="44.5" rx="12.5" ry="1.5"/><g id="_Group_" data-name="&lt;Group&gt;"><g id="_Group_2" data-name="&lt;Group&gt;"><path class="cls-2" d="M24,5A14.59,14.59,0,0,0,9.41,19.6v7.64H38.59V19.6A14.59,14.59,0,0,0,24,5Z"/><path class="cls-3" d="M40.15,26.13a2.73,2.73,0,0,0-2.07-2.3l-.87-.24A3,3,0,0,1,35,20.66V17.59a2.77,2.77,0,0,0-2.08-2.68A23,23,0,0,1,24,16.52a23,23,0,0,1-8.9-1.61A2.77,2.77,0,0,0,13,17.59v3.07a3,3,0,0,1-2.23,2.93l-.87.24a2.73,2.73,0,0,0-2.07,2.3,2.69,2.69,0,0,0,2.68,2.92h.17a13.45,13.45,0,0,0,26.6,0h.17A2.69,2.69,0,0,0,40.15,26.13Z"/><path id="_Path_" data-name="&lt;Path&gt;" class="cls-4" d="M15.93,25.81a1.15,1.15,0,1,0,1.14-1.15A1.15,1.15,0,0,0,15.93,25.81Z"/><path id="_Path_2" data-name="&lt;Path&gt;" class="cls-4" d="M32.07,25.81a1.15,1.15,0,1,1-1.14-1.15A1.15,1.15,0,0,1,32.07,25.81Z"/><ellipse id="_Ellipse_2" data-name="&lt;Ellipse&gt;" class="cls-5" cx="15.18" cy="30.69" rx="1.49" ry="0.89"/><ellipse id="_Ellipse_3" data-name="&lt;Ellipse&gt;" class="cls-5" cx="32.82" cy="30.69" rx="1.49" ry="0.89"/></g></g><path class="cls-6" d="M35.35,21.42v6.94a11.39,11.39,0,0,1-5,9.46V36.55c0-2.59-2.83-4.68-6.31-4.68S17.69,34,17.69,36.55v1.27a11.39,11.39,0,0,1-5-9.46V21.42l-1.92,2.17v4.94c0,9.27,8.11,14.9,13.27,14.86s13.27-5.57,13.27-14.86V23.59Z"/><path id="_Path_3" data-name="&lt;Path&gt;" class="cls-7" d="M21.19,36.12s.69.93,2.81.93,2.81-.93,2.81-.93"/><path id="_Path_4" data-name="&lt;Path&gt;" class="cls-8" d="M39.38,16.66c0-.84,0-1.78,0-2.84C39.42,6.9,32.82,1.65,24,1.65S8.58,6.9,8.58,13.82c0,8.92.83,10.21.83,10.21a88,88,0,0,1,15-5.39A58.43,58.43,0,0,1,38.59,24S39.23,23,39.38,16.66Z"/><path class="cls-9" d="M24,5.74c8.42,0,14.81,4.78,15.38,11.24v-.32c0-.84,0-1.78,0-2.84C39.42,6.9,32.82,1.65,24,1.65S8.58,6.9,8.58,13.82c0,1.19,0,2.24,0,3.16C9.18,10.53,15.57,5.74,24,5.74Z"/><path id="_Path_5" data-name="&lt;Path&gt;" class="cls-7" d="M39.38,16.66c0-.84,0-1.78,0-2.84C39.42,6.9,32.82,1.65,24,1.65S8.58,6.9,8.58,13.82c0,8.92.83,10.21.83,10.21a88,88,0,0,1,15-5.39A58.43,58.43,0,0,1,38.59,24S39.23,23,39.38,16.66Z"/><path id="_Path_6" data-name="&lt;Path&gt;" class="cls-7" d="M8.58,13.82s5.77-10.52,22.35-11"/><path id="_Path_7" data-name="&lt;Path&gt;" class="cls-7" d="M35.38,11.93a43.66,43.66,0,0,0-22.13,6.62"/><path class="cls-7" d="M24.4,18.64c10.5-2.51,15-2,15-2"/></svg>