<svg id="Icons" xmlns="http://www.w3.org/2000/svg" viewBox="0 0 48 48"><defs><style>.cls-1{fill:#614b44;}.cls-1,.cls-10,.cls-11,.cls-12,.cls-2,.cls-3,.cls-6,.cls-8{stroke:#45413c;stroke-linecap:round;stroke-linejoin:round;}.cls-2{fill:#ffcebf;}.cls-3,.cls-9{fill:#45413c;}.cls-4,.cls-8{fill:#ff6242;}.cls-5{fill:#ffa694;}.cls-6{fill:none;}.cls-7{fill:#ffb59e;}.cls-9{opacity:0.15;}.cls-10{fill:#9ceb60;}.cls-11{fill:#656769;}.cls-12{fill:#ffe500;}</style></defs><title>203-man-with-Chinese-cap-2</title><g id="_Group_" data-name="&lt;Group&gt;"><path class="cls-1" d="M24,4.51A14.59,14.59,0,0,0,9.41,19.1v7.64H38.59V19.1A14.59,14.59,0,0,0,24,4.51Z"/><path class="cls-2" d="M40.15,25.63a2.73,2.73,0,0,0-2.07-2.3l-.87-.24A3,3,0,0,1,35,20.16V17.09a2.77,2.77,0,0,0-2.08-2.68A23,23,0,0,1,24,16a23,23,0,0,1-8.9-1.61A2.77,2.77,0,0,0,13,17.09v3.07a3,3,0,0,1-2.23,2.93l-.87.24a2.73,2.73,0,0,0-2.07,2.3,2.69,2.69,0,0,0,2.68,2.92h.17a13.45,13.45,0,0,0,26.6,0h.17A2.69,2.69,0,0,0,40.15,25.63Z"/><path id="_Path_" data-name="&lt;Path&gt;" class="cls-3" d="M15.93,25.31a1.15,1.15,0,1,0,1.14-1.15A1.15,1.15,0,0,0,15.93,25.31Z"/><path id="_Path_2" data-name="&lt;Path&gt;" class="cls-3" d="M32.07,25.31a1.15,1.15,0,1,1-1.14-1.15A1.15,1.15,0,0,1,32.07,25.31Z"/><g id="_Group_2" data-name="&lt;Group&gt;"><g id="_Group_3" data-name="&lt;Group&gt;"><path id="_Path_3" data-name="&lt;Path&gt;" class="cls-4" d="M20.31,32.59a.61.61,0,0,0-.44.2.57.57,0,0,0-.13.47,4.32,4.32,0,0,0,8.52,0,.57.57,0,0,0-.13-.47.61.61,0,0,0-.44-.2Z"/><path id="_Path_4" data-name="&lt;Path&gt;" class="cls-5" d="M24,34.37a5.3,5.3,0,0,0-3.29,1,4.38,4.38,0,0,0,6.58,0A5.3,5.3,0,0,0,24,34.37Z"/></g></g><g id="_Group_4" data-name="&lt;Group&gt;"><path id="_Path_5" data-name="&lt;Path&gt;" class="cls-6" d="M20.31,32.59a.61.61,0,0,0-.44.2.57.57,0,0,0-.13.47,4.32,4.32,0,0,0,8.52,0,.57.57,0,0,0-.13-.47.61.61,0,0,0-.44-.2Z"/></g><ellipse id="_Ellipse_" data-name="&lt;Ellipse&gt;" class="cls-7" cx="15.18" cy="30.19" rx="1.49" ry="0.89"/><ellipse id="_Ellipse_2" data-name="&lt;Ellipse&gt;" class="cls-7" cx="32.82" cy="30.19" rx="1.49" ry="0.89"/></g><path class="cls-8" d="M24,13.74c6.69,0,12.43.89,14.91,2.15a15,15,0,0,0-29.82,0C11.57,14.63,17.31,13.74,24,13.74Z"/><ellipse id="_Ellipse_3" data-name="&lt;Ellipse&gt;" class="cls-9" cx="24" cy="44.5" rx="12.5" ry="1.5"/><path class="cls-10" d="M24,2.5c-4.9,3.71-7.43,9.89-8,16H32C31.43,12.39,28.9,6.21,24,2.5Z"/><path class="cls-11" d="M24,13.74c-9,0-16.23,1.59-16.23,3.55v3.6a2.12,2.12,0,0,0,1.64,2v-.8A1.12,1.12,0,0,1,9.94,21C13,19.15,20.24,18.79,24,18.79S35,19.15,38.06,21a1.12,1.12,0,0,1,.53,1.12v.8a2.12,2.12,0,0,0,1.64-2v-3.6C40.23,15.33,33,13.74,24,13.74Z"/><circle class="cls-12" cx="24" cy="16.26" r="2.52"/></svg>