<svg id="Icons" xmlns="http://www.w3.org/2000/svg" viewBox="0 0 48 48"><defs><style>.cls-1{fill:#e0e0e0;}.cls-15,.cls-2{fill:#fff;}.cls-3{fill:none;}.cls-10,.cls-11,.cls-15,.cls-3{stroke:#45413c;stroke-linecap:round;stroke-linejoin:round;}.cls-11,.cls-4{fill:#45413c;}.cls-4{opacity:0.15;}.cls-5{fill:#724f3d;}.cls-6{fill:#a86c4d;}.cls-10,.cls-7{fill:#ffe500;}.cls-8{fill:#ebcb00;}.cls-9{fill:#f0f0f0;}.cls-12{fill:#ff6242;}.cls-13{fill:#ffa694;}.cls-14{fill:#ffaa54;}</style></defs><title>206-bride-with-veil-1</title><path id="_Path_" data-name="&lt;Path&gt;" class="cls-1" d="M7.88,45V27.86a18.51,18.51,0,0,1,2.38-9.08h0A10.29,10.29,0,0,1,20.54,8.49h6.9A10.29,10.29,0,0,1,37.72,18.78h0a18.51,18.51,0,0,1,2.38,9.08V45Z"/><path id="_Path_2" data-name="&lt;Path&gt;" class="cls-2" d="M37.72,18.78A10.29,10.29,0,0,0,27.44,8.49h-6.9A10.29,10.29,0,0,0,10.26,18.78a18.51,18.51,0,0,0-2.38,9.08V45H9.57V31.91c0-5.39,1.34-7.84,3.38-9.08h0c0-5.68,4.12-10.29,9.2-10.29h3.68c5.08,0,9.2,4.61,9.2,10.29h0c2.21,1.24,3.38,2.94,3.38,9.08V45H40.1V27.86A18.51,18.51,0,0,0,37.72,18.78Z"/><path id="_Path_3" data-name="&lt;Path&gt;" class="cls-3" d="M7.88,45V27.86a18.51,18.51,0,0,1,2.38-9.08h0A10.29,10.29,0,0,1,20.54,8.49h6.9A10.29,10.29,0,0,1,37.72,18.78h0a18.51,18.51,0,0,1,2.38,9.08V45Z"/><ellipse id="_Ellipse_" data-name="&lt;Ellipse&gt;" class="cls-4" cx="23.99" cy="45.5" rx="18" ry="1.5"/><path id="_Path_4" data-name="&lt;Path&gt;" class="cls-5" d="M24,6.32A10.88,10.88,0,0,1,34.88,17.19v21a1.22,1.22,0,0,1-.77,1.14h0a27.09,27.09,0,0,1-20.22,0h0a1.22,1.22,0,0,1-.77-1.14v-21A10.88,10.88,0,0,1,24,6.32Z"/><path id="_Path_5" data-name="&lt;Path&gt;" class="cls-6" d="M24,6.32A10.88,10.88,0,0,0,13.12,17.19v3a10.88,10.88,0,0,1,21.76,0v-3A10.88,10.88,0,0,0,24,6.32Z"/><path id="_Path_6" data-name="&lt;Path&gt;" class="cls-3" d="M24,6.32A10.88,10.88,0,0,1,34.88,17.19v21a1.22,1.22,0,0,1-.77,1.14h0a27.09,27.09,0,0,1-20.22,0h0a1.22,1.22,0,0,1-.77-1.14v-21A10.88,10.88,0,0,1,24,6.32Z"/><path id="_Path_7" data-name="&lt;Path&gt;" class="cls-7" d="M26.54,31.5V29.72a2.55,2.55,0,1,0-5.09,0V31.5a11.87,11.87,0,0,0-9.34,11.6V45H35.87V43.1A11.87,11.87,0,0,0,26.54,31.5Z"/><path class="cls-8" d="M24,33A12,12,0,0,1,35.87,43.29V43.1a11.87,11.87,0,0,0-9.33-11.6V29.72a2.55,2.55,0,1,0-5.09,0V31.5a11.87,11.87,0,0,0-9.34,11.6v.19A12,12,0,0,1,24,33Z"/><path id="_Path_8" data-name="&lt;Path&gt;" class="cls-3" d="M26.54,31.5V29.72a2.55,2.55,0,1,0-5.09,0V31.5a11.87,11.87,0,0,0-9.34,11.6V45H35.87V43.1A11.87,11.87,0,0,0,26.54,31.5Z"/><path class="cls-2" d="M36.07,39.67a13.47,13.47,0,0,0-1.21-3.19,9,9,0,0,0-1.23-1.76,1,1,0,0,0-1.15-.21,7.25,7.25,0,0,0-2,1.45A4.94,4.94,0,0,0,29.12,38s-1.25-.75-5.13-.75-5.13.75-5.13.75A5,5,0,0,0,17.54,36a7.42,7.42,0,0,0-2-1.45,1,1,0,0,0-1.15.21,9,9,0,0,0-1.23,1.76,13.47,13.47,0,0,0-1.21,3.19,1,1,0,0,0,.84,1.24,10.79,10.79,0,0,1,4.31,1.68V45H30.92V42.59a10.79,10.79,0,0,1,4.31-1.68A1,1,0,0,0,36.07,39.67Z"/><path class="cls-9" d="M13.21,41a11.54,11.54,0,0,1,4-5.31,7.68,7.68,0,0,0-1.75-1.17,1,1,0,0,0-1.15.21,9,9,0,0,0-1.23,1.76,13.47,13.47,0,0,0-1.21,3.19,1,1,0,0,0,.84,1.24Z"/><path class="cls-9" d="M36.07,39.67a13.47,13.47,0,0,0-1.21-3.19,9,9,0,0,0-1.23-1.76,1,1,0,0,0-1.15-.21,7.9,7.9,0,0,0-1.75,1.17,11.54,11.54,0,0,1,4,5.31l.46-.08A1,1,0,0,0,36.07,39.67Z"/><path class="cls-3" d="M36.07,39.67a13.47,13.47,0,0,0-1.21-3.19,9,9,0,0,0-1.23-1.76,1,1,0,0,0-1.15-.21,7.25,7.25,0,0,0-2,1.45A4.94,4.94,0,0,0,29.12,38s-1.25-.75-5.13-.75-5.13.75-5.13.75A5,5,0,0,0,17.54,36a7.42,7.42,0,0,0-2-1.45,1,1,0,0,0-1.15.21,9,9,0,0,0-1.23,1.76,13.47,13.47,0,0,0-1.21,3.19,1,1,0,0,0,.84,1.24,10.79,10.79,0,0,1,4.31,1.68V45H30.92V42.59a10.79,10.79,0,0,1,4.31-1.68A1,1,0,0,0,36.07,39.67Z"/><polyline id="_Path_9" data-name="&lt;Path&gt;" class="cls-3" points="20.09 31.88 23.99 33.87 27.89 31.88"/><circle id="_Path_10" data-name="&lt;Path&gt;" class="cls-10" cx="23.99" cy="34.85" r="0.98"/><g id="_Group_" data-name="&lt;Group&gt;"><path id="_Path_11" data-name="&lt;Path&gt;" class="cls-10" d="M33.06,19.47a8.77,8.77,0,0,1-5.67-5L26.77,13a15.92,15.92,0,0,1-9.95,6.18l-1.89.34a1.81,1.81,0,0,0,0,3.62h.12a9,9,0,0,0,17.9,0h.11a1.81,1.81,0,1,0,0-3.62Z"/></g><path id="_Path_12" data-name="&lt;Path&gt;" class="cls-11" d="M18.57,20.91a.77.77,0,1,0,.77-.77A.76.76,0,0,0,18.57,20.91Z"/><path id="_Path_13" data-name="&lt;Path&gt;" class="cls-11" d="M29.43,20.91a.77.77,0,1,1-.77-.77A.76.76,0,0,1,29.43,20.91Z"/><g id="_Group_2" data-name="&lt;Group&gt;"><g id="_Group_3" data-name="&lt;Group&gt;"><g id="_Group_4" data-name="&lt;Group&gt;"><g id="_Group_5" data-name="&lt;Group&gt;"><g id="_Group_6" data-name="&lt;Group&gt;"><g id="_Group_7" data-name="&lt;Group&gt;"><g id="_Group_8" data-name="&lt;Group&gt;"><path id="_Path_14" data-name="&lt;Path&gt;" class="cls-12" d="M21.16,25.6a.44.44,0,0,0-.33.16.42.42,0,0,0-.1.35,3.32,3.32,0,0,0,6.54,0,.42.42,0,0,0-.1-.35.42.42,0,0,0-.33-.16Z"/><path id="_Path_15" data-name="&lt;Path&gt;" class="cls-13" d="M24,27a4,4,0,0,0-2.52.77,3.36,3.36,0,0,0,5,0A4,4,0,0,0,24,27Z"/></g></g></g></g></g></g></g><g id="_Group_9" data-name="&lt;Group&gt;"><path id="_Path_16" data-name="&lt;Path&gt;" class="cls-3" d="M21.16,25.6a.44.44,0,0,0-.33.16.42.42,0,0,0-.1.35,3.32,3.32,0,0,0,6.54,0,.42.42,0,0,0-.1-.35.42.42,0,0,0-.33-.16Z"/></g><ellipse id="_Ellipse_2" data-name="&lt;Ellipse&gt;" class="cls-14" cx="18.06" cy="24.19" rx="1" ry="0.6"/><ellipse id="_Ellipse_3" data-name="&lt;Ellipse&gt;" class="cls-14" cx="29.94" cy="24.19" rx="1" ry="0.6"/><path id="_Path_17" data-name="&lt;Path&gt;" class="cls-15" d="M15,11.09a10.64,10.64,0,0,0-1.13,2.17A31.66,31.66,0,0,0,24,14.68a31.66,31.66,0,0,0,10.13-1.42A10.64,10.64,0,0,0,33,11.09a30.58,30.58,0,0,1-9,1.22A30.58,30.58,0,0,1,15,11.09Z"/></svg>