<svg id="Icons" xmlns="http://www.w3.org/2000/svg" viewBox="0 0 48 48"><defs><style>.cls-1{fill:#fff;}.cls-2{fill:#f0f0f0;}.cls-3{fill:none;}.cls-3,.cls-6,.cls-8{stroke:#45413c;stroke-linecap:round;stroke-linejoin:round;}.cls-4{fill:#ff6242;}.cls-5{fill:#ff866e;}.cls-6{fill:#ffcebf;}.cls-7,.cls-8{fill:#45413c;}.cls-7{opacity:0.15;}.cls-9{fill:#ffb59e;}.cls-10{fill:#e0e0e0;}</style></defs><title>213-Santa-Claus-2</title><circle id="_Path_" data-name="&lt;Path&gt;" class="cls-1" cx="39.2" cy="31.82" r="3.65"/><path id="_Path_2" data-name="&lt;Path&gt;" class="cls-2" d="M39.2,33.53a3.65,3.65,0,0,1-3.5-2.68,3.85,3.85,0,0,0-.14,1,3.65,3.65,0,0,0,7.29,0,3.45,3.45,0,0,0-.15-1A3.63,3.63,0,0,1,39.2,33.53Z"/><circle id="_Path_3" data-name="&lt;Path&gt;" class="cls-3" cx="39.2" cy="31.82" r="3.65"/><path id="_Path_4" data-name="&lt;Path&gt;" class="cls-4" d="M25,2.81a15.5,15.5,0,0,0-15.5,15.5v.75h27.8V30.29h0a5.41,5.41,0,0,0,5.41-5.42V20.53A17.71,17.71,0,0,0,25,2.81Z"/><path id="_Path_5" data-name="&lt;Path&gt;" class="cls-5" d="M25,2.81a15.5,15.5,0,0,0-15.5,15.5H9.9A15.5,15.5,0,0,1,25,6.39,17.72,17.72,0,0,1,42.68,24.11V20.53A17.71,17.71,0,0,0,25,2.81Z"/><path id="_Path_6" data-name="&lt;Path&gt;" class="cls-3" d="M25,2.81a15.5,15.5,0,0,0-15.5,15.5v.75h27.8V30.29h0a5.41,5.41,0,0,0,5.41-5.42V20.53A17.71,17.71,0,0,0,25,2.81Z"/><path class="cls-6" d="M37.27,22.42A37.26,37.26,0,0,0,24,20.37a37.3,37.3,0,0,0-13.27,2.05,3.08,3.08,0,0,0,0,6.1C12,35.25,17.47,40.31,24,40.31s12-5.06,13.27-11.79a3.08,3.08,0,0,0,0-6.1Z"/><ellipse id="_Ellipse_" data-name="&lt;Ellipse&gt;" class="cls-7" cx="24" cy="44.5" rx="12.5" ry="1.5"/><path id="_Path_7" data-name="&lt;Path&gt;" class="cls-8" d="M32.13,24.52A1.15,1.15,0,1,1,31,23.37,1.15,1.15,0,0,1,32.13,24.52Z"/><ellipse id="_Ellipse_2" data-name="&lt;Ellipse&gt;" class="cls-9" cx="32.88" cy="29.4" rx="1.49" ry="0.89"/><path id="_Path_8" data-name="&lt;Path&gt;" class="cls-8" d="M15.87,24.52A1.15,1.15,0,1,0,17,23.37,1.15,1.15,0,0,0,15.87,24.52Z"/><ellipse id="_Ellipse_3" data-name="&lt;Ellipse&gt;" class="cls-9" cx="15.12" cy="29.4" rx="1.49" ry="0.89"/><path class="cls-2" d="M35.35,20.13v6.94a9.39,9.39,0,0,1-1.18,4.18,4,4,0,0,1-5.71,1.2A7.51,7.51,0,0,0,24,31.08a7.51,7.51,0,0,0-4.46,1.37,4,4,0,0,1-5.71-1.2,9.39,9.39,0,0,1-1.18-4.18V20.13l-1.92,1.68v10c0,7.33,5.94,11.69,13.27,11.69s13.27-4.36,13.27-11.69v-10Z"/><path class="cls-10" d="M24,40.87c-7.33,0-13.27-4.36-13.27-11.69v2.63c0,7.33,5.94,11.69,13.27,11.69s13.27-4.36,13.27-11.69V29.18C37.27,36.51,31.33,40.87,24,40.87Z"/><path class="cls-3" d="M35.35,20.13v6.94a9.39,9.39,0,0,1-1.18,4.18,4,4,0,0,1-5.71,1.2A7.51,7.51,0,0,0,24,31.08a7.51,7.51,0,0,0-4.46,1.37,4,4,0,0,1-5.71-1.2,9.39,9.39,0,0,1-1.18-4.18V20.13l-1.92,1.68v10c0,7.33,5.94,11.69,13.27,11.69s13.27-4.36,13.27-11.69v-10Z"/><path id="_Path_9" data-name="&lt;Path&gt;" class="cls-3" d="M21.19,34.83s.69.93,2.81.93,2.81-.93,2.81-.93"/><path class="cls-1" d="M24,15.41c-8.46,0-15.32,2.16-15.32,4.83a2.58,2.58,0,0,0,2.05,2.18A37.3,37.3,0,0,1,24,20.37a37.26,37.26,0,0,1,13.27,2.05,2.58,2.58,0,0,0,2-2.18C39.32,17.57,32.46,15.41,24,15.41Z"/><path class="cls-10" d="M24,18.32c-6.85,0-12.64,1.41-14.61,3.37a2.86,2.86,0,0,0,1.34.73A37.3,37.3,0,0,1,24,20.37a37.26,37.26,0,0,1,13.27,2.05,2.86,2.86,0,0,0,1.34-.73C36.64,19.73,30.85,18.32,24,18.32Z"/><path class="cls-3" d="M24,15.41c-8.46,0-15.32,2.16-15.32,4.83a2.58,2.58,0,0,0,2.05,2.18A37.3,37.3,0,0,1,24,20.37a37.26,37.26,0,0,1,13.27,2.05,2.58,2.58,0,0,0,2-2.18C39.32,17.57,32.46,15.41,24,15.41Z"/><path id="_Path_10" data-name="&lt;Path&gt;" class="cls-3" d="M38.06,18.32c0-7.26-5.18-9.67-5.18-9.67"/></svg>