<svg id="Icons" xmlns="http://www.w3.org/2000/svg" viewBox="0 0 48 48"><defs><style>.cls-1,.cls-9{fill:#45413c;}.cls-1{opacity:0.15;}.cls-2{fill:#00b8f0;}.cls-3{fill:#009fd9;}.cls-4{fill:none;}.cls-4,.cls-5,.cls-8,.cls-9{stroke:#45413c;stroke-linecap:round;stroke-linejoin:round;}.cls-10,.cls-5{fill:#ffb59e;}.cls-6{fill:#a86c4d;}.cls-7{fill:#de926a;}.cls-8{fill:#ffcebf;}</style></defs><title>215-man-frowning-2</title><ellipse id="_Ellipse_" data-name="&lt;Ellipse&gt;" class="cls-1" cx="24" cy="45.54" rx="13.5" ry="1.5"/><path id="_Rectangle_" data-name="&lt;Rectangle&gt;" class="cls-2" d="M24,31.22h0A11.88,11.88,0,0,1,35.88,43.1V45a0,0,0,0,1,0,0H12.12a0,0,0,0,1,0,0V43.1A11.88,11.88,0,0,1,24,31.22Z"/><path id="_Path_" data-name="&lt;Path&gt;" class="cls-3" d="M24,31.22h0A11.88,11.88,0,0,0,12.12,43.1V45h.07A11.88,11.88,0,0,1,24,34.43h0A11.88,11.88,0,0,1,35.81,45h.07V43.1A11.88,11.88,0,0,0,24,31.22Z"/><path id="_Rectangle_2" data-name="&lt;Rectangle&gt;" class="cls-4" d="M24,31.22h0A11.88,11.88,0,0,1,35.88,43.1V45a0,0,0,0,1,0,0H12.12a0,0,0,0,1,0,0V43.1A11.88,11.88,0,0,1,24,31.22Z"/><line id="_Path_2" data-name="&lt;Path&gt;" class="cls-4" x1="17.06" y1="45" x2="17.06" y2="42.59"/><line id="_Path_3" data-name="&lt;Path&gt;" class="cls-4" x1="30.94" y1="45" x2="30.94" y2="42.59"/><rect id="_Rectangle_3" data-name="&lt;Rectangle&gt;" class="cls-5" x="21.46" y="27.17" width="5.09" height="7.94" rx="2.54" ry="2.54"/><path id="_Path_4" data-name="&lt;Path&gt;" class="cls-6" d="M24,9.41a9.83,9.83,0,0,0-2.44.31c-1.86.42-4.28,1.12-6.47.7a4.2,4.2,0,0,0,.84,3.21,9.81,9.81,0,0,0-1.75,5.6v5.14H33.82V19.23A9.82,9.82,0,0,0,24,9.41Z"/><g id="_Group_" data-name="&lt;Group&gt;"><path id="_Path_5" data-name="&lt;Path&gt;" class="cls-7" d="M24,9.41a9.83,9.83,0,0,0-2.44.31c-1.86.42-4.28,1.12-6.47.7a4.47,4.47,0,0,0,.68,3,19.4,19.4,0,0,0,5.79-.79,9.81,9.81,0,0,1,12.26,9.51V19.23A9.82,9.82,0,0,0,24,9.41Z"/></g><path id="_Path_6" data-name="&lt;Path&gt;" class="cls-4" d="M24,9.41a9.83,9.83,0,0,0-2.44.31c-1.86.42-4.28,1.12-6.47.7a4.2,4.2,0,0,0,.84,3.21,9.81,9.81,0,0,0-1.75,5.6v5.14H33.82V19.23A9.82,9.82,0,0,0,24,9.41Z"/><path class="cls-8" d="M34.87,23.62a1.83,1.83,0,0,0-1.39-1.54l-.59-.16a2.06,2.06,0,0,1-1.5-2V17.88A1.88,1.88,0,0,0,30,16.07a15.34,15.34,0,0,1-6,1.09,15.34,15.34,0,0,1-6-1.09,1.88,1.88,0,0,0-1.4,1.81v2.06a2.06,2.06,0,0,1-1.5,2l-.59.16a1.83,1.83,0,0,0-1.39,1.54,1.81,1.81,0,0,0,1.81,2h.11a9,9,0,0,0,17.9,0h.11A1.81,1.81,0,0,0,34.87,23.62Z"/><path id="_Path_7" data-name="&lt;Path&gt;" class="cls-9" d="M18.57,23.41a.77.77,0,1,0,.77-.77A.76.76,0,0,0,18.57,23.41Z"/><path id="_Path_8" data-name="&lt;Path&gt;" class="cls-9" d="M29.43,23.41a.77.77,0,1,1-.77-.77A.76.76,0,0,1,29.43,23.41Z"/><ellipse id="_Ellipse_2" data-name="&lt;Ellipse&gt;" class="cls-10" cx="18.06" cy="26.69" rx="1" ry="0.6"/><ellipse id="_Ellipse_3" data-name="&lt;Ellipse&gt;" class="cls-10" cx="29.94" cy="26.69" rx="1" ry="0.6"/><path id="_Path_9" data-name="&lt;Path&gt;" class="cls-4" d="M21.65,29.87a2.73,2.73,0,0,1,4.7,0"/></svg>