<svg id="Icons" xmlns="http://www.w3.org/2000/svg" viewBox="0 0 48 48"><defs><style>.cls-1{fill:#a86c4d;}.cls-2{fill:#de926a;}.cls-3{fill:none;}.cls-10,.cls-11,.cls-3,.cls-8{stroke:#45413c;stroke-linecap:round;stroke-linejoin:round;}.cls-4{fill:#ff87af;}.cls-5{fill:#ff6196;}.cls-6,.cls-8{fill:#ffcebf;}.cls-7{fill:#ffb59e;}.cls-10,.cls-9{fill:#45413c;}.cls-9{opacity:0.15;}.cls-11{fill:#ff866e;}</style></defs><title>221-woman-pouting-2</title><path id="_Path_" data-name="&lt;Path&gt;" class="cls-1" d="M34.88,31.38a1.24,1.24,0,0,1-.77,1.14h0a27.09,27.09,0,0,1-20.22,0h0a1.24,1.24,0,0,1-.77-1.14V17.19a10.88,10.88,0,0,1,21.76,0Z"/><path id="_Path_2" data-name="&lt;Path&gt;" class="cls-2" d="M24,6.32A10.88,10.88,0,0,0,13.12,17.19v2.9a10.88,10.88,0,0,1,21.76,0v-2.9A10.88,10.88,0,0,0,24,6.32Z"/><path id="_Path_3" data-name="&lt;Path&gt;" class="cls-3" d="M34.88,31.38a1.24,1.24,0,0,1-.77,1.14h0a27.09,27.09,0,0,1-20.22,0h0a1.24,1.24,0,0,1-.77-1.14V17.19a10.88,10.88,0,0,1,21.76,0Z"/><path id="_Path_4" data-name="&lt;Path&gt;" class="cls-4" d="M35.88,45H12.12V43.1a11.88,11.88,0,1,1,23.76,0Z"/><path id="_Path_5" data-name="&lt;Path&gt;" class="cls-5" d="M24,31.22A11.88,11.88,0,0,0,12.12,43.1V45h.17a11.88,11.88,0,0,1,23.42,0h.17V43.1A11.88,11.88,0,0,0,24,31.22Z"/><path id="_Path_6" data-name="&lt;Path&gt;" class="cls-3" d="M35.88,45H12.12V43.1a11.88,11.88,0,1,1,23.76,0Z"/><path class="cls-6" d="M24,27.17a2.54,2.54,0,0,0-2.54,2.55v2.85a2.54,2.54,0,1,0,5.08,0V29.72A2.54,2.54,0,0,0,24,27.17Z"/><path id="_Path_7" data-name="&lt;Path&gt;" class="cls-7" d="M24,27.17a2.54,2.54,0,0,0-2.54,2.54v.6a2.54,2.54,0,0,0,5.08,0v-.59A2.54,2.54,0,0,0,24,27.17Z"/><path class="cls-3" d="M24,27.17a2.54,2.54,0,0,0-2.54,2.55v2.85a2.54,2.54,0,1,0,5.08,0V29.72A2.54,2.54,0,0,0,24,27.17Z"/><g id="_Group_" data-name="&lt;Group&gt;"><path id="_Path_8" data-name="&lt;Path&gt;" class="cls-8" d="M33.06,19.47a8.77,8.77,0,0,1-5.67-5L26.77,13a15.92,15.92,0,0,1-9.95,6.18l-1.89.34a1.81,1.81,0,0,0,0,3.62h.12a9,9,0,0,0,17.9,0h.11a1.81,1.81,0,1,0,0-3.62Z"/></g><line id="_Path_9" data-name="&lt;Path&gt;" class="cls-3" x1="17.06" y1="45" x2="17.06" y2="42.59"/><line id="_Path_10" data-name="&lt;Path&gt;" class="cls-3" x1="30.94" y1="45" x2="30.94" y2="42.59"/><ellipse id="_Ellipse_" data-name="&lt;Ellipse&gt;" class="cls-9" cx="24" cy="45.5" rx="15" ry="1.5"/><path id="_Path_11" data-name="&lt;Path&gt;" class="cls-10" d="M18.57,20.91a.77.77,0,1,0,.77-.77A.76.76,0,0,0,18.57,20.91Z"/><path id="_Path_12" data-name="&lt;Path&gt;" class="cls-10" d="M29.43,20.91a.77.77,0,1,1-.77-.77A.76.76,0,0,1,29.43,20.91Z"/><ellipse id="_Ellipse_2" data-name="&lt;Ellipse&gt;" class="cls-7" cx="18.06" cy="24.19" rx="1" ry="0.6"/><ellipse id="_Ellipse_3" data-name="&lt;Ellipse&gt;" class="cls-7" cx="29.94" cy="24.19" rx="1" ry="0.6"/><path id="_Path_13" data-name="&lt;Path&gt;" class="cls-11" d="M23.06,28.54a.5.5,0,0,1-.5-.53c0-.79.29-2.21,1.44-2.21s1.4,1.42,1.44,2.21a.5.5,0,0,1-.5.53Z"/></svg>