<svg id="Icons" xmlns="http://www.w3.org/2000/svg" viewBox="0 0 48 48"><defs><style>.cls-1,.cls-9{fill:#45413c;}.cls-1{opacity:0.15;}.cls-2{fill:#a86c4d;}.cls-3{fill:#de926a;}.cls-4{fill:none;}.cls-4,.cls-7,.cls-8,.cls-9{stroke:#45413c;stroke-linecap:round;stroke-linejoin:round;}.cls-5{fill:#ff87af;}.cls-6{fill:#ff6196;}.cls-7{fill:#ebcb00;}.cls-12,.cls-8{fill:#ffcebf;}.cls-10{fill:#ffb59e;}.cls-11{fill:#ffb0ca;}.cls-13{fill:#ffdcd1;}</style></defs><title>225-woman-gesturing-NO-2</title><ellipse id="_Ellipse_" data-name="&lt;Ellipse&gt;" class="cls-1" cx="24" cy="44.5" rx="14.5" ry="1.5"/><path id="_Path_" data-name="&lt;Path&gt;" class="cls-2" d="M24,4.82A10.88,10.88,0,0,1,34.88,15.69V29.88A1.24,1.24,0,0,1,34.11,31h0a27.09,27.09,0,0,1-20.22,0h0a1.24,1.24,0,0,1-.77-1.14V15.69A10.88,10.88,0,0,1,24,4.82Z"/><path id="_Path_2" data-name="&lt;Path&gt;" class="cls-3" d="M24,4.82A10.88,10.88,0,0,0,13.12,15.69v3a10.88,10.88,0,0,1,21.76,0v-3A10.88,10.88,0,0,0,24,4.82Z"/><path id="_Path_3" data-name="&lt;Path&gt;" class="cls-4" d="M24,4.82A10.88,10.88,0,0,1,34.88,15.69V29.88A1.24,1.24,0,0,1,34.11,31h0a27.09,27.09,0,0,1-20.22,0h0a1.24,1.24,0,0,1-.77-1.14V15.69A10.88,10.88,0,0,1,24,4.82Z"/><path id="_Rectangle_" data-name="&lt;Rectangle&gt;" class="cls-5" d="M24,29.72h0A11.88,11.88,0,0,1,35.88,41.6v1.9a0,0,0,0,1,0,0H12.12a0,0,0,0,1,0,0V41.6A11.88,11.88,0,0,1,24,29.72Z"/><path id="_Path_4" data-name="&lt;Path&gt;" class="cls-6" d="M24,29.72h0A11.88,11.88,0,0,0,12.12,41.6v1.9h.07A11.88,11.88,0,0,1,24,32.93h0A11.88,11.88,0,0,1,35.81,43.5h.07V41.6A11.88,11.88,0,0,0,24,29.72Z"/><path id="_Rectangle_2" data-name="&lt;Rectangle&gt;" class="cls-4" d="M24,29.72h0A11.88,11.88,0,0,1,35.88,41.6v1.9a0,0,0,0,1,0,0H12.12a0,0,0,0,1,0,0V41.6A11.88,11.88,0,0,1,24,29.72Z"/><line id="_Path_5" data-name="&lt;Path&gt;" class="cls-4" x1="17.06" y1="43.5" x2="17.06" y2="41.09"/><line id="_Path_6" data-name="&lt;Path&gt;" class="cls-4" x1="30.94" y1="43.5" x2="30.94" y2="41.09"/><rect id="_Rectangle_3" data-name="&lt;Rectangle&gt;" class="cls-7" x="21.46" y="25.67" width="5.09" height="7.94" rx="2.54" ry="2.54"/><g id="_Group_" data-name="&lt;Group&gt;"><path id="_Path_7" data-name="&lt;Path&gt;" class="cls-8" d="M33.06,18a8.77,8.77,0,0,1-5.67-5l-.62-1.49a15.92,15.92,0,0,1-9.95,6.18L14.93,18a1.81,1.81,0,0,0,0,3.62h.12a9,9,0,0,0,17.9,0h.11a1.81,1.81,0,1,0,0-3.62Z"/></g><path id="_Path_8" data-name="&lt;Path&gt;" class="cls-9" d="M18.57,19.41a.77.77,0,1,0,.77-.77A.76.76,0,0,0,18.57,19.41Z"/><path id="_Path_9" data-name="&lt;Path&gt;" class="cls-9" d="M29.43,19.41a.77.77,0,1,1-.77-.77A.76.76,0,0,1,29.43,19.41Z"/><ellipse id="_Ellipse_2" data-name="&lt;Ellipse&gt;" class="cls-10" cx="18.06" cy="22.69" rx="1" ry="0.6"/><ellipse id="_Ellipse_3" data-name="&lt;Ellipse&gt;" class="cls-10" cx="29.94" cy="22.69" rx="1" ry="0.6"/><line id="_Path_10" data-name="&lt;Path&gt;" class="cls-4" x1="22.83" y1="25.67" x2="25.17" y2="25.67"/><path id="_Path_11" data-name="&lt;Path&gt;" class="cls-5" d="M35.29,45.48h0a4,4,0,0,1-5.71-.23L16.83,30.79a1,1,0,0,1,.06-1.38l3.12-3a1,1,0,0,1,1.39,0L35.29,39.77A4,4,0,0,1,35.29,45.48Z"/><polygon class="cls-6" points="21.55 36.14 26.35 41.59 31.32 35.95 26.53 31.35 21.55 36.14"/><path class="cls-11" d="M24.71,33.1l1.82-1.75L21.4,26.41a1,1,0,0,0-1.39,0l-3.12,3a1,1,0,0,0-.06,1.38l1,1.18a4.1,4.1,0,0,1,5.67,0Z"/><path id="_Path_12" data-name="&lt;Path&gt;" class="cls-4" d="M35.29,45.48h0a4,4,0,0,1-5.71-.23L16.83,30.79a1,1,0,0,1,.06-1.38l3.12-3a1,1,0,0,1,1.39,0L35.29,39.77A4,4,0,0,1,35.29,45.48Z"/><path id="_Path_13" data-name="&lt;Path&gt;" class="cls-12" d="M20,26.45l-3,2.92-2.16-2.26a4.46,4.46,0,0,1-.9-1.37l-1.6-3.83a1.85,1.85,0,0,1,.43-2h0a.69.69,0,0,1,1,0Z"/><path id="_Path_14" data-name="&lt;Path&gt;" class="cls-13" d="M13.68,22.31a.69.69,0,0,0-1,0,1.92,1.92,0,0,0-.18.22l-.25-.6a1.85,1.85,0,0,1,.43-2,.69.69,0,0,1,1,0L20,26.45l-1.21,1.16Z"/><path id="_Path_15" data-name="&lt;Path&gt;" class="cls-4" d="M20,26.45l-3,2.92-2.16-2.26a4.46,4.46,0,0,1-.9-1.37l-1.6-3.83a1.85,1.85,0,0,1,.43-2h0a.69.69,0,0,1,1,0Z"/><path id="_Path_16" data-name="&lt;Path&gt;" class="cls-5" d="M12.71,45.48h0a4,4,0,0,0,5.71-.23L31.17,30.79a1,1,0,0,0-.06-1.38l-3.12-3a1,1,0,0,0-1.39,0L12.71,39.77A4,4,0,0,0,12.71,45.48Z"/><path class="cls-11" d="M31.11,29.41l-3.12-3a1,1,0,0,0-1.39,0L12.71,39.77a4,4,0,0,0-.8,4.63,3.78,3.78,0,0,1,.8-1.12L24.46,32a4.1,4.1,0,0,1,5.67,0l1-1.18A1,1,0,0,0,31.11,29.41Z"/><path id="_Path_17" data-name="&lt;Path&gt;" class="cls-4" d="M12.71,45.48h0a4,4,0,0,0,5.71-.23L31.17,30.79a1,1,0,0,0-.06-1.38l-3.12-3a1,1,0,0,0-1.39,0L12.71,39.77A4,4,0,0,0,12.71,45.48Z"/><path id="_Path_18" data-name="&lt;Path&gt;" class="cls-12" d="M28,26.45l3,2.92,2.16-2.26a4.46,4.46,0,0,0,.9-1.37l1.6-3.83a1.85,1.85,0,0,0-.43-2h0a.69.69,0,0,0-1,0Z"/><path id="_Path_19" data-name="&lt;Path&gt;" class="cls-13" d="M34.32,22.31a.69.69,0,0,1,1,0,1.92,1.92,0,0,1,.18.22l.25-.6a1.85,1.85,0,0,0-.43-2,.69.69,0,0,0-1,0L28,26.45l1.21,1.16Z"/><path id="_Path_20" data-name="&lt;Path&gt;" class="cls-4" d="M28,26.45l3,2.92,2.16-2.26a4.46,4.46,0,0,0,.9-1.37l1.6-3.83a1.85,1.85,0,0,0-.43-2h0a.69.69,0,0,0-1,0Z"/></svg>