<svg id="Icons" xmlns="http://www.w3.org/2000/svg" viewBox="0 0 48 48"><defs><style>.cls-1,.cls-12{fill:#ffcebf;}.cls-1,.cls-4,.cls-5{stroke:#45413c;stroke-linecap:round;stroke-linejoin:round;}.cls-2{fill:#a86c4d;}.cls-3{fill:#de926a;}.cls-4{fill:none;}.cls-5,.cls-9{fill:#45413c;}.cls-6{fill:#ff6242;}.cls-7{fill:#ffa694;}.cls-8{fill:#ffb59e;}.cls-9{opacity:0.15;}.cls-10{fill:#ff87af;}.cls-11{fill:#ff6196;}</style></defs><title>229-woman-gesturing-OK-2</title><path id="_Path_" data-name="&lt;Path&gt;" class="cls-1" d="M10.75,12.3a11.76,11.76,0,0,1,7.78-3.78A1.39,1.39,0,0,1,20,10a1.37,1.37,0,0,1-.49,1l-4.7,3.93Z"/><path id="_Path_2" data-name="&lt;Path&gt;" class="cls-1" d="M37.25,12.3a11.76,11.76,0,0,0-7.78-3.78A1.39,1.39,0,0,0,28,10a1.37,1.37,0,0,0,.49,1l4.7,3.93Z"/><path id="_Path_3" data-name="&lt;Path&gt;" class="cls-2" d="M24,9.82A10.88,10.88,0,0,1,34.88,20.69V34.88A1.24,1.24,0,0,1,34.11,36h0a27.09,27.09,0,0,1-20.22,0h0a1.24,1.24,0,0,1-.77-1.14V20.69A10.88,10.88,0,0,1,24,9.82Z"/><path id="_Path_4" data-name="&lt;Path&gt;" class="cls-3" d="M24,9.82A10.88,10.88,0,0,0,13.12,20.69v3a10.88,10.88,0,0,1,21.76,0v-3A10.88,10.88,0,0,0,24,9.82Z"/><path id="_Path_5" data-name="&lt;Path&gt;" class="cls-4" d="M24,9.82A10.88,10.88,0,0,1,34.88,20.69V34.88A1.24,1.24,0,0,1,34.11,36h0a27.09,27.09,0,0,1-20.22,0h0a1.24,1.24,0,0,1-.77-1.14V20.69A10.88,10.88,0,0,1,24,9.82Z"/><g id="_Group_" data-name="&lt;Group&gt;"><path id="_Path_6" data-name="&lt;Path&gt;" class="cls-1" d="M33.06,23a8.77,8.77,0,0,1-5.67-5l-.62-1.49a15.92,15.92,0,0,1-9.95,6.18L14.93,23a1.81,1.81,0,0,0,0,3.62h.12a9,9,0,0,0,17.9,0h.11a1.81,1.81,0,1,0,0-3.62Z"/></g><path id="_Path_7" data-name="&lt;Path&gt;" class="cls-5" d="M18.57,24.41a.77.77,0,1,0,.77-.77A.76.76,0,0,0,18.57,24.41Z"/><path id="_Path_8" data-name="&lt;Path&gt;" class="cls-5" d="M29.43,24.41a.77.77,0,1,1-.77-.77A.76.76,0,0,1,29.43,24.41Z"/><g id="_Group_2" data-name="&lt;Group&gt;"><g id="_Group_3" data-name="&lt;Group&gt;"><g id="_Group_4" data-name="&lt;Group&gt;"><g id="_Group_5" data-name="&lt;Group&gt;"><g id="_Group_6" data-name="&lt;Group&gt;"><g id="_Group_7" data-name="&lt;Group&gt;"><g id="_Group_8" data-name="&lt;Group&gt;"><path id="_Path_9" data-name="&lt;Path&gt;" class="cls-6" d="M21.16,29.1a.44.44,0,0,0-.33.16.42.42,0,0,0-.1.35,3.32,3.32,0,0,0,6.54,0,.42.42,0,0,0-.1-.35.42.42,0,0,0-.33-.16Z"/><path id="_Path_10" data-name="&lt;Path&gt;" class="cls-7" d="M24,30.47a4,4,0,0,0-2.52.77,3.36,3.36,0,0,0,5,0A4,4,0,0,0,24,30.47Z"/></g></g></g></g></g></g></g><g id="_Group_9" data-name="&lt;Group&gt;"><path id="_Path_11" data-name="&lt;Path&gt;" class="cls-4" d="M21.16,29.1a.44.44,0,0,0-.33.16.42.42,0,0,0-.1.35,3.32,3.32,0,0,0,6.54,0,.42.42,0,0,0-.1-.35.44.44,0,0,0-.33-.16Z"/></g><ellipse id="_Ellipse_" data-name="&lt;Ellipse&gt;" class="cls-8" cx="18.06" cy="27.69" rx="1" ry="0.6"/><ellipse id="_Ellipse_2" data-name="&lt;Ellipse&gt;" class="cls-8" cx="29.94" cy="27.69" rx="1" ry="0.6"/><ellipse id="_Ellipse_3" data-name="&lt;Ellipse&gt;" class="cls-9" cx="24" cy="45.5" rx="15" ry="1.5"/><path id="_Path_12" data-name="&lt;Path&gt;" class="cls-10" d="M36.92,12.52l-3.71,2.39s2.29,3.23,1.67,10.16a19.38,19.38,0,0,1-3.31,9.23,3,3,0,0,1-3.48,1.14,12,12,0,0,0-8.18,0,3,3,0,0,1-3.48-1.14,19.38,19.38,0,0,1-3.31-9.23c-.62-6.93,1.67-10.16,1.67-10.16l-3.71-2.39a1,1,0,0,0-1.39.32,26.63,26.63,0,0,0-4.3,16.51C6,41.57,13.37,45,13.37,45H34.63s7.34-3.43,8-15.65a26.63,26.63,0,0,0-4.3-16.51A1,1,0,0,0,36.92,12.52Z"/><g id="_Group_10" data-name="&lt;Group&gt;"><path id="_Path_13" data-name="&lt;Path&gt;" class="cls-11" d="M13.08,24.53a24.08,24.08,0,0,0,0,4,19.33,19.33,0,0,0,3.31,9.22,3,3,0,0,0,3.48,1.14,12,12,0,0,1,8.18,0,3,3,0,0,0,3.48-1.14,19.33,19.33,0,0,0,3.31-9.22,24.08,24.08,0,0,0,0-4c0,.18,0,.36,0,.54a19.42,19.42,0,0,1-3.31,9.23,3,3,0,0,1-3.48,1.14,12,12,0,0,0-8.18,0,3,3,0,0,1-3.48-1.14,19.38,19.38,0,0,1-3.31-9.23C13.11,24.89,13.09,24.71,13.08,24.53Z"/></g><path id="_Path_14" data-name="&lt;Path&gt;" class="cls-4" d="M36.92,12.52l-3.71,2.39s2.29,3.23,1.67,10.16a19.38,19.38,0,0,1-3.31,9.23,3,3,0,0,1-3.48,1.14,12,12,0,0,0-8.18,0,3,3,0,0,1-3.48-1.14,19.38,19.38,0,0,1-3.31-9.23c-.62-6.93,1.67-10.16,1.67-10.16l-3.71-2.39a1,1,0,0,0-1.39.32,26.63,26.63,0,0,0-4.3,16.51C6,41.57,13.37,45,13.37,45H34.63s7.34-3.43,8-15.65a26.63,26.63,0,0,0-4.3-16.51A1,1,0,0,0,36.92,12.52Z"/><path id="_Path_15" data-name="&lt;Path&gt;" class="cls-12" d="M24,34.3a8.86,8.86,0,0,1-2.54-.37v2.14a2.54,2.54,0,1,0,5.08,0V33.93A8.86,8.86,0,0,1,24,34.3Z"/><path id="_Path_16" data-name="&lt;Path&gt;" class="cls-8" d="M24,34.3a8.86,8.86,0,0,1-2.54-.37,2.54,2.54,0,1,0,5.08,0A8.86,8.86,0,0,1,24,34.3Z"/><path id="_Path_17" data-name="&lt;Path&gt;" class="cls-4" d="M24,34.3a8.86,8.86,0,0,1-2.54-.37v2.14a2.54,2.54,0,1,0,5.08,0V33.93A8.86,8.86,0,0,1,24,34.3Z"/></svg>