<svg id="Icons" xmlns="http://www.w3.org/2000/svg" viewBox="0 0 48 48"><defs><style>.cls-1,.cls-11{fill:#45413c;}.cls-1{opacity:0.15;}.cls-2,.cls-7{fill:#00b8f0;}.cls-3{fill:#009fd9;}.cls-4{fill:none;}.cls-11,.cls-4,.cls-7,.cls-8{stroke:#45413c;stroke-linecap:round;stroke-linejoin:round;}.cls-5,.cls-8{fill:#ffe500;}.cls-6{fill:#ebcb00;}.cls-9{fill:#724f3d;}.cls-10{fill:#a86c4d;}.cls-12{fill:#ff6242;}.cls-13{fill:#ffa694;}.cls-14{fill:#ffaa54;}</style></defs><title>230-man-tipping-hand-1</title><ellipse id="_Ellipse_" data-name="&lt;Ellipse&gt;" class="cls-1" cx="24" cy="45.5" rx="15" ry="1.5"/><path id="_Path_" data-name="&lt;Path&gt;" class="cls-2" d="M35.88,45H12.12V43.1a11.88,11.88,0,1,1,23.76,0Z"/><path id="_Path_2" data-name="&lt;Path&gt;" class="cls-3" d="M24,31.22A11.88,11.88,0,0,0,12.12,43.1V45h.17a11.88,11.88,0,0,1,23.42,0h.17V43.1A11.88,11.88,0,0,0,24,31.22Z"/><path id="_Path_3" data-name="&lt;Path&gt;" class="cls-4" d="M35.88,45H12.12V43.1a11.88,11.88,0,1,1,23.76,0Z"/><path class="cls-5" d="M24,27.17a2.54,2.54,0,0,0-2.54,2.55v2.85a2.54,2.54,0,1,0,5.08,0V29.72A2.54,2.54,0,0,0,24,27.17Z"/><path class="cls-6" d="M24,27.17a2.54,2.54,0,0,0-2.54,2.55v.67a2.54,2.54,0,0,0,5.08,0v-.67A2.54,2.54,0,0,0,24,27.17Z"/><path class="cls-4" d="M24,27.17a2.54,2.54,0,0,0-2.54,2.55v2.85a2.54,2.54,0,1,0,5.08,0V29.72A2.54,2.54,0,0,0,24,27.17Z"/><line id="_Path_4" data-name="&lt;Path&gt;" class="cls-4" x1="17.06" y1="45" x2="17.06" y2="42.59"/><polygon id="_Path_5" data-name="&lt;Path&gt;" class="cls-7" points="37.75 45 31.75 45 32.79 29.68 37.75 29.68 37.75 45"/><path id="_Path_6" data-name="&lt;Path&gt;" class="cls-8" d="M35.73,28.46,39,28.11a.88.88,0,0,0,.78-1h0a.88.88,0,0,0-1-.78l-4.37.47Z"/><path id="_Path_7" data-name="&lt;Path&gt;" class="cls-8" d="M42,27.79l-4.15.44a4,4,0,0,0-3.46-1.4h0a1.87,1.87,0,0,0-1.66,2.05h0a1.87,1.87,0,0,0,2.06,1.66l7.42-.8A1,1,0,1,0,42,27.79Z"/><path id="_Path_8" data-name="&lt;Path&gt;" class="cls-9" d="M24,6.88a9.83,9.83,0,0,0-2.44.31c-1.86.42-4.28,1.12-6.47.7a4.17,4.17,0,0,0,.84,3.21,9.81,9.81,0,0,0-1.75,5.6v5.15H33.82V16.7A9.82,9.82,0,0,0,24,6.88Z"/><g id="_Group_" data-name="&lt;Group&gt;"><path id="_Path_9" data-name="&lt;Path&gt;" class="cls-10" d="M24,6.88a9.83,9.83,0,0,0-2.44.31c-1.86.42-4.28,1.12-6.47.7a4.47,4.47,0,0,0,.68,3,18.77,18.77,0,0,0,5.79-.79,9.81,9.81,0,0,1,12.26,9.52V16.7A9.82,9.82,0,0,0,24,6.88Z"/></g><path id="_Path_10" data-name="&lt;Path&gt;" class="cls-4" d="M24,6.88a9.83,9.83,0,0,0-2.44.31c-1.86.42-4.28,1.12-6.47.7a4.17,4.17,0,0,0,.84,3.21,9.81,9.81,0,0,0-1.75,5.6v5.15H33.82V16.7A9.82,9.82,0,0,0,24,6.88Z"/><path class="cls-8" d="M34.87,21.1a1.84,1.84,0,0,0-1.39-1.55l-.59-.16a2,2,0,0,1-1.5-2V15.35a1.86,1.86,0,0,0-1.4-1.8,15.53,15.53,0,0,1-6,1.08,15.53,15.53,0,0,1-6-1.08,1.86,1.86,0,0,0-1.4,1.8v2.06a2,2,0,0,1-1.5,2l-.59.16a1.84,1.84,0,0,0-1.39,1.55,1.8,1.8,0,0,0,1.81,2h.11a9,9,0,0,0,17.9,0h.11A1.8,1.8,0,0,0,34.87,21.1Z"/><path id="_Path_11" data-name="&lt;Path&gt;" class="cls-11" d="M18.57,20.88a.77.77,0,0,0,1.54,0,.77.77,0,0,0-1.54,0Z"/><path id="_Path_12" data-name="&lt;Path&gt;" class="cls-11" d="M29.43,20.88a.77.77,0,0,1-1.54,0,.77.77,0,0,1,1.54,0Z"/><g id="_Group_2" data-name="&lt;Group&gt;"><g id="_Group_3" data-name="&lt;Group&gt;"><g id="_Group_4" data-name="&lt;Group&gt;"><g id="_Group_5" data-name="&lt;Group&gt;"><g id="_Group_6" data-name="&lt;Group&gt;"><g id="_Group_7" data-name="&lt;Group&gt;"><g id="_Group_8" data-name="&lt;Group&gt;"><path id="_Path_13" data-name="&lt;Path&gt;" class="cls-12" d="M21.16,25.58a.41.41,0,0,0-.33.15.42.42,0,0,0-.1.35,3.32,3.32,0,0,0,6.54,0,.42.42,0,0,0-.1-.35.43.43,0,0,0-.33-.15Z"/><path id="_Path_14" data-name="&lt;Path&gt;" class="cls-13" d="M24,26.94a4,4,0,0,0-2.52.77,3.36,3.36,0,0,0,5,0A4,4,0,0,0,24,26.94Z"/></g></g></g></g></g></g></g><g id="_Group_9" data-name="&lt;Group&gt;"><path id="_Path_15" data-name="&lt;Path&gt;" class="cls-4" d="M21.16,25.58a.41.41,0,0,0-.33.15.42.42,0,0,0-.1.35,3.32,3.32,0,0,0,6.54,0,.42.42,0,0,0-.1-.35.43.43,0,0,0-.33-.15Z"/></g><ellipse id="_Ellipse_2" data-name="&lt;Ellipse&gt;" class="cls-14" cx="18.06" cy="24.17" rx="1" ry="0.6"/><ellipse id="_Ellipse_3" data-name="&lt;Ellipse&gt;" class="cls-14" cx="29.94" cy="24.17" rx="1" ry="0.6"/></svg>