<svg id="Icons" xmlns="http://www.w3.org/2000/svg" viewBox="0 0 48 48"><defs><style>.cls-1{fill:#a86c4d;}.cls-2{fill:#de926a;}.cls-3{fill:none;}.cls-11,.cls-3,.cls-7,.cls-8{stroke:#45413c;stroke-linecap:round;stroke-linejoin:round;}.cls-11,.cls-4{fill:#45413c;}.cls-4{opacity:0.15;}.cls-5,.cls-7{fill:#ff87af;}.cls-6{fill:#ff6196;}.cls-8,.cls-9{fill:#ffcebf;}.cls-10{fill:#ffb59e;}.cls-12{fill:#ff6242;}.cls-13{fill:#ffa694;}</style></defs><title>233-woman-tipping-hand-2</title><path id="_Path_" data-name="&lt;Path&gt;" class="cls-1" d="M34.88,31.21a1,1,0,0,1-1,1H14.12a1,1,0,0,1-1-1v-14a10.88,10.88,0,0,1,21.76,0Z"/><path id="_Path_2" data-name="&lt;Path&gt;" class="cls-2" d="M24,6.32A10.88,10.88,0,0,0,13.12,17.19v2.9a10.88,10.88,0,0,1,21.76,0v-2.9A10.88,10.88,0,0,0,24,6.32Z"/><path id="_Path_3" data-name="&lt;Path&gt;" class="cls-3" d="M34.88,31.21a1,1,0,0,1-1,1H14.12a1,1,0,0,1-1-1v-14a10.88,10.88,0,0,1,21.76,0Z"/><ellipse id="_Ellipse_" data-name="&lt;Ellipse&gt;" class="cls-4" cx="24" cy="45.5" rx="15" ry="1.5"/><path id="_Path_4" data-name="&lt;Path&gt;" class="cls-5" d="M35.88,45H12.12V43.1a11.88,11.88,0,1,1,23.76,0Z"/><path id="_Path_5" data-name="&lt;Path&gt;" class="cls-6" d="M24,31.22A11.88,11.88,0,0,0,12.12,43.1V45h.17a11.88,11.88,0,0,1,23.42,0h.17V43.1A11.88,11.88,0,0,0,24,31.22Z"/><path id="_Path_6" data-name="&lt;Path&gt;" class="cls-3" d="M35.88,45H12.12V43.1a11.88,11.88,0,1,1,23.76,0Z"/><line id="_Path_7" data-name="&lt;Path&gt;" class="cls-3" x1="17.06" y1="45" x2="17.06" y2="42.59"/><polygon id="_Path_8" data-name="&lt;Path&gt;" class="cls-7" points="37.75 45 31.75 45 32.79 29.68 37.75 29.68 37.75 45"/><path id="_Path_9" data-name="&lt;Path&gt;" class="cls-8" d="M35.73,28.46,39,28.11a.88.88,0,0,0,.78-1h0a.88.88,0,0,0-1-.78l-4.37.47Z"/><path id="_Path_10" data-name="&lt;Path&gt;" class="cls-8" d="M42,27.79l-4.15.44a4,4,0,0,0-3.46-1.4h0a1.87,1.87,0,0,0-1.66,2.05h0a1.87,1.87,0,0,0,2.06,1.66l7.42-.8A1,1,0,1,0,42,27.79Z"/><path class="cls-9" d="M24,27.17a2.54,2.54,0,0,0-2.54,2.55v2.85a2.54,2.54,0,1,0,5.08,0V29.72A2.54,2.54,0,0,0,24,27.17Z"/><path class="cls-10" d="M24,27.17a2.54,2.54,0,0,0-2.54,2.55v.67a2.54,2.54,0,0,0,5.08,0v-.67A2.54,2.54,0,0,0,24,27.17Z"/><path class="cls-3" d="M24,27.17a2.54,2.54,0,0,0-2.54,2.55v2.85a2.54,2.54,0,1,0,5.08,0V29.72A2.54,2.54,0,0,0,24,27.17Z"/><g id="_Group_" data-name="&lt;Group&gt;"><path id="_Path_11" data-name="&lt;Path&gt;" class="cls-8" d="M33.06,19.47a8.77,8.77,0,0,1-5.67-5L26.77,13a15.92,15.92,0,0,1-9.95,6.18l-1.89.34a1.81,1.81,0,0,0,0,3.62h.12a9,9,0,0,0,17.9,0h.11a1.81,1.81,0,1,0,0-3.62Z"/></g><path id="_Path_12" data-name="&lt;Path&gt;" class="cls-11" d="M18.57,20.91a.77.77,0,1,0,.77-.77A.76.76,0,0,0,18.57,20.91Z"/><path id="_Path_13" data-name="&lt;Path&gt;" class="cls-11" d="M29.43,20.91a.77.77,0,1,1-.77-.77A.76.76,0,0,1,29.43,20.91Z"/><g id="_Group_2" data-name="&lt;Group&gt;"><path id="_Path_14" data-name="&lt;Path&gt;" class="cls-12" d="M21.16,25.6a.44.44,0,0,0-.33.16.42.42,0,0,0-.1.35,3.32,3.32,0,0,0,6.54,0,.42.42,0,0,0-.1-.35.42.42,0,0,0-.33-.16Z"/><path id="_Path_15" data-name="&lt;Path&gt;" class="cls-13" d="M24,27a4,4,0,0,0-2.52.77,3.36,3.36,0,0,0,5,0A4,4,0,0,0,24,27Z"/></g><g id="_Group_3" data-name="&lt;Group&gt;"><path id="_Path_16" data-name="&lt;Path&gt;" class="cls-3" d="M21.16,25.6a.44.44,0,0,0-.33.16.42.42,0,0,0-.1.35,3.32,3.32,0,0,0,6.54,0,.42.42,0,0,0-.1-.35.42.42,0,0,0-.33-.16Z"/></g><ellipse id="_Ellipse_2" data-name="&lt;Ellipse&gt;" class="cls-10" cx="18.06" cy="24.19" rx="1" ry="0.6"/><ellipse id="_Ellipse_3" data-name="&lt;Ellipse&gt;" class="cls-10" cx="29.94" cy="24.19" rx="1" ry="0.6"/></svg>