<svg id="Icons" xmlns="http://www.w3.org/2000/svg" viewBox="0 0 48 48"><defs><style>.cls-1{fill:#a86c4d;}.cls-2{fill:#de926a;}.cls-3{fill:none;}.cls-3,.cls-4,.cls-5{stroke:#45413c;stroke-linecap:round;stroke-linejoin:round;}.cls-4,.cls-9{fill:#ffcebf;}.cls-11,.cls-5{fill:#45413c;}.cls-6{fill:#ff6242;}.cls-7{fill:#ffa694;}.cls-8{fill:#ffb59e;}.cls-10{fill:#ffdcd1;}.cls-11{opacity:0.15;}.cls-12{fill:#00b8f0;}.cls-13{fill:#009fd9;}</style></defs><title>235-man-raising-hand-2</title><path id="_Path_" data-name="&lt;Path&gt;" class="cls-1" d="M24,7a9.83,9.83,0,0,1,2.44.31c1.86.42,4.28,1.12,6.47.7a4.2,4.2,0,0,1-.84,3.21,9.81,9.81,0,0,1,1.75,5.6v5.14H14.18V16.79A9.82,9.82,0,0,1,24,7Z"/><g id="_Group_" data-name="&lt;Group&gt;"><path id="_Path_2" data-name="&lt;Path&gt;" class="cls-2" d="M24,7a9.83,9.83,0,0,1,2.44.31c1.86.42,4.28,1.12,6.47.7a4.47,4.47,0,0,1-.68,3,19.4,19.4,0,0,1-5.79-.79,9.81,9.81,0,0,0-12.26,9.51V16.79A9.82,9.82,0,0,1,24,7Z"/></g><path id="_Path_3" data-name="&lt;Path&gt;" class="cls-3" d="M24,7a9.83,9.83,0,0,1,2.44.31c1.86.42,4.28,1.12,6.47.7a4.2,4.2,0,0,1-.84,3.21,9.81,9.81,0,0,1,1.75,5.6v5.14H14.18V16.79A9.82,9.82,0,0,1,24,7Z"/><path class="cls-4" d="M13.13,21.18a1.83,1.83,0,0,1,1.39-1.54l.59-.16a2.06,2.06,0,0,0,1.5-2V15.44A1.88,1.88,0,0,1,18,13.63a15.34,15.34,0,0,0,6,1.09,15.34,15.34,0,0,0,6-1.09,1.88,1.88,0,0,1,1.4,1.81V17.5a2.06,2.06,0,0,0,1.5,2l.59.16a1.83,1.83,0,0,1,1.39,1.54,1.81,1.81,0,0,1-1.81,2H33a9,9,0,0,1-17.9,0h-.11A1.81,1.81,0,0,1,13.13,21.18Z"/><path id="_Path_4" data-name="&lt;Path&gt;" class="cls-5" d="M29.43,21a.77.77,0,1,1-.77-.77A.76.76,0,0,1,29.43,21Z"/><path id="_Path_5" data-name="&lt;Path&gt;" class="cls-5" d="M18.57,21a.77.77,0,1,0,.77-.77A.76.76,0,0,0,18.57,21Z"/><g id="_Group_2" data-name="&lt;Group&gt;"><g id="_Group_3" data-name="&lt;Group&gt;"><g id="_Group_4" data-name="&lt;Group&gt;"><g id="_Group_5" data-name="&lt;Group&gt;"><g id="_Group_6" data-name="&lt;Group&gt;"><g id="_Group_7" data-name="&lt;Group&gt;"><g id="_Group_8" data-name="&lt;Group&gt;"><path id="_Path_6" data-name="&lt;Path&gt;" class="cls-6" d="M26.84,25.66a.44.44,0,0,1,.33.16.42.42,0,0,1,.1.35,3.32,3.32,0,0,1-6.54,0,.42.42,0,0,1,.1-.35.42.42,0,0,1,.33-.16Z"/><path id="_Path_7" data-name="&lt;Path&gt;" class="cls-7" d="M24,27a4,4,0,0,1,2.52.77,3.36,3.36,0,0,1-5,0A4,4,0,0,1,24,27Z"/></g></g></g></g></g></g></g><g id="_Group_9" data-name="&lt;Group&gt;"><path id="_Path_8" data-name="&lt;Path&gt;" class="cls-3" d="M26.84,25.66a.44.44,0,0,1,.33.16.42.42,0,0,1,.1.35,3.32,3.32,0,0,1-6.54,0,.42.42,0,0,1,.1-.35.42.42,0,0,1,.33-.16Z"/></g><ellipse id="_Ellipse_" data-name="&lt;Ellipse&gt;" class="cls-8" cx="29.94" cy="24.25" rx="1" ry="0.6"/><ellipse id="_Ellipse_2" data-name="&lt;Ellipse&gt;" class="cls-8" cx="18.06" cy="24.25" rx="1" ry="0.6"/><path id="_Path_9" data-name="&lt;Path&gt;" class="cls-9" d="M16.67,10.7a1.1,1.1,0,0,0-.66-2h-.79a.28.28,0,0,1-.29-.31l.23-2.31a1.75,1.75,0,0,0-2.69-1.69A2.12,2.12,0,0,1,11,4.83a1.26,1.26,0,0,0-1.37,1,35.55,35.55,0,0,0-.73,8.66l4.86.35.12-2.07Z"/><path class="cls-10" d="M10.55,6.75a2.48,2.48,0,0,0,1.68-.43A2,2,0,0,1,15.07,7l.09-.89a1.75,1.75,0,0,0-2.69-1.69A2.12,2.12,0,0,1,11,4.83a1.26,1.26,0,0,0-1.37,1c-.08.43-.14.85-.21,1.27A1.43,1.43,0,0,1,10.55,6.75Z"/><path id="_Path_10" data-name="&lt;Path&gt;" class="cls-3" d="M16.67,10.7a1.1,1.1,0,0,0-.66-2h-.79a.28.28,0,0,1-.29-.31l.23-2.31a1.75,1.75,0,0,0-2.69-1.69A2.12,2.12,0,0,1,11,4.83a1.26,1.26,0,0,0-1.37,1,35.55,35.55,0,0,0-.73,8.66l4.86.35.12-2.07Z"/><ellipse id="_Ellipse_3" data-name="&lt;Ellipse&gt;" class="cls-11" cx="24" cy="45.5" rx="15" ry="1.5"/><path id="_Path_11" data-name="&lt;Path&gt;" class="cls-12" d="M24.15,31.22a11.8,11.8,0,0,0-4.18.7,3.49,3.49,0,0,1-4.58-2.19,37,37,0,0,1-1.17-15.61H8.16a97.42,97.42,0,0,0,0,13.8,53.2,53.2,0,0,0,4,17.08H35.88V43.49A12.14,12.14,0,0,0,24.15,31.22Z"/><g id="_Group_10" data-name="&lt;Group&gt;"><path id="_Path_12" data-name="&lt;Path&gt;" class="cls-13" d="M24.15,31.22a11.8,11.8,0,0,0-4.18.7,3.49,3.49,0,0,1-4.58-2.19,33.64,33.64,0,0,1-1.49-8.79A35.75,35.75,0,0,0,15.39,33,3.49,3.49,0,0,0,20,35.19a11.8,11.8,0,0,1,4.18-.7A12.07,12.07,0,0,1,35.75,45h.13V43.49A12.14,12.14,0,0,0,24.15,31.22Z"/></g><path id="_Path_13" data-name="&lt;Path&gt;" class="cls-3" d="M24.15,31.22a11.8,11.8,0,0,0-4.18.7,3.49,3.49,0,0,1-4.58-2.19,37,37,0,0,1-1.17-15.61H8.16a97.42,97.42,0,0,0,0,13.8,53.2,53.2,0,0,0,4,17.08H35.88V43.49A12.14,12.14,0,0,0,24.15,31.22Z"/><path class="cls-9" d="M24,30.86a8.86,8.86,0,0,1-2.54-.37v2.14a2.54,2.54,0,1,0,5.08,0V30.49A8.86,8.86,0,0,1,24,30.86Z"/><path class="cls-8" d="M24,30.86a8.86,8.86,0,0,1-2.54-.37,2.54,2.54,0,0,0,5.08,0A8.86,8.86,0,0,1,24,30.86Z"/><path class="cls-3" d="M24,30.86a8.86,8.86,0,0,1-2.54-.37v2.14a2.54,2.54,0,1,0,5.08,0V30.49A8.86,8.86,0,0,1,24,30.86Z"/></svg>