<svg id="Icons" xmlns="http://www.w3.org/2000/svg" viewBox="0 0 48 48"><defs><style>.cls-1,.cls-8{fill:#45413c;}.cls-1{opacity:0.15;}.cls-2{fill:#ff6196;}.cls-3{fill:#ff87af;}.cls-4{fill:none;}.cls-4,.cls-5,.cls-8{stroke:#45413c;stroke-linecap:round;stroke-linejoin:round;}.cls-5{fill:#ffe500;}.cls-6{fill:#724f3d;}.cls-7{fill:#a86c4d;}.cls-9{fill:#ffaa54;}</style></defs><title>240-woman-bowing-1</title><ellipse id="_Ellipse_" data-name="&lt;Ellipse&gt;" class="cls-1" cx="24" cy="45.5" rx="17" ry="1.5"/><path id="_Path_" data-name="&lt;Path&gt;" class="cls-2" d="M30.24,28.83H17.76a8.65,8.65,0,0,0-8,5.72L8.3,38.35C7.1,41.48,9.24,45,12.48,45h23c3.24,0,5.38-3.52,4.18-6.65l-1.47-3.8A8.65,8.65,0,0,0,30.24,28.83Z"/><path id="_Path_2" data-name="&lt;Path&gt;" class="cls-3" d="M39.7,38.35l-1.47-3.8a8.65,8.65,0,0,0-8-5.72H17.76a8.65,8.65,0,0,0-8,5.72L8.3,38.35A5,5,0,0,0,9.77,44a4.5,4.5,0,0,1,.25-.94l1.3-3.39a7.73,7.73,0,0,1,7.12-5.1H29.56a7.73,7.73,0,0,1,7.12,5.1L38,43.09a4.5,4.5,0,0,1,.25.94A5,5,0,0,0,39.7,38.35Z"/><path id="_Path_3" data-name="&lt;Path&gt;" class="cls-4" d="M30.24,28.83H17.76a8.65,8.65,0,0,0-8,5.72L8.3,38.35C7.1,41.48,9.24,45,12.48,45h23c3.24,0,5.38-3.52,4.18-6.65l-1.47-3.8A8.65,8.65,0,0,0,30.24,28.83Z"/><path id="_Path_4" data-name="&lt;Path&gt;" class="cls-5" d="M24,43.83A1.18,1.18,0,0,0,25.17,45h5.77V41.59l-2.37-.2a4.17,4.17,0,0,0-2.41.53l-1.56.88A1.18,1.18,0,0,0,24,43.83Z"/><line id="_Path_5" data-name="&lt;Path&gt;" class="cls-4" x1="30.94" y1="41.59" x2="33.49" y2="40.23"/><path id="_Path_6" data-name="&lt;Path&gt;" class="cls-5" d="M24,43.83A1.18,1.18,0,0,1,22.83,45H17.06V41.59l2.37-.2a4.17,4.17,0,0,1,2.41.53l1.56.88A1.18,1.18,0,0,1,24,43.83Z"/><line id="_Path_7" data-name="&lt;Path&gt;" class="cls-4" x1="17.06" y1="41.59" x2="14.51" y2="40.23"/><path id="_Path_8" data-name="&lt;Path&gt;" class="cls-6" d="M34.88,34.43A1.39,1.39,0,0,1,33,35.72h0a25,25,0,0,0-18,0h0a1.39,1.39,0,0,1-1.89-1.29V24.56a10.88,10.88,0,0,1,21.76,0Z"/><path id="_Path_9" data-name="&lt;Path&gt;" class="cls-7" d="M24,13.68A10.88,10.88,0,0,0,13.12,24.56v4.91a10.88,10.88,0,0,1,21.76,0V24.56A10.88,10.88,0,0,0,24,13.68Z"/><path id="_Path_10" data-name="&lt;Path&gt;" class="cls-4" d="M34.88,34.43A1.39,1.39,0,0,1,33,35.72h0a25,25,0,0,0-18,0h0a1.39,1.39,0,0,1-1.89-1.29V24.56a10.88,10.88,0,0,1,21.76,0Z"/><g id="_Group_" data-name="&lt;Group&gt;"><path id="_Path_11" data-name="&lt;Path&gt;" class="cls-5" d="M33.07,26.83a8,8,0,0,1-5.68-2.28l-.62-.73c-4,2.9-5.55,2.51-9.95,2.67l-1.89.34a1.82,1.82,0,0,0,0,3.63h.12a9,9,0,0,0,17.9,0h.12a1.82,1.82,0,0,0,0-3.63Z"/></g><path id="_Path_12" data-name="&lt;Path&gt;" class="cls-8" d="M18.57,31.23a.77.77,0,1,0,.77-.77A.77.77,0,0,0,18.57,31.23Z"/><path id="_Path_13" data-name="&lt;Path&gt;" class="cls-8" d="M29.43,31.23a.77.77,0,1,1-.77-.77A.77.77,0,0,1,29.43,31.23Z"/><ellipse id="_Ellipse_2" data-name="&lt;Ellipse&gt;" class="cls-9" cx="18.06" cy="33.72" rx="1" ry="0.6"/><ellipse id="_Ellipse_3" data-name="&lt;Ellipse&gt;" class="cls-9" cx="29.94" cy="33.72" rx="1" ry="0.6"/><line id="_Path_14" data-name="&lt;Path&gt;" class="cls-4" x1="22.8" y1="35.48" x2="25.2" y2="35.48"/><path id="_Path_15" data-name="&lt;Path&gt;" class="cls-5" d="M27.89,9.6l2-3.07a.51.51,0,0,0-.29-.76l-2.23-.58a.51.51,0,0,0-.63.52L27,9.36A.5.5,0,0,0,27.89,9.6Z"/><path id="_Path_16" data-name="&lt;Path&gt;" class="cls-5" d="M34.46,12.46l2.86-2.27a.5.5,0,0,0,0-.81L35.36,8.11a.51.51,0,0,0-.76.29l-.94,3.54A.5.5,0,0,0,34.46,12.46Z"/><path id="_Path_17" data-name="&lt;Path&gt;" class="cls-5" d="M20.11,9.6l-2-3.07a.5.5,0,0,1,.29-.76l2.23-.58a.51.51,0,0,1,.63.52L21,9.36A.5.5,0,0,1,20.11,9.6Z"/><path id="_Path_18" data-name="&lt;Path&gt;" class="cls-5" d="M13.54,12.46l-2.86-2.27a.5.5,0,0,1,0-.81l1.92-1.27a.51.51,0,0,1,.76.29l.94,3.54A.5.5,0,0,1,13.54,12.46Z"/></svg>