<svg id="Icons" xmlns="http://www.w3.org/2000/svg" viewBox="0 0 48 48"><defs><style>.cls-1{fill:#45413c;opacity:0.15;}.cls-2{fill:#00b8f0;}.cls-3{fill:#009fd9;}.cls-4{fill:none;}.cls-4,.cls-5,.cls-8{stroke:#45413c;stroke-linecap:round;stroke-linejoin:round;}.cls-5,.cls-9{fill:#ffb59e;}.cls-6{fill:#a86c4d;}.cls-7{fill:#de926a;}.cls-8{fill:#ffcebf;}.cls-10{fill:#4acfff;}</style></defs><title>243-man-facepalming-2</title><ellipse id="_Ellipse_" data-name="&lt;Ellipse&gt;" class="cls-1" cx="24" cy="45.5" rx="13.5" ry="1.5"/><path id="_Rectangle_" data-name="&lt;Rectangle&gt;" class="cls-2" d="M24,31.22h0A11.88,11.88,0,0,1,35.88,43.1V45a0,0,0,0,1,0,0H12.12a0,0,0,0,1,0,0V43.1A11.88,11.88,0,0,1,24,31.22Z"/><path id="_Path_" data-name="&lt;Path&gt;" class="cls-3" d="M24,31.22h0A11.88,11.88,0,0,0,12.12,43.1V45h.07A11.88,11.88,0,0,1,24,34.43h0A11.88,11.88,0,0,1,35.81,45h.07V43.1A11.88,11.88,0,0,0,24,31.22Z"/><path id="_Rectangle_2" data-name="&lt;Rectangle&gt;" class="cls-4" d="M24,31.22h0A11.88,11.88,0,0,1,35.88,43.1V45a0,0,0,0,1,0,0H12.12a0,0,0,0,1,0,0V43.1A11.88,11.88,0,0,1,24,31.22Z"/><line id="_Path_2" data-name="&lt;Path&gt;" class="cls-4" x1="17.06" y1="45" x2="17.06" y2="42.59"/><line id="_Path_3" data-name="&lt;Path&gt;" class="cls-4" x1="30.94" y1="45" x2="30.94" y2="42.59"/><rect id="_Rectangle_3" data-name="&lt;Rectangle&gt;" class="cls-5" x="21.46" y="27.17" width="5.09" height="7.94" rx="2.54" ry="2.54"/><path id="_Path_4" data-name="&lt;Path&gt;" class="cls-6" d="M24,6.91a9.83,9.83,0,0,0-2.44.31c-1.86.42-4.28,1.12-6.47.7a4.2,4.2,0,0,0,.84,3.21,9.81,9.81,0,0,0-1.75,5.6v5.14H33.82V16.73A9.82,9.82,0,0,0,24,6.91Z"/><g id="_Group_" data-name="&lt;Group&gt;"><path id="_Path_5" data-name="&lt;Path&gt;" class="cls-7" d="M24,6.91a9.83,9.83,0,0,0-2.44.31c-1.86.42-4.28,1.12-6.47.7a4.47,4.47,0,0,0,.68,3,19.4,19.4,0,0,0,5.79-.79,9.81,9.81,0,0,1,12.26,9.51V16.73A9.82,9.82,0,0,0,24,6.91Z"/></g><path id="_Path_6" data-name="&lt;Path&gt;" class="cls-4" d="M24,6.91a9.83,9.83,0,0,0-2.44.31c-1.86.42-4.28,1.12-6.47.7a4.2,4.2,0,0,0,.84,3.21,9.81,9.81,0,0,0-1.75,5.6v5.14H33.82V16.73A9.82,9.82,0,0,0,24,6.91Z"/><path class="cls-8" d="M34.87,21.12a1.83,1.83,0,0,0-1.39-1.54l-.59-.16a2.06,2.06,0,0,1-1.5-2V15.38A1.88,1.88,0,0,0,30,13.57a15.34,15.34,0,0,1-6,1.09,15.34,15.34,0,0,1-6-1.09,1.88,1.88,0,0,0-1.4,1.81v2.06a2.06,2.06,0,0,1-1.5,2l-.59.16a1.83,1.83,0,0,0-1.39,1.54,1.81,1.81,0,0,0,1.81,2h.11a9,9,0,0,0,17.9,0h.11A1.81,1.81,0,0,0,34.87,21.12Z"/><ellipse id="_Ellipse_2" data-name="&lt;Ellipse&gt;" class="cls-9" cx="18.06" cy="24.19" rx="1" ry="0.6"/><path id="_Path_7" data-name="&lt;Path&gt;" class="cls-8" d="M30,28a5.69,5.69,0,0,0,.33-1.61c0-.79-.33-2.74.29-3.78a11.06,11.06,0,0,1,.64-1,.52.52,0,0,0-.11-.73h0a1.34,1.34,0,0,0-1.68.06h0a2.69,2.69,0,0,0-.85,1.45L28.5,23l-1.77-5.44a.85.85,0,0,0-1-.57h0a.85.85,0,0,0-.65,1.07l1.11,3.81-1.94-4.18A.91.91,0,0,0,23,17.29h0a.91.91,0,0,0-.42,1.14l1.63,4.28-1.85-3.42a.8.8,0,0,0-1.1-.32h0A.81.81,0,0,0,20.93,20l1.69,3.38-1.29-1.89A.86.86,0,0,0,20,21.37h0a.87.87,0,0,0-.2,1,61.55,61.55,0,0,0,3.38,6.48c.85,1,1.22,1.18,1.92,1.27C26.21,30.26,29.45,28.87,30,28Z"/><path id="_Path_8" data-name="&lt;Path&gt;" class="cls-2" d="M28.86,45,24.11,31.7a1,1,0,0,1,.52-1.24l4.85-2.3a1,1,0,0,1,1.34.49L38.13,45Z"/><path id="_Path_9" data-name="&lt;Path&gt;" class="cls-10" d="M24.73,33.43l3.87-1.84a1,1,0,0,1,1.35.5L35.72,45h2.41L30.82,28.65a1,1,0,0,0-1.34-.49l-4.85,2.3a1,1,0,0,0-.52,1.24Z"/><path id="_Path_10" data-name="&lt;Path&gt;" class="cls-4" d="M28.86,45,24.11,31.7a1,1,0,0,1,.52-1.24l4.85-2.3a1,1,0,0,1,1.34.49L38.13,45Z"/></svg>