<svg id="Icons" xmlns="http://www.w3.org/2000/svg" viewBox="0 0 48 48"><defs><style>.cls-1,.cls-12{fill:#45413c;}.cls-1{opacity:0.15;}.cls-2{fill:#00b8f0;}.cls-3{fill:#009fd9;}.cls-4{fill:none;}.cls-11,.cls-12,.cls-4,.cls-7,.cls-8{stroke:#45413c;stroke-linecap:round;stroke-linejoin:round;}.cls-11,.cls-5{fill:#ffe500;}.cls-6{fill:#ebcb00;}.cls-7{fill:#daedf7;}.cls-13,.cls-8{fill:#ff6242;}.cls-9{fill:#724f3d;}.cls-10{fill:#a86c4d;}.cls-14{fill:#ffa694;}.cls-15{fill:#ffaa54;}</style></defs><title>254-man-getting-haircut-1</title><ellipse id="_Ellipse_" data-name="&lt;Ellipse&gt;" class="cls-1" cx="20.38" cy="45.5" rx="15" ry="1.5"/><path id="_Path_" data-name="&lt;Path&gt;" class="cls-2" d="M32.26,45H8.5V43.1a11.88,11.88,0,1,1,23.76,0Z"/><path id="_Path_2" data-name="&lt;Path&gt;" class="cls-3" d="M20.38,31.22A11.88,11.88,0,0,0,8.5,43.1V45h.17a11.88,11.88,0,0,1,23.42,0h.17V43.1A11.88,11.88,0,0,0,20.38,31.22Z"/><path id="_Path_3" data-name="&lt;Path&gt;" class="cls-4" d="M32.26,45H8.5V43.1a11.88,11.88,0,1,1,23.76,0Z"/><path class="cls-5" d="M20.38,27.17a2.55,2.55,0,0,0-2.55,2.55v2.85a2.55,2.55,0,0,0,5.09,0V29.72A2.55,2.55,0,0,0,20.38,27.17Z"/><path id="_Path_4" data-name="&lt;Path&gt;" class="cls-6" d="M20.38,27.17a2.55,2.55,0,0,0-2.55,2.54v.6a2.55,2.55,0,0,0,5.09,0v-.59A2.55,2.55,0,0,0,20.38,27.17Z"/><path class="cls-4" d="M20.38,27.17a2.55,2.55,0,0,0-2.55,2.55v2.85a2.55,2.55,0,0,0,5.09,0V29.72A2.55,2.55,0,0,0,20.38,27.17Z"/><line id="_Path_5" data-name="&lt;Path&gt;" class="cls-4" x1="13.44" y1="45" x2="13.44" y2="42.59"/><line id="_Path_6" data-name="&lt;Path&gt;" class="cls-4" x1="27.32" y1="45" x2="27.32" y2="42.59"/><path class="cls-7" d="M38.47,9.92,28.14,11.69a2.82,2.82,0,0,0-2.29,3.24l10.51-1.8a3.94,3.94,0,0,0,2.42-1.46Z"/><path id="_Compound_Path_" data-name="&lt;Compound Path&gt;" class="cls-8" d="M43.1,7.05a2.91,2.91,0,0,0-2.39,2.48l-2.24.39.31,1.75L41,11.29A2.92,2.92,0,1,0,43.1,7.05ZM43.38,9a1,1,0,1,1-.82,1.17A1,1,0,0,1,43.38,9Z"/><path id="_Path_7" data-name="&lt;Path&gt;" class="cls-9" d="M29.4,12.84a10,10,0,0,0-9-5.93,9.77,9.77,0,0,0-2.44.31c-1.86.42-4.28,1.12-6.47.7a4.15,4.15,0,0,0,.84,3.21,9.74,9.74,0,0,0-1.75,5.6v5.14H30.2V20.14c3.43.24,6.87-2.65,6.91-6.09C34.42,16,30.67,15.56,29.4,12.84Z"/><path class="cls-10" d="M17.94,10.14a9.77,9.77,0,0,1,2.44-.31,10,10,0,0,1,9,5.94c1.05,2.23,3.78,2.94,6.21,2a5.86,5.86,0,0,0,1.5-3.74c-2.69,2-6.44,1.51-7.71-1.21a10,10,0,0,0-9-5.93,9.77,9.77,0,0,0-2.44.31c-1.86.42-4.28,1.12-6.47.7a4.5,4.5,0,0,0,.68,3A19.39,19.39,0,0,0,17.94,10.14Z"/><path id="_Path_8" data-name="&lt;Path&gt;" class="cls-4" d="M29.4,12.84a10,10,0,0,0-9-5.93,9.77,9.77,0,0,0-2.44.31c-1.86.42-4.28,1.12-6.47.7a4.15,4.15,0,0,0,.84,3.21,9.74,9.74,0,0,0-1.75,5.6v5.14H30.2V20.14c3.43.24,6.87-2.65,6.91-6.09C34.42,16,30.67,15.56,29.4,12.84Z"/><path class="cls-7" d="M37,9.91a3.81,3.81,0,0,0-1.28,2.51L34.65,23a2.81,2.81,0,0,0,3.08-2.5l1.06-10.43Z"/><path id="_Compound_Path_2" data-name="&lt;Compound Path&gt;" class="cls-8" d="M38.72,2.07a2.92,2.92,0,0,0-1.47,5.58L37,9.91l1.77.18L39,7.83a2.92,2.92,0,0,0-.31-5.76Zm-.4,4a1,1,0,1,1,1.1-.9A1,1,0,0,1,38.32,6Z"/><path class="cls-11" d="M31.25,21.12a1.83,1.83,0,0,0-1.39-1.54l-.59-.16a2.06,2.06,0,0,1-1.5-2V15.38a1.88,1.88,0,0,0-1.4-1.81,15.37,15.37,0,0,1-6,1.09,15.34,15.34,0,0,1-6-1.09A1.87,1.87,0,0,0,13,15.38v2.06a2.07,2.07,0,0,1-1.5,2l-.59.16a1.83,1.83,0,0,0-1.39,1.54,1.81,1.81,0,0,0,1.8,2h.11a9.05,9.05,0,0,0,17.91,0h.11A1.81,1.81,0,0,0,31.25,21.12Z"/><path id="_Path_9" data-name="&lt;Path&gt;" class="cls-12" d="M14.94,20.91a.78.78,0,1,0,.78-.77A.77.77,0,0,0,14.94,20.91Z"/><path id="_Path_10" data-name="&lt;Path&gt;" class="cls-12" d="M25.81,20.91a.77.77,0,1,1-.77-.77A.76.76,0,0,1,25.81,20.91Z"/><g id="_Group_" data-name="&lt;Group&gt;"><g id="_Group_2" data-name="&lt;Group&gt;"><g id="_Group_3" data-name="&lt;Group&gt;"><g id="_Group_4" data-name="&lt;Group&gt;"><g id="_Group_5" data-name="&lt;Group&gt;"><g id="_Group_6" data-name="&lt;Group&gt;"><g id="_Group_7" data-name="&lt;Group&gt;"><path id="_Path_11" data-name="&lt;Path&gt;" class="cls-13" d="M17.54,25.6a.42.42,0,0,0-.33.16.46.46,0,0,0-.11.35,3.32,3.32,0,0,0,6.55,0,.45.45,0,0,0-.1-.35.44.44,0,0,0-.34-.16Z"/><path id="_Path_12" data-name="&lt;Path&gt;" class="cls-14" d="M20.38,27a4,4,0,0,0-2.52.77,3.36,3.36,0,0,0,5,0A4,4,0,0,0,20.38,27Z"/></g></g></g></g></g></g></g><g id="_Group_8" data-name="&lt;Group&gt;"><path id="_Path_13" data-name="&lt;Path&gt;" class="cls-4" d="M17.54,25.6a.42.42,0,0,0-.33.16.46.46,0,0,0-.11.35,3.32,3.32,0,0,0,6.55,0,.45.45,0,0,0-.1-.35.44.44,0,0,0-.34-.16Z"/></g><ellipse id="_Ellipse_2" data-name="&lt;Ellipse&gt;" class="cls-15" cx="14.44" cy="24.19" rx="1" ry="0.6"/><ellipse id="_Ellipse_3" data-name="&lt;Ellipse&gt;" class="cls-15" cx="26.32" cy="24.19" rx="1" ry="0.6"/></svg>