<svg id="Icons" xmlns="http://www.w3.org/2000/svg" viewBox="0 0 48 48"><defs><style>.cls-1{fill:#00b8f0;}.cls-2{fill:#009fd9;}.cls-3{fill:none;}.cls-3,.cls-5,.cls-7{stroke:#45413c;stroke-linecap:round;stroke-linejoin:round;}.cls-4{fill:#45413c;opacity:0.15;}.cls-11,.cls-5{fill:#ffe500;}.cls-6{fill:#ff6242;}.cls-7{fill:#656769;}.cls-8{fill:#ff866e;}.cls-9{fill:#724f3d;}.cls-10{fill:#a86c4d;}.cls-12{fill:#ebcb00;}</style></defs><title>258-man-walking-1</title><path id="_Path_" data-name="&lt;Path&gt;" class="cls-1" d="M20.2,29.53l-1,1.61a14,14,0,0,0-2.11,7.39V42h4.77V38.14a9,9,0,0,1,1.46-4.91l2.41-3.7Z"/><path id="_Path_2" data-name="&lt;Path&gt;" class="cls-2" d="M19.2,31.14A14,14,0,0,0,18,33.66h5.09c.08-.15.17-.29.26-.43l2.41-3.7H20.2Z"/><path id="_Path_3" data-name="&lt;Path&gt;" class="cls-3" d="M20.2,29.53l-1,1.61a14,14,0,0,0-2.11,7.39V42h4.77V38.14a9,9,0,0,1,1.46-4.91l2.41-3.7Z"/><path id="_Path_4" data-name="&lt;Path&gt;" class="cls-1" d="M22.39,29.53l.2,1.45a14,14,0,0,0,6.76,10.16l.81.48,2.55-4.37-1.06-.61a9,9,0,0,1-4.39-6.44l-.1-.67Z"/><path id="_Path_5" data-name="&lt;Path&gt;" class="cls-2" d="M27.26,30.2l-.1-.67H22.39l.2,1.45a13.42,13.42,0,0,0,.64,2.68h5.33A9,9,0,0,1,27.26,30.2Z"/><path id="_Path_6" data-name="&lt;Path&gt;" class="cls-3" d="M22.39,29.53l.2,1.45a14,14,0,0,0,6.76,10.16l.81.48,2.55-4.37-1.06-.61a9,9,0,0,1-4.39-6.44l-.1-.67Z"/><ellipse id="_Ellipse_" data-name="&lt;Ellipse&gt;" class="cls-4" cx="24.67" cy="45.6" rx="11.5" ry="1.5"/><circle id="_Path_7" data-name="&lt;Path&gt;" class="cls-5" cx="23.53" cy="11.38" r="5.02"/><g id="_Group_" data-name="&lt;Group&gt;"><path id="_Path_8" data-name="&lt;Path&gt;" class="cls-6" d="M27.16,29.53h-7c-.24-1-.57-1.73.14-5.65.57-3.11,1.65-5.65,3.38-5.65h0a2.15,2.15,0,0,1,2.18,1.69Z"/><path id="_Path_9" data-name="&lt;Path&gt;" class="cls-3" d="M27.16,29.53h-7c-.24-1-.57-1.73.14-5.65.57-3.11,1.65-5.65,3.38-5.65h0a2.15,2.15,0,0,1,2.18,1.69Z"/></g><path id="_Rectangle_" data-name="&lt;Rectangle&gt;" class="cls-7" d="M18.3,42h3.56a0,0,0,0,1,0,0v2a1,1,0,0,1-1,1H15.34a0,0,0,0,1,0,0v0A3,3,0,0,1,18.3,42Z"/><path id="_Rectangle_2" data-name="&lt;Rectangle&gt;" class="cls-7" d="M32.05,39.33h3.56a0,0,0,0,1,0,0v2a1,1,0,0,1-1,1H29.09a0,0,0,0,1,0,0v0A3,3,0,0,1,32.05,39.33Z" transform="translate(-19.21 48.17) rotate(-59.72)"/><g id="_Group_2" data-name="&lt;Group&gt;"><path id="_Rectangle_3" data-name="&lt;Rectangle&gt;" class="cls-6" d="M24,18.22h0a2,2,0,0,1,2,2v4.2a0,0,0,0,1,0,0H22a0,0,0,0,1,0,0V20.2a2,2,0,0,1,2-2Z" transform="translate(-2.47 3.16) rotate(-7.16)"/><path id="_Path_10" data-name="&lt;Path&gt;" class="cls-8" d="M23.61,18.24a2,2,0,0,0-1.72,2.22l.27,2.12a2,2,0,1,1,3.94-.5L25.83,20A2,2,0,0,0,23.61,18.24Z"/><path id="_Rectangle_4" data-name="&lt;Rectangle&gt;" class="cls-3" d="M24,18.22h0a2,2,0,0,1,2,2v4.2a0,0,0,0,1,0,0H22a0,0,0,0,1,0,0V20.2a2,2,0,0,1,2-2Z" transform="translate(-2.47 3.16) rotate(-7.16)"/></g><path id="_Path_11" data-name="&lt;Path&gt;" class="cls-9" d="M25.85,6a6.3,6.3,0,0,0-4.56-.15,2.45,2.45,0,0,1-2.78-.5s-1.85,3.18.31,4.34a7.57,7.57,0,0,0,5-.17l-.25,1.73s1.14-.65,1.76.05.3,2.66-1,2.47a2.67,2.67,0,0,0,.94,2.38,5,5,0,0,0,3.25-4C28.9,9.36,28.32,7.39,25.85,6Z"/><g id="_Group_3" data-name="&lt;Group&gt;"><path id="_Path_12" data-name="&lt;Path&gt;" class="cls-10" d="M18.22,8a.48.48,0,0,1,.31-.28.49.49,0,0,1,.41,0,2.7,2.7,0,0,0,2.35.14,6.29,6.29,0,0,1,4.56.16,5,5,0,0,1,2.7,3.69c.3-2.57-.33-4.44-2.7-5.82a6.3,6.3,0,0,0-4.56-.15,2.45,2.45,0,0,1-2.78-.5s-1.18,2-.55,3.44C18,8.47,18.14,8.22,18.22,8Z"/></g><path id="_Path_13" data-name="&lt;Path&gt;" class="cls-3" d="M25.85,6a6.3,6.3,0,0,0-4.56-.15,2.45,2.45,0,0,1-2.78-.5s-1.85,3.18.31,4.34a7.57,7.57,0,0,0,5-.17l-.25,1.73s1.14-.65,1.76.05.3,2.66-1,2.47a2.67,2.67,0,0,0,.94,2.38,5,5,0,0,0,3.25-4C28.9,9.36,28.32,7.39,25.85,6Z"/><g id="_Group_4" data-name="&lt;Group&gt;"><path id="_Path_14" data-name="&lt;Path&gt;" class="cls-11" d="M22.63,24.6l.12,1a6.15,6.15,0,0,1-.22,2.52l-.85,2.73a1.65,1.65,0,0,0,1,2h0a1.65,1.65,0,0,0,2.15-1.06L25.68,29A10,10,0,0,0,26,24.82L26,24.18Z"/><path id="_Path_15" data-name="&lt;Path&gt;" class="cls-12" d="M22.75,25.56a5.1,5.1,0,0,1,0,.78l3.33-.42a10,10,0,0,0-.08-1.1L26,24.18l-3.33.42Z"/><path id="_Path_16" data-name="&lt;Path&gt;" class="cls-3" d="M22.63,24.6l.12,1a6.15,6.15,0,0,1-.22,2.52l-.85,2.73a1.65,1.65,0,0,0,1,2h0a1.65,1.65,0,0,0,2.15-1.06L25.68,29A10,10,0,0,0,26,24.82L26,24.18Z"/></g></svg>