<svg id="Icons" xmlns="http://www.w3.org/2000/svg" viewBox="0 0 48 48"><defs><style>.cls-1{fill:#00b8f0;}.cls-2{fill:#009fd9;}.cls-3{fill:none;}.cls-3,.cls-5,.cls-7{stroke:#45413c;stroke-linecap:round;stroke-linejoin:round;}.cls-4{fill:#45413c;opacity:0.15;}.cls-11,.cls-5{fill:#ffcebf;}.cls-6{fill:#ff6242;}.cls-7{fill:#656769;}.cls-8{fill:#ff866e;}.cls-9{fill:#a86c4d;}.cls-10{fill:#de926a;}.cls-12{fill:#ffb59e;}</style></defs><title>259-man-walking-2</title><path id="_Path_" data-name="&lt;Path&gt;" class="cls-1" d="M20,28.7l-1.06,1.68a14.83,14.83,0,0,0-2.22,7.8v3.69h5v-4.1a9.52,9.52,0,0,1,1.54-5.18l2.54-3.89Z"/><path id="_Path_2" data-name="&lt;Path&gt;" class="cls-2" d="M18.94,30.38A15.22,15.22,0,0,0,17.64,33H23c.08-.15.18-.3.27-.45l2.54-3.89H20Z"/><path id="_Path_3" data-name="&lt;Path&gt;" class="cls-3" d="M20,28.7l-1.06,1.68a14.83,14.83,0,0,0-2.22,7.8v3.69h5v-4.1a9.52,9.52,0,0,1,1.54-5.18l2.54-3.89Z"/><path id="_Path_4" data-name="&lt;Path&gt;" class="cls-1" d="M22.3,28.7l.21,1.52a14.8,14.8,0,0,0,7.13,10.71l.86.5,2.68-4.6-1.12-.65a9.48,9.48,0,0,1-4.62-6.78l-.11-.7Z"/><path id="_Path_5" data-name="&lt;Path&gt;" class="cls-2" d="M27.44,29.4l-.11-.7h-5l.21,1.52A14,14,0,0,0,23.19,33H28.8A9.49,9.49,0,0,1,27.44,29.4Z"/><path id="_Path_6" data-name="&lt;Path&gt;" class="cls-3" d="M22.3,28.7l.21,1.52a14.8,14.8,0,0,0,7.13,10.71l.86.5,2.68-4.6-1.12-.65a9.48,9.48,0,0,1-4.62-6.78l-.11-.7Z"/><ellipse id="_Ellipse_" data-name="&lt;Ellipse&gt;" class="cls-4" cx="24.71" cy="45.64" rx="12.12" ry="1.58"/><circle id="_Path_7" data-name="&lt;Path&gt;" class="cls-5" cx="23.51" cy="9.55" r="5.29"/><g id="_Group_" data-name="&lt;Group&gt;"><path id="_Path_8" data-name="&lt;Path&gt;" class="cls-6" d="M27.33,28.7H20c-.25-1.06-.61-1.84.14-6,.6-3.28,1.74-6,3.56-6h0A2.28,2.28,0,0,1,26,18.56Z"/><path id="_Path_9" data-name="&lt;Path&gt;" class="cls-3" d="M27.33,28.7H20c-.25-1.06-.61-1.84.14-6,.6-3.28,1.74-6,3.56-6h0A2.28,2.28,0,0,1,26,18.56Z"/></g><path id="_Rectangle_" data-name="&lt;Rectangle&gt;" class="cls-7" d="M18,41.87h3.75a0,0,0,0,1,0,0v2.07A1.05,1.05,0,0,1,20.69,45H14.87a0,0,0,0,1,0,0v0A3.13,3.13,0,0,1,18,41.87Z"/><path id="_Rectangle_2" data-name="&lt;Rectangle&gt;" class="cls-7" d="M32.49,39h3.75a0,0,0,0,1,0,0V41.1a1.05,1.05,0,0,1-1.05,1.05H29.36a0,0,0,0,1,0,0v0A3.13,3.13,0,0,1,32.49,39Z" transform="translate(-18.79 48.45) rotate(-59.72)"/><g id="_Group_2" data-name="&lt;Group&gt;"><path id="_Rectangle_3" data-name="&lt;Rectangle&gt;" class="cls-6" d="M24,16.77h0a2.09,2.09,0,0,1,2.09,2.09v4.42a0,0,0,0,1,0,0H21.91a0,0,0,0,1,0,0V18.86A2.09,2.09,0,0,1,24,16.77Z" transform="translate(-2.31 3.15) rotate(-7.16)"/><path id="_Path_10" data-name="&lt;Path&gt;" class="cls-8" d="M23.59,16.79a2.1,2.1,0,0,0-1.81,2.34l.28,2.23a2.09,2.09,0,0,1,4.15-.52l-.28-2.23A2.1,2.1,0,0,0,23.59,16.79Z"/><path id="_Rectangle_4" data-name="&lt;Rectangle&gt;" class="cls-3" d="M24,16.77h0a2.09,2.09,0,0,1,2.09,2.09v4.42a0,0,0,0,1,0,0H21.91a0,0,0,0,1,0,0V18.86A2.09,2.09,0,0,1,24,16.77Z" transform="translate(-2.31 3.15) rotate(-7.16)"/></g><path id="_Path_11" data-name="&lt;Path&gt;" class="cls-9" d="M26,3.83a6.65,6.65,0,0,0-4.81-.16,2.57,2.57,0,0,1-2.93-.53s-1.94,3.36.33,4.58a8,8,0,0,0,5.26-.18l-.27,1.83s1.21-.69,1.86.05.32,2.81-1.07,2.6a2.84,2.84,0,0,0,1,2.51,5.28,5.28,0,0,0,3.44-4.21C29.17,7.42,28.55,5.35,26,3.83Z"/><g id="_Group_3" data-name="&lt;Group&gt;"><path id="_Path_12" data-name="&lt;Path&gt;" class="cls-10" d="M17.91,6a.56.56,0,0,1,.32-.3.61.61,0,0,1,.44,0,2.84,2.84,0,0,0,2.47.15A6.65,6.65,0,0,1,26,6.08,5.23,5.23,0,0,1,28.79,10c.32-2.71-.34-4.68-2.84-6.14a6.65,6.65,0,0,0-4.81-.16,2.57,2.57,0,0,1-2.93-.53S17,5.29,17.63,6.78C17.72,6.49,17.82,6.23,17.91,6Z"/></g><path id="_Path_13" data-name="&lt;Path&gt;" class="cls-3" d="M26,3.83a6.65,6.65,0,0,0-4.81-.16,2.57,2.57,0,0,1-2.93-.53s-1.94,3.36.33,4.58a8,8,0,0,0,5.26-.18l-.27,1.83s1.21-.69,1.86.05.32,2.81-1.07,2.6a2.84,2.84,0,0,0,1,2.51,5.28,5.28,0,0,0,3.44-4.21C29.17,7.42,28.55,5.35,26,3.83Z"/><g id="_Group_4" data-name="&lt;Group&gt;"><path id="_Path_14" data-name="&lt;Path&gt;" class="cls-11" d="M22.55,23.49l.13,1a6.47,6.47,0,0,1-.23,2.66L21.55,30a1.74,1.74,0,0,0,1.05,2.14h0a1.74,1.74,0,0,0,2.27-1.12l.9-2.93a10.44,10.44,0,0,0,.38-4.41l-.08-.67Z"/><path id="_Path_15" data-name="&lt;Path&gt;" class="cls-12" d="M22.68,24.5a7.7,7.7,0,0,1,.05.83l3.5-.44a9.2,9.2,0,0,0-.08-1.17l-.08-.67-3.52.44Z"/><path id="_Path_16" data-name="&lt;Path&gt;" class="cls-3" d="M22.55,23.49l.13,1a6.47,6.47,0,0,1-.23,2.66L21.55,30a1.74,1.74,0,0,0,1.05,2.14h0a1.74,1.74,0,0,0,2.27-1.12l.9-2.93a10.44,10.44,0,0,0,.38-4.41l-.08-.67Z"/></g></svg>