<svg id="Icons" xmlns="http://www.w3.org/2000/svg" viewBox="0 0 48 48"><defs><style>.cls-1{fill:#656769;}.cls-1,.cls-11,.cls-4,.cls-5{stroke:#45413c;stroke-linecap:round;stroke-linejoin:round;}.cls-2{fill:#00b8f0;}.cls-3{fill:#009fd9;}.cls-4{fill:none;}.cls-5{fill:#e04122;}.cls-6{fill:#45413c;opacity:0.15;}.cls-7{fill:#ff6242;}.cls-8{fill:#ff866e;}.cls-11,.cls-9{fill:#ffcebf;}.cls-10{fill:#ffb59e;}.cls-12{fill:#a86c4d;}.cls-13{fill:#de926a;}</style></defs><title>263-man-running-2</title><path id="_Rectangle_" data-name="&lt;Rectangle&gt;" class="cls-1" d="M38.07,36h4a0,0,0,0,1,0,0v2.22A1.13,1.13,0,0,1,41,39.37H34.73a0,0,0,0,1,0,0v0A3.34,3.34,0,0,1,38.07,36Z" transform="translate(-5.97 68.14) rotate(-78.92)"/><path id="_Path_" data-name="&lt;Path&gt;" class="cls-2" d="M24.36,28.52a2.67,2.67,0,0,0-.43,3.74l1.53,1.93a11.27,11.27,0,0,0,6.76,4.07l4.22.79,1-5.28-3.69-.7a7.91,7.91,0,0,1-4.8-3L28.14,29a2.66,2.66,0,0,0-3.78-.47Z"/><path class="cls-3" d="M29,30.1,28.14,29a2.67,2.67,0,1,0-4.21,3.27l1.53,1.93a11.83,11.83,0,0,0,2,2,28.88,28.88,0,0,1,4-3.93A8,8,0,0,1,29,30.1Z"/><path id="_Path_2" data-name="&lt;Path&gt;" class="cls-4" d="M24.36,28.52a2.67,2.67,0,0,0-.43,3.74l1.53,1.93a11.27,11.27,0,0,0,6.76,4.07l4.22.79,1-5.28-3.69-.7a7.91,7.91,0,0,1-4.8-3L28.14,29a2.66,2.66,0,0,0-3.78-.47Z"/><path id="_Rectangle_2" data-name="&lt;Rectangle&gt;" class="cls-1" d="M15.75,40.71h4a0,0,0,0,1,0,0v2.22a1.13,1.13,0,0,1-1.13,1.13H12.4a0,0,0,0,1,0,0v0A3.34,3.34,0,0,1,15.75,40.71Z" transform="translate(17.58 -2.92) rotate(22.68)"/><path id="_Path_3" data-name="&lt;Path&gt;" class="cls-2" d="M24.85,27.8,21.8,30a15.8,15.8,0,0,0-4.95,6.29l-1.7,3.9,5,2.07,1.53-3.68a10.22,10.22,0,0,1,3.24-4.18l3.2-2.31a2.68,2.68,0,0,0,.53-3.76h0A2.7,2.7,0,0,0,24.85,27.8Z"/><path class="cls-3" d="M28.62,28.33a2.7,2.7,0,0,0-3.77-.53L21.8,30a15.45,15.45,0,0,0-2.43,2.28,63.47,63.47,0,0,0,9-.43A2.68,2.68,0,0,0,28.62,28.33Z"/><path id="_Path_4" data-name="&lt;Path&gt;" class="cls-4" d="M24.85,27.8,21.8,30a15.8,15.8,0,0,0-4.95,6.29l-1.7,3.9,5,2.07,1.53-3.68a10.22,10.22,0,0,1,3.24-4.18l3.2-2.31a2.68,2.68,0,0,0,.53-3.76h0A2.7,2.7,0,0,0,24.85,27.8Z"/><path id="_Rectangle_3" data-name="&lt;Rectangle&gt;" class="cls-5" d="M18.93,17.92h.48a1.77,1.77,0,0,1,1.77,1.77v4.52a0,0,0,0,1,0,0h-4a0,0,0,0,1,0,0V19.69A1.77,1.77,0,0,1,18.93,17.92Z" transform="translate(18.64 -7.41) rotate(41.25)"/><ellipse id="_Ellipse_" data-name="&lt;Ellipse&gt;" class="cls-6" cx="24.07" cy="46.48" rx="12.96" ry="1.69"/><g id="_Group_" data-name="&lt;Group&gt;"><g id="_Group_2" data-name="&lt;Group&gt;"><path id="_Path_5" data-name="&lt;Path&gt;" class="cls-7" d="M28.59,26.42l-5.4,2.81a1.13,1.13,0,0,1-1.52-.48,16.93,16.93,0,0,1-2-4.86c-1.05-3.4-1.29-6.51.44-7.41h0a2.43,2.43,0,0,1,3.06.56L29,24.74A1.13,1.13,0,0,1,28.59,26.42Z"/></g><path id="_Path_6" data-name="&lt;Path&gt;" class="cls-8" d="M21.88,29c-.25-.65-.53-1.43-.82-2.39-1-3.41-1.29-6.52.44-7.41a2.43,2.43,0,0,1,3.06.55l4.56,6A1.12,1.12,0,0,0,29,24.74L23.13,17a2.43,2.43,0,0,0-3.06-.56c-1.73.9-1.49,4-.44,7.41a16.93,16.93,0,0,0,2,4.86A1.19,1.19,0,0,0,21.88,29Z"/><g id="_Group_3" data-name="&lt;Group&gt;"><path id="_Path_7" data-name="&lt;Path&gt;" class="cls-4" d="M28.59,26.42l-5.4,2.81a1.13,1.13,0,0,1-1.52-.48,16.93,16.93,0,0,1-2-4.86c-1.05-3.4-1.29-6.51.44-7.41h0a2.43,2.43,0,0,1,3.06.56L29,24.74A1.13,1.13,0,0,1,28.59,26.42Z"/></g></g><path id="_Path_8" data-name="&lt;Path&gt;" class="cls-9" d="M9.29,21.1a1.72,1.72,0,0,0,.05,2.47l1.35,1.29a5.32,5.32,0,0,0,7.63-.35h0l-2.59-2.33h0a1.87,1.87,0,0,1-2.72.11l-1.28-1.22A1.72,1.72,0,0,0,9.29,21.1Z"/><path id="_Path_9" data-name="&lt;Path&gt;" class="cls-10" d="M15,26.24a5.27,5.27,0,0,0,3.3-1.73l-2.59-2.33h0a1.9,1.9,0,0,1-1.4.64Z"/><path id="_Path_10" data-name="&lt;Path&gt;" class="cls-4" d="M9.29,21.1a1.72,1.72,0,0,0,.05,2.47l1.35,1.29a5.32,5.32,0,0,0,7.63-.35h0l-2.59-2.33h0a1.87,1.87,0,0,1-2.72.11l-1.28-1.22A1.72,1.72,0,0,0,9.29,21.1Z"/><path id="_Rectangle_4" data-name="&lt;Rectangle&gt;" class="cls-7" d="M23.72,15.08h0a2.13,2.13,0,0,1,2.13,2.13v4.5a0,0,0,0,1,0,0H21.59a0,0,0,0,1,0,0v-4.5A2.13,2.13,0,0,1,23.72,15.08Z" transform="translate(-4.73 27.97) rotate(-56.4)"/><path id="_Path_11" data-name="&lt;Path&gt;" class="cls-8" d="M23,18a2.13,2.13,0,0,1,3-.59l1.7,1.13,0-.05L23.91,16a2.13,2.13,0,0,0-2.36,3.54l1.62,1.08A2.12,2.12,0,0,1,23,18Z"/><path id="_Rectangle_5" data-name="&lt;Rectangle&gt;" class="cls-4" d="M23.72,15.08h0a2.13,2.13,0,0,1,2.13,2.13v4.5a0,0,0,0,1,0,0H21.59a0,0,0,0,1,0,0v-4.5A2.13,2.13,0,0,1,23.72,15.08Z" transform="translate(-4.73 27.97) rotate(-56.4)"/><path id="_Path_12" data-name="&lt;Path&gt;" class="cls-9" d="M28.53,29A1.73,1.73,0,0,1,27,27.05l.32-2.43a2.27,2.27,0,0,0-.9-2.12l-1-.73,1.93-3,.61.44a6.78,6.78,0,0,1,2.73,6.49l-.28,1.81A1.72,1.72,0,0,1,28.53,29Z"/><path id="_Path_13" data-name="&lt;Path&gt;" class="cls-10" d="M28,19.23l-.61-.44-1.93,3,1,.73a2.2,2.2,0,0,1,.63.76l1.43-3.6A5.4,5.4,0,0,0,28,19.23Z"/><path id="_Path_14" data-name="&lt;Path&gt;" class="cls-4" d="M28.53,29A1.73,1.73,0,0,1,27,27.05l.32-2.43a2.27,2.27,0,0,0-.9-2.12l-1-.73,1.93-3,.61.44a6.78,6.78,0,0,1,2.73,6.49l-.28,1.81A1.72,1.72,0,0,1,28.53,29Z"/><circle id="_Path_15" data-name="&lt;Path&gt;" class="cls-11" cx="15.86" cy="10.16" r="5.66"/><path id="_Path_16" data-name="&lt;Path&gt;" class="cls-12" d="M18.47,4a7.11,7.11,0,0,0-5.14-.18A2.74,2.74,0,0,1,10.2,3.3s-2.09,3.59.35,4.89C13.1,9.24,16.17,8,16.17,8l-.28,2s1.29-.74,2,.06.35,3-1.14,2.78a3,3,0,0,0,1.06,2.68A5.65,5.65,0,0,0,21.46,11C21.91,7.88,21.26,5.66,18.47,4Z"/><g id="_Group_4" data-name="&lt;Group&gt;"><path id="_Path_17" data-name="&lt;Path&gt;" class="cls-13" d="M9.87,6.36a.57.57,0,0,1,.35-.31.59.59,0,0,1,.47,0,3,3,0,0,0,2.64.16,7.11,7.11,0,0,1,5.14.18,5.59,5.59,0,0,1,3,4.16c.34-2.9-.37-5-3-6.56a7.11,7.11,0,0,0-5.14-.18A2.74,2.74,0,0,1,10.2,3.3S8.86,5.6,9.58,7.18A8.55,8.55,0,0,1,9.87,6.36Z"/></g><path id="_Path_18" data-name="&lt;Path&gt;" class="cls-4" d="M18.47,4a7.11,7.11,0,0,0-5.14-.18A2.74,2.74,0,0,1,10.2,3.3s-2.09,3.59.35,4.89C13.1,9.24,16.17,8,16.17,8l-.28,2s1.29-.74,2,.06.35,3-1.14,2.78a3,3,0,0,0,1.06,2.68A5.65,5.65,0,0,0,21.46,11C21.91,7.88,21.26,5.66,18.47,4Z"/></svg>