<svg id="Icons" xmlns="http://www.w3.org/2000/svg" viewBox="0 0 48 48"><defs><style>.cls-1,.cls-11{fill:#ffc44d;}.cls-1,.cls-10,.cls-3,.cls-6{stroke:#45413c;stroke-linecap:round;stroke-linejoin:round;}.cls-2{fill:#45413c;opacity:0.15;}.cls-3,.cls-4{fill:#ffcebf;}.cls-5{fill:#ffdcd1;}.cls-6{fill:none;}.cls-7{fill:#ff6242;}.cls-10,.cls-8{fill:#e04122;}.cls-9{fill:#ffb59e;}.cls-12{fill:#ffdb94;}.cls-13{fill:#ff866e;}</style></defs><title>267-woman-dancing-2</title><g id="_Group_" data-name="&lt;Group&gt;"><path id="_Path_" data-name="&lt;Path&gt;" class="cls-1" d="M19.62,7.29A4.59,4.59,0,0,1,15.2,12a6.44,6.44,0,0,1-5-2s1.23,8.18,7.76,8.18c6.12,0,9.93-4,9.93-10.95Z"/><ellipse id="_Ellipse_" data-name="&lt;Ellipse&gt;" class="cls-2" cx="24" cy="45.66" rx="19.01" ry="2.04"/><path class="cls-3" d="M18.89,13.32a5,5,0,0,0-5,5v4.19a1.59,1.59,0,0,0,3.17,0V19.4a2.91,2.91,0,0,1,2.91-2.91h.26Z"/><path class="cls-3" d="M32.66,5.68a1.58,1.58,0,0,0-1.58,1.58v3.93A2.13,2.13,0,0,1,29,13.32H25.68L27,16.49h2.2a5.07,5.07,0,0,0,5.07-5.07V7.26A1.59,1.59,0,0,0,32.66,5.68Z"/><circle id="_Path_2" data-name="&lt;Path&gt;" class="cls-4" cx="23.75" cy="7.29" r="4.13"/><path id="_Path_3" data-name="&lt;Path&gt;" class="cls-5" d="M23.75,5.73a4.12,4.12,0,0,1,3.93,2.85,4.25,4.25,0,0,0,.2-1.29,4.13,4.13,0,1,0-8.26,0,4.25,4.25,0,0,0,.21,1.29A4.12,4.12,0,0,1,23.75,5.73Z"/><circle id="_Path_4" data-name="&lt;Path&gt;" class="cls-6" cx="23.75" cy="7.29" r="4.13"/><path id="_Path_5" data-name="&lt;Path&gt;" class="cls-7" d="M42.37,25.09s1.69,9.22-5.77,14.71S23,43.62,23,43.62l-1.23-9.54,7.3-6.9Z"/><path id="_Path_6" data-name="&lt;Path&gt;" class="cls-8" d="M29.07,33,42.17,31a16.88,16.88,0,0,0,.2-5.88l-13.3,2.09-7.3,6.9.68,5.22Z"/><path id="_Path_7" data-name="&lt;Path&gt;" class="cls-6" d="M42.37,25.09s1.69,9.22-5.77,14.71S23,43.62,23,43.62l-1.23-9.54,7.3-6.9Z"/><path id="_Path_8" data-name="&lt;Path&gt;" class="cls-4" d="M31.55,29.32,29,28.2l-3.17,3.05L29,32.41a1.65,1.65,0,0,1,1.07,1.44l.52,7.65H34.4l-.64-9A3.74,3.74,0,0,0,31.55,29.32Z"/><path id="_Path_9" data-name="&lt;Path&gt;" class="cls-9" d="M31.55,29.32,29,28.2l-3.17,3.05L29,32.41a1.65,1.65,0,0,1,1.07,1.44l0,.5A12.36,12.36,0,0,1,33.7,32,3.76,3.76,0,0,0,31.55,29.32Z"/><path id="_Path_10" data-name="&lt;Path&gt;" class="cls-6" d="M31.55,29.32,29,28.2l-3.17,3.05L29,32.41a1.65,1.65,0,0,1,1.07,1.44l.52,7.65H34.4l-.64-9A3.74,3.74,0,0,0,31.55,29.32Z"/><path id="_Path_11" data-name="&lt;Path&gt;" class="cls-10" d="M34.4,41.5,36.48,44A.58.58,0,0,1,36,45H34.72l-2.23-.86-.31.86H30.92a.69.69,0,0,1-.69-.79l.36-2.71Z"/><path id="_Path_12" data-name="&lt;Path&gt;" class="cls-10" d="M24.93,41.5,27,44a.59.59,0,0,1-.46,1H25.25L23,44.14l-.31.86H21.46a.7.7,0,0,1-.7-.79l.36-2.71Z"/><path id="_Path_13" data-name="&lt;Path&gt;" class="cls-11" d="M23.75,3.16a4.13,4.13,0,0,0-4.13,4.13A4.08,4.08,0,0,0,20,9.07a6,6,0,0,0,3.78-1.75,6.11,6.11,0,0,0,1.91-3.66A4.12,4.12,0,0,0,23.75,3.16Z"/><path id="_Path_14" data-name="&lt;Path&gt;" class="cls-12" d="M23.75,5.17a4,4,0,0,1,1.44.26,5.69,5.69,0,0,0,.53-1.77,4.13,4.13,0,0,0-6.1,3.63,4.17,4.17,0,0,0,.13,1A4.13,4.13,0,0,1,23.75,5.17Z"/><path id="_Path_15" data-name="&lt;Path&gt;" class="cls-6" d="M23.75,3.16a4.13,4.13,0,0,0-4.13,4.13A4.08,4.08,0,0,0,20,9.07a6,6,0,0,0,3.78-1.75,6.11,6.11,0,0,0,1.91-3.66A4.12,4.12,0,0,0,23.75,3.16Z"/><path id="_Path_16" data-name="&lt;Path&gt;" class="cls-7" d="M21.32,23.16a8.94,8.94,0,0,0-3.45,4.3c-1.1,2.93-2.94,7.19-6.79,9.51a12.24,12.24,0,0,0-5.14,6.24A1.36,1.36,0,0,0,7.23,45h12c2.88,0,5.83-1.81,6.9-8.26s6.28-8.2,10.18-8.2a7.73,7.73,0,0,0,6.06-3.45,40.27,40.27,0,0,1-9.17.05c-4.69-.56-5.66-2-5.66-2Z"/><g id="_Group_2" data-name="&lt;Group&gt;"><path id="_Path_17" data-name="&lt;Path&gt;" class="cls-13" d="M26.65,29.13c1.78.13,3.54.19,5.21.22a12.14,12.14,0,0,1,4.45-.81,7.73,7.73,0,0,0,6.06-3.45,40.27,40.27,0,0,1-9.17.05c-4.69-.56-5.66-2-5.66-2H21.32a8.94,8.94,0,0,0-3.45,4.3l-.05.14C19,28.06,21.51,28.77,26.65,29.13Z"/></g><path id="_Path_18" data-name="&lt;Path&gt;" class="cls-6" d="M21.32,23.16a8.94,8.94,0,0,0-3.45,4.3c-1.1,2.93-2.94,7.19-6.79,9.51a12.24,12.24,0,0,0-5.14,6.24A1.36,1.36,0,0,0,7.23,45h12c2.88,0,5.83-1.81,6.9-8.26s6.28-8.2,10.18-8.2a7.73,7.73,0,0,0,6.06-3.45,40.27,40.27,0,0,1-9.17.05c-4.69-.56-5.66-2-5.66-2Z"/><path id="_Path_19" data-name="&lt;Path&gt;" class="cls-7" d="M27.54,23.16H21.32l-2.43-9.84h6.38a2.27,2.27,0,0,1,2.27,2.27Z"/><path id="_Path_20" data-name="&lt;Path&gt;" class="cls-13" d="M25.27,13.32H18.89l.63,2.54h5.75a2.27,2.27,0,0,1,2.27,2.28V15.59A2.27,2.27,0,0,0,25.27,13.32Z"/><path id="_Path_21" data-name="&lt;Path&gt;" class="cls-6" d="M27.54,23.16H21.32l-2.43-9.84h6.38a2.27,2.27,0,0,1,2.27,2.27Z"/><path id="_Path_22" data-name="&lt;Path&gt;" class="cls-3" d="M21.77,13.32s.44,3,2.55,3,.95-3,.95-3Z"/></g></svg>