<svg id="Icons" xmlns="http://www.w3.org/2000/svg" viewBox="0 0 48 48"><defs><style>.cls-1,.cls-10{fill:#656769;}.cls-2{fill:#525252;}.cls-3{fill:none;}.cls-10,.cls-3,.cls-5,.cls-6,.cls-7,.cls-8{stroke:#45413c;stroke-linecap:round;stroke-linejoin:round;}.cls-4{fill:#45413c;opacity:0.15;}.cls-5{fill:#ffcebf;}.cls-6{fill:#bdbec0;}.cls-7{fill:#fff;}.cls-8{fill:#ff6242;}.cls-9{fill:#87898c;}</style></defs><title>275-man-in-suit-levitating-2</title><ellipse id="_Path_" data-name="&lt;Path&gt;" class="cls-1" cx="21.44" cy="38.41" rx="1.58" ry="2.96"/><path id="_Path_2" data-name="&lt;Path&gt;" class="cls-2" d="M21.44,35.45c-1.14,0-1.46.81-1.55,1.95.15,1.35.79,2.36,1.55,2.36s1.4-1,1.55-2.36C22.9,36.26,22.59,35.45,21.44,35.45Z"/><ellipse id="_Path_3" data-name="&lt;Path&gt;" class="cls-3" cx="21.44" cy="38.41" rx="1.58" ry="2.96"/><ellipse id="_Path_4" data-name="&lt;Path&gt;" class="cls-1" cx="26.55" cy="38.41" rx="1.58" ry="2.96"/><path id="_Path_5" data-name="&lt;Path&gt;" class="cls-2" d="M26.55,35.45c-1.14,0-1.46.81-1.55,1.95.15,1.35.79,2.36,1.55,2.36s1.4-1,1.55-2.36C28,36.26,27.7,35.45,26.55,35.45Z"/><ellipse id="_Path_6" data-name="&lt;Path&gt;" class="cls-3" cx="26.55" cy="38.41" rx="1.58" ry="2.96"/><ellipse id="_Ellipse_" data-name="&lt;Ellipse&gt;" class="cls-4" cx="24" cy="45.5" rx="6.5" ry="1.5"/><path id="_Path_7" data-name="&lt;Path&gt;" class="cls-1" d="M19.93,26.16h0V36.87c0,.85.68,1,1.53,1h0c.85,0,1.54-.19,1.54-1V29.63a1,1,0,0,1,1-1h0a1,1,0,0,1,1,1v7.24c0,.85.69,1,1.54,1h0c.85,0,1.54-.19,1.54-1V26.16Z"/><polygon id="_Path_8" data-name="&lt;Path&gt;" class="cls-2" points="19.93 26.16 19.92 26.16 19.92 28.47 19.93 28.47 28.07 28.47 28.07 26.16 19.93 26.16"/><path id="_Path_9" data-name="&lt;Path&gt;" class="cls-3" d="M19.93,26.16h0V36.87c0,.85.68,1,1.53,1h0c.85,0,1.54-.19,1.54-1V29.63a1,1,0,0,1,1-1h0a1,1,0,0,1,1,1v7.24c0,.85.69,1,1.54,1h0c.85,0,1.54-.19,1.54-1V26.16Z"/><path class="cls-1" d="M24,15a6.73,6.73,0,0,0-6.73,6.73v2.84h2.65v1.59h8.16V24.57h2.65V21.73A6.73,6.73,0,0,0,24,15Z"/><path class="cls-2" d="M24,15a6.73,6.73,0,0,0-6.73,6.73v2.84a6.73,6.73,0,0,1,13.46,0V21.73A6.73,6.73,0,0,0,24,15Z"/><path class="cls-3" d="M24,15a6.73,6.73,0,0,0-6.73,6.73v2.84h2.65v1.59h8.16V24.57h2.65V21.73A6.73,6.73,0,0,0,24,15Z"/><line id="_Path_10" data-name="&lt;Path&gt;" class="cls-3" x1="28.08" y1="24.57" x2="28.08" y2="19.03"/><line id="_Path_11" data-name="&lt;Path&gt;" class="cls-3" x1="19.92" y1="24.57" x2="19.92" y2="19.03"/><path id="_Rectangle_" data-name="&lt;Rectangle&gt;" class="cls-5" d="M28.08,24.57h2.66a0,0,0,0,1,0,0V26a1.33,1.33,0,0,1-1.33,1.33h0A1.33,1.33,0,0,1,28.08,26V24.57A0,0,0,0,1,28.08,24.57Z"/><path id="_Rectangle_2" data-name="&lt;Rectangle&gt;" class="cls-5" d="M18.6,24.57h0a1.33,1.33,0,0,1,1.33,1.33v1.42a0,0,0,0,1,0,0H17.27a0,0,0,0,1,0,0V25.9A1.33,1.33,0,0,1,18.6,24.57Z" transform="matrix(-1, 0, 0, -1, 37.19, 51.88)"/><path class="cls-6" d="M28.17,17.39l-.53-1.32a6.73,6.73,0,0,0-7.28,0l-.53,1.32L22,18.91l-.83,1.44L24,23.44l2.84-3.09L26,18.91Z"/><path class="cls-7" d="M24,15a6.74,6.74,0,0,0-2.3.4l2.3,8,2.3-8A6.74,6.74,0,0,0,24,15Z"/><line id="_Path_12" data-name="&lt;Path&gt;" class="cls-3" x1="24" y1="23.44" x2="24" y2="26.16"/><polygon id="_Path_13" data-name="&lt;Path&gt;" class="cls-8" points="24 15 22.79 19.22 24 23.44 25.21 19.22 24 15"/><path class="cls-1" d="M28,3c0-.64-1.53-1.66-4-1.66s-4,1-4,1.66l-.32,2A14.27,14.27,0,0,1,24,4.35,14.27,14.27,0,0,1,28.36,5Z"/><path class="cls-9" d="M24,2.75a6.29,6.29,0,0,1,4.23,1.4L28,3c0-.64-1.53-1.66-4-1.66s-4,1-4,1.66l-.19,1.17A6.29,6.29,0,0,1,24,2.75Z"/><path class="cls-3" d="M28,3c0-.64-1.53-1.66-4-1.66s-4,1-4,1.66l-.32,2A14.27,14.27,0,0,1,24,4.35,14.27,14.27,0,0,1,28.36,5Z"/><ellipse class="cls-10" cx="24" cy="7.67" rx="7.46" ry="3.33"/><path class="cls-5" d="M19.59,6.8a5,5,0,0,0-.25,1.54,4.66,4.66,0,1,0,9.32,0,5,5,0,0,0-.25-1.54A14.27,14.27,0,0,0,24,6.15,14.27,14.27,0,0,0,19.59,6.8Z"/><path id="_Rectangle_3" data-name="&lt;Rectangle&gt;" class="cls-10" d="M20.5,8h2.84a0,0,0,0,1,0,0v.58A1.42,1.42,0,0,1,21.92,10h0A1.42,1.42,0,0,1,20.5,8.58V8a0,0,0,0,1,0,0Z"/><path id="_Rectangle_4" data-name="&lt;Rectangle&gt;" class="cls-10" d="M26.08,8h0A1.42,1.42,0,0,1,27.5,9.42V10a0,0,0,0,1,0,0H24.66a0,0,0,0,1,0,0V9.42A1.42,1.42,0,0,1,26.08,8Z" transform="translate(52.16 18) rotate(-180)"/><line id="_Path_14" data-name="&lt;Path&gt;" class="cls-3" x1="23.34" y1="8.5" x2="24.66" y2="8.5"/></svg>