<svg id="Icons" xmlns="http://www.w3.org/2000/svg" viewBox="0 0 48 48"><defs><style>.cls-1{fill:#45413c;opacity:0.15;}.cls-2{fill:#8ca4b8;}.cls-3{fill:#adc4d9;}.cls-4{fill:none;stroke:#45413c;stroke-linecap:round;stroke-linejoin:round;}</style></defs><title>277-bust-in-silhouette</title><g id="_Group_" data-name="&lt;Group&gt;"><ellipse id="_Ellipse_" data-name="&lt;Ellipse&gt;" class="cls-1" cx="24" cy="45.35" rx="17.57" ry="1.65"/><path id="_Path_" data-name="&lt;Path&gt;" class="cls-2" d="M31.56,32.35l-4.8-1.57V29a10,10,0,0,0,7-8.07h.12a2,2,0,0,0,2-2.16,1.92,1.92,0,0,0-1.16-1.53V14a10.79,10.79,0,1,0-21.57,0v3.22a1.92,1.92,0,0,0-1.13,1.44,2,2,0,0,0,2,2.32h.13a9.94,9.94,0,0,0,7,8.07v1.78l-4.79,1.57a7.93,7.93,0,0,0-5.46,7.53V45H37V39.88A7.93,7.93,0,0,0,31.56,32.35Z"/><path id="_Path_2" data-name="&lt;Path&gt;" class="cls-3" d="M16.38,36.13l1.21-.4a5.2,5.2,0,0,0,3.58-4.95h0l-4.79,1.57a7.93,7.93,0,0,0-5.46,7.53v3.77A7.91,7.91,0,0,1,16.38,36.13Z"/><path id="_Path_3" data-name="&lt;Path&gt;" class="cls-3" d="M13.18,17.73a10.79,10.79,0,0,1,21.57,0V14a10.79,10.79,0,1,0-21.57,0v3.77Z"/><path id="_Path_4" data-name="&lt;Path&gt;" class="cls-3" d="M31.56,32.35l-4.8-1.57h0a5.21,5.21,0,0,0,3.59,4.95l1.21.4A7.91,7.91,0,0,1,37,43.65V39.88A7.93,7.93,0,0,0,31.56,32.35Z"/><path id="_Path_5" data-name="&lt;Path&gt;" class="cls-4" d="M31.56,32.35l-4.8-1.57V29a10,10,0,0,0,7-8.07h.12a2,2,0,0,0,2-2.16,1.92,1.92,0,0,0-1.16-1.53V14a10.79,10.79,0,1,0-21.57,0v3.22a1.92,1.92,0,0,0-1.13,1.44,2,2,0,0,0,2,2.32h.13a9.94,9.94,0,0,0,7,8.07v1.78l-4.79,1.57a7.93,7.93,0,0,0-5.46,7.53V45H37V39.88A7.93,7.93,0,0,0,31.56,32.35Z"/></g></svg>