<svg id="Icons" xmlns="http://www.w3.org/2000/svg" viewBox="0 0 48 48"><defs><style>.cls-1,.cls-6{fill:#45413c;}.cls-1{opacity:0.15;}.cls-11,.cls-2{fill:#ffe500;}.cls-15,.cls-2,.cls-5,.cls-8{stroke:#45413c;stroke-linecap:round;stroke-linejoin:round;}.cls-3{fill:#724f3d;}.cls-4{fill:#a86c4d;}.cls-5{fill:none;}.cls-7{fill:#915e3a;}.cls-8{fill:#656769;}.cls-9{fill:#00b8f0;}.cls-10{fill:#4acfff;}.cls-12{fill:#ebcb00;}.cls-13{fill:#ff87af;}.cls-14{fill:#ffb0ca;}.cls-15{fill:#ff6242;}</style></defs><title>279-man-and-woman-holding-hands-1</title><ellipse id="_Ellipse_" data-name="&lt;Ellipse&gt;" class="cls-1" cx="23.4" cy="45.25" rx="16" ry="1.5"/><circle id="_Path_" data-name="&lt;Path&gt;" class="cls-2" cx="14.9" cy="15.07" r="4.66"/><path id="_Path_2" data-name="&lt;Path&gt;" class="cls-3" d="M14.9,9.12h0A29,29,0,0,0,10,9.58l1.25,1.32a4.71,4.71,0,0,0-1,2.89V15.3a3.86,3.86,0,0,0,1.92-2.64.73.73,0,0,1,.25-.4,5.16,5.16,0,0,0,2.5.58,5.15,5.15,0,0,0,2.49-.58.67.67,0,0,1,.25.4,3.86,3.86,0,0,0,1.92,2.64V13.79A4.67,4.67,0,0,0,14.9,9.12Z"/><g id="_Group_" data-name="&lt;Group&gt;"><path id="_Path_3" data-name="&lt;Path&gt;" class="cls-4" d="M14.9,9.12h0A29,29,0,0,0,10,9.58l1.25,1.32-.13.18a28.3,28.3,0,0,1,3.8-.28h0a4.65,4.65,0,0,1,4.65,4.5h0V13.79A4.67,4.67,0,0,0,14.9,9.12Z"/></g><path id="_Path_4" data-name="&lt;Path&gt;" class="cls-5" d="M19.56,13.79A4.67,4.67,0,0,0,14.9,9.12,29,29,0,0,0,10,9.58l1.25,1.32a4.71,4.71,0,0,0-1,2.89V15.3a3.86,3.86,0,0,0,1.92-2.64.73.73,0,0,1,.25-.4,5.16,5.16,0,0,0,2.5.58,5.15,5.15,0,0,0,2.49-.58.67.67,0,0,1,.25.4,3.86,3.86,0,0,0,1.92,2.64Z"/><circle id="_Path_5" data-name="&lt;Path&gt;" class="cls-6" cx="13.05" cy="15.77" r="0.66"/><circle id="_Path_6" data-name="&lt;Path&gt;" class="cls-6" cx="16.74" cy="15.77" r="0.66"/><path id="_Path_7" data-name="&lt;Path&gt;" class="cls-3" d="M10.82,32.73h0V45H13.9V36.2a1,1,0,0,1,1-1h0a1,1,0,0,1,1,1V45H19V32.73Z"/><polygon id="_Path_8" data-name="&lt;Path&gt;" class="cls-7" points="10.82 32.73 10.82 32.73 10.82 35.04 10.82 35.04 18.97 35.04 18.97 32.73 10.82 32.73"/><path id="_Path_9" data-name="&lt;Path&gt;" class="cls-5" d="M10.82,32.73h0V45H13.9V36.2a1,1,0,0,1,1-1h0a1,1,0,0,1,1,1V45H19V32.73Z"/><path id="_Path_10" data-name="&lt;Path&gt;" class="cls-8" d="M14.53,44.38A.5.5,0,0,1,14,45H10.71a.5.5,0,0,1-.49-.6l0-.21a2.15,2.15,0,0,1,2.11-1.74h0a2.16,2.16,0,0,1,2.12,1.74Z"/><path id="_Path_11" data-name="&lt;Path&gt;" class="cls-8" d="M19.1,45H15.76a.5.5,0,0,1-.49-.6l0-.21a2.16,2.16,0,0,1,2.12-1.74h0a2.16,2.16,0,0,1,2.12,1.74l0,.21A.5.5,0,0,1,19.1,45Z"/><path class="cls-2" d="M24.31,30.69A7.38,7.38,0,0,1,22,27.76H19.16A8.75,8.75,0,0,0,22.54,33a1.47,1.47,0,1,0,1.77-2.34Z"/><path id="_Path_12" data-name="&lt;Path&gt;" class="cls-2" d="M8.17,27.76v5.55A1.38,1.38,0,0,0,9.5,34.73h0a1.37,1.37,0,0,0,1.32-1.42V27.76Z"/><g id="_Group_2" data-name="&lt;Group&gt;"><path id="_Path_13" data-name="&lt;Path&gt;" class="cls-9" d="M21.37,25c0-2.16-2-3.4-4.15-3.4H12.31c-2.15,0-4.14,1.24-4.14,3.4v2.79h2.65v5H19v-5h3A7.2,7.2,0,0,1,21.37,25Z"/></g><path class="cls-10" d="M12.31,23.57h5.41a4.32,4.32,0,0,1,3.66,1.73c0-.11,0-.22,0-.33,0-2.16-2-3.4-4.15-3.4H12.31c-2.15,0-4.14,1.24-4.14,3.4v2C8.17,24.82,10.16,23.57,12.31,23.57Z"/><g id="_Group_3" data-name="&lt;Group&gt;"><path id="_Path_14" data-name="&lt;Path&gt;" class="cls-5" d="M21.37,25c0-2.16-2-3.4-4.15-3.4H12.31c-2.15,0-4.14,1.24-4.14,3.4v2.79h2.65v5H19v-5h3A7.2,7.2,0,0,1,21.37,25Z"/></g><line id="_Path_15" data-name="&lt;Path&gt;" class="cls-5" x1="10.82" y1="27.76" x2="10.82" y2="25.6"/><line id="_Path_16" data-name="&lt;Path&gt;" class="cls-5" x1="18.97" y1="27.76" x2="18.97" y2="25.6"/><path id="_Path_17" data-name="&lt;Path&gt;" class="cls-2" d="M14.9,23.6a2,2,0,0,0,2-2H12.87A2,2,0,0,0,14.9,23.6Z"/><path id="_Path_18" data-name="&lt;Path&gt;" class="cls-2" d="M37.22,24.68a31.77,31.77,0,0,1,1.12,8.37,1.33,1.33,0,1,1-2.65,0V24.68Z"/><rect id="_Rectangle_" data-name="&lt;Rectangle&gt;" class="cls-11" x="32.12" y="31.75" width="3.09" height="13.25" transform="translate(67.33 76.75) rotate(-180)"/><rect id="_Rectangle_2" data-name="&lt;Rectangle&gt;" class="cls-12" x="32.12" y="31.75" width="3.09" height="7.6" transform="translate(67.33 71.1) rotate(-180)"/><rect id="_Rectangle_3" data-name="&lt;Rectangle&gt;" class="cls-5" x="32.12" y="31.75" width="3.09" height="13.25" transform="translate(67.33 76.75) rotate(-180)"/><rect id="_Rectangle_4" data-name="&lt;Rectangle&gt;" class="cls-11" x="29.03" y="31.75" width="3.09" height="13.25" transform="translate(61.15 76.75) rotate(-180)"/><rect id="_Rectangle_5" data-name="&lt;Rectangle&gt;" class="cls-12" x="29.03" y="31.75" width="3.09" height="7.6" transform="translate(61.15 71.1) rotate(-180)"/><rect id="_Rectangle_6" data-name="&lt;Rectangle&gt;" class="cls-5" x="29.03" y="31.75" width="3.09" height="13.25" transform="translate(61.15 76.75) rotate(-180)"/><path id="_Path_19" data-name="&lt;Path&gt;" class="cls-8" d="M28.42,44.4l0-.21a2.16,2.16,0,0,1,2.12-1.74,2.11,2.11,0,0,1,1.54.65,2.16,2.16,0,0,1,3.66,1.09l0,.21a.51.51,0,0,1-.5.6H28.91A.5.5,0,0,1,28.42,44.4Z"/><path id="_Path_20" data-name="&lt;Path&gt;" class="cls-3" d="M37.19,21.39a1,1,0,0,1-1,1H28a1,1,0,0,1-1-1V14.14a5.1,5.1,0,0,1,10.2,0Z"/><path class="cls-4" d="M32.09,9.05A5.09,5.09,0,0,0,27,14.14V15.9a5.1,5.1,0,1,1,10.2,0V14.14A5.09,5.09,0,0,0,32.09,9.05Z"/><path id="_Path_21" data-name="&lt;Path&gt;" class="cls-5" d="M37.19,21.39a1,1,0,0,1-1,1H28a1,1,0,0,1-1-1V14.14a5.1,5.1,0,0,1,10.2,0Z"/><path id="_Path_22" data-name="&lt;Path&gt;" class="cls-2" d="M34.21,10.8l-.73.85A9.87,9.87,0,0,1,27.36,15a4.73,4.73,0,1,0,9.46,0,4.52,4.52,0,0,0-.06-.53,2.62,2.62,0,0,1-2.18-2Z"/><circle id="_Path_23" data-name="&lt;Path&gt;" class="cls-6" cx="30.25" cy="15.74" r="0.66"/><circle id="_Path_24" data-name="&lt;Path&gt;" class="cls-6" cx="33.93" cy="15.74" r="0.66"/><path id="_Path_25" data-name="&lt;Path&gt;" class="cls-2" d="M27,24.68l0,.44a7.29,7.29,0,0,1-3.06,5.51A1.47,1.47,0,1,0,25.66,33a8.83,8.83,0,0,0,3.73-7h0Z"/><path class="cls-13" d="M35.68,31.24V28.53a5.32,5.32,0,0,1,1.54-3.85,5.13,5.13,0,0,0-5.1-3.25A5.13,5.13,0,0,0,27,24.68a5.36,5.36,0,0,1,1.54,3.85v2.71c0,1.74-.63,3.11-.83,5a1,1,0,0,0,1,1.1h6.78a1,1,0,0,0,1-1.1C36.31,34.35,35.68,33,35.68,31.24Z"/><path class="cls-14" d="M32.12,23.6a5.25,5.25,0,0,1,4.38,2,4.45,4.45,0,0,1,.72-.9,5.13,5.13,0,0,0-5.1-3.25A5.13,5.13,0,0,0,27,24.68a4.45,4.45,0,0,1,.72.9A5.25,5.25,0,0,1,32.12,23.6Z"/><path class="cls-5" d="M35.68,31.24V28.53a5.32,5.32,0,0,1,1.54-3.85,5.13,5.13,0,0,0-5.1-3.25A5.13,5.13,0,0,0,27,24.68a5.36,5.36,0,0,1,1.54,3.85v2.71c0,1.74-.63,3.11-.83,5a1,1,0,0,0,1,1.1h6.78a1,1,0,0,0,1-1.1C36.31,34.35,35.68,33,35.68,31.24Z"/><rect id="_Rectangle_7" data-name="&lt;Rectangle&gt;" class="cls-15" x="28.56" y="29.15" width="7.13" height="2.17" transform="translate(64.24 60.47) rotate(-180)"/><line id="_Path_26" data-name="&lt;Path&gt;" class="cls-5" x1="32.12" y1="43.1" x2="32.12" y2="45"/><line id="_Path_27" data-name="&lt;Path&gt;" class="cls-5" x1="30.33" y1="37.38" x2="30.58" y2="35.04"/><line id="_Path_28" data-name="&lt;Path&gt;" class="cls-5" x1="33.92" y1="37.38" x2="33.67" y2="35.04"/><path class="cls-2" d="M32.12,21.43a6.72,6.72,0,0,0-1.82.24,2.13,2.13,0,0,0,1.82,2.18,2.12,2.12,0,0,0,1.82-2.18A6.62,6.62,0,0,0,32.12,21.43Z"/></svg>