<svg id="Icons" xmlns="http://www.w3.org/2000/svg" viewBox="0 0 48 48"><defs><style>.cls-1,.cls-6{fill:#45413c;}.cls-1{opacity:0.15;}.cls-12,.cls-2{fill:#ffcebf;}.cls-16,.cls-2,.cls-5,.cls-9{stroke:#45413c;stroke-linecap:round;stroke-linejoin:round;}.cls-3{fill:#a86c4d;}.cls-4{fill:#de926a;}.cls-5{fill:none;}.cls-7{fill:#724f3d;}.cls-8{fill:#915e3a;}.cls-9{fill:#656769;}.cls-10{fill:#00b8f0;}.cls-11{fill:#4acfff;}.cls-13{fill:#ffb59e;}.cls-14{fill:#ff87af;}.cls-15{fill:#ffb0ca;}.cls-16{fill:#ff6242;}</style></defs><title>280-man-and-woman-holding-hands-2</title><ellipse id="_Ellipse_" data-name="&lt;Ellipse&gt;" class="cls-1" cx="23.4" cy="45.27" rx="16" ry="1.5"/><circle id="_Path_" data-name="&lt;Path&gt;" class="cls-2" cx="14.9" cy="15.1" r="4.66"/><path id="_Path_2" data-name="&lt;Path&gt;" class="cls-3" d="M14.9,9.15h0A29.57,29.57,0,0,0,10,9.6l1.25,1.32a4.71,4.71,0,0,0-1,2.89v1.51a3.86,3.86,0,0,0,1.92-2.63.75.75,0,0,1,.25-.41,5.16,5.16,0,0,0,2.5.58,5.15,5.15,0,0,0,2.49-.58.7.7,0,0,1,.25.41,3.86,3.86,0,0,0,1.92,2.63V13.81A4.66,4.66,0,0,0,14.9,9.15Z"/><g id="_Group_" data-name="&lt;Group&gt;"><path id="_Path_3" data-name="&lt;Path&gt;" class="cls-4" d="M14.9,9.15h0A29.57,29.57,0,0,0,10,9.6l1.25,1.32-.13.18a28.3,28.3,0,0,1,3.8-.28h0a4.65,4.65,0,0,1,4.65,4.5h0V13.81A4.66,4.66,0,0,0,14.9,9.15Z"/></g><path id="_Path_4" data-name="&lt;Path&gt;" class="cls-5" d="M19.56,13.81A4.66,4.66,0,0,0,14.9,9.15,29.57,29.57,0,0,0,10,9.6l1.25,1.32a4.71,4.71,0,0,0-1,2.89v1.51a3.86,3.86,0,0,0,1.92-2.63.75.75,0,0,1,.25-.41,5.16,5.16,0,0,0,2.5.58,5.15,5.15,0,0,0,2.49-.58.7.7,0,0,1,.25.41,3.86,3.86,0,0,0,1.92,2.63Z"/><circle id="_Path_5" data-name="&lt;Path&gt;" class="cls-6" cx="13.05" cy="15.79" r="0.66"/><circle id="_Path_6" data-name="&lt;Path&gt;" class="cls-6" cx="16.74" cy="15.79" r="0.66"/><path id="_Path_7" data-name="&lt;Path&gt;" class="cls-7" d="M10.82,32.75h0V45H13.9V36.22a1,1,0,0,1,1-1h0a1,1,0,0,1,1,1V45H19V32.75Z"/><polygon id="_Path_8" data-name="&lt;Path&gt;" class="cls-8" points="10.82 32.75 10.82 32.75 10.82 35.06 10.82 35.06 18.97 35.06 18.97 32.75 10.82 32.75"/><path id="_Path_9" data-name="&lt;Path&gt;" class="cls-5" d="M10.82,32.75h0V45H13.9V36.22a1,1,0,0,1,1-1h0a1,1,0,0,1,1,1V45H19V32.75Z"/><path id="_Path_10" data-name="&lt;Path&gt;" class="cls-9" d="M10.71,45c-.34,0-.57-.23-.45-.81a2.15,2.15,0,0,1,2.11-1.74h0a2.16,2.16,0,0,1,2.12,1.74c.11.58-.11.81-.45.81Z"/><path id="_Path_11" data-name="&lt;Path&gt;" class="cls-9" d="M15.76,45c-.34,0-.56-.23-.45-.81a2.16,2.16,0,0,1,2.12-1.74h0a2.16,2.16,0,0,1,2.12,1.74c.11.58-.11.81-.45.81Z"/><path class="cls-2" d="M24.31,30.71A7.38,7.38,0,0,1,22,27.78H19.16a8.75,8.75,0,0,0,3.38,5.27,1.47,1.47,0,1,0,1.77-2.34Z"/><path id="_Path_12" data-name="&lt;Path&gt;" class="cls-2" d="M8.17,27.78v5.55A1.38,1.38,0,0,0,9.5,34.75h0a1.37,1.37,0,0,0,1.32-1.42V27.78Z"/><g id="_Group_2" data-name="&lt;Group&gt;"><path id="_Path_13" data-name="&lt;Path&gt;" class="cls-10" d="M21.37,25c0-2.16-2-3.4-4.15-3.4H12.31c-2.15,0-4.14,1.24-4.14,3.4v2.79h2.65v5H19v-5h3A7.2,7.2,0,0,1,21.37,25Z"/></g><path class="cls-11" d="M12.31,23.59h5.41a4.32,4.32,0,0,1,3.66,1.73c0-.11,0-.22,0-.33,0-2.16-2-3.4-4.15-3.4H12.31c-2.15,0-4.14,1.24-4.14,3.4v2C8.17,24.84,10.16,23.59,12.31,23.59Z"/><g id="_Group_3" data-name="&lt;Group&gt;"><path id="_Path_14" data-name="&lt;Path&gt;" class="cls-5" d="M21.37,25c0-2.16-2-3.4-4.15-3.4H12.31c-2.15,0-4.14,1.24-4.14,3.4v2.79h2.65v5H19v-5h3A7.2,7.2,0,0,1,21.37,25Z"/></g><line id="_Path_15" data-name="&lt;Path&gt;" class="cls-5" x1="10.82" y1="27.78" x2="10.82" y2="25.62"/><line id="_Path_16" data-name="&lt;Path&gt;" class="cls-5" x1="18.97" y1="27.78" x2="18.97" y2="25.62"/><path id="_Path_17" data-name="&lt;Path&gt;" class="cls-2" d="M14.9,23.62a2,2,0,0,0,2-2H12.87A2,2,0,0,0,14.9,23.62Z"/><path id="_Path_18" data-name="&lt;Path&gt;" class="cls-2" d="M37.22,24.7a31.77,31.77,0,0,1,1.12,8.37,1.33,1.33,0,1,1-2.65,0V24.7Z"/><rect id="_Rectangle_" data-name="&lt;Rectangle&gt;" class="cls-12" x="32.12" y="31.77" width="3.09" height="13.25" transform="translate(67.33 76.79) rotate(-180)"/><rect id="_Rectangle_2" data-name="&lt;Rectangle&gt;" class="cls-13" x="32.12" y="31.77" width="3.09" height="7.6" transform="translate(67.33 71.15) rotate(-180)"/><rect id="_Rectangle_3" data-name="&lt;Rectangle&gt;" class="cls-5" x="32.12" y="31.77" width="3.09" height="13.25" transform="translate(67.33 76.79) rotate(-180)"/><rect id="_Rectangle_4" data-name="&lt;Rectangle&gt;" class="cls-12" x="29.03" y="31.77" width="3.09" height="13.25" transform="translate(61.15 76.79) rotate(-180)"/><rect id="_Rectangle_5" data-name="&lt;Rectangle&gt;" class="cls-13" x="29.03" y="31.77" width="3.09" height="7.6" transform="translate(61.15 71.15) rotate(-180)"/><rect id="_Rectangle_6" data-name="&lt;Rectangle&gt;" class="cls-5" x="29.03" y="31.77" width="3.09" height="13.25" transform="translate(61.15 76.79) rotate(-180)"/><path id="_Path_19" data-name="&lt;Path&gt;" class="cls-9" d="M35.78,44.21a2.15,2.15,0,0,0-2.11-1.74,2.19,2.19,0,0,0-1.55.65,2.16,2.16,0,0,0-3.66,1.09c-.11.58.11.81.45.81h6.42C35.67,45,35.9,44.79,35.78,44.21Z"/><path id="_Path_20" data-name="&lt;Path&gt;" class="cls-3" d="M37.19,21.41a1,1,0,0,1-1,1H28a1,1,0,0,1-1-1V14.16a5.1,5.1,0,0,1,10.2,0Z"/><path class="cls-4" d="M32.09,9.07A5.09,5.09,0,0,0,27,14.16v1.76a5.1,5.1,0,1,1,10.2,0V14.16A5.09,5.09,0,0,0,32.09,9.07Z"/><path id="_Path_21" data-name="&lt;Path&gt;" class="cls-5" d="M37.19,21.41a1,1,0,0,1-1,1H28a1,1,0,0,1-1-1V14.16a5.1,5.1,0,0,1,10.2,0Z"/><path id="_Path_22" data-name="&lt;Path&gt;" class="cls-2" d="M34.21,10.82l-.73.85A9.87,9.87,0,0,1,27.36,15a4.73,4.73,0,1,0,9.46,0,4.52,4.52,0,0,0-.06-.53,2.62,2.62,0,0,1-2.18-2Z"/><circle id="_Path_23" data-name="&lt;Path&gt;" class="cls-6" cx="30.25" cy="15.76" r="0.66"/><circle id="_Path_24" data-name="&lt;Path&gt;" class="cls-6" cx="33.93" cy="15.76" r="0.66"/><path id="_Path_25" data-name="&lt;Path&gt;" class="cls-2" d="M27,24.7l0,.44a7.27,7.27,0,0,1-3.06,5.51A1.47,1.47,0,1,0,25.66,33a8.83,8.83,0,0,0,3.73-7h0Z"/><path class="cls-14" d="M35.68,31.26V28.55a5.32,5.32,0,0,1,1.54-3.85,5.13,5.13,0,0,0-5.1-3.25A5.13,5.13,0,0,0,27,24.7a5.36,5.36,0,0,1,1.54,3.85v2.71c0,1.74-.63,3.11-.83,5a1,1,0,0,0,1,1.1h6.78a1,1,0,0,0,1-1.1C36.31,34.37,35.68,33,35.68,31.26Z"/><path class="cls-15" d="M32.12,23.62a5.25,5.25,0,0,1,4.38,2,4.45,4.45,0,0,1,.72-.9,5.13,5.13,0,0,0-5.1-3.25A5.13,5.13,0,0,0,27,24.7a4.45,4.45,0,0,1,.72.9A5.25,5.25,0,0,1,32.12,23.62Z"/><path class="cls-5" d="M35.68,31.26V28.55a5.32,5.32,0,0,1,1.54-3.85,5.13,5.13,0,0,0-5.1-3.25A5.13,5.13,0,0,0,27,24.7a5.36,5.36,0,0,1,1.54,3.85v2.71c0,1.74-.63,3.11-.83,5a1,1,0,0,0,1,1.1h6.78a1,1,0,0,0,1-1.1C36.31,34.37,35.68,33,35.68,31.26Z"/><rect id="_Rectangle_7" data-name="&lt;Rectangle&gt;" class="cls-16" x="28.56" y="29.17" width="7.13" height="2.17" transform="translate(64.24 60.51) rotate(-180)"/><line id="_Path_26" data-name="&lt;Path&gt;" class="cls-5" x1="32.12" y1="43.12" x2="32.12" y2="45.02"/><line id="_Path_27" data-name="&lt;Path&gt;" class="cls-5" x1="30.33" y1="37.4" x2="30.58" y2="35.06"/><line id="_Path_28" data-name="&lt;Path&gt;" class="cls-5" x1="33.92" y1="37.4" x2="33.67" y2="35.06"/><path class="cls-2" d="M32.12,21.45a6.72,6.72,0,0,0-1.82.24c.1,1.23.87,2.18,1.82,2.18a2.11,2.11,0,0,0,1.82-2.18A6.62,6.62,0,0,0,32.12,21.45Z"/></svg>