<svg id="Icons" xmlns="http://www.w3.org/2000/svg" viewBox="0 0 48 48"><defs><style>.cls-1{fill:#724f3d;}.cls-2{fill:#a86c4d;}.cls-3,.cls-6{fill:none;}.cls-3,.cls-4,.cls-6{stroke:#45413c;stroke-linecap:round;}.cls-3,.cls-4{stroke-linejoin:round;}.cls-4{fill:#ffe500;}.cls-5{fill:#ffaa54;}.cls-6{stroke-miterlimit:10;}.cls-7{fill:#ff6196;}.cls-8{fill:#ff87af;}</style></defs><title>285-kiss-woman-man-1</title><path id="_Path_" data-name="&lt;Path&gt;" class="cls-1" d="M36.62,15.5a9.83,9.83,0,0,0-2.44.31c-1.86.42-4.27,1.12-6.46.7a4.15,4.15,0,0,0,.83,3.21,9.81,9.81,0,0,0-1.75,5.6v5.14H46.44V25.32A9.82,9.82,0,0,0,36.62,15.5Z"/><g id="_Group_" data-name="&lt;Group&gt;"><path id="_Path_2" data-name="&lt;Path&gt;" class="cls-2" d="M36.62,15.5a9.83,9.83,0,0,0-2.44.31c-1.86.42-4.27,1.12-6.46.7a4.53,4.53,0,0,0,.45,2.63,17.93,17.93,0,0,0,6-.77,9.81,9.81,0,0,1,12.26,9.51V25.32A9.82,9.82,0,0,0,36.62,15.5Z"/></g><path id="_Path_3" data-name="&lt;Path&gt;" class="cls-3" d="M36.62,15.5a9.83,9.83,0,0,0-2.44.31c-1.86.42-4.27,1.12-6.46.7a4.15,4.15,0,0,0,.83,3.21,9.81,9.81,0,0,0-1.75,5.6v5.14H46.44V25.32A9.82,9.82,0,0,0,36.62,15.5Z"/><path id="_Path_4" data-name="&lt;Path&gt;" class="cls-4" d="M47.49,29.71a1.84,1.84,0,0,0-1.39-1.54L45.51,28A2.06,2.06,0,0,1,44,26V24a1.87,1.87,0,0,0-1.4-1.81,15.34,15.34,0,0,1-6,1.09,15.52,15.52,0,0,1-6-1.08,1.85,1.85,0,0,0-1.4,1.8v2.49a1.6,1.6,0,0,1-1.59,1.6,1.88,1.88,0,0,0-1.88,1.51,1.81,1.81,0,0,0,1.79,2.11h.11a9.05,9.05,0,0,0,17.91,0h.11A1.81,1.81,0,0,0,47.49,29.71Z"/><ellipse id="_Ellipse_" data-name="&lt;Ellipse&gt;" class="cls-5" cx="30.43" cy="32.79" rx="1" ry="0.6"/><ellipse id="_Ellipse_2" data-name="&lt;Ellipse&gt;" class="cls-5" cx="42.56" cy="32.79" rx="1" ry="0.6"/><g id="_Group_2" data-name="&lt;Group&gt;"><path id="_Path_5" data-name="&lt;Path&gt;" class="cls-6" d="M35.37,33.17a1.13,1.13,0,0,0-.55-.15,1.11,1.11,0,0,0,0,2.22"/><path id="_Path_6" data-name="&lt;Path&gt;" class="cls-6" d="M34.82,35.24a1.11,1.11,0,1,0,0,2.21,1,1,0,0,0,.55-.15"/></g><path id="_Path_7" data-name="&lt;Path&gt;" class="cls-3" d="M41.25,29.15a1,1,0,1,1-1.93,0"/><path id="_Path_8" data-name="&lt;Path&gt;" class="cls-3" d="M32.43,29.15a1,1,0,1,1-1.94,0"/><path id="_Path_9" data-name="&lt;Path&gt;" class="cls-1" d="M11.38,14.91A10.88,10.88,0,0,1,22.26,25.79V40a1.23,1.23,0,0,1-.77,1.14h0a27.09,27.09,0,0,1-20.22,0h0A1.23,1.23,0,0,1,.5,40V25.79A10.88,10.88,0,0,1,11.38,14.91Z"/><path id="_Path_10" data-name="&lt;Path&gt;" class="cls-2" d="M11.38,14.91A10.88,10.88,0,0,0,.5,25.79v2.86a10.88,10.88,0,0,1,21.76,0V25.79A10.88,10.88,0,0,0,11.38,14.91Z"/><path id="_Path_11" data-name="&lt;Path&gt;" class="cls-3" d="M11.38,14.91A10.88,10.88,0,0,1,22.26,25.79V40a1.23,1.23,0,0,1-.77,1.14h0a27.09,27.09,0,0,1-20.22,0h0A1.23,1.23,0,0,1,.5,40V25.79A10.88,10.88,0,0,1,11.38,14.91Z"/><g id="_Group_3" data-name="&lt;Group&gt;"><path id="_Path_12" data-name="&lt;Path&gt;" class="cls-4" d="M20.44,28.06a8.77,8.77,0,0,1-5.67-5l-.62-1.49A15.92,15.92,0,0,1,4.2,27.72l-1.89.34a1.81,1.81,0,1,0,0,3.62h.11a9.05,9.05,0,0,0,17.91,0h.11a1.81,1.81,0,1,0,0-3.62Z"/></g><ellipse id="_Ellipse_3" data-name="&lt;Ellipse&gt;" class="cls-5" cx="5.44" cy="32.79" rx="1" ry="0.6"/><ellipse id="_Ellipse_4" data-name="&lt;Ellipse&gt;" class="cls-5" cx="17.57" cy="32.79" rx="1" ry="0.6"/><g id="_Group_4" data-name="&lt;Group&gt;"><path id="_Path_13" data-name="&lt;Path&gt;" class="cls-6" d="M12.63,33.15a1.12,1.12,0,0,1,.55-.14,1.11,1.11,0,1,1,0,2.21"/><path id="_Path_14" data-name="&lt;Path&gt;" class="cls-6" d="M13.18,35.22a1.11,1.11,0,1,1,0,2.21,1,1,0,0,1-.55-.15"/></g><path id="_Path_15" data-name="&lt;Path&gt;" class="cls-3" d="M6.75,29.13a1,1,0,1,0,1.93,0"/><path id="_Path_16" data-name="&lt;Path&gt;" class="cls-3" d="M15.57,29.13a1,1,0,1,0,1.94,0"/><g id="_Group_5" data-name="&lt;Group&gt;"><path class="cls-7" d="M33.16,5.07a5.17,5.17,0,0,0-7.1.78L24,8.14,21.94,5.85a5.17,5.17,0,0,0-7.1-.78,6.53,6.53,0,0,0-2.51,5.29,8.41,8.41,0,0,0,2.6,6.17L24,24.89l9.07-8.36a8.41,8.41,0,0,0,2.6-6.17A6.53,6.53,0,0,0,33.16,5.07Z"/><path class="cls-8" d="M14.84,11a5.17,5.17,0,0,1,7.1.77l1.2,1.34a1.16,1.16,0,0,0,1.72,0l1.2-1.34a5.17,5.17,0,0,1,7.1-.77,6,6,0,0,1,2,2.5,8.92,8.92,0,0,0,.56-3.1,6.53,6.53,0,0,0-2.51-5.29,5.17,5.17,0,0,0-7.1.78L24,8.14,21.94,5.85a5.17,5.17,0,0,0-7.1-.78,6.53,6.53,0,0,0-2.51,5.29,8.92,8.92,0,0,0,.56,3.1A6,6,0,0,1,14.84,11Z"/><path class="cls-3" d="M33.16,5.07a5.17,5.17,0,0,0-7.1.78L24,8.14,21.94,5.85a5.17,5.17,0,0,0-7.1-.78,6.53,6.53,0,0,0-2.51,5.29,8.41,8.41,0,0,0,2.6,6.17L24,24.89l9.07-8.36a8.41,8.41,0,0,0,2.6-6.17A6.53,6.53,0,0,0,33.16,5.07Z"/></g></svg>