<svg id="Icons" xmlns="http://www.w3.org/2000/svg" viewBox="0 0 48 48"><defs><style>.cls-1{fill:#a86c4d;}.cls-2{fill:#de926a;}.cls-3{fill:none;}.cls-3,.cls-6,.cls-7{stroke:#45413c;stroke-linecap:round;stroke-linejoin:round;}.cls-4{fill:#ff87af;}.cls-5{fill:#ff6196;}.cls-13,.cls-6{fill:#ffcebf;}.cls-7{fill:#45413c;}.cls-8{fill:#ff6242;}.cls-9{fill:#ffa694;}.cls-10{fill:#ffb59e;}.cls-11{fill:#00b8f0;}.cls-12{fill:#009fd9;}.cls-14{fill:#00f5bc;}.cls-15{fill:#00dba8;}</style></defs><title>298-family-man-woman-boy-2</title><path id="_Path_" data-name="&lt;Path&gt;" class="cls-1" d="M35.75,1A10.76,10.76,0,0,1,46.51,11.76v14a1.2,1.2,0,0,1-.76,1.12h0a26.81,26.81,0,0,1-20,0h0A1.2,1.2,0,0,1,25,25.8v-14A10.76,10.76,0,0,1,35.75,1Z"/><path id="_Path_2" data-name="&lt;Path&gt;" class="cls-2" d="M35.75,1A10.76,10.76,0,0,0,25,11.76v3.17A10.76,10.76,0,0,1,35.75,4.17h0A10.76,10.76,0,0,1,46.51,14.93V11.76A10.76,10.76,0,0,0,35.75,1Z"/><path id="_Path_3" data-name="&lt;Path&gt;" class="cls-3" d="M35.75,1A10.76,10.76,0,0,1,46.51,11.76v14a1.2,1.2,0,0,1-.76,1.12h0a26.81,26.81,0,0,1-20,0h0A1.2,1.2,0,0,1,25,25.8v-14A10.76,10.76,0,0,1,35.75,1Z"/><path id="_Rectangle_" data-name="&lt;Rectangle&gt;" class="cls-4" d="M35.75,25.63h0A11.75,11.75,0,0,1,47.5,37.38V47.65a0,0,0,0,1,0,0H24a0,0,0,0,1,0,0V37.38A11.75,11.75,0,0,1,35.75,25.63Z"/><path class="cls-5" d="M35.75,25.63A11.75,11.75,0,0,0,24,37.38V41a11.75,11.75,0,0,1,23.5,0V37.38A11.75,11.75,0,0,0,35.75,25.63Z"/><path id="_Rectangle_2" data-name="&lt;Rectangle&gt;" class="cls-3" d="M35.75,25.63h0A11.75,11.75,0,0,1,47.5,37.38V47.65a0,0,0,0,1,0,0H24a0,0,0,0,1,0,0V37.38A11.75,11.75,0,0,1,35.75,25.63Z"/><rect id="_Rectangle_3" data-name="&lt;Rectangle&gt;" class="cls-6" x="33.23" y="21.63" width="5.03" height="7.85" rx="2.52" ry="2.52"/><g id="_Group_" data-name="&lt;Group&gt;"><path id="_Path_4" data-name="&lt;Path&gt;" class="cls-6" d="M44.72,14A8.67,8.67,0,0,1,39.1,9l-.61-1.47a15.71,15.71,0,0,1-9.84,6.11L26.78,14a1.8,1.8,0,0,0,0,3.59l.11,0a9,9,0,0,0,17.72,0l.11,0a1.8,1.8,0,0,0,0-3.59Z"/></g><path id="_Path_5" data-name="&lt;Path&gt;" class="cls-7" d="M30.37,15.44a.77.77,0,0,0,.77.76.76.76,0,0,0,.76-.76.77.77,0,0,0-.76-.77A.78.78,0,0,0,30.37,15.44Z"/><path id="_Path_6" data-name="&lt;Path&gt;" class="cls-7" d="M41.13,15.44a.77.77,0,0,1-.77.76.76.76,0,0,1-.76-.76.77.77,0,0,1,.76-.77A.78.78,0,0,1,41.13,15.44Z"/><g id="_Group_2" data-name="&lt;Group&gt;"><g id="_Group_3" data-name="&lt;Group&gt;"><path id="_Path_7" data-name="&lt;Path&gt;" class="cls-8" d="M32.94,20.08a.48.48,0,0,0-.33.15.45.45,0,0,0-.1.35,3.29,3.29,0,0,0,6.48,0,.45.45,0,0,0-.1-.35.48.48,0,0,0-.33-.15Z"/></g><path id="_Path_8" data-name="&lt;Path&gt;" class="cls-9" d="M35.75,23.32a3.26,3.26,0,0,0,2.3-.93,3.34,3.34,0,0,0-4.6,0A3.26,3.26,0,0,0,35.75,23.32Z"/></g><g id="_Group_4" data-name="&lt;Group&gt;"><path id="_Path_9" data-name="&lt;Path&gt;" class="cls-3" d="M32.94,20.08a.48.48,0,0,0-.33.15.45.45,0,0,0-.1.35,3.29,3.29,0,0,0,6.48,0,.45.45,0,0,0-.1-.35.48.48,0,0,0-.33-.15Z"/></g><line id="_Path_10" data-name="&lt;Path&gt;" class="cls-3" x1="42.62" y1="47.65" x2="42.62" y2="36.88"/><ellipse id="_Ellipse_" data-name="&lt;Ellipse&gt;" class="cls-10" cx="29.87" cy="18.69" rx="0.99" ry="0.59"/><ellipse id="_Ellipse_2" data-name="&lt;Ellipse&gt;" class="cls-10" cx="41.63" cy="18.69" rx="0.99" ry="0.59"/><path id="_Path_11" data-name="&lt;Path&gt;" class="cls-1" d="M12.25,1.59a9.72,9.72,0,0,0-2.42.3C8,2.31,5.61,3,3.44,2.59a4.13,4.13,0,0,0,.83,3.18A9.61,9.61,0,0,0,2.53,11.3v5.09H22V11.3A9.72,9.72,0,0,0,12.25,1.59Z"/><g id="_Group_5" data-name="&lt;Group&gt;"><path id="_Path_12" data-name="&lt;Path&gt;" class="cls-2" d="M12.25,1.59a9.72,9.72,0,0,0-2.42.3C8,2.31,5.61,3,3.44,2.59a4.4,4.4,0,0,0,.67,3,18.93,18.93,0,0,0,5.72-.79A9.74,9.74,0,0,1,22,14.19V11.3A9.72,9.72,0,0,0,12.25,1.59Z"/></g><path id="_Path_13" data-name="&lt;Path&gt;" class="cls-3" d="M12.25,1.59a9.72,9.72,0,0,0-2.42.3C8,2.31,5.61,3,3.44,2.59a4.13,4.13,0,0,0,.83,3.18A9.61,9.61,0,0,0,2.53,11.3v5.09H22V11.3A9.72,9.72,0,0,0,12.25,1.59Z"/><path id="_Rectangle_4" data-name="&lt;Rectangle&gt;" class="cls-11" d="M12.25,25.63h0A11.75,11.75,0,0,1,24,37.38V47.65a0,0,0,0,1,0,0H.5a0,0,0,0,1,0,0V37.38A11.75,11.75,0,0,1,12.25,25.63Z"/><path class="cls-12" d="M12.25,25.63A11.75,11.75,0,0,0,.5,37.38V41A11.75,11.75,0,0,1,24,41V37.38A11.75,11.75,0,0,0,12.25,25.63Z"/><path id="_Rectangle_5" data-name="&lt;Rectangle&gt;" class="cls-3" d="M12.25,25.63h0A11.75,11.75,0,0,1,24,37.38V47.65a0,0,0,0,1,0,0H.5a0,0,0,0,1,0,0V37.38A11.75,11.75,0,0,1,12.25,25.63Z"/><rect id="_Rectangle_6" data-name="&lt;Rectangle&gt;" class="cls-13" x="9.73" y="21.63" width="5.03" height="7.85" rx="2.52" ry="2.52"/><rect id="_Rectangle_7" data-name="&lt;Rectangle&gt;" class="cls-10" x="9.73" y="21.63" width="5.03" height="5.82" rx="2.52" ry="2.52"/><rect id="_Rectangle_8" data-name="&lt;Rectangle&gt;" class="cls-3" x="9.73" y="21.63" width="5.03" height="7.85" rx="2.52" ry="2.52"/><path class="cls-6" d="M23,15.5A1.86,1.86,0,0,0,21.13,14a1.58,1.58,0,0,1-1.58-1.58V10a1.85,1.85,0,0,0-1.38-1.78,15.21,15.21,0,0,1-5.92,1.07A15.21,15.21,0,0,1,6.33,8.18,1.85,1.85,0,0,0,5,10v2.47A1.58,1.58,0,0,1,3.37,14,1.86,1.86,0,0,0,1.51,15.5a1.8,1.8,0,0,0,1.77,2.1l.11,0a9,9,0,0,0,17.72,0l.11,0A1.8,1.8,0,0,0,23,15.5Z"/><path id="_Path_14" data-name="&lt;Path&gt;" class="cls-7" d="M6.87,15.44a.77.77,0,0,0,.77.76.76.76,0,0,0,.76-.76.77.77,0,0,0-.76-.77A.78.78,0,0,0,6.87,15.44Z"/><path id="_Path_15" data-name="&lt;Path&gt;" class="cls-7" d="M17.63,15.44a.77.77,0,0,1-.77.76.76.76,0,0,1-.76-.76.77.77,0,0,1,.76-.77A.78.78,0,0,1,17.63,15.44Z"/><g id="_Group_6" data-name="&lt;Group&gt;"><g id="_Group_7" data-name="&lt;Group&gt;"><path id="_Path_16" data-name="&lt;Path&gt;" class="cls-8" d="M9.44,20.08a.48.48,0,0,0-.33.15.45.45,0,0,0-.1.35,3.29,3.29,0,0,0,6.48,0,.45.45,0,0,0-.1-.35.48.48,0,0,0-.33-.15Z"/></g><path id="_Path_17" data-name="&lt;Path&gt;" class="cls-9" d="M12.25,23.32a3.26,3.26,0,0,0,2.3-.93,3.34,3.34,0,0,0-4.6,0A3.26,3.26,0,0,0,12.25,23.32Z"/></g><g id="_Group_8" data-name="&lt;Group&gt;"><path id="_Path_18" data-name="&lt;Path&gt;" class="cls-3" d="M9.44,20.08a.48.48,0,0,0-.33.15.45.45,0,0,0-.1.35,3.29,3.29,0,0,0,6.48,0,.45.45,0,0,0-.1-.35.48.48,0,0,0-.33-.15Z"/></g><line id="_Path_19" data-name="&lt;Path&gt;" class="cls-3" x1="5.38" y1="47.65" x2="5.38" y2="36.88"/><ellipse id="_Ellipse_3" data-name="&lt;Ellipse&gt;" class="cls-10" cx="6.37" cy="18.69" rx="0.99" ry="0.59"/><ellipse id="_Ellipse_4" data-name="&lt;Ellipse&gt;" class="cls-10" cx="18.13" cy="18.69" rx="0.99" ry="0.59"/><path id="_Path_20" data-name="&lt;Path&gt;" class="cls-14" d="M32.81,47.65a9.42,9.42,0,0,0-17.62,0Z"/><path id="_Path_21" data-name="&lt;Path&gt;" class="cls-15" d="M24,44.32a9.4,9.4,0,0,1,7.19,3.33h1.62a9.42,9.42,0,0,0-17.62,0h1.62A9.4,9.4,0,0,1,24,44.32Z"/><path id="_Path_22" data-name="&lt;Path&gt;" class="cls-3" d="M32.81,47.65a9.42,9.42,0,0,0-17.62,0Z"/><rect id="_Rectangle_9" data-name="&lt;Rectangle&gt;" class="cls-13" x="22.14" y="38.37" width="3.72" height="6.4" rx="1.86" ry="1.86"/><rect id="_Rectangle_10" data-name="&lt;Rectangle&gt;" class="cls-10" x="22.14" y="38.37" width="3.72" height="4.64" rx="1.86" ry="1.86"/><rect id="_Rectangle_11" data-name="&lt;Rectangle&gt;" class="cls-3" x="22.14" y="38.37" width="3.72" height="6.4" rx="1.86" ry="1.86"/><path id="_Path_23" data-name="&lt;Path&gt;" class="cls-1" d="M24,23.92a7.58,7.58,0,0,0-1.8.22,11.93,11.93,0,0,1-4.78.52A3.09,3.09,0,0,0,18,27a7.19,7.19,0,0,0-1.3,4.14V35H31.26v-3.8A7.26,7.26,0,0,0,24,23.92Z"/><path id="_Path_24" data-name="&lt;Path&gt;" class="cls-2" d="M24,23.92a7.58,7.58,0,0,0-1.8.22,11.93,11.93,0,0,1-4.78.52A3.12,3.12,0,0,0,18,27a14.55,14.55,0,0,0,4.18-.6A7.58,7.58,0,0,1,24,26.2a7.26,7.26,0,0,1,7.26,7.26V31.18A7.26,7.26,0,0,0,24,23.92Z"/><path id="_Path_25" data-name="&lt;Path&gt;" class="cls-3" d="M24,23.92a7.58,7.58,0,0,0-1.8.22,11.93,11.93,0,0,1-4.78.52A3.09,3.09,0,0,0,18,27a7.19,7.19,0,0,0-1.3,4.14V35H31.26v-3.8A7.26,7.26,0,0,0,24,23.92Z"/><path id="_Path_26" data-name="&lt;Path&gt;" class="cls-6" d="M17,33.28a1.31,1.31,0,0,0,.3,2.6h.08a6.69,6.69,0,0,0,13.24,0h.08a1.31,1.31,0,0,0,.3-2.6c-3-.59-4.64-3.76-4.68-3.83C26.27,29.53,23.83,33.36,17,33.28Z"/><path id="_Path_27" data-name="&lt;Path&gt;" class="cls-7" d="M20.48,34.8a.5.5,0,0,0,.5.5.5.5,0,0,0,.5-.5.5.5,0,0,0-.5-.5A.51.51,0,0,0,20.48,34.8Z"/><path id="_Path_28" data-name="&lt;Path&gt;" class="cls-7" d="M27.52,34.8a.5.5,0,0,1-.5.5.5.5,0,0,1-.5-.5.5.5,0,0,1,.5-.5A.51.51,0,0,1,27.52,34.8Z"/><ellipse id="_Ellipse_5" data-name="&lt;Ellipse&gt;" class="cls-10" cx="19.65" cy="36.93" rx="0.65" ry="0.39"/><ellipse id="_Ellipse_6" data-name="&lt;Ellipse&gt;" class="cls-10" cx="28.35" cy="36.93" rx="0.65" ry="0.39"/><path id="_Path_29" data-name="&lt;Path&gt;" class="cls-3" d="M22.31,38.78a2.34,2.34,0,0,0,1.69.54,2.34,2.34,0,0,0,1.69-.54"/></svg>