<svg id="Icons" xmlns="http://www.w3.org/2000/svg" viewBox="0 0 48 48"><defs><style>.cls-1,.cls-16{fill:#a86c4d;}.cls-2{fill:#de926a;}.cls-3{fill:none;}.cls-16,.cls-3,.cls-8,.cls-9{stroke:#45413c;stroke-linecap:round;stroke-linejoin:round;}.cls-4{fill:#00b8f0;}.cls-5{fill:#009fd9;}.cls-6,.cls-8{fill:#ffcebf;}.cls-7{fill:#ffb59e;}.cls-9{fill:#45413c;}.cls-10{fill:#ff6242;}.cls-11{fill:#ffa694;}.cls-12{fill:#ff87af;}.cls-13{fill:#ff6196;}.cls-14{fill:#00f5bc;}.cls-15{fill:#00dba8;}.cls-17{fill:#bf8df2;}.cls-18{fill:#9f5ae5;}</style></defs><title>302-family-man-woman-girl-boy-2</title><path id="_Path_" data-name="&lt;Path&gt;" class="cls-1" d="M12.25,1.44a10.22,10.22,0,0,0-2.42.3c-1.83.42-4.22,1.12-6.39.7a4.13,4.13,0,0,0,.83,3.18,9.62,9.62,0,0,0-1.74,5.54v5.08H22V11.16A9.72,9.72,0,0,0,12.25,1.44Z"/><g id="_Group_" data-name="&lt;Group&gt;"><path id="_Path_2" data-name="&lt;Path&gt;" class="cls-2" d="M12.25,1.44a10.22,10.22,0,0,0-2.42.3c-1.83.42-4.22,1.12-6.39.7a4.38,4.38,0,0,0,.67,3,18.62,18.62,0,0,0,5.72-.79,10.22,10.22,0,0,1,2.42-.3A9.72,9.72,0,0,1,22,14.05V11.16A9.72,9.72,0,0,0,12.25,1.44Z"/></g><path id="_Path_3" data-name="&lt;Path&gt;" class="cls-3" d="M12.25,1.44a10.22,10.22,0,0,0-2.42.3c-1.83.42-4.22,1.12-6.39.7a4.13,4.13,0,0,0,.83,3.18,9.62,9.62,0,0,0-1.74,5.54v5.08H22V11.16A9.72,9.72,0,0,0,12.25,1.44Z"/><path id="_Rectangle_" data-name="&lt;Rectangle&gt;" class="cls-4" d="M12.25,25.49h0A11.75,11.75,0,0,1,24,37.24V47.5a0,0,0,0,1,0,0H.5a0,0,0,0,1,0,0V37.24A11.75,11.75,0,0,1,12.25,25.49Z"/><path class="cls-5" d="M12.25,25.49A11.75,11.75,0,0,0,.5,37.24v3.59a11.75,11.75,0,0,1,23.5,0V37.24A11.75,11.75,0,0,0,12.25,25.49Z"/><path id="_Rectangle_2" data-name="&lt;Rectangle&gt;" class="cls-3" d="M12.25,25.49h0A11.75,11.75,0,0,1,24,37.24V47.5a0,0,0,0,1,0,0H.5a0,0,0,0,1,0,0V37.24A11.75,11.75,0,0,1,12.25,25.49Z"/><rect id="_Rectangle_3" data-name="&lt;Rectangle&gt;" class="cls-6" x="9.73" y="21.48" width="5.03" height="7.85" rx="2.52" ry="2.52"/><rect id="_Rectangle_4" data-name="&lt;Rectangle&gt;" class="cls-7" x="9.73" y="21.48" width="5.03" height="5.82" rx="2.52" ry="2.52"/><rect id="_Rectangle_5" data-name="&lt;Rectangle&gt;" class="cls-3" x="9.73" y="21.48" width="5.03" height="7.85" rx="2.52" ry="2.52"/><path class="cls-8" d="M23,15.36a1.86,1.86,0,0,0-1.86-1.5,1.58,1.58,0,0,1-1.58-1.58V9.82A1.86,1.86,0,0,0,18.17,8a15.2,15.2,0,0,1-5.92,1.08A15.2,15.2,0,0,1,6.33,8,1.86,1.86,0,0,0,5,9.82v2.46a1.58,1.58,0,0,1-1.58,1.58,1.86,1.86,0,0,0-1.86,1.5,1.79,1.79,0,0,0,1.77,2.09h.11a9,9,0,0,0,17.72,0h.11A1.79,1.79,0,0,0,23,15.36Z"/><path id="_Path_4" data-name="&lt;Path&gt;" class="cls-9" d="M6.87,15.29a.77.77,0,0,0,.77.76.76.76,0,1,0,0-1.52A.77.77,0,0,0,6.87,15.29Z"/><path id="_Path_5" data-name="&lt;Path&gt;" class="cls-9" d="M17.63,15.29a.77.77,0,0,1-.77.76.76.76,0,1,1,0-1.52A.77.77,0,0,1,17.63,15.29Z"/><g id="_Group_2" data-name="&lt;Group&gt;"><g id="_Group_3" data-name="&lt;Group&gt;"><path id="_Path_6" data-name="&lt;Path&gt;" class="cls-10" d="M9.44,19.93a.45.45,0,0,0-.33.16.43.43,0,0,0-.1.35,3.29,3.29,0,0,0,6.48,0,.43.43,0,0,0-.1-.35.45.45,0,0,0-.33-.16Z"/></g><path id="_Path_7" data-name="&lt;Path&gt;" class="cls-11" d="M12.25,23.18a3.3,3.3,0,0,0,2.3-.93,3.31,3.31,0,0,0-4.6,0A3.3,3.3,0,0,0,12.25,23.18Z"/></g><g id="_Group_4" data-name="&lt;Group&gt;"><path id="_Path_8" data-name="&lt;Path&gt;" class="cls-3" d="M9.44,19.93a.45.45,0,0,0-.33.16.43.43,0,0,0-.1.35,3.29,3.29,0,0,0,6.48,0,.43.43,0,0,0-.1-.35.45.45,0,0,0-.33-.16Z"/></g><line id="_Path_9" data-name="&lt;Path&gt;" class="cls-3" x1="5.38" y1="47.5" x2="5.38" y2="36.73"/><ellipse id="_Ellipse_" data-name="&lt;Ellipse&gt;" class="cls-7" cx="6.37" cy="18.54" rx="0.99" ry="0.59"/><ellipse id="_Ellipse_2" data-name="&lt;Ellipse&gt;" class="cls-7" cx="18.13" cy="18.54" rx="0.99" ry="0.59"/><path id="_Path_10" data-name="&lt;Path&gt;" class="cls-1" d="M35.75.85A10.76,10.76,0,0,1,46.51,11.61v14a1.23,1.23,0,0,1-.76,1.13h0a26.9,26.9,0,0,1-20,0h0A1.23,1.23,0,0,1,25,25.65v-14A10.76,10.76,0,0,1,35.75.85Z"/><path id="_Path_11" data-name="&lt;Path&gt;" class="cls-2" d="M35.75.85A10.76,10.76,0,0,0,25,11.61v3.17A10.76,10.76,0,0,1,35.75,4h0A10.76,10.76,0,0,1,46.51,14.78V11.61A10.76,10.76,0,0,0,35.75.85Z"/><path id="_Path_12" data-name="&lt;Path&gt;" class="cls-3" d="M35.75.85A10.76,10.76,0,0,1,46.51,11.61v14a1.23,1.23,0,0,1-.76,1.13h0a26.9,26.9,0,0,1-20,0h0A1.23,1.23,0,0,1,25,25.65v-14A10.76,10.76,0,0,1,35.75.85Z"/><path id="_Rectangle_6" data-name="&lt;Rectangle&gt;" class="cls-12" d="M35.75,25.49h0A11.75,11.75,0,0,1,47.5,37.24V47.5a0,0,0,0,1,0,0H24a0,0,0,0,1,0,0V37.24A11.75,11.75,0,0,1,35.75,25.49Z"/><path class="cls-13" d="M35.75,25.49A11.75,11.75,0,0,0,24,37.24v3.59a11.75,11.75,0,0,1,23.5,0V37.24A11.75,11.75,0,0,0,35.75,25.49Z"/><path id="_Rectangle_7" data-name="&lt;Rectangle&gt;" class="cls-3" d="M35.75,25.49h0A11.75,11.75,0,0,1,47.5,37.24V47.5a0,0,0,0,1,0,0H24a0,0,0,0,1,0,0V37.24A11.75,11.75,0,0,1,35.75,25.49Z"/><rect id="_Rectangle_8" data-name="&lt;Rectangle&gt;" class="cls-8" x="33.23" y="21.48" width="5.03" height="7.85" rx="2.52" ry="2.52"/><g id="_Group_5" data-name="&lt;Group&gt;"><path id="_Path_13" data-name="&lt;Path&gt;" class="cls-8" d="M44.72,13.86a8.68,8.68,0,0,1-5.62-5l-.61-1.47a15.75,15.75,0,0,1-9.84,6.11l-1.87.33a1.8,1.8,0,0,0,0,3.59h.11a9,9,0,0,0,17.72,0h.11a1.8,1.8,0,0,0,0-3.59Z"/></g><path id="_Path_14" data-name="&lt;Path&gt;" class="cls-9" d="M30.37,15.29a.77.77,0,0,0,.77.76.76.76,0,0,0,0-1.52A.77.77,0,0,0,30.37,15.29Z"/><path id="_Path_15" data-name="&lt;Path&gt;" class="cls-9" d="M41.13,15.29a.77.77,0,0,1-.77.76.76.76,0,0,1,0-1.52A.77.77,0,0,1,41.13,15.29Z"/><g id="_Group_6" data-name="&lt;Group&gt;"><g id="_Group_7" data-name="&lt;Group&gt;"><path id="_Path_16" data-name="&lt;Path&gt;" class="cls-10" d="M32.94,19.93a.45.45,0,0,0-.33.16.43.43,0,0,0-.1.35,3.29,3.29,0,0,0,6.48,0,.43.43,0,0,0-.1-.35.45.45,0,0,0-.33-.16Z"/></g><path id="_Path_17" data-name="&lt;Path&gt;" class="cls-11" d="M35.75,23.18a3.3,3.3,0,0,0,2.3-.93,3.31,3.31,0,0,0-4.6,0A3.3,3.3,0,0,0,35.75,23.18Z"/></g><g id="_Group_8" data-name="&lt;Group&gt;"><path id="_Path_18" data-name="&lt;Path&gt;" class="cls-3" d="M32.94,19.93a.45.45,0,0,0-.33.16.43.43,0,0,0-.1.35,3.29,3.29,0,0,0,6.48,0,.43.43,0,0,0-.1-.35.45.45,0,0,0-.33-.16Z"/></g><line id="_Path_19" data-name="&lt;Path&gt;" class="cls-3" x1="42.62" y1="47.5" x2="42.62" y2="36.73"/><ellipse id="_Ellipse_3" data-name="&lt;Ellipse&gt;" class="cls-7" cx="29.87" cy="18.54" rx="0.99" ry="0.59"/><ellipse id="_Ellipse_4" data-name="&lt;Ellipse&gt;" class="cls-7" cx="41.63" cy="18.54" rx="0.99" ry="0.59"/><path id="_Path_20" data-name="&lt;Path&gt;" class="cls-14" d="M24,47.5a9.42,9.42,0,0,0-17.62,0Z"/><path id="_Path_21" data-name="&lt;Path&gt;" class="cls-15" d="M15.19,44.17a9.36,9.36,0,0,1,7.18,3.33H24a9.42,9.42,0,0,0-17.62,0H8A9.4,9.4,0,0,1,15.19,44.17Z"/><path id="_Path_22" data-name="&lt;Path&gt;" class="cls-3" d="M24,47.5a9.42,9.42,0,0,0-17.62,0Z"/><rect id="_Rectangle_9" data-name="&lt;Rectangle&gt;" class="cls-6" x="13.33" y="38.22" width="3.72" height="6.4" rx="1.86" ry="1.86"/><rect id="_Rectangle_10" data-name="&lt;Rectangle&gt;" class="cls-7" x="13.33" y="38.22" width="3.72" height="4.64" rx="1.86" ry="1.86"/><rect id="_Rectangle_11" data-name="&lt;Rectangle&gt;" class="cls-3" x="13.33" y="38.22" width="3.72" height="6.4" rx="1.86" ry="1.86"/><path id="_Path_23" data-name="&lt;Path&gt;" class="cls-1" d="M15.19,23.77a7.24,7.24,0,0,0-1.81.23,12.06,12.06,0,0,1-4.77.52,3.12,3.12,0,0,0,.61,2.37A7.28,7.28,0,0,0,7.93,31v3.8H22.45V31A7.26,7.26,0,0,0,15.19,23.77Z"/><path id="_Path_24" data-name="&lt;Path&gt;" class="cls-2" d="M15.19,23.77a7.24,7.24,0,0,0-1.81.23,12.06,12.06,0,0,1-4.77.52,3.11,3.11,0,0,0,.6,2.35,14.44,14.44,0,0,0,4.17-.59,7.26,7.26,0,0,1,9.07,7V31A7.26,7.26,0,0,0,15.19,23.77Z"/><path id="_Path_25" data-name="&lt;Path&gt;" class="cls-3" d="M15.19,23.77a7.24,7.24,0,0,0-1.81.23,12.06,12.06,0,0,1-4.77.52,3.12,3.12,0,0,0,.61,2.37A7.28,7.28,0,0,0,7.93,31v3.8H22.45V31A7.26,7.26,0,0,0,15.19,23.77Z"/><path id="_Path_26" data-name="&lt;Path&gt;" class="cls-8" d="M8.18,33.13a1.38,1.38,0,0,0-1,1.14,1.35,1.35,0,0,0,1.34,1.46h.08a6.69,6.69,0,0,0,13.24,0h.08a1.31,1.31,0,0,0,.3-2.6c-3-.59-4.64-3.76-4.68-3.83C17.46,29.39,15,33.22,8.18,33.13Z"/><path id="_Path_27" data-name="&lt;Path&gt;" class="cls-9" d="M11.67,34.66a.5.5,0,0,0,1,0,.5.5,0,0,0-1,0Z"/><path id="_Path_28" data-name="&lt;Path&gt;" class="cls-9" d="M18.71,34.66a.51.51,0,0,1-.5.5.5.5,0,0,1-.5-.5.5.5,0,0,1,.5-.5A.5.5,0,0,1,18.71,34.66Z"/><ellipse id="_Ellipse_5" data-name="&lt;Ellipse&gt;" class="cls-7" cx="10.84" cy="36.78" rx="0.65" ry="0.39"/><ellipse id="_Ellipse_6" data-name="&lt;Ellipse&gt;" class="cls-7" cx="19.53" cy="36.78" rx="0.65" ry="0.39"/><path id="_Path_29" data-name="&lt;Path&gt;" class="cls-3" d="M13.5,38.63a2.34,2.34,0,0,0,1.69.54,2.34,2.34,0,0,0,1.69-.54"/><path id="_Path_30" data-name="&lt;Path&gt;" class="cls-16" d="M22.94,41.17a8.22,8.22,0,0,0,1.61-2c.8-1.38,2.69-1.69,3.47-.46.67,1.06.27,2.35-1.5,3A3.81,3.81,0,0,1,22.94,41.17Z"/><path id="_Path_31" data-name="&lt;Path&gt;" class="cls-16" d="M42.69,41.17a8.12,8.12,0,0,1-1.62-2c-.8-1.38-2.69-1.69-3.46-.46-.67,1.06-.28,2.35,1.49,3A3.84,3.84,0,0,0,42.69,41.17Z"/><path id="_Path_32" data-name="&lt;Path&gt;" class="cls-17" d="M41.62,47.5A9.42,9.42,0,0,0,24,47.5Z"/><path id="_Path_33" data-name="&lt;Path&gt;" class="cls-18" d="M32.81,44.17A9.4,9.4,0,0,1,40,47.5h1.62A9.42,9.42,0,0,0,24,47.5h1.63A9.36,9.36,0,0,1,32.81,44.17Z"/><path id="_Path_34" data-name="&lt;Path&gt;" class="cls-3" d="M41.62,47.5A9.42,9.42,0,0,0,24,47.5Z"/><rect id="_Rectangle_12" data-name="&lt;Rectangle&gt;" class="cls-6" x="30.95" y="38.22" width="3.72" height="6.4" rx="1.86" ry="1.86"/><rect id="_Rectangle_13" data-name="&lt;Rectangle&gt;" class="cls-7" x="30.95" y="38.22" width="3.72" height="4.64" rx="1.86" ry="1.86"/><rect id="_Rectangle_14" data-name="&lt;Rectangle&gt;" class="cls-3" x="30.95" y="38.22" width="3.72" height="6.4" rx="1.86" ry="1.86"/><path id="_Rectangle_15" data-name="&lt;Rectangle&gt;" class="cls-1" d="M32.81,23.77h0A7.26,7.26,0,0,1,40.07,31v3.8a0,0,0,0,1,0,0H25.55a0,0,0,0,1,0,0V31A7.26,7.26,0,0,1,32.81,23.77Z"/><path id="_Path_35" data-name="&lt;Path&gt;" class="cls-2" d="M32.81,23.77A7.26,7.26,0,0,0,25.55,31v2.28a7.26,7.26,0,1,1,14.52,0V31A7.26,7.26,0,0,0,32.81,23.77Z"/><path id="_Path_36" data-name="&lt;Path&gt;" class="cls-3" d="M32.81,23.77A7.26,7.26,0,0,0,25.55,31v3.8H40.07V31A7.26,7.26,0,0,0,32.81,23.77Z"/><path class="cls-8" d="M40.85,34.27a1.38,1.38,0,0,0-1-1.14,7.65,7.65,0,0,1-7-3.83,7.64,7.64,0,0,1-7,3.83,1.31,1.31,0,0,0,.3,2.6h.08a6.69,6.69,0,0,0,13.24,0h.08A1.35,1.35,0,0,0,40.85,34.27Z"/><path id="_Path_37" data-name="&lt;Path&gt;" class="cls-9" d="M29.29,34.66a.51.51,0,0,0,.5.5.5.5,0,0,0,.5-.5.5.5,0,0,0-.5-.5A.5.5,0,0,0,29.29,34.66Z"/><path id="_Path_38" data-name="&lt;Path&gt;" class="cls-9" d="M36.33,34.66a.5.5,0,0,1-1,0,.5.5,0,0,1,1,0Z"/><ellipse id="_Ellipse_7" data-name="&lt;Ellipse&gt;" class="cls-7" cx="28.47" cy="36.78" rx="0.65" ry="0.39"/><ellipse id="_Ellipse_8" data-name="&lt;Ellipse&gt;" class="cls-7" cx="37.16" cy="36.78" rx="0.65" ry="0.39"/><path id="_Path_39" data-name="&lt;Path&gt;" class="cls-3" d="M31.12,38.76a2.34,2.34,0,0,0,1.69.54,2.34,2.34,0,0,0,1.69-.54"/></svg>