<svg id="Icons" xmlns="http://www.w3.org/2000/svg" viewBox="0 0 48 48"><defs><style>.cls-1{fill:#a86c4d;}.cls-2{fill:#de926a;}.cls-3{fill:none;}.cls-3,.cls-6,.cls-7{stroke:#45413c;stroke-linecap:round;stroke-linejoin:round;}.cls-4{fill:#ff87af;}.cls-5{fill:#ff6196;}.cls-14,.cls-6{fill:#ffcebf;}.cls-7{fill:#45413c;}.cls-8{fill:#ff6242;}.cls-9{fill:#ffa694;}.cls-10{fill:#ffb59e;}.cls-11{fill:#ff866e;}.cls-12{fill:#00f5bc;}.cls-13{fill:#00dba8;}</style></defs><title>318-family-woman-woman-boy-2</title><path id="_Path_" data-name="&lt;Path&gt;" class="cls-1" d="M35.75.85A10.76,10.76,0,0,1,46.51,11.61v14a1.23,1.23,0,0,1-.76,1.13h0a26.9,26.9,0,0,1-20,0h0A1.23,1.23,0,0,1,25,25.65v-14A10.76,10.76,0,0,1,35.75.85Z"/><path id="_Path_2" data-name="&lt;Path&gt;" class="cls-2" d="M35.75.85A10.76,10.76,0,0,0,25,11.61v3.17A10.76,10.76,0,0,1,35.75,4h0A10.76,10.76,0,0,1,46.51,14.78V11.61A10.76,10.76,0,0,0,35.75.85Z"/><path id="_Path_3" data-name="&lt;Path&gt;" class="cls-3" d="M35.75.85A10.76,10.76,0,0,1,46.51,11.61v14a1.23,1.23,0,0,1-.76,1.13h0a26.9,26.9,0,0,1-20,0h0A1.23,1.23,0,0,1,25,25.65v-14A10.76,10.76,0,0,1,35.75.85Z"/><path id="_Rectangle_" data-name="&lt;Rectangle&gt;" class="cls-4" d="M35.75,25.49h0A11.75,11.75,0,0,1,47.5,37.24V47.5a0,0,0,0,1,0,0H24a0,0,0,0,1,0,0V37.24A11.75,11.75,0,0,1,35.75,25.49Z"/><path class="cls-5" d="M35.75,25.49A11.75,11.75,0,0,0,24,37.24v3.59a11.75,11.75,0,0,1,23.5,0V37.24A11.75,11.75,0,0,0,35.75,25.49Z"/><path id="_Rectangle_2" data-name="&lt;Rectangle&gt;" class="cls-3" d="M35.75,25.49h0A11.75,11.75,0,0,1,47.5,37.24V47.5a0,0,0,0,1,0,0H24a0,0,0,0,1,0,0V37.24A11.75,11.75,0,0,1,35.75,25.49Z"/><rect id="_Rectangle_3" data-name="&lt;Rectangle&gt;" class="cls-6" x="33.23" y="21.48" width="5.03" height="7.85" rx="2.52" ry="2.52"/><g id="_Group_" data-name="&lt;Group&gt;"><path id="_Path_4" data-name="&lt;Path&gt;" class="cls-6" d="M44.72,13.86a8.68,8.68,0,0,1-5.62-5l-.61-1.47a15.75,15.75,0,0,1-9.84,6.11l-1.87.33a1.8,1.8,0,0,0,0,3.59h.11a9,9,0,0,0,17.72,0h.11a1.8,1.8,0,0,0,0-3.59Z"/></g><path id="_Path_5" data-name="&lt;Path&gt;" class="cls-7" d="M30.37,15.29a.77.77,0,0,0,.77.76.76.76,0,0,0,0-1.52A.77.77,0,0,0,30.37,15.29Z"/><path id="_Path_6" data-name="&lt;Path&gt;" class="cls-7" d="M41.13,15.29a.77.77,0,0,1-.77.76.76.76,0,0,1,0-1.52A.77.77,0,0,1,41.13,15.29Z"/><g id="_Group_2" data-name="&lt;Group&gt;"><g id="_Group_3" data-name="&lt;Group&gt;"><path id="_Path_7" data-name="&lt;Path&gt;" class="cls-8" d="M32.94,19.93a.45.45,0,0,0-.33.16.43.43,0,0,0-.1.35,3.29,3.29,0,0,0,6.48,0,.43.43,0,0,0-.1-.35.45.45,0,0,0-.33-.16Z"/></g><path id="_Path_8" data-name="&lt;Path&gt;" class="cls-9" d="M35.75,23.18a3.3,3.3,0,0,0,2.3-.93,3.31,3.31,0,0,0-4.6,0A3.3,3.3,0,0,0,35.75,23.18Z"/></g><g id="_Group_4" data-name="&lt;Group&gt;"><path id="_Path_9" data-name="&lt;Path&gt;" class="cls-3" d="M32.94,19.93a.45.45,0,0,0-.33.16.43.43,0,0,0-.1.35,3.29,3.29,0,0,0,6.48,0,.43.43,0,0,0-.1-.35.45.45,0,0,0-.33-.16Z"/></g><line id="_Path_10" data-name="&lt;Path&gt;" class="cls-3" x1="42.62" y1="47.5" x2="42.62" y2="36.73"/><ellipse id="_Ellipse_" data-name="&lt;Ellipse&gt;" class="cls-10" cx="29.87" cy="18.54" rx="0.99" ry="0.59"/><ellipse id="_Ellipse_2" data-name="&lt;Ellipse&gt;" class="cls-10" cx="41.63" cy="18.54" rx="0.99" ry="0.59"/><path id="_Path_11" data-name="&lt;Path&gt;" class="cls-1" d="M12.27.85A10.78,10.78,0,0,0,1.49,11.63v6.61a8.19,8.19,0,0,0,1.87,5.12S1.15,24.07,1.49,27c.42,3.72,5.14,3.72,10.76,3.72S22.59,30.76,23,27c.34-3-1.87-3.68-1.87-3.68A8.19,8.19,0,0,0,23,18.24l0-6.61A10.78,10.78,0,0,0,12.27.85Z"/><g id="_Group_5" data-name="&lt;Group&gt;"><path id="_Path_12" data-name="&lt;Path&gt;" class="cls-2" d="M12.27,4A10.77,10.77,0,0,1,23,14.2l0-2.57a10.78,10.78,0,0,0-21.56,0v3.12A10.77,10.77,0,0,1,12.27,4Z"/></g><path id="_Path_13" data-name="&lt;Path&gt;" class="cls-3" d="M12.27.85A10.78,10.78,0,0,0,1.49,11.63v6.61a8.19,8.19,0,0,0,1.87,5.12S1.15,24.07,1.49,27c.42,3.72,5.14,3.72,10.76,3.72S22.59,30.76,23,27c.34-3-1.87-3.68-1.87-3.68A8.19,8.19,0,0,0,23,18.24l0-6.61A10.78,10.78,0,0,0,12.27.85Z"/><path id="_Rectangle_4" data-name="&lt;Rectangle&gt;" class="cls-11" d="M12.25,25.49h0A11.75,11.75,0,0,1,24,37.24V47.5a0,0,0,0,1,0,0H.5a0,0,0,0,1,0,0V37.24A11.75,11.75,0,0,1,12.25,25.49Z"/><path id="_Path_14" data-name="&lt;Path&gt;" class="cls-8" d="M12.25,25.5h0A11.75,11.75,0,0,0,.5,37.25v3.58A11.75,11.75,0,0,1,12.25,29.08h0A11.75,11.75,0,0,1,24,40.83V37.25A11.75,11.75,0,0,0,12.25,25.5Z"/><path id="_Rectangle_5" data-name="&lt;Rectangle&gt;" class="cls-3" d="M12.25,25.49h0A11.75,11.75,0,0,1,24,37.24V47.5a0,0,0,0,1,0,0H.5a0,0,0,0,1,0,0V37.24A11.75,11.75,0,0,1,12.25,25.49Z"/><rect id="_Rectangle_6" data-name="&lt;Rectangle&gt;" class="cls-6" x="9.73" y="21.48" width="5.03" height="7.85" rx="2.52" ry="2.52"/><g id="_Group_6" data-name="&lt;Group&gt;"><path id="_Path_15" data-name="&lt;Path&gt;" class="cls-6" d="M21.22,13.86a8.68,8.68,0,0,1-5.62-5L15,7.42a15.75,15.75,0,0,1-9.84,6.11l-1.87.33a1.8,1.8,0,0,0,0,3.59h.11a9,9,0,0,0,17.72,0h.11a1.8,1.8,0,0,0,0-3.59Z"/></g><path id="_Path_16" data-name="&lt;Path&gt;" class="cls-7" d="M6.87,15.29a.77.77,0,0,0,.77.76.76.76,0,1,0,0-1.52A.77.77,0,0,0,6.87,15.29Z"/><path id="_Path_17" data-name="&lt;Path&gt;" class="cls-7" d="M17.63,15.29a.77.77,0,0,1-.77.76.76.76,0,1,1,0-1.52A.77.77,0,0,1,17.63,15.29Z"/><g id="_Group_7" data-name="&lt;Group&gt;"><g id="_Group_8" data-name="&lt;Group&gt;"><path id="_Path_18" data-name="&lt;Path&gt;" class="cls-8" d="M9.44,19.93a.45.45,0,0,0-.33.16.43.43,0,0,0-.1.35,3.29,3.29,0,0,0,6.48,0,.43.43,0,0,0-.1-.35.45.45,0,0,0-.33-.16Z"/></g><path id="_Path_19" data-name="&lt;Path&gt;" class="cls-9" d="M12.25,23.18a3.3,3.3,0,0,0,2.3-.93,3.31,3.31,0,0,0-4.6,0A3.3,3.3,0,0,0,12.25,23.18Z"/></g><g id="_Group_9" data-name="&lt;Group&gt;"><path id="_Path_20" data-name="&lt;Path&gt;" class="cls-3" d="M9.44,19.93a.45.45,0,0,0-.33.16.43.43,0,0,0-.1.35,3.29,3.29,0,0,0,6.48,0,.43.43,0,0,0-.1-.35.45.45,0,0,0-.33-.16Z"/></g><ellipse id="_Ellipse_3" data-name="&lt;Ellipse&gt;" class="cls-10" cx="6.37" cy="18.54" rx="0.99" ry="0.59"/><ellipse id="_Ellipse_4" data-name="&lt;Ellipse&gt;" class="cls-10" cx="18.13" cy="18.54" rx="0.99" ry="0.59"/><line id="_Path_21" data-name="&lt;Path&gt;" class="cls-3" x1="5.38" y1="47.5" x2="5.38" y2="36.73"/><path id="_Path_22" data-name="&lt;Path&gt;" class="cls-12" d="M32.81,47.5a9.42,9.42,0,0,0-17.62,0Z"/><path id="_Path_23" data-name="&lt;Path&gt;" class="cls-13" d="M24,44.17a9.4,9.4,0,0,1,7.19,3.33h1.62a9.42,9.42,0,0,0-17.62,0h1.62A9.4,9.4,0,0,1,24,44.17Z"/><path id="_Path_24" data-name="&lt;Path&gt;" class="cls-3" d="M32.81,47.5a9.42,9.42,0,0,0-17.62,0Z"/><rect id="_Rectangle_7" data-name="&lt;Rectangle&gt;" class="cls-14" x="22.14" y="38.22" width="3.72" height="6.4" rx="1.86" ry="1.86"/><rect id="_Rectangle_8" data-name="&lt;Rectangle&gt;" class="cls-10" x="22.14" y="38.22" width="3.72" height="4.64" rx="1.86" ry="1.86"/><rect id="_Rectangle_9" data-name="&lt;Rectangle&gt;" class="cls-3" x="22.14" y="38.22" width="3.72" height="6.4" rx="1.86" ry="1.86"/><path id="_Path_25" data-name="&lt;Path&gt;" class="cls-1" d="M24,23.77a7.1,7.1,0,0,0-1.8.23,12.11,12.11,0,0,1-4.78.52A3.05,3.05,0,0,0,18,26.89,7.22,7.22,0,0,0,16.74,31v3.8H31.26V31A7.26,7.26,0,0,0,24,23.77Z"/><path id="_Path_26" data-name="&lt;Path&gt;" class="cls-2" d="M24,23.77a7.1,7.1,0,0,0-1.8.23,12.11,12.11,0,0,1-4.78.52,3.11,3.11,0,0,0,.6,2.35,14.56,14.56,0,0,0,4.18-.59,7.1,7.1,0,0,1,1.8-.23,7.26,7.26,0,0,1,7.26,7.26V31A7.26,7.26,0,0,0,24,23.77Z"/><path id="_Path_27" data-name="&lt;Path&gt;" class="cls-3" d="M24,23.77a7.1,7.1,0,0,0-1.8.23,12.11,12.11,0,0,1-4.78.52A3.05,3.05,0,0,0,18,26.89,7.22,7.22,0,0,0,16.74,31v3.8H31.26V31A7.26,7.26,0,0,0,24,23.77Z"/><path id="_Path_28" data-name="&lt;Path&gt;" class="cls-6" d="M17,33.13a1.31,1.31,0,0,0,.3,2.6h.08a6.69,6.69,0,0,0,13.24,0h.08a1.31,1.31,0,0,0,.3-2.6c-3-.59-4.64-3.76-4.68-3.83C26.27,29.39,23.83,33.22,17,33.13Z"/><path id="_Path_29" data-name="&lt;Path&gt;" class="cls-7" d="M20.48,34.66a.51.51,0,0,0,.5.5.5.5,0,0,0,.5-.5.5.5,0,0,0-.5-.5A.5.5,0,0,0,20.48,34.66Z"/><path id="_Path_30" data-name="&lt;Path&gt;" class="cls-7" d="M27.52,34.66a.51.51,0,0,1-.5.5.5.5,0,0,1-.5-.5.5.5,0,0,1,.5-.5A.5.5,0,0,1,27.52,34.66Z"/><ellipse id="_Ellipse_5" data-name="&lt;Ellipse&gt;" class="cls-10" cx="19.65" cy="36.78" rx="0.65" ry="0.39"/><ellipse id="_Ellipse_6" data-name="&lt;Ellipse&gt;" class="cls-10" cx="28.35" cy="36.78" rx="0.65" ry="0.39"/><path id="_Path_31" data-name="&lt;Path&gt;" class="cls-3" d="M22.31,38.63a2.34,2.34,0,0,0,1.69.54,2.34,2.34,0,0,0,1.69-.54"/></svg>