<svg id="Icons" xmlns="http://www.w3.org/2000/svg" viewBox="0 0 48 48"><defs><style>.cls-1,.cls-12{fill:#a86c4d;}.cls-2{fill:#de926a;}.cls-3{fill:none;}.cls-12,.cls-3,.cls-8,.cls-9{stroke:#45413c;stroke-linecap:round;stroke-linejoin:round;}.cls-4{fill:#00b8f0;}.cls-5{fill:#009fd9;}.cls-6,.cls-8{fill:#ffcebf;}.cls-7{fill:#ffb59e;}.cls-9{fill:#45413c;}.cls-10{fill:#ff6242;}.cls-11{fill:#ffa694;}.cls-13{fill:#bf8df2;}.cls-14{fill:#9f5ae5;}</style></defs><title>332-family-man-girl-2</title><path id="_Path_" data-name="&lt;Path&gt;" class="cls-1" d="M19.75,1.44a10.22,10.22,0,0,0-2.42.3c-1.83.42-4.22,1.12-6.39.7a4.13,4.13,0,0,0,.83,3.18A9.62,9.62,0,0,0,10,11.16v5.08H29.47V11.16A9.72,9.72,0,0,0,19.75,1.44Z"/><g id="_Group_" data-name="&lt;Group&gt;"><path id="_Path_2" data-name="&lt;Path&gt;" class="cls-2" d="M19.75,1.44a10.22,10.22,0,0,0-2.42.3c-1.83.42-4.22,1.12-6.39.7a4.38,4.38,0,0,0,.67,3,18.62,18.62,0,0,0,5.72-.79,10.22,10.22,0,0,1,2.42-.3,9.72,9.72,0,0,1,9.72,9.72V11.16A9.72,9.72,0,0,0,19.75,1.44Z"/></g><path id="_Path_3" data-name="&lt;Path&gt;" class="cls-3" d="M19.75,1.44a10.22,10.22,0,0,0-2.42.3c-1.83.42-4.22,1.12-6.39.7a4.13,4.13,0,0,0,.83,3.18A9.62,9.62,0,0,0,10,11.16v5.08H29.47V11.16A9.72,9.72,0,0,0,19.75,1.44Z"/><path id="_Rectangle_" data-name="&lt;Rectangle&gt;" class="cls-4" d="M19.75,25.49h0A11.75,11.75,0,0,1,31.5,37.24V47.5a0,0,0,0,1,0,0H8a0,0,0,0,1,0,0V37.24A11.75,11.75,0,0,1,19.75,25.49Z"/><path class="cls-5" d="M19.75,25.49A11.75,11.75,0,0,0,8,37.24v3.59a11.75,11.75,0,0,1,23.5,0V37.24A11.75,11.75,0,0,0,19.75,25.49Z"/><path id="_Rectangle_2" data-name="&lt;Rectangle&gt;" class="cls-3" d="M19.75,25.49h0A11.75,11.75,0,0,1,31.5,37.24V47.5a0,0,0,0,1,0,0H8a0,0,0,0,1,0,0V37.24A11.75,11.75,0,0,1,19.75,25.49Z"/><rect id="_Rectangle_3" data-name="&lt;Rectangle&gt;" class="cls-6" x="17.23" y="21.48" width="5.03" height="7.85" rx="2.52" ry="2.52"/><rect id="_Rectangle_4" data-name="&lt;Rectangle&gt;" class="cls-7" x="17.23" y="21.48" width="5.03" height="5.82" rx="2.52" ry="2.52"/><rect id="_Rectangle_5" data-name="&lt;Rectangle&gt;" class="cls-3" x="17.23" y="21.48" width="5.03" height="7.85" rx="2.52" ry="2.52"/><path class="cls-8" d="M30.49,15.36a1.86,1.86,0,0,0-1.86-1.5,1.58,1.58,0,0,1-1.58-1.58V9.82A1.86,1.86,0,0,0,25.67,8a15.2,15.2,0,0,1-5.92,1.08A15.2,15.2,0,0,1,13.83,8a1.86,1.86,0,0,0-1.38,1.79v2.46a1.58,1.58,0,0,1-1.58,1.58A1.86,1.86,0,0,0,9,15.36a1.79,1.79,0,0,0,1.77,2.09h.11a9,9,0,0,0,17.72,0h.11A1.79,1.79,0,0,0,30.49,15.36Z"/><path id="_Path_4" data-name="&lt;Path&gt;" class="cls-9" d="M14.37,15.29a.77.77,0,0,0,.77.76.76.76,0,0,0,0-1.52A.77.77,0,0,0,14.37,15.29Z"/><path id="_Path_5" data-name="&lt;Path&gt;" class="cls-9" d="M25.13,15.29a.77.77,0,0,1-.77.76.76.76,0,0,1,0-1.52A.77.77,0,0,1,25.13,15.29Z"/><g id="_Group_2" data-name="&lt;Group&gt;"><g id="_Group_3" data-name="&lt;Group&gt;"><path id="_Path_6" data-name="&lt;Path&gt;" class="cls-10" d="M16.94,19.93a.45.45,0,0,0-.33.16.43.43,0,0,0-.1.35,3.29,3.29,0,0,0,6.48,0,.43.43,0,0,0-.1-.35.45.45,0,0,0-.33-.16Z"/></g><path id="_Path_7" data-name="&lt;Path&gt;" class="cls-11" d="M19.75,23.18a3.3,3.3,0,0,0,2.3-.93,3.31,3.31,0,0,0-4.6,0A3.3,3.3,0,0,0,19.75,23.18Z"/></g><g id="_Group_4" data-name="&lt;Group&gt;"><path id="_Path_8" data-name="&lt;Path&gt;" class="cls-3" d="M16.94,19.93a.45.45,0,0,0-.33.16.43.43,0,0,0-.1.35,3.29,3.29,0,0,0,6.48,0,.43.43,0,0,0-.1-.35.45.45,0,0,0-.33-.16Z"/></g><line id="_Path_9" data-name="&lt;Path&gt;" class="cls-3" x1="12.88" y1="47.5" x2="12.88" y2="36.73"/><ellipse id="_Ellipse_" data-name="&lt;Ellipse&gt;" class="cls-7" cx="13.87" cy="18.54" rx="0.99" ry="0.59"/><ellipse id="_Ellipse_2" data-name="&lt;Ellipse&gt;" class="cls-7" cx="25.63" cy="18.54" rx="0.99" ry="0.59"/><path id="_Path_10" data-name="&lt;Path&gt;" class="cls-12" d="M22.94,41.17a8.22,8.22,0,0,0,1.61-2c.8-1.38,2.69-1.69,3.47-.46.67,1.06.27,2.35-1.5,3A3.81,3.81,0,0,1,22.94,41.17Z"/><path id="_Path_11" data-name="&lt;Path&gt;" class="cls-12" d="M42.69,41.17a8.12,8.12,0,0,1-1.62-2c-.8-1.38-2.69-1.69-3.46-.46-.67,1.06-.28,2.35,1.49,3A3.84,3.84,0,0,0,42.69,41.17Z"/><path id="_Path_12" data-name="&lt;Path&gt;" class="cls-13" d="M41.62,47.5A9.42,9.42,0,0,0,24,47.5Z"/><path id="_Path_13" data-name="&lt;Path&gt;" class="cls-14" d="M32.81,44.17A9.4,9.4,0,0,1,40,47.5h1.62A9.42,9.42,0,0,0,24,47.5h1.63A9.36,9.36,0,0,1,32.81,44.17Z"/><path id="_Path_14" data-name="&lt;Path&gt;" class="cls-3" d="M41.62,47.5A9.42,9.42,0,0,0,24,47.5Z"/><rect id="_Rectangle_6" data-name="&lt;Rectangle&gt;" class="cls-6" x="30.95" y="38.22" width="3.72" height="6.4" rx="1.86" ry="1.86"/><rect id="_Rectangle_7" data-name="&lt;Rectangle&gt;" class="cls-7" x="30.95" y="38.22" width="3.72" height="4.64" rx="1.86" ry="1.86"/><rect id="_Rectangle_8" data-name="&lt;Rectangle&gt;" class="cls-3" x="30.95" y="38.22" width="3.72" height="6.4" rx="1.86" ry="1.86"/><path id="_Rectangle_9" data-name="&lt;Rectangle&gt;" class="cls-1" d="M32.81,23.77h0A7.26,7.26,0,0,1,40.07,31v3.8a0,0,0,0,1,0,0H25.55a0,0,0,0,1,0,0V31A7.26,7.26,0,0,1,32.81,23.77Z"/><path id="_Path_15" data-name="&lt;Path&gt;" class="cls-2" d="M32.81,23.77A7.26,7.26,0,0,0,25.55,31v2.28a7.26,7.26,0,1,1,14.52,0V31A7.26,7.26,0,0,0,32.81,23.77Z"/><path id="_Path_16" data-name="&lt;Path&gt;" class="cls-3" d="M32.81,23.77A7.26,7.26,0,0,0,25.55,31v3.8H40.07V31A7.26,7.26,0,0,0,32.81,23.77Z"/><path class="cls-8" d="M40.85,34.27a1.38,1.38,0,0,0-1-1.14,7.65,7.65,0,0,1-7-3.83,7.64,7.64,0,0,1-7,3.83,1.31,1.31,0,0,0,.3,2.6h.08a6.69,6.69,0,0,0,13.24,0h.08A1.35,1.35,0,0,0,40.85,34.27Z"/><path id="_Path_17" data-name="&lt;Path&gt;" class="cls-9" d="M29.29,34.66a.51.51,0,0,0,.5.5.5.5,0,0,0,.5-.5.5.5,0,0,0-.5-.5A.5.5,0,0,0,29.29,34.66Z"/><path id="_Path_18" data-name="&lt;Path&gt;" class="cls-9" d="M36.33,34.66a.5.5,0,0,1-1,0,.5.5,0,0,1,1,0Z"/><ellipse id="_Ellipse_3" data-name="&lt;Ellipse&gt;" class="cls-7" cx="28.47" cy="36.78" rx="0.65" ry="0.39"/><ellipse id="_Ellipse_4" data-name="&lt;Ellipse&gt;" class="cls-7" cx="37.16" cy="36.78" rx="0.65" ry="0.39"/><path id="_Path_19" data-name="&lt;Path&gt;" class="cls-3" d="M31.12,38.76a2.34,2.34,0,0,0,1.69.54,2.34,2.34,0,0,0,1.69-.54"/></svg>