<svg id="Icons" xmlns="http://www.w3.org/2000/svg" viewBox="0 0 48 48"><defs><style>.cls-1,.cls-11{fill:#a86c4d;}.cls-2{fill:#de926a;}.cls-3{fill:none;}.cls-11,.cls-3,.cls-6,.cls-7{stroke:#45413c;stroke-linecap:round;stroke-linejoin:round;}.cls-4{fill:#ff87af;}.cls-5{fill:#ff6196;}.cls-14,.cls-6{fill:#ffcebf;}.cls-7{fill:#45413c;}.cls-8{fill:#ff6242;}.cls-9{fill:#ffa694;}.cls-10{fill:#ffb59e;}.cls-12{fill:#bf8df2;}.cls-13{fill:#9f5ae5;}</style></defs><title>342-family-woman-girl-2</title><path id="_Path_" data-name="&lt;Path&gt;" class="cls-1" d="M19.75.85A10.76,10.76,0,0,1,30.51,11.61v14a1.23,1.23,0,0,1-.76,1.13h0a26.9,26.9,0,0,1-20,0h0A1.23,1.23,0,0,1,9,25.65v-14A10.76,10.76,0,0,1,19.75.85Z"/><path id="_Path_2" data-name="&lt;Path&gt;" class="cls-2" d="M19.75.85A10.76,10.76,0,0,0,9,11.61v3.17A10.76,10.76,0,0,1,19.75,4h0A10.76,10.76,0,0,1,30.51,14.78V11.61A10.76,10.76,0,0,0,19.75.85Z"/><path id="_Path_3" data-name="&lt;Path&gt;" class="cls-3" d="M19.75.85A10.76,10.76,0,0,1,30.51,11.61v14a1.23,1.23,0,0,1-.76,1.13h0a26.9,26.9,0,0,1-20,0h0A1.23,1.23,0,0,1,9,25.65v-14A10.76,10.76,0,0,1,19.75.85Z"/><path id="_Rectangle_" data-name="&lt;Rectangle&gt;" class="cls-4" d="M8,25.49H31.5a0,0,0,0,1,0,0V35.75A11.75,11.75,0,0,1,19.75,47.5h0A11.75,11.75,0,0,1,8,35.75V25.49a0,0,0,0,1,0,0Z" transform="translate(39.5 72.99) rotate(180)"/><path class="cls-5" d="M19.75,25.49A11.75,11.75,0,0,1,31.5,37.24v3.59a11.75,11.75,0,0,0-23.5,0V37.24A11.75,11.75,0,0,1,19.75,25.49Z"/><path id="_Rectangle_2" data-name="&lt;Rectangle&gt;" class="cls-3" d="M8,25.49H31.5a0,0,0,0,1,0,0V35.75A11.75,11.75,0,0,1,19.75,47.5h0A11.75,11.75,0,0,1,8,35.75V25.49A0,0,0,0,1,8,25.49Z" transform="translate(39.5 72.99) rotate(180)"/><rect id="_Rectangle_3" data-name="&lt;Rectangle&gt;" class="cls-6" x="17.23" y="21.48" width="5.03" height="7.85" rx="2.52" ry="2.52"/><g id="_Group_" data-name="&lt;Group&gt;"><path id="_Path_4" data-name="&lt;Path&gt;" class="cls-6" d="M28.72,13.86a8.68,8.68,0,0,1-5.62-5l-.61-1.47a15.75,15.75,0,0,1-9.84,6.11l-1.87.33a1.8,1.8,0,0,0,0,3.59h.11a9,9,0,0,0,17.72,0h.11a1.8,1.8,0,0,0,0-3.59Z"/></g><path id="_Path_5" data-name="&lt;Path&gt;" class="cls-7" d="M14.37,15.29a.77.77,0,0,0,.77.76.76.76,0,0,0,0-1.52A.77.77,0,0,0,14.37,15.29Z"/><path id="_Path_6" data-name="&lt;Path&gt;" class="cls-7" d="M25.13,15.29a.77.77,0,0,1-.77.76.76.76,0,0,1,0-1.52A.77.77,0,0,1,25.13,15.29Z"/><g id="_Group_2" data-name="&lt;Group&gt;"><g id="_Group_3" data-name="&lt;Group&gt;"><path id="_Path_7" data-name="&lt;Path&gt;" class="cls-8" d="M16.94,19.93a.45.45,0,0,0-.33.16.43.43,0,0,0-.1.35,3.29,3.29,0,0,0,6.48,0,.43.43,0,0,0-.1-.35.45.45,0,0,0-.33-.16Z"/></g><path id="_Path_8" data-name="&lt;Path&gt;" class="cls-9" d="M19.75,23.18a3.3,3.3,0,0,0,2.3-.93,3.31,3.31,0,0,0-4.6,0A3.3,3.3,0,0,0,19.75,23.18Z"/></g><g id="_Group_4" data-name="&lt;Group&gt;"><path id="_Path_9" data-name="&lt;Path&gt;" class="cls-3" d="M16.94,19.93a.45.45,0,0,0-.33.16.43.43,0,0,0-.1.35,3.29,3.29,0,0,0,6.48,0,.43.43,0,0,0-.1-.35.45.45,0,0,0-.33-.16Z"/></g><line id="_Path_10" data-name="&lt;Path&gt;" class="cls-3" x1="12.88" y1="47.5" x2="12.88" y2="36.73"/><ellipse id="_Ellipse_" data-name="&lt;Ellipse&gt;" class="cls-10" cx="13.87" cy="18.54" rx="0.99" ry="0.59"/><ellipse id="_Ellipse_2" data-name="&lt;Ellipse&gt;" class="cls-10" cx="25.63" cy="18.54" rx="0.99" ry="0.59"/><path id="_Path_11" data-name="&lt;Path&gt;" class="cls-11" d="M22.94,41.17a8.22,8.22,0,0,0,1.61-2c.8-1.38,2.69-1.69,3.47-.46.67,1.06.27,2.35-1.5,3A3.81,3.81,0,0,1,22.94,41.17Z"/><path id="_Path_12" data-name="&lt;Path&gt;" class="cls-11" d="M42.69,41.17a8.12,8.12,0,0,1-1.62-2c-.8-1.38-2.69-1.69-3.46-.46-.67,1.06-.28,2.35,1.49,3A3.84,3.84,0,0,0,42.69,41.17Z"/><path id="_Path_13" data-name="&lt;Path&gt;" class="cls-12" d="M41.62,47.5A9.42,9.42,0,0,0,24,47.5Z"/><path id="_Path_14" data-name="&lt;Path&gt;" class="cls-13" d="M32.81,44.17A9.4,9.4,0,0,1,40,47.5h1.62A9.42,9.42,0,0,0,24,47.5h1.63A9.36,9.36,0,0,1,32.81,44.17Z"/><path id="_Path_15" data-name="&lt;Path&gt;" class="cls-3" d="M41.62,47.5A9.42,9.42,0,0,0,24,47.5Z"/><rect id="_Rectangle_4" data-name="&lt;Rectangle&gt;" class="cls-14" x="30.95" y="38.22" width="3.72" height="6.4" rx="1.86" ry="1.86"/><rect id="_Rectangle_5" data-name="&lt;Rectangle&gt;" class="cls-10" x="30.95" y="38.22" width="3.72" height="4.64" rx="1.86" ry="1.86"/><rect id="_Rectangle_6" data-name="&lt;Rectangle&gt;" class="cls-3" x="30.95" y="38.22" width="3.72" height="6.4" rx="1.86" ry="1.86"/><path id="_Rectangle_7" data-name="&lt;Rectangle&gt;" class="cls-1" d="M32.81,23.77h0A7.26,7.26,0,0,1,40.07,31v3.8a0,0,0,0,1,0,0H25.55a0,0,0,0,1,0,0V31A7.26,7.26,0,0,1,32.81,23.77Z"/><path id="_Path_16" data-name="&lt;Path&gt;" class="cls-2" d="M32.81,23.77A7.26,7.26,0,0,0,25.55,31v2.28a7.26,7.26,0,1,1,14.52,0V31A7.26,7.26,0,0,0,32.81,23.77Z"/><path id="_Path_17" data-name="&lt;Path&gt;" class="cls-3" d="M32.81,23.77A7.26,7.26,0,0,0,25.55,31v3.8H40.07V31A7.26,7.26,0,0,0,32.81,23.77Z"/><path class="cls-6" d="M40.85,34.27a1.38,1.38,0,0,0-1-1.14,7.65,7.65,0,0,1-7-3.83,7.64,7.64,0,0,1-7,3.83,1.31,1.31,0,0,0,.3,2.6h.08a6.69,6.69,0,0,0,13.24,0h.08A1.35,1.35,0,0,0,40.85,34.27Z"/><path id="_Path_18" data-name="&lt;Path&gt;" class="cls-7" d="M29.29,34.66a.51.51,0,0,0,.5.5.5.5,0,0,0,.5-.5.5.5,0,0,0-.5-.5A.5.5,0,0,0,29.29,34.66Z"/><path id="_Path_19" data-name="&lt;Path&gt;" class="cls-7" d="M36.33,34.66a.5.5,0,0,1-1,0,.5.5,0,0,1,1,0Z"/><ellipse id="_Ellipse_3" data-name="&lt;Ellipse&gt;" class="cls-10" cx="28.47" cy="36.78" rx="0.65" ry="0.39"/><ellipse id="_Ellipse_4" data-name="&lt;Ellipse&gt;" class="cls-10" cx="37.16" cy="36.78" rx="0.65" ry="0.39"/><path id="_Path_20" data-name="&lt;Path&gt;" class="cls-3" d="M31.12,38.76a2.34,2.34,0,0,0,1.69.54,2.34,2.34,0,0,0,1.69-.54"/></svg>