<svg id="Icons" xmlns="http://www.w3.org/2000/svg" viewBox="0 0 48 48"><defs><style>.cls-1{fill:#00b8f0;}.cls-2{fill:#009fd9;}.cls-3{fill:none;}.cls-3,.cls-4,.cls-7,.cls-9{stroke:#45413c;stroke-linecap:round;stroke-linejoin:round;}.cls-4{fill:#adc4d9;}.cls-5,.cls-9{fill:#ffe500;}.cls-6{fill:#fff48c;}.cls-7{fill:#c0dceb;}.cls-8{fill:#4acfff;}.cls-10{fill:#45413c;}</style></defs><title>347-selfie-1</title><path id="_Path_" data-name="&lt;Path&gt;" class="cls-1" d="M29.86,26.77A21.08,21.08,0,0,1,11.13,38.11,20.87,20.87,0,0,1,.5,35.21V45.6a30.63,30.63,0,0,0,10.63,1.9A30.47,30.47,0,0,0,38.18,31.13Z"/><path id="_Path_2" data-name="&lt;Path&gt;" class="cls-2" d="M24.39,33.44a17.1,17.1,0,0,0,7.77,5.66,30.75,30.75,0,0,0,6-8l-3.42-1.79-5.37-1.73A21.16,21.16,0,0,1,24.39,33.44Z"/><path id="_Path_3" data-name="&lt;Path&gt;" class="cls-3" d="M29.86,26.77A21.08,21.08,0,0,1,11.13,38.11,20.87,20.87,0,0,1,.5,35.21V45.6a30.63,30.63,0,0,0,10.63,1.9A30.47,30.47,0,0,0,38.18,31.13Z"/><path id="_Rectangle_" data-name="&lt;Rectangle&gt;" class="cls-4" d="M39.1,3.17h2.43a2,2,0,0,1,2,2V25.72a0,0,0,0,1,0,0H39.1a0,0,0,0,1,0,0V3.17A0,0,0,0,1,39.1,3.17Z"/><path id="_Path_4" data-name="&lt;Path&gt;" class="cls-5" d="M33.89,18.47,32.08,15.3a3.42,3.42,0,0,0-4.42-1.39,1.16,1.16,0,0,0-.57,1.46l.84,2.14a10.57,10.57,0,0,1,.63,5.37l-.24,1.75a7.59,7.59,0,0,0,.82,4.65,4.74,4.74,0,0,0,2.16,2l4,1.86a3.17,3.17,0,0,0,3.11-.24,14.24,14.24,0,0,0,4.86-5.47L44.5,25Z"/><g id="_Group_" data-name="&lt;Group&gt;"><path id="_Path_5" data-name="&lt;Path&gt;" class="cls-6" d="M27.51,16.45a3.39,3.39,0,0,1,4.57,1.3l1.81,3.16,9.67,6L44.5,25,33.89,18.47,32.08,15.3a3.42,3.42,0,0,0-4.42-1.39,1.16,1.16,0,0,0-.57,1.46Z"/></g><path id="_Path_6" data-name="&lt;Path&gt;" class="cls-3" d="M33.89,18.47,32.08,15.3a3.42,3.42,0,0,0-4.42-1.39,1.16,1.16,0,0,0-.57,1.46l.84,2.14a10.57,10.57,0,0,1,.63,5.37l-.24,1.75a7.59,7.59,0,0,0,.82,4.65,4.74,4.74,0,0,0,2.16,2l4,1.86a3.17,3.17,0,0,0,3.11-.24,14.24,14.24,0,0,0,4.86-5.47L44.5,25Z"/><rect id="_Rectangle_2" data-name="&lt;Rectangle&gt;" class="cls-7" x="30.61" y="3.17" width="10.43" height="22.54" rx="1" ry="1"/><rect id="_Rectangle_3" data-name="&lt;Rectangle&gt;" class="cls-1" x="30.61" y="5.77" width="10.43" height="14.34"/><polygon id="_Path_7" data-name="&lt;Path&gt;" class="cls-8" points="41.04 7.14 30.61 17.85 30.61 20.11 41.04 20.11 41.04 7.14"/><rect id="_Rectangle_4" data-name="&lt;Rectangle&gt;" class="cls-3" x="30.61" y="5.77" width="10.43" height="14.34"/><rect id="_Rectangle_5" data-name="&lt;Rectangle&gt;" class="cls-5" x="38.14" y="13.54" width="6.36" height="3.28" rx="1.4" ry="1.4"/><path class="cls-6" d="M43.1,13.54H39.54a1.4,1.4,0,0,0-1.4,1.4v.49a1.36,1.36,0,0,0,.13.57,1.41,1.41,0,0,1,1.27-.82H43.1a1.4,1.4,0,0,1,1.27.82,1.22,1.22,0,0,0,.13-.57v-.49A1.4,1.4,0,0,0,43.1,13.54Z"/><rect id="_Rectangle_6" data-name="&lt;Rectangle&gt;" class="cls-3" x="38.14" y="13.54" width="6.36" height="3.28" rx="1.4" ry="1.4"/><rect id="_Rectangle_7" data-name="&lt;Rectangle&gt;" class="cls-9" x="37.58" y="16.82" width="6.92" height="3.28" rx="1.4" ry="1.4"/><rect id="_Rectangle_8" data-name="&lt;Rectangle&gt;" class="cls-9" x="38.14" y="20.11" width="6.36" height="3.28" rx="1.4" ry="1.4"/><rect id="_Rectangle_9" data-name="&lt;Rectangle&gt;" class="cls-9" x="39.39" y="23.39" width="5.11" height="3.28" rx="1.4" ry="1.4"/><path id="_Path_8" data-name="&lt;Path&gt;" class="cls-9" d="M25.29,5.41,22.58,1.56a.33.33,0,0,0-.51-.06L20.56,3.2a.34.34,0,0,0,.13.51L24.9,5.85A.3.3,0,0,0,25.29,5.41Z"/><path id="_Path_9" data-name="&lt;Path&gt;" class="cls-9" d="M24.68,8l-4.75-.68a.34.34,0,0,0-.41.33l.2,2.27a.34.34,0,0,0,.47.25l4.54-1.59A.29.29,0,0,0,24.68,8Z"/><path id="_Path_10" data-name="&lt;Path&gt;" class="cls-9" d="M24.66,11.43l-3.91,1.7a.3.3,0,0,0-.11.47l1.41,1.78a.3.3,0,0,0,.49,0L25,11.89A.31.31,0,0,0,24.66,11.43Z"/><circle class="cls-10" cx="35.83" cy="22.83" r="1.14"/></svg>