<svg id="Icons" xmlns="http://www.w3.org/2000/svg" viewBox="0 0 48 48"><defs><style>.cls-1{fill:#ffcebf;}.cls-2{fill:#ffdcd1;}.cls-3{fill:none;stroke:#45413c;stroke-linecap:round;stroke-linejoin:round;}.cls-4{fill:#45413c;opacity:0.15;}</style></defs><title>352-backhand-index-pointing-left-2</title><path id="_Path_" data-name="&lt;Path&gt;" class="cls-1" d="M18.9,36.22a2.6,2.6,0,0,1,2.6-2.61H18.9a2.78,2.78,0,1,1,0-5.56,2.78,2.78,0,1,1,0-5.56H6.49a2.42,2.42,0,0,1,0-4.84H25a8.2,8.2,0,0,1-4.77-1.54,4,4,0,0,1-1.32-5A1.57,1.57,0,0,1,21,10.41l4,2.2A26.76,26.76,0,0,0,30.89,15,12.27,12.27,0,0,1,38,20.34a12.54,12.54,0,0,1,2,6.75v4.13a7.6,7.6,0,0,1-7.6,7.6H21.5A2.59,2.59,0,0,1,18.9,36.22Z"/><path class="cls-2" d="M19.94,19.54H6.49A2.43,2.43,0,0,0,4.26,21a2.48,2.48,0,0,1-.19-.95,2.42,2.42,0,0,1,2.42-2.42h18.3C23.54,19.18,22.55,19.54,19.94,19.54Z"/><path class="cls-2" d="M30.89,16.92A27.22,27.22,0,0,1,25,14.51L21,12.3a1.57,1.57,0,0,0-2.17.66,4.35,4.35,0,0,0-.3.83,4,4,0,0,1,.3-2.72A1.57,1.57,0,0,1,21,10.41l4,2.2A26.76,26.76,0,0,0,30.89,15,12.27,12.27,0,0,1,38,20.34a12.54,12.54,0,0,1,2,6.75V29a12.56,12.56,0,0,0-2-6.75A12.27,12.27,0,0,0,30.89,16.92Z"/><path id="_Path_2" data-name="&lt;Path&gt;" class="cls-3" d="M18.9,36.22a2.6,2.6,0,0,1,2.6-2.61H18.9a2.78,2.78,0,1,1,0-5.56,2.78,2.78,0,1,1,0-5.56H6.49a2.42,2.42,0,0,1,0-4.84H25a8.2,8.2,0,0,1-4.77-1.54,4,4,0,0,1-1.32-5A1.57,1.57,0,0,1,21,10.41l4,2.2A26.76,26.76,0,0,0,30.89,15,12.27,12.27,0,0,1,38,20.34a12.54,12.54,0,0,1,2,6.75v4.13a7.6,7.6,0,0,1-7.6,7.6H21.5A2.59,2.59,0,0,1,18.9,36.22Z"/><line id="_Path_3" data-name="&lt;Path&gt;" class="cls-3" x1="18.9" y1="28.05" x2="20.99" y2="28.05"/><line id="_Path_4" data-name="&lt;Path&gt;" class="cls-3" x1="18.9" y1="22.49" x2="20.99" y2="22.49"/><line id="_Path_5" data-name="&lt;Path&gt;" class="cls-3" x1="24.95" y1="17.65" x2="26.81" y2="17.65"/><ellipse id="_Ellipse_" data-name="&lt;Ellipse&gt;" class="cls-4" cx="24" cy="45.5" rx="15" ry="1.5"/></svg>