<svg id="Icons" xmlns="http://www.w3.org/2000/svg" viewBox="0 0 48 48"><defs><style>.cls-1{fill:#ffe500;}.cls-2{fill:#fff48c;}.cls-3{fill:none;stroke:#45413c;stroke-linecap:round;stroke-linejoin:round;}.cls-4{fill:#45413c;opacity:0.15;}</style></defs><title>353-backhand-index-pointing-right-1</title><path id="_Path_" data-name="&lt;Path&gt;" class="cls-1" d="M26.73,36.22a2.6,2.6,0,0,0-2.6-2.61h2.6a2.78,2.78,0,1,0,0-5.56,2.78,2.78,0,0,0,0-5.56H39.14a2.42,2.42,0,1,0,0-4.84H20.68a8.15,8.15,0,0,0,4.76-1.54,3.93,3.93,0,0,0,1.32-5,1.56,1.56,0,0,0-2.16-.66l-4,2.2A26.64,26.64,0,0,1,14.73,15a12.28,12.28,0,0,0-7.12,5.31,12.54,12.54,0,0,0-2,6.75v4.13a7.6,7.6,0,0,0,7.6,7.6H24.13A2.59,2.59,0,0,0,26.73,36.22Z"/><path class="cls-2" d="M25.69,19.54H39.14A2.4,2.4,0,0,1,41.36,21a2.31,2.31,0,0,0,.2-.95,2.43,2.43,0,0,0-2.42-2.42H20.84C22.09,19.18,23.08,19.54,25.69,19.54Z"/><path class="cls-2" d="M14.73,16.92a27.09,27.09,0,0,0,5.9-2.41l4-2.21a1.58,1.58,0,0,1,2.17.66,4.35,4.35,0,0,1,.3.83,4,4,0,0,0-.3-2.72,1.58,1.58,0,0,0-2.17-.66l-4,2.2A26.64,26.64,0,0,1,14.73,15a12.28,12.28,0,0,0-7.12,5.31,12.54,12.54,0,0,0-2,6.75V29a12.56,12.56,0,0,1,2-6.75A12.28,12.28,0,0,1,14.73,16.92Z"/><path id="_Path_2" data-name="&lt;Path&gt;" class="cls-3" d="M26.73,36.22a2.6,2.6,0,0,0-2.6-2.61h2.6a2.78,2.78,0,1,0,0-5.56,2.78,2.78,0,0,0,0-5.56H39.14a2.42,2.42,0,1,0,0-4.84H20.68a8.15,8.15,0,0,0,4.76-1.54,3.93,3.93,0,0,0,1.32-5,1.56,1.56,0,0,0-2.16-.66l-4,2.2A26.64,26.64,0,0,1,14.73,15a12.28,12.28,0,0,0-7.12,5.31,12.54,12.54,0,0,0-2,6.75v4.13a7.6,7.6,0,0,0,7.6,7.6H24.13A2.59,2.59,0,0,0,26.73,36.22Z"/><line id="_Path_3" data-name="&lt;Path&gt;" class="cls-3" x1="26.73" y1="28.05" x2="24.64" y2="28.05"/><line id="_Path_4" data-name="&lt;Path&gt;" class="cls-3" x1="26.73" y1="22.49" x2="24.64" y2="22.49"/><line id="_Path_5" data-name="&lt;Path&gt;" class="cls-3" x1="20.68" y1="17.65" x2="18.82" y2="17.65"/><ellipse id="_Ellipse_" data-name="&lt;Ellipse&gt;" class="cls-4" cx="24" cy="45.5" rx="15" ry="1.5"/></svg>