<svg id="Icons" xmlns="http://www.w3.org/2000/svg" viewBox="0 0 48 48"><defs><style>.cls-1{fill:#45413c;opacity:0.15;}.cls-2{fill:#ffe500;}.cls-3{fill:#fff48c;}.cls-4{fill:none;stroke:#45413c;stroke-linecap:round;stroke-linejoin:round;}</style></defs><title>361-victory-hand-1</title><ellipse id="_Ellipse_" data-name="&lt;Ellipse&gt;" class="cls-1" cx="24" cy="45.5" rx="11" ry="1.5"/><path class="cls-2" d="M34.13,7a2.5,2.5,0,0,0-2.82,2.13l-2,13.67-2-13.63a2.5,2.5,0,1,0-4.95.69l1.45,10.34a2.65,2.65,0,0,0-4.39,2v2.4a2.66,2.66,0,0,0-5.31,0v7.21a10.19,10.19,0,0,0,9.3,10.29A10,10,0,0,0,34.07,31.9c0-8.53,0-5.68,2.19-22.06A2.5,2.5,0,0,0,34.13,7Z"/><path class="cls-3" d="M22.73,12.38a2.6,2.6,0,0,1,4.94-.85l-.34-2.34a2.5,2.5,0,1,0-4.95.69Z"/><path class="cls-3" d="M34.13,7a2.5,2.5,0,0,0-2.82,2.13L31,11.27a2.61,2.61,0,0,1,5,.87c.1-.72.2-1.48.31-2.3A2.5,2.5,0,0,0,34.13,7Z"/><path id="_Path_" data-name="&lt;Path&gt;" class="cls-4" d="M27.32,31.9h0a4.44,4.44,0,0,0-4.44,4.44v1.31"/><path class="cls-4" d="M34.13,7a2.5,2.5,0,0,0-2.82,2.13l-2,13.67-2-13.63a2.5,2.5,0,1,0-4.95.69l1.45,10.34a2.65,2.65,0,0,0-4.39,2v2.4a2.66,2.66,0,0,0-5.31,0v7.21a10.19,10.19,0,0,0,9.3,10.29A10,10,0,0,0,34.07,31.9c0-8.53,0-5.68,2.19-22.06A2.5,2.5,0,0,0,34.13,7Z"/><rect id="_Rectangle_" data-name="&lt;Rectangle&gt;" class="cls-2" x="14.13" y="21.98" width="5.32" height="8.56" rx="2.66" ry="2.66"/><rect id="_Rectangle_2" data-name="&lt;Rectangle&gt;" class="cls-2" x="19.44" y="19.57" width="5.32" height="10.96" rx="2.66" ry="2.66"/><path id="_Path_2" data-name="&lt;Path&gt;" class="cls-3" d="M16.79,22h0a2.66,2.66,0,0,0-2.66,2.65V27a2.66,2.66,0,0,1,2.66-2.65h0A2.65,2.65,0,0,1,19.44,27v-2.4A2.65,2.65,0,0,0,16.79,22Z"/><path id="_Path_3" data-name="&lt;Path&gt;" class="cls-3" d="M22.1,19.57h0a2.67,2.67,0,0,0-2.66,2.66v2.4A2.66,2.66,0,0,1,22.1,22h0a2.66,2.66,0,0,1,2.66,2.65v-2.4A2.67,2.67,0,0,0,22.1,19.57Z"/><rect id="_Rectangle_3" data-name="&lt;Rectangle&gt;" class="cls-4" x="14.13" y="21.98" width="5.32" height="8.56" rx="2.66" ry="2.66"/><rect id="_Rectangle_4" data-name="&lt;Rectangle&gt;" class="cls-4" x="19.44" y="19.57" width="5.32" height="10.96" rx="2.66" ry="2.66"/><path id="_Path_4" data-name="&lt;Path&gt;" class="cls-2" d="M34.07,31.9h0a5.2,5.2,0,0,0-5.19-5.19H20.8a1.37,1.37,0,0,0-1.37,1.38h0a3.81,3.81,0,0,0,3.81,3.81h4.08"/><path id="_Path_5" data-name="&lt;Path&gt;" class="cls-3" d="M34.07,31.9a5.2,5.2,0,0,0-5.19-5.19H20.8a1.37,1.37,0,0,0-1.37,1.38,3.75,3.75,0,0,0,.24,1.3,1.37,1.37,0,0,1,1.13-.59h8.52A5.21,5.21,0,0,1,34.07,31.9Z"/><path id="_Path_6" data-name="&lt;Path&gt;" class="cls-4" d="M34.07,31.9h0a5.2,5.2,0,0,0-5.19-5.19H20.8a1.37,1.37,0,0,0-1.37,1.38h0a3.81,3.81,0,0,0,3.81,3.81h4.08"/></svg>