<svg id="Icons" xmlns="http://www.w3.org/2000/svg" viewBox="0 0 48 48"><defs><style>.cls-1{fill:#45413c;opacity:0.15;}.cls-2{fill:#ffe500;}.cls-3{fill:#fff48c;}.cls-4{fill:none;stroke:#45413c;stroke-linecap:round;stroke-linejoin:round;}</style></defs><title>367-sign-of-the-horns-1</title><ellipse id="_Ellipse_" data-name="&lt;Ellipse&gt;" class="cls-1" cx="24" cy="45.5" rx="11" ry="1.5"/><path id="_Path_" data-name="&lt;Path&gt;" class="cls-2" d="M30,22.08,31.93,9a2.5,2.5,0,1,1,5,.69C34.67,26.25,34.69,23.16,34.69,32A10,10,0,0,1,24.06,42a10.2,10.2,0,0,1-9.31-10.29V24.54a11.57,11.57,0,0,0-.58-3.65L12,14.27a2.28,2.28,0,0,1,4.29-1.56l3.78,9.37Z"/><path class="cls-3" d="M34,9.57a2.88,2.88,0,0,1,2.64,1.72c.07-.51.14-1,.21-1.6a2.5,2.5,0,1,0-5-.69l-.26,1.81A2.86,2.86,0,0,1,34,9.57Z"/><path class="cls-3" d="M12.61,16.1a2.45,2.45,0,0,1,4.51-1.33l-.83-2.06A2.28,2.28,0,0,0,12,14.27l.61,1.86Z"/><path id="_Path_2" data-name="&lt;Path&gt;" class="cls-4" d="M30,22.08,31.93,9a2.5,2.5,0,1,1,5,.69C34.67,26.25,34.69,23.16,34.69,32A10,10,0,0,1,24.06,42a10.2,10.2,0,0,1-9.31-10.29V24.54a11.57,11.57,0,0,0-.58-3.65L12,14.27a2.28,2.28,0,0,1,4.29-1.56l3.78,9.37Z"/><rect id="_Rectangle_" data-name="&lt;Rectangle&gt;" class="cls-2" x="20.07" y="19.43" width="5.32" height="10.96" rx="2.66" ry="2.66"/><path id="_Path_3" data-name="&lt;Path&gt;" class="cls-3" d="M22.73,19.43h0a2.66,2.66,0,0,0-2.66,2.65v2.4a2.66,2.66,0,0,1,2.66-2.65h0a2.66,2.66,0,0,1,2.66,2.65v-2.4A2.66,2.66,0,0,0,22.73,19.43Z"/><rect id="_Rectangle_2" data-name="&lt;Rectangle&gt;" class="cls-4" x="20.07" y="19.43" width="5.32" height="10.96" rx="2.66" ry="2.66"/><rect id="_Rectangle_3" data-name="&lt;Rectangle&gt;" class="cls-2" x="25.39" y="19.43" width="5.32" height="10.96" rx="2.66" ry="2.66"/><path id="_Path_4" data-name="&lt;Path&gt;" class="cls-3" d="M28,19.43h0a2.65,2.65,0,0,0-2.65,2.65v2.4A2.65,2.65,0,0,1,28,21.83h0a2.66,2.66,0,0,1,2.66,2.65v-2.4A2.66,2.66,0,0,0,28,19.43Z"/><rect id="_Rectangle_4" data-name="&lt;Rectangle&gt;" class="cls-4" x="25.39" y="19.43" width="5.32" height="10.96" rx="2.66" ry="2.66"/><path id="_Path_5" data-name="&lt;Path&gt;" class="cls-2" d="M34.69,31.75a5.18,5.18,0,0,0-5.19-5.18H21.43a1.37,1.37,0,0,0-1.38,1.37,3.81,3.81,0,0,0,3.81,3.81Z"/><path id="_Path_6" data-name="&lt;Path&gt;" class="cls-3" d="M34.69,31.75a5.18,5.18,0,0,0-5.19-5.18H21.43a1.37,1.37,0,0,0-1.38,1.37,3.71,3.71,0,0,0,.24,1.3,1.41,1.41,0,0,1,1.14-.59H30A5.18,5.18,0,0,1,34.69,31.75Z"/><path id="_Path_7" data-name="&lt;Path&gt;" class="cls-4" d="M23.5,37.5V36.19a4.44,4.44,0,0,1,4.44-4.44H23.86a3.81,3.81,0,0,1-3.81-3.81,1.37,1.37,0,0,1,1.38-1.37H29.5a5.18,5.18,0,0,1,5.19,5.18"/></svg>