<svg id="Icons" xmlns="http://www.w3.org/2000/svg" viewBox="0 0 48 48"><defs><style>.cls-1{fill:#45413c;opacity:0.15;}.cls-2{fill:#ffe500;}.cls-3{fill:#fff48c;}.cls-4{fill:none;stroke:#45413c;stroke-linecap:round;stroke-linejoin:round;}</style></defs><title>377-thumbs-down-1</title><ellipse id="_Ellipse_" data-name="&lt;Ellipse&gt;" class="cls-1" cx="24" cy="45.5" rx="11" ry="1.5"/><path class="cls-2" d="M37.17,19.08h.18a2.55,2.55,0,0,1,0,5.09H34.81a2.54,2.54,0,0,1,0,5.08H28.69c.58,1.44,1.32,3.72,2,5.87a4.19,4.19,0,0,1-2.77,5.21,1.09,1.09,0,0,1-1.36-.73c-.86-2.93-1.5-6.65-6-10a18.61,18.61,0,0,1-4.05-4.35,3.91,3.91,0,0,0-3.19-1.69H9.79a1,1,0,0,1-1-1V11.44a1,1,0,0,1,1-1h2.49c3.28-.07,4.7-1.31,8.79-1.31H34.54a2.25,2.25,0,0,1,0,4.5h2.63a2.73,2.73,0,0,1,0,5.45Z"/><path class="cls-2" d="M37.17,19.08h.18a2.55,2.55,0,0,1,0,5.09H34.81a2.54,2.54,0,0,1,0,5.08H28.69c.58,1.44,1.32,3.72,2,5.87a4.19,4.19,0,0,1-2.77,5.21,1.09,1.09,0,0,1-1.36-.73c-.86-2.93-1.5-6.65-6-10a18.61,18.61,0,0,1-4.05-4.35,3.91,3.91,0,0,0-3.19-1.69H9.79a1,1,0,0,1-1-1V11.44a1,1,0,0,1,1-1h2.49c3.28-.07,4.7-1.31,8.79-1.31H34.54a2.25,2.25,0,0,1,0,4.5h2.63a2.73,2.73,0,0,1,0,5.45Z"/><path class="cls-3" d="M9.79,13.71h2.49c3.28-.08,4.7-1.32,8.79-1.32H34.54a2.25,2.25,0,0,1,1.55.62,2.25,2.25,0,0,0-1.55-3.88H21.07c-4.09,0-5.51,1.24-8.79,1.31H9.79a1,1,0,0,0-1,1v3.27A1,1,0,0,1,9.79,13.71Z"/><path id="_Path_" data-name="&lt;Path&gt;" class="cls-4" d="M28.37,23.43l-.06-.11a11.39,11.39,0,0,0-8.69-6.22h0"/><rect id="_Rectangle_" data-name="&lt;Rectangle&gt;" class="cls-2" x="25.39" y="9.13" width="11.4" height="4.5" rx="2.25" ry="2.25"/><path class="cls-3" d="M27.64,11.38h6.9a2.26,2.26,0,0,1,2,1.12,2.25,2.25,0,0,0-2-3.37h-6.9a2.25,2.25,0,0,0-1.95,3.37A2.26,2.26,0,0,1,27.64,11.38Z"/><rect id="_Rectangle_2" data-name="&lt;Rectangle&gt;" class="cls-2" x="24.71" y="13.63" width="15.18" height="5.45" rx="2.72" ry="2.72"/><rect id="_Rectangle_3" data-name="&lt;Rectangle&gt;" class="cls-2" x="24.71" y="19.08" width="15.18" height="5.09" rx="2.54" ry="2.54"/><rect id="_Rectangle_4" data-name="&lt;Rectangle&gt;" class="cls-2" x="25.39" y="24.17" width="11.96" height="5.09" rx="2.54" ry="2.54"/><rect id="_Rectangle_5" data-name="&lt;Rectangle&gt;" class="cls-4" x="25.39" y="9.13" width="11.4" height="4.5" rx="2.25" ry="2.25"/><rect id="_Rectangle_6" data-name="&lt;Rectangle&gt;" class="cls-4" x="24.71" y="13.63" width="15.18" height="5.45" rx="2.72" ry="2.72"/><rect id="_Rectangle_7" data-name="&lt;Rectangle&gt;" class="cls-4" x="24.71" y="19.08" width="15.18" height="5.09" rx="2.54" ry="2.54"/><rect id="_Rectangle_8" data-name="&lt;Rectangle&gt;" class="cls-4" x="25.39" y="24.17" width="11.96" height="5.09" rx="2.54" ry="2.54"/><path class="cls-4" d="M37.17,19.08h.18a2.55,2.55,0,0,1,0,5.09H34.81a2.54,2.54,0,0,1,0,5.08H28.69c.58,1.44,1.32,3.72,2,5.87a4.19,4.19,0,0,1-2.77,5.21,1.09,1.09,0,0,1-1.36-.73c-.86-2.93-1.5-6.65-6-10a18.61,18.61,0,0,1-4.05-4.35,3.91,3.91,0,0,0-3.19-1.69H9.79a1,1,0,0,1-1-1V11.44a1,1,0,0,1,1-1h2.49c3.28-.07,4.7-1.31,8.79-1.31H34.54a2.25,2.25,0,0,1,0,4.5h2.63a2.73,2.73,0,0,1,0,5.45Z"/></svg>