<svg id="Icons" xmlns="http://www.w3.org/2000/svg" viewBox="0 0 48 48"><defs><style>.cls-1{fill:#656769;}.cls-1,.cls-3,.cls-6{stroke:#45413c;stroke-linecap:round;stroke-linejoin:round;}.cls-2{fill:#45413c;opacity:0.15;}.cls-3{fill:none;}.cls-4{fill:#ff866e;}.cls-5{fill:#ff6242;}.cls-6{fill:#a6fbff;}</style></defs><title>398-tongue</title><g id="_Group_" data-name="&lt;Group&gt;"><path id="_Path_" data-name="&lt;Path&gt;" class="cls-1" d="M42.13,13.72c-2.76,2.22-9.84,5.57-18.13,5.57S8.63,15.94,5.87,13.72a5,5,0,0,1-.89.89c1.74,6.85,9.59,12,19,12s17.28-5.17,19-12A5,5,0,0,1,42.13,13.72Z"/><ellipse id="_Ellipse_" data-name="&lt;Ellipse&gt;" class="cls-2" cx="24" cy="45.4" rx="12.28" ry="1.6"/><path id="_Path_2" data-name="&lt;Path&gt;" class="cls-3" d="M7,10.43a5.34,5.34,0,0,1-5.34,5.33"/><path class="cls-4" d="M33.89,17.74A33.19,33.19,0,0,1,24,19.29a33.19,33.19,0,0,1-9.89-1.55,37.07,37.07,0,0,0-2.48,13.33,7.44,7.44,0,0,0,7.44,7.43h9.86a7.44,7.44,0,0,0,7.44-7.43A37.07,37.07,0,0,0,33.89,17.74Z"/><path class="cls-5" d="M33.89,17.74A33.51,33.51,0,0,1,24,19.29a33.51,33.51,0,0,1-9.89-1.55c-.38,1-.7,1.94-1,3.06A38.45,38.45,0,0,0,24,22.43,38.45,38.45,0,0,0,34.91,20.8C34.59,19.68,34.27,18.72,33.89,17.74Z"/><line id="_Path_3" data-name="&lt;Path&gt;" class="cls-3" x1="24" y1="19.29" x2="24" y2="27.8"/><path id="_Path_4" data-name="&lt;Path&gt;" class="cls-6" d="M38.06,35.12A5.24,5.24,0,0,1,42.14,39c1,3.5-2.39,5.33-4,3.37S39.84,38.5,38.06,35.12Z"/><path id="_Path_5" data-name="&lt;Path&gt;" class="cls-6" d="M39.73,30.62a3.39,3.39,0,0,1,3.55-.82c2.26.69,2,3.2.41,3.34S42.19,30.87,39.73,30.62Z"/><path id="_Path_6" data-name="&lt;Path&gt;" class="cls-6" d="M9.78,36.1a3.41,3.41,0,0,0-3.19,1.78c-1.2,2,.65,3.73,1.94,2.75S8.12,37.93,9.78,36.1Z"/><path id="_Path_7" data-name="&lt;Path&gt;" class="cls-3" d="M46.33,15.76A5.34,5.34,0,0,1,41,10.43"/><path class="cls-3" d="M33.89,17.74A33.19,33.19,0,0,1,24,19.29a33.19,33.19,0,0,1-9.89-1.55,37.07,37.07,0,0,0-2.48,13.33,7.44,7.44,0,0,0,7.44,7.43h9.86a7.44,7.44,0,0,0,7.44-7.43A37.07,37.07,0,0,0,33.89,17.74Z"/></g></svg>