<svg id="Icons" xmlns="http://www.w3.org/2000/svg" viewBox="0 0 48 48"><defs><style>.cls-1{fill:#ff6242;}.cls-2{fill:#ff866e;}.cls-3{fill:#45413c;opacity:0.15;}.cls-4{fill:none;stroke:#45413c;stroke-linecap:round;stroke-linejoin:round;}</style></defs><title>403-broken-heart</title><g id="_Group_" data-name="&lt;Group&gt;"><g id="_Group_2" data-name="&lt;Group&gt;"><path id="_Path_" data-name="&lt;Path&gt;" class="cls-1" d="M17.8,30.53A1.63,1.63,0,0,1,18,29.24l3.61-5.67a2.12,2.12,0,0,0,.17-2L18.56,14a2.13,2.13,0,0,1,.23-2.07L21.63,8a1.06,1.06,0,0,0-.1-1.37,14.43,14.43,0,0,0-4.88-3.45C12.91,1.76,3.7,2.49,3.7,12.66c0,8.29,8.57,17.67,14.58,23.22a.53.53,0,0,0,.87-.54Z"/><path id="_Path_2" data-name="&lt;Path&gt;" class="cls-1" d="M31.35,3.16a13.83,13.83,0,0,0-4.59,3.17l-4.33,6a2.13,2.13,0,0,0-.23,2.07l3.27,7.75a1.59,1.59,0,0,1-.12,1.48l-3.77,5.92a2.1,2.1,0,0,0-.25,1.71L24,40.73l0,0S44.3,25.41,44.3,12.66C44.3,2.49,35.09,1.76,31.35,3.16Z"/></g><g id="_Group_3" data-name="&lt;Group&gt;"><path id="_Path_3" data-name="&lt;Path&gt;" class="cls-2" d="M21.63,8a1.06,1.06,0,0,0-.1-1.37,14.43,14.43,0,0,0-4.88-3.45C12.91,1.76,3.7,2.49,3.7,12.66a13.21,13.21,0,0,0,.24,2.49c1.42-6.59,9.31-7,12.71-5.94a14.65,14.65,0,0,1,3.08,1.42Z"/><path id="_Path_4" data-name="&lt;Path&gt;" class="cls-2" d="M31.35,3.16a13.83,13.83,0,0,0-4.59,3.17l-4.41,6.12A21,21,0,0,1,24,13.91a21.11,21.11,0,0,1,7.35-4.7c3.4-1.09,11.29-.65,12.71,5.94a13.21,13.21,0,0,0,.24-2.49C44.3,2.49,35.09,1.76,31.35,3.16Z"/></g><ellipse id="_Ellipse_" data-name="&lt;Ellipse&gt;" class="cls-3" cx="24" cy="45.4" rx="12.25" ry="1.6"/><g id="_Group_4" data-name="&lt;Group&gt;"><path id="_Path_5" data-name="&lt;Path&gt;" class="cls-4" d="M17.8,30.53A1.63,1.63,0,0,1,18,29.24l3.61-5.67a2.12,2.12,0,0,0,.17-2L18.56,14a2.13,2.13,0,0,1,.23-2.07L21.63,8a1.06,1.06,0,0,0-.1-1.37,14.43,14.43,0,0,0-4.88-3.45C12.91,1.76,3.7,2.49,3.7,12.66c0,8.29,8.57,17.67,14.58,23.22a.53.53,0,0,0,.87-.54Z"/><path id="_Path_6" data-name="&lt;Path&gt;" class="cls-4" d="M31.35,3.16a13.83,13.83,0,0,0-4.59,3.17l-4.33,6a2.13,2.13,0,0,0-.23,2.07l3.27,7.75a1.59,1.59,0,0,1-.12,1.48l-3.77,5.92a2.1,2.1,0,0,0-.25,1.71L24,40.73l0,0S44.3,25.41,44.3,12.66C44.3,2.49,35.09,1.76,31.35,3.16Z"/></g></g></svg>