<svg id="Icons" xmlns="http://www.w3.org/2000/svg" viewBox="0 0 48 48"><defs><style>.cls-1{fill:#fcd;stroke:#ffb0ca;}.cls-1,.cls-2,.cls-6{stroke-linecap:round;stroke-linejoin:round;}.cls-2{fill:#ffb0ca;stroke:#ff87af;}.cls-3{fill:#ffe5ee;opacity:0.7;}.cls-4{fill:#ff6196;}.cls-5{fill:#ff87af;}.cls-6{fill:none;stroke:#45413c;}</style></defs><title>405-growing-heart</title><g id="_Group_" data-name="&lt;Group&gt;"><path id="_Path_" data-name="&lt;Path&gt;" class="cls-1" d="M22.74,41.59a2.1,2.1,0,0,0,2.52,0c4-3,16.48-12.81,18.54-21.34C46.26,10,40,3.77,33.9,3.77c-4.44,0-7.67,3.13-9.09,4.83a1,1,0,0,1-1.62,0c-1.42-1.7-4.65-4.83-9.09-4.83C8,3.77,1.74,10,4.2,20.25,6.26,28.78,18.71,38.6,22.74,41.59Z"/><path id="_Path_2" data-name="&lt;Path&gt;" class="cls-2" d="M23.09,36.48a1.5,1.5,0,0,0,1.82,0c2.93-2.17,12-9.31,13.48-15.51,1.78-7.42-2.77-12-7.2-12-3.22,0-5.57,2.27-6.6,3.51a.77.77,0,0,1-1.18,0C22.38,11.27,20,9,16.81,9c-4.43,0-9,4.55-7.2,12C11.11,27.17,20.16,34.31,23.09,36.48Z"/><ellipse id="_Ellipse_" data-name="&lt;Ellipse&gt;" class="cls-3" cx="24" cy="45.5" rx="11.5" ry="1.5"/><g id="_Group_2" data-name="&lt;Group&gt;"><path id="_Path_3" data-name="&lt;Path&gt;" class="cls-4" d="M23.41,31.67a1,1,0,0,0,1.18,0c1.89-1.41,7.73-6,8.7-10,1.15-4.79-1.79-7.73-4.65-7.73a5.84,5.84,0,0,0-4.26,2.27.49.49,0,0,1-.76,0,5.84,5.84,0,0,0-4.26-2.27c-2.86,0-5.8,2.94-4.65,7.73C15.68,25.65,21.52,30.26,23.41,31.67Z"/><path id="_Path_4" data-name="&lt;Path&gt;" class="cls-5" d="M28.64,13.92a5.84,5.84,0,0,0-4.26,2.27.49.49,0,0,1-.76,0,5.84,5.84,0,0,0-4.26-2.27c-2.86,0-5.8,2.94-4.65,7.73a8.82,8.82,0,0,0,1.17,2.56,4.91,4.91,0,0,1-.17-.5c-1-3.84,1.59-6.2,4.14-6.2A6,6,0,0,1,24,19.29a6,6,0,0,1,4.15-1.78c2.55,0,5.18,2.36,4.14,6.2a4,4,0,0,1-.17.49,8.65,8.65,0,0,0,1.17-2.55C34.44,16.86,31.5,13.92,28.64,13.92Z"/><path id="_Path_5" data-name="&lt;Path&gt;" class="cls-6" d="M23.41,31.67a1,1,0,0,0,1.18,0c1.89-1.41,7.73-6,8.7-10,1.15-4.79-1.79-7.73-4.65-7.73a5.84,5.84,0,0,0-4.26,2.27.49.49,0,0,1-.76,0,5.84,5.84,0,0,0-4.26-2.27c-2.86,0-5.8,2.94-4.65,7.73C15.68,25.65,21.52,30.26,23.41,31.67Z"/></g></g></svg>