<svg id="Icons" xmlns="http://www.w3.org/2000/svg" viewBox="0 0 48 48"><defs><style>.cls-1{fill:#fff;}.cls-2,.cls-5{fill:#e5f8ff;}.cls-3{fill:#45413c;opacity:0.15;}.cls-4{fill:none;}.cls-4,.cls-5{stroke:#45413c;stroke-linecap:round;stroke-linejoin:round;}</style></defs><title>412-dashing-away</title><g id="_Group_" data-name="&lt;Group&gt;"><path id="_Path_" data-name="&lt;Path&gt;" class="cls-1" d="M46.56,19.71a11.69,11.69,0,0,0-7.38-9.41c0-.07,0-.13,0-.21A5.14,5.14,0,0,0,34.06,5a5.07,5.07,0,0,0-3,1A8.44,8.44,0,1,0,19.49,18.2,17.78,17.78,0,0,1,15,19.83a35.28,35.28,0,0,1-7.57.84.56.56,0,0,0-.34,1,3.23,3.23,0,0,1,1.44,2.76,2.74,2.74,0,0,1-1.62,2.69.55.55,0,0,0-.28.77,2.33,2.33,0,0,1,.16,1.56c-.24,1.19-1.92,1.74-1.92,1.74a39,39,0,0,1,10.23.75,19.09,19.09,0,0,1,3.12.9,7.55,7.55,0,1,0,14,5.31,5,5,0,0,0,4.16.7,5,5,0,0,0,3.54-3.6,5.1,5.1,0,0,0-.34-3.41A11.61,11.61,0,0,0,46.56,19.71Z"/><g id="_Group_2" data-name="&lt;Group&gt;"><path id="_Path_2" data-name="&lt;Path&gt;" class="cls-2" d="M46.4,18.89a11.59,11.59,0,0,1-6.83,8.33,5.1,5.1,0,0,1,.34,3.41,5,5,0,0,1-3.54,3.6,5,5,0,0,1-4.16-.7,7.54,7.54,0,0,1-14.55.72,7.54,7.54,0,1,0,14.55,3.9,5,5,0,0,0,4.16.7,5,5,0,0,0,3.54-3.6,5.1,5.1,0,0,0-.34-3.41,11.61,11.61,0,0,0,7-12.13A7.43,7.43,0,0,0,46.4,18.89Z"/><path id="_Path_3" data-name="&lt;Path&gt;" class="cls-2" d="M21.86,30a28.44,28.44,0,0,0-6.73-2.66,39.66,39.66,0,0,0-7.32-.81,2.43,2.43,0,0,1-.87.61.55.55,0,0,0-.28.77,2.33,2.33,0,0,1,.16,1.56c-.24,1.19-1.92,1.74-1.92,1.74a39,39,0,0,1,10.23.75c.82.17,2.46.68,3.12.9A6.69,6.69,0,0,1,21.86,30Z"/></g><ellipse id="_Ellipse_" data-name="&lt;Ellipse&gt;" class="cls-3" cx="24" cy="45.31" rx="15.2" ry="1.69"/><path id="_Path_4" data-name="&lt;Path&gt;" class="cls-1" d="M6.49,16.88s3.61-.5,5.11-2.88.94-4.83-1.33-5.16A2.18,2.18,0,0,0,7.82,12,3.61,3.61,0,0,1,6.49,16.88Z"/><g id="_Group_3" data-name="&lt;Group&gt;"><path id="_Path_5" data-name="&lt;Path&gt;" class="cls-2" d="M11.6,11.18A6.45,6.45,0,0,1,8.27,13.6a3.52,3.52,0,0,1-1.78,3.28s3.61-.5,5.11-2.88a4.06,4.06,0,0,0,.54-3.91A5.52,5.52,0,0,1,11.6,11.18Z"/></g><path id="_Path_6" data-name="&lt;Path&gt;" class="cls-4" d="M6.49,16.88s3.61-.5,5.11-2.88.94-4.83-1.33-5.16A2.18,2.18,0,0,0,7.82,12,3.61,3.61,0,0,1,6.49,16.88Z"/><path id="_Path_7" data-name="&lt;Path&gt;" class="cls-1" d="M5.19,34.23s4.93.08,6.84,1.82,2.12,4.43.1,4.9-2.61-.77-3-2.2S7.25,34.77,5.19,34.23Z"/><path id="_Path_8" data-name="&lt;Path&gt;" class="cls-2" d="M12.9,39.3c-1.89.44-2.61-.78-2.94-2.2a7,7,0,0,0-1.21-2.45,21,21,0,0,0-3.56-.42c2.06.54,3.62,2.94,4,4.52s1.05,2.64,3,2.2A1.8,1.8,0,0,0,13.56,39,2,2,0,0,1,12.9,39.3Z"/><path id="_Path_9" data-name="&lt;Path&gt;" class="cls-4" d="M5.19,34.23s4.93.08,6.84,1.82,2.12,4.43.1,4.9-2.61-.77-3-2.2S7.25,34.77,5.19,34.23Z"/><path id="_Path_10" data-name="&lt;Path&gt;" class="cls-5" d="M19.49,18.26c3.07,2,5.32,1.47,5.32,1.47"/><path id="_Path_11" data-name="&lt;Path&gt;" class="cls-5" d="M18.25,32.9c2.06-3.32,4.94-3.1,4.94-3.1"/><path id="_Path_12" data-name="&lt;Path&gt;" class="cls-5" d="M11.33,24.4a30.49,30.49,0,0,0,8.16-1.5"/><path id="_Path_13" data-name="&lt;Path&gt;" class="cls-5" d="M12.78,27.22a22.35,22.35,0,0,1,5.25,0"/><path id="_Path_14" data-name="&lt;Path&gt;" class="cls-4" d="M46.56,19.71a11.69,11.69,0,0,0-7.38-9.41c0-.07,0-.13,0-.21A5.14,5.14,0,0,0,34.06,5a5.07,5.07,0,0,0-3,1A8.44,8.44,0,1,0,19.49,18.2,17.78,17.78,0,0,1,15,19.83a35.28,35.28,0,0,1-7.57.84.56.56,0,0,0-.34,1,3.23,3.23,0,0,1,1.44,2.76,2.74,2.74,0,0,1-1.62,2.69.55.55,0,0,0-.28.77,2.33,2.33,0,0,1,.16,1.56c-.24,1.19-1.92,1.74-1.92,1.74a39,39,0,0,1,10.23.75,19.09,19.09,0,0,1,3.12.9,7.55,7.55,0,1,0,14,5.31,5,5,0,0,0,4.16.7,5,5,0,0,0,3.54-3.6,5.1,5.1,0,0,0-.34-3.41A11.61,11.61,0,0,0,46.56,19.71Z"/></g></svg>