<svg id="Icons" xmlns="http://www.w3.org/2000/svg" viewBox="0 0 48 48"><defs><style>.cls-1{fill:#45413c;opacity:0.15;}.cls-2{fill:#80ddff;}.cls-10,.cls-3{fill:#b8ecff;}.cls-4{fill:none;}.cls-10,.cls-4,.cls-9{stroke:#45413c;stroke-linecap:round;stroke-linejoin:round;}.cls-5{fill:#fff48c;}.cls-6{fill:#ebcb00;}.cls-7,.cls-9{fill:#4acfff;}.cls-8{fill:#00b8f0;}</style></defs><title>419-necktie</title><g id="_Group_" data-name="&lt;Group&gt;"><ellipse id="_Ellipse_" data-name="&lt;Ellipse&gt;" class="cls-1" cx="24" cy="44.92" rx="18.75" ry="2.08"/><rect id="_Rectangle_" data-name="&lt;Rectangle&gt;" class="cls-2" x="5.25" y="9.28" width="37.5" height="34.72" rx="5.56" ry="5.56"/><path id="_Path_" data-name="&lt;Path&gt;" class="cls-3" d="M37.19,9.28H10.81a5.55,5.55,0,0,0-5.56,5.55v4.46a5.56,5.56,0,0,1,5.56-5.56H37.19a5.56,5.56,0,0,1,5.56,5.56V14.83A5.55,5.55,0,0,0,37.19,9.28Z"/><rect id="_Rectangle_2" data-name="&lt;Rectangle&gt;" class="cls-4" x="5.25" y="9.28" width="37.5" height="34.72" rx="5.56" ry="5.56"/><path id="_Path_2" data-name="&lt;Path&gt;" class="cls-5" d="M26.39,17.61H21.61a1.39,1.39,0,0,1-1.35-1.05L18.44,9.28H29.56l-1.82,7.28A1.39,1.39,0,0,1,26.39,17.61Z"/><path id="_Path_3" data-name="&lt;Path&gt;" class="cls-6" d="M20.14,16.06l3.26-2.38a1,1,0,0,1,1.2,0l3.26,2.38,1.7-6.78H18.44Z"/><path id="_Path_4" data-name="&lt;Path&gt;" class="cls-4" d="M26.39,17.61H21.61a1.39,1.39,0,0,1-1.35-1.05L18.44,9.28H29.56l-1.82,7.28A1.39,1.39,0,0,1,26.39,17.61Z"/><polygon id="_Path_5" data-name="&lt;Path&gt;" class="cls-5" points="29.55 44 18.44 44 21.22 17.61 26.78 17.61 29.55 44"/><polygon id="_Path_6" data-name="&lt;Path&gt;" class="cls-6" points="27.05 20.21 26.78 17.61 21.22 17.61 20.95 20.21 27.05 20.21"/><polygon id="_Path_7" data-name="&lt;Path&gt;" class="cls-4" points="29.55 44 18.44 44 21.22 17.61 26.78 17.61 29.55 44"/><path id="_Path_8" data-name="&lt;Path&gt;" class="cls-2" d="M30.25,4.42,24,10.67l6.92,5a.7.7,0,0,0,1-.31l2.45-6.11Z"/><path id="_Path_9" data-name="&lt;Path&gt;" class="cls-2" d="M17.75,4.42,24,10.67l-6.92,5a.7.7,0,0,1-1-.31L13.58,9.28Z"/><polygon id="_Path_10" data-name="&lt;Path&gt;" class="cls-3" points="32.08 6.55 30.25 4.42 24 10.67 26.09 12.19 32.08 6.55"/><polygon id="_Path_11" data-name="&lt;Path&gt;" class="cls-3" points="21.91 12.19 24 10.67 17.75 4.42 15.92 6.55 21.91 12.19"/><path id="_Path_12" data-name="&lt;Path&gt;" class="cls-4" d="M30.25,4.42,24,10.67l6.92,5a.7.7,0,0,0,1-.31l2.45-6.11Z"/><path id="_Path_13" data-name="&lt;Path&gt;" class="cls-4" d="M17.75,4.42,24,10.67l-6.92,5a.7.7,0,0,1-1-.31L13.58,9.28Z"/><polygon id="_Path_14" data-name="&lt;Path&gt;" class="cls-7" points="17.75 4.42 24 10.67 30.25 4.42 17.75 4.42"/><polygon id="_Path_15" data-name="&lt;Path&gt;" class="cls-8" points="27.67 7 20.33 7 24 10.67 27.67 7"/><polygon id="_Path_16" data-name="&lt;Path&gt;" class="cls-4" points="17.75 4.42 24 10.67 30.25 4.42 17.75 4.42"/><path id="_Path_17" data-name="&lt;Path&gt;" class="cls-9" d="M39.2,29.8l-2.77,1.39a1.44,1.44,0,0,1-1.25,0L32.41,29.8a1.39,1.39,0,0,1-.77-1.24v-4.7H40v4.7A1.39,1.39,0,0,1,39.2,29.8Z"/><path id="_Rectangle_3" data-name="&lt;Rectangle&gt;" class="cls-10" d="M33,21.08h5.56A1.39,1.39,0,0,1,40,22.47v1.39a0,0,0,0,1,0,0H31.64a0,0,0,0,1,0,0V22.47A1.39,1.39,0,0,1,33,21.08Z"/></g></svg>