<svg id="Icons" xmlns="http://www.w3.org/2000/svg" viewBox="0 0 48 48"><defs><style>.cls-1{fill:#45413c;opacity:0.15;}.cls-2{fill:#00b8f0;}.cls-3{fill:#4acfff;}.cls-4{fill:none;}.cls-4,.cls-6{stroke:#45413c;stroke-linecap:round;stroke-linejoin:round;}.cls-5{fill:#80ddff;}.cls-6,.cls-7{fill:#009fd9;}</style></defs><title>421-jeans</title><g id="_Group_" data-name="&lt;Group&gt;"><ellipse id="_Ellipse_" data-name="&lt;Ellipse&gt;" class="cls-1" cx="24" cy="45.04" rx="17.63" ry="1.96"/><path class="cls-2" d="M37.38,4.18H10.62a.66.66,0,0,0-.66.65V42H21.72V20.82a2.28,2.28,0,0,1,4.56,0V42H38V4.83A.66.66,0,0,0,37.38,4.18Z"/><path id="_Path_" data-name="&lt;Path&gt;" class="cls-3" d="M37.38,4.18H10.62a.66.66,0,0,0-.66.65v6.53a.66.66,0,0,1,.66-.65H37.38a.66.66,0,0,1,.66.65V4.83A.66.66,0,0,0,37.38,4.18Z"/><path class="cls-4" d="M37.38,4.18H10.62a.66.66,0,0,0-.66.65V42H21.72V20.82a2.28,2.28,0,0,1,4.56,0V42H38V4.83A.66.66,0,0,0,37.38,4.18Z"/><rect id="_Rectangle_" data-name="&lt;Rectangle&gt;" class="cls-3" x="9.31" y="38.78" width="13.06" height="5.22" rx="1.31" ry="1.31"/><rect id="_Rectangle_2" data-name="&lt;Rectangle&gt;" class="cls-3" x="25.63" y="38.78" width="13.06" height="5.22" rx="1.31" ry="1.31"/><path id="_Path_2" data-name="&lt;Path&gt;" class="cls-5" d="M21.06,38.78H10.62a1.31,1.31,0,0,0-1.31,1.3V42.2a1.31,1.31,0,0,1,1.31-1.3H21.06a1.31,1.31,0,0,1,1.31,1.3V40.08A1.31,1.31,0,0,0,21.06,38.78Z"/><path id="_Path_3" data-name="&lt;Path&gt;" class="cls-5" d="M37.38,38.78H26.94a1.31,1.31,0,0,0-1.31,1.3V42.2a1.31,1.31,0,0,1,1.31-1.3H37.38a1.31,1.31,0,0,1,1.31,1.3V40.08A1.31,1.31,0,0,0,37.38,38.78Z"/><rect id="_Rectangle_3" data-name="&lt;Rectangle&gt;" class="cls-4" x="9.31" y="38.78" width="13.06" height="5.22" rx="1.31" ry="1.31"/><rect id="_Rectangle_4" data-name="&lt;Rectangle&gt;" class="cls-4" x="25.63" y="38.78" width="13.06" height="5.22" rx="1.31" ry="1.31"/><path id="_Path_4" data-name="&lt;Path&gt;" class="cls-3" d="M21.72,4.18v8.07A1.72,1.72,0,0,0,23.44,14h2.19V4.18Z"/><rect id="_Path_5" data-name="&lt;Path&gt;" class="cls-5" x="21.72" y="4.18" width="3.92" height="4.9"/><path id="_Path_6" data-name="&lt;Path&gt;" class="cls-4" d="M21.72,4.18v8.07A1.72,1.72,0,0,0,23.44,14h2.19V4.18Z"/><path id="_Rectangle_5" data-name="&lt;Rectangle&gt;" class="cls-6" d="M33.47,4.18h3.92a.65.65,0,0,1,.65.65v8.49a0,0,0,0,1,0,0H35.86a2.4,2.4,0,0,1-2.4-2.4V4.18A0,0,0,0,1,33.47,4.18Z"/><path id="_Rectangle_6" data-name="&lt;Rectangle&gt;" class="cls-6" d="M12.36,4.18h2.17a0,0,0,0,1,0,0v8.49a.65.65,0,0,1-.65.65H10a0,0,0,0,1,0,0V6.58A2.4,2.4,0,0,1,12.36,4.18Z" transform="translate(24.5 17.49) rotate(-180)"/><path id="_Rectangle_7" data-name="&lt;Rectangle&gt;" class="cls-7" d="M33.47,4.18h3.92a.65.65,0,0,1,.65.65v8.49a0,0,0,0,1,0,0H35.86a2.4,2.4,0,0,1-2.4-2.4V4.18A0,0,0,0,1,33.47,4.18Z"/><path id="_Rectangle_8" data-name="&lt;Rectangle&gt;" class="cls-7" d="M12.36,4.18h2.17a0,0,0,0,1,0,0v8.49a.65.65,0,0,1-.65.65H10a0,0,0,0,1,0,0V6.58A2.4,2.4,0,0,1,12.36,4.18Z" transform="translate(24.5 17.49) rotate(-180)"/><path id="_Path_7" data-name="&lt;Path&gt;" class="cls-2" d="M37.38,4.18H33.47V7.44h3.91a.66.66,0,0,1,.66.65V4.83A.66.66,0,0,0,37.38,4.18Z"/><path id="_Path_8" data-name="&lt;Path&gt;" class="cls-2" d="M10.62,4.18a.66.66,0,0,0-.66.65V8.09a.66.66,0,0,1,.66-.65h3.91V4.18Z"/><path id="_Rectangle_9" data-name="&lt;Rectangle&gt;" class="cls-4" d="M33.47,4.18h3.92a.65.65,0,0,1,.65.65v8.49a0,0,0,0,1,0,0H35.86a2.4,2.4,0,0,1-2.4-2.4V4.18A0,0,0,0,1,33.47,4.18Z"/><path id="_Rectangle_10" data-name="&lt;Rectangle&gt;" class="cls-4" d="M12.36,4.18h2.17a0,0,0,0,1,0,0v8.49a.65.65,0,0,1-.65.65H10a0,0,0,0,1,0,0V6.58A2.4,2.4,0,0,1,12.36,4.18Z" transform="translate(24.5 17.49) rotate(-180)"/><line id="_Path_9" data-name="&lt;Path&gt;" class="cls-4" x1="14.53" y1="7.44" x2="21.72" y2="7.44"/><line id="_Path_10" data-name="&lt;Path&gt;" class="cls-4" x1="25.63" y1="7.44" x2="33.47" y2="7.44"/></g></svg>