<svg id="Icons" xmlns="http://www.w3.org/2000/svg" viewBox="0 0 48 48"><defs><style>.cls-1{fill:#45413c;opacity:0.15;}.cls-2{fill:#00f5bc;}.cls-3{fill:#ffb0ca;}.cls-3,.cls-5{stroke:#45413c;stroke-linecap:round;stroke-linejoin:round;}.cls-4{fill:#8cffe4;}.cls-5{fill:none;}.cls-6{fill:#00dba8;}</style></defs><title>422-dress</title><ellipse id="_Ellipse_" data-name="&lt;Ellipse&gt;" class="cls-1" cx="24" cy="44.98" rx="15.5" ry="2.02"/><path id="_Path_" data-name="&lt;Path&gt;" class="cls-2" d="M41.5,34.36c-4.86-6.07-10.55-9.29-12-15.81h-11c-1.45,6.52-7.14,9.74-12,15.81a3.84,3.84,0,0,0-.71,2.2,3.66,3.66,0,0,0,5.44,3.24,4.81,4.81,0,0,0,4.73,4,4.75,4.75,0,0,0,3.45-1.48,5,5,0,0,0,9.18,0A4.75,4.75,0,0,0,32,43.81a4.81,4.81,0,0,0,4.73-4,3.66,3.66,0,0,0,5.44-3.24A3.81,3.81,0,0,0,41.5,34.36Z"/><rect id="_Rectangle_" data-name="&lt;Rectangle&gt;" class="cls-3" x="18.5" y="15.05" width="11" height="3.5"/><path class="cls-2" d="M30.83,9.62a9.68,9.68,0,0,0,.6-5.75l-.32-1.74a.76.76,0,0,0-.75-.63H28.13V2.86a4.13,4.13,0,1,1-8.26,0V1.5H17.64a.76.76,0,0,0-.75.63l-.32,1.74a9.68,9.68,0,0,0,.6,5.75,18.32,18.32,0,0,1,1.33,5.43h11A18.32,18.32,0,0,1,30.83,9.62Z"/><path class="cls-4" d="M16.49,7.32c.06-.4.32-1.84.4-2.24a.76.76,0,0,1,.75-.63h.87a1.36,1.36,0,0,1,1.36,1.37,4.13,4.13,0,0,0,8.26,0,1.36,1.36,0,0,1,1.36-1.37h.87a.76.76,0,0,1,.75.63c.08.4.34,1.84.4,2.24a10.52,10.52,0,0,0-.08-3.45l-.32-1.74a.76.76,0,0,0-.75-.63H28.13V2.86a4.13,4.13,0,1,1-8.26,0V1.5H17.64a.76.76,0,0,0-.75.63l-.32,1.74A10.52,10.52,0,0,0,16.49,7.32Z"/><path class="cls-5" d="M30.83,9.62a9.68,9.68,0,0,0,.6-5.75l-.32-1.74a.76.76,0,0,0-.75-.63H28.13V2.86a4.13,4.13,0,1,1-8.26,0V1.5H17.64a.76.76,0,0,0-.75.63l-.32,1.74a9.68,9.68,0,0,0,.6,5.75,18.32,18.32,0,0,1,1.33,5.43h11A18.32,18.32,0,0,1,30.83,9.62Z"/><path id="_Path_2" data-name="&lt;Path&gt;" class="cls-6" d="M32.29,24.34a14.79,14.79,0,0,1-2.79-5.79h-11a14.79,14.79,0,0,1-2.79,5.79A27.59,27.59,0,0,0,32.29,24.34Z"/><path id="_Path_3" data-name="&lt;Path&gt;" class="cls-5" d="M41.5,34.36c-4.86-6.07-10.55-9.29-12-15.81h-11c-1.45,6.52-7.14,9.74-12,15.81a3.84,3.84,0,0,0-.71,2.2,3.66,3.66,0,0,0,5.44,3.24,4.81,4.81,0,0,0,4.73,4,4.75,4.75,0,0,0,3.45-1.48,5,5,0,0,0,9.18,0A4.75,4.75,0,0,0,32,43.81a4.81,4.81,0,0,0,4.73-4,3.66,3.66,0,0,0,5.44-3.24A3.81,3.81,0,0,0,41.5,34.36Z"/><path id="_Path_4" data-name="&lt;Path&gt;" class="cls-5" d="M12.15,37.75A13.25,13.25,0,0,1,16,31.92"/><path id="_Path_5" data-name="&lt;Path&gt;" class="cls-5" d="M35.85,37.77a12,12,0,0,0-3.7-5.87"/><path id="_Path_6" data-name="&lt;Path&gt;" class="cls-5" d="M19.54,40.4a20.1,20.1,0,0,1,1-5.9"/><path id="_Path_7" data-name="&lt;Path&gt;" class="cls-5" d="M28.75,40.4A16.89,16.89,0,0,0,28,34.5"/></svg>