<svg id="Icons" xmlns="http://www.w3.org/2000/svg" viewBox="0 0 48 48"><defs><style>.cls-1{fill:#ff6196;}.cls-2,.cls-7{fill:#fff48c;}.cls-3{fill:#ff87af;}.cls-4{fill:#fffacf;}.cls-5{fill:#45413c;opacity:0.15;}.cls-6{fill:none;}.cls-6,.cls-7{stroke:#45413c;stroke-linecap:round;stroke-linejoin:round;}</style></defs><title>424-bikini</title><path class="cls-1" d="M35.59,11.73a1.23,1.23,0,0,1-.68-.87L33.72,4.54a1.19,1.19,0,0,0-1.17-1H31.27a.6.6,0,0,0-.59.7l1.18,6.6a8,8,0,1,1-15.72,0l1.18-6.6a.6.6,0,0,0-.59-.7H15.45a1.19,1.19,0,0,0-1.17,1l-1.19,6.32a1.23,1.23,0,0,1-.68.87A7.16,7.16,0,0,0,8.5,18.47a7.16,7.16,0,0,0,7.15,7.16,9,9,0,0,0,6.21-2.55,1.13,1.13,0,0,1,.91-.41h2.46a1.13,1.13,0,0,1,.91.41,9,9,0,0,0,6.21,2.55,7.16,7.16,0,0,0,7.15-7.16A7.16,7.16,0,0,0,35.59,11.73Z"/><path class="cls-2" d="M39.23,20.41H8.77a7.13,7.13,0,0,0,1.71,3H21.53l.33-.33a1.13,1.13,0,0,1,.91-.41h2.46a1.13,1.13,0,0,1,.91.41l.33.33H37.52A7.13,7.13,0,0,0,39.23,20.41Z"/><path id="_Path_" data-name="&lt;Path&gt;" class="cls-3" d="M31.27,5.76h1.28a1.18,1.18,0,0,1,1.17,1L34.91,13a1.2,1.2,0,0,0,.69.87,7,7,0,0,1,3.82,5.56,6.63,6.63,0,0,0,.08-1,7.18,7.18,0,0,0-3.9-6.75,1.2,1.2,0,0,1-.69-.86L33.72,4.54a1.19,1.19,0,0,0-1.17-1H31.27a.6.6,0,0,0-.59.7L31,5.85A.51.51,0,0,1,31.27,5.76Z"/><path id="_Path_2" data-name="&lt;Path&gt;" class="cls-3" d="M12.41,13.91a1.21,1.21,0,0,0,.68-.86l1.19-6.32a1.18,1.18,0,0,1,1.17-1h1.28a.51.51,0,0,1,.3.09l.29-1.58a.6.6,0,0,0-.59-.7H15.45a1.19,1.19,0,0,0-1.17,1l-1.19,6.32a1.23,1.23,0,0,1-.68.87A7.16,7.16,0,0,0,8.5,18.47a6.63,6.63,0,0,0,.08,1A7,7,0,0,1,12.41,13.91Z"/><path id="_Path_3" data-name="&lt;Path&gt;" class="cls-3" d="M16.06,13.69a8,8,0,1,0,15.88,0c0-.11,0-.22,0-.33a8,8,0,0,1-15.8,0C16.09,13.47,16.07,13.58,16.06,13.69Z"/><polygon id="_Path_4" data-name="&lt;Path&gt;" class="cls-2" points="34.63 9.39 31.6 9.39 31.06 6.39 34.07 6.39 34.63 9.39"/><polygon id="_Path_5" data-name="&lt;Path&gt;" class="cls-2" points="16.94 6.39 16.4 9.39 13.37 9.39 13.93 6.39 16.94 6.39"/><path id="_Path_6" data-name="&lt;Path&gt;" class="cls-4" d="M29.31,20.41a7.93,7.93,0,0,1-10.62,0Z"/><path id="_Path_7" data-name="&lt;Path&gt;" class="cls-2" d="M39.26,16.41H30.81a7.43,7.43,0,0,0,.47-.88l0,0a7.67,7.67,0,0,0,.6-2.08h5.87A7,7,0,0,1,39.26,16.41Z"/><path id="_Path_8" data-name="&lt;Path&gt;" class="cls-4" d="M39.26,16.41h-.89a6.71,6.71,0,0,0-2.78-2.5,1.19,1.19,0,0,1-.54-.5h2.72A7.17,7.17,0,0,1,39.26,16.41Z"/><path id="_Path_9" data-name="&lt;Path&gt;" class="cls-2" d="M17.19,16.41H8.74a6.92,6.92,0,0,1,1.5-3H16.1a7.67,7.67,0,0,0,.6,2.08s0,0,0,0A7.5,7.5,0,0,0,17.19,16.41Z"/><path id="_Path_10" data-name="&lt;Path&gt;" class="cls-4" d="M13,13.41a1.19,1.19,0,0,1-.54.5,6.85,6.85,0,0,0-2.78,2.5H8.74a7,7,0,0,1,1.5-3Z"/><ellipse id="_Ellipse_" data-name="&lt;Ellipse&gt;" class="cls-5" cx="24" cy="45.5" rx="11.5" ry="1.5"/><path class="cls-1" d="M35.84,30.75h0A45.19,45.19,0,0,1,24,32.33a45.19,45.19,0,0,1-11.83-1.58h0a1,1,0,0,0-1.28,1v1.14a1.18,1.18,0,0,0,1,1.17A12.53,12.53,0,0,1,22,43.12a2,2,0,0,0,3.92,0A12.53,12.53,0,0,1,36.09,34a1.18,1.18,0,0,0,1-1.17V31.72A1,1,0,0,0,35.84,30.75Z"/><path id="_Path_11" data-name="&lt;Path&gt;" class="cls-3" d="M35.83,30.75A45.19,45.19,0,0,1,24,32.33a45.19,45.19,0,0,1-11.83-1.58h0a1,1,0,0,0-1.28,1v1.14a1.21,1.21,0,0,0,.16.56A1,1,0,0,1,12.16,33h0A45.19,45.19,0,0,0,24,34.57,45.19,45.19,0,0,0,35.83,33a1,1,0,0,1,1.12.43,1.21,1.21,0,0,0,.16-.56V31.72A1,1,0,0,0,35.83,30.75Z"/><path class="cls-6" d="M35.84,30.75h0A45.19,45.19,0,0,1,24,32.33a45.19,45.19,0,0,1-11.83-1.58h0a1,1,0,0,0-1.28,1v1.14a1.18,1.18,0,0,0,1,1.17A12.53,12.53,0,0,1,22,43.12a2,2,0,0,0,3.92,0A12.53,12.53,0,0,1,36.09,34a1.18,1.18,0,0,0,1-1.17V31.72A1,1,0,0,0,35.84,30.75Z"/><polygon id="_Path_12" data-name="&lt;Path&gt;" class="cls-6" points="34.63 9.39 31.6 9.39 31.06 6.39 34.07 6.39 34.63 9.39"/><polygon id="_Path_13" data-name="&lt;Path&gt;" class="cls-6" points="16.94 6.39 16.4 9.39 13.37 9.39 13.93 6.39 16.94 6.39"/><path id="_Path_14" data-name="&lt;Path&gt;" class="cls-6" d="M39.26,16.41H30.81a7.43,7.43,0,0,0,.47-.88l0,0a7.67,7.67,0,0,0,.6-2.08h5.87A7,7,0,0,1,39.26,16.41Z"/><path id="_Path_15" data-name="&lt;Path&gt;" class="cls-6" d="M17.19,16.41H8.74a6.92,6.92,0,0,1,1.5-3H16.1a7.67,7.67,0,0,0,.6,2.08s0,0,0,0A7.5,7.5,0,0,0,17.19,16.41Z"/><path class="cls-7" d="M21.68,41.89A8.67,8.67,0,0,1,22,43.12a2,2,0,0,0,3.92,0,8.67,8.67,0,0,1,.36-1.23Z"/><path class="cls-7" d="M18.65,37.39h10.7a12.89,12.89,0,0,1,5-3H13.6A12.89,12.89,0,0,1,18.65,37.39Z"/><path class="cls-6" d="M39.23,20.41H8.77a7.13,7.13,0,0,0,1.71,3H21.53l.33-.33a1.13,1.13,0,0,1,.91-.41h2.46a1.13,1.13,0,0,1,.91.41l.33.33H37.52A7.13,7.13,0,0,0,39.23,20.41Z"/><path class="cls-6" d="M35.59,11.73a1.23,1.23,0,0,1-.68-.87L33.72,4.54a1.19,1.19,0,0,0-1.17-1H31.27a.6.6,0,0,0-.59.7l1.18,6.6a8,8,0,1,1-15.72,0l1.18-6.6a.6.6,0,0,0-.59-.7H15.45a1.19,1.19,0,0,0-1.17,1l-1.19,6.32a1.23,1.23,0,0,1-.68.87A7.16,7.16,0,0,0,8.5,18.47a7.16,7.16,0,0,0,7.15,7.16,9,9,0,0,0,6.21-2.55,1.13,1.13,0,0,1,.91-.41h2.46a1.13,1.13,0,0,1,.91.41,9,9,0,0,0,6.21,2.55,7.16,7.16,0,0,0,7.15-7.16A7.16,7.16,0,0,0,35.59,11.73Z"/></svg>