<svg id="Icons" xmlns="http://www.w3.org/2000/svg" viewBox="0 0 48 48"><defs><style>.cls-1{fill:#45413c;opacity:0.15;}.cls-2{fill:#87898c;}.cls-2,.cls-5{stroke:#45413c;stroke-linecap:round;stroke-linejoin:round;}.cls-3{fill:#ff6242;}.cls-4{fill:#ff866e;}.cls-5{fill:none;}</style></defs><title>430-high-heeled-shoe</title><g id="_Group_" data-name="&lt;Group&gt;"><ellipse id="_Ellipse_" data-name="&lt;Ellipse&gt;" class="cls-1" cx="23.73" cy="40.01" rx="19.26" ry="1.99"/><path id="_Path_" data-name="&lt;Path&gt;" class="cls-2" d="M42.68,23.56c-1.77,2.71-2,15.94-2,15.94H38s.72-11.29-2-11.29H30.72L38,20.9Z"/><path id="_Path_2" data-name="&lt;Path&gt;" class="cls-3" d="M8.33,27.86a.64.64,0,0,1,.84.1,9.6,9.6,0,0,0,6.28,2.91c4.26.22,12-5,17.93-12,4.58-5.41,6-8.29,6.46-9.4a.67.67,0,0,1,.82-.39c1.55.5,5.34,2.15,5.34,6.47a10.23,10.23,0,0,1-3.32,8,13.4,13.4,0,0,0-10,5.31c-4.32,5.43-5.93,10.63-10,10.63H5.49s-4-.5-4-3.32S5.29,29.92,8.33,27.86Z"/><path id="_Path_3" data-name="&lt;Path&gt;" class="cls-4" d="M7,31.18a.74.74,0,0,1,.91.1,10.8,10.8,0,0,0,6.84,2.91c4.65.22,13.12-5,19.54-12,5-5.41,6.56-8.29,7-9.4a.74.74,0,0,1,.9-.38,10.06,10.06,0,0,1,3.71,1.94c-.63-3.43-3.83-4.82-5.23-5.27a.67.67,0,0,0-.82.39c-.44,1.11-1.88,4-6.46,9.4-5.89,7-13.67,12.18-17.93,12A9.6,9.6,0,0,1,9.17,28a.64.64,0,0,0-.84-.1c-2.81,1.9-6.26,5.11-6.76,7.7A26.34,26.34,0,0,1,7,31.18Z"/><path id="_Path_4" data-name="&lt;Path&gt;" class="cls-5" d="M8.33,27.86a.64.64,0,0,1,.84.1,9.6,9.6,0,0,0,6.28,2.91c4.26.22,12-5,17.93-12,4.58-5.41,6-8.29,6.46-9.4a.67.67,0,0,1,.82-.39c1.55.5,5.34,2.15,5.34,6.47a10.23,10.23,0,0,1-3.32,8,13.4,13.4,0,0,0-10,5.31c-4.32,5.43-5.93,10.63-10,10.63H5.49s-4-.5-4-3.32S5.29,29.92,8.33,27.86Z"/><path id="_Path_5" data-name="&lt;Path&gt;" class="cls-2" d="M22.75,36.84H7.48c-3.49,0-5.15-.61-5.94-1.15a4,4,0,0,0,0,.49c0,2.82,4,3.32,4,3.32H22.75c2.46,0,4-1.92,5.82-4.64A9.93,9.93,0,0,1,22.75,36.84Z"/></g></svg>