<svg id="Icons" xmlns="http://www.w3.org/2000/svg" viewBox="0 0 48 48"><defs><style>.cls-1{fill:#45413c;opacity:0.15;}.cls-2,.cls-7{fill:#656769;}.cls-3{fill:#525252;}.cls-4{fill:none;}.cls-4,.cls-7{stroke:#45413c;stroke-linecap:round;stroke-linejoin:round;}.cls-5{fill:#debb7e;}.cls-6{fill:#f0d5a8;}</style></defs><title>432-woman’s-boot</title><g id="_Group_" data-name="&lt;Group&gt;"><ellipse id="_Ellipse_" data-name="&lt;Ellipse&gt;" class="cls-1" cx="25" cy="44.41" rx="12.22" ry="1.59"/><path id="_Path_" data-name="&lt;Path&gt;" class="cls-2" d="M14.8,35.94,17.33,44a.53.53,0,0,0,.61.37l3.4-.66a.55.55,0,0,0,.43-.59l-.41-3.5a13.88,13.88,0,0,0,7.8,2.53,48.07,48.07,0,0,0,10-1.9.53.53,0,0,0,.37-.61l-.22-1.1L20.89,32.43Z"/><path id="_Path_2" data-name="&lt;Path&gt;" class="cls-3" d="M20.89,32.43,14.8,35.94l.5,1.6a7.66,7.66,0,0,1,3-.22c2.44.15,3.13,2.51,8.62,3.93a20.65,20.65,0,0,0,8.17.08c1.83-.4,3.4-.83,4.14-1a.53.53,0,0,0,.38-.61l-.15-.77L39,38.47Z"/><path id="_Path_3" data-name="&lt;Path&gt;" class="cls-4" d="M14.8,35.94,17.33,44a.53.53,0,0,0,.61.37l3.4-.66a.55.55,0,0,0,.43-.59l-.41-3.5a13.88,13.88,0,0,0,7.8,2.53,48.07,48.07,0,0,0,10-1.9.53.53,0,0,0,.37-.61l-.22-1.1L20.89,32.43Z"/><path id="_Path_4" data-name="&lt;Path&gt;" class="cls-5" d="M27.36,27.45c2.33,4.76,4.61,6.72,7.67,6.9s3.8,1.52,4.06,2.87l.26,1.35s-7.3,2.43-12.79,1-6.18-3.78-8.62-3.93-3.14.3-3.14.3a15.85,15.85,0,0,1-1.9-5.39c-.69-3.6,1.66-3.51.8-7.93C13,18.75,9.34,9.32,8.44,7a.52.52,0,0,1,.33-.69L21.64,2a.53.53,0,0,1,.7.44c.17,1.71.72,6.6,1.73,12.76C25.33,22.92,26.23,25.13,27.36,27.45Z"/><g id="_Group_2" data-name="&lt;Group&gt;"><path id="_Path_5" data-name="&lt;Path&gt;" class="cls-6" d="M22.61,4.94c-.13-1.1-.22-1.94-.27-2.47a.53.53,0,0,0-.7-.44L8.77,6.31A.52.52,0,0,0,8.44,7c.19.5.51,1.32.9,2.35Z"/><path id="_Path_6" data-name="&lt;Path&gt;" class="cls-6" d="M35,34.35c-3.07-.18-5.35-2.14-7.68-6.9A27.12,27.12,0,0,1,25,20.27c1.09,6.1,1.92,8.11,2.95,10.21,2.33,4.77,4.6,6.73,7.67,6.91A4.54,4.54,0,0,1,39,38.68l.35-.11s0,0-.26-1.35S38.1,34.53,35,34.35Z"/></g><path id="_Path_7" data-name="&lt;Path&gt;" class="cls-4" d="M27.36,27.45c2.33,4.76,4.61,6.72,7.67,6.9s3.8,1.52,4.06,2.87l.26,1.35s-7.3,2.43-12.79,1-6.18-3.78-8.62-3.93-3.14.3-3.14.3a15.85,15.85,0,0,1-1.9-5.39c-.69-3.6,1.66-3.51.8-7.93C13,18.75,9.34,9.32,8.44,7a.52.52,0,0,1,.33-.69L21.64,2a.53.53,0,0,1,.7.44c.17,1.71.72,6.6,1.73,12.76C25.33,22.92,26.23,25.13,27.36,27.45Z"/><path id="_Path_8" data-name="&lt;Path&gt;" class="cls-7" d="M15.62,4l.73,3.78a.53.53,0,0,1-.92.45L12.61,5Z"/></g></svg>