<svg id="Icons" xmlns="http://www.w3.org/2000/svg" viewBox="0 0 48 48"><defs><style>.cls-1{fill:#45413c;opacity:0.15;}.cls-2{fill:#debb7e;}.cls-3{fill:#f0d5a8;}.cls-4{fill:none;stroke:#45413c;stroke-linecap:round;stroke-linejoin:round;}.cls-5{fill:#9ceb60;}.cls-6{fill:#c8ffa1;}</style></defs><title>434-woman’s-hat</title><g id="_Group_" data-name="&lt;Group&gt;"><ellipse id="_Ellipse_" data-name="&lt;Ellipse&gt;" class="cls-1" cx="22.81" cy="42.14" rx="16.99" ry="1.59"/><ellipse id="_Path_" data-name="&lt;Path&gt;" class="cls-2" cx="21.48" cy="24.76" rx="19.98" ry="12.08" transform="translate(-6.84 8.25) rotate(-18.82)"/><path id="_Path_2" data-name="&lt;Path&gt;" class="cls-3" d="M17.58,16.91c10.44-3.55,20.65-1.32,22.8,5a6.15,6.15,0,0,1,.18.71,7.89,7.89,0,0,0-.18-4.29C38.23,12,28,9.77,17.58,13.33,7.52,16.76.94,24.31,2.39,30.5,3.53,25.21,9.4,19.7,17.58,16.91Z"/><ellipse id="_Path_3" data-name="&lt;Path&gt;" class="cls-4" cx="21.48" cy="24.76" rx="19.98" ry="12.08" transform="translate(-6.84 8.25) rotate(-18.82)"/><path id="_Path_4" data-name="&lt;Path&gt;" class="cls-2" d="M31.53,20l-1.77-3.56A10.61,10.61,0,0,0,9.84,23.24l.78,3.9a3.37,3.37,0,0,0,.15.78C11.85,31.08,17.45,32,23.27,30s9.69-6.16,8.61-9.31A3.35,3.35,0,0,0,31.53,20Z"/><path id="_Path_5" data-name="&lt;Path&gt;" class="cls-3" d="M16.83,14.11a10.62,10.62,0,0,1,12.93,5.33L31.53,23a3.11,3.11,0,0,1,.2.41,3.84,3.84,0,0,0,.15-2.68,3.35,3.35,0,0,0-.35-.71l-1.77-3.56a10.6,10.6,0,0,0-20,6.19A10.6,10.6,0,0,1,16.83,14.11Z"/><path id="_Path_6" data-name="&lt;Path&gt;" class="cls-4" d="M31.53,20l-1.77-3.56A10.61,10.61,0,0,0,9.84,23.24l.78,3.9a3.37,3.37,0,0,0,.15.78C11.85,31.08,17.45,32,23.27,30s9.69-6.16,8.61-9.31A3.35,3.35,0,0,0,31.53,20Z"/><path id="_Path_7" data-name="&lt;Path&gt;" class="cls-5" d="M30.4,17.75a14.83,14.83,0,0,1-8.77,7.45,14.87,14.87,0,0,1-11.5-.54l.49,2.48a3.37,3.37,0,0,0,.15.78C11.85,31.08,17.45,32,23.27,30s9.69-6.16,8.61-9.31a3.35,3.35,0,0,0-.35-.71Z"/><path id="_Path_8" data-name="&lt;Path&gt;" class="cls-6" d="M21.63,27.34a14.83,14.83,0,0,0,8.77-7.45l1.13,2.26a3.9,3.9,0,0,1,.35.71.13.13,0,0,1,0,.06,3.63,3.63,0,0,0,0-2.19,3.35,3.35,0,0,0-.35-.71L30.4,17.75a14.83,14.83,0,0,1-8.77,7.45,14.87,14.87,0,0,1-11.5-.54L10.59,27A15,15,0,0,0,21.63,27.34Z"/><path id="_Path_9" data-name="&lt;Path&gt;" class="cls-4" d="M30.4,17.75a14.83,14.83,0,0,1-8.77,7.45,14.87,14.87,0,0,1-11.5-.54l.49,2.48a3.37,3.37,0,0,0,.15.78C11.85,31.08,17.45,32,23.27,30s9.69-6.16,8.61-9.31a3.35,3.35,0,0,0-.35-.71Z"/><path id="_Path_10" data-name="&lt;Path&gt;" class="cls-5" d="M28.1,26.92a19,19,0,0,1,2.56,8.95c.08,5-3.76,9.13-3.76,9.13l-2.23-3.66-4.25,1.94s4.29-4,4.94-8.55a12.19,12.19,0,0,0-1.08-7.49Z"/><path id="_Path_11" data-name="&lt;Path&gt;" class="cls-6" d="M28.1,26.92l-3.82.32a7.4,7.4,0,0,1,.44,1l1.3-.11a19,19,0,0,1,2.56,9,13.38,13.38,0,0,1-2.22,7.08l.54.89s3.84-4.09,3.76-9.13A19,19,0,0,0,28.1,26.92Z"/><path id="_Path_12" data-name="&lt;Path&gt;" class="cls-4" d="M28.1,26.92a19,19,0,0,1,2.56,8.95c.08,5-3.76,9.13-3.76,9.13l-2.23-3.66-4.25,1.94s4.29-4,4.94-8.55a12.19,12.19,0,0,0-1.08-7.49Z"/><path id="_Path_13" data-name="&lt;Path&gt;" class="cls-5" d="M31.05,21.65s4.09-.58,9.74,4.4,5.71,8.49,5.71,8.49l-4.07-1.33-3.56,4.88a13.77,13.77,0,0,0-2.2-9c-3-4.72-5.6-4.75-5.6-4.75Z"/><path id="_Path_14" data-name="&lt;Path&gt;" class="cls-6" d="M39.67,27.67a19.56,19.56,0,0,1,5,6.29l1.78.58s0-3.5-5.7-8.49-9.75-4.4-9.75-4.4v1.63C32.65,23.45,35.79,24.25,39.67,27.67Z"/><path id="_Path_15" data-name="&lt;Path&gt;" class="cls-4" d="M31.05,21.65s4.09-.58,9.74,4.4,5.71,8.49,5.71,8.49l-4.07-1.33-3.56,4.88a13.77,13.77,0,0,0-2.2-9c-3-4.72-5.6-4.75-5.6-4.75Z"/><path id="_Path_16" data-name="&lt;Path&gt;" class="cls-5" d="M32.14,17.17c-.12-1.4-.58-3.32-2.22-3.63-2.62-.5-1.14,5.3-1.14,5.3S28.52,24,31.6,22.79s3.58-2.33,3.06-4A2.47,2.47,0,0,0,32.14,17.17Z"/><path id="_Path_17" data-name="&lt;Path&gt;" class="cls-6" d="M29.92,15.34c1.64.31,2.1,2.24,2.22,3.64a2.45,2.45,0,0,1,2.52,1.62v0a2.53,2.53,0,0,0,0-1.82,2.47,2.47,0,0,0-2.52-1.63c-.12-1.4-.58-3.32-2.22-3.63s-1.66,1.6-1.5,3.2C28.55,15.83,29,15.16,29.92,15.34Z"/><path id="_Path_18" data-name="&lt;Path&gt;" class="cls-4" d="M32.14,17.17c-.12-1.4-.58-3.32-2.22-3.63-2.62-.5-1.14,5.3-1.14,5.3S28.52,24,31.6,22.79s3.58-2.33,3.06-4A2.47,2.47,0,0,0,32.14,17.17Z"/><path id="_Path_19" data-name="&lt;Path&gt;" class="cls-4" d="M29.92,13.54c2.62.5,2.24,5.13,2.24,5.13"/><path id="_Path_20" data-name="&lt;Path&gt;" class="cls-5" d="M25.43,23.41S22.26,20.66,19.55,22a3.06,3.06,0,0,0,0,5.36c-.58,2,.67,4.74,4.19,4a4.67,4.67,0,0,0,3.94-4.29Z"/><path id="_Path_21" data-name="&lt;Path&gt;" class="cls-6" d="M19.88,24.44c2.59-1.18,5.31-.06,6.54.59l-1-1.62S22.26,20.66,19.55,22a3.07,3.07,0,0,0-1.34,3.89A3.88,3.88,0,0,1,19.88,24.44Z"/><path id="_Path_22" data-name="&lt;Path&gt;" class="cls-4" d="M25.43,23.41S22.26,20.66,19.55,22a3.06,3.06,0,0,0,0,5.36c-.58,2,.67,4.74,4.19,4a4.67,4.67,0,0,0,3.94-4.29Z"/><path id="_Path_23" data-name="&lt;Path&gt;" class="cls-4" d="M21.94,27.55A3,3,0,0,1,19.55,22c2.71-1.32,5.88,1.43,5.88,1.43l2.23,3.66a4.67,4.67,0,0,1-3.94,4.29"/><path id="_Path_24" data-name="&lt;Path&gt;" class="cls-5" d="M27.17,19.88c1-1.27.95-2,1.31-1.92,1.39.22,3.2,3.86,3.27,5.27,0,.89-1.71,4.46-3.79,4.72-1.27.16-3.68-4.31-3.42-5.7C24.66,21.62,25.62,21.8,27.17,19.88Z"/><path id="_Path_25" data-name="&lt;Path&gt;" class="cls-6" d="M28.61,21.93a18.16,18.16,0,0,0,1.81-2.08c-.6-1-1.31-1.79-1.94-1.89-.36-.06-.28.66-1.31,1.92-1.55,1.92-2.51,1.75-2.63,2.37a4.46,4.46,0,0,0,.48,2.1A14.82,14.82,0,0,0,28.61,21.93Z"/><path id="_Path_26" data-name="&lt;Path&gt;" class="cls-4" d="M27.17,19.88c1-1.26.95-2,1.31-1.92,1.39.23,3.2,3.86,3.27,5.27,0,.9-1.71,4.47-3.79,4.73-1.27.15-3.68-4.31-3.42-5.71C24.66,21.63,25.62,21.8,27.17,19.88Z"/></g></svg>