<svg id="Icons" xmlns="http://www.w3.org/2000/svg" viewBox="0 0 48 48"><defs><style>.cls-1,.cls-3{fill:#ffe500;}.cls-1,.cls-5,.cls-6,.cls-7,.cls-8{stroke:#45413c;stroke-linecap:round;stroke-linejoin:round;}.cls-2{fill:#45413c;opacity:0.15;}.cls-4{fill:#fff48c;}.cls-5{fill:none;}.cls-6{fill:#00b8f0;}.cls-7{fill:#b8ecff;}.cls-8{fill:#fff;}</style></defs><title>437-ring-1</title><path class="cls-1" d="M29.78,10.45a1.25,1.25,0,0,0-.93-.4h-9.7a1.25,1.25,0,0,0-.93.4,1.27,1.27,0,0,0,0,1.73L21.57,16h4.86l3.38-3.82A1.27,1.27,0,0,0,29.78,10.45Z"/><ellipse id="_Ellipse_" data-name="&lt;Ellipse&gt;" class="cls-2" cx="24" cy="43.5" rx="11.5" ry="1.5"/><path id="_Compound_Path_" data-name="&lt;Compound Path&gt;" class="cls-3" d="M24,14.5A14.5,14.5,0,1,0,38.5,29,14.5,14.5,0,0,0,24,14.5Zm0,25A10.5,10.5,0,1,1,34.5,29,10.5,10.5,0,0,1,24,39.5Z"/><path id="_Path_" data-name="&lt;Path&gt;" class="cls-4" d="M24,17A14.5,14.5,0,0,1,38.44,30.25c0-.41.06-.83.06-1.25a14.5,14.5,0,0,0-29,0c0,.42,0,.84.06,1.25A14.5,14.5,0,0,1,24,17Z"/><path id="_Path_2" data-name="&lt;Path&gt;" class="cls-4" d="M24,42A10.5,10.5,0,0,0,34.5,31.5a10.36,10.36,0,0,0-.08-1.25,10.49,10.49,0,0,1-20.84,0,10.36,10.36,0,0,0-.08,1.25A10.5,10.5,0,0,0,24,42Z"/><path id="_Compound_Path_2" data-name="&lt;Compound Path&gt;" class="cls-5" d="M24,14.5A14.5,14.5,0,1,0,38.5,29,14.5,14.5,0,0,0,24,14.5Zm0,25A10.5,10.5,0,1,1,34.5,29,10.5,10.5,0,0,1,24,39.5Z"/><path class="cls-6" d="M29.52,6.4,28.29,4.46A1,1,0,0,0,27.45,4h-6.9a1,1,0,0,0-.84.46L18.48,6.4a1,1,0,0,0,.06,1.16l4.72,6a.91.91,0,0,0,1.48,0l4.72-5.95A1,1,0,0,0,29.52,6.4Z"/><path id="_Path_3" data-name="&lt;Path&gt;" class="cls-1" d="M23.19,10.14l-1.45,2a1,1,0,0,0-.17.75l.79,4.75a1,1,0,0,0,1,.84h1.3a1,1,0,0,0,1-.84l.79-4.75a1,1,0,0,0-.17-.75l-1.45-2A1,1,0,0,0,23.19,10.14Z"/><path id="_Path_4" data-name="&lt;Path&gt;" class="cls-7" d="M24,7H18.32a1,1,0,0,1,.16-.6l1.23-1.94a.92.92,0,0,1,.42-.36Z"/><path id="_Path_5" data-name="&lt;Path&gt;" class="cls-7" d="M24,7h5.68a1,1,0,0,0-.16-.6L28.29,4.46a.92.92,0,0,0-.42-.36Z"/><line id="_Path_6" data-name="&lt;Path&gt;" class="cls-5" x1="24" y1="7" x2="24" y2="9.72"/><path id="_Path_7" data-name="&lt;Path&gt;" class="cls-8" d="M8.39,12.16a2.38,2.38,0,0,1,1.8-1.8l3.61-.84a.3.3,0,0,0,0-.58l-3.61-.83a2.41,2.41,0,0,1-1.8-1.8L7.56,2.7a.3.3,0,0,0-.3-.23A.29.29,0,0,0,7,2.7L6.14,6.31a2.41,2.41,0,0,1-1.8,1.8L.73,8.94a.3.3,0,0,0,0,.58l3.61.84a2.38,2.38,0,0,1,1.8,1.8L7,15.77a.3.3,0,0,0,.29.23.31.31,0,0,0,.3-.23Z"/><path id="_Path_8" data-name="&lt;Path&gt;" class="cls-8" d="M43.32,41.62a1.8,1.8,0,0,1,1.33-1.34l2.68-.61a.23.23,0,0,0,0-.44l-2.68-.61a1.78,1.78,0,0,1-1.33-1.34l-.62-2.67a.22.22,0,0,0-.22-.17.21.21,0,0,0-.21.17l-.62,2.67a1.78,1.78,0,0,1-1.33,1.34l-2.68.61a.23.23,0,0,0,0,.44l2.68.61a1.8,1.8,0,0,1,1.33,1.34l.62,2.67a.21.21,0,0,0,.21.18.22.22,0,0,0,.22-.18Z"/></svg>