<svg id="Icons" xmlns="http://www.w3.org/2000/svg" viewBox="0 0 48 48"><defs><style>.cls-1{fill:#debb7e;}.cls-2{fill:#f0d5a8;}.cls-3{fill:none;}.cls-11,.cls-3,.cls-7{stroke:#45413c;stroke-linecap:round;stroke-linejoin:round;}.cls-4{fill:#f0f0f0;}.cls-5{fill:#fff;}.cls-6,.cls-7{fill:#45413c;}.cls-6{opacity:0.15;}.cls-8{fill:#ff6196;}.cls-9{fill:#656769;}.cls-10,.cls-11{fill:#87898c;}.cls-12{fill:#ff866e;}.cls-13{fill:#ff6242;}</style></defs><title>441-dog-face</title><path id="_Path_" data-name="&lt;Path&gt;" class="cls-1" d="M20.48,7.27S15,4.55,10.76,9,7.9,16.94,5,18.7s-4.19,7.48-.57,9.15a6.87,6.87,0,0,0,6.29,0Z"/><path id="_Path_2" data-name="&lt;Path&gt;" class="cls-2" d="M5,22c2.86-1.76,1.53-5.29,5.72-9.72a8.19,8.19,0,0,1,8.4-2.18l1.32-2.79S15,4.55,10.76,9,7.9,16.94,5,18.7a6.55,6.55,0,0,0-2.52,6.94A6.36,6.36,0,0,1,5,22Z"/><path id="_Path_3" data-name="&lt;Path&gt;" class="cls-3" d="M20.48,7.27S15,4.55,10.76,9,7.9,16.94,5,18.7s-4.19,7.48-.57,9.15a6.87,6.87,0,0,0,6.29,0Z"/><path id="_Path_4" data-name="&lt;Path&gt;" class="cls-1" d="M27.52,7.27S33.05,4.55,37.24,9s2.86,8,5.72,9.72,4.19,7.48.57,9.15a6.87,6.87,0,0,1-6.29,0Z"/><path id="_Path_5" data-name="&lt;Path&gt;" class="cls-2" d="M43,22c-2.86-1.76-1.53-5.29-5.72-9.72a8.19,8.19,0,0,0-8.4-2.18L27.52,7.27S33.05,4.55,37.24,9s2.86,8,5.72,9.72a6.55,6.55,0,0,1,2.52,6.94A6.31,6.31,0,0,0,43,22Z"/><path id="_Path_6" data-name="&lt;Path&gt;" class="cls-3" d="M27.52,7.27S33.05,4.55,37.24,9s2.86,8,5.72,9.72,4.19,7.48.57,9.15a6.87,6.87,0,0,1-6.29,0Z"/><path id="_Path_7" data-name="&lt;Path&gt;" class="cls-4" d="M37,18.68c0-6.18-5.93-12-12.46-12H23.43C16.9,6.7,11,12.5,11,18.68v1.17c-2.17,1.74-3,4.7-3,7.62,0,5.26,3.94,9,9.5,9h1.94a7,7,0,0,0,9.14,0h1.94c5.56,0,9.5-3.7,9.5-9,0-2.92-.81-5.88-3-7.62Z"/><path id="_Path_8" data-name="&lt;Path&gt;" class="cls-5" d="M37,19.85V18.68c0-6.18-5.93-12-12.46-12H23.43C16.9,6.7,11,12.5,11,18.68v1.17l.83-2.06A13.07,13.07,0,0,1,23.43,9.84h1.14a13.06,13.06,0,0,1,11.87,8.58Z"/><ellipse id="_Ellipse_" data-name="&lt;Ellipse&gt;" class="cls-6" cx="24" cy="44.28" rx="13.15" ry="1.72"/><circle id="_Path_9" data-name="&lt;Path&gt;" class="cls-7" cx="17.14" cy="22.7" r="1.72"/><path id="_Path_10" data-name="&lt;Path&gt;" class="cls-8" d="M37.72,29.36c0,.55-.93,1-2.08,1s-2.08-.45-2.08-1,.93-1,2.08-1S37.72,28.81,37.72,29.36Z"/><path id="_Path_11" data-name="&lt;Path&gt;" class="cls-8" d="M14.44,29.36c0,.55-.93,1-2.08,1s-2.08-.45-2.08-1,.93-1,2.08-1S14.44,28.81,14.44,29.36Z"/><path id="_Path_12" data-name="&lt;Path&gt;" class="cls-1" d="M39,22.43a7.14,7.14,0,0,0-2-2.58V18.68a12.29,12.29,0,0,0-5.69-9.85c-2,1.73-5.62,5.64-5.62,11,0,7.36,6.13,8.1,9.71,6.29A7.21,7.21,0,0,0,39,22.43Z"/><path id="_Path_13" data-name="&lt;Path&gt;" class="cls-2" d="M37,19.85l-.59-1.43a13.35,13.35,0,0,0-7.1-7.55,17,17,0,0,1,2-2,.05.05,0,0,0,0,0A13.56,13.56,0,0,1,35,12.52,11.43,11.43,0,0,1,37,19.85Z"/><path id="_Path_14" data-name="&lt;Path&gt;" class="cls-3" d="M37,18.68c0-6.18-5.93-12-12.46-12H23.43C16.9,6.7,11,12.5,11,18.68v1.17c-2.17,1.74-3,4.7-3,7.62,0,5.26,3.94,9,9.5,9h1.94a7,7,0,0,0,9.14,0h1.94c5.56,0,9.5-3.7,9.5-9,0-2.92-.81-5.88-3-7.62Z"/><path id="_Path_15" data-name="&lt;Path&gt;" class="cls-3" d="M39,22.43a7.14,7.14,0,0,0-2-2.58V18.68a12.29,12.29,0,0,0-5.69-9.85c-2,1.73-5.62,5.64-5.62,11,0,7.36,6.13,8.1,9.71,6.29A7.21,7.21,0,0,0,39,22.43Z"/><circle id="_Path_16" data-name="&lt;Path&gt;" class="cls-7" cx="30.86" cy="22.7" r="1.72"/><path id="_Path_17" data-name="&lt;Path&gt;" class="cls-9" d="M27.43,29A3.74,3.74,0,0,1,24,31.85,3.74,3.74,0,0,1,20.57,29c0-.94,1.54-1.71,3.43-1.71S27.43,28.05,27.43,29Z"/><path id="_Path_18" data-name="&lt;Path&gt;" class="cls-10" d="M24,28.88a4.36,4.36,0,0,1,3.12,1,1.93,1.93,0,0,0,.31-.91c0-.94-1.54-1.71-3.43-1.71s-3.43.77-3.43,1.71a1.93,1.93,0,0,0,.31.91A4.36,4.36,0,0,1,24,28.88Z"/><path id="_Path_19" data-name="&lt;Path&gt;" class="cls-3" d="M27.43,29A3.74,3.74,0,0,1,24,31.85,3.74,3.74,0,0,1,20.57,29c0-.94,1.54-1.71,3.43-1.71S27.43,28.05,27.43,29Z"/><path id="_Path_20" data-name="&lt;Path&gt;" class="cls-11" d="M19.43,36.43V34.14c2.21,0,4.57-2.29,4.57-2.29s2.39,2.29,4.57,2.29v2.29s-.52,2.28-4.57,2.28S19.43,36.43,19.43,36.43Z"/><path class="cls-12" d="M26.28,35.31c-1.74,0-2.22.88-2.28,1-.06-.14-.54-1-2.28-1s-2,2.14-.57,4.16a3.42,3.42,0,0,0,5.7,0C28.26,37.45,28.16,35.31,26.28,35.31Z"/><path class="cls-13" d="M21.72,36.53c1.74,0,2.22.89,2.28,1,.06-.13.54-1,2.28-1a1.38,1.38,0,0,1,1.46,1c.26-1.25-.19-2.22-1.46-2.22-1.74,0-2.22.88-2.28,1-.06-.14-.54-1-2.28-1-1.27,0-1.72,1-1.46,2.22A1.38,1.38,0,0,1,21.72,36.53Z"/><path class="cls-3" d="M26.28,35.31c-1.74,0-2.22.88-2.28,1-.06-.14-.54-1-2.28-1s-2,2.14-.57,4.16a3.42,3.42,0,0,0,5.7,0C28.26,37.45,28.16,35.31,26.28,35.31Z"/><line id="_Path_21" data-name="&lt;Path&gt;" class="cls-3" x1="24" y1="36.35" x2="24" y2="38.14"/><path id="_Path_22" data-name="&lt;Path&gt;" class="cls-11" d="M19.43,34.14a2.73,2.73,0,0,1-1.72-.57"/><path id="_Path_23" data-name="&lt;Path&gt;" class="cls-11" d="M28.57,34.14a2.73,2.73,0,0,0,1.72-.57"/></svg>