<svg id="Icons" xmlns="http://www.w3.org/2000/svg" viewBox="0 0 48 48"><defs><style>.cls-1{fill:none;stroke:#45413c;stroke-linecap:round;stroke-linejoin:round;}.cls-2{fill:#fff;}.cls-3{fill:#f0f0f0;}.cls-4{fill:#45413c;opacity:0.15;}.cls-5{fill:#ffe8e0;}.cls-6{fill:#ffcebf;}</style></defs><title>443-poodle</title><g id="_Group_" data-name="&lt;Group&gt;"><path id="_Path_" data-name="&lt;Path&gt;" class="cls-1" d="M33.28,22.17s3.95-1,5.46-6.55"/><circle id="_Path_2" data-name="&lt;Path&gt;" class="cls-2" cx="38.74" cy="12.35" r="6"/><path id="_Path_3" data-name="&lt;Path&gt;" class="cls-3" d="M38.74,16a6,6,0,0,1-5.89-4.82,5.69,5.69,0,0,0-.12,1.18,6,6,0,0,0,12,0,5.69,5.69,0,0,0-.12-1.18A6,6,0,0,1,38.74,16Z"/><circle id="_Path_4" data-name="&lt;Path&gt;" class="cls-1" cx="38.74" cy="12.35" r="6"/><ellipse id="_Ellipse_" data-name="&lt;Ellipse&gt;" class="cls-4" cx="24" cy="44.36" rx="15.28" ry="1.64"/><path id="_Path_5" data-name="&lt;Path&gt;" class="cls-5" d="M15.51,13A3.29,3.29,0,0,0,11.8,10a20.37,20.37,0,0,0-3.63.69c-1.36.55-3.82,2-5.45,2.39-1.06.23-.75,1.76-.4,2.82a1.15,1.15,0,0,0,1.36.76c1.93-.44,6.18.15,7.22,1.12,1.37,1.28,2.73,4.64,2.73,9.28V43.45a.55.55,0,0,0,.55.55h2.18a.55.55,0,0,0,.55-.55V33.89a2.26,2.26,0,0,1,2.84-2.15c3,.68,7.51-.83,9.16-1.38,1-.34.38,2,1.64,4.36,1.36,2.59,3.27,3,3.27,4.91v3.82a.55.55,0,0,0,.55.55h2.18a.55.55,0,0,0,.55-.55v-6c0-1.36-1.09-2.59-1.09-6s.36-8.37-2.73-9.83C31,20.55,23.59,21.49,19.63,20,17,19,15.91,17,15.51,13Z"/><g id="_Group_2" data-name="&lt;Group&gt;"><path id="_Path_6" data-name="&lt;Path&gt;" class="cls-6" d="M16.36,42.15H14.18a.55.55,0,0,1-.55-.54v1.84a.55.55,0,0,0,.55.55h2.18a.55.55,0,0,0,.55-.55V41.61A.55.55,0,0,1,16.36,42.15Z"/><path id="_Path_7" data-name="&lt;Path&gt;" class="cls-6" d="M13.63,25.23c0-4.63-1.36-8-2.73-9.27-1-1-5.29-1.57-7.22-1.12a1.17,1.17,0,0,1-1.36-.77c-.06-.18-.11-.37-.17-.57a3.51,3.51,0,0,0,.17,2.42,1.15,1.15,0,0,0,1.36.76c1.93-.44,6.18.15,7.22,1.12,1.37,1.28,2.73,4.64,2.73,9.28Z"/><path id="_Path_8" data-name="&lt;Path&gt;" class="cls-6" d="M36,28.6v1c0,.1,0,.18,0,.27C36,29.45,36,29,36,28.6Z"/><path id="_Path_9" data-name="&lt;Path&gt;" class="cls-6" d="M36.55,42.15H34.37a.55.55,0,0,1-.55-.54v1.84a.55.55,0,0,0,.55.55h2.18a.55.55,0,0,0,.55-.55V41.61A.55.55,0,0,1,36.55,42.15Z"/><path id="_Path_10" data-name="&lt;Path&gt;" class="cls-6" d="M33.82,37.79c0-1.91-1.91-2.32-3.27-4.91-1.26-2.4-.61-4.71-1.64-4.37-1.65.55-6.15,2.06-9.16,1.38A2.26,2.26,0,0,0,16.91,32v1.85a2.26,2.26,0,0,1,2.84-2.15c3,.68,7.51-.83,9.16-1.38,1-.34.38,2,1.64,4.36,1.36,2.59,3.27,3,3.27,4.91Z"/></g><path id="_Path_11" data-name="&lt;Path&gt;" class="cls-1" d="M15.51,13A3.29,3.29,0,0,0,11.8,10a20.37,20.37,0,0,0-3.63.69c-1.36.55-3.82,2-5.45,2.39-1.06.23-.75,1.76-.4,2.82a1.15,1.15,0,0,0,1.36.76c1.93-.44,6.18.15,7.22,1.12,1.37,1.28,2.73,4.64,2.73,9.28V43.45a.55.55,0,0,0,.55.55h2.18a.55.55,0,0,0,.55-.55V33.89a2.26,2.26,0,0,1,2.84-2.15c3,.68,7.51-.83,9.16-1.38,1-.34.38,2,1.64,4.36,1.36,2.59,3.27,3,3.27,4.91v3.82a.55.55,0,0,0,.55.55h2.18a.55.55,0,0,0,.55-.55v-6c0-1.36-1.09-2.59-1.09-6s.36-8.37-2.73-9.83C31,20.55,23.59,21.49,19.63,20,17,19,15.91,17,15.51,13Z"/><g id="_Group_3" data-name="&lt;Group&gt;"><path id="_Path_12" data-name="&lt;Path&gt;" class="cls-2" d="M21.59,15.14c0-.45.09-.89.16-1.33a6.86,6.86,0,0,0,.07-.92,5.81,5.81,0,0,0-.16-1.32A17.77,17.77,0,0,0,21.59,15.14Z"/><path id="_Path_13" data-name="&lt;Path&gt;" class="cls-2" d="M11.28,13.89A6,6,0,0,1,10,11.4a5.7,5.7,0,0,0-.2,1.49,6.08,6.08,0,0,0,.83,3,8,8,0,0,1,.61-.67A1,1,0,0,0,11.28,13.89Z"/><path id="_Path_14" data-name="&lt;Path&gt;" class="cls-2" d="M9.81,10a5.92,5.92,0,0,1,.53-2.45A6.3,6.3,0,0,1,7.21,6a2.1,2.1,0,0,0-.67,1.46c0,1.25,1.34,2.33,3.3,2.88C9.84,10.19,9.81,10.08,9.81,10Z"/><path id="_Path_15" data-name="&lt;Path&gt;" class="cls-2" d="M15.15,33.4a8.32,8.32,0,0,1-7.4-7.22c0,.37-.08.74-.1,1.12a8.45,8.45,0,0,0,7.5,9A8.19,8.19,0,0,0,24,28.17a10.4,10.4,0,0,0-.13-1.52A8.18,8.18,0,0,1,15.15,33.4Z"/></g><path id="_Path_16" data-name="&lt;Path&gt;" class="cls-2" d="M22.71,22.65a16.15,16.15,0,0,1-1-8.84,6,6,0,0,0-2.71-6c.47-2-2.57-3.67-6.23-3.67-3.46,0-6.27,1.47-6.27,3.27,0,1.35,1.56,2.51,3.8,3a6,6,0,0,0,.94,6.38,1,1,0,0,1,0,1.38,13.73,13.73,0,0,0-3.6,9.1,8.45,8.45,0,0,0,7.5,9A8.19,8.19,0,0,0,24,28.17,14.66,14.66,0,0,0,22.71,22.65Z"/><g id="_Group_4" data-name="&lt;Group&gt;"><path id="_Path_17" data-name="&lt;Path&gt;" class="cls-3" d="M11.28,13.89A6,6,0,0,1,10,11.4a5.7,5.7,0,0,0-.2,1.49,6.08,6.08,0,0,0,.83,3,8,8,0,0,1,.61-.67A1,1,0,0,0,11.28,13.89Z"/><path id="_Path_18" data-name="&lt;Path&gt;" class="cls-3" d="M9.81,10a5.92,5.92,0,0,1,.53-2.45A6.3,6.3,0,0,1,7.21,6a2.1,2.1,0,0,0-.67,1.46c0,1.25,1.34,2.33,3.3,2.88C9.84,10.19,9.81,10.08,9.81,10Z"/><path id="_Path_19" data-name="&lt;Path&gt;" class="cls-3" d="M15.15,33.4a8.32,8.32,0,0,1-7.4-7.22c0,.37-.08.74-.1,1.12a8.45,8.45,0,0,0,7.5,9A8.19,8.19,0,0,0,24,28.17a10.4,10.4,0,0,0-.13-1.52A8.18,8.18,0,0,1,15.15,33.4Z"/></g><path id="_Path_20" data-name="&lt;Path&gt;" class="cls-1" d="M22.71,22.65a16.15,16.15,0,0,1-1-8.84,6,6,0,0,0-2.71-6c.47-2-2.57-3.67-6.23-3.67-3.46,0-6.27,1.47-6.27,3.27,0,1.35,1.56,2.51,3.8,3a6,6,0,0,0,.94,6.38,1,1,0,0,1,0,1.38,13.73,13.73,0,0,0-3.6,9.1,8.45,8.45,0,0,0,7.5,9A8.19,8.19,0,0,0,24,28.17,14.66,14.66,0,0,0,22.71,22.65Z"/><circle id="_Path_21" data-name="&lt;Path&gt;" class="cls-2" cx="35.46" cy="39.09" r="2.73"/><circle id="_Path_22" data-name="&lt;Path&gt;" class="cls-2" cx="15.27" cy="39.09" r="2.73"/><path id="_Path_23" data-name="&lt;Path&gt;" class="cls-3" d="M35.46,40.11a2.72,2.72,0,0,1-2.58-1.87,2.66,2.66,0,0,0-.15.85,2.73,2.73,0,1,0,5.46,0,2.66,2.66,0,0,0-.15-.85A2.72,2.72,0,0,1,35.46,40.11Z"/><path id="_Path_24" data-name="&lt;Path&gt;" class="cls-3" d="M15.27,40.11a2.72,2.72,0,0,1-2.58-1.87,2.66,2.66,0,0,0-.15.85,2.73,2.73,0,0,0,5.46,0,2.66,2.66,0,0,0-.15-.85A2.72,2.72,0,0,1,15.27,40.11Z"/><circle id="_Path_25" data-name="&lt;Path&gt;" class="cls-1" cx="35.46" cy="39.09" r="2.73"/><circle id="_Path_26" data-name="&lt;Path&gt;" class="cls-1" cx="15.27" cy="39.09" r="2.73"/><path id="_Path_27" data-name="&lt;Path&gt;" class="cls-2" d="M19.09,21.08c0,4.82-2,6.55-4.37,6.55s-4.36-1.73-4.36-6.55,2-10.92,4.36-10.92S19.09,16.26,19.09,21.08Z"/><path id="_Path_28" data-name="&lt;Path&gt;" class="cls-3" d="M14.72,25.1c-2.19,0-4-1.44-4.31-5.34,0,.45-.05.89-.05,1.32,0,4.82,2,6.55,4.36,6.55s4.37-1.73,4.37-6.55c0-.43,0-.87-.05-1.32C18.73,23.66,16.92,25.1,14.72,25.1Z"/><path id="_Path_29" data-name="&lt;Path&gt;" class="cls-1" d="M19.09,21.08c0,4.82-2,6.55-4.37,6.55s-4.36-1.73-4.36-6.55,2-10.92,4.36-10.92S19.09,16.26,19.09,21.08Z"/></g></svg>