<svg id="Icons" xmlns="http://www.w3.org/2000/svg" viewBox="0 0 48 48"><defs><style>.cls-1{fill:#bf8256;}.cls-2{fill:#dea47a;}.cls-3{fill:none;}.cls-10,.cls-11,.cls-3,.cls-6{stroke:#45413c;stroke-linecap:round;stroke-linejoin:round;}.cls-4{fill:#f0d5a8;}.cls-5{fill:#f7e5c6;}.cls-6,.cls-9{fill:#fffce5;}.cls-11,.cls-7{fill:#45413c;}.cls-7{opacity:0.15;}.cls-8{fill:#fff;}.cls-10{fill:#ffa694;}.cls-12{fill:#ffaa54;}</style></defs><title>449-lion-face</title><g id="_Group_" data-name="&lt;Group&gt;"><path id="_Path_" data-name="&lt;Path&gt;" class="cls-1" d="M24.22,41.45l3.43-1.72a.6.6,0,0,1,.58,0l1.29.88a.58.58,0,0,0,.46.09,10.5,10.5,0,0,0,4.13-2.2,12,12,0,0,0,2.71-3.94.58.58,0,0,1,.8-.26l.8.46a.57.57,0,0,0,.73-.14,14.47,14.47,0,0,0,2.68-7.08,19.13,19.13,0,0,0-1.28-9.85l1.6.34a.57.57,0,0,0,.69-.56A14.33,14.33,0,0,0,40.48,10a14.34,14.34,0,0,0-4.8-4.74.57.57,0,0,1-.12-.9l.3-.29a.57.57,0,0,0-.15-.92,12.34,12.34,0,0,0-6-1.2,10.43,10.43,0,0,0-5.43,2,.56.56,0,0,1-.67,0,10.43,10.43,0,0,0-5.43-2,12.34,12.34,0,0,0-6,1.2.57.57,0,0,0-.15.92l.29.29a.57.57,0,0,1-.11.9A14.25,14.25,0,0,0,7.45,10a14.15,14.15,0,0,0-2.36,7.53.57.57,0,0,0,.68.56l1.61-.34A19.13,19.13,0,0,0,6.1,27.58a14.37,14.37,0,0,0,2.68,7.08.56.56,0,0,0,.72.14l.81-.46a.58.58,0,0,1,.8.26,11.89,11.89,0,0,0,2.71,3.94A10.5,10.5,0,0,0,18,40.74a.58.58,0,0,0,.46-.09l1.29-.88a.6.6,0,0,1,.58,0l3.43,1.72A.57.57,0,0,0,24.22,41.45Z"/><g id="_Group_2" data-name="&lt;Group&gt;"><path id="_Path_2" data-name="&lt;Path&gt;" class="cls-2" d="M5.5,18.06a14,14,0,0,1,2-4.45,14.29,14.29,0,0,1,4.8-4.73.57.57,0,0,0,.11-.9l-.29-.29a.57.57,0,0,1,.15-.92,12.22,12.22,0,0,1,6-1.2,10.53,10.53,0,0,1,5.43,2,.53.53,0,0,0,.67,0,10.53,10.53,0,0,1,5.43-2,12.22,12.22,0,0,1,6,1.2.57.57,0,0,1,.15.92l-.3.29a.57.57,0,0,0,.12.9,14.38,14.38,0,0,1,4.8,4.73,14,14,0,0,1,2,4.45.58.58,0,0,0,.41-.55A14.33,14.33,0,0,0,40.48,10a14.34,14.34,0,0,0-4.8-4.74.57.57,0,0,1-.12-.9l.3-.29a.57.57,0,0,0-.15-.92,12.34,12.34,0,0,0-6-1.2,10.43,10.43,0,0,0-5.43,2,.56.56,0,0,1-.67,0,10.43,10.43,0,0,0-5.43-2,12.34,12.34,0,0,0-6,1.2.57.57,0,0,0-.15.92l.29.29a.57.57,0,0,1-.11.9A14.25,14.25,0,0,0,7.45,10a14.15,14.15,0,0,0-2.36,7.53A.56.56,0,0,0,5.5,18.06Z"/></g><path id="_Path_3" data-name="&lt;Path&gt;" class="cls-3" d="M24.22,41.45l3.43-1.72a.6.6,0,0,1,.58,0l1.29.88a.58.58,0,0,0,.46.09,10.5,10.5,0,0,0,4.13-2.2,12.15,12.15,0,0,0,2.71-3.94.58.58,0,0,1,.8-.26l.8.46a.58.58,0,0,0,.73-.14,14.52,14.52,0,0,0,2.68-7.08,19.13,19.13,0,0,0-1.28-9.85l1.6.34a.57.57,0,0,0,.69-.56A14.33,14.33,0,0,0,40.48,10a14.34,14.34,0,0,0-4.8-4.74.57.57,0,0,1-.12-.9l.3-.29a.57.57,0,0,0-.15-.92,12.34,12.34,0,0,0-6-1.2,10.43,10.43,0,0,0-5.43,2,.56.56,0,0,1-.67,0,10.43,10.43,0,0,0-5.43-2,12.34,12.34,0,0,0-6,1.2.57.57,0,0,0-.15.92l.29.29a.57.57,0,0,1-.11.9A14.25,14.25,0,0,0,7.45,10a14.15,14.15,0,0,0-2.36,7.53.57.57,0,0,0,.68.56l1.61-.34A19.13,19.13,0,0,0,6.1,27.58a14.42,14.42,0,0,0,2.68,7.08.57.57,0,0,0,.72.14l.81-.46a.58.58,0,0,1,.8.26,12,12,0,0,0,2.71,3.94A10.5,10.5,0,0,0,18,40.74a.58.58,0,0,0,.46-.09l1.29-.88a.6.6,0,0,1,.58,0l3.43,1.72A.57.57,0,0,0,24.22,41.45Z"/><path id="_Path_4" data-name="&lt;Path&gt;" class="cls-4" d="M37.5,25.54l-.64-6.92a12.91,12.91,0,0,0-2.18-6.07,4.1,4.1,0,0,0,.66-2.21,4,4,0,0,0-7-2.71A13,13,0,0,0,24,6.87a12.8,12.8,0,0,0-4.55.83,4,4,0,0,0-6.27,5,12.88,12.88,0,0,0-2.07,5.91l-.64,6.92A7.72,7.72,0,0,0,18.11,34h1c.75,1.06,2.64,1.53,4.86,1.53S28.08,35,28.82,34h1A7.72,7.72,0,0,0,37.5,25.54Z"/><g id="_Group_3" data-name="&lt;Group&gt;"><path id="_Path_5" data-name="&lt;Path&gt;" class="cls-5" d="M16.38,8.84a4,4,0,0,1,3,1.38A13,13,0,0,1,24,9.4a12.72,12.72,0,0,1,4.38.76,4,4,0,0,1,6.8,1.44,4,4,0,0,0-6.8-4A13,13,0,0,0,24,6.87a12.8,12.8,0,0,0-4.55.83,4,4,0,0,0-7,2.64,4.05,4.05,0,0,0,.2,1.26A4,4,0,0,1,16.38,8.84Z"/></g><path id="_Path_6" data-name="&lt;Path&gt;" class="cls-3" d="M37.5,25.54l-.64-6.92a12.91,12.91,0,0,0-2.18-6.07,4.1,4.1,0,0,0,.66-2.21,4,4,0,0,0-7-2.71A13,13,0,0,0,24,6.87a12.8,12.8,0,0,0-4.55.83,4,4,0,0,0-6.27,5,12.88,12.88,0,0,0-2.07,5.91l-.64,6.92A7.72,7.72,0,0,0,18.11,34h1c.75,1.06,2.64,1.53,4.86,1.53S28.08,35,28.82,34h1A7.72,7.72,0,0,0,37.5,25.54Z"/><ellipse id="_Path_7" data-name="&lt;Path&gt;" class="cls-6" cx="23.96" cy="32.45" rx="5.77" ry="3.91"/><ellipse id="_Ellipse_" data-name="&lt;Ellipse&gt;" class="cls-7" cx="24" cy="45.29" rx="16.51" ry="1.71"/><path id="_Path_8" data-name="&lt;Path&gt;" class="cls-8" d="M34.21,21.76V19a2.36,2.36,0,0,0-2.36-2.36H29.08a2.22,2.22,0,0,0-2.2,2.6,67.27,67.27,0,0,1,.34,7.34c0,2.78-1.46,1.14-3.26,1.14s-3.25,1.64-3.25-1.14a67.27,67.27,0,0,1,.34-7.34,2.23,2.23,0,0,0-2.2-2.6H16.08A2.37,2.37,0,0,0,13.71,19v2.77c-2.41.88-3.29,2.52-3.29,5.18a7.73,7.73,0,0,0,7.69,7s1,.05,1.05.08c2.78-.85,4.8-2.55,4.8-4,0,1.42,2,3.12,4.8,4,0,0,1-.08,1-.08a7.73,7.73,0,0,0,7.69-7C37.5,24.08,36.62,22.64,34.21,21.76Z"/><g id="_Group_4" data-name="&lt;Group&gt;"><path id="_Path_9" data-name="&lt;Path&gt;" class="cls-9" d="M29.81,31.18s-1,.05-1,.08c-2.51-.77-4.4-2.23-4.74-3.55h-.11c-.34,1.32-2.24,2.78-4.75,3.55,0,0-1.05-.08-1.05-.08a7.72,7.72,0,0,1-7.52-6,8,8,0,0,0-.17,1.76,7.73,7.73,0,0,0,7.69,7s1,.05,1.05.08c2.78-.85,4.8-2.55,4.8-4,0,1.42,2,3.12,4.8,4,0,0,1-.08,1-.08a7.73,7.73,0,0,0,7.69-7,9.69,9.69,0,0,0-.15-1.8A7.73,7.73,0,0,1,29.81,31.18Z"/></g><path id="_Path_10" data-name="&lt;Path&gt;" class="cls-3" d="M34.21,21.76V19a2.36,2.36,0,0,0-2.36-2.36H29.08a2.22,2.22,0,0,0-2.2,2.6,67.27,67.27,0,0,1,.34,7.34c0,2.78-1.46,1.14-3.26,1.14s-3.25,1.64-3.25-1.14a67.27,67.27,0,0,1,.34-7.34,2.23,2.23,0,0,0-2.2-2.6H16.08A2.37,2.37,0,0,0,13.71,19v2.77c-2.41.88-3.29,2.52-3.29,5.18a7.73,7.73,0,0,0,7.69,7s1,.05,1.05.08c2.78-.85,4.8-2.55,4.8-4,0,1.42,2,3.12,4.8,4,0,0,1-.08,1-.08a7.73,7.73,0,0,0,7.69-7C37.5,24.08,36.62,22.64,34.21,21.76Z"/><path id="_Path_11" data-name="&lt;Path&gt;" class="cls-10" d="M27,27.4A3.53,3.53,0,0,1,24,30.09a3.53,3.53,0,0,1-3.07-2.69c0-.77,1.38-1.4,3.07-1.4S27,26.63,27,27.4Z"/><path id="_Path_12" data-name="&lt;Path&gt;" class="cls-11" d="M31.44,20.62a.86.86,0,1,1-1.71,0,.85.85,0,0,1,.85-.85A.86.86,0,0,1,31.44,20.62Z"/><path id="_Path_13" data-name="&lt;Path&gt;" class="cls-11" d="M18.2,20.62a.86.86,0,1,1-1.71,0,.86.86,0,0,1,1.71,0Z"/><path id="_Path_14" data-name="&lt;Path&gt;" class="cls-12" d="M35,27.14c0,.63-.85,1.14-1.9,1.14s-1.89-.51-1.89-1.14S32,26,33.07,26,35,26.51,35,27.14Z"/><path id="_Path_15" data-name="&lt;Path&gt;" class="cls-12" d="M16.75,27.14c0,.63-.85,1.14-1.9,1.14S13,27.77,13,27.14,13.8,26,14.85,26,16.75,26.51,16.75,27.14Z"/><path id="_Path_16" data-name="&lt;Path&gt;" class="cls-3" d="M15.08,11a2,2,0,0,1,.46-1.78A1.56,1.56,0,0,1,17.27,9"/><path id="_Path_17" data-name="&lt;Path&gt;" class="cls-3" d="M32.78,11a2,2,0,0,0-.47-1.78A1.56,1.56,0,0,0,30.58,9"/></g></svg>