<svg id="Icons" xmlns="http://www.w3.org/2000/svg" viewBox="0 0 48 48"><defs><style>.cls-1{fill:#ffe500;}.cls-2{fill:#fff48c;}.cls-3{fill:none;}.cls-10,.cls-15,.cls-3,.cls-9{stroke:#45413c;stroke-linecap:round;stroke-linejoin:round;}.cls-4{fill:#fcd;}.cls-5{fill:#ffb0ca;}.cls-6,.cls-9{fill:#fff;}.cls-7{fill:#f0f0f0;}.cls-10,.cls-8{fill:#45413c;}.cls-8{opacity:0.15;}.cls-11{fill:#b89558;}.cls-12{fill:#debb7e;}.cls-13,.cls-15{fill:#656769;}.cls-14{fill:#87898c;}</style></defs><title>450-tiger-face</title><g id="_Group_" data-name="&lt;Group&gt;"><circle id="_Path_" data-name="&lt;Path&gt;" class="cls-1" cx="11.86" cy="9.54" r="7.14"/><path id="_Path_2" data-name="&lt;Path&gt;" class="cls-2" d="M11.86,5.75a7.16,7.16,0,0,1,7,5.46A7.56,7.56,0,0,0,19,9.54a7.14,7.14,0,1,0-14.27,0,7,7,0,0,0,.19,1.67A7.15,7.15,0,0,1,11.86,5.75Z"/><circle id="_Path_3" data-name="&lt;Path&gt;" class="cls-3" cx="11.86" cy="9.54" r="7.14"/><circle id="_Path_4" data-name="&lt;Path&gt;" class="cls-1" cx="36.14" cy="9.54" r="7.14"/><path id="_Path_5" data-name="&lt;Path&gt;" class="cls-2" d="M36.14,5.75a7.15,7.15,0,0,1,6.94,5.46,7,7,0,0,0,.19-1.67A7.14,7.14,0,1,0,29,9.54a7.56,7.56,0,0,0,.19,1.67A7.16,7.16,0,0,1,36.14,5.75Z"/><circle id="_Path_6" data-name="&lt;Path&gt;" class="cls-3" cx="36.14" cy="9.54" r="7.14"/><circle id="_Path_7" data-name="&lt;Path&gt;" class="cls-4" cx="36.14" cy="9.41" r="3.63"/><circle id="_Path_8" data-name="&lt;Path&gt;" class="cls-4" cx="11.86" cy="9.41" r="3.63"/><path id="_Path_9" data-name="&lt;Path&gt;" class="cls-5" d="M36.14,7.86a3.62,3.62,0,0,1,3.46,2.59,3.54,3.54,0,0,0,.17-1,3.64,3.64,0,0,0-7.27,0,3.54,3.54,0,0,0,.17,1A3.63,3.63,0,0,1,36.14,7.86Z"/><path id="_Path_10" data-name="&lt;Path&gt;" class="cls-5" d="M11.86,7.86a3.63,3.63,0,0,1,3.47,2.59,3.54,3.54,0,0,0,.17-1,3.64,3.64,0,0,0-7.27,0,3.54,3.54,0,0,0,.17,1A3.62,3.62,0,0,1,11.86,7.86Z"/><circle id="_Path_11" data-name="&lt;Path&gt;" class="cls-3" cx="36.14" cy="9.41" r="3.63"/><circle id="_Path_12" data-name="&lt;Path&gt;" class="cls-3" cx="11.86" cy="9.41" r="3.63"/><path id="_Path_13" data-name="&lt;Path&gt;" class="cls-6" d="M30.42,38.68c0,2-2.87,3.57-6.42,3.57s-6.42-1.6-6.42-3.57,2.87-3.57,6.42-3.57S30.42,36.71,30.42,38.68Z"/><path id="_Path_14" data-name="&lt;Path&gt;" class="cls-7" d="M24,35.11c-3.13,0-5.73,1.24-6.3,2.89.57,1.61,3.17,2.82,6.3,2.82s5.73-1.21,6.3-2.82C29.73,36.35,27.13,35.11,24,35.11Z"/><path id="_Path_15" data-name="&lt;Path&gt;" class="cls-3" d="M30.42,38.68c0,2-2.87,3.57-6.42,3.57s-6.42-1.6-6.42-3.57,2.87-3.57,6.42-3.57S30.42,36.71,30.42,38.68Z"/><ellipse id="_Ellipse_" data-name="&lt;Ellipse&gt;" class="cls-8" cx="24" cy="45.25" rx="13.43" ry="1.75"/><path id="_Path_16" data-name="&lt;Path&gt;" class="cls-9" d="M32.57,25.83c-3.65,0-6.82,1.33-8.57,3.3-1.75-2-4.92-3.3-8.57-3.3-5.52,0-10,3-10,6.78s4.47,6.78,10,6.78c3.65,0,6.82-1.32,8.57-3.3,1.75,2,4.92,3.3,8.57,3.3,5.52,0,10-3,10-6.78S38.09,25.83,32.57,25.83Z"/><path id="_Path_17" data-name="&lt;Path&gt;" class="cls-1" d="M24,5.91h0A15.68,15.68,0,0,0,8.39,20.12l-.81,8.63.78.16A30.28,30.28,0,0,0,21,28.72L24,28l3.57.76a30.1,30.1,0,0,0,12.85-.05h0l-.81-8.63A15.68,15.68,0,0,0,24,5.91Z"/><path id="_Path_18" data-name="&lt;Path&gt;" class="cls-2" d="M39.61,20.12a15.68,15.68,0,0,0-31.22,0L8,24.67c.76-8.06,8-14.22,16-14.22s15.29,6.16,16,14.22Z"/><path id="_Path_19" data-name="&lt;Path&gt;" class="cls-3" d="M24,5.91h0A15.68,15.68,0,0,0,8.39,20.12l-.81,8.63.78.16A30.28,30.28,0,0,0,21,28.72L24,28l3.57.76a30.1,30.1,0,0,0,12.85-.05h0l-.81-8.63A15.68,15.68,0,0,0,24,5.91Z"/><circle id="_Path_20" data-name="&lt;Path&gt;" class="cls-10" cx="31.42" cy="25.01" r="1.58"/><circle id="_Path_21" data-name="&lt;Path&gt;" class="cls-10" cx="16.58" cy="25.01" r="1.58"/><path id="_Path_22" data-name="&lt;Path&gt;" class="cls-2" d="M39.52,33.19c0,.55-.86,1-1.92,1s-1.92-.45-1.92-1,.86-1,1.92-1S39.52,32.64,39.52,33.19Z"/><path id="_Path_23" data-name="&lt;Path&gt;" class="cls-2" d="M12.32,33.19c0,.55-.86,1-1.92,1s-1.92-.45-1.92-1,.86-1,1.92-1S12.32,32.64,12.32,33.19Z"/><path id="_Path_24" data-name="&lt;Path&gt;" class="cls-11" d="M27.57,29.66c0,1.18-1.6,2.85-3.57,2.85s-3.57-1.67-3.57-2.85S22,27.52,24,27.52,27.57,28.48,27.57,29.66Z"/><path id="_Path_25" data-name="&lt;Path&gt;" class="cls-12" d="M24,29.49a4.16,4.16,0,0,1,3.21,1.22,2.07,2.07,0,0,0,.36-1.05c0-1.18-1.6-2.14-3.57-2.14s-3.57,1-3.57,2.14a2.07,2.07,0,0,0,.36,1.05A4.16,4.16,0,0,1,24,29.49Z"/><path id="_Path_26" data-name="&lt;Path&gt;" class="cls-3" d="M27.57,29.66c0,1.18-1.6,2.85-3.57,2.85s-3.57-1.67-3.57-2.85S22,27.52,24,27.52,27.57,28.48,27.57,29.66Z"/><path id="_Path_27" data-name="&lt;Path&gt;" class="cls-13" d="M30.43,10.58a1.18,1.18,0,0,1-1.17,1.17H26.34v2.33h2a.94.94,0,0,1,.94.94v.47a.94.94,0,0,1-.94.93h-2v1.17a2.34,2.34,0,0,1-4.67,0V16.42h-2a.93.93,0,0,1-.93-.93V15a.94.94,0,0,1,.93-.94h2V11.75H18.75a1.17,1.17,0,0,1,0-2.34h2.92V6.08a16.12,16.12,0,0,1,4.67,0V9.41h2.92A1.18,1.18,0,0,1,30.43,10.58Z"/><path id="_Path_28" data-name="&lt;Path&gt;" class="cls-14" d="M18.75,11.75H29.26a1.17,1.17,0,0,0,0-2.34H26.34V6.08a16.12,16.12,0,0,0-4.67,0V9.41H18.75a1.17,1.17,0,0,0,0,2.34Z"/><path id="_Path_29" data-name="&lt;Path&gt;" class="cls-3" d="M30.43,10.58a1.18,1.18,0,0,1-1.17,1.17H26.34v2.33h2a.94.94,0,0,1,.94.94v.47a.94.94,0,0,1-.94.93h-2v1.17a2.34,2.34,0,0,1-4.67,0V16.42h-2a.93.93,0,0,1-.93-.93V15a.94.94,0,0,1,.93-.94h2V11.75H18.75a1.17,1.17,0,0,1,0-2.34h2.92V6.08a16.12,16.12,0,0,1,4.67,0V9.41h2.92A1.18,1.18,0,0,1,30.43,10.58Z"/><g id="_Group_2" data-name="&lt;Group&gt;"><path id="_Path_30" data-name="&lt;Path&gt;" class="cls-15" d="M8.29,21.09h2.86a1.17,1.17,0,1,0,0-2.33H8.57c-.07.42-.14.86-.18,1.3Z"/><path id="_Path_31" data-name="&lt;Path&gt;" class="cls-15" d="M11.15,25.18A1.17,1.17,0,0,0,10,24H8L7.8,26.35H10A1.17,1.17,0,0,0,11.15,25.18Z"/></g><g id="_Group_3" data-name="&lt;Group&gt;"><path id="_Path_32" data-name="&lt;Path&gt;" class="cls-15" d="M40,24H38a1.17,1.17,0,1,0,0,2.34H40.2Z"/><path id="_Path_33" data-name="&lt;Path&gt;" class="cls-15" d="M36.85,21.09h2.86l-.1-1c0-.44-.11-.88-.18-1.3H36.85a1.17,1.17,0,1,0,0,2.33Z"/></g></g></svg>