<svg id="Icons" xmlns="http://www.w3.org/2000/svg" viewBox="0 0 48 48"><defs><style>.cls-1{fill:#45413c;opacity:0.15;}.cls-2{fill:#ff87af;}.cls-3{fill:#ffb0ca;}.cls-4{fill:none;stroke:#45413c;stroke-linecap:round;stroke-linejoin:round;}.cls-5{fill:#ff6196;}.cls-6{fill:#e0366f;}</style></defs><title>463-pig-nose</title><g id="_Group_" data-name="&lt;Group&gt;"><ellipse id="_Ellipse_" data-name="&lt;Ellipse&gt;" class="cls-1" cx="24" cy="44.17" rx="17.7" ry="1.83"/><ellipse id="_Path_" data-name="&lt;Path&gt;" class="cls-2" cx="24" cy="20.74" rx="21.67" ry="15.26"/><path id="_Path_2" data-name="&lt;Path&gt;" class="cls-3" d="M24,9.15C39.43,9.15,44.88,15,45.58,22.6q.09-.92.09-1.86c0-8.43-5-15.26-21.67-15.26S2.33,12.31,2.33,20.74q0,.95.09,1.86C3.12,15,8.57,9.15,24,9.15Z"/><ellipse id="_Path_3" data-name="&lt;Path&gt;" class="cls-4" cx="24" cy="20.74" rx="21.67" ry="15.26"/><ellipse id="_Path_4" data-name="&lt;Path&gt;" class="cls-5" cx="33.04" cy="20.74" rx="4.81" ry="6.55"/><ellipse id="_Path_5" data-name="&lt;Path&gt;" class="cls-5" cx="14.96" cy="20.74" rx="4.81" ry="6.55"/><path id="_Path_6" data-name="&lt;Path&gt;" class="cls-6" d="M33,17.54c2.23,0,4.11,2.07,4.65,4.88a9.2,9.2,0,0,0,.16-1.68c0-3.62-2.15-6.55-4.81-6.55s-4.8,2.93-4.8,6.55a8.4,8.4,0,0,0,.16,1.68C28.94,19.61,30.81,17.54,33,17.54Z"/><path id="_Path_7" data-name="&lt;Path&gt;" class="cls-6" d="M15,17.54c2.23,0,4.1,2.07,4.64,4.88a8.4,8.4,0,0,0,.16-1.68c0-3.62-2.15-6.55-4.8-6.55s-4.81,2.93-4.81,6.55a9.2,9.2,0,0,0,.16,1.68C10.85,19.61,12.73,17.54,15,17.54Z"/><ellipse id="_Path_8" data-name="&lt;Path&gt;" class="cls-4" cx="33.04" cy="20.74" rx="4.81" ry="6.55"/><ellipse id="_Path_9" data-name="&lt;Path&gt;" class="cls-4" cx="14.96" cy="20.74" rx="4.81" ry="6.55"/></g></svg>