<svg id="Icons" xmlns="http://www.w3.org/2000/svg" viewBox="0 0 48 48"><defs><style>.cls-1,.cls-6{fill:#45413c;}.cls-1{opacity:0.15;}.cls-2,.cls-3{fill:#bdbec0;}.cls-2,.cls-5{stroke:#45413c;stroke-linecap:round;stroke-linejoin:round;}.cls-4{fill:#e0e0e0;}.cls-5{fill:none;}.cls-7{fill:#e5feff;}.cls-8{fill:#fff;}.cls-9{fill:#fffacf;}.cls-10{fill:#fffce5;}</style></defs><title>464-ram</title><g id="_Group_" data-name="&lt;Group&gt;"><ellipse id="_Ellipse_" data-name="&lt;Ellipse&gt;" class="cls-1" cx="29" cy="45.37" rx="14.69" ry="1.63"/><path id="_Rectangle_" data-name="&lt;Rectangle&gt;" class="cls-2" d="M17.33,40.05h4.35a0,0,0,0,1,0,0v2.77A2.18,2.18,0,0,1,19.51,45H18.42a1.09,1.09,0,0,1-1.09-1.09V40.05A0,0,0,0,1,17.33,40.05Z"/><path id="_Rectangle_2" data-name="&lt;Rectangle&gt;" class="cls-2" d="M37.46,40.05h4.35a0,0,0,0,1,0,0v2.77A2.18,2.18,0,0,1,39.64,45H38.55a1.09,1.09,0,0,1-1.09-1.09V40.05A0,0,0,0,1,37.46,40.05Z"/><path id="_Path_" data-name="&lt;Path&gt;" class="cls-3" d="M10.26,8.83S2.65,11.55,2.1,15.9s1.16,6,3.27,6,5.44-1.15,8.16-.54,3.8-8.71,3.8-8.71S16.25,5.9,10.26,8.83Z"/><path id="_Path_2" data-name="&lt;Path&gt;" class="cls-4" d="M2.71,18.72c.55-4.35,8.16-7.07,8.16-7.07,3.67-1.79,5.5,0,6.36,1.73.07-.46.1-.75.1-.75s-1.08-6.73-7.07-3.8c0,0-7.61,2.72-8.16,7.07a7.28,7.28,0,0,0,.51,4.4A13,13,0,0,1,2.71,18.72Z"/><path id="_Path_3" data-name="&lt;Path&gt;" class="cls-5" d="M10.26,8.83S2.65,11.55,2.1,15.9s1.16,6,3.27,6,5.44-1.15,8.16-.54,3.8-8.71,3.8-8.71S16.25,5.9,10.26,8.83Z"/><circle id="_Path_4" data-name="&lt;Path&gt;" class="cls-6" cx="9.24" cy="12.63" r="1.04"/><path id="_Path_5" data-name="&lt;Path&gt;" class="cls-7" d="M43.44,19.71c-3.19-4.22-7.38-6.4-19-4.9.4-3.4-.34-6.66-2.72-8.7C18.29,3.19,14.14,3.86,10.26,5c-3.39,1-3.6,4.35-.54,4.89s3.81,0,3.81,0L13,14.27a3.47,3.47,0,0,0-3.26,2.17c-.72,2.08.1,4.22,3.26,4.9-1.15,2.38-1,7.48.55,11.42A12.19,12.19,0,0,0,14.07,34c0,4.45,2.47,8,5.44,8a4.56,4.56,0,0,0,3.54-2c.59.12,1.23.23,1.9.33a30.32,30.32,0,0,0,10.52-.33,5.33,5.33,0,0,0,4.71,2c3.63-.6,5.46-7.59,5.56-14.28A12.6,12.6,0,0,0,43.44,19.71Z"/><g id="_Group_2" data-name="&lt;Group&gt;"><path id="_Path_6" data-name="&lt;Path&gt;" class="cls-8" d="M8.4,9.39a4.54,4.54,0,0,1,1.86-1c3.88-1.16,8-1.83,11.43,1.09a8.91,8.91,0,0,1,2.82,7,1.46,1.46,0,0,0,1.59,1.48C36.47,16.87,40.41,19,43.44,23a12,12,0,0,1,2.22,5.86,13,13,0,0,0-2.22-9.18c-3.19-4.22-7.38-6.4-19-4.9.4-3.4-.34-6.66-2.72-8.7C18.29,3.19,14.14,3.86,10.26,5,7.48,5.85,6.84,8.25,8.4,9.39Z"/><path id="_Path_7" data-name="&lt;Path&gt;" class="cls-8" d="M13,14.27a3.47,3.47,0,0,0-3.26,2.17,3.52,3.52,0,0,0,.18,3A3.24,3.24,0,0,1,12,17.74,1.31,1.31,0,0,0,13,16.47Z"/><path id="_Path_8" data-name="&lt;Path&gt;" class="cls-5" d="M43.44,19.71c-3.19-4.22-7.38-6.4-19-4.9.4-3.4-.34-6.66-2.72-8.7C18.29,3.19,14.14,3.86,10.26,5c-3.39,1-3.6,4.35-.54,4.89s3.81,0,3.81,0L13,14.27a3.47,3.47,0,0,0-3.26,2.17c-.72,2.08.1,4.22,3.26,4.9-1.15,2.38-1,7.48.55,11.42A12.19,12.19,0,0,0,14.07,34c0,4.45,2.47,8,5.44,8a4.56,4.56,0,0,0,3.54-2c.59.12,1.23.23,1.9.33a30.32,30.32,0,0,0,10.52-.33,5.33,5.33,0,0,0,4.71,2c3.63-.6,5.46-7.59,5.56-14.28A12.6,12.6,0,0,0,43.44,19.71Z"/></g><path id="_Path_9" data-name="&lt;Path&gt;" class="cls-9" d="M15.41,5.9S17.22,1,23.57,2.63C28.62,3.9,29,11.76,24.66,13c-3.76,1-4.35-2.18-4.35-2.18s3.08,0,2.72-2.17-3.36-1.45-3.81,0C16.37,9.57,15.41,5.9,15.41,5.9Z"/><g id="_Group_3" data-name="&lt;Group&gt;"><path id="_Path_10" data-name="&lt;Path&gt;" class="cls-10" d="M23.57,4.35a5.58,5.58,0,0,1,4,4.87c.36-2.66-1-5.83-4-6.59C17.22,1,15.41,5.89,15.41,5.89a5.82,5.82,0,0,0,.39,1C16.61,5.58,18.82,3.16,23.57,4.35Z"/></g><path id="_Path_11" data-name="&lt;Path&gt;" class="cls-5" d="M15.41,5.89S17.22,1,23.57,2.63C28.62,3.9,29,11.75,24.66,13c-3.76,1-4.35-2.17-4.35-2.17s3.08,0,2.72-2.18-3.36-1.45-3.81,0C16.37,9.56,15.41,5.89,15.41,5.89Z"/><line id="_Path_12" data-name="&lt;Path&gt;" class="cls-5" x1="17.77" y1="3.2" x2="20.24" y2="7.52"/><line id="_Path_13" data-name="&lt;Path&gt;" class="cls-5" x1="23.38" y1="2.59" x2="22.18" y2="7.39"/><line id="_Path_14" data-name="&lt;Path&gt;" class="cls-5" x1="27.63" y1="7.67" x2="22.96" y2="8.33"/><line id="_Path_15" data-name="&lt;Path&gt;" class="cls-5" x1="24.95" y1="12.63" x2="22.77" y2="10.46"/><path id="_Path_16" data-name="&lt;Path&gt;" class="cls-5" d="M25,33.85a10.26,10.26,0,0,1-1.9,6.2"/><path id="_Path_17" data-name="&lt;Path&gt;" class="cls-5" d="M35.47,40.05a9.49,9.49,0,0,1-2.36-4.57"/></g></svg>