<svg id="Icons" xmlns="http://www.w3.org/2000/svg" viewBox="0 0 48 48"><defs><style>.cls-1,.cls-7{fill:#45413c;}.cls-1{opacity:0.15;}.cls-2{fill:#c0dceb;}.cls-3{fill:#daedf7;}.cls-4{fill:none;stroke:#45413c;stroke-linecap:round;stroke-linejoin:round;}.cls-5{fill:#fcd;}.cls-6{fill:#ffb0ca;}</style></defs><title>469-elephant</title><g id="_Group_" data-name="&lt;Group&gt;"><path id="_Path_" data-name="&lt;Path&gt;" class="cls-1" d="M46,44.5c0,.83-9.17,1.5-20.5,1.5S5,45.33,5,44.5,14.13,43,25.45,43,46,43.67,46,44.5Z"/><path id="_Path_2" data-name="&lt;Path&gt;" class="cls-2" d="M33.93,10.77h-5l1.21-5.44A2,2,0,0,0,28.29,3a18.17,18.17,0,0,0-9.4,2.61H10.53A8.53,8.53,0,0,0,2,14.09V29a8.48,8.48,0,0,0,7,8.34,1.3,1.3,0,0,0,1.48-1.3V35a1.24,1.24,0,0,0-.61-1.1,5.19,5.19,0,0,1-2.65-4.52V27.68a1.87,1.87,0,0,1,1.18-1.74l5-2a10.44,10.44,0,0,0,3.7,6.6,1.33,1.33,0,0,1,.5,1V42.7a1.3,1.3,0,0,0,1.3,1.3h5.21a1.3,1.3,0,0,0,1.3-1.3V34.23a1.31,1.31,0,0,1,1.31-1.31H37.83V42.7A1.31,1.31,0,0,0,39.14,44h5.21a1.3,1.3,0,0,0,1.3-1.3V22.49A11.72,11.72,0,0,0,33.93,10.77Z"/><g id="_Group_2" data-name="&lt;Group&gt;"><path id="_Path_3" data-name="&lt;Path&gt;" class="cls-3" d="M10.53,8.49h8.36a18.06,18.06,0,0,1,9.4-2.6,1.87,1.87,0,0,1,1.54.83l.31-1.39A2,2,0,0,0,28.29,3a18.17,18.17,0,0,0-9.4,2.61H10.53A8.53,8.53,0,0,0,2,14.09V17A8.53,8.53,0,0,1,10.53,8.49Z"/><path id="_Path_4" data-name="&lt;Path&gt;" class="cls-3" d="M33.93,10.77h-5l-.65,2.93h5.65A11.73,11.73,0,0,1,45.65,25.43V22.49A11.72,11.72,0,0,0,33.93,10.77Z"/></g><path id="_Path_5" data-name="&lt;Path&gt;" class="cls-4" d="M33.93,10.77h-5l1.21-5.44A2,2,0,0,0,28.29,3a18.17,18.17,0,0,0-9.4,2.61H10.53A8.53,8.53,0,0,0,2,14.09V29a8.48,8.48,0,0,0,7,8.34,1.3,1.3,0,0,0,1.48-1.3V35a1.24,1.24,0,0,0-.61-1.1,5.19,5.19,0,0,1-2.65-4.52V27.68a1.87,1.87,0,0,1,1.18-1.74l5-2a10.44,10.44,0,0,0,3.7,6.6,1.33,1.33,0,0,1,.5,1V42.7a1.3,1.3,0,0,0,1.3,1.3h5.21a1.3,1.3,0,0,0,1.3-1.3V34.23a1.31,1.31,0,0,1,1.31-1.31H37.83V42.7A1.31,1.31,0,0,0,39.14,44h5.21a1.3,1.3,0,0,0,1.3-1.3V22.49A11.72,11.72,0,0,0,33.93,10.77Z"/><path id="_Path_6" data-name="&lt;Path&gt;" class="cls-4" d="M35.88,20.55a10.15,10.15,0,0,0,1.38,9.66h0a2.84,2.84,0,0,1,.57,1.71v1"/><path id="_Path_7" data-name="&lt;Path&gt;" class="cls-4" d="M14.38,8.82l3-2.25A18.08,18.08,0,0,1,28.23,3h0a2,2,0,0,1,1.91,2.38L27.59,16.79a4.79,4.79,0,0,1-4.67,3.76H17.81a3.43,3.43,0,0,1-3.43-3.43"/><path id="_Path_8" data-name="&lt;Path&gt;" class="cls-5" d="M17.81,20.55h5.11a4.79,4.79,0,0,0,4.67-3.76L29.66,7.5a1.93,1.93,0,0,0-1.43-.64,18.08,18.08,0,0,0-10.86,3.62l-3,2.25v4.39A3.43,3.43,0,0,0,17.81,20.55Z"/><path id="_Path_9" data-name="&lt;Path&gt;" class="cls-6" d="M28.23,10.18a1.86,1.86,0,0,1,.79.17l.64-2.85a1.93,1.93,0,0,0-1.43-.64,18.08,18.08,0,0,0-10.86,3.62l-3,2.25v3.32l3-2.25A18.08,18.08,0,0,1,28.23,10.18Z"/><path id="_Path_10" data-name="&lt;Path&gt;" class="cls-4" d="M17.81,20.55h5.11a4.79,4.79,0,0,0,4.67-3.76L29.66,7.5a1.93,1.93,0,0,0-1.43-.64,18.08,18.08,0,0,0-10.86,3.62l-3,2.25v4.39A3.43,3.43,0,0,0,17.81,20.55Z"/><line id="_Path_11" data-name="&lt;Path&gt;" class="cls-4" x1="2" y1="21.2" x2="4.61" y2="21.2"/><line id="_Path_12" data-name="&lt;Path&gt;" class="cls-4" x1="2" y1="23.8" x2="4.61" y2="23.8"/><line id="_Path_13" data-name="&lt;Path&gt;" class="cls-4" x1="2" y1="26.41" x2="3.95" y2="26.41"/><path id="_Path_14" data-name="&lt;Path&gt;" class="cls-4" d="M13.44,23.92s3.18-1.16,2.87-3.72"/><path id="_Path_15" data-name="&lt;Path&gt;" class="cls-7" d="M9.13,16.93a1.3,1.3,0,1,1-1-1.56A1.3,1.3,0,0,1,9.13,16.93Z"/><path id="_Path_16" data-name="&lt;Path&gt;" class="cls-6" d="M13,20.12a1.34,1.34,0,0,1-1.56.74c-.7-.12-1.13-.66-1-1.2a1.36,1.36,0,0,1,1.57-.74C12.76,19,13.2,19.58,13,20.12Z"/></g></svg>