<svg id="Icons" xmlns="http://www.w3.org/2000/svg" viewBox="0 0 48 48"><defs><style>.cls-1,.cls-10{fill:#45413c;}.cls-1{opacity:0.15;}.cls-2,.cls-9{fill:#656769;}.cls-3{fill:#87898c;}.cls-4{fill:none;}.cls-10,.cls-4,.cls-9{stroke:#45413c;stroke-linecap:round;stroke-linejoin:round;}.cls-5{fill:#e0e0e0;}.cls-6{fill:#bdbec0;}.cls-7{fill:#f0f0f0;}.cls-8{fill:#fff;}.cls-11{fill:#ffa694;}</style></defs><title>478-panda-face</title><g id="_Group_" data-name="&lt;Group&gt;"><ellipse id="_Ellipse_" data-name="&lt;Ellipse&gt;" class="cls-1" cx="24" cy="45.34" rx="15.53" ry="1.66"/><path id="_Path_" data-name="&lt;Path&gt;" class="cls-2" d="M42.3,16.64c-3.21,4.49-9,5.82-13,3s-4.62-8.8-1.41-13.28,9-5.82,13-3S45.51,12.16,42.3,16.64Z"/><path id="_Path_2" data-name="&lt;Path&gt;" class="cls-3" d="M27.86,8.55c3.2-4.49,9-5.82,13-3a8.35,8.35,0,0,1,3.39,5.94,8.69,8.69,0,0,0-3.39-8.16c-4-2.85-9.82-1.52-13,3a10.56,10.56,0,0,0-2,7.34A10.81,10.81,0,0,1,27.86,8.55Z"/><path id="_Path_3" data-name="&lt;Path&gt;" class="cls-4" d="M42.3,16.64c-3.21,4.49-9,5.82-13,3s-4.62-8.8-1.41-13.28,9-5.82,13-3S45.51,12.16,42.3,16.64Z"/><path id="_Path_4" data-name="&lt;Path&gt;" class="cls-5" d="M39.87,15c-2.19,3.07-6.18,4-8.91,2S27.8,11,30,8s6.18-4,8.91-2S42.06,11.94,39.87,15Z"/><path id="_Path_5" data-name="&lt;Path&gt;" class="cls-6" d="M30,10.46c2.19-3.07,6.18-4,8.91-2A5.67,5.67,0,0,1,41.12,12,6,6,0,0,0,38.9,5.93C36.17,4,32.18,4.89,30,8a7.18,7.18,0,0,0-1.25,5.49A7.44,7.44,0,0,1,30,10.46Z"/><path id="_Path_6" data-name="&lt;Path&gt;" class="cls-4" d="M39.87,15c-2.19,3.07-6.18,4-8.91,2S27.8,11,30,8s6.18-4,8.91-2S42.06,11.94,39.87,15Z"/><path id="_Path_7" data-name="&lt;Path&gt;" class="cls-2" d="M5.7,16.64c3.21,4.49,9,5.82,13,3s4.62-8.8,1.41-13.28-9-5.82-13-3S2.49,12.16,5.7,16.64Z"/><path id="_Path_8" data-name="&lt;Path&gt;" class="cls-3" d="M20.14,8.55c-3.2-4.49-9-5.82-13-3a8.35,8.35,0,0,0-3.39,5.94A8.69,8.69,0,0,1,7.12,3.36c4-2.85,9.82-1.52,13,3a10.56,10.56,0,0,1,2,7.34A10.81,10.81,0,0,0,20.14,8.55Z"/><path id="_Path_9" data-name="&lt;Path&gt;" class="cls-4" d="M5.7,16.64c3.21,4.49,9,5.82,13,3s4.62-8.8,1.41-13.28-9-5.82-13-3S2.49,12.16,5.7,16.64Z"/><path id="_Path_10" data-name="&lt;Path&gt;" class="cls-5" d="M8.13,15c2.19,3.07,6.18,4,8.91,2S20.2,11,18,8s-6.18-4-8.91-2S5.94,11.94,8.13,15Z"/><path id="_Path_11" data-name="&lt;Path&gt;" class="cls-6" d="M18,10.46c-2.19-3.07-6.18-4-8.91-2A5.67,5.67,0,0,0,6.88,12,6,6,0,0,1,9.1,5.93C11.83,4,15.82,4.89,18,8a7.18,7.18,0,0,1,1.25,5.49A7.44,7.44,0,0,0,18,10.46Z"/><path id="_Path_12" data-name="&lt;Path&gt;" class="cls-4" d="M8.13,15c2.19,3.07,6.18,4,8.91,2S20.2,11,18,8s-6.18-4-8.91-2S5.94,11.94,8.13,15Z"/><path class="cls-7" d="M44.8,25.87C43,14.45,34.24,6.13,24,6.13S5,14.45,3.2,25.87c-1.22,7.8,4.07,15,11.07,15h2A11.8,11.8,0,0,0,24,43.5a11.8,11.8,0,0,0,7.77-2.67h2C40.73,40.83,46,33.67,44.8,25.87Z"/><path id="_Path_13" data-name="&lt;Path&gt;" class="cls-8" d="M3.2,30.31C5,18.89,13.76,10.57,24,10.57s19,8.32,20.8,19.74h0a14.43,14.43,0,0,0,0-4.45C43,14.45,34.24,6.13,24,6.13S5,14.45,3.2,25.87a14.43,14.43,0,0,0,0,4.45Z"/><path class="cls-4" d="M44.8,25.87C43,14.45,34.24,6.13,24,6.13S5,14.45,3.2,25.87c-1.22,7.8,4.07,15,11.07,15h2A11.8,11.8,0,0,0,24,43.5a11.8,11.8,0,0,0,7.77-2.67h2C40.73,40.83,46,33.67,44.8,25.87Z"/><path id="_Path_14" data-name="&lt;Path&gt;" class="cls-9" d="M27.88,33.13c0,1.13-1.74,3-3.88,3s-3.88-1.83-3.88-3,1.74-2.05,3.88-2.05S27.88,32,27.88,33.13Z"/><path id="_Path_15" data-name="&lt;Path&gt;" class="cls-9" d="M28.08,20.77c-.85,5.11,3.12,7.66,6.13,8.85s4.82-1,4.77-4.08-2-7.26-5.45-8.17A4.63,4.63,0,0,0,28.08,20.77Z"/><circle id="_Path_16" data-name="&lt;Path&gt;" class="cls-10" cx="31.77" cy="22.76" r="1.66"/><path id="_Path_17" data-name="&lt;Path&gt;" class="cls-11" d="M43.42,30.33a2,2,0,1,1-2-2A2,2,0,0,1,43.42,30.33Z"/><path id="_Path_18" data-name="&lt;Path&gt;" class="cls-9" d="M19.92,20.77c.85,5.11-3.12,7.66-6.13,8.85S9,28.62,9,25.54s2-7.26,5.45-8.17A4.63,4.63,0,0,1,19.92,20.77Z"/><circle id="_Path_19" data-name="&lt;Path&gt;" class="cls-10" cx="16.23" cy="22.76" r="1.66"/><path id="_Path_20" data-name="&lt;Path&gt;" class="cls-11" d="M4.58,30.33a2,2,0,1,0,2-2A2,2,0,0,0,4.58,30.33Z"/><line id="_Path_21" data-name="&lt;Path&gt;" class="cls-4" x1="24" y1="36.09" x2="24" y2="38.31"/></g></svg>