<svg id="Icons" xmlns="http://www.w3.org/2000/svg" viewBox="0 0 48 48"><defs><style>.cls-1{fill:#e04122;stroke:#45413c;stroke-linecap:round;stroke-linejoin:round;}</style></defs><title>479-paw-prints</title><g id="_Group_" data-name="&lt;Group&gt;"><g id="_Group_2" data-name="&lt;Group&gt;"><path id="_Path_" data-name="&lt;Path&gt;" class="cls-1" d="M13.29,23.68a3,3,0,0,1,2.43-2.31,3.41,3.41,0,0,1,3.28.72,2.79,2.79,0,0,0,2.38.57,2.5,2.5,0,0,0,1.74-3.1,2.48,2.48,0,0,0-.5-.95l-3.16-3.72c-2-1.9-3.62-2.78-6.13-2.08s-3.58,2.5-4.17,5l-.77,4.84a2.67,2.67,0,0,0,.06,1.05,2.53,2.53,0,0,0,3.1,1.75A2.58,2.58,0,0,0,13.29,23.68Z"/><ellipse id="_Path_2" data-name="&lt;Path&gt;" class="cls-1" cx="8.58" cy="8.84" rx="2.36" ry="2.84" transform="translate(-2.72 3.93) rotate(-22.38)"/><ellipse id="_Path_3" data-name="&lt;Path&gt;" class="cls-1" cx="4.51" cy="15.2" rx="2.36" ry="2.84" transform="matrix(0.85, -0.53, 0.53, 0.85, -7.37, 4.7)"/><ellipse id="_Path_4" data-name="&lt;Path&gt;" class="cls-1" cx="15.33" cy="6.95" rx="2.36" ry="2.84" transform="matrix(0.99, -0.15, 0.15, 0.99, -0.89, 2.45)"/><ellipse id="_Path_5" data-name="&lt;Path&gt;" class="cls-1" cx="22.11" cy="10.28" rx="2.84" ry="2.36" transform="translate(11.53 32.24) rotate(-89.22)"/></g><g id="_Group_3" data-name="&lt;Group&gt;"><path class="cls-1" d="M41.9,40.46l-2-4.46c-1.22-2.21-2.73-3.65-5.34-3.65S30.39,33.79,29.16,36l-2,4.46a2.36,2.36,0,0,0-.23,1A2.52,2.52,0,0,0,29.41,44a2.58,2.58,0,0,0,2.14-1.19,3,3,0,0,1,3-1.58,3,3,0,0,1,3,1.58A2.58,2.58,0,0,0,39.61,44a2.51,2.51,0,0,0,2.51-2.51A2.35,2.35,0,0,0,41.9,40.46Z"/><ellipse id="_Path_6" data-name="&lt;Path&gt;" class="cls-1" cx="31.01" cy="27.24" rx="2.36" ry="2.84" transform="translate(-2.99 3.84) rotate(-6.75)"/><ellipse id="_Path_7" data-name="&lt;Path&gt;" class="cls-1" cx="25.37" cy="32.27" rx="2.36" ry="2.84" transform="translate(-8.08 8.48) rotate(-16.4)"/><ellipse id="_Path_8" data-name="&lt;Path&gt;" class="cls-1" cx="38.01" cy="27.24" rx="2.84" ry="2.36" transform="translate(6.49 61.79) rotate(-83.25)"/><ellipse id="_Path_9" data-name="&lt;Path&gt;" class="cls-1" cx="43.65" cy="32.27" rx="2.84" ry="2.36" transform="translate(0.37 65.03) rotate(-73.6)"/></g></g></svg>