<svg id="Icons" xmlns="http://www.w3.org/2000/svg" viewBox="0 0 48 48"><defs><style>.cls-1{fill:#ffe500;}.cls-2{fill:#fff48c;}.cls-3{fill:none;}.cls-10,.cls-3{stroke:#45413c;stroke-linecap:round;stroke-linejoin:round;}.cls-10,.cls-4{fill:#45413c;}.cls-4{opacity:0.15;}.cls-5{fill:#ebcb00;}.cls-6{fill:#f0f0f0;}.cls-7{fill:#fff;}.cls-8{fill:#ff8a14;}.cls-9{fill:#ffaa54;}</style></defs><title>482-hatching chick-1</title><g id="_Group_" data-name="&lt;Group&gt;"><path id="_Path_" data-name="&lt;Path&gt;" class="cls-1" d="M18.92,22.09s-7.08-4.25-8.5-3.5.58,8.17,5,10S18.92,22.09,18.92,22.09Z"/><path class="cls-2" d="M10.92,21.08c1.2-.64,6.51,2.34,8.07,3.25a17.64,17.64,0,0,0-.07-2.24s-7.08-4.25-8.5-3.5c-.63.33-.59,2,.05,3.88C10.45,21.76,10.6,21.25,10.92,21.08Z"/><path id="_Path_2" data-name="&lt;Path&gt;" class="cls-3" d="M18.92,22.09s-7.08-4.25-8.5-3.5.58,8.17,5,10S18.92,22.09,18.92,22.09Z"/><path id="_Path_3" data-name="&lt;Path&gt;" class="cls-1" d="M29.08,22.09s7.08-4.25,8.5-3.5-.59,8.17-5,10S29.08,22.09,29.08,22.09Z"/><path class="cls-2" d="M37.08,21.08c-1.21-.64-6.52,2.34-8.07,3.25a17.64,17.64,0,0,1,.07-2.24s7.08-4.25,8.5-3.5c.63.33.58,2-.06,3.88C37.54,21.76,37.4,21.25,37.08,21.08Z"/><path id="_Path_4" data-name="&lt;Path&gt;" class="cls-3" d="M29.08,22.09s7.08-4.25,8.5-3.5-.59,8.17-5,10S29.08,22.09,29.08,22.09Z"/><ellipse id="_Ellipse_" data-name="&lt;Ellipse&gt;" class="cls-4" cx="24" cy="45.5" rx="11.5" ry="1.5"/><ellipse id="_Path_5" data-name="&lt;Path&gt;" class="cls-1" cx="24" cy="31" rx="10.5" ry="12.5"/><path id="_Path_6" data-name="&lt;Path&gt;" class="cls-5" d="M32.24,23.27a10.47,10.47,0,0,1-16.48,0A9.93,9.93,0,0,1,24,18.5,9.93,9.93,0,0,1,32.24,23.27Z"/><ellipse id="_Path_7" data-name="&lt;Path&gt;" class="cls-3" cx="24" cy="31" rx="10.5" ry="12.5"/><circle id="_Path_8" data-name="&lt;Path&gt;" class="cls-1" cx="24" cy="13" r="10.5"/><path id="_Path_9" data-name="&lt;Path&gt;" class="cls-2" d="M24,5.46a10.49,10.49,0,0,1,10.38,9A10.49,10.49,0,1,0,13.5,13a12.13,12.13,0,0,0,.11,1.48A10.49,10.49,0,0,1,24,5.46Z"/><circle id="_Path_10" data-name="&lt;Path&gt;" class="cls-3" cx="24" cy="13" r="10.5"/><path id="_Path_11" data-name="&lt;Path&gt;" class="cls-6" d="M39.07,28.57l-3.3,3.3a.86.86,0,0,1-1.21,0L30.19,27.5a.86.86,0,0,0-1.22,0L24.6,31.87a.86.86,0,0,1-1.21,0L19,27.5a.85.85,0,0,0-1.21,0l-4.37,4.37a.86.86,0,0,1-1.21,0l-3.31-3.3a.43.43,0,0,0-.73.32C8.9,40,15.7,45.5,24,45.5S39.1,40,39.81,28.89A.43.43,0,0,0,39.07,28.57Z"/><path id="_Path_12" data-name="&lt;Path&gt;" class="cls-7" d="M8.92,31.71l3.31,2.87a1,1,0,0,0,1.21,0l4.37-3.8a1,1,0,0,1,1.21,0l4.37,3.8a1,1,0,0,0,1.21,0L29,30.78a1,1,0,0,1,1.22,0l4.37,3.8a1,1,0,0,0,1.21,0l3.3-2.87a.46.46,0,0,1,.4-.09c.15-.87.27-1.77.34-2.73a.43.43,0,0,0-.74-.32l-3.3,3.3a.86.86,0,0,1-1.21,0L30.19,27.5a.86.86,0,0,0-1.22,0L24.6,31.87a.86.86,0,0,1-1.21,0L19,27.5a.85.85,0,0,0-1.21,0l-4.37,4.37a.86.86,0,0,1-1.21,0l-3.31-3.3a.43.43,0,0,0-.73.32,25.18,25.18,0,0,0,.33,2.73A.45.45,0,0,1,8.92,31.71Z"/><path id="_Path_13" data-name="&lt;Path&gt;" class="cls-3" d="M39.07,28.57l-3.3,3.3a.86.86,0,0,1-1.21,0L30.19,27.5a.86.86,0,0,0-1.22,0L24.6,31.87a.86.86,0,0,1-1.21,0L19,27.5a.85.85,0,0,0-1.21,0l-4.37,4.37a.86.86,0,0,1-1.21,0l-3.31-3.3a.43.43,0,0,0-.73.32C8.9,40,15.7,45.5,24,45.5S39.1,40,39.81,28.89A.43.43,0,0,0,39.07,28.57Z"/><path id="_Path_14" data-name="&lt;Path&gt;" class="cls-8" d="M22.83,15.12l-2,1.53A1,1,0,0,0,20.58,18L22,20a2.49,2.49,0,0,0,4,0L27.42,18a1,1,0,0,0-.21-1.39l-2-1.53A2,2,0,0,0,22.83,15.12Z"/><path id="_Path_15" data-name="&lt;Path&gt;" class="cls-9" d="M20.7,18.21c.21-.16,1.9-1.11,2.13-1.24a2.43,2.43,0,0,1,2.34,0c.23.13,1.92,1.08,2.13,1.24l.12-.17a1,1,0,0,0-.21-1.39l-2-1.53a2,2,0,0,0-2.34,0l-2,1.53A1,1,0,0,0,20.58,18Z"/><path id="_Path_16" data-name="&lt;Path&gt;" class="cls-3" d="M22.83,15.12l-2,1.53A1,1,0,0,0,20.58,18L22,20a2.49,2.49,0,0,0,4,0L27.42,18a1,1,0,0,0-.21-1.39l-2-1.53A2,2,0,0,0,22.83,15.12Z"/><path id="_Path_17" data-name="&lt;Path&gt;" class="cls-3" d="M20.39,17.46l.11,0a17,17,0,0,0,3.5,1,17.14,17.14,0,0,0,3.5-1l.11,0"/><circle id="_Path_18" data-name="&lt;Path&gt;" class="cls-10" cx="29.35" cy="11.64" r="1.35"/><circle id="_Path_19" data-name="&lt;Path&gt;" class="cls-10" cx="18.64" cy="11.64" r="1.35"/><path id="_Path_20" data-name="&lt;Path&gt;" class="cls-5" d="M32.78,15.64c0,.55-.73,1-1.64,1s-1.64-.45-1.64-1,.73-1,1.64-1S32.78,15.09,32.78,15.64Z"/><path id="_Path_21" data-name="&lt;Path&gt;" class="cls-5" d="M18.5,15.64c0,.55-.74,1-1.65,1s-1.64-.45-1.64-1,.74-1,1.64-1S18.5,15.09,18.5,15.64Z"/></g></svg>