<svg id="Icons" xmlns="http://www.w3.org/2000/svg" viewBox="0 0 48 48"><defs><style>.cls-1,.cls-9{fill:#45413c;}.cls-1{opacity:0.15;}.cls-2,.cls-8{fill:#ffaa54;}.cls-2,.cls-5,.cls-9{stroke:#45413c;stroke-linecap:round;stroke-linejoin:round;}.cls-3{fill:#ffe500;}.cls-4{fill:#fff48c;}.cls-5{fill:none;}.cls-6{fill:#ebcb00;}.cls-7{fill:#ff8a14;}.cls-10{fill:#ffb0ca;}</style></defs><title>484-baby-chick</title><g id="_Group_" data-name="&lt;Group&gt;"><ellipse id="_Ellipse_" data-name="&lt;Ellipse&gt;" class="cls-1" cx="24" cy="45.5" rx="11.5" ry="1.5"/><path id="_Path_" data-name="&lt;Path&gt;" class="cls-2" d="M32.75,42.16l-2.05-.48-1.07-5.56-2.95.56,1.08,5.57L26,43.45a1.13,1.13,0,0,0,1.27,1.86L29.22,44a1,1,0,0,1,.77-.15l2.27.49a1.12,1.12,0,0,0,.49-2.19Z"/><path id="_Path_2" data-name="&lt;Path&gt;" class="cls-2" d="M15.25,42.16l2.05-.48,1.07-5.56,2.95.56-1.08,5.57L22,43.45a1.13,1.13,0,0,1-1.27,1.86L18.78,44a1,1,0,0,0-.77-.15l-2.27.49a1.12,1.12,0,0,1-.49-2.19Z"/><path id="_Path_3" data-name="&lt;Path&gt;" class="cls-3" d="M29.08,22.93s7.08-4.25,8.5-3.5-.58,8.17-5,10S29.08,22.93,29.08,22.93Z"/><path id="_Path_4" data-name="&lt;Path&gt;" class="cls-3" d="M18.92,22.93s-7.08-4.25-8.5-3.5.58,8.17,5,10S18.92,22.93,18.92,22.93Z"/><path id="_Path_5" data-name="&lt;Path&gt;" class="cls-4" d="M29.08,25.43s7.08-4.25,8.5-3.5a.76.76,0,0,1,.25.28c.32-1.4.25-2.51-.25-2.78-1.42-.75-8.5,3.5-8.5,3.5a17.51,17.51,0,0,0,0,2.9C29.06,25.58,29.08,25.43,29.08,25.43Z"/><path id="_Path_6" data-name="&lt;Path&gt;" class="cls-4" d="M10.42,21.93c1.42-.75,8.5,3.5,8.5,3.5s0,.15,0,.4a17.51,17.51,0,0,0,0-2.9s-7.08-4.25-8.5-3.5c-.5.27-.57,1.38-.25,2.78A.76.76,0,0,1,10.42,21.93Z"/><path id="_Path_7" data-name="&lt;Path&gt;" class="cls-5" d="M29.08,22.93s7.08-4.25,8.5-3.5-.58,8.17-5,10S29.08,22.93,29.08,22.93Z"/><path id="_Path_8" data-name="&lt;Path&gt;" class="cls-5" d="M18.92,22.93s-7.08-4.25-8.5-3.5.58,8.17,5,10S18.92,22.93,18.92,22.93Z"/><ellipse id="_Path_9" data-name="&lt;Path&gt;" class="cls-3" cx="24" cy="30.35" rx="11.5" ry="11.01"/><path id="_Path_10" data-name="&lt;Path&gt;" class="cls-6" d="M24,27.52a12.58,12.58,0,0,0,9.22-3.73,11.78,11.78,0,0,0-18.44,0A12.58,12.58,0,0,0,24,27.52Z"/><ellipse id="_Path_11" data-name="&lt;Path&gt;" class="cls-5" cx="24" cy="30.35" rx="11.5" ry="11.01"/><circle id="_Path_12" data-name="&lt;Path&gt;" class="cls-3" cx="24" cy="13.84" r="10.5"/><path id="_Path_13" data-name="&lt;Path&gt;" class="cls-4" d="M24,6.3a10.48,10.48,0,0,1,10.38,9,10.31,10.31,0,0,0,.12-1.48,10.5,10.5,0,0,0-21,0,10.31,10.31,0,0,0,.12,1.48A10.48,10.48,0,0,1,24,6.3Z"/><circle id="_Path_14" data-name="&lt;Path&gt;" class="cls-5" cx="24" cy="13.84" r="10.5"/><path id="_Path_15" data-name="&lt;Path&gt;" class="cls-7" d="M22.83,16l-2,1.53a1,1,0,0,0-.21,1.39L22,20.82a2.49,2.49,0,0,0,4,0l1.41-1.94a1,1,0,0,0-.21-1.39l-2-1.53A2,2,0,0,0,22.83,16Z"/><path id="_Path_16" data-name="&lt;Path&gt;" class="cls-8" d="M20.7,19.05a.34.34,0,0,1,.09-.08l2-1.16a2.43,2.43,0,0,1,2.34,0l2,1.16a.34.34,0,0,1,.09.08l.12-.17a1,1,0,0,0-.21-1.39l-2-1.53a2,2,0,0,0-2.34,0l-2,1.53a1,1,0,0,0-.21,1.39Z"/><path id="_Path_17" data-name="&lt;Path&gt;" class="cls-5" d="M22.83,16l-2,1.53a1,1,0,0,0-.21,1.39L22,20.82a2.49,2.49,0,0,0,4,0l1.41-1.94a1,1,0,0,0-.21-1.39l-2-1.53A2,2,0,0,0,22.83,16Z"/><path id="_Path_18" data-name="&lt;Path&gt;" class="cls-5" d="M20.5,18.34a17,17,0,0,0,3.5,1,17,17,0,0,0,3.5-1"/><circle id="_Path_19" data-name="&lt;Path&gt;" class="cls-9" cx="29.35" cy="12.49" r="1.36"/><circle id="_Path_20" data-name="&lt;Path&gt;" class="cls-9" cx="18.65" cy="12.49" r="1.36"/><path id="_Path_21" data-name="&lt;Path&gt;" class="cls-10" d="M32.78,16.48c0,.56-.73,1-1.64,1s-1.64-.44-1.64-1,.74-1,1.64-1S32.78,15.93,32.78,16.48Z"/><path id="_Path_22" data-name="&lt;Path&gt;" class="cls-10" d="M18.5,16.48c0,.56-.74,1-1.64,1s-1.64-.44-1.64-1,.73-1,1.64-1S18.5,15.93,18.5,16.48Z"/></g></svg>