<svg id="Icons" xmlns="http://www.w3.org/2000/svg" viewBox="0 0 48 48"><defs><style>.cls-1,.cls-9{fill:#45413c;}.cls-1{opacity:0.15;}.cls-2{fill:#4aeff7;}.cls-3{fill:#a6fbff;}.cls-4{fill:none;}.cls-4,.cls-5,.cls-8,.cls-9{stroke:#45413c;stroke-linecap:round;stroke-linejoin:round;}.cls-5{fill:#ffe500;}.cls-6{fill:#fff48c;}.cls-7{fill:#fffacf;}.cls-8{fill:#fff;}.cls-10{fill:#d9fdff;}</style></defs><title>485-bird-1</title><ellipse id="_Ellipse_" data-name="&lt;Ellipse&gt;" class="cls-1" cx="26.17" cy="45.17" rx="14.04" ry="1.83"/><ellipse id="_Path_" data-name="&lt;Path&gt;" class="cls-2" cx="27.55" cy="21.37" rx="18.31" ry="17.93" transform="translate(0.45 43.31) rotate(-76.8)"/><path id="_Path_2" data-name="&lt;Path&gt;" class="cls-3" d="M10.1,22a17.87,17.87,0,0,1,35.24,1.6A18.08,18.08,0,0,0,31.73,3.55,18.11,18.11,0,0,0,10.1,17.28a18.84,18.84,0,0,0-.34,6.58C9.85,23.26,10,22.65,10.1,22Z"/><ellipse id="_Path_3" data-name="&lt;Path&gt;" class="cls-4" cx="27.55" cy="21.37" rx="18.31" ry="17.93" transform="translate(0.45 43.31) rotate(-76.8)"/><path id="_Path_4" data-name="&lt;Path&gt;" class="cls-5" d="M3.91,25.49s0,6.37,8,6.24c2.93-.19,4.47-7,4.47-7Z"/><path id="_Path_5" data-name="&lt;Path&gt;" class="cls-6" d="M9.82,18.47s-1.87-.19-5,2.59A6.93,6.93,0,0,0,2.19,27s6.58,1.23,9.89.27,4.25-2.52,4.25-2.52S15.73,20.33,9.82,18.47Z"/><path id="_Path_6" data-name="&lt;Path&gt;" class="cls-7" d="M7.06,22.87c3.75-2.94,6.13-2.56,6.13-2.56l.44.16a11.29,11.29,0,0,0-3.81-2s-1.87-.19-5,2.59A6.93,6.93,0,0,0,2.19,27s.82.15,2,.31A7.32,7.32,0,0,1,7.06,22.87Z"/><path id="_Path_7" data-name="&lt;Path&gt;" class="cls-4" d="M9.82,18.47s-1.87-.19-5,2.59A6.93,6.93,0,0,0,2.19,27s6.58,1.23,9.89.27,4.25-2.52,4.25-2.52S15.73,20.33,9.82,18.47Z"/><path id="_Path_8" data-name="&lt;Path&gt;" class="cls-8" d="M24.37,10.59c-1.4-.29-4.4,0-6.15,4.83s-1.06,7.17,1.3,7.83,11.45-.88,12.23-4C32.74,15.22,29.34,11.66,24.37,10.59Z"/><path id="_Path_9" data-name="&lt;Path&gt;" class="cls-9" d="M25.06,17.66a1.83,1.83,0,1,1-1.37-2.21A1.83,1.83,0,0,1,25.06,17.66Z"/><path id="_Path_10" data-name="&lt;Path&gt;" class="cls-10" d="M35.66,26.41c-.28.66-1.47,1.07-2.67.91s-1.93-.81-1.65-1.47,1.47-1.06,2.67-.91S35.94,25.76,35.66,26.41Z"/></svg>