<svg id="Icons" xmlns="http://www.w3.org/2000/svg" viewBox="0 0 48 48"><defs><style>.cls-1{fill:#656769;}.cls-2{fill:#87898c;}.cls-3{fill:none;}.cls-3,.cls-4,.cls-6,.cls-8{stroke:#45413c;stroke-linecap:round;stroke-linejoin:round;}.cls-4{fill:#fff;}.cls-5,.cls-6{fill:#45413c;}.cls-5{opacity:0.15;}.cls-7{fill:#ffaa54;}.cls-8{fill:#ebcb00;}.cls-9{fill:#ffe500;}.cls-10{fill:#fff48c;}</style></defs><title>488-penguin-2</title><g id="_Group_" data-name="&lt;Group&gt;"><circle id="_Path_" data-name="&lt;Path&gt;" class="cls-1" cx="24" cy="22.01" r="18.49"/><path id="_Path_2" data-name="&lt;Path&gt;" class="cls-2" d="M24,7.22A18.5,18.5,0,0,1,42.4,23.86c.06-.61.09-1.23.09-1.85a18.49,18.49,0,0,0-37,0c0,.62,0,1.24.09,1.85A18.5,18.5,0,0,1,24,7.22Z"/><circle id="_Path_3" data-name="&lt;Path&gt;" class="cls-3" cx="24" cy="22.01" r="18.49"/><path id="_Path_4" data-name="&lt;Path&gt;" class="cls-4" d="M39,32.78a18.49,18.49,0,0,1-30,0,22.06,22.06,0,0,1-.83-6c0-7.59,3.66-13.21,8.19-13.21,3.52,0,6.47,1.46,7.66,5.81,1.19-4.29,4.15-5.81,7.66-5.81,4.52,0,8.18,5.62,8.18,13.21A21.62,21.62,0,0,1,39,32.78Z"/><ellipse id="_Ellipse_" data-name="&lt;Ellipse&gt;" class="cls-5" cx="24" cy="45.42" rx="12.15" ry="1.58"/><circle id="_Path_5" data-name="&lt;Path&gt;" class="cls-6" cx="32.45" cy="21.48" r="1.58"/><circle id="_Path_6" data-name="&lt;Path&gt;" class="cls-6" cx="15.55" cy="21.48" r="1.58"/><path id="_Path_7" data-name="&lt;Path&gt;" class="cls-7" d="M38.41,27.1c0,.55-.86,1-1.92,1s-1.92-.45-1.92-1,.86-1,1.92-1S38.41,26.55,38.41,27.1Z"/><path id="_Path_8" data-name="&lt;Path&gt;" class="cls-7" d="M13.43,27.1c0,.55-.86,1-1.92,1s-1.92-.45-1.92-1,.86-1,1.92-1S13.43,26.55,13.43,27.1Z"/><path id="_Path_9" data-name="&lt;Path&gt;" class="cls-8" d="M28.23,30.36a4.23,4.23,0,1,1-8.46,0,6.48,6.48,0,0,1,8.46,0Z"/><path id="_Path_10" data-name="&lt;Path&gt;" class="cls-9" d="M28.37,30.3a1.05,1.05,0,0,0,.37-.85c-.2-3-2.25-5.33-4.74-5.33s-4.54,2.35-4.74,5.33a1.05,1.05,0,0,0,.37.85A6.86,6.86,0,0,0,24,32.05,6.86,6.86,0,0,0,28.37,30.3Z"/><path id="_Path_11" data-name="&lt;Path&gt;" class="cls-10" d="M19.64,30.31A4.83,4.83,0,0,1,24,26.77a4.83,4.83,0,0,1,4.36,3.54h0a1.05,1.05,0,0,0,.37-.85c-.2-3-2.25-5.33-4.74-5.33s-4.54,2.35-4.74,5.33a1.05,1.05,0,0,0,.37.85Z"/><path id="_Path_12" data-name="&lt;Path&gt;" class="cls-3" d="M28.37,30.3a1.05,1.05,0,0,0,.37-.85c-.2-3-2.25-5.33-4.74-5.33s-4.54,2.35-4.74,5.33a1.05,1.05,0,0,0,.37.85A6.86,6.86,0,0,0,24,32.05,6.86,6.86,0,0,0,28.37,30.3Z"/></g></svg>