<svg id="Icons" xmlns="http://www.w3.org/2000/svg" viewBox="0 0 48 48"><defs><style>.cls-1,.cls-9{fill:#45413c;}.cls-1{opacity:0.15;}.cls-2{fill:#6dd627;}.cls-3{fill:#9ceb60;}.cls-4{fill:none;}.cls-4,.cls-6,.cls-9{stroke:#45413c;stroke-linecap:round;stroke-linejoin:round;}.cls-5{fill:#c8ffa1;}.cls-6,.cls-7{fill:#fff;}.cls-8{fill:#f0f0f0;}</style></defs><title>489-frog-face</title><ellipse id="_Ellipse_" data-name="&lt;Ellipse&gt;" class="cls-1" cx="24" cy="44.5" rx="11.5" ry="1.5"/><path id="_Path_" data-name="&lt;Path&gt;" class="cls-2" d="M37.3,21.87V15.8h0A7.22,7.22,0,0,0,24,12.17,7.22,7.22,0,0,0,10.72,15.8h0v6.07c-3.21,1.87-5.2,4.41-5.2,7.22C5.5,34.84,13.78,39.5,24,39.5s18.5-4.66,18.5-10.41C42.5,26.28,40.51,23.74,37.3,21.87Z"/><path id="_Path_2" data-name="&lt;Path&gt;" class="cls-3" d="M17.93,11.75a7.16,7.16,0,0,1,4.94,2,1.64,1.64,0,0,0,2.26,0,7.21,7.21,0,0,1,12.15,5h0V15.8h0A7.22,7.22,0,0,0,24,12.17,7.22,7.22,0,0,0,10.72,15.8h0v2.89h0A7.22,7.22,0,0,1,17.93,11.75Z"/><path id="_Path_3" data-name="&lt;Path&gt;" class="cls-4" d="M37.3,21.87V15.8h0A7.22,7.22,0,0,0,24,12.17,7.22,7.22,0,0,0,10.72,15.8h0v6.07c-3.21,1.87-5.2,4.41-5.2,7.22C5.5,34.84,13.78,39.5,24,39.5s18.5-4.66,18.5-10.41C42.5,26.28,40.51,23.74,37.3,21.87Z"/><path id="_Path_4" data-name="&lt;Path&gt;" class="cls-4" d="M11.28,30.83S13,34.88,24,34.88s12.72-4.05,12.72-4.05"/><path id="_Path_5" data-name="&lt;Path&gt;" class="cls-5" d="M38.5,26.61a1.82,1.82,0,1,1-1.82-1.82A1.81,1.81,0,0,1,38.5,26.61Z"/><path id="_Path_6" data-name="&lt;Path&gt;" class="cls-5" d="M13.14,26.61a1.82,1.82,0,1,1-1.82-1.82A1.82,1.82,0,0,1,13.14,26.61Z"/><path id="_Path_7" data-name="&lt;Path&gt;" class="cls-6" d="M20.53,26.78a3.37,3.37,0,0,1,2.31,2.31"/><path id="_Path_8" data-name="&lt;Path&gt;" class="cls-6" d="M27.47,26.78a3.37,3.37,0,0,0-2.31,2.31"/><path class="cls-7" d="M18,11.75a4.34,4.34,0,0,0-4.34,4.34V18.4a4.34,4.34,0,0,0,8.68,0V16.09A4.34,4.34,0,0,0,18,11.75Z"/><path class="cls-8" d="M18,11.75a4.34,4.34,0,0,0-4.34,4.34v1.68a4.34,4.34,0,0,1,8.68,0V16.09A4.34,4.34,0,0,0,18,11.75Z"/><circle id="_Path_9" data-name="&lt;Path&gt;" class="cls-9" cx="18" cy="17.93" r="1.5"/><path class="cls-4" d="M18,11.75a4.34,4.34,0,0,0-4.34,4.34V18.4a4.34,4.34,0,0,0,8.68,0V16.09A4.34,4.34,0,0,0,18,11.75Z"/><path class="cls-7" d="M30,11.75a4.34,4.34,0,0,1,4.34,4.34V18.4a4.34,4.34,0,0,1-8.68,0V16.09A4.34,4.34,0,0,1,30,11.75Z"/><path class="cls-8" d="M30,11.75a4.34,4.34,0,0,1,4.34,4.34v1.68a4.34,4.34,0,0,0-8.68,0V16.09A4.34,4.34,0,0,1,30,11.75Z"/><circle id="_Path_10" data-name="&lt;Path&gt;" class="cls-9" cx="30" cy="17.93" r="1.5"/><path class="cls-4" d="M30,11.75a4.34,4.34,0,0,1,4.34,4.34V18.4a4.34,4.34,0,0,1-8.68,0V16.09A4.34,4.34,0,0,1,30,11.75Z"/></svg>