<svg id="Icons" xmlns="http://www.w3.org/2000/svg" viewBox="0 0 48 48"><defs><style>.cls-1,.cls-11{fill:#fff48c;}.cls-2{fill:#fffacf;}.cls-3{fill:none;}.cls-11,.cls-3,.cls-7,.cls-8{stroke:#45413c;stroke-linecap:round;stroke-linejoin:round;}.cls-4,.cls-7{fill:#45413c;}.cls-4{opacity:0.15;}.cls-5{fill:#debb7e;}.cls-6{fill:#f0d5a8;}.cls-8{fill:#fff5e3;}.cls-9{fill:#f0c2a1;}.cls-10{fill:#ffe3cf;}.cls-12{fill:#fcd;}</style></defs><title>496-blowfish</title><g id="_Group_" data-name="&lt;Group&gt;"><path id="_Path_" data-name="&lt;Path&gt;" class="cls-1" d="M34.41,6.65c1.28,1.57.64,4.21-1.43,5.9s-4.78,1.77-6.06.2-.64-4.21,1.43-5.89S33.14,5.08,34.41,6.65Z"/><path id="_Path_2" data-name="&lt;Path&gt;" class="cls-2" d="M28.35,8.4c2.07-1.68,4.79-1.78,6.06-.2A2.82,2.82,0,0,1,35,9.39a3.21,3.21,0,0,0-.58-2.74c-1.27-1.57-4-1.48-6.06.21a5,5,0,0,0-2,4.7A5.65,5.65,0,0,1,28.35,8.4Z"/><path id="_Path_3" data-name="&lt;Path&gt;" class="cls-3" d="M34.41,6.65c1.28,1.57.64,4.21-1.43,5.9s-4.78,1.77-6.06.2-.64-4.21,1.43-5.89S33.14,5.08,34.41,6.65Z"/><path id="_Path_4" data-name="&lt;Path&gt;" class="cls-1" d="M47.5,21.73c0,4.33-2,7.85-4.5,7.85s-9.5-3.52-9.5-7.85,7-7.86,9.5-7.86S47.5,17.39,47.5,21.73Z"/><path id="_Path_5" data-name="&lt;Path&gt;" class="cls-2" d="M43,16.56c2.22,0,4.07,2.81,4.43,6.51a11.9,11.9,0,0,0,.07-1.34c0-4.34-2-7.86-4.5-7.86s-9.5,3.52-9.5,7.86a4.42,4.42,0,0,0,.22,1.34C34.93,19.37,40.78,16.56,43,16.56Z"/><path id="_Path_6" data-name="&lt;Path&gt;" class="cls-3" d="M47.5,21.73c0,4.33-2,7.85-4.5,7.85s-9.5-3.52-9.5-7.85,7-7.86,9.5-7.86S47.5,17.39,47.5,21.73Z"/><ellipse id="_Ellipse_" data-name="&lt;Ellipse&gt;" class="cls-4" cx="22.78" cy="45.5" rx="16.5" ry="1.5"/><path id="_Path_7" data-name="&lt;Path&gt;" class="cls-5" d="M36.64,17.72c0-4.56-6.26-9.87-15.87-10C11.79,7.51,4,14.46,3.92,23.44c-.16,11.4,11.61,20.11,23.63,14.45a14.09,14.09,0,0,0,8.32-11.71c.18-2.44-.47-4.75.48-7A3.68,3.68,0,0,0,36.64,17.72Z"/><g id="_Group_2" data-name="&lt;Group&gt;"><path id="_Path_8" data-name="&lt;Path&gt;" class="cls-6" d="M20.77,10.49c8.55.15,14.45,4.37,15.64,8.52a3.69,3.69,0,0,0,.23-1.29c0-4.56-6.26-9.87-15.87-10C11.79,7.51,4,14.46,3.92,23.44A14.89,14.89,0,0,0,4,25.08C4.73,16.67,12.18,10.33,20.77,10.49Z"/><path id="_Path_9" data-name="&lt;Path&gt;" class="cls-6" d="M35.85,26.37a1.37,1.37,0,0,0,0-.19,18.77,18.77,0,0,0,0-2.25A18,18,0,0,0,35.85,26.37Z"/></g><path id="_Path_10" data-name="&lt;Path&gt;" class="cls-3" d="M36.64,17.72c0-4.56-6.26-9.87-15.87-10C11.79,7.51,4,14.46,3.92,23.44c-.16,11.4,11.61,20.11,23.63,14.45a14.09,14.09,0,0,0,8.32-11.71c.18-2.44-.47-4.75.48-7A3.68,3.68,0,0,0,36.64,17.72Z"/><circle id="_Path_11" data-name="&lt;Path&gt;" class="cls-7" cx="11.96" cy="15.46" r="1.12"/><path id="_Path_12" data-name="&lt;Path&gt;" class="cls-8" d="M35.87,26.18c.13-1.69-.53-3.45,0-5-6.47-1.74-12.43-1.23-17.35-.54C15.42,17.91,10.1,19,8.86,23.24c-2.78.5-3.54,2.13-4.64,3.55C6.13,36.45,16.74,43,27.55,37.89A14.08,14.08,0,0,0,35.87,26.18Z"/><path id="_Path_13" data-name="&lt;Path&gt;" class="cls-9" d="M3.29,27.47a2.12,2.12,0,0,1,0-4.23,2.12,2.12,0,0,1,0-4.23H4.63a4.23,4.23,0,1,1,0,8.46Z"/><g id="_Group_3" data-name="&lt;Group&gt;"><path id="_Path_14" data-name="&lt;Path&gt;" class="cls-10" d="M3.29,20.92H4.63a4.23,4.23,0,0,1,4.12,3.27,3.69,3.69,0,0,0,.11-1A4.23,4.23,0,0,0,4.63,19H3.29a2.1,2.1,0,0,0-2.11,2.11,2.18,2.18,0,0,0,.22,1A2.12,2.12,0,0,1,3.29,20.92Z"/></g><path id="_Path_15" data-name="&lt;Path&gt;" class="cls-3" d="M3.29,27.47a2.12,2.12,0,0,1,0-4.23,2.12,2.12,0,0,1,0-4.23H4.63a4.23,4.23,0,1,1,0,8.46Z"/><line id="_Path_16" data-name="&lt;Path&gt;" class="cls-3" x1="3.29" y1="23.24" x2="5.72" y2="23.24"/><path id="_Path_17" data-name="&lt;Path&gt;" class="cls-11" d="M18.92,20.73c0,1.54,3.15,2.79,3.69,2.79s1.54-1.25,1.54-2.79-1-2.79-1.54-2.79S18.92,19.19,18.92,20.73Z"/><line id="_Path_18" data-name="&lt;Path&gt;" class="cls-3" x1="6.31" y1="32.08" x2="5.02" y2="33.41"/><line id="_Path_19" data-name="&lt;Path&gt;" class="cls-3" x1="12.42" y1="37.8" x2="11.54" y2="39.66"/><line id="_Path_20" data-name="&lt;Path&gt;" class="cls-3" x1="22.78" y1="39.41" x2="23.04" y2="41.41"/><line id="_Path_21" data-name="&lt;Path&gt;" class="cls-3" x1="31.87" y1="34.86" x2="33.5" y2="36.35"/><line id="_Path_22" data-name="&lt;Path&gt;" class="cls-3" x1="34.84" y1="30.5" x2="36.95" y2="31.29"/><line id="_Path_23" data-name="&lt;Path&gt;" class="cls-3" x1="7.84" y1="13.34" x2="6.31" y2="12.16"/><line id="_Path_24" data-name="&lt;Path&gt;" class="cls-3" x1="16.62" y1="8.11" x2="16.29" y2="6.04"/><line id="_Path_25" data-name="&lt;Path&gt;" class="cls-3" x1="24.79" y1="8.05" x2="25.17" y2="6.04"/><line id="_Path_26" data-name="&lt;Path&gt;" class="cls-3" x1="35.98" y1="20.37" x2="43" y2="19.14"/><line id="_Path_27" data-name="&lt;Path&gt;" class="cls-3" x1="36.49" y1="22.74" x2="42.62" y2="24.41"/><path id="_Path_28" data-name="&lt;Path&gt;" class="cls-12" d="M13.08,22.33a1.19,1.19,0,0,0,2.38,0,1.19,1.19,0,0,0-2.38,0Z"/><line id="_Path_29" data-name="&lt;Path&gt;" class="cls-3" x1="30.42" y1="9.93" x2="32.35" y2="8.11"/><line id="_Path_30" data-name="&lt;Path&gt;" class="cls-3" x1="18.92" y1="20.73" x2="21.53" y2="20.73"/></g></svg>