<svg id="Icons" xmlns="http://www.w3.org/2000/svg" viewBox="0 0 48 48"><defs><style>.cls-1,.cls-13{fill:#dea47a;}.cls-1,.cls-4{stroke:#45413c;stroke-linecap:round;stroke-linejoin:round;}.cls-2{fill:#87898c;}.cls-3{fill:#bdbec0;}.cls-4{fill:none;}.cls-5,.cls-9{fill:#45413c;}.cls-5{opacity:0.15;}.cls-6{fill:#9ceb60;}.cls-7{fill:#c8ffa1;}.cls-8{fill:#6dd627;}.cls-10{fill:#46b000;}.cls-11{fill:#ffaa54;}.cls-12{fill:#fc9;}.cls-14{fill:#f0c2a1;}</style></defs><title>500-bug</title><g id="_Group_" data-name="&lt;Group&gt;"><path id="_Path_" data-name="&lt;Path&gt;" class="cls-1" d="M47.21,24.54c-.44,1.41-1.44,2.35-2.23,2.1s-1.07-1.6-.63-3,1.45-2.35,2.24-2.1S47.66,23.13,47.21,24.54Z"/><path id="_Path_2" data-name="&lt;Path&gt;" class="cls-2" d="M14.58,6.12A9.15,9.15,0,0,1,22,.65C26.88.2,28,3,26.57,4.66c-1.82,2.06-5-3.15-9.93,1.73C14.53,8.5,14.58,6.12,14.58,6.12Z"/><path id="_Path_3" data-name="&lt;Path&gt;" class="cls-2" d="M15.64,6.12A9.15,9.15,0,0,0,8.26.65C3.34.2,2.18,3,3.65,4.66c1.82,2.06,5-3.15,9.93,1.73C15.69,8.5,15.64,6.12,15.64,6.12Z"/><path id="_Path_4" data-name="&lt;Path&gt;" class="cls-3" d="M15,7.21A8.93,8.93,0,0,1,22,2.61c2.79-.26,4.37.53,4.95,1.56C27.79,2.5,26.43.24,22,.65a9.15,9.15,0,0,0-7.38,5.47S14.56,7,15,7.21Z"/><path id="_Path_5" data-name="&lt;Path&gt;" class="cls-3" d="M8.26,2.61a8.93,8.93,0,0,1,6.94,4.6c.46-.23.44-1.09.44-1.09A9.15,9.15,0,0,0,8.26.65C3.79.24,2.43,2.5,3.31,4.17,3.89,3.14,5.47,2.35,8.26,2.61Z"/><path id="_Path_6" data-name="&lt;Path&gt;" class="cls-4" d="M14.58,6.12A9.15,9.15,0,0,1,22,.65C26.88.2,28,3,26.57,4.66c-1.82,2.06-5-3.15-9.93,1.73C14.53,8.5,14.58,6.12,14.58,6.12Z"/><path id="_Path_7" data-name="&lt;Path&gt;" class="cls-4" d="M15.64,6.12A9.15,9.15,0,0,0,8.26.65C3.34.2,2.18,3,3.65,4.66c1.82,2.06,5-3.15,9.93,1.73C15.69,8.5,15.64,6.12,15.64,6.12Z"/><ellipse id="_Ellipse_" data-name="&lt;Ellipse&gt;" class="cls-5" cx="24" cy="45.5" rx="19" ry="1.5"/><circle id="_Path_8" data-name="&lt;Path&gt;" class="cls-6" cx="41.89" cy="28.75" r="4.75"/><path id="_Path_9" data-name="&lt;Path&gt;" class="cls-7" d="M41.89,26.28a4.75,4.75,0,0,1,4.6,3.61,4.75,4.75,0,1,0-9.2,0A4.75,4.75,0,0,1,41.89,26.28Z"/><circle id="_Path_10" data-name="&lt;Path&gt;" class="cls-4" cx="41.89" cy="28.75" r="4.75"/><circle id="_Path_11" data-name="&lt;Path&gt;" class="cls-6" cx="36.39" cy="32.75" r="6.75"/><path id="_Path_12" data-name="&lt;Path&gt;" class="cls-7" d="M36.39,28.14a6.75,6.75,0,0,1,6.66,5.68,7.47,7.47,0,0,0,.09-1.07,6.75,6.75,0,0,0-13.5,0,7.47,7.47,0,0,0,.09,1.07A6.75,6.75,0,0,1,36.39,28.14Z"/><circle id="_Path_13" data-name="&lt;Path&gt;" class="cls-4" cx="36.39" cy="32.75" r="6.75"/><circle id="_Path_14" data-name="&lt;Path&gt;" class="cls-6" cx="28.14" cy="33.5" r="8.5"/><path id="_Path_15" data-name="&lt;Path&gt;" class="cls-7" d="M28.14,27.5a8.5,8.5,0,0,1,8.4,7.25,8.5,8.5,0,1,0-16.8,0A8.5,8.5,0,0,1,28.14,27.5Z"/><circle id="_Path_16" data-name="&lt;Path&gt;" class="cls-4" cx="28.14" cy="33.5" r="8.5"/><circle id="_Path_17" data-name="&lt;Path&gt;" class="cls-6" cx="20.14" cy="33.5" r="8.5"/><path id="_Path_18" data-name="&lt;Path&gt;" class="cls-8" d="M11.64,33.5a8.51,8.51,0,0,0,.27,2.1,8.49,8.49,0,0,0,14-6.43,8.65,8.65,0,0,0-.27-2.11,8.49,8.49,0,0,0-14,6.44Z"/><circle id="_Path_19" data-name="&lt;Path&gt;" class="cls-4" cx="20.14" cy="33.5" r="8.5"/><circle id="_Path_20" data-name="&lt;Path&gt;" class="cls-6" cx="16.14" cy="26" r="8.5"/><path id="_Path_21" data-name="&lt;Path&gt;" class="cls-8" d="M7.66,25.57a8.49,8.49,0,0,0,16.09-3.35A8.49,8.49,0,0,0,7.66,25.57Z"/><circle id="_Path_22" data-name="&lt;Path&gt;" class="cls-4" cx="16.14" cy="26" r="8.5"/><circle id="_Path_23" data-name="&lt;Path&gt;" class="cls-6" cx="14.14" cy="16" r="10.5"/><path id="_Path_24" data-name="&lt;Path&gt;" class="cls-7" d="M14.14,9a10.49,10.49,0,0,1,10.34,8.75A10.08,10.08,0,0,0,24.64,16a10.5,10.5,0,0,0-21,0,10.08,10.08,0,0,0,.16,1.75A10.49,10.49,0,0,1,14.14,9Z"/><circle id="_Path_25" data-name="&lt;Path&gt;" class="cls-4" cx="14.14" cy="16" r="10.5"/><path id="_Path_26" data-name="&lt;Path&gt;" class="cls-2" d="M13.88,29.36c1.15,1.72,1,3.86-.4,4.79s-3.43.28-4.58-1.44-1-3.86.4-4.79S12.73,27.64,13.88,29.36Z"/><path id="_Path_27" data-name="&lt;Path&gt;" class="cls-3" d="M9.3,29.92c1.37-.92,3.43-.28,4.58,1.44a4.6,4.6,0,0,1,.62,1.36,4.07,4.07,0,0,0-.62-3.36C12.73,27.64,10.67,27,9.3,27.92a3.06,3.06,0,0,0-1,3.43A2.55,2.55,0,0,1,9.3,29.92Z"/><path id="_Path_28" data-name="&lt;Path&gt;" class="cls-4" d="M13.88,29.36c1.15,1.72,1,3.86-.4,4.79s-3.43.28-4.58-1.44-1-3.86.4-4.79S12.73,27.64,13.88,29.36Z"/><path id="_Path_29" data-name="&lt;Path&gt;" class="cls-2" d="M18.86,37.23c2,.62,3.17,2.41,2.67,4S19,43.57,17.05,43s-3.17-2.42-2.67-4S16.89,36.6,18.86,37.23Z"/><path id="_Path_30" data-name="&lt;Path&gt;" class="cls-3" d="M18.86,39.24a4.05,4.05,0,0,1,2.57,2.23,1.86,1.86,0,0,0,.1-.25c.5-1.58-.7-3.37-2.67-4s-4,.14-4.48,1.72a2.57,2.57,0,0,0,.09,1.77C15.09,39.31,17,38.65,18.86,39.24Z"/><path id="_Path_31" data-name="&lt;Path&gt;" class="cls-4" d="M18.86,37.23c2,.62,3.17,2.41,2.67,4S19,43.57,17.05,43s-3.17-2.42-2.67-4S16.89,36.6,18.86,37.23Z"/><path id="_Path_32" data-name="&lt;Path&gt;" class="cls-2" d="M31.12,37.2c2-.56,4,.27,4.43,1.87s-.8,3.34-2.79,3.9-4-.27-4.43-1.86S29.13,37.77,31.12,37.2Z"/><path id="_Path_33" data-name="&lt;Path&gt;" class="cls-3" d="M28.45,41.43a4,4,0,0,1,2.67-2.23c1.86-.52,3.71.17,4.31,1.55a2.5,2.5,0,0,0,.12-1.68c-.45-1.6-2.43-2.43-4.43-1.87s-3.24,2.32-2.79,3.91A1.75,1.75,0,0,0,28.45,41.43Z"/><path id="_Path_34" data-name="&lt;Path&gt;" class="cls-4" d="M31.12,37.2c2-.56,4,.27,4.43,1.87s-.8,3.34-2.79,3.9-4-.27-4.43-1.86S29.13,37.77,31.12,37.2Z"/><path id="_Path_35" data-name="&lt;Path&gt;" class="cls-9" d="M12.61,13.34a1.76,1.76,0,1,1-1.31-2.12A1.77,1.77,0,0,1,12.61,13.34Z"/><path id="_Path_36" data-name="&lt;Path&gt;" class="cls-10" d="M15.63,18.46a2.1,2.1,0,0,1-2.13.75c-.95-.13-1.53-.67-1.31-1.21s1.17-.87,2.12-.74S15.85,17.92,15.63,18.46Z"/><path id="_Path_37" data-name="&lt;Path&gt;" class="cls-11" d="M4.14,13.5a4.68,4.68,0,0,0-2.5,5c.5,3.25,4,3.5,4,3.5s2.25-.14,2.5-3C8.45,15.5,4.14,13.5,4.14,13.5Z"/><path id="_Path_38" data-name="&lt;Path&gt;" class="cls-12" d="M1.68,18.66v-.07a2.93,2.93,0,0,1,5-1.27A5.25,5.25,0,0,1,8,19.67,4.46,4.46,0,0,0,8.14,19c.31-3.5-4-5.5-4-5.5a4.68,4.68,0,0,0-2.5,5C1.65,18.56,1.67,18.6,1.68,18.66Z"/><path id="_Path_39" data-name="&lt;Path&gt;" class="cls-4" d="M4.14,13.5a4.68,4.68,0,0,0-2.5,5c.5,3.25,4,3.5,4,3.5s2.25-.14,2.5-3C8.45,15.5,4.14,13.5,4.14,13.5Z"/><path id="_Path_40" data-name="&lt;Path&gt;" class="cls-4" d="M1.64,18.5a8.24,8.24,0,0,0,6.5,0"/><path id="_Path_41" data-name="&lt;Path&gt;" class="cls-13" d="M11.13,30.9c-1.21-1.89-2.26-.33-4.05.36s-1.81,2.31,1,3C11.18,35,12.44,33,11.13,30.9Z"/><path id="_Path_42" data-name="&lt;Path&gt;" class="cls-14" d="M7.08,32.87c1.79-.69,2.84-2.25,4.05-.36a3.72,3.72,0,0,1,.35.73,2.51,2.51,0,0,0-.35-2.34c-1.21-1.89-2.26-.33-4.05.36-1.31.5-1.67,1.39-.88,2.13A2.8,2.8,0,0,1,7.08,32.87Z"/><path id="_Path_43" data-name="&lt;Path&gt;" class="cls-4" d="M11.13,30.9c-1.21-1.89-2.26-.33-4.05.36s-1.81,2.31,1,3C11.18,35,12.44,33,11.13,30.9Z"/><path id="_Path_44" data-name="&lt;Path&gt;" class="cls-13" d="M17.13,39.93c-2.24,0-1.46,1.76-1.8,3.64s1,2.75,3.08.71C20.67,42,19.57,39.89,17.13,39.93Z"/><path id="_Path_45" data-name="&lt;Path&gt;" class="cls-14" d="M16.44,42c1.42,0,2.38.68,2.51,1.71,1.51-2,.4-3.78-1.82-3.74-1.66,0-1.66,1-1.69,2.24A2.19,2.19,0,0,1,16.44,42Z"/><path id="_Path_46" data-name="&lt;Path&gt;" class="cls-4" d="M17.13,39.93c-2.24,0-1.46,1.76-1.8,3.64s1,2.75,3.08.71C20.67,42,19.57,39.89,17.13,39.93Z"/><path id="_Path_47" data-name="&lt;Path&gt;" class="cls-13" d="M31.38,41c-1.35,1.79.48,2.22,1.75,3.66s2.8.88,2.46-2C35.21,39.53,32.85,39.08,31.38,41Z"/><path id="_Path_48" data-name="&lt;Path&gt;" class="cls-14" d="M31.37,42.75c1.46-1.93,3.78-1.51,4.2,1.55a5.22,5.22,0,0,0,0-1.6c-.38-3.17-2.74-3.62-4.22-1.67-.65.87-.55,1.42-.14,1.92Z"/><path id="_Path_49" data-name="&lt;Path&gt;" class="cls-4" d="M31.38,41c-1.35,1.79.48,2.22,1.75,3.66s2.8.88,2.46-2C35.21,39.53,32.85,39.08,31.38,41Z"/><path id="_Path_50" data-name="&lt;Path&gt;" class="cls-2" d="M39.54,35.52c1.37-.94,3.08-.81,3.82.29a2.75,2.75,0,0,1-1.12,3.66,2.75,2.75,0,0,1-3.82-.29A2.75,2.75,0,0,1,39.54,35.52Z"/><path id="_Path_51" data-name="&lt;Path&gt;" class="cls-3" d="M39.54,37.16c1.37-.93,3.08-.8,3.82.29a2.09,2.09,0,0,1,.19.36,2.19,2.19,0,0,0-.19-2c-.74-1.1-2.45-1.23-3.82-.29a2.87,2.87,0,0,0-1.31,3.3A3.46,3.46,0,0,1,39.54,37.16Z"/><path id="_Path_52" data-name="&lt;Path&gt;" class="cls-4" d="M39.54,35.52c1.37-.94,3.08-.81,3.82.29a2.75,2.75,0,0,1-1.12,3.66,2.75,2.75,0,0,1-3.82-.29A2.75,2.75,0,0,1,39.54,35.52Z"/><path id="_Path_53" data-name="&lt;Path&gt;" class="cls-13" d="M40.32,38.27c-.75,1.62.75,1.66,2,2.56s2.34.22,1.58-2C43.06,36.47,41.14,36.51,40.32,38.27Z"/><path id="_Path_54" data-name="&lt;Path&gt;" class="cls-14" d="M40.32,39.57c.82-1.77,2.74-1.81,3.56.59a6,6,0,0,1,.17.58,2.92,2.92,0,0,0-.17-1.87c-.82-2.4-2.74-2.36-3.56-.6-.29.63-.24,1,0,1.31Z"/><path id="_Path_55" data-name="&lt;Path&gt;" class="cls-4" d="M40.32,38.27c-.75,1.62.75,1.66,2,2.56s2.34.22,1.58-2C43.06,36.47,41.14,36.51,40.32,38.27Z"/></g></svg>