<svg id="Icons" xmlns="http://www.w3.org/2000/svg" viewBox="0 0 48 48"><defs><style>.cls-1{fill:#45413c;opacity:0.15;}.cls-2{fill:#6dd627;}.cls-3{fill:#46b000;}.cls-4{fill:none;stroke:#45413c;stroke-linecap:round;stroke-linejoin:round;}.cls-5{fill:#ffe500;}.cls-6{fill:#ebcb00;}.cls-7{fill:#fff48c;}.cls-8{fill:#fffacf;}.cls-9{fill:#ff8a14;}.cls-10{fill:#ffaa54;}</style></defs><title>509-blossom</title><g id="_Group_" data-name="&lt;Group&gt;"><ellipse id="_Ellipse_" data-name="&lt;Ellipse&gt;" class="cls-1" cx="24" cy="45.5" rx="14.5" ry="1.5"/><path id="_Path_" data-name="&lt;Path&gt;" class="cls-2" d="M29.93,37.79a8,8,0,0,0-4.39,4.31V34.24H22.46V42.1a8.06,8.06,0,0,0-12.37-3.2,8.06,8.06,0,0,0,12.37,5.65h3.08A8.06,8.06,0,0,0,37.91,38.9,8,8,0,0,0,29.93,37.79Z"/><g id="_Group_2" data-name="&lt;Group&gt;"><path id="_Path_2" data-name="&lt;Path&gt;" class="cls-3" d="M25.54,42.1a20,20,0,0,1,4.39-2.31,8.05,8.05,0,0,1,7.56.8,8,8,0,0,0,.42-1.69,8.06,8.06,0,0,0-12.37,3.2Z"/><rect id="_Path_3" data-name="&lt;Path&gt;" class="cls-3" x="22.46" y="34.24" width="3.08" height="5.16"/><path id="_Path_4" data-name="&lt;Path&gt;" class="cls-3" d="M18.07,39.79a21.8,21.8,0,0,1,4.39,2.31h0a8.06,8.06,0,0,0-12.37-3.2,8,8,0,0,0,.42,1.69A8.05,8.05,0,0,1,18.07,39.79Z"/></g><path id="_Path_5" data-name="&lt;Path&gt;" class="cls-4" d="M29.93,37.79a8,8,0,0,0-4.39,4.31V34.24H22.46V42.1a8.06,8.06,0,0,0-12.37-3.2,8.06,8.06,0,0,0,12.37,5.65h3.08A8.06,8.06,0,0,0,37.91,38.9,8,8,0,0,0,29.93,37.79Z"/><path id="_Path_6" data-name="&lt;Path&gt;" class="cls-5" d="M18.54,6.41c2.55,2.55,5.64,8.92,3.62,11s-8.39-1.07-10.95-3.63S8.9,8.14,10.92,6.11,16,3.86,18.54,6.41Z"/><path id="_Path_7" data-name="&lt;Path&gt;" class="cls-5" d="M36.79,24.66C34.23,22.11,27.86,19,25.84,21S26.91,29.43,29.46,32s5.6,2.32,7.62.3S39.34,27.21,36.79,24.66Z"/><path id="_Path_8" data-name="&lt;Path&gt;" class="cls-6" d="M38.28,26.85a6.57,6.57,0,0,0-1.49-2.19c-2.15-2.15-7-4.67-9.69-4.22a2.28,2.28,0,0,0-.5,1.36c0,2.86,6.69,5.18,10.3,5.18A7.52,7.52,0,0,0,38.28,26.85Z"/><path id="_Path_9" data-name="&lt;Path&gt;" class="cls-5" d="M11.21,24.66c2.56-2.55,8.93-5.65,11-3.62S21.09,29.43,18.54,32s-5.6,2.32-7.62.3S8.66,27.21,11.21,24.66Z"/><path id="_Path_10" data-name="&lt;Path&gt;" class="cls-6" d="M11.1,27c3.61,0,10.3-2.32,10.3-5.18a2.28,2.28,0,0,0-.5-1.36c-2.69-.45-7.54,2.07-9.69,4.22a6.57,6.57,0,0,0-1.49,2.19A7.52,7.52,0,0,0,11.1,27Z"/><path id="_Path_11" data-name="&lt;Path&gt;" class="cls-4" d="M36.79,24.66C34.23,22.11,27.86,19,25.84,21S26.91,29.43,29.46,32s5.6,2.32,7.62.3S39.34,27.21,36.79,24.66Z"/><path id="_Path_12" data-name="&lt;Path&gt;" class="cls-4" d="M11.21,24.66c2.56-2.55,8.93-5.65,11-3.62S21.09,29.43,18.54,32s-5.6,2.32-7.62.3S8.66,27.21,11.21,24.66Z"/><path id="_Path_13" data-name="&lt;Path&gt;" class="cls-5" d="M29.46,6.41c-2.55,2.55-5.64,8.92-3.62,11s8.39-1.07,11-3.63,2.31-5.59.29-7.62S32,3.86,29.46,6.41Z"/><path id="_Path_14" data-name="&lt;Path&gt;" class="cls-7" d="M10.92,8.86c2-2,5.06-2.26,7.62.29a17.65,17.65,0,0,1,4.08,7.47c.94-2.54-1.79-7.92-4.08-10.21-2.56-2.55-5.6-2.32-7.62-.3a4.92,4.92,0,0,0-1.36,5A5.23,5.23,0,0,1,10.92,8.86Z"/><path id="_Path_15" data-name="&lt;Path&gt;" class="cls-7" d="M29.46,9.15c2.56-2.55,5.6-2.32,7.62-.29a5.23,5.23,0,0,1,1.36,2.22,4.92,4.92,0,0,0-1.36-5c-2-2-5.06-2.25-7.62.3-2.29,2.29-5,7.67-4.08,10.21A17.65,17.65,0,0,1,29.46,9.15Z"/><path id="_Path_16" data-name="&lt;Path&gt;" class="cls-4" d="M18.54,6.41c2.55,2.55,5.64,8.92,3.62,11s-8.39-1.07-10.95-3.63S8.9,8.14,10.92,6.11,16,3.86,18.54,6.41Z"/><path id="_Path_17" data-name="&lt;Path&gt;" class="cls-4" d="M29.46,6.41c-2.55,2.55-5.64,8.92-3.62,11s8.39-1.07,11-3.63,2.31-5.59.29-7.62S32,3.86,29.46,6.41Z"/><path id="_Path_18" data-name="&lt;Path&gt;" class="cls-7" d="M29.18,6.29c0,3.61-2.32,10.3-5.18,10.3S18.82,9.9,18.82,6.29,21.14.7,24,.7,29.18,2.68,29.18,6.29Z"/><path id="_Path_19" data-name="&lt;Path&gt;" class="cls-8" d="M24,3.33A4.94,4.94,0,0,1,29.08,7.7a12.12,12.12,0,0,0,.1-1.41C29.18,2.68,26.86.7,24,.7s-5.18,2-5.18,5.59a12.12,12.12,0,0,0,.1,1.41A4.94,4.94,0,0,1,24,3.33Z"/><path id="_Path_20" data-name="&lt;Path&gt;" class="cls-4" d="M29.18,6.29c0,3.61-2.32,10.3-5.18,10.3S18.82,9.9,18.82,6.29,21.14.7,24,.7,29.18,2.68,29.18,6.29Z"/><path id="_Path_21" data-name="&lt;Path&gt;" class="cls-7" d="M29.18,32.1c0-3.61-2.32-10.3-5.18-10.3s-5.18,6.69-5.18,10.3,2.32,5.6,5.18,5.6S29.18,35.71,29.18,32.1Z"/><path id="_Path_22" data-name="&lt;Path&gt;" class="cls-5" d="M24,28a6.16,6.16,0,0,0,4-1.49c-1-2.54-2.4-4.71-4-4.71S20.92,24,20,26.51A6.16,6.16,0,0,0,24,28Z"/><path id="_Path_23" data-name="&lt;Path&gt;" class="cls-4" d="M29.18,32.1c0-3.61-2.32-10.3-5.18-10.3s-5.18,6.69-5.18,10.3,2.32,5.6,5.18,5.6S29.18,35.71,29.18,32.1Z"/><path id="_Path_24" data-name="&lt;Path&gt;" class="cls-7" d="M11.1,14c3.61,0,10.3,2.32,10.3,5.18s-6.69,5.17-10.3,5.17S5.5,22.06,5.5,19.2,7.49,14,11.1,14Z"/><path id="_Path_25" data-name="&lt;Path&gt;" class="cls-7" d="M36.9,14c-3.61,0-10.3,2.32-10.3,5.18s6.69,5.17,10.3,5.17,5.6-2.31,5.6-5.17S40.51,14,36.9,14Z"/><path id="_Path_26" data-name="&lt;Path&gt;" class="cls-8" d="M11.1,16.3c3.11,0,8.52,1.73,10,4a2.23,2.23,0,0,0,.35-1.14c0-2.86-6.69-5.18-10.3-5.18S5.5,16.34,5.5,19.2a6.12,6.12,0,0,0,.11,1.14C6.08,18,8,16.3,11.1,16.3Z"/><path id="_Path_27" data-name="&lt;Path&gt;" class="cls-8" d="M36.9,16.3c3.12,0,5,1.73,5.49,4a6.12,6.12,0,0,0,.11-1.14c0-2.86-2-5.18-5.6-5.18S26.6,16.34,26.6,19.2A2.23,2.23,0,0,0,27,20.34C28.38,18,33.79,16.3,36.9,16.3Z"/><path id="_Path_28" data-name="&lt;Path&gt;" class="cls-4" d="M11.1,14c3.61,0,10.3,2.32,10.3,5.18s-6.69,5.17-10.3,5.17S5.5,22.06,5.5,19.2,7.49,14,11.1,14Z"/><path id="_Path_29" data-name="&lt;Path&gt;" class="cls-4" d="M36.9,14c-3.61,0-10.3,2.32-10.3,5.18s6.69,5.17,10.3,5.17,5.6-2.31,5.6-5.17S40.51,14,36.9,14Z"/><circle id="_Path_30" data-name="&lt;Path&gt;" class="cls-9" cx="24" cy="19.2" r="6.21"/><path id="_Path_31" data-name="&lt;Path&gt;" class="cls-10" d="M24,15.59a6.21,6.21,0,0,1,6.07,4.91,6.21,6.21,0,1,0-12.14,0A6.21,6.21,0,0,1,24,15.59Z"/><circle id="_Path_32" data-name="&lt;Path&gt;" class="cls-4" cx="24" cy="19.2" r="6.21"/><line id="_Path_33" data-name="&lt;Path&gt;" class="cls-4" x1="28.83" y1="42.35" x2="32.83" y2="40.6"/><line id="_Path_34" data-name="&lt;Path&gt;" class="cls-4" x1="19.17" y1="42.35" x2="15.17" y2="40.6"/><line id="_Path_35" data-name="&lt;Path&gt;" class="cls-4" x1="24" y1="12.99" x2="24" y2="8.65"/><line id="_Path_36" data-name="&lt;Path&gt;" class="cls-4" x1="24" y1="29.75" x2="24" y2="25.4"/><line id="_Path_37" data-name="&lt;Path&gt;" class="cls-4" x1="19.61" y1="14.81" x2="16.54" y2="11.74"/><line id="_Path_38" data-name="&lt;Path&gt;" class="cls-4" x1="31.46" y1="26.66" x2="28.39" y2="23.58"/><line id="_Path_39" data-name="&lt;Path&gt;" class="cls-4" x1="17.79" y1="19.2" x2="13.45" y2="19.2"/><line id="_Path_40" data-name="&lt;Path&gt;" class="cls-4" x1="34.55" y1="19.2" x2="30.21" y2="19.2"/><line id="_Path_41" data-name="&lt;Path&gt;" class="cls-4" x1="19.61" y1="23.58" x2="16.54" y2="26.66"/><line id="_Path_42" data-name="&lt;Path&gt;" class="cls-4" x1="31.46" y1="11.74" x2="28.39" y2="14.81"/></g></svg>