<svg id="Icons" xmlns="http://www.w3.org/2000/svg" viewBox="0 0 48 48"><defs><style>.cls-1{fill:#45413c;opacity:0.15;}.cls-2{fill:#6dd627;}.cls-3{fill:#46b000;}.cls-4{fill:none;stroke:#45413c;stroke-linecap:round;stroke-linejoin:round;}.cls-5{fill:#ff87af;}.cls-6{fill:#ffb0ca;}.cls-7{fill:#9ceb60;}</style></defs><title>510-tulip</title><g id="_Group_" data-name="&lt;Group&gt;"><ellipse id="_Ellipse_" data-name="&lt;Ellipse&gt;" class="cls-1" cx="24" cy="45.5" rx="10" ry="1.5"/><path id="_Path_" data-name="&lt;Path&gt;" class="cls-2" d="M20.23,22.46h0a10.48,10.48,0,0,1,2.51,6.8V44.69a.82.82,0,0,0,.82.81h.88a.82.82,0,0,0,.82-.81V29.26a10.48,10.48,0,0,1,2.51-6.8H20.23Z"/><path class="cls-3" d="M22.53,27.18a7.28,7.28,0,0,0,2.94,0,10.39,10.39,0,0,1,2.3-4.72H20.23A10.39,10.39,0,0,1,22.53,27.18Z"/><path id="_Path_2" data-name="&lt;Path&gt;" class="cls-4" d="M20.23,22.46h0a10.48,10.48,0,0,1,2.51,6.8V44.69a.82.82,0,0,0,.82.81h.88a.82.82,0,0,0,.82-.81V29.26a10.48,10.48,0,0,1,2.51-6.8H20.23Z"/><path id="_Path_3" data-name="&lt;Path&gt;" class="cls-5" d="M31.32,12.83c0,6.25-3.28,11.31-7.32,11.31s-7.32-5.06-7.32-11.31c0-5.23,5.14-9.64,6.81-10.93a.84.84,0,0,1,1,0C26.18,3.19,31.32,7.6,31.32,12.83Z"/><path id="_Path_4" data-name="&lt;Path&gt;" class="cls-6" d="M23.49,5.88a.84.84,0,0,1,1,0C26,7,30.28,10.7,31.15,15.22a16.91,16.91,0,0,0,.17-2.39c0-5.23-5.14-9.64-6.81-10.93a.84.84,0,0,0-1,0c-1.67,1.29-6.81,5.7-6.81,10.93a16.91,16.91,0,0,0,.17,2.39C17.72,10.7,22,7,23.49,5.88Z"/><path id="_Path_5" data-name="&lt;Path&gt;" class="cls-4" d="M31.32,12.83c0,6.25-3.28,11.31-7.32,11.31s-7.32-5.06-7.32-11.31c0-5.23,5.14-9.64,6.81-10.93a.84.84,0,0,1,1,0C26.18,3.19,31.32,7.6,31.32,12.83Z"/><path id="_Path_6" data-name="&lt;Path&gt;" class="cls-5" d="M24,24.14c4.41,0,8-5.36,8-12a17.09,17.09,0,0,0-.82-5.28.84.84,0,0,0-1-.54C26.67,7.25,24,12.18,24,18.15Z"/><path class="cls-6" d="M30.16,10a.85.85,0,0,1,1,.54A16.87,16.87,0,0,1,31.89,14c.06-.61.09-1.22.09-1.86a17.09,17.09,0,0,0-.82-5.28.84.84,0,0,0-1-.54C26.67,7.25,24,12.18,24,18.15v3.69C24,15.88,26.67,10.94,30.16,10Z"/><path id="_Path_7" data-name="&lt;Path&gt;" class="cls-4" d="M24,24.14c4.41,0,8-5.36,8-12a17.09,17.09,0,0,0-.82-5.28.84.84,0,0,0-1-.54C26.67,7.25,24,12.18,24,18.15Z"/><path id="_Path_8" data-name="&lt;Path&gt;" class="cls-5" d="M24,24.14c-4.41,0-8-5.36-8-12a17.09,17.09,0,0,1,.82-5.28.84.84,0,0,1,1-.54C21.33,7.25,24,12.18,24,18.15Z"/><path class="cls-6" d="M17.84,10a.85.85,0,0,0-1,.54A16.87,16.87,0,0,0,16.11,14c-.06-.61-.09-1.22-.09-1.86a17.09,17.09,0,0,1,.82-5.28.84.84,0,0,1,1-.54C21.33,7.25,24,12.18,24,18.15v3.69C24,15.88,21.33,10.94,17.84,10Z"/><path id="_Path_9" data-name="&lt;Path&gt;" class="cls-4" d="M24,24.14c-4.41,0-8-5.36-8-12a17.09,17.09,0,0,1,.82-5.28.84.84,0,0,1,1-.54C21.33,7.25,24,12.18,24,18.15Z"/><line id="_Path_10" data-name="&lt;Path&gt;" class="cls-4" x1="24" y1="18.15" x2="24" y2="6.84"/><path id="_Path_11" data-name="&lt;Path&gt;" class="cls-2" d="M23.69,45.5a.82.82,0,0,1-.81-1c.43-2.55,2-9.74,6.57-15.39,4.21-5.2,10.76-7.77,13.82-8.74a.84.84,0,0,1,1,1.14,28.49,28.49,0,0,1-8.56,11C29.37,37.2,25.58,38.8,25.28,44.71a.82.82,0,0,1-.82.79Z"/><path id="_Path_12" data-name="&lt;Path&gt;" class="cls-7" d="M23.31,45.39A33.61,33.61,0,0,1,29.45,32.1c4.21-5.21,10.76-7.78,13.82-8.74a.58.58,0,0,1,.14,0c.36-.67.65-1.28.88-1.79a.83.83,0,0,0-1-1.13c-3.06,1-9.61,3.53-13.82,8.74C24.87,34.79,23.31,42,22.88,44.54A.81.81,0,0,0,23.31,45.39Z"/><path id="_Path_13" data-name="&lt;Path&gt;" class="cls-4" d="M23.69,45.5a.82.82,0,0,1-.81-1c.43-2.55,2-9.74,6.57-15.39,4.21-5.2,10.76-7.77,13.82-8.74a.84.84,0,0,1,1,1.14,28.49,28.49,0,0,1-8.56,11C29.37,37.2,25.58,38.8,25.28,44.71a.82.82,0,0,1-.82.79Z"/><path id="_Path_14" data-name="&lt;Path&gt;" class="cls-2" d="M24.31,45.5a.82.82,0,0,0,.81-1c-.43-2.55-2-9.74-6.56-15.39C14.34,24,7.79,21.39,4.74,20.42a.84.84,0,0,0-1,1.14,28.49,28.49,0,0,0,8.56,11c6.36,4.68,10.15,6.28,10.45,12.19a.83.83,0,0,0,.82.79Z"/><path id="_Path_15" data-name="&lt;Path&gt;" class="cls-7" d="M4.84,23.81c3.1,1,9.54,3.56,13.72,8.71a33.41,33.41,0,0,1,6,12.92.82.82,0,0,0,.52-.89c-.43-2.55-2-9.74-6.56-15.39C14.34,24,7.79,21.39,4.74,20.42a.84.84,0,0,0-1,1.14C4,22.18,4.37,23,4.84,23.81Z"/><path id="_Path_16" data-name="&lt;Path&gt;" class="cls-4" d="M24.31,45.5a.82.82,0,0,0,.81-1c-.43-2.55-2-9.74-6.56-15.39C14.34,24,7.79,21.39,4.74,20.42a.84.84,0,0,0-1,1.14,28.49,28.49,0,0,0,8.56,11c6.36,4.68,10.15,6.28,10.45,12.19a.83.83,0,0,0,.82.79Z"/></g></svg>