<svg id="Icons" xmlns="http://www.w3.org/2000/svg" viewBox="0 0 48 48"><defs><style>.cls-1{fill:#ff87af;}.cls-1,.cls-4,.cls-6,.cls-7{stroke:#45413c;stroke-linecap:round;stroke-linejoin:round;}.cls-2{fill:#6dd627;}.cls-3{fill:#9ceb60;}.cls-4{fill:none;}.cls-5,.cls-7{fill:#45413c;}.cls-5{opacity:0.15;}.cls-6{fill:#ff866e;}.cls-8{fill:#c8ffa1;}</style></defs><title>514-cactus-2</title><path id="_Path_" data-name="&lt;Path&gt;" class="cls-1" d="M20.85,5.58a1.81,1.81,0,0,1,1.8,1.8V11H20.4L19.18,8.07A1.8,1.8,0,0,1,20.85,5.58Z"/><path id="_Path_2" data-name="&lt;Path&gt;" class="cls-1" d="M27.15,5.58a1.8,1.8,0,0,1,1.67,2.49L27.6,11H25.35V7.38A1.81,1.81,0,0,1,27.15,5.58Z"/><path id="_Path_3" data-name="&lt;Path&gt;" class="cls-1" d="M24,5.13A2.3,2.3,0,0,1,26.26,7.8l-.46,2.74H22.2L21.74,7.8A2.3,2.3,0,0,1,24,5.13Z"/><path id="_Path_4" data-name="&lt;Path&gt;" class="cls-2" d="M12.22,26.37a4.32,4.32,0,0,0,0-1.64,4.51,4.51,0,0,0-8.81,1.89,9.16,9.16,0,0,0,7.11,7c8.78,2.14,8.1.91,8.1.91Z"/><g id="_Group_" data-name="&lt;Group&gt;"><path id="_Path_5" data-name="&lt;Path&gt;" class="cls-3" d="M3.52,27.19A5.16,5.16,0,0,1,7.37,24a5.17,5.17,0,0,1,4.91,1.44,5,5,0,0,0-.09-.66,4.51,4.51,0,0,0-8.81,1.89C3.42,26.81,3.47,27,3.52,27.19Z"/></g><path id="_Path_6" data-name="&lt;Path&gt;" class="cls-4" d="M12.22,26.37a4.32,4.32,0,0,0,0-1.64,4.51,4.51,0,0,0-8.81,1.89,9.16,9.16,0,0,0,7.11,7c8.78,2.14,8.1.91,8.1.91Z"/><path id="_Path_7" data-name="&lt;Path&gt;" class="cls-2" d="M41.13,17.76a4.69,4.69,0,0,0-5,4.33c0,.12,0,.24,0,.36h0l-3.06,7s1.87,1.74,5.71,1.15c4.28-.64,6.53-4.95,6.75-7.83A4.69,4.69,0,0,0,41.13,17.76Z"/><path id="_Path_8" data-name="&lt;Path&gt;" class="cls-3" d="M40.53,20.45a5.66,5.66,0,0,1,4.83,3.15c0-.28.09-.55.11-.81a4.7,4.7,0,0,0-9.35-.93A5.93,5.93,0,0,1,40.53,20.45Z"/><path id="_Path_9" data-name="&lt;Path&gt;" class="cls-4" d="M41.13,17.76a4.69,4.69,0,0,0-5,4.33c0,.12,0,.24,0,.36h0l-3.06,7s1.87,1.74,5.71,1.15c4.28-.64,6.53-4.95,6.75-7.83A4.69,4.69,0,0,0,41.13,17.76Z"/><ellipse id="_Ellipse_" data-name="&lt;Ellipse&gt;" class="cls-5" cx="24" cy="45.5" rx="11.5" ry="1.5"/><path class="cls-2" d="M24,9.63A13.18,13.18,0,0,0,10.94,23.15c0,5.06,2.22,11.64,3.69,15.42a10,10,0,0,0,18.74,0c1.47-3.78,3.69-10.36,3.69-15.42A13.18,13.18,0,0,0,24,9.63Z"/><path id="_Path_10" data-name="&lt;Path&gt;" class="cls-3" d="M24,14.25A13.12,13.12,0,0,1,36.91,25.64a21.57,21.57,0,0,0,.15-2.49A13.21,13.21,0,0,0,24,9.63,13.18,13.18,0,0,0,10.94,23.15a21.57,21.57,0,0,0,.15,2.49A13.07,13.07,0,0,1,24,14.25Z"/><path class="cls-4" d="M24,9.63A13.18,13.18,0,0,0,10.94,23.15c0,5.06,2.22,11.64,3.69,15.42a10,10,0,0,0,18.74,0c1.47-3.78,3.69-10.36,3.69-15.42A13.18,13.18,0,0,0,24,9.63Z"/><path id="_Path_11" data-name="&lt;Path&gt;" class="cls-6" d="M24,32.16h0a2,2,0,0,1-2-1.79l-.21-2.68a.45.45,0,0,1,.45-.49h3.52a.45.45,0,0,1,.45.49L26,30.37A2,2,0,0,1,24,32.16Z"/><circle id="_Path_12" data-name="&lt;Path&gt;" class="cls-7" cx="18.27" cy="22.25" r="1.35"/><circle id="_Path_13" data-name="&lt;Path&gt;" class="cls-7" cx="29.73" cy="22.25" r="1.35"/><path id="_Path_14" data-name="&lt;Path&gt;" class="cls-8" d="M18.27,27c0,.54-.74,1-1.64,1S15,27.55,15,27s.73-1,1.64-1S18.27,26.48,18.27,27Z"/><path id="_Path_15" data-name="&lt;Path&gt;" class="cls-8" d="M29.73,27c0,.54.74,1,1.64,1S33,27.55,33,27s-.73-1-1.64-1S29.73,26.48,29.73,27Z"/><line id="_Path_16" data-name="&lt;Path&gt;" class="cls-4" x1="23.15" y1="5.29" x2="22.65" y2="3.78"/><line id="_Path_17" data-name="&lt;Path&gt;" class="cls-4" x1="24.85" y1="5.29" x2="25.35" y2="3.78"/><line id="_Path_18" data-name="&lt;Path&gt;" class="cls-4" x1="15.98" y1="12.42" x2="14.54" y2="10.99"/><line id="_Path_19" data-name="&lt;Path&gt;" class="cls-4" x1="12.2" y1="17.27" x2="10.49" y2="16.84"/><line id="_Path_20" data-name="&lt;Path&gt;" class="cls-4" x1="31.74" y1="12.22" x2="33.01" y2="10.54"/><line id="_Path_21" data-name="&lt;Path&gt;" class="cls-4" x1="35.14" y1="16.03" x2="36.61" y2="15.04"/><line id="_Path_22" data-name="&lt;Path&gt;" class="cls-4" x1="41.97" y1="17.9" x2="42.47" y2="16.39"/><line id="_Path_23" data-name="&lt;Path&gt;" class="cls-4" x1="45.48" y1="22.45" x2="47.43" y2="21.8"/><line id="_Path_24" data-name="&lt;Path&gt;" class="cls-4" x1="43.66" y1="27.49" x2="45.17" y2="29.01"/><line id="_Path_25" data-name="&lt;Path&gt;" class="cls-4" x1="37.79" y1="30.72" x2="38.42" y2="32.61"/><line id="_Path_26" data-name="&lt;Path&gt;" class="cls-4" x1="7.4" y1="21.18" x2="6.88" y2="19.09"/><line id="_Path_27" data-name="&lt;Path&gt;" class="cls-4" x1="3.41" y1="24.59" x2="1.93" y2="23.6"/><line id="_Path_28" data-name="&lt;Path&gt;" class="cls-4" x1="5.98" y1="31.26" x2="4.63" y2="32.61"/><line id="_Path_29" data-name="&lt;Path&gt;" class="cls-4" x1="10.89" y1="33.7" x2="10.49" y2="35.31"/><line id="_Path_30" data-name="&lt;Path&gt;" class="cls-4" x1="14.58" y1="38.45" x2="13.19" y2="38.92"/><line id="_Path_31" data-name="&lt;Path&gt;" class="cls-4" x1="34.26" y1="36.15" x2="35.71" y2="37.11"/><line id="_Path_32" data-name="&lt;Path&gt;" class="cls-4" x1="40.22" y1="22.7" x2="41.12" y2="21.35"/><line id="_Path_33" data-name="&lt;Path&gt;" class="cls-4" x1="39.77" y1="26.3" x2="41.12" y2="25.85"/><line id="_Path_34" data-name="&lt;Path&gt;" class="cls-4" x1="9.13" y1="28.1" x2="7.33" y2="27.2"/><line id="_Path_35" data-name="&lt;Path&gt;" class="cls-4" x1="28.5" y1="15.49" x2="28.96" y2="13.69"/><line id="_Path_36" data-name="&lt;Path&gt;" class="cls-4" x1="20.4" y1="15.04" x2="19.95" y2="13.69"/><line id="_Path_37" data-name="&lt;Path&gt;" class="cls-4" x1="31.21" y1="35.31" x2="32.56" y2="34.41"/><line id="_Path_38" data-name="&lt;Path&gt;" class="cls-4" x1="17.69" y1="34.86" x2="16.34" y2="33.96"/><line id="_Path_39" data-name="&lt;Path&gt;" class="cls-4" x1="27.6" y1="37.11" x2="28.05" y2="35.76"/></svg>