<svg id="Icons" xmlns="http://www.w3.org/2000/svg" viewBox="0 0 48 48"><defs><style>.cls-1{fill:#45413c;opacity:0.15;}.cls-2{fill:none;stroke:#45413c;stroke-linecap:round;stroke-linejoin:round;}.cls-3{fill:#6dd627;}.cls-4{fill:#9ceb60;}</style></defs><title>515-herb</title><g id="_Group_" data-name="&lt;Group&gt;"><ellipse id="_Ellipse_" data-name="&lt;Ellipse&gt;" class="cls-1" cx="24" cy="45.5" rx="9.77" ry="1.5"/><path id="_Path_" data-name="&lt;Path&gt;" class="cls-2" d="M15.27,42s1,.09,3.6-9.62C21.67,22,24,19,24.56,18.46"/><path id="_Path_2" data-name="&lt;Path&gt;" class="cls-3" d="M32.26,5.58a18.34,18.34,0,0,0-8,11.89,1.13,1.13,0,0,0,.85,1.3,18.36,18.36,0,0,0,14.1-2.54,18.42,18.42,0,0,0,8-11.9A1.12,1.12,0,0,0,46.36,3,18.35,18.35,0,0,0,32.26,5.58Z"/><path id="_Path_3" data-name="&lt;Path&gt;" class="cls-4" d="M24.78,18.63A18.38,18.38,0,0,1,46.36,6.23a1,1,0,0,1,.33.13,20.13,20.13,0,0,0,.52-2A1.12,1.12,0,0,0,46.36,3a18.39,18.39,0,0,0-22.1,14.43A1.11,1.11,0,0,0,24.78,18.63Z"/><path id="_Path_4" data-name="&lt;Path&gt;" class="cls-2" d="M32.26,5.58a18.34,18.34,0,0,0-8,11.89,1.13,1.13,0,0,0,.85,1.3,18.36,18.36,0,0,0,14.1-2.54,18.42,18.42,0,0,0,8-11.9A1.12,1.12,0,0,0,46.36,3,18.35,18.35,0,0,0,32.26,5.58Z"/><path id="_Path_5" data-name="&lt;Path&gt;" class="cls-3" d="M30.64,29.45A12.82,12.82,0,0,0,22.26,35a.79.79,0,0,0,.2,1.07,12.88,12.88,0,0,0,18.17-3.34.79.79,0,0,0-.2-1.07A12.85,12.85,0,0,0,30.64,29.45Z"/><path id="_Path_6" data-name="&lt;Path&gt;" class="cls-4" d="M22.46,36l.13.09a12.87,12.87,0,0,1,16.86-1.93,13.2,13.2,0,0,0,1.18-1.5.79.79,0,0,0-.2-1.07A12.88,12.88,0,0,0,22.26,35,.79.79,0,0,0,22.46,36Z"/><path id="_Path_7" data-name="&lt;Path&gt;" class="cls-2" d="M30.64,29.45A12.82,12.82,0,0,0,22.26,35a.79.79,0,0,0,.2,1.07,12.88,12.88,0,0,0,18.17-3.34.79.79,0,0,0-.2-1.07A12.85,12.85,0,0,0,30.64,29.45Z"/><path id="_Path_8" data-name="&lt;Path&gt;" class="cls-3" d="M12.81,21.24A16.25,16.25,0,0,0,2,14.65a1,1,0,0,0-1.11.8A16.23,16.23,0,0,0,14.5,34.39a1,1,0,0,0,1.1-.79A16.21,16.21,0,0,0,12.81,21.24Z"/><path id="_Path_9" data-name="&lt;Path&gt;" class="cls-4" d="M12.81,21.25A16.23,16.23,0,0,0,2,14.65a1,1,0,0,0-1.11.8,15.69,15.69,0,0,0-.24,2.16A18,18,0,0,1,11.48,24a18.11,18.11,0,0,1,4,9.82,1,1,0,0,0,.07-.24A16.18,16.18,0,0,0,12.81,21.25Z"/><path id="_Path_10" data-name="&lt;Path&gt;" class="cls-2" d="M12.81,21.24A16.25,16.25,0,0,0,2,14.65a1,1,0,0,0-1.11.8A16.23,16.23,0,0,0,14.5,34.39a1,1,0,0,0,1.1-.79A16.21,16.21,0,0,0,12.81,21.24Z"/><path id="_Path_11" data-name="&lt;Path&gt;" class="cls-3" d="M29,21.8a9.19,9.19,0,0,0-3.9,6,.56.56,0,0,0,.43.64,9.23,9.23,0,0,0,11-7.43.57.57,0,0,0-.44-.64A9.23,9.23,0,0,0,29,21.8Z"/><path id="_Path_12" data-name="&lt;Path&gt;" class="cls-4" d="M25.56,28.47h.06A9.19,9.19,0,0,1,36,22.8a9,9,0,0,0,.5-1.76.57.57,0,0,0-.44-.64,9.22,9.22,0,0,0-10.95,7.43A.56.56,0,0,0,25.56,28.47Z"/><path id="_Path_13" data-name="&lt;Path&gt;" class="cls-2" d="M29,21.8a9.19,9.19,0,0,0-3.9,6,.56.56,0,0,0,.43.64,9.23,9.23,0,0,0,11-7.43.57.57,0,0,0-.44-.64A9.23,9.23,0,0,0,29,21.8Z"/><path id="_Path_14" data-name="&lt;Path&gt;" class="cls-3" d="M16.75,9.72A13.61,13.61,0,0,0,6.67,6.44a.84.84,0,0,0-.75.87A13.61,13.61,0,0,0,20.66,20.1a.83.83,0,0,0,.75-.86A13.57,13.57,0,0,0,16.75,9.72Z"/><path id="_Path_15" data-name="&lt;Path&gt;" class="cls-4" d="M6.19,9.32a.74.74,0,0,1,.48-.22A13.6,13.6,0,0,1,21.15,19.88a.8.8,0,0,0,.26-.64A13.59,13.59,0,0,0,6.67,6.44a.84.84,0,0,0-.75.87A13.85,13.85,0,0,0,6.19,9.32Z"/><path id="_Path_16" data-name="&lt;Path&gt;" class="cls-2" d="M16.75,9.72A13.61,13.61,0,0,0,6.67,6.44a.84.84,0,0,0-.75.87A13.61,13.61,0,0,0,20.66,20.1a.83.83,0,0,0,.75-.86A13.57,13.57,0,0,0,16.75,9.72Z"/><path id="_Path_17" data-name="&lt;Path&gt;" class="cls-2" d="M16.09,40.87a11.68,11.68,0,0,1,6-5.44"/><path id="_Path_18" data-name="&lt;Path&gt;" class="cls-2" d="M18.75,32.89c.74-2.77,4.8-2.87,6.34-4.85"/><path id="_Path_19" data-name="&lt;Path&gt;" class="cls-2" d="M21.39,24.54s1-2.75-.52-4.46"/><path id="_Path_20" data-name="&lt;Path&gt;" class="cls-2" d="M17.44,37.31l-.3-.32A13.85,13.85,0,0,1,15,33.88"/><path id="_Path_21" data-name="&lt;Path&gt;" class="cls-2" d="M24.54,18.44l.09-.14A23.58,23.58,0,0,1,35.27,9.66"/><path id="_Path_22" data-name="&lt;Path&gt;" class="cls-2" d="M20.88,20.05l-.14-.29s-1.5-3-7.16-7.69"/><path id="_Path_23" data-name="&lt;Path&gt;" class="cls-2" d="M25.2,28.2l.49-.5a22.15,22.15,0,0,1,5-3.69"/><path id="_Path_24" data-name="&lt;Path&gt;" class="cls-2" d="M22.1,35.43S25.52,33,32.22,33.37"/><path id="_Path_25" data-name="&lt;Path&gt;" class="cls-2" d="M15,33.88s-1.57-5.3-7.16-11"/></g></svg>