<svg id="Icons" xmlns="http://www.w3.org/2000/svg" viewBox="0 0 48 48"><defs><style>.cls-1{fill:#45413c;opacity:0.15;}.cls-2{fill:#6dd627;}.cls-3{fill:#46b000;}.cls-4,.cls-6{fill:none;stroke:#45413c;}.cls-4{stroke-miterlimit:10;}.cls-5{fill:#9ceb60;}.cls-6{stroke-linecap:round;stroke-linejoin:round;}</style></defs><title>516-four-leaf-clover</title><g id="_Group_" data-name="&lt;Group&gt;"><ellipse id="_Ellipse_" data-name="&lt;Ellipse&gt;" class="cls-1" cx="24.26" cy="45.82" rx="9.43" ry="1.18"/><path id="_Path_" data-name="&lt;Path&gt;" class="cls-2" d="M31.63,44.14a1.18,1.18,0,0,1-.93,1.49,9.9,9.9,0,0,1-2,.09,9.61,9.61,0,0,1-7.62-4.24c-4.14-6.52-.38-14.69-.22-15a1.18,1.18,0,0,1,2.14,1h0c0,.08-3.37,7.36.07,12.77a7.37,7.37,0,0,0,7.27,3.09,1.19,1.19,0,0,1,1.32.84Z"/><path id="_Path_2" data-name="&lt;Path&gt;" class="cls-3" d="M23,27.44a18.47,18.47,0,0,0-1.48,7,13.94,13.94,0,0,0,.15,2H19.25a19.76,19.76,0,0,1,1.58-10,1.18,1.18,0,0,1,2.14,1Z"/><path id="_Path_3" data-name="&lt;Path&gt;" class="cls-4" d="M23,27.44c0,.08-3.37,7.36.07,12.77a7.37,7.37,0,0,0,7.27,3.09,1.18,1.18,0,0,1,.39,2.33,9.9,9.9,0,0,1-2,.09,9.61,9.61,0,0,1-7.62-4.24c-4.14-6.52-.38-14.69-.22-15a1.18,1.18,0,0,1,2.14,1Z"/><path id="_Path_4" data-name="&lt;Path&gt;" class="cls-2" d="M30.53,29.44a4.94,4.94,0,0,0-.72-2.3,4.91,4.91,0,0,0,1.71,1.71c3.65,2.16,7.77-2.2,5.72-5.91l-.88-1.58a.62.62,0,0,1,.2-.81l1.51-1c3.55-2.33,1.93-8.1-2.31-7.89a4.9,4.9,0,0,0-2.31.72,4.91,4.91,0,0,0,1.71-1.71C37.32,7,33,2.91,29.26,5l-1.58.88a.62.62,0,0,1-.81-.21l-1-1.5C23.55.58,17.78,2.2,18,6.44a4.83,4.83,0,0,0,.72,2.3A5.08,5.08,0,0,0,17,7c-3.65-2.16-7.77,2.2-5.72,5.91l.88,1.58a.62.62,0,0,1-.21.81l-1.5,1c-3.55,2.33-1.93,8.1,2.31,7.89a4.94,4.94,0,0,0,2.3-.72,4.88,4.88,0,0,0-1.71,1.7c-2.16,3.66,2.19,7.78,5.91,5.73L20.84,30a.62.62,0,0,1,.81.2l1,1.51C25,35.3,30.74,33.68,30.53,29.44Z"/><g id="_Group_2" data-name="&lt;Group&gt;"><path id="_Path_5" data-name="&lt;Path&gt;" class="cls-5" d="M18.71,8.74A5.08,5.08,0,0,0,17,7c-3.65-2.16-7.77,2.2-5.72,5.91l.88,1.58C10.79,8.76,17.28,6.38,20,10.89Z"/></g><g id="_Group_3" data-name="&lt;Group&gt;"><path id="_Path_6" data-name="&lt;Path&gt;" class="cls-5" d="M25.88,7.77l1,1.51a.62.62,0,0,0,.81.2l1.58-.88a4.41,4.41,0,0,1,6,1.86C37.14,6.87,32.9,3,29.26,5l-1.58.88a.62.62,0,0,1-.81-.21l-1-1.5C23.55.58,17.78,2.2,18,6.44a4.85,4.85,0,0,0,.4,1.67A4.39,4.39,0,0,1,25.88,7.77Z"/><path id="_Path_7" data-name="&lt;Path&gt;" class="cls-5" d="M10.45,20,12,19a.62.62,0,0,0,.21-.81l-.88-1.58A5.78,5.78,0,0,1,11,16l-.55.37a4.36,4.36,0,0,0-1.56,5.46A4.22,4.22,0,0,1,10.45,20Z"/></g><path id="_Path_8" data-name="&lt;Path&gt;" class="cls-6" d="M30.53,29.44a4.94,4.94,0,0,0-.72-2.3,4.91,4.91,0,0,0,1.71,1.71c3.65,2.16,7.77-2.2,5.72-5.91l-.88-1.58a.62.62,0,0,1,.2-.81l1.51-1c3.55-2.33,1.93-8.1-2.31-7.89a4.9,4.9,0,0,0-2.31.72,4.91,4.91,0,0,0,1.71-1.71C37.32,7,33,2.91,29.26,5l-1.58.88a.62.62,0,0,1-.81-.21l-1-1.5C23.55.58,17.78,2.2,18,6.44a4.83,4.83,0,0,0,.72,2.3A5.08,5.08,0,0,0,17,7c-3.65-2.16-7.77,2.2-5.72,5.91l.88,1.58a.62.62,0,0,1-.21.81l-1.5,1c-3.55,2.33-1.93,8.1,2.31,7.89a4.94,4.94,0,0,0,2.3-.72,4.88,4.88,0,0,0-1.71,1.7c-2.16,3.66,2.19,7.78,5.91,5.73L20.84,30a.62.62,0,0,1,.81.2l1,1.51C25,35.3,30.74,33.68,30.53,29.44Z"/><line id="_Path_9" data-name="&lt;Path&gt;" class="cls-6" x1="18.71" y1="8.74" x2="21.4" y2="13.2"/><line id="_Path_10" data-name="&lt;Path&gt;" class="cls-6" x1="27.12" y1="22.68" x2="29.81" y2="27.14"/><line id="_Path_11" data-name="&lt;Path&gt;" class="cls-6" x1="29" y1="15.08" x2="33.45" y2="12.39"/><line id="_Path_12" data-name="&lt;Path&gt;" class="cls-6" x1="15.06" y1="23.49" x2="19.52" y2="20.8"/></g></svg>