<svg id="Icons" xmlns="http://www.w3.org/2000/svg" viewBox="0 0 48 48"><defs><style>.cls-1{fill:#45413c;opacity:0.15;}.cls-2{fill:#9ceb60;}.cls-2,.cls-3,.cls-4{stroke:#45413c;stroke-linecap:round;stroke-linejoin:round;}.cls-3{fill:#ffaa54;}.cls-4{fill:#ff8a14;}</style></defs><title>521-melon-1</title><g id="_Group_" data-name="&lt;Group&gt;"><ellipse id="_Ellipse_" data-name="&lt;Ellipse&gt;" class="cls-1" cx="25.84" cy="42.19" rx="13.24" ry="1.81"/><path id="_Path_" data-name="&lt;Path&gt;" class="cls-2" d="M43.41,8.94l-6.58,1.19a14.62,14.62,0,0,1-26.16,8.25l-8.8,3.85A22.16,22.16,0,1,0,43.41,8.94Z"/><path id="_Path_2" data-name="&lt;Path&gt;" class="cls-3" d="M43.3,18.12a19.58,19.58,0,0,0-2.08-8.78l-4.39.79a14.62,14.62,0,0,1-26.16,8.25L4.06,21.27A19.75,19.75,0,0,0,43.3,18.12Z"/><path id="_Path_3" data-name="&lt;Path&gt;" class="cls-4" d="M33.51,26.4c7.3-5.19,3.32-16.27,3.32-16.27a14.62,14.62,0,0,1-26.16,8.25S20,36,33.51,26.4Z"/></g></svg>