<svg id="Icons" xmlns="http://www.w3.org/2000/svg" viewBox="0 0 48 48"><defs><style>.cls-1{fill:#45413c;opacity:0.15;}.cls-2{fill:#9ceb60;}.cls-3{fill:#6dd627;}.cls-4{fill:none;stroke:#45413c;stroke-linecap:round;stroke-linejoin:round;}.cls-5{fill:#ffaa54;}.cls-6{fill:#fc9;}.cls-7{fill:#ff8a14;}.cls-8{fill:#eb6d00;}</style></defs><title>522-melon-2</title><g id="_Group_" data-name="&lt;Group&gt;"><ellipse id="_Ellipse_" data-name="&lt;Ellipse&gt;" class="cls-1" cx="24" cy="44.11" rx="13.9" ry="1.9"/><path id="_Path_" data-name="&lt;Path&gt;" class="cls-2" d="M46.17,21.33a22.17,22.17,0,0,1-44.34,0Z"/><path id="_Path_2" data-name="&lt;Path&gt;" class="cls-3" d="M24,40.18A22.14,22.14,0,0,1,2.11,21.33H1.83a22.17,22.17,0,0,0,44.34,0h-.28A22.14,22.14,0,0,1,24,40.18Z"/><path id="_Path_3" data-name="&lt;Path&gt;" class="cls-4" d="M46.17,21.33a22.17,22.17,0,0,1-44.34,0Z"/><ellipse id="_Path_4" data-name="&lt;Path&gt;" class="cls-5" cx="24" cy="21.33" rx="22.17" ry="9.37"/><path id="_Path_5" data-name="&lt;Path&gt;" class="cls-6" d="M24,15.33c10.88,0,19.91,3.32,21.79,7.69a4.2,4.2,0,0,0,.38-1.69C46.17,16.16,36.24,12,24,12S1.83,16.16,1.83,21.33A4.2,4.2,0,0,0,2.21,23C4.09,18.65,13.12,15.33,24,15.33Z"/><ellipse id="_Path_6" data-name="&lt;Path&gt;" class="cls-4" cx="24" cy="21.33" rx="22.17" ry="9.37"/><ellipse id="_Path_7" data-name="&lt;Path&gt;" class="cls-7" cx="24" cy="21.33" rx="10.63" ry="4.5"/><path id="_Path_8" data-name="&lt;Path&gt;" class="cls-8" d="M24,23c-4.71,0-8.7-1.3-10.1-3.09a2.29,2.29,0,0,0-.53,1.4c0,2.49,4.76,4.5,10.63,4.5s10.63-2,10.63-4.5a2.29,2.29,0,0,0-.53-1.4C32.7,21.72,28.71,23,24,23Z"/><ellipse id="_Path_9" data-name="&lt;Path&gt;" class="cls-4" cx="24" cy="21.33" rx="10.63" ry="4.5"/></g></svg>