<svg id="Icons" xmlns="http://www.w3.org/2000/svg" viewBox="0 0 48 48"><defs><style>.cls-1{fill:#45413c;opacity:0.15;}.cls-2{fill:#9ceb60;}.cls-3{fill:#6dd627;}.cls-4{fill:#c8ffa1;}.cls-5{fill:none;}.cls-11,.cls-12,.cls-5{stroke:#45413c;stroke-linecap:round;stroke-linejoin:round;}.cls-6{fill:#fffacf;}.cls-7{fill:#fff;}.cls-8{fill:#ff87af;}.cls-9{fill:#ffb0ca;}.cls-10,.cls-12{fill:#ff6196;}.cls-11{fill:#fcd;}.cls-13{fill:#ffe5ee;}</style></defs><title>523-watermelon-1</title><g id="_Group_" data-name="&lt;Group&gt;"><ellipse id="_Ellipse_" data-name="&lt;Ellipse&gt;" class="cls-1" cx="24" cy="44.5" rx="13.5" ry="1.5"/><g id="_Group_2" data-name="&lt;Group&gt;"><g id="_Group_3" data-name="&lt;Group&gt;"><path id="_Path_" data-name="&lt;Path&gt;" class="cls-2" d="M44.86,21.89a1.68,1.68,0,0,1,1.68,1.8,22.61,22.61,0,0,1-45.08,0,1.68,1.68,0,0,1,1.68-1.8Z"/><path id="_Path_2" data-name="&lt;Path&gt;" class="cls-3" d="M24,42.48A24.75,24.75,0,0,1,3.78,32a22.61,22.61,0,0,0,40.44,0A24.75,24.75,0,0,1,24,42.48Z"/><path id="_Path_3" data-name="&lt;Path&gt;" class="cls-4" d="M3.14,26.07H44.86a1.68,1.68,0,0,1,1.25.56,23.65,23.65,0,0,0,.43-2.94,1.68,1.68,0,0,0-1.68-1.8H3.14a1.68,1.68,0,0,0-1.68,1.8,23.65,23.65,0,0,0,.43,2.94A1.68,1.68,0,0,1,3.14,26.07Z"/><path id="_Path_4" data-name="&lt;Path&gt;" class="cls-5" d="M44.86,21.89a1.68,1.68,0,0,1,1.68,1.8,22.61,22.61,0,0,1-45.08,0,1.68,1.68,0,0,1,1.68-1.8Z"/></g><g id="_Group_4" data-name="&lt;Group&gt;"><path id="_Path_5" data-name="&lt;Path&gt;" class="cls-6" d="M43.68,21.89a19.68,19.68,0,0,1-39.36,0Z"/><path id="_Path_6" data-name="&lt;Path&gt;" class="cls-7" d="M43.23,26.07a19.9,19.9,0,0,0,.45-4.18H4.32a19.9,19.9,0,0,0,.45,4.18Z"/><path id="_Path_7" data-name="&lt;Path&gt;" class="cls-5" d="M43.68,21.89a19.68,19.68,0,0,1-39.36,0Z"/></g><g id="_Group_5" data-name="&lt;Group&gt;"><path id="_Path_8" data-name="&lt;Path&gt;" class="cls-8" d="M41.17,21.89a17.17,17.17,0,0,1-34.34,0Z"/><path id="_Path_9" data-name="&lt;Path&gt;" class="cls-9" d="M40.63,26.07a17,17,0,0,0,.54-4.18H6.83a17,17,0,0,0,.54,4.18Z"/><path id="_Path_10" data-name="&lt;Path&gt;" class="cls-5" d="M41.17,21.89a17.17,17.17,0,0,1-34.34,0Z"/></g><path id="_Path_11" data-name="&lt;Path&gt;" class="cls-10" d="M16.93,28.6c0,.39.48.71,1.06.71s1.06-.32,1.06-.71-.47-.71-1.06-.71S16.93,28.21,16.93,28.6Z"/><g id="_Group_6" data-name="&lt;Group&gt;"><path id="_Path_12" data-name="&lt;Path&gt;" class="cls-11" d="M26.73,30.37a.71.71,0,0,1,.69.88,3.53,3.53,0,0,1-6.84,0,.71.71,0,0,1,.69-.88Z"/><path id="_Path_13" data-name="&lt;Path&gt;" class="cls-12" d="M24,33.9a3.53,3.53,0,0,0,2.78-1.37,5.53,5.53,0,0,0-5.56,0A3.53,3.53,0,0,0,24,33.9Z"/></g><path id="_Path_14" data-name="&lt;Path&gt;" class="cls-5" d="M17.64,27.19a1.06,1.06,0,1,1,2.12,0"/><path id="_Path_15" data-name="&lt;Path&gt;" class="cls-10" d="M31.07,28.6c0,.39-.48.71-1.06.71S29,29,29,28.6s.47-.71,1.06-.71S31.07,28.21,31.07,28.6Z"/><path id="_Path_16" data-name="&lt;Path&gt;" class="cls-5" d="M30.36,27.19a1.06,1.06,0,1,0-2.12,0"/></g><g id="_Group_7" data-name="&lt;Group&gt;"><g id="_Group_8" data-name="&lt;Group&gt;"><path id="_Path_17" data-name="&lt;Path&gt;" class="cls-7" d="M25.31,5.92A1.55,1.55,0,0,0,24,4.22a1.55,1.55,0,0,0-1.31,1.7,19.9,19.9,0,0,0,1.07,3.76.25.25,0,0,0,.48,0A19.9,19.9,0,0,0,25.31,5.92Z"/><path id="_Path_18" data-name="&lt;Path&gt;" class="cls-13" d="M24,5.35a1.38,1.38,0,0,0-1.23,1.13,3,3,0,0,1-.08-.56A1.55,1.55,0,0,1,24,4.22a1.55,1.55,0,0,1,1.31,1.7,3,3,0,0,1-.08.56A1.38,1.38,0,0,0,24,5.35Z"/><path id="_Path_19" data-name="&lt;Path&gt;" class="cls-5" d="M25.31,5.92A1.55,1.55,0,0,0,24,4.22a1.55,1.55,0,0,0-1.31,1.7,19.9,19.9,0,0,0,1.07,3.76.25.25,0,0,0,.48,0A19.9,19.9,0,0,0,25.31,5.92Z"/></g><g id="_Group_9" data-name="&lt;Group&gt;"><path id="_Path_20" data-name="&lt;Path&gt;" class="cls-7" d="M33.48,8.1A1.54,1.54,0,0,0,32.92,6,1.54,1.54,0,0,0,31.06,7.1,19.19,19.19,0,0,0,30.61,11a.24.24,0,0,0,.44.18A19.54,19.54,0,0,0,33.48,8.1Z"/><path id="_Path_21" data-name="&lt;Path&gt;" class="cls-13" d="M32.49,7.08a1.37,1.37,0,0,0-1.57.57,3.08,3.08,0,0,1,.14-.55A1.54,1.54,0,0,1,32.92,6a1.54,1.54,0,0,1,.56,2.06,2.79,2.79,0,0,1-.29.49A1.38,1.38,0,0,0,32.49,7.08Z"/><path id="_Path_22" data-name="&lt;Path&gt;" class="cls-5" d="M33.48,8.1A1.54,1.54,0,0,0,32.92,6,1.54,1.54,0,0,0,31.06,7.1,19.19,19.19,0,0,0,30.61,11a.24.24,0,0,0,.44.18A19.54,19.54,0,0,0,33.48,8.1Z"/></g><g id="_Group_10" data-name="&lt;Group&gt;"><path id="_Path_23" data-name="&lt;Path&gt;" class="cls-7" d="M40.19,13.25a1.55,1.55,0,0,0,.27-2.13,1.54,1.54,0,0,0-2.13.28,19.72,19.72,0,0,0-1.9,3.42c-.12.25.09.45.34.33A20.1,20.1,0,0,0,40.19,13.25Z"/><path id="_Path_24" data-name="&lt;Path&gt;" class="cls-13" d="M39.66,11.92A1.37,1.37,0,0,0,38,11.85a2.93,2.93,0,0,1,.33-.45,1.54,1.54,0,0,1,2.13-.28,1.55,1.55,0,0,1-.27,2.13,3,3,0,0,1-.46.34A1.37,1.37,0,0,0,39.66,11.92Z"/><path id="_Path_25" data-name="&lt;Path&gt;" class="cls-5" d="M40.19,13.25a1.55,1.55,0,0,0,.27-2.13,1.54,1.54,0,0,0-2.13.28,19.72,19.72,0,0,0-1.9,3.42c-.12.25.09.45.34.33A20.1,20.1,0,0,0,40.19,13.25Z"/></g><g id="_Group_11" data-name="&lt;Group&gt;"><path id="_Path_26" data-name="&lt;Path&gt;" class="cls-7" d="M14.52,8.1A1.54,1.54,0,0,1,15.08,6,1.54,1.54,0,0,1,16.94,7.1,19.19,19.19,0,0,1,17.39,11a.24.24,0,0,1-.44.18A19.54,19.54,0,0,1,14.52,8.1Z"/><path id="_Path_27" data-name="&lt;Path&gt;" class="cls-13" d="M15.51,7.08a1.37,1.37,0,0,1,1.57.57,3.08,3.08,0,0,0-.14-.55A1.54,1.54,0,0,0,15.08,6a1.54,1.54,0,0,0-.56,2.06,2.79,2.79,0,0,0,.29.49A1.38,1.38,0,0,1,15.51,7.08Z"/><path id="_Path_28" data-name="&lt;Path&gt;" class="cls-5" d="M14.52,8.1A1.54,1.54,0,0,1,15.08,6,1.54,1.54,0,0,1,16.94,7.1,19.19,19.19,0,0,1,17.39,11a.24.24,0,0,1-.44.18A19.54,19.54,0,0,1,14.52,8.1Z"/></g><g id="_Group_12" data-name="&lt;Group&gt;"><path id="_Path_29" data-name="&lt;Path&gt;" class="cls-7" d="M7.81,13.25a1.55,1.55,0,0,1-.27-2.13,1.54,1.54,0,0,1,2.13.28,19.72,19.72,0,0,1,1.9,3.42c.12.25-.09.45-.34.33A20.1,20.1,0,0,1,7.81,13.25Z"/><path id="_Path_30" data-name="&lt;Path&gt;" class="cls-13" d="M8.34,11.92A1.37,1.37,0,0,1,10,11.85a2.93,2.93,0,0,0-.33-.45,1.54,1.54,0,0,0-2.13-.28,1.55,1.55,0,0,0,.27,2.13,3,3,0,0,0,.46.34A1.37,1.37,0,0,1,8.34,11.92Z"/><path id="_Path_31" data-name="&lt;Path&gt;" class="cls-5" d="M7.81,13.25a1.55,1.55,0,0,1-.27-2.13,1.54,1.54,0,0,1,2.13.28,19.72,19.72,0,0,1,1.9,3.42c.12.25-.09.45-.34.33A20.1,20.1,0,0,1,7.81,13.25Z"/></g></g></g></svg>