<svg id="Icons" xmlns="http://www.w3.org/2000/svg" viewBox="0 0 48 48"><defs><style>.cls-1{fill:#45413c;opacity:0.15;}.cls-2{fill:#9ceb60;}.cls-3{fill:#6dd627;}.cls-4{fill:none;stroke:#45413c;stroke-linecap:round;stroke-linejoin:round;}.cls-5{fill:#b89558;}.cls-6{fill:#debb7e;}.cls-7{fill:#46b000;}</style></defs><title>528-pear</title><g id="_Group_" data-name="&lt;Group&gt;"><ellipse id="_Ellipse_" data-name="&lt;Ellipse&gt;" class="cls-1" cx="24" cy="45.22" rx="13.62" ry="1.78"/><path class="cls-2" d="M35.7,25.12A6.53,6.53,0,0,1,35.5,20a8.22,8.22,0,0,0,.6-2.39A8,8,0,0,0,20.56,14.1a7.29,7.29,0,0,1-3.66,4,13.82,13.82,0,0,0-7.41,9.07A13.89,13.89,0,0,0,36,35.49,13.8,13.8,0,0,0,35.7,25.12Z"/><g id="_Group_2" data-name="&lt;Group&gt;"><path id="_Path_" data-name="&lt;Path&gt;" class="cls-3" d="M36,31.3A13.87,13.87,0,0,1,9.23,28.46a13.89,13.89,0,0,0,26.72,7,13.82,13.82,0,0,0,.72-6.93A13.51,13.51,0,0,1,36,31.3Z"/></g><path id="_Path_2" data-name="&lt;Path&gt;" class="cls-4" d="M35.5,20a8.22,8.22,0,0,0,.6-2.39A8,8,0,0,0,20.56,14.1h0a7.29,7.29,0,0,1-3.66,4,13.82,13.82,0,0,0-7.41,9.07A13.89,13.89,0,0,0,36,35.49a13.8,13.8,0,0,0-.25-10.37A6.53,6.53,0,0,1,35.5,20Z"/><path id="_Path_3" data-name="&lt;Path&gt;" class="cls-5" d="M29.47,10.5a13.45,13.45,0,0,1,2-3.82,5.2,5.2,0,0,1,2.44-1.94s1.44-.32,2,.75a3.29,3.29,0,0,1,.43,1.88A6.48,6.48,0,0,0,33.6,8.62a15.82,15.82,0,0,0-2.31,3.13A2,2,0,0,1,29.47,10.5Z"/><path id="_Path_4" data-name="&lt;Path&gt;" class="cls-6" d="M30.24,11.44a13.3,13.3,0,0,1,1.61-2.79,5.21,5.21,0,0,1,2.44-1.93,1.94,1.94,0,0,1,2,.67l.11,0a3.29,3.29,0,0,0-.43-1.88c-.57-1.07-2-.75-2-.75a5.2,5.2,0,0,0-2.44,1.94,13.32,13.32,0,0,0-2,3.82A2,2,0,0,0,30.24,11.44Z"/><path id="_Path_5" data-name="&lt;Path&gt;" class="cls-4" d="M29.47,10.5a13.32,13.32,0,0,1,2-3.82,5.2,5.2,0,0,1,2.44-1.94s1.44-.32,2,.75a3.29,3.29,0,0,1,.43,1.88A6.34,6.34,0,0,0,33.6,8.62a15.82,15.82,0,0,0-2.31,3.13A2,2,0,0,1,29.47,10.5Z"/><path id="_Path_6" data-name="&lt;Path&gt;" class="cls-3" d="M29.77,8.27s.83-3.07-2.82-5C23.8,1.68,22,2.49,19.77,2.57a.73.73,0,0,0-.65,1C20.72,7,24.12,11.3,29.77,8.27Z"/><path id="_Path_7" data-name="&lt;Path&gt;" class="cls-7" d="M20,2.55l-.24,0a.73.73,0,0,0-.65,1c1.6,3.36,5,7.7,10.65,4.67a4,4,0,0,0-.31-2.52C24.87,8,21.8,5.41,20,2.55Z"/><path id="_Path_8" data-name="&lt;Path&gt;" class="cls-4" d="M29.77,8.27s.83-3.07-2.82-5C23.8,1.68,22,2.49,19.77,2.57a.73.73,0,0,0-.65,1C20.72,7,24.12,11.3,29.77,8.27Z"/></g></svg>