<svg id="Icons" xmlns="http://www.w3.org/2000/svg" viewBox="0 0 48 48"><defs><style>.cls-1{fill:#45413c;opacity:0.15;}.cls-2{fill:#ff6242;}.cls-3{fill:#e04122;}.cls-4{fill:none;}.cls-4,.cls-7{stroke:#45413c;stroke-linecap:round;stroke-linejoin:round;}.cls-5,.cls-7{fill:#6dd627;}.cls-6{fill:#9ceb60;}</style></defs><title>533-tomato</title><g id="_Group_" data-name="&lt;Group&gt;"><ellipse id="_Ellipse_" data-name="&lt;Ellipse&gt;" class="cls-1" cx="24" cy="44.65" rx="18.03" ry="2.35"/><path class="cls-2" d="M28.85,9.51h-9.7c-9,0-16.32,6.66-16.32,15.68C2.83,35.22,11,44,21,44h6c10,0,18.18-8.78,18.18-18.81C45.17,16.17,37.86,9.51,28.85,9.51Z"/><path id="_Path_" data-name="&lt;Path&gt;" class="cls-3" d="M27,38.64H21c-9.11,0-16.62-7.22-18-16a15.71,15.71,0,0,0-.23,2.6C2.83,35.22,11,44,21,44h6c10,0,18.18-8.78,18.18-18.81a15.71,15.71,0,0,0-.23-2.6C43.61,31.42,36.1,38.64,27,38.64Z"/><path class="cls-4" d="M28.85,9.51h-9.7c-9,0-16.32,6.66-16.32,15.68C2.83,35.22,11,44,21,44h6c10,0,18.18-8.78,18.18-18.81C45.17,16.17,37.86,9.51,28.85,9.51Z"/><path id="_Path_2" data-name="&lt;Path&gt;" class="cls-5" d="M24.19,15.93a31.79,31.79,0,0,1,8.65,3.78.78.78,0,0,0,1.18-.8,9.33,9.33,0,0,0-2.94-5.6.76.76,0,0,1,.08-1.24,14.89,14.89,0,0,1,4.14-1.35.78.78,0,0,0,.21-1.46,10.35,10.35,0,0,0-6-1.22,8,8,0,0,0-4.91,2.37.8.8,0,0,1-1.16,0A8,8,0,0,0,18.51,8a10.35,10.35,0,0,0-6,1.22.78.78,0,0,0,.21,1.46,14.89,14.89,0,0,1,4.14,1.35.76.76,0,0,1,.08,1.24A9.33,9.33,0,0,0,14,18.91a.78.78,0,0,0,1.18.8,31.79,31.79,0,0,1,8.65-3.78A.81.81,0,0,1,24.19,15.93Z"/><g id="_Group_2" data-name="&lt;Group&gt;"><path id="_Path_3" data-name="&lt;Path&gt;" class="cls-6" d="M12.7,10.72c.38.07.79.17,1.2.27a9.58,9.58,0,0,1,4.61-.6,8,8,0,0,1,4.91,2.37.8.8,0,0,0,1.16,0,8,8,0,0,1,4.91-2.37,9.58,9.58,0,0,1,4.61.6c.41-.1.82-.2,1.2-.27a.78.78,0,0,0,.21-1.46,10.35,10.35,0,0,0-6-1.22,8,8,0,0,0-4.91,2.37.8.8,0,0,1-1.16,0A8,8,0,0,0,18.51,8a10.35,10.35,0,0,0-6,1.22A.78.78,0,0,0,12.7,10.72Z"/></g><path id="_Path_4" data-name="&lt;Path&gt;" class="cls-4" d="M24.19,15.93a31.79,31.79,0,0,1,8.65,3.78.78.78,0,0,0,1.18-.8,9.33,9.33,0,0,0-2.94-5.6.76.76,0,0,1,.08-1.24,14.89,14.89,0,0,1,4.14-1.35.78.78,0,0,0,.21-1.46,10.35,10.35,0,0,0-6-1.22,8,8,0,0,0-4.91,2.37.8.8,0,0,1-1.16,0A8,8,0,0,0,18.51,8a10.35,10.35,0,0,0-6,1.22.78.78,0,0,0,.21,1.46,14.89,14.89,0,0,1,4.14,1.35.76.76,0,0,1,.08,1.24A9.33,9.33,0,0,0,14,18.91a.78.78,0,0,0,1.18.8,31.79,31.79,0,0,1,8.65-3.78A.81.81,0,0,1,24.19,15.93Z"/><path id="_Path_5" data-name="&lt;Path&gt;" class="cls-7" d="M22.43,13.14A9.87,9.87,0,0,1,24.8,6.41,1.46,1.46,0,0,1,25.85,6a2.26,2.26,0,0,1,1,.22,1.1,1.1,0,0,1,.39,1.69,17.32,17.32,0,0,0-2.11,5.25"/></g></svg>