<svg id="Icons" xmlns="http://www.w3.org/2000/svg" viewBox="0 0 48 48"><defs><style>.cls-1{fill:#45413c;opacity:0.15;}.cls-10,.cls-2{fill:#debb7e;}.cls-3{fill:#b89558;}.cls-4{fill:none;}.cls-10,.cls-4,.cls-5,.cls-6,.cls-7,.cls-8{stroke:#45413c;stroke-linecap:round;stroke-linejoin:round;}.cls-5{fill:#bf8256;}.cls-6{fill:#6dd627;}.cls-7{fill:#ff6242;}.cls-8{fill:#ffe500;}.cls-9{fill:#f0d5a8;}</style></defs><title>540-hamburger-2</title><g id="_Group_" data-name="&lt;Group&gt;"><ellipse id="_Ellipse_" data-name="&lt;Ellipse&gt;" class="cls-1" cx="24" cy="44.34" rx="20.46" ry="1.66"/><g id="_Group_2" data-name="&lt;Group&gt;"><path id="_Path_" data-name="&lt;Path&gt;" class="cls-2" d="M43.35,31.34v5c0,4-8.66,7.19-19.35,7.19S4.65,40.28,4.65,36.31v-5Z"/><g id="_Group_3" data-name="&lt;Group&gt;"><path id="_Path_2" data-name="&lt;Path&gt;" class="cls-3" d="M4.65,33.55c0,4,8.66,7.19,19.35,7.19s19.35-3.22,19.35-7.19V31.34H4.65Z"/></g><path id="_Path_3" data-name="&lt;Path&gt;" class="cls-4" d="M43.35,31.34v5c0,4-8.66,7.19-19.35,7.19S4.65,40.28,4.65,36.31v-5Z"/></g><g id="_Group_4" data-name="&lt;Group&gt;"><path id="_Path_4" data-name="&lt;Path&gt;" class="cls-5" d="M24,38c23.84,0,23.22-7.74,20.46-12.16C41.69,21.94,35.3,18.62,24,18.62S6.31,21.94,3.54,25.81C.78,30.23.16,38,24,38Z"/></g><path id="_Path_5" data-name="&lt;Path&gt;" class="cls-6" d="M43.35,23.6s3.32,1.1,3.32,4.42-4.43.55-6.08,1.66-.42,3.64-2.77,4.42c-3.32,1.11-5-2.09-7.19-1.66C27.87,33,29,35.76,24,35.76S20.13,33,17.37,32.44C15.2,32,13.5,35.21,10.18,34.1c-2.35-.78-1.11-3.32-2.77-4.42S1.33,31.34,1.33,28,4.65,23.6,4.65,23.6Z"/><path id="_Path_6" data-name="&lt;Path&gt;" class="cls-7" d="M6.86,25.81s-1.84,3.82,2.21,5c3.87,1.11,7.74-2.21,11.06-2.21s6.42,4.89,10.5,3.87c4.43-1.1,2.22-3.31,5-4.42s12.16,2.76,6.63-3.87Z"/><path id="_Path_7" data-name="&lt;Path&gt;" class="cls-8" d="M25.11,29.13h-9.4v2.76a2.21,2.21,0,0,0,2.21,2.21H19v2.49a1.94,1.94,0,0,0,3.87,0V32.44a2.21,2.21,0,0,0,2.22-2.21Z"/><g id="_Group_5" data-name="&lt;Group&gt;"><g id="_Group_6" data-name="&lt;Group&gt;"><path id="_Path_8" data-name="&lt;Path&gt;" class="cls-9" d="M43.35,23c0,4-8.66,7.19-19.35,7.19S4.65,27,4.65,23c0,0,1.11-12.71,19.35-12.71S43.35,23,43.35,23Z"/><path id="_Path_9" data-name="&lt;Path&gt;" class="cls-2" d="M24,26.36c-9.13,0-16.79-2.35-18.82-5.51A10.37,10.37,0,0,0,4.65,23c0,4,8.66,7.19,19.35,7.19S43.35,27,43.35,23a10.37,10.37,0,0,0-.53-2.19C40.79,24,33.13,26.36,24,26.36Z"/><path id="_Path_10" data-name="&lt;Path&gt;" class="cls-4" d="M43.35,23c0,4-8.66,7.19-19.35,7.19S4.65,27,4.65,23c0,0,1.11-12.71,19.35-12.71S43.35,23,43.35,23Z"/></g><path id="_Path_11" data-name="&lt;Path&gt;" class="cls-10" d="M12.66,16.18a1.11,1.11,0,0,0-.78,1.36,1.09,1.09,0,0,0,1.35.78L14.3,18a1.1,1.1,0,1,0-.58-2.13Z"/><path id="_Path_12" data-name="&lt;Path&gt;" class="cls-10" d="M19.12,19.17a1.11,1.11,0,1,0,2,.92l.45-1a1.09,1.09,0,0,0-.54-1.46,1.11,1.11,0,0,0-1.47.54Z"/><path id="_Path_13" data-name="&lt;Path&gt;" class="cls-10" d="M35.34,16.18a1.11,1.11,0,0,1,.78,1.36,1.09,1.09,0,0,1-1.35.78L33.7,18a1.1,1.1,0,1,1,.58-2.13Z"/><path id="_Path_14" data-name="&lt;Path&gt;" class="cls-10" d="M28.88,19.17a1.11,1.11,0,0,1-2,.92l-.45-1A1.09,1.09,0,0,1,27,17.62a1.11,1.11,0,0,1,1.47.54Z"/></g></g></svg>