<svg id="Icons" xmlns="http://www.w3.org/2000/svg" viewBox="0 0 48 48"><defs><style>.cls-1{fill:#45413c;opacity:0.15;}.cls-10,.cls-2{fill:#debb7e;}.cls-3{fill:#b89558;}.cls-4{fill:none;}.cls-10,.cls-4,.cls-5,.cls-6,.cls-7,.cls-8{stroke:#45413c;stroke-linecap:round;stroke-linejoin:round;}.cls-5{fill:#bf8256;}.cls-6{fill:#6dd627;}.cls-7{fill:#ffe500;}.cls-8{fill:#ff6242;}.cls-9{fill:#f0d5a8;}</style></defs><title>541-hamburger-3</title><g id="_Group_" data-name="&lt;Group&gt;"><ellipse id="_Ellipse_" data-name="&lt;Ellipse&gt;" class="cls-1" cx="24" cy="44.36" rx="20.23" ry="1.64"/><g id="_Group_2" data-name="&lt;Group&gt;"><path id="_Path_" data-name="&lt;Path&gt;" class="cls-2" d="M43.14,31.47v4.92c0,3.93-8.57,7.11-19.14,7.11S4.86,40.32,4.86,36.39V31.47Z"/><g id="_Group_3" data-name="&lt;Group&gt;"><path id="_Path_2" data-name="&lt;Path&gt;" class="cls-3" d="M4.86,33.66c0,3.92,8.57,7.11,19.14,7.11s19.14-3.19,19.14-7.11V31.47H4.86Z"/></g><path id="_Path_3" data-name="&lt;Path&gt;" class="cls-4" d="M43.14,31.47v4.92c0,3.93-8.57,7.11-19.14,7.11S4.86,40.32,4.86,36.39V31.47Z"/></g><g id="_Group_4" data-name="&lt;Group&gt;"><path id="_Path_4" data-name="&lt;Path&gt;" class="cls-5" d="M24,38c23.58,0,23-7.65,20.23-12C41.5,22.18,35.17,18.9,24,18.9S6.5,22.18,3.77,26C1,30.38.42,38,24,38Z"/></g><path id="_Path_5" data-name="&lt;Path&gt;" class="cls-6" d="M43.14,23.82s3.28,1.09,3.28,4.37-4.38.55-6,1.64-.41,3.6-2.73,4.38c-3.28,1.09-5-2.07-7.11-1.64-2.73.54-1.64,3.28-6.56,3.28s-3.83-2.74-6.56-3.28c-2.15-.43-3.83,2.73-7.11,1.64C8,33.43,9.24,30.93,7.6,29.83s-6,1.64-6-1.64,3.28-4.37,3.28-4.37Z"/><path id="_Path_6" data-name="&lt;Path&gt;" class="cls-7" d="M42.59,27.14h-9.3v3.24a2.19,2.19,0,0,0,2.19,2.19h1.09V35a1.92,1.92,0,0,0,3.83,0v-4.1a2.19,2.19,0,0,0,2.19-2.19Z"/><g id="_Group_5" data-name="&lt;Group&gt;"><g id="_Group_6" data-name="&lt;Group&gt;"><path id="_Path_7" data-name="&lt;Path&gt;" class="cls-5" d="M24,30.38c23.58,0,23-7.66,20.23-12C41.5,14.52,35.17,11.24,24,11.24S6.5,14.52,3.77,18.35C1,22.72.42,30.38,24,30.38Z"/></g><path id="_Path_8" data-name="&lt;Path&gt;" class="cls-6" d="M43.14,16.16s3.28,1.1,3.28,4.38-4.38.54-6,1.64-.41,3.6-2.73,4.37c-3.28,1.09-5-2.07-7.11-1.64-2.73.55-1.64,3.28-6.56,3.28s-3.83-2.73-6.56-3.28c-2.15-.43-3.83,2.73-7.11,1.64C8,25.78,9.24,23.27,7.6,22.18s-6,1.64-6-1.64,3.28-4.38,3.28-4.38Z"/><path id="_Path_9" data-name="&lt;Path&gt;" class="cls-8" d="M7.05,18.35s-1.82,3.78,2.19,4.92c3.83,1.09,7.65-2.19,10.93-2.19s6.35,4.84,10.39,3.83c4.37-1.09,2.19-3.28,4.92-4.37s12,2.73,6.56-3.83Z"/><path id="_Path_10" data-name="&lt;Path&gt;" class="cls-7" d="M26.73,21.63H17.44v2.73a2.19,2.19,0,0,0,2.19,2.19h1.09V29a1.92,1.92,0,1,0,3.83,0v-4.1a2.19,2.19,0,0,0,2.18-2.19Z"/><g id="_Group_7" data-name="&lt;Group&gt;"><g id="_Group_8" data-name="&lt;Group&gt;"><path id="_Path_11" data-name="&lt;Path&gt;" class="cls-9" d="M43.14,15.62c0,3.92-8.57,7.1-19.14,7.1S4.86,19.54,4.86,15.62C4.86,15.62,6,3,24,3S43.14,15.62,43.14,15.62Z"/><path id="_Path_12" data-name="&lt;Path&gt;" class="cls-2" d="M24,18.9c-9,0-16.61-2.33-18.61-5.46a10.23,10.23,0,0,0-.53,2.18c0,3.92,8.57,7.1,19.14,7.1s19.14-3.18,19.14-7.1a10.23,10.23,0,0,0-.53-2.18C40.61,16.57,33,18.9,24,18.9Z"/><path id="_Path_13" data-name="&lt;Path&gt;" class="cls-4" d="M43.14,15.62c0,3.92-8.57,7.1-19.14,7.1S4.86,19.54,4.86,15.62C4.86,15.62,6,3,24,3S43.14,15.62,43.14,15.62Z"/></g><path id="_Path_14" data-name="&lt;Path&gt;" class="cls-10" d="M12.78,8.83a1.09,1.09,0,1,0,.57,2.11l1.06-.28a1.09,1.09,0,1,0-.57-2.11Z"/><path id="_Path_15" data-name="&lt;Path&gt;" class="cls-10" d="M19.18,11.79a1.09,1.09,0,0,0,2,.9l.45-1a1.09,1.09,0,0,0-2-.91Z"/><path id="_Path_16" data-name="&lt;Path&gt;" class="cls-10" d="M35.22,8.83a1.09,1.09,0,1,1-.57,2.11l-1.06-.28a1.09,1.09,0,1,1,.57-2.11Z"/><path id="_Path_17" data-name="&lt;Path&gt;" class="cls-10" d="M28.82,11.79a1.09,1.09,0,0,1-2,.9l-.45-1a1.09,1.09,0,1,1,2-.91Z"/></g></g></g></svg>