<svg id="Icons" xmlns="http://www.w3.org/2000/svg" viewBox="0 0 48 48"><defs><style>.cls-1{fill:#45413c;opacity:0.15;}.cls-2{fill:#e04122;}.cls-2,.cls-5,.cls-8{stroke:#45413c;stroke-linecap:round;stroke-linejoin:round;}.cls-3,.cls-8{fill:#ffe500;}.cls-4{fill:#fff48c;}.cls-5{fill:none;}.cls-6{fill:#ff6242;}.cls-7{fill:#ff866e;}</style></defs><title>542-french-fries</title><g id="_Group_" data-name="&lt;Group&gt;"><ellipse id="_Ellipse_" data-name="&lt;Ellipse&gt;" class="cls-1" cx="24" cy="45.26" rx="16.26" ry="1.74"/><path class="cls-2" d="M24,3.77C13.4,3.77,4.87,9.27,5.12,16L8.36,43a2.32,2.32,0,0,0,2.31,2H37.33a2.32,2.32,0,0,0,2.31-2l3.24-27C43.13,9.27,34.6,3.77,24,3.77Z"/><path id="_Path_" data-name="&lt;Path&gt;" class="cls-3" d="M15.1,30.56l-3.44.59a.58.58,0,0,1-.67-.47L6.54,4.79a.58.58,0,0,1,.34-.62l3.29-1.45a.57.57,0,0,1,.8.43l4.6,26.74A.58.58,0,0,1,15.1,30.56Z"/><path id="_Path_2" data-name="&lt;Path&gt;" class="cls-4" d="M7,7.53,11.44,5.9,11,3.15a.57.57,0,0,0-.8-.43L6.88,4.17a.57.57,0,0,0-.34.62Z"/><path id="_Path_3" data-name="&lt;Path&gt;" class="cls-5" d="M15.1,30.56l-3.44.59a.58.58,0,0,1-.67-.47L6.54,4.79a.58.58,0,0,1,.34-.62l3.29-1.45a.57.57,0,0,1,.8.43l4.6,26.74A.58.58,0,0,1,15.1,30.56Z"/><path id="_Path_4" data-name="&lt;Path&gt;" class="cls-3" d="M16.16,2.61l3.49,0a.58.58,0,0,1,.58.58L20,29.48a.57.57,0,0,1-.44.56l-3.49.85a.59.59,0,0,1-.72-.57l.22-27.14A.57.57,0,0,1,16.16,2.61Z"/><path id="_Path_5" data-name="&lt;Path&gt;" class="cls-4" d="M20.2,6.56l0-3.34a.58.58,0,0,0-.58-.58l-3.49,0a.57.57,0,0,0-.58.57l0,3.34Z"/><path id="_Path_6" data-name="&lt;Path&gt;" class="cls-5" d="M16.16,2.61l3.49,0a.58.58,0,0,1,.58.58L20,29.48a.57.57,0,0,1-.44.56l-3.49.85a.59.59,0,0,1-.72-.57l.22-27.14A.57.57,0,0,1,16.16,2.61Z"/><path id="_Path_7" data-name="&lt;Path&gt;" class="cls-3" d="M22.61,6.72,26.08,7a.58.58,0,0,1,.53.63L24.46,33.8a.58.58,0,0,1-.49.53l-3.54.58a.58.58,0,0,1-.67-.62L22,7.25A.58.58,0,0,1,22.61,6.72Z"/><path id="_Path_8" data-name="&lt;Path&gt;" class="cls-4" d="M26.61,7.63A.58.58,0,0,0,26.08,7l-3.47-.28a.58.58,0,0,0-.63.53l-.25,3.07,4.63.38Z"/><path id="_Path_9" data-name="&lt;Path&gt;" class="cls-5" d="M22.61,6.72,26.08,7a.58.58,0,0,1,.53.63L24.46,33.8a.58.58,0,0,1-.49.53l-3.54.58a.58.58,0,0,1-.67-.62L22,7.25A.58.58,0,0,1,22.61,6.72Z"/><path id="_Path_10" data-name="&lt;Path&gt;" class="cls-3" d="M36.94,35.31l-3.44-.52a.58.58,0,0,1-.49-.66l3.89-26a.57.57,0,0,1,.52-.49L41,7.32a.59.59,0,0,1,.63.67l-4,26.83A.58.58,0,0,1,36.94,35.31Z"/><path id="_Path_11" data-name="&lt;Path&gt;" class="cls-4" d="M40.42,10.39a.79.79,0,0,1,.78.43L41.63,8A.59.59,0,0,0,41,7.32l-3.58.35a.57.57,0,0,0-.52.49l-.36,2.41Z"/><path id="_Path_12" data-name="&lt;Path&gt;" class="cls-5" d="M36.94,35.31l-3.44-.52a.58.58,0,0,1-.49-.66l3.89-26a.57.57,0,0,1,.52-.49L41,7.32a.59.59,0,0,1,.63.67l-4,26.83A.58.58,0,0,1,36.94,35.31Z"/><path id="_Path_13" data-name="&lt;Path&gt;" class="cls-3" d="M31.59,30.36l3.48-.26a.58.58,0,0,0,.53-.63l-2-26.18a.58.58,0,0,0-.48-.53l-3.54-.61a.58.58,0,0,0-.68.61l2,27.06A.58.58,0,0,0,31.59,30.36Z"/><path id="_Path_14" data-name="&lt;Path&gt;" class="cls-4" d="M29.69,6.2l4.2.53-.25-3.44a.58.58,0,0,0-.48-.53l-3.54-.61a.58.58,0,0,0-.68.61L29.2,6.3A.82.82,0,0,1,29.69,6.2Z"/><path id="_Path_15" data-name="&lt;Path&gt;" class="cls-5" d="M31.59,30.36l3.48-.26a.58.58,0,0,0,.53-.63l-2-26.18a.58.58,0,0,0-.48-.53l-3.54-.61a.58.58,0,0,0-.68.61l2,27.06A.58.58,0,0,0,31.59,30.36Z"/><path id="_Path_16" data-name="&lt;Path&gt;" class="cls-3" d="M34.6,37.72l-3.44.59a.59.59,0,0,1-.67-.48L26,12a.6.6,0,0,1,.34-.63l3.29-1.45a.58.58,0,0,1,.8.44l4.6,26.74A.59.59,0,0,1,34.6,37.72Z"/><path id="_Path_17" data-name="&lt;Path&gt;" class="cls-4" d="M31.13,14.13l-.66-3.82a.58.58,0,0,0-.8-.44l-3.29,1.45A.6.6,0,0,0,26,12l.66,3.81Z"/><path id="_Path_18" data-name="&lt;Path&gt;" class="cls-5" d="M34.6,37.72l-3.44.59a.59.59,0,0,1-.67-.48L26,12a.6.6,0,0,1,.34-.63l3.29-1.45a.58.58,0,0,1,.8.44l4.6,26.74A.59.59,0,0,1,34.6,37.72Z"/><path id="_Path_19" data-name="&lt;Path&gt;" class="cls-3" d="M12.32,39.46l3.47.27a.58.58,0,0,0,.62-.54l2-26.18a.57.57,0,0,0-.4-.59l-3.4-1.14a.59.59,0,0,0-.77.5l-2.1,27.05A.6.6,0,0,0,12.32,39.46Z"/><path id="_Path_20" data-name="&lt;Path&gt;" class="cls-4" d="M18.24,15.7,18.45,13a.57.57,0,0,0-.4-.59l-3.4-1.14a.59.59,0,0,0-.77.5l-.21,2.71Z"/><path id="_Path_21" data-name="&lt;Path&gt;" class="cls-5" d="M12.32,39.46l3.47.27a.58.58,0,0,0,.62-.54l2-26.18a.57.57,0,0,0-.4-.59l-3.4-1.14a.59.59,0,0,0-.77.5l-2.1,27.05A.6.6,0,0,0,12.32,39.46Z"/><path id="_Path_22" data-name="&lt;Path&gt;" class="cls-3" d="M21.49,44.42,18,44.51a.57.57,0,0,1-.59-.56l-.66-26.26a.59.59,0,0,1,.43-.57l3.46-1a.58.58,0,0,1,.73.55l.68,27.12A.57.57,0,0,1,21.49,44.42Z"/><path id="_Path_23" data-name="&lt;Path&gt;" class="cls-4" d="M17.33,20.7l4.12-.88-.08-3.11a.58.58,0,0,0-.73-.55l-3.46,1a.59.59,0,0,0-.43.57L16.84,21A.71.71,0,0,1,17.33,20.7Z"/><path id="_Path_24" data-name="&lt;Path&gt;" class="cls-5" d="M21.49,44.42,18,44.51a.57.57,0,0,1-.59-.56l-.66-26.26a.59.59,0,0,1,.43-.57l3.46-1a.58.58,0,0,1,.73.55l.68,27.12A.57.57,0,0,1,21.49,44.42Z"/><path id="_Path_25" data-name="&lt;Path&gt;" class="cls-3" d="M25.48,14.29l3.46.41a.58.58,0,0,1,.51.64L26.36,41.42a.57.57,0,0,1-.51.51l-3.56.45a.58.58,0,0,1-.65-.64l3.2-26.94A.57.57,0,0,1,25.48,14.29Z"/><path id="_Path_26" data-name="&lt;Path&gt;" class="cls-4" d="M28.75,18.26a.76.76,0,0,1,.34.11l.36-3a.58.58,0,0,0-.51-.64l-3.46-.41a.57.57,0,0,0-.64.51l-.35,2.95Z"/><path id="_Path_27" data-name="&lt;Path&gt;" class="cls-5" d="M25.48,14.29l3.46.41a.58.58,0,0,1,.51.64L26.36,41.42a.57.57,0,0,1-.51.51l-3.56.45a.58.58,0,0,1-.65-.64l3.2-26.94A.57.57,0,0,1,25.48,14.29Z"/><path id="_Path_28" data-name="&lt;Path&gt;" class="cls-6" d="M39.23,16a1.16,1.16,0,0,0-1.11.78c-1.5,4.88-7.25,8.51-14.12,8.51S11.38,21.62,9.88,16.74A1.16,1.16,0,0,0,8.77,16H5.12L8.36,43a2.32,2.32,0,0,0,2.31,2H37.33a2.32,2.32,0,0,0,2.31-2l3.24-27Z"/><path id="_Path_29" data-name="&lt;Path&gt;" class="cls-7" d="M7.5,21.19a1.16,1.16,0,0,1,1.11.68c1.5,4.3,8.52,7.5,15.39,7.5s13.89-3.2,15.39-7.5a1.16,1.16,0,0,1,1.11-.68h1.75L42.88,16H39.23a1.16,1.16,0,0,0-1.11.78c-1.5,4.88-7.25,8.51-14.12,8.51S11.38,21.62,9.88,16.74A1.16,1.16,0,0,0,8.77,16H5.12l.63,5.23Z"/><path id="_Path_30" data-name="&lt;Path&gt;" class="cls-5" d="M39.23,16a1.16,1.16,0,0,0-1.11.78c-1.5,4.88-7.25,8.51-14.12,8.51S11.38,21.62,9.88,16.74A1.16,1.16,0,0,0,8.77,16H5.12L8.36,43a2.32,2.32,0,0,0,2.31,2H37.33a2.32,2.32,0,0,0,2.31-2l3.24-27Z"/><ellipse id="_Path_31" data-name="&lt;Path&gt;" class="cls-8" cx="24" cy="35.13" rx="6.39" ry="4.07"/></g></svg>