<svg id="Icons" xmlns="http://www.w3.org/2000/svg" viewBox="0 0 48 48"><defs><style>.cls-1{fill:#45413c;opacity:0.15;}.cls-2{fill:#ffe500;}.cls-3{fill:#ebcb00;}.cls-4{fill:#ff6242;}.cls-4,.cls-7{stroke:#45413c;stroke-linecap:round;stroke-linejoin:round;}.cls-5{fill:#f0d5a8;}.cls-6{fill:#f7e5c6;}.cls-7{fill:none;}</style></defs><title>543-pizza-1</title><g id="_Group_" data-name="&lt;Group&gt;"><ellipse id="_Ellipse_" data-name="&lt;Ellipse&gt;" class="cls-1" cx="24" cy="45.5" rx="11.5" ry="1.5"/><g id="_Group_2" data-name="&lt;Group&gt;"><path id="_Path_" data-name="&lt;Path&gt;" class="cls-2" d="M40.63,11.39a37.49,37.49,0,0,0-33.26,0L9.63,16a18,18,0,0,1,1.87,8v4.44a2.07,2.07,0,0,0,1.66,2.08,2,2,0,0,0,2.34-2v-.68L23.11,43.2a1,1,0,0,0,1.78,0l2.61-5.27V40a1.5,1.5,0,0,0,3,0V34.2a9.88,9.88,0,0,1,1-4.43c1.26-2.56,2.61-5.27,4-8V24.5a1.5,1.5,0,0,0,3,0V18a10.05,10.05,0,0,1,1-4.44Z"/><path id="_Path_2" data-name="&lt;Path&gt;" class="cls-3" d="M24,10.75a37.31,37.31,0,0,1,15.35,3.3c.06-.15.12-.31.19-.45l1.09-2.21a37.49,37.49,0,0,0-33.26,0L8.68,14A37.32,37.32,0,0,1,24,10.75Z"/><path id="_Path_3" data-name="&lt;Path&gt;" class="cls-4" d="M30.5,22.5a4.5,4.5,0,0,0,0,9l.19,0c1.11-2.23,2.29-4.62,3.49-7.06A4.47,4.47,0,0,0,30.5,22.5Z"/><path id="_Path_4" data-name="&lt;Path&gt;" class="cls-4" d="M23.5,33A4.49,4.49,0,0,0,19,28.5a4.44,4.44,0,0,0-2.71.93l3.91,7.89A4.49,4.49,0,0,0,23.5,33Z"/><circle id="_Path_5" data-name="&lt;Path&gt;" class="cls-4" cx="30.5" cy="14.5" r="4.5"/><path id="_Path_6" data-name="&lt;Path&gt;" class="cls-5" d="M24,7.5a37.27,37.27,0,0,1,16.63,3.89s2.47.31,2.87-1.89c1-5.5-15.33-7-19.5-7S3.5,4,4.5,9.5c.4,2.2,2.87,1.89,2.87,1.89A37.27,37.27,0,0,1,24,7.5Z"/><path id="_Path_7" data-name="&lt;Path&gt;" class="cls-6" d="M4.54,9.66C8.18,6.07,20.4,5,24,5S39.82,6.07,43.46,9.66c0-.06,0-.1,0-.16,1-5.5-15.33-7-19.5-7S3.5,4,4.5,9.5C4.51,9.56,4.53,9.6,4.54,9.66Z"/><path id="_Path_8" data-name="&lt;Path&gt;" class="cls-7" d="M24,7.5a37.27,37.27,0,0,1,16.63,3.89s2.47.31,2.87-1.89c1-5.5-15.33-7-19.5-7S3.5,4,4.5,9.5c.4,2.2,2.87,1.89,2.87,1.89A37.27,37.27,0,0,1,24,7.5Z"/><circle id="_Path_9" data-name="&lt;Path&gt;" class="cls-4" cx="17" cy="17" r="4.5"/><line id="_Line_" data-name="&lt;Line&gt;" class="cls-7" x1="15.5" y1="27.82" x2="15.5" y2="25.5"/><path id="_Path_10" data-name="&lt;Path&gt;" class="cls-7" d="M40.63,11.39a37.49,37.49,0,0,0-33.26,0L9.63,16a18,18,0,0,1,1.87,8v4.44a2.07,2.07,0,0,0,1.66,2.08,2,2,0,0,0,2.34-2v-.68L23.11,43.2a1,1,0,0,0,1.78,0l2.61-5.27V40a1.5,1.5,0,0,0,3,0V34.2a9.88,9.88,0,0,1,1-4.43c1.26-2.56,2.61-5.27,4-8V24.5a1.5,1.5,0,0,0,3,0V18a10.05,10.05,0,0,1,1-4.44Z"/><line id="_Line_2" data-name="&lt;Line&gt;" class="cls-7" x1="27.5" y1="35.5" x2="27.5" y2="37.93"/><line id="_Line_3" data-name="&lt;Line&gt;" class="cls-7" x1="35.5" y1="20" x2="35.5" y2="21.76"/></g></g></svg>