<svg id="Icons" xmlns="http://www.w3.org/2000/svg" viewBox="0 0 48 48"><defs><style>.cls-1{fill:#45413c;opacity:0.15;}.cls-2{fill:#ff866e;}.cls-3{fill:#ffa694;}.cls-4{fill:none;stroke:#45413c;stroke-linecap:round;stroke-linejoin:round;}.cls-5{fill:#ffe500;}.cls-6{fill:#fff48c;}</style></defs><title>550-fried-shrimp</title><g id="_Group_" data-name="&lt;Group&gt;"><ellipse id="_Ellipse_" data-name="&lt;Ellipse&gt;" class="cls-1" cx="26.25" cy="45.5" rx="17" ry="1.5"/><polygon id="_Path_" data-name="&lt;Path&gt;" class="cls-2" points="13.92 35.56 9.39 34.66 8.24 36.43 12.79 39.56 13.92 35.56"/><polygon id="_Path_2" data-name="&lt;Path&gt;" class="cls-3" points="13.52 36.98 13.92 35.56 9.39 34.66 8.73 35.67 13.52 36.98"/><polygon id="_Path_3" data-name="&lt;Path&gt;" class="cls-4" points="13.92 35.56 9.39 34.66 8.24 36.43 12.79 39.56 13.92 35.56"/><path id="_Path_4" data-name="&lt;Path&gt;" class="cls-2" d="M9.39,34.65S6.79,29,5.75,27.32,1.61,25.6,1.61,28.56c0,4.28,6.63,7.87,6.63,7.87Z"/><path id="_Path_5" data-name="&lt;Path&gt;" class="cls-3" d="M5.75,29.32c.74,1.19,2.28,4.42,3.1,6.17l.54-.83S6.79,29,5.75,27.32,1.61,25.6,1.61,28.56a4.48,4.48,0,0,0,.14,1C2.36,27.64,4.85,27.87,5.75,29.32Z"/><path id="_Path_6" data-name="&lt;Path&gt;" class="cls-4" d="M9.39,34.65S6.79,29,5.75,27.32,1.61,25.6,1.61,28.56c0,4.28,6.63,7.87,6.63,7.87Z"/><path id="_Path_7" data-name="&lt;Path&gt;" class="cls-2" d="M9.39,34.65a57.68,57.68,0,0,0-.11-7.6c-.35-1.92-3.22-3.13-4.31-.37-1.57,4,3.27,9.75,3.27,9.75Z"/><path id="_Path_8" data-name="&lt;Path&gt;" class="cls-3" d="M5,28.51c1.09-2.76,4-1.55,4.31.37a18.74,18.74,0,0,1,.18,2.83,31.47,31.47,0,0,0-.18-4.66c-.35-1.92-3.22-3.13-4.31-.37a5.3,5.3,0,0,0-.23,2.69A4.37,4.37,0,0,1,5,28.51Z"/><path id="_Path_9" data-name="&lt;Path&gt;" class="cls-4" d="M9.39,34.65a57.68,57.68,0,0,0-.11-7.6c-.35-1.92-3.22-3.13-4.31-.37-1.57,4,3.27,9.75,3.27,9.75Z"/><path class="cls-2" d="M14.88,34.73a3.18,3.18,0,0,0-.41,6.17l2.78.87L19,34Z"/><path id="_Path_10" data-name="&lt;Path&gt;" class="cls-3" d="M14.58,37.5l3.72-.41L19,34l-4.11.73a3.18,3.18,0,0,0-2.56,2.47h0a3.22,3.22,0,0,0,.1,1.69A2.75,2.75,0,0,1,14.58,37.5Z"/><path class="cls-4" d="M14.88,34.73a3.18,3.18,0,0,0-.41,6.17l2.78.87L19,34Z"/><path id="_Path_11" data-name="&lt;Path&gt;" class="cls-5" d="M42.85,16.77a7.66,7.66,0,0,0,.65-3.11A7.74,7.74,0,0,0,37,6,6.5,6.5,0,0,0,24.6,5.56a4.42,4.42,0,0,0-1.85-.4,4.5,4.5,0,0,0-2.83,8,6.76,6.76,0,0,0-.17,1.5,6.5,6.5,0,0,0,6.68,6.5,8.5,8.5,0,0,0,.77,6,14.5,14.5,0,0,0-1.05,4.14,6.72,6.72,0,0,0-.9.28,4.1,4.1,0,0,0-1.35-.86,4.23,4.23,0,0,0-5.54,5.39A5.49,5.49,0,0,0,20,45.33a5.48,5.48,0,0,0,5.2-.64,7,7,0,0,0,8.65-3.25c3.59-.29,7.26-3.26,9-7.76a14,14,0,0,0,1-6.13,6.49,6.49,0,0,0-1-10.78Z"/><g id="_Group_2" data-name="&lt;Group&gt;"><path id="_Path_12" data-name="&lt;Path&gt;" class="cls-6" d="M43.5,18.11a7.65,7.65,0,0,1-.65,3.1,6.48,6.48,0,0,1,3,3.52,6.5,6.5,0,0,0-2.46-7.61A8,8,0,0,1,43.5,18.11Z"/><path id="_Path_13" data-name="&lt;Path&gt;" class="cls-6" d="M22.75,9.61a4.42,4.42,0,0,1,1.85.4A6.5,6.5,0,0,1,37,10.47a7.77,7.77,0,0,1,6.14,5.41A7.76,7.76,0,0,0,37,6,6.5,6.5,0,0,0,24.6,5.56a4.42,4.42,0,0,0-1.85-.4,4.5,4.5,0,0,0-4.5,4.5,4.45,4.45,0,0,0,.59,2.23A4.49,4.49,0,0,1,22.75,9.61Z"/></g><path id="_Path_14" data-name="&lt;Path&gt;" class="cls-4" d="M42.85,16.77a7.66,7.66,0,0,0,.65-3.11A7.74,7.74,0,0,0,37,6,6.5,6.5,0,0,0,24.6,5.56a4.42,4.42,0,0,0-1.85-.4,4.5,4.5,0,0,0-2.83,8,6.76,6.76,0,0,0-.17,1.5,6.5,6.5,0,0,0,6.68,6.5,8.5,8.5,0,0,0,.77,6,14.5,14.5,0,0,0-1.05,4.14,6.72,6.72,0,0,0-.9.28,4.1,4.1,0,0,0-1.35-.86,4.23,4.23,0,0,0-5.54,5.39A5.49,5.49,0,0,0,20,45.33a5.48,5.48,0,0,0,5.2-.64,7,7,0,0,0,8.65-3.25c3.59-.29,7.26-3.26,9-7.76a14,14,0,0,0,1-6.13,6.49,6.49,0,0,0-1-10.78Z"/><path id="_Path_15" data-name="&lt;Path&gt;" class="cls-4" d="M26.25,11.16a4.79,4.79,0,0,1,5.5-2c3.58,1.17,3,5,3,5"/><path id="_Path_16" data-name="&lt;Path&gt;" class="cls-4" d="M33.59,35.16a2.94,2.94,0,0,0,3.36-3,5.21,5.21,0,0,0,3.27-3.91,4.94,4.94,0,0,0-3.59-6"/></g></svg>