<svg id="Icons" xmlns="http://www.w3.org/2000/svg" viewBox="0 0 48 48"><defs><style>.cls-1{fill:#45413c;opacity:0.15;}.cls-2{fill:#f0d5a8;}.cls-3{fill:#f7e5c6;}.cls-4{fill:none;stroke:#45413c;stroke-linecap:round;stroke-linejoin:round;}.cls-5{fill:#debb7e;}.cls-6{fill:#fffef2;}.cls-7{fill:#fff;}</style></defs><title>551-soft-ice-cream-1</title><g id="_Group_" data-name="&lt;Group&gt;"><ellipse id="_Ellipse_" data-name="&lt;Ellipse&gt;" class="cls-1" cx="24" cy="45.5" rx="9.5" ry="1.5"/><g id="_Group_2" data-name="&lt;Group&gt;"><g id="_Group_3" data-name="&lt;Group&gt;"><g id="_Group_4" data-name="&lt;Group&gt;"><path id="_Path_" data-name="&lt;Path&gt;" class="cls-2" d="M31,31.89H17a.9.9,0,0,1-.88-.69l-.91-3.63a.91.91,0,0,1,.88-1.13H31.91a.91.91,0,0,1,.88,1.13l-.91,3.63A.9.9,0,0,1,31,31.89Z"/><path id="_Path_2" data-name="&lt;Path&gt;" class="cls-3" d="M15.49,28.71h17l.28-1.14a.91.91,0,0,0-.88-1.13H16.09a.91.91,0,0,0-.88,1.13Z"/><path id="_Path_3" data-name="&lt;Path&gt;" class="cls-4" d="M31,31.89H17a.9.9,0,0,1-.88-.69l-.91-3.63a.91.91,0,0,1,.88-1.13H31.91a.91.91,0,0,1,.88,1.13l-.91,3.63A.9.9,0,0,1,31,31.89Z"/></g><g id="_Group_5" data-name="&lt;Group&gt;"><path id="_Path_4" data-name="&lt;Path&gt;" class="cls-2" d="M26.15,45.5h-4.3a2.72,2.72,0,0,1-2.7-2.36l-1.5-11.25h12.7l-1.5,11.25A2.72,2.72,0,0,1,26.15,45.5Z"/><polygon id="_Path_5" data-name="&lt;Path&gt;" class="cls-5" points="30.05 34.16 30.35 31.89 17.65 31.89 17.95 34.16 30.05 34.16"/><path id="_Path_6" data-name="&lt;Path&gt;" class="cls-4" d="M26.15,45.5h-4.3a2.72,2.72,0,0,1-2.7-2.36l-1.5-11.25h12.7l-1.5,11.25A2.72,2.72,0,0,1,26.15,45.5Z"/></g></g><g id="_Group_6" data-name="&lt;Group&gt;"><g id="_Group_7" data-name="&lt;Group&gt;"><path id="_Path_7" data-name="&lt;Path&gt;" class="cls-6" d="M33,16.79a3.13,3.13,0,0,0,.5-1.69,3.17,3.17,0,0,0-3.18-3.17H29.19a2.71,2.71,0,0,0-2-4.54l-1.37,0a2.7,2.7,0,0,1-2.35-4.05A5.89,5.89,0,0,0,18.1,9.18a8.35,8.35,0,0,0,.46,2.75h-.91a3.17,3.17,0,0,0-3.18,3.17,3.13,3.13,0,0,0,.5,1.69,5,5,0,0,0,1.77,9.65H31.26A5,5,0,0,0,33,16.79Z"/><path id="_Path_8" data-name="&lt;Path&gt;" class="cls-7" d="M14.47,23.27a5,5,0,0,1,3.22-4.66,3.16,3.16,0,0,1,2.68-4.87h.91A8.57,8.57,0,0,1,20.82,11,5.89,5.89,0,0,1,23.5,6.06a2.63,2.63,0,0,1,0-2.75A5.89,5.89,0,0,0,18.1,9.18a8.35,8.35,0,0,0,.46,2.75h-.91a3.17,3.17,0,0,0-3.18,3.17,3.13,3.13,0,0,0,.5,1.69,5,5,0,0,0,.52,9.49A5,5,0,0,1,14.47,23.27Z"/><path id="_Path_9" data-name="&lt;Path&gt;" class="cls-4" d="M33,16.79a3.13,3.13,0,0,0,.5-1.69,3.17,3.17,0,0,0-3.18-3.17H29.19a2.71,2.71,0,0,0-2-4.54l-1.37,0a2.7,2.7,0,0,1-2.35-4.05A5.89,5.89,0,0,0,18.1,9.18a8.35,8.35,0,0,0,.46,2.75h-.91a3.17,3.17,0,0,0-3.18,3.17,3.13,3.13,0,0,0,.5,1.69,5,5,0,0,0,1.77,9.65H31.26A5,5,0,0,0,33,16.79Z"/></g><path id="_Path_10" data-name="&lt;Path&gt;" class="cls-4" d="M31.71,20.09v1.36a1.36,1.36,0,1,1-2.72,0V18.28"/><path id="_Path_11" data-name="&lt;Path&gt;" class="cls-4" d="M23.55,14.65v2.27a1.37,1.37,0,0,1-2.73,0V16"/><g id="_Group_8" data-name="&lt;Group&gt;"><path id="_Path_12" data-name="&lt;Path&gt;" class="cls-6" d="M19.92,25.54v2.27a1.37,1.37,0,0,1-2.73,0V25.54Z"/><path id="_Path_13" data-name="&lt;Path&gt;" class="cls-4" d="M19.92,26.44v1.37a1.37,1.37,0,0,1-2.73,0V25.54"/></g></g></g></g></svg>