<svg id="Icons" xmlns="http://www.w3.org/2000/svg" viewBox="0 0 48 48"><defs><style>.cls-1{fill:#45413c;opacity:0.15;}.cls-2{fill:#fffef2;}.cls-3{fill:#fff;}.cls-4{fill:none;}.cls-4,.cls-6,.cls-7{stroke:#45413c;stroke-linecap:round;stroke-linejoin:round;}.cls-5{fill:#fff48c;}.cls-6{fill:#ffb0ca;}.cls-7,.cls-9{fill:#ff87af;}.cls-8{fill:#ff6196;}</style></defs><title>552-soft-ice-cream-2</title><g id="_Group_" data-name="&lt;Group&gt;"><ellipse id="_Ellipse_" data-name="&lt;Ellipse&gt;" class="cls-1" cx="24" cy="45.5" rx="14.5" ry="1.5"/><g id="_Group_2" data-name="&lt;Group&gt;"><g id="_Group_3" data-name="&lt;Group&gt;"><g id="_Group_4" data-name="&lt;Group&gt;"><path id="_Path_" data-name="&lt;Path&gt;" class="cls-2" d="M35.9,18.73a4.23,4.23,0,0,0,.61-2.57,4.3,4.3,0,0,0-4.33-3.8h-1a3.78,3.78,0,0,0-2.26-6.83c-2,0-8.11.74-6.92-3.4a.76.76,0,0,0-.89-1,8.25,8.25,0,0,0-5.85,8.17,3.77,3.77,0,0,0,1.54,3h-1a4.3,4.3,0,0,0-4.33,3.8,4.23,4.23,0,0,0,.61,2.57A7.22,7.22,0,0,0,6.93,26a7.39,7.39,0,0,0,7.46,6.84H33.61A7.39,7.39,0,0,0,41.07,26,7.22,7.22,0,0,0,35.9,18.73Z"/><path id="_Path_2" data-name="&lt;Path&gt;" class="cls-3" d="M11.1,28.14a7.22,7.22,0,0,1,5.18-7.29,4.09,4.09,0,0,1-.61-2.57A4.29,4.29,0,0,1,20,14.48h1a3.8,3.8,0,0,1-1.53-3,8.52,8.52,0,0,1,3.14-6.77A2.21,2.21,0,0,1,22,2.13a.76.76,0,0,0-.89-1,8.25,8.25,0,0,0-5.85,8.17,3.77,3.77,0,0,0,1.54,3h-1a4.3,4.3,0,0,0-4.33,3.8,4.23,4.23,0,0,0,.61,2.57A7.22,7.22,0,0,0,6.93,26a7.34,7.34,0,0,0,6.27,6.74A7.05,7.05,0,0,1,11.1,28.14Z"/><path id="_Path_3" data-name="&lt;Path&gt;" class="cls-4" d="M35.9,18.73a4.23,4.23,0,0,0,.61-2.57,4.3,4.3,0,0,0-4.33-3.8h-1a3.78,3.78,0,0,0-2.26-6.83c-2,0-8.11.74-6.92-3.4a.76.76,0,0,0-.89-1,8.25,8.25,0,0,0-5.85,8.17,3.77,3.77,0,0,0,1.54,3h-1a4.3,4.3,0,0,0-4.33,3.8,4.23,4.23,0,0,0,.61,2.57A7.22,7.22,0,0,0,6.93,26a7.39,7.39,0,0,0,7.46,6.84H33.61A7.39,7.39,0,0,0,41.07,26,7.22,7.22,0,0,0,35.9,18.73Z"/></g><g id="_Group_5" data-name="&lt;Group&gt;"><path id="_Path_4" data-name="&lt;Path&gt;" class="cls-5" d="M16.41,21.09c0,.42.51.76,1.14.76s1.14-.34,1.14-.76-.51-.76-1.14-.76S16.41,20.67,16.41,21.09Z"/><g id="_Group_6" data-name="&lt;Group&gt;"><path id="_Path_5" data-name="&lt;Path&gt;" class="cls-6" d="M26.94,23a.77.77,0,0,1,.74,1,3.8,3.8,0,0,1-7.36,0,.77.77,0,0,1,.74-1Z"/><path id="_Path_6" data-name="&lt;Path&gt;" class="cls-7" d="M24,26.79a3.8,3.8,0,0,0,3-1.48,6,6,0,0,0-6,0A3.8,3.8,0,0,0,24,26.79Z"/></g><path id="_Path_7" data-name="&lt;Path&gt;" class="cls-4" d="M17.17,19.58a1.14,1.14,0,0,1,2.28,0"/><path id="_Path_8" data-name="&lt;Path&gt;" class="cls-5" d="M31.59,21.09c0,.42-.51.76-1.14.76s-1.14-.34-1.14-.76.51-.76,1.14-.76S31.59,20.67,31.59,21.09Z"/><path id="_Path_9" data-name="&lt;Path&gt;" class="cls-4" d="M30.83,19.58a1.14,1.14,0,0,0-2.28,0"/></g></g><g id="_Group_7" data-name="&lt;Group&gt;"><g id="_Group_8" data-name="&lt;Group&gt;"><rect id="_Path_10" data-name="&lt;Path&gt;" class="cls-8" x="7.68" y="29.82" width="32.64" height="4.55" rx="0.76" ry="0.76"/><path id="_Path_11" data-name="&lt;Path&gt;" class="cls-9" d="M40.32,31.72H7.68V30.58a.76.76,0,0,1,.76-.76H39.56a.76.76,0,0,1,.76.76Z"/><rect id="_Path_12" data-name="&lt;Path&gt;" class="cls-4" x="7.68" y="29.82" width="32.64" height="4.55" rx="0.76" ry="0.76"/></g><g id="_Group_9" data-name="&lt;Group&gt;"><path id="_Path_13" data-name="&lt;Path&gt;" class="cls-9" d="M35.41,45H12.59a3,3,0,0,1-3-2.61l-1.14-8H39.56l-1.14,8A3,3,0,0,1,35.41,45Z"/><polygon id="_Path_14" data-name="&lt;Path&gt;" class="cls-8" points="39.29 36.27 39.56 34.37 8.44 34.37 8.71 36.27 39.29 36.27"/><path id="_Path_15" data-name="&lt;Path&gt;" class="cls-4" d="M35.41,45H12.59a3,3,0,0,1-3-2.61l-1.14-8H39.56l-1.14,8A3,3,0,0,1,35.41,45Z"/></g></g></g><path id="_Path_16" data-name="&lt;Path&gt;" class="cls-4" d="M38,25.26V26.4a1.14,1.14,0,1,1-2.27,0V23.75"/><path id="_Path_17" data-name="&lt;Path&gt;" class="cls-4" d="M28.17,10.08V12a1.14,1.14,0,1,1-2.27,0v-.76"/><g id="_Group_10" data-name="&lt;Group&gt;"><path id="_Path_18" data-name="&lt;Path&gt;" class="cls-2" d="M13,29.06V31a1.14,1.14,0,1,1-2.27,0v-1.9Z"/><path id="_Path_19" data-name="&lt;Path&gt;" class="cls-4" d="M13,29.82V31a1.14,1.14,0,1,1-2.27,0v-1.9"/></g></g></svg>