<svg id="Icons" xmlns="http://www.w3.org/2000/svg" viewBox="0 0 48 48"><defs><style>.cls-1{fill:#45413c;opacity:0.15;}.cls-2{fill:#e5feff;}.cls-3{fill:#fff;}.cls-4{fill:none;stroke:#45413c;stroke-linecap:round;stroke-linejoin:round;}.cls-5{fill:#ff87af;}.cls-6{fill:#ffb0ca;}.cls-7{fill:#daedf7;}.cls-8{fill:#b8ecff;}.cls-9{fill:#e5f8ff;}.cls-10{fill:#ff6242;}.cls-11{fill:#ff866e;}</style></defs><title>553-shaved-ice</title><ellipse id="_Ellipse_" data-name="&lt;Ellipse&gt;" class="cls-1" cx="24" cy="45.5" rx="11.5" ry="1.5"/><circle id="_Path_" data-name="&lt;Path&gt;" class="cls-2" cx="24" cy="21" r="14"/><path id="_Path_2" data-name="&lt;Path&gt;" class="cls-3" d="M24,9.67A14,14,0,0,1,37.93,22.33c0-.44.07-.88.07-1.33a14,14,0,0,0-28,0c0,.45,0,.89.07,1.33A14,14,0,0,1,24,9.67Z"/><circle id="_Path_3" data-name="&lt;Path&gt;" class="cls-4" cx="24" cy="21" r="14"/><path id="_Path_4" data-name="&lt;Path&gt;" class="cls-5" d="M24,7a14,14,0,0,0-13.12,9.14A4.16,4.16,0,0,0,14.5,18c4.33,0,3.5-3.71,7-4.5,3.33-.75,3.58,1.5,7.5,1.5a6.19,6.19,0,0,0,5.69-3A14,14,0,0,0,24,7Z"/><path id="_Path_5" data-name="&lt;Path&gt;" class="cls-6" d="M11.69,17a14,14,0,0,1,21.82-3.63A6.47,6.47,0,0,0,34.69,12a14,14,0,0,0-23.81,4.17A4.85,4.85,0,0,0,11.69,17Z"/><path id="_Path_6" data-name="&lt;Path&gt;" class="cls-4" d="M24,7a14,14,0,0,0-13.12,9.14A4.16,4.16,0,0,0,14.5,18c4.33,0,3.5-3.71,7-4.5,3.33-.75,3.58,1.5,7.5,1.5a6.19,6.19,0,0,0,5.69-3A14,14,0,0,0,24,7Z"/><path class="cls-7" d="M39.93,6.18A5,5,0,0,0,35.28,9.4L29.37,24.5h3L37.31,12a2.8,2.8,0,0,1,2.62-1.82,2,2,0,1,0,0-4Z"/><path class="cls-3" d="M39.93,6.18A5,5,0,0,0,35.28,9.4L29.37,24.5h1l5.16-13.1a5,5,0,0,1,4.65-3.22A2,2,0,0,1,41.76,9c0-.1.08-.2.11-.3A2,2,0,0,0,39.93,6.18Z"/><path class="cls-4" d="M39.93,6.18A5,5,0,0,0,35.28,9.4L29.37,24.5h3L37.31,12a2.8,2.8,0,0,1,2.62-1.82,2,2,0,1,0,0-4Z"/><path id="_Path_7" data-name="&lt;Path&gt;" class="cls-8" d="M38.69,21s-1.89,3-14.32,3S9.31,21,9.31,21a.79.79,0,0,0-.79.81A15.51,15.51,0,0,0,21.34,36.26.77.77,0,0,1,22,37v3.2a.82.82,0,0,1-.17.5,7.05,7.05,0,0,1-3.76,2.39h0a1.22,1.22,0,0,0,.36,2.38H29.6A1.22,1.22,0,0,0,30,43.12h0a7.05,7.05,0,0,1-3.76-2.39.82.82,0,0,1-.17-.5V37a.77.77,0,0,1,.66-.76A15.51,15.51,0,0,0,39.48,21.81.79.79,0,0,0,38.69,21Z"/><path id="_Path_8" data-name="&lt;Path&gt;" class="cls-9" d="M38.69,21s-1.89,3-14.32,3S9.31,21,9.31,21a.79.79,0,0,0-.79.81s0,.08,0,.13c2,4.36,8.33,7.56,15.84,7.56C31,29.5,36.66,27,39.3,23.45c.08-.54.15-1.09.18-1.64A.79.79,0,0,0,38.69,21Z"/><path id="_Path_9" data-name="&lt;Path&gt;" class="cls-4" d="M38.69,21s-1.89,3-14.32,3S9.31,21,9.31,21a.79.79,0,0,0-.79.81A15.51,15.51,0,0,0,21.34,36.26.77.77,0,0,1,22,37v3.2a.82.82,0,0,1-.17.5,7.05,7.05,0,0,1-3.76,2.39,1.22,1.22,0,0,0,.33,2.39H29.6a1.22,1.22,0,0,0,.33-2.39,7.05,7.05,0,0,1-3.76-2.39.82.82,0,0,1-.17-.5V37a.77.77,0,0,1,.66-.76A15.51,15.51,0,0,0,39.48,21.81.79.79,0,0,0,38.69,21Z"/><circle id="_Path_10" data-name="&lt;Path&gt;" class="cls-10" cx="25.37" cy="6" r="2.5"/><path id="_Path_11" data-name="&lt;Path&gt;" class="cls-11" d="M25.37,5a2.5,2.5,0,0,1,2.37,1.75A2.68,2.68,0,0,0,27.87,6a2.5,2.5,0,0,0-5,0,2.67,2.67,0,0,0,.12.75A2.5,2.5,0,0,1,25.37,5Z"/><circle id="_Path_12" data-name="&lt;Path&gt;" class="cls-4" cx="25.37" cy="6" r="2.5"/></svg>