<svg id="Icons" xmlns="http://www.w3.org/2000/svg" viewBox="0 0 48 48"><defs><style>.cls-1{fill:#45413c;opacity:0.15;}.cls-2{fill:#fffacf;}.cls-2,.cls-5,.cls-6,.cls-7,.cls-8{stroke:#45413c;stroke-linecap:round;stroke-linejoin:round;}.cls-3{fill:#ff87af;}.cls-4{fill:#ffb0ca;}.cls-5{fill:none;}.cls-6{fill:#9ceb60;}.cls-7{fill:#ffe500;}.cls-8{fill:#00f5bc;}</style></defs><title>555-doughnut-2</title><g id="_Group_" data-name="&lt;Group&gt;"><ellipse id="_Ellipse_" data-name="&lt;Ellipse&gt;" class="cls-1" cx="24" cy="41.43" rx="19.7" ry="2.57"/><path id="_Compound_Path_" data-name="&lt;Compound Path&gt;" class="cls-2" d="M17,26h0c1.31-1.06,4-1.78,7-1.78s5.72.72,7,1.79c-1.3,1.06-4,1.79-7,1.79S18.28,27,17,26Zm7-14.32c-12.19,0-22.06,6.68-22.06,14.92S11.81,41.5,24,41.5s22.06-6.68,22.06-14.93S36.19,11.65,24,11.65Z"/><path id="_Compound_Path_2" data-name="&lt;Compound Path&gt;" class="cls-3" d="M24,11.65c-11.09,0-20.27,5.53-21.83,12.73a4,4,0,0,1,2.42,2.9A3.86,3.86,0,0,0,7.08,30.2a5.91,5.91,0,0,1,2.84,2.05l1,1.25a3.41,3.41,0,0,0,3.83,1.26,6.42,6.42,0,0,1,5.68.76,6.43,6.43,0,0,0,7.22,0,6.42,6.42,0,0,1,5.68-.76,3.41,3.41,0,0,0,3.83-1.26l1-1.25a5.91,5.91,0,0,1,2.84-2.05,3.86,3.86,0,0,0,2.49-2.92,3.93,3.93,0,0,1,2.42-2.88C44.27,17.19,35.09,11.65,24,11.65Zm7.88,12.83c0,1.82-3.53,3.29-7.88,3.29s-7.88-1.47-7.88-3.29V24A1.66,1.66,0,0,1,18,22.23a1.46,1.46,0,0,0,1.3-.36l.77-.7a2.13,2.13,0,0,1,2.69-.2,2.14,2.14,0,0,0,2.44,0,2.13,2.13,0,0,1,2.69.2l.77.7a1.46,1.46,0,0,0,1.3.36A1.66,1.66,0,0,1,31.88,24ZM24,11.65c-11.09,0-20.27,5.53-21.83,12.73a4,4,0,0,1,2.42,2.9A3.86,3.86,0,0,0,7.08,30.2a5.91,5.91,0,0,1,2.84,2.05l1,1.25a3.41,3.41,0,0,0,3.83,1.26,6.42,6.42,0,0,1,5.68.76,6.43,6.43,0,0,0,7.22,0,6.42,6.42,0,0,1,5.68-.76,3.41,3.41,0,0,0,3.83-1.26l1-1.25a5.91,5.91,0,0,1,2.84-2.05,3.86,3.86,0,0,0,2.49-2.92,3.93,3.93,0,0,1,2.42-2.88C44.27,17.19,35.09,11.65,24,11.65Zm7.88,12.83c0,1.82-3.53,3.29-7.88,3.29s-7.88-1.47-7.88-3.29V24A1.66,1.66,0,0,1,18,22.23a1.46,1.46,0,0,0,1.3-.36l.77-.7a2.13,2.13,0,0,1,2.69-.2,2.14,2.14,0,0,0,2.44,0,2.13,2.13,0,0,1,2.69.2l.77.7a1.46,1.46,0,0,0,1.3.36A1.66,1.66,0,0,1,31.88,24Z"/><path id="_Path_" data-name="&lt;Path&gt;" class="cls-4" d="M24,15.28c9.51,0,17.6,4.07,20.69,9.78a3.62,3.62,0,0,1,1.14-.66C44.27,17.19,35.09,11.65,24,11.65S3.73,17.18,2.17,24.38a3.67,3.67,0,0,1,1.14.68C6.4,19.35,14.49,15.28,24,15.28Z"/><path id="_Compound_Path_3" data-name="&lt;Compound Path&gt;" class="cls-5" d="M31.88,24.48c0,1.82-3.53,3.29-7.88,3.29s-7.88-1.47-7.88-3.29V24A1.66,1.66,0,0,1,18,22.23a1.46,1.46,0,0,0,1.3-.36l.77-.7a2.13,2.13,0,0,1,2.69-.2,2.14,2.14,0,0,0,2.44,0,2.13,2.13,0,0,1,2.69.2l.77.7a1.46,1.46,0,0,0,1.3.36A1.66,1.66,0,0,1,31.88,24ZM24,11.65c-11.09,0-20.27,5.53-21.83,12.73a4,4,0,0,1,2.42,2.9A3.86,3.86,0,0,0,7.08,30.2a5.91,5.91,0,0,1,2.84,2.05l1,1.25a3.41,3.41,0,0,0,3.83,1.26,6.42,6.42,0,0,1,5.68.76,6.43,6.43,0,0,0,7.22,0,6.42,6.42,0,0,1,5.68-.76,3.41,3.41,0,0,0,3.83-1.26l1-1.25a5.91,5.91,0,0,1,2.84-2.05,3.86,3.86,0,0,0,2.49-2.92,3.93,3.93,0,0,1,2.42-2.88C44.27,17.19,35.09,11.65,24,11.65Z"/><line id="_Path_2" data-name="&lt;Path&gt;" class="cls-5" x1="34.75" y1="28.36" x2="33.55" y2="30.16"/><line id="_Path_3" data-name="&lt;Path&gt;" class="cls-5" x1="22.81" y1="30.16" x2="24.6" y2="31.35"/><line id="_Path_4" data-name="&lt;Path&gt;" class="cls-5" x1="13.25" y1="28.36" x2="15.04" y2="27.77"/><circle id="_Path_5" data-name="&lt;Path&gt;" class="cls-6" cx="39.52" cy="23.59" r="1.79"/><circle id="_Path_6" data-name="&lt;Path&gt;" class="cls-7" cx="16.84" cy="14.63" r="1.79"/><circle id="_Path_7" data-name="&lt;Path&gt;" class="cls-8" cx="7.88" cy="22.39" r="1.79"/><line id="_Path_8" data-name="&lt;Path&gt;" class="cls-5" x1="26.39" y1="14.04" x2="27.58" y2="15.23"/><line id="_Path_9" data-name="&lt;Path&gt;" class="cls-5" x1="34.15" y1="17.62" x2="36.54" y2="17.02"/><line id="_Path_10" data-name="&lt;Path&gt;" class="cls-5" x1="10.27" y1="18.21" x2="12.66" y2="18.81"/></g></svg>