<svg id="Icons" xmlns="http://www.w3.org/2000/svg" viewBox="0 0 48 48"><defs><style>.cls-1{fill:#45413c;opacity:0.15;}.cls-2{fill:#bf8256;}.cls-2,.cls-3,.cls-5,.cls-7,.cls-8{stroke:#45413c;}.cls-2,.cls-3,.cls-5,.cls-6,.cls-7,.cls-8{stroke-linecap:round;stroke-linejoin:round;}.cls-3{fill:#ffe3cf;}.cls-4{fill:#ff6242;}.cls-5,.cls-6{fill:none;}.cls-6{stroke:#e04122;}.cls-7{fill:#fffef2;}.cls-8{fill:#ffe500;}</style></defs><title>560-shortcake-1</title><g id="_Group_" data-name="&lt;Group&gt;"><ellipse id="_Ellipse_" data-name="&lt;Ellipse&gt;" class="cls-1" cx="24" cy="44.32" rx="18.5" ry="1.68"/><g id="_Group_2" data-name="&lt;Group&gt;"><g id="_Group_3" data-name="&lt;Group&gt;"><path id="_Path_" data-name="&lt;Path&gt;" class="cls-2" d="M40.26,26.68H6.62v15.7A1.12,1.12,0,0,0,7.74,43.5h31.4a1.12,1.12,0,0,0,1.12-1.12Z"/><rect id="_Path_2" data-name="&lt;Path&gt;" class="cls-3" x="6.62" y="33.41" width="33.64" height="5.61"/></g><g id="_Group_4" data-name="&lt;Group&gt;"><path id="_Path_3" data-name="&lt;Path&gt;" class="cls-4" d="M21.2,31.73a1.68,1.68,0,0,1,3.36,0v.56a1.12,1.12,0,1,0,2.24,0v-.56a.56.56,0,1,1,1.12,0v1.56a2.33,2.33,0,0,0,1.87,2.33,2.25,2.25,0,0,0,2.62-2.21v-2.8a1.68,1.68,0,0,0,3.36,0v-.56a1.13,1.13,0,1,1,2.25,0v1.12a3.37,3.37,0,0,0,1.73,2.94,1.12,1.12,0,0,0,1.63-1V26.68c0-3.3-6.27-8.18-14.86-9.21a3.35,3.35,0,0,0-1.79.29L6.8,26.08a2.25,2.25,0,0,0-1.3,2v8a.57.57,0,0,0,.67.56,3.37,3.37,0,0,0,2.69-3.19,1.79,1.79,0,0,1,1.35-1.76,1.69,1.69,0,0,1,2,1.65V34a1.68,1.68,0,0,0,3.36,0V32.85a.56.56,0,1,1,1.12,0v1.56a2.33,2.33,0,0,0,1.87,2.33,2.25,2.25,0,0,0,2.62-2.21Z"/><path id="_Path_4" data-name="&lt;Path&gt;" class="cls-5" d="M21.2,31.73a1.68,1.68,0,0,1,3.36,0v.56a1.12,1.12,0,1,0,2.24,0v-.56a.56.56,0,1,1,1.12,0v1.56a2.33,2.33,0,0,0,1.87,2.33,2.25,2.25,0,0,0,2.62-2.21v-2.8a1.68,1.68,0,0,0,3.36,0v-.56a1.13,1.13,0,1,1,2.25,0v1.12a3.37,3.37,0,0,0,1.73,2.94,1.12,1.12,0,0,0,1.63-1V26.68c0-3.3-6.27-8.18-14.86-9.21a3.35,3.35,0,0,0-1.79.29L6.8,26.08a2.25,2.25,0,0,0-1.3,2v8a.57.57,0,0,0,.67.56,3.37,3.37,0,0,0,2.69-3.19,1.79,1.79,0,0,1,1.35-1.76,1.69,1.69,0,0,1,2,1.65V34a1.68,1.68,0,0,0,3.36,0V32.85a.56.56,0,1,1,1.12,0v1.56a2.33,2.33,0,0,0,1.87,2.33,2.25,2.25,0,0,0,2.62-2.21Z"/><line id="_Path_5" data-name="&lt;Path&gt;" class="cls-6" x1="11.11" y1="26.68" x2="38.02" y2="26.68"/></g></g><g id="_Group_5" data-name="&lt;Group&gt;"><path id="_Path_6" data-name="&lt;Path&gt;" class="cls-7" d="M31.29,22.2v-9a1.12,1.12,0,0,0-1.12-1.12H27.92a1.12,1.12,0,0,0-1.12,1.12v9a2.43,2.43,0,0,0,2.25,1.12A2.43,2.43,0,0,0,31.29,22.2Z"/><path id="_Path_7" data-name="&lt;Path&gt;" class="cls-8" d="M26.47,6.56a2.66,2.66,0,1,0,5.18,1.23c.46-1.94-2.5-2.26-2.43-5.14A5.63,5.63,0,0,0,26.47,6.56Z"/></g></g></svg>