<svg id="Icons" xmlns="http://www.w3.org/2000/svg" viewBox="0 0 48 48"><defs><style>.cls-1{fill:#45413c;opacity:0.15;}.cls-2{fill:#fff;}.cls-3{fill:#f0f0f0;}.cls-4{fill:none;stroke:#45413c;stroke-linecap:round;stroke-linejoin:round;}.cls-5{fill:#fffacf;}.cls-6{fill:#fff48c;}.cls-7{fill:#bf8256;}.cls-8{fill:#dea47a;}</style></defs><title>563-custard</title><g id="_Group_" data-name="&lt;Group&gt;"><ellipse id="_Ellipse_" data-name="&lt;Ellipse&gt;" class="cls-1" cx="24" cy="38.87" rx="20.04" ry="1.63"/><ellipse id="_Path_" data-name="&lt;Path&gt;" class="cls-2" cx="24" cy="29.3" rx="21.13" ry="8.7"/><path id="_Path_2" data-name="&lt;Path&gt;" class="cls-3" d="M24,35.11C13.53,35.11,4.86,32,3.19,27.86a3.86,3.86,0,0,0-.32,1.44C2.87,34.11,12.33,38,24,38s21.13-3.89,21.13-8.7a3.86,3.86,0,0,0-.32-1.44C43.14,32,34.47,35.11,24,35.11Z"/><ellipse id="_Path_3" data-name="&lt;Path&gt;" class="cls-4" cx="24" cy="29.3" rx="21.13" ry="8.7"/><path id="_Path_4" data-name="&lt;Path&gt;" class="cls-5" d="M35.38,28c0,2.47-4.5,4.48-11.38,4.48s-11.38-2-11.38-4.48c0-4.11,2.17-12.31,2.17-12.31H33.21S35.38,23.82,35.38,28Z"/><path id="_Path_5" data-name="&lt;Path&gt;" class="cls-6" d="M31.85,19.93c.75-.4,1.33-2.33,1.71-2.82-.21-.85-.35-1.38-.35-1.38H14.79s-.22.83-.52,2.1c1.67,1.28,4.86,3.66,8.59,3.76,3.09,0,2.85,2.49,3.59,3.38s2.43,1.2,3.32-1.47S30.57,20.79,31.85,19.93Z"/><path id="_Path_6" data-name="&lt;Path&gt;" class="cls-4" d="M35.38,28c0,2.47-4.5,4.48-11.38,4.48s-11.38-2-11.38-4.48c0-4.11,2.17-12.31,2.17-12.31H33.21S35.38,23.82,35.38,28Z"/><path id="_Path_7" data-name="&lt;Path&gt;" class="cls-7" d="M23.39,19.51c2.71,0,2.51,2.18,3.15,2.95s2.13,1.05,2.91-1.28.7-2.37,1.82-3.13,1.94-1.45,1.94-2.32c0-2.1-4.12-3.79-9.21-3.79s-9.21,1.69-9.21,3.79S18.59,19.38,23.39,19.51Z"/><path id="_Path_8" data-name="&lt;Path&gt;" class="cls-8" d="M24,14.33c4.1,0,7.51,1.31,8.28,3a2.23,2.23,0,0,0,.93-1.65c0-2.1-4.12-3.79-9.21-3.79s-9.21,1.69-9.21,3.79a2.23,2.23,0,0,0,.93,1.65C16.49,15.64,19.9,14.33,24,14.33Z"/><path id="_Path_9" data-name="&lt;Path&gt;" class="cls-4" d="M23.39,19.51c2.71,0,2.51,2.18,3.15,2.95s2.13,1.05,2.91-1.28.7-2.37,1.82-3.13,1.94-1.45,1.94-2.32c0-2.1-4.12-3.79-9.21-3.79s-9.21,1.69-9.21,3.79S18.59,19.38,23.39,19.51Z"/></g></svg>