<svg id="Icons" xmlns="http://www.w3.org/2000/svg" viewBox="0 0 48 48"><defs><style>.cls-1{fill:#45413c;opacity:0.15;}.cls-2{fill:#f0d5a8;}.cls-3{fill:#debb7e;}.cls-4{fill:none;}.cls-4,.cls-8{stroke:#45413c;stroke-linecap:round;stroke-linejoin:round;}.cls-5{fill:#f7e5c6;}.cls-6{fill:#ffe500;}.cls-7{fill:#ebcb00;}.cls-8{fill:#ff8a14;}.cls-9{fill:#fff5e3;}.cls-10{fill:#fff48c;}</style></defs><title>564-honey-pot</title><g id="_Group_" data-name="&lt;Group&gt;"><ellipse id="_Ellipse_" data-name="&lt;Ellipse&gt;" class="cls-1" cx="24" cy="44.04" rx="15.02" ry="1.96"/><path id="_Path_" data-name="&lt;Path&gt;" class="cls-2" d="M33.63,42.31a28.18,28.18,0,0,1-19.21,0,3.19,3.19,0,0,1-2-1.92l-1.89-6.84a22.88,22.88,0,0,1-.56-13l1-2H37.08l1,2a23,23,0,0,1-.56,13L35.6,40.39A3.18,3.18,0,0,1,33.63,42.31Z"/><path id="_Path_2" data-name="&lt;Path&gt;" class="cls-3" d="M38.27,21.56c-.07-.35-.13-.7-.22-1l-1-2H11l-1,2c-.09.35-.16.7-.23,1.06C12.23,23.65,16.66,24.9,24,24.9S35.84,23.64,38.27,21.56Z"/><path id="_Path_3" data-name="&lt;Path&gt;" class="cls-4" d="M33.63,42.31a28.18,28.18,0,0,1-19.21,0,3.19,3.19,0,0,1-2-1.92l-1.89-6.84a22.88,22.88,0,0,1-.56-13l1-2H37.08l1,2a23,23,0,0,1-.56,13L35.6,40.39A3.18,3.18,0,0,1,33.63,42.31Z"/><path id="_Path_4" data-name="&lt;Path&gt;" class="cls-2" d="M24,21.8c11.26,0,14.15-2.89,13.66-6.83-.37-2.92-5-5.57-13.66-5.57S10.68,12.05,10.32,15C9.83,18.91,12.77,21.8,24,21.8Z"/><path id="_Path_5" data-name="&lt;Path&gt;" class="cls-5" d="M24,11.78c8.24,0,12.84,2.41,13.57,5.16a5.61,5.61,0,0,0,.09-2c-.37-2.92-5-5.57-13.66-5.57S10.68,12.05,10.32,15a5.32,5.32,0,0,0,.09,2C11.15,14.18,15.8,11.78,24,11.78Z"/><path id="_Path_6" data-name="&lt;Path&gt;" class="cls-4" d="M24,21.8c11.26,0,14.15-2.89,13.66-6.83-.37-2.92-5-5.57-13.66-5.57S10.68,12.05,10.32,15C9.83,18.91,12.77,21.8,24,21.8Z"/><ellipse id="_Path_7" data-name="&lt;Path&gt;" class="cls-6" cx="24.03" cy="15.13" rx="10.45" ry="3.12"/><ellipse id="_Path_8" data-name="&lt;Path&gt;" class="cls-7" cx="24.03" cy="16.56" rx="9.29" ry="1.7"/><ellipse id="_Path_9" data-name="&lt;Path&gt;" class="cls-4" cx="24.03" cy="15.13" rx="10.45" ry="3.12"/><path id="_Path_10" data-name="&lt;Path&gt;" class="cls-8" d="M36.57,36.79l.89-3.24a23.13,23.13,0,0,0,.9-3.53C36.22,31.32,32,32.9,24,32.9S11.77,31.29,9.64,30a23.32,23.32,0,0,0,.9,3.57l.89,3.22a35.78,35.78,0,0,0,12.6,2A35.7,35.7,0,0,0,36.57,36.79Z"/><path id="_Path_11" data-name="&lt;Path&gt;" class="cls-9" d="M33.06,1.62a2.61,2.61,0,0,0-2.29,4.49L28.24,18A19.47,19.47,0,0,0,31,17.44L33.32,6.65a2.61,2.61,0,0,0-.26-5Z"/><path id="_Path_12" data-name="&lt;Path&gt;" class="cls-5" d="M30.72,14.13a9,9,0,0,1-1.81.71L28.24,18A19.47,19.47,0,0,0,31,17.44l.83-3.89Z"/><path id="_Path_13" data-name="&lt;Path&gt;" class="cls-4" d="M33.06,1.62a2.61,2.61,0,0,0-2.29,4.49L28.24,18A19.47,19.47,0,0,0,31,17.44L33.32,6.65a2.61,2.61,0,0,0-.26-5Z"/><path id="_Path_14" data-name="&lt;Path&gt;" class="cls-6" d="M17.15,16.1c-2.14-.48-3.22,0-3.91,2s.45,3.54.34,5.7c-.11,2.38,2.26,2.87,3.27,1.31.49-.76,0-2.61,1.3-2.61,2.21,0,.17,7.18,3.27,7.18s2.92-2.77,2.92-5.05A35.7,35.7,0,0,1,25,18.06C25.44,16.22,21.68,17.12,17.15,16.1Z"/><g id="_Group_2" data-name="&lt;Group&gt;"><path id="_Path_15" data-name="&lt;Path&gt;" class="cls-10" d="M13.28,20.67c.82-2,2.09-2.44,4.63-2a55.15,55.15,0,0,0,6.85.68c.08-.55.16-1,.24-1.33.44-1.84-3.32-.94-7.84-2-2.15-.48-3.23,0-3.92,2a5,5,0,0,0,0,2.86A1.17,1.17,0,0,1,13.28,20.67Z"/></g><path id="_Path_16" data-name="&lt;Path&gt;" class="cls-4" d="M17.15,16.1c-2.14-.48-3.22,0-3.91,2s.45,3.54.34,5.7c-.11,2.38,2.26,2.87,3.27,1.31.49-.76,0-2.61,1.3-2.61,2.21,0,.17,7.18,3.27,7.18s2.92-2.77,2.92-5.05A35.7,35.7,0,0,1,25,18.06C25.44,16.22,21.68,17.12,17.15,16.1Z"/></g></svg>