<svg id="Icons" xmlns="http://www.w3.org/2000/svg" viewBox="0 0 48 48"><defs><style>.cls-1{fill:#45413c;opacity:0.15;}.cls-2,.cls-4{fill:#fff;}.cls-2,.cls-5,.cls-7,.cls-8,.cls-9{stroke:#45413c;stroke-linecap:round;stroke-linejoin:round;}.cls-3{fill:#e5f8ff;}.cls-5{fill:none;}.cls-6,.cls-7{fill:#e8f4fa;}.cls-8{fill:#ffb0ca;}.cls-9{fill:#ff87af;}.cls-10{fill:#fcd;}</style></defs><title>566-hot-beverage-1</title><ellipse id="_Ellipse_" data-name="&lt;Ellipse&gt;" class="cls-1" cx="24" cy="44.39" rx="14.5" ry="1.61"/><path id="_Path_" data-name="&lt;Path&gt;" class="cls-2" d="M15.49,10.08a4.72,4.72,0,1,0-4.08,2.34l.44,0v0a2.58,2.58,0,1,0,3.65-2.34Z"/><circle id="_Ellipse_2" data-name="&lt;Ellipse&gt;" class="cls-2" cx="22.08" cy="3.08" r="2.58"/><path id="_Path_2" data-name="&lt;Path&gt;" class="cls-3" d="M40.72,34.22a5.59,5.59,0,1,0,0-11.17H38.57v3.44h2.15a2.15,2.15,0,0,1,0,4.3H36.86v3.43Z"/><path id="_Path_3" data-name="&lt;Path&gt;" class="cls-4" d="M39.86,24.77a5.59,5.59,0,0,1,5.59,5.59A6,6,0,0,1,45.22,32a5.59,5.59,0,0,0-4.5-8.9H38.57v1.72Z"/><path id="_Path_4" data-name="&lt;Path&gt;" class="cls-5" d="M40.72,34.22a5.59,5.59,0,1,0,0-11.17H38.57v3.44h2.15a2.15,2.15,0,0,1,0,4.3H36.86v3.43Z"/><path class="cls-4" d="M8.5,19.5v9A15.75,15.75,0,0,0,24,44.5a15.75,15.75,0,0,0,15.5-16v-9Z"/><path class="cls-6" d="M24,39c-6.45,0-12.08-2.79-15.11-6.94A15.62,15.62,0,0,0,24,44.5,15.62,15.62,0,0,0,39.11,32.06C36.08,36.21,30.45,39,24,39Z"/><path class="cls-5" d="M8.5,19.5v9A15.75,15.75,0,0,0,24,44.5a15.75,15.75,0,0,0,15.5-16v-9Z"/><ellipse class="cls-7" cx="24" cy="19.5" rx="15.5" ry="2"/><path id="_Path_5" data-name="&lt;Path&gt;" class="cls-8" d="M27.32,32.94A.86.86,0,0,1,28.16,34a4.3,4.3,0,0,1-8.32,0,.86.86,0,0,1,.84-1.07Z"/><path id="_Path_6" data-name="&lt;Path&gt;" class="cls-9" d="M24,37.23a4.26,4.26,0,0,0,3.38-1.67A6.26,6.26,0,0,0,24,34.65a6.26,6.26,0,0,0-3.38.91A4.26,4.26,0,0,0,24,37.23Z"/><path id="_Path_7" data-name="&lt;Path&gt;" class="cls-10" d="M15.41,30.79c0,.47.57.86,1.29.86S18,31.26,18,30.79s-.58-.86-1.29-.86S15.41,30.31,15.41,30.79Z"/><path id="_Path_8" data-name="&lt;Path&gt;" class="cls-5" d="M16.27,29.07a1.29,1.29,0,1,1,2.57,0"/><path id="_Path_9" data-name="&lt;Path&gt;" class="cls-10" d="M32.59,30.79c0,.47-.57.86-1.29.86S30,31.26,30,30.79s.58-.86,1.29-.86S32.59,30.31,32.59,30.79Z"/><path id="_Path_10" data-name="&lt;Path&gt;" class="cls-5" d="M31.73,29.07a1.29,1.29,0,1,0-2.57,0"/></svg>