<svg id="Icons" xmlns="http://www.w3.org/2000/svg" viewBox="0 0 48 48"><defs><style>.cls-1{fill:#45413c;opacity:0.15;}.cls-2,.cls-3{fill:#00b8f0;}.cls-2,.cls-5{stroke:#45413c;stroke-linecap:round;stroke-linejoin:round;}.cls-4{fill:#4acfff;}.cls-5{fill:none;}.cls-6{fill:#e04122;}.cls-7{fill:#ff6242;}.cls-8{fill:#e5f8ff;}</style></defs><title>570-wine-glass</title><ellipse id="_Ellipse_" data-name="&lt;Ellipse&gt;" class="cls-1" cx="24" cy="45.5" rx="10" ry="1.5"/><g id="_Group_" data-name="&lt;Group&gt;"><path id="_Path_" data-name="&lt;Path&gt;" class="cls-2" d="M22.2,29.67c1.08,4.32.72,11.58.72,11.58a.71.71,0,0,1-.67.71c-3,.2-5.26.9-5.72,1.78a.34.34,0,0,0,.16.46c.71.36,2.95,1.3,7.31,1.3s6.6-.94,7.31-1.3a.34.34,0,0,0,.16-.46c-.46-.88-2.75-1.58-5.72-1.78a.71.71,0,0,1-.67-.71s-.36-7.26.72-11.58Z"/><g id="_Group_2" data-name="&lt;Group&gt;"><g id="_Group_3" data-name="&lt;Group&gt;"><path id="_Path_2" data-name="&lt;Path&gt;" class="cls-3" d="M17.16,2.94C17.88,1.86,20.22,1.5,24,1.5s6.12.36,6.84,1.44c1.59,1.83,3.59,15,3.59,17.6a10.43,10.43,0,0,1-20.86,0C13.57,17.92,15.57,4.77,17.16,2.94Z"/><path id="_Path_3" data-name="&lt;Path&gt;" class="cls-4" d="M16.68,28C26.38,23.49,30.6,14,32.4,7.41a13.9,13.9,0,0,0-1.56-4.47C30.12,1.86,27.77,1.5,24,1.5s-6.12.36-6.84,1.44c-1.59,1.83-3.59,15-3.59,17.6A10.39,10.39,0,0,0,16.68,28Z"/><path id="_Path_4" data-name="&lt;Path&gt;" class="cls-3" d="M24,4.38c3.77,0,6.84-.65,6.84-1.44C30.12,1.86,27.77,1.5,24,1.5s-6.12.36-6.84,1.44C17.16,3.73,20.23,4.38,24,4.38Z"/><path id="_Path_5" data-name="&lt;Path&gt;" class="cls-5" d="M17.16,2.94C17.88,1.86,20.22,1.5,24,1.5s6.12.36,6.84,1.44c1.59,1.83,3.59,15,3.59,17.6a10.43,10.43,0,0,1-20.86,0C13.57,17.92,15.57,4.77,17.16,2.94Z"/><path id="_Path_6" data-name="&lt;Path&gt;" class="cls-5" d="M30.84,2.94c0,.79-3.06,1.44-6.84,1.44s-6.84-.65-6.84-1.44"/></g><g id="_Group_4" data-name="&lt;Group&gt;"><path id="_Path_7" data-name="&lt;Path&gt;" class="cls-6" d="M16.45,22s.71-2.88,4.67-2.88,5,2.88,5,2.88Z"/><path id="_Path_8" data-name="&lt;Path&gt;" class="cls-6" d="M32.63,20.54a8.63,8.63,0,0,1-17.26,0,14.12,14.12,0,0,0,5,1.44c2.16,0,5-2.88,7.2-2.88A14.12,14.12,0,0,1,32.63,20.54Z"/><path id="_Path_9" data-name="&lt;Path&gt;" class="cls-7" d="M18.39,27.1A26.12,26.12,0,0,0,27,19.17C25,19.58,22.38,22,20.4,22a14.12,14.12,0,0,1-5-1.44A8.61,8.61,0,0,0,18.39,27.1Z"/></g></g><g id="_Group_5" data-name="&lt;Group&gt;"><circle id="_Ellipse_2" data-name="&lt;Ellipse&gt;" class="cls-8" cx="19.68" cy="8.31" r="1.44"/><circle id="_Ellipse_3" data-name="&lt;Ellipse&gt;" class="cls-8" cx="17.52" cy="10.47" r="0.72"/></g></g></svg>