<svg id="Icons" xmlns="http://www.w3.org/2000/svg" viewBox="0 0 48 48"><defs><style>.cls-1{fill:#45413c;opacity:0.15;}.cls-2,.cls-3{fill:#00b8f0;}.cls-12,.cls-2,.cls-5,.cls-6,.cls-9{stroke:#45413c;stroke-linecap:round;stroke-linejoin:round;}.cls-4{fill:#4acfff;}.cls-5{fill:none;}.cls-6{fill:#6dd627;}.cls-7{fill:#ff8a14;}.cls-8{fill:#ff6242;}.cls-9{fill:#bf8df2;}.cls-10{fill:#ffaa54;}.cls-11{fill:#ff866e;}.cls-12{fill:#9f5ae5;}</style></defs><title>572-tropical-drink</title><g id="_Group_" data-name="&lt;Group&gt;"><ellipse id="_Ellipse_" data-name="&lt;Ellipse&gt;" class="cls-1" cx="24" cy="45.33" rx="11.16" ry="1.67"/><g id="_Group_2" data-name="&lt;Group&gt;"><path id="_Path_" data-name="&lt;Path&gt;" class="cls-2" d="M33.07,43.36c-.55-1.06-3.33-1.91-6.94-2.16a.87.87,0,0,1-.82-.86V33.27H22.69v7.07a.87.87,0,0,1-.82.86c-3.61.25-6.39,1.1-6.94,2.16a.41.41,0,0,0,.2.56c.85.44,3.58,1.58,8.87,1.58s8-1.14,8.87-1.58A.41.41,0,0,0,33.07,43.36Z"/><g id="_Group_3" data-name="&lt;Group&gt;"><path id="_Path_2" data-name="&lt;Path&gt;" class="cls-3" d="M31.86,9.67c0-1-3.52-1.74-7.86-1.74s-7.86.78-7.86,1.74L14.82,25.84a9.18,9.18,0,0,0,18.36,0Z"/><path id="_Path_3" data-name="&lt;Path&gt;" class="cls-4" d="M32.19,13.71l-.33-4c0-1-3.52-1.74-7.86-1.74s-7.86.78-7.86,1.74L14.82,25.84a9.23,9.23,0,0,0,1,4.22,33.55,33.55,0,0,0,9.9-7.28A43.17,43.17,0,0,0,32.19,13.71Z"/><ellipse id="_Ellipse_2" data-name="&lt;Ellipse&gt;" class="cls-3" cx="24" cy="9.67" rx="7.86" ry="1.75"/><path id="_Path_4" data-name="&lt;Path&gt;" class="cls-5" d="M31.86,9.67c0-1-3.52-1.74-7.86-1.74s-7.86.78-7.86,1.74L14.82,25.84a9.18,9.18,0,0,0,18.36,0Z"/><path id="_Path_5" data-name="&lt;Path&gt;" class="cls-5" d="M31.86,9.67c0,1-3.52,1.75-7.86,1.75s-7.86-.78-7.86-1.75"/></g><path id="_Path_6" data-name="&lt;Path&gt;" class="cls-6" d="M12.49,12.16a.87.87,0,0,1-1.27-.4,5.68,5.68,0,0,1,9.51-5.88.86.86,0,0,1-.21,1.31Z"/><g id="_Group_4" data-name="&lt;Group&gt;"><path id="_Path_7" data-name="&lt;Path&gt;" class="cls-7" d="M17.88,16.23,17,25.84a7,7,0,1,0,14,0l-.87-9.61Z"/><path id="_Path_8" data-name="&lt;Path&gt;" class="cls-8" d="M24,25.84a21.15,21.15,0,0,1-6.91-.91l-.08.91a7,7,0,1,0,14,0l-.08-.91A21.15,21.15,0,0,1,24,25.84Z"/><ellipse id="_Ellipse_3" data-name="&lt;Ellipse&gt;" class="cls-7" cx="24" cy="16.23" rx="6.12" ry="0.87"/><path id="_Path_9" data-name="&lt;Path&gt;" class="cls-9" d="M26.18,17.54h2.63V11.06a25.76,25.76,0,0,1-2.63.29Z"/><path id="_Path_10" data-name="&lt;Path&gt;" class="cls-10" d="M30.12,16.23c0,.48-2.74.87-6.12.87s-6.12-.39-6.12-.87L17,25.84a6.92,6.92,0,0,0,.78,3.21,33.16,33.16,0,0,0,8-6.27,47.05,47.05,0,0,0,4.44-5.7Z"/><path id="_Path_11" data-name="&lt;Path&gt;" class="cls-11" d="M17.09,24.93l-.08.91a6.92,6.92,0,0,0,.78,3.21,36.48,36.48,0,0,0,4.74-3.24A18.26,18.26,0,0,1,17.09,24.93Z"/></g><path id="_Path_12" data-name="&lt;Path&gt;" class="cls-12" d="M29.82,6.28l3.36-4L31,.5,27.12,5.43a4.34,4.34,0,0,0-.94,2.7v3.22a25.76,25.76,0,0,0,2.63-.29v-2A4.31,4.31,0,0,1,29.82,6.28Z"/></g></g></svg>