<svg id="Icons" xmlns="http://www.w3.org/2000/svg" viewBox="0 0 48 48"><defs><style>.cls-1{fill:#45413c;opacity:0.15;}.cls-2,.cls-3{fill:#00b8f0;}.cls-2,.cls-5{stroke:#45413c;stroke-linecap:round;stroke-linejoin:round;}.cls-4{fill:#4acfff;}.cls-5{fill:none;}.cls-6{fill:#ffe500;}.cls-7{fill:#fff48c;}.cls-8{fill:#fffacf;}.cls-9{fill:#e5f8ff;}</style></defs><title>576-champagne-glass-2</title><g id="_Group_" data-name="&lt;Group&gt;"><ellipse id="_Ellipse_" data-name="&lt;Ellipse&gt;" class="cls-1" cx="24" cy="45.5" rx="9" ry="1.5"/><g id="_Group_2" data-name="&lt;Group&gt;"><path id="_Path_" data-name="&lt;Path&gt;" class="cls-2" d="M22.45,31.83c.93,3.73.62,10,.62,10a.63.63,0,0,1-.58.62c-2.57.17-4.55.77-4.94,1.53a.31.31,0,0,0,.14.4A14.17,14.17,0,0,0,24,45.5a14.17,14.17,0,0,0,6.31-1.12.31.31,0,0,0,.14-.4c-.39-.76-2.37-1.36-4.94-1.53a.63.63,0,0,1-.58-.62s-.31-6.27.62-10Z"/><g id="_Group_3" data-name="&lt;Group&gt;"><path id="_Path_2" data-name="&lt;Path&gt;" class="cls-3" d="M31.14,25.31c0,3.94-3.19,7.76-7.14,7.76s-7.14-3.82-7.14-7.76L18.1,3.87H29.9Z"/><path id="_Path_3" data-name="&lt;Path&gt;" class="cls-4" d="M30.52,14.61,29.9,3.87H18.1L16.86,25.31a7.84,7.84,0,0,0,.51,2.75A39,39,0,0,0,30.52,14.61Z"/><path id="_Path_4" data-name="&lt;Path&gt;" class="cls-5" d="M31.14,25.31c0,3.94-3.19,7.76-7.14,7.76s-7.14-3.82-7.14-7.76L18.1,3.87H29.9Z"/><ellipse id="_Ellipse_2" data-name="&lt;Ellipse&gt;" class="cls-2" cx="24" cy="3.87" rx="5.9" ry="1.24"/></g><g id="_Group_4" data-name="&lt;Group&gt;"><path id="_Path_5" data-name="&lt;Path&gt;" class="cls-6" d="M19.34,20.65a2.68,2.68,0,0,1,2.49-1.56,4.61,4.61,0,0,1,3.41,1.56Z"/><path id="_Path_6" data-name="&lt;Path&gt;" class="cls-6" d="M29.59,24.69c0,3.08-2.5,6.83-5.59,6.83s-5.59-3.75-5.59-6.83l.31-5s.62.93,2.79.93,2.8-1.87,5-1.87,2.79.94,2.79.94Z"/><path id="_Path_7" data-name="&lt;Path&gt;" class="cls-7" d="M27.66,18.89a6.47,6.47,0,0,0-1.17-.11c-2.18,0-2.8,1.87-5,1.87s-2.79-.93-2.79-.93l-.31,5a7.23,7.23,0,0,0,.44,2.38A40.87,40.87,0,0,0,27.66,18.89Z"/><circle id="_Ellipse_3" data-name="&lt;Ellipse&gt;" class="cls-6" cx="27.11" cy="15.99" r="0.62"/><circle id="_Ellipse_4" data-name="&lt;Ellipse&gt;" class="cls-7" cx="27.73" cy="23.13" r="0.62"/><circle id="_Ellipse_5" data-name="&lt;Ellipse&gt;" class="cls-7" cx="22.45" cy="28.1" r="0.62"/><circle id="_Ellipse_6" data-name="&lt;Ellipse&gt;" class="cls-7" cx="24.31" cy="24.69" r="0.62"/><circle id="_Ellipse_7" data-name="&lt;Ellipse&gt;" class="cls-7" cx="26.49" cy="28.1" r="0.62"/><circle id="_Ellipse_8" data-name="&lt;Ellipse&gt;" class="cls-6" cx="20.89" cy="17.23" r="0.62"/><circle id="_Ellipse_9" data-name="&lt;Ellipse&gt;" class="cls-8" cx="20.89" cy="22.82" r="0.62"/><circle id="_Ellipse_10" data-name="&lt;Ellipse&gt;" class="cls-6" cx="24" cy="14.12" r="0.62"/></g><g id="_Group_5" data-name="&lt;Group&gt;"><circle id="_Ellipse_11" data-name="&lt;Ellipse&gt;" class="cls-9" cx="21.83" cy="8.53" r="1.24"/><circle id="_Ellipse_12" data-name="&lt;Ellipse&gt;" class="cls-9" cx="19.96" cy="10.4" r="0.62"/></g></g></g></svg>