<svg id="Icons" xmlns="http://www.w3.org/2000/svg" viewBox="0 0 48 48"><defs><style>.cls-1{fill:#45413c;opacity:0.15;}.cls-2,.cls-3{fill:#00b8f0;}.cls-2,.cls-5{stroke:#45413c;stroke-linecap:round;stroke-linejoin:round;}.cls-4{fill:#4acfff;}.cls-5{fill:none;}.cls-6{fill:#ffe500;}.cls-7{fill:#fff48c;}.cls-8{fill:#fffacf;}.cls-9{fill:#e5f8ff;}</style></defs><title>580-clinking-glasses-2</title><g id="_Group_" data-name="&lt;Group&gt;"><ellipse id="_Ellipse_" data-name="&lt;Ellipse&gt;" class="cls-1" cx="37.02" cy="45.5" rx="9" ry="1.5"/><ellipse id="_Ellipse_2" data-name="&lt;Ellipse&gt;" class="cls-1" cx="10.98" cy="45.5" rx="9" ry="1.5"/><g id="_Group_2" data-name="&lt;Group&gt;"><path id="_Path_" data-name="&lt;Path&gt;" class="cls-2" d="M12.14,30.93c.14,3.89-1.47,10-1.47,10a.64.64,0,0,1-.7.49c-2.58-.37-4.67-.18-5.22.49a.3.3,0,0,0,.06.42,14.31,14.31,0,0,0,6,2.43,14.38,14.38,0,0,0,6.49.2.31.31,0,0,0,.22-.37c-.23-.83-2.07-1.84-4.57-2.54a.63.63,0,0,1-.45-.73s1-6.28,2.69-9.78Z"/><g id="_Group_3" data-name="&lt;Group&gt;"><path id="_Path_2" data-name="&lt;Path&gt;" class="cls-3" d="M22.11,26.28c-.82,3.91-4.78,7-8.69,6.2S7.13,27.21,8,23.3l5.7-21L25.34,4.78Z"/><path id="_Path_3" data-name="&lt;Path&gt;" class="cls-4" d="M23.73,15.54,25.34,4.78,13.65,2.32,8,23.3a8.16,8.16,0,0,0-.06,2.83A39.36,39.36,0,0,0,23.73,15.54Z"/><path id="_Path_4" data-name="&lt;Path&gt;" class="cls-5" d="M22.11,26.28c-.82,3.91-4.78,7-8.69,6.2S7.13,27.21,8,23.3l5.7-21L25.34,4.78Z"/><path id="_Path_5" data-name="&lt;Path&gt;" class="cls-2" d="M25.34,4.78c-.14.68-2.87.68-6.1,0S13.5,3,13.65,2.32s2.87-.68,6.1,0S25.49,4.1,25.34,4.78Z"/></g><g id="_Group_4" data-name="&lt;Group&gt;"><path id="_Path_6" data-name="&lt;Path&gt;" class="cls-6" d="M11.39,19.2a2.7,2.7,0,0,1,2.78-1,4.69,4.69,0,0,1,3.07,2.25Z"/><path id="_Path_7" data-name="&lt;Path&gt;" class="cls-6" d="M20.7,25.34c-.64,3.06-3.9,6.25-7,5.61S9,26.07,9.62,23L11,18.15s.43,1.05,2.58,1.5,3.16-1.26,5.31-.81,2.58,1.51,2.58,1.51Z"/><path id="_Path_8" data-name="&lt;Path&gt;" class="cls-7" d="M20,19.19a6.49,6.49,0,0,0-1.14-.35c-2.15-.45-3.15,1.27-5.31.81S11,18.15,11,18.15L9.62,23a7.16,7.16,0,0,0,0,2.45A41.28,41.28,0,0,0,20,19.19Z"/><path id="_Path_9" data-name="&lt;Path&gt;" class="cls-6" d="M20.67,16.33a.64.64,0,0,1-.75.49.62.62,0,0,1-.48-.75.61.61,0,0,1,.74-.48A.63.63,0,0,1,20.67,16.33Z"/><path id="_Path_10" data-name="&lt;Path&gt;" class="cls-7" d="M19.8,23.54a.63.63,0,1,1-1.24-.26.63.63,0,0,1,1.24.26Z"/><path id="_Path_11" data-name="&lt;Path&gt;" class="cls-7" d="M13.53,27.37a.63.63,0,0,1-.75.48.62.62,0,0,1-.48-.74.63.63,0,0,1,.74-.49A.64.64,0,0,1,13.53,27.37Z"/><path id="_Path_12" data-name="&lt;Path&gt;" class="cls-7" d="M16.09,24.37a.62.62,0,0,1-.75.48.61.61,0,0,1-.48-.74.63.63,0,0,1,.74-.49A.64.64,0,0,1,16.09,24.37Z"/><path id="_Path_13" data-name="&lt;Path&gt;" class="cls-7" d="M17.53,28.21a.63.63,0,0,1-.75.48A.62.62,0,0,1,16.3,28a.63.63,0,0,1,.74-.49A.64.64,0,0,1,17.53,28.21Z"/><path id="_Path_14" data-name="&lt;Path&gt;" class="cls-6" d="M14.25,16.27a.63.63,0,0,1-.74.49.63.63,0,0,1,.26-1.24A.64.64,0,0,1,14.25,16.27Z"/><path id="_Path_15" data-name="&lt;Path&gt;" class="cls-8" d="M13.09,21.81a.63.63,0,1,1-1.23-.26.63.63,0,0,1,.74-.49A.64.64,0,0,1,13.09,21.81Z"/><path id="_Path_16" data-name="&lt;Path&gt;" class="cls-6" d="M18,13.84a.62.62,0,0,1-.75.48.61.61,0,0,1-.48-.74.63.63,0,0,1,.74-.49A.64.64,0,0,1,18,13.84Z"/></g><g id="_Group_5" data-name="&lt;Group&gt;"><path id="_Path_17" data-name="&lt;Path&gt;" class="cls-9" d="M17.6,8a1.26,1.26,0,1,1-1-1.49A1.26,1.26,0,0,1,17.6,8Z"/><path id="_Path_18" data-name="&lt;Path&gt;" class="cls-9" d="M14.75,9.3a.63.63,0,0,1-.74.49A.64.64,0,0,1,13.52,9a.63.63,0,0,1,.75-.48A.62.62,0,0,1,14.75,9.3Z"/></g></g><g id="_Group_6" data-name="&lt;Group&gt;"><path id="_Path_19" data-name="&lt;Path&gt;" class="cls-2" d="M33.14,31.62C34.91,35.08,36,41.34,36,41.34a.63.63,0,0,1-.44.74c-2.49.75-4.3,1.8-4.52,2.63a.3.3,0,0,0,.23.36,14.3,14.3,0,0,0,6.48-.32,14.37,14.37,0,0,0,6-2.53.3.3,0,0,0,0-.43c-.56-.65-2.65-.8-5.22-.39a.63.63,0,0,1-.71-.48s-1.73-6.12-1.65-10Z"/><g id="_Group_7" data-name="&lt;Group&gt;"><path id="_Path_20" data-name="&lt;Path&gt;" class="cls-3" d="M40.25,23.21c.9,3.89-1.4,8.39-5.29,9.28S27,30.34,26.15,26.44L22.53,5,34.18,2.34Z"/><path id="_Path_21" data-name="&lt;Path&gt;" class="cls-4" d="M37.22,12.79l-3-10.45L22.53,5l3.62,21.43A7.94,7.94,0,0,0,27.28,29,39.51,39.51,0,0,0,37.22,12.79Z"/><path id="_Path_22" data-name="&lt;Path&gt;" class="cls-5" d="M40.25,23.21c.9,3.89-1.4,8.39-5.29,9.28S27,30.34,26.15,26.44L22.53,5,34.18,2.34Z"/><path id="_Path_23" data-name="&lt;Path&gt;" class="cls-2" d="M34.18,2.34c.15.67-2.33,1.82-5.55,2.56s-5.95.78-6.1.11,2.32-1.83,5.54-2.57S34,1.66,34.18,2.34Z"/></g><g id="_Group_8" data-name="&lt;Group&gt;"><path id="_Path_24" data-name="&lt;Path&gt;" class="cls-6" d="M27.55,21.28a2.7,2.7,0,0,1,2.1-2.09,4.64,4.64,0,0,1,3.72.76Z"/><path id="_Path_25" data-name="&lt;Path&gt;" class="cls-6" d="M38.58,23c.7,3-.93,7.31-4,8s-6.37-2.43-7.07-5.48l-.82-5s.83.78,3,.29,2.34-2.47,4.49-3,3,.29,3,.29Z"/><path id="_Path_26" data-name="&lt;Path&gt;" class="cls-7" d="M35.36,17.67a6.23,6.23,0,0,0-1.18.15c-2.15.5-2.34,2.48-4.49,3s-3-.29-3-.29l.82,5a7.31,7.31,0,0,0,1,2.25A41.61,41.61,0,0,0,35.36,17.67Z"/><path id="_Path_27" data-name="&lt;Path&gt;" class="cls-6" d="M34.77,14.78a.63.63,0,0,1-.47.76.62.62,0,0,1-.75-.47.63.63,0,1,1,1.22-.29Z"/><path id="_Path_28" data-name="&lt;Path&gt;" class="cls-7" d="M37,21.7a.63.63,0,0,1-1.23.28.65.65,0,0,1,.48-.76A.64.64,0,0,1,37,21.7Z"/><path id="_Path_29" data-name="&lt;Path&gt;" class="cls-7" d="M32.91,27.8a.63.63,0,1,1-.75-.48A.63.63,0,0,1,32.91,27.8Z"/><path id="_Path_30" data-name="&lt;Path&gt;" class="cls-7" d="M34,24a.63.63,0,0,1-.47.76.65.65,0,0,1-.76-.48.64.64,0,0,1,.48-.75A.62.62,0,0,1,34,24Z"/><path id="_Path_31" data-name="&lt;Path&gt;" class="cls-7" d="M36.9,26.88a.63.63,0,0,1-.47.76.65.65,0,0,1-.76-.48.64.64,0,0,1,.48-.75A.63.63,0,0,1,36.9,26.88Z"/><path id="_Path_32" data-name="&lt;Path&gt;" class="cls-6" d="M28.92,17.42a.62.62,0,0,1-.47.75.63.63,0,0,1-.76-.47.65.65,0,0,1,.48-.76A.64.64,0,0,1,28.92,17.42Z"/><path id="_Path_33" data-name="&lt;Path&gt;" class="cls-8" d="M30.19,22.93a.65.65,0,0,1-.48.76.63.63,0,0,1-.28-1.23A.64.64,0,0,1,30.19,22.93Z"/><path id="_Path_34" data-name="&lt;Path&gt;" class="cls-6" d="M31.28,13.65a.63.63,0,1,1-.75-.47A.62.62,0,0,1,31.28,13.65Z"/></g><g id="_Group_9" data-name="&lt;Group&gt;"><path id="_Path_35" data-name="&lt;Path&gt;" class="cls-9" d="M28.49,8.48A1.26,1.26,0,1,1,27,7.54,1.25,1.25,0,0,1,28.49,8.48Z"/><path id="_Path_36" data-name="&lt;Path&gt;" class="cls-9" d="M26.46,10.88a.65.65,0,0,1-.48.76.64.64,0,0,1-.75-.48.62.62,0,0,1,.47-.75A.63.63,0,0,1,26.46,10.88Z"/></g></g></g></svg>