<svg id="Icons" xmlns="http://www.w3.org/2000/svg" viewBox="0 0 48 48"><defs><style>.cls-1{fill:#45413c;opacity:0.15;}.cls-2,.cls-3{fill:#fff;}.cls-2,.cls-5{stroke:#45413c;stroke-linecap:round;stroke-linejoin:round;}.cls-4{fill:#e0e0e0;}.cls-5{fill:none;}.cls-6{fill:#87898c;}.cls-7{fill:#bdbec0;}.cls-8{fill:#00b8f0;}.cls-9{fill:#4acfff;}</style></defs><title>587-office-building</title><g id="_Group_" data-name="&lt;Group&gt;"><ellipse id="_Ellipse_" data-name="&lt;Ellipse&gt;" class="cls-1" cx="24" cy="45.15" rx="20.34" ry="1.85"/><path id="_Rectangle_" data-name="&lt;Rectangle&gt;" class="cls-2" d="M6.74,34H41.26a1.23,1.23,0,0,1,1.23,1.23v8.63a.62.62,0,0,1-.62.62H6.13a.62.62,0,0,1-.62-.62V35.25A1.23,1.23,0,0,1,6.74,34Z"/><rect id="_Rectangle_2" data-name="&lt;Rectangle&gt;" class="cls-3" x="7.36" y="5.67" width="33.28" height="28.35"/><rect id="_Rectangle_3" data-name="&lt;Rectangle&gt;" class="cls-4" x="7.36" y="5.67" width="33.28" height="2.62"/><rect id="_Rectangle_4" data-name="&lt;Rectangle&gt;" class="cls-5" x="7.36" y="5.67" width="33.28" height="28.35"/><rect id="_Rectangle_5" data-name="&lt;Rectangle&gt;" class="cls-6" x="6.13" y="2.59" width="35.75" height="3.08" rx="1.23" ry="1.23"/><path id="_Path_" data-name="&lt;Path&gt;" class="cls-7" d="M40.64,2.59H7.36A1.23,1.23,0,0,0,6.13,3.82v.62a1.18,1.18,0,0,0,.09.46,1.23,1.23,0,0,1,1.14-.77H40.64a1.23,1.23,0,0,1,1.14.77,1.18,1.18,0,0,0,.09-.46V3.82A1.23,1.23,0,0,0,40.64,2.59Z"/><rect id="_Rectangle_6" data-name="&lt;Rectangle&gt;" class="cls-5" x="6.13" y="2.59" width="35.75" height="3.08" rx="1.23" ry="1.23"/><rect id="_Rectangle_7" data-name="&lt;Rectangle&gt;" class="cls-8" x="19.07" y="36.49" width="9.86" height="8.01"/><polygon id="_Path_2" data-name="&lt;Path&gt;" class="cls-9" points="21 44.5 25.74 44.5 28.93 36.49 28.93 36.49 24.19 36.49 21 44.5"/><rect id="_Rectangle_8" data-name="&lt;Rectangle&gt;" class="cls-5" x="19.07" y="36.49" width="9.86" height="8.01"/><rect id="_Rectangle_9" data-name="&lt;Rectangle&gt;" class="cls-8" x="10.44" y="37.1" width="3.7" height="4.31"/><polygon id="_Path_3" data-name="&lt;Path&gt;" class="cls-9" points="11.73 41.42 14.14 41.42 14.14 37.1 13.45 37.1 11.73 41.42"/><rect id="_Rectangle_10" data-name="&lt;Rectangle&gt;" class="cls-8" x="11.06" y="26.63" width="3.7" height="4.31"/><polygon id="_Path_4" data-name="&lt;Path&gt;" class="cls-9" points="12.34 30.94 14.75 30.94 14.75 26.63 14.06 26.63 12.34 30.94"/><rect id="_Rectangle_11" data-name="&lt;Rectangle&gt;" class="cls-8" x="33.25" y="26.63" width="3.7" height="4.31"/><polygon id="_Path_5" data-name="&lt;Path&gt;" class="cls-9" points="34.53 30.94 36.94 30.94 36.94 26.63 36.25 26.63 34.53 30.94"/><rect id="_Rectangle_12" data-name="&lt;Rectangle&gt;" class="cls-8" x="25.85" y="26.63" width="3.7" height="4.31"/><polygon id="_Path_6" data-name="&lt;Path&gt;" class="cls-9" points="27.14 30.94 29.55 30.94 29.55 26.63 28.85 26.63 27.14 30.94"/><rect id="_Rectangle_13" data-name="&lt;Rectangle&gt;" class="cls-8" x="18.45" y="26.63" width="3.7" height="4.31"/><polygon id="_Path_7" data-name="&lt;Path&gt;" class="cls-9" points="19.74 30.94 22.15 30.94 22.15 26.63 21.46 26.63 19.74 30.94"/><rect id="_Rectangle_14" data-name="&lt;Rectangle&gt;" class="cls-8" x="11.06" y="18" width="3.7" height="4.31"/><polygon id="_Path_8" data-name="&lt;Path&gt;" class="cls-9" points="12.34 22.31 14.75 22.31 14.75 18 14.06 18 12.34 22.31"/><rect id="_Rectangle_15" data-name="&lt;Rectangle&gt;" class="cls-8" x="33.25" y="18" width="3.7" height="4.31"/><polygon id="_Path_9" data-name="&lt;Path&gt;" class="cls-9" points="34.53 22.31 36.94 22.31 36.94 18 36.25 18 34.53 22.31"/><rect id="_Rectangle_16" data-name="&lt;Rectangle&gt;" class="cls-8" x="25.85" y="18" width="3.7" height="4.31"/><polygon id="_Path_10" data-name="&lt;Path&gt;" class="cls-9" points="27.14 22.31 29.55 22.31 29.55 18 28.85 18 27.14 22.31"/><rect id="_Rectangle_17" data-name="&lt;Rectangle&gt;" class="cls-8" x="18.45" y="18" width="3.7" height="4.31"/><polygon id="_Path_11" data-name="&lt;Path&gt;" class="cls-9" points="19.74 22.31 22.15 22.31 22.15 18 21.46 18 19.74 22.31"/><rect id="_Rectangle_18" data-name="&lt;Rectangle&gt;" class="cls-8" x="11.06" y="9.37" width="3.7" height="4.31"/><polygon id="_Path_12" data-name="&lt;Path&gt;" class="cls-9" points="12.34 13.68 14.75 13.68 14.75 9.37 14.06 9.37 12.34 13.68"/><rect id="_Rectangle_19" data-name="&lt;Rectangle&gt;" class="cls-8" x="33.25" y="9.37" width="3.7" height="4.31"/><polygon id="_Path_13" data-name="&lt;Path&gt;" class="cls-9" points="34.53 13.68 36.94 13.68 36.94 9.37 36.25 9.37 34.53 13.68"/><rect id="_Rectangle_20" data-name="&lt;Rectangle&gt;" class="cls-8" x="25.85" y="9.37" width="3.7" height="4.31"/><polygon id="_Path_14" data-name="&lt;Path&gt;" class="cls-9" points="27.14 13.68 29.55 13.68 29.55 9.37 28.85 9.37 27.14 13.68"/><rect id="_Rectangle_21" data-name="&lt;Rectangle&gt;" class="cls-8" x="18.45" y="9.37" width="3.7" height="4.31"/><polygon id="_Path_15" data-name="&lt;Path&gt;" class="cls-9" points="19.74 13.68 22.15 13.68 22.15 9.37 21.46 9.37 19.74 13.68"/><rect id="_Rectangle_22" data-name="&lt;Rectangle&gt;" class="cls-5" x="11.06" y="26.63" width="3.7" height="4.31"/><rect id="_Rectangle_23" data-name="&lt;Rectangle&gt;" class="cls-5" x="33.25" y="26.63" width="3.7" height="4.31"/><rect id="_Rectangle_24" data-name="&lt;Rectangle&gt;" class="cls-5" x="25.85" y="26.63" width="3.7" height="4.31"/><rect id="_Rectangle_25" data-name="&lt;Rectangle&gt;" class="cls-5" x="18.45" y="26.63" width="3.7" height="4.31"/><rect id="_Rectangle_26" data-name="&lt;Rectangle&gt;" class="cls-5" x="11.06" y="18" width="3.7" height="4.31"/><rect id="_Rectangle_27" data-name="&lt;Rectangle&gt;" class="cls-5" x="33.25" y="18" width="3.7" height="4.31"/><rect id="_Rectangle_28" data-name="&lt;Rectangle&gt;" class="cls-5" x="25.85" y="18" width="3.7" height="4.31"/><rect id="_Rectangle_29" data-name="&lt;Rectangle&gt;" class="cls-5" x="18.45" y="18" width="3.7" height="4.31"/><rect id="_Rectangle_30" data-name="&lt;Rectangle&gt;" class="cls-5" x="11.06" y="9.37" width="3.7" height="4.31"/><rect id="_Rectangle_31" data-name="&lt;Rectangle&gt;" class="cls-5" x="33.25" y="9.37" width="3.7" height="4.31"/><rect id="_Rectangle_32" data-name="&lt;Rectangle&gt;" class="cls-5" x="25.85" y="9.37" width="3.7" height="4.31"/><rect id="_Rectangle_33" data-name="&lt;Rectangle&gt;" class="cls-5" x="18.45" y="9.37" width="3.7" height="4.31"/><rect id="_Rectangle_34" data-name="&lt;Rectangle&gt;" class="cls-8" x="33.86" y="37.1" width="3.7" height="4.31"/><polygon id="_Path_16" data-name="&lt;Path&gt;" class="cls-9" points="35.17 41.42 37.59 41.42 37.59 37.1 36.89 37.1 35.17 41.42"/><rect id="_Rectangle_35" data-name="&lt;Rectangle&gt;" class="cls-5" x="10.44" y="37.1" width="3.7" height="4.31"/><rect id="_Rectangle_36" data-name="&lt;Rectangle&gt;" class="cls-5" x="33.86" y="37.1" width="3.7" height="4.31"/><line id="_Path_17" data-name="&lt;Path&gt;" class="cls-5" x1="24" y1="36.49" x2="24" y2="44.5"/><rect id="_Rectangle_37" data-name="&lt;Rectangle&gt;" class="cls-6" x="17.61" y="33.41" width="12.79" height="3.08" rx="1.23" ry="1.23"/><path id="_Path_18" data-name="&lt;Path&gt;" class="cls-7" d="M29.16,33.41H18.84a1.23,1.23,0,0,0-1.23,1.23v.61a1.45,1.45,0,0,0,.08.47A1.25,1.25,0,0,1,18.84,35H29.16a1.23,1.23,0,0,1,1.14.77,1.23,1.23,0,0,0,.09-.47v-.61A1.23,1.23,0,0,0,29.16,33.41Z"/><rect id="_Rectangle_38" data-name="&lt;Rectangle&gt;" class="cls-5" x="17.61" y="33.41" width="12.79" height="3.08" rx="1.23" ry="1.23"/></g></svg>