<svg id="Icons" xmlns="http://www.w3.org/2000/svg" viewBox="0 0 48 48"><defs><style>.cls-1{fill:#45413c;opacity:0.15;}.cls-2{fill:#fff;}.cls-3{fill:#f0f0f0;}.cls-4{fill:none;}.cls-10,.cls-4{stroke:#45413c;stroke-linecap:round;stroke-linejoin:round;}.cls-5{fill:#00b8f0;}.cls-10,.cls-6{fill:#e0e0e0;}.cls-7{fill:#bdbec0;}.cls-8{fill:#ff6242;}.cls-9{fill:#ff866e;}.cls-11{fill:#debb7e;}.cls-12{fill:#b89558;}</style></defs><title>591-castle</title><path id="_Path_" data-name="&lt;Path&gt;" class="cls-1" d="M46.25,45.7c0,1-10,1.3-22.25,1.3S1.75,46.69,1.75,45.7s10-1.81,22.25-1.81S46.25,44.7,46.25,45.7Z"/><rect id="_Rectangle_" data-name="&lt;Rectangle&gt;" class="cls-2" x="3.31" y="3.31" width="41.37" height="41.37" rx="3.55" ry="3.55"/><path id="_Path_2" data-name="&lt;Path&gt;" class="cls-3" d="M41.14,41.73H6.86a3.55,3.55,0,0,1-3.55-3.55v3a3.55,3.55,0,0,0,3.55,3.55H41.14a3.55,3.55,0,0,0,3.55-3.55v-3A3.55,3.55,0,0,1,41.14,41.73Z"/><rect id="_Rectangle_2" data-name="&lt;Rectangle&gt;" class="cls-4" x="3.31" y="3.31" width="41.37" height="41.37" rx="3.55" ry="3.55"/><rect id="_Rectangle_3" data-name="&lt;Rectangle&gt;" class="cls-5" x="6.27" y="6.27" width="35.46" height="35.46" rx="1.18" ry="1.18"/><rect id="_Rectangle_4" data-name="&lt;Rectangle&gt;" class="cls-4" x="6.27" y="6.27" width="35.46" height="35.46" rx="1.18" ry="1.18"/><path id="_Rectangle_5" data-name="&lt;Rectangle&gt;" class="cls-6" d="M6.27,20.93h8.24a0,0,0,0,1,0,0v20.8a0,0,0,0,1,0,0H7.41a1.14,1.14,0,0,1-1.14-1.14V20.93a0,0,0,0,1,0,0Z"/><rect id="_Rectangle_6" data-name="&lt;Rectangle&gt;" class="cls-7" x="6.27" y="20.93" width="8.24" height="2.28"/><path id="_Rectangle_7" data-name="&lt;Rectangle&gt;" class="cls-4" d="M6.27,20.93h8.24a0,0,0,0,1,0,0v20.8a0,0,0,0,1,0,0H7.41a1.14,1.14,0,0,1-1.14-1.14V20.93a0,0,0,0,1,0,0Z"/><path id="_Rectangle_8" data-name="&lt;Rectangle&gt;" class="cls-6" d="M33.49,20.93h8.24a0,0,0,0,1,0,0V40.59a1.14,1.14,0,0,1-1.14,1.14h-7.1a0,0,0,0,1,0,0V20.93A0,0,0,0,1,33.49,20.93Z"/><rect id="_Rectangle_9" data-name="&lt;Rectangle&gt;" class="cls-7" x="33.49" y="20.93" width="8.24" height="2.28"/><path id="_Rectangle_10" data-name="&lt;Rectangle&gt;" class="cls-4" d="M33.49,20.93h8.24a0,0,0,0,1,0,0V40.59a1.14,1.14,0,0,1-1.14,1.14h-7.1a0,0,0,0,1,0,0V20.93A0,0,0,0,1,33.49,20.93Z"/><rect id="_Rectangle_11" data-name="&lt;Rectangle&gt;" class="cls-6" x="19.2" y="16.69" width="9.6" height="9.75"/><rect id="_Rectangle_12" data-name="&lt;Rectangle&gt;" class="cls-7" x="19.2" y="16.69" width="9.6" height="2.4"/><rect id="_Rectangle_13" data-name="&lt;Rectangle&gt;" class="cls-4" x="19.2" y="16.69" width="9.6" height="9.75"/><path id="_Path_3" data-name="&lt;Path&gt;" class="cls-8" d="M23.53,8.79,18.1,15.73a.59.59,0,0,0,.46,1H29.44a.59.59,0,0,0,.46-1L24.47,8.79A.59.59,0,0,0,23.53,8.79Z"/><path id="_Path_4" data-name="&lt;Path&gt;" class="cls-9" d="M18.56,16.69H20l2-2.59a2.48,2.48,0,0,1,3.92,0l2,2.59h1.45a.59.59,0,0,0,.46-1L24.47,8.79a.59.59,0,0,0-.94,0L18.1,15.73A.59.59,0,0,0,18.56,16.69Z"/><path id="_Path_5" data-name="&lt;Path&gt;" class="cls-4" d="M23.53,8.79,18.1,15.73a.59.59,0,0,0,.46,1H29.44a.59.59,0,0,0,.46-1L24.47,8.79A.59.59,0,0,0,23.53,8.79Z"/><polygon id="_Path_6" data-name="&lt;Path&gt;" class="cls-10" points="30.89 23.84 30.89 26.44 28.8 26.44 28.8 23.84 25.62 23.84 25.62 26.44 22.38 26.44 22.38 23.84 19.2 23.84 19.2 26.44 17.11 26.44 17.11 23.84 14.51 23.84 14.51 41.73 33.49 41.73 33.49 23.84 30.89 23.84"/><path class="cls-11" d="M24,31.33a4.3,4.3,0,0,0-4.3,4.3v6.1h8.6v-6.1A4.3,4.3,0,0,0,24,31.33Z"/><path id="_Path_7" data-name="&lt;Path&gt;" class="cls-12" d="M24,31.33a4.3,4.3,0,0,0-4.3,4.3v2.54a4.3,4.3,0,1,1,8.6,0V35.63A4.3,4.3,0,0,0,24,31.33Z"/><path class="cls-4" d="M24,31.33a4.3,4.3,0,0,0-4.3,4.3v6.1h8.6v-6.1A4.3,4.3,0,0,0,24,31.33Z"/><path id="_Path_8" data-name="&lt;Path&gt;" class="cls-8" d="M6.27,20.93h8.22A.59.59,0,0,0,15,20l-4.1-5.08a.6.6,0,0,0-.92,0L6.27,19.43Z"/><path id="_Path_9" data-name="&lt;Path&gt;" class="cls-9" d="M8.49,19.59a2.44,2.44,0,0,1,3.8,0l1.09,1.34h1.11A.59.59,0,0,0,15,20l-4.1-5.08a.6.6,0,0,0-.92,0L6.27,19.43v1.5H7.4Z"/><path id="_Path_10" data-name="&lt;Path&gt;" class="cls-4" d="M6.27,20.93h8.22A.59.59,0,0,0,15,20l-4.1-5.08a.6.6,0,0,0-.92,0L6.27,19.43Z"/><path id="_Path_11" data-name="&lt;Path&gt;" class="cls-8" d="M41.73,19.43l-3.66-4.54a.6.6,0,0,0-.92,0L33.05,20a.59.59,0,0,0,.46,1h8.22Z"/><path id="_Path_12" data-name="&lt;Path&gt;" class="cls-9" d="M39.51,19.59a2.44,2.44,0,0,0-3.8,0l-1.09,1.34H33.51a.59.59,0,0,1-.46-1l4.1-5.08a.6.6,0,0,1,.92,0l3.66,4.54v1.5H40.6Z"/><path id="_Path_13" data-name="&lt;Path&gt;" class="cls-4" d="M41.73,19.43l-3.66-4.54a.6.6,0,0,0-.92,0L33.05,20a.59.59,0,0,0,.46,1h8.22Z"/><line id="_Path_14" data-name="&lt;Path&gt;" class="cls-4" x1="24" y1="31.33" x2="24" y2="41.73"/></svg>