<svg id="Icons" xmlns="http://www.w3.org/2000/svg" viewBox="0 0 48 48"><defs><style>.cls-1{fill:#45413c;opacity:0.15;}.cls-2{fill:#fff;}.cls-3{fill:none;stroke:#45413c;stroke-linecap:round;stroke-linejoin:round;}.cls-4{fill:#00b8f0;}.cls-5{fill:#6dd627;}.cls-6{fill:#46b000;}.cls-7{fill:#e0e0e0;}.cls-8{fill:#00dfeb;}.cls-9{fill:#4aeff7;}</style></defs><title>593-fountain</title><path id="_Path_" data-name="&lt;Path&gt;" class="cls-1" d="M46.25,45.7c0,1-10,1.3-22.25,1.3S1.75,46.69,1.75,45.7s10-1.81,22.25-1.81S46.25,44.7,46.25,45.7Z"/><rect id="_Rectangle_" data-name="&lt;Rectangle&gt;" class="cls-2" x="3.46" y="3.46" width="41.08" height="41.08" rx="3.52" ry="3.52"/><rect id="_Rectangle_2" data-name="&lt;Rectangle&gt;" class="cls-3" x="3.46" y="3.46" width="41.08" height="41.08" rx="3.52" ry="3.52"/><rect id="_Rectangle_3" data-name="&lt;Rectangle&gt;" class="cls-4" x="6.4" y="6.4" width="35.21" height="35.21" rx="1.17" ry="1.17"/><rect id="_Rectangle_4" data-name="&lt;Rectangle&gt;" class="cls-3" x="6.4" y="6.4" width="35.21" height="35.21" rx="1.17" ry="1.17"/><path id="_Path_2" data-name="&lt;Path&gt;" class="cls-5" d="M6.4,19.67s4.88-3.92,17.6-3.92,17.6,3.92,17.6,3.92V40.43a1.17,1.17,0,0,1-1.17,1.17H7.57A1.17,1.17,0,0,1,6.4,40.43Z"/><path id="_Rectangle_5" data-name="&lt;Rectangle&gt;" class="cls-6" d="M6.36,37.25H41.6a0,0,0,0,1,0,0v3.18a1.17,1.17,0,0,1-1.17,1.17H7.53a1.17,1.17,0,0,1-1.17-1.17V37.25a0,0,0,0,1,0,0Z"/><path id="_Path_3" data-name="&lt;Path&gt;" class="cls-3" d="M6.4,19.67s4.88-3.92,17.6-3.92,17.6,3.92,17.6,3.92V40.43a1.17,1.17,0,0,1-1.17,1.17H7.57A1.17,1.17,0,0,1,6.4,40.43Z"/><path id="_Path_4" data-name="&lt;Path&gt;" class="cls-7" d="M12.16,28v4.3c0,1.4,5.3,2.54,11.84,2.54s11.84-1.14,11.84-2.54V28Z"/><path id="_Path_5" data-name="&lt;Path&gt;" class="cls-2" d="M12.16,30.13c0,1.4,5.3,2.54,11.84,2.54s11.84-1.14,11.84-2.54V28H12.16Z"/><path id="_Path_6" data-name="&lt;Path&gt;" class="cls-3" d="M12.16,28v4.3c0,1.4,5.3,2.54,11.84,2.54s11.84-1.14,11.84-2.54V28Z"/><ellipse id="_Path_7" data-name="&lt;Path&gt;" class="cls-8" cx="24" cy="28.03" rx="11.84" ry="2.54"/><path id="_Path_8" data-name="&lt;Path&gt;" class="cls-9" d="M13,29c1.75-.93,6-1.59,11-1.59s9.23.66,11,1.59c.56-.3.86-.62.86-.95,0-1.41-5.3-2.55-11.84-2.55S12.16,26.62,12.16,28C12.16,28.36,12.46,28.68,13,29Z"/><ellipse id="_Path_9" data-name="&lt;Path&gt;" class="cls-3" cx="24" cy="28.03" rx="11.84" ry="2.54"/><path id="_Path_10" data-name="&lt;Path&gt;" class="cls-2" d="M26.19,27.88s-.19-2.36,1.52-3.23,5.2-1,5.2-4.2H15.09c0,3.17,3.49,3.33,5.2,4.2s1.52,3.23,1.52,3.23a6.05,6.05,0,0,0,4.38,0Z"/><path id="_Path_11" data-name="&lt;Path&gt;" class="cls-7" d="M16.34,23A26.5,26.5,0,0,0,24,24a26,26,0,0,0,7.69-1,3,3,0,0,0,1.23-2.52H15.09A3,3,0,0,0,16.34,23Z"/><path id="_Path_12" data-name="&lt;Path&gt;" class="cls-3" d="M26.19,27.88s-.19-2.36,1.52-3.23,5.2-1,5.2-4.2H15.09c0,3.17,3.49,3.33,5.2,4.2s1.52,3.23,1.52,3.23a6.05,6.05,0,0,0,4.38,0Z"/><path id="_Path_13" data-name="&lt;Path&gt;" class="cls-8" d="M32.91,20.45c0,1.05-4,1.91-8.91,1.91s-8.91-.86-8.91-1.91,4-1.92,8.91-1.92S32.91,19.39,32.91,20.45Z"/><path id="_Path_14" data-name="&lt;Path&gt;" class="cls-9" d="M16,21.27c1.43-.65,4.5-1.1,8.05-1.1s6.62.45,8,1.1c.55-.25.86-.53.86-.82,0-1.06-4-1.92-8.91-1.92s-8.91.86-8.91,1.92C15.09,20.74,15.4,21,16,21.27Z"/><path id="_Path_15" data-name="&lt;Path&gt;" class="cls-3" d="M32.91,20.45c0,1.05-4,1.91-8.91,1.91s-8.91-.86-8.91-1.91,4-1.92,8.91-1.92S32.91,19.39,32.91,20.45Z"/><path id="_Path_16" data-name="&lt;Path&gt;" class="cls-2" d="M25.32,20.12s-.11-1.85.92-2.53,3.15-.81,3.15-3.31H18.61c0,2.5,2.11,2.63,3.15,3.31s.92,2.53.92,2.53a2.8,2.8,0,0,0,2.64,0Z"/><path id="_Path_17" data-name="&lt;Path&gt;" class="cls-7" d="M19.91,16.69a18,18,0,0,0,4.09.45,18,18,0,0,0,4.09-.45,2.55,2.55,0,0,0,1.3-2.41H18.61A2.55,2.55,0,0,0,19.91,16.69Z"/><path id="_Path_18" data-name="&lt;Path&gt;" class="cls-3" d="M25.32,20.12s-.11-1.85.92-2.53,3.15-.81,3.15-3.31H18.61c0,2.5,2.11,2.63,3.15,3.31s.92,2.53.92,2.53a2.8,2.8,0,0,0,2.64,0Z"/><path id="_Path_19" data-name="&lt;Path&gt;" class="cls-8" d="M29.39,14.28c0,.64-2.41,1.16-5.39,1.16s-5.39-.52-5.39-1.16S21,13.13,24,13.13,29.39,13.65,29.39,14.28Z"/><path id="_Path_20" data-name="&lt;Path&gt;" class="cls-9" d="M19.33,14.86A15.52,15.52,0,0,1,24,14.29a15.52,15.52,0,0,1,4.67.57c.46-.17.72-.36.72-.58,0-.63-2.41-1.15-5.39-1.15s-5.39.52-5.39,1.15C18.61,14.5,18.87,14.69,19.33,14.86Z"/><path id="_Path_21" data-name="&lt;Path&gt;" class="cls-3" d="M29.39,14.28c0,.64-2.41,1.16-5.39,1.16s-5.39-.52-5.39-1.16S21,13.13,24,13.13,29.39,13.65,29.39,14.28Z"/></svg>