<svg id="Icons" xmlns="http://www.w3.org/2000/svg" viewBox="0 0 48 48"><defs><style>.cls-1{fill:#45413c;opacity:0.15;}.cls-2{fill:#fff;}.cls-3{fill:#f0f0f0;}.cls-4{fill:none;}.cls-4,.cls-8,.cls-9{stroke:#45413c;stroke-linecap:round;stroke-linejoin:round;}.cls-5{fill:#bf8df2;}.cls-6{fill:#6dd627;}.cls-7{fill:#46b000;}.cls-8{fill:#ffe500;}.cls-11,.cls-9{fill:#ffaa54;}.cls-10{fill:#ff8a14;}</style></defs><title>594-tent</title><path id="_Path_" data-name="&lt;Path&gt;" class="cls-1" d="M46.25,45.7c0,1-10,1.3-22.25,1.3S1.75,46.69,1.75,45.7s10-1.81,22.25-1.81S46.25,44.7,46.25,45.7Z"/><g id="_Group_" data-name="&lt;Group&gt;"><rect id="_Rectangle_" data-name="&lt;Rectangle&gt;" class="cls-2" x="3.03" y="3.03" width="41.94" height="41.94" rx="3.59" ry="3.59"/><path id="_Path_2" data-name="&lt;Path&gt;" class="cls-3" d="M41.37,42H6.63A3.6,3.6,0,0,1,3,38.38v3A3.6,3.6,0,0,0,6.63,45H41.37a3.6,3.6,0,0,0,3.6-3.6v-3A3.6,3.6,0,0,1,41.37,42Z"/><rect id="_Rectangle_2" data-name="&lt;Rectangle&gt;" class="cls-4" x="3.03" y="3.03" width="41.94" height="41.94" rx="3.59" ry="3.59"/><rect id="_Rectangle_3" data-name="&lt;Rectangle&gt;" class="cls-5" x="6.03" y="6.03" width="35.95" height="35.95" rx="1.2" ry="1.2"/><rect id="_Rectangle_4" data-name="&lt;Rectangle&gt;" class="cls-4" x="6.03" y="6.03" width="35.95" height="35.95" rx="1.2" ry="1.2"/><path id="_Rectangle_5" data-name="&lt;Rectangle&gt;" class="cls-6" d="M6,26.41H42a0,0,0,0,1,0,0V40.77a1.2,1.2,0,0,1-1.2,1.2H7.23A1.2,1.2,0,0,1,6,40.77V26.41A0,0,0,0,1,6,26.41Z"/><path id="_Path_3" data-name="&lt;Path&gt;" class="cls-7" d="M40.77,39H7.23A1.2,1.2,0,0,1,6,37.78v3A1.19,1.19,0,0,0,7.23,42H40.77a1.19,1.19,0,0,0,1.2-1.2v-3A1.2,1.2,0,0,1,40.77,39Z"/><path id="_Path_4" data-name="&lt;Path&gt;" class="cls-8" d="M35.91,17.63a3.22,3.22,0,1,1,0-6.44,3.11,3.11,0,0,1,.43,0,4.81,4.81,0,0,0-3.05-1.08,4.87,4.87,0,1,0,4.4,7A3.22,3.22,0,0,1,35.91,17.63Z"/><path id="_Rectangle_6" data-name="&lt;Rectangle&gt;" class="cls-4" d="M6,26.41H42a0,0,0,0,1,0,0V40.77a1.2,1.2,0,0,1-1.2,1.2H7.23A1.2,1.2,0,0,1,6,40.77V26.41A0,0,0,0,1,6,26.41Z"/><path id="_Path_5" data-name="&lt;Path&gt;" class="cls-9" d="M24,22.29,21.38,36.6l8.43-3.77a.59.59,0,0,0,.26-.86Z"/><path id="_Path_6" data-name="&lt;Path&gt;" class="cls-10" d="M24,22.29l-10.25-2.4a.6.6,0,0,0-.72.46c-.15.76-.51,2.35-1.31,5.39a34,34,0,0,1-2.54,6.84.59.59,0,0,0,.38.84L21.38,36.6Z"/><path id="_Path_7" data-name="&lt;Path&gt;" class="cls-11" d="M23.27,26.28l.73-4-10.24-2.4a.6.6,0,0,0-.73.46c-.12.61-.38,1.76-.89,3.77Z"/><path id="_Path_8" data-name="&lt;Path&gt;" class="cls-4" d="M24,22.29l-10.25-2.4a.6.6,0,0,0-.72.46c-.15.76-.51,2.35-1.31,5.39a34,34,0,0,1-2.54,6.84.59.59,0,0,0,.38.84L21.38,36.6Z"/><line id="_Path_9" data-name="&lt;Path&gt;" class="cls-4" x1="24" y1="22.29" x2="26.07" y2="34.5"/></g></svg>