<svg id="Icons" xmlns="http://www.w3.org/2000/svg" viewBox="0 0 48 48"><defs><style>.cls-1{fill:#45413c;opacity:0.15;}.cls-2,.cls-9{fill:#ff6242;}.cls-3{fill:#e04122;}.cls-4,.cls-6{fill:none;}.cls-10,.cls-4,.cls-5,.cls-6,.cls-7,.cls-8,.cls-9{stroke:#45413c;}.cls-4{stroke-miterlimit:10;}.cls-5{fill:#656769;}.cls-10,.cls-5,.cls-6,.cls-7,.cls-8,.cls-9{stroke-linecap:round;stroke-linejoin:round;}.cls-7{fill:#00b8f0;}.cls-11,.cls-8{fill:#fff;}.cls-10,.cls-12{fill:#f0f0f0;}.cls-13{fill:#ff866e;}</style></defs><title>599-circus-tent</title><ellipse id="_Ellipse_" data-name="&lt;Ellipse&gt;" class="cls-1" cx="24" cy="45.62" rx="18.92" ry="1.58"/><path class="cls-2" d="M42.23,40.46a59,59,0,0,1-1.54-13.37c0-2.46-7.48-4.44-16.69-4.44s-16.69,2-16.69,4.44A59,59,0,0,1,5.77,40.46c-.95,4,13.3,5.16,18.23,5.16S43.18,44.48,42.23,40.46Z"/><path class="cls-3" d="M41.15,34.43a60.15,60.15,0,0,1-.46-7.34c0-2.46-7.48-4.44-16.69-4.44s-16.69,2-16.69,4.44a60.15,60.15,0,0,1-.46,7.34C10.19,36.77,20.07,37.5,24,37.5S37.81,36.77,41.15,34.43Z"/><path class="cls-4" d="M42.23,40.46a59,59,0,0,1-1.54-13.37c0-2.46-7.48-4.44-16.69-4.44s-16.69,2-16.69,4.44A59,59,0,0,1,5.77,40.46c-.95,4,13.3,5.16,18.23,5.16S43.18,44.48,42.23,40.46Z"/><path class="cls-5" d="M19.7,45.44c1.7.13,3.22.18,4.3.18s2.58,0,4.29-.18A44.7,44.7,0,0,1,24,25.3,44.4,44.4,0,0,1,19.7,45.44Z"/><line id="_Path_" data-name="&lt;Path&gt;" class="cls-6" x1="24" y1="10.41" x2="24" y2="8.09"/><polygon id="_Path_2" data-name="&lt;Path&gt;" class="cls-7" points="24 8.09 30.31 4.86 24 1.83 24 8.09"/><path id="_Path_3" data-name="&lt;Path&gt;" class="cls-8" d="M28.67,31.42c0,2.16-2.09,3.92-4.67,3.92s-4.67-1.76-4.67-3.92,2.09-3.93,4.67-3.93S28.67,29.25,28.67,31.42Z"/><path id="_Path_4" data-name="&lt;Path&gt;" class="cls-9" d="M19.32,30.86a3.75,3.75,0,0,1-4.19,3.44,4.06,4.06,0,0,1-3.53-4.36,3.76,3.76,0,0,1,4.2-3.44A4.05,4.05,0,0,1,19.32,30.86Z"/><path id="_Path_5" data-name="&lt;Path&gt;" class="cls-10" d="M5.86,26.47A5,5,0,0,0,5.54,28c-.15,2.32,1.32,4.31,3.29,4.44s3.67-1.66,3.82-4a5.08,5.08,0,0,0-.26-1.93Z"/><path id="_Path_6" data-name="&lt;Path&gt;" class="cls-9" d="M28.68,30.86a3.75,3.75,0,0,0,4.19,3.44,4.06,4.06,0,0,0,3.53-4.36,3.76,3.76,0,0,0-4.2-3.44A4.05,4.05,0,0,0,28.68,30.86Z"/><path id="_Path_7" data-name="&lt;Path&gt;" class="cls-10" d="M42.14,26.47A5,5,0,0,1,42.46,28c.15,2.32-1.32,4.31-3.29,4.44s-3.67-1.66-3.82-4a5.08,5.08,0,0,1,.26-1.93Z"/><path id="_Path_8" data-name="&lt;Path&gt;" class="cls-11" d="M38,22.53c-11.13-8-14-12.12-14-12.12s-2.88,4.17-14,12.12A25.41,25.41,0,0,1,7.6,24.12c-1.19.68-1.86,1.44-1.86,2.24,0,2.81,8.17,5.08,18.26,5.08s18.26-2.27,18.26-5.08c0-.8-.67-1.56-1.86-2.24A25.41,25.41,0,0,1,38,22.53Z"/><path id="_Path_9" data-name="&lt;Path&gt;" class="cls-12" d="M40.4,24.12c-.52-.3-1-.63-1.53-1A40.07,40.07,0,0,1,24,25.85,40.07,40.07,0,0,1,9.13,23.14c-.5.35-1,.68-1.53,1-1.19.68-1.86,1.44-1.86,2.24,0,2.81,8.17,5.08,18.26,5.08s18.26-2.27,18.26-5.08C42.26,25.56,41.59,24.8,40.4,24.12Z"/><path id="_Path_10" data-name="&lt;Path&gt;" class="cls-6" d="M38,22.53c-11.13-8-14-12.12-14-12.12s-2.88,4.17-14,12.12A25.41,25.41,0,0,1,7.6,24.12c-1.19.68-1.86,1.44-1.86,2.24,0,2.81,8.17,5.08,18.26,5.08s18.26-2.27,18.26-5.08c0-.8-.67-1.56-1.86-2.24A25.41,25.41,0,0,1,38,22.53Z"/><path id="_Path_11" data-name="&lt;Path&gt;" class="cls-13" d="M24,10.41s.56,2.79,5.27,9.91,6.57,9.91,6.57,9.91h0a47,47,0,0,1-7.23,1.05A70,70,0,0,1,24,10.41Z"/><path id="_Path_12" data-name="&lt;Path&gt;" class="cls-2" d="M26.71,25.76c.53,1.8,1.15,3.66,1.9,5.52a47,47,0,0,0,7.23-1.05L32.39,25A40.79,40.79,0,0,1,26.71,25.76Z"/><path id="_Path_13" data-name="&lt;Path&gt;" class="cls-6" d="M24,10.41s.56,2.79,5.27,9.91,6.57,9.91,6.57,9.91h0a47,47,0,0,1-7.23,1.05A70,70,0,0,1,24,10.41Z"/><path id="_Path_14" data-name="&lt;Path&gt;" class="cls-13" d="M24,10.41s-.56,2.79-5.27,9.91-6.57,9.91-6.57,9.91h0a47,47,0,0,0,7.23,1.05A70,70,0,0,0,24,10.41Z"/><path id="_Path_15" data-name="&lt;Path&gt;" class="cls-2" d="M21.29,25.76c-.53,1.8-1.15,3.66-1.9,5.52a47,47,0,0,1-7.23-1.05L15.61,25A40.79,40.79,0,0,0,21.29,25.76Z"/><path id="_Path_16" data-name="&lt;Path&gt;" class="cls-6" d="M24,10.41s-.56,2.79-5.27,9.91-6.57,9.91-6.57,9.91h0a47,47,0,0,0,7.23,1.05A70,70,0,0,0,24,10.41Z"/></svg>