<svg id="Icons" xmlns="http://www.w3.org/2000/svg" viewBox="0 0 48 48"><defs><style>.cls-1{fill:#45413c;opacity:0.15;}.cls-2{fill:#8ca4b8;}.cls-3{fill:#627b8c;}.cls-4{fill:none;}.cls-13,.cls-14,.cls-15,.cls-16,.cls-17,.cls-4{stroke:#45413c;stroke-linecap:round;stroke-linejoin:round;}.cls-17,.cls-5{fill:#fffacf;}.cls-6{fill:#fffce5;}.cls-16,.cls-7{fill:#6dd627;}.cls-14,.cls-8{fill:#9ceb60;}.cls-9{fill:#00b8f0;}.cls-10{fill:#4acfff;}.cls-11{fill:#c0dceb;}.cls-12{fill:#daedf7;}.cls-13{fill:#87898c;}.cls-15{fill:#e8f4fa;}</style></defs><title>603-railway-car</title><g id="_Group_" data-name="&lt;Group&gt;"><ellipse id="_Ellipse_" data-name="&lt;Ellipse&gt;" class="cls-1" cx="24" cy="42.34" rx="20.44" ry="1.66"/><circle id="_Path_" data-name="&lt;Path&gt;" class="cls-2" cx="13.86" cy="39.58" r="2.42"/><path id="_Path_2" data-name="&lt;Path&gt;" class="cls-3" d="M13.86,37.17a2.41,2.41,0,0,0-2.41,2.41,2.48,2.48,0,0,0,.11.73h4.61a2.48,2.48,0,0,0,.11-.73A2.41,2.41,0,0,0,13.86,37.17Z"/><circle id="_Path_3" data-name="&lt;Path&gt;" class="cls-2" cx="34.14" cy="39.58" r="2.42"/><path id="_Path_4" data-name="&lt;Path&gt;" class="cls-3" d="M34.14,37.17a2.41,2.41,0,0,0-2.42,2.41,2.48,2.48,0,0,0,.11.73h4.61a2.48,2.48,0,0,0,.11-.73A2.41,2.41,0,0,0,34.14,37.17Z"/><circle id="_Path_5" data-name="&lt;Path&gt;" class="cls-4" cx="13.86" cy="39.58" r="2.42"/><circle id="_Path_6" data-name="&lt;Path&gt;" class="cls-4" cx="34.14" cy="39.58" r="2.42"/><rect id="_Rectangle_" data-name="&lt;Rectangle&gt;" class="cls-5" x="3.47" y="19.48" width="41.06" height="19.26"/><rect id="_Rectangle_2" data-name="&lt;Rectangle&gt;" class="cls-6" x="3.47" y="19.48" width="41.06" height="2.58"/><rect id="_Rectangle_3" data-name="&lt;Rectangle&gt;" class="cls-4" x="3.47" y="19.48" width="41.06" height="19.26"/><path id="_Path_7" data-name="&lt;Path&gt;" class="cls-7" d="M44.53,19.48H3.47l.32-.87a4.41,4.41,0,0,1,4.14-2.89H40.07a4.41,4.41,0,0,1,4.14,2.89Z"/><path id="_Path_8" data-name="&lt;Path&gt;" class="cls-8" d="M7.93,17.6H40.07a4.4,4.4,0,0,1,3.61,1.88h.85l-.32-.87a4.41,4.41,0,0,0-4.14-2.89H7.93a4.41,4.41,0,0,0-4.14,2.89l-.32.87h.85A4.4,4.4,0,0,1,7.93,17.6Z"/><path id="_Path_9" data-name="&lt;Path&gt;" class="cls-4" d="M44.53,19.48H3.47l.32-.87a4.41,4.41,0,0,1,4.14-2.89H40.07a4.41,4.41,0,0,1,4.14,2.89Z"/><rect id="_Rectangle_4" data-name="&lt;Rectangle&gt;" class="cls-9" x="17.85" y="24.37" width="12.3" height="6.66" rx="1.1" ry="1.1"/><path id="_Path_10" data-name="&lt;Path&gt;" class="cls-10" d="M29.05,24.37H27.87L23,31h6.07a1.1,1.1,0,0,0,1.1-1.1V25.48A1.11,1.11,0,0,0,29.05,24.37Z"/><path id="_Rectangle_5" data-name="&lt;Rectangle&gt;" class="cls-11" d="M2.94,37.17H7.25a0,0,0,0,1,0,0v2a1.1,1.1,0,0,1-1.1,1.1H2.94a1.1,1.1,0,0,1-1.1-1.1v-.93A1.1,1.1,0,0,1,2.94,37.17Z"/><path id="_Rectangle_6" data-name="&lt;Rectangle&gt;" class="cls-11" d="M40.75,37.17h4.31a1.1,1.1,0,0,1,1.1,1.1v.93a1.1,1.1,0,0,1-1.1,1.1h-3.2a1.1,1.1,0,0,1-1.1-1.1v-2A0,0,0,0,1,40.75,37.17Z"/><path id="_Rectangle_7" data-name="&lt;Rectangle&gt;" class="cls-11" d="M40.75,37.17h4.31a1.1,1.1,0,0,1,1.1,1.1v.93a1.1,1.1,0,0,1-1.1,1.1h-3.2a1.1,1.1,0,0,1-1.1-1.1v-2A0,0,0,0,1,40.75,37.17Z"/><path id="_Path_11" data-name="&lt;Path&gt;" class="cls-12" d="M2.94,37.17a1.11,1.11,0,0,0-1.11,1.1v.93a1.13,1.13,0,0,0,0,.32,1.11,1.11,0,0,1,1.06-.78H7.25V37.17Z"/><path id="_Path_12" data-name="&lt;Path&gt;" class="cls-12" d="M45.06,37.17H40.75v1.57h4.31a1.11,1.11,0,0,1,1.06.78,1.13,1.13,0,0,0,.05-.32v-.93A1.11,1.11,0,0,0,45.06,37.17Z"/><path id="_Rectangle_8" data-name="&lt;Rectangle&gt;" class="cls-4" d="M2.94,37.17H7.25a0,0,0,0,1,0,0v2a1.1,1.1,0,0,1-1.1,1.1H2.94a1.1,1.1,0,0,1-1.1-1.1v-.93A1.1,1.1,0,0,1,2.94,37.17Z"/><path id="_Rectangle_9" data-name="&lt;Rectangle&gt;" class="cls-4" d="M40.75,37.17h4.31a1.1,1.1,0,0,1,1.1,1.1v.93a1.1,1.1,0,0,1-1.1,1.1h-3.2a1.1,1.1,0,0,1-1.1-1.1v-2A0,0,0,0,1,40.75,37.17Z"/><path id="_Path_13" data-name="&lt;Path&gt;" class="cls-13" d="M26.58,41.32H21.42a1.09,1.09,0,0,1-1.08-.87L20,38.74H28l-.37,1.71A1.09,1.09,0,0,1,26.58,41.32Z"/><path id="_Path_14" data-name="&lt;Path&gt;" class="cls-14" d="M21.54,13H15.79a3.32,3.32,0,0,0-2.88,1.67l-.62,1.09H22.65V14.06A1.11,1.11,0,0,0,21.54,13Z"/><polygon id="_Path_15" data-name="&lt;Path&gt;" class="cls-4" points="20.5 12.96 16.21 9.49 20.5 6.02 24.8 9.49 20.5 12.96"/><path class="cls-15" d="M21.64,4H19.37a1,1,0,1,0,0,2h2.27a1,1,0,1,0,0-2Z"/><rect id="_Rectangle_10" data-name="&lt;Rectangle&gt;" class="cls-16" x="3.47" y="31.03" width="41.06" height="3.19"/><path id="_Rectangle_11" data-name="&lt;Rectangle&gt;" class="cls-17" d="M8.35,24.37H14a1.1,1.1,0,0,1,1.1,1.1V38.74a0,0,0,0,1,0,0H7.25a0,0,0,0,1,0,0V25.48A1.1,1.1,0,0,1,8.35,24.37Z"/><path id="_Rectangle_12" data-name="&lt;Rectangle&gt;" class="cls-17" d="M34,24.37h5.62a1.1,1.1,0,0,1,1.1,1.1V38.74a0,0,0,0,1,0,0H32.93a0,0,0,0,1,0,0V25.48A1.1,1.1,0,0,1,34,24.37Z"/><rect id="_Rectangle_13" data-name="&lt;Rectangle&gt;" class="cls-9" x="7.25" y="27.05" width="7.82" height="9.02"/><polygon id="_Path_16" data-name="&lt;Path&gt;" class="cls-10" points="13.86 27.05 7.25 36.06 15.07 36.06 15.07 27.05 13.86 27.05"/><rect id="_Rectangle_14" data-name="&lt;Rectangle&gt;" class="cls-9" x="32.93" y="27.05" width="7.82" height="9.02"/><polygon id="_Path_17" data-name="&lt;Path&gt;" class="cls-10" points="39.55 27.05 32.93 36.06 40.76 36.06 40.76 27.05 39.55 27.05"/><rect id="_Rectangle_15" data-name="&lt;Rectangle&gt;" class="cls-4" x="17.85" y="24.37" width="12.3" height="6.66" rx="1.1" ry="1.1"/><rect id="_Rectangle_16" data-name="&lt;Rectangle&gt;" class="cls-4" x="7.25" y="27.05" width="7.82" height="9.02"/><rect id="_Rectangle_17" data-name="&lt;Rectangle&gt;" class="cls-4" x="32.93" y="27.05" width="7.82" height="9.02"/></g></svg>