<svg id="Icons" xmlns="http://www.w3.org/2000/svg" viewBox="0 0 48 48"><defs><style>.cls-1{fill:#45413c;opacity:0.15;}.cls-2{fill:#f0f0f0;}.cls-3{fill:#fff;}.cls-4{fill:none;}.cls-10,.cls-11,.cls-12,.cls-4,.cls-9{stroke:#45413c;stroke-linecap:round;stroke-linejoin:round;}.cls-12,.cls-5{fill:#c0dceb;}.cls-6{fill:#daedf7;}.cls-7{fill:#656769;}.cls-8{fill:#87898c;}.cls-9{fill:#00dba8;}.cls-10{fill:#ff8a14;}.cls-11{fill:#ffe500;}.cls-13{fill:#00b8f0;}.cls-14{fill:#4acfff;}</style></defs><title>606-minibus</title><ellipse id="_Ellipse_" data-name="&lt;Ellipse&gt;" class="cls-1" cx="24" cy="42.33" rx="17.76" ry="1.67"/><g id="_Group_" data-name="&lt;Group&gt;"><path id="_Path_" data-name="&lt;Path&gt;" class="cls-2" d="M7.27,19.39a9.71,9.71,0,0,0-4.44,8.16V36.6H44.46V15.76a7.08,7.08,0,0,0-.61-2.87l-.65-1.45a5.09,5.09,0,0,0-4.64-3H16.26a6.21,6.21,0,0,0-5.65,3.64Z"/><path id="_Path_2" data-name="&lt;Path&gt;" class="cls-3" d="M43.85,12.89l-.65-1.45a5.09,5.09,0,0,0-4.64-3H16.26a6.22,6.22,0,0,0-5.65,3.64L7.27,19.39a9.71,9.71,0,0,0-4.44,8.16V31.8a9.71,9.71,0,0,1,4.44-8.15l3.34-7.32a6.21,6.21,0,0,1,5.65-3.64h22.3a5.08,5.08,0,0,1,4.64,3l.65,1.46A7.07,7.07,0,0,1,44.46,20V15.76A7.08,7.08,0,0,0,43.85,12.89Z"/><path id="_Path_3" data-name="&lt;Path&gt;" class="cls-4" d="M7.27,19.39a9.71,9.71,0,0,0-4.44,8.16V36.6H44.46V15.76a7.08,7.08,0,0,0-.61-2.87l-.65-1.45a5.09,5.09,0,0,0-4.64-3H16.26a6.21,6.21,0,0,0-5.65,3.64Z"/><rect id="_Rectangle_" data-name="&lt;Rectangle&gt;" class="cls-5" x="2" y="32.51" width="10.27" height="4.09" rx="1.11" ry="1.11"/><rect id="_Rectangle_2" data-name="&lt;Rectangle&gt;" class="cls-5" x="36.13" y="32.51" width="9.37" height="4.09" rx="1.11" ry="1.11"/><path id="_Path_4" data-name="&lt;Path&gt;" class="cls-6" d="M11.16,32.75h-8A1.11,1.11,0,0,0,2,33.86v1.8a1.11,1.11,0,0,1,1.11-1.11h8.05a1.11,1.11,0,0,1,1.11,1.11v-1.8A1.11,1.11,0,0,0,11.16,32.75Z"/><path id="_Path_5" data-name="&lt;Path&gt;" class="cls-6" d="M44.39,32.75H37.24a1.11,1.11,0,0,0-1.11,1.11v1.8a1.11,1.11,0,0,1,1.11-1.11h7.15a1.11,1.11,0,0,1,1.11,1.11v-1.8A1.11,1.11,0,0,0,44.39,32.75Z"/><rect id="_Rectangle_3" data-name="&lt;Rectangle&gt;" class="cls-4" x="2" y="32.51" width="10.27" height="4.09" rx="1.11" ry="1.11"/><rect id="_Rectangle_4" data-name="&lt;Rectangle&gt;" class="cls-4" x="36.13" y="32.51" width="9.37" height="4.09" rx="1.11" ry="1.11"/><circle id="_Path_6" data-name="&lt;Path&gt;" class="cls-7" cx="12.27" cy="36.6" r="4.9"/><circle id="_Path_7" data-name="&lt;Path&gt;" class="cls-7" cx="36.13" cy="36.6" r="4.9"/><path id="_Path_8" data-name="&lt;Path&gt;" class="cls-8" d="M12.27,33.74a4.9,4.9,0,0,1,4.79,3.88,4.9,4.9,0,1,0-9.59,0A4.9,4.9,0,0,1,12.27,33.74Z"/><path id="_Path_9" data-name="&lt;Path&gt;" class="cls-8" d="M36.13,33.74a4.9,4.9,0,0,1,4.8,3.88,4.91,4.91,0,1,0-9.59,0A4.9,4.9,0,0,1,36.13,33.74Z"/><circle id="_Path_10" data-name="&lt;Path&gt;" class="cls-4" cx="12.27" cy="36.6" r="4.9"/><circle id="_Path_11" data-name="&lt;Path&gt;" class="cls-4" cx="36.13" cy="36.6" r="4.9"/><path id="_Path_12" data-name="&lt;Path&gt;" class="cls-9" d="M2.83,28.22V29.8H44.46V26h-32a14.7,14.7,0,0,0-4.21.62Z"/><path id="_Path_13" data-name="&lt;Path&gt;" class="cls-10" d="M6.16,32.51H2.83V28.18l2.1-.49a1,1,0,0,1,1.23,1Z"/><path id="_Rectangle_5" data-name="&lt;Rectangle&gt;" class="cls-10" d="M42.7,24.49h1.76a0,0,0,0,1,0,0v8a0,0,0,0,1,0,0H41.34a0,0,0,0,1,0,0V25.86A1.37,1.37,0,0,1,42.7,24.49Z"/><rect id="_Rectangle_6" data-name="&lt;Rectangle&gt;" class="cls-11" x="41.34" y="28.8" width="3.12" height="3.71"/><circle id="_Path_14" data-name="&lt;Path&gt;" class="cls-12" cx="12.27" cy="36.6" r="1.8"/><circle id="_Path_15" data-name="&lt;Path&gt;" class="cls-12" cx="36.13" cy="36.6" r="1.8"/><path id="_Path_16" data-name="&lt;Path&gt;" class="cls-13" d="M15.35,12.09H10.6l-3.33,7.3h6.29a1.11,1.11,0,0,0,1-.74l1.79-5.09A1.11,1.11,0,0,0,15.35,12.09Z"/><path id="_Path_17" data-name="&lt;Path&gt;" class="cls-14" d="M15.35,12.09H14.17l-4.7,7.3h4.09a1.11,1.11,0,0,0,1-.74l1.79-5.09A1.11,1.11,0,0,0,15.35,12.09Z"/><path id="_Path_18" data-name="&lt;Path&gt;" class="cls-13" d="M22.36,19.39H18.71a1.11,1.11,0,0,1-1.05-1.46l1.71-5.09a1.1,1.1,0,0,1,1.05-.75h1.94a1.1,1.1,0,0,1,1.11,1.11v5.08A1.1,1.1,0,0,1,22.36,19.39Z"/><path id="_Path_19" data-name="&lt;Path&gt;" class="cls-14" d="M23.12,12.38l-4.51,7h3.75a1.1,1.1,0,0,0,1.11-1.11V13.2A1.17,1.17,0,0,0,23.12,12.38Z"/><path id="_Path_20" data-name="&lt;Path&gt;" class="cls-13" d="M39.65,19.39H27.17A1.17,1.17,0,0,1,26,18.23v-5a1.17,1.17,0,0,1,1.17-1.16H39a1.31,1.31,0,0,1,1.14.68l.39.72a2.62,2.62,0,0,1,.32,1.26v3.48A1.17,1.17,0,0,1,39.65,19.39Z"/><path id="_Path_21" data-name="&lt;Path&gt;" class="cls-14" d="M40.11,12.77A1.31,1.31,0,0,0,39,12.09H36.91l-4.69,7.3h7.43a1.17,1.17,0,0,0,1.17-1.16V14.75a2.62,2.62,0,0,0-.32-1.26Z"/><path id="_Path_22" data-name="&lt;Path&gt;" class="cls-4" d="M15.35,12.09H10.6l-3.33,7.3h6.29a1.11,1.11,0,0,0,1-.74l1.79-5.09A1.11,1.11,0,0,0,15.35,12.09Z"/><path id="_Path_23" data-name="&lt;Path&gt;" class="cls-4" d="M22.36,19.39H18.71a1.11,1.11,0,0,1-1.05-1.46l1.71-5.09a1.1,1.1,0,0,1,1.05-.75h1.94a1.1,1.1,0,0,1,1.11,1.11v5.08A1.1,1.1,0,0,1,22.36,19.39Z"/><path id="_Path_24" data-name="&lt;Path&gt;" class="cls-4" d="M39.65,19.39H27.17A1.17,1.17,0,0,1,26,18.23v-5a1.17,1.17,0,0,1,1.17-1.16H39a1.31,1.31,0,0,1,1.14.68l.39.72a2.62,2.62,0,0,1,.32,1.26v3.48A1.17,1.17,0,0,1,39.65,19.39Z"/></g></svg>