<svg id="Icons" xmlns="http://www.w3.org/2000/svg" viewBox="0 0 48 48"><defs><style>.cls-1{fill:#45413c;opacity:0.15;}.cls-2{fill:#fff;}.cls-3{fill:#f0f0f0;}.cls-4{fill:none;}.cls-11,.cls-12,.cls-15,.cls-4{stroke:#45413c;stroke-linecap:round;stroke-linejoin:round;}.cls-5{fill:#adc4d9;}.cls-6{fill:#8ca4b8;}.cls-7{fill:#656769;}.cls-8{fill:#87898c;}.cls-9{fill:#00b8f0;}.cls-10{fill:#4acfff;}.cls-11{fill:#ff6242;}.cls-12{fill:#ffe500;}.cls-13{fill:#ff8a14;}.cls-14{fill:#ffaa54;}.cls-15{fill:#c0dceb;}</style></defs><title>607-ambulance</title><g id="_Group_" data-name="&lt;Group&gt;"><ellipse id="_Ellipse_" data-name="&lt;Ellipse&gt;" class="cls-1" cx="24" cy="44.14" rx="19.81" ry="1.86"/><path id="_Path_" data-name="&lt;Path&gt;" class="cls-2" d="M8.68,20.9l-1,3.44a2.49,2.49,0,0,1-1.15,1.47l-1.77,1a3.37,3.37,0,0,0-1.69,2.92V34.6a1.23,1.23,0,0,0,1.24,1.23h18V16.64h-8A5.87,5.87,0,0,0,8.68,20.9Z"/><path id="_Path_2" data-name="&lt;Path&gt;" class="cls-3" d="M3.09,32.12V34.6a1.23,1.23,0,0,0,1.24,1.23h18V33.36h-18A1.24,1.24,0,0,1,3.09,32.12Z"/><path id="_Path_3" data-name="&lt;Path&gt;" class="cls-4" d="M8.68,20.9l-1,3.44a2.49,2.49,0,0,1-1.15,1.47l-1.77,1a3.37,3.37,0,0,0-1.69,2.92V34.6a1.23,1.23,0,0,0,1.24,1.23h18V16.64h-8A5.87,5.87,0,0,0,8.68,20.9Z"/><path id="_Rectangle_" data-name="&lt;Rectangle&gt;" class="cls-5" d="M3.71,35.83H35.28a0,0,0,0,1,0,0v5a0,0,0,0,1,0,0H3.71a1.24,1.24,0,0,1-1.24-1.24V37.07A1.24,1.24,0,0,1,3.71,35.83Z"/><path id="_Path_4" data-name="&lt;Path&gt;" class="cls-6" d="M2.47,37.46v2.09a1.24,1.24,0,0,0,1.24,1.24H35.28V38.7H3.71A1.24,1.24,0,0,1,2.47,37.46Z"/><path id="_Rectangle_2" data-name="&lt;Rectangle&gt;" class="cls-4" d="M3.71,35.83H35.28a0,0,0,0,1,0,0v5a0,0,0,0,1,0,0H3.71a1.24,1.24,0,0,1-1.24-1.24V37.07A1.24,1.24,0,0,1,3.71,35.83Z"/><rect id="_Rectangle_3" data-name="&lt;Rectangle&gt;" class="cls-2" x="22.28" y="11.07" width="22.29" height="29.71" rx="2.48" ry="2.48"/><path id="_Path_5" data-name="&lt;Path&gt;" class="cls-3" d="M42.09,35.83H24.76a2.48,2.48,0,0,1-2.48-2.47v5a2.48,2.48,0,0,0,2.48,2.48H42.09a2.48,2.48,0,0,0,2.48-2.48v-5A2.48,2.48,0,0,1,42.09,35.83Z"/><rect id="_Rectangle_4" data-name="&lt;Rectangle&gt;" class="cls-4" x="22.28" y="11.07" width="22.29" height="29.71" rx="2.48" ry="2.48"/><circle id="_Path_6" data-name="&lt;Path&gt;" class="cls-7" cx="14.23" cy="39.55" r="4.95"/><path id="_Path_7" data-name="&lt;Path&gt;" class="cls-8" d="M14.23,37.07A4.93,4.93,0,0,1,19,40.79a5.08,5.08,0,0,0,.17-1.24,4.95,4.95,0,0,0-9.9,0,4.65,4.65,0,0,0,.18,1.24A4.93,4.93,0,0,1,14.23,37.07Z"/><circle id="_Path_8" data-name="&lt;Path&gt;" class="cls-4" cx="14.23" cy="39.55" r="4.95"/><circle id="_Path_9" data-name="&lt;Path&gt;" class="cls-7" cx="35.9" cy="39.55" r="4.95"/><path id="_Path_10" data-name="&lt;Path&gt;" class="cls-8" d="M35.9,37.07a5,5,0,0,1,4.78,3.72,5.08,5.08,0,0,0,.17-1.24,4.95,4.95,0,0,0-9.9,0,5.08,5.08,0,0,0,.17,1.24A4.93,4.93,0,0,1,35.9,37.07Z"/><circle id="_Path_11" data-name="&lt;Path&gt;" class="cls-4" cx="35.9" cy="39.55" r="4.95"/><path id="_Path_12" data-name="&lt;Path&gt;" class="cls-9" d="M18,25.93H12.68a1.24,1.24,0,0,1-1.21-1.51L12,22.29a2.46,2.46,0,0,1,2.41-1.93H18a1.23,1.23,0,0,1,1.23,1.24v3.09A1.24,1.24,0,0,1,18,25.93Z"/><path id="_Path_13" data-name="&lt;Path&gt;" class="cls-10" d="M14.36,20.36A2.46,2.46,0,0,0,12,22.29l-.48,2.13a1.23,1.23,0,0,0,1.15,1.5l4.29-5.56Z"/><path id="_Path_14" data-name="&lt;Path&gt;" class="cls-4" d="M18,25.93H12.68a1.24,1.24,0,0,1-1.21-1.51L12,22.29a2.46,2.46,0,0,1,2.41-1.93H18a1.23,1.23,0,0,1,1.23,1.24v3.09A1.24,1.24,0,0,1,18,25.93Z"/><path id="_Path_15" data-name="&lt;Path&gt;" class="cls-11" d="M3.09,29.74v2.38H22.28V28.4H3.39A3.4,3.4,0,0,0,3.09,29.74Z"/><rect id="_Rectangle_5" data-name="&lt;Rectangle&gt;" class="cls-11" x="22.28" y="28.4" width="22.29" height="3.71"/><path id="_Rectangle_6" data-name="&lt;Rectangle&gt;" class="cls-12" d="M3.09,29.74H4.95A1.24,1.24,0,0,1,6.18,31v1.15a1.24,1.24,0,0,1-1.24,1.24H3.09a0,0,0,0,1,0,0V29.74A0,0,0,0,1,3.09,29.74Z"/><polygon id="_Path_16" data-name="&lt;Path&gt;" class="cls-11" points="37.76 17.88 35.28 17.88 35.28 15.4 31.57 15.4 31.57 17.88 29.09 17.88 29.09 21.59 31.57 21.59 31.57 24.07 35.28 24.07 35.28 21.59 37.76 21.59 37.76 17.88"/><path class="cls-13" d="M16.09,12.31a2.48,2.48,0,0,0-2.48,2.48v1.85h5V14.79A2.48,2.48,0,0,0,16.09,12.31Z"/><path class="cls-14" d="M16.09,12.31a2.48,2.48,0,0,0-2.48,2.48v1.75a2.48,2.48,0,0,1,5,0V14.79A2.48,2.48,0,0,0,16.09,12.31Z"/><path class="cls-4" d="M16.09,12.31a2.48,2.48,0,0,0-2.48,2.48v1.85h5V14.79A2.48,2.48,0,0,0,16.09,12.31Z"/><circle id="_Path_17" data-name="&lt;Path&gt;" class="cls-15" cx="14.23" cy="39.55" r="1.86"/><circle id="_Path_18" data-name="&lt;Path&gt;" class="cls-15" cx="35.9" cy="39.55" r="1.86"/><polygon id="_Path_19" data-name="&lt;Path&gt;" class="cls-12" points="16.09 7.2 14.24 2.81 17.91 2.81 16.09 7.2"/><polygon id="_Path_20" data-name="&lt;Path&gt;" class="cls-12" points="10.71 9.05 6.3 7.26 8.89 4.67 10.71 9.05"/><polygon id="_Path_21" data-name="&lt;Path&gt;" class="cls-12" points="8.9 14.13 4.51 15.97 4.51 12.31 8.9 14.13"/><polygon id="_Path_22" data-name="&lt;Path&gt;" class="cls-12" points="21.21 9.05 25.62 7.26 23.03 4.67 21.21 9.05"/></g></svg>