<svg id="Icons" xmlns="http://www.w3.org/2000/svg" viewBox="0 0 48 48"><defs><style>.cls-1,.cls-15{fill:#00b8f0;}.cls-2{fill:#4acfff;}.cls-3{fill:none;}.cls-15,.cls-18,.cls-3{stroke:#45413c;stroke-linecap:round;stroke-linejoin:round;}.cls-4{fill:#ff6242;}.cls-5{fill:#ff866e;}.cls-6{fill:#87898c;}.cls-7{fill:#bdbec0;}.cls-8{fill:#45413c;opacity:0.15;}.cls-9{fill:#656769;}.cls-10{fill:#525252;}.cls-11{fill:#fff;}.cls-12{fill:#f0f0f0;}.cls-13{fill:#daedf7;}.cls-14{fill:#c0dceb;}.cls-16,.cls-18{fill:#ffe500;}.cls-17{fill:#ebcb00;}</style></defs><title>609-oncoming-police-car</title><path class="cls-1" d="M16.28,12.08a1.65,1.65,0,0,0,1.66,1.65h4.41v-3.3H17.94A1.65,1.65,0,0,0,16.28,12.08Z"/><path id="_Path_" data-name="&lt;Path&gt;" class="cls-2" d="M17.94,10.43a1.65,1.65,0,0,0-1.66,1.65,1.7,1.7,0,0,0,.23.83,1.65,1.65,0,0,1,1.43-.83h4.41V10.43Z"/><path class="cls-3" d="M16.28,12.08a1.65,1.65,0,0,0,1.66,1.65h4.41v-3.3H17.94A1.65,1.65,0,0,0,16.28,12.08Z"/><path class="cls-4" d="M31.72,12.08a1.65,1.65,0,0,1-1.66,1.65H25.65v-3.3h4.41A1.65,1.65,0,0,1,31.72,12.08Z"/><path id="_Path_2" data-name="&lt;Path&gt;" class="cls-5" d="M30.06,10.43a1.65,1.65,0,0,1,1.66,1.65,1.7,1.7,0,0,1-.23.83,1.65,1.65,0,0,0-1.43-.83H25.65V10.43Z"/><path class="cls-3" d="M31.72,12.08a1.65,1.65,0,0,1-1.66,1.65H25.65v-3.3h4.41A1.65,1.65,0,0,1,31.72,12.08Z"/><path id="_Rectangle_" data-name="&lt;Rectangle&gt;" class="cls-6" d="M22.9,9.88h2.2a.55.55,0,0,1,.55.55v3.31a0,0,0,0,1,0,0H22.35a0,0,0,0,1,0,0V10.43A.55.55,0,0,1,22.9,9.88Z"/><path id="_Path_3" data-name="&lt;Path&gt;" class="cls-7" d="M25.1,9.88H22.9a.54.54,0,0,0-.55.55v1.62a.55.55,0,0,1,.55-.56h2.2a.55.55,0,0,1,.55.56V10.43A.54.54,0,0,0,25.1,9.88Z"/><path id="_Rectangle_2" data-name="&lt;Rectangle&gt;" class="cls-3" d="M22.9,9.88h2.2a.55.55,0,0,1,.55.55v3.31a0,0,0,0,1,0,0H22.35a0,0,0,0,1,0,0V10.43A.55.55,0,0,1,22.9,9.88Z"/><ellipse id="_Ellipse_" data-name="&lt;Ellipse&gt;" class="cls-8" cx="24" cy="43.35" rx="16.54" ry="1.65"/><rect id="_Rectangle_3" data-name="&lt;Rectangle&gt;" class="cls-9" x="10.22" y="35.23" width="5.51" height="8.27" rx="1.16" ry="1.16"/><rect id="_Path_4" data-name="&lt;Path&gt;" class="cls-10" x="10.22" y="35.23" width="5.51" height="6.25" rx="1.16" ry="1.16"/><rect id="_Rectangle_4" data-name="&lt;Rectangle&gt;" class="cls-3" x="10.22" y="35.23" width="5.51" height="8.27" rx="1.16" ry="1.16"/><rect id="_Rectangle_5" data-name="&lt;Rectangle&gt;" class="cls-9" x="32.27" y="35.23" width="5.51" height="8.27" rx="1.16" ry="1.16"/><rect id="_Path_5" data-name="&lt;Path&gt;" class="cls-10" x="32.27" y="35.23" width="5.51" height="6.25" rx="1.16" ry="1.16"/><rect id="_Rectangle_6" data-name="&lt;Rectangle&gt;" class="cls-3" x="32.27" y="35.23" width="5.51" height="8.27" rx="1.16" ry="1.16"/><path id="_Path_6" data-name="&lt;Path&gt;" class="cls-11" d="M36.84,25.66l-.75-4.37a8.92,8.92,0,0,0-8.84-7.7h-6.5a8.92,8.92,0,0,0-8.84,7.7l-.75,4.37a6.16,6.16,0,0,0-2,4.58v1.54H38.88V30.24A6.16,6.16,0,0,0,36.84,25.66Z"/><path id="_Path_7" data-name="&lt;Path&gt;" class="cls-12" d="M38.88,30.39a5.49,5.49,0,0,0,0-.58,20,20,0,0,0-9.61-2.3H18.76a20,20,0,0,0-9.61,2.3,5.49,5.49,0,0,0,0,.58v1.53H38.88Z"/><path id="_Path_8" data-name="&lt;Path&gt;" class="cls-3" d="M36.84,25.67l-.75-4.37a8.91,8.91,0,0,0-8.84-7.7h-6.5a8.91,8.91,0,0,0-8.84,7.7l-.75,4.37a6.16,6.16,0,0,0-2,4.58v1.67H38.88V30.25A6.16,6.16,0,0,0,36.84,25.67Z"/><rect id="_Rectangle_7" data-name="&lt;Rectangle&gt;" class="cls-6" x="8.57" y="31.92" width="30.87" height="6.61" rx="1" ry="1"/><path id="_Path_9" data-name="&lt;Path&gt;" class="cls-9" d="M38.43,36.75H9.57a1,1,0,0,1-1-1v1.8a1,1,0,0,0,1,1H38.43a1,1,0,0,0,1-1v-1.8A1,1,0,0,1,38.43,36.75Z"/><rect id="_Rectangle_8" data-name="&lt;Rectangle&gt;" class="cls-3" x="8.57" y="31.92" width="30.87" height="6.61" rx="1" ry="1"/><path id="_Rectangle_9" data-name="&lt;Rectangle&gt;" class="cls-13" d="M18.76,31.92H29.24a0,0,0,0,1,0,0v3.31a1.1,1.1,0,0,1-1.1,1.1H19.87a1.1,1.1,0,0,1-1.1-1.1V31.92A0,0,0,0,1,18.76,31.92Z"/><path id="_Path_10" data-name="&lt;Path&gt;" class="cls-14" d="M28.13,34.54H19.87a1.11,1.11,0,0,1-1.11-1.1v1.79a1.11,1.11,0,0,0,1.11,1.1h8.26a1.11,1.11,0,0,0,1.11-1.1V33.44A1.11,1.11,0,0,1,28.13,34.54Z"/><path id="_Rectangle_10" data-name="&lt;Rectangle&gt;" class="cls-3" d="M18.76,31.92H29.24a0,0,0,0,1,0,0v3.31a1.1,1.1,0,0,1-1.1,1.1H19.87a1.1,1.1,0,0,1-1.1-1.1V31.92A0,0,0,0,1,18.76,31.92Z"/><path id="_Path_11" data-name="&lt;Path&gt;" class="cls-15" d="M14.19,24.58a.54.54,0,0,0,.6.63A81.68,81.68,0,0,1,24,24.76a81.84,81.84,0,0,1,9.21.45.54.54,0,0,0,.6-.63l-.75-3.68a5.67,5.67,0,0,0-5.64-4.41H20.53a5.65,5.65,0,0,0-5.62,4.36Z"/><circle id="_Path_12" data-name="&lt;Path&gt;" class="cls-16" cx="13.53" cy="31.37" r="2.2"/><circle id="_Path_13" data-name="&lt;Path&gt;" class="cls-16" cx="34.47" cy="31.37" r="2.2"/><path id="_Path_14" data-name="&lt;Path&gt;" class="cls-17" d="M13.53,31.92a2.19,2.19,0,0,1-2-1.37,2,2,0,0,0-.17.82,2.21,2.21,0,1,0,4.25-.82A2.21,2.21,0,0,1,13.53,31.92Z"/><path id="_Path_15" data-name="&lt;Path&gt;" class="cls-17" d="M34.47,31.92a2.21,2.21,0,0,1-2-1.37,2.21,2.21,0,1,0,4.25.82,2,2,0,0,0-.17-.82A2.19,2.19,0,0,1,34.47,31.92Z"/><circle id="_Path_16" data-name="&lt;Path&gt;" class="cls-3" cx="13.53" cy="31.37" r="2.2"/><circle id="_Path_17" data-name="&lt;Path&gt;" class="cls-3" cx="34.47" cy="31.37" r="2.2"/><ellipse id="_Path_18" data-name="&lt;Path&gt;" class="cls-6" cx="8.57" cy="25.59" rx="2.2" ry="1.93"/><ellipse id="_Path_19" data-name="&lt;Path&gt;" class="cls-6" cx="39.43" cy="25.59" rx="2.2" ry="1.93"/><path id="_Path_20" data-name="&lt;Path&gt;" class="cls-9" d="M8.57,25.59a2.27,2.27,0,0,1-1.9-1,1.75,1.75,0,0,0-.31,1,2.08,2.08,0,0,0,2.21,1.92,2.08,2.08,0,0,0,2.2-1.92,1.75,1.75,0,0,0-.31-1A2.27,2.27,0,0,1,8.57,25.59Z"/><path id="_Path_21" data-name="&lt;Path&gt;" class="cls-9" d="M39.43,25.59a2.27,2.27,0,0,1-1.89-1,1.75,1.75,0,0,0-.31,1,2.23,2.23,0,0,0,4.41,0,1.75,1.75,0,0,0-.31-1A2.27,2.27,0,0,1,39.43,25.59Z"/><ellipse id="_Path_22" data-name="&lt;Path&gt;" class="cls-3" cx="8.57" cy="25.59" rx="2.2" ry="1.93"/><ellipse id="_Path_23" data-name="&lt;Path&gt;" class="cls-3" cx="39.43" cy="25.59" rx="2.2" ry="1.93"/><polygon id="_Path_24" data-name="&lt;Path&gt;" class="cls-18" points="24.01 5.31 22.37 1.4 25.63 1.4 24.01 5.31"/><polygon id="_Path_25" data-name="&lt;Path&gt;" class="cls-18" points="18.63 6.73 15.45 3.92 18.39 2.51 18.63 6.73"/><polygon id="_Path_26" data-name="&lt;Path&gt;" class="cls-18" points="15.04 10.07 10.83 9.55 12.46 6.73 15.04 10.07"/><polygon id="_Path_27" data-name="&lt;Path&gt;" class="cls-18" points="29.37 6.73 32.55 3.92 29.61 2.51 29.37 6.73"/><polygon id="_Path_28" data-name="&lt;Path&gt;" class="cls-18" points="32.96 10.07 37.17 9.55 35.55 6.73 32.96 10.07"/></svg>