<svg id="Icons" xmlns="http://www.w3.org/2000/svg" viewBox="0 0 48 48"><defs><style>.cls-1{fill:#ff8a14;}.cls-2{fill:#ffaa54;}.cls-3{fill:none;}.cls-13,.cls-3{stroke:#45413c;stroke-linecap:round;stroke-linejoin:round;}.cls-4{fill:#00b8f0;}.cls-5{fill:#4acfff;}.cls-13,.cls-6{fill:#45413c;}.cls-6{opacity:0.15;}.cls-7{fill:#ffe500;}.cls-8{fill:#fff48c;}.cls-9{fill:#656769;}.cls-10{fill:#87898c;}.cls-11{fill:#c0dceb;}.cls-12{fill:#adc4d9;}</style></defs><title>610-taxi</title><g id="_Group_" data-name="&lt;Group&gt;"><path id="_Path_" data-name="&lt;Path&gt;" class="cls-1" d="M28.5,10.5h-6l1-4.68A1.16,1.16,0,0,1,24.7,5h1.6a1.16,1.16,0,0,1,1.18.82Z"/><path id="_Path_2" data-name="&lt;Path&gt;" class="cls-2" d="M24.49,6.84h2a1.81,1.81,0,0,1,1.3.48l-.33-1.5A1.16,1.16,0,0,0,26.3,5H24.7a1.16,1.16,0,0,0-1.18.82l-.33,1.5A1.81,1.81,0,0,1,24.49,6.84Z"/><path id="_Path_3" data-name="&lt;Path&gt;" class="cls-3" d="M28.5,10.5h-6l1-4.68A1.16,1.16,0,0,1,24.7,5h1.6a1.16,1.16,0,0,1,1.18.82Z"/><path id="_Path_4" data-name="&lt;Path&gt;" class="cls-4" d="M14,22.5l3.44-6.25a7.48,7.48,0,0,1,6.34-3.87l11-.31A3.15,3.15,0,0,1,38,14.63l1.5,7.87Z"/><path id="_Path_5" data-name="&lt;Path&gt;" class="cls-5" d="M26.32,12.31,19.81,22.5h9.64l5.68-10.41-.31,0Z"/><ellipse id="_Ellipse_" data-name="&lt;Ellipse&gt;" class="cls-6" cx="24" cy="42.5" rx="21" ry="1.5"/><path id="_Rectangle_" data-name="&lt;Rectangle&gt;" class="cls-7" d="M2.5,33h42a1,1,0,0,1,1,1v2a2,2,0,0,1-2,2H3.5a2,2,0,0,1-2-2V34A1,1,0,0,1,2.5,33Z"/><path id="_Path_6" data-name="&lt;Path&gt;" class="cls-8" d="M44.5,33H2.5a1,1,0,0,0-1,1v2a1,1,0,0,1,1-1h42a1,1,0,0,1,1,1V34A1,1,0,0,0,44.5,33Z"/><path id="_Rectangle_2" data-name="&lt;Rectangle&gt;" class="cls-3" d="M2.5,33h42a1,1,0,0,1,1,1v2a2,2,0,0,1-2,2H3.5a2,2,0,0,1-2-2V34A1,1,0,0,1,2.5,33Z"/><path id="_Compound_Path_" data-name="&lt;Compound Path&gt;" class="cls-7" d="M44.37,24.08l-.87-2a1.8,1.8,0,0,0-1.44-1.05l-1.38-7.65A4.62,4.62,0,0,0,36,9.59L23,9.88a9.39,9.39,0,0,0-8.07,4.93l-4,7.5a14.7,14.7,0,0,0-2.48.82l-2.27,1a6.09,6.09,0,0,0-3.6,4.79L2,33H45V27.05A7.27,7.27,0,0,0,44.37,24.08Zm-9.55-12A3.15,3.15,0,0,1,38,14.63l1.09,5.66a.71.71,0,0,1-.68.85l-7.75.2.84-9.23ZM17.44,16.25a7.48,7.48,0,0,1,6.34-3.87l5.21-.2-.84,9.23L16,21.84a.93.93,0,0,1-.86-1.38Z"/><g id="_Group_2" data-name="&lt;Group&gt;"><path id="_Path_7" data-name="&lt;Path&gt;" class="cls-8" d="M44.37,24.08l-.87-2a1.8,1.8,0,0,0-1.44-1.05l-1.38-7.65A4.62,4.62,0,0,0,36,9.59L23,9.88a9.39,9.39,0,0,0-8.07,4.93l-4,7.5a14.7,14.7,0,0,0-2.48.82l-2.27,1a6.09,6.09,0,0,0-3.6,4.79L2,33h.36l.19-1.39a6.08,6.08,0,0,1,3.6-4.78l2.27-1A14.7,14.7,0,0,1,10.9,25l4-7.5a9.4,9.4,0,0,1,7-4.83,7.46,7.46,0,0,1,1.89-.3l5.21-.2,0,.27,2.5,0,0-.29,3.32,0a3.17,3.17,0,0,1,1.23.23,4.61,4.61,0,0,1,4.63,3.82l1.38,7.66a1.8,1.8,0,0,1,1.44,1l.87,2a7.2,7.2,0,0,1,.63,3V27.05A7.27,7.27,0,0,0,44.37,24.08Z"/></g><path id="_Compound_Path_2" data-name="&lt;Compound Path&gt;" class="cls-3" d="M44.37,24.08l-.87-2a1.8,1.8,0,0,0-1.44-1.05l-1.38-7.65A4.62,4.62,0,0,0,36,9.59L23,9.88a9.39,9.39,0,0,0-8.07,4.93l-4,7.5a14.7,14.7,0,0,0-2.48.82l-2.27,1a6.09,6.09,0,0,0-3.6,4.79L2,33H45V27.05A7.27,7.27,0,0,0,44.37,24.08Zm-9.55-12A3.15,3.15,0,0,1,38,14.63l1.09,5.66a.71.71,0,0,1-.68.85l-7.75.2.84-9.23ZM17.44,16.25a7.48,7.48,0,0,1,6.34-3.87l5.21-.2-.84,9.23L16,21.84a.93.93,0,0,1-.86-1.38Z"/><circle id="_Path_8" data-name="&lt;Path&gt;" class="cls-9" cx="11.5" cy="37.5" r="5"/><circle id="_Path_9" data-name="&lt;Path&gt;" class="cls-9" cx="36.5" cy="37.5" r="5"/><path id="_Path_10" data-name="&lt;Path&gt;" class="cls-10" d="M11.5,34.5a5,5,0,0,1,4.9,4,5.47,5.47,0,0,0,.1-1,5,5,0,0,0-10,0,5.47,5.47,0,0,0,.1,1A5,5,0,0,1,11.5,34.5Z"/><path id="_Path_11" data-name="&lt;Path&gt;" class="cls-10" d="M36.5,34.5a5,5,0,0,1,4.9,4,5.47,5.47,0,0,0,.1-1,5,5,0,0,0-10,0,5.47,5.47,0,0,0,.1,1A5,5,0,0,1,36.5,34.5Z"/><circle id="_Path_12" data-name="&lt;Path&gt;" class="cls-3" cx="11.5" cy="37.5" r="5"/><circle id="_Path_13" data-name="&lt;Path&gt;" class="cls-3" cx="36.5" cy="37.5" r="5"/><circle id="_Path_14" data-name="&lt;Path&gt;" class="cls-11" cx="11.5" cy="37.5" r="2"/><circle id="_Path_15" data-name="&lt;Path&gt;" class="cls-11" cx="36.5" cy="37.5" r="2"/><path id="_Path_16" data-name="&lt;Path&gt;" class="cls-12" d="M11.5,37a2,2,0,0,1,1.85,1.25,1.86,1.86,0,0,0,.15-.75,2,2,0,0,0-4,0,1.86,1.86,0,0,0,.15.75A2,2,0,0,1,11.5,37Z"/><path id="_Path_17" data-name="&lt;Path&gt;" class="cls-12" d="M36.5,37a2,2,0,0,1,1.85,1.25,1.86,1.86,0,0,0,.15-.75,2,2,0,0,0-4,0,1.86,1.86,0,0,0,.15.75A2,2,0,0,1,36.5,37Z"/><circle id="_Path_18" data-name="&lt;Path&gt;" class="cls-3" cx="11.5" cy="37.5" r="2"/><circle id="_Path_19" data-name="&lt;Path&gt;" class="cls-3" cx="36.5" cy="37.5" r="2"/><path id="_Path_20" data-name="&lt;Path&gt;" class="cls-7" d="M16.56,24.75c-1.65,0-3-.56-3-2s1.35-2,3-2Z"/><path id="_Path_21" data-name="&lt;Path&gt;" class="cls-8" d="M13.56,22.75a1.75,1.75,0,0,0,.15.7c.37-.92,1.5-1.31,2.85-1.31V20.75C14.91,20.75,13.56,21.31,13.56,22.75Z"/><path id="_Path_22" data-name="&lt;Path&gt;" class="cls-3" d="M16.56,24.75c-1.65,0-3-.56-3-2s1.35-2,3-2Z"/><path id="_Path_23" data-name="&lt;Path&gt;" class="cls-1" d="M4.63,27.45c-.49,1-.38,2.05.24,2.35s1.52-.26,2-1.25.38-2.05-.24-2.35S5.11,26.46,4.63,27.45Z"/><path id="_Path_24" data-name="&lt;Path&gt;" class="cls-2" d="M4.63,28.93c.48-1,1.38-1.55,2-1.25a.89.89,0,0,1,.41.46c.27-.86.12-1.68-.41-1.94s-1.52.26-2,1.25a2.35,2.35,0,0,0-.17,1.89C4.51,29.21,4.56,29.07,4.63,28.93Z"/><path id="_Path_25" data-name="&lt;Path&gt;" class="cls-3" d="M4.63,27.45c-.49,1-.38,2.05.24,2.35s1.52-.26,2-1.25.38-2.05-.24-2.35S5.11,26.46,4.63,27.45Z"/><path id="_Path_26" data-name="&lt;Path&gt;" class="cls-1" d="M44,27h1a7.33,7.33,0,0,0-.63-2.92L43.89,23H42.5a.7.7,0,0,0-.65.94l.81,2.15A1.39,1.39,0,0,0,44,27Z"/><path id="_Path_27" data-name="&lt;Path&gt;" class="cls-2" d="M43,24.27h1.46a1.46,1.46,0,0,0-.07-.19L43.89,23H42.5a.7.7,0,0,0-.65.94l.29.77A.93.93,0,0,1,43,24.27Z"/><path id="_Path_28" data-name="&lt;Path&gt;" class="cls-3" d="M44,27h1a7.33,7.33,0,0,0-.63-2.92L43.89,23H42.5a.7.7,0,0,0-.65.94l.81,2.15A1.39,1.39,0,0,0,44,27Z"/><rect id="_Rectangle_3" data-name="&lt;Rectangle&gt;" class="cls-13" x="14" y="25.5" width="2" height="2"/><rect id="_Rectangle_4" data-name="&lt;Rectangle&gt;" class="cls-13" x="19" y="25.5" width="2" height="2"/><rect id="_Rectangle_5" data-name="&lt;Rectangle&gt;" class="cls-13" x="24" y="25.5" width="2" height="2"/><rect id="_Rectangle_6" data-name="&lt;Rectangle&gt;" class="cls-13" x="29" y="25.5" width="2" height="2"/><rect id="_Rectangle_7" data-name="&lt;Rectangle&gt;" class="cls-13" x="34" y="25.5" width="2" height="2"/><rect id="_Rectangle_8" data-name="&lt;Rectangle&gt;" class="cls-13" x="16.5" y="28" width="2" height="2"/><rect id="_Rectangle_9" data-name="&lt;Rectangle&gt;" class="cls-13" x="21.5" y="28" width="2" height="2"/><rect id="_Rectangle_10" data-name="&lt;Rectangle&gt;" class="cls-13" x="26.5" y="28" width="2" height="2"/><rect id="_Rectangle_11" data-name="&lt;Rectangle&gt;" class="cls-13" x="31.5" y="28" width="2" height="2"/><rect id="_Rectangle_12" data-name="&lt;Rectangle&gt;" class="cls-13" x="36.5" y="28" width="2" height="2"/></g></svg>