<svg id="Icons" xmlns="http://www.w3.org/2000/svg" viewBox="0 0 48 48"><defs><style>.cls-1{fill:#ffe500;}.cls-2{fill:#fff48c;}.cls-3{fill:none;stroke:#45413c;stroke-linecap:round;stroke-linejoin:round;}.cls-4{fill:#45413c;opacity:0.15;}.cls-5{fill:#00b8f0;}.cls-6{fill:#4acfff;}.cls-7{fill:#adc4d9;}.cls-8{fill:#8ca4b8;}.cls-9{fill:#ffaa54;}.cls-10{fill:#fc9;}.cls-11{fill:#87898c;}.cls-12{fill:#656769;}</style></defs><title>611-oncoming-taxi</title><g id="_Group_" data-name="&lt;Group&gt;"><ellipse id="_Path_" data-name="&lt;Path&gt;" class="cls-1" cx="5.46" cy="22.19" rx="3.31" ry="2.94"/><ellipse id="_Path_2" data-name="&lt;Path&gt;" class="cls-1" cx="42.54" cy="22.19" rx="3.31" ry="2.94"/><path id="_Path_3" data-name="&lt;Path&gt;" class="cls-2" d="M5.46,21.4a3.31,3.31,0,0,1,3.07,1.86,2.58,2.58,0,0,0,.24-1.07,3.14,3.14,0,0,0-3.31-3,3.14,3.14,0,0,0-3.31,3,2.57,2.57,0,0,0,.23,1.07A3.33,3.33,0,0,1,5.46,21.4Z"/><path id="_Path_4" data-name="&lt;Path&gt;" class="cls-2" d="M42.54,21.4a3.33,3.33,0,0,1,3.08,1.86,2.57,2.57,0,0,0,.23-1.07,3.33,3.33,0,0,0-6.62,0,2.58,2.58,0,0,0,.24,1.07A3.31,3.31,0,0,1,42.54,21.4Z"/><ellipse id="_Path_5" data-name="&lt;Path&gt;" class="cls-3" cx="5.46" cy="22.19" rx="3.31" ry="2.94"/><ellipse id="_Path_6" data-name="&lt;Path&gt;" class="cls-3" cx="42.54" cy="22.19" rx="3.31" ry="2.94"/><ellipse id="_Ellipse_" data-name="&lt;Ellipse&gt;" class="cls-4" cx="24" cy="45.01" rx="21.85" ry="1.99"/><path id="_Rectangle_" data-name="&lt;Rectangle&gt;" class="cls-1" d="M4.57,33.74H43.43a1.1,1.1,0,0,1,1.1,1.1v3.32a2.2,2.2,0,0,1-2.2,2.2H5.67a2.2,2.2,0,0,1-2.2-2.2V34.84a1.1,1.1,0,0,1,1.1-1.1Z"/><path id="_Path_7" data-name="&lt;Path&gt;" class="cls-2" d="M43.43,33.74H4.57a1.1,1.1,0,0,0-1.1,1.1v2.82a1.1,1.1,0,0,1,1.1-1.1H43.43a1.1,1.1,0,0,1,1.1,1.1V34.84A1.1,1.1,0,0,0,43.43,33.74Z"/><path id="_Rectangle_2" data-name="&lt;Rectangle&gt;" class="cls-3" d="M4.57,33.74H43.43a1.1,1.1,0,0,1,1.1,1.1v3.32a2.2,2.2,0,0,1-2.2,2.2H5.67a2.2,2.2,0,0,1-2.2-2.2V34.84a1.1,1.1,0,0,1,1.1-1.1Z"/><path id="_Path_8" data-name="&lt;Path&gt;" class="cls-5" d="M36.58,23.84H11.42l1.06-7.26C13,13,15.78,10.29,19,10.29H29c3.23,0,6,2.66,6.53,6.29Z"/><path id="_Path_9" data-name="&lt;Path&gt;" class="cls-6" d="M17.17,23.84h11.5L34.09,13A6.34,6.34,0,0,0,29,10.29H25Z"/><path id="_Path_10" data-name="&lt;Path&gt;" class="cls-3" d="M36.58,23.84H11.42l1.06-7.26C13,13,15.78,10.29,19,10.29H29c3.23,0,6,2.66,6.53,6.29Z"/><path id="_Compound_Path_" data-name="&lt;Compound Path&gt;" class="cls-1" d="M43.18,27.62a6.38,6.38,0,0,0-3.46-4.87l-1.09-6.82c-.8-5-4.64-8.65-9.12-8.65h-11c-4.48,0-8.32,3.64-9.12,8.65L8.28,22.75a6.38,6.38,0,0,0-3.46,4.87l-.69,6.15H43.87ZM11.9,21.85l-.19,0,.77-5.29C13,13,15.78,10.29,19,10.29H29c3.23,0,6,2.66,6.53,6.29l.77,5.29-.19,0A94.4,94.4,0,0,0,24,21.19,94.4,94.4,0,0,0,11.9,21.85Z"/><g id="_Group_2" data-name="&lt;Group&gt;"><path id="_Path_11" data-name="&lt;Path&gt;" class="cls-2" d="M4.82,30.1a6.35,6.35,0,0,1,3.46-4.86l1.09-6.82c.8-5,4.64-8.65,9.12-8.65h11c4.48,0,8.32,3.64,9.12,8.65l1.09,6.82a6.35,6.35,0,0,1,3.46,4.86l.41,3.67h.28l-.69-6.15a6.38,6.38,0,0,0-3.46-4.87l-1.09-6.82c-.8-5-4.64-8.65-9.12-8.65h-11c-4.48,0-8.32,3.64-9.12,8.65L8.28,22.75a6.38,6.38,0,0,0-3.46,4.87l-.69,6.15h.28Z"/></g><path id="_Compound_Path_2" data-name="&lt;Compound Path&gt;" class="cls-3" d="M43.18,27.62a6.38,6.38,0,0,0-3.46-4.87l-1.09-6.82c-.8-5-4.64-8.65-9.12-8.65h-11c-4.48,0-8.32,3.64-9.12,8.65L8.28,22.75a6.38,6.38,0,0,0-3.46,4.87l-.69,6.15H43.87ZM11.9,21.85l-.19,0,.77-5.29C13,13,15.78,10.29,19,10.29H29c3.23,0,6,2.66,6.53,6.29l.77,5.29-.19,0A94.4,94.4,0,0,0,24,21.19,94.4,94.4,0,0,0,11.9,21.85Z"/><path id="_Path_12" data-name="&lt;Path&gt;" class="cls-7" d="M32,33.74H16.05l.2-1.63A4,4,0,0,1,20,28.39H28a4,4,0,0,1,3.72,3.72Z"/><path id="_Path_13" data-name="&lt;Path&gt;" class="cls-8" d="M20,30.65H28a3.86,3.86,0,0,1,3.59,3.09H32l-.2-1.63A4,4,0,0,0,28,28.39H20a4,4,0,0,0-3.72,3.72l-.2,1.63h.33A3.86,3.86,0,0,1,20,30.65Z"/><path id="_Path_14" data-name="&lt;Path&gt;" class="cls-3" d="M32,33.74H16.05l.2-1.63A4,4,0,0,1,20,28.39H28a4,4,0,0,1,3.72,3.72Z"/><circle id="_Path_15" data-name="&lt;Path&gt;" class="cls-9" cx="10.75" cy="27.78" r="2.65"/><circle id="_Path_16" data-name="&lt;Path&gt;" class="cls-9" cx="37.25" cy="27.78" r="2.65"/><path id="_Path_17" data-name="&lt;Path&gt;" class="cls-10" d="M10.75,27.17A2.66,2.66,0,0,1,13.2,28.8a2.65,2.65,0,1,0-4.89,0A2.66,2.66,0,0,1,10.75,27.17Z"/><path id="_Path_18" data-name="&lt;Path&gt;" class="cls-10" d="M37.25,27.17a2.66,2.66,0,0,1,2.44,1.63,2.65,2.65,0,1,0-4.89,0A2.66,2.66,0,0,1,37.25,27.17Z"/><circle id="_Path_19" data-name="&lt;Path&gt;" class="cls-3" cx="10.75" cy="27.78" r="2.65"/><circle id="_Path_20" data-name="&lt;Path&gt;" class="cls-3" cx="37.25" cy="27.78" r="2.65"/><path id="_Rectangle_3" data-name="&lt;Rectangle&gt;" class="cls-11" d="M5.46,40.36h7.28a0,0,0,0,1,0,0v3.47A1.17,1.17,0,0,1,11.57,45H6.62a1.17,1.17,0,0,1-1.17-1.17V40.36a0,0,0,0,1,0,0Z"/><rect id="_Rectangle_4" data-name="&lt;Rectangle&gt;" class="cls-12" x="5.46" y="40.36" width="7.28" height="2.32"/><path id="_Rectangle_5" data-name="&lt;Rectangle&gt;" class="cls-11" d="M35.26,40.36h7.28a0,0,0,0,1,0,0v3.47A1.17,1.17,0,0,1,41.38,45H36.43a1.17,1.17,0,0,1-1.17-1.17V40.36A0,0,0,0,1,35.26,40.36Z"/><rect id="_Rectangle_6" data-name="&lt;Rectangle&gt;" class="cls-12" x="35.26" y="40.36" width="7.28" height="2.32"/><path id="_Rectangle_7" data-name="&lt;Rectangle&gt;" class="cls-3" d="M5.46,40.36h7.28a0,0,0,0,1,0,0v3.47A1.17,1.17,0,0,1,11.57,45H6.62a1.17,1.17,0,0,1-1.17-1.17V40.36a0,0,0,0,1,0,0Z"/><path id="_Rectangle_8" data-name="&lt;Rectangle&gt;" class="cls-3" d="M35.26,40.36h7.28a0,0,0,0,1,0,0v3.47A1.17,1.17,0,0,1,41.38,45H36.43a1.17,1.17,0,0,1-1.17-1.17V40.36A0,0,0,0,1,35.26,40.36Z"/><path id="_Path_21" data-name="&lt;Path&gt;" class="cls-9" d="M27,2.65H21a2.64,2.64,0,0,0-2.62,2.27L18,7.28H30l-.34-2.36A2.64,2.64,0,0,0,27,2.65Z"/><path id="_Path_22" data-name="&lt;Path&gt;" class="cls-10" d="M18.38,6.66A2.64,2.64,0,0,1,21,4.38h6a2.64,2.64,0,0,1,2.62,2.28l.09.62H30l-.34-2.36A2.64,2.64,0,0,0,27,2.65H21a2.64,2.64,0,0,0-2.62,2.27L18,7.28h.25Z"/><path id="_Path_23" data-name="&lt;Path&gt;" class="cls-3" d="M27,2.65H21a2.64,2.64,0,0,0-2.62,2.27L18,7.28H30l-.34-2.36A2.64,2.64,0,0,0,27,2.65Z"/></g></svg>