<svg id="Icons" xmlns="http://www.w3.org/2000/svg" viewBox="0 0 48 48"><defs><style>.cls-1{fill:#daedf7;}.cls-1,.cls-10,.cls-11,.cls-5{stroke:#45413c;stroke-linecap:round;stroke-linejoin:round;}.cls-2{fill:#45413c;opacity:0.15;}.cls-3{fill:#ff6242;}.cls-4{fill:#ff866e;}.cls-5{fill:none;}.cls-6{fill:#87898c;}.cls-7{fill:#656769;}.cls-8{fill:#00b8f0;}.cls-9{fill:#4acfff;}.cls-10{fill:#bdbec0;}.cls-11{fill:#ffe500;}</style></defs><title>612-automobile</title><path id="_Path_" data-name="&lt;Path&gt;" class="cls-1" d="M41.86,11.27A1.37,1.37,0,0,1,42,12.7l-2.46,4.91-4-4.53L39,10.78A2.1,2.1,0,0,1,41.86,11.27Z"/><ellipse id="_Ellipse_" data-name="&lt;Ellipse&gt;" class="cls-2" cx="24" cy="42.3" rx="20.98" ry="1.7"/><path id="_Path_2" data-name="&lt;Path&gt;" class="cls-3" d="M41.46,23.66l-.5-.38-1.36-7.9A3,3,0,0,0,36.73,13L25,12.39a13.26,13.26,0,0,0-12.79,7.55L9.94,25h0a6.23,6.23,0,0,0-6.38,5.77L3.33,35.4a2,2,0,0,0,2.09,2.06H43a2.31,2.31,0,0,0,2.37-2.59l-.95-6.29A7.53,7.53,0,0,0,41.46,23.66Z"/><path id="_Path_3" data-name="&lt;Path&gt;" class="cls-4" d="M3.55,33.81a6.17,6.17,0,0,1,5-5.62,3,3,0,0,0,2.1-1.73L12.21,23A13.27,13.27,0,0,1,25,15.44L36.73,16a3,3,0,0,1,2.87,2.43L41,26.34l.5.38a7.51,7.51,0,0,1,3,4.92l.7,4.61a2.16,2.16,0,0,0,.25-1.38l-.95-6.29a7.53,7.53,0,0,0-3-4.92l-.5-.38-1.36-7.9A3,3,0,0,0,36.73,13L25,12.39a13.26,13.26,0,0,0-12.79,7.55L9.94,25a6.25,6.25,0,0,0-6.39,5.77L3.33,35.4a1.86,1.86,0,0,0,.11.71Z"/><path id="_Path_4" data-name="&lt;Path&gt;" class="cls-5" d="M41.46,23.66l-.5-.38-1.36-7.9A3,3,0,0,0,36.73,13L25,12.39a13.26,13.26,0,0,0-12.79,7.55L9.94,25h0a6.23,6.23,0,0,0-6.38,5.77L3.33,35.4a2,2,0,0,0,2.09,2.06H43a2.31,2.31,0,0,0,2.37-2.59l-.95-6.29A7.53,7.53,0,0,0,41.46,23.66Z"/><circle id="_Path_5" data-name="&lt;Path&gt;" class="cls-6" cx="12.88" cy="37.46" r="4.54"/><circle id="_Path_6" data-name="&lt;Path&gt;" class="cls-6" cx="36.13" cy="37.46" r="4.54"/><path id="_Path_7" data-name="&lt;Path&gt;" class="cls-7" d="M12.88,34.91a4.53,4.53,0,0,1,4.42,3.55,4.8,4.8,0,0,0,.12-1,4.54,4.54,0,0,0-9.08,0,4.8,4.8,0,0,0,.12,1A4.53,4.53,0,0,1,12.88,34.91Z"/><path id="_Path_8" data-name="&lt;Path&gt;" class="cls-7" d="M36.13,34.91a4.53,4.53,0,0,1,4.42,3.55,4.8,4.8,0,0,0,.12-1,4.54,4.54,0,0,0-9.08,0,4.8,4.8,0,0,0,.12,1A4.54,4.54,0,0,1,36.13,34.91Z"/><circle id="_Path_9" data-name="&lt;Path&gt;" class="cls-5" cx="12.88" cy="37.46" r="4.54"/><circle id="_Path_10" data-name="&lt;Path&gt;" class="cls-5" cx="36.13" cy="37.46" r="4.54"/><path id="_Path_11" data-name="&lt;Path&gt;" class="cls-8" d="M14.72,24a.37.37,0,0,0,.35.47H32.16a1.14,1.14,0,0,0,1.14-1.14V17a1.13,1.13,0,0,0-1.06-1.13L27,15.46A11.87,11.87,0,0,0,14.72,24Z"/><path class="cls-9" d="M28.53,15.57,27,15.46A11.87,11.87,0,0,0,14.72,24a.37.37,0,0,0,.35.47H23.5Z"/><path id="_Path_12" data-name="&lt;Path&gt;" class="cls-5" d="M14.72,24a.37.37,0,0,0,.35.47H32.16a1.14,1.14,0,0,0,1.14-1.14V17a1.13,1.13,0,0,0-1.06-1.13L27,15.46A11.87,11.87,0,0,0,14.72,24Z"/><path class="cls-10" d="M29.89,27.25h-3.4a1.14,1.14,0,0,0,0,2.27h3.4a1.14,1.14,0,1,0,0-2.27Z"/><path class="cls-11" d="M6.64,30.66H3.56v.1l-.16,3.3H6.26a1.14,1.14,0,0,0,1.08-.78l.38-1.13A1.14,1.14,0,0,0,6.64,30.66Z"/><path id="_Path_13" data-name="&lt;Path&gt;" class="cls-11" d="M44.68,30.09H42.94a1.7,1.7,0,1,0,0,3.4h2.25Z"/><line id="_Path_14" data-name="&lt;Path&gt;" class="cls-5" x1="15.15" y1="33.54" x2="15.15" y2="28.39"/><path id="_Path_15" data-name="&lt;Path&gt;" class="cls-5" d="M36.13,32.93V29.3a3.83,3.83,0,0,0-1.7-3.18"/><circle id="_Path_16" data-name="&lt;Path&gt;" class="cls-1" cx="12.88" cy="37.46" r="1.7"/><circle id="_Path_17" data-name="&lt;Path&gt;" class="cls-1" cx="36.13" cy="37.46" r="1.7"/></svg>