<svg id="Icons" xmlns="http://www.w3.org/2000/svg" viewBox="0 0 48 48"><defs><style>.cls-1{fill:#45413c;opacity:0.15;}.cls-2{fill:#fffce5;}.cls-3{fill:#fff;}.cls-4{fill:none;}.cls-11,.cls-14,.cls-15,.cls-4{stroke:#45413c;stroke-linecap:round;stroke-linejoin:round;}.cls-11,.cls-5{fill:#ff6242;}.cls-6{fill:#ff866e;}.cls-7{fill:#fff48c;}.cls-8{fill:#fffacf;}.cls-9{fill:#656769;}.cls-10{fill:#525252;}.cls-12{fill:#00b8f0;}.cls-13{fill:#4acfff;}.cls-14{fill:#ff8a14;}.cls-15{fill:#daedf7;}</style></defs><title>613-delivery-truck</title><g id="_Group_" data-name="&lt;Group&gt;"><ellipse id="_Ellipse_" data-name="&lt;Ellipse&gt;" class="cls-1" cx="24.5" cy="42.05" rx="19.54" ry="1.95"/><path id="_Path_" data-name="&lt;Path&gt;" class="cls-2" d="M19.8,30.66H2.54V23.47A9,9,0,0,1,3.68,19.1l4.43-7.86a4.81,4.81,0,0,1,4.2-2.46H19.8Z"/><path id="_Path_2" data-name="&lt;Path&gt;" class="cls-3" d="M12.31,8.78a4.81,4.81,0,0,0-4.2,2.46L3.69,19.1a8.94,8.94,0,0,0-1.15,4.37v3.29A8.88,8.88,0,0,1,3.69,22.4l4.42-7.87a4.82,4.82,0,0,1,4.2-2.45H19.8V8.78Z"/><path id="_Path_3" data-name="&lt;Path&gt;" class="cls-4" d="M19.8,30.66H2.54V23.47A9,9,0,0,1,3.68,19.1l4.43-7.86a4.81,4.81,0,0,1,4.2-2.46H19.8Z"/><rect id="_Rectangle_" data-name="&lt;Rectangle&gt;" class="cls-5" x="1.66" y="30.66" width="44.33" height="6.62" rx="1.28" ry="1.28"/><path id="_Path_4" data-name="&lt;Path&gt;" class="cls-6" d="M44.71,30.66H2.94a1.28,1.28,0,0,0-1.28,1.28V34.6a1.28,1.28,0,0,1,1.28-1.28H44.71A1.28,1.28,0,0,1,46,34.6V31.94A1.28,1.28,0,0,0,44.71,30.66Z"/><rect id="_Rectangle_2" data-name="&lt;Rectangle&gt;" class="cls-4" x="1.66" y="30.66" width="44.33" height="6.62" rx="1.28" ry="1.28"/><path id="_Rectangle_3" data-name="&lt;Rectangle&gt;" class="cls-7" d="M21.1,5.1h23a1.3,1.3,0,0,1,1.3,1.3V30.66a0,0,0,0,1,0,0H19.8a0,0,0,0,1,0,0V6.4a1.3,1.3,0,0,1,1.3-1.3Z"/><path id="_Path_5" data-name="&lt;Path&gt;" class="cls-8" d="M44.05,5.1H21.1a1.3,1.3,0,0,0-1.3,1.3V9.71a1.3,1.3,0,0,1,1.3-1.3H44.05a1.31,1.31,0,0,1,1.31,1.3V6.4A1.31,1.31,0,0,0,44.05,5.1Z"/><path id="_Rectangle_4" data-name="&lt;Rectangle&gt;" class="cls-4" d="M21.1,5.1h23a1.3,1.3,0,0,1,1.3,1.3V30.66a0,0,0,0,1,0,0H19.8a0,0,0,0,1,0,0V6.4a1.3,1.3,0,0,1,1.3-1.3Z"/><circle id="_Path_6" data-name="&lt;Path&gt;" class="cls-9" cx="11.17" cy="37.28" r="4.72"/><circle id="_Path_7" data-name="&lt;Path&gt;" class="cls-9" cx="35.51" cy="37.28" r="4.72"/><path id="_Path_8" data-name="&lt;Path&gt;" class="cls-10" d="M11.17,34.43a4.73,4.73,0,0,1,4.63,3.78,4.72,4.72,0,1,0-9.26,0A4.73,4.73,0,0,1,11.17,34.43Z"/><path id="_Path_9" data-name="&lt;Path&gt;" class="cls-10" d="M35.51,34.43a4.73,4.73,0,0,1,4.63,3.78,4.72,4.72,0,1,0-9.26,0A4.73,4.73,0,0,1,35.51,34.43Z"/><circle id="_Path_10" data-name="&lt;Path&gt;" class="cls-4" cx="11.17" cy="37.28" r="4.72"/><circle id="_Path_11" data-name="&lt;Path&gt;" class="cls-4" cx="35.51" cy="37.28" r="4.72"/><rect id="_Rectangle_5" data-name="&lt;Rectangle&gt;" class="cls-11" x="2.54" y="23.98" width="17.26" height="6.67"/><path class="cls-12" d="M14.63,12.26H7.53L3.68,19.1c-.11.2-.21.41-.31.62h9.35a1.32,1.32,0,0,0,1-.47l1.91-2.31a1.28,1.28,0,0,0,.3-.83V13.57A1.31,1.31,0,0,0,14.63,12.26Z"/><path id="_Path_12" data-name="&lt;Path&gt;" class="cls-13" d="M14.63,12.26H11.58l-4,7.46h5.12a1.31,1.31,0,0,0,1-.47l1.91-2.31a1.28,1.28,0,0,0,.3-.83V13.57A1.31,1.31,0,0,0,14.63,12.26Z"/><path class="cls-4" d="M14.63,12.26H7.53L3.68,19.1c-.11.2-.21.41-.31.62h9.35a1.32,1.32,0,0,0,1-.47l1.91-2.31a1.28,1.28,0,0,0,.3-.83V13.57A1.31,1.31,0,0,0,14.63,12.26Z"/><path class="cls-14" d="M4.82,25.14A1.81,1.81,0,0,0,3,23.33H1.93V27H3A1.81,1.81,0,0,0,4.82,25.14Z"/><line id="_Path_13" data-name="&lt;Path&gt;" class="cls-4" x1="19.8" y1="11.37" x2="45.36" y2="11.37"/><line id="_Path_14" data-name="&lt;Path&gt;" class="cls-4" x1="19.8" y1="17.88" x2="45.36" y2="17.88"/><line id="_Path_15" data-name="&lt;Path&gt;" class="cls-4" x1="19.8" y1="24.55" x2="45.36" y2="24.55"/><circle id="_Path_16" data-name="&lt;Path&gt;" class="cls-15" cx="11.17" cy="37.28" r="1.55"/><circle id="_Path_17" data-name="&lt;Path&gt;" class="cls-15" cx="35.51" cy="37.28" r="1.55"/></g></svg>