<svg id="Icons" xmlns="http://www.w3.org/2000/svg" viewBox="0 0 48 48"><defs><style>.cls-1{fill:#45413c;opacity:0.15;}.cls-11,.cls-2{fill:#ffe500;}.cls-3{fill:#fff48c;}.cls-4{fill:none;}.cls-10,.cls-11,.cls-4,.cls-9{stroke:#45413c;stroke-linecap:round;stroke-linejoin:round;}.cls-5{fill:#656769;}.cls-10,.cls-6{fill:#87898c;}.cls-7{fill:#daedf7;}.cls-8{fill:#c0dceb;}.cls-9{fill:#ff8a14;}.cls-12{fill:#00b8f0;}.cls-13{fill:#4acfff;}.cls-14{fill:#ebcb00;}</style></defs><title>614-tractor</title><ellipse id="_Ellipse_" data-name="&lt;Ellipse&gt;" class="cls-1" cx="24" cy="43.35" rx="17.55" ry="1.65"/><path id="_Path_" data-name="&lt;Path&gt;" class="cls-2" d="M30.5,36.67H3.83L3.09,24.58a4.65,4.65,0,0,1,3.77-4.84L30.5,15.29Z"/><path id="_Path_2" data-name="&lt;Path&gt;" class="cls-3" d="M6.86,19.74a4.65,4.65,0,0,0-3.77,4.84L3.18,26a4.65,4.65,0,0,1,3.68-3.61L30.5,18V15.29Z"/><path id="_Path_3" data-name="&lt;Path&gt;" class="cls-4" d="M30.5,36.67H3.83L3.09,24.58a4.65,4.65,0,0,1,3.77-4.84L30.5,15.29Z"/><circle id="_Path_4" data-name="&lt;Path&gt;" class="cls-5" cx="9.04" cy="36.13" r="6.37"/><path id="_Path_5" data-name="&lt;Path&gt;" class="cls-6" d="M9,31.9a6.38,6.38,0,0,1,6.29,5.3,7.6,7.6,0,0,0,.09-1.07A6.38,6.38,0,1,0,2.76,37.2,6.37,6.37,0,0,1,9,31.9Z"/><circle id="_Path_6" data-name="&lt;Path&gt;" class="cls-4" cx="9.04" cy="36.13" r="6.37"/><path id="_Path_7" data-name="&lt;Path&gt;" class="cls-7" d="M11.53,36.13A2.49,2.49,0,1,1,9,33.64,2.49,2.49,0,0,1,11.53,36.13Z"/><path id="_Path_8" data-name="&lt;Path&gt;" class="cls-8" d="M9,35.33A2.48,2.48,0,0,1,11.38,37a2.6,2.6,0,0,0,.15-.84,2.49,2.49,0,1,0-5,0A2.6,2.6,0,0,0,6.7,37,2.49,2.49,0,0,1,9,35.33Z"/><path id="_Path_9" data-name="&lt;Path&gt;" class="cls-4" d="M11.53,36.13A2.49,2.49,0,1,1,9,33.64,2.49,2.49,0,0,1,11.53,36.13Z"/><path id="_Path_10" data-name="&lt;Path&gt;" class="cls-9" d="M6.41,22.35l-3,.34a4.6,4.6,0,0,0-.28,1.89l.13,2.1,2.91-.33A1.65,1.65,0,0,0,7.6,24.7V23.41A1.06,1.06,0,0,0,6.41,22.35Z"/><path id="_Path_11" data-name="&lt;Path&gt;" class="cls-10" d="M10.35,22.93v1.82a1.1,1.1,0,0,0,1.22,1.09l8.92-1.06v-4.5l-9.23,1.57A1.09,1.09,0,0,0,10.35,22.93Z"/><path id="_Path_12" data-name="&lt;Path&gt;" class="cls-6" d="M36.9,7.34H21.48a41.79,41.79,0,0,0-4.15,24.31l.65,5H38.43Z"/><path id="_Path_13" data-name="&lt;Path&gt;" class="cls-6" d="M36.9,7.34H21.48a41.79,41.79,0,0,0-4.15,24.31l.65,5H38.43Z"/><path id="_Path_14" data-name="&lt;Path&gt;" class="cls-5" d="M37,9.84l-.13-2.5H21.48c-.42.82-.81,1.66-1.16,2.5Z"/><path id="_Path_15" data-name="&lt;Path&gt;" class="cls-4" d="M36.9,7.34H21.48a41.79,41.79,0,0,0-4.15,24.31l.65,5H38.43Z"/><path id="_Path_16" data-name="&lt;Path&gt;" class="cls-11" d="M20.49,6.66a2,2,0,0,1,1.94-1.52H35.79a2,2,0,0,1,1.94,1.52.55.55,0,0,1-.53.68H21A.55.55,0,0,1,20.49,6.66Z"/><path id="_Path_17" data-name="&lt;Path&gt;" class="cls-12" d="M33.44,9.8H24a1.07,1.07,0,0,0-1,.65,40,40,0,0,0-2.69,8.37,37.77,37.77,0,0,0-.65,6.9,1.1,1.1,0,0,0,1.1,1.08H33.92A1.1,1.1,0,0,0,35,25.67l-.48-14.8A1.1,1.1,0,0,0,33.44,9.8Z"/><path class="cls-13" d="M24,9.8a1.07,1.07,0,0,0-1,.65,40,40,0,0,0-2.69,8.37,37.77,37.77,0,0,0-.65,6.9,1.1,1.1,0,0,0,1.1,1.08h1.16l8.34-17Z"/><path id="_Path_18" data-name="&lt;Path&gt;" class="cls-4" d="M33.44,9.8H24a1.07,1.07,0,0,0-1,.65,40,40,0,0,0-2.69,8.37,37.77,37.77,0,0,0-.65,6.9,1.1,1.1,0,0,0,1.1,1.08H33.92A1.1,1.1,0,0,0,35,25.67l-.48-14.8A1.1,1.1,0,0,0,33.44,9.8Z"/><path id="_Path_19" data-name="&lt;Path&gt;" class="cls-11" d="M25,26.19l9.46,5.41,9.31-5.66a5.33,5.33,0,0,0-2.38-6.1,13.68,13.68,0,0,0-13.28-.31A6.13,6.13,0,0,0,25,26.19Z"/><circle id="_Path_20" data-name="&lt;Path&gt;" class="cls-5" cx="34.43" cy="31.6" r="10.9"/><path id="_Path_21" data-name="&lt;Path&gt;" class="cls-6" d="M34.43,23.17a10.9,10.9,0,0,1,10.83,9.67,10.19,10.19,0,0,0,.07-1.24,10.9,10.9,0,1,0-21.79,0,10.19,10.19,0,0,0,.07,1.24A10.89,10.89,0,0,1,34.43,23.17Z"/><circle id="_Path_22" data-name="&lt;Path&gt;" class="cls-4" cx="34.43" cy="31.6" r="10.9"/><circle id="_Path_23" data-name="&lt;Path&gt;" class="cls-2" cx="34.43" cy="31.6" r="5.62"/><path id="_Path_24" data-name="&lt;Path&gt;" class="cls-14" d="M34.43,28A5.62,5.62,0,0,1,40,32.62a5.69,5.69,0,0,0,.1-1,5.63,5.63,0,0,0-11.25,0,5.69,5.69,0,0,0,.1,1A5.62,5.62,0,0,1,34.43,28Z"/><circle id="_Path_25" data-name="&lt;Path&gt;" class="cls-4" cx="34.43" cy="31.6" r="5.62"/><circle id="_Path_26" data-name="&lt;Path&gt;" class="cls-7" cx="34.43" cy="31.6" r="2.47"/><path id="_Path_27" data-name="&lt;Path&gt;" class="cls-8" d="M34.43,30.85a2.47,2.47,0,0,1,2.32,1.61,2.47,2.47,0,1,0-4.63,0A2.47,2.47,0,0,1,34.43,30.85Z"/><circle id="_Path_28" data-name="&lt;Path&gt;" class="cls-4" cx="34.43" cy="31.6" r="2.47"/></svg>