<svg id="Icons" xmlns="http://www.w3.org/2000/svg" viewBox="0 0 48 48"><defs><style>.cls-1{fill:#45413c;opacity:0.15;}.cls-2{fill:#656769;}.cls-3{fill:#87898c;}.cls-11,.cls-4{fill:none;}.cls-11,.cls-4,.cls-7{stroke:#45413c;}.cls-4,.cls-7{stroke-linecap:round;stroke-linejoin:round;}.cls-5{fill:#e8f4fa;}.cls-6{fill:#c0dceb;}.cls-7{fill:#6dd627;}.cls-8{fill:#daedf7;}.cls-9{fill:#debb7e;}.cls-10{fill:#f0d5a8;}.cls-11{stroke-miterlimit:10;}</style></defs><title>615-bicycle</title><g id="_Group_" data-name="&lt;Group&gt;"><ellipse id="_Ellipse_" data-name="&lt;Ellipse&gt;" class="cls-1" cx="24.13" cy="42.23" rx="21.24" ry="1.77"/><path id="_Path_" data-name="&lt;Path&gt;" class="cls-2" d="M18.5,33.75a8.25,8.25,0,1,1-8.25-8.25A8.25,8.25,0,0,1,18.5,33.75Z"/><path id="_Path_2" data-name="&lt;Path&gt;" class="cls-3" d="M10.25,27.86a8.26,8.26,0,0,1,8.16,7.07,9.23,9.23,0,0,0,.09-1.18,8.25,8.25,0,0,0-16.5,0,9.23,9.23,0,0,0,.09,1.18A8.26,8.26,0,0,1,10.25,27.86Z"/><path id="_Path_3" data-name="&lt;Path&gt;" class="cls-4" d="M18.5,33.75a8.25,8.25,0,1,1-8.25-8.25A8.25,8.25,0,0,1,18.5,33.75Z"/><path id="_Path_4" data-name="&lt;Path&gt;" class="cls-2" d="M46.25,33.75A8.25,8.25,0,1,1,38,25.5,8.25,8.25,0,0,1,46.25,33.75Z"/><path id="_Path_5" data-name="&lt;Path&gt;" class="cls-3" d="M38,27.86a8.26,8.26,0,0,1,8.16,7.07,9.23,9.23,0,0,0,.09-1.18,8.25,8.25,0,0,0-16.5,0,9.23,9.23,0,0,0,.09,1.18A8.26,8.26,0,0,1,38,27.86Z"/><path id="_Path_6" data-name="&lt;Path&gt;" class="cls-4" d="M46.25,33.75A8.25,8.25,0,1,1,38,25.5,8.25,8.25,0,0,1,46.25,33.75Z"/><path id="_Path_7" data-name="&lt;Path&gt;" class="cls-5" d="M43.3,33.7A5.3,5.3,0,1,1,38,28.4,5.3,5.3,0,0,1,43.3,33.7Z"/><path id="_Path_8" data-name="&lt;Path&gt;" class="cls-6" d="M38,30.75a5.31,5.31,0,0,1,5.16,4.13,5.08,5.08,0,0,0,.14-1.18,5.3,5.3,0,1,0-10.6,0,5.08,5.08,0,0,0,.14,1.18A5.31,5.31,0,0,1,38,30.75Z"/><path id="_Path_9" data-name="&lt;Path&gt;" class="cls-4" d="M43.3,33.7A5.3,5.3,0,1,1,38,28.4,5.3,5.3,0,0,1,43.3,33.7Z"/><line id="_Path_10" data-name="&lt;Path&gt;" class="cls-4" x1="32.7" y1="33.75" x2="43.3" y2="33.75"/><line id="_Path_11" data-name="&lt;Path&gt;" class="cls-4" x1="35.37" y1="38.3" x2="40.67" y2="29.12"/><line id="_Path_12" data-name="&lt;Path&gt;" class="cls-4" x1="40.63" y1="38.3" x2="35.33" y2="29.12"/><path id="_Path_13" data-name="&lt;Path&gt;" class="cls-5" d="M15.57,33.75a5.3,5.3,0,1,1-5.3-5.3A5.3,5.3,0,0,1,15.57,33.75Z"/><path id="_Path_14" data-name="&lt;Path&gt;" class="cls-6" d="M10.27,30.75a5.31,5.31,0,0,1,5.17,4.15,5.4,5.4,0,0,0,.13-1.15,5.3,5.3,0,0,0-10.6,0A5.4,5.4,0,0,0,5.1,34.9,5.31,5.31,0,0,1,10.27,30.75Z"/><path id="_Path_15" data-name="&lt;Path&gt;" class="cls-4" d="M15.57,33.75a5.3,5.3,0,1,1-5.3-5.3A5.3,5.3,0,0,1,15.57,33.75Z"/><line id="_Path_16" data-name="&lt;Path&gt;" class="cls-4" x1="4.97" y1="33.75" x2="15.57" y2="33.75"/><line id="_Path_17" data-name="&lt;Path&gt;" class="cls-4" x1="7.62" y1="38.34" x2="12.92" y2="29.16"/><line id="_Path_18" data-name="&lt;Path&gt;" class="cls-4" x1="12.92" y1="38.34" x2="7.62" y2="29.16"/><path id="_Compound_Path_" data-name="&lt;Compound Path&gt;" class="cls-7" d="M30.82,16.93v2.14H16.33c0-.29.06-.57.07-.86l.28-4.64a1.18,1.18,0,0,0-1.18-1.25H8.75a1.18,1.18,0,0,0,0,2.36h4.86a.6.6,0,0,1,.6.63l-.16,2.77A32,32,0,0,1,9.24,33.14a1.18,1.18,0,1,0,2,1.22,34.74,34.74,0,0,0,4.33-10.5.58.58,0,0,1,1-.24l8.45,10.85a1.22,1.22,0,0,0,.93.46H38a1.18,1.18,0,0,0,1.08-1.66L33.18,20V16.93Zm-1,5.33-4.1,9.21-7.07-9.09a.59.59,0,0,1,.47-.95H29.28A.59.59,0,0,1,29.82,22.26Zm-2,10.31L32,23.16l4.18,9.41Z"/><path id="_Path_19" data-name="&lt;Path&gt;" class="cls-8" d="M29,33.7a3,3,0,1,1-3-3A3,3,0,0,1,29,33.7Z"/><path id="_Path_20" data-name="&lt;Path&gt;" class="cls-5" d="M26,32.57a3,3,0,0,1,2.84,2.07A3.25,3.25,0,0,0,29,33.7a3,3,0,1,0-6,0,3.25,3.25,0,0,0,.16.94A3,3,0,0,1,26,32.57Z"/><circle id="_Path_21" data-name="&lt;Path&gt;" class="cls-4" cx="26" cy="33.7" r="3"/><path id="_Path_22" data-name="&lt;Path&gt;" class="cls-9" d="M26.69,16.93h9.44c2.14,0,2.26-4.13,0-4.13S30.72,14.13,28.46,14C24.31,13.71,25.29,16.93,26.69,16.93Z"/><g id="_Group_2" data-name="&lt;Group&gt;"><path id="_Path_23" data-name="&lt;Path&gt;" class="cls-10" d="M28.46,15.38c2.26.07,5.41-.63,7.67-.63a1.59,1.59,0,0,1,1.57.73c.28-1.19-.21-2.68-1.57-2.68-2.26,0-5.41,1.33-7.67,1.18-2.64-.17-3.2,1.06-2.91,2C25.79,15.61,26.61,15.31,28.46,15.38Z"/><path id="_Path_24" data-name="&lt;Path&gt;" class="cls-10" d="M36.13,16.93a1.6,1.6,0,0,0,.39-.05A2.3,2.3,0,0,1,36.13,16.93Z"/></g><path id="_Path_25" data-name="&lt;Path&gt;" class="cls-11" d="M26.69,16.93h9.44c2.14,0,2.26-4.13,0-4.13S30.72,14.13,28.46,14C24.31,13.71,25.29,16.93,26.69,16.93Z"/><path class="cls-9" d="M9.68,11.92H7.54A4.93,4.93,0,0,0,4.92,21l.83.52a1.55,1.55,0,1,0,1.62-2.65l-.91-.54a1.89,1.89,0,0,1,1-3.5H9.68a1.18,1.18,0,0,0,1.18-1.18V13.1A1.18,1.18,0,0,0,9.68,11.92Z"/><g id="_Group_3" data-name="&lt;Group&gt;"><path id="_Path_26" data-name="&lt;Path&gt;" class="cls-10" d="M9.68,11.92H7.54A4.94,4.94,0,0,0,2.6,16.86a5.24,5.24,0,0,0,.08.88,4.94,4.94,0,0,1,4.86-4H9.68a1.17,1.17,0,0,1,1,.59,1.16,1.16,0,0,0,.16-.59V13.1A1.18,1.18,0,0,0,9.68,11.92Z"/></g><path class="cls-4" d="M9.68,11.92H7.54A4.93,4.93,0,0,0,4.92,21l.83.52a1.55,1.55,0,1,0,1.62-2.65l-.91-.54a1.89,1.89,0,0,1,1-3.5H9.68a1.18,1.18,0,0,0,1.18-1.18V13.1A1.18,1.18,0,0,0,9.68,11.92Z"/></g></svg>