<svg id="Icons" xmlns="http://www.w3.org/2000/svg" viewBox="0 0 48 48"><defs><style>.cls-1{fill:#45413c;opacity:0.15;}.cls-2{fill:#8ca4b8;}.cls-3{fill:#fff;}.cls-3,.cls-6{stroke:#45413c;stroke-linecap:round;stroke-linejoin:round;}.cls-4{fill:#627b8c;}.cls-5{fill:#c0dceb;}.cls-6{fill:none;}</style></defs><title>620-anchor</title><g id="_Group_" data-name="&lt;Group&gt;"><ellipse id="_Ellipse_" data-name="&lt;Ellipse&gt;" class="cls-1" cx="24" cy="44.5" rx="11.5" ry="1.5"/><path id="_Compound_Path_" data-name="&lt;Compound Path&gt;" class="cls-2" d="M37.4,37.76,36.17,30.1a.46.46,0,0,0-.72-.29l-6.18,4.68a.43.43,0,0,0,.12.75l2.1.84a9.11,9.11,0,0,1-9.95,4.55L28,24.46,31.87,26a.68.68,0,0,0,.89-.36l.61-1.54a.66.66,0,0,0-.39-.87l-3.84-1.54L30,19.55a4.66,4.66,0,0,0,4.49-2.87,4.83,4.83,0,0,0-9-3.59,4.66,4.66,0,0,0,1.26,5.18l-.85,2.13L22.1,18.86a.68.68,0,0,0-.89.36l-.62,1.54a.67.67,0,0,0,.39.87l3.85,1.54L18.34,39.34a9.09,9.09,0,0,1-4.05-10.16l2.1.84a.43.43,0,0,0,.6-.45l-1.23-7.66a.46.46,0,0,0-.72-.29L8.86,26.3a.43.43,0,0,0,.12.75l1.78.72a12.91,12.91,0,0,0,7.76,15.75A12.9,12.9,0,0,0,35,37.5l1.79.71A.43.43,0,0,0,37.4,37.76ZM30.73,13.09a1.94,1.94,0,1,1-2.59,1.05A2,2,0,0,1,30.73,13.09Z"/><circle id="_Path_" data-name="&lt;Path&gt;" class="cls-3" cx="41.75" cy="29.23" r="1.75"/><circle id="_Path_2" data-name="&lt;Path&gt;" class="cls-3" cx="4.45" cy="10.44" r="2.25"/><circle id="_Path_3" data-name="&lt;Path&gt;" class="cls-3" cx="6.95" cy="19.94" r="1.75"/><circle id="_Path_4" data-name="&lt;Path&gt;" class="cls-3" cx="11.2" cy="4.69" r="1.75"/><circle id="_Path_5" data-name="&lt;Path&gt;" class="cls-3" cx="44" cy="19.98" r="2.25"/><g id="_Group_2" data-name="&lt;Group&gt;"><path id="_Path_6" data-name="&lt;Path&gt;" class="cls-4" d="M21.45,41.9a1,1,0,0,0,.73.49,10.16,10.16,0,0,0,10-4.72,1,1,0,0,0,.12-.85,1,1,0,0,0-.58-.64l-.23-.09a9.12,9.12,0,0,1-9.95,4.54l-.16.39A1,1,0,0,0,21.45,41.9Z"/><path id="_Path_7" data-name="&lt;Path&gt;" class="cls-4" d="M33,23.23l-3.84-1.54-.25.63a1,1,0,0,0,.55,1.29L33,25.06h0l.39-1A.68.68,0,0,0,33,23.23Z"/><path id="_Path_8" data-name="&lt;Path&gt;" class="cls-4" d="M29.39,35.24l1.24.5a.43.43,0,0,1-.05-.71l4.87-3.39a2,2,0,0,1,.9-.44l-.18-1.1a.46.46,0,0,0-.72-.29l-6.18,4.68A.43.43,0,0,0,29.39,35.24Z"/><path id="_Path_9" data-name="&lt;Path&gt;" class="cls-5" d="M9,27.05l.86.35L15,23.46a1.23,1.23,0,0,1,.91-.37l-.19-1.18a.46.46,0,0,0-.72-.29L8.86,26.31A.43.43,0,0,0,9,27.05Z"/><path class="cls-5" d="M18.59,39.5A9.25,9.25,0,0,1,14,31.3a9.07,9.07,0,0,0,3,9.17,1,1,0,0,0,.89.2A1,1,0,0,0,18.59,39.5Z"/><path class="cls-5" d="M16.73,30l-.27,0A.42.42,0,0,0,16.73,30Z"/><path id="_Path_10" data-name="&lt;Path&gt;" class="cls-5" d="M21,21.63l.23-.58a.68.68,0,0,1,.89-.36l2.3.89A1,1,0,0,0,25.69,21l.24-.62L22.1,18.86a.68.68,0,0,0-.89.36l-.62,1.54A.68.68,0,0,0,21,21.63Z"/><path id="_Path_11" data-name="&lt;Path&gt;" class="cls-5" d="M25.53,14.92a4.73,4.73,0,0,1,6.21-2.51,4.86,4.86,0,0,1,3,3.51,4.84,4.84,0,0,0-9.19-2.83,4.44,4.44,0,0,0-.24,2.51A7,7,0,0,1,25.53,14.92Z"/></g><path id="_Compound_Path_2" data-name="&lt;Compound Path&gt;" class="cls-6" d="M37.4,37.76,36.17,30.1a.46.46,0,0,0-.72-.29l-6.18,4.68a.43.43,0,0,0,.12.75l2.1.84a9.11,9.11,0,0,1-9.95,4.55L28,24.46,31.87,26a.68.68,0,0,0,.89-.36l.61-1.54a.66.66,0,0,0-.39-.87l-3.84-1.54L30,19.55a4.66,4.66,0,0,0,4.49-2.87,4.83,4.83,0,0,0-9-3.59,4.66,4.66,0,0,0,1.26,5.18l-.85,2.13L22.1,18.86a.68.68,0,0,0-.89.36l-.62,1.54a.67.67,0,0,0,.39.87l3.85,1.54L18.34,39.34a9.09,9.09,0,0,1-4.05-10.16l2.1.84a.43.43,0,0,0,.6-.45l-1.23-7.66a.46.46,0,0,0-.72-.29L8.86,26.3a.43.43,0,0,0,.12.75l1.78.72a12.91,12.91,0,0,0,7.76,15.75A12.9,12.9,0,0,0,35,37.5l1.79.71A.43.43,0,0,0,37.4,37.76ZM30.73,13.09a1.94,1.94,0,1,1-2.59,1.05A2,2,0,0,1,30.73,13.09Z"/></g></svg>