<svg id="Icons" xmlns="http://www.w3.org/2000/svg" viewBox="0 0 48 48"><defs><style>.cls-1{fill:#45413c;opacity:0.15;}.cls-2{fill:#fff;}.cls-3{fill:#f0f0f0;}.cls-4{fill:none;}.cls-11,.cls-12,.cls-4,.cls-8{stroke:#45413c;stroke-linecap:round;stroke-linejoin:round;}.cls-12,.cls-5{fill:#00b8f0;}.cls-6{fill:#009fd9;}.cls-7{fill:#e0e0e0;}.cls-8,.cls-9{fill:#ff6242;}.cls-10{fill:#e04122;}.cls-11{fill:#656769;}</style></defs><title>623-ship</title><ellipse id="_Ellipse_" data-name="&lt;Ellipse&gt;" class="cls-1" cx="24" cy="45.29" rx="21.12" ry="1.71"/><rect id="_Rectangle_" data-name="&lt;Rectangle&gt;" class="cls-2" x="4.02" y="4.02" width="39.97" height="39.97" rx="3.43" ry="3.43"/><path id="_Path_" data-name="&lt;Path&gt;" class="cls-3" d="M40.56,41.13H7.44A3.43,3.43,0,0,1,4,37.7v2.86A3.42,3.42,0,0,0,7.44,44H40.56A3.42,3.42,0,0,0,44,40.56V37.7A3.43,3.43,0,0,1,40.56,41.13Z"/><rect id="_Rectangle_2" data-name="&lt;Rectangle&gt;" class="cls-4" x="4.02" y="4.02" width="39.97" height="39.97" rx="3.43" ry="3.43"/><rect id="_Rectangle_3" data-name="&lt;Rectangle&gt;" class="cls-5" x="6.87" y="6.87" width="34.26" height="34.26" rx="1.14" ry="1.14"/><path id="_Path_2" data-name="&lt;Path&gt;" class="cls-6" d="M40,38.27H8a1.14,1.14,0,0,1-1.14-1.14V40A1.14,1.14,0,0,0,8,41.13H40A1.14,1.14,0,0,0,41.13,40V37.13A1.14,1.14,0,0,1,40,38.27Z"/><rect id="_Rectangle_4" data-name="&lt;Rectangle&gt;" class="cls-4" x="6.87" y="6.87" width="34.26" height="34.26" rx="1.14" ry="1.14"/><path id="_Path_3" data-name="&lt;Path&gt;" class="cls-2" d="M41.13,30.49H19.08l.68-5.79a.77.77,0,0,1,.76-.68H41.13Z"/><path id="_Path_4" data-name="&lt;Path&gt;" class="cls-7" d="M24.52,29l-2.44-2.44a.74.74,0,0,0-.54-.23h-2l-.17,1.52h1.11a.86.86,0,0,1,.57.23l2.56,2.44H41.13V29Z"/><path id="_Path_5" data-name="&lt;Path&gt;" class="cls-4" d="M41.13,30.49H19.08l.68-5.79a.77.77,0,0,1,.76-.68H41.13Z"/><path id="_Path_6" data-name="&lt;Path&gt;" class="cls-2" d="M41.13,24H21.36l.3-2.37a.76.76,0,0,1,.75-.67H41.13Z"/><polygon id="_Path_7" data-name="&lt;Path&gt;" class="cls-7" points="21.36 24.02 41.13 24.02 41.13 22.73 21.53 22.73 21.36 24.02"/><path id="_Path_8" data-name="&lt;Path&gt;" class="cls-4" d="M41.13,24H21.36l.3-2.37a.76.76,0,0,1,.75-.67H41.13Z"/><path class="cls-2" d="M22.76,32.76,20.2,30.33a.77.77,0,0,0-.56-.23H11.15A13.4,13.4,0,0,0,13.27,36a11.86,11.86,0,0,0,9.79,5.16H40A1.16,1.16,0,0,0,41.13,40V32.76Z"/><path class="cls-7" d="M40,37.65H23.06a11.86,11.86,0,0,1-9.79-5.16A10.89,10.89,0,0,1,12,30.1h-.86A13.4,13.4,0,0,0,13.27,36a11.86,11.86,0,0,0,9.79,5.16H40A1.16,1.16,0,0,0,41.13,40V36.5A1.15,1.15,0,0,1,40,37.65Z"/><path class="cls-4" d="M22.76,32.76,20.2,30.33a.77.77,0,0,0-.56-.23H11.15A13.4,13.4,0,0,0,13.27,36a11.86,11.86,0,0,0,9.79,5.16H40A1.16,1.16,0,0,0,41.13,40V32.76Z"/><path id="_Path_9" data-name="&lt;Path&gt;" class="cls-8" d="M23.64,30.49l-2.43-2.44a.92.92,0,0,0-.54-.23h-9a.77.77,0,0,0-.75.91l.26,1.37h8.49a.77.77,0,0,1,.56.23l2.56,2.43H41.13V30.49Z"/><rect id="_Rectangle_5" data-name="&lt;Rectangle&gt;" class="cls-9" x="30.27" y="16.04" width="7.66" height="4.94"/><rect id="_Rectangle_6" data-name="&lt;Rectangle&gt;" class="cls-10" x="30.27" y="18.94" width="7.66" height="1.92"/><rect id="_Rectangle_7" data-name="&lt;Rectangle&gt;" class="cls-4" x="30.27" y="16.04" width="7.66" height="4.94"/><path id="_Rectangle_8" data-name="&lt;Rectangle&gt;" class="cls-11" d="M31.09,13h6a.83.83,0,0,1,.83.83V16a0,0,0,0,1,0,0H30.27a0,0,0,0,1,0,0V13.83a.83.83,0,0,1,.83-.83Z"/><rect id="_Rectangle_9" data-name="&lt;Rectangle&gt;" class="cls-12" x="25.92" y="26.3" width="2.28" height="2.28"/><rect id="_Rectangle_10" data-name="&lt;Rectangle&gt;" class="cls-12" x="31.25" y="26.3" width="2.28" height="2.28"/><rect id="_Rectangle_11" data-name="&lt;Rectangle&gt;" class="cls-12" x="36.49" y="26.3" width="2.28" height="2.28"/><path class="cls-9" d="M13.27,36a11.86,11.86,0,0,0,9.79,5.16H40A1.16,1.16,0,0,0,41.13,40V36Z"/><path class="cls-10" d="M40,37.65H23.06A12,12,0,0,1,17,36H13.27a11.86,11.86,0,0,0,9.79,5.16H40A1.16,1.16,0,0,0,41.13,40V36.5A1.15,1.15,0,0,1,40,37.65Z"/><path class="cls-4" d="M13.27,36a11.86,11.86,0,0,0,9.79,5.16H40A1.16,1.16,0,0,0,41.13,40V36Z"/></svg>