<svg id="Icons" xmlns="http://www.w3.org/2000/svg" viewBox="0 0 48 48"><defs><style>.cls-1{fill:#45413c;opacity:0.15;}.cls-2,.cls-9{fill:#4acfff;}.cls-3{fill:#80ddff;}.cls-4{fill:#00b8f0;}.cls-5{fill:none;}.cls-5,.cls-6,.cls-9{stroke:#45413c;stroke-linecap:round;stroke-linejoin:round;}.cls-6{fill:#c0dceb;}.cls-7{fill:#fff;}.cls-8{fill:#e8f4fa;}</style></defs><title>624-airplane</title><ellipse id="_Ellipse_" data-name="&lt;Ellipse&gt;" class="cls-1" cx="24" cy="44.5" rx="14.5" ry="1.5"/><path id="_Path_" data-name="&lt;Path&gt;" class="cls-2" d="M17.79,44.89,2.47,29.58a.69.69,0,0,1,.17-1.18L3.58,28A1.33,1.33,0,0,1,4.37,28L12,29.57l5.82,5.82L19.41,43a1.45,1.45,0,0,1-.07.8l-.38.93A.68.68,0,0,1,17.79,44.89Z"/><path id="_Path_2" data-name="&lt;Path&gt;" class="cls-3" d="M14.64,34.74l1.15-1.35L12,29.57,4.37,28a1.33,1.33,0,0,0-.79.07l-.94.37a.69.69,0,0,0-.17,1.18l1,1,.12,0a1.33,1.33,0,0,1,.79-.07L12,32.07Z"/><path id="_Path_3" data-name="&lt;Path&gt;" class="cls-4" d="M17.79,35.39l-.51-.51-6.22,3.3,3.2,3.19a4.94,4.94,0,0,0,1.45-.21,8.9,8.9,0,0,0,3-1.65Z"/><path id="_Path_4" data-name="&lt;Path&gt;" class="cls-5" d="M17.79,44.89,2.47,29.58a.69.69,0,0,1,.17-1.18L3.58,28A1.33,1.33,0,0,1,4.37,28L12,29.57l5.82,5.82L19.41,43a1.45,1.45,0,0,1-.07.8l-.38.93A.68.68,0,0,1,17.79,44.89Z"/><path id="_Rectangle_" data-name="&lt;Rectangle&gt;" class="cls-6" d="M36.71,26.49h2.8a1.4,1.4,0,0,1,1.4,1.4V35.6a0,0,0,0,1,0,0h-5.6a0,0,0,0,1,0,0V27.89A1.4,1.4,0,0,1,36.71,26.49Z" transform="translate(33.12 -17.86) rotate(45)"/><path id="_Rectangle_2" data-name="&lt;Rectangle&gt;" class="cls-6" d="M14.92,4.7h2.8a1.4,1.4,0,0,1,1.4,1.4V13.8a0,0,0,0,1,0,0h-5.6a0,0,0,0,1,0,0V6.1a1.4,1.4,0,0,1,1.4-1.4Z" transform="translate(11.32 -8.83) rotate(45)"/><path id="_Path_5" data-name="&lt;Path&gt;" class="cls-2" d="M37.85,40.79l-9.4-12-9.9-9.91-12-9.4a1.4,1.4,0,0,1,.34-2.4l1.91-.76a2.73,2.73,0,0,1,1.62-.14L26,9.51,37.87,21.4l3.29,15.51A2.89,2.89,0,0,1,41,38.53l-.77,1.91A1.4,1.4,0,0,1,37.85,40.79Z"/><polygon id="_Path_6" data-name="&lt;Path&gt;" class="cls-4" points="36.97 20.5 37.87 21.39 39 26.72 31.28 32.41 28.46 28.82 27.72 28.09 36.97 20.5"/><path id="_Path_7" data-name="&lt;Path&gt;" class="cls-3" d="M26.61,10.13l-1.84,2.21-14.3-3a2.75,2.75,0,0,0-1.63.14l-1.55.62-.7-.55a1.4,1.4,0,0,1,.34-2.4l1.91-.77a2.92,2.92,0,0,1,1.63-.14L26,9.5Z"/><path id="_Path_8" data-name="&lt;Path&gt;" class="cls-5" d="M37.85,40.79l-9.4-12-9.9-9.91-12-9.4a1.4,1.4,0,0,1,.34-2.4l1.91-.76a2.73,2.73,0,0,1,1.62-.14L26,9.51,37.87,21.4l3.29,15.51A2.89,2.89,0,0,1,41,38.53l-.77,1.91A1.4,1.4,0,0,1,37.85,40.79Z"/><path id="_Path_9" data-name="&lt;Path&gt;" class="cls-7" d="M9,35,27.14,13.18a8.85,8.85,0,0,1,1.51-1.43C33.09,7.91,39.79,5.2,42.82,8.23a4.35,4.35,0,0,1,1.09,1.91c.46-2.24.23-4.28-1.09-5.6-3-3-9.73-.31-14.17,3.53a8.41,8.41,0,0,0-1.51,1.42L9,31.34a5.29,5.29,0,0,0-.94,5.29A5.65,5.65,0,0,1,9,35Z"/><path class="cls-8" d="M39.3,18.72c3.84-4.44,6.56-11.14,3.52-14.18s-9.73-.31-14.17,3.53a8.41,8.41,0,0,0-1.51,1.42L9,31.34a5.11,5.11,0,0,0,.11,6.89,5.12,5.12,0,0,0,6.89.12L37.88,20.22A8.73,8.73,0,0,0,39.3,18.72Z"/><path class="cls-5" d="M39.3,18.72c3.84-4.44,6.56-11.14,3.52-14.18s-9.73-.31-14.17,3.53a8.41,8.41,0,0,0-1.51,1.42L9,31.34a5.11,5.11,0,0,0,.11,6.89,5.12,5.12,0,0,0,6.89.12L37.88,20.22A8.73,8.73,0,0,0,39.3,18.72Z"/><path class="cls-4" d="M38.83,8.53a7.42,7.42,0,0,0-6.42-2l-.34,3a.7.7,0,0,0,.81.78c1-.17,2.63-.16,3.47.68s.86,2.51.68,3.48a.7.7,0,0,0,.78.81l3-.34A7.47,7.47,0,0,0,38.83,8.53Z"/><path class="cls-2" d="M32.41,6.51l-.34,3a.7.7,0,0,0,.81.78,6.48,6.48,0,0,1,1.73-.05l4.12-1.85A7.45,7.45,0,0,0,32.41,6.51Z"/><path class="cls-5" d="M38.83,8.53a7.42,7.42,0,0,0-6.42-2l-.34,3a.7.7,0,0,0,.81.78c1-.17,2.63-.16,3.47.68s.86,2.51.68,3.48a.7.7,0,0,0,.78.81l3-.34A7.47,7.47,0,0,0,38.83,8.53Z"/><path class="cls-5" d="M39.3,18.72a7.86,7.86,0,0,0-.47-10.19,7.83,7.83,0,0,0-10.18-.46"/><path id="_Path_10" data-name="&lt;Path&gt;" class="cls-9" d="M9.13,38.23a1.41,1.41,0,0,1,0-2l5.45-5.45a1.4,1.4,0,1,1,2,2l-5.45,5.45A1.41,1.41,0,0,1,9.13,38.23Z"/></svg>