<svg id="Icons" xmlns="http://www.w3.org/2000/svg" viewBox="0 0 48 48"><defs><style>.cls-1{fill:#45413c;opacity:0.15;}.cls-2{fill:#ff6242;}.cls-3,.cls-5{fill:#ff866e;}.cls-4{fill:none;}.cls-4,.cls-5,.cls-6,.cls-9{stroke:#45413c;stroke-linecap:round;stroke-linejoin:round;}.cls-6{fill:#daedf7;}.cls-7{fill:#00b8f0;}.cls-8{fill:#4acfff;}.cls-9{fill:#fff;}</style></defs><title>625-helicopter</title><g id="_Group_" data-name="&lt;Group&gt;"><ellipse id="_Ellipse_" data-name="&lt;Ellipse&gt;" class="cls-1" cx="19.78" cy="44.21" rx="15.49" ry="1.79"/><polygon id="_Path_" data-name="&lt;Path&gt;" class="cls-2" points="41.19 19.66 15.89 23.46 15.89 15 41.19 16.16 41.19 19.66"/><polygon id="_Path_2" data-name="&lt;Path&gt;" class="cls-3" points="15.89 15 15.89 17.14 41.19 18.3 41.19 16.16 15.89 15"/><polygon id="_Path_3" data-name="&lt;Path&gt;" class="cls-4" points="41.19 19.66 15.89 23.46 15.89 15 41.19 16.16 41.19 19.66"/><path id="_Rectangle_" data-name="&lt;Rectangle&gt;" class="cls-5" d="M17.08,12.67H24.4a1.19,1.19,0,0,1,1.19,1.19v4.2a0,0,0,0,1,0,0h-9.7a0,0,0,0,1,0,0v-4.2A1.19,1.19,0,0,1,17.08,12.67Z"/><path id="_Path_4" data-name="&lt;Path&gt;" class="cls-2" d="M31.57,23.77c0,7.45-7.51,14.32-14.32,14.32A11.16,11.16,0,0,1,5.72,26.74c0-6.27,5.53-11.35,12.34-11.35C26,15.39,31.57,18.53,31.57,23.77Z"/><path id="_Path_5" data-name="&lt;Path&gt;" class="cls-3" d="M18.06,18.07c7.3,0,12.62,2.67,13.41,7.19a12.29,12.29,0,0,0,.1-1.49c0-5.24-5.59-8.38-13.51-8.38-6.81,0-12.34,5.08-12.34,11.35a12.81,12.81,0,0,0,.08,1.39C6.5,22.47,11.72,18.07,18.06,18.07Z"/><path id="_Path_6" data-name="&lt;Path&gt;" class="cls-4" d="M31.57,23.77c0,7.45-7.51,14.32-14.32,14.32A11.16,11.16,0,0,1,5.72,26.74c0-6.27,5.53-11.35,12.34-11.35C26,15.39,31.57,18.53,31.57,23.77Z"/><path id="_Path_7" data-name="&lt;Path&gt;" class="cls-6" d="M46,18.07a4.81,4.81,0,1,1-4.81-4.82A4.81,4.81,0,0,1,46,18.07Z"/><rect id="_Rectangle_2" data-name="&lt;Rectangle&gt;" class="cls-6" x="19.46" y="9.57" width="2.25" height="3.1"/><line id="_Path_8" data-name="&lt;Path&gt;" class="cls-4" x1="2.7" y1="9.57" x2="38.47" y2="9.57"/><path id="_Rectangle_3" data-name="&lt;Rectangle&gt;" class="cls-6" d="M19.38,7.86h2.41a.93.93,0,0,1,.93.93v.78a0,0,0,0,1,0,0H18.45a0,0,0,0,1,0,0V8.79A.93.93,0,0,1,19.38,7.86Z"/><line id="_Path_9" data-name="&lt;Path&gt;" class="cls-4" x1="12.22" y1="37.04" x2="8.52" y2="43.5"/><line id="_Path_10" data-name="&lt;Path&gt;" class="cls-4" x1="24.03" y1="36" x2="25.59" y2="43.5"/><path id="_Path_11" data-name="&lt;Path&gt;" class="cls-4" d="M31.16,43.5H5.32C2.06,43.5,2,41.17,2,41.17"/><path id="_Path_12" data-name="&lt;Path&gt;" class="cls-7" d="M15.8,15.58c-5.74,1-10.08,5.6-10.08,11.16a11.9,11.9,0,0,0,.51,3.45H18.45a19.73,19.73,0,0,0,.2-7.14C18.1,20.3,17.16,16,15.8,15.58Z"/><path id="_Path_13" data-name="&lt;Path&gt;" class="cls-8" d="M14.32,30.19l4.16-8C17.91,19.52,17,16,15.8,15.58c-.31.05-.61.12-.91.19L7.28,30.19Z"/><path id="_Path_14" data-name="&lt;Path&gt;" class="cls-4" d="M15.8,15.58c-5.74,1-10.08,5.6-10.08,11.16a11.9,11.9,0,0,0,.51,3.45H18.45a19.73,19.73,0,0,0,.2-7.14C18.1,20.3,17.16,16,15.8,15.58Z"/><path id="_Path_15" data-name="&lt;Path&gt;" class="cls-7" d="M20.43,18.72a18.49,18.49,0,0,1,1.28,5.44,26.61,26.61,0,0,1-.38,6h3.48s1.21-1.64.78-5.73A6.36,6.36,0,0,0,20.43,18.72Z"/><path id="_Path_16" data-name="&lt;Path&gt;" class="cls-8" d="M25.59,24.46a6.69,6.69,0,0,0-1.09-3.12l-2.83,6.18a25.59,25.59,0,0,1-.34,2.67h3.48S26,28.55,25.59,24.46Z"/><path id="_Path_17" data-name="&lt;Path&gt;" class="cls-4" d="M20.43,18.72a18.49,18.49,0,0,1,1.28,5.44,26.61,26.61,0,0,1-.38,6h3.48s1.21-1.64.78-5.73A6.36,6.36,0,0,0,20.43,18.72Z"/><g id="_Group_2" data-name="&lt;Group&gt;"><path id="_Path_18" data-name="&lt;Path&gt;" class="cls-9" d="M37.79,21.47l3.4-3.4-3.4-3.41A4.82,4.82,0,0,0,37.79,21.47Z"/><path id="_Path_19" data-name="&lt;Path&gt;" class="cls-9" d="M44.59,14.66l-3.4,3.41,3.4,3.4A4.82,4.82,0,0,0,44.59,14.66Z"/></g></g></svg>