<svg id="Icons" xmlns="http://www.w3.org/2000/svg" viewBox="0 0 48 48"><defs><style>.cls-1{fill:#45413c;opacity:0.15;}.cls-2{fill:#4acfff;}.cls-2,.cls-5{stroke:#45413c;stroke-linecap:round;stroke-linejoin:round;}.cls-3{fill:#c0dceb;}.cls-4{fill:#daedf7;}.cls-5{fill:none;}.cls-6{fill:#e8f4fa;}.cls-7{fill:#fff;}.cls-8{fill:#adc4d9;}</style></defs><title>629-shower</title><ellipse id="_Ellipse_" data-name="&lt;Ellipse&gt;" class="cls-1" cx="34.21" cy="45.5" rx="11.5" ry="1.5"/><path id="_Path_" data-name="&lt;Path&gt;" class="cls-2" d="M17.77,23.69,14.2,25.26a1.5,1.5,0,0,0-.88,1.32h0a1.47,1.47,0,0,0,1.44,1.51h0a1.48,1.48,0,0,0,1.36-.81l1.75-3.49A.08.08,0,0,0,17.77,23.69Z"/><path id="_Path_2" data-name="&lt;Path&gt;" class="cls-2" d="M10.22,30.9,7,33.09a1.46,1.46,0,0,0-.63,1.45h0a1.47,1.47,0,0,0,1.69,1.23h0a1.48,1.48,0,0,0,1.19-1L10.33,31A.07.07,0,0,0,10.22,30.9Z"/><path id="_Path_3" data-name="&lt;Path&gt;" class="cls-2" d="M14.82,18.63,11,19.39a1.49,1.49,0,0,0-1.14,1.1h0a1.48,1.48,0,0,0,1.08,1.79h0a1.5,1.5,0,0,0,1.5-.5l2.47-3A.08.08,0,0,0,14.82,18.63Z"/><path id="_Path_4" data-name="&lt;Path&gt;" class="cls-2" d="M6.24,24.36,2.62,25.84a1.46,1.46,0,0,0-.91,1.29h0a1.48,1.48,0,0,0,1.4,1.55h0a1.47,1.47,0,0,0,1.38-.78l1.84-3.44A.07.07,0,0,0,6.24,24.36Z"/><path id="_Path_5" data-name="&lt;Path&gt;" class="cls-2" d="M22.34,27.7l-3.29,2.1a1.48,1.48,0,0,0-.68,1.43h0A1.48,1.48,0,0,0,20,32.51h0a1.45,1.45,0,0,0,1.21-1l1.21-3.71A.08.08,0,0,0,22.34,27.7Z"/><path id="_Path_6" data-name="&lt;Path&gt;" class="cls-2" d="M16.47,36.52l-2.8,2.73a1.45,1.45,0,0,0-.36,1.53h0a1.46,1.46,0,0,0,1.87.92h0a1.46,1.46,0,0,0,1-1.23l.43-3.89A.08.08,0,0,0,16.47,36.52Z"/><path id="_Path_7" data-name="&lt;Path&gt;" class="cls-2" d="M27.62,29.91l-2.82,2.7a1.5,1.5,0,0,0-.38,1.54h0a1.48,1.48,0,0,0,1.87.93h0a1.47,1.47,0,0,0,1-1.23L27.74,30A.07.07,0,0,0,27.62,29.91Z"/><path id="_Path_8" data-name="&lt;Path&gt;" class="cls-2" d="M23.67,40l-2.39,3.09a1.47,1.47,0,0,0-.14,1.57h0a1.47,1.47,0,0,0,2,.65h0A1.48,1.48,0,0,0,23.93,44l-.12-3.91A.08.08,0,0,0,23.67,40Z"/><path class="cls-3" d="M36.31,14.46a4.34,4.34,0,0,1,1.25-3.12.72.72,0,0,0,0-1L35,7.73a.72.72,0,0,0-1,0A4.28,4.28,0,0,1,30.83,9L20,8.76,36.53,25.3Z"/><path class="cls-4" d="M35.24,9A1,1,0,0,1,36,8.7l-1-1a.72.72,0,0,0-1,0A4.28,4.28,0,0,1,30.83,9L20,8.76l2.84,2.84,8.91-.86A5.76,5.76,0,0,0,35.24,9Z"/><path class="cls-5" d="M36.31,14.46a4.34,4.34,0,0,1,1.25-3.12.72.72,0,0,0,0-1L35,7.73a.72.72,0,0,0-1,0A4.28,4.28,0,0,1,30.83,9L20,8.76,36.53,25.3Z"/><rect id="_Rectangle_" data-name="&lt;Rectangle&gt;" class="cls-6" x="14.81" y="16.6" width="24.85" height="2.92" rx="0.37" ry="0.37" transform="translate(20.75 -13.96) rotate(45)"/><path id="_Path_9" data-name="&lt;Path&gt;" class="cls-7" d="M24.35,13.11,19.74,8.5a.37.37,0,0,0-.52,0l-1.55,1.55a.37.37,0,0,0,0,.52l4.61,4.61Z"/><rect id="_Rectangle_2" data-name="&lt;Rectangle&gt;" class="cls-5" x="14.81" y="16.6" width="24.85" height="2.92" rx="0.37" ry="0.37" transform="translate(20.75 -13.96) rotate(45)"/><path id="_Rectangle_3" data-name="&lt;Rectangle&gt;" class="cls-8" d="M14.22,18.83H36.88a0,0,0,0,1,0,0v1.1a.73.73,0,0,1-.73.73H15a.73.73,0,0,1-.73-.73v-1.1A0,0,0,0,1,14.22,18.83Z" transform="translate(21.44 -12.28) rotate(45)"/><path class="cls-3" d="M20.15,13.05l-2-2-.78.77a.74.74,0,0,0,0,1l1.45,1.45Z"/><path id="_Rectangle_4" data-name="&lt;Rectangle&gt;" class="cls-5" d="M14.22,18.83H36.88a0,0,0,0,1,0,0v1.1a.73.73,0,0,1-.73.73H15a.73.73,0,0,1-.73-.73v-1.1A0,0,0,0,1,14.22,18.83Z" transform="translate(21.44 -12.28) rotate(45)"/><path id="_Path_10" data-name="&lt;Path&gt;" class="cls-6" d="M46.57,5.68a.93.93,0,0,0,.93-.93V3.36a.93.93,0,0,0-.93-.93H43.51a7.09,7.09,0,0,0-5,2.08L35.12,7.87l2.3,2.3L40.7,6.9a4.14,4.14,0,0,1,2.93-1.22Z"/><path id="_Path_11" data-name="&lt;Path&gt;" class="cls-7" d="M38.48,6.08a7.13,7.13,0,0,1,5-2.08h3.06a.91.91,0,0,1,.91.84.29.29,0,0,0,0-.09V3.36a.93.93,0,0,0-.93-.93H43.51a7.09,7.09,0,0,0-5,2.08L35.12,7.87l.79.78Z"/><path id="_Path_12" data-name="&lt;Path&gt;" class="cls-5" d="M46.57,5.68a.93.93,0,0,0,.93-.93V3.36a.93.93,0,0,0-.93-.93H43.51a7.09,7.09,0,0,0-5,2.08L35.12,7.87l2.3,2.3L40.7,6.9a4.14,4.14,0,0,1,2.93-1.22Z"/></svg>