<svg id="Icons" xmlns="http://www.w3.org/2000/svg" viewBox="0 0 48 48"><defs><style>.cls-1{fill:#45413c;opacity:0.15;}.cls-2{fill:#debb7e;}.cls-3{fill:#f0d5a8;}.cls-4{fill:none;stroke:#45413c;stroke-linecap:round;stroke-linejoin:round;}.cls-5{fill:#80ddff;}.cls-6{fill:#b8ecff;}.cls-7{fill:#f7e5c6;}.cls-8{fill:#fff5e3;}</style></defs><title>632-hourglass-not-done-1</title><g id="_Group_" data-name="&lt;Group&gt;"><ellipse id="_Ellipse_" data-name="&lt;Ellipse&gt;" class="cls-1" cx="24" cy="45.19" rx="15.09" ry="1.81"/><rect id="_Rectangle_" data-name="&lt;Rectangle&gt;" class="cls-2" x="11.32" y="2.25" width="25.35" height="6.04" rx="1.21" ry="1.21"/><path id="_Path_" data-name="&lt;Path&gt;" class="cls-3" d="M35.47,2.25H12.53a1.21,1.21,0,0,0-1.21,1.2V6a1.21,1.21,0,0,1,1.21-1.21H35.47A1.21,1.21,0,0,1,36.68,6V3.45A1.21,1.21,0,0,0,35.47,2.25Z"/><rect id="_Rectangle_2" data-name="&lt;Rectangle&gt;" class="cls-4" x="11.32" y="2.25" width="25.35" height="6.04" rx="1.21" ry="1.21"/><rect id="_Rectangle_3" data-name="&lt;Rectangle&gt;" class="cls-2" x="11.32" y="38.46" width="25.35" height="6.04" rx="1.21" ry="1.21"/><path id="_Path_2" data-name="&lt;Path&gt;" class="cls-3" d="M35.47,38.46H12.53a1.21,1.21,0,0,0-1.21,1.21v2.57A1.21,1.21,0,0,1,12.53,41H35.47a1.21,1.21,0,0,1,1.21,1.21V39.67A1.21,1.21,0,0,0,35.47,38.46Z"/><rect id="_Rectangle_4" data-name="&lt;Rectangle&gt;" class="cls-4" x="11.32" y="38.46" width="25.35" height="6.04" rx="1.21" ry="1.21"/><path id="_Path_3" data-name="&lt;Path&gt;" class="cls-5" d="M34.86,8.28H13.14L13.49,14a7.26,7.26,0,0,0,3.68,5.86l1.84,1a2.83,2.83,0,0,1,0,4.93l-1.84,1a7.26,7.26,0,0,0-3.68,5.86l-.35,5.72H34.86l-.35-5.72a7.26,7.26,0,0,0-3.68-5.86l-1.84-1a2.83,2.83,0,0,1,0-4.93l1.84-1A7.26,7.26,0,0,0,34.51,14Z"/><path id="_Path_4" data-name="&lt;Path&gt;" class="cls-6" d="M29,25.84a2.83,2.83,0,0,1,0-4.93l1.84-1a7.51,7.51,0,0,0,1.05-.72l2.9-9.57.08-1.3h-9L16.67,38.46H26l3.71-12.2Z"/><path id="_Path_5" data-name="&lt;Path&gt;" class="cls-4" d="M34.86,8.28H13.14L13.49,14a7.26,7.26,0,0,0,3.68,5.86l1.84,1a2.83,2.83,0,0,1,0,4.93l-1.84,1a7.26,7.26,0,0,0-3.68,5.86l-.35,5.72H34.86l-.35-5.72a7.26,7.26,0,0,0-3.68-5.86l-1.84-1a2.83,2.83,0,0,1,0-4.93l1.84-1A7.26,7.26,0,0,0,34.51,14Z"/><line id="_Path_6" data-name="&lt;Path&gt;" class="cls-4" x1="24" y1="22.32" x2="24" y2="38.46"/><path class="cls-7" d="M13.49,14a7.26,7.26,0,0,0,3.68,5.86l2.2,1.24a9.46,9.46,0,0,0,9.26,0l2.2-1.24A7.26,7.26,0,0,0,34.51,14Z"/><path id="_Path_7" data-name="&lt;Path&gt;" class="cls-8" d="M24.08,14l-2.43,8a9.23,9.23,0,0,0,2.35.3,9.49,9.49,0,0,0,4.63-1.21l2.2-1.24a7.51,7.51,0,0,0,1.05-.72L33.44,14Z"/><path class="cls-4" d="M13.49,14a7.26,7.26,0,0,0,3.68,5.86l2.2,1.24a9.46,9.46,0,0,0,9.26,0l2.2-1.24A7.26,7.26,0,0,0,34.51,14Z"/></g></svg>