<svg id="Icons" xmlns="http://www.w3.org/2000/svg" viewBox="0 0 48 48"><defs><style>.cls-1{fill:#45413c;opacity:0.15;}.cls-2{fill:#656769;}.cls-3{fill:#87898c;}.cls-4{fill:none;stroke:#45413c;stroke-linecap:round;stroke-linejoin:round;}.cls-5{fill:#525252;}</style></defs><title>635-new-moon</title><g id="_Group_" data-name="&lt;Group&gt;"><ellipse id="_Ellipse_" data-name="&lt;Ellipse&gt;" class="cls-1" cx="24" cy="45.29" rx="13.1" ry="1.71"/><circle id="_Path_" data-name="&lt;Path&gt;" class="cls-2" cx="24" cy="24" r="19.37"/><path id="_Path_2" data-name="&lt;Path&gt;" class="cls-3" d="M24,9.19A19.36,19.36,0,0,1,43.22,26.28,19.12,19.12,0,0,0,43.37,24,19.37,19.37,0,0,0,4.63,24a19.12,19.12,0,0,0,.15,2.28A19.36,19.36,0,0,1,24,9.19Z"/><circle id="_Path_3" data-name="&lt;Path&gt;" class="cls-4" cx="24" cy="24" r="19.37"/><path id="_Path_4" data-name="&lt;Path&gt;" class="cls-3" d="M38.33,18.57c-1.27.93-3.36.24-4.65-1.54s-1.33-4-.06-4.9,3.36-.24,4.66,1.54S39.6,17.64,38.33,18.57Z"/><path id="_Path_5" data-name="&lt;Path&gt;" class="cls-5" d="M33.62,14.51c1.27-.93,3.36-.24,4.66,1.54a5.48,5.48,0,0,1,.78,1.57,4.28,4.28,0,0,0-.78-3.92c-1.3-1.78-3.39-2.47-4.66-1.54a3,3,0,0,0-.73,3.33A2.3,2.3,0,0,1,33.62,14.51Z"/><path id="_Path_6" data-name="&lt;Path&gt;" class="cls-4" d="M38.33,18.6c-1.27.93-3.36.24-4.65-1.54s-1.33-4-.06-4.9,3.36-.24,4.66,1.54S39.6,17.68,38.33,18.6Z"/><path id="_Path_7" data-name="&lt;Path&gt;" class="cls-3" d="M9,20.79c.89.33,2-.47,2.51-1.79s.2-2.67-.68-3-2,.46-2.51,1.78S8.07,20.45,9,20.79Z"/><path id="_Path_8" data-name="&lt;Path&gt;" class="cls-5" d="M8.27,19.49c.51-1.33,1.63-2.13,2.51-1.79a1.42,1.42,0,0,1,.8.93c.32-1.19,0-2.33-.8-2.63s-2,.46-2.51,1.78a3.21,3.21,0,0,0-.11,2.08A2.26,2.26,0,0,1,8.27,19.49Z"/><path id="_Path_9" data-name="&lt;Path&gt;" class="cls-4" d="M9,20.79c.89.33,2-.47,2.51-1.79s.2-2.67-.68-3-2,.46-2.51,1.78S8.07,20.45,9,20.79Z"/><path id="_Path_10" data-name="&lt;Path&gt;" class="cls-3" d="M23.87,39c-.36,1.37-2.37,2-4.51,1.48S15.8,38.32,16.15,37s2.38-2,4.51-1.47S24.23,37.59,23.87,39Z"/><path id="_Path_11" data-name="&lt;Path&gt;" class="cls-5" d="M20.66,37.12a4.57,4.57,0,0,1,3.05,2.21,1.53,1.53,0,0,0,.16-.37c.36-1.37-1.08-2.93-3.21-3.48s-4.15.1-4.51,1.47a1.89,1.89,0,0,0,.16,1.27C16.91,37.11,18.73,36.61,20.66,37.12Z"/><path id="_Path_12" data-name="&lt;Path&gt;" class="cls-4" d="M23.87,39c-.36,1.37-2.37,2-4.51,1.48S15.8,38.32,16.15,37s2.38-2,4.51-1.47S24.23,37.59,23.87,39Z"/><circle id="_Path_13" data-name="&lt;Path&gt;" class="cls-3" cx="37.96" cy="27.13" r="1.99"/><path id="_Path_14" data-name="&lt;Path&gt;" class="cls-5" d="M38,26.63a2,2,0,0,1,1.84,1.25,1.86,1.86,0,0,0,.15-.75,2,2,0,0,0-4,0,2,2,0,0,0,.15.75A2,2,0,0,1,38,26.63Z"/><circle id="_Path_15" data-name="&lt;Path&gt;" class="cls-4" cx="37.96" cy="27.13" r="1.99"/><circle id="_Path_16" data-name="&lt;Path&gt;" class="cls-3" cx="15.74" cy="25.42" r="1.99"/><path id="_Path_17" data-name="&lt;Path&gt;" class="cls-5" d="M15.74,24.85a2,2,0,0,1,1.86,1.29,2.14,2.14,0,0,0,.13-.72,2,2,0,1,0-4,0,2.14,2.14,0,0,0,.13.72A2,2,0,0,1,15.74,24.85Z"/><circle id="_Path_18" data-name="&lt;Path&gt;" class="cls-4" cx="15.74" cy="25.42" r="1.99"/><circle id="_Path_19" data-name="&lt;Path&gt;" class="cls-3" cx="18.87" cy="14.32" r="3.42"/><path id="_Path_20" data-name="&lt;Path&gt;" class="cls-5" d="M18.87,13a3.4,3.4,0,0,1,3.23,2.35,3.11,3.11,0,0,0,.19-1.06,3.42,3.42,0,1,0-6.84,0,3.37,3.37,0,0,0,.19,1.06A3.41,3.41,0,0,1,18.87,13Z"/><circle id="_Path_21" data-name="&lt;Path&gt;" class="cls-4" cx="18.91" cy="14.32" r="3.42"/><circle id="_Path_22" data-name="&lt;Path&gt;" class="cls-3" cx="27.42" cy="30.27" r="2.85"/><path id="_Path_23" data-name="&lt;Path&gt;" class="cls-5" d="M27.42,29.13a2.83,2.83,0,0,1,2.7,2,2.66,2.66,0,0,0,.15-.85,2.85,2.85,0,1,0-5.7,0,3,3,0,0,0,.14.85A2.86,2.86,0,0,1,27.42,29.13Z"/><circle id="_Path_24" data-name="&lt;Path&gt;" class="cls-4" cx="27.42" cy="30.27" r="2.85"/></g></svg>