<svg id="Icons" xmlns="http://www.w3.org/2000/svg" viewBox="0 0 48 48"><defs><style>.cls-1{fill:#45413c;opacity:0.15;}.cls-2{fill:#ffe500;}.cls-3{fill:#fff48c;}.cls-4{fill:none;stroke:#45413c;stroke-linecap:round;stroke-linejoin:round;}.cls-5{fill:#ebcb00;}</style></defs><title>638-full-moon</title><g id="_Group_" data-name="&lt;Group&gt;"><ellipse id="_Ellipse_" data-name="&lt;Ellipse&gt;" class="cls-1" cx="24" cy="45.3" rx="13.03" ry="1.7"/><circle id="_Path_" data-name="&lt;Path&gt;" class="cls-2" cx="24" cy="24" r="19.26"/><path id="_Path_2" data-name="&lt;Path&gt;" class="cls-3" d="M24,9.27a19.25,19.25,0,0,1,19.11,17A19,19,0,0,0,43.26,24,19.26,19.26,0,0,0,4.74,24a19,19,0,0,0,.15,2.27A19.25,19.25,0,0,1,24,9.27Z"/><circle id="_Path_3" data-name="&lt;Path&gt;" class="cls-4" cx="24" cy="24" r="19.26"/><path id="_Path_4" data-name="&lt;Path&gt;" class="cls-3" d="M38.24,18.6c-1.26.92-3.33.24-4.62-1.53s-1.31-4,0-4.87,3.33-.24,4.62,1.53S39.51,17.68,38.24,18.6Z"/><path id="_Path_5" data-name="&lt;Path&gt;" class="cls-5" d="M33.57,14.57c1.26-.92,3.33-.24,4.62,1.53A5.07,5.07,0,0,1,39,17.66a4.24,4.24,0,0,0-.78-3.9c-1.29-1.76-3.36-2.45-4.62-1.53a2.92,2.92,0,0,0-.73,3.31A2.08,2.08,0,0,1,33.57,14.57Z"/><path id="_Path_6" data-name="&lt;Path&gt;" class="cls-4" d="M38.24,18.64c-1.26.92-3.33.23-4.62-1.54s-1.31-4,0-4.87,3.33-.23,4.62,1.53S39.51,17.71,38.24,18.64Z"/><path id="_Path_7" data-name="&lt;Path&gt;" class="cls-3" d="M9,20.81c.88.33,2-.46,2.5-1.78s.2-2.65-.68-3-2,.46-2.5,1.78S8.16,20.47,9,20.81Z"/><path id="_Path_8" data-name="&lt;Path&gt;" class="cls-5" d="M8.36,19.51c.5-1.31,1.62-2.11,2.5-1.77a1.37,1.37,0,0,1,.79.92c.32-1.18,0-2.31-.79-2.62s-2,.46-2.5,1.78a3.15,3.15,0,0,0-.11,2.06C8.28,19.76,8.32,19.64,8.36,19.51Z"/><path id="_Path_9" data-name="&lt;Path&gt;" class="cls-4" d="M9,20.81c.88.33,2-.46,2.5-1.78s.2-2.65-.68-3-2,.46-2.5,1.78S8.16,20.47,9,20.81Z"/><path id="_Path_10" data-name="&lt;Path&gt;" class="cls-3" d="M23.87,38.88c-.35,1.36-2.36,2-4.48,1.46s-3.55-2.1-3.19-3.47,2.36-2,4.48-1.46S24.23,37.52,23.87,38.88Z"/><path id="_Path_11" data-name="&lt;Path&gt;" class="cls-5" d="M20.68,37a4.54,4.54,0,0,1,3,2.2,1.28,1.28,0,0,0,.16-.36c.36-1.36-1.07-2.92-3.19-3.47s-4.13.1-4.48,1.46a1.89,1.89,0,0,0,.16,1.27C17,37,18.76,36.54,20.68,37Z"/><path id="_Path_12" data-name="&lt;Path&gt;" class="cls-4" d="M23.87,38.88c-.35,1.36-2.36,2-4.48,1.46s-3.55-2.1-3.19-3.47,2.36-2,4.48-1.46S24.23,37.52,23.87,38.88Z"/><circle id="_Path_13" data-name="&lt;Path&gt;" class="cls-3" cx="37.88" cy="27.12" r="1.98"/><path id="_Path_14" data-name="&lt;Path&gt;" class="cls-5" d="M37.88,26.62a2,2,0,0,1,1.83,1.24,2,2,0,0,0,.15-.74,2,2,0,1,0-4,0,2,2,0,0,0,.15.74A2,2,0,0,1,37.88,26.62Z"/><circle id="_Path_15" data-name="&lt;Path&gt;" class="cls-4" cx="37.88" cy="27.12" r="1.98"/><circle id="_Path_16" data-name="&lt;Path&gt;" class="cls-3" cx="15.79" cy="25.42" r="1.98"/><path id="_Path_17" data-name="&lt;Path&gt;" class="cls-5" d="M15.79,24.85a2,2,0,0,1,1.84,1.27,1.82,1.82,0,0,0,.14-.7,2,2,0,1,0-4,0,2,2,0,0,0,.13.7A2,2,0,0,1,15.79,24.85Z"/><circle id="_Path_18" data-name="&lt;Path&gt;" class="cls-4" cx="15.79" cy="25.42" r="1.98"/><circle id="_Path_19" data-name="&lt;Path&gt;" class="cls-3" cx="18.9" cy="14.37" r="3.4"/><path id="_Path_20" data-name="&lt;Path&gt;" class="cls-5" d="M18.9,13.1a3.39,3.39,0,0,1,3.22,2.33A3.37,3.37,0,0,0,18.9,11a3.35,3.35,0,0,0-3.21,4.46A3.39,3.39,0,0,1,18.9,13.1Z"/><circle id="_Path_21" data-name="&lt;Path&gt;" class="cls-4" cx="18.94" cy="14.37" r="3.4"/><circle id="_Path_22" data-name="&lt;Path&gt;" class="cls-3" cx="27.4" cy="30.23" r="2.83"/><path id="_Path_23" data-name="&lt;Path&gt;" class="cls-5" d="M27.4,29.1a2.83,2.83,0,0,1,2.69,2,3,3,0,0,0,.14-.85,2.83,2.83,0,1,0-5.66,0,2.66,2.66,0,0,0,.14.85A2.81,2.81,0,0,1,27.4,29.1Z"/><circle id="_Path_24" data-name="&lt;Path&gt;" class="cls-4" cx="27.4" cy="30.23" r="2.83"/></g></svg>