<svg id="Icons" xmlns="http://www.w3.org/2000/svg" viewBox="0 0 48 48"><defs><style>.cls-1{fill:#45413c;opacity:0.15;}.cls-2,.cls-5{fill:#ffe500;}.cls-3{fill:#ebcb00;}.cls-4{fill:none;}.cls-4,.cls-5,.cls-7,.cls-8{stroke:#45413c;stroke-linecap:round;stroke-linejoin:round;}.cls-6{fill:#ffaa54;}.cls-7{fill:#ffb0ca;}.cls-8{fill:#ff87af;}.cls-9{fill:#fff48c;}</style></defs><title>643-sun-with-face</title><g id="_Group_" data-name="&lt;Group&gt;"><ellipse id="_Ellipse_" data-name="&lt;Ellipse&gt;" class="cls-1" cx="24" cy="46.5" rx="11.5" ry="1.5"/><g id="_Group_2" data-name="&lt;Group&gt;"><circle id="_Ellipse_2" data-name="&lt;Ellipse&gt;" class="cls-2" cx="24" cy="24" r="13.5"/><path id="_Path_" data-name="&lt;Path&gt;" class="cls-3" d="M25.28,10.56a12.5,12.5,0,1,1-2.56,0,13.5,13.5,0,1,0,2.56,0Z"/><circle id="_Ellipse_3" data-name="&lt;Ellipse&gt;" class="cls-4" cx="24" cy="24" r="13.5"/><path id="_Path_2" data-name="&lt;Path&gt;" class="cls-5" d="M25.5,3a1.5,1.5,0,0,0-3,0V6a1.5,1.5,0,0,0,3,0Z"/><path id="_Path_3" data-name="&lt;Path&gt;" class="cls-5" d="M10.21,8.09a1.5,1.5,0,0,0-2.12,2.12l2.12,2.12a1.5,1.5,0,0,0,2.12-2.12Z"/><path id="_Path_4" data-name="&lt;Path&gt;" class="cls-5" d="M3,22.5a1.5,1.5,0,0,0,0,3H6a1.5,1.5,0,0,0,0-3Z"/><path id="_Path_5" data-name="&lt;Path&gt;" class="cls-5" d="M8.09,37.79a1.5,1.5,0,0,0,2.12,2.12l2.12-2.12a1.5,1.5,0,0,0-2.12-2.12Z"/><path id="_Path_6" data-name="&lt;Path&gt;" class="cls-5" d="M22.5,45a1.5,1.5,0,0,0,3,0V42a1.5,1.5,0,0,0-3,0Z"/><path id="_Path_7" data-name="&lt;Path&gt;" class="cls-5" d="M37.79,39.91a1.5,1.5,0,0,0,2.12-2.12l-2.12-2.12a1.5,1.5,0,0,0-2.12,2.12Z"/><path id="_Path_8" data-name="&lt;Path&gt;" class="cls-5" d="M45,25.5a1.5,1.5,0,0,0,0-3H42a1.5,1.5,0,0,0,0,3Z"/><path id="_Path_9" data-name="&lt;Path&gt;" class="cls-5" d="M39.91,10.21a1.5,1.5,0,0,0-2.12-2.12l-2.12,2.12a1.5,1.5,0,0,0,2.12,2.12Z"/><path id="_Path_10" data-name="&lt;Path&gt;" class="cls-6" d="M14,27c0,.55.67,1,1.5,1s1.5-.45,1.5-1-.67-1-1.5-1S14,26.45,14,27Z"/><g id="_Group_3" data-name="&lt;Group&gt;"><path id="_Path_11" data-name="&lt;Path&gt;" class="cls-7" d="M27.87,29.5a1,1,0,0,1,1,1.25,5,5,0,0,1-9.68,0,1,1,0,0,1,1-1.25Z"/><path id="_Path_12" data-name="&lt;Path&gt;" class="cls-8" d="M24,34.5a5,5,0,0,0,3.94-1.94A7.34,7.34,0,0,0,24,31.5a7.34,7.34,0,0,0-3.94,1.06A5,5,0,0,0,24,34.5Z"/></g><path id="_Path_13" data-name="&lt;Path&gt;" class="cls-4" d="M15,25a1.5,1.5,0,0,1,3,0"/><path id="_Path_14" data-name="&lt;Path&gt;" class="cls-6" d="M34,27c0,.55-.67,1-1.5,1S31,27.55,31,27s.67-1,1.5-1S34,26.45,34,27Z"/><path id="_Path_15" data-name="&lt;Path&gt;" class="cls-4" d="M33,25a1.5,1.5,0,0,0-3,0"/><ellipse id="_Ellipse_4" data-name="&lt;Ellipse&gt;" class="cls-9" cx="24" cy="13.5" rx="4" ry="1"/></g></g></svg>