<svg id="Icons" xmlns="http://www.w3.org/2000/svg" viewBox="0 0 48 48"><defs><style>.cls-1{fill:#45413c;opacity:0.15;}.cls-2{fill:#fff;}.cls-3{fill:#f0f0f0;}.cls-4{fill:none;}.cls-4,.cls-6,.cls-7{stroke:#45413c;stroke-linecap:round;stroke-linejoin:round;}.cls-5,.cls-6{fill:#ffb0ca;}.cls-7{fill:#ff87af;}</style></defs><title>645-cloud-2</title><g id="_Group_" data-name="&lt;Group&gt;"><ellipse id="_Ellipse_" data-name="&lt;Ellipse&gt;" class="cls-1" cx="24" cy="44.46" rx="13.84" ry="1.54"/><g id="_Group_2" data-name="&lt;Group&gt;"><g id="_Group_3" data-name="&lt;Group&gt;"><g id="_Group_4" data-name="&lt;Group&gt;"><path id="_Compound_Path_" data-name="&lt;Compound Path&gt;" class="cls-2" d="M47.5,24a4.69,4.69,0,0,0-3.72-4.59,4.66,4.66,0,0,0-4.64-5.33,4.73,4.73,0,0,0-2.64.81,4.69,4.69,0,0,0-8-3.62,4.67,4.67,0,0,0-9,0,4.69,4.69,0,0,0-8,3.62,4.73,4.73,0,0,0-2.64-.81,4.67,4.67,0,0,0-4.64,5.33,4.69,4.69,0,0,0,.25,9.22,4.68,4.68,0,0,0,7,5.52,4.67,4.67,0,0,0,8.25,3.31,4.67,4.67,0,0,0,8.5,0,4.67,4.67,0,0,0,8.25-3.31,4.68,4.68,0,0,0,7-5.52A4.7,4.7,0,0,0,47.5,24Z"/><path id="_Path_" data-name="&lt;Path&gt;" class="cls-3" d="M46.73,21.45a3.38,3.38,0,0,0-1.57,2.72,5,5,0,0,1-5,4.77,5.14,5.14,0,0,1-.88-.07A2,2,0,0,0,37,30.15a5,5,0,0,1-4.68,3.25,4.92,4.92,0,0,1-2.45-.65,2,2,0,0,0-2.4.32,5,5,0,0,1-7,0,2,2,0,0,0-2.4-.32,4.92,4.92,0,0,1-2.45.65A5,5,0,0,1,11,30.15a2,2,0,0,0-2.23-1.28,5.14,5.14,0,0,1-.88.07,5,5,0,0,1-5-4.77,3.38,3.38,0,0,0-1.57-2.72,4.66,4.66,0,0,0,3.2,7.18,4.68,4.68,0,0,0,7,5.52,4.67,4.67,0,0,0,8.25,3.31,4.67,4.67,0,0,0,8.5,0,4.67,4.67,0,0,0,8.25-3.31,4.68,4.68,0,0,0,7-5.52,4.66,4.66,0,0,0,3.2-7.18Z"/><path id="_Compound_Path_2" data-name="&lt;Compound Path&gt;" class="cls-4" d="M47.5,24a4.69,4.69,0,0,0-3.72-4.59,4.66,4.66,0,0,0-4.64-5.33,4.73,4.73,0,0,0-2.64.81,4.69,4.69,0,0,0-8-3.62,4.67,4.67,0,0,0-9,0,4.69,4.69,0,0,0-8,3.62,4.73,4.73,0,0,0-2.64-.81,4.67,4.67,0,0,0-4.64,5.33,4.69,4.69,0,0,0,.25,9.22,4.68,4.68,0,0,0,7,5.52,4.67,4.67,0,0,0,8.25,3.31,4.67,4.67,0,0,0,8.5,0,4.67,4.67,0,0,0,8.25-3.31,4.68,4.68,0,0,0,7-5.52A4.7,4.7,0,0,0,47.5,24Z"/></g></g><g id="_Group_5" data-name="&lt;Group&gt;"><path id="_Path_2" data-name="&lt;Path&gt;" class="cls-5" d="M15.7,26.08c0,.45.56.83,1.24.83s1.25-.38,1.25-.83-.56-.83-1.25-.83S15.7,25.62,15.7,26.08Z"/><g id="_Group_6" data-name="&lt;Group&gt;"><path id="_Path_3" data-name="&lt;Path&gt;" class="cls-6" d="M27.21,28.15a.83.83,0,0,1,.81,1,4.15,4.15,0,0,1-8,0,.83.83,0,0,1,.81-1Z"/><path id="_Path_4" data-name="&lt;Path&gt;" class="cls-7" d="M24,32.3a4.13,4.13,0,0,0,3.27-1.61,6.52,6.52,0,0,0-6.54,0A4.13,4.13,0,0,0,24,32.3Z"/></g><path id="_Path_5" data-name="&lt;Path&gt;" class="cls-4" d="M16.53,24.42a1.25,1.25,0,1,1,2.49,0"/><path id="_Path_6" data-name="&lt;Path&gt;" class="cls-5" d="M32.3,26.08c0,.45-.56.83-1.24.83s-1.25-.38-1.25-.83.56-.83,1.25-.83S32.3,25.62,32.3,26.08Z"/><path id="_Path_7" data-name="&lt;Path&gt;" class="cls-4" d="M31.47,24.42a1.25,1.25,0,1,0-2.49,0"/></g></g></g></svg>