<svg id="Icons" xmlns="http://www.w3.org/2000/svg" viewBox="0 0 48 48"><defs><style>.cls-1{fill:#87898c;}.cls-1,.cls-5{stroke:#45413c;stroke-linecap:round;stroke-linejoin:round;}.cls-2{fill:#45413c;opacity:0.15;}.cls-3{fill:#ff87af;}.cls-4{fill:#ffb0ca;}.cls-5{fill:none;}</style></defs><title>650-closed-umbrella</title><g id="_Group_" data-name="&lt;Group&gt;"><path class="cls-1" d="M7.42,9.5A1.77,1.77,0,0,1,9.93,7l.68.68a1.25,1.25,0,1,0,1.77-1.77l-.68-.68a4.28,4.28,0,0,0-6,6L15.37,21l1.77-1.78Z"/><path class="cls-1" d="M40.12,42.2l-2.66-2.65-1.77,1.77L38.35,44a1.26,1.26,0,1,0,1.77-1.78Z"/><ellipse id="_Ellipse_" data-name="&lt;Ellipse&gt;" class="cls-2" cx="26" cy="45.12" rx="14.4" ry="1.88"/><path class="cls-3" d="M37.7,39.29,22.26,11.64a.35.35,0,0,0-.65.19,5.78,5.78,0,0,1-6.11,6.11l-1.12-.06a.34.34,0,0,0-.36.36l.06,1.12A5.77,5.77,0,0,1,8,25.47a.34.34,0,0,0-.19.64L35.43,41.56A1.67,1.67,0,0,0,37.7,39.29Z"/><path id="_Path_" data-name="&lt;Path&gt;" class="cls-4" d="M19.62,16.55l17,25.17a1.67,1.67,0,0,0,1-2.43L22.26,11.64a.35.35,0,0,0-.65.19A5.78,5.78,0,0,1,19.62,16.55Z"/><path class="cls-5" d="M37.7,39.29,22.26,11.64a.35.35,0,0,0-.65.19,5.78,5.78,0,0,1-6.11,6.11l-1.12-.06a.34.34,0,0,0-.36.36l.06,1.12A5.77,5.77,0,0,1,8,25.47a.34.34,0,0,0-.19.64L35.43,41.56A1.67,1.67,0,0,0,37.7,39.29Z"/></g></svg>