<svg id="Icons" xmlns="http://www.w3.org/2000/svg" viewBox="0 0 48 48"><defs><style>.cls-1{fill:#45413c;opacity:0.15;}.cls-2{fill:#ffe500;}.cls-3{fill:#fff48c;}.cls-4{fill:none;stroke:#45413c;stroke-linecap:round;stroke-linejoin:round;}</style></defs><title>653-high-voltage</title><g id="_Group_" data-name="&lt;Group&gt;"><ellipse id="_Ellipse_" data-name="&lt;Ellipse&gt;" class="cls-1" cx="24" cy="45.29" rx="13.1" ry="1.71"/><path id="_Path_" data-name="&lt;Path&gt;" class="cls-2" d="M33.72,18.24H26l1.71-14a.57.57,0,0,0-1-.39l-13.32,19a1.14,1.14,0,0,0,.93,1.79H22L20.31,38.36a.57.57,0,0,0,1,.4L34.65,20A1.14,1.14,0,0,0,33.72,18.24Z"/><g id="_Group_2" data-name="&lt;Group&gt;"><path id="_Path_2" data-name="&lt;Path&gt;" class="cls-3" d="M26.56,22h6.69l1.4-2a1.14,1.14,0,0,0-.93-1.8H27Z"/><path id="_Path_3" data-name="&lt;Path&gt;" class="cls-3" d="M15.31,24.59l11.93-17,.06-.07.4-3.31a.57.57,0,0,0-1-.39l-13.32,19a1.14,1.14,0,0,0,.93,1.79Z"/></g><path id="_Path_4" data-name="&lt;Path&gt;" class="cls-4" d="M33.72,18.24H26l1.71-14a.57.57,0,0,0-1-.39l-13.32,19a1.14,1.14,0,0,0,.93,1.79H22L20.31,38.36a.57.57,0,0,0,1,.4L34.65,20A1.14,1.14,0,0,0,33.72,18.24Z"/></g></svg>