<svg id="Icons" xmlns="http://www.w3.org/2000/svg" viewBox="0 0 48 48"><defs><style>.cls-1{fill:#45413c;opacity:0.15;}.cls-2{fill:#00dfeb;}.cls-3{fill:#4aeff7;}.cls-4{fill:none;stroke:#45413c;stroke-linecap:round;stroke-linejoin:round;}</style></defs><title>657-droplet</title><g id="_Group_" data-name="&lt;Group&gt;"><ellipse id="_Ellipse_" data-name="&lt;Ellipse&gt;" class="cls-1" cx="24" cy="45.76" rx="9.11" ry="1.24"/><path class="cls-2" d="M34,28.73,24.5,2.2a.53.53,0,0,0-1,0L14,28.73a10.67,10.67,0,1,0,20.08,0Z"/><path class="cls-3" d="M17.64,29.76,27.06,9.31,24.5,2.2a.53.53,0,0,0-1,0L14,28.73a10.68,10.68,0,0,0,6.53,13.68A10.66,10.66,0,0,1,17.64,29.76Z"/><path class="cls-4" d="M34,28.73,24.5,2.2a.53.53,0,0,0-1,0L14,28.73a10.67,10.67,0,1,0,20.08,0Z"/></g></svg>