<svg id="Icons" xmlns="http://www.w3.org/2000/svg" viewBox="0 0 48 48"><defs><style>.cls-1{fill:#45413c;opacity:0.15;}.cls-2,.cls-5{fill:#ffe500;}.cls-3{fill:#fff48c;}.cls-4{fill:none;}.cls-4,.cls-5{stroke:#45413c;stroke-linecap:round;stroke-linejoin:round;}</style></defs><title>661-sparkles</title><ellipse class="cls-1" cx="24" cy="45.75" rx="14.5" ry="1.25"/><g id="_Group_" data-name="&lt;Group&gt;"><path id="_Path_" data-name="&lt;Path&gt;" class="cls-2" d="M33.7,32.56c.47-1.72,2.06-4.54,4.08-4.94L46,26a.56.56,0,0,0,0-1.12l-8.19-1.61c-2-.39-3.61-3.22-4.08-4.94L31.81,6.18a.71.71,0,0,0-1.32,0L28.6,18.34c-.47,1.72-2.05,4.55-4.08,4.94l-8.19,1.61a.56.56,0,0,0,0,1.12l8.19,1.61c2,.4,3.61,3.22,4.08,4.94l1.89,12.23a.71.71,0,0,0,1.32,0Z"/><g id="_Group_2" data-name="&lt;Group&gt;"><path id="_Path_2" data-name="&lt;Path&gt;" class="cls-3" d="M46,24.89l-8.19-1.61c-2-.39-3.61-3.22-4.08-4.94L31.81,6.18a.71.71,0,0,0-1.32,0l-.61,3.92L31.7,21.84c.47,1.72,2.06,4.55,4.08,4.94l3.14.62L46,26a.56.56,0,0,0,0-1.12Z"/></g><path id="_Path_3" data-name="&lt;Path&gt;" class="cls-4" d="M33.7,32.56c.47-1.72,2.06-4.54,4.08-4.94L46,26a.56.56,0,0,0,0-1.12l-8.19-1.61c-2-.39-3.61-3.22-4.08-4.94L31.81,6.18a.71.71,0,0,0-1.32,0L28.6,18.34c-.47,1.72-2.05,4.55-4.08,4.94l-8.19,1.61a.56.56,0,0,0,0,1.12l8.19,1.61c2,.4,3.61,3.22,4.08,4.94l1.89,12.23a.71.71,0,0,0,1.32,0Z"/><path id="_Path_4" data-name="&lt;Path&gt;" class="cls-5" d="M14.62,16.1c.26-.93,1.13-2.47,2.24-2.69l4.49-.87a.31.31,0,0,0,0-.61l-4.49-.88c-1.11-.21-2-1.75-2.24-2.69l-1-6.62a.36.36,0,0,0-.36-.24.37.37,0,0,0-.36.24l-1,6.62c-.26.94-1.12,2.48-2.24,2.69l-4.48.88a.31.31,0,0,0,0,.61l4.48.87c1.12.22,2,1.76,2.24,2.69l1,6.66a.37.37,0,0,0,.36.24.36.36,0,0,0,.36-.24Z"/><path id="_Path_5" data-name="&lt;Path&gt;" class="cls-5" d="M10,37.33c.18-.63.77-1.67,1.54-1.81l3.08-.59a.22.22,0,0,0,.2-.21.21.21,0,0,0-.2-.2l-3.08-.59c-.77-.15-1.36-1.19-1.54-1.82l-.71-4.46a.27.27,0,0,0-.5,0l-.71,4.46c-.18.63-.77,1.67-1.53,1.82l-3.09.59a.21.21,0,0,0-.19.2.22.22,0,0,0,.19.21l3.08.59c.77.14,1.36,1.18,1.54,1.81l.71,4.49a.28.28,0,0,0,.5,0Z"/></g></svg>