<svg id="Icons" xmlns="http://www.w3.org/2000/svg" viewBox="0 0 48 48"><defs><style>.cls-1{fill:#45413c;opacity:0.15;}.cls-2{fill:#ff6196;}.cls-3{fill:#ff87af;}.cls-4{fill:none;stroke:#45413c;stroke-linecap:round;stroke-linejoin:round;}</style></defs><title>662-balloon</title><g id="_Group_" data-name="&lt;Group&gt;"><ellipse id="_Ellipse_" data-name="&lt;Ellipse&gt;" class="cls-1" cx="24" cy="45.42" rx="7.9" ry="1.58"/><path id="_Path_" data-name="&lt;Path&gt;" class="cls-2" d="M33.31,12.94C33.31,7,29.14,2.88,24,2.88S14.69,7,14.69,12.94c0,5.37,5.16,11.23,8.39,12.27l-.74,1.7a.65.65,0,0,0,.59.91h2.14a.65.65,0,0,0,.59-.91l-.74-1.7C28.15,24.17,33.31,18.31,33.31,12.94Z"/><g id="_Group_2" data-name="&lt;Group&gt;"><path id="_Path_2" data-name="&lt;Path&gt;" class="cls-3" d="M24,7.27c4.64,0,8.48,2.85,9.18,7.08a9.6,9.6,0,0,0,.13-1.41C33.31,7,29.14,2.88,24,2.88S14.69,7,14.69,12.94a9.6,9.6,0,0,0,.13,1.41C15.52,10.12,19.36,7.27,24,7.27Z"/></g><path id="_Path_3" data-name="&lt;Path&gt;" class="cls-4" d="M33.31,12.94C33.31,7,29.14,2.88,24,2.88S14.69,7,14.69,12.94c0,5.37,5.16,11.23,8.39,12.27l-.74,1.7a.65.65,0,0,0,.59.91h2.14a.65.65,0,0,0,.59-.91l-.74-1.7C28.15,24.17,33.31,18.31,33.31,12.94Z"/><path id="_Path_4" data-name="&lt;Path&gt;" class="cls-4" d="M24,27.82c0,6.34,8,7.18,11.78,10.35s3.56,6.33,3.56,6.33"/></g></svg>