<svg id="Icons" xmlns="http://www.w3.org/2000/svg" viewBox="0 0 48 48"><defs><style>.cls-1{fill:#45413c;opacity:0.15;}.cls-2{fill:none;}.cls-10,.cls-11,.cls-12,.cls-2,.cls-3,.cls-6,.cls-7,.cls-8,.cls-9{stroke:#45413c;stroke-linecap:round;stroke-linejoin:round;}.cls-3{fill:#ebcb00;}.cls-4{fill:#ffe500;}.cls-12,.cls-5{fill:#fff48c;}.cls-6{fill:#00f5bc;}.cls-13,.cls-7{fill:#ff6242;}.cls-8{fill:#ff6196;}.cls-9{fill:#bf8df2;}.cls-10{fill:#ff8a14;}.cls-11{fill:#4aeff7;}.cls-14{fill:#e04122;}.cls-15{fill:#6dd627;}.cls-16{fill:#46b000;}</style></defs><title>663-confetti-ball</title><ellipse id="_Ellipse_" data-name="&lt;Ellipse&gt;" class="cls-1" cx="24" cy="45.5" rx="10" ry="1.5"/><path id="_Path_" data-name="&lt;Path&gt;" class="cls-2" d="M25.79,11.75A14.83,14.83,0,0,1,24,4a14.88,14.88,0,0,1-1.76,7.7"/><ellipse id="_Ellipse_2" data-name="&lt;Ellipse&gt;" class="cls-3" cx="14.89" cy="18.75" rx="10.19" ry="2.96" transform="translate(-8.58 13.98) rotate(-40.05)"/><path id="_Path_2" data-name="&lt;Path&gt;" class="cls-4" d="M22.69,12.2c-1.06-1.25-5.4.67-9.71,4.29S6,24.06,7.09,25.31A10.19,10.19,0,1,1,22.69,12.2Z"/><path id="_Path_3" data-name="&lt;Path&gt;" class="cls-5" d="M8.35,13a10.19,10.19,0,0,1,11.79-.93c1.22-.39,2.13-.39,2.55.1A10.19,10.19,0,0,0,4.76,19.88,10.15,10.15,0,0,1,8.35,13Z"/><path id="_Path_4" data-name="&lt;Path&gt;" class="cls-2" d="M22.69,12.2c-1.06-1.25-5.4.67-9.71,4.29S6,24.06,7.09,25.31A10.19,10.19,0,1,1,22.69,12.2Z"/><ellipse id="_Ellipse_3" data-name="&lt;Ellipse&gt;" class="cls-3" cx="33.11" cy="18.75" rx="2.96" ry="10.19" transform="translate(-2.55 32.03) rotate(-49.95)"/><path id="_Path_5" data-name="&lt;Path&gt;" class="cls-4" d="M25.31,12.2c1.06-1.25,5.4.67,9.71,4.29s6.94,7.57,5.89,8.82A10.19,10.19,0,1,0,25.31,12.2Z"/><path id="_Path_6" data-name="&lt;Path&gt;" class="cls-5" d="M39.65,13a10.19,10.19,0,0,0-11.79-.93c-1.22-.39-2.13-.39-2.55.1a10.19,10.19,0,0,1,17.93,7.68A10.15,10.15,0,0,0,39.65,13Z"/><path id="_Path_7" data-name="&lt;Path&gt;" class="cls-2" d="M25.31,12.2c1.06-1.25,5.4.67,9.71,4.29s6.94,7.57,5.89,8.82A10.19,10.19,0,1,0,25.31,12.2Z"/><path id="_Path_8" data-name="&lt;Path&gt;" class="cls-6" d="M4.9,29.37a4,4,0,0,1-3.25,1.84l-1.15-2a4,4,0,0,0,3.25-1.84Z"/><path id="_Path_9" data-name="&lt;Path&gt;" class="cls-7" d="M31.36,17.08a4,4,0,0,1-1.65,3.35l-2.09-1a4,4,0,0,0,1.64-3.35Z"/><path id="_Path_10" data-name="&lt;Path&gt;" class="cls-8" d="M30.59,40.35a4,4,0,0,1-.78-3.65l2.28-.49a4,4,0,0,0,.78,3.65Z"/><path id="_Path_11" data-name="&lt;Path&gt;" class="cls-9" d="M19,16.16a4,4,0,0,0-.73,3.67l2.29.45a4,4,0,0,1,.73-3.66Z"/><path id="_Path_12" data-name="&lt;Path&gt;" class="cls-9" d="M43.49,29a4,4,0,0,0,3.71.49l.3-2.32a3.94,3.94,0,0,1-3.7-.48Z"/><path id="_Path_13" data-name="&lt;Path&gt;" class="cls-10" d="M27.42,31.8a4,4,0,0,1-3.09,2.11L23,32a4,4,0,0,0,3.09-2.11Z"/><path id="_Path_14" data-name="&lt;Path&gt;" class="cls-11" d="M21.43,24.42a4,4,0,0,1,3.23,1.89l-1.18,2a4,4,0,0,0-3.23-1.89Z"/><path id="_Path_15" data-name="&lt;Path&gt;" class="cls-12" d="M15.78,38.64a4,4,0,0,1,2.43-2.85L20,37.31a4,4,0,0,0-2.42,2.84Z"/><path class="cls-13" d="M14.09,34.71a15.52,15.52,0,0,1-6.91,5.78l-.88-1.8c3.61-1.77,5.13-3.22,7.21-6.84L15.16,33C14.79,33.62,14.46,34.16,14.09,34.71Z"/><path class="cls-14" d="M12.77,36.46a17,17,0,0,0,1.32-1.75c.37-.55.7-1.09,1.07-1.74l-1.65-1.12a16.38,16.38,0,0,1-3.38,4.43A5.78,5.78,0,0,0,12.77,36.46Z"/><path class="cls-2" d="M14.09,34.71a15.52,15.52,0,0,1-6.91,5.78l-.88-1.8c3.61-1.77,5.13-3.22,7.21-6.84L15.16,33C14.79,33.62,14.46,34.16,14.09,34.71Z"/><path class="cls-13" d="M15.9,22.27a15.6,15.6,0,0,1-.72,6.27,3.82,3.82,0,0,0-1.11-1.12A4,4,0,1,0,15.17,33c2.5-3.74,2.84-6.62,2.73-10.75ZM10.73,32.4a2,2,0,1,1,2.78-.55A2,2,0,0,1,10.73,32.4Z"/><path class="cls-14" d="M14.07,27.42l-.21-.13a19.47,19.47,0,0,1-.77,1.88,2,2,0,0,1,.42,2.68,13.32,13.32,0,0,0,1.67-3.31A3.82,3.82,0,0,0,14.07,27.42Z"/><path class="cls-2" d="M15.9,22.27a15.6,15.6,0,0,1-.72,6.27,3.82,3.82,0,0,0-1.11-1.12A4,4,0,1,0,15.17,33c2.5-3.74,2.84-6.62,2.73-10.75ZM10.73,32.4a2,2,0,1,1,2.78-.55A2,2,0,0,1,10.73,32.4Z"/><path class="cls-2" d="M13.51,31.85a13.32,13.32,0,0,0,1.67-3.31"/><path class="cls-15" d="M34.81,34.19a15.43,15.43,0,0,0,8,4.07l.45-1.95c-3.92-.91-5.72-2-8.56-5l-1.37,1.46C33.89,33.29,34.33,33.74,34.81,34.19Z"/><path class="cls-16" d="M36.5,35.6a17.29,17.29,0,0,1-1.69-1.41c-.48-.45-.92-.9-1.44-1.45l1.37-1.46A16.34,16.34,0,0,0,39,34.83,5.83,5.83,0,0,1,36.5,35.6Z"/><path class="cls-2" d="M34.81,34.19a15.43,15.43,0,0,0,8,4.07l.45-1.95c-3.92-.91-5.72-2-8.56-5l-1.37,1.46C33.89,33.29,34.33,33.74,34.81,34.19Z"/><path class="cls-15" d="M28.27,22.89c.83,4.05,1.81,6.78,5.1,9.85a4,4,0,1,0-.19-5.65,4.1,4.1,0,0,0-.83,1.34,15.87,15.87,0,0,1-2.12-5.94Zm6.47,8.39a2,2,0,1,1,2.82-.09A2,2,0,0,1,34.74,31.28Z"/><path class="cls-16" d="M33.18,27.09l.17-.18a18.53,18.53,0,0,0,1.19,1.67,2,2,0,0,0,.2,2.7,13.07,13.07,0,0,1-2.39-2.85A4.1,4.1,0,0,1,33.18,27.09Z"/><path class="cls-2" d="M28.27,22.89c.83,4.05,1.81,6.78,5.1,9.85a4,4,0,1,0-.19-5.65,4.1,4.1,0,0,0-.83,1.34,15.87,15.87,0,0,1-2.12-5.94Zm6.47,8.39a2,2,0,1,1,2.82-.09A2,2,0,0,1,34.74,31.28Z"/><path class="cls-2" d="M34.74,31.28a13.07,13.07,0,0,1-2.39-2.85"/></svg>