<svg id="Icons" xmlns="http://www.w3.org/2000/svg" viewBox="0 0 48 48"><defs><style>.cls-1{fill:#45413c;opacity:0.15;}.cls-10,.cls-2{fill:#ff866e;}.cls-17,.cls-3{fill:#ff6242;}.cls-12,.cls-4,.cls-5{fill:none;}.cls-10,.cls-11,.cls-13,.cls-14,.cls-16,.cls-17,.cls-18,.cls-19,.cls-20,.cls-21,.cls-4,.cls-6{stroke:#45413c;}.cls-10,.cls-11,.cls-12,.cls-13,.cls-14,.cls-16,.cls-17,.cls-18,.cls-19,.cls-20,.cls-21,.cls-4,.cls-5,.cls-6{stroke-linecap:round;stroke-linejoin:round;}.cls-5{stroke:#e04122;}.cls-6{fill:#e04122;}.cls-11,.cls-7{fill:#eddbff;}.cls-13,.cls-8{fill:#dabff5;}.cls-9{fill:#ffa694;}.cls-12{stroke:#bf8df2;}.cls-14,.cls-15{fill:#bf8df2;}.cls-16{fill:#00f5bc;}.cls-18{fill:#ff6196;}.cls-19{fill:#ff8a14;}.cls-20{fill:#4aeff7;}.cls-21{fill:#fff48c;}</style></defs><title>666-wrapped-gift-2</title><g id="_Group_" data-name="&lt;Group&gt;"><ellipse id="_Ellipse_" data-name="&lt;Ellipse&gt;" class="cls-1" cx="19.27" cy="44.5" rx="14.21" ry="1.5"/><g id="_Group_2" data-name="&lt;Group&gt;"><g id="_Group_3" data-name="&lt;Group&gt;"><g id="_Group_4" data-name="&lt;Group&gt;"><path id="_Path_" data-name="&lt;Path&gt;" class="cls-2" d="M19.11,30.76l-13-6.39L4.52,37.3a.76.76,0,0,0,.43.78L17.5,44.24a3.1,3.1,0,0,0,2,.24l13.65-3a.79.79,0,0,0,.6-.67l1.55-12.93L21.15,31A3.12,3.12,0,0,1,19.11,30.76Z"/><path id="_Path_2" data-name="&lt;Path&gt;" class="cls-3" d="M21.15,31a3.12,3.12,0,0,1-2-.25l-13-6.39L5.6,28.22l13.05,6.39a3.1,3.1,0,0,0,2,.25l14.19-3.14.46-3.85Z"/><path id="_Path_3" data-name="&lt;Path&gt;" class="cls-4" d="M19.11,30.76l-13-6.39L4.52,37.3a.76.76,0,0,0,.43.78L17.5,44.24a3.1,3.1,0,0,0,2,.24l13.65-3a.79.79,0,0,0,.6-.67l1.55-12.93L21.15,31A3.12,3.12,0,0,1,19.11,30.76Z"/><line id="_Line_" data-name="&lt;Line&gt;" class="cls-5" x1="18.66" y1="43.18" x2="19.9" y2="32.78"/><path id="_Path_4" data-name="&lt;Path&gt;" class="cls-6" d="M35.33,27.87l-13-6.4a3.12,3.12,0,0,0-2-.24L6.06,24.37l13.05,6.39a3.12,3.12,0,0,0,2,.25Z"/></g><g id="_Group_5" data-name="&lt;Group&gt;"><polygon id="_Path_5" data-name="&lt;Path&gt;" class="cls-7" points="9.02 25.81 7.4 39.29 14.04 42.55 15.66 29.07 9.02 25.81"/><polygon id="_Path_6" data-name="&lt;Path&gt;" class="cls-8" points="9.02 25.81 8.55 29.66 15.2 32.92 15.66 29.07 9.02 25.81"/><polygon id="_Path_7" data-name="&lt;Path&gt;" class="cls-4" points="9.02 25.81 7.4 39.29 14.04 42.55 15.66 29.07 9.02 25.81"/></g><g id="_Group_6" data-name="&lt;Group&gt;"><polygon id="_Path_8" data-name="&lt;Path&gt;" class="cls-7" points="32.12 28.58 30.51 42.06 23.29 43.65 24.9 30.18 32.12 28.58"/><polygon id="_Path_9" data-name="&lt;Path&gt;" class="cls-8" points="32.12 28.58 31.66 32.43 24.44 34.03 24.9 30.18 32.12 28.58"/><polygon id="_Path_10" data-name="&lt;Path&gt;" class="cls-4" points="32.12 28.58 30.51 42.06 23.29 43.65 24.9 30.18 32.12 28.58"/></g></g><g id="_Group_7" data-name="&lt;Group&gt;"><g id="_Group_8" data-name="&lt;Group&gt;"><path id="_Path_11" data-name="&lt;Path&gt;" class="cls-2" d="M16.53,18.93,1.23,17.69l1.24,4.72a.76.76,0,0,0,.69.57l14.75,1.2a3.09,3.09,0,0,0,2-.52L32.17,15.4a.8.8,0,0,0,.32-.84L31.25,9.84,18.52,18.41A3.18,3.18,0,0,1,16.53,18.93Z"/><path id="_Path_12" data-name="&lt;Path&gt;" class="cls-9" d="M18.52,18.41a3.18,3.18,0,0,1-2,.52L1.23,17.69l.59,2.25,15.3,1.24a3.19,3.19,0,0,0,2-.52l12.73-8.57-.59-2.25Z"/><path id="_Path_13" data-name="&lt;Path&gt;" class="cls-4" d="M16.53,18.93,1.23,17.69l1.24,4.72a.76.76,0,0,0,.69.57l14.75,1.2a3.09,3.09,0,0,0,2-.52L32.17,15.4a.8.8,0,0,0,.32-.84L31.25,9.84,18.52,18.41A3.18,3.18,0,0,1,16.53,18.93Z"/><path id="_Path_14" data-name="&lt;Path&gt;" class="cls-10" d="M1.23,17.69,14,9.11a3.08,3.08,0,0,1,2-.51l15.3,1.24L18.52,18.41a3.18,3.18,0,0,1-2,.52Z"/></g><g id="_Group_9" data-name="&lt;Group&gt;"><polygon id="_Path_15" data-name="&lt;Path&gt;" class="cls-11" points="18.28 8.78 4.51 17.95 5.88 23.21 13.26 23.8 11.88 18.55 25.65 9.38 18.28 8.78"/><line id="_Path_16" data-name="&lt;Path&gt;" class="cls-12" x1="6.7" y1="18.13" x2="10.42" y2="18.43"/></g><g id="_Group_10" data-name="&lt;Group&gt;"><polygon id="_Path_17" data-name="&lt;Path&gt;" class="cls-11" points="12.03 10.42 28.52 11.67 29.9 16.92 23.76 21.05 22.39 15.8 5.9 14.55 12.03 10.42"/><line id="_Path_18" data-name="&lt;Path&gt;" class="cls-12" x1="26.7" y1="12.9" x2="23.61" y2="14.98"/></g><g id="_Group_11" data-name="&lt;Group&gt;"><g id="_Group_12" data-name="&lt;Group&gt;"><path id="_Path_19" data-name="&lt;Path&gt;" class="cls-13" d="M18.9,13.6l-1.84-1.31s2-8,7.46-8.66A2.3,2.3,0,0,1,27,5.15l.86,2.35Z"/><path id="_Path_20" data-name="&lt;Path&gt;" class="cls-14" d="M18.9,13.6s4.74-.37,8.81-5.28A.78.78,0,0,0,27,7,10.27,10.27,0,0,0,18.9,13.6Z"/></g><g id="_Group_13" data-name="&lt;Group&gt;"><path id="_Path_21" data-name="&lt;Path&gt;" class="cls-13" d="M14,15l.81-2.11S9,7.56,4.05,10a2.31,2.31,0,0,0-1.19,2.62l.59,2.44Z"/><path id="_Path_22" data-name="&lt;Path&gt;" class="cls-14" d="M14,15s-3.9,2.51-10,.68a.78.78,0,0,1-.13-1.45A9.91,9.91,0,0,1,14,15Z"/></g><path id="_Path_23" data-name="&lt;Path&gt;" class="cls-14" d="M14.5,14.3s-5.1,3-5.36,7.29l2.6-1.1,1.49,2.56s1.12-6.78,3.29-8.22Z"/><path id="_Path_24" data-name="&lt;Path&gt;" class="cls-14" d="M18.06,13.42s5.9.25,8.14,4l-2.81.24-.13,2.95s-4.15-5.48-6.74-5.75Z"/><g id="_Group_14" data-name="&lt;Group&gt;"><path id="_Path_25" data-name="&lt;Path&gt;" class="cls-15" d="M19.41,12.07c.38,1.45-.83,3-2.69,3.51s-3.69-.29-4.06-1.74.82-3,2.69-3.51S19,10.62,19.41,12.07Z"/><path id="_Path_26" data-name="&lt;Path&gt;" class="cls-8" d="M15.74,11.83a3.46,3.46,0,0,1,3.71,1,2.16,2.16,0,0,0,0-.8c-.38-1.45-2.2-2.23-4.06-1.74s-3.07,2.06-2.69,3.51a2,2,0,0,0,.35.71A3.47,3.47,0,0,1,15.74,11.83Z"/><path id="_Path_27" data-name="&lt;Path&gt;" class="cls-4" d="M19.41,12.07c.38,1.45-.83,3-2.69,3.51s-3.69-.29-4.06-1.74.82-3,2.69-3.51S19,10.62,19.41,12.07Z"/></g></g></g><g id="_Group_15" data-name="&lt;Group&gt;"><path id="_Path_28" data-name="&lt;Path&gt;" class="cls-16" d="M29.33,26.48a4.66,4.66,0,0,1-3.83,2.17l-1.36-2.39A4.67,4.67,0,0,0,28,24.08Z"/><path id="_Path_29" data-name="&lt;Path&gt;" class="cls-17" d="M45,9.18a4.69,4.69,0,0,1-2,4l-2.47-1.21a4.69,4.69,0,0,0,1.94-4Z"/><path id="_Path_30" data-name="&lt;Path&gt;" class="cls-18" d="M39.55,47a4.68,4.68,0,0,1-.93-4.31l2.7-.58a4.7,4.7,0,0,0,.92,4.31Z"/><path id="_Path_31" data-name="&lt;Path&gt;" class="cls-19" d="M47.5,25.53a4.68,4.68,0,0,1-4.23,1.24l-.78-2.64a4.68,4.68,0,0,0,4.23-1.25Z"/><path id="_Path_32" data-name="&lt;Path&gt;" class="cls-20" d="M36.54,32.53a4.7,4.7,0,0,1,3.81,2.23L39,37.14a4.66,4.66,0,0,0-3.8-2.23Z"/><path id="_Path_33" data-name="&lt;Path&gt;" class="cls-21" d="M30,44.7a4.7,4.7,0,0,1-4.18-1.41l.89-2.61a4.65,4.65,0,0,0,4.17,1.41Z"/><path id="_Path_34" data-name="&lt;Path&gt;" class="cls-21" d="M32.82,21.54a4.7,4.7,0,0,1,2.86-3.36L37.78,20a4.68,4.68,0,0,0-2.86,3.36Z"/></g></g></g></svg>