<svg id="Icons" xmlns="http://www.w3.org/2000/svg" viewBox="0 0 48 48"><defs><style>.cls-1{fill:#45413c;opacity:0.15;}.cls-2{fill:#bf8256;}.cls-3{fill:#dea47a;}.cls-4{fill:none;}.cls-4,.cls-5,.cls-6,.cls-7{stroke:#45413c;stroke-linecap:round;stroke-linejoin:round;}.cls-5{fill:#915e3a;}.cls-6{fill:#e0e0e0;}.cls-7,.cls-8{fill:#f0f0f0;}.cls-9{fill:#fff;}</style></defs><title>669-american-football</title><g id="_Group_" data-name="&lt;Group&gt;"><ellipse id="_Ellipse_" data-name="&lt;Ellipse&gt;" class="cls-1" cx="24" cy="44.96" rx="19.7" ry="2.04"/><path id="_Path_" data-name="&lt;Path&gt;" class="cls-2" d="M44,5.75A2.61,2.61,0,0,0,42.25,4C31.18.63,19.18,2.88,11,11S.62,31.18,4,42.26A2.58,2.58,0,0,0,5.74,44C16.82,47.38,28.81,45.13,37,37S47.37,16.82,44,5.75Z"/><path id="_Path_2" data-name="&lt;Path&gt;" class="cls-3" d="M11,18.16c8.15-8.15,20.15-10.4,31.22-7a2.58,2.58,0,0,1,1.7,1.7,34.54,34.54,0,0,1,1.34,6.43A33.8,33.8,0,0,0,44,5.75,2.6,2.6,0,0,0,42.26,4C31.19.63,19.19,2.88,11,11a30,30,0,0,0-8.33,24.8A29.24,29.24,0,0,1,11,18.16Z"/><path id="_Path_3" data-name="&lt;Path&gt;" class="cls-4" d="M44,5.75A2.61,2.61,0,0,0,42.25,4C31.18.63,19.18,2.88,11,11S.62,31.18,4,42.26A2.58,2.58,0,0,0,5.74,44C16.82,47.38,28.81,45.13,37,37S47.37,16.82,44,5.75Z"/><path id="_Path_4" data-name="&lt;Path&gt;" class="cls-5" d="M44,5.92c0-.06,0-.12,0-.17A2.6,2.6,0,0,0,42.26,4l-.17,0L4,42.08c0,.06,0,.12,0,.18A2.58,2.58,0,0,0,5.75,44l.17,0Z"/><rect id="_Rectangle_" data-name="&lt;Rectangle&gt;" class="cls-6" x="21.97" y="13.13" width="4.08" height="21.74" rx="1.36" ry="1.36" transform="translate(24 -9.94) rotate(45)"/><path id="_Path_5" data-name="&lt;Path&gt;" class="cls-7" d="M21.12,21.12a1.36,1.36,0,0,1,1.92,0L26.89,25A1.36,1.36,0,1,1,25,26.88L21.12,23A1.36,1.36,0,0,1,21.12,21.12Z"/><path id="_Path_6" data-name="&lt;Path&gt;" class="cls-7" d="M22.56,31.21a1.36,1.36,0,0,1-1.92,0L16.8,27.36a1.36,1.36,0,1,1,1.92-1.92l3.84,3.85A1.36,1.36,0,0,1,22.56,31.21Z"/><path id="_Path_7" data-name="&lt;Path&gt;" class="cls-7" d="M31.21,22.56a1.36,1.36,0,0,1-1.92,0l-3.84-3.84a1.36,1.36,0,1,1,1.92-1.92l3.84,3.84A1.36,1.36,0,0,1,31.21,22.56Z"/><path id="_Path_8" data-name="&lt;Path&gt;" class="cls-7" d="M45.49,15.7l-5.63-5.63-4.81,4.8,9.32,9.33A31.49,31.49,0,0,0,45.49,15.7Z"/><path id="_Path_9" data-name="&lt;Path&gt;" class="cls-7" d="M14.88,35.05l-4.81,4.8,5.64,5.64a31.42,31.42,0,0,0,8.49-1.12Z"/><path id="_Path_10" data-name="&lt;Path&gt;" class="cls-8" d="M2.52,32.3l5.63,5.63L13,33.13,3.64,23.81A31.37,31.37,0,0,0,2.52,32.3Z"/><path id="_Path_11" data-name="&lt;Path&gt;" class="cls-9" d="M5.61,25.77A28.83,28.83,0,0,0,3.18,33l-.65-.65a30.48,30.48,0,0,1,1.11-8.5Z"/><path id="_Path_12" data-name="&lt;Path&gt;" class="cls-8" d="M37.93,8.15,33.14,13,23.8,3.63A31.64,31.64,0,0,1,32.28,2.5Z"/><path id="_Path_13" data-name="&lt;Path&gt;" class="cls-8" d="M37.93,8.15,33.14,13,23.8,3.63A31.64,31.64,0,0,1,32.28,2.5Z"/><path id="_Path_14" data-name="&lt;Path&gt;" class="cls-9" d="M37.93,8.15,36.21,9.88a35.11,35.11,0,0,0-6.31-.17L23.8,3.63A31.78,31.78,0,0,1,32.28,2.5Z"/><path id="_Path_15" data-name="&lt;Path&gt;" class="cls-4" d="M37.93,8.15,33.14,13,23.8,3.63A31.64,31.64,0,0,1,32.28,2.5Z"/><path id="_Path_16" data-name="&lt;Path&gt;" class="cls-4" d="M2.52,32.3l5.63,5.63L13,33.13,3.64,23.81A31.37,31.37,0,0,0,2.52,32.3Z"/></g></svg>