<svg id="Icons" xmlns="http://www.w3.org/2000/svg" viewBox="0 0 48 48"><defs><style>.cls-1,.cls-5{fill:#ff6242;}.cls-2{fill:#ff866e;}.cls-3{fill:none;}.cls-3,.cls-4,.cls-5,.cls-6{stroke:#45413c;stroke-linecap:round;stroke-linejoin:round;}.cls-4{fill:#fff;}.cls-6,.cls-7{fill:#00b8f0;}.cls-8{fill:#4acfff;}.cls-9{fill:#009fd9;}.cls-10{fill:#45413c;opacity:0.15;}</style></defs><title>674-direct-hit</title><g id="_Group_" data-name="&lt;Group&gt;"><circle id="_Path_" data-name="&lt;Path&gt;" class="cls-1" cx="24" cy="24" r="18.61"/><path id="_Path_2" data-name="&lt;Path&gt;" class="cls-2" d="M24,9.18A18.62,18.62,0,0,1,42.52,25.9c.06-.63.09-1.26.09-1.9A18.61,18.61,0,0,0,5.39,24c0,.64,0,1.27.09,1.9A18.62,18.62,0,0,1,24,9.18Z"/><circle id="_Path_3" data-name="&lt;Path&gt;" class="cls-3" cx="24" cy="24" r="18.61"/><circle id="_Path_4" data-name="&lt;Path&gt;" class="cls-4" cx="24" cy="24" r="14.1"/><circle id="_Path_5" data-name="&lt;Path&gt;" class="cls-5" cx="24" cy="24" r="9.59"/><circle id="_Path_6" data-name="&lt;Path&gt;" class="cls-4" cx="24" cy="24" r="4.51"/><path id="_Path_7" data-name="&lt;Path&gt;" class="cls-6" d="M38.24,38a1.12,1.12,0,0,1-1.59,0L23.49,24.8a1.13,1.13,0,0,1,0-1.6,1.12,1.12,0,0,1,1.59,0L38.24,36.36A1.13,1.13,0,0,1,38.24,38Z"/><path id="_Path_8" data-name="&lt;Path&gt;" class="cls-7" d="M30.27,28.38s6.65-1.76,10.37.8c3.54,2.45,1.72,5.76-.8,6.38-2.08.52-4-1.59-4-1.59Z"/><path id="_Path_9" data-name="&lt;Path&gt;" class="cls-8" d="M40.64,32a5,5,0,0,1,1.61,1.73c.69-1.32.49-3.07-1.61-4.52-3.72-2.56-10.37-.8-10.37-.8l2.36,2.36C34.9,30.46,38.34,30.38,40.64,32Z"/><path id="_Path_10" data-name="&lt;Path&gt;" class="cls-3" d="M30.27,28.38s6.65-1.76,10.37.8c3.54,2.45,1.72,5.76-.8,6.38-2.08.52-4-1.59-4-1.59Z"/><path id="_Path_11" data-name="&lt;Path&gt;" class="cls-7" d="M28.68,30s-1.76,6.65.8,10.37c2.44,3.54,5.76,1.72,6.38-.8.52-2.09-1.59-4-1.59-4Z"/><path id="_Path_12" data-name="&lt;Path&gt;" class="cls-9" d="M35.53,40.44a3.81,3.81,0,0,0,.33-.87c.52-2.09-1.59-4-1.59-4L28.68,30a21.92,21.92,0,0,0-.51,3.09Z"/><path id="_Path_13" data-name="&lt;Path&gt;" class="cls-3" d="M28.68,30s-1.76,6.65.8,10.37c2.44,3.54,5.76,1.72,6.38-.8.52-2.09-1.59-4-1.59-4Z"/><ellipse id="_Ellipse_" data-name="&lt;Ellipse&gt;" class="cls-10" cx="24" cy="45.31" rx="12.97" ry="1.69"/></g></svg>