<svg id="Icons" xmlns="http://www.w3.org/2000/svg" viewBox="0 0 48 48"><defs><style>.cls-1{fill:#daedf7;}.cls-1,.cls-4{stroke:#45413c;stroke-linecap:round;stroke-linejoin:round;}.cls-2{fill:#00f5bc;}.cls-3{fill:#8cffe4;}.cls-4{fill:none;}.cls-5{fill:#e8f4fa;}.cls-6{fill:#c0dceb;}.cls-7{fill:#45413c;opacity:0.15;}.cls-8{fill:#00dba8;}</style></defs><title>677-skis</title><path class="cls-1" d="M39.29,35.07l-.82-3.21-1.9.49.81,3.2a1,1,0,0,0,1.91-.48Z"/><path class="cls-2" d="M33.68,8.77a9.58,9.58,0,0,1-1.34-3L31.8,3.63a1,1,0,0,0-1.25-.74l-.88.23a1,1,0,0,0-.74,1.24l.54,2.12a9.62,9.62,0,0,1,.27,3.29.46.46,0,0,0,.57.49l3.1-.79A.47.47,0,0,0,33.68,8.77Z"/><path id="_Path_" data-name="&lt;Path&gt;" class="cls-3" d="M33.68,8.77a9.58,9.58,0,0,1-1.34-3L31.8,3.63a1,1,0,0,0-1.25-.74l-.88.23a1,1,0,0,0-.74,1.24l.2.8L29.74,5A1,1,0,0,1,31,5.74l.54,2.12a9.93,9.93,0,0,0,.7,1.91l1.18-.3A.47.47,0,0,0,33.68,8.77Z"/><path class="cls-4" d="M33.68,8.77a9.58,9.58,0,0,1-1.34-3L31.8,3.63a1,1,0,0,0-1.25-.74l-.88.23a1,1,0,0,0-.74,1.24l.54,2.12a9.62,9.62,0,0,1,.27,3.29.46.46,0,0,0,.57.49l3.1-.79A.47.47,0,0,0,33.68,8.77Z"/><path class="cls-5" d="M38.23,30.91,32.81,9.62l-1.9.48,5.42,21.3a1,1,0,0,0,1.19.7A1,1,0,0,0,38.23,30.91Z"/><rect id="_Path_2" data-name="&lt;Path&gt;" class="cls-6" x="31.19" y="9.82" width="1.96" height="2.51" transform="translate(-1.74 8.27) rotate(-14.27)"/><path id="_Path_3" data-name="&lt;Path&gt;" class="cls-4" d="M37.52,32.1h0a1,1,0,0,1-1.19-.7L30.91,10.1l1.9-.48,5.42,21.29A1,1,0,0,1,37.52,32.1Z"/><ellipse id="_Ellipse_" data-name="&lt;Ellipse&gt;" class="cls-7" cx="24" cy="44.47" rx="11.76" ry="1.53"/><path id="_Path_4" data-name="&lt;Path&gt;" class="cls-8" d="M28.61,41.27h0a6.87,6.87,0,0,1-4.86-2.55L9.91,21.49a11.29,11.29,0,0,1-2-3.93h0a1.44,1.44,0,0,1,.7-1.67h0a1.45,1.45,0,0,1,1.91.5h0a16.09,16.09,0,0,0,1.65,2.19L28.55,37.05a2.47,2.47,0,0,0,2.14.8l.27,0A1.28,1.28,0,0,1,32,40h0A4.38,4.38,0,0,1,28.61,41.27Z"/><path id="_Path_5" data-name="&lt;Path&gt;" class="cls-2" d="M8.29,18.77a1.35,1.35,0,0,1,.27-.2,1.45,1.45,0,0,1,1.91.5,16.83,16.83,0,0,0,1.65,2.2L28.55,39.74a2.47,2.47,0,0,0,2.14.8,2,2,0,0,1,.69,0A4.78,4.78,0,0,0,32,40h0A1.28,1.28,0,0,0,31,37.82l-.27,0a2.47,2.47,0,0,1-2.14-.8L12.12,18.58a16.09,16.09,0,0,1-1.65-2.19,1.44,1.44,0,0,0-2.61,1.17A10.9,10.9,0,0,0,8.29,18.77Z"/><path id="_Path_6" data-name="&lt;Path&gt;" class="cls-4" d="M28.61,41.27h0a6.87,6.87,0,0,1-4.86-2.55L9.91,21.49a11.29,11.29,0,0,1-2-3.93h0a1.44,1.44,0,0,1,.7-1.67h0a1.45,1.45,0,0,1,1.91.5h0a16.09,16.09,0,0,0,1.65,2.19L28.55,37.05a2.47,2.47,0,0,0,2.14.8l.27,0A1.28,1.28,0,0,1,32,40h0A4.38,4.38,0,0,1,28.61,41.27Z"/><path id="_Path_7" data-name="&lt;Path&gt;" class="cls-8" d="M38.44,33.29h0A6.84,6.84,0,0,1,33.1,32L15.4,18.8a11.39,11.39,0,0,1-3-3.3h0a1.44,1.44,0,0,1,.26-1.79h0a1.44,1.44,0,0,1,2,0h0a16.81,16.81,0,0,0,2.15,1.71L37.34,29.22a2.44,2.44,0,0,0,2.27.25l.25-.1a1.28,1.28,0,0,1,1.57,1.83h0A4.35,4.35,0,0,1,38.44,33.29Z"/><path id="_Path_8" data-name="&lt;Path&gt;" class="cls-2" d="M12.44,15.5l.2.32.06-.07a1.45,1.45,0,0,1,2,0h0a16.88,16.88,0,0,0,2.15,1.72L37.34,31.27a2.44,2.44,0,0,0,2.27.24l.25-.1a1.26,1.26,0,0,1,1.29.21c.1-.13.19-.28.28-.42a1.28,1.28,0,0,0-1.57-1.83l-.25.1a2.45,2.45,0,0,1-2.27-.25L16.82,15.43a16.81,16.81,0,0,1-2.15-1.71h0a1.44,1.44,0,0,0-2.23,1.78Z"/><path id="_Path_9" data-name="&lt;Path&gt;" class="cls-4" d="M38.44,33.29h0A6.84,6.84,0,0,1,33.1,32L15.4,18.8a11.39,11.39,0,0,1-3-3.3h0a1.44,1.44,0,0,1,.26-1.79h0a1.44,1.44,0,0,1,2,0h0a16.81,16.81,0,0,0,2.15,1.71L37.34,29.22a2.44,2.44,0,0,0,2.27.25l.25-.1a1.28,1.28,0,0,1,1.57,1.83h0A4.35,4.35,0,0,1,38.44,33.29Z"/><path class="cls-1" d="M14.69,36.62,14,39.86a1,1,0,0,0,1.92.4L16.61,37Z"/><path class="cls-2" d="M22.46,14.17a9.89,9.89,0,0,1,.12-3.3L23,8.73a1,1,0,0,0-.79-1.21l-.89-.19a1,1,0,0,0-1.21.79l-.45,2.15a10,10,0,0,1-1.21,3.07.45.45,0,0,0,.3.68l3.13.66A.46.46,0,0,0,22.46,14.17Z"/><path id="_Path_10" data-name="&lt;Path&gt;" class="cls-3" d="M20.76,11.84l.45-2.15a1,1,0,0,1,1.21-.79L23,9,23,8.73a1,1,0,0,0-.79-1.21l-.89-.19a1,1,0,0,0-1.21.79l-.45,2.15a10,10,0,0,1-1.21,3.07.45.45,0,0,0,.3.68l1.13.24A9.55,9.55,0,0,0,20.76,11.84Z"/><path class="cls-4" d="M22.46,14.17a9.89,9.89,0,0,1,.12-3.3L23,8.73a1,1,0,0,0-.79-1.21l-.89-.19a1,1,0,0,0-1.21.79l-.45,2.15a10,10,0,0,1-1.21,3.07.45.45,0,0,0,.3.68l3.13.66A.46.46,0,0,0,22.46,14.17Z"/><path id="_Path_11" data-name="&lt;Path&gt;" class="cls-4" d="M20.14,8.12s-2.95,1.05-3.29,2.68a1.33,1.33,0,0,0,2.24,1.35"/><path id="_Path_12" data-name="&lt;Path&gt;" class="cls-2" d="M18.74,37.34C18.52,38.4,17,39,15.27,38.61s-2.88-1.5-2.66-2.55,1.77-1.62,3.46-1.27S19,36.29,18.74,37.34Z"/><path id="_Path_13" data-name="&lt;Path&gt;" class="cls-3" d="M16.07,36.35a3.72,3.72,0,0,1,2.44,1.49,1.34,1.34,0,0,0,.23-.5c.22-1.05-1-2.19-2.67-2.55s-3.24.22-3.46,1.27a1.41,1.41,0,0,0,.22,1.06A3.27,3.27,0,0,1,16.07,36.35Z"/><path id="_Path_14" data-name="&lt;Path&gt;" class="cls-4" d="M18.74,37.34C18.52,38.4,17,39,15.27,38.61s-2.88-1.5-2.66-2.55,1.77-1.62,3.46-1.27S19,36.29,18.74,37.34Z"/><path class="cls-5" d="M19.39,14.15l-4.5,21.51a1,1,0,0,0,1.92.4l4.5-21.51Z"/><rect id="_Path_15" data-name="&lt;Path&gt;" class="cls-6" x="18.71" y="14.7" width="2.72" height="1.96" transform="translate(0.61 32.11) rotate(-78.18)"/><path class="cls-4" d="M19.39,14.15l-4.5,21.51a1,1,0,0,0,1.92.4l4.5-21.51Z"/></svg>