<svg id="Icons" xmlns="http://www.w3.org/2000/svg" viewBox="0 0 48 48"><defs><style>.cls-1{fill:#525252;}.cls-2{fill:#45413c;opacity:0.15;}.cls-3{fill:#656769;}.cls-4{fill:none;stroke:#45413c;stroke-linecap:round;stroke-linejoin:round;}</style></defs><title>679-spade-suit</title><g id="_Group_" data-name="&lt;Group&gt;"><path id="_Path_" data-name="&lt;Path&gt;" class="cls-1" d="M31.5,41.5a1,1,0,0,0,1-1,1,1,0,0,0-.95-1c-5.95-.56-4.95-6.35-4.95-6.35a8.44,8.44,0,0,0,5.9,2.39c6,0,8.5-5.93,8.5-10.62C41,12.18,28.61,4.12,25,2a2,2,0,0,0-2,0C19.39,4.12,7,12.18,7,24.88,7,29.57,9.55,35.5,15.5,35.5a8.44,8.44,0,0,0,5.9-2.39s1,5.79-4.95,6.35a1,1,0,0,0-.95,1,1,1,0,0,0,1,1Z"/><ellipse id="_Ellipse_" data-name="&lt;Ellipse&gt;" class="cls-2" cx="24" cy="45.5" rx="11.5" ry="1.5"/><path id="_Path_2" data-name="&lt;Path&gt;" class="cls-3" d="M23,7a2,2,0,0,1,2,0C28.35,9,39.23,16,40.81,27.15A13.72,13.72,0,0,0,41,24.88C41,12.18,28.62,4.13,25,2a2,2,0,0,0-2,0C19.38,4.13,7,12.18,7,24.88a13.72,13.72,0,0,0,.19,2.27C8.77,16,19.65,9,23,7Z"/><path id="_Path_3" data-name="&lt;Path&gt;" class="cls-4" d="M31.5,41.5a1,1,0,0,0,1-1,1,1,0,0,0-.95-1c-5.95-.56-4.95-6.35-4.95-6.35a8.44,8.44,0,0,0,5.9,2.39c6,0,8.5-5.93,8.5-10.62C41,12.18,28.61,4.12,25,2a2,2,0,0,0-2,0C19.39,4.12,7,12.18,7,24.88,7,29.57,9.55,35.5,15.5,35.5a8.44,8.44,0,0,0,5.9-2.39s1,5.79-4.95,6.35a1,1,0,0,0-.95,1,1,1,0,0,0,1,1Z"/></g></svg>