<svg id="Icons" xmlns="http://www.w3.org/2000/svg" viewBox="0 0 48 48"><defs><style>.cls-1{fill:#45413c;opacity:0.15;}.cls-2{fill:#ff6242;}.cls-3{fill:#ff866e;}.cls-4{fill:none;stroke:#45413c;stroke-linecap:round;stroke-linejoin:round;}</style></defs><title>681-diamond-suit</title><g id="_Group_" data-name="&lt;Group&gt;"><ellipse id="_Ellipse_" data-name="&lt;Ellipse&gt;" class="cls-1" cx="24" cy="45.5" rx="11.5" ry="1.5"/><g id="_Group_2" data-name="&lt;Group&gt;"><path id="_Path_" data-name="&lt;Path&gt;" class="cls-2" d="M23.2,42.1,9,23.26a1,1,0,0,1,0-1.2L23.2,3.21a1,1,0,0,1,1.6,0L39,22.06a1,1,0,0,1,0,1.2L24.8,42.1A1,1,0,0,1,23.2,42.1Z"/><path id="_Path_2" data-name="&lt;Path&gt;" class="cls-3" d="M10.39,25.16,23.2,8.21a1,1,0,0,1,1.6,0l12.81,17L39,23.26a1,1,0,0,0,0-1.2L24.8,3.21a1,1,0,0,0-1.6,0L9,22.06a1,1,0,0,0,0,1.2Z"/><path id="_Path_3" data-name="&lt;Path&gt;" class="cls-4" d="M23.2,42.1,9,23.26a1,1,0,0,1,0-1.2L23.2,3.21a1,1,0,0,1,1.6,0L39,22.06a1,1,0,0,1,0,1.2L24.8,42.1A1,1,0,0,1,23.2,42.1Z"/></g></g></svg>