<svg id="Icons" xmlns="http://www.w3.org/2000/svg" viewBox="0 0 48 48"><defs><style>.cls-1{fill:#525252;}.cls-2{fill:#45413c;opacity:0.15;}.cls-3{fill:#656769;}.cls-4{fill:none;stroke:#45413c;stroke-linecap:round;stroke-linejoin:round;}</style></defs><title>682-club-suit</title><g id="_Group_" data-name="&lt;Group&gt;"><path id="_Compound_Path_" data-name="&lt;Compound Path&gt;" class="cls-1" d="M34.05,16.05a10.5,10.5,0,1,0-20.1,0,10.5,10.5,0,1,0,7.51,18.73,5.1,5.1,0,0,1-5,5.68,1,1,0,0,0-.95,1,1,1,0,0,0,1,1h15a1,1,0,0,0,1-1,1,1,0,0,0-.95-1,5.1,5.1,0,0,1-5-5.68,10.5,10.5,0,1,0,7.51-18.73Z"/><ellipse id="_Ellipse_" data-name="&lt;Ellipse&gt;" class="cls-2" cx="24" cy="45.5" rx="11.5" ry="1.5"/><path id="_Path_" data-name="&lt;Path&gt;" class="cls-3" d="M24,7.5a10.5,10.5,0,0,1,10.2,8,10.31,10.31,0,0,0,.3-2.5,10.5,10.5,0,0,0-21,0,10.31,10.31,0,0,0,.3,2.5A10.5,10.5,0,0,1,24,7.5Z"/><path id="_Compound_Path_2" data-name="&lt;Compound Path&gt;" class="cls-4" d="M34.05,16.05a10.5,10.5,0,1,0-20.1,0,10.5,10.5,0,1,0,7.51,18.73,5.1,5.1,0,0,1-5,5.68,1,1,0,0,0-.95,1,1,1,0,0,0,1,1h15a1,1,0,0,0,1-1,1,1,0,0,0-.95-1,5.1,5.1,0,0,1-5-5.68,10.5,10.5,0,1,0,7.51-18.73Z"/></g></svg>