<svg id="Icons" xmlns="http://www.w3.org/2000/svg" viewBox="0 0 48 48"><defs><style>.cls-1{fill:#e8f4fa;}.cls-2{fill:#fff;}.cls-3{fill:none;}.cls-3,.cls-8{stroke:#45413c;stroke-linecap:round;stroke-linejoin:round;}.cls-4{fill:#45413c;opacity:0.15;}.cls-5{fill:#c0dceb;}.cls-6{fill:#e0e0e0;}.cls-7{fill:#f0f0f0;}.cls-8{fill:#ff6242;}</style></defs><title>684-muted-speaker</title><g id="_Group_" data-name="&lt;Group&gt;"><path id="_Path_" data-name="&lt;Path&gt;" class="cls-1" d="M10.09,21.25,4.23,24.1c-1.3.65-.18,5.59,1.8,9.61s5.22,7.93,6.52,7.29l5.85-2.88Z"/><path class="cls-2" d="M10.09,21.25,4.23,24.1c-.76.38-.69,2.23-.1,4.51l7.71-3.8Z"/><path id="_Path_2" data-name="&lt;Path&gt;" class="cls-3" d="M10.09,21.25,4.23,24.1c-1.3.65-.18,5.59,1.8,9.61s5.22,7.93,6.52,7.29l5.85-2.88Z"/><ellipse id="_Ellipse_" data-name="&lt;Ellipse&gt;" class="cls-4" cx="24" cy="43.05" rx="16.86" ry="1.95"/><path id="_Path_3" data-name="&lt;Path&gt;" class="cls-5" d="M34,40.3,17.46,6.73l-1.35-.81-6,15.2c-.38,1.61.93,5.95,2.56,9.27s4.28,7,5.79,7.69l15.78,4.49Z"/><path id="_Path_4" data-name="&lt;Path&gt;" class="cls-1" d="M20.74,13.39,17.46,6.73l-1.35-.81-6,15.2a10.12,10.12,0,0,0,.61,4.26Z"/><path id="_Path_5" data-name="&lt;Path&gt;" class="cls-3" d="M34,40.3,17.46,6.73l-1.35-.81-6,15.2c-.38,1.61.93,5.95,2.56,9.27s4.28,7,5.79,7.69l15.78,4.49Z"/><path id="_Path_6" data-name="&lt;Path&gt;" class="cls-1" d="M35.69,42.29c-4.1,2-11.55-4.72-16.64-15.06S13.16,6.88,17.26,4.86,28.81,9.58,33.9,19.92,39.79,40.27,35.69,42.29Z"/><path id="_Path_7" data-name="&lt;Path&gt;" class="cls-2" d="M17.26,8.26c4.1-2,11.55,4.73,16.64,15.06a41.87,41.87,0,0,1,4.33,14.16c.45-4.34-1-10.88-4.33-17.56C28.81,9.58,21.36,2.84,17.26,4.86c-2.08,1-2.9,4.09-2.54,8.21C15,10.69,15.81,9,17.26,8.26Z"/><path id="_Path_8" data-name="&lt;Path&gt;" class="cls-3" d="M35.69,42.29c-4.1,2-11.55-4.72-16.64-15.06S13.16,6.88,17.26,4.86,28.81,9.58,33.9,19.92,39.79,40.27,35.69,42.29Z"/><path id="_Path_9" data-name="&lt;Path&gt;" class="cls-6" d="M34.55,40c-2.94,1.44-8.93-4.73-13.39-13.78s-5.69-17.57-2.76-19S27.33,11.9,31.78,21,37.48,38.53,34.55,40Z"/><path id="_Path_10" data-name="&lt;Path&gt;" class="cls-7" d="M18.4,12.28c2.93-1.44,8.93,4.73,13.38,13.79a44.1,44.1,0,0,1,4.1,12c.9-3.3-.61-10-4.1-17.11C27.33,11.9,21.33,5.73,18.4,7.18c-1.51.74-1.92,3.38-1.33,7A2.81,2.81,0,0,1,18.4,12.28Z"/><path id="_Path_11" data-name="&lt;Path&gt;" class="cls-3" d="M34.55,40c-2.94,1.44-8.93-4.73-13.39-13.78s-5.69-17.57-2.76-19S27.33,11.9,31.78,21,37.48,38.53,34.55,40Z"/><path id="_Path_12" data-name="&lt;Path&gt;" class="cls-1" d="M25.19,24.21c-2-4.07-4.8-4.53-5.8-4a1,1,0,0,0-.48.78,57,57,0,0,0,2.25,5.24,55.16,55.16,0,0,0,2.78,5,1,1,0,0,0,.91.09C25.84,30.77,27.2,28.28,25.19,24.21Z"/><path id="_Path_13" data-name="&lt;Path&gt;" class="cls-2" d="M25.74,27.1a9.1,9.1,0,0,1,.49,1.14,8.75,8.75,0,0,0-1-4c-2-4.07-4.8-4.53-5.8-4a1,1,0,0,0-.48.78c.27.72.56,1.47.88,2.22C21.07,22.78,23.88,23.31,25.74,27.1Z"/><path id="_Path_14" data-name="&lt;Path&gt;" class="cls-3" d="M25.19,24.21c-2-4.07-4.8-4.53-5.8-4a1,1,0,0,0-.48.78,57,57,0,0,0,2.25,5.24,55.16,55.16,0,0,0,2.78,5,1,1,0,0,0,.91.09C25.84,30.77,27.2,28.28,25.19,24.21Z"/><path class="cls-8" d="M44.53,43.29,6.47,5.24a1.62,1.62,0,0,0-2.3,2.29L42.23,45.59a1.63,1.63,0,0,0,2.3-2.3Z"/></g></svg>