<svg id="Icons" xmlns="http://www.w3.org/2000/svg" viewBox="0 0 48 48"><defs><style>.cls-1{fill:#45413c;opacity:0.15;}.cls-2,.cls-4{fill:#fff48c;}.cls-2,.cls-5{stroke:#45413c;stroke-linecap:round;stroke-linejoin:round;}.cls-3{fill:#ffe500;}.cls-5{fill:none;}.cls-6{fill:#ebcb00;}</style></defs><title>685-bell</title><g id="_Group_" data-name="&lt;Group&gt;"><ellipse id="_Ellipse_" data-name="&lt;Ellipse&gt;" class="cls-1" cx="24" cy="45.01" rx="15.29" ry="1.99"/><circle id="_Path_" data-name="&lt;Path&gt;" class="cls-2" cx="24" cy="6.25" r="2.66"/><path id="_Path_2" data-name="&lt;Path&gt;" class="cls-3" d="M42.62,35.51c0-3.44-3.77-5.71-5.32-8.64s-.83-7.76-2.66-13.3S27.77,6.92,24,6.92,15.19,8,13.36,13.57s-1.11,10.36-2.66,13.3-5.32,5.2-5.32,8.64Z"/><g id="_Group_2" data-name="&lt;Group&gt;"><path id="_Path_3" data-name="&lt;Path&gt;" class="cls-4" d="M24,11.57c4.1,0,9.55,1.08,11.66,6.38a26.44,26.44,0,0,0-1-4.38C32.81,8,27.77,6.92,24,6.92S15.19,8,13.36,13.57a26.57,26.57,0,0,0-1,4.37C14.45,12.65,19.9,11.57,24,11.57Z"/></g><path id="_Path_4" data-name="&lt;Path&gt;" class="cls-5" d="M42.62,35.51c0-3.44-3.77-5.71-5.32-8.64s-.83-7.76-2.66-13.3S27.77,6.92,24,6.92,15.19,8,13.36,13.57s-1.11,10.36-2.66,13.3-5.32,5.2-5.32,8.64Z"/><ellipse id="_Path_5" data-name="&lt;Path&gt;" class="cls-3" cx="24" cy="35.51" rx="18.62" ry="1.99"/><path class="cls-6" d="M24,33.52c-10.28,0-18.62.89-18.62,2,0,.36.91.71,2.5,1a102.44,102.44,0,0,1,16.12-1,102.44,102.44,0,0,1,16.12,1c1.59-.29,2.5-.64,2.5-1C42.62,34.41,34.28,33.52,24,33.52Z"/><ellipse id="_Path_6" data-name="&lt;Path&gt;" class="cls-5" cx="24" cy="35.51" rx="18.62" ry="1.99"/><path id="_Path_7" data-name="&lt;Path&gt;" class="cls-3" d="M24,33.52c-1.19,0-2.33,0-3.46,0a4,4,0,1,0,6.92,0C26.33,33.53,25.19,33.52,24,33.52Z"/><path id="_Path_8" data-name="&lt;Path&gt;" class="cls-6" d="M24,36.06c1.35,0,2.65,0,3.93,0a3.68,3.68,0,0,0,.06-.58,4,4,0,0,0-.53-2c-1.13,0-2.27,0-3.46,0s-2.33,0-3.46,0a4,4,0,0,0-.53,2,3.68,3.68,0,0,0,.06.58C21.35,36.08,22.65,36.06,24,36.06Z"/><path id="_Path_9" data-name="&lt;Path&gt;" class="cls-5" d="M24,33.52c-1.19,0-2.33,0-3.46,0a4,4,0,1,0,6.92,0C26.33,33.53,25.19,33.52,24,33.52Z"/></g></svg>