<svg id="Icons" xmlns="http://www.w3.org/2000/svg" viewBox="0 0 48 48"><defs><style>.cls-1{fill:#45413c;opacity:0.15;}.cls-2,.cls-4{fill:#fff48c;}.cls-2,.cls-5,.cls-7{stroke:#45413c;stroke-linecap:round;stroke-linejoin:round;}.cls-3{fill:#ffe500;}.cls-5{fill:none;}.cls-6{fill:#ebcb00;}.cls-7{fill:#ff6242;}</style></defs><title>686-bell-with-slash</title><ellipse id="_Ellipse_" data-name="&lt;Ellipse&gt;" class="cls-1" cx="24" cy="45.21" rx="13.74" ry="1.79"/><circle id="_Path_" data-name="&lt;Path&gt;" class="cls-2" cx="24" cy="7.39" r="2.39"/><path id="_Path_2" data-name="&lt;Path&gt;" class="cls-3" d="M40.73,33.67c0-3.08-3.39-5.13-4.78-7.76s-.75-7-2.39-11.95S27.39,8,24,8s-7.92,1-9.56,6-1,9.31-2.39,12-4.78,4.68-4.78,7.76Z"/><g id="_Group_" data-name="&lt;Group&gt;"><path id="_Path_3" data-name="&lt;Path&gt;" class="cls-4" d="M24,12.17c3.68,0,8.58,1,10.48,5.72A25.15,25.15,0,0,0,33.56,14C31.92,9,27.39,8,24,8s-7.92,1-9.56,6a25.15,25.15,0,0,0-.92,3.93C15.42,13.14,20.32,12.17,24,12.17Z"/></g><path id="_Path_4" data-name="&lt;Path&gt;" class="cls-5" d="M40.73,33.67c0-3.08-3.39-5.13-4.78-7.76s-.75-7-2.39-11.95S27.39,8,24,8s-7.92,1-9.56,6-1,9.31-2.39,12-4.78,4.68-4.78,7.76Z"/><ellipse id="_Path_5" data-name="&lt;Path&gt;" class="cls-3" cx="24" cy="33.67" rx="16.73" ry="1.79"/><path class="cls-6" d="M9.51,34.57A92,92,0,0,1,24,33.67a92,92,0,0,1,14.49.9c1.42-.27,2.24-.57,2.24-.9,0-1-7.49-1.79-16.73-1.79s-16.73.8-16.73,1.79C7.27,34,8.09,34.3,9.51,34.57Z"/><ellipse id="_Path_6" data-name="&lt;Path&gt;" class="cls-5" cx="24" cy="33.67" rx="16.73" ry="1.79"/><path id="_Path_7" data-name="&lt;Path&gt;" class="cls-3" d="M24,31.88c-1.07,0-2.1,0-3.11,0a3.58,3.58,0,1,0,6.22,0C26.1,31.89,25.07,31.88,24,31.88Z"/><path id="_Path_8" data-name="&lt;Path&gt;" class="cls-6" d="M24,34.17c1.21,0,2.38,0,3.53,0a3.17,3.17,0,0,0,0-.53,3.57,3.57,0,0,0-.47-1.75c-1,0-2,0-3.11,0s-2.1,0-3.11,0a3.57,3.57,0,0,0-.47,1.75,3.17,3.17,0,0,0,0,.53C21.62,34.18,22.79,34.17,24,34.17Z"/><path id="_Path_9" data-name="&lt;Path&gt;" class="cls-5" d="M24,31.88c-1.07,0-2.1,0-3.11,0a3.58,3.58,0,1,0,6.22,0C26.1,31.89,25.07,31.88,24,31.88Z"/><path class="cls-7" d="M43.28,38.89,8.22,3.83A1.5,1.5,0,1,0,6.1,5.94L41.16,41a1.5,1.5,0,0,0,2.12-2.11Z"/></svg>