<svg id="Icons" xmlns="http://www.w3.org/2000/svg" viewBox="0 0 48 48"><defs><style>.cls-1{fill:#45413c;opacity:0.15;}.cls-2{fill:#87898c;}.cls-3{fill:#bdbec0;}.cls-4{fill:none;stroke:#45413c;stroke-linecap:round;stroke-linejoin:round;}</style></defs><title>689-musical-notes</title><ellipse id="_Ellipse_" data-name="&lt;Ellipse&gt;" class="cls-1" cx="24" cy="45.5" rx="13.5" ry="1.5"/><path id="_Path_" data-name="&lt;Path&gt;" class="cls-2" d="M35.82,2.3H34.57a1,1,0,0,0-1,1v11a4,4,0,0,0-3.24-.2A4.1,4.1,0,0,0,32.38,22a4.2,4.2,0,0,0,3.44-4.21V6.82c4.64,0,8.47,2,9.17,5.27a8.22,8.22,0,0,0,.13-1.41C45.12,5.78,41,2.3,35.82,2.3Z"/><g id="_Group_" data-name="&lt;Group&gt;"><path id="_Path_2" data-name="&lt;Path&gt;" class="cls-3" d="M34.57,4.39h1.25c4.76,0,8.67,3,9.22,7.31a6.9,6.9,0,0,0,.08-1c0-4.9-4.16-8.38-9.3-8.38H34.57a1,1,0,0,0-1,1V5.39A1,1,0,0,1,34.57,4.39Z"/><path id="_Path_3" data-name="&lt;Path&gt;" class="cls-3" d="M27.76,19a4.16,4.16,0,0,1,2.57-2.81,4.1,4.1,0,0,1,1.54-.25,1.63,1.63,0,0,0,1.7-1.63,4,4,0,0,0-3.24-.2A4.07,4.07,0,0,0,27.76,19Z"/></g><path id="_Path_4" data-name="&lt;Path&gt;" class="cls-4" d="M35.82,2.3H34.57a1,1,0,0,0-1,1v11a4,4,0,0,0-3.24-.2A4.1,4.1,0,0,0,32.38,22a4.2,4.2,0,0,0,3.44-4.21V6.82c4.64,0,8.47,2,9.17,5.27a8.22,8.22,0,0,0,.13-1.41C45.12,5.78,41,2.3,35.82,2.3Z"/><path id="_Path_5" data-name="&lt;Path&gt;" class="cls-2" d="M24.1,24.55H22.84a1,1,0,0,0-1,1v11a3.94,3.94,0,0,0-3.23-.2,4.1,4.1,0,0,0,2.05,7.9A4.2,4.2,0,0,0,24.1,40V29.07c4.63,0,8.46,2,9.17,5.27a8.22,8.22,0,0,0,.13-1.41C33.4,28,29.24,24.55,24.1,24.55Z"/><g id="_Group_2" data-name="&lt;Group&gt;"><path id="_Path_6" data-name="&lt;Path&gt;" class="cls-3" d="M21.84,27.64a1,1,0,0,1,1-1H24.1c4.75,0,8.66,3,9.22,7.31a8.59,8.59,0,0,0,.08-1c0-4.9-4.16-8.38-9.3-8.38H22.84a1,1,0,0,0-1,1Z"/><path id="_Path_7" data-name="&lt;Path&gt;" class="cls-3" d="M16,41.21a4.13,4.13,0,0,1,2.57-2.81,4,4,0,0,1,1.56-.25,1.6,1.6,0,0,0,1.67-1.6v0a3.94,3.94,0,0,0-3.23-.2A4.11,4.11,0,0,0,16,39.41,4,4,0,0,0,16,41.21Z"/></g><path id="_Path_8" data-name="&lt;Path&gt;" class="cls-4" d="M24.1,24.55H22.84a1,1,0,0,0-1,1v11a3.94,3.94,0,0,0-3.23-.2,4.1,4.1,0,0,0,2.05,7.9A4.2,4.2,0,0,0,24.1,40V29.07c4.63,0,8.46,2,9.17,5.27a8.22,8.22,0,0,0,.13-1.41C33.4,28,29.24,24.55,24.1,24.55Z"/><path id="_Path_9" data-name="&lt;Path&gt;" class="cls-2" d="M13.1,4.84H11.84a1,1,0,0,0-1,1v11a3.9,3.9,0,0,0-3.23-.21,4.1,4.1,0,0,0,2.05,7.9,4.2,4.2,0,0,0,3.44-4.21V9.35c4.63,0,8.46,2,9.17,5.27a8.1,8.1,0,0,0,.13-1.4C22.4,8.31,18.24,4.84,13.1,4.84Z"/><g id="_Group_3" data-name="&lt;Group&gt;"><path id="_Path_10" data-name="&lt;Path&gt;" class="cls-3" d="M11.84,6.92H13.1c4.75,0,8.66,3,9.22,7.31a8.42,8.42,0,0,0,.08-1c0-4.91-4.16-8.38-9.3-8.38H11.84a1,1,0,0,0-1,1V7.92A1,1,0,0,1,11.84,6.92Z"/><path id="_Path_11" data-name="&lt;Path&gt;" class="cls-3" d="M5,21.49a4.13,4.13,0,0,1,2.57-2.81,4.31,4.31,0,0,1,1.54-.25,1.62,1.62,0,0,0,1.69-1.62,3.9,3.9,0,0,0-3.23-.21A4.11,4.11,0,0,0,5,19.69,4,4,0,0,0,5,21.49Z"/></g><path id="_Path_12" data-name="&lt;Path&gt;" class="cls-4" d="M13.1,4.84H11.84a1,1,0,0,0-1,1v11a3.9,3.9,0,0,0-3.23-.21,4.1,4.1,0,0,0,2.05,7.9,4.2,4.2,0,0,0,3.44-4.21V9.35c4.63,0,8.46,2,9.17,5.27a8.1,8.1,0,0,0,.13-1.4C22.4,8.31,18.24,4.84,13.1,4.84Z"/></svg>