<svg id="Icons" xmlns="http://www.w3.org/2000/svg" viewBox="0 0 48 48"><defs><style>.cls-1{fill:#bdbec0;}.cls-2{fill:#e0e0e0;}.cls-3{fill:none;}.cls-10,.cls-11,.cls-3,.cls-4,.cls-9{stroke:#45413c;stroke-linecap:round;stroke-linejoin:round;}.cls-4,.cls-8{fill:#87898c;}.cls-5{fill:#45413c;opacity:0.15;}.cls-6{fill:#c0dceb;}.cls-7,.cls-9{fill:#daedf7;}.cls-10{fill:#8ca4b8;}.cls-11{fill:#e8f4fa;}</style></defs><title>690-microphone</title><g id="_Group_" data-name="&lt;Group&gt;"><path id="_Rectangle_" data-name="&lt;Rectangle&gt;" class="cls-1" d="M8.7,35.44h5a0,0,0,0,1,0,0v3.5a1,1,0,0,1-1,1h-3a1,1,0,0,1-1-1v-3.5a0,0,0,0,1,0,0Z" transform="translate(29.93 3.12) rotate(45)"/><path id="_Path_" data-name="&lt;Path&gt;" class="cls-2" d="M12.71,36,9.53,39.2l-1-1a1,1,0,0,1,0-1.41L11,34.33Z"/><path id="_Rectangle_2" data-name="&lt;Rectangle&gt;" class="cls-3" d="M8.7,35.44h5a0,0,0,0,1,0,0v3.5a1,1,0,0,1-1,1h-3a1,1,0,0,1-1-1v-3.5a0,0,0,0,1,0,0Z" transform="translate(29.93 3.12) rotate(45)"/><path class="cls-4" d="M8.87,38.54l-2.8,2.81a1,1,0,0,0,1.41,1.41l2.8-2.8Z"/><ellipse id="_Ellipse_" data-name="&lt;Ellipse&gt;" class="cls-5" cx="20" cy="43.5" rx="12" ry="1.5"/><path id="_Path_2" data-name="&lt;Path&gt;" class="cls-6" d="M14.61,38,11,34.31A1,1,0,0,1,10.91,33L26.58,14.68a1,1,0,0,1,1.47-.06l6.25,6.25a1,1,0,0,1-.06,1.47L16,38A1,1,0,0,1,14.61,38Z"/><path id="_Path_3" data-name="&lt;Path&gt;" class="cls-7" d="M30,16.54l-1.92-1.92a1,1,0,0,0-1.47.06L10.91,33A1,1,0,0,0,11,34.31L12.69,36Z"/><path id="_Path_4" data-name="&lt;Path&gt;" class="cls-3" d="M14.61,38,11,34.31A1,1,0,0,1,10.91,33L26.58,14.68a1,1,0,0,1,1.47-.06l6.25,6.25a1,1,0,0,1-.06,1.47L16,38A1,1,0,0,1,14.61,38Z"/><circle id="_Path_5" data-name="&lt;Path&gt;" class="cls-8" cx="34" cy="14.83" r="8.5"/><path id="_Path_6" data-name="&lt;Path&gt;" class="cls-1" d="M28,12.82a8.5,8.5,0,0,1,12,0,8.39,8.39,0,0,1,2.24,4,8.49,8.49,0,1,0-16.5,0A8.39,8.39,0,0,1,28,12.82Z"/><circle id="_Path_7" data-name="&lt;Path&gt;" class="cls-3" cx="34" cy="14.83" r="8.5"/><path class="cls-9" d="M40.36,19.78,29.05,8.47a1,1,0,0,0-1.41,0,1,1,0,0,0,0,1.41L39,21.19a1,1,0,0,0,1.41-1.41Z"/><rect id="_Rectangle_3" data-name="&lt;Rectangle&gt;" class="cls-10" x="22.57" y="22.51" width="2" height="5.5" transform="translate(24.76 -9.27) rotate(45)"/><rect id="_Rectangle_4" data-name="&lt;Rectangle&gt;" class="cls-11" x="23.63" y="22.95" width="2" height="2.5" transform="translate(24.33 -10.33) rotate(45)"/></g></svg>