<svg id="Icons" xmlns="http://www.w3.org/2000/svg" viewBox="0 0 48 48"><defs><style>.cls-1{fill:#45413c;opacity:0.15;}.cls-10,.cls-2,.cls-3,.cls-4,.cls-5{fill:none;stroke-linecap:round;stroke-linejoin:round;}.cls-2{stroke:#48cf3e;}.cls-3{stroke:#ff4064;}.cls-4{stroke:#ffb700;}.cls-5{stroke:#00aed9;}.cls-6{fill:#e8f4fa;}.cls-7{fill:#fff;}.cls-11,.cls-8{fill:#c0dceb;}.cls-9{fill:#daedf7;}.cls-10,.cls-11{stroke:#45413c;}.cls-11{stroke-miterlimit:10;}</style></defs><title>691-headphone</title><ellipse id="_Ellipse_" data-name="&lt;Ellipse&gt;" class="cls-1" cx="14.43" cy="45.5" rx="9.43" ry="1.5"/><g id="_Group_" data-name="&lt;Group&gt;"><path id="_Path_" data-name="&lt;Path&gt;" class="cls-2" d="M34.94,15.55a1.51,1.51,0,1,1-1.52-1.49A1.5,1.5,0,0,1,34.94,15.55Z"/><path id="_Path_2" data-name="&lt;Path&gt;" class="cls-2" d="M42.43,14a1.5,1.5,0,1,1-1.51-1.49A1.5,1.5,0,0,1,42.43,14Z"/><polyline id="_Path_3" data-name="&lt;Path&gt;" class="cls-2" points="34.94 15.55 34.88 8.79 42.37 5.73 42.43 13.99"/></g><g id="_Group_2" data-name="&lt;Group&gt;"><path id="_Path_4" data-name="&lt;Path&gt;" class="cls-3" d="M33.27,44.66A1.64,1.64,0,1,1,31.62,43,1.63,1.63,0,0,1,33.27,44.66Z"/><polyline id="_Path_5" data-name="&lt;Path&gt;" class="cls-3" points="33.27 44.66 33.22 37.3 35.69 38.91"/></g><g id="_Group_3" data-name="&lt;Group&gt;"><path id="_Path_6" data-name="&lt;Path&gt;" class="cls-4" d="M5.06,33.64a1.28,1.28,0,1,1-1.29-1.27A1.28,1.28,0,0,1,5.06,33.64Z"/><polyline id="_Path_7" data-name="&lt;Path&gt;" class="cls-4" points="5.06 33.64 5.01 27.88 6.94 29.14"/></g><g id="_Group_4" data-name="&lt;Group&gt;"><line id="_Path_8" data-name="&lt;Path&gt;" class="cls-5" x1="27.79" y1="2.31" x2="27.79" y2="1.73"/><line id="_Path_9" data-name="&lt;Path&gt;" class="cls-5" x1="29.03" y1="2.82" x2="29.44" y2="2.4"/><line id="_Path_10" data-name="&lt;Path&gt;" class="cls-5" x1="29.55" y1="4.05" x2="30.14" y2="4.04"/><line id="_Path_11" data-name="&lt;Path&gt;" class="cls-5" x1="29.05" y1="5.29" x2="29.47" y2="5.7"/><line id="_Path_12" data-name="&lt;Path&gt;" class="cls-5" x1="27.82" y1="5.81" x2="27.83" y2="6.39"/><line id="_Path_13" data-name="&lt;Path&gt;" class="cls-5" x1="26.58" y1="5.31" x2="26.17" y2="5.72"/><line id="_Path_14" data-name="&lt;Path&gt;" class="cls-5" x1="26.06" y1="4.08" x2="25.48" y2="4.08"/><line id="_Path_15" data-name="&lt;Path&gt;" class="cls-5" x1="26.56" y1="2.84" x2="26.15" y2="2.43"/></g><g id="_Group_5" data-name="&lt;Group&gt;"><line id="_Path_16" data-name="&lt;Path&gt;" class="cls-5" x1="10.49" y1="44.59" x2="10.46" y2="41.48"/><line id="_Path_17" data-name="&lt;Path&gt;" class="cls-5" x1="8.92" y1="43.05" x2="12.03" y2="43.03"/></g><g id="_Group_6" data-name="&lt;Group&gt;"><line id="_Path_18" data-name="&lt;Path&gt;" class="cls-5" x1="40.22" y1="26.38" x2="40.2" y2="23.27"/><line id="_Path_19" data-name="&lt;Path&gt;" class="cls-5" x1="38.66" y1="24.84" x2="41.76" y2="24.82"/></g><g id="_Group_7" data-name="&lt;Group&gt;"><line id="_Path_20" data-name="&lt;Path&gt;" class="cls-5" x1="43.98" y1="40.18" x2="43.97" y2="38.63"/><line id="_Path_21" data-name="&lt;Path&gt;" class="cls-5" x1="43.2" y1="39.41" x2="44.75" y2="39.4"/></g><g id="_Group_8" data-name="&lt;Group&gt;"><line id="_Path_22" data-name="&lt;Path&gt;" class="cls-5" x1="4.56" y1="3.07" x2="4.55" y2="1.52"/><line id="_Path_23" data-name="&lt;Path&gt;" class="cls-5" x1="3.78" y1="2.3" x2="5.33" y2="2.29"/></g><g id="_Group_9" data-name="&lt;Group&gt;"><line id="_Path_24" data-name="&lt;Path&gt;" class="cls-5" x1="24.71" y1="26.17" x2="24.69" y2="24.61"/><line id="_Path_25" data-name="&lt;Path&gt;" class="cls-5" x1="23.92" y1="25.4" x2="25.48" y2="25.38"/></g><path id="_Path_26" data-name="&lt;Path&gt;" class="cls-6" d="M20.75,19.1a5.51,5.51,0,0,1-1.83.53l-5.06.54a1.86,1.86,0,0,0-1.47,2.67l9.49,19.28a2.23,2.23,0,0,1-1,3,2.15,2.15,0,0,1-2.89-1s-5.77-11.7-8.41-17A44,44,0,0,1,5.91,16.58a13.24,13.24,0,0,1,1-8.45A12.1,12.1,0,0,1,12.52,2.3a5.42,5.42,0,0,1,6.3,1.11,11.66,11.66,0,0,1,2.09,3l1.21,2.46a25.21,25.21,0,0,1,1.62,4.53A5.46,5.46,0,0,1,20.75,19.1Z"/><path class="cls-7" d="M7.72,20.93a13.22,13.22,0,0,1,1-8.45,12,12,0,0,1,5.65-5.83,5.4,5.4,0,0,1,6.3,1.11,11.61,11.61,0,0,1,2.09,3L23.36,12a26,26,0,0,0-1.24-3.17L20.91,6.39a11.66,11.66,0,0,0-2.09-3,5.42,5.42,0,0,0-6.3-1.11A12.1,12.1,0,0,0,6.87,8.13a13.24,13.24,0,0,0-1,8.45A43.88,43.88,0,0,0,9.34,26.64,39.54,39.54,0,0,1,7.72,20.93Z"/><path class="cls-8" d="M14.87,3.92a17.52,17.52,0,0,1,2.38,3.55l2.05,4.18a16,16,0,0,1,1.35,4,6.45,6.45,0,0,1-.28,3.62l.38-.17a5.46,5.46,0,0,0,3-5.72,25.21,25.21,0,0,0-1.62-4.53L20.91,6.39a11.66,11.66,0,0,0-2.09-3,5.42,5.42,0,0,0-6.18-1.17A7.45,7.45,0,0,1,14.87,3.92Z"/><path class="cls-9" d="M14.87,3.92a15.56,15.56,0,0,1,1.6,2.18,5.37,5.37,0,0,1,4.16,1.66,11.61,11.61,0,0,1,2.09,3L23.36,12a26,26,0,0,0-1.24-3.17L20.91,6.39a11.66,11.66,0,0,0-2.09-3,5.42,5.42,0,0,0-6.18-1.17A7.45,7.45,0,0,1,14.87,3.92Z"/><path id="_Path_27" data-name="&lt;Path&gt;" class="cls-10" d="M20.75,19.1a5.51,5.51,0,0,1-1.83.53l-5.06.54a1.86,1.86,0,0,0-1.47,2.67l9.49,19.28a2.23,2.23,0,0,1-1,3,2.15,2.15,0,0,1-2.89-1s-5.77-11.7-8.41-17A44,44,0,0,1,5.91,16.58a13.24,13.24,0,0,1,1-8.45A12.1,12.1,0,0,1,12.52,2.3a5.42,5.42,0,0,1,6.3,1.11,11.66,11.66,0,0,1,2.09,3l1.21,2.46a25.21,25.21,0,0,1,1.62,4.53A5.46,5.46,0,0,1,20.75,19.1Z"/><path id="_Path_28" data-name="&lt;Path&gt;" class="cls-11" d="M21.88,42.12a2.23,2.23,0,0,1-1,3,2.15,2.15,0,0,1-2.89-1l-3.55-7.2L18.36,35Z"/><path class="cls-10" d="M14.87,3.92a17.52,17.52,0,0,1,2.38,3.55l2.05,4.18a16,16,0,0,1,1.35,4,6.45,6.45,0,0,1-.28,3.62l.38-.17a5.46,5.46,0,0,0,3-5.72,25.21,25.21,0,0,0-1.62-4.53L20.91,6.39a11.66,11.66,0,0,0-2.09-3,5.42,5.42,0,0,0-6.18-1.17A7.45,7.45,0,0,1,14.87,3.92Z"/></svg>