<svg id="Icons" xmlns="http://www.w3.org/2000/svg" viewBox="0 0 48 48"><defs><style>.cls-1{fill:#45413c;opacity:0.15;}.cls-2{fill:#debb7e;}.cls-3{fill:#f0d5a8;}.cls-4{fill:none;}.cls-10,.cls-11,.cls-4{stroke:#45413c;stroke-linecap:round;stroke-linejoin:round;}.cls-11,.cls-5{fill:#daedf7;}.cls-10,.cls-6{fill:#e8f4fa;}.cls-7{fill:#bdbec0;}.cls-8{fill:#87898c;}.cls-9{fill:#f7e5c6;}</style></defs><title>692-radio</title><g id="_Group_" data-name="&lt;Group&gt;"><ellipse id="_Ellipse_" data-name="&lt;Ellipse&gt;" class="cls-1" cx="24" cy="43.33" rx="17.8" ry="1.67"/><rect id="_Rectangle_" data-name="&lt;Rectangle&gt;" class="cls-2" x="4.53" y="14.13" width="38.94" height="28.37" rx="4.45" ry="4.45"/><path id="_Path_" data-name="&lt;Path&gt;" class="cls-3" d="M39,14.13H9a4.45,4.45,0,0,0-4.45,4.45v2.78A4.45,4.45,0,0,1,9,16.91H39a4.45,4.45,0,0,1,4.45,4.45V18.58A4.45,4.45,0,0,0,39,14.13Z"/><rect id="_Rectangle_2" data-name="&lt;Rectangle&gt;" class="cls-4" x="4.53" y="14.13" width="38.94" height="28.37" rx="4.45" ry="4.45"/><path id="_Rectangle_3" data-name="&lt;Rectangle&gt;" class="cls-5" d="M2.86,19.69H4.53a0,0,0,0,1,0,0v5.56a0,0,0,0,1,0,0H2.86a1.11,1.11,0,0,1-1.11-1.11V20.8A1.11,1.11,0,0,1,2.86,19.69Z"/><path id="_Rectangle_4" data-name="&lt;Rectangle&gt;" class="cls-5" d="M43.47,19.69h1.67a1.11,1.11,0,0,1,1.11,1.11v3.34a1.11,1.11,0,0,1-1.11,1.11H43.47a0,0,0,0,1,0,0V19.69A0,0,0,0,1,43.47,19.69Z"/><path id="_Path_2" data-name="&lt;Path&gt;" class="cls-6" d="M2.86,19.69A1.11,1.11,0,0,0,1.75,20.8v1.81A1.11,1.11,0,0,1,2.86,21.5H4.53V19.69Z"/><path id="_Path_3" data-name="&lt;Path&gt;" class="cls-6" d="M45.14,19.69H43.47V21.5h1.67a1.11,1.11,0,0,1,1.11,1.11V20.8A1.11,1.11,0,0,0,45.14,19.69Z"/><path id="_Rectangle_5" data-name="&lt;Rectangle&gt;" class="cls-4" d="M2.86,19.69H4.53a0,0,0,0,1,0,0v5.56a0,0,0,0,1,0,0H2.86a1.11,1.11,0,0,1-1.11-1.11V20.8A1.11,1.11,0,0,1,2.86,19.69Z"/><path id="_Rectangle_6" data-name="&lt;Rectangle&gt;" class="cls-4" d="M43.47,19.69h1.67a1.11,1.11,0,0,1,1.11,1.11v3.34a1.11,1.11,0,0,1-1.11,1.11H43.47a0,0,0,0,1,0,0V19.69A0,0,0,0,1,43.47,19.69Z"/><path id="_Rectangle_7" data-name="&lt;Rectangle&gt;" class="cls-7" d="M9.54,16.91H38.46a2.22,2.22,0,0,1,2.22,2.22v6.67a0,0,0,0,1,0,0H7.31a0,0,0,0,1,0,0V19.13A2.22,2.22,0,0,1,9.54,16.91Z"/><path id="_Path_4" data-name="&lt;Path&gt;" class="cls-8" d="M38.46,16.91H9.54a2.23,2.23,0,0,0-2.23,2.22v2.23a2.23,2.23,0,0,1,2.23-2.23H38.46a2.23,2.23,0,0,1,2.23,2.23V19.13A2.23,2.23,0,0,0,38.46,16.91Z"/><path id="_Rectangle_8" data-name="&lt;Rectangle&gt;" class="cls-4" d="M9.54,16.91H38.46a2.22,2.22,0,0,1,2.22,2.22v6.67a0,0,0,0,1,0,0H7.31a0,0,0,0,1,0,0V19.13A2.22,2.22,0,0,1,9.54,16.91Z"/><path id="_Rectangle_9" data-name="&lt;Rectangle&gt;" class="cls-9" d="M7.31,25.81H40.69a0,0,0,0,1,0,0V37.49a2.22,2.22,0,0,1-2.22,2.22H9.54a2.22,2.22,0,0,1-2.22-2.22V25.81A0,0,0,0,1,7.31,25.81Z"/><rect id="_Path_5" data-name="&lt;Path&gt;" class="cls-3" x="7.31" y="25.81" width="33.37" height="2.5"/><path id="_Rectangle_10" data-name="&lt;Rectangle&gt;" class="cls-4" d="M7.31,25.81H40.69a0,0,0,0,1,0,0V37.49a2.22,2.22,0,0,1-2.22,2.22H9.54a2.22,2.22,0,0,1-2.22-2.22V25.81A0,0,0,0,1,7.31,25.81Z"/><circle id="_Path_6" data-name="&lt;Path&gt;" class="cls-3" cx="11.76" cy="21.36" r="2.22"/><circle id="_Path_7" data-name="&lt;Path&gt;" class="cls-3" cx="36.24" cy="21.36" r="2.22"/><path id="_Path_8" data-name="&lt;Path&gt;" class="cls-9" d="M11.76,20.8a2.22,2.22,0,0,1,2.06,1.39,2.09,2.09,0,0,0,.17-.83,2.23,2.23,0,1,0-4.45,0,2.27,2.27,0,0,0,.16.83A2.23,2.23,0,0,1,11.76,20.8Z"/><path id="_Path_9" data-name="&lt;Path&gt;" class="cls-9" d="M36.24,20.8a2.23,2.23,0,0,1,2.06,1.39,2.27,2.27,0,0,0,.16-.83,2.23,2.23,0,1,0-4.45,0,2.09,2.09,0,0,0,.17.83A2.22,2.22,0,0,1,36.24,20.8Z"/><circle id="_Path_10" data-name="&lt;Path&gt;" class="cls-4" cx="11.76" cy="21.36" r="2.22"/><circle id="_Path_11" data-name="&lt;Path&gt;" class="cls-4" cx="36.24" cy="21.36" r="2.22"/><rect id="_Rectangle_11" data-name="&lt;Rectangle&gt;" class="cls-10" x="16.21" y="19.13" width="15.57" height="4.45" rx="1.11" ry="1.11"/><line id="_Path_12" data-name="&lt;Path&gt;" class="cls-4" x1="22.33" y1="23.58" x2="22.33" y2="20.8"/><line id="_Path_13" data-name="&lt;Path&gt;" class="cls-4" x1="16.21" y1="21.36" x2="31.79" y2="21.36"/><path id="_Path_14" data-name="&lt;Path&gt;" class="cls-11" d="M12.75,13l-.43-2.18,21.3-4.25a1.12,1.12,0,0,1,.44,2.19Z"/><line id="_Path_15" data-name="&lt;Path&gt;" class="cls-4" x1="34.93" y1="7.49" x2="40.69" y2="6.34"/><path id="_Path_16" data-name="&lt;Path&gt;" class="cls-11" d="M12.32,10.79h0a1.67,1.67,0,0,0-1.67,1.67v1.67H14V12.46A1.67,1.67,0,0,0,12.32,10.79Z"/><line id="_Path_17" data-name="&lt;Path&gt;" class="cls-4" x1="10.09" y1="28.59" x2="37.91" y2="28.59"/><line id="_Path_18" data-name="&lt;Path&gt;" class="cls-4" x1="10.09" y1="31.37" x2="37.91" y2="31.37"/><line id="_Path_19" data-name="&lt;Path&gt;" class="cls-4" x1="10.09" y1="34.15" x2="37.91" y2="34.15"/><line id="_Path_20" data-name="&lt;Path&gt;" class="cls-4" x1="10.09" y1="36.93" x2="37.91" y2="36.93"/></g></svg>