<svg id="Icons" xmlns="http://www.w3.org/2000/svg" viewBox="0 0 48 48"><defs><style>.cls-1{fill:#45413c;opacity:0.15;}.cls-2{fill:#656769;}.cls-2,.cls-5,.cls-7{stroke:#45413c;stroke-linecap:round;stroke-linejoin:round;}.cls-3,.cls-7{fill:#ffe500;}.cls-4{fill:#fff48c;}.cls-5{fill:none;}.cls-6{fill:#ebcb00;}</style></defs><title>693-saxophone</title><g id="_Group_" data-name="&lt;Group&gt;"><ellipse id="_Ellipse_" data-name="&lt;Ellipse&gt;" class="cls-1" cx="21.33" cy="45.02" rx="15.2" ry="1.98"/><rect id="_Rectangle_" data-name="&lt;Rectangle&gt;" class="cls-2" x="35.11" y="6.04" width="3.63" height="3.72" transform="translate(-0.8 6.29) rotate(-9.63)"/><path id="_Path_" data-name="&lt;Path&gt;" class="cls-3" d="M35,6.05c-1.81.6-5.17.51-8.06,6.11-2.77,5.39-8.24,20.67-8.24,20.67s.88-13,3.38-17.41S3.79,21.65,3.79,21.65A4.08,4.08,0,0,1,7.31,25C8.1,28.29,3.39,36.29,8,41.33c5,5.42,13.14,4.33,15.94.17s4.15-12.25,6.29-20.82c2.07-8.24,4.09-10.1,5.46-10.5Z"/><path class="cls-4" d="M35,6c-1.81.6-5.17.52-8,6.11-2.31,4.48-6.47,15.78-7.81,19.48v2.13c1.61-4.41,5.32-14.37,7.45-18.51,2.47-4.8,5.31-5.41,7.2-5.87a1.74,1.74,0,0,1,1.92.8Z"/><path id="_Path_2" data-name="&lt;Path&gt;" class="cls-5" d="M35,6.05c-1.81.6-5.17.51-8.06,6.11-2.77,5.39-8.24,20.67-8.24,20.67s.88-13,3.38-17.41S3.79,21.65,3.79,21.65A4.08,4.08,0,0,1,7.31,25C8.1,28.29,3.39,36.29,8,41.33c5,5.42,13.14,4.33,15.94.17s4.15-12.25,6.29-20.82c2.07-8.24,4.09-10.1,5.46-10.5Z"/><path id="_Path_3" data-name="&lt;Path&gt;" class="cls-3" d="M20.92,34.71a3.81,3.81,0,1,1-3.35-4.21A3.81,3.81,0,0,1,20.92,34.71Z"/><path id="_Path_4" data-name="&lt;Path&gt;" class="cls-6" d="M17.33,32.52a3.81,3.81,0,0,1,3.32,3.19,4.1,4.1,0,0,0,.27-1,3.81,3.81,0,0,0-7.57-.86,3.55,3.55,0,0,0,0,1A3.78,3.78,0,0,1,17.33,32.52Z"/><path id="_Path_5" data-name="&lt;Path&gt;" class="cls-5" d="M20.92,34.71a3.81,3.81,0,1,1-3.35-4.21A3.81,3.81,0,0,1,20.92,34.71Z"/><path id="_Path_6" data-name="&lt;Path&gt;" class="cls-3" d="M21.53,26.48a4.47,4.47,0,1,1-3.94-4.95A4.48,4.48,0,0,1,21.53,26.48Z"/><path id="_Path_7" data-name="&lt;Path&gt;" class="cls-6" d="M17.3,24.12a4.44,4.44,0,0,1,3.86,3.63,4.46,4.46,0,1,0-8.52-2.28,4.39,4.39,0,0,0,.07,1.31A4.46,4.46,0,0,1,17.3,24.12Z"/><path id="_Path_8" data-name="&lt;Path&gt;" class="cls-5" d="M21.53,26.48a4.47,4.47,0,1,1-3.94-4.95A4.48,4.48,0,0,1,21.53,26.48Z"/><line id="_Path_9" data-name="&lt;Path&gt;" class="cls-5" x1="29.5" y1="15.06" x2="24.71" y2="33.93"/><path id="_Path_10" data-name="&lt;Path&gt;" class="cls-3" d="M33.2,19.84A2.61,2.61,0,1,1,30.9,17,2.63,2.63,0,0,1,33.2,19.84Z"/><path id="_Path_11" data-name="&lt;Path&gt;" class="cls-6" d="M30.68,18.85a2.59,2.59,0,0,1,2.22,1.92,2.61,2.61,0,1,0-4.82-.55A2.6,2.6,0,0,1,30.68,18.85Z"/><path id="_Path_12" data-name="&lt;Path&gt;" class="cls-5" d="M33.2,19.84A2.61,2.61,0,1,1,30.9,17,2.63,2.63,0,0,1,33.2,19.84Z"/><path id="_Path_13" data-name="&lt;Path&gt;" class="cls-3" d="M31.44,26.77a2.61,2.61,0,1,1-2.3-2.89A2.61,2.61,0,0,1,31.44,26.77Z"/><path id="_Path_14" data-name="&lt;Path&gt;" class="cls-6" d="M28.9,26a2.59,2.59,0,0,1,2.18,1.8,2.61,2.61,0,1,0-4.83-1.63,2.48,2.48,0,0,0,.11,1.09A2.6,2.6,0,0,1,28.9,26Z"/><path id="_Path_15" data-name="&lt;Path&gt;" class="cls-5" d="M31.44,26.77a2.61,2.61,0,1,1-2.3-2.89A2.61,2.61,0,0,1,31.44,26.77Z"/><line id="_Path_16" data-name="&lt;Path&gt;" class="cls-5" x1="21.33" y1="24.58" x2="18.9" y2="25.34"/><line id="_Path_17" data-name="&lt;Path&gt;" class="cls-5" x1="20.76" y1="33.14" x2="18.68" y2="33.88"/><path class="cls-3" d="M23.63,12.86a1.82,1.82,0,0,0-2.34-1.08l-18.6,6.9A1.81,1.81,0,1,0,4,22.08l18.61-6.89A1.81,1.81,0,0,0,23.63,12.86Z"/><path id="_Path_18" data-name="&lt;Path&gt;" class="cls-4" d="M1.78,21.34a1.79,1.79,0,0,1,.91-.75l18.6-6.89a1.83,1.83,0,0,1,2.18.75,1.84,1.84,0,0,0,.16-1.59,1.82,1.82,0,0,0-2.34-1.08l-18.6,6.9A1.82,1.82,0,0,0,1.61,21,1.71,1.71,0,0,0,1.78,21.34Z"/><path class="cls-5" d="M23.63,12.86a1.82,1.82,0,0,0-2.34-1.08l-18.6,6.9A1.81,1.81,0,1,0,4,22.08l18.61-6.89A1.81,1.81,0,0,0,23.63,12.86Z"/><path id="_Path_19" data-name="&lt;Path&gt;" class="cls-2" d="M45.45,8.82l-7,1.2-.86-5L41,4.41a1.29,1.29,0,0,1,.75.1l3.55,1.54a.67.67,0,0,1,.39.5L46,8.05A.67.67,0,0,1,45.45,8.82Z"/><polygon id="_Path_20" data-name="&lt;Path&gt;" class="cls-7" points="40.41 4.52 41.2 9.55 38.49 10.02 37.63 5 40.41 4.52"/></g></svg>