<svg id="Icons" xmlns="http://www.w3.org/2000/svg" viewBox="0 0 48 48"><defs><style>.cls-1{fill:#45413c;opacity:0.15;}.cls-2{fill:#ffaa54;}.cls-3{fill:#fc9;}.cls-10,.cls-11,.cls-4,.cls-8,.cls-9{fill:none;}.cls-4,.cls-7{stroke:#45413c;}.cls-10,.cls-11,.cls-4,.cls-7,.cls-8,.cls-9{stroke-linecap:round;stroke-linejoin:round;}.cls-5{fill:#f0d5a8;}.cls-6{fill:#f7e5c6;}.cls-7{fill:#fff;}.cls-8{stroke:#48cf3e;}.cls-9{stroke:#ff4064;}.cls-10{stroke:#ffb700;}.cls-11{stroke:#00aed9;}</style></defs><title>694-guitar</title><g id="_Group_" data-name="&lt;Group&gt;"><ellipse id="_Ellipse_" data-name="&lt;Ellipse&gt;" class="cls-1" cx="22.44" cy="45.5" rx="9.12" ry="1.5"/><path id="_Path_" data-name="&lt;Path&gt;" class="cls-2" d="M24.29,21s-3.68-3-5.68-.21-.83,3.62-2.53,5.31-4.79,1.24-7.78,5.4,0,8.43,3.67,11.07c3.48,2.51,9,3.65,12-.43s.59-7.11,2.24-9.4,2.66-1.89,3.31-2.79a4.3,4.3,0,0,0,.3-2.52.36.36,0,0,0-.64-.19c-.55.68-1.44,1.48-2.22.86s-1-2.19.14-3.79l.62-.85Z"/><g id="_Group_2" data-name="&lt;Group&gt;"><path id="_Path_2" data-name="&lt;Path&gt;" class="cls-3" d="M8.84,34.8c3-4.16,6.13-3.77,7.78-5.4s.53-2.53,2.53-5.3,5.68.21,5.68.21l1.62,1.16a4.75,4.75,0,0,1,.63-1.19l.62-.85L24.29,21s-3.68-3-5.68-.21-.83,3.62-2.53,5.31-4.79,1.24-7.78,5.4a5.88,5.88,0,0,0-.6,6.13A6,6,0,0,1,8.84,34.8Z"/></g><path id="_Path_3" data-name="&lt;Path&gt;" class="cls-4" d="M24.29,21s-3.68-3-5.68-.21-.83,3.62-2.53,5.31-4.79,1.24-7.78,5.4,0,8.43,3.67,11.07c3.48,2.51,9,3.65,12-.43s.59-7.11,2.24-9.4,2.66-1.89,3.31-2.79a4.3,4.3,0,0,0,.3-2.52.36.36,0,0,0-.64-.19c-.55.68-1.44,1.48-2.22.86s-1-2.19.14-3.79l.62-.85Z"/><polygon id="_Path_4" data-name="&lt;Path&gt;" class="cls-5" points="32.71 10.2 15.07 33.76 18.9 36.52 35.69 12.35 32.71 10.2"/><polygon id="_Path_5" data-name="&lt;Path&gt;" class="cls-6" points="34.2 11.28 32.71 10.2 15.07 33.76 16.98 35.14 34.2 11.28"/><polygon id="_Path_6" data-name="&lt;Path&gt;" class="cls-4" points="32.71 10.2 15.07 33.76 18.9 36.52 35.69 12.35 32.71 10.2"/><path id="_Path_7" data-name="&lt;Path&gt;" class="cls-2" d="M43.1,4.47a1.91,1.91,0,0,1-.54,2.23l-6.87,5.65-3-2.15.71-3.39a2.74,2.74,0,0,1,2-2.09l5.44-1.35A1.91,1.91,0,0,1,43.1,4.47Z"/><path id="_Path_8" data-name="&lt;Path&gt;" class="cls-3" d="M43.1,4.47a1.91,1.91,0,0,0-2.22-1.1L35.44,4.72a2.74,2.74,0,0,0-2,2.09l-.71,3.39.75.54.34-1.61a2.73,2.73,0,0,1,2-2.09l5.44-1.35A1.93,1.93,0,0,1,43,6.14,1.92,1.92,0,0,0,43.1,4.47Z"/><path class="cls-4" d="M43.1,4.47a1.91,1.91,0,0,0-2.22-1.1L35.44,4.72a2.74,2.74,0,0,0-2,2.09l-.71,3.39,3,2.15L42.56,6.7A1.91,1.91,0,0,0,43.1,4.47Z"/><rect id="_Rectangle_" data-name="&lt;Rectangle&gt;" class="cls-7" x="13.85" y="34.89" width="4.73" height="2.63" transform="translate(24.25 -2.64) rotate(35.81)"/><path class="cls-7" d="M17.79,39l-4.26-3.07a1,1,0,1,0-1.23,1.7l4.26,3.08A1.05,1.05,0,1,0,17.79,39Z"/><line id="_Path_9" data-name="&lt;Path&gt;" class="cls-4" x1="36.43" y1="8.19" x2="15.45" y2="37.27"/><path class="cls-7" d="M24.63,27.69l-3-2.15a1.05,1.05,0,0,0-1.23,1.71l3,2.15a1.05,1.05,0,0,0,1.23-1.71Z"/><line id="_Path_10" data-name="&lt;Path&gt;" class="cls-4" x1="36.02" y1="7.4" x2="38.2" y2="11.57"/><line id="_Path_11" data-name="&lt;Path&gt;" class="cls-4" x1="38.84" y1="6.2" x2="40.75" y2="9.84"/><g id="_Group_3" data-name="&lt;Group&gt;"><path id="_Path_12" data-name="&lt;Path&gt;" class="cls-8" d="M38.84,23.86a1.27,1.27,0,0,1-2.53,0,1.27,1.27,0,1,1,2.53,0Z"/><path id="_Path_13" data-name="&lt;Path&gt;" class="cls-8" d="M45.18,22.59a1.27,1.27,0,1,1-1.27-1.27A1.27,1.27,0,0,1,45.18,22.59Z"/><polyline id="_Path_14" data-name="&lt;Path&gt;" class="cls-8" points="38.84 23.86 38.84 18.16 45.18 15.62 45.18 22.59"/></g><g id="_Group_4" data-name="&lt;Group&gt;"><path id="_Path_15" data-name="&lt;Path&gt;" class="cls-9" d="M36.62,44.38A1.68,1.68,0,1,1,35,42.71,1.68,1.68,0,0,1,36.62,44.38Z"/><polyline id="_Path_16" data-name="&lt;Path&gt;" class="cls-9" points="36.62 44.38 36.62 36.86 39.13 38.53"/></g><g id="_Group_5" data-name="&lt;Group&gt;"><path id="_Path_17" data-name="&lt;Path&gt;" class="cls-10" d="M10.15,14.28a1.51,1.51,0,1,1-1.51-1.52A1.51,1.51,0,0,1,10.15,14.28Z"/><polyline id="_Path_18" data-name="&lt;Path&gt;" class="cls-10" points="10.15 14.28 10.15 7.46 12.42 8.98"/></g><g id="_Group_6" data-name="&lt;Group&gt;"><line id="_Path_19" data-name="&lt;Path&gt;" class="cls-11" x1="24.06" y1="5.68" x2="24.06" y2="5.08"/><line id="_Path_20" data-name="&lt;Path&gt;" class="cls-11" x1="25.33" y1="6.2" x2="25.75" y2="5.78"/><line id="_Path_21" data-name="&lt;Path&gt;" class="cls-11" x1="25.85" y1="7.46" x2="26.44" y2="7.46"/><line id="_Path_22" data-name="&lt;Path&gt;" class="cls-11" x1="25.33" y1="8.73" x2="25.75" y2="9.15"/><line id="_Path_23" data-name="&lt;Path&gt;" class="cls-11" x1="24.06" y1="9.25" x2="24.06" y2="9.84"/><line id="_Path_24" data-name="&lt;Path&gt;" class="cls-11" x1="22.8" y1="8.73" x2="22.38" y2="9.15"/><line id="_Path_25" data-name="&lt;Path&gt;" class="cls-11" x1="22.28" y1="7.46" x2="21.68" y2="7.46"/><line id="_Path_26" data-name="&lt;Path&gt;" class="cls-11" x1="22.8" y1="6.2" x2="22.38" y2="5.78"/></g><g id="_Group_7" data-name="&lt;Group&gt;"><line id="_Path_27" data-name="&lt;Path&gt;" class="cls-11" x1="4.62" y1="23.41" x2="4.62" y2="20.23"/><line id="_Path_28" data-name="&lt;Path&gt;" class="cls-11" x1="3.03" y1="21.82" x2="6.21" y2="21.82"/></g><g id="_Group_8" data-name="&lt;Group&gt;"><line id="_Path_29" data-name="&lt;Path&gt;" class="cls-11" x1="43.91" y1="32.29" x2="43.91" y2="29.12"/><line id="_Path_30" data-name="&lt;Path&gt;" class="cls-11" x1="42.33" y1="30.7" x2="45.5" y2="30.7"/></g><g id="_Group_9" data-name="&lt;Group&gt;"><line id="_Path_31" data-name="&lt;Path&gt;" class="cls-11" x1="33.27" y1="34.71" x2="33.27" y2="33.13"/><line id="_Path_32" data-name="&lt;Path&gt;" class="cls-11" x1="32.48" y1="33.92" x2="34.07" y2="33.92"/></g><g id="_Group_10" data-name="&lt;Group&gt;"><line id="_Path_33" data-name="&lt;Path&gt;" class="cls-11" x1="20.85" y1="15.62" x2="20.85" y2="14.03"/><line id="_Path_34" data-name="&lt;Path&gt;" class="cls-11" x1="20.06" y1="14.83" x2="21.65" y2="14.83"/></g><g id="_Group_11" data-name="&lt;Group&gt;"><line id="_Path_35" data-name="&lt;Path&gt;" class="cls-11" x1="3.83" y1="41.41" x2="3.83" y2="39.83"/><line id="_Path_36" data-name="&lt;Path&gt;" class="cls-11" x1="3.03" y1="40.62" x2="4.62" y2="40.62"/></g></g></svg>