<svg id="Icons" xmlns="http://www.w3.org/2000/svg" viewBox="0 0 48 48"><defs><style>.cls-1{fill:#45413c;opacity:0.15;}.cls-2,.cls-6{fill:#dea47a;}.cls-3,.cls-7{fill:#f0c2a1;}.cls-4{fill:none;}.cls-4,.cls-5,.cls-6,.cls-7{stroke:#45413c;stroke-linecap:round;stroke-linejoin:round;}.cls-5,.cls-8{fill:#87898c;}.cls-9{fill:#bdbec0;}</style></defs><title>697-violin</title><g id="_Group_" data-name="&lt;Group&gt;"><ellipse id="_Ellipse_" data-name="&lt;Ellipse&gt;" class="cls-1" cx="13.93" cy="45.35" rx="12.68" ry="1.65"/><path id="_Path_" data-name="&lt;Path&gt;" class="cls-2" d="M19.62,35.39c-1.4-.51-1.21-2.46-.61-3.85s1.74-2.53,2.8-2.34a7.11,7.11,0,0,0,1.73-2.91c1.2-2.8-1.16-6.5-4.8-8.07s-7.95-.74-9.15,2.06a7.1,7.1,0,0,0-.94,3.25c.88.64.89,2.13.23,3.65S7,30.05,5.67,29.38A8.58,8.58,0,0,0,2,33.8C.4,37.43,1,41.2,7.62,44s9.77.71,11.33-2.93A8.59,8.59,0,0,0,19.62,35.39Z"/><g id="_Group_2" data-name="&lt;Group&gt;"><path id="_Path_2" data-name="&lt;Path&gt;" class="cls-3" d="M2.22,36.94a8.58,8.58,0,0,1,3.71-4.42c1.33.67,2.62-.83,3.22-2.2s.63-2.85-.12-3.53a3.12,3.12,0,0,1-.15.39C8.27,28.6,7,30,5.67,29.38A8.58,8.58,0,0,0,2,33.8a6.68,6.68,0,0,0-.34,5.1A9.18,9.18,0,0,1,2.22,36.94Z"/><path id="_Path_3" data-name="&lt;Path&gt;" class="cls-3" d="M9.85,23.42c1.2-2.8,5.52-3.62,9.15-2.06a8.87,8.87,0,0,1,4.68,4.51c.82-2.74-1.48-6.16-4.94-7.65-3.63-1.56-7.95-.74-9.15,2.06a7.1,7.1,0,0,0-.94,3.25,1.72,1.72,0,0,1,.65,1.15C9.48,24.22,9.69,23.79,9.85,23.42Z"/></g><path id="_Path_4" data-name="&lt;Path&gt;" class="cls-4" d="M19.62,35.39c-1.4-.51-1.21-2.46-.61-3.85s1.74-2.53,2.8-2.34a7.11,7.11,0,0,0,1.73-2.91c1.2-2.8-1.16-6.5-4.8-8.07s-7.95-.74-9.15,2.06a7.1,7.1,0,0,0-.94,3.25c.88.64.89,2.13.23,3.65S7,30.05,5.67,29.38A8.58,8.58,0,0,0,2,33.8C.4,37.43,1,41.2,7.62,44s9.77.71,11.33-2.93A8.59,8.59,0,0,0,19.62,35.39Z"/><polygon id="_Path_5" data-name="&lt;Path&gt;" class="cls-5" points="13.28 35.07 10.25 33.76 22.53 6.65 24.55 7.52 13.28 35.07"/><rect id="_Rectangle_" data-name="&lt;Rectangle&gt;" class="cls-3" x="20.02" y="5.39" width="6.61" height="4.41" rx="0.5" ry="0.5" transform="translate(4.91 -8.61) rotate(23.31)"/><path id="_Rectangle_2" data-name="&lt;Rectangle&gt;" class="cls-2" d="M23.19,6H26a.5.5,0,0,1,.5.5V10a.5.5,0,0,1-.5.5H23.19a0,0,0,0,1,0,0V6a0,0,0,0,1,0,0Z" transform="translate(5.29 -9.16) rotate(23.31)"/><rect id="_Rectangle_3" data-name="&lt;Rectangle&gt;" class="cls-4" x="20.02" y="5.39" width="6.61" height="4.41" rx="0.5" ry="0.5" transform="translate(4.91 -8.61) rotate(23.31)"/><path id="_Rectangle_4" data-name="&lt;Rectangle&gt;" class="cls-6" d="M22.72,3.74h1.2a.5.5,0,0,1,.5.5v7.22a0,0,0,0,1,0,0h-2.2a0,0,0,0,1,0,0V4.24A.5.5,0,0,1,22.72,3.74Z" transform="translate(4.91 -8.61) rotate(23.31)"/><polygon id="_Path_6" data-name="&lt;Path&gt;" class="cls-5" points="8.63 44.47 6.61 43.6 8.07 38.83 11.1 40.13 8.63 44.47"/><rect id="_Rectangle_5" data-name="&lt;Rectangle&gt;" class="cls-7" x="9.02" y="34.19" width="3.31" height="5.51" transform="translate(15.49 -1.21) rotate(23.31)"/><path id="_Path_7" data-name="&lt;Path&gt;" class="cls-2" d="M46.28,16.33a1.11,1.11,0,0,0-.22-1.55l-1.75-1.33a1.11,1.11,0,0,0-1.55.21l-13,17.12,1.76,1.34L43.19,16.75l1.75,1.33Z"/><path id="_Path_8" data-name="&lt;Path&gt;" class="cls-3" d="M41.58,17.21l1.33-1.75a1.1,1.1,0,0,1,1.55-.21l.87.66.8.61.15-.19a1.11,1.11,0,0,0-.22-1.55l-.87-.66-.88-.67a1.11,1.11,0,0,0-1.55.21l-1.33,1.76L29.77,30.78l1,.73Z"/><path id="_Path_9" data-name="&lt;Path&gt;" class="cls-4" d="M46.28,16.33a1.11,1.11,0,0,0-.22-1.55l-1.75-1.33a1.11,1.11,0,0,0-1.55.21l-13,17.12,1.76,1.34L43.19,16.75l1.75,1.33Z"/><path class="cls-8" d="M29.77,30.78,26.1,35.61a1.1,1.1,0,1,0,1.76,1.33l1.33-1.75.88.67a1.11,1.11,0,0,0,1.55-.22l1.66-2.19Z"/><path id="_Path_10" data-name="&lt;Path&gt;" class="cls-9" d="M29.19,35.19l.11.08.59-.78,1.66-2.2,1.66,1.26.07-.1-3.51-2.67L28.1,33l-.66.88L26.1,35.61a1.1,1.1,0,1,0,1.76,1.33Z"/><path class="cls-4" d="M29.77,30.78,26.1,35.61a1.1,1.1,0,1,0,1.76,1.33l1.33-1.75.88.67a1.11,1.11,0,0,0,1.55-.22l1.66-2.19Z"/><line id="_Path_11" data-name="&lt;Path&gt;" class="cls-4" x1="44.94" y1="18.08" x2="33.28" y2="33.45"/><path id="_Path_12" data-name="&lt;Path&gt;" class="cls-4" d="M17.47,37.37c-.76-.33-1.55.83-2.06,2S14,41.88,13.07,41.48"/><path id="_Path_13" data-name="&lt;Path&gt;" class="cls-4" d="M5.64,32.33c.76.33.48,1.7,0,2.89S4.8,38,5.72,38.36"/></g></svg>