<svg id="Icons" xmlns="http://www.w3.org/2000/svg" viewBox="0 0 48 48"><defs><style>.cls-1,.cls-10{fill:#f0f0f0;}.cls-2,.cls-6{fill:#e0e0e0;}.cls-3{fill:none;}.cls-10,.cls-11,.cls-12,.cls-3,.cls-5,.cls-6,.cls-9{stroke:#45413c;stroke-linecap:round;stroke-linejoin:round;}.cls-4{fill:#45413c;opacity:0.15;}.cls-5{fill:#87898c;}.cls-7{fill:#fffef2;}.cls-8{fill:#fffacf;}.cls-9{fill:#bdbec0;}.cls-11{fill:#9ceb60;}.cls-12{fill:#ff6242;}</style></defs><title>699-fax-machine</title><g id="_Group_" data-name="&lt;Group&gt;"><path class="cls-1" d="M44.66,32.18,42.23,15a1.33,1.33,0,0,0-1.32-1.14H6.41A1.33,1.33,0,0,0,5.09,15L2.66,32.18a15.89,15.89,0,0,0-.16,2.28v2.07a4,4,0,0,0,4,4h34.3a4,4,0,0,0,4-4V34.46A15.89,15.89,0,0,0,44.66,32.18Z"/><path id="_Path_" data-name="&lt;Path&gt;" class="cls-2" d="M44.64,32.05a4,4,0,0,1-3.83,2.83H6.51a4,4,0,0,1-3.83-2.83l0,.13a15.89,15.89,0,0,0-.16,2.28v2.07a4,4,0,0,0,4,4h34.3a4,4,0,0,0,4-4V34.46a15.89,15.89,0,0,0-.16-2.28Z"/><path id="_Path_2" data-name="&lt;Path&gt;" class="cls-3" d="M5.09,15,2.66,32.18a15.89,15.89,0,0,0-.16,2.28v2.07h0a4,4,0,0,0,4,4h34.3a4,4,0,0,0,4-4h0V34.46a15.89,15.89,0,0,0-.16-2.28L42.23,15a1.33,1.33,0,0,0-1.32-1.14H6.41A1.33,1.33,0,0,0,5.09,15Z"/><ellipse id="_Ellipse_" data-name="&lt;Ellipse&gt;" class="cls-4" cx="24.84" cy="41.41" rx="21.91" ry="1.99"/><path id="_Path_3" data-name="&lt;Path&gt;" class="cls-5" d="M40.26,29.81H15.11a.67.67,0,0,1-.66-.73l1.09-11.29a.67.67,0,0,1,.66-.6H38.77a.66.66,0,0,1,.66.58l1.49,11.29A.67.67,0,0,1,40.26,29.81Z"/><path id="_Rectangle_" data-name="&lt;Rectangle&gt;" class="cls-5" d="M15.58,37.08H38.93a1.2,1.2,0,0,1,1.2,1.2v2.27a0,0,0,0,1,0,0H14.38a0,0,0,0,1,0,0V38.28A1.2,1.2,0,0,1,15.58,37.08Z"/><path id="_Rectangle_2" data-name="&lt;Rectangle&gt;" class="cls-6" d="M15.38,8.81H38.8a1.33,1.33,0,0,1,1.33,1.33v3.74a0,0,0,0,1,0,0H14.05a0,0,0,0,1,0,0V10.13A1.33,1.33,0,0,1,15.38,8.81Z"/><rect id="_Rectangle_3" data-name="&lt;Rectangle&gt;" class="cls-7" x="16.55" y="4.16" width="21.07" height="9.71"/><rect id="_Rectangle_4" data-name="&lt;Rectangle&gt;" class="cls-8" x="16.55" y="11.34" width="21.07" height="2.53"/><rect id="_Rectangle_5" data-name="&lt;Rectangle&gt;" class="cls-3" x="16.55" y="4.16" width="21.07" height="9.71"/><polygon id="_Path_4" data-name="&lt;Path&gt;" class="cls-7" points="36.93 37.08 17.25 37.08 15.72 45.5 38.46 45.5 36.93 37.08"/><polygon id="_Path_5" data-name="&lt;Path&gt;" class="cls-8" points="37.46 40.01 36.93 37.08 17.25 37.08 16.72 40.01 37.46 40.01"/><polygon id="_Path_6" data-name="&lt;Path&gt;" class="cls-3" points="36.93 37.08 17.25 37.08 15.72 45.5 38.46 45.5 36.93 37.08"/><path id="_Path_7" data-name="&lt;Path&gt;" class="cls-9" d="M8.37,34.57h-3a2.11,2.11,0,0,1-2.1-1.88l-.38-3.48,8-2.8-.49,6.21A2.11,2.11,0,0,1,8.37,34.57Z"/><path class="cls-10" d="M10,12.21H6.92A1.9,1.9,0,0,0,5,13.78L3.15,26.17a20.64,20.64,0,0,0-.23,3,2.25,2.25,0,0,0,2.3,2.2H7.9a2.82,2.82,0,0,0,2.87-2.55l1.14-14.68A1.88,1.88,0,0,0,10,12.21Z"/><polygon id="_Path_8" data-name="&lt;Path&gt;" class="cls-11" points="36.74 21.78 27.69 21.78 27.69 19.4 36.46 19.4 36.74 21.78"/><line id="_Path_9" data-name="&lt;Path&gt;" class="cls-3" x1="27.94" y1="24" x2="30.1" y2="24"/><line id="_Path_10" data-name="&lt;Path&gt;" class="cls-3" x1="27.94" y1="25.91" x2="30.1" y2="25.91"/><line id="_Path_11" data-name="&lt;Path&gt;" class="cls-3" x1="27.94" y1="27.79" x2="30.1" y2="27.79"/><line id="_Path_12" data-name="&lt;Path&gt;" class="cls-3" x1="31.84" y1="24" x2="33.63" y2="24"/><line id="_Path_13" data-name="&lt;Path&gt;" class="cls-3" x1="31.92" y1="25.91" x2="33.93" y2="25.91"/><line id="_Path_14" data-name="&lt;Path&gt;" class="cls-3" x1="31.84" y1="27.79" x2="34" y2="27.79"/><line id="_Path_15" data-name="&lt;Path&gt;" class="cls-3" x1="35.81" y1="24" x2="37.63" y2="24"/><line id="_Path_16" data-name="&lt;Path&gt;" class="cls-3" x1="35.81" y1="25.91" x2="37.79" y2="25.91"/><line id="_Path_17" data-name="&lt;Path&gt;" class="cls-3" x1="35.81" y1="27.79" x2="37.97" y2="27.79"/><circle id="_Path_18" data-name="&lt;Path&gt;" class="cls-12" cx="20.36" cy="21.34" r="1.33"/><circle id="_Path_19" data-name="&lt;Path&gt;" class="cls-11" cx="20.11" cy="25.91" r="1.33"/></g></svg>