<svg id="Icons" xmlns="http://www.w3.org/2000/svg" viewBox="0 0 48 48"><defs><style>.cls-1{fill:#45413c;opacity:0.15;}.cls-2{fill:#6dd627;}.cls-3{fill:#9ceb60;}.cls-4{fill:none;stroke:#45413c;stroke-linecap:round;stroke-linejoin:round;}.cls-5{fill:#daedf7;}.cls-6{fill:#c0dceb;}.cls-7{fill:#fff;}</style></defs><title>700-battery</title><g id="_Group_" data-name="&lt;Group&gt;"><ellipse id="_Ellipse_" data-name="&lt;Ellipse&gt;" class="cls-1" cx="24" cy="43.5" rx="14.5" ry="1.5"/><path id="_Path_" data-name="&lt;Path&gt;" class="cls-2" d="M38.55,9.45c-4.14-4.15-9.39-5.63-11.71-3.3L6.73,26.26c-1.93,1.93-.82,7.54,3.33,11.68s9.75,5.26,11.68,3.33L41.85,21.16C44.18,18.84,42.7,13.59,38.55,9.45Z"/><path id="_Path_2" data-name="&lt;Path&gt;" class="cls-3" d="M8.06,31.68,28.82,10.92c2.4-2.4,7.71-1,11.85,3.16a18.15,18.15,0,0,1,2.11,2.53,15.07,15.07,0,0,0-4.23-7.16c-4.14-4.15-9.39-5.63-11.71-3.3L6.73,26.26c-1.34,1.34-1.21,4.46.39,7.64A3.69,3.69,0,0,1,8.06,31.68Z"/><path id="_Path_3" data-name="&lt;Path&gt;" class="cls-4" d="M38.55,9.45c-4.14-4.15-9.39-5.63-11.71-3.3L6.73,26.26c-1.93,1.93-.82,7.54,3.33,11.68s9.75,5.26,11.68,3.33L41.85,21.16C44.18,18.84,42.7,13.59,38.55,9.45Z"/><path id="_Path_4" data-name="&lt;Path&gt;" class="cls-5" d="M39.89,19.2c-1.54,1.55-5.27.31-8.34-2.75s-4.3-6.8-2.75-8.34,5.27-.31,8.34,2.75S41.43,17.66,39.89,19.2Z"/><path id="_Path_5" data-name="&lt;Path&gt;" class="cls-6" d="M28.8,10.36c1.54-1.54,5.27-.31,8.34,2.75a12.07,12.07,0,0,1,3.25,5.27c.63-1.82-.64-4.91-3.25-7.52-3.07-3.06-6.8-4.29-8.34-2.75a3.15,3.15,0,0,0-.5,3.07A2.16,2.16,0,0,1,28.8,10.36Z"/><path id="_Path_6" data-name="&lt;Path&gt;" class="cls-4" d="M39.89,19.2c-1.54,1.55-5.27.31-8.34-2.75s-4.3-6.8-2.75-8.34,5.27-.31,8.34,2.75S41.43,17.66,39.89,19.2Z"/><path id="_Path_7" data-name="&lt;Path&gt;" class="cls-5" d="M33.67,9,31.9,10.8c-.73.73-.14,2.51,1.33,4s3.24,2.06,4,1.33L39,14.33Z"/><path id="_Path_8" data-name="&lt;Path&gt;" class="cls-7" d="M33.19,12.72,35,11l3.69,3.69.32-.32L33.67,9,31.9,10.8c-.71.71-.16,2.42,1.23,3.87A1.82,1.82,0,0,1,33.19,12.72Z"/><path id="_Path_9" data-name="&lt;Path&gt;" class="cls-4" d="M33.67,9,31.9,10.8c-.73.73-.14,2.51,1.33,4s3.24,2.06,4,1.33L39,14.33Z"/><path id="_Path_10" data-name="&lt;Path&gt;" class="cls-5" d="M39,14.33c-.74.73-2.51.14-4-1.32s-2.05-3.24-1.32-4,2.51-.13,4,1.33S39.7,13.6,39,14.33Z"/><path id="_Path_11" data-name="&lt;Path&gt;" class="cls-7" d="M34.66,11c.73-.74,2.51-.14,4,1.32a8.85,8.85,0,0,1,.59.67,5.55,5.55,0,0,0-1.58-2.64C36.18,8.9,34.4,8.3,33.67,9s-.28,2,.73,3.3A1.41,1.41,0,0,1,34.66,11Z"/><path id="_Path_12" data-name="&lt;Path&gt;" class="cls-4" d="M39,14.33c-.74.73-2.51.14-4-1.32s-2.05-3.24-1.32-4,2.51-.13,4,1.33S39.7,13.6,39,14.33Z"/><line id="_Path_13" data-name="&lt;Path&gt;" class="cls-4" x1="29.92" y1="18.08" x2="27.31" y2="20.69"/><path id="_Path_14" data-name="&lt;Path&gt;" class="cls-4" d="M27.4,18a10.78,10.78,0,0,0,1.21,1.4A10.78,10.78,0,0,0,30,20.6"/><path id="_Path_15" data-name="&lt;Path&gt;" class="cls-4" d="M11.4,34a9.19,9.19,0,0,0,1.21,1.4A9.19,9.19,0,0,0,14,36.6"/></g></svg>