<svg id="Icons" xmlns="http://www.w3.org/2000/svg" viewBox="0 0 48 48"><defs><style>.cls-1{fill:#45413c;opacity:0.15;}.cls-2{fill:#656769;}.cls-10,.cls-3{fill:#87898c;}.cls-4{fill:none;}.cls-10,.cls-4,.cls-9{stroke:#45413c;stroke-linecap:round;stroke-linejoin:round;}.cls-5{fill:#e8f4fa;}.cls-6{fill:#daedf7;}.cls-7{fill:#f0f0f0;}.cls-8{fill:#fff;}.cls-9{fill:#c0dceb;}</style></defs><title>702-computer-disk</title><path id="_Path_" data-name="&lt;Path&gt;" class="cls-1" d="M45.5,45.18C45.5,46.29,35.87,47,24,47S2.5,46.29,2.5,45.18s9.63-2,21.5-2S45.5,44.07,45.5,45.18Z"/><rect id="_Rectangle_" data-name="&lt;Rectangle&gt;" class="cls-2" x="3.84" y="3.84" width="40.31" height="40.31" rx="2.69" ry="2.69"/><path id="_Path_2" data-name="&lt;Path&gt;" class="cls-3" d="M41.47,3.84H6.53A2.7,2.7,0,0,0,3.84,6.53v3.86A2.69,2.69,0,0,1,6.53,7.71H41.47a2.69,2.69,0,0,1,2.69,2.68V6.53A2.7,2.7,0,0,0,41.47,3.84Z"/><rect id="_Rectangle_2" data-name="&lt;Rectangle&gt;" class="cls-4" x="3.84" y="3.84" width="40.31" height="40.31" rx="2.69" ry="2.69"/><circle id="_Path_3" data-name="&lt;Path&gt;" class="cls-5" cx="24" cy="24" r="15.45"/><path id="_Path_4" data-name="&lt;Path&gt;" class="cls-6" d="M24,12.07A15.45,15.45,0,0,1,39.35,25.76a14.6,14.6,0,0,0,.1-1.76,15.45,15.45,0,0,0-30.9,0,14.6,14.6,0,0,0,.1,1.76A15.45,15.45,0,0,1,24,12.07Z"/><circle id="_Path_5" data-name="&lt;Path&gt;" class="cls-4" cx="24" cy="24" r="15.45"/><path id="_Rectangle_3" data-name="&lt;Rectangle&gt;" class="cls-7" d="M34.08,19.3H44.16a0,0,0,0,1,0,0V28.7a0,0,0,0,1,0,0H34.08a1.34,1.34,0,0,1-1.34-1.34V20.64A1.34,1.34,0,0,1,34.08,19.3Z"/><path id="_Path_6" data-name="&lt;Path&gt;" class="cls-8" d="M34.08,19.3a1.35,1.35,0,0,0-1.35,1.34v3.44a1.35,1.35,0,0,1,1.35-1.34H44.16V19.3Z"/><path id="_Rectangle_4" data-name="&lt;Rectangle&gt;" class="cls-4" d="M34.08,19.3H44.16a0,0,0,0,1,0,0V28.7a0,0,0,0,1,0,0H34.08a1.34,1.34,0,0,1-1.34-1.34V20.64A1.34,1.34,0,0,1,34.08,19.3Z"/><g id="_Group_" data-name="&lt;Group&gt;"><path class="cls-8" d="M24,24,11.22,32.69A15.5,15.5,0,0,0,17.4,38Z"/><path id="_Path_7" data-name="&lt;Path&gt;" class="cls-8" d="M36.78,15.3A15.6,15.6,0,0,0,30.61,10L24,24Z"/><path class="cls-5" d="M34.9,16.58l1.88-1.28A15.6,15.6,0,0,0,30.61,10l-1.4,3A15.33,15.33,0,0,1,34.9,16.58Z"/></g><g id="_Group_2" data-name="&lt;Group&gt;"><path id="_Path_8" data-name="&lt;Path&gt;" class="cls-4" d="M11.22,32.69A15.5,15.5,0,0,0,17.4,38L24,24Z"/><path id="_Path_9" data-name="&lt;Path&gt;" class="cls-4" d="M36.78,15.3A15.6,15.6,0,0,0,30.61,10L24,24Z"/></g><circle id="_Path_10" data-name="&lt;Path&gt;" class="cls-9" cx="24" cy="24" r="5.37"/><circle id="_Path_11" data-name="&lt;Path&gt;" class="cls-10" cx="24" cy="24" r="2.02"/></svg>