<svg id="Icons" xmlns="http://www.w3.org/2000/svg" viewBox="0 0 48 48"><defs><style>.cls-1{fill:#45413c;opacity:0.15;}.cls-2{fill:#87898c;}.cls-3{fill:#656769;}.cls-4{fill:none;stroke-linecap:round;}.cls-4,.cls-7{stroke:#45413c;stroke-linejoin:round;}.cls-5{fill:#f0f0f0;}.cls-6,.cls-7{fill:#fff;}</style></defs><title>704-clapper-board</title><g id="_Group_" data-name="&lt;Group&gt;"><ellipse id="_Ellipse_" data-name="&lt;Ellipse&gt;" class="cls-1" cx="19.66" cy="45.5" rx="14" ry="1.5"/><path id="_Rectangle_" data-name="&lt;Rectangle&gt;" class="cls-2" d="M2.5,22.27H35.82a.48.48,0,0,1,.48.48V43a1,1,0,0,1-1,1H3.47a1,1,0,0,1-1-1V22.27a0,0,0,0,1,0,0Z"/><path id="_Path_" data-name="&lt;Path&gt;" class="cls-3" d="M2.5,22.27v8.21H36.31V22.75a.48.48,0,0,0-.49-.48Z"/><path id="_Rectangle_2" data-name="&lt;Rectangle&gt;" class="cls-4" d="M2.5,22.27H35.82a.48.48,0,0,1,.48.48V43a1,1,0,0,1-1,1H3.47a1,1,0,0,1-1-1V22.27a0,0,0,0,1,0,0Z"/><path id="_Rectangle_3" data-name="&lt;Rectangle&gt;" class="cls-5" d="M2.77,14.11H34.64a1,1,0,0,1,1,1v3.86a.48.48,0,0,1-.48.48H1.8a0,0,0,0,1,0,0V15.08A1,1,0,0,1,2.77,14.11Z" transform="translate(-2.58 3.43) rotate(-9.81)"/><path id="_Rectangle_4" data-name="&lt;Rectangle&gt;" class="cls-4" d="M2.77,14.11H34.64a1,1,0,0,1,1,1v3.86a.48.48,0,0,1-.48.48H1.8a0,0,0,0,1,0,0V15.08A1,1,0,0,1,2.77,14.11Z" transform="translate(-2.58 3.43) rotate(-9.81)"/><path id="_Rectangle_5" data-name="&lt;Rectangle&gt;" class="cls-5" d="M2.5,22.27H35.82a.48.48,0,0,1,.48.48v4.83a0,0,0,0,1,0,0H2.5a0,0,0,0,1,0,0V22.27A0,0,0,0,1,2.5,22.27Z"/><path id="_Path_2" data-name="&lt;Path&gt;" class="cls-6" d="M2.5,22.27v2.41H36.31V22.75a.48.48,0,0,0-.49-.48Z"/><path id="_Rectangle_6" data-name="&lt;Rectangle&gt;" class="cls-4" d="M2.5,22.27H35.82a.48.48,0,0,1,.48.48v4.83a0,0,0,0,1,0,0H2.5a0,0,0,0,1,0,0V22.27A0,0,0,0,1,2.5,22.27Z"/><line id="_Path_3" data-name="&lt;Path&gt;" class="cls-4" x1="5.4" y1="37.72" x2="15.54" y2="37.72"/><line id="_Path_4" data-name="&lt;Path&gt;" class="cls-4" x1="5.4" y1="40.14" x2="33.41" y2="40.14"/><line id="_Path_5" data-name="&lt;Path&gt;" class="cls-4" x1="5.4" y1="32.89" x2="33.41" y2="32.89"/><line id="_Path_6" data-name="&lt;Path&gt;" class="cls-4" x1="19.89" y1="29.99" x2="19.89" y2="32.89"/><polygon id="_Path_7" data-name="&lt;Path&gt;" class="cls-3" points="16.3 19.88 11.54 20.7 7.78 15.96 12.54 15.14 16.3 19.88"/><polygon class="cls-2" points="12.54 15.14 7.78 15.96 9.38 17.97 14.13 17.15 12.54 15.14"/><polygon id="_Path_8" data-name="&lt;Path&gt;" class="cls-3" points="29.15 17.66 24.39 18.48 20.63 13.74 25.39 12.92 29.15 17.66"/><polygon class="cls-2" points="25.39 12.92 20.63 13.74 22.23 15.75 26.98 14.93 25.39 12.92"/><polygon id="_Path_9" data-name="&lt;Path&gt;" class="cls-4" points="16.3 19.88 11.54 20.7 7.78 15.96 12.54 15.14 16.3 19.88"/><polygon id="_Path_10" data-name="&lt;Path&gt;" class="cls-4" points="29.15 17.66 24.39 18.48 20.63 13.74 25.39 12.92 29.15 17.66"/><polygon id="_Path_11" data-name="&lt;Path&gt;" class="cls-3" points="16.51 22.27 11.68 22.27 8.78 27.58 13.61 27.58 16.51 22.27"/><polygon id="_Path_12" data-name="&lt;Path&gt;" class="cls-3" points="29.55 22.27 24.72 22.27 21.82 27.58 26.65 27.58 29.55 22.27"/><polygon id="_Path_13" data-name="&lt;Path&gt;" class="cls-2" points="15.19 24.68 16.51 22.27 11.68 22.27 10.36 24.68 15.19 24.68"/><polygon id="_Path_14" data-name="&lt;Path&gt;" class="cls-2" points="28.23 24.68 29.55 22.27 24.72 22.27 23.4 24.68 28.23 24.68"/><polygon id="_Path_15" data-name="&lt;Path&gt;" class="cls-4" points="16.51 22.27 11.68 22.27 8.78 27.58 13.61 27.58 16.51 22.27"/><polygon id="_Path_16" data-name="&lt;Path&gt;" class="cls-4" points="29.55 22.27 24.72 22.27 21.82 27.58 26.65 27.58 29.55 22.27"/><g id="_Group_2" data-name="&lt;Group&gt;"><path id="_Path_17" data-name="&lt;Path&gt;" class="cls-7" d="M35.46,2.72a.32.32,0,0,0-.3,0A.33.33,0,0,0,35,3l-.42,4.61a.35.35,0,0,0,.63.22L37.71,4a.35.35,0,0,0-.17-.52Z"/><path id="_Path_18" data-name="&lt;Path&gt;" class="cls-7" d="M27.42,2.65a.35.35,0,0,0-.22.21.34.34,0,0,0,0,.31l2.44,3.92a.34.34,0,0,0,.4.15.35.35,0,0,0,.24-.35L30,2.33a.34.34,0,0,0-.14-.26.35.35,0,0,0-.3,0Z"/><path id="_Path_19" data-name="&lt;Path&gt;" class="cls-7" d="M43.32,7.79a.36.36,0,0,1,.1.29.37.37,0,0,1-.17.26l-4,2.28a.33.33,0,0,1-.42-.06.35.35,0,0,1-.05-.42L41.2,6.28a.38.38,0,0,1,.26-.16.36.36,0,0,1,.28.1Z"/><path id="_Path_20" data-name="&lt;Path&gt;" class="cls-7" d="M46.69,15.09a.34.34,0,0,1-.1.29.31.31,0,0,1-.29.1l-4.58-.61a.35.35,0,0,1-.08-.67l4.28-1.59a.33.33,0,0,1,.46.27Z"/></g></g></svg>