<svg id="Icons" xmlns="http://www.w3.org/2000/svg" viewBox="0 0 48 48"><defs><style>.cls-1{fill:#45413c;opacity:0.15;}.cls-2{fill:#bf8256;}.cls-3{fill:#dea47a;}.cls-4{fill:none;}.cls-12,.cls-4{stroke:#45413c;stroke-linecap:round;stroke-linejoin:round;}.cls-5{fill:#f0f0f0;}.cls-6{fill:#bdbec0;}.cls-7{fill:#00b8f0;}.cls-8{fill:#4acfff;}.cls-9{fill:#debb7e;}.cls-10{fill:#b89558;}.cls-11{fill:#fff;}.cls-12{fill:#915e3a;}</style></defs><title>705-television</title><g id="_Group_" data-name="&lt;Group&gt;"><ellipse id="_Ellipse_" data-name="&lt;Ellipse&gt;" class="cls-1" cx="24" cy="44.85" rx="16.5" ry="2.15"/><path id="_Rectangle_" data-name="&lt;Rectangle&gt;" class="cls-2" d="M10.14,3.41H37.86a5.28,5.28,0,0,1,5.28,5.28V36.9a4.8,4.8,0,0,1-4.8,4.8H9.65a4.8,4.8,0,0,1-4.8-4.8V8.69a5.28,5.28,0,0,1,5.28-5.28Z"/><path id="_Path_" data-name="&lt;Path&gt;" class="cls-3" d="M37.86,3.41H10.14A5.28,5.28,0,0,0,4.85,8.69v4.62A5.28,5.28,0,0,1,10.14,8H37.86a5.28,5.28,0,0,1,5.29,5.28V8.69A5.28,5.28,0,0,0,37.86,3.41Z"/><path id="_Rectangle_2" data-name="&lt;Rectangle&gt;" class="cls-4" d="M10.14,3.41H37.86a5.28,5.28,0,0,1,5.28,5.28V36.9a4.8,4.8,0,0,1-4.8,4.8H9.65a4.8,4.8,0,0,1-4.8-4.8V8.69a5.28,5.28,0,0,1,5.28-5.28Z"/><rect id="_Rectangle_3" data-name="&lt;Rectangle&gt;" class="cls-5" x="8.15" y="6.71" width="31.69" height="26.41" rx="2.71" ry="2.71"/><path id="_Path_2" data-name="&lt;Path&gt;" class="cls-6" d="M37.14,6.71H10.86A2.71,2.71,0,0,0,8.15,9.42v4a2.71,2.71,0,0,1,2.71-2.71H37.14a2.71,2.71,0,0,1,2.71,2.71v-4A2.71,2.71,0,0,0,37.14,6.71Z"/><rect id="_Rectangle_4" data-name="&lt;Rectangle&gt;" class="cls-4" x="8.15" y="6.71" width="31.69" height="26.41" rx="2.71" ry="2.71"/><path id="_Path_3" data-name="&lt;Path&gt;" class="cls-7" d="M34.61,30h0a62.48,62.48,0,0,1-21.22,0h0a2.88,2.88,0,0,1-2.33-2.26h0a39.39,39.39,0,0,1,0-15.6h0a2.89,2.89,0,0,1,2.33-2.26h0a62.48,62.48,0,0,1,21.22,0h0a2.89,2.89,0,0,1,2.33,2.26h0a39.39,39.39,0,0,1,0,15.6h0A2.88,2.88,0,0,1,34.61,30Z"/><path id="_Path_4" data-name="&lt;Path&gt;" class="cls-8" d="M11.06,12.11a39.39,39.39,0,0,0,0,15.6A2.88,2.88,0,0,0,13.39,30c.92.16,1.85.3,2.77.41L35.69,10.31a2.81,2.81,0,0,0-1.08-.46,62.48,62.48,0,0,0-21.22,0A2.89,2.89,0,0,0,11.06,12.11Z"/><path class="cls-4" d="M36.94,27.71a39.39,39.39,0,0,0,0-15.6,2.89,2.89,0,0,0-2.33-2.26,62.48,62.48,0,0,0-21.22,0,2.89,2.89,0,0,0-2.33,2.26,39.39,39.39,0,0,0,0,15.6A2.88,2.88,0,0,0,13.39,30a62.48,62.48,0,0,0,21.22,0A2.88,2.88,0,0,0,36.94,27.71Z"/><path id="_Path_5" data-name="&lt;Path&gt;" class="cls-9" d="M29,37.08H19a2.64,2.64,0,0,0-2.62,2.26l-.33,2.36H31.92l-.33-2.36A2.64,2.64,0,0,0,29,37.08Z"/><path id="_Path_6" data-name="&lt;Path&gt;" class="cls-10" d="M31.59,39.34A2.64,2.64,0,0,0,29,37.08H19a2.64,2.64,0,0,0-2.62,2.26L16.19,41A2.86,2.86,0,0,1,19,38.73H29A2.88,2.88,0,0,1,31.82,41Z"/><path id="_Path_7" data-name="&lt;Path&gt;" class="cls-4" d="M29,37.08H19a2.64,2.64,0,0,0-2.62,2.26l-.33,2.36H31.92l-.33-2.36A2.64,2.64,0,0,0,29,37.08Z"/><circle id="_Path_8" data-name="&lt;Path&gt;" class="cls-5" cx="11.79" cy="37.41" r="2.31"/><circle id="_Path_9" data-name="&lt;Path&gt;" class="cls-5" cx="36.22" cy="37.41" r="2.31"/><path id="_Path_10" data-name="&lt;Path&gt;" class="cls-11" d="M11.79,36.76a2.3,2.3,0,0,1,2.15,1.48,2.31,2.31,0,1,0-4.3,0A2.3,2.3,0,0,1,11.79,36.76Z"/><path id="_Path_11" data-name="&lt;Path&gt;" class="cls-11" d="M36.22,36.76a2.31,2.31,0,0,1,2.15,1.48,2.31,2.31,0,1,0-4.3,0A2.3,2.3,0,0,1,36.22,36.76Z"/><circle id="_Path_12" data-name="&lt;Path&gt;" class="cls-4" cx="11.79" cy="37.41" r="2.31"/><circle id="_Path_13" data-name="&lt;Path&gt;" class="cls-4" cx="36.22" cy="37.41" r="2.31"/><path id="_Path_14" data-name="&lt;Path&gt;" class="cls-12" d="M13,45H11.22a1.33,1.33,0,0,1-1.3-1.06L9.48,41.7h5.28l-.45,2.24A1.32,1.32,0,0,1,13,45Z"/><path id="_Path_15" data-name="&lt;Path&gt;" class="cls-12" d="M36.78,45H35a1.32,1.32,0,0,1-1.3-1.06l-.45-2.24h5.28l-.44,2.24A1.33,1.33,0,0,1,36.78,45Z"/><line id="_Path_16" data-name="&lt;Path&gt;" class="cls-4" x1="16.41" y1="39.34" x2="31.59" y2="39.34"/></g></svg>