<svg id="Icons" xmlns="http://www.w3.org/2000/svg" viewBox="0 0 48 48"><defs><style>.cls-1{fill:#e8f4fa;}.cls-2{fill:#fff;}.cls-3{fill:none;}.cls-10,.cls-3{stroke:#45413c;stroke-linecap:round;stroke-linejoin:round;}.cls-4{fill:#45413c;opacity:0.15;}.cls-10,.cls-5{fill:#656769;}.cls-6{fill:#87898c;}.cls-7{fill:#00b8f0;}.cls-8{fill:#4acfff;}.cls-9{fill:#c0dceb;}</style></defs><title>709-telescope</title><path id="_Path_" data-name="&lt;Path&gt;" class="cls-1" d="M28.63,26.16,43.27,32c.5.21,1.38-.7,2-2s.68-2.61.19-2.83L31.29,20.17Z"/><path id="_Path_2" data-name="&lt;Path&gt;" class="cls-2" d="M45.38,29.6c.47-1.21.5-2.29,0-2.49L31.29,20.17l-1,2.3Z"/><path id="_Path_3" data-name="&lt;Path&gt;" class="cls-3" d="M28.63,26.16,43.27,32c.5.21,1.38-.7,2-2s.68-2.61.19-2.83L31.29,20.17Z"/><path id="_Path_4" data-name="&lt;Path&gt;" class="cls-1" d="M3.11,16.79,28.29,26.94c.76.33,2.13-1.08,3.05-3.16s1.05-4,.29-4.38L7.2,7.56Z"/><path id="_Path_5" data-name="&lt;Path&gt;" class="cls-2" d="M31.59,23.16c.69-1.84.73-3.46,0-3.76L7.2,7.56,5.72,10.91Z"/><path id="_Path_6" data-name="&lt;Path&gt;" class="cls-3" d="M3.11,16.79,28.29,26.94c.76.33,2.13-1.08,3.05-3.16s1.05-4,.29-4.38L7.2,7.56Z"/><ellipse id="_Ellipse_" data-name="&lt;Ellipse&gt;" class="cls-4" cx="25.65" cy="42.65" rx="17.27" ry="1.85"/><path class="cls-5" d="M13.61,10.67,7.2,7.56,3.11,16.79l6.61,2.66c.89.4,2.48-1.25,3.55-3.68S14.5,11.06,13.61,10.67Z"/><path id="_Path_7" data-name="&lt;Path&gt;" class="cls-6" d="M13.88,14.06c.48-1.74.41-3.15-.27-3.45L7.2,7.5,5.93,10.37Z"/><path class="cls-3" d="M13.61,10.67,7.2,7.56,3.11,16.79l6.61,2.66c.89.4,2.48-1.25,3.55-3.68S14.5,11.06,13.61,10.67Z"/><ellipse id="_Path_8" data-name="&lt;Path&gt;" class="cls-7" cx="5.15" cy="12.18" rx="5.05" ry="1.85" transform="translate(-8.07 11.96) rotate(-66.1)"/><path id="_Path_9" data-name="&lt;Path&gt;" class="cls-8" d="M3.46,14.3C4.59,11.76,6.26,10,7.2,10.44a.84.84,0,0,1,.38.37C8,9.16,7.86,7.86,7.2,7.56c-.94-.41-2.61,1.32-3.74,3.87-.94,2.12-1.21,4.14-.73,5A13.38,13.38,0,0,1,3.46,14.3Z"/><ellipse id="_Path_10" data-name="&lt;Path&gt;" class="cls-3" cx="5.15" cy="12.18" rx="5.05" ry="1.85" transform="translate(-8.07 11.96) rotate(-66.1)"/><path class="cls-5" d="M31.63,19.4l-2.69-1.3c.78.34.65,2.35-.29,4.49s-2.35,3.58-3.13,3.23l2.77,1.12c.76.33,2.13-1.08,3.05-3.16S32.39,19.74,31.63,19.4Z"/><path id="_Path_11" data-name="&lt;Path&gt;" class="cls-6" d="M29.22,21l2.69,1.21c.36-1.41.28-2.53-.28-2.78l-2.69-1.3C29.52,18.35,29.6,19.52,29.22,21Z"/><path class="cls-3" d="M31.63,19.4l-2.69-1.3c.78.34.65,2.35-.29,4.49s-2.35,3.58-3.13,3.23l2.77,1.12c.76.33,2.13-1.08,3.05-3.16S32.39,19.74,31.63,19.4Z"/><path class="cls-5" d="M45.43,27.11,43.16,26c.51.23.42,1.54-.19,2.93s-1.53,2.34-2,2.11c0,0,2.35.93,2.35.94.5.21,1.38-.7,2-2S45.92,27.33,45.43,27.11Z"/><path id="_Path_12" data-name="&lt;Path&gt;" class="cls-6" d="M43.33,27.93l2.26,1c.25-.93.21-1.68-.16-1.85L43.16,26C43.54,26.17,43.59,27,43.33,27.93Z"/><path class="cls-3" d="M45.43,27.11,43.16,26c.51.23.42,1.54-.19,2.93s-1.53,2.34-2,2.11c0,0,2.35.93,2.35.94.5.21,1.38-.7,2-2S45.92,27.33,45.43,27.11Z"/><rect id="_Rectangle_" data-name="&lt;Rectangle&gt;" class="cls-1" x="21.51" y="26.32" width="2.62" height="4.11"/><rect id="_Rectangle_2" data-name="&lt;Rectangle&gt;" class="cls-9" x="21.51" y="26.32" width="2.62" height="1.83"/><rect id="_Rectangle_3" data-name="&lt;Rectangle&gt;" class="cls-3" x="21.51" y="26.32" width="2.62" height="4.11"/><path class="cls-1" d="M17.87,42.8a1.23,1.23,0,0,0,1.18-.91l3-11.46H20.39a1.23,1.23,0,0,0-1.2.93l-2.51,9.92A1.23,1.23,0,0,0,17.87,42.8Z"/><path id="_Path_13" data-name="&lt;Path&gt;" class="cls-9" d="M19.19,31.36,18.28,35h2.59l1.19-4.53H20.39A1.23,1.23,0,0,0,19.19,31.36Z"/><path class="cls-3" d="M17.87,42.8a1.23,1.23,0,0,0,1.18-.91l3-11.46H20.39a1.23,1.23,0,0,0-1.2.93l-2.51,9.92A1.23,1.23,0,0,0,17.87,42.8Z"/><path class="cls-1" d="M27.77,42.8a1.22,1.22,0,0,1-1.18-.91l-3-11.46h1.67a1.22,1.22,0,0,1,1.19.93L29,41.28A1.22,1.22,0,0,1,27.77,42.8Z"/><path id="_Path_14" data-name="&lt;Path&gt;" class="cls-9" d="M26.44,31.36l.91,3.6H24.77l-1.19-4.53h1.67A1.22,1.22,0,0,1,26.44,31.36Z"/><path class="cls-3" d="M27.77,42.8a1.22,1.22,0,0,1-1.18-.91l-3-11.46h1.67a1.22,1.22,0,0,1,1.19.93L29,41.28A1.22,1.22,0,0,1,27.77,42.8Z"/><path id="_Path_15" data-name="&lt;Path&gt;" class="cls-10" d="M26.85,33H18.78l.41-1.61a1.23,1.23,0,0,1,1.2-.93h4.86a1.23,1.23,0,0,1,1.19.93Z"/><path class="cls-5" d="M28.74,21.15a1.35,1.35,0,0,0-1.93.06,6.83,6.83,0,0,1-5,2.19H18.57v1.33a1.59,1.59,0,0,0,1.59,1.59h1.35A9.74,9.74,0,0,0,28.82,23,1.35,1.35,0,0,0,28.74,21.15Z"/><path class="cls-6" d="M28.74,21.15a1.35,1.35,0,0,0-1.93.06,7.5,7.5,0,0,1-.71.67,1.5,1.5,0,0,1,.33.23A1.35,1.35,0,0,1,26.51,24a9.64,9.64,0,0,1-2.43,2A9.68,9.68,0,0,0,28.82,23,1.35,1.35,0,0,0,28.74,21.15Z"/><path class="cls-3" d="M28.74,21.15a1.35,1.35,0,0,0-1.93.06,6.83,6.83,0,0,1-5,2.19H18.57v1.33a1.59,1.59,0,0,0,1.59,1.59h1.35A9.74,9.74,0,0,0,28.82,23,1.35,1.35,0,0,0,28.74,21.15Z"/></svg>