<svg id="Icons" xmlns="http://www.w3.org/2000/svg" viewBox="0 0 48 48"><defs><style>.cls-1{fill:#00b8f0;}.cls-2{fill:#4acfff;}.cls-3{fill:none;}.cls-3,.cls-4,.cls-8{stroke:#45413c;stroke-linecap:round;stroke-linejoin:round;}.cls-4{fill:#627b8c;}.cls-5{fill:#45413c;opacity:0.15;}.cls-6{fill:#fffef2;}.cls-7{fill:#fff;}.cls-8{fill:#fffce5;}</style></defs><title>713-open-book</title><path class="cls-1" d="M43,10.41,26,9.6v1.57H22V9.6L5,10.41a2,2,0,0,0-1.9,2v27a2,2,0,0,0,2.13,2l13.44-.81a1,1,0,0,1,.95.54c.26.66,1,.91,1.89.91h5c.88,0,1.63-.25,1.89-.91a1,1,0,0,1,.95-.54l13.44.81a2,2,0,0,0,2.13-2v-27A2,2,0,0,0,43,10.41Z"/><path class="cls-2" d="M43,10.41,26,9.6v1.57H22V9.6L5,10.41a2,2,0,0,0-1.9,2v3.5a2,2,0,0,1,1.9-2L24,13l19,.91a2,2,0,0,1,1.9,2V12.4A2,2,0,0,0,43,10.41Z"/><path class="cls-3" d="M43,10.41,26,9.6v1.57H22V9.6L5,10.41a2,2,0,0,0-1.9,2v27a2,2,0,0,0,2.13,2l13.44-.81a1,1,0,0,1,.95.54c.26.66,1,.91,1.89.91h5c.88,0,1.63-.25,1.89-.91a1,1,0,0,1,.95-.54l13.44.81a2,2,0,0,0,2.13-2v-27A2,2,0,0,0,43,10.41Z"/><path id="_Rectangle_" data-name="&lt;Rectangle&gt;" class="cls-4" d="M21,36h6a0,0,0,0,1,0,0v2a1.54,1.54,0,0,1-1.54,1.54H22.54A1.54,1.54,0,0,1,21,38V36A0,0,0,0,1,21,36Z"/><ellipse id="_Ellipse_" data-name="&lt;Ellipse&gt;" class="cls-5" cx="24" cy="43.5" rx="17" ry="1.5"/><path id="_Path_" data-name="&lt;Path&gt;" class="cls-6" d="M8.59,9.5,6.43,12.24a2.05,2.05,0,0,0-.34,1.13V39l2.5-3.67Z"/><path id="_Path_2" data-name="&lt;Path&gt;" class="cls-6" d="M39.41,9.5l2.16,2.74a2.05,2.05,0,0,1,.34,1.13V39l-2.5-3.67Z"/><path id="_Path_3" data-name="&lt;Path&gt;" class="cls-7" d="M6.43,12.24a2.05,2.05,0,0,0-.34,1.13v3.5a2.05,2.05,0,0,1,.34-1.13L8.59,13V9.5Z"/><path id="_Path_4" data-name="&lt;Path&gt;" class="cls-7" d="M41.57,12.24,39.41,9.5V13l2.16,2.74a2.05,2.05,0,0,1,.34,1.13v-3.5A2.05,2.05,0,0,0,41.57,12.24Z"/><path id="_Path_5" data-name="&lt;Path&gt;" class="cls-3" d="M8.59,9.5,6.43,12.24a2.05,2.05,0,0,0-.34,1.13V39l2.5-3.67Z"/><path id="_Path_6" data-name="&lt;Path&gt;" class="cls-3" d="M39.41,9.5l2.16,2.74a2.05,2.05,0,0,1,.34,1.13V39l-2.5-3.67Z"/><path id="_Path_7" data-name="&lt;Path&gt;" class="cls-6" d="M24,37V11a3,3,0,0,0-3-3L9.5,8.92a1.52,1.52,0,0,0-.91.58v29l12.63-.4A3.42,3.42,0,0,1,24,37Z"/><path id="_Path_8" data-name="&lt;Path&gt;" class="cls-6" d="M27,8a3,3,0,0,0-3,3V37a3.42,3.42,0,0,1,2.78,1.1l12.63.4V9.5a1.52,1.52,0,0,0-.91-.58Z"/><path id="_Path_9" data-name="&lt;Path&gt;" class="cls-7" d="M21,8,9.5,8.92a1.52,1.52,0,0,0-.91.58v2.92a1,1,0,0,1,.91-1L21,10.5a3,3,0,0,1,3,3V11A3,3,0,0,0,21,8Z"/><path id="_Path_10" data-name="&lt;Path&gt;" class="cls-7" d="M38.5,8.92,27,8a3,3,0,0,0-3,3v2.5a3,3,0,0,1,3-3l11.5.92a1,1,0,0,1,.91,1V9.5A1.52,1.52,0,0,0,38.5,8.92Z"/><path id="_Path_11" data-name="&lt;Path&gt;" class="cls-3" d="M24,37V11a3,3,0,0,0-3-3L9.5,8.92a1.52,1.52,0,0,0-.91.58v29l12.63-.4A3.42,3.42,0,0,1,24,37Z"/><path id="_Path_12" data-name="&lt;Path&gt;" class="cls-3" d="M27,8a3,3,0,0,0-3,3V37a3.42,3.42,0,0,1,2.78,1.1l12.63.4V9.5a1.52,1.52,0,0,0-.91-.58Z"/><path id="_Path_13" data-name="&lt;Path&gt;" class="cls-8" d="M24,37A3,3,0,0,0,21,34.5l-12.41.83L6.09,39l15.09-.83A3.34,3.34,0,0,1,24,37Z"/><path id="_Path_14" data-name="&lt;Path&gt;" class="cls-8" d="M26.82,38.17,41.91,39l-2.5-3.67L27,34.5A3,3,0,0,0,24.05,37,3.34,3.34,0,0,1,26.82,38.17Z"/><line id="_Path_15" data-name="&lt;Path&gt;" class="cls-3" x1="20.5" y1="11.5" x2="11.5" y2="12.36"/><line id="_Path_16" data-name="&lt;Path&gt;" class="cls-3" x1="20.5" y1="15.33" x2="11.5" y2="16.19"/><line id="_Path_17" data-name="&lt;Path&gt;" class="cls-3" x1="20.5" y1="19.16" x2="11.5" y2="20.01"/><line id="_Path_18" data-name="&lt;Path&gt;" class="cls-3" x1="20.5" y1="22.99" x2="11.5" y2="23.84"/><line id="_Path_19" data-name="&lt;Path&gt;" class="cls-3" x1="20.5" y1="26.81" x2="11.5" y2="27.67"/><line id="_Path_20" data-name="&lt;Path&gt;" class="cls-3" x1="20.5" y1="30.64" x2="11.5" y2="31.5"/><line id="_Path_21" data-name="&lt;Path&gt;" class="cls-3" x1="27.5" y1="11.5" x2="36.5" y2="12.36"/><line id="_Path_22" data-name="&lt;Path&gt;" class="cls-3" x1="27.5" y1="15.33" x2="36.5" y2="16.19"/><line id="_Path_23" data-name="&lt;Path&gt;" class="cls-3" x1="27.5" y1="19.16" x2="36.5" y2="20.01"/><line id="_Path_24" data-name="&lt;Path&gt;" class="cls-3" x1="27.5" y1="22.99" x2="36.5" y2="23.84"/><line id="_Path_25" data-name="&lt;Path&gt;" class="cls-3" x1="27.5" y1="26.81" x2="36.5" y2="27.67"/><line id="_Path_26" data-name="&lt;Path&gt;" class="cls-3" x1="27.5" y1="30.64" x2="36.5" y2="31.5"/></svg>