<svg id="Icons" xmlns="http://www.w3.org/2000/svg" viewBox="0 0 48 48"><defs><style>.cls-1{fill:#00f5bc;}.cls-2{fill:none;}.cls-11,.cls-2,.cls-3,.cls-7{stroke:#45413c;stroke-linecap:round;stroke-linejoin:round;}.cls-3,.cls-9{fill:#656769;}.cls-4{fill:#45413c;opacity:0.15;}.cls-5{fill:#fffce5;}.cls-6,.cls-7{fill:#fffef2;}.cls-8{fill:#8cffe4;}.cls-10{fill:#87898c;}.cls-11{fill:#fff;}</style></defs><title>714-green-book</title><g id="_Group_" data-name="&lt;Group&gt;"><path id="_Path_" data-name="&lt;Path&gt;" class="cls-1" d="M38.15,40.91,15.78,34.2V1.92L38,8.58a2.4,2.4,0,0,1,1.7,2.29v28.9A1.19,1.19,0,0,1,38.15,40.91Z"/><path id="_Path_2" data-name="&lt;Path&gt;" class="cls-2" d="M38.15,40.91,15.78,34.2V1.92L38,8.58a2.4,2.4,0,0,1,1.7,2.29v28.9A1.19,1.19,0,0,1,38.15,40.91Z"/><polygon id="_Path_3" data-name="&lt;Path&gt;" class="cls-3" points="20.66 3.39 15.78 1.92 15.78 34.2 20.66 35.66 20.66 3.39"/><polygon id="_Path_4" data-name="&lt;Path&gt;" class="cls-3" points="15.78 1.92 9.8 6.11 9.8 19.11 15.78 13.8 15.78 1.92"/><ellipse id="_Ellipse_" data-name="&lt;Ellipse&gt;" class="cls-4" cx="24" cy="45.21" rx="13.75" ry="1.79"/><polygon id="_Path_5" data-name="&lt;Path&gt;" class="cls-5" points="32.16 43.94 36.7 40.48 36.7 11.19 32.16 14.32 32.16 43.94"/><polygon id="_Path_6" data-name="&lt;Path&gt;" class="cls-6" points="32.16 14.32 32.16 19.09 36.7 15.95 36.7 11.19 32.16 14.32"/><polygon id="_Path_7" data-name="&lt;Path&gt;" class="cls-2" points="32.16 43.94 36.7 40.48 36.7 11.19 32.16 14.32 32.16 43.94"/><polygon id="_Path_8" data-name="&lt;Path&gt;" class="cls-7" points="15.78 4.91 11.3 8.05 32.22 14.32 36.7 11.19 15.78 4.91"/><path id="_Path_9" data-name="&lt;Path&gt;" class="cls-1" d="M32.17,45.09,10.66,38.64a1.2,1.2,0,0,1-.86-1.15V6.11L32,12.77a2.38,2.38,0,0,1,1.7,2.29V44A1.19,1.19,0,0,1,32.17,45.09Z"/><path id="_Path_10" data-name="&lt;Path&gt;" class="cls-8" d="M32,12.77,9.8,6.11V9.62L32,16.28a2.38,2.38,0,0,1,1.7,2.29V15.06A2.38,2.38,0,0,0,32,12.77Z"/><path id="_Path_11" data-name="&lt;Path&gt;" class="cls-2" d="M32.17,45.09,10.66,38.64a1.2,1.2,0,0,1-.86-1.15V6.11L32,12.77a2.38,2.38,0,0,1,1.7,2.29V44A1.19,1.19,0,0,1,32.17,45.09Z"/><path id="_Path_12" data-name="&lt;Path&gt;" class="cls-9" d="M14.69,7.57,9.8,6.11V37.49a1.2,1.2,0,0,0,.86,1.15l4,1.21Z"/><polygon id="_Path_13" data-name="&lt;Path&gt;" class="cls-10" points="9.8 6.11 9.8 9.62 14.69 11.08 14.69 7.57 9.8 6.11"/><path id="_Path_14" data-name="&lt;Path&gt;" class="cls-2" d="M14.69,7.57,9.8,6.11V37.49a1.2,1.2,0,0,0,.86,1.15l4,1.21Z"/><polygon id="_Path_15" data-name="&lt;Path&gt;" class="cls-11" points="27.81 22.98 20.19 20.74 20.19 15.95 27.81 18.2 27.81 22.98"/></g></svg>