<svg id="Icons" xmlns="http://www.w3.org/2000/svg" viewBox="0 0 48 48"><defs><style>.cls-1{fill:#45413c;opacity:0.15;}.cls-2{fill:#fff5e3;}.cls-3,.cls-5{fill:#f7e5c6;}.cls-4{fill:none;}.cls-4,.cls-5{stroke:#45413c;stroke-linecap:round;stroke-linejoin:round;}.cls-6{fill:#f0d5a8;}.cls-7{fill:#debb7e;}</style></defs><title>715-scroll</title><g id="_Group_" data-name="&lt;Group&gt;"><ellipse id="_Ellipse_" data-name="&lt;Ellipse&gt;" class="cls-1" cx="24" cy="45.15" rx="14.19" ry="1.85"/><path class="cls-2" d="M10.45,7.49V36.58c0,1.65-.41,3-2.06,3H35.94c1.65,0,2.06-1.33,2.06-3V7.49Z"/><g id="_Group_2" data-name="&lt;Group&gt;"><rect id="_Path_" data-name="&lt;Path&gt;" class="cls-3" x="10.45" y="7.49" width="27.55" height="5.4"/></g><path id="_Path_2" data-name="&lt;Path&gt;" class="cls-4" d="M38,36.58c0,1.65-.41,3-2.06,3H8.39c1.65,0,2.06-1.33,2.06-3V7.49H38Z"/><path class="cls-5" d="M33.58,36.58v-.81H6v.81c0,1.65.72,3,2.37,3H35.94C34.3,39.56,33.58,38.23,33.58,36.58Z"/><path id="_Path_3" data-name="&lt;Path&gt;" class="cls-3" d="M9.42,5.13c-.85,0-1.55,1.06-1.55,2.36s.7,2.37,1.55,2.37h27V5.13Z"/><path id="_Path_4" data-name="&lt;Path&gt;" class="cls-2" d="M9.42,5.13c-.85,0-1.55,1.06-1.55,2.36a3.29,3.29,0,0,0,.18,1.07c.25-.77.77-1.3,1.37-1.3h27V5.13Z"/><path id="_Path_5" data-name="&lt;Path&gt;" class="cls-4" d="M9.42,5.13c-.85,0-1.55,1.06-1.55,2.36s.7,2.37,1.55,2.37h27V5.13Z"/><ellipse id="_Path_6" data-name="&lt;Path&gt;" class="cls-6" cx="36.46" cy="7.49" rx="1.54" ry="2.36"/><path id="_Path_7" data-name="&lt;Path&gt;" class="cls-7" d="M36.46,7c.64,0,1.18.59,1.42,1.44A3.48,3.48,0,0,0,38,7.49c0-1.3-.69-2.36-1.54-2.36s-1.54,1.06-1.54,2.36a3.48,3.48,0,0,0,.12.93C35.27,7.57,35.82,7,36.46,7Z"/><ellipse id="_Path_8" data-name="&lt;Path&gt;" class="cls-4" cx="36.46" cy="7.49" rx="1.54" ry="2.36"/><line id="_Path_9" data-name="&lt;Path&gt;" class="cls-4" x1="14.28" y1="14.1" x2="28.08" y2="14.1"/><line id="_Path_10" data-name="&lt;Path&gt;" class="cls-4" x1="14.28" y1="27.59" x2="28.08" y2="27.59"/><line id="_Path_11" data-name="&lt;Path&gt;" class="cls-4" x1="14.28" y1="31.22" x2="30.31" y2="31.22"/><line id="_Path_12" data-name="&lt;Path&gt;" class="cls-4" x1="14.28" y1="17.49" x2="33.17" y2="17.49"/><line id="_Path_13" data-name="&lt;Path&gt;" class="cls-4" x1="14.28" y1="21.04" x2="33.17" y2="21.04"/></g></svg>