<svg id="Icons" xmlns="http://www.w3.org/2000/svg" viewBox="0 0 48 48"><defs><style>.cls-1{fill:#45413c;opacity:0.15;}.cls-2{fill:#bdbec0;}.cls-2,.cls-5,.cls-6{stroke:#45413c;stroke-linecap:round;stroke-linejoin:round;}.cls-3{fill:#f0f0f0;}.cls-4{fill:#e0e0e0;}.cls-5{fill:none;}.cls-6{fill:#87898c;}</style></defs><title>716-newspaper</title><g id="_Group_" data-name="&lt;Group&gt;"><ellipse id="_Ellipse_" data-name="&lt;Ellipse&gt;" class="cls-1" cx="24" cy="45.22" rx="23.13" ry="1.78"/><path class="cls-2" d="M45,12.57a1.18,1.18,0,0,0-1.19-1.18H10.62V44H42a3,3,0,0,0,3-3Z"/><path id="_Path_" data-name="&lt;Path&gt;" class="cls-3" d="M39.67,41.63A2.37,2.37,0,0,0,42,44H5.87A2.37,2.37,0,0,1,3.5,41.63V6.05A1.18,1.18,0,0,1,4.69,4.87H38.48a1.18,1.18,0,0,1,1.19,1.18Z"/><path id="_Path_2" data-name="&lt;Path&gt;" class="cls-4" d="M42,44a2.37,2.37,0,0,1-2.37-2.37v-.89H5.87A2.37,2.37,0,0,1,3.5,38.37v3.26A2.37,2.37,0,0,0,5.87,44Z"/><path id="_Path_3" data-name="&lt;Path&gt;" class="cls-5" d="M39.67,41.63A2.37,2.37,0,0,0,42,44H5.87A2.37,2.37,0,0,1,3.5,41.63V6.05A1.18,1.18,0,0,1,4.69,4.87H38.48a1.18,1.18,0,0,1,1.19,1.18Z"/><rect id="_Rectangle_" data-name="&lt;Rectangle&gt;" class="cls-6" x="7.06" y="9.02" width="28.46" height="6.52" rx="0.63" ry="0.63"/><rect id="_Rectangle_2" data-name="&lt;Rectangle&gt;" class="cls-6" x="7.65" y="19.1" width="15.42" height="15.42" rx="1.35" ry="1.35"/><line id="_Path_4" data-name="&lt;Path&gt;" class="cls-5" x1="26.63" y1="27.14" x2="35.52" y2="27.14"/><line id="_Path_5" data-name="&lt;Path&gt;" class="cls-5" x1="26.63" y1="23.46" x2="35.52" y2="23.46"/><line id="_Path_6" data-name="&lt;Path&gt;" class="cls-5" x1="26.63" y1="19.77" x2="35.52" y2="19.77"/><line id="_Path_7" data-name="&lt;Path&gt;" class="cls-5" x1="26.63" y1="30.83" x2="35.52" y2="30.83"/><line id="_Path_8" data-name="&lt;Path&gt;" class="cls-5" x1="26.63" y1="34.51" x2="35.52" y2="34.51"/><line id="_Path_9" data-name="&lt;Path&gt;" class="cls-5" x1="7.65" y1="39.26" x2="35.52" y2="39.26"/><path id="_Path_10" data-name="&lt;Path&gt;" class="cls-2" d="M18.82,28a13.43,13.43,0,0,1-1.27-4,.59.59,0,0,0-.59-.56h-2.9a.57.57,0,0,0-.58.49,18.34,18.34,0,0,1-1.23,3.74A13.34,13.34,0,0,1,7.65,33v.18A1.34,1.34,0,0,0,9,34.51H21.72a1.35,1.35,0,0,0,1.35-1.35v-1A9.31,9.31,0,0,1,18.82,28Z"/></g></svg>