<svg id="Icons" xmlns="http://www.w3.org/2000/svg" viewBox="0 0 48 48"><defs><style>.cls-1,.cls-10{fill:#45413c;}.cls-1{opacity:0.15;}.cls-2{fill:#e0e0e0;}.cls-11,.cls-2,.cls-3,.cls-6,.cls-9{stroke:#45413c;stroke-linecap:round;stroke-linejoin:round;}.cls-3{fill:#debb7e;}.cls-4{fill:#f0f0f0;}.cls-5{fill:#fff;}.cls-6{fill:none;}.cls-7{fill:#f0d5a8;}.cls-8{fill:#f7e5c6;}.cls-9{fill:#f5ebff;}.cls-11{fill:#bf8df2;}</style></defs><title>719-pound-banknote</title><g id="_Group_" data-name="&lt;Group&gt;"><ellipse id="_Ellipse_" data-name="&lt;Ellipse&gt;" class="cls-1" cx="24" cy="38.75" rx="22.38" ry="1.64"/><path id="_Rectangle_" data-name="&lt;Rectangle&gt;" class="cls-2" d="M3.09,32.12H44.91a0,0,0,0,1,0,0v3.55a2.18,2.18,0,0,1-2.18,2.18H5.27a2.18,2.18,0,0,1-2.18-2.18V32.12a0,0,0,0,1,0,0Z"/><path id="_Rectangle_2" data-name="&lt;Rectangle&gt;" class="cls-2" d="M3.09,29.26H44.91a0,0,0,0,1,0,0V32.8A2.18,2.18,0,0,1,42.73,35H5.27A2.18,2.18,0,0,1,3.09,32.8V29.26a0,0,0,0,1,0,0Z"/><path id="_Rectangle_3" data-name="&lt;Rectangle&gt;" class="cls-3" d="M18.41,32.12H29.59a0,0,0,0,1,0,0v6.21a.55.55,0,0,1-.55.55H19a.55.55,0,0,1-.55-.55V32.12A0,0,0,0,1,18.41,32.12Z"/><rect id="_Rectangle_4" data-name="&lt;Rectangle&gt;" class="cls-4" x="3.09" y="9.57" width="41.82" height="22.55" rx="2.18" ry="2.18"/><path id="_Path_" data-name="&lt;Path&gt;" class="cls-5" d="M42.73,9.57H5.27a2.18,2.18,0,0,0-2.18,2.19V17a2.18,2.18,0,0,1,2.18-2.19H42.73A2.18,2.18,0,0,1,44.91,17V11.76A2.18,2.18,0,0,0,42.73,9.57Z"/><rect id="_Rectangle_5" data-name="&lt;Rectangle&gt;" class="cls-6" x="3.09" y="9.57" width="41.82" height="22.55" rx="2.18" ry="2.18"/><path id="_Rectangle_6" data-name="&lt;Rectangle&gt;" class="cls-7" d="M19,8.5H29a.55.55,0,0,1,.55.55V32.12a0,0,0,0,1,0,0H18.41a0,0,0,0,1,0,0V9A.55.55,0,0,1,19,8.5Z"/><path id="_Path_2" data-name="&lt;Path&gt;" class="cls-8" d="M29.05,8.5H19a.54.54,0,0,0-.54.55v3.88a.54.54,0,0,1,.54-.54h10.1a.54.54,0,0,1,.54.54V9.05A.54.54,0,0,0,29.05,8.5Z"/><path id="_Rectangle_7" data-name="&lt;Rectangle&gt;" class="cls-6" d="M19,8.5H29a.55.55,0,0,1,.55.55V32.12a0,0,0,0,1,0,0H18.41a0,0,0,0,1,0,0V9A.55.55,0,0,1,19,8.5Z"/><path id="_Rectangle_8" data-name="&lt;Rectangle&gt;" class="cls-9" d="M29.59,13.44h10a1.09,1.09,0,0,1,1.09,1.09V27.17a1.09,1.09,0,0,1-1.09,1.09h-10a0,0,0,0,1,0,0V13.44a0,0,0,0,1,0,0Z"/><g id="_Group_2" data-name="&lt;Group&gt;"><path class="cls-10" d="M10.52,19.67h2.6a1.46,1.46,0,0,1,.63.14,1,1,0,0,1,.44.41,1.32,1.32,0,0,1,0,1.26,1,1,0,0,1-.44.41,1.46,1.46,0,0,1-.63.14h-2.2a4.23,4.23,0,0,1-.87,2.52h4.74a1.34,1.34,0,0,1,.64.15,1,1,0,0,1,.44.41,1.3,1.3,0,0,1,0,1.25,1.09,1.09,0,0,1-.44.41,1.47,1.47,0,0,1-.64.14H8.1a1.28,1.28,0,0,1-1-.36,1.32,1.32,0,0,1-.35-1A.9.9,0,0,1,7,25.06l.54-.76a4,4,0,0,0,.52-1A3.57,3.57,0,0,0,8.25,22H7.36a1.22,1.22,0,0,1-.89-.32,1.29,1.29,0,0,1,0-1.72,1.26,1.26,0,0,1,.89-.32h.36a4.15,4.15,0,0,1-.3-.89,4.29,4.29,0,0,1-.14-.92,2.74,2.74,0,0,1,.58-1.74A3.62,3.62,0,0,1,9.43,15a5.57,5.57,0,0,1,2.15-.41,5.93,5.93,0,0,1,2.17.39A3.9,3.9,0,0,1,15.33,16a2.29,2.29,0,0,1,.57,1.51,1.24,1.24,0,0,1-.37.94,1.32,1.32,0,0,1-1,.35.86.86,0,0,1-.58-.18,5.51,5.51,0,0,1-.58-.65,3.12,3.12,0,0,0-.75-.72,1.75,1.75,0,0,0-1-.24,1.86,1.86,0,0,0-1.15.36,1.12,1.12,0,0,0-.48,1,1.76,1.76,0,0,0,.21.9Z"/></g><path id="_Path_3" data-name="&lt;Path&gt;" class="cls-11" d="M40.73,27.17V25.62a7.26,7.26,0,0,0-4.08-3,3.55,3.55,0,1,0-3.93,0,7.14,7.14,0,0,0-3.13,1.81v3.79H39.64A1.09,1.09,0,0,0,40.73,27.17Z"/></g></svg>