<svg id="Icons" xmlns="http://www.w3.org/2000/svg" viewBox="0 0 48 48"><defs><style>.cls-1{fill:#45413c;opacity:0.15;}.cls-2{fill:#ffe500;}.cls-3{fill:#fff48c;}.cls-4{fill:none;}.cls-4,.cls-5,.cls-6,.cls-7{stroke:#45413c;stroke-linecap:round;stroke-linejoin:round;}.cls-5{fill:#656769;}.cls-6{fill:#fff;}.cls-7{fill:#daedf7;}</style></defs><title>721-credit-card</title><g id="_Group_" data-name="&lt;Group&gt;"><ellipse id="_Ellipse_" data-name="&lt;Ellipse&gt;" class="cls-1" cx="24.87" cy="43.44" rx="18.21" ry="1.56"/><rect id="_Rectangle_" data-name="&lt;Rectangle&gt;" class="cls-2" x="4.75" y="13.15" width="38.5" height="24.45" rx="2.08" ry="2.08" transform="translate(-7.93 11.21) rotate(-22.67)"/><path id="_Path_" data-name="&lt;Path&gt;" class="cls-3" d="M35.13,7.48,3.45,20.72a2.08,2.08,0,0,0-1.12,2.72l1.3,3.12a2.08,2.08,0,0,1,1.12-2.72L36.43,10.6a2.1,2.1,0,0,1,2.73,1.12L37.85,8.6A2.08,2.08,0,0,0,35.13,7.48Z"/><rect id="_Rectangle_2" data-name="&lt;Rectangle&gt;" class="cls-4" x="4.75" y="13.15" width="38.5" height="24.45" rx="2.08" ry="2.08" transform="translate(-7.93 11.21) rotate(-22.67)"/><rect id="_Rectangle_3" data-name="&lt;Rectangle&gt;" class="cls-5" x="2.95" y="18.72" width="38.5" height="4.68" transform="translate(-6.4 10.18) rotate(-22.67)"/><rect id="_Rectangle_4" data-name="&lt;Rectangle&gt;" class="cls-6" x="12.06" y="24.7" width="29.13" height="3.12" rx="1.04" ry="1.04" transform="translate(-8.06 12.29) rotate(-22.67)"/><rect id="_Rectangle_5" data-name="&lt;Rectangle&gt;" class="cls-7" x="35.77" y="25.15" width="6.76" height="4.16" rx="1.04" ry="1.04" transform="translate(-7.47 17.19) rotate(-22.67)"/><line id="_Path_2" data-name="&lt;Path&gt;" class="cls-4" x1="15.46" y1="35.99" x2="23.63" y2="32.58"/><line id="_Path_3" data-name="&lt;Path&gt;" class="cls-4" x1="26.99" y1="31.18" x2="30.83" y2="29.58"/></g></svg>