<svg id="Icons" xmlns="http://www.w3.org/2000/svg" viewBox="0 0 48 48"><defs><style>.cls-1{fill:#45413c;opacity:0.15;}.cls-2{fill:#fff;}.cls-3{fill:#f0f0f0;}.cls-4{fill:none;}.cls-4,.cls-5{stroke:#45413c;stroke-linecap:round;stroke-linejoin:round;}.cls-5{fill:#00b8f0;}</style></defs><title>722-e-mail-1</title><g id="_Group_" data-name="&lt;Group&gt;"><ellipse id="_Ellipse_" data-name="&lt;Ellipse&gt;" class="cls-1" cx="24" cy="38.06" rx="22.25" ry="1.63"/><rect id="_Rectangle_" data-name="&lt;Rectangle&gt;" class="cls-2" x="3.02" y="11.29" width="41.96" height="25.69" rx="1.09" ry="1.09"/><path id="_Path_" data-name="&lt;Path&gt;" class="cls-3" d="M43.89,33.17H4.11A1.08,1.08,0,0,1,3,32.09v3.8A1.09,1.09,0,0,0,4.11,37H43.89A1.09,1.09,0,0,0,45,35.89v-3.8A1.08,1.08,0,0,1,43.89,33.17Z"/><rect id="_Rectangle_2" data-name="&lt;Rectangle&gt;" class="cls-4" x="3.02" y="11.29" width="41.96" height="25.69" rx="1.09" ry="1.09"/><polyline id="_Path_2" data-name="&lt;Path&gt;" class="cls-4" points="3.33 11.62 24 25.76 44.67 11.62"/><line id="_Path_3" data-name="&lt;Path&gt;" class="cls-4" x1="27.82" y1="23.16" x2="44.67" y2="36.6"/><line id="_Path_4" data-name="&lt;Path&gt;" class="cls-4" x1="3.33" y1="36.6" x2="20.18" y2="23.16"/><g id="_Group_2" data-name="&lt;Group&gt;"><path id="_Compound_Path_" data-name="&lt;Compound Path&gt;" class="cls-5" d="M18.64,31.25v-14a2,2,0,0,1,2-2.22H27a1.69,1.69,0,0,1,1.81,1.76A1.73,1.73,0,0,1,27,18.51H22.47v3.72h4.2A1.71,1.71,0,0,1,28.54,24a1.75,1.75,0,0,1-1.87,1.76h-4.2v3.88H27.2A1.69,1.69,0,0,1,29,31.41a1.73,1.73,0,0,1-1.82,1.76H20.61A1.86,1.86,0,0,1,18.64,31.25Z"/></g></g></svg>