<svg id="Icons" xmlns="http://www.w3.org/2000/svg" viewBox="0 0 48 48"><defs><style>.cls-1{fill:#45413c;opacity:0.15;}.cls-2{fill:#ff6242;}.cls-3{fill:#ff866e;}.cls-4{fill:none;stroke:#45413c;stroke-linecap:round;stroke-linejoin:round;}.cls-5{fill:#debb7e;}.cls-6{fill:#b89558;}.cls-7{fill:#656769;}.cls-8{fill:#525252;}.cls-9{fill:#e04122;}.cls-10{fill:#fff;}.cls-11{fill:#f0f0f0;}</style></defs><title>726-postbox</title><g id="_Group_" data-name="&lt;Group&gt;"><ellipse id="_Ellipse_" data-name="&lt;Ellipse&gt;" class="cls-1" cx="24" cy="44.4" rx="12.29" ry="1.6"/><rect id="_Rectangle_" data-name="&lt;Rectangle&gt;" class="cls-2" x="10.81" y="2.9" width="26.39" height="31" rx="3.21" ry="3.21"/><path id="_Path_" data-name="&lt;Path&gt;" class="cls-3" d="M34,2.9H14a3.2,3.2,0,0,0-3.2,3.2V8.58A3.21,3.21,0,0,1,14,5.37H34a3.21,3.21,0,0,1,3.2,3.21V6.1A3.2,3.2,0,0,0,34,2.9Z"/><rect id="_Rectangle_2" data-name="&lt;Rectangle&gt;" class="cls-4" x="10.81" y="2.9" width="26.39" height="31" rx="3.21" ry="3.21"/><path id="_Rectangle_3" data-name="&lt;Rectangle&gt;" class="cls-5" d="M21.76,33.89h4.47a0,0,0,0,1,0,0v9.54a1.07,1.07,0,0,1-1.07,1.07H22.83a1.07,1.07,0,0,1-1.07-1.07V33.89a0,0,0,0,1,0,0Z"/><rect id="_Rectangle_4" data-name="&lt;Rectangle&gt;" class="cls-6" x="21.76" y="33.89" width="4.47" height="2.72"/><path id="_Rectangle_5" data-name="&lt;Rectangle&gt;" class="cls-4" d="M21.76,33.89h4.47a0,0,0,0,1,0,0v9.54a1.07,1.07,0,0,1-1.07,1.07H22.83a1.07,1.07,0,0,1-1.07-1.07V33.89a0,0,0,0,1,0,0Z"/><rect id="_Rectangle_6" data-name="&lt;Rectangle&gt;" class="cls-7" x="14.41" y="11.06" width="19.17" height="3.47" rx="1.07" ry="1.07"/><path id="_Path_2" data-name="&lt;Path&gt;" class="cls-8" d="M32.52,11.06h-17a1.07,1.07,0,0,0-1.07,1.07v1.3a1.07,1.07,0,0,1,1.07-1.07h17a1.07,1.07,0,0,1,1.07,1.07v-1.3A1.07,1.07,0,0,0,32.52,11.06Z"/><rect id="_Rectangle_7" data-name="&lt;Rectangle&gt;" class="cls-4" x="14.41" y="11.06" width="19.17" height="3.47" rx="1.07" ry="1.07"/><path class="cls-9" d="M33.9,6.58H14.1a1.12,1.12,0,0,0,0,2.23H33.9a1.12,1.12,0,0,0,0-2.23Z"/><path id="_Path_3" data-name="&lt;Path&gt;" class="cls-2" d="M14.1,7.7H33.9a1.11,1.11,0,0,1,1,.55A1,1,0,0,0,35,7.7,1.12,1.12,0,0,0,33.9,6.58H14.1A1.12,1.12,0,0,0,13,7.7a1,1,0,0,0,.15.55A1.11,1.11,0,0,1,14.1,7.7Z"/><path class="cls-4" d="M33.9,6.58H14.1a1.12,1.12,0,0,0,0,2.23H33.9a1.12,1.12,0,0,0,0-2.23Z"/><path id="_Path_4" data-name="&lt;Path&gt;" class="cls-10" d="M33.56,21.16H23.77a1.07,1.07,0,0,1-1-.63l-4.26-9.47H29.84l4.21,9.34A.54.54,0,0,1,33.56,21.16Z"/><polygon id="_Path_5" data-name="&lt;Path&gt;" class="cls-11" points="30.87 13.35 29.84 11.06 18.53 11.06 19.56 13.35 30.87 13.35"/><path id="_Path_6" data-name="&lt;Path&gt;" class="cls-4" d="M33.56,21.16H23.77a1.07,1.07,0,0,1-1-.63l-4.26-9.47H29.84l4.21,9.34A.54.54,0,0,1,33.56,21.16Z"/><polyline id="_Path_7" data-name="&lt;Path&gt;" class="cls-4" points="34.03 20.87 26.46 14.74 27.31 11.06"/><line id="_Path_8" data-name="&lt;Path&gt;" class="cls-4" x1="27.61" y1="15.67" x2="23.25" y2="21.02"/><line id="_Path_9" data-name="&lt;Path&gt;" class="cls-4" x1="26.71" y1="13.67" x2="21.47" y2="11.06"/></g></svg>