<svg id="Icons" xmlns="http://www.w3.org/2000/svg" viewBox="0 0 48 48"><defs><style>.cls-1{fill:#45413c;opacity:0.15;}.cls-2,.cls-7{fill:#bf8256;}.cls-3{fill:#915e3a;}.cls-4{fill:none;}.cls-4,.cls-6,.cls-7{stroke:#45413c;stroke-linecap:round;stroke-linejoin:round;}.cls-5{fill:#dea47a;}.cls-6{fill:#daedf7;}</style></defs><title>728-briefcase</title><g id="_Group_" data-name="&lt;Group&gt;"><ellipse id="_Ellipse_" data-name="&lt;Ellipse&gt;" class="cls-1" cx="24" cy="43.11" rx="22.67" ry="1.89"/><rect id="_Rectangle_" data-name="&lt;Rectangle&gt;" class="cls-2" x="3.85" y="21.22" width="40.3" height="20.78" rx="1.26" ry="1.26"/><path id="_Path_" data-name="&lt;Path&gt;" class="cls-3" d="M42.89,21.22H5.11a1.27,1.27,0,0,0-1.26,1.26v6a1,1,0,0,0,.3.13l12.76,3.48a1.24,1.24,0,0,0,.33,0H30.76a1.24,1.24,0,0,0,.33,0l12.76-3.48a1,1,0,0,0,.3-.13v-6A1.27,1.27,0,0,0,42.89,21.22Z"/><rect id="_Rectangle_2" data-name="&lt;Rectangle&gt;" class="cls-4" x="3.85" y="21.22" width="40.3" height="20.78" rx="1.26" ry="1.26"/><path id="_Path_2" data-name="&lt;Path&gt;" class="cls-2" d="M3.22,15.56V24a1.25,1.25,0,0,0,.93,1.21l12.76,3.48a1.26,1.26,0,0,0,.33.05H30.76a1.26,1.26,0,0,0,.33-.05l12.76-3.48A1.25,1.25,0,0,0,44.78,24V15.56a1.26,1.26,0,0,0-1.26-1.26h-39A1.26,1.26,0,0,0,3.22,15.56Z"/><path id="_Path_3" data-name="&lt;Path&gt;" class="cls-5" d="M43.52,14.3h-39a1.26,1.26,0,0,0-1.26,1.26v4.25a1.26,1.26,0,0,1,1.26-1.26h39a1.26,1.26,0,0,1,1.26,1.26V15.56A1.26,1.26,0,0,0,43.52,14.3Z"/><path id="_Path_4" data-name="&lt;Path&gt;" class="cls-4" d="M3.22,15.56V24a1.25,1.25,0,0,0,.93,1.21l12.76,3.48a1.26,1.26,0,0,0,.33.05H30.76a1.26,1.26,0,0,0,.33-.05l12.76-3.48A1.25,1.25,0,0,0,44.78,24V15.56a1.26,1.26,0,0,0-1.26-1.26h-39A1.26,1.26,0,0,0,3.22,15.56Z"/><rect id="_Rectangle_3" data-name="&lt;Rectangle&gt;" class="cls-6" x="17.07" y="26.89" width="13.85" height="3.78" rx="1.26" ry="1.26"/><path id="_Rectangle_4" data-name="&lt;Rectangle&gt;" class="cls-6" d="M20.22,30.67h7.56a0,0,0,0,1,0,0v2.52a1.26,1.26,0,0,1-1.26,1.26h-5a1.26,1.26,0,0,1-1.26-1.26V30.67a0,0,0,0,1,0,0Z"/><path class="cls-7" d="M24,24.37a3.78,3.78,0,0,0-3.78,3.78h7.56A3.78,3.78,0,0,0,24,24.37Z"/><path id="_Path_5" data-name="&lt;Path&gt;" class="cls-2" d="M17.07,11.78V14.3h2.52V11.78a1.26,1.26,0,0,1,1.26-1.26h6.3a1.26,1.26,0,0,1,1.26,1.26V14.3h2.52V11.78A3.78,3.78,0,0,0,27.15,8h-6.3A3.78,3.78,0,0,0,17.07,11.78Z"/><path id="_Path_6" data-name="&lt;Path&gt;" class="cls-5" d="M27.15,8h-6.3a3.78,3.78,0,0,0-3.78,3.78v1.73a3.78,3.78,0,0,1,3.78-3.78h6.3a3.78,3.78,0,0,1,3.78,3.78V11.78A3.78,3.78,0,0,0,27.15,8Z"/><path id="_Path_7" data-name="&lt;Path&gt;" class="cls-4" d="M17.07,11.78V14.3h2.52V11.78a1.26,1.26,0,0,1,1.26-1.26h6.3a1.26,1.26,0,0,1,1.26,1.26V14.3h2.52V11.78A3.78,3.78,0,0,0,27.15,8h-6.3A3.78,3.78,0,0,0,17.07,11.78Z"/></g></svg>