<svg id="Icons" xmlns="http://www.w3.org/2000/svg" viewBox="0 0 48 48"><defs><style>.cls-1{fill:#45413c;opacity:0.15;}.cls-2{fill:#8ca4b8;}.cls-3{fill:#adc4d9;}.cls-4{fill:none;stroke:#45413c;stroke-linecap:round;stroke-linejoin:round;}.cls-5{fill:#c0dceb;}</style></defs><title>729-file-folder</title><g id="_Group_" data-name="&lt;Group&gt;"><ellipse id="_Ellipse_" data-name="&lt;Ellipse&gt;" class="cls-1" cx="24" cy="44.01" rx="15.27" ry="1.99"/><path id="_Path_" data-name="&lt;Path&gt;" class="cls-2" d="M35.62,3.63a.65.65,0,0,0-.66.66V6.74H10.06a.66.66,0,0,0-.67.66V37.87h32.2a2.66,2.66,0,0,0,2.66-2.65V4.29a.66.66,0,0,0-.66-.66Z"/><path id="_Path_2" data-name="&lt;Path&gt;" class="cls-3" d="M44.25,4.29a.66.66,0,0,0-.66-.66h-8a.65.65,0,0,0-.66.66V6.74H10.06a.66.66,0,0,0-.67.66v3.32a.66.66,0,0,1,.67-.66H34a1,1,0,0,0,1-1V7.61A.65.65,0,0,1,35.62,7h8a.66.66,0,0,1,.66.66Z"/><path id="_Path_3" data-name="&lt;Path&gt;" class="cls-4" d="M35.62,3.63a.65.65,0,0,0-.66.66V6.74H10.06a.66.66,0,0,0-.67.66V37.87h32.2a2.66,2.66,0,0,0,2.66-2.65V4.29a.66.66,0,0,0-.66-.66Z"/><path id="_Path_4" data-name="&lt;Path&gt;" class="cls-5" d="M38.86,35.22a2.65,2.65,0,0,0,2.65,2.65H6.66A2.66,2.66,0,0,1,4,35.22V12.31a.67.67,0,0,1,.66-.66H38.19a.67.67,0,0,1,.67.66Z"/><path id="_Path_5" data-name="&lt;Path&gt;" class="cls-3" d="M38.86,35.22V33.86H6.66A2.66,2.66,0,0,1,4,31.21v4a2.66,2.66,0,0,0,2.66,2.65H41.51A2.65,2.65,0,0,1,38.86,35.22Z"/><path id="_Path_6" data-name="&lt;Path&gt;" class="cls-4" d="M38.86,35.22a2.65,2.65,0,0,0,2.65,2.65H6.66A2.66,2.66,0,0,1,4,35.22V12.31a.67.67,0,0,1,.66-.66H38.19a.67.67,0,0,1,.67.66Z"/></g></svg>