<svg id="Icons" xmlns="http://www.w3.org/2000/svg" viewBox="0 0 48 48"><defs><style>.cls-1{fill:#adc4d9;}.cls-2{fill:#c0dceb;}.cls-3{fill:none;stroke:#45413c;stroke-linecap:round;stroke-linejoin:round;}.cls-4{fill:#45413c;opacity:0.15;}</style></defs><title>730-open-file-folder</title><path id="_Path_" data-name="&lt;Path&gt;" class="cls-1" d="M35.26,30.55,37.71,30V8.26A1.38,1.38,0,0,0,36.07,6.9L14.49,11V9a1.38,1.38,0,0,0-1.64-1.35L7.1,8.7A1.37,1.37,0,0,0,6,10.05V35.1a2.76,2.76,0,0,0,1.25,2.31L9.69,39l30.08-5.86Z"/><g id="_Group_" data-name="&lt;Group&gt;"><path id="_Path_2" data-name="&lt;Path&gt;" class="cls-2" d="M7.1,13,12.85,12a1.38,1.38,0,0,1,1.64,1.35v2l21.58-4.06a1.39,1.39,0,0,1,1.64,1.36V8.26A1.38,1.38,0,0,0,36.07,6.9L14.49,11V9a1.38,1.38,0,0,0-1.64-1.35L7.1,8.7A1.37,1.37,0,0,0,6,10.05V14.4A1.37,1.37,0,0,1,7.1,13Z"/></g><path id="_Path_3" data-name="&lt;Path&gt;" class="cls-3" d="M35.26,30.55,37.71,30V8.26A1.38,1.38,0,0,0,36.07,6.9L14.49,11V9a1.38,1.38,0,0,0-1.64-1.35L7.1,8.7A1.37,1.37,0,0,0,6,10.05V35.1a2.76,2.76,0,0,0,1.25,2.31L9.69,39l30.08-5.86Z"/><ellipse id="_Ellipse_" data-name="&lt;Ellipse&gt;" class="cls-4" cx="23.5" cy="43.93" rx="15.86" ry="2.07"/><path id="_Path_4" data-name="&lt;Path&gt;" class="cls-2" d="M9.69,39l3.05-22.54a1.38,1.38,0,0,1,1.12-1.18l28.49-5.23A1.38,1.38,0,0,1,44,11.68L39.77,33.15Z"/><polygon id="_Path_5" data-name="&lt;Path&gt;" class="cls-1" points="10.3 34.5 9.69 39.01 39.77 33.15 40.66 28.59 10.3 34.5"/><path id="_Path_6" data-name="&lt;Path&gt;" class="cls-3" d="M9.69,39l3.05-22.54a1.38,1.38,0,0,1,1.12-1.18l28.49-5.23A1.38,1.38,0,0,1,44,11.68L39.77,33.15Z"/></svg>