<svg id="Icons" xmlns="http://www.w3.org/2000/svg" viewBox="0 0 48 48"><defs><style>.cls-1{fill:#45413c;opacity:0.15;}.cls-2{fill:#c0dceb;}.cls-3{fill:#daedf7;}.cls-4{fill:none;stroke:#45413c;stroke-linecap:round;stroke-linejoin:round;}</style></defs><title>737-wrench</title><g id="_Group_" data-name="&lt;Group&gt;"><ellipse id="_Ellipse_" data-name="&lt;Ellipse&gt;" class="cls-1" cx="25.04" cy="44.17" rx="12.42" ry="1.62"/><path id="_Path_" data-name="&lt;Path&gt;" class="cls-2" d="M44.12,9a.82.82,0,0,0-1.38-.42L39.4,12a1.64,1.64,0,0,1-1.38.47l-2.2-.31a1.63,1.63,0,0,1-1.4-1.4l-.31-2.2a1.64,1.64,0,0,1,.47-1.38L37.91,3.8a.81.81,0,0,0-.41-1.38,8.76,8.76,0,0,0-10,12L15.85,26.06a8.76,8.76,0,0,0-12,10,.82.82,0,0,0,1.38.42L8.6,33.12A1.64,1.64,0,0,1,10,32.65l2.2.31a1.63,1.63,0,0,1,1.4,1.4l.31,2.2a1.64,1.64,0,0,1-.47,1.38l-3.33,3.34a.81.81,0,0,0,.41,1.38,8.76,8.76,0,0,0,10-12L32.15,19a8.76,8.76,0,0,0,12-10Z"/><g id="_Group_2" data-name="&lt;Group&gt;"><path id="_Path_2" data-name="&lt;Path&gt;" class="cls-3" d="M29.8,7.77a8.76,8.76,0,0,1,6.7-2.55L37.91,3.8a.81.81,0,0,0-.41-1.38A8.76,8.76,0,0,0,27.24,13.63,8.71,8.71,0,0,1,29.8,7.77Z"/><path id="_Path_3" data-name="&lt;Path&gt;" class="cls-3" d="M38,12.43l-2.2-.31a1.63,1.63,0,0,1-1.3-1,1.41,1.41,0,0,0,0,.41l.31,2.21a1.63,1.63,0,0,0,1.4,1.39l2.2.31A1.61,1.61,0,0,0,39.81,15l3.34-3.33a.81.81,0,0,1,1.16,0A9.06,9.06,0,0,0,44.12,9a.82.82,0,0,0-1.38-.42L39.4,12A1.64,1.64,0,0,1,38,12.43Z"/><path id="_Path_4" data-name="&lt;Path&gt;" class="cls-3" d="M21.17,34.45c0-.34,0-.68,0-1l-.26.26C21,33.94,21.09,34.2,21.17,34.45Z"/><path id="_Path_5" data-name="&lt;Path&gt;" class="cls-3" d="M11.91,42.86l1.92-1.92a1.63,1.63,0,0,0,.46-1.38l-.3-2.2a1.72,1.72,0,0,0-.1-.39,1.62,1.62,0,0,1-.47,1l-3.33,3.34a.81.81,0,0,0,.41,1.38A8.55,8.55,0,0,0,11.91,42.86Z"/><path id="_Path_6" data-name="&lt;Path&gt;" class="cls-3" d="M4.1,36.45a8.75,8.75,0,0,1,12.16-7.38L27.93,17.39a9,9,0,0,1-.67-2.74L15.85,26.06a8.76,8.76,0,0,0-12,10A.86.86,0,0,0,4.1,36.45Z"/></g><path id="_Path_7" data-name="&lt;Path&gt;" class="cls-4" d="M44.12,9a.82.82,0,0,0-1.38-.42L39.4,12a1.64,1.64,0,0,1-1.38.47l-2.2-.31a1.63,1.63,0,0,1-1.4-1.4l-.31-2.2a1.64,1.64,0,0,1,.47-1.38L37.91,3.8a.81.81,0,0,0-.41-1.38,8.76,8.76,0,0,0-10,12L15.85,26.06a8.76,8.76,0,0,0-12,10,.82.82,0,0,0,1.38.42L8.6,33.12A1.64,1.64,0,0,1,10,32.65l2.2.31a1.63,1.63,0,0,1,1.4,1.4l.31,2.2a1.64,1.64,0,0,1-.47,1.38l-3.33,3.34a.81.81,0,0,0,.41,1.38,8.76,8.76,0,0,0,10-12L32.15,19a8.76,8.76,0,0,0,12-10Z"/></g></svg>