<svg id="Icons" xmlns="http://www.w3.org/2000/svg" viewBox="0 0 48 48"><defs><style>.cls-1{fill:#45413c;opacity:0.15;}.cls-2{fill:#adc4d9;}.cls-3{fill:#8ca4b8;}.cls-4{fill:none;stroke:#45413c;stroke-linecap:round;stroke-linejoin:round;}.cls-5{fill:#c0dceb;}.cls-6{fill:#daedf7;}.cls-7{fill:#fff;}</style></defs><title>738-nut-and-bolt</title><ellipse id="_Ellipse_" data-name="&lt;Ellipse&gt;" class="cls-1" cx="23.6" cy="43.37" rx="14.1" ry="2.11"/><path class="cls-2" d="M37.31,37.3l-7.25-14-7.3,3.79,7.25,14c.36.71,4.39,2.85,5.74,2.15S37.67,38,37.31,37.3Z"/><path id="_Path_" data-name="&lt;Path&gt;" class="cls-3" d="M33.22,29.42l-7.3,3.78,3.39,6.54a8.44,8.44,0,0,0,4.09-1.17A8.84,8.84,0,0,0,36.64,36Z"/><path class="cls-4" d="M37.31,37.3l-7.25-14-7.3,3.79,7.25,14c.36.71,4.39,2.85,5.74,2.15S37.67,38,37.31,37.3Z"/><path id="_Path_2" data-name="&lt;Path&gt;" class="cls-4" d="M29.21,39.55a9.26,9.26,0,0,0,5.71-6.86"/><path id="_Path_3" data-name="&lt;Path&gt;" class="cls-4" d="M31.68,42.29a9.1,9.1,0,0,0,4.85-6.48"/><polygon id="_Path_4" data-name="&lt;Path&gt;" class="cls-5" points="23.43 29.79 19.01 34.16 21.31 38.59 27.43 37.51 35.88 33.13 40.29 28.76 37.99 24.32 31.88 25.41 23.43 29.79"/><polygon id="_Path_5" data-name="&lt;Path&gt;" class="cls-2" points="39.09 26.43 34.68 30.79 26.23 35.17 20.1 36.26 21.31 38.59 27.43 37.51 35.88 33.13 40.29 28.76 39.09 26.43"/><polygon id="_Path_6" data-name="&lt;Path&gt;" class="cls-4" points="23.43 29.79 19.01 34.16 21.31 38.59 27.43 37.51 35.88 33.13 40.29 28.76 37.99 24.32 31.88 25.41 23.43 29.79"/><polygon id="_Path_7" data-name="&lt;Path&gt;" class="cls-6" points="21.13 25.36 16.72 29.73 19.01 34.16 25.13 33.08 33.58 28.7 37.99 24.32 35.7 19.89 29.58 20.98 21.13 25.36"/><path class="cls-7" d="M33.06,23.47a3.63,3.63,0,0,1,3.87,1.91L38,24.32,35.7,19.89,29.58,21l-8.45,4.38-4.41,4.37,1.06,2.05a30.6,30.6,0,0,1,7.54-5.48l1.12-.59A23.43,23.43,0,0,1,33.06,23.47Z"/><polygon id="_Path_8" data-name="&lt;Path&gt;" class="cls-4" points="21.13 25.36 16.72 29.73 19.01 34.16 25.13 33.08 33.58 28.7 37.99 24.32 35.7 19.89 29.58 20.98 21.13 25.36"/><path class="cls-2" d="M30.54,24.24,24.67,12.92l-7.3,3.78L23.24,28c.36.71,2.3.43,4.31-.61S30.9,24.94,30.54,24.24Z"/><path id="_Path_9" data-name="&lt;Path&gt;" class="cls-3" d="M24.67,12.92l-7.3,3.78,3.39,6.54a8.25,8.25,0,0,0,4.09-1.17,8.73,8.73,0,0,0,3.24-2.55Z"/><path class="cls-4" d="M30.54,24.24,24.67,12.92l-7.3,3.78L23.24,28c.36.71,2.3.43,4.31-.61S30.9,24.94,30.54,24.24Z"/><path id="_Path_10" data-name="&lt;Path&gt;" class="cls-4" d="M20.75,23.22a9.24,9.24,0,0,0,5.7-6.86"/><path id="_Path_11" data-name="&lt;Path&gt;" class="cls-4" d="M22.74,27.06a9.23,9.23,0,0,0,5.71-6.86"/><polygon id="_Path_12" data-name="&lt;Path&gt;" class="cls-5" points="14.42 12.41 10.01 16.79 12.3 21.22 18.42 20.13 26.87 15.75 31.28 11.38 28.99 6.95 22.87 8.04 14.42 12.41"/><polygon id="_Path_13" data-name="&lt;Path&gt;" class="cls-2" points="30.08 9.05 25.68 13.41 17.23 17.79 11.09 18.88 12.3 21.22 18.42 20.13 26.87 15.75 31.28 11.38 30.08 9.05"/><polygon id="_Path_14" data-name="&lt;Path&gt;" class="cls-4" points="14.42 12.41 10.01 16.79 12.3 21.22 18.42 20.13 26.87 15.75 31.28 11.38 28.99 6.95 22.87 8.04 14.42 12.41"/><polygon id="_Path_15" data-name="&lt;Path&gt;" class="cls-6" points="12.13 7.98 7.71 12.35 10.01 16.79 16.13 15.7 24.57 11.32 28.99 6.95 26.69 2.52 20.57 3.6 12.13 7.98"/><path class="cls-7" d="M24.05,6.09A3.64,3.64,0,0,1,27.92,8L29,7l-2.3-4.43L20.57,3.6,12.13,8,7.71,12.35l1.06,2.06a31.28,31.28,0,0,1,7.54-5.49l1.12-.58A23.24,23.24,0,0,1,24.05,6.09Z"/><polygon id="_Path_16" data-name="&lt;Path&gt;" class="cls-4" points="12.13 7.98 7.71 12.35 10.01 16.79 16.13 15.7 24.57 11.32 28.99 6.95 26.69 2.52 20.57 3.6 12.13 7.98"/><line id="_Path_17" data-name="&lt;Path&gt;" class="cls-4" x1="16.12" y1="15.7" x2="18.42" y2="20.13"/><line id="_Path_18" data-name="&lt;Path&gt;" class="cls-4" x1="24.57" y1="11.32" x2="26.87" y2="15.75"/><line id="_Path_19" data-name="&lt;Path&gt;" class="cls-4" x1="25.13" y1="33.07" x2="27.43" y2="37.51"/><line id="_Path_20" data-name="&lt;Path&gt;" class="cls-4" x1="33.58" y1="28.7" x2="35.87" y2="33.13"/></svg>