<svg id="Icons" xmlns="http://www.w3.org/2000/svg" viewBox="0 0 48 48"><defs><style>.cls-1{fill:#e5f8ff;}.cls-2{fill:#b8ecff;}.cls-3{fill:none;stroke:#45413c;stroke-linecap:round;stroke-linejoin:round;}.cls-4{fill:#45413c;opacity:0.15;}.cls-5{fill:#ff6242;}.cls-6{fill:#ff866e;}.cls-7{fill:#d9fdff;}.cls-8{fill:#e5feff;}.cls-9{fill:#fff;}.cls-10{fill:#daedf7;}.cls-11{fill:#e8f4fa;}.cls-12{fill:#adc4d9;}.cls-13{fill:#c0dceb;}.cls-14{fill:#8ca4b8;}</style></defs><title>739-syringe</title><g id="_Group_" data-name="&lt;Group&gt;"><rect id="_Rectangle_" data-name="&lt;Rectangle&gt;" class="cls-1" x="14.64" y="20.63" width="8" height="12" transform="translate(24.29 -5.38) rotate(45)"/><rect id="_Rectangle_2" data-name="&lt;Rectangle&gt;" class="cls-2" x="15.23" y="19.21" width="4" height="12" transform="translate(22.87 -4.8) rotate(45)"/><rect id="_Rectangle_3" data-name="&lt;Rectangle&gt;" class="cls-3" x="14.64" y="20.63" width="8" height="12" transform="translate(24.29 -5.38) rotate(45)"/><ellipse id="_Ellipse_" data-name="&lt;Ellipse&gt;" class="cls-4" cx="17.4" cy="42.85" rx="13.5" ry="1.5"/><path id="_Rectangle_4" data-name="&lt;Rectangle&gt;" class="cls-5" d="M22.85,13.42h7.41a.34.34,0,0,1,.34.34V23.92a0,0,0,0,1,0,0h-8a0,0,0,0,1,0,0V13.67A.25.25,0,0,1,22.85,13.42Z" transform="translate(20.99 -13.34) rotate(45)"/><path id="_Rectangle_5" data-name="&lt;Rectangle&gt;" class="cls-6" d="M23.43,12h3.75a0,0,0,0,1,0,0v10.5a0,0,0,0,1,0,0h-4a0,0,0,0,1,0,0V12.26A.25.25,0,0,1,23.43,12Z" transform="translate(19.58 -12.75) rotate(45)"/><path id="_Rectangle_6" data-name="&lt;Rectangle&gt;" class="cls-3" d="M22.85,13.42h7.41a.34.34,0,0,1,.34.34V23.92a0,0,0,0,1,0,0h-8a0,0,0,0,1,0,0V13.67A.25.25,0,0,1,22.85,13.42Z" transform="translate(20.99 -13.34) rotate(45)"/><polygon id="_Path_" data-name="&lt;Path&gt;" class="cls-7" points="32.9 17.55 27.72 12.37 30.31 12.13 33.14 14.96 32.9 17.55"/><polygon id="_Path_2" data-name="&lt;Path&gt;" class="cls-8" points="30.52 15.17 27.72 12.37 30.31 12.13 31.48 13.3 30.52 15.17"/><polygon id="_Path_3" data-name="&lt;Path&gt;" class="cls-3" points="32.9 17.55 27.72 12.37 30.31 12.13 33.14 14.96 32.9 17.55"/><path class="cls-8" d="M18.64,35.11l-8.48-8.48A1.5,1.5,0,1,0,8,28.75l8.49,8.48a1.5,1.5,0,1,0,2.12-2.12Z"/><path class="cls-9" d="M14,30.49l-3.86-3.86A1.5,1.5,0,1,0,8,28.75l3.86,3.86A1.5,1.5,0,0,0,14,30.49Z"/><path class="cls-3" d="M18.64,35.11l-8.48-8.48A1.5,1.5,0,1,0,8,28.75l8.49,8.48a1.5,1.5,0,1,0,2.12-2.12Z"/><path id="_Rectangle_7" data-name="&lt;Rectangle&gt;" class="cls-10" d="M8.07,32.7h7a0,0,0,0,1,0,0v1.5a.5.5,0,0,1-.5.5H8.32a.25.25,0,0,1-.25-.25V32.7A0,0,0,0,1,8.07,32.7Z" transform="translate(27.22 1.69) rotate(45)"/><path id="_Rectangle_8" data-name="&lt;Rectangle&gt;" class="cls-11" d="M8.58,31.46h3.5a0,0,0,0,1,0,0v2a0,0,0,0,1,0,0H8.83a.25.25,0,0,1-.25-.25V31.46a0,0,0,0,1,0,0Z" transform="translate(25.98 2.2) rotate(45)"/><path id="_Rectangle_9" data-name="&lt;Rectangle&gt;" class="cls-3" d="M8.07,32.7h7a0,0,0,0,1,0,0v1.5a.5.5,0,0,1-.5.5H8.32a.25.25,0,0,1-.25-.25V32.7A0,0,0,0,1,8.07,32.7Z" transform="translate(27.22 1.69) rotate(45)"/><rect id="_Rectangle_10" data-name="&lt;Rectangle&gt;" class="cls-12" x="7.6" y="33.67" width="3" height="5" transform="translate(28.24 4.16) rotate(45)"/><rect id="_Rectangle_11" data-name="&lt;Rectangle&gt;" class="cls-13" x="7.81" y="33.14" width="1.5" height="5" transform="translate(27.71 4.38) rotate(45)"/><rect id="_Rectangle_12" data-name="&lt;Rectangle&gt;" class="cls-3" x="7.6" y="33.67" width="3" height="5" transform="translate(28.24 4.16) rotate(45)"/><path class="cls-13" d="M10.16,40.77,4.5,35.11a1,1,0,0,0-1.42,1.42l5.66,5.65a1,1,0,0,0,1.42,0A1,1,0,0,0,10.16,40.77Z"/><path class="cls-10" d="M7,37.65,4.5,35.11a1,1,0,0,0-1.42,1.42l2.54,2.53A1,1,0,1,0,7,37.65Z"/><path class="cls-3" d="M10.16,40.77,4.5,35.11a1,1,0,0,0-1.42,1.42l5.66,5.65a1,1,0,0,0,1.42,0A1,1,0,0,0,10.16,40.77Z"/><path id="_Path_4" data-name="&lt;Path&gt;" class="cls-8" d="M30.31,10.72a1,1,0,0,1,1.41,0l2.83,2.83A1,1,0,0,1,33.14,15l-2.83-2.83A1,1,0,0,1,30.31,10.72Z"/><path class="cls-11" d="M30.31,10.72a1,1,0,0,0,0,1.41l1,1a1,1,0,1,0,1.41-1.41l-1-1A1,1,0,0,0,30.31,10.72Z"/><path id="_Path_5" data-name="&lt;Path&gt;" class="cls-3" d="M30.31,10.72a1,1,0,0,1,1.41,0l2.83,2.83A1,1,0,0,1,33.14,15l-2.83-2.83A1,1,0,0,1,30.31,10.72Z"/><path id="_Rectangle_13" data-name="&lt;Rectangle&gt;" class="cls-10" d="M34.4,7.86h1a1,1,0,0,1,1,1v4a0,0,0,0,1,0,0h-3a0,0,0,0,1,0,0v-4A1,1,0,0,1,34.4,7.86Z" transform="translate(17.55 -21.65) rotate(45)"/><path id="_Path_6" data-name="&lt;Path&gt;" class="cls-11" d="M34.91,8.25a1,1,0,0,1,1.41,0l.34.33v0l-3.53,3.54-1.06-1.07Z"/><path id="_Rectangle_14" data-name="&lt;Rectangle&gt;" class="cls-3" d="M34.4,7.86h1a1,1,0,0,1,1,1v4a0,0,0,0,1,0,0h-3a0,0,0,0,1,0,0v-4A1,1,0,0,1,34.4,7.86Z" transform="translate(17.55 -21.65) rotate(45)"/><path class="cls-13" d="M25,24.51l-4.25-4.25a1,1,0,0,0-1.41,0,1,1,0,0,0,0,1.42l4.24,4.24a1,1,0,0,0,1.42,0A1,1,0,0,0,25,24.51Z"/><path class="cls-10" d="M22.42,21.92l-1.66-1.66a1,1,0,0,0-1.41,0,1,1,0,0,0,0,1.42L21,23.33a1,1,0,0,0,1.42,0A1,1,0,0,0,22.42,21.92Z"/><path class="cls-3" d="M25,24.51l-4.25-4.25a1,1,0,0,0-1.41,0,1,1,0,0,0,0,1.42l4.24,4.24a1,1,0,0,0,1.42,0A1,1,0,0,0,25,24.51Z"/><rect id="_Rectangle_15" data-name="&lt;Rectangle&gt;" class="cls-14" x="16.43" y="22.34" width="3" height="10" transform="translate(24.58 -4.68) rotate(45)"/><rect id="_Rectangle_16" data-name="&lt;Rectangle&gt;" class="cls-12" x="16.65" y="21.8" width="1.5" height="10" transform="translate(24.05 -4.46) rotate(45)"/><rect id="_Rectangle_17" data-name="&lt;Rectangle&gt;" class="cls-3" x="16.43" y="22.34" width="3" height="10" transform="translate(24.58 -4.68) rotate(45)"/><line id="_Path_7" data-name="&lt;Path&gt;" class="cls-3" x1="36.67" y1="8.6" x2="41.62" y2="3.65"/><path class="cls-5" d="M45.13,14.3l-1.6-6a.63.63,0,0,0-1.23,0l-1.6,6a2.29,2.29,0,1,0,4.43,0Z"/><path class="cls-6" d="M42.15,16.11l1.6-6a.64.64,0,0,1,.18-.31l-.4-1.5a.63.63,0,0,0-1.23,0l-1.6,6A2.3,2.3,0,0,0,42.1,17,2.27,2.27,0,0,1,42.15,16.11Z"/><path class="cls-3" d="M45.13,14.3l-1.6-6a.63.63,0,0,0-1.23,0l-1.6,6a2.29,2.29,0,1,0,4.43,0Z"/></g></svg>