<svg id="Icons" xmlns="http://www.w3.org/2000/svg" viewBox="0 0 48 48"><defs><style>.cls-1{fill:#e0e0e0;}.cls-2{fill:#bdbec0;}.cls-3{fill:none;stroke:#45413c;stroke-linecap:round;stroke-linejoin:round;}.cls-4{fill:#87898c;}.cls-5{fill:#fff;}.cls-6{fill:#45413c;opacity:0.15;}.cls-7{fill:#f0f0f0;}</style></defs><title>742-moai</title><g id="_Group_" data-name="&lt;Group&gt;"><path id="_Path_" data-name="&lt;Path&gt;" class="cls-1" d="M32.22,43H15.75a1.53,1.53,0,0,1-1.61-1.86L17,31.31h9.29a6.66,6.66,0,0,1,6.79,5.24l.77,4.75A1.56,1.56,0,0,1,32.22,43Z"/><path id="_Path_2" data-name="&lt;Path&gt;" class="cls-2" d="M26.31,31.31H17L15.47,36.6c3.21.43,7.89.52,10.87-.6a33.75,33.75,0,0,0,5.38-2.33A7.21,7.21,0,0,0,26.31,31.31Z"/><path id="_Path_3" data-name="&lt;Path&gt;" class="cls-3" d="M32.22,43H15.75a1.53,1.53,0,0,1-1.61-1.86L17,31.31h9.29a6.66,6.66,0,0,1,6.79,5.24l.77,4.75A1.56,1.56,0,0,1,32.22,43Z"/><path id="_Path_4" data-name="&lt;Path&gt;" class="cls-2" d="M12.28,33.29c2.09,1.11,9,2.17,12.79,0s5.4-3.31,5.49-4,1.39-14,2.35-18.89S32.3,3.43,29,3a10.47,10.47,0,0,0-7.75,2.35,39.7,39.7,0,0,0-4.09,4.44c-.87,1.31.26,3.92.26,3.92s-3.57,9.49-4.35,13.14S11.45,32.84,12.28,33.29Z"/><path id="_Path_5" data-name="&lt;Path&gt;" class="cls-4" d="M29,3a10.47,10.47,0,0,0-7.75,2.35,39.7,39.7,0,0,0-4.09,4.44c-.73,1.1,0,3.1.18,3.72a18.41,18.41,0,0,1,8.43-1.3,22.41,22.41,0,0,1,6.52,2.16c.21-1.56.43-2.95.63-4C33.86,5.52,32.3,3.43,29,3Z"/><path id="_Path_6" data-name="&lt;Path&gt;" class="cls-1" d="M29,3a10.47,10.47,0,0,0-7.75,2.35,39.7,39.7,0,0,0-4.09,4.44c1.31-1.56,7.4-2.44,8.79-2s2.27,3.57,2.27,3.57-2.44,7.75-4.68,13.32-4.2,9.86-5.68,9.84a13.63,13.63,0,0,0,7.22-1.22c3.83-2.18,5.4-3.31,5.49-4s1.39-14,2.35-18.89S32.3,3.43,29,3Z"/><g id="_Group_2" data-name="&lt;Group&gt;"><path id="_Path_7" data-name="&lt;Path&gt;" class="cls-5" d="M29,5.8c2.25.3,3.69,1.36,4.09,3.55.54-4.13-1-6-4.09-6.36a10.47,10.47,0,0,0-7.75,2.35,39.7,39.7,0,0,0-4.09,4.44c.63-.76,2.39-1.35,4.19-1.71A10.44,10.44,0,0,1,29,5.8Z"/></g><ellipse id="_Ellipse_" data-name="&lt;Ellipse&gt;" class="cls-6" cx="24" cy="44.43" rx="12.01" ry="1.57"/><path id="_Path_8" data-name="&lt;Path&gt;" class="cls-3" d="M12.28,33.29c2.09,1.11,9,2.17,12.79,0s5.4-3.31,5.49-4,1.39-14,2.35-18.89S32.3,3.43,29,3a10.47,10.47,0,0,0-7.75,2.35,39.7,39.7,0,0,0-4.09,4.44c-.87,1.31.26,3.92.26,3.92s-3.57,9.49-4.35,13.14S11.45,32.84,12.28,33.29Z"/><path id="_Path_9" data-name="&lt;Path&gt;" class="cls-3" d="M29,3a10.47,10.47,0,0,0-7.75,2.35,39.7,39.7,0,0,0-4.09,4.44c1.31-1.56,7.4-2.44,8.79-2s2.27,3.57,2.27,3.57-2.44,7.75-4.68,13.32-4.2,9.86-5.68,9.84a13.63,13.63,0,0,0,7.22-1.22c3.83-2.18,5.4-3.31,5.49-4s1.39-14,2.35-18.89S32.3,3.43,29,3Z"/><path id="_Path_10" data-name="&lt;Path&gt;" class="cls-1" d="M20,9.78s-5.13,6-6.52,8-1.65,2.87-1.57,3.92S14,23.37,14,23.37s5.38-.62,6-1.4,3.51-9.84,3.51-9.84A2.78,2.78,0,0,0,20,9.78Z"/><path id="_Path_11" data-name="&lt;Path&gt;" class="cls-4" d="M18.58,20.88c-2.16-.69-5.71-1.15-6.53-.43a3.44,3.44,0,0,0-.12,1.26c.09,1,2.1,1.66,2.1,1.66s5.38-.62,6-1.4l.11-.18A4.13,4.13,0,0,0,18.58,20.88Z"/><path id="_Path_12" data-name="&lt;Path&gt;" class="cls-3" d="M20,9.78s-5.13,6-6.52,8-1.65,2.87-1.57,3.92S14,23.37,14,23.37s5.38-.62,6-1.4,3.51-9.84,3.51-9.84A2.78,2.78,0,0,0,20,9.78Z"/><path id="_Path_13" data-name="&lt;Path&gt;" class="cls-1" d="M32.7,5.34S27.34,20.05,28,22.23a5.06,5.06,0,0,0,3,3s1.17,0,1.72-2.76S35.26,8.65,34.65,6.65,32.7,5.34,32.7,5.34Z"/><path id="_Path_14" data-name="&lt;Path&gt;" class="cls-7" d="M33.27,9.7c.49.77.63,3.26.61,6.08.61-3.85,1.12-8,.77-9.13-.61-2-1.95-1.31-1.95-1.31s-.48,1.34-1.15,3.26A2,2,0,0,1,33.27,9.7Z"/><path id="_Path_15" data-name="&lt;Path&gt;" class="cls-3" d="M32.7,5.34S27.34,20.05,28,22.23a5.06,5.06,0,0,0,3,3s1.17,0,1.72-2.76S35.26,8.65,34.65,6.65,32.7,5.34,32.7,5.34Z"/><path id="_Path_16" data-name="&lt;Path&gt;" class="cls-3" d="M12.87,27.7s4.4-.37,5.7,0"/></g></svg>