<svg id="Icons" xmlns="http://www.w3.org/2000/svg" viewBox="0 0 48 48"><defs><style>.cls-1{fill:#45413c;opacity:0.15;}.cls-2{fill:#bf8df2;}.cls-3{fill:#9f5ae5;}.cls-4{fill:none;}.cls-4,.cls-8{stroke:#45413c;stroke-linecap:round;stroke-linejoin:round;}.cls-5{fill:#dabff5;}.cls-6{fill:#bf8256;}.cls-7{fill:#915e3a;}.cls-8{fill:#fff;}</style></defs><title>744-crystal-ball-2</title><ellipse id="_Ellipse_" data-name="&lt;Ellipse&gt;" class="cls-1" cx="24" cy="45.5" rx="14" ry="1.5"/><g id="_Group_" data-name="&lt;Group&gt;"><g id="_Group_2" data-name="&lt;Group&gt;"><circle id="_Ellipse_2" data-name="&lt;Ellipse&gt;" class="cls-2" cx="24" cy="23.29" r="15.29"/><path id="_Compound_Path_" data-name="&lt;Compound Path&gt;" class="cls-3" d="M24,8A15.29,15.29,0,1,0,39.29,23.29,15.3,15.3,0,0,0,24,8Zm0,25A12.31,12.31,0,1,1,36.31,20.68,12.31,12.31,0,0,1,24,33Z"/><circle id="_Ellipse_3" data-name="&lt;Ellipse&gt;" class="cls-4" cx="24" cy="23.29" r="15.29"/></g><circle id="_Ellipse_4" data-name="&lt;Ellipse&gt;" class="cls-5" cx="29.97" cy="18.07" r="3.73"/><circle id="_Ellipse_5" data-name="&lt;Ellipse&gt;" class="cls-5" cx="22.88" cy="19.93" r="1.12"/><circle id="_Ellipse_6" data-name="&lt;Ellipse&gt;" class="cls-5" cx="23.63" cy="13.97" r="1.86"/></g><g id="_Group_3" data-name="&lt;Group&gt;"><path id="_Path_" data-name="&lt;Path&gt;" class="cls-6" d="M36.48,39.68a1.49,1.49,0,0,1-.55,1.94c-1.77,1.1-5.66,2.93-11.93,2.93s-10.16-1.83-11.93-2.93a1.49,1.49,0,0,1-.55-1.94l2.41-4.83A24.94,24.94,0,0,0,24,37.09a24.94,24.94,0,0,0,10.07-2.24Z"/><path id="_Path_2" data-name="&lt;Path&gt;" class="cls-7" d="M24,39.81a34.84,34.84,0,0,0,11.5-2.09l-1.43-2.87A24.94,24.94,0,0,1,24,37.09a24.94,24.94,0,0,1-10.07-2.24L12.5,37.72A34.84,34.84,0,0,0,24,39.81Z"/><path id="_Path_3" data-name="&lt;Path&gt;" class="cls-4" d="M36.48,39.68a1.49,1.49,0,0,1-.55,1.94c-1.77,1.1-5.66,2.93-11.93,2.93s-10.16-1.83-11.93-2.93a1.49,1.49,0,0,1-.55-1.94l2.41-4.83A24.94,24.94,0,0,0,24,37.09a24.94,24.94,0,0,0,10.07-2.24Z"/></g><path id="_Path_4" data-name="&lt;Path&gt;" class="cls-8" d="M11.92,15.56a1.82,1.82,0,0,1,1.35-1.34L16,13.6a.22.22,0,0,0,.17-.22.21.21,0,0,0-.17-.21l-2.69-.63a1.79,1.79,0,0,1-1.35-1.34L11.3,8.51a.22.22,0,0,0-.22-.17.21.21,0,0,0-.21.17l-.62,2.69A1.79,1.79,0,0,1,8.9,12.54l-2.69.63a.21.21,0,0,0-.17.21.22.22,0,0,0,.17.22l2.69.62a1.82,1.82,0,0,1,1.35,1.34l.62,2.7a.21.21,0,0,0,.21.17.22.22,0,0,0,.22-.17Z"/><path id="_Path_5" data-name="&lt;Path&gt;" class="cls-8" d="M35.52,8.73,37.63,8a.21.21,0,0,0,.13-.19.2.2,0,0,0-.13-.19l-1.74-.58a.78.78,0,0,1-.5-.5l-.57-1.73a.21.21,0,0,0-.19-.13.2.2,0,0,0-.19.13l-.58,1.73a.76.76,0,0,1-.5.5l-1.73.58a.2.2,0,0,0-.13.19.21.21,0,0,0,.13.19l1.73.57a.8.8,0,0,1,.5.5l.58,1.74a.2.2,0,0,0,.19.13.21.21,0,0,0,.19-.13Z"/><path id="_Path_6" data-name="&lt;Path&gt;" class="cls-8" d="M45.21,30.36l2.11-.7a.21.21,0,0,0,.14-.19.2.2,0,0,0-.14-.19l-1.73-.58a.78.78,0,0,1-.5-.5l-.58-1.73a.2.2,0,0,0-.19-.13.18.18,0,0,0-.18.13l-.58,1.73a.78.78,0,0,1-.5.5l-1.73.58a.2.2,0,0,0-.14.19.21.21,0,0,0,.14.19l1.73.57a.8.8,0,0,1,.5.5l.58,1.74a.18.18,0,0,0,.18.13.2.2,0,0,0,.19-.13Z"/><path id="_Path_7" data-name="&lt;Path&gt;" class="cls-8" d="M4.57,34.83l2.1-.7a.2.2,0,0,0,.14-.19.19.19,0,0,0-.14-.18l-1.73-.58a.83.83,0,0,1-.5-.5L3.86,31a.19.19,0,0,0-.18-.14.2.2,0,0,0-.19.14l-.58,1.73a.8.8,0,0,1-.5.5l-1.73.58a.19.19,0,0,0-.14.18.2.2,0,0,0,.14.19l1.73.58a.78.78,0,0,1,.5.5l.58,1.73a.2.2,0,0,0,.19.14.19.19,0,0,0,.18-.14Z"/></svg>