<svg id="Icons" xmlns="http://www.w3.org/2000/svg" viewBox="0 0 48 48"><defs><style>.cls-1{fill:#45413c;opacity:0.15;}.cls-2{fill:#00b8f0;}.cls-3{fill:#4acfff;}.cls-4{fill:none;stroke:#45413c;stroke-linecap:round;stroke-linejoin:round;}.cls-5{fill:#fff;}.cls-6{fill:#e0e0e0;}</style></defs><title>745-restroom</title><ellipse id="_Ellipse_" data-name="&lt;Ellipse&gt;" class="cls-1" cx="24" cy="45.28" rx="13.17" ry="1.72"/><rect id="_Rectangle_" data-name="&lt;Rectangle&gt;" class="cls-2" x="5.86" y="5.86" width="36.29" height="36.29" rx="5.72" ry="5.72"/><path id="_Path_" data-name="&lt;Path&gt;" class="cls-3" d="M36.42,5.86H11.58a5.72,5.72,0,0,0-5.72,5.72v3.34A5.72,5.72,0,0,1,11.58,9.2H36.42a5.72,5.72,0,0,1,5.72,5.72V11.58A5.72,5.72,0,0,0,36.42,5.86Z"/><rect id="_Rectangle_2" data-name="&lt;Rectangle&gt;" class="cls-4" x="5.86" y="5.86" width="36.29" height="36.29" rx="5.72" ry="5.72"/><circle id="_Path_2" data-name="&lt;Path&gt;" class="cls-5" cx="16.66" cy="14.27" r="2.93"/><circle id="_Path_3" data-name="&lt;Path&gt;" class="cls-5" cx="31.9" cy="14.27" r="2.93"/><path id="_Path_4" data-name="&lt;Path&gt;" class="cls-6" d="M16.66,13.27a2.92,2.92,0,0,1,2.76,2,3,3,0,0,0,.17-1,2.93,2.93,0,1,0-5.86,0,3,3,0,0,0,.17,1A2.92,2.92,0,0,1,16.66,13.27Z"/><path id="_Path_5" data-name="&lt;Path&gt;" class="cls-6" d="M31.9,13.27a2.92,2.92,0,0,1,2.76,2,2.77,2.77,0,0,0,.18-1,2.94,2.94,0,1,0-5.87,0,3,3,0,0,0,.17,1A2.93,2.93,0,0,1,31.9,13.27Z"/><circle id="_Path_6" data-name="&lt;Path&gt;" class="cls-4" cx="16.66" cy="14.27" r="2.93"/><circle id="_Path_7" data-name="&lt;Path&gt;" class="cls-4" cx="31.9" cy="14.27" r="2.93"/><path class="cls-5" d="M16.66,19.71a5.8,5.8,0,0,0-5.8,5.79v3.65A1.16,1.16,0,0,0,12,30.3h1.72v5.22a1.15,1.15,0,0,0,1.14,1.15h3.58a1.15,1.15,0,0,0,1.14-1.15V30.3h1.72a1.16,1.16,0,0,0,1.15-1.15V25.5A5.8,5.8,0,0,0,16.66,19.71Z"/><path class="cls-6" d="M16.66,19.71a5.8,5.8,0,0,0-5.8,5.79v2.6a5.8,5.8,0,0,1,11.6,0V25.5A5.8,5.8,0,0,0,16.66,19.71Z"/><path class="cls-4" d="M16.66,19.71a5.8,5.8,0,0,0-5.8,5.79v3.65A1.16,1.16,0,0,0,12,30.3h1.72v5.22a1.15,1.15,0,0,0,1.14,1.15h3.58a1.15,1.15,0,0,0,1.14-1.15V30.3h1.72a1.16,1.16,0,0,0,1.15-1.15V25.5A5.8,5.8,0,0,0,16.66,19.71Z"/><path id="_Path_8" data-name="&lt;Path&gt;" class="cls-5" d="M31.9,19.71a4.2,4.2,0,0,0-4.2,4.19v4.83l-1.5,2.1a.58.58,0,0,0,.47.91H29v3.78a1.15,1.15,0,0,0,1.14,1.15h3.58a1.16,1.16,0,0,0,1.15-1.15V31.74h2.3a.58.58,0,0,0,.46-.91l-1.5-2.1V23.9A4.2,4.2,0,0,0,31.9,19.71Z"/><path class="cls-6" d="M31.9,22.29a4.2,4.2,0,0,1,4.2,4.2V23.9a4.2,4.2,0,0,0-8.4,0v2.59A4.2,4.2,0,0,1,31.9,22.29Z"/><path id="_Path_9" data-name="&lt;Path&gt;" class="cls-4" d="M31.9,19.71a4.2,4.2,0,0,0-4.2,4.19v4.83l-1.5,2.1a.58.58,0,0,0,.47.91H29v3.78a1.15,1.15,0,0,0,1.14,1.15h3.58a1.16,1.16,0,0,0,1.15-1.15V31.74h2.3a.58.58,0,0,0,.46-.91l-1.5-2.1V23.9A4.2,4.2,0,0,0,31.9,19.71Z"/></svg>