<svg id="Icons" xmlns="http://www.w3.org/2000/svg" viewBox="0 0 48 48"><defs><style>.cls-1{fill:#656769;}.cls-2{fill:#525252;}.cls-3,.cls-4,.cls-7{fill:none;}.cls-3,.cls-4{stroke:#fff;}.cls-3{stroke-miterlimit:10;}.cls-4,.cls-7{stroke-linecap:round;stroke-linejoin:round;}.cls-5{fill:#fff;}.cls-6{fill:#45413c;opacity:0.15;}.cls-7{stroke:#45413c;}.cls-8{fill:#ff6242;}.cls-9{fill:#ff866e;}</style></defs><title>747-no-bicycles</title><g id="_Group_" data-name="&lt;Group&gt;"><circle id="_Path_" data-name="&lt;Path&gt;" class="cls-1" cx="24" cy="24" r="15.6"/><path id="_Path_2" data-name="&lt;Path&gt;" class="cls-2" d="M24,11.27A15.61,15.61,0,0,1,39.53,25.44c0-.48.07-1,.07-1.44A15.6,15.6,0,0,0,8.4,24c0,.48,0,1,.07,1.44A15.61,15.61,0,0,1,24,11.27Z"/><g id="_Group_2" data-name="&lt;Group&gt;"><circle id="_Path_3" data-name="&lt;Path&gt;" class="cls-3" cx="16.52" cy="27.65" r="5.01"/><circle id="_Path_4" data-name="&lt;Path&gt;" class="cls-3" cx="31.66" cy="27.65" r="5.01"/><polyline id="_Path_5" data-name="&lt;Path&gt;" class="cls-4" points="16.52 27.65 19.05 20.05 19.05 15.34 14.93 15.34"/><polygon id="_Path_6" data-name="&lt;Path&gt;" class="cls-4" points="19.05 20.05 29.81 20.05 24.43 27.65 19.05 20.05"/><polyline id="_Path_7" data-name="&lt;Path&gt;" class="cls-4" points="24.43 27.65 31.66 27.65 29.81 20.05 29.81 17.93"/><line id="_Path_8" data-name="&lt;Path&gt;" class="cls-4" x1="27.46" y1="17.93" x2="32.17" y2="17.93"/><circle id="_Path_9" data-name="&lt;Path&gt;" class="cls-5" cx="16.52" cy="27.65" r="2.53"/><circle id="_Path_10" data-name="&lt;Path&gt;" class="cls-5" cx="31.66" cy="27.65" r="2.53"/></g><ellipse id="_Ellipse_" data-name="&lt;Ellipse&gt;" class="cls-6" cx="24" cy="45.43" rx="12.02" ry="1.57"/><circle id="_Path_11" data-name="&lt;Path&gt;" class="cls-7" cx="24" cy="24" r="15.6"/><path id="_Compound_Path_" data-name="&lt;Compound Path&gt;" class="cls-8" d="M24,4.15A19.85,19.85,0,1,0,43.85,24,19.85,19.85,0,0,0,24,4.15ZM24,8.4A15.55,15.55,0,0,1,39.17,27.58L11,15.41A15.57,15.57,0,0,1,24,8.4Zm0,31.2A15.55,15.55,0,0,1,8.83,20.42L37,32.59A15.57,15.57,0,0,1,24,39.6Z"/><g id="_Group_3" data-name="&lt;Group&gt;"><path id="_Path_12" data-name="&lt;Path&gt;" class="cls-9" d="M24,6.65a19.84,19.84,0,0,1,19.79,18.6c0-.41.06-.83.06-1.25a19.85,19.85,0,0,0-39.7,0c0,.42,0,.84.06,1.25A19.84,19.84,0,0,1,24,6.65Z"/></g><path id="_Compound_Path_2" data-name="&lt;Compound Path&gt;" class="cls-7" d="M24,4.15A19.85,19.85,0,1,0,43.85,24,19.85,19.85,0,0,0,24,4.15ZM24,8.4A15.55,15.55,0,0,1,39.17,27.58L11,15.41A15.57,15.57,0,0,1,24,8.4Zm0,31.2A15.55,15.55,0,0,1,8.83,20.42L37,32.59A15.57,15.57,0,0,1,24,39.6Z"/></g></svg>