<svg id="Icons" xmlns="http://www.w3.org/2000/svg" viewBox="0 0 48 48"><defs><style>.cls-1{fill:#45413c;opacity:0.15;}.cls-2{fill:#00b8f0;}.cls-3{fill:#4acfff;}.cls-4{fill:none;}.cls-4,.cls-9{stroke:#45413c;stroke-linecap:round;stroke-linejoin:round;}.cls-5,.cls-9{fill:#fff;}.cls-6{fill:#e0e0e0;}.cls-7{fill:#ff6242;}.cls-8{fill:#e04122;}</style></defs><title>748-no-smoking</title><ellipse id="_Ellipse_" data-name="&lt;Ellipse&gt;" class="cls-1" cx="24" cy="45.28" rx="13.17" ry="1.72"/><rect id="_Rectangle_" data-name="&lt;Rectangle&gt;" class="cls-2" x="5.86" y="5.86" width="36.29" height="36.29" rx="5.72" ry="5.72"/><path id="_Path_" data-name="&lt;Path&gt;" class="cls-3" d="M42.14,11.58a5.72,5.72,0,0,0-5.72-5.72H11.58a5.72,5.72,0,0,0-5.72,5.72v3.73a5.72,5.72,0,0,1,5.72-5.72H36.42a5.72,5.72,0,0,1,5.72,5.72Z"/><rect id="_Rectangle_2" data-name="&lt;Rectangle&gt;" class="cls-4" x="5.86" y="5.86" width="36.29" height="36.29" rx="5.72" ry="5.72"/><path id="_Rectangle_3" data-name="&lt;Rectangle&gt;" class="cls-5" d="M12,21.64H31.56a0,0,0,0,1,0,0v4.72a0,0,0,0,1,0,0H12a1.14,1.14,0,0,1-1.14-1.14V22.78A1.14,1.14,0,0,1,12,21.64Z"/><path id="_Rectangle_4" data-name="&lt;Rectangle&gt;" class="cls-5" d="M34.09,21.64h1.14a1.14,1.14,0,0,1,1.14,1.14v2.43a1.14,1.14,0,0,1-1.14,1.14H34.09a0,0,0,0,1,0,0V21.64A0,0,0,0,1,34.09,21.64Z"/><path id="_Path_2" data-name="&lt;Path&gt;" class="cls-6" d="M12.05,21.64a1.15,1.15,0,0,0-1.15,1.14v1.75a1.15,1.15,0,0,1,1.15-1.14H31.56V21.64Z"/><path id="_Path_3" data-name="&lt;Path&gt;" class="cls-6" d="M35.23,21.64H34.09v1.75h1.14a1.14,1.14,0,0,1,1.15,1.14V22.78A1.14,1.14,0,0,0,35.23,21.64Z"/><path id="_Rectangle_5" data-name="&lt;Rectangle&gt;" class="cls-4" d="M12,21.64H31.56a0,0,0,0,1,0,0v4.72a0,0,0,0,1,0,0H12a1.14,1.14,0,0,1-1.14-1.14V22.78A1.14,1.14,0,0,1,12,21.64Z"/><path id="_Rectangle_6" data-name="&lt;Rectangle&gt;" class="cls-4" d="M34.09,21.64h1.14a1.14,1.14,0,0,1,1.14,1.14v2.43a1.14,1.14,0,0,1-1.14,1.14H34.09a0,0,0,0,1,0,0V21.64A0,0,0,0,1,34.09,21.64Z"/><path id="_Path_4" data-name="&lt;Path&gt;" class="cls-7" d="M9.6,9.6a2.37,2.37,0,0,0,0,3.34L35.06,38.4a2.36,2.36,0,1,0,3.34-3.34L12.94,9.6A2.37,2.37,0,0,0,9.6,9.6Z"/><path class="cls-8" d="M9.36,11.69a2.35,2.35,0,0,1,3.34,0L38.15,37.14a2.44,2.44,0,0,1,.56.88,2.38,2.38,0,0,0-.31-3L12.94,9.6a2.36,2.36,0,0,0-3.89,2.47A1.91,1.91,0,0,1,9.36,11.69Z"/><path id="_Path_5" data-name="&lt;Path&gt;" class="cls-4" d="M9.6,9.6a2.37,2.37,0,0,0,0,3.34L35.06,38.4a2.36,2.36,0,1,0,3.34-3.34L12.94,9.6A2.37,2.37,0,0,0,9.6,9.6Z"/><circle id="_Path_6" data-name="&lt;Path&gt;" class="cls-9" cx="36.88" cy="18.23" r="1.29"/><path id="_Path_7" data-name="&lt;Path&gt;" class="cls-5" d="M32.23,13.81A1.09,1.09,0,0,0,34.4,14a2,2,0,0,0,.75.14,2.27,2.27,0,1,0-2.08-1.36A1.08,1.08,0,0,0,32.23,13.81Z"/><g id="_Group_" data-name="&lt;Group&gt;"><path id="_Path_8" data-name="&lt;Path&gt;" class="cls-6" d="M35.15,11.26a2.26,2.26,0,0,1,2.1,1.43,2.32,2.32,0,0,0,.16-.84,2.27,2.27,0,0,0-4.53,0,2.09,2.09,0,0,0,.17.83A2.25,2.25,0,0,1,35.15,11.26Z"/><path id="_Path_9" data-name="&lt;Path&gt;" class="cls-6" d="M32.65,14.65a1.06,1.06,0,0,1,.42-.22,2.28,2.28,0,0,1-.19-.91,2.3,2.3,0,0,1,.13-.74,1.1,1.1,0,0,0-.78,1A1.08,1.08,0,0,0,32.65,14.65Z"/></g><path id="_Path_10" data-name="&lt;Path&gt;" class="cls-4" d="M32.23,13.81A1.09,1.09,0,0,0,34.4,14a2,2,0,0,0,.75.14,2.27,2.27,0,1,0-2.08-1.36A1.08,1.08,0,0,0,32.23,13.81Z"/></svg>