<svg id="Icons" xmlns="http://www.w3.org/2000/svg" viewBox="0 0 48 48"><defs><style>.cls-1{fill:#45413c;opacity:0.15;}.cls-2{fill:#ffe500;}.cls-3{fill:#6dd627;}.cls-4{fill:#ebcb00;}.cls-5{fill:#46b000;}.cls-6{fill:none;stroke:#4f4b45;stroke-linejoin:round;}</style></defs><title>752-Japanese-symbol-for-beginner</title><g id="_Group_" data-name="&lt;Group&gt;"><ellipse id="_Ellipse_" data-name="&lt;Ellipse&gt;" class="cls-1" cx="24" cy="45.23" rx="13.58" ry="1.77"/><path id="_Path_" data-name="&lt;Path&gt;" class="cls-2" d="M12.74,3.22A1,1,0,0,0,11,4V27.88A4.15,4.15,0,0,0,12.42,31l10.21,9A2,2,0,0,0,24,40.5V13.13Z"/><path id="_Path_2" data-name="&lt;Path&gt;" class="cls-3" d="M35.26,3.22,24,13.13V40.5A2,2,0,0,0,25.37,40l10.21-9A4.15,4.15,0,0,0,37,27.88V4A1,1,0,0,0,35.26,3.22Z"/><path id="_Path_3" data-name="&lt;Path&gt;" class="cls-4" d="M12.42,26.37A4.12,4.12,0,0,1,11,23.25v4.63A4.15,4.15,0,0,0,12.42,31l10.21,9A2,2,0,0,0,24,40.5V35.87a2.08,2.08,0,0,1-1.37-.51Z"/><path id="_Path_4" data-name="&lt;Path&gt;" class="cls-5" d="M35.58,26.37l-10.21,9a2.08,2.08,0,0,1-1.37.51V40.5A2,2,0,0,0,25.37,40l10.21-9A4.15,4.15,0,0,0,37,27.88V23.25A4.12,4.12,0,0,1,35.58,26.37Z"/><path id="_Path_5" data-name="&lt;Path&gt;" class="cls-6" d="M12.74,3.22A1,1,0,0,0,11,4V27.88A4.15,4.15,0,0,0,12.42,31l10.21,9A2,2,0,0,0,24,40.5V13.13Z"/><path id="_Path_6" data-name="&lt;Path&gt;" class="cls-6" d="M35.26,3.22,24,13.13V40.5A2,2,0,0,0,25.37,40l10.21-9A4.15,4.15,0,0,0,37,27.88V4A1,1,0,0,0,35.26,3.22Z"/></g></svg>