<svg id="Icons" xmlns="http://www.w3.org/2000/svg" viewBox="0 0 48 48"><defs><style>.cls-1{fill:#ff6242;stroke:#45413c;stroke-linecap:round;stroke-linejoin:round;}.cls-2{fill:#ffe500;}.cls-3{fill:#45413c;opacity:0.15;}</style></defs><title>763-China</title><path class="cls-1" d="M45,12.25H38.68A45.89,45.89,0,0,1,24,9.88,45.73,45.73,0,0,0,9.37,7.5H3c-.58,0-1,.35-1,.79v26a.94.94,0,0,0,1,.79H9.37A46,46,0,0,1,24,37.46a45.62,45.62,0,0,0,14.65,2.38H45a.93.93,0,0,0,1-.79V13A.94.94,0,0,0,45,12.25Z"/><path id="_Path_" data-name="&lt;Path&gt;" class="cls-2" d="M8.68,10.66,9.33,12a.39.39,0,0,0,.28.2l1.46.21a.36.36,0,0,1,.2.62l-1.06,1a.4.4,0,0,0-.1.33l.25,1.46a.37.37,0,0,1-.53.38l-1.31-.69a.34.34,0,0,0-.34,0l-1.31.69a.37.37,0,0,1-.53-.38l.26-1.46a.38.38,0,0,0-.11-.33L5.43,13a.36.36,0,0,1,.2-.62l1.47-.21a.35.35,0,0,0,.27-.2L8,10.66A.36.36,0,0,1,8.68,10.66Z"/><path id="_Path_2" data-name="&lt;Path&gt;" class="cls-2" d="M16.29,9.89l.27.56a.2.2,0,0,0,.12.08l.61.09a.15.15,0,0,1,.08.26l-.44.43a.17.17,0,0,0,0,.13l.1.62a.15.15,0,0,1-.22.15l-.55-.28a.12.12,0,0,0-.14,0l-.54.28a.14.14,0,0,1-.22-.15l.1-.62a.17.17,0,0,0,0-.13l-.45-.43a.15.15,0,0,1,.09-.26l.61-.09a.15.15,0,0,0,.11-.08L16,9.89A.15.15,0,0,1,16.29,9.89Z"/><path id="_Path_3" data-name="&lt;Path&gt;" class="cls-2" d="M13.35,20l.27.56a.2.2,0,0,0,.12.08l.61.09a.15.15,0,0,1,.08.26l-.44.43a.15.15,0,0,0,0,.13l.1.61a.15.15,0,0,1-.22.16L13.28,22a.17.17,0,0,0-.14,0l-.54.29a.15.15,0,0,1-.22-.16l.1-.61a.15.15,0,0,0,0-.13L12,20.94a.15.15,0,0,1,.09-.26l.61-.09a.15.15,0,0,0,.11-.08l.28-.56A.15.15,0,0,1,13.35,20Z"/><path id="_Path_4" data-name="&lt;Path&gt;" class="cls-2" d="M16.29,17.28l.27.55a.14.14,0,0,0,.12.08l.61.09a.15.15,0,0,1,.08.26l-.44.43a.18.18,0,0,0,0,.14l.1.61a.15.15,0,0,1-.22.16l-.55-.29a.17.17,0,0,0-.14,0l-.54.29a.15.15,0,0,1-.22-.16l.1-.61a.18.18,0,0,0,0-.14l-.45-.43A.15.15,0,0,1,15,18l.61-.09a.12.12,0,0,0,.11-.08l.28-.55A.15.15,0,0,1,16.29,17.28Z"/><path id="_Path_5" data-name="&lt;Path&gt;" class="cls-2" d="M17.88,13.44l.28.56a.13.13,0,0,0,.11.08l.61.09a.15.15,0,0,1,.09.26l-.45.43a.18.18,0,0,0,0,.14l.1.61a.15.15,0,0,1-.22.16l-.54-.29a.12.12,0,0,0-.14,0l-.55.29a.16.16,0,0,1-.22-.16L17,15a.18.18,0,0,0,0-.14l-.44-.43a.15.15,0,0,1,.08-.26l.61-.09a.16.16,0,0,0,.12-.08l.27-.56A.15.15,0,0,1,17.88,13.44Z"/><ellipse class="cls-3" cx="24" cy="45.5" rx="11.5" ry="1.5"/></svg>