<svg id="Icons" xmlns="http://www.w3.org/2000/svg" viewBox="0 0 48 48"><defs><style>.cls-1{fill:#ffe500;}.cls-1,.cls-2,.cls-3{stroke:#45413c;stroke-linecap:round;stroke-linejoin:round;}.cls-2{fill:#fff;}.cls-3{fill:#e04122;}.cls-4{fill:#45413c;opacity:0.15;}</style></defs><title>766-Spain</title><g id="_Group_" data-name="&lt;Group&gt;"><path class="cls-1" d="M45,12.25H38.68A45.89,45.89,0,0,1,24,9.88,45.73,45.73,0,0,0,9.37,7.5H3c-.58,0-1,.35-1,.79v26a.94.94,0,0,0,1,.79H9.37A46,46,0,0,1,24,37.46a45.62,45.62,0,0,0,14.65,2.38H45a.93.93,0,0,0,1-.79V13A.94.94,0,0,0,45,12.25Z"/><path id="_Path_" data-name="&lt;Path&gt;" class="cls-2" d="M13,26.35c.89.07,1.77.16,2.65.28a1.8,1.8,0,0,0,2-1.79V20.45a47.67,47.67,0,0,0-6.34-.71v4.81A1.8,1.8,0,0,0,13,26.35Z"/><path id="_Path_2" data-name="&lt;Path&gt;" class="cls-3" d="M46.05,33.33H38.68A45.61,45.61,0,0,1,24,31,45.73,45.73,0,0,0,9.37,28.58H2V34.3a.94.94,0,0,0,1,.79H9.37A46,46,0,0,1,24,37.46a45.62,45.62,0,0,0,14.65,2.38H45a.93.93,0,0,0,1-.79Z"/><path id="_Path_3" data-name="&lt;Path&gt;" class="cls-3" d="M46.05,13a.94.94,0,0,0-1-.79H38.68A45.89,45.89,0,0,1,24,9.88,45.73,45.73,0,0,0,9.37,7.5H3c-.58,0-1,.35-1,.79V14H9.37A46,46,0,0,1,24,16.38a45.62,45.62,0,0,0,14.65,2.38h7.37Z"/><rect id="_Rectangle_" data-name="&lt;Rectangle&gt;" class="cls-2" x="8.25" y="19.68" width="1.51" height="5.96"/><polygon id="_Path_4" data-name="&lt;Path&gt;" class="cls-2" points="20.77 27.04 19.27 26.65 19.27 20.69 20.77 21.08 20.77 27.04"/><path id="_Path_5" data-name="&lt;Path&gt;" class="cls-3" d="M15.63,26.63a1.8,1.8,0,0,0,2-1.79V23.51c-1-.18-2.07-.33-3.11-.45V26.5Z"/><path id="_Path_6" data-name="&lt;Path&gt;" class="cls-3" d="M14.57,20c-1.07-.12-2.15-.2-3.23-.25V22.8c1.08,0,2.16.13,3.23.25Z"/><path id="_Path_7" data-name="&lt;Path&gt;" class="cls-3" d="M13.05,18.3a23.86,23.86,0,0,1,3.18.39s1.31-.43.85-1.36c-.67-1.33-2.49-.55-2.49-.55s-1.41-1.09-2.28-.26S13.05,18.3,13.05,18.3Z"/><path id="_Path_8" data-name="&lt;Path&gt;" class="cls-3" d="M17.68,22.78a3.44,3.44,0,0,1,3.09.4v2a3.44,3.44,0,0,0-3.09-.4Z"/><path id="_Path_9" data-name="&lt;Path&gt;" class="cls-3" d="M8.25,21.74a3.44,3.44,0,0,1,3.09.4v2a3.44,3.44,0,0,0-3.09-.4Z"/></g><ellipse class="cls-4" cx="24" cy="45.5" rx="11.5" ry="1.5"/></svg>