<svg id="Icons" xmlns="http://www.w3.org/2000/svg" viewBox="0 0 48 48"><defs><style>.cls-1{fill:#fff;}.cls-1,.cls-2,.cls-3{stroke:#45413c;}.cls-1,.cls-2,.cls-3,.cls-4{stroke-linecap:round;stroke-linejoin:round;}.cls-2{fill:#e04122;}.cls-3{fill:#525252;}.cls-4{fill:none;stroke:#46b000;}.cls-5{fill:#45413c;opacity:0.15;}</style></defs><title>771-Iraq</title><g id="_Group_" data-name="&lt;Group&gt;"><path class="cls-1" d="M45,12.25H38.68A45.89,45.89,0,0,1,24,9.88,45.73,45.73,0,0,0,9.37,7.5H3c-.58,0-1,.35-1,.79v26a.94.94,0,0,0,1,.79H9.37A46,46,0,0,1,24,37.46a45.62,45.62,0,0,0,14.65,2.38H45a.93.93,0,0,0,1-.79V13A.94.94,0,0,0,45,12.25Z"/><path id="_Path_" data-name="&lt;Path&gt;" class="cls-2" d="M2,16.52H9.37A46,46,0,0,1,24,18.89h0a45.62,45.62,0,0,0,14.65,2.38h7.37V13a.94.94,0,0,0-1-.79H38.68A45.89,45.89,0,0,1,24,9.88h0A45.73,45.73,0,0,0,9.37,7.5H3c-.58,0-1,.35-1,.79Z"/><path id="_Path_2" data-name="&lt;Path&gt;" class="cls-3" d="M2,34.3a.94.94,0,0,0,1,.79H9.37A46,46,0,0,1,24,37.46h0a45.62,45.62,0,0,0,14.65,2.38H45a.93.93,0,0,0,1-.79V30.64H38.68A45.89,45.89,0,0,1,24,28.27h0A45.73,45.73,0,0,0,9.37,25.89H2Z"/><path id="_Path_3" data-name="&lt;Path&gt;" class="cls-4" d="M13.75,23.81a23.08,23.08,0,0,1,6.51,1.27V23.3a1.07,1.07,0,0,0-.67-1.16c-.36-.13-.79,0-.79.49v.56a14.67,14.67,0,0,0-2.71-.54l3.23-2.86"/><path id="_Path_4" data-name="&lt;Path&gt;" class="cls-4" d="M21.89,20.39V25.2a4.73,4.73,0,0,1,1.38.47"/><line id="_Path_5" data-name="&lt;Path&gt;" class="cls-4" x1="14.8" y1="23.89" x2="14.8" y2="22.7"/><path id="_Path_6" data-name="&lt;Path&gt;" class="cls-4" d="M28.92,22.31v5.18a15.23,15.23,0,0,1-3.37-1.07c0-1,.75-1.06,1.06-.75v-1"/><line id="_Path_7" data-name="&lt;Path&gt;" class="cls-4" x1="27.73" y1="23.59" x2="27.73" y2="27.18"/><path id="_Path_8" data-name="&lt;Path&gt;" class="cls-4" d="M30.47,22.6v5.22a6.31,6.31,0,0,0,1.63.34"/><line id="_Path_9" data-name="&lt;Path&gt;" class="cls-4" x1="25.99" y1="22.31" x2="25.99" y2="21.51"/></g><ellipse class="cls-5" cx="24" cy="45.5" rx="11.5" ry="1.5"/></svg>