<svg id="Icons" xmlns="http://www.w3.org/2000/svg" viewBox="0 0 48 48"><defs><style>.cls-1{fill:#fff;}.cls-1,.cls-2,.cls-3{stroke:#45413c;stroke-linecap:round;stroke-linejoin:round;}.cls-2{fill:#e04122;}.cls-3{fill:#656769;}.cls-4{fill:#46b000;}.cls-5{fill:#45413c;opacity:0.15;}</style></defs><title>784-Syria</title><g id="_Group_" data-name="&lt;Group&gt;"><path class="cls-1" d="M45,11.75H38.68A45.89,45.89,0,0,1,24,9.38,45.73,45.73,0,0,0,9.37,7H3c-.58,0-1,.35-1,.79v26a.94.94,0,0,0,1,.79H9.37A46,46,0,0,1,24,37a45.62,45.62,0,0,0,14.65,2.38H45a.93.93,0,0,0,1-.79v-26A.94.94,0,0,0,45,11.75Z"/><path class="cls-2" d="M45,11.75H38.68A45.89,45.89,0,0,1,24,9.38,45.73,45.73,0,0,0,9.37,7H3c-.58,0-1,.35-1,.79v7.79H9.37A45.72,45.72,0,0,1,24,18a45.62,45.62,0,0,0,14.65,2.38h7.37V12.54A.94.94,0,0,0,45,11.75Z"/><path class="cls-3" d="M38.68,30.54A45.89,45.89,0,0,1,24,28.17,45.73,45.73,0,0,0,9.37,25.79H2v8a.94.94,0,0,0,1,.79H9.37A46,46,0,0,1,24,37a45.62,45.62,0,0,0,14.65,2.38H45a.93.93,0,0,0,1-.79v-8Z"/><path id="_Path_" data-name="&lt;Path&gt;" class="cls-4" d="M17.13,19.35l.46,1a.3.3,0,0,0,.19.16l1,.28a.27.27,0,0,1,.14.45l-.74.63a.22.22,0,0,0-.07.22l.17,1a.23.23,0,0,1-.37.22L17,22.75a.24.24,0,0,0-.23,0l-.92.37a.28.28,0,0,1-.37-.31l.17-1a.26.26,0,0,0-.07-.23l-.74-.82a.23.23,0,0,1,.14-.41l1,0a.21.21,0,0,0,.19-.11l.46-.88A.26.26,0,0,1,17.13,19.35Z"/><path id="_Path_2" data-name="&lt;Path&gt;" class="cls-4" d="M30.39,22.43l.46,1a.32.32,0,0,0,.19.17l1,.31c.21.07.29.34.14.46l-.75.61a.21.21,0,0,0-.07.21l.18,1a.23.23,0,0,1-.37.21l-.92-.63a.3.3,0,0,0-.24,0l-.92.34a.29.29,0,0,1-.37-.32l.18-1a.32.32,0,0,0-.08-.24l-.74-.84c-.15-.17-.07-.41.14-.41h1a.21.21,0,0,0,.19-.11l.46-.86C30,22.18,30.29,22.22,30.39,22.43Z"/></g><ellipse class="cls-5" cx="24" cy="45.5" rx="11.5" ry="1.5"/></svg>