<svg id="Icons" xmlns="http://www.w3.org/2000/svg" viewBox="0 0 48 48"><defs><style>.cls-1{fill:#ff6242;}.cls-1,.cls-2,.cls-3{stroke:#45413c;stroke-linecap:round;stroke-linejoin:round;}.cls-2{fill:#fff;}.cls-3{fill:#009fd9;}.cls-4{fill:#45413c;opacity:0.15;}</style></defs><title>785-Thailand</title><g id="_Group_" data-name="&lt;Group&gt;"><path class="cls-1" d="M45,11.75H38.68A45.89,45.89,0,0,1,24,9.38,45.73,45.73,0,0,0,9.37,7H3c-.58,0-1,.35-1,.79v26a.94.94,0,0,0,1,.79H9.37A46,46,0,0,1,24,37a45.62,45.62,0,0,0,14.65,2.38H45a.93.93,0,0,0,1-.79v-26A.94.94,0,0,0,45,11.75Z"/><path class="cls-2" d="M38.68,16A45.89,45.89,0,0,1,24,13.64,45.73,45.73,0,0,0,9.37,11.26H2V30.33H9.37A46,46,0,0,1,24,32.7a45.62,45.62,0,0,0,14.65,2.38h7.37V16Z"/><path class="cls-3" d="M38.68,21.19A45.89,45.89,0,0,1,24,18.82,45.73,45.73,0,0,0,9.37,16.44H2v8.71H9.37A46,46,0,0,1,24,27.52,45.62,45.62,0,0,0,38.68,29.9h7.37V21.19Z"/></g><ellipse class="cls-4" cx="24" cy="45.5" rx="11.5" ry="1.5"/></svg>