<svg id="Icons" xmlns="http://www.w3.org/2000/svg" viewBox="0 0 48 48"><defs><style>.cls-1{fill:#ffe500;}.cls-2{fill:#ebcb00;}.cls-3{fill:#fff48c;}.cls-4{fill:#45413c;opacity:0.15;}.cls-5{fill:none;}.cls-5,.cls-7,.cls-8{stroke:#45413c;stroke-linecap:round;stroke-linejoin:round;}.cls-6{fill:#ffaa54;}.cls-7{fill:#ffb0ca;}.cls-8{fill:#ff87af;}.cls-9{fill:#00b8f0;}.cls-10{fill:#4acfff;}</style></defs><title>03-face-with-tears-of-joy</title><g id="_Group_" data-name="&lt;Group&gt;"><circle id="_Ellipse_" data-name="&lt;Ellipse&gt;" class="cls-1" cx="24" cy="21.97" r="15.38"/><path id="_Compound_Path_" data-name="&lt;Compound Path&gt;" class="cls-2" d="M24,6.58A15.39,15.39,0,1,0,39.38,22,15.38,15.38,0,0,0,24,6.58ZM24,35A14,14,0,1,1,38,21,14,14,0,0,1,24,35Z"/><ellipse id="_Ellipse_2" data-name="&lt;Ellipse&gt;" class="cls-3" cx="24" cy="9.66" rx="4.61" ry="1.15"/><ellipse id="_Ellipse_3" data-name="&lt;Ellipse&gt;" class="cls-4" cx="24" cy="43.5" rx="12.31" ry="1.5"/><circle id="_Ellipse_4" data-name="&lt;Ellipse&gt;" class="cls-5" cx="24" cy="21.97" r="15.38"/><path id="_Path_" data-name="&lt;Path&gt;" class="cls-6" d="M35.15,25.81c0,.64-.86,1.15-1.92,1.15s-1.92-.51-1.92-1.15.86-1.15,1.92-1.15S35.15,25.17,35.15,25.81Z"/><path id="_Path_2" data-name="&lt;Path&gt;" class="cls-6" d="M12.85,25.81c0,.64.86,1.15,1.92,1.15s1.92-.51,1.92-1.15-.86-1.15-1.92-1.15S12.85,25.17,12.85,25.81Z"/><path id="_Path_3" data-name="&lt;Path&gt;" class="cls-5" d="M13.23,22.93a1.35,1.35,0,1,1,2.69,0"/><path id="_Path_4" data-name="&lt;Path&gt;" class="cls-5" d="M32.08,22.93a1.35,1.35,0,1,1,2.69,0"/><g id="_Group_2" data-name="&lt;Group&gt;"><path id="_Path_5" data-name="&lt;Path&gt;" class="cls-7" d="M19.34,28.12a.73.73,0,0,0-.55.25.72.72,0,0,0-.17.58,5.46,5.46,0,0,0,10.76,0,.72.72,0,0,0-.17-.58.73.73,0,0,0-.55-.25Z"/><path id="_Path_6" data-name="&lt;Path&gt;" class="cls-8" d="M28.29,31.46a8.74,8.74,0,0,0-4.29-1,8.74,8.74,0,0,0-4.29,1,5.53,5.53,0,0,0,8.58,0Z"/></g><g id="_Group_3" data-name="&lt;Group&gt;"><g id="_Group_4" data-name="&lt;Group&gt;"><path id="_Path_7" data-name="&lt;Path&gt;" class="cls-9" d="M3.29,29.51c3.3,3.3,5.74-3.32,9-4C7.66,22.15,0,26.21,3.29,29.51Z"/><path id="_Path_8" data-name="&lt;Path&gt;" class="cls-10" d="M12.24,25.55l-.23.06C7.53,24,1.88,27.43,4.61,30.34a3,3,0,0,1-1.32-.83C0,26.21,7.66,22.15,12.24,25.55Z"/><path id="_Path_9" data-name="&lt;Path&gt;" class="cls-5" d="M3.29,29.51c3.3,3.3,5.74-3.32,9-4C7.66,22.15,0,26.21,3.29,29.51Z"/></g><g id="_Group_5" data-name="&lt;Group&gt;"><path id="_Path_10" data-name="&lt;Path&gt;" class="cls-9" d="M6.49,17.73c-1,2.87,3.56,2.5,4.83,4.24C12.08,18.29,7.54,14.85,6.49,17.73Z"/><path class="cls-10" d="M11.13,19.6c-.91-2.53-3.82-4.1-4.64-1.87a1.56,1.56,0,0,0,.5,2C7.64,17.63,9.67,18.08,11.13,19.6Z"/><path id="_Path_11" data-name="&lt;Path&gt;" class="cls-5" d="M6.49,17.73c-1,2.87,3.56,2.5,4.83,4.24C12.08,18.29,7.54,14.85,6.49,17.73Z"/></g><g id="_Group_6" data-name="&lt;Group&gt;"><path id="_Path_12" data-name="&lt;Path&gt;" class="cls-9" d="M1,22.09c.84,2,3-.42,4.53-.13C4.2,19.7.21,20.1,1,22.09Z"/><path class="cls-10" d="M1.36,22.6c.52-1,2.59-1.66,4.12-.77C4,19.72.22,20.14,1,22.09A1.65,1.65,0,0,0,1.36,22.6Z"/><path id="_Path_13" data-name="&lt;Path&gt;" class="cls-5" d="M1,22.09c.84,2,3-.42,4.53-.13C4.2,19.7.21,20.1,1,22.09Z"/></g></g><g id="_Group_7" data-name="&lt;Group&gt;"><g id="_Group_8" data-name="&lt;Group&gt;"><path id="_Path_14" data-name="&lt;Path&gt;" class="cls-9" d="M44.54,29.51c-3.3,3.3-5.73-3.32-8.95-4C40.18,22.15,47.84,26.21,44.54,29.51Z"/><path id="_Path_15" data-name="&lt;Path&gt;" class="cls-10" d="M35.59,25.55a2,2,0,0,1,.23.06C40.3,24,46,27.43,43.22,30.34a3,3,0,0,0,1.32-.83C47.84,26.21,40.18,22.15,35.59,25.55Z"/><path id="_Path_16" data-name="&lt;Path&gt;" class="cls-5" d="M44.54,29.51c-3.3,3.3-5.73-3.32-8.95-4C40.18,22.15,47.84,26.21,44.54,29.51Z"/></g><g id="_Group_9" data-name="&lt;Group&gt;"><path id="_Path_17" data-name="&lt;Path&gt;" class="cls-9" d="M41.34,17.73c1.06,2.87-3.56,2.5-4.83,4.24C35.75,18.29,40.29,14.85,41.34,17.73Z"/><path class="cls-10" d="M36.7,19.6c.91-2.53,3.83-4.1,4.64-1.87a1.56,1.56,0,0,1-.5,2C40.19,17.63,38.16,18.08,36.7,19.6Z"/><path id="_Path_18" data-name="&lt;Path&gt;" class="cls-5" d="M41.34,17.73c1.06,2.87-3.56,2.5-4.83,4.24C35.75,18.29,40.29,14.85,41.34,17.73Z"/></g><g id="_Group_10" data-name="&lt;Group&gt;"><path id="_Path_19" data-name="&lt;Path&gt;" class="cls-9" d="M46.79,22.09c-.83,2-3-.42-4.52-.13C43.64,19.7,47.63,20.1,46.79,22.09Z"/><path class="cls-10" d="M46.47,22.6c-.51-1-2.59-1.66-4.12-.77,1.44-2.11,5.26-1.69,4.44.26A1.65,1.65,0,0,1,46.47,22.6Z"/><path id="_Path_20" data-name="&lt;Path&gt;" class="cls-5" d="M46.79,22.09c-.83,2-3-.42-4.52-.13C43.64,19.7,47.63,20.1,46.79,22.09Z"/></g></g></g></svg>