<svg id="Icons" xmlns="http://www.w3.org/2000/svg" viewBox="0 0 48 48"><defs><style>.cls-1{fill:#ffe500;}.cls-2{fill:#ebcb00;}.cls-3{fill:#fff48c;}.cls-4,.cls-8{fill:#45413c;}.cls-4{opacity:0.15;}.cls-5,.cls-6{fill:none;}.cls-5,.cls-6,.cls-8,.cls-9{stroke:#45413c;}.cls-5,.cls-6,.cls-8{stroke-linecap:round;}.cls-5,.cls-8,.cls-9{stroke-linejoin:round;}.cls-6{stroke-miterlimit:10;}.cls-7{fill:#ffaa54;}.cls-9{fill:#fff;}</style></defs><title>09-winking-face</title><g id="_Group_" data-name="&lt;Group&gt;"><circle id="_Ellipse_" data-name="&lt;Ellipse&gt;" class="cls-1" cx="19.42" cy="20.38" r="18.88"/><path id="_Compound_Path_" data-name="&lt;Compound Path&gt;" class="cls-2" d="M19.42,1.5A18.88,18.88,0,1,0,38.3,20.38,18.88,18.88,0,0,0,19.42,1.5Zm0,34.92A17.23,17.23,0,1,1,36.64,19.2,17.23,17.23,0,0,1,19.42,36.42Z"/><ellipse id="_Ellipse_2" data-name="&lt;Ellipse&gt;" class="cls-3" cx="19.42" cy="5.28" rx="5.66" ry="1.42"/><ellipse id="_Ellipse_3" data-name="&lt;Ellipse&gt;" class="cls-4" cx="19.42" cy="44.58" rx="15.1" ry="1.42"/><circle id="_Ellipse_4" data-name="&lt;Ellipse&gt;" class="cls-5" cx="19.42" cy="20.38" r="18.88"/><path id="_Path_" data-name="&lt;Path&gt;" class="cls-6" d="M24.14,27.91a8.5,8.5,0,0,1-9.44,0"/><path id="_Path_2" data-name="&lt;Path&gt;" class="cls-7" d="M33.11,25.1c0,.78-1.06,1.41-2.36,1.41s-2.36-.63-2.36-1.41,1.05-1.42,2.36-1.42S33.11,24.31,33.11,25.1Z"/><path id="_Path_3" data-name="&lt;Path&gt;" class="cls-7" d="M5.73,25.1c0,.78,1.06,1.41,2.36,1.41s2.36-.63,2.36-1.41-1-1.42-2.36-1.42S5.73,24.31,5.73,25.1Z"/><polyline id="_Path_4" data-name="&lt;Path&gt;" class="cls-5" points="29.8 18.96 27.91 21.32 32.16 20.38"/><path id="_Path_5" data-name="&lt;Path&gt;" class="cls-8" d="M9.51,20.38a.95.95,0,0,1-1.89,0,.95.95,0,1,1,1.89,0Z"/><g id="_Group_2" data-name="&lt;Group&gt;"><path id="_Path_6" data-name="&lt;Path&gt;" class="cls-9" d="M47.24,20.81a.59.59,0,0,1-.27.43.55.55,0,0,1-.5,0l-4.89-1.91a.56.56,0,0,1,.14-1.09l5.14-.61a.57.57,0,0,1,.47.16.6.6,0,0,1,.17.46Z"/><path id="_Path_7" data-name="&lt;Path&gt;" class="cls-9" d="M46.59,10.55a.55.55,0,0,0-.35-.36.58.58,0,0,0-.51.06l-4.36,2.91a.57.57,0,0,0,.37,1l5.15-.51a.57.57,0,0,0,.43-.25.61.61,0,0,0,.06-.49Z"/><path id="_Path_8" data-name="&lt;Path&gt;" class="cls-9" d="M40.78,4a.56.56,0,0,0-.5-.07.57.57,0,0,0-.36.35l-1.72,5a.57.57,0,0,0,.23.66.56.56,0,0,0,.7-.06l3.79-3.52a.53.53,0,0,0,.18-.46.54.54,0,0,0-.24-.42Z"/></g></g></svg>