<svg id="Icons" xmlns="http://www.w3.org/2000/svg" viewBox="0 0 48 48"><defs><style>.cls-1{fill:#ffe500;}.cls-2{fill:#ebcb00;}.cls-3{fill:#fff48c;}.cls-4,.cls-9{fill:#45413c;}.cls-4{opacity:0.15;}.cls-5{fill:none;}.cls-5,.cls-9{stroke:#45413c;stroke-linecap:round;stroke-linejoin:round;}.cls-6{fill:#ff6242;}.cls-7{fill:#ff866e;}.cls-8{fill:#ffaa54;}</style></defs><title>14-face-blowing-a-kiss</title><g id="_Group_" data-name="&lt;Group&gt;"><circle id="_Ellipse_" data-name="&lt;Ellipse&gt;" class="cls-1" cx="24" cy="21.5" r="20"/><path id="_Compound_Path_" data-name="&lt;Compound Path&gt;" class="cls-2" d="M24,1.5a20,20,0,1,0,20,20A20,20,0,0,0,24,1.5Zm0,37A18.25,18.25,0,1,1,42.25,20.25,18.25,18.25,0,0,1,24,38.5Z"/><ellipse id="_Ellipse_2" data-name="&lt;Ellipse&gt;" class="cls-3" cx="24" cy="5.5" rx="6" ry="1.5"/><path id="_Path_" data-name="&lt;Path&gt;" class="cls-2" d="M41.89,30.44h0A20,20,0,0,1,33.7,39l-1.12-2.62L32,35.07a7.39,7.39,0,0,1,.16-5.86,5.71,5.71,0,0,1,3.9-3.32,4.46,4.46,0,0,1,4.62,1.69,4.89,4.89,0,0,1,.77,1.49Z"/><ellipse id="_Ellipse_3" data-name="&lt;Ellipse&gt;" class="cls-4" cx="24" cy="45.5" rx="16" ry="1.5"/><circle id="_Ellipse_4" data-name="&lt;Ellipse&gt;" class="cls-5" cx="24" cy="21.5" r="20"/><g id="_Group_2" data-name="&lt;Group&gt;"><path id="_Path_2" data-name="&lt;Path&gt;" class="cls-6" d="M48.47,29.88A4.64,4.64,0,0,1,48.56,34a6,6,0,0,1-3.45,3.22L36.86,40l-3.41-8a6,6,0,0,1,.12-4.72,4.65,4.65,0,0,1,3.15-2.68,3.65,3.65,0,0,1,4.34,2.57l.64,2.06,2-.89A3.65,3.65,0,0,1,48.47,29.88Z"/><path id="_Path_3" data-name="&lt;Path&gt;" class="cls-7" d="M35,28.41A3.64,3.64,0,0,1,39.35,31L40,33l2-.89a3.64,3.64,0,0,1,4.8,1.55,4.3,4.3,0,0,1,.52,2.15A6.27,6.27,0,0,0,48.56,34a4.64,4.64,0,0,0-.09-4.13,3.65,3.65,0,0,0-4.8-1.55l-2,.89-.64-2.06a3.65,3.65,0,0,0-4.34-2.57,4.65,4.65,0,0,0-3.15,2.68,6,6,0,0,0-.52,2.19A4.22,4.22,0,0,1,35,28.41Z"/><path id="_Path_4" data-name="&lt;Path&gt;" class="cls-5" d="M48.47,29.88A4.64,4.64,0,0,1,48.56,34a6,6,0,0,1-3.45,3.22L36.86,40l-3.41-8a6,6,0,0,1,.12-4.72,4.65,4.65,0,0,1,3.15-2.68,3.65,3.65,0,0,1,4.34,2.57l.64,2.06,2-.89A3.65,3.65,0,0,1,48.47,29.88Z"/></g><path id="_Path_5" data-name="&lt;Path&gt;" class="cls-8" d="M9.5,26.5c0,.83,1.12,1.5,2.5,1.5s2.5-.67,2.5-1.5S13.38,25,12,25,9.5,25.67,9.5,26.5Z"/><path id="_Path_6" data-name="&lt;Path&gt;" class="cls-5" d="M32.5,21.75a1.75,1.75,0,0,1,3.5,0"/><path id="_Path_7" data-name="&lt;Path&gt;" class="cls-9" d="M12,20.5a1,1,0,1,0,1-1A1,1,0,0,0,12,20.5Z"/><g id="_Group_3" data-name="&lt;Group&gt;"><g id="_Group_4" data-name="&lt;Group&gt;"><path id="_Path_8" data-name="&lt;Path&gt;" class="cls-5" d="M24,28.27A2,2,0,0,1,25,28a2,2,0,1,1,0,4,2,2,0,1,1,0,4,2,2,0,0,1-1-.27"/></g></g></g></svg>