<svg id="Icons" xmlns="http://www.w3.org/2000/svg" viewBox="0 0 48 48"><defs><style>.cls-1{fill:#ffe500;}.cls-2{fill:#ebcb00;}.cls-3{fill:#fff48c;}.cls-4,.cls-7{fill:#45413c;}.cls-4{opacity:0.15;}.cls-10,.cls-11,.cls-5,.cls-8,.cls-9{fill:none;}.cls-5,.cls-7{stroke:#45413c;}.cls-10,.cls-11,.cls-5,.cls-7,.cls-8,.cls-9{stroke-linecap:round;stroke-linejoin:round;}.cls-6{fill:#ffaa54;}.cls-8{stroke:#48cf3e;}.cls-9{stroke:#ff4064;}.cls-10{stroke:#ffb700;}.cls-11{stroke:#00aed9;}</style></defs><title>15-kissing-face</title><g id="_Group_" data-name="&lt;Group&gt;"><circle id="_Ellipse_" data-name="&lt;Ellipse&gt;" class="cls-1" cx="16.83" cy="24.83" r="15.33"/><path id="_Compound_Path_" data-name="&lt;Compound Path&gt;" class="cls-2" d="M16.83,9.5A15.33,15.33,0,1,0,32.16,24.83,15.33,15.33,0,0,0,16.83,9.5Zm0,28.36a14,14,0,1,1,14-14A14,14,0,0,1,16.83,37.86Z"/><ellipse id="_Ellipse_2" data-name="&lt;Ellipse&gt;" class="cls-3" cx="16.83" cy="12.57" rx="4.6" ry="1.15"/><ellipse id="_Ellipse_3" data-name="&lt;Ellipse&gt;" class="cls-4" cx="16.83" cy="45.5" rx="12.26" ry="1.5"/><circle id="_Ellipse_4" data-name="&lt;Ellipse&gt;" class="cls-5" cx="16.83" cy="24.83" r="15.33"/><g id="_Group_2" data-name="&lt;Group&gt;"><path id="_Path_" data-name="&lt;Path&gt;" class="cls-5" d="M16.83,29.63a1.53,1.53,0,1,1,.77,2.86,1.54,1.54,0,0,1,0,3.07,1.57,1.57,0,0,1-.78-.21"/></g><path id="_Path_2" data-name="&lt;Path&gt;" class="cls-6" d="M5.72,28.66c0,.64.85,1.15,1.91,1.15s1.92-.51,1.92-1.15-.86-1.15-1.92-1.15S5.72,28,5.72,28.66Z"/><path id="_Path_3" data-name="&lt;Path&gt;" class="cls-6" d="M27.94,28.66c0,.64-.86,1.15-1.91,1.15s-1.92-.51-1.92-1.15S25,27.51,26,27.51,27.94,28,27.94,28.66Z"/><path id="_Path_4" data-name="&lt;Path&gt;" class="cls-7" d="M9.55,24.45a.77.77,0,1,1-.77-.77A.77.77,0,0,1,9.55,24.45Z"/><path id="_Path_5" data-name="&lt;Path&gt;" class="cls-7" d="M24.11,24.45a.77.77,0,1,0,.77-.77A.76.76,0,0,0,24.11,24.45Z"/><g id="_Group_3" data-name="&lt;Group&gt;"><path id="_Path_6" data-name="&lt;Path&gt;" class="cls-8" d="M37.88,17a1.65,1.65,0,1,1-1.64-1.64A1.65,1.65,0,0,1,37.88,17Z"/><path id="_Path_7" data-name="&lt;Path&gt;" class="cls-8" d="M46.09,15.31a1.65,1.65,0,1,1-1.64-1.65A1.65,1.65,0,0,1,46.09,15.31Z"/><polyline id="_Path_8" data-name="&lt;Path&gt;" class="cls-8" points="37.88 16.95 37.88 9.56 46.09 6.27 46.09 15.3"/></g><g id="_Group_4" data-name="&lt;Group&gt;"><path id="_Path_9" data-name="&lt;Path&gt;" class="cls-9" d="M36.11,40.55a1.62,1.62,0,1,1-1.61-1.61A1.62,1.62,0,0,1,36.11,40.55Z"/><polyline id="_Path_10" data-name="&lt;Path&gt;" class="cls-9" points="36.11 40.55 36.11 33.28 38.53 34.9"/></g><g id="_Group_5" data-name="&lt;Group&gt;"><path id="_Path_11" data-name="&lt;Path&gt;" class="cls-10" d="M27.1,7.36a1,1,0,1,1-1.05-1A1,1,0,0,1,27.1,7.36Z"/><polyline id="_Path_12" data-name="&lt;Path&gt;" class="cls-10" points="27.1 7.36 27.1 2.66 28.67 3.7"/></g><g id="_Group_6" data-name="&lt;Group&gt;"><line id="_Path_13" data-name="&lt;Path&gt;" class="cls-11" x1="38.81" y1="23.83" x2="38.81" y2="23.25"/><line id="_Path_14" data-name="&lt;Path&gt;" class="cls-11" x1="40.03" y1="24.33" x2="40.43" y2="23.93"/><line id="_Path_15" data-name="&lt;Path&gt;" class="cls-11" x1="40.53" y1="25.55" x2="41.11" y2="25.55"/><line id="_Path_16" data-name="&lt;Path&gt;" class="cls-11" x1="40.03" y1="26.77" x2="40.43" y2="27.18"/><line id="_Path_17" data-name="&lt;Path&gt;" class="cls-11" x1="38.81" y1="27.28" x2="38.81" y2="27.85"/><line id="_Path_18" data-name="&lt;Path&gt;" class="cls-11" x1="37.59" y1="26.77" x2="37.18" y2="27.18"/><line id="_Path_19" data-name="&lt;Path&gt;" class="cls-11" x1="37.08" y1="25.55" x2="36.51" y2="25.55"/><line id="_Path_20" data-name="&lt;Path&gt;" class="cls-11" x1="37.59" y1="24.33" x2="37.18" y2="23.93"/></g><g id="_Group_7" data-name="&lt;Group&gt;"><line id="_Path_21" data-name="&lt;Path&gt;" class="cls-11" x1="44.47" y1="32" x2="44.47" y2="28.94"/><line id="_Path_22" data-name="&lt;Path&gt;" class="cls-11" x1="42.94" y1="30.47" x2="46.01" y2="30.47"/></g><g id="_Group_8" data-name="&lt;Group&gt;"><line id="_Path_23" data-name="&lt;Path&gt;" class="cls-11" x1="41.11" y1="4.19" x2="41.11" y2="2.66"/><line id="_Path_24" data-name="&lt;Path&gt;" class="cls-11" x1="40.34" y1="3.43" x2="41.87" y2="3.43"/></g><g id="_Group_9" data-name="&lt;Group&gt;"><line id="_Path_25" data-name="&lt;Path&gt;" class="cls-11" x1="42.15" y1="39.26" x2="42.15" y2="37.72"/><line id="_Path_26" data-name="&lt;Path&gt;" class="cls-11" x1="41.38" y1="38.49" x2="42.91" y2="38.49"/></g><g id="_Group_10" data-name="&lt;Group&gt;"><line id="_Path_27" data-name="&lt;Path&gt;" class="cls-11" x1="31.23" y1="9.37" x2="31.23" y2="7.83"/><line id="_Path_28" data-name="&lt;Path&gt;" class="cls-11" x1="30.46" y1="8.6" x2="31.99" y2="8.6"/></g></g></svg>