<svg id="Icons" xmlns="http://www.w3.org/2000/svg" viewBox="0 0 48 48"><defs><style>.cls-1{fill:#ffe500;}.cls-2{fill:#ebcb00;}.cls-3{fill:#fff48c;}.cls-4{fill:#45413c;opacity:0.15;}.cls-5{fill:none;stroke:#45413c;stroke-linecap:round;stroke-linejoin:round;}.cls-6{fill:#ffaa54;}</style></defs><title>16-kissing-face-with-smiling-eyes</title><g id="_Group_" data-name="&lt;Group&gt;"><circle id="_Ellipse_" data-name="&lt;Ellipse&gt;" class="cls-1" cx="24" cy="21.5" r="20"/><path id="_Compound_Path_" data-name="&lt;Compound Path&gt;" class="cls-2" d="M24,1.5a20,20,0,1,0,20,20A20,20,0,0,0,24,1.5Zm0,37A18.25,18.25,0,1,1,42.25,20.25,18.25,18.25,0,0,1,24,38.5Z"/><ellipse id="_Ellipse_2" data-name="&lt;Ellipse&gt;" class="cls-3" cx="24" cy="5.5" rx="6" ry="1.5"/><ellipse id="_Ellipse_3" data-name="&lt;Ellipse&gt;" class="cls-4" cx="24" cy="45.5" rx="16" ry="1.5"/><circle id="_Ellipse_4" data-name="&lt;Ellipse&gt;" class="cls-5" cx="24" cy="21.5" r="20"/><path id="_Path_" data-name="&lt;Path&gt;" class="cls-6" d="M9.5,26.5c0,.83,1.12,1.5,2.5,1.5s2.5-.67,2.5-1.5S13.38,25,12,25,9.5,25.67,9.5,26.5Z"/><path id="_Path_2" data-name="&lt;Path&gt;" class="cls-6" d="M38.5,26.5c0,.83-1.12,1.5-2.5,1.5s-2.5-.67-2.5-1.5S34.62,25,36,25,38.5,25.67,38.5,26.5Z"/><path id="_Path_3" data-name="&lt;Path&gt;" class="cls-5" d="M10,22.75a1.75,1.75,0,0,1,3.5,0"/><path id="_Path_4" data-name="&lt;Path&gt;" class="cls-5" d="M34.5,22.75a1.75,1.75,0,0,1,3.5,0"/><g id="_Group_2" data-name="&lt;Group&gt;"><g id="_Group_3" data-name="&lt;Group&gt;"><path id="_Path_5" data-name="&lt;Path&gt;" class="cls-5" d="M23,28.27A2,2,0,0,1,24,28a2,2,0,1,1,0,4,2,2,0,1,1,0,4,2,2,0,0,1-1-.27"/></g></g></g></svg>