<svg id="Icons" xmlns="http://www.w3.org/2000/svg" viewBox="0 0 48 48"><defs><style>.cls-1{fill:#ffe500;}.cls-2{fill:#ebcb00;}.cls-3{fill:#fff48c;}.cls-4{fill:#45413c;opacity:0.15;}.cls-5{fill:none;stroke:#45413c;stroke-linecap:round;stroke-linejoin:round;}.cls-6{fill:#ff6242;}.cls-7{fill:#ff866e;}.cls-8{fill:#ffaa54;}</style></defs><title>17-kissing-face-with-closed-eyes</title><g id="_Group_" data-name="&lt;Group&gt;"><circle id="_Ellipse_" data-name="&lt;Ellipse&gt;" class="cls-1" cx="21.5" cy="21.5" r="20"/><path id="_Compound_Path_" data-name="&lt;Compound Path&gt;" class="cls-2" d="M21.5,1.5a20,20,0,1,0,20,20A20,20,0,0,0,21.5,1.5Zm0,37A18.25,18.25,0,1,1,39.75,20.25,18.25,18.25,0,0,1,21.5,38.5Z"/><ellipse id="_Ellipse_2" data-name="&lt;Ellipse&gt;" class="cls-3" cx="21.5" cy="5.5" rx="6" ry="1.5"/><path id="_Path_" data-name="&lt;Path&gt;" class="cls-2" d="M39.39,30.44h0A20,20,0,0,1,31.2,39l-1.12-2.62-.55-1.29a7.39,7.39,0,0,1,.16-5.86,5.71,5.71,0,0,1,3.9-3.32,4.46,4.46,0,0,1,4.62,1.69A4.89,4.89,0,0,1,39,29.07Z"/><ellipse id="_Ellipse_3" data-name="&lt;Ellipse&gt;" class="cls-4" cx="21.5" cy="45.5" rx="16" ry="1.5"/><circle id="_Ellipse_4" data-name="&lt;Ellipse&gt;" class="cls-5" cx="21.5" cy="21.5" r="20"/><g id="_Group_2" data-name="&lt;Group&gt;"><path id="_Path_2" data-name="&lt;Path&gt;" class="cls-6" d="M46,29.88A4.64,4.64,0,0,1,46.06,34a6,6,0,0,1-3.45,3.22L34.36,40,31,32a6,6,0,0,1,.12-4.72,4.65,4.65,0,0,1,3.15-2.68,3.65,3.65,0,0,1,4.34,2.57l.64,2.06,2-.89A3.65,3.65,0,0,1,46,29.88Z"/><path id="_Path_3" data-name="&lt;Path&gt;" class="cls-7" d="M32.51,28.41A3.64,3.64,0,0,1,36.85,31L37.49,33l2-.89a3.64,3.64,0,0,1,4.8,1.55,4.3,4.3,0,0,1,.52,2.15A6.27,6.27,0,0,0,46.06,34,4.64,4.64,0,0,0,46,29.88a3.65,3.65,0,0,0-4.8-1.55l-2,.89-.64-2.06a3.65,3.65,0,0,0-4.34-2.57,4.65,4.65,0,0,0-3.15,2.68,6,6,0,0,0-.52,2.19A4.22,4.22,0,0,1,32.51,28.41Z"/><path id="_Path_4" data-name="&lt;Path&gt;" class="cls-5" d="M46,29.88A4.64,4.64,0,0,1,46.06,34a6,6,0,0,1-3.45,3.22L34.36,40,31,32a6,6,0,0,1,.12-4.72,4.65,4.65,0,0,1,3.15-2.68,3.65,3.65,0,0,1,4.34,2.57l.64,2.06,2-.89A3.65,3.65,0,0,1,46,29.88Z"/></g><g id="_Group_3" data-name="&lt;Group&gt;"><g id="_Group_4" data-name="&lt;Group&gt;"><path id="_Path_5" data-name="&lt;Path&gt;" class="cls-5" d="M21.51,28.27a2,2,0,0,1,1-.27,2,2,0,1,1,0,4,2,2,0,1,1,0,4,2,2,0,0,1-1-.27"/></g></g><path id="_Path_6" data-name="&lt;Path&gt;" class="cls-8" d="M7,26.5C7,27.33,8.12,28,9.5,28s2.5-.67,2.5-1.5S10.88,25,9.5,25,7,25.67,7,26.5Z"/><path id="_Path_7" data-name="&lt;Path&gt;" class="cls-5" d="M35.5,20.5a1.75,1.75,0,0,1-3.5,0"/><path id="_Path_8" data-name="&lt;Path&gt;" class="cls-5" d="M11,20.5a1.75,1.75,0,0,1-3.5,0"/></g></svg>