<svg id="Icons" xmlns="http://www.w3.org/2000/svg" viewBox="0 0 48 48"><defs><style>.cls-1,.cls-7{fill:#45413c;}.cls-1{opacity:0.15;}.cls-2{fill:#ffe500;}.cls-3{fill:#ebcb00;}.cls-4{fill:#fff48c;}.cls-5{fill:none;}.cls-5,.cls-7{stroke:#45413c;stroke-linecap:round;stroke-linejoin:round;}.cls-6{fill:#ffaa54;}</style></defs><title>22-face-with-raised-eyebrow</title><g id="_Group_" data-name="&lt;Group&gt;"><ellipse id="_Ellipse_" data-name="&lt;Ellipse&gt;" class="cls-1" cx="24" cy="45.5" rx="16" ry="1.5"/><circle id="_Ellipse_2" data-name="&lt;Ellipse&gt;" class="cls-2" cx="24" cy="21.5" r="20"/><path id="_Compound_Path_" data-name="&lt;Compound Path&gt;" class="cls-3" d="M24,1.5a20,20,0,1,0,20,20A20,20,0,0,0,24,1.5Zm0,37A18.25,18.25,0,1,1,42.25,20.25,18.25,18.25,0,0,1,24,38.5Z"/><ellipse id="_Ellipse_3" data-name="&lt;Ellipse&gt;" class="cls-4" cx="24" cy="5.5" rx="6" ry="1.5"/><circle id="_Ellipse_4" data-name="&lt;Ellipse&gt;" class="cls-5" cx="24" cy="21.5" r="20"/><path id="_Path_" data-name="&lt;Path&gt;" class="cls-6" d="M38.5,26.5c0,.83-1.12,1.5-2.5,1.5s-2.5-.67-2.5-1.5S34.62,25,36,25,38.5,25.67,38.5,26.5Z"/><path id="_Path_2" data-name="&lt;Path&gt;" class="cls-6" d="M9.5,26.5c0,.83,1.12,1.5,2.5,1.5s2.5-.67,2.5-1.5S13.38,25,12,25,9.5,25.67,9.5,26.5Z"/><path id="_Path_3" data-name="&lt;Path&gt;" class="cls-7" d="M14.5,20.5a1,1,0,1,1-1-1A1,1,0,0,1,14.5,20.5Z"/><path id="_Path_4" data-name="&lt;Path&gt;" class="cls-7" d="M33.5,19.5c0,.83.45,1.5,1,1.5s1-.67,1-1.5-.45-1.5-1-1.5S33.5,18.67,33.5,19.5Z"/><line id="_Path_5" data-name="&lt;Path&gt;" class="cls-5" x1="18.5" y1="27.5" x2="29.5" y2="27.5"/><path id="_Path_6" data-name="&lt;Path&gt;" class="cls-5" d="M31.83,14.5a3.14,3.14,0,0,1,2.67-2,3.14,3.14,0,0,1,2.67,2"/><path id="_Path_7" data-name="&lt;Path&gt;" class="cls-5" d="M10.57,17.08a6.23,6.23,0,0,0,2.89.92,6.31,6.31,0,0,0,3.05-.07"/></g></svg>