<svg id="Icons" xmlns="http://www.w3.org/2000/svg" viewBox="0 0 48 48"><defs><style>.cls-1{fill:#ffe500;}.cls-2{fill:#ebcb00;}.cls-3{fill:#fff48c;}.cls-4{fill:#45413c;opacity:0.15;}.cls-5{fill:none;}.cls-5,.cls-6,.cls-7{stroke:#45413c;stroke-linecap:round;stroke-linejoin:round;}.cls-6{fill:#fff;}.cls-7{fill:#ffb0ca;}.cls-8{fill:#ffaa54;}</style></defs><title>32-hushed-face-2</title><g id="_Group_" data-name="&lt;Group&gt;"><circle id="_Ellipse_" data-name="&lt;Ellipse&gt;" class="cls-1" cx="24" cy="21.5" r="20"/><path id="_Compound_Path_" data-name="&lt;Compound Path&gt;" class="cls-2" d="M24,1.5a20,20,0,1,0,20,20A20,20,0,0,0,24,1.5Zm0,37A18.25,18.25,0,1,1,42.25,20.25,18.25,18.25,0,0,1,24,38.5Z"/><ellipse id="_Ellipse_2" data-name="&lt;Ellipse&gt;" class="cls-3" cx="24" cy="5.5" rx="6" ry="1.5"/><ellipse id="_Ellipse_3" data-name="&lt;Ellipse&gt;" class="cls-4" cx="24" cy="45.5" rx="16" ry="1.5"/><circle id="_Ellipse_4" data-name="&lt;Ellipse&gt;" class="cls-5" cx="24" cy="21.5" r="20"/><path id="_Path_" data-name="&lt;Path&gt;" class="cls-6" d="M18.5,20A3.5,3.5,0,1,1,15,16.5,3.5,3.5,0,0,1,18.5,20Z"/><path id="_Path_2" data-name="&lt;Path&gt;" class="cls-6" d="M36.5,20A3.5,3.5,0,1,1,33,16.5,3.5,3.5,0,0,1,36.5,20Z"/><path id="_Path_3" data-name="&lt;Path&gt;" class="cls-7" d="M25.5,32.5A1.5,1.5,0,1,1,24,31,1.5,1.5,0,0,1,25.5,32.5Z"/><path id="_Path_4" data-name="&lt;Path&gt;" class="cls-8" d="M39,26.5c0,.83-1.12,1.5-2.5,1.5S34,27.33,34,26.5,35.12,25,36.5,25,39,25.67,39,26.5Z"/><path id="_Path_5" data-name="&lt;Path&gt;" class="cls-8" d="M10,26.5c0,.83,1.12,1.5,2.5,1.5s2.5-.67,2.5-1.5S13.88,25,12.5,25,10,25.67,10,26.5Z"/></g></svg>