<svg id="Icons" xmlns="http://www.w3.org/2000/svg" viewBox="0 0 48 48"><defs><style>.cls-1{fill:#ffe500;}.cls-2{fill:#ebcb00;}.cls-3{fill:#fff48c;}.cls-4{fill:none;}.cls-10,.cls-4,.cls-7{stroke:#45413c;stroke-linecap:round;stroke-linejoin:round;}.cls-10,.cls-5{fill:#45413c;}.cls-5{opacity:0.15;}.cls-6{fill:#ffaa54;}.cls-7{fill:#ffb0ca;}.cls-8{fill:#ff6242;}.cls-9{fill:#ff866e;}</style></defs><title>39-squinting-face-with-tongue</title><g id="_Group_" data-name="&lt;Group&gt;"><circle id="_Ellipse_" data-name="&lt;Ellipse&gt;" class="cls-1" cx="24" cy="21.5" r="20"/><path id="_Compound_Path_" data-name="&lt;Compound Path&gt;" class="cls-2" d="M24,1.5a20,20,0,1,0,20,20A20,20,0,0,0,24,1.5Zm0,37A18.25,18.25,0,1,1,42.25,20.25,18.25,18.25,0,0,1,24,38.5Z"/><ellipse id="_Ellipse_2" data-name="&lt;Ellipse&gt;" class="cls-3" cx="24" cy="5.5" rx="6" ry="1.5"/><circle id="_Ellipse_3" data-name="&lt;Ellipse&gt;" class="cls-4" cx="24" cy="21.5" r="20"/><ellipse id="_Ellipse_4" data-name="&lt;Ellipse&gt;" class="cls-5" cx="24" cy="45.5" rx="16" ry="1.5"/><path id="_Path_" data-name="&lt;Path&gt;" class="cls-6" d="M40,26.5c0,.83-1.12,1.5-2.5,1.5S35,27.33,35,26.5,36.12,25,37.5,25,40,25.67,40,26.5Z"/><path id="_Path_2" data-name="&lt;Path&gt;" class="cls-6" d="M8,26.5c0,.83,1.12,1.5,2.5,1.5s2.5-.67,2.5-1.5S11.88,25,10.5,25,8,25.67,8,26.5Z"/><g id="_Group_2" data-name="&lt;Group&gt;"><path id="_Path_3" data-name="&lt;Path&gt;" class="cls-7" d="M16.47,27.93c.5,8,5.09,11,6.85,12a1.37,1.37,0,0,0,1.36,0c1.76-1,6.35-3.92,6.85-12a1.37,1.37,0,0,0-1.38-1.45H17.85A1.37,1.37,0,0,0,16.47,27.93Z"/></g><g id="_Group_3" data-name="&lt;Group&gt;"><path id="_Path_4" data-name="&lt;Path&gt;" class="cls-8" d="M24,33c0-1.5,4.5-1.06,4.5.5V40a4.5,4.5,0,0,1-9,0V33.5C19.5,31.94,24,31.5,24,33Z"/><path id="_Path_5" data-name="&lt;Path&gt;" class="cls-9" d="M24,33c0-1.5-4.5-1.06-4.5.5v2c0-1.56,9-1.56,9,0v-2C28.5,31.94,24,31.5,24,33Z"/><path id="_Path_6" data-name="&lt;Path&gt;" class="cls-4" d="M24,33c0-1.5,4.5-1.06,4.5.5V40a4.5,4.5,0,0,1-9,0V33.5C19.5,31.94,24,31.5,24,33Z"/></g><path id="_Path_7" data-name="&lt;Path&gt;" class="cls-10" d="M35,21a1,1,0,1,0,1-1A1,1,0,0,0,35,21Z"/><path id="_Path_8" data-name="&lt;Path&gt;" class="cls-4" d="M9.5,21.5a1.75,1.75,0,0,1,3.5,0"/></g></svg>