<svg id="Icons" xmlns="http://www.w3.org/2000/svg" viewBox="0 0 48 48"><defs><style>.cls-1,.cls-7{fill:#45413c;}.cls-1{opacity:0.15;}.cls-2{fill:#ffe500;}.cls-3{fill:#ebcb00;}.cls-4{fill:#fff48c;}.cls-5{fill:none;}.cls-5,.cls-7,.cls-8,.cls-9{stroke:#45413c;stroke-linecap:round;stroke-linejoin:round;}.cls-6{fill:#ffaa54;}.cls-8{fill:#ff866e;}.cls-9{fill:#e5feff;}</style></defs><title>42-drooling-face-2</title><g id="_Group_" data-name="&lt;Group&gt;"><ellipse id="_Ellipse_" data-name="&lt;Ellipse&gt;" class="cls-1" cx="24" cy="45.5" rx="16" ry="1.5"/><circle id="_Ellipse_2" data-name="&lt;Ellipse&gt;" class="cls-2" cx="24" cy="21.5" r="20"/><path id="_Compound_Path_" data-name="&lt;Compound Path&gt;" class="cls-3" d="M24,1.5a20,20,0,1,0,20,20A20,20,0,0,0,24,1.5Zm0,37A18.25,18.25,0,1,1,42.25,20.25,18.25,18.25,0,0,1,24,38.5Z"/><ellipse id="_Ellipse_3" data-name="&lt;Ellipse&gt;" class="cls-4" cx="24" cy="5.5" rx="6" ry="1.5"/><circle id="_Ellipse_4" data-name="&lt;Ellipse&gt;" class="cls-5" cx="24" cy="21.5" r="20"/><path id="_Path_" data-name="&lt;Path&gt;" class="cls-6" d="M38.5,26.5c0,.83-1.12,1.5-2.5,1.5s-2.5-.67-2.5-1.5S34.62,25,36,25,38.5,25.67,38.5,26.5Z"/><path id="_Path_2" data-name="&lt;Path&gt;" class="cls-6" d="M9.5,26.5c0,.83,1.12,1.5,2.5,1.5s2.5-.67,2.5-1.5S13.38,25,12,25,9.5,25.67,9.5,26.5Z"/><path id="_Path_3" data-name="&lt;Path&gt;" class="cls-7" d="M14.5,20.5a1,1,0,1,1-1-1A1,1,0,0,1,14.5,20.5Z"/><path id="_Path_4" data-name="&lt;Path&gt;" class="cls-7" d="M33.5,20.5a1,1,0,1,0,1-1A1,1,0,0,0,33.5,20.5Z"/><g id="_Group_2" data-name="&lt;Group&gt;"><g id="_Group_3" data-name="&lt;Group&gt;"><g id="_Group_4" data-name="&lt;Group&gt;"><path id="_Path_5" data-name="&lt;Path&gt;" class="cls-8" d="M30.06,35a.91.91,0,0,0,.71-.34,1,1,0,0,0,.22-.78c-.53-2.8-3.45-4.38-7-4.38s-6.42,1.5-7,4.38a1,1,0,0,0,.22.78.91.91,0,0,0,.71.34A23.28,23.28,0,0,1,30.06,35Z"/></g></g></g><path id="_Path_6" data-name="&lt;Path&gt;" class="cls-9" d="M30.29,35l-1.68,6.79A3.87,3.87,0,0,0,29,44.67h0a1.41,1.41,0,0,0,2.54,0h0A3.87,3.87,0,0,0,32,41.79Z"/><path id="_Path_7" data-name="&lt;Path&gt;" class="cls-5" d="M9.5,15a6,6,0,0,1,4-1.5,5.06,5.06,0,0,1,3.5,1"/><path id="_Path_8" data-name="&lt;Path&gt;" class="cls-5" d="M38.5,17.5a6,6,0,0,0-4-1.5A5.06,5.06,0,0,0,31,17"/></g></svg>