<svg id="Icons" xmlns="http://www.w3.org/2000/svg" viewBox="0 0 48 48"><defs><style>.cls-1{fill:#ffe500;}.cls-2{fill:#ebcb00;}.cls-3{fill:#fff48c;}.cls-4,.cls-6{fill:#45413c;}.cls-4{opacity:0.15;}.cls-5{fill:none;}.cls-5,.cls-6{stroke:#45413c;stroke-linecap:round;stroke-linejoin:round;}.cls-7{fill:#ffaa54;}</style></defs><title>43-unamused-face</title><g id="_Group_" data-name="&lt;Group&gt;"><circle id="_Ellipse_" data-name="&lt;Ellipse&gt;" class="cls-1" cx="24" cy="21.5" r="20"/><path id="_Compound_Path_" data-name="&lt;Compound Path&gt;" class="cls-2" d="M24,1.5a20,20,0,1,0,20,20A20,20,0,0,0,24,1.5Zm0,37A18.25,18.25,0,1,1,42.25,20.25,18.25,18.25,0,0,1,24,38.5Z"/><ellipse id="_Ellipse_2" data-name="&lt;Ellipse&gt;" class="cls-3" cx="24" cy="5.5" rx="6" ry="1.5"/><ellipse id="_Ellipse_3" data-name="&lt;Ellipse&gt;" class="cls-4" cx="24" cy="45.5" rx="16" ry="1.5"/><circle id="_Ellipse_4" data-name="&lt;Ellipse&gt;" class="cls-5" cx="24" cy="21.5" r="20"/><line id="_Line_" data-name="&lt;Line&gt;" class="cls-5" x1="21.5" y1="31.5" x2="31.5" y2="31.5"/><path id="_Path_" data-name="&lt;Path&gt;" class="cls-5" d="M13.25,17.16A11.65,11.65,0,0,0,19.5,14"/><path id="_Path_2" data-name="&lt;Path&gt;" class="cls-5" d="M34.75,17.16A11.65,11.65,0,0,1,28.5,14"/><path id="_Path_3" data-name="&lt;Path&gt;" class="cls-6" d="M16,22.07a1.08,1.08,0,1,1-2.15,0C13.85,21.55,11,21,11,21h3.93A1.07,1.07,0,0,1,16,22.07Z"/><path id="_Path_4" data-name="&lt;Path&gt;" class="cls-6" d="M34,22.07a1.08,1.08,0,1,1-2.15,0C31.88,21.55,29,21,29,21H33A1.07,1.07,0,0,1,34,22.07Z"/><path id="_Path_5" data-name="&lt;Path&gt;" class="cls-7" d="M38,29c0,.83-1.12,1.5-2.5,1.5S33,29.83,33,29s1.12-1.5,2.5-1.5S38,28.17,38,29Z"/><path id="_Path_6" data-name="&lt;Path&gt;" class="cls-7" d="M10,29c0,.83,1.12,1.5,2.5,1.5S15,29.83,15,29s-1.12-1.5-2.5-1.5S10,28.17,10,29Z"/></g></svg>