<svg id="Icons" xmlns="http://www.w3.org/2000/svg" viewBox="0 0 48 48"><defs><style>.cls-1{fill:#ffe500;}.cls-2{fill:#ebcb00;}.cls-3{fill:#fff48c;}.cls-4{fill:none;stroke:#45413c;stroke-linecap:round;stroke-linejoin:round;}.cls-5{fill:#45413c;opacity:0.15;}.cls-6{fill:#ffaa54;}</style></defs><title>45-pensive-face</title><g id="_Group_" data-name="&lt;Group&gt;"><circle id="_Ellipse_" data-name="&lt;Ellipse&gt;" class="cls-1" cx="24" cy="21.5" r="20"/><path id="_Compound_Path_" data-name="&lt;Compound Path&gt;" class="cls-2" d="M24,1.5a20,20,0,1,0,20,20A20,20,0,0,0,24,1.5Zm0,37A18.25,18.25,0,1,1,42.25,20.25,18.25,18.25,0,0,1,24,38.5Z"/><ellipse id="_Ellipse_2" data-name="&lt;Ellipse&gt;" class="cls-3" cx="24" cy="5.5" rx="6" ry="1.5"/><circle id="_Ellipse_3" data-name="&lt;Ellipse&gt;" class="cls-4" cx="24" cy="21.5" r="20"/><ellipse id="_Ellipse_4" data-name="&lt;Ellipse&gt;" class="cls-5" cx="24" cy="45" rx="16" ry="1.5"/><path id="_Path_" data-name="&lt;Path&gt;" class="cls-4" d="M13,16.16a11.43,11.43,0,0,0,3.37-1.1A11.18,11.18,0,0,0,19.25,13"/><path id="_Path_2" data-name="&lt;Path&gt;" class="cls-4" d="M35,16.16a11.43,11.43,0,0,1-3.37-1.1A11.18,11.18,0,0,1,28.75,13"/><path id="_Path_3" data-name="&lt;Path&gt;" class="cls-6" d="M38.5,26.5c0,.83-1.12,1.5-2.5,1.5s-2.5-.67-2.5-1.5S34.62,25,36,25,38.5,25.67,38.5,26.5Z"/><path id="_Path_4" data-name="&lt;Path&gt;" class="cls-6" d="M9.5,26.5c0,.83,1.12,1.5,2.5,1.5s2.5-.67,2.5-1.5S13.38,25,12,25,9.5,25.67,9.5,26.5Z"/><path id="_Path_5" data-name="&lt;Path&gt;" class="cls-4" d="M38,20.5a1.75,1.75,0,0,1-3.5,0"/><path id="_Path_6" data-name="&lt;Path&gt;" class="cls-4" d="M13.5,20.5a1.75,1.75,0,0,1-3.5,0"/><line id="_Line_" data-name="&lt;Line&gt;" class="cls-4" x1="19" y1="31" x2="29" y2="31"/></g></svg>