<svg id="Icons" xmlns="http://www.w3.org/2000/svg" viewBox="0 0 48 48"><defs><style>.cls-1{fill:#45413c;opacity:0.15;}.cls-2{fill:#ffe500;}.cls-3{fill:#ebcb00;}.cls-12,.cls-4{fill:none;}.cls-12,.cls-4,.cls-6,.cls-9{stroke:#45413c;stroke-linejoin:round;}.cls-4,.cls-6,.cls-9{stroke-linecap:round;}.cls-5{fill:#ffaa54;}.cls-6{fill:#ffb0ca;}.cls-7{fill:#ff6242;}.cls-8{fill:#ff866e;}.cls-9{fill:#4aeff7;}.cls-10{fill:#fffacf;}.cls-11{fill:#fff;}</style></defs><title>49-money-mouth-face-2</title><g id="_Group_" data-name="&lt;Group&gt;"><ellipse id="_Ellipse_" data-name="&lt;Ellipse&gt;" class="cls-1" cx="24" cy="45.31" rx="12.38" ry="1.69"/><circle id="_Ellipse_2" data-name="&lt;Ellipse&gt;" class="cls-2" cx="24" cy="17.86" r="16.36"/><path id="_Compound_Path_" data-name="&lt;Compound Path&gt;" class="cls-3" d="M24,1.5A16.37,16.37,0,1,0,40.36,17.86,16.36,16.36,0,0,0,24,1.5Zm0,30.27A14.93,14.93,0,1,1,38.93,16.84,14.92,14.92,0,0,1,24,31.77Z"/><circle id="_Ellipse_3" data-name="&lt;Ellipse&gt;" class="cls-4" cx="24" cy="17.86" r="16.36"/><path id="_Path_" data-name="&lt;Path&gt;" class="cls-5" d="M37.09,22c0,.68-.91,1.23-2,1.23s-2-.55-2-1.23.92-1.22,2-1.22S37.09,21.28,37.09,22Z"/><path id="_Path_2" data-name="&lt;Path&gt;" class="cls-5" d="M10.91,22c0,.68.91,1.23,2,1.23S15,22.63,15,22s-.92-1.22-2.05-1.22S10.91,21.28,10.91,22Z"/><g id="_Group_2" data-name="&lt;Group&gt;"><path id="_Path_3" data-name="&lt;Path&gt;" class="cls-6" d="M17.84,22.8c.41,6.58,4.16,9.31,5.6,10.12a1.17,1.17,0,0,0,1.12,0c1.44-.81,5.19-3.54,5.6-10.12A1.12,1.12,0,0,0,29,21.61H19A1.12,1.12,0,0,0,17.84,22.8Z"/></g><g id="_Group_3" data-name="&lt;Group&gt;"><path id="_Path_4" data-name="&lt;Path&gt;" class="cls-7" d="M24,27.27c0-1.22,3.68-.86,3.68.41V33a3.68,3.68,0,0,1-7.36,0V27.68C20.32,26.41,24,26.05,24,27.27Z"/><path id="_Path_5" data-name="&lt;Path&gt;" class="cls-8" d="M24,27.27c0-1.22-3.68-.86-3.68.41v1.64c0-1.28,7.36-1.28,7.36,0V27.68C27.68,26.41,24,26.05,24,27.27Z"/><path id="_Path_6" data-name="&lt;Path&gt;" class="cls-4" d="M24,27.27c0-1.22,3.68-.86,3.68.41V33a3.68,3.68,0,0,1-7.36,0V27.68C20.32,26.41,24,26.05,24,27.27Z"/></g><path id="_Path_7" data-name="&lt;Path&gt;" class="cls-9" d="M28.34,41a1.65,1.65,0,1,1-3.27,0c0-1.45,1.63-3.44,1.63-3.44S28.34,39.57,28.34,41Z"/><g id="_Group_4" data-name="&lt;Group&gt;"><g id="_Group_5" data-name="&lt;Group&gt;"><path id="_Path_8" data-name="&lt;Path&gt;" class="cls-1" d="M30.23,2.73A9.2,9.2,0,1,0,40.36,17.78,16.36,16.36,0,0,0,30.23,2.73Z"/><g id="_Group_6" data-name="&lt;Group&gt;"><path id="_Path_9" data-name="&lt;Path&gt;" class="cls-10" d="M42,9.58a8.49,8.49,0,1,1-8.49-8.49A8.49,8.49,0,0,1,42,9.58Z"/><path id="_Path_10" data-name="&lt;Path&gt;" class="cls-2" d="M33.51,16.47a8.49,8.49,0,0,1-8.45-7.69c0,.27,0,.53,0,.8a8.49,8.49,0,0,0,17,0c0-.27,0-.53,0-.8A8.48,8.48,0,0,1,33.51,16.47Z"/><path id="_Path_11" data-name="&lt;Path&gt;" class="cls-11" d="M33.51,3.74a8.49,8.49,0,0,1,8.38,7.16A9.53,9.53,0,0,0,42,9.58a8.49,8.49,0,0,0-17,0,8.2,8.2,0,0,0,.12,1.32A8.49,8.49,0,0,1,33.51,3.74Z"/><path id="_Path_12" data-name="&lt;Path&gt;" class="cls-12" d="M42,9.58a8.49,8.49,0,1,1-8.49-8.49A8.49,8.49,0,0,1,42,9.58Z"/></g></g><g id="_Group_7" data-name="&lt;Group&gt;"><line id="_Path_13" data-name="&lt;Path&gt;" class="cls-4" x1="33.51" y1="4.51" x2="33.51" y2="14.65"/><path id="_Path_14" data-name="&lt;Path&gt;" class="cls-4" d="M31.48,11.61a2,2,0,1,0,2-2,2,2,0,1,1,2-2"/></g></g><g id="_Group_8" data-name="&lt;Group&gt;"><path id="_Path_15" data-name="&lt;Path&gt;" class="cls-1" d="M17.77,2.73A9.2,9.2,0,1,1,7.64,17.78,16.36,16.36,0,0,1,17.77,2.73Z"/><g id="_Group_9" data-name="&lt;Group&gt;"><path id="_Path_16" data-name="&lt;Path&gt;" class="cls-10" d="M6,9.58a8.49,8.49,0,1,0,8.49-8.49A8.49,8.49,0,0,0,6,9.58Z"/><path id="_Path_17" data-name="&lt;Path&gt;" class="cls-2" d="M14.49,16.47a8.49,8.49,0,0,0,8.45-7.69c0,.27,0,.53,0,.8a8.49,8.49,0,0,1-17,0c0-.27,0-.53,0-.8A8.48,8.48,0,0,0,14.49,16.47Z"/><path id="_Path_18" data-name="&lt;Path&gt;" class="cls-11" d="M14.49,3.74A8.49,8.49,0,0,0,6.11,10.9,9.53,9.53,0,0,1,6,9.58a8.49,8.49,0,0,1,17,0,8.2,8.2,0,0,1-.12,1.32A8.49,8.49,0,0,0,14.49,3.74Z"/><path id="_Path_19" data-name="&lt;Path&gt;" class="cls-12" d="M6,9.58a8.49,8.49,0,1,0,8.49-8.49A8.49,8.49,0,0,0,6,9.58Z"/></g></g><g id="_Group_10" data-name="&lt;Group&gt;"><line id="_Path_20" data-name="&lt;Path&gt;" class="cls-4" x1="14.57" y1="4.51" x2="14.57" y2="14.65"/><path id="_Path_21" data-name="&lt;Path&gt;" class="cls-4" d="M12.55,11.61a2,2,0,1,0,2-2,2,2,0,1,1,2-2"/></g></g></svg>