<svg id="Icons" xmlns="http://www.w3.org/2000/svg" viewBox="0 0 48 48"><defs><style>.cls-1{fill:#ffe500;}.cls-2{fill:#ebcb00;}.cls-3{fill:#fff48c;}.cls-4,.cls-5{fill:none;}.cls-4,.cls-5,.cls-7{stroke:#45413c;stroke-linecap:round;}.cls-4,.cls-7{stroke-linejoin:round;}.cls-5{stroke-miterlimit:10;}.cls-6,.cls-7{fill:#45413c;}.cls-6{opacity:0.15;}.cls-8{fill:#ffaa54;}.cls-9{fill:#00b8f0;}.cls-10{fill:#4acfff;}</style></defs><title>56-crying-face</title><g id="_Group_" data-name="&lt;Group&gt;"><circle id="_Ellipse_" data-name="&lt;Ellipse&gt;" class="cls-1" cx="24" cy="21.5" r="20"/><path id="_Compound_Path_" data-name="&lt;Compound Path&gt;" class="cls-2" d="M24,1.5a20,20,0,1,0,20,20A20,20,0,0,0,24,1.5Zm0,37A18.25,18.25,0,1,1,42.25,20.25,18.25,18.25,0,0,1,24,38.5Z"/><ellipse id="_Ellipse_2" data-name="&lt;Ellipse&gt;" class="cls-3" cx="24" cy="5.5" rx="6" ry="1.5"/><circle id="_Ellipse_3" data-name="&lt;Ellipse&gt;" class="cls-4" cx="24" cy="21.5" r="20"/><path id="_Path_" data-name="&lt;Path&gt;" class="cls-5" d="M19,31.5a9,9,0,0,1,10,0"/><ellipse id="_Ellipse_4" data-name="&lt;Ellipse&gt;" class="cls-6" cx="24" cy="45.5" rx="16" ry="1.5"/><path id="_Path_2" data-name="&lt;Path&gt;" class="cls-7" d="M15,21.5a1,1,0,1,1-1-1A1,1,0,0,1,15,21.5Z"/><path id="_Path_3" data-name="&lt;Path&gt;" class="cls-7" d="M33,21.5a1,1,0,1,0,1-1A1,1,0,0,0,33,21.5Z"/><path id="_Path_4" data-name="&lt;Path&gt;" class="cls-8" d="M38.5,26.5c0,.83-1.12,1.5-2.5,1.5s-2.5-.67-2.5-1.5S34.62,25,36,25,38.5,25.67,38.5,26.5Z"/><path id="_Path_5" data-name="&lt;Path&gt;" class="cls-8" d="M9.5,26.5c0,.83,1.12,1.5,2.5,1.5s2.5-.67,2.5-1.5S13.38,25,12,25,9.5,25.67,9.5,26.5Z"/><path id="_Path_6" data-name="&lt;Path&gt;" class="cls-4" d="M8.7,20.93a7,7,0,0,1,5.39-5.23,6.92,6.92,0,0,1,3,0"/><path id="_Path_7" data-name="&lt;Path&gt;" class="cls-4" d="M39.3,20.93a7,7,0,0,0-5.39-5.23,6.92,6.92,0,0,0-3,0"/><g id="_Group_2" data-name="&lt;Group&gt;"><path id="_Path_8" data-name="&lt;Path&gt;" class="cls-9" d="M37.89,40.28c-3.65-1.6.85-5.6.35-8.35C42.38,34.51,41.53,41.87,37.89,40.28Z"/><path id="_Path_9" data-name="&lt;Path&gt;" class="cls-10" d="M38.24,31.93a1.2,1.2,0,0,1,0,.2c2.68,3.06,1.7,8.62-1.46,7.36a2.61,2.61,0,0,0,1.08.79C41.53,41.87,42.38,34.51,38.24,31.93Z"/><path id="_Path_10" data-name="&lt;Path&gt;" class="cls-4" d="M37.89,40.28c-3.65-1.6.85-5.6.35-8.35C42.38,34.51,41.53,41.87,37.89,40.28Z"/></g><g id="_Group_3" data-name="&lt;Group&gt;"><path id="_Path_11" data-name="&lt;Path&gt;" class="cls-9" d="M37.71,29.81c-2.75-.58-.22-4-1-5.81C40,25.19,40.45,30.39,37.71,29.81Z"/><path id="_Path_12" data-name="&lt;Path&gt;" class="cls-10" d="M36.76,24s0,.09,0,.14c2.29,1.72,2.41,5.7.05,5.28a1.81,1.81,0,0,0,.86.39C40.45,30.39,40,25.19,36.76,24Z"/><path id="_Path_13" data-name="&lt;Path&gt;" class="cls-4" d="M37.71,29.81c-2.75-.58-.22-4-1-5.81C40,25.19,40.45,30.39,37.71,29.81Z"/></g><g id="_Group_4" data-name="&lt;Group&gt;"><path id="_Path_14" data-name="&lt;Path&gt;" class="cls-9" d="M10.29,29.81c2.75-.58.22-4,1-5.81C8,25.19,7.55,30.39,10.29,29.81Z"/><path id="_Path_15" data-name="&lt;Path&gt;" class="cls-10" d="M11.24,24s0,.09,0,.14c-2.29,1.72-2.41,5.7,0,5.28a1.81,1.81,0,0,1-.86.39C7.55,30.39,8,25.19,11.24,24Z"/><path id="_Path_16" data-name="&lt;Path&gt;" class="cls-4" d="M10.29,29.81c2.75-.58.22-4,1-5.81C8,25.19,7.55,30.39,10.29,29.81Z"/></g></g></svg>