<svg id="Icons" xmlns="http://www.w3.org/2000/svg" viewBox="0 0 48 48"><defs><style>.cls-1{fill:#45413c;opacity:0.15;}.cls-2{fill:#ffe500;}.cls-3{fill:#ebcb00;}.cls-4{fill:#fff48c;}.cls-5{fill:none;}.cls-5,.cls-6,.cls-7,.cls-8{stroke:#45413c;stroke-linecap:round;stroke-linejoin:round;}.cls-6{fill:#ffb0ca;}.cls-7{fill:#ff87af;}.cls-8{fill:#4aeff7;}</style></defs><title>57-loudly-crying-face</title><g id="_Group_" data-name="&lt;Group&gt;"><ellipse id="_Ellipse_" data-name="&lt;Ellipse&gt;" class="cls-1" cx="24" cy="45.5" rx="16" ry="1.5"/><circle id="_Ellipse_2" data-name="&lt;Ellipse&gt;" class="cls-2" cx="24" cy="21.5" r="20"/><path id="_Compound_Path_" data-name="&lt;Compound Path&gt;" class="cls-3" d="M24,1.5a20,20,0,1,0,20,20A20,20,0,0,0,24,1.5Zm0,37A18.25,18.25,0,1,1,42.25,20.25,18.25,18.25,0,0,1,24,38.5Z"/><ellipse id="_Ellipse_3" data-name="&lt;Ellipse&gt;" class="cls-4" cx="24" cy="5.5" rx="6" ry="1.5"/><line id="_Line_" data-name="&lt;Line&gt;" class="cls-5" x1="17" y1="21.5" x2="8.5" y2="21.5"/><line id="_Line_2" data-name="&lt;Line&gt;" class="cls-5" x1="31" y1="21.5" x2="39.5" y2="21.5"/><g id="_Group_2" data-name="&lt;Group&gt;"><path id="_Path_" data-name="&lt;Path&gt;" class="cls-6" d="M17.94,29.5a.94.94,0,0,0-.71.33,1,1,0,0,0-.22.76,7.09,7.09,0,0,0,14,0,1,1,0,0,0-.22-.76.94.94,0,0,0-.71-.33Z"/><path id="_Path_2" data-name="&lt;Path&gt;" class="cls-7" d="M29.57,33.84A11.37,11.37,0,0,0,24,32.53a11.37,11.37,0,0,0-5.57,1.31,7.16,7.16,0,0,0,11.14,0Z"/></g><path class="cls-8" d="M10.5,36.26a20,20,0,0,0,5,3.35V21.5h-5Z"/><path class="cls-8" d="M37.5,36.26a20,20,0,0,1-5,3.35V21.5h5Z"/><circle id="_Ellipse_4" data-name="&lt;Ellipse&gt;" class="cls-5" cx="24" cy="21.5" r="20"/></g></svg>