<svg id="Icons" xmlns="http://www.w3.org/2000/svg" viewBox="0 0 48 48"><defs><style>.cls-1{fill:#ffe500;}.cls-2{fill:#ebcb00;}.cls-3{fill:#fff48c;}.cls-4{fill:none;}.cls-4,.cls-6,.cls-8,.cls-9{stroke:#45413c;stroke-linecap:round;stroke-linejoin:round;}.cls-5,.cls-6{fill:#45413c;}.cls-5{opacity:0.15;}.cls-7{fill:#ffaa54;}.cls-8{fill:#ffb0ca;}.cls-9{fill:#fff;}</style></defs><title>61-weary-face-2</title><g id="_Group_" data-name="&lt;Group&gt;"><circle id="_Ellipse_" data-name="&lt;Ellipse&gt;" class="cls-1" cx="24" cy="21.5" r="20"/><path id="_Compound_Path_" data-name="&lt;Compound Path&gt;" class="cls-2" d="M24,1.5a20,20,0,1,0,20,20A20,20,0,0,0,24,1.5Zm0,37A18.25,18.25,0,1,1,42.25,20.25,18.25,18.25,0,0,1,24,38.5Z"/><ellipse id="_Ellipse_2" data-name="&lt;Ellipse&gt;" class="cls-3" cx="24" cy="5.5" rx="6" ry="1.5"/><circle id="_Ellipse_3" data-name="&lt;Ellipse&gt;" class="cls-4" cx="24" cy="21.5" r="20"/><ellipse id="_Ellipse_4" data-name="&lt;Ellipse&gt;" class="cls-5" cx="24" cy="45.5" rx="16" ry="1.5"/><path id="_Path_" data-name="&lt;Path&gt;" class="cls-6" d="M15,21.5a1,1,0,1,1-1-1A1,1,0,0,1,15,21.5Z"/><path id="_Path_2" data-name="&lt;Path&gt;" class="cls-4" d="M13,17.16a11.43,11.43,0,0,0,3.37-1.1A11.18,11.18,0,0,0,19.25,14"/><path id="_Path_3" data-name="&lt;Path&gt;" class="cls-6" d="M33,21.5a1,1,0,1,0,1-1A1,1,0,0,0,33,21.5Z"/><path id="_Path_4" data-name="&lt;Path&gt;" class="cls-4" d="M35,17.16a11.43,11.43,0,0,1-3.37-1.1A11.18,11.18,0,0,1,28.75,14"/><path id="_Path_5" data-name="&lt;Path&gt;" class="cls-7" d="M38.5,26.5c0,.83-1.12,1.5-2.5,1.5s-2.5-.67-2.5-1.5S34.62,25,36,25,38.5,25.67,38.5,26.5Z"/><path id="_Path_6" data-name="&lt;Path&gt;" class="cls-7" d="M9.5,26.5c0,.83,1.12,1.5,2.5,1.5s2.5-.67,2.5-1.5S13.38,25,12,25,9.5,25.67,9.5,26.5Z"/><g id="_Group_2" data-name="&lt;Group&gt;"><g id="_Group_3" data-name="&lt;Group&gt;"><path id="_Path_7" data-name="&lt;Path&gt;" class="cls-8" d="M30.06,36a.94.94,0,0,0,.71-.33,1,1,0,0,0,.22-.76,7.09,7.09,0,0,0-14,0,1,1,0,0,0,.22.76.94.94,0,0,0,.71.33Z"/></g></g><path id="_Path_8" data-name="&lt;Path&gt;" class="cls-9" d="M18.57,31.5H29.43a7.15,7.15,0,0,0-10.86,0Z"/></g></svg>