<svg id="Icons" xmlns="http://www.w3.org/2000/svg" viewBox="0 0 48 48"><defs><style>.cls-1,.cls-6{fill:#45413c;}.cls-1{opacity:0.15;}.cls-2{fill:#ffe500;}.cls-3,.cls-9{fill:#ebcb00;}.cls-4{fill:none;}.cls-10,.cls-4,.cls-6,.cls-7,.cls-8,.cls-9{stroke:#45413c;stroke-linecap:round;stroke-linejoin:round;}.cls-5{fill:#ffaa54;}.cls-7{fill:#ff87af;}.cls-11,.cls-8{fill:#f0f0f0;}.cls-10{fill:#bdbec0;}.cls-12{fill:#fff;}</style></defs><title>62-exploding-head</title><g id="_Group_" data-name="&lt;Group&gt;"><ellipse id="_Ellipse_" data-name="&lt;Ellipse&gt;" class="cls-1" cx="24" cy="45" rx="9.5" ry="1.5"/><path class="cls-2" d="M32.75,22.45a.86.86,0,0,1,0,.27c0,1.39-3.94,2.52-8.8,2.52s-8.8-1.13-8.8-2.52a.86.86,0,0,1,.05-.27,11.73,11.73,0,1,0,17.5,0Z"/><path class="cls-3" d="M32.75,22.45a.86.86,0,0,1,0,.27.92.92,0,0,1-.16.49,10.71,10.71,0,1,1-17.28,0,.92.92,0,0,1-.16-.49.86.86,0,0,1,.05-.27,11.73,11.73,0,1,0,17.5,0Z"/><path class="cls-4" d="M32.75,22.45a.86.86,0,0,1,0,.27c0,1.39-3.94,2.52-8.8,2.52s-8.8-1.13-8.8-2.52a.86.86,0,0,1,.05-.27,11.73,11.73,0,1,0,17.5,0Z"/><path id="_Path_" data-name="&lt;Path&gt;" class="cls-5" d="M32.51,33.2c0,.49-.66.88-1.47.88s-1.47-.39-1.47-.88.66-.88,1.47-.88S32.51,32.71,32.51,33.2Z"/><ellipse id="_Ellipse_2" data-name="&lt;Ellipse&gt;" class="cls-5" cx="16.96" cy="33.2" rx="1.47" ry="0.88"/><path id="_Path_2" data-name="&lt;Path&gt;" class="cls-6" d="M19.81,28.21c0,.7-.39,1.26-.88,1.26s-.88-.56-.88-1.26.39-1.26.88-1.26S19.81,27.52,19.81,28.21Z"/><path id="_Path_3" data-name="&lt;Path&gt;" class="cls-6" d="M28.19,28.21c0,.7.39,1.26.88,1.26s.88-.56.88-1.26S29.56,27,29.07,27,28.19,27.52,28.19,28.21Z"/><circle id="_Path_4" data-name="&lt;Path&gt;" class="cls-7" cx="24" cy="35.86" r="2.64"/><circle id="_Path_5" data-name="&lt;Path&gt;" class="cls-8" cx="38.62" cy="19.1" r="1.8"/><path id="_Path_6" data-name="&lt;Path&gt;" class="cls-8" d="M10.5,17.71a1.1,1.1,0,0,0-.91.87,2.27,2.27,0,0,0-1.15-.33,2.24,2.24,0,1,0,2.23,2.24,2.27,2.27,0,0,0-.08-.59,1.06,1.06,0,0,0,.25,0,1.13,1.13,0,0,0,.94-1.28A1.12,1.12,0,0,0,10.5,17.71Z"/><ellipse id="_Path_7" data-name="&lt;Path&gt;" class="cls-9" cx="24" cy="22.72" rx="8.8" ry="2.51"/><path class="cls-10" d="M18.54,24.7a26.1,26.1,0,0,0,5.46.54,26.1,26.1,0,0,0,5.46-.54,11.62,11.62,0,0,1-1.05-4.45,8.8,8.8,0,0,1,.87-4.05H18.72a8.8,8.8,0,0,1,.87,4.05A11.62,11.62,0,0,1,18.54,24.7Z"/><path class="cls-11" d="M34,6.16a2.85,2.85,0,0,0,0-.29,2.94,2.94,0,0,0-2.94-2.94,2.91,2.91,0,0,0-1.18.26,7.13,7.13,0,0,0-11.88,0,2.91,2.91,0,0,0-1.18-.26,2.94,2.94,0,0,0-2.94,2.94,2.85,2.85,0,0,0,0,.29c-2.35,1.12-3.8,2.64-3.8,4.32s1.34,3.06,3.51,4.17a5,5,0,0,0,8.66,2.06A2.46,2.46,0,0,0,24,17.5a2.46,2.46,0,0,0,1.66-.79,5,5,0,0,0,8.66-2.06c2.17-1.11,3.51-2.57,3.51-4.17S36.38,7.28,34,6.16Z"/><path id="_Path_8" data-name="&lt;Path&gt;" class="cls-12" d="M14,9.51a2.85,2.85,0,0,1,0-.29,2.94,2.94,0,0,1,2.94-2.93,2.9,2.9,0,0,1,1.18.25,7.13,7.13,0,0,1,11.88,0,2.9,2.9,0,0,1,1.18-.25,2.94,2.94,0,0,1,2.94,2.93,2.85,2.85,0,0,1,0,.29,7.63,7.63,0,0,1,3.29,2.65,3.2,3.2,0,0,0,.51-1.68c0-1.68-1.45-3.2-3.8-4.32a2.85,2.85,0,0,0,0-.29,2.94,2.94,0,0,0-2.94-2.94,2.91,2.91,0,0,0-1.18.26,7.13,7.13,0,0,0-11.88,0,2.91,2.91,0,0,0-1.18-.26,2.94,2.94,0,0,0-2.94,2.94,2.85,2.85,0,0,0,0,.29c-2.35,1.12-3.8,2.64-3.8,4.32a3.2,3.2,0,0,0,.51,1.68A7.63,7.63,0,0,1,14,9.51Z"/><path class="cls-4" d="M34,6.16a2.85,2.85,0,0,0,0-.29,2.94,2.94,0,0,0-2.94-2.94,2.91,2.91,0,0,0-1.18.26,7.13,7.13,0,0,0-11.88,0,2.91,2.91,0,0,0-1.18-.26,2.94,2.94,0,0,0-2.94,2.94,2.85,2.85,0,0,0,0,.29c-2.35,1.12-3.8,2.64-3.8,4.32s1.34,3.06,3.51,4.17a5,5,0,0,0,8.66,2.06A2.46,2.46,0,0,0,24,17.5a2.46,2.46,0,0,0,1.66-.79,5,5,0,0,0,8.66-2.06c2.17-1.11,3.51-2.57,3.51-4.17S36.38,7.28,34,6.16Z"/><path id="_Path_9" data-name="&lt;Path&gt;" class="cls-8" d="M21.36,25.12a15.33,15.33,0,0,0,1-4.49"/><path id="_Path_10" data-name="&lt;Path&gt;" class="cls-8" d="M26.1,25.18s-.42-.61-.42-2.88"/><line id="_Path_11" data-name="&lt;Path&gt;" class="cls-4" x1="25.66" y1="16.71" x2="25.66" y2="19.37"/></g></svg>