<svg id="Icons" xmlns="http://www.w3.org/2000/svg" viewBox="0 0 48 48"><defs><style>.cls-1{fill:#ffe500;}.cls-2{fill:#ebcb00;}.cls-3{fill:#fff48c;}.cls-4,.cls-8{fill:#45413c;}.cls-4{opacity:0.15;}.cls-5{fill:none;}.cls-5,.cls-7,.cls-8{stroke:#45413c;stroke-linecap:round;stroke-linejoin:round;}.cls-6{fill:#ffaa54;}.cls-7{fill:#fff;}</style></defs><title>63-grimacing-face</title><g id="_Group_" data-name="&lt;Group&gt;"><circle id="_Ellipse_" data-name="&lt;Ellipse&gt;" class="cls-1" cx="24" cy="21.5" r="20"/><path id="_Compound_Path_" data-name="&lt;Compound Path&gt;" class="cls-2" d="M24,1.5a20,20,0,1,0,20,20A20,20,0,0,0,24,1.5Zm0,37A18.25,18.25,0,1,1,42.25,20.25,18.25,18.25,0,0,1,24,38.5Z"/><ellipse id="_Ellipse_2" data-name="&lt;Ellipse&gt;" class="cls-3" cx="24" cy="5.5" rx="6" ry="1.5"/><ellipse id="_Ellipse_3" data-name="&lt;Ellipse&gt;" class="cls-4" cx="24" cy="45.5" rx="16" ry="1.5"/><circle id="_Ellipse_4" data-name="&lt;Ellipse&gt;" class="cls-5" cx="24" cy="21.5" r="20"/><path id="_Path_" data-name="&lt;Path&gt;" class="cls-6" d="M38.5,26.5c0,.83-1.12,1.5-2.5,1.5s-2.5-.67-2.5-1.5S34.62,25,36,25,38.5,25.67,38.5,26.5Z"/><path id="_Path_2" data-name="&lt;Path&gt;" class="cls-6" d="M9.5,26.5c0,.83,1.12,1.5,2.5,1.5s2.5-.67,2.5-1.5S13.38,25,12,25,9.5,25.67,9.5,26.5Z"/><g id="_Group_2" data-name="&lt;Group&gt;"><path id="_Path_3" data-name="&lt;Path&gt;" class="cls-7" d="M24,36.55c9.2,0,10.43-3.84,9.89-7a3.41,3.41,0,0,0-4.56-2.36,16.42,16.42,0,0,1-5.33.84,16.42,16.42,0,0,1-5.33-.84,3.41,3.41,0,0,0-4.56,2.36C13.57,32.71,14.8,36.55,24,36.55Z"/><g id="_Group_3" data-name="&lt;Group&gt;"><path id="_Path_4" data-name="&lt;Path&gt;" class="cls-5" d="M34,30.28a17.08,17.08,0,0,1-4.6,1.36,32.3,32.3,0,0,1-5.38.41,32.3,32.3,0,0,1-5.38-.41A17.08,17.08,0,0,1,14,30.28"/><polyline id="_Path_5" data-name="&lt;Path&gt;" class="cls-5" points="19.27 27.39 18.62 31.64 17.99 35.73"/><line id="_Path_6" data-name="&lt;Path&gt;" class="cls-5" x1="24" y1="36.55" x2="24" y2="28.05"/><polyline id="_Path_7" data-name="&lt;Path&gt;" class="cls-5" points="28.73 27.39 29.38 31.64 30.01 35.73"/></g></g><path id="_Path_8" data-name="&lt;Path&gt;" class="cls-8" d="M14.5,20.5a1,1,0,1,1-1-1A1,1,0,0,1,14.5,20.5Z"/><path id="_Path_9" data-name="&lt;Path&gt;" class="cls-8" d="M33.5,20.5a1,1,0,1,0,1-1A1,1,0,0,0,33.5,20.5Z"/></g></svg>