<svg id="Icons" xmlns="http://www.w3.org/2000/svg" viewBox="0 0 48 48"><defs><style>.cls-1{fill:#45413c;opacity:0.15;}.cls-2{fill:#6dd627;}.cls-3{fill:#46b000;}.cls-4{fill:#9ceb60;}.cls-5,.cls-7,.cls-8{fill:none;stroke-linecap:round;}.cls-5,.cls-7{stroke:#45413c;}.cls-5,.cls-8{stroke-linejoin:round;}.cls-6{fill:#fff48c;}.cls-7{stroke-miterlimit:10;}.cls-8{stroke:#00aed9;}</style></defs><title>73-nauseated-face-1</title><ellipse id="_Ellipse_" data-name="&lt;Ellipse&gt;" class="cls-1" cx="24" cy="45.5" rx="14.27" ry="1.5"/><circle id="_Ellipse_2" data-name="&lt;Ellipse&gt;" class="cls-2" cx="24" cy="24.52" r="17.84"/><path id="_Compound_Path_" data-name="&lt;Compound Path&gt;" class="cls-3" d="M24,6.68A17.85,17.85,0,1,0,41.84,24.52,17.84,17.84,0,0,0,24,6.68Zm0,33A16.28,16.28,0,1,1,40.28,23.41,16.28,16.28,0,0,1,24,39.69Z"/><ellipse id="_Ellipse_3" data-name="&lt;Ellipse&gt;" class="cls-4" cx="24" cy="9.81" rx="5.35" ry="1.34"/><circle id="_Ellipse_4" data-name="&lt;Ellipse&gt;" class="cls-5" cx="24" cy="24.52" r="17.84"/><path id="_Path_" data-name="&lt;Path&gt;" class="cls-5" d="M14.19,19.76a10.37,10.37,0,0,0,5.57-2.82"/><path id="_Path_2" data-name="&lt;Path&gt;" class="cls-5" d="M33.81,19.76a10.37,10.37,0,0,1-5.57-2.82"/><path id="_Path_3" data-name="&lt;Path&gt;" class="cls-6" d="M36.93,29c0,.74-1,1.34-2.23,1.34s-2.23-.6-2.23-1.34,1-1.33,2.23-1.33S36.93,28.25,36.93,29Z"/><path id="_Path_4" data-name="&lt;Path&gt;" class="cls-6" d="M11.07,29c0,.74,1,1.34,2.23,1.34s2.23-.6,2.23-1.34-1-1.33-2.23-1.33S11.07,28.25,11.07,29Z"/><g id="_Group_" data-name="&lt;Group&gt;"><line id="_Line_" data-name="&lt;Line&gt;" class="cls-5" x1="12.85" y1="23.63" x2="16.42" y2="23.63"/><line id="_Line_2" data-name="&lt;Line&gt;" class="cls-5" x1="14.63" y1="21.85" x2="14.63" y2="25.42"/></g><g id="_Group_2" data-name="&lt;Group&gt;"><line id="_Line_3" data-name="&lt;Line&gt;" class="cls-5" x1="35.15" y1="23.63" x2="31.58" y2="23.63"/><line id="_Line_4" data-name="&lt;Line&gt;" class="cls-5" x1="33.37" y1="21.85" x2="33.37" y2="25.42"/></g><path id="_Path_5" data-name="&lt;Path&gt;" class="cls-7" d="M19.54,32.57a8,8,0,0,1,8.92,0"/><path id="_Path_6" data-name="&lt;Path&gt;" class="cls-7" d="M27.69,34.43a2.68,2.68,0,0,1,2.68-2.68"/><path id="_Path_7" data-name="&lt;Path&gt;" class="cls-7" d="M20.31,34.43a2.68,2.68,0,0,0-2.68-2.68"/><g id="_Group_3" data-name="&lt;Group&gt;"><line id="_Path_8" data-name="&lt;Path&gt;" class="cls-8" x1="38.36" y1="3.34" x2="38.36" y2="2.67"/><line id="_Path_9" data-name="&lt;Path&gt;" class="cls-8" x1="39.78" y1="3.93" x2="40.26" y2="3.45"/><line id="_Path_10" data-name="&lt;Path&gt;" class="cls-8" x1="40.37" y1="5.35" x2="41.04" y2="5.35"/><line id="_Path_11" data-name="&lt;Path&gt;" class="cls-8" x1="39.78" y1="6.77" x2="40.26" y2="7.24"/><line id="_Path_12" data-name="&lt;Path&gt;" class="cls-8" x1="38.36" y1="7.35" x2="38.36" y2="8.02"/><line id="_Path_13" data-name="&lt;Path&gt;" class="cls-8" x1="36.94" y1="6.77" x2="36.47" y2="7.24"/><line id="_Path_14" data-name="&lt;Path&gt;" class="cls-8" x1="36.36" y1="5.35" x2="35.69" y2="5.35"/><line id="_Path_15" data-name="&lt;Path&gt;" class="cls-8" x1="36.94" y1="3.93" x2="36.47" y2="3.45"/></g><g id="_Group_4" data-name="&lt;Group&gt;"><line id="_Path_16" data-name="&lt;Path&gt;" class="cls-8" x1="29.44" y1="3.28" x2="29.44" y2="1.5"/><line id="_Path_17" data-name="&lt;Path&gt;" class="cls-8" x1="28.55" y1="2.39" x2="30.34" y2="2.39"/></g></svg>