<svg id="Icons" xmlns="http://www.w3.org/2000/svg" viewBox="0 0 48 48"><defs><style>.cls-1,.cls-11{fill:#45413c;}.cls-1{opacity:0.15;}.cls-2{fill:#00b8f0;}.cls-10,.cls-11,.cls-2,.cls-6{stroke:#45413c;stroke-linecap:round;stroke-linejoin:round;}.cls-3{fill:#fffce5;}.cls-4{fill:#fffacf;}.cls-5{fill:#fff;}.cls-6{fill:none;}.cls-7{fill:#ff87af;}.cls-8{fill:#ff6242;}.cls-9{fill:#ff866e;}.cls-10{fill:#4acfff;}</style></defs><title>79-clown-face</title><g id="_Group_" data-name="&lt;Group&gt;"><ellipse id="_Ellipse_" data-name="&lt;Ellipse&gt;" class="cls-1" cx="23.99" cy="45.5" rx="16" ry="1.5"/><path id="_Path_" data-name="&lt;Path&gt;" class="cls-2" d="M42.66,9.6A4.43,4.43,0,0,0,43.5,7,4.49,4.49,0,0,0,39,2.5a4.43,4.43,0,0,0-2.6.84A2.5,2.5,0,1,0,34,6.5a2.6,2.6,0,0,0,.56-.07A3.68,3.68,0,0,0,34.5,7,4.49,4.49,0,0,0,39,11.5a3.68,3.68,0,0,0,.57-.06,2.6,2.6,0,0,0-.07.56,2.5,2.5,0,1,0,3.16-2.4Z"/><path id="_Path_2" data-name="&lt;Path&gt;" class="cls-2" d="M5.34,9.6A4.43,4.43,0,0,1,4.5,7,4.49,4.49,0,0,1,9,2.5a4.43,4.43,0,0,1,2.6.84A2.5,2.5,0,1,1,14,6.5a2.6,2.6,0,0,1-.56-.07A3.68,3.68,0,0,1,13.5,7,4.49,4.49,0,0,1,9,11.5a3.68,3.68,0,0,1-.57-.06A2.6,2.6,0,0,1,8.5,12,2.5,2.5,0,1,1,5.34,9.6Z"/><circle id="_Ellipse_2" data-name="&lt;Ellipse&gt;" class="cls-3" cx="24" cy="22.5" r="20"/><path id="_Compound_Path_" data-name="&lt;Compound Path&gt;" class="cls-4" d="M24,2.5a20,20,0,1,0,20,20A20,20,0,0,0,24,2.5Zm0,37A18.25,18.25,0,1,1,42.25,21.25,18.25,18.25,0,0,1,24,39.5Z"/><ellipse id="_Ellipse_3" data-name="&lt;Ellipse&gt;" class="cls-5" cx="24" cy="6.5" rx="6" ry="1.5"/><circle id="_Ellipse_4" data-name="&lt;Ellipse&gt;" class="cls-6" cx="24" cy="22.5" r="20"/><path id="_Path_3" data-name="&lt;Path&gt;" class="cls-7" d="M39,27.5c0,.83-1.12,1.5-2.5,1.5S34,28.33,34,27.5,35.12,26,36.5,26,39,26.67,39,27.5Z"/><path id="_Path_4" data-name="&lt;Path&gt;" class="cls-7" d="M9,27.5c0,.83,1.12,1.5,2.5,1.5s2.5-.67,2.5-1.5S12.88,26,11.5,26,9,26.67,9,27.5Z"/><ellipse id="_Path_5" data-name="&lt;Path&gt;" class="cls-8" cx="24" cy="26" rx="4.5" ry="3.5"/><path id="_Path_6" data-name="&lt;Path&gt;" class="cls-9" d="M24,24.5A4.48,4.48,0,0,1,28.29,27a2.84,2.84,0,0,0,.21-1c0-1.93-2-3.5-4.5-3.5s-4.5,1.57-4.5,3.5a2.84,2.84,0,0,0,.21,1A4.48,4.48,0,0,1,24,24.5Z"/><ellipse id="_Path_7" data-name="&lt;Path&gt;" class="cls-6" cx="24" cy="26" rx="4.5" ry="3.5"/><path id="_Path_8" data-name="&lt;Path&gt;" class="cls-8" d="M24,38a11.36,11.36,0,0,1-9-4A2.5,2.5,0,0,1,19,31a6.42,6.42,0,0,0,5,2,6.36,6.36,0,0,0,5-2,2.53,2.53,0,0,1,3.49-.48A2.48,2.48,0,0,1,33,34,11.36,11.36,0,0,1,24,38Z"/><path class="cls-9" d="M32.49,30.52A2.53,2.53,0,0,0,29,31a6.36,6.36,0,0,1-5,2,6.42,6.42,0,0,1-5-2,2.49,2.49,0,0,0-4.49,1.29,2.75,2.75,0,0,1,4,.47A7.06,7.06,0,0,0,24,35a7.06,7.06,0,0,0,5.52-2.2,2.74,2.74,0,0,1,4-.47A2.49,2.49,0,0,0,32.49,30.52Z"/><path id="_Path_9" data-name="&lt;Path&gt;" class="cls-6" d="M24,38a11.36,11.36,0,0,1-9-4A2.5,2.5,0,0,1,19,31a6.42,6.42,0,0,0,5,2,6.36,6.36,0,0,0,5-2,2.53,2.53,0,0,1,3.49-.48A2.48,2.48,0,0,1,33,34,11.36,11.36,0,0,1,24,38Z"/><path id="_Path_10" data-name="&lt;Path&gt;" class="cls-6" d="M17.5,33s1.88,2.5,6.5,2.5S30.5,33,30.5,33"/><ellipse id="_Path_11" data-name="&lt;Path&gt;" class="cls-10" cx="33.5" cy="20.5" rx="3.5" ry="4"/><ellipse id="_Path_12" data-name="&lt;Path&gt;" class="cls-10" cx="14.5" cy="20.5" rx="3.5" ry="4"/><path id="_Path_13" data-name="&lt;Path&gt;" class="cls-11" d="M15.5,20.5a1,1,0,1,1-1-1A1,1,0,0,1,15.5,20.5Z"/><path id="_Path_14" data-name="&lt;Path&gt;" class="cls-11" d="M32.5,20.5a1,1,0,1,0,1-1A1,1,0,0,0,32.5,20.5Z"/><path id="_Path_15" data-name="&lt;Path&gt;" class="cls-6" d="M30,14a4,4,0,0,1,3.5-2.5A4,4,0,0,1,37,14"/><path id="_Path_16" data-name="&lt;Path&gt;" class="cls-6" d="M11,14a4,4,0,0,1,3.5-2.5A4,4,0,0,1,18,14"/></g></svg>