<svg id="Icons" xmlns="http://www.w3.org/2000/svg" viewBox="0 0 48 48"><defs><style>.cls-1,.cls-8{fill:#ffe500;}.cls-2{fill:#ebcb00;}.cls-3{fill:#fff48c;}.cls-4,.cls-7{fill:#45413c;}.cls-4{opacity:0.15;}.cls-5{fill:none;}.cls-5,.cls-7,.cls-8{stroke:#45413c;stroke-linecap:round;stroke-linejoin:round;}.cls-6{fill:#ffaa54;}</style></defs><title>81-shushing-face</title><g id="_Group_" data-name="&lt;Group&gt;"><circle id="_Ellipse_" data-name="&lt;Ellipse&gt;" class="cls-1" cx="24" cy="21.5" r="20"/><path id="_Compound_Path_" data-name="&lt;Compound Path&gt;" class="cls-2" d="M24,1.5a20,20,0,1,0,20,20A20,20,0,0,0,24,1.5Zm0,37A18.25,18.25,0,1,1,42.25,20.25,18.25,18.25,0,0,1,24,38.5Z"/><ellipse id="_Ellipse_2" data-name="&lt;Ellipse&gt;" class="cls-3" cx="24" cy="5.5" rx="6" ry="1.5"/><ellipse id="_Ellipse_3" data-name="&lt;Ellipse&gt;" class="cls-4" cx="24" cy="45.5" rx="16" ry="1.5"/><circle id="_Ellipse_4" data-name="&lt;Ellipse&gt;" class="cls-5" cx="24" cy="21.5" r="20"/><path id="_Path_" data-name="&lt;Path&gt;" class="cls-6" d="M38.5,24.5c0,.83-1.12,1.5-2.5,1.5s-2.5-.67-2.5-1.5S34.62,23,36,23,38.5,23.67,38.5,24.5Z"/><path id="_Path_2" data-name="&lt;Path&gt;" class="cls-6" d="M9.5,24.5c0,.83,1.12,1.5,2.5,1.5s2.5-.67,2.5-1.5S13.38,23,12,23,9.5,23.67,9.5,24.5Z"/><path id="_Path_3" data-name="&lt;Path&gt;" class="cls-7" d="M14.5,18.5a1,1,0,1,1-1-1A1,1,0,0,1,14.5,18.5Z"/><path id="_Path_4" data-name="&lt;Path&gt;" class="cls-7" d="M33.5,18.5a1,1,0,1,0,1-1A1,1,0,0,0,33.5,18.5Z"/><path id="_Path_5" data-name="&lt;Path&gt;" class="cls-5" d="M18.5,27A19,19,0,0,0,24,28a19,19,0,0,0,5.5-1"/><path id="_Path_6" data-name="&lt;Path&gt;" class="cls-8" d="M24,22.5a2,2,0,0,0-2,2V36h4V24.5A2,2,0,0,0,24,22.5Z"/><path id="_Path_7" data-name="&lt;Path&gt;" class="cls-1" d="M20.4,45.5a6,6,0,0,0,3.73-1.32L29.23,40a2,2,0,0,0-1.88-3.52L26,36.92v-3A3.89,3.89,0,0,0,22.11,30H20a2.5,2.5,0,0,0-2.5,2.5,3,3,0,0,0-3,3v4.1A5.9,5.9,0,0,0,20.4,45.5Z"/><path class="cls-2" d="M29.23,38l-5.1,4.15A6,6,0,0,1,20.4,43.5a5.9,5.9,0,0,1-5.9-5.9v2a5.9,5.9,0,0,0,5.9,5.9,6,6,0,0,0,3.73-1.32L29.23,40a2,2,0,0,0,.54-2.49S29.44,37.86,29.23,38Z"/><path id="_Path_8" data-name="&lt;Path&gt;" class="cls-5" d="M20.4,45.5a6,6,0,0,0,3.73-1.32L29.23,40a2,2,0,0,0-1.88-3.52L26,36.92v-3A3.89,3.89,0,0,0,22.11,30H20a2.5,2.5,0,0,0-2.5,2.5,3,3,0,0,0-3,3v4.1A5.9,5.9,0,0,0,20.4,45.5Z"/><path id="_Path_9" data-name="&lt;Path&gt;" class="cls-5" d="M18.5,36v3.5a2,2,0,0,0,4,0V37.75"/><path id="_Path_10" data-name="&lt;Path&gt;" class="cls-5" d="M26,33.89v3.86a1.75,1.75,0,0,1-3.5,0V35.53a3,3,0,0,0-3-3h-2"/></g></svg>