<svg id="Icons" xmlns="http://www.w3.org/2000/svg" viewBox="0 0 48 48"><defs><style>.cls-1{fill:#ffe500;}.cls-2{fill:#ebcb00;}.cls-3{fill:#fff48c;}.cls-4{fill:#45413c;opacity:0.15;}.cls-5{fill:none;}.cls-10,.cls-5,.cls-6,.cls-7{stroke:#45413c;stroke-linecap:round;stroke-linejoin:round;}.cls-6{fill:#fff;}.cls-7{fill:#b89558;}.cls-8{fill:#00b8f0;}.cls-9{fill:#4acfff;}.cls-10{fill:#ff6242;}</style></defs><title>84-nerd-face</title><g id="_Group_" data-name="&lt;Group&gt;"><circle id="_Ellipse_" data-name="&lt;Ellipse&gt;" class="cls-1" cx="24" cy="21.5" r="20"/><path id="_Compound_Path_" data-name="&lt;Compound Path&gt;" class="cls-2" d="M24,1.5a20,20,0,1,0,20,20A20,20,0,0,0,24,1.5Zm0,37A18.25,18.25,0,1,1,42.25,20.25,18.25,18.25,0,0,1,24,38.5Z"/><ellipse id="_Ellipse_2" data-name="&lt;Ellipse&gt;" class="cls-3" cx="24" cy="5.5" rx="6" ry="1.5"/><ellipse id="_Ellipse_3" data-name="&lt;Ellipse&gt;" class="cls-4" cx="24" cy="45.5" rx="16" ry="1.5"/><circle id="_Ellipse_4" data-name="&lt;Ellipse&gt;" class="cls-5" cx="24" cy="21.5" r="20"/><path id="_Path_" data-name="&lt;Path&gt;" class="cls-5" d="M16.5,29s2.31,2,7.5,2,7.5-2,7.5-2"/><g id="_Group_2" data-name="&lt;Group&gt;"><path id="_Path_2" data-name="&lt;Path&gt;" class="cls-6" d="M20.21,32.34a1.79,1.79,0,0,0,1.48,1.33l1.52.22A.69.69,0,0,0,24,33.2V31a16.81,16.81,0,0,1-4.26-.52Z"/></g><g id="_Group_3" data-name="&lt;Group&gt;"><path id="_Path_3" data-name="&lt;Path&gt;" class="cls-6" d="M24,31v2.2a.69.69,0,0,0,.79.69l1.52-.22a1.79,1.79,0,0,0,1.48-1.33l.47-1.86A16.81,16.81,0,0,1,24,31Z"/></g><circle id="_Ellipse_5" data-name="&lt;Ellipse&gt;" class="cls-7" cx="15" cy="20" r="7.5"/><circle id="_Ellipse_6" data-name="&lt;Ellipse&gt;" class="cls-8" cx="15" cy="20" r="5.5"/><path id="_Path_4" data-name="&lt;Path&gt;" class="cls-9" d="M15,14.5A5.5,5.5,0,0,0,11.19,24L19,16.19A5.47,5.47,0,0,0,15,14.5Z"/><circle id="_Ellipse_7" data-name="&lt;Ellipse&gt;" class="cls-5" cx="15" cy="20" r="5.5"/><circle id="_Ellipse_8" data-name="&lt;Ellipse&gt;" class="cls-7" cx="33" cy="20" r="7.5"/><circle id="_Ellipse_9" data-name="&lt;Ellipse&gt;" class="cls-8" cx="33" cy="20" r="5.5"/><path id="_Path_5" data-name="&lt;Path&gt;" class="cls-9" d="M33,14.5A5.5,5.5,0,0,0,29.19,24L37,16.19A5.47,5.47,0,0,0,33,14.5Z"/><circle id="_Ellipse_10" data-name="&lt;Ellipse&gt;" class="cls-5" cx="33" cy="20" r="5.5"/><line id="_Line_" data-name="&lt;Line&gt;" class="cls-5" x1="40.5" y1="20" x2="45" y2="20"/><line id="_Line_2" data-name="&lt;Line&gt;" class="cls-5" x1="7.5" y1="20" x2="3" y2="20"/><line id="_Line_3" data-name="&lt;Line&gt;" class="cls-5" x1="25.5" y1="20" x2="22.5" y2="20"/><g id="_Group_4" data-name="&lt;Group&gt;"><path id="_Path_6" data-name="&lt;Path&gt;" class="cls-10" d="M24,40.61a24.7,24.7,0,0,1,5.53-2.09,1,1,0,0,1,1.2.74,13.8,13.8,0,0,1,0,5.33,1.08,1.08,0,0,1-1.5.82A39.92,39.92,0,0,1,24,42.75Z"/><path id="_Path_7" data-name="&lt;Path&gt;" class="cls-10" d="M24,40.61a24.7,24.7,0,0,0-5.53-2.09,1,1,0,0,0-1.2.74,13.8,13.8,0,0,0,0,5.33,1.08,1.08,0,0,0,1.5.82A39.92,39.92,0,0,0,24,42.75Z"/><line id="_Line_4" data-name="&lt;Line&gt;" class="cls-5" x1="20.25" y1="42" x2="27.75" y2="42"/><rect id="_Rectangle_" data-name="&lt;Rectangle&gt;" class="cls-10" x="23" y="40" width="2" height="4" rx="0.5" ry="0.5"/></g></g></svg>