<svg id="Icons" xmlns="http://www.w3.org/2000/svg" viewBox="0 0 48 48"><defs><style>.cls-1,.cls-3{fill:#803ec2;}.cls-1,.cls-6,.cls-7{stroke:#45413c;stroke-linecap:round;stroke-linejoin:round;}.cls-2{fill:#9f5ae5;}.cls-4{fill:#bf8df2;}.cls-5,.cls-7{fill:#45413c;}.cls-5{opacity:0.15;}.cls-6{fill:none;}.cls-8{fill:#eddbff;}</style></defs><title>85-smiling-face-with-horns</title><g id="_Group_" data-name="&lt;Group&gt;"><path id="_Path_" data-name="&lt;Path&gt;" class="cls-1" d="M32.15,10.49a19.43,19.43,0,0,0,6.28-3.32,15.83,15.83,0,0,0,3.63-3.86.63.63,0,0,1,1.09.13,11.3,11.3,0,0,1-.46,8.94c-2.6,5.56-5.5,6.92-5.5,6.92Z"/><path id="_Path_2" data-name="&lt;Path&gt;" class="cls-1" d="M15.85,10.49A19.43,19.43,0,0,1,9.57,7.17,15.83,15.83,0,0,1,5.94,3.31a.63.63,0,0,0-1.09.13,11.3,11.3,0,0,0,.46,8.94c2.6,5.56,5.5,6.92,5.5,6.92Z"/><circle id="_Ellipse_" data-name="&lt;Ellipse&gt;" class="cls-2" cx="24" cy="23.44" r="18.06"/><path id="_Compound_Path_" data-name="&lt;Compound Path&gt;" class="cls-3" d="M24,5.38A18.06,18.06,0,1,0,42.06,23.44,18.06,18.06,0,0,0,24,5.38Zm0,33.41A16.48,16.48,0,1,1,40.48,22.31,16.48,16.48,0,0,1,24,38.79Z"/><ellipse id="_Ellipse_2" data-name="&lt;Ellipse&gt;" class="cls-4" cx="24" cy="8.99" rx="5.42" ry="1.35"/><ellipse id="_Ellipse_3" data-name="&lt;Ellipse&gt;" class="cls-5" cx="24" cy="45.44" rx="15.63" ry="1.56"/><circle id="_Ellipse_4" data-name="&lt;Ellipse&gt;" class="cls-6" cx="24" cy="23.44" r="18.06"/><path id="_Path_3" data-name="&lt;Path&gt;" class="cls-7" d="M16.2,22.54a.9.9,0,1,1-.9-.91A.9.9,0,0,1,16.2,22.54Z"/><path id="_Path_4" data-name="&lt;Path&gt;" class="cls-7" d="M31.8,22.54a.9.9,0,1,0,.9-.91A.9.9,0,0,0,31.8,22.54Z"/><path id="_Path_5" data-name="&lt;Path&gt;" class="cls-8" d="M37.09,28c0,.75-1,1.36-2.25,1.36S32.58,28.7,32.58,28s1-1.35,2.26-1.35S37.09,27.21,37.09,28Z"/><path id="_Path_6" data-name="&lt;Path&gt;" class="cls-8" d="M10.91,28c0,.75,1,1.36,2.25,1.36s2.26-.61,2.26-1.36-1-1.35-2.26-1.35S10.91,27.21,10.91,28Z"/><path id="_Path_7" data-name="&lt;Path&gt;" class="cls-6" d="M17.84,31.46A9.3,9.3,0,0,0,24,33.37a9.3,9.3,0,0,0,6.16-1.91"/><path id="_Path_8" data-name="&lt;Path&gt;" class="cls-6" d="M30.84,22.92a4.9,4.9,0,0,1,4.44-2.57"/><path id="_Path_9" data-name="&lt;Path&gt;" class="cls-6" d="M17.16,22.92a4.9,4.9,0,0,0-4.44-2.57"/></g></svg>