<svg id="Icons" xmlns="http://www.w3.org/2000/svg" viewBox="0 0 48 48"><defs><style>.cls-1{fill:#45413c;opacity:0.15;}.cls-2{fill:#daedf7;}.cls-3{fill:#fff;}.cls-4{fill:none;}.cls-10,.cls-4,.cls-7,.cls-8,.cls-9{stroke:#45413c;stroke-linecap:round;stroke-linejoin:round;}.cls-5{fill:#c0dceb;}.cls-6,.cls-7{fill:#adc4d9;}.cls-8{fill:#ff6242;}.cls-9{fill:#00dfeb;}.cls-10{fill:#627b8c;}</style></defs><title>92-robot-face-1</title><g id="_Group_" data-name="&lt;Group&gt;"><ellipse id="_Ellipse_" data-name="&lt;Ellipse&gt;" class="cls-1" cx="24" cy="45.5" rx="19.5" ry="1.5"/><path id="_Path_" data-name="&lt;Path&gt;" class="cls-2" d="M42,40.5a4,4,0,0,1-4,4H10a4,4,0,0,1-4-4V27a18,18,0,0,1,36,0Z"/><path id="_Path_2" data-name="&lt;Path&gt;" class="cls-3" d="M24,9A18,18,0,0,0,6,27v5a18,18,0,0,1,36,0V27A18,18,0,0,0,24,9Z"/><path id="_Path_3" data-name="&lt;Path&gt;" class="cls-4" d="M42,40.5a4,4,0,0,1-4,4H10a4,4,0,0,1-4-4V27a18,18,0,0,1,36,0Z"/><rect id="_Rectangle_" data-name="&lt;Rectangle&gt;" class="cls-5" x="17.5" y="34" width="13" height="12" rx="2" ry="2"/><rect id="_Rectangle_2" data-name="&lt;Rectangle&gt;" class="cls-6" x="17.5" y="38.5" width="13" height="2"/><path id="_Path_4" data-name="&lt;Path&gt;" class="cls-7" d="M45.5,35.92a1,1,0,0,1-.5.87L42,38.5V26l3,1.71a1,1,0,0,1,.5.87Z"/><path id="_Path_5" data-name="&lt;Path&gt;" class="cls-7" d="M2.5,35.92a1,1,0,0,0,.5.87L6,38.5V26L3,27.71a1,1,0,0,0-.5.87Z"/><path id="_Path_6" data-name="&lt;Path&gt;" class="cls-4" d="M24,9A9,9,0,0,1,34.5,2.27"/><circle id="_Ellipse_2" data-name="&lt;Ellipse&gt;" class="cls-8" cx="36" cy="3.5" r="2.5"/><rect id="_Rectangle_3" data-name="&lt;Rectangle&gt;" class="cls-4" x="17.5" y="34" width="13" height="12" rx="2" ry="2"/><path id="_Rectangle_4" data-name="&lt;Rectangle&gt;" class="cls-8" d="M19.5,34h9a2,2,0,0,1,2,2v2.5a0,0,0,0,1,0,0h-13a0,0,0,0,1,0,0V36A2,2,0,0,1,19.5,34Z"/><path class="cls-4" d="M33.5,11.71a18,18,0,0,0-19,0V24h19Z"/><circle id="_Ellipse_3" data-name="&lt;Ellipse&gt;" class="cls-9" cx="32.5" cy="25" r="5"/><circle id="_Ellipse_4" data-name="&lt;Ellipse&gt;" class="cls-10" cx="32.5" cy="25" r="2"/><circle id="_Ellipse_5" data-name="&lt;Ellipse&gt;" class="cls-9" cx="15.5" cy="25" r="5"/><circle id="_Ellipse_6" data-name="&lt;Ellipse&gt;" class="cls-10" cx="15.5" cy="25" r="2"/></g></svg>