<svg id="Icons" xmlns="http://www.w3.org/2000/svg" viewBox="0 0 48 48"><defs><style>.cls-1{fill:#ffe500;}.cls-2{fill:#ffa694;}.cls-3{fill:#fff48c;}.cls-4{fill:none;}.cls-4,.cls-7,.cls-8,.cls-9{stroke:#45413c;stroke-linecap:round;stroke-linejoin:round;}.cls-5{fill:#ff866e;}.cls-6,.cls-7{fill:#45413c;}.cls-6{opacity:0.15;}.cls-8{fill:#ffb0ca;}.cls-9{fill:#ff87af;}</style></defs><title>96-grinning-cat-face</title><path id="_Path_" data-name="&lt;Path&gt;" class="cls-1" d="M27.12,8.68s8.43-5.74,11.57-3.15-1.21,13.21-1.21,13.21Z"/><path id="_Path_2" data-name="&lt;Path&gt;" class="cls-2" d="M28.49,10.87s6-4.35,8.14-2.6-1.12,9.41-1.12,9.41Z"/><path id="_Path_3" data-name="&lt;Path&gt;" class="cls-1" d="M20.88,8.68S12.45,2.94,9.31,5.53s1.21,13.21,1.21,13.21Z"/><path id="_Path_4" data-name="&lt;Path&gt;" class="cls-3" d="M38.69,7.72a3.51,3.51,0,0,1,1.09,2.38c.18-2,0-3.71-1.09-4.57C35.55,2.94,27.12,8.68,27.12,8.68L28.49,10C31,8.52,36.34,5.78,38.69,7.72Z"/><path id="_Path_5" data-name="&lt;Path&gt;" class="cls-3" d="M9.31,7.72c2.35-1.94,7.68.8,10.2,2.29l1.37-1.33S12.45,2.94,9.31,5.53C8.26,6.39,8,8.14,8.22,10.1A3.51,3.51,0,0,1,9.31,7.72Z"/><path id="_Path_6" data-name="&lt;Path&gt;" class="cls-4" d="M27.12,8.68s8.43-5.74,11.57-3.15-1.21,13.21-1.21,13.21Z"/><path id="_Path_7" data-name="&lt;Path&gt;" class="cls-4" d="M20.88,8.68S12.45,2.94,9.31,5.53s1.21,13.21,1.21,13.21Z"/><path id="_Path_8" data-name="&lt;Path&gt;" class="cls-2" d="M19.51,10.87s-6-4.35-8.14-2.6,1.12,9.41,1.12,9.41Z"/><path id="_Path_9" data-name="&lt;Path&gt;" class="cls-5" d="M36.63,10.52a2,2,0,0,1,.63,1.17c.2-1.48.11-2.81-.63-3.42-2.13-1.75-8.14,2.6-8.14,2.6l1.38,1.34C31.77,11,35.14,9.29,36.63,10.52Z"/><path id="_Path_10" data-name="&lt;Path&gt;" class="cls-5" d="M11.37,10.52c1.49-1.23,4.86.52,6.76,1.69l1.38-1.34s-6-4.35-8.14-2.6c-.74.61-.83,1.94-.63,3.42A2,2,0,0,1,11.37,10.52Z"/><path id="_Path_11" data-name="&lt;Path&gt;" class="cls-4" d="M28.49,10.87s6-4.35,8.14-2.6-1.12,9.41-1.12,9.41Z"/><path id="_Path_12" data-name="&lt;Path&gt;" class="cls-4" d="M19.51,10.87s-6-4.35-8.14-2.6,1.12,9.41,1.12,9.41Z"/><ellipse id="_Ellipse_" data-name="&lt;Ellipse&gt;" class="cls-6" cx="24" cy="43.5" rx="11" ry="1.5"/><path id="_Path_13" data-name="&lt;Path&gt;" class="cls-1" d="M39.33,28.91l-.94-8.71A14.26,14.26,0,0,0,24,7.75,14.26,14.26,0,0,0,9.61,20.2l-.94,8.71a8.09,8.09,0,0,0,8.25,8.77h.46c1.25,1.55,3.74,2.61,6.62,2.61s5.37-1.06,6.62-2.61h.46A8.09,8.09,0,0,0,39.33,28.91Z"/><path id="_Path_14" data-name="&lt;Path&gt;" class="cls-3" d="M9.61,23.88A14.25,14.25,0,0,1,24,11.44,14.26,14.26,0,0,1,38.39,23.88l.81,7.49a7.74,7.74,0,0,0,.13-2.46l-.94-8.71A14.27,14.27,0,0,0,24,7.75,14.26,14.26,0,0,0,9.61,20.2l-.94,8.71a7.74,7.74,0,0,0,.13,2.46Z"/><path id="_Path_15" data-name="&lt;Path&gt;" class="cls-4" d="M39.33,28.91l-.94-8.71A14.26,14.26,0,0,0,24,7.75,14.26,14.26,0,0,0,9.61,20.2l-.94,8.71a8.09,8.09,0,0,0,8.25,8.77h.46c1.25,1.55,3.74,2.61,6.62,2.61s5.37-1.06,6.62-2.61h.46A8.09,8.09,0,0,0,39.33,28.91Z"/><path id="_Path_16" data-name="&lt;Path&gt;" class="cls-5" d="M26.68,29.59A3,3,0,0,1,24,31.82a3,3,0,0,1-2.68-2.23c0-.68,1.2-1.23,2.68-1.23S26.68,28.91,26.68,29.59Z"/><path id="_Path_17" data-name="&lt;Path&gt;" class="cls-2" d="M24,29.86a4,4,0,0,1,2.32.61,1.72,1.72,0,0,0,.36-.88c0-.68-1.2-1.23-2.68-1.23s-2.68.55-2.68,1.23a1.72,1.72,0,0,0,.36.88A4,4,0,0,1,24,29.86Z"/><path id="_Path_18" data-name="&lt;Path&gt;" class="cls-4" d="M26.68,29.59A3,3,0,0,1,24,31.82a3,3,0,0,1-2.68-2.23c0-.68,1.2-1.23,2.68-1.23S26.68,28.91,26.68,29.59Z"/><path id="_Path_19" data-name="&lt;Path&gt;" class="cls-7" d="M15.92,24a1.15,1.15,0,1,0,1.15-1.15A1.14,1.14,0,0,0,15.92,24Z"/><path id="_Path_20" data-name="&lt;Path&gt;" class="cls-7" d="M32.08,24a1.15,1.15,0,1,1-1.15-1.15A1.14,1.14,0,0,1,32.08,24Z"/><g id="_Group_" data-name="&lt;Group&gt;"><path id="_Path_21" data-name="&lt;Path&gt;" class="cls-8" d="M19.78,33.3a.66.66,0,0,0-.5.23.65.65,0,0,0-.15.52,4.94,4.94,0,0,0,9.74,0,.65.65,0,0,0-.15-.52.66.66,0,0,0-.5-.23Z"/><path id="_Path_22" data-name="&lt;Path&gt;" class="cls-9" d="M27.88,36.32A7.89,7.89,0,0,0,24,35.41a7.89,7.89,0,0,0-3.88.91,5,5,0,0,0,7.76,0Z"/></g><line id="_Path_23" data-name="&lt;Path&gt;" class="cls-4" x1="31.11" y1="30.18" x2="36.53" y2="29.35"/><line id="_Path_24" data-name="&lt;Path&gt;" class="cls-4" x1="31.11" y1="32.64" x2="36.53" y2="33.39"/><line id="_Path_25" data-name="&lt;Path&gt;" class="cls-4" x1="16.89" y1="30.18" x2="11.47" y2="29.35"/><line id="_Path_26" data-name="&lt;Path&gt;" class="cls-4" x1="16.89" y1="32.64" x2="11.47" y2="33.39"/></svg>