<svg id="Icons" xmlns="http://www.w3.org/2000/svg" viewBox="0 0 48 48"><defs><style>.cls-1,.cls-10{fill:#ffe500;}.cls-2{fill:#ffa694;}.cls-3{fill:#fff48c;}.cls-4{fill:none;}.cls-10,.cls-4,.cls-7,.cls-8,.cls-9{stroke:#45413c;stroke-linecap:round;stroke-linejoin:round;}.cls-5,.cls-8{fill:#ff866e;}.cls-6{fill:#45413c;opacity:0.15;}.cls-7{fill:#ffb0ca;}.cls-9{fill:#fff;}</style></defs><title>102-weary-cat-face</title><path id="_Path_" data-name="&lt;Path&gt;" class="cls-1" d="M27.12,8.68s8.43-5.74,11.57-3.15-1.21,13.21-1.21,13.21Z"/><path id="_Path_2" data-name="&lt;Path&gt;" class="cls-2" d="M28.49,10.87s6-4.35,8.14-2.6-1.12,9.41-1.12,9.41Z"/><path id="_Path_3" data-name="&lt;Path&gt;" class="cls-1" d="M20.88,8.68S12.45,2.94,9.31,5.53s1.21,13.21,1.21,13.21Z"/><path id="_Path_4" data-name="&lt;Path&gt;" class="cls-3" d="M38.69,7.72a3.51,3.51,0,0,1,1.09,2.38c.18-2,0-3.71-1.09-4.57C35.55,2.94,27.12,8.68,27.12,8.68L28.49,10C31,8.52,36.34,5.78,38.69,7.72Z"/><path id="_Path_5" data-name="&lt;Path&gt;" class="cls-3" d="M9.31,7.72c2.35-1.94,7.68.8,10.2,2.29l1.37-1.33S12.45,2.94,9.31,5.53C8.26,6.39,8,8.14,8.22,10.1A3.51,3.51,0,0,1,9.31,7.72Z"/><path id="_Path_6" data-name="&lt;Path&gt;" class="cls-4" d="M27.12,8.68s8.43-5.74,11.57-3.15-1.21,13.21-1.21,13.21Z"/><path id="_Path_7" data-name="&lt;Path&gt;" class="cls-4" d="M20.88,8.68S12.45,2.94,9.31,5.53s1.21,13.21,1.21,13.21Z"/><path id="_Path_8" data-name="&lt;Path&gt;" class="cls-2" d="M19.51,10.87s-6-4.35-8.14-2.6,1.12,9.41,1.12,9.41Z"/><path id="_Path_9" data-name="&lt;Path&gt;" class="cls-5" d="M36.63,10.52a2,2,0,0,1,.63,1.17c.2-1.48.11-2.81-.63-3.42-2.13-1.75-8.14,2.6-8.14,2.6l1.38,1.34C31.77,11,35.14,9.29,36.63,10.52Z"/><path id="_Path_10" data-name="&lt;Path&gt;" class="cls-5" d="M11.37,10.52c1.49-1.23,4.86.52,6.76,1.69l1.38-1.34s-6-4.35-8.14-2.6c-.74.61-.83,1.94-.63,3.42A2,2,0,0,1,11.37,10.52Z"/><path id="_Path_11" data-name="&lt;Path&gt;" class="cls-4" d="M28.49,10.87s6-4.35,8.14-2.6-1.12,9.41-1.12,9.41Z"/><path id="_Path_12" data-name="&lt;Path&gt;" class="cls-4" d="M19.51,10.87s-6-4.35-8.14-2.6,1.12,9.41,1.12,9.41Z"/><ellipse id="_Ellipse_" data-name="&lt;Ellipse&gt;" class="cls-6" cx="24" cy="43.5" rx="11" ry="1.5"/><path id="_Path_13" data-name="&lt;Path&gt;" class="cls-1" d="M39.33,28.91l-.94-8.71A14.26,14.26,0,0,0,24,7.75,14.27,14.27,0,0,0,9.61,20.2l-.94,8.71a8.09,8.09,0,0,0,8.25,8.77h.46c1.25,1.55,3.74,2.61,6.62,2.61s5.37-1.06,6.62-2.61h.46A8.09,8.09,0,0,0,39.33,28.91Z"/><path id="_Path_14" data-name="&lt;Path&gt;" class="cls-3" d="M9.61,23.88A14.26,14.26,0,0,1,24,11.44,14.25,14.25,0,0,1,38.39,23.88l.81,7.49a7.74,7.74,0,0,0,.13-2.46l-.94-8.71A14.26,14.26,0,0,0,24,7.75,14.27,14.27,0,0,0,9.61,20.2l-.94,8.71a7.74,7.74,0,0,0,.13,2.46Z"/><path id="_Path_15" data-name="&lt;Path&gt;" class="cls-4" d="M39.33,28.91l-.94-8.71A14.26,14.26,0,0,0,24,7.75,14.27,14.27,0,0,0,9.61,20.2l-.94,8.71a8.09,8.09,0,0,0,8.25,8.77h.46c1.25,1.55,3.74,2.61,6.62,2.61s5.37-1.06,6.62-2.61h.46A8.09,8.09,0,0,0,39.33,28.91Z"/><path id="_Path_16" data-name="&lt;Path&gt;" class="cls-5" d="M26.68,26.5A3,3,0,0,1,24,28.72a3,3,0,0,1-2.68-2.22c0-.69,1.2-1.24,2.68-1.24S26.68,25.81,26.68,26.5Z"/><path id="_Path_17" data-name="&lt;Path&gt;" class="cls-2" d="M24,26.76a4,4,0,0,1,2.32.61,1.69,1.69,0,0,0,.36-.87c0-.69-1.2-1.24-2.68-1.24s-2.68.55-2.68,1.24a1.69,1.69,0,0,0,.36.87A4,4,0,0,1,24,26.76Z"/><path id="_Path_18" data-name="&lt;Path&gt;" class="cls-4" d="M26.68,26.5A3,3,0,0,1,24,28.72a3,3,0,0,1-2.68-2.22c0-.69,1.2-1.24,2.68-1.24S26.68,25.81,26.68,26.5Z"/><g id="_Group_" data-name="&lt;Group&gt;"><ellipse id="_Ellipse_2" data-name="&lt;Ellipse&gt;" class="cls-7" cx="24" cy="35.29" rx="3.12" ry="5"/><path id="_Path_19" data-name="&lt;Path&gt;" class="cls-8" d="M24,35.6c-1.11,0-2.09.94-2.64,2.35.55,1.4,1.53,2.34,2.64,2.34s2.09-.94,2.64-2.34C26.09,36.54,25.12,35.6,24,35.6Z"/></g><path id="_Path_20" data-name="&lt;Path&gt;" class="cls-9" d="M33.59,20.81c1.1,1.77.94,3.86-.34,4.66s-3.22,0-4.32-1.76-.95-3.86.34-4.65S32.49,19,33.59,20.81Z"/><path id="_Path_21" data-name="&lt;Path&gt;" class="cls-9" d="M14.41,20.81c-1.1,1.77-.94,3.86.34,4.66s3.22,0,4.32-1.76.95-3.86-.34-4.65S15.51,19,14.41,20.81Z"/><line id="_Path_22" data-name="&lt;Path&gt;" class="cls-4" x1="31.11" y1="29.16" x2="36.53" y2="28.34"/><line id="_Path_23" data-name="&lt;Path&gt;" class="cls-4" x1="31.11" y1="31.62" x2="36.53" y2="32.37"/><line id="_Path_24" data-name="&lt;Path&gt;" class="cls-4" x1="16.89" y1="29.16" x2="11.47" y2="28.34"/><line id="_Path_25" data-name="&lt;Path&gt;" class="cls-4" x1="16.89" y1="31.62" x2="11.47" y2="32.37"/><path id="_Path_26" data-name="&lt;Path&gt;" class="cls-10" d="M14.4,40.69a.79.79,0,0,1-.78.67H9.05a.78.78,0,0,1-.63-.31.8.8,0,0,1-.13-.7C9.34,36.66,8,30.81,5.92,27.13c-1.2-2.08,1.37-2,2.4-1.45C15.36,30.52,14.76,38.36,14.4,40.69Z"/><path id="_Path_27" data-name="&lt;Path&gt;" class="cls-10" d="M33.6,40.69a.79.79,0,0,0,.78.67H39a.78.78,0,0,0,.63-.31.8.8,0,0,0,.13-.7c-1.05-3.69.27-9.54,2.37-13.22,1.2-2.08-1.37-2-2.4-1.45C32.64,30.52,33.24,38.36,33.6,40.69Z"/></svg>