<svg id="Icons" xmlns="http://www.w3.org/2000/svg" viewBox="0 0 48 48"><defs><style>.cls-1,.cls-3{fill:#b89558;}.cls-1,.cls-10,.cls-11,.cls-12,.cls-2,.cls-6,.cls-8,.cls-9{stroke:#45413c;}.cls-1,.cls-11,.cls-12,.cls-2,.cls-6,.cls-8{stroke-linecap:round;stroke-linejoin:round;}.cls-2{fill:#ffb0ca;}.cls-4{fill:#f7e5c6;}.cls-12,.cls-5{fill:#debb7e;}.cls-6{fill:none;}.cls-7,.cls-8{fill:#45413c;}.cls-7{opacity:0.15;}.cls-9{fill:#947746;}.cls-10,.cls-9{stroke-miterlimit:10;}.cls-10{fill:#ff866e;}.cls-11{fill:#fff5e3;}</style></defs><title>106-hear-no-evil-monkey</title><g id="_Group_" data-name="&lt;Group&gt;"><circle id="_Ellipse_" data-name="&lt;Ellipse&gt;" class="cls-1" cx="35.71" cy="17.81" r="5.85"/><circle id="_Ellipse_2" data-name="&lt;Ellipse&gt;" class="cls-2" cx="36.09" cy="18.48" r="3.72"/><circle id="_Ellipse_3" data-name="&lt;Ellipse&gt;" class="cls-1" cx="12.29" cy="17.81" r="5.85"/><circle id="_Ellipse_4" data-name="&lt;Ellipse&gt;" class="cls-2" cx="11.91" cy="18.48" r="3.72"/><path id="_Path_" data-name="&lt;Path&gt;" class="cls-3" d="M37.06,21.78V15.56a13.06,13.06,0,0,0-26.12,0v6.22c-2.52,1.72-4,3.95-4,6.39,0,5.47,7.66,9.91,17.11,9.91s17.11-4.44,17.11-9.91C41.11,25.73,39.58,23.5,37.06,21.78Z"/><path id="_Path_2" data-name="&lt;Path&gt;" class="cls-4" d="M33.25,36.5a12.12,12.12,0,0,0,.66-14.91V13.76a5,5,0,1,0-9.91,0,5,5,0,1,0-9.91,0v7.83a12.12,12.12,0,0,0,.66,14.91A26.78,26.78,0,0,0,24,38.08,26.78,26.78,0,0,0,33.25,36.5Z"/><g id="_Group_2" data-name="&lt;Group&gt;"><path id="_Path_3" data-name="&lt;Path&gt;" class="cls-5" d="M24,5.65A13.06,13.06,0,0,1,37.06,18.71V15.56a13.06,13.06,0,0,0-26.12,0v3.15A13.06,13.06,0,0,1,24,5.65Z"/></g><path id="_Path_4" data-name="&lt;Path&gt;" class="cls-6" d="M37.06,21.78V15.56a13.06,13.06,0,0,0-26.12,0v6.22c-2.52,1.72-4,3.95-4,6.39,0,5.47,7.66,9.91,17.11,9.91s17.11-4.44,17.11-9.91C41.11,25.73,39.58,23.5,37.06,21.78Z"/><ellipse id="_Ellipse_5" data-name="&lt;Ellipse&gt;" class="cls-7" cx="24" cy="45.5" rx="16" ry="1.5"/><path id="_Path_5" data-name="&lt;Path&gt;" class="cls-6" d="M33.25,36.5a12.12,12.12,0,0,0,.66-14.91V13.76a5,5,0,1,0-9.91,0,5,5,0,1,0-9.91,0v7.83a12.12,12.12,0,0,0,.66,14.91A26.78,26.78,0,0,0,24,38.08,26.78,26.78,0,0,0,33.25,36.5Z"/><path id="_Path_6" data-name="&lt;Path&gt;" class="cls-8" d="M18.6,17.81a.9.9,0,1,0,.9-.9A.9.9,0,0,0,18.6,17.81Z"/><path id="_Path_7" data-name="&lt;Path&gt;" class="cls-8" d="M29.4,17.81a.9.9,0,1,1-.9-.9A.9.9,0,0,1,29.4,17.81Z"/><path id="_Path_8" data-name="&lt;Path&gt;" class="cls-9" d="M27.32,25.07c0,.91-1.49,2.31-3.32,2.31s-3.32-1.4-3.32-2.31,1.49-1.63,3.32-1.63S27.32,24.17,27.32,25.07Z"/><path id="_Path_9" data-name="&lt;Path&gt;" class="cls-10" d="M29.85,31.74c0,.66-2.62,2.33-5.85,2.33s-5.85-1.67-5.85-2.33,2.62-.3,5.85-.3S29.85,31.08,29.85,31.74Z"/><path id="_Path_10" data-name="&lt;Path&gt;" class="cls-11" d="M44.77,28.68l.42-2.09a16.38,16.38,0,0,0,.07-6.24h0A16.39,16.39,0,0,0,42.4,13.6l-3.64-5a1.74,1.74,0,0,0-1.71-.69h0a2.12,2.12,0,0,0-1.5,3.05l2.55,5h0A19.42,19.42,0,0,0,38,23.1l1.19,6.58Z"/><path id="_Path_11" data-name="&lt;Path&gt;" class="cls-12" d="M40.89,40.76h0a2.88,2.88,0,0,1-2.71-3l.57-10.1,2.8,1.29a1.11,1.11,0,0,0,.86,0L45,28,43.91,38.18A2.88,2.88,0,0,1,40.89,40.76Z"/><path id="_Path_12" data-name="&lt;Path&gt;" class="cls-11" d="M3.23,28.68l-.42-2.09a16.38,16.38,0,0,1-.07-6.24h0A16.39,16.39,0,0,1,5.6,13.6l3.64-5A1.74,1.74,0,0,1,11,7.86h0a2.12,2.12,0,0,1,1.5,3.05l-2.55,5h0A19.42,19.42,0,0,1,10,23.1L8.77,29.68Z"/><path id="_Path_13" data-name="&lt;Path&gt;" class="cls-12" d="M7.11,40.76h0a2.88,2.88,0,0,0,2.71-3l-.57-10.1-2.8,1.29a1.11,1.11,0,0,1-.86,0L3,28l1,10.21A2.88,2.88,0,0,0,7.11,40.76Z"/></g></svg>