<svg id="Icons" xmlns="http://www.w3.org/2000/svg" viewBox="0 0 48 48"><defs><style>.cls-1,.cls-3,.cls-5{fill:#b89558;}.cls-1,.cls-10,.cls-11,.cls-2,.cls-5,.cls-7,.cls-9{stroke:#45413c;}.cls-1,.cls-10,.cls-11,.cls-2,.cls-7,.cls-9{stroke-linecap:round;stroke-linejoin:round;}.cls-2{fill:#ffb0ca;}.cls-4{fill:#f7e5c6;}.cls-5{stroke-miterlimit:10;}.cls-10,.cls-6{fill:#debb7e;}.cls-7{fill:none;}.cls-11,.cls-8{fill:#45413c;}.cls-8{opacity:0.15;}.cls-9{fill:#fff5e3;}</style></defs><title>107-speak-no-evil-monkey</title><g id="_Group_" data-name="&lt;Group&gt;"><circle id="_Ellipse_" data-name="&lt;Ellipse&gt;" class="cls-1" cx="37" cy="18.5" r="6.5"/><circle id="_Ellipse_2" data-name="&lt;Ellipse&gt;" class="cls-2" cx="37" cy="18.5" r="4"/><circle id="_Ellipse_3" data-name="&lt;Ellipse&gt;" class="cls-1" cx="11" cy="18.5" r="6.5"/><circle id="_Ellipse_4" data-name="&lt;Ellipse&gt;" class="cls-2" cx="11" cy="18.5" r="4"/><path id="_Path_" data-name="&lt;Path&gt;" class="cls-3" d="M38.5,22.9V16a14.5,14.5,0,0,0-29,0v6.9C6.7,24.82,5,27.29,5,30c0,6.08,8.51,11,19,11s19-4.92,19-11C43,27.29,41.3,24.82,38.5,22.9Z"/><path id="_Path_2" data-name="&lt;Path&gt;" class="cls-4" d="M34.27,39.24A13.44,13.44,0,0,0,35,22.69V14a5.5,5.5,0,0,0-11,0,5.5,5.5,0,0,0-11,0v8.69a13.44,13.44,0,0,0,.73,16.55A29.49,29.49,0,0,0,24,41,29.49,29.49,0,0,0,34.27,39.24Z"/><path id="_Path_3" data-name="&lt;Path&gt;" class="cls-5" d="M34.27,39.24a13.54,13.54,0,0,0,2.39-4.05A27.81,27.81,0,0,1,24,38a27.81,27.81,0,0,1-12.66-2.81,13.54,13.54,0,0,0,2.39,4.05A29.86,29.86,0,0,0,24,41,29.86,29.86,0,0,0,34.27,39.24Z"/><g id="_Group_2" data-name="&lt;Group&gt;"><path id="_Path_4" data-name="&lt;Path&gt;" class="cls-6" d="M24,5A14.5,14.5,0,0,1,38.5,19.5V16a14.5,14.5,0,0,0-29,0v3.5A14.5,14.5,0,0,1,24,5Z"/></g><path id="_Path_5" data-name="&lt;Path&gt;" class="cls-7" d="M38.5,22.9V16a14.5,14.5,0,0,0-29,0v6.9C6.7,24.82,5,27.29,5,30c0,6.08,8.51,11,19,11s19-4.92,19-11C43,27.29,41.3,24.82,38.5,22.9Z"/><ellipse id="_Ellipse_5" data-name="&lt;Ellipse&gt;" class="cls-8" cx="24" cy="45.5" rx="16" ry="1.5"/><path id="_Path_6" data-name="&lt;Path&gt;" class="cls-7" d="M34.27,39.24A13.44,13.44,0,0,0,35,22.69V14a5.5,5.5,0,0,0-11,0,5.5,5.5,0,0,0-11,0v8.69a13.44,13.44,0,0,0,.73,16.55A29.49,29.49,0,0,0,24,41,29.49,29.49,0,0,0,34.27,39.24Z"/><g id="_Group_3" data-name="&lt;Group&gt;"><path id="_Path_7" data-name="&lt;Path&gt;" class="cls-9" d="M36,28.05l-1,3.76,6.4,7.41a4.7,4.7,0,1,1-7.12,6.14L28.81,39.1c-3.87-1.67-6.9-5.26-9.83-9.4a1.34,1.34,0,0,1-.14-1.54,1.33,1.33,0,0,1,1.93-.38l4.47,3.32L21,26.23a1.52,1.52,0,1,1,2.31-2l4.2,4.87-3.65-6.2a1.6,1.6,0,0,1,2.66-1.77l5.38,7.21.61-1.48a1.81,1.81,0,0,1,2.37-1A1.79,1.79,0,0,1,36,28.05Z"/><path id="_Path_8" data-name="&lt;Path&gt;" class="cls-10" d="M29.48,39.91l3.77.27-.47-3.49,3.72.81L36.76,34l4.56,5.28a4.69,4.69,0,1,1-7.1,6.14Z"/></g><g id="_Group_4" data-name="&lt;Group&gt;"><path id="_Path_9" data-name="&lt;Path&gt;" class="cls-9" d="M12,28.05l1,3.76-6.4,7.41a4.7,4.7,0,1,0,7.12,6.14l5.39-6.26c3.87-1.67,6.9-5.26,9.83-9.4a1.34,1.34,0,0,0,.14-1.54,1.33,1.33,0,0,0-1.93-.38L22.76,31.1,27,26.23a1.52,1.52,0,1,0-2.31-2l-4.2,4.87,3.65-6.2a1.6,1.6,0,0,0-2.66-1.77l-5.38,7.21-.61-1.48a1.81,1.81,0,0,0-2.37-1A1.79,1.79,0,0,0,12,28.05Z"/><path id="_Path_10" data-name="&lt;Path&gt;" class="cls-10" d="M18.52,39.91l-3.77.27.47-3.49-3.72.81L11.24,34,6.68,39.23a4.69,4.69,0,0,0,7.1,6.14Z"/></g><path id="_Path_11" data-name="&lt;Path&gt;" class="cls-11" d="M18,18.5a1,1,0,1,0,1-1A1,1,0,0,0,18,18.5Z"/><path id="_Path_12" data-name="&lt;Path&gt;" class="cls-11" d="M30,18.5a1,1,0,1,1-1-1A1,1,0,0,1,30,18.5Z"/></g></svg>