<svg id="Icons" xmlns="http://www.w3.org/2000/svg" viewBox="0 0 48 48"><defs><style>.cls-1,.cls-3{fill:#45413c;}.cls-1{opacity:0.15;}.cls-2{fill:#ffe500;}.cls-2,.cls-3,.cls-6{stroke:#45413c;stroke-linecap:round;stroke-linejoin:round;}.cls-4{fill:#ff6242;}.cls-5{fill:#ffa694;}.cls-6{fill:none;}.cls-7{fill:#ffaa54;}.cls-8{fill:#724f3d;}.cls-9{fill:#a86c4d;}</style></defs><title>111-boy-1</title><ellipse id="_Ellipse_" data-name="&lt;Ellipse&gt;" class="cls-1" cx="24" cy="44.5" rx="13.5" ry="1.5"/><path id="_Path_" data-name="&lt;Path&gt;" class="cls-2" d="M40.88,22.75a3.27,3.27,0,0,0-2.8-3.23C36.71,12.37,30.93,7,24,7S11.29,12.37,9.92,19.52a3.27,3.27,0,0,0,0,6.47C11.29,33.13,17.07,38.5,24,38.5S36.71,33.13,38.08,26A3.28,3.28,0,0,0,40.88,22.75Z"/><path id="_Path_2" data-name="&lt;Path&gt;" class="cls-3" d="M15.55,21.9a1.2,1.2,0,1,0,1.2-1.2A1.2,1.2,0,0,0,15.55,21.9Z"/><path id="_Path_3" data-name="&lt;Path&gt;" class="cls-3" d="M32.45,21.9a1.2,1.2,0,1,1-1.2-1.2A1.2,1.2,0,0,1,32.45,21.9Z"/><g id="_Group_" data-name="&lt;Group&gt;"><g id="_Group_2" data-name="&lt;Group&gt;"><path id="_Path_4" data-name="&lt;Path&gt;" class="cls-4" d="M19.59,29.2a.69.69,0,0,0-.52.24.68.68,0,0,0-.16.55,5.16,5.16,0,0,0,10.18,0,.68.68,0,0,0-.16-.55.69.69,0,0,0-.52-.24Z"/><path id="_Path_5" data-name="&lt;Path&gt;" class="cls-5" d="M24,31.32a6.29,6.29,0,0,0-3.92,1.2,5.21,5.21,0,0,0,7.84,0A6.29,6.29,0,0,0,24,31.32Z"/></g></g><g id="_Group_3" data-name="&lt;Group&gt;"><path id="_Path_6" data-name="&lt;Path&gt;" class="cls-6" d="M19.59,29.2a.69.69,0,0,0-.52.24.68.68,0,0,0-.16.55,5.16,5.16,0,0,0,10.18,0,.68.68,0,0,0-.16-.55.69.69,0,0,0-.52-.24Z"/></g><ellipse id="_Ellipse_2" data-name="&lt;Ellipse&gt;" class="cls-7" cx="14.76" cy="27.01" rx="1.55" ry="0.93"/><ellipse id="_Ellipse_3" data-name="&lt;Ellipse&gt;" class="cls-7" cx="33.24" cy="27.01" rx="1.55" ry="0.93"/><path id="_Path_7" data-name="&lt;Path&gt;" class="cls-8" d="M9.62,19.58a16.41,16.41,0,0,0,5.65-1.75,12.83,12.83,0,0,0,3.63-3v2.72a11.89,11.89,0,0,0,5.51-1.36,8.36,8.36,0,0,0,3.11-2.79,9.87,9.87,0,0,0,4.16,4.21,14.9,14.9,0,0,0,6.4,1.89V17.93a14.23,14.23,0,0,0-28.46,0Z"/><path id="_Path_8" data-name="&lt;Path&gt;" class="cls-9" d="M23.85,3.71A14.23,14.23,0,0,0,9.62,17.93v1.65h.13A14.23,14.23,0,0,1,38,19.51h.13V17.93A14.23,14.23,0,0,0,23.85,3.71Z"/><path id="_Path_9" data-name="&lt;Path&gt;" class="cls-6" d="M9.62,19.58a16.41,16.41,0,0,0,5.65-1.75,12.83,12.83,0,0,0,3.63-3v2.72a11.89,11.89,0,0,0,5.51-1.36,8.36,8.36,0,0,0,3.11-2.79,9.87,9.87,0,0,0,4.16,4.21,14.9,14.9,0,0,0,6.4,1.89V17.93a14.23,14.23,0,0,0-28.46,0Z"/></svg>