<svg id="Icons" xmlns="http://www.w3.org/2000/svg" viewBox="0 0 48 48"><defs><style>.cls-1{fill:#614b44;}.cls-2{fill:#947063;}.cls-3{fill:none;}.cls-3,.cls-5,.cls-6{stroke:#45413c;}.cls-3,.cls-6{stroke-linecap:round;stroke-linejoin:round;}.cls-4,.cls-6{fill:#45413c;}.cls-4{opacity:0.15;}.cls-5{fill:#d18660;stroke-miterlimit:10;}.cls-7{fill:#ff6242;}.cls-8{fill:#ffa694;}.cls-9{fill:#bd704a;}</style></defs><title>116-girl-3</title><path id="_Path_" data-name="&lt;Path&gt;" class="cls-1" d="M11.7,30.58a5.44,5.44,0,0,0-4.63,1.73C5.6,34,5.14,36.51,4,37.45A.8.8,0,0,0,4,38.7c3,2.35,6.29,2.37,8.58.24C15.11,36.58,16.8,32.06,11.7,30.58Z"/><path id="_Path_2" data-name="&lt;Path&gt;" class="cls-1" d="M36.31,30.58A5.46,5.46,0,0,1,41,32.31c1.46,1.72,1.92,4.2,3,5.14a.8.8,0,0,1,0,1.25c-3,2.35-6.29,2.37-8.57.24C32.91,36.58,31.22,32.06,36.31,30.58Z"/><path id="_Path_3" data-name="&lt;Path&gt;" class="cls-2" d="M4,38.7a9.06,9.06,0,0,0,1,.66,19,19,0,0,1,2.13-3.85,5.44,5.44,0,0,1,4.63-1.73,4.49,4.49,0,0,1,3,2.11c.79-2.1.35-4.35-3-5.31a5.44,5.44,0,0,0-4.63,1.73C5.6,34,5.14,36.51,4,37.45A.8.8,0,0,0,4,38.7Z"/><path id="_Path_4" data-name="&lt;Path&gt;" class="cls-2" d="M36.31,33.78A5.46,5.46,0,0,1,41,35.51a18.46,18.46,0,0,1,2.12,3.85,8.12,8.12,0,0,0,1-.66.8.8,0,0,0,0-1.25c-1.13-.94-1.59-3.42-3-5.14a5.46,5.46,0,0,0-4.64-1.73c-3.31,1-3.76,3.21-3,5.31A4.46,4.46,0,0,1,36.31,33.78Z"/><path id="_Path_5" data-name="&lt;Path&gt;" class="cls-3" d="M11.7,30.58a5.44,5.44,0,0,0-4.63,1.73C5.6,34,5.14,36.51,4,37.45A.8.8,0,0,0,4,38.7c3,2.35,6.29,2.37,8.58.24C15.11,36.58,16.8,32.06,11.7,30.58Z"/><path id="_Path_6" data-name="&lt;Path&gt;" class="cls-3" d="M36.31,30.58A5.46,5.46,0,0,1,41,32.31c1.46,1.72,1.92,4.2,3,5.14a.8.8,0,0,1,0,1.25c-3,2.35-6.29,2.37-8.57.24C32.91,36.58,31.22,32.06,36.31,30.58Z"/><ellipse id="_Ellipse_" data-name="&lt;Ellipse&gt;" class="cls-4" cx="24" cy="44.5" rx="13.5" ry="1.5"/><path id="_Path_7" data-name="&lt;Path&gt;" class="cls-5" d="M40.88,24.75a3.27,3.27,0,0,0-2.8-3.23C36.71,14.37,30.93,9,24,9S11.29,14.37,9.92,21.52a3.27,3.27,0,0,0,0,6.47C11.29,35.13,17.07,40.5,24,40.5S36.71,35.13,38.08,28A3.28,3.28,0,0,0,40.88,24.75Z"/><path id="_Path_8" data-name="&lt;Path&gt;" class="cls-6" d="M15.55,23.9a1.2,1.2,0,1,0,1.2-1.2A1.2,1.2,0,0,0,15.55,23.9Z"/><path id="_Path_9" data-name="&lt;Path&gt;" class="cls-6" d="M32.45,23.9a1.2,1.2,0,1,1-1.2-1.2A1.2,1.2,0,0,1,32.45,23.9Z"/><g id="_Group_" data-name="&lt;Group&gt;"><g id="_Group_2" data-name="&lt;Group&gt;"><path id="_Path_10" data-name="&lt;Path&gt;" class="cls-7" d="M19.59,31.2a.69.69,0,0,0-.52.24.68.68,0,0,0-.16.55,5.16,5.16,0,0,0,10.18,0,.68.68,0,0,0-.16-.55.69.69,0,0,0-.52-.24Z"/><path id="_Path_11" data-name="&lt;Path&gt;" class="cls-8" d="M24,33.32a6.29,6.29,0,0,0-3.92,1.2,5.21,5.21,0,0,0,7.84,0A6.29,6.29,0,0,0,24,33.32Z"/></g></g><g id="_Group_3" data-name="&lt;Group&gt;"><path id="_Path_12" data-name="&lt;Path&gt;" class="cls-3" d="M19.59,31.2a.69.69,0,0,0-.52.24.68.68,0,0,0-.16.55,5.16,5.16,0,0,0,10.18,0,.68.68,0,0,0-.16-.55.69.69,0,0,0-.52-.24Z"/></g><ellipse id="_Ellipse_2" data-name="&lt;Ellipse&gt;" class="cls-9" cx="14.76" cy="29.01" rx="1.55" ry="0.93"/><ellipse id="_Ellipse_3" data-name="&lt;Ellipse&gt;" class="cls-9" cx="33.24" cy="29.01" rx="1.55" ry="0.93"/><path id="_Path_13" data-name="&lt;Path&gt;" class="cls-1" d="M24,14.26a15.68,15.68,0,0,0,13,7.23,8.17,8.17,0,0,1,2.18.42V19.75a15.21,15.21,0,1,0-30.42,0v2.16A7.52,7.52,0,0,1,11,21.49,15.68,15.68,0,0,0,24,14.26Z"/><path class="cls-2" d="M24,4.54A15.21,15.21,0,0,0,8.8,19.75v2.16l.11,0a15.21,15.21,0,0,1,30.2,0l.11,0V19.75A15.21,15.21,0,0,0,24,4.54Z"/><path id="_Path_14" data-name="&lt;Path&gt;" class="cls-3" d="M24,14.26a15.68,15.68,0,0,0,13,7.23,8.17,8.17,0,0,1,2.18.42V19.75a15.21,15.21,0,1,0-30.42,0v2.16A7.52,7.52,0,0,1,11,21.49,15.68,15.68,0,0,0,24,14.26Z"/></svg>