<svg id="Icons" xmlns="http://www.w3.org/2000/svg" viewBox="0 0 48 48"><defs><style>.cls-1,.cls-6{fill:#45413c;}.cls-1{opacity:0.15;}.cls-2{fill:#a86c4d;}.cls-3{fill:#de926a;}.cls-4{fill:none;}.cls-4,.cls-5,.cls-6{stroke:#45413c;stroke-linecap:round;stroke-linejoin:round;}.cls-5{fill:#ffcebf;}.cls-7{fill:#ff6242;}.cls-8{fill:#ffa694;}.cls-9{fill:#ffb59e;}</style></defs><title>118-man-2</title><ellipse id="_Ellipse_" data-name="&lt;Ellipse&gt;" class="cls-1" cx="24" cy="44.5" rx="12.5" ry="1.5"/><g id="_Group_" data-name="&lt;Group&gt;"><path id="_Path_" data-name="&lt;Path&gt;" class="cls-2" d="M24,5.23a14.27,14.27,0,0,0-3.55.45c-2.71.61-6.23,1.63-9.41,1a6.11,6.11,0,0,0,1.21,4.68A14.28,14.28,0,0,0,9.7,19.53V27H38.3V19.53A14.3,14.3,0,0,0,24,5.23Z"/><g id="_Group_2" data-name="&lt;Group&gt;"><path id="_Path_2" data-name="&lt;Path&gt;" class="cls-3" d="M24,5.23a14.27,14.27,0,0,0-3.55.45c-2.71.61-6.23,1.63-9.41,1a6.83,6.83,0,0,0,.48,3.46c3.05.43,6.36-.52,8.93-1.1A14.29,14.29,0,0,1,38.3,22.91V19.53A14.3,14.3,0,0,0,24,5.23Z"/></g><path id="_Path_3" data-name="&lt;Path&gt;" class="cls-4" d="M24,5.23a14.27,14.27,0,0,0-3.55.45c-2.71.61-6.23,1.63-9.41,1a6.11,6.11,0,0,0,1.21,4.68A14.28,14.28,0,0,0,9.7,19.53V27H38.3V19.53A14.3,14.3,0,0,0,24,5.23Z"/><path id="_Path_4" data-name="&lt;Path&gt;" class="cls-5" d="M39.82,25.92a2.69,2.69,0,0,0-2-2.25l-.86-.23a3,3,0,0,1-2.18-2.88v-3a2.71,2.71,0,0,0-2-2.62A22.54,22.54,0,0,1,24,16.51a22.52,22.52,0,0,1-8.71-1.58,2.7,2.7,0,0,0-2,2.62v3.63a2.34,2.34,0,0,1-2.32,2.33,2.74,2.74,0,0,0-2.74,2.2,2.64,2.64,0,0,0,2.61,3.07H11a13.17,13.17,0,0,0,26.06,0h.16A2.63,2.63,0,0,0,39.82,25.92Z"/><path id="_Path_5" data-name="&lt;Path&gt;" class="cls-6" d="M16.09,25.61a1.13,1.13,0,1,0,1.12-1.12A1.12,1.12,0,0,0,16.09,25.61Z"/><path id="_Path_6" data-name="&lt;Path&gt;" class="cls-6" d="M31.91,25.61a1.13,1.13,0,1,1-1.12-1.12A1.12,1.12,0,0,1,31.91,25.61Z"/><g id="_Group_3" data-name="&lt;Group&gt;"><g id="_Group_4" data-name="&lt;Group&gt;"><path id="_Path_7" data-name="&lt;Path&gt;" class="cls-7" d="M19.87,32.45a.66.66,0,0,0-.49.22.65.65,0,0,0-.14.52,4.83,4.83,0,0,0,9.52,0,.65.65,0,0,0-.14-.52.66.66,0,0,0-.49-.22Z"/><path id="_Path_8" data-name="&lt;Path&gt;" class="cls-8" d="M24,34.43a5.92,5.92,0,0,0-3.67,1.12,4.87,4.87,0,0,0,7.34,0A5.92,5.92,0,0,0,24,34.43Z"/></g></g><g id="_Group_5" data-name="&lt;Group&gt;"><path id="_Path_9" data-name="&lt;Path&gt;" class="cls-4" d="M19.87,32.45a.66.66,0,0,0-.49.22.65.65,0,0,0-.14.52,4.83,4.83,0,0,0,9.52,0,.65.65,0,0,0-.14-.52.66.66,0,0,0-.49-.22Z"/></g><ellipse id="_Ellipse_2" data-name="&lt;Ellipse&gt;" class="cls-9" cx="15.35" cy="30.39" rx="1.46" ry="0.87"/><ellipse id="_Ellipse_3" data-name="&lt;Ellipse&gt;" class="cls-9" cx="32.65" cy="30.39" rx="1.46" ry="0.87"/></g></svg>