<svg id="Icons" xmlns="http://www.w3.org/2000/svg" viewBox="0 0 48 48"><defs><style>.cls-1{fill:#e0e0e0;}.cls-2{fill:#fff;}.cls-3{fill:none;}.cls-3,.cls-6{stroke:#45413c;stroke-linecap:round;stroke-linejoin:round;}.cls-4,.cls-6{fill:#45413c;}.cls-4{opacity:0.15;}.cls-5{fill:#ffcebf;}.cls-7{fill:#ff6242;}.cls-8{fill:#ffa694;}.cls-9{fill:#ffb59e;}</style></defs><title>124-old-woman-2</title><ellipse id="_Path_" data-name="&lt;Path&gt;" class="cls-1" cx="24" cy="6.19" rx="6.58" ry="5.69"/><path id="_Path_2" data-name="&lt;Path&gt;" class="cls-2" d="M24,2.75c3.19,0,5.85,2,6.45,4.56a4.64,4.64,0,0,0,.13-1.12C30.58,3.05,27.64.5,24,.5s-6.58,2.55-6.58,5.69a4.64,4.64,0,0,0,.13,1.12C18.15,4.71,20.81,2.75,24,2.75Z"/><ellipse id="_Path_3" data-name="&lt;Path&gt;" class="cls-3" cx="24" cy="6.19" rx="6.58" ry="5.69"/><ellipse id="_Ellipse_" data-name="&lt;Ellipse&gt;" class="cls-4" cx="24" cy="44.5" rx="13.5" ry="1.5"/><path id="_Path_4" data-name="&lt;Path&gt;" class="cls-5" d="M40.88,24.25A3.27,3.27,0,0,0,38.08,21C36.71,13.87,30.93,8.51,24,8.51S11.29,13.87,9.92,21a3.27,3.27,0,0,0,0,6.47C11.29,34.63,17.07,40,24,40s12.71-5.37,14.08-12.51A3.28,3.28,0,0,0,40.88,24.25Z"/><path id="_Path_5" data-name="&lt;Path&gt;" class="cls-3" d="M40.88,24.25A3.27,3.27,0,0,0,38.08,21C36.71,13.87,30.93,8.51,24,8.51S11.29,13.87,9.92,21a3.27,3.27,0,0,0,0,6.47C11.29,34.63,17.07,40,24,40s12.71-5.37,14.08-12.51A3.28,3.28,0,0,0,40.88,24.25Z"/><path id="_Path_6" data-name="&lt;Path&gt;" class="cls-6" d="M15.55,23.4a1.2,1.2,0,1,0,1.2-1.2A1.2,1.2,0,0,0,15.55,23.4Z"/><path id="_Path_7" data-name="&lt;Path&gt;" class="cls-6" d="M32.45,23.4a1.2,1.2,0,1,1-1.2-1.2A1.2,1.2,0,0,1,32.45,23.4Z"/><g id="_Group_" data-name="&lt;Group&gt;"><g id="_Group_2" data-name="&lt;Group&gt;"><path id="_Path_8" data-name="&lt;Path&gt;" class="cls-7" d="M20.72,32a.51.51,0,0,0-.38.18.5.5,0,0,0-.12.41,3.83,3.83,0,0,0,7.56,0,.5.5,0,0,0-.12-.41.51.51,0,0,0-.38-.18Z"/><path id="_Path_9" data-name="&lt;Path&gt;" class="cls-8" d="M24,33.59a4.69,4.69,0,0,0-2.91.89,3.87,3.87,0,0,0,5.82,0A4.69,4.69,0,0,0,24,33.59Z"/></g></g><g id="_Group_3" data-name="&lt;Group&gt;"><path id="_Path_10" data-name="&lt;Path&gt;" class="cls-3" d="M20.72,32a.51.51,0,0,0-.38.18.5.5,0,0,0-.12.41,3.83,3.83,0,0,0,7.56,0,.5.5,0,0,0-.12-.41.51.51,0,0,0-.38-.18Z"/></g><ellipse id="_Ellipse_2" data-name="&lt;Ellipse&gt;" class="cls-9" cx="14.76" cy="28.51" rx="1.55" ry="0.93"/><ellipse id="_Ellipse_3" data-name="&lt;Ellipse&gt;" class="cls-9" cx="33.24" cy="28.51" rx="1.55" ry="0.93"/><path id="_Path_11" data-name="&lt;Path&gt;" class="cls-3" d="M19.63,19A15.12,15.12,0,0,1,24,18.49a15.12,15.12,0,0,1,4.37.54"/><path id="_Path_12" data-name="&lt;Path&gt;" class="cls-3" d="M20.21,16.76A16,16,0,0,1,24,16.38a16,16,0,0,1,3.79.38"/><path class="cls-1" d="M24,4.92A15.62,15.62,0,0,0,8.38,20.55v1.12A3,3,0,0,0,11,19.5,10.51,10.51,0,0,1,19.08,14,7.41,7.41,0,0,0,24,10.92,7.41,7.41,0,0,0,28.92,14,10.51,10.51,0,0,1,37,19.5a3,3,0,0,0,2.62,2.17V20.55A15.62,15.62,0,0,0,24,4.92Z"/><path id="_Path_13" data-name="&lt;Path&gt;" class="cls-2" d="M24,4.92A15.62,15.62,0,0,0,8.38,20.55v1.12l.14-.06a15.61,15.61,0,0,1,31,0l.14.06V20.55A15.62,15.62,0,0,0,24,4.92Z"/><path class="cls-3" d="M24,4.92A15.62,15.62,0,0,0,8.38,20.55v1.12A3,3,0,0,0,11,19.5,10.51,10.51,0,0,1,19.08,14,7.41,7.41,0,0,0,24,10.92,7.41,7.41,0,0,0,28.92,14,10.51,10.51,0,0,1,37,19.5a3,3,0,0,0,2.62,2.17V20.55A15.62,15.62,0,0,0,24,4.92Z"/></svg>