<svg id="Icons" xmlns="http://www.w3.org/2000/svg" viewBox="0 0 48 48"><defs><style>.cls-1,.cls-12{fill:#45413c;}.cls-1{opacity:0.15;}.cls-2{fill:#fff;}.cls-3{fill:#e0e0e0;}.cls-4{fill:none;}.cls-11,.cls-12,.cls-15,.cls-17,.cls-4,.cls-5,.cls-6{stroke:#45413c;stroke-linecap:round;stroke-linejoin:round;}.cls-5{fill:#f0f0f0;}.cls-6{fill:#00dfeb;}.cls-11,.cls-7{fill:#ffcebf;}.cls-8{fill:#ffb59e;}.cls-9{fill:#a86c4d;}.cls-10{fill:#de926a;}.cls-13{fill:#ff6242;}.cls-14{fill:#ffa694;}.cls-15{fill:#87898c;}.cls-16{fill:#ffdcd1;}.cls-17{fill:#c0dceb;}.cls-18{fill:#e8f4fa;}</style></defs><title>126-man-health-worker-2</title><ellipse id="_Ellipse_" data-name="&lt;Ellipse&gt;" class="cls-1" cx="24" cy="45.5" rx="15" ry="1.5"/><path id="_Rectangle_" data-name="&lt;Rectangle&gt;" class="cls-2" d="M24,31.22h0A11.88,11.88,0,0,1,35.88,43.1V45a0,0,0,0,1,0,0H12.12a0,0,0,0,1,0,0V43.1A11.88,11.88,0,0,1,24,31.22Z"/><path id="_Path_" data-name="&lt;Path&gt;" class="cls-3" d="M24,31.22h0A11.88,11.88,0,0,0,12.12,43.1V45h.05A11.87,11.87,0,0,1,24,34h0A11.88,11.88,0,0,1,35.84,45h0V43.1A11.88,11.88,0,0,0,24,31.22Z"/><path id="_Rectangle_2" data-name="&lt;Rectangle&gt;" class="cls-4" d="M24,31.22h0A11.88,11.88,0,0,1,35.88,43.1V45a0,0,0,0,1,0,0H12.12a0,0,0,0,1,0,0V43.1A11.88,11.88,0,0,1,24,31.22Z"/><path id="_Path_2" data-name="&lt;Path&gt;" class="cls-5" d="M20.25,45l-2-5.29,1.21-1.6-1.11-.53a13.06,13.06,0,0,1,.06-3.75C18.6,32.34,19.29,30,24,30s5.41,2.3,5.63,3.79a13,13,0,0,1,.06,3.75l-1.11.53,1.21,1.6-2,5.29Z"/><path id="_Path_3" data-name="&lt;Path&gt;" class="cls-6" d="M26.54,31.5a11.66,11.66,0,0,0-5.08,0v1.07c0,7.84.16,12.43.16,12.43h4.76s.16-4.59.16-12.43Z"/><path id="_Path_4" data-name="&lt;Path&gt;" class="cls-7" d="M24,35.86h0c-1.41,0-2.54-1.89-2.54-3.29V29.72A2.54,2.54,0,0,1,24,27.17h0a2.54,2.54,0,0,1,2.54,2.55v2.85C26.54,34,25.41,35.86,24,35.86Z"/><path id="_Path_5" data-name="&lt;Path&gt;" class="cls-8" d="M24,27.69a2.54,2.54,0,0,0-2.54,2.55v.59a2.54,2.54,0,1,0,5.08,0v-.59A2.54,2.54,0,0,0,24,27.69Z"/><path id="_Path_6" data-name="&lt;Path&gt;" class="cls-4" d="M24,35.86h0c-1.41,0-2.54-1.89-2.54-3.29V29.72A2.54,2.54,0,0,1,24,27.17h0a2.54,2.54,0,0,1,2.54,2.55v2.85C26.54,34,25.41,35.86,24,35.86Z"/><line id="_Path_7" data-name="&lt;Path&gt;" class="cls-4" x1="17.06" y1="45" x2="17.06" y2="42.59"/><line id="_Path_8" data-name="&lt;Path&gt;" class="cls-4" x1="30.94" y1="45" x2="30.94" y2="42.59"/><path id="_Path_9" data-name="&lt;Path&gt;" class="cls-9" d="M24,6.91a9.83,9.83,0,0,0-2.44.31c-1.86.42-4.28,1.12-6.47.7a4.2,4.2,0,0,0,.84,3.21,9.81,9.81,0,0,0-1.75,5.6v5.14H33.82V16.73A9.82,9.82,0,0,0,24,6.91Z"/><g id="_Group_" data-name="&lt;Group&gt;"><path id="_Path_10" data-name="&lt;Path&gt;" class="cls-10" d="M24,6.91a9.83,9.83,0,0,0-2.44.31c-1.86.42-4.28,1.12-6.47.7a4.47,4.47,0,0,0,.68,3,19.4,19.4,0,0,0,5.79-.79,9.81,9.81,0,0,1,12.26,9.51V16.73A9.82,9.82,0,0,0,24,6.91Z"/></g><path id="_Path_11" data-name="&lt;Path&gt;" class="cls-4" d="M24,6.91a9.83,9.83,0,0,0-2.44.31c-1.86.42-4.28,1.12-6.47.7a4.2,4.2,0,0,0,.84,3.21,9.81,9.81,0,0,0-1.75,5.6v5.14H33.82V16.73A9.82,9.82,0,0,0,24,6.91Z"/><path class="cls-11" d="M34.87,21.12a1.83,1.83,0,0,0-1.39-1.54l-.59-.16a2.06,2.06,0,0,1-1.5-2V15.38A1.88,1.88,0,0,0,30,13.57a15.34,15.34,0,0,1-6,1.09,15.34,15.34,0,0,1-6-1.09,1.88,1.88,0,0,0-1.4,1.81v2.06a2.06,2.06,0,0,1-1.5,2l-.59.16a1.83,1.83,0,0,0-1.39,1.54,1.81,1.81,0,0,0,1.81,2h.11a9,9,0,0,0,17.9,0h.12A1.81,1.81,0,0,0,34.87,21.12Z"/><path id="_Path_12" data-name="&lt;Path&gt;" class="cls-12" d="M18.57,20.91a.77.77,0,1,0,.77-.77A.76.76,0,0,0,18.57,20.91Z"/><path id="_Path_13" data-name="&lt;Path&gt;" class="cls-12" d="M29.43,20.91a.77.77,0,1,1-.77-.77A.76.76,0,0,1,29.43,20.91Z"/><g id="_Group_2" data-name="&lt;Group&gt;"><g id="_Group_3" data-name="&lt;Group&gt;"><g id="_Group_4" data-name="&lt;Group&gt;"><g id="_Group_5" data-name="&lt;Group&gt;"><g id="_Group_6" data-name="&lt;Group&gt;"><g id="_Group_7" data-name="&lt;Group&gt;"><g id="_Group_8" data-name="&lt;Group&gt;"><path id="_Path_14" data-name="&lt;Path&gt;" class="cls-13" d="M21.16,25.6a.44.44,0,0,0-.33.16.42.42,0,0,0-.1.35,3.32,3.32,0,0,0,6.54,0,.42.42,0,0,0-.1-.35.42.42,0,0,0-.33-.16Z"/><path id="_Path_15" data-name="&lt;Path&gt;" class="cls-14" d="M24,27a4,4,0,0,0-2.52.77,3.36,3.36,0,0,0,5,0A4,4,0,0,0,24,27Z"/></g></g></g></g></g></g></g><g id="_Group_9" data-name="&lt;Group&gt;"><path id="_Path_16" data-name="&lt;Path&gt;" class="cls-4" d="M21.16,25.6a.44.44,0,0,0-.33.16.42.42,0,0,0-.1.35,3.32,3.32,0,0,0,6.54,0,.42.42,0,0,0-.1-.35.42.42,0,0,0-.33-.16Z"/></g><ellipse id="_Ellipse_2" data-name="&lt;Ellipse&gt;" class="cls-8" cx="18.06" cy="24.19" rx="1" ry="0.6"/><ellipse id="_Ellipse_3" data-name="&lt;Ellipse&gt;" class="cls-8" cx="29.94" cy="24.19" rx="1" ry="0.6"/><path id="_Path_17" data-name="&lt;Path&gt;" class="cls-4" d="M34.69,22.07c1.43,0,1.88,1.1.6,7.59-1.58,8-4.73,8.67-11.29,8.67s-9.71-.65-11.29-8.67c-1.28-6.49-.83-7.59.6-7.59"/><rect id="_Rectangle_3" data-name="&lt;Rectangle&gt;" class="cls-15" x="13.18" y="21.09" width="1.84" height="1.96"/><rect id="_Rectangle_4" data-name="&lt;Rectangle&gt;" class="cls-15" x="32.99" y="21.09" width="1.84" height="1.96" transform="translate(67.81 44.14) rotate(-180)"/><path id="_Path_18" data-name="&lt;Path&gt;" class="cls-15" d="M26.31,37.39H21.69a.5.5,0,0,0-.5.5v.88a.5.5,0,0,0,.5.5h1.39V45h1.84V39.27h1.39a.5.5,0,0,0,.5-.5v-.88A.5.5,0,0,0,26.31,37.39Z"/><path class="cls-7" d="M37.34,38.08a1.54,1.54,0,0,0-1.53-1.35.79.79,0,0,0-.79.79v5.14A2.34,2.34,0,0,0,37.36,45h1.69V38.08Z"/><path id="_Path_19" data-name="&lt;Path&gt;" class="cls-16" d="M35.81,36.73a.79.79,0,0,0-.79.79v1.92a.79.79,0,0,1,.79-.79,1.55,1.55,0,0,1,1.55,1.54V38.27A1.55,1.55,0,0,0,35.81,36.73Z"/><path class="cls-4" d="M37.34,38.08a1.54,1.54,0,0,0-1.53-1.35.79.79,0,0,0-.79.79v5.14A2.34,2.34,0,0,0,37.36,45h1.69V38.08Z"/><rect id="_Rectangle_5" data-name="&lt;Rectangle&gt;" class="cls-7" x="36.88" y="38.08" width="4.33" height="2.31" rx="1.15" ry="1.15"/><path id="_Path_20" data-name="&lt;Path&gt;" class="cls-16" d="M38,39.24h2a1.12,1.12,0,0,1,1,.57,1.13,1.13,0,0,0,.18-.57,1.16,1.16,0,0,0-1.16-1.16H38a1.16,1.16,0,0,0-1.16,1.16,1.13,1.13,0,0,0,.18.57A1.12,1.12,0,0,1,38,39.24Z"/><rect id="_Rectangle_6" data-name="&lt;Rectangle&gt;" class="cls-4" x="36.88" y="38.08" width="4.33" height="2.31" rx="1.15" ry="1.15"/><rect id="_Rectangle_7" data-name="&lt;Rectangle&gt;" class="cls-11" x="36.88" y="40.39" width="4.33" height="2.31" rx="1.15" ry="1.15"/><rect id="_Rectangle_8" data-name="&lt;Rectangle&gt;" class="cls-11" x="36.88" y="42.69" width="4.33" height="2.31" rx="1.15" ry="1.15"/><circle id="_Path_21" data-name="&lt;Path&gt;" class="cls-17" cx="38.32" cy="35" r="2.87"/><circle id="_Path_22" data-name="&lt;Path&gt;" class="cls-18" cx="38.32" cy="35" r="1.44"/></svg>