<svg id="Icons" xmlns="http://www.w3.org/2000/svg" viewBox="0 0 48 48"><defs><style>.cls-1{fill:#a86c4d;}.cls-2{fill:#de926a;}.cls-3{fill:none;}.cls-11,.cls-12,.cls-18,.cls-3,.cls-7,.cls-8{stroke:#45413c;stroke-linecap:round;stroke-linejoin:round;}.cls-12,.cls-4{fill:#45413c;}.cls-4{opacity:0.15;}.cls-5{fill:#fff;}.cls-6{fill:#e0e0e0;}.cls-7{fill:#f0f0f0;}.cls-8{fill:#00dfeb;}.cls-11,.cls-9{fill:#ffcebf;}.cls-10{fill:#ffb59e;}.cls-13{fill:#ff6242;}.cls-14{fill:#ffa694;}.cls-15{fill:#ffdcd1;}.cls-16{fill:#80ddff;}.cls-17,.cls-18{fill:#ff6196;}</style></defs><title>128-woman-health-worker-2</title><path id="_Path_" data-name="&lt;Path&gt;" class="cls-1" d="M16.38,6.32A10.88,10.88,0,0,1,27.26,17.19V31.38a1.24,1.24,0,0,1-.77,1.14h0a27.09,27.09,0,0,1-20.22,0h0a1.23,1.23,0,0,1-.77-1.14V17.19A10.88,10.88,0,0,1,16.38,6.32Z"/><path id="_Path_2" data-name="&lt;Path&gt;" class="cls-2" d="M16.38,6.32A10.88,10.88,0,0,0,5.5,17.19v3a10.88,10.88,0,0,1,21.76,0v-3A10.88,10.88,0,0,0,16.38,6.32Z"/><path id="_Path_3" data-name="&lt;Path&gt;" class="cls-3" d="M16.38,6.32A10.88,10.88,0,0,1,27.26,17.19V31.38a1.24,1.24,0,0,1-.77,1.14h0a27.09,27.09,0,0,1-20.22,0h0a1.23,1.23,0,0,1-.77-1.14V17.19A10.88,10.88,0,0,1,16.38,6.32Z"/><ellipse id="_Ellipse_" data-name="&lt;Ellipse&gt;" class="cls-4" cx="16.38" cy="45.5" rx="15" ry="1.5"/><path id="_Rectangle_" data-name="&lt;Rectangle&gt;" class="cls-5" d="M16.38,31.22h0A11.88,11.88,0,0,1,28.26,43.1V45a0,0,0,0,1,0,0H4.5a0,0,0,0,1,0,0V43.1A11.88,11.88,0,0,1,16.38,31.22Z"/><path id="_Path_4" data-name="&lt;Path&gt;" class="cls-6" d="M16.38,31.22h0A11.88,11.88,0,0,0,4.5,43.1V45h0A11.88,11.88,0,0,1,16.38,34h0A11.87,11.87,0,0,1,28.21,45h.05V43.1A11.88,11.88,0,0,0,16.38,31.22Z"/><path id="_Rectangle_2" data-name="&lt;Rectangle&gt;" class="cls-3" d="M16.38,31.22h0A11.88,11.88,0,0,1,28.26,43.1V45a0,0,0,0,1,0,0H4.5a0,0,0,0,1,0,0V43.1A11.88,11.88,0,0,1,16.38,31.22Z"/><path id="_Path_5" data-name="&lt;Path&gt;" class="cls-7" d="M12.63,45l-2-5.29,1.2-1.6-1.1-.53a13.25,13.25,0,0,1,.05-3.75C11,32.34,11.67,30,16.38,30s5.41,2.3,5.63,3.79a13,13,0,0,1,.06,3.75L21,38.11l1.21,1.6-2,5.29Z"/><path id="_Path_6" data-name="&lt;Path&gt;" class="cls-8" d="M18.92,31.5a11.71,11.71,0,0,0-5.09,0v1.07A46.11,46.11,0,0,0,15.25,45H17.5a46.11,46.11,0,0,0,1.42-12.43Z"/><path id="_Path_7" data-name="&lt;Path&gt;" class="cls-9" d="M16.38,35.86h0c-1.41,0-2.55-1.89-2.55-3.29V29.72a2.55,2.55,0,0,1,2.55-2.55h0a2.55,2.55,0,0,1,2.54,2.55v2.85C18.92,34,17.78,35.86,16.38,35.86Z"/><path id="_Path_8" data-name="&lt;Path&gt;" class="cls-10" d="M16.38,27.69a2.55,2.55,0,0,0-2.55,2.55v.59a2.55,2.55,0,1,0,5.09,0v-.59A2.55,2.55,0,0,0,16.38,27.69Z"/><path id="_Path_9" data-name="&lt;Path&gt;" class="cls-3" d="M16.38,35.86h0c-1.41,0-2.55-1.89-2.55-3.29V29.72a2.55,2.55,0,0,1,2.55-2.55h0a2.55,2.55,0,0,1,2.54,2.55v2.85C18.92,34,17.78,35.86,16.38,35.86Z"/><line id="_Path_10" data-name="&lt;Path&gt;" class="cls-3" x1="9.44" y1="45" x2="9.44" y2="42.59"/><line id="_Path_11" data-name="&lt;Path&gt;" class="cls-3" x1="23.32" y1="45" x2="23.32" y2="42.59"/><g id="_Group_" data-name="&lt;Group&gt;"><path id="_Path_12" data-name="&lt;Path&gt;" class="cls-11" d="M25.44,19.47a8.77,8.77,0,0,1-5.67-5L19.15,13A15.92,15.92,0,0,1,9.2,19.13l-1.89.34a1.81,1.81,0,0,0,0,3.62h.11a9.05,9.05,0,0,0,17.91,0h.11a1.81,1.81,0,1,0,0-3.62Z"/></g><path id="_Path_13" data-name="&lt;Path&gt;" class="cls-12" d="M10.94,20.91a.78.78,0,1,0,.78-.77A.77.77,0,0,0,10.94,20.91Z"/><path id="_Path_14" data-name="&lt;Path&gt;" class="cls-12" d="M21.81,20.91a.77.77,0,1,1-.77-.77A.76.76,0,0,1,21.81,20.91Z"/><g id="_Group_2" data-name="&lt;Group&gt;"><g id="_Group_3" data-name="&lt;Group&gt;"><g id="_Group_4" data-name="&lt;Group&gt;"><g id="_Group_5" data-name="&lt;Group&gt;"><g id="_Group_6" data-name="&lt;Group&gt;"><g id="_Group_7" data-name="&lt;Group&gt;"><g id="_Group_8" data-name="&lt;Group&gt;"><path id="_Path_15" data-name="&lt;Path&gt;" class="cls-13" d="M13.54,25.6a.42.42,0,0,0-.33.16.46.46,0,0,0-.11.35,3.32,3.32,0,0,0,6.55,0,.45.45,0,0,0-.1-.35.44.44,0,0,0-.34-.16Z"/><path id="_Path_16" data-name="&lt;Path&gt;" class="cls-14" d="M16.38,27a4,4,0,0,0-2.52.77,3.36,3.36,0,0,0,5,0A4,4,0,0,0,16.38,27Z"/></g></g></g></g></g></g></g><g id="_Group_9" data-name="&lt;Group&gt;"><path id="_Path_17" data-name="&lt;Path&gt;" class="cls-3" d="M13.54,25.6a.42.42,0,0,0-.33.16.46.46,0,0,0-.11.35,3.32,3.32,0,0,0,6.55,0,.45.45,0,0,0-.1-.35.44.44,0,0,0-.34-.16Z"/></g><ellipse id="_Ellipse_2" data-name="&lt;Ellipse&gt;" class="cls-10" cx="10.44" cy="24.19" rx="1" ry="0.6"/><ellipse id="_Ellipse_3" data-name="&lt;Ellipse&gt;" class="cls-10" cx="22.32" cy="24.19" rx="1" ry="0.6"/><path id="_Path_18" data-name="&lt;Path&gt;" class="cls-9" d="M24.42,36.26l-.36,3.67a3.93,3.93,0,0,0,2.31,4l1.8.83a3.08,3.08,0,0,0,4.23-1.86l1.23-3-6.7-2.68-.47,1.19.08-1.09A1.45,1.45,0,0,0,25,35.67h0A.66.66,0,0,0,24.42,36.26Z"/><g id="_Group_10" data-name="&lt;Group&gt;"><path id="_Path_19" data-name="&lt;Path&gt;" class="cls-15" d="M24.42,37.67a.64.64,0,0,1,.62-.58,1.43,1.43,0,0,1,1.43,1l.07-.87A1.45,1.45,0,0,0,25,35.67a.66.66,0,0,0-.62.59l-.36,3.67a3.66,3.66,0,0,0,.05,1Z"/></g><path id="_Path_20" data-name="&lt;Path&gt;" class="cls-3" d="M24.42,36.26l-.36,3.67a3.93,3.93,0,0,0,2.31,4l1.8.83a3.08,3.08,0,0,0,4.23-1.86l1.23-3-6.7-2.68-.47,1.19.08-1.09A1.45,1.45,0,0,0,25,35.67h0A.66.66,0,0,0,24.42,36.26Z"/><g id="_Group_11" data-name="&lt;Group&gt;"><rect id="_Rectangle_3" data-name="&lt;Rectangle&gt;" class="cls-16" x="30.18" y="28.44" width="3.13" height="9.68" transform="translate(14.61 -9.4) rotate(21.77)"/><polygon id="_Path_21" data-name="&lt;Path&gt;" class="cls-17" points="30.77 31.52 28.5 37.2 31.41 38.36 34.14 31.52 30.77 31.52"/><rect id="_Rectangle_4" data-name="&lt;Rectangle&gt;" class="cls-3" x="30.18" y="28.44" width="3.13" height="9.68" transform="translate(14.61 -9.4) rotate(21.77)"/><rect id="_Rectangle_5" data-name="&lt;Rectangle&gt;" class="cls-7" x="33.16" y="25.97" width="1.84" height="2.92" transform="translate(12.61 -10.69) rotate(21.77)"/><line id="_Path_22" data-name="&lt;Path&gt;" class="cls-3" x1="34.63" y1="26.07" x2="36.06" y2="22.48"/><rect id="_Rectangle_6" data-name="&lt;Rectangle&gt;" class="cls-7" x="28.24" y="37.62" width="1.84" height="4.27" transform="translate(16.83 -7.98) rotate(21.77)"/><line id="_Path_23" data-name="&lt;Path&gt;" class="cls-3" x1="26.92" y1="36.57" x2="32.99" y2="38.99"/><line id="_Path_24" data-name="&lt;Path&gt;" class="cls-3" x1="26.67" y1="41.06" x2="30.07" y2="42.42"/></g><path id="_Rectangle_7" data-name="&lt;Rectangle&gt;" class="cls-9" d="M27.68,35h0a1.13,1.13,0,0,1,1.13,1.13V38a1.12,1.12,0,0,1-1.12,1.12h0A1.12,1.12,0,0,1,26.55,38V36.15A1.12,1.12,0,0,1,27.68,35Z" transform="translate(5.96 -3.78) rotate(8.75)"/><path id="_Path_25" data-name="&lt;Path&gt;" class="cls-15" d="M26.71,37.52A1.12,1.12,0,0,1,28,36.58a1.1,1.1,0,0,1,.81.6l.13-.85A1.12,1.12,0,0,0,26.71,36l-.28,1.85a1.07,1.07,0,0,0,.13.68Z"/><path id="_Rectangle_8" data-name="&lt;Rectangle&gt;" class="cls-3" d="M27.68,35h0a1.13,1.13,0,0,1,1.13,1.13V38a1.12,1.12,0,0,1-1.12,1.12h0A1.12,1.12,0,0,1,26.55,38V36.15A1.12,1.12,0,0,1,27.68,35Z" transform="translate(5.96 -3.78) rotate(8.75)"/><rect id="_Rectangle_9" data-name="&lt;Rectangle&gt;" class="cls-11" x="30.88" y="35.63" width="2.13" height="4.16" rx="1.06" ry="1.06" transform="translate(39.96 -11.06) rotate(49.6)"/><rect id="_Rectangle_10" data-name="&lt;Rectangle&gt;" class="cls-11" x="31.7" y="37.73" width="2.13" height="4.16" rx="1.06" ry="1.06" transform="translate(41.85 -10.94) rotate(49.6)"/><path id="_Path_26" data-name="&lt;Path&gt;" class="cls-18" d="M38.84,18.81a4.44,4.44,0,0,1,2.43-2.24c1.73-.47,3.07,1.16,1.79,2.14C41.55,19.87,40.75,18.08,38.84,18.81Z"/><path id="_Path_27" data-name="&lt;Path&gt;" class="cls-18" d="M36.33,20A3.73,3.73,0,0,0,37,17.29c-.38-1.46-2.13-1.77-2.32-.41C34.43,18.47,36.07,18.3,36.33,20Z"/></svg>