<svg id="Icons" xmlns="http://www.w3.org/2000/svg" viewBox="0 0 48 48"><defs><style>.cls-1,.cls-12,.cls-8{fill:#45413c;}.cls-1{opacity:0.15;}.cls-2,.cls-7{fill:#fff;}.cls-16,.cls-3{fill:#f0f0f0;}.cls-4{fill:none;}.cls-11,.cls-12,.cls-16,.cls-4,.cls-5,.cls-6,.cls-7{stroke:#45413c;stroke-linecap:round;stroke-linejoin:round;}.cls-5{fill:#ebcb00;}.cls-6{fill:#00dfeb;}.cls-9{fill:#724f3d;}.cls-10{fill:#a86c4d;}.cls-11{fill:#ffe500;}.cls-13{fill:#ff6242;}.cls-14{fill:#ffa694;}.cls-15{fill:#ffaa54;}</style></defs><title>141-man-cook-1</title><ellipse id="_Ellipse_" data-name="&lt;Ellipse&gt;" class="cls-1" cx="24" cy="45.5" rx="13.5" ry="1.5"/><path id="_Rectangle_" data-name="&lt;Rectangle&gt;" class="cls-2" d="M24,31.22h0A11.88,11.88,0,0,1,35.88,43.1V45a0,0,0,0,1,0,0H12.12a0,0,0,0,1,0,0V43.1A11.88,11.88,0,0,1,24,31.22Z"/><path id="_Path_" data-name="&lt;Path&gt;" class="cls-3" d="M24,31.22h0A11.88,11.88,0,0,0,12.12,43.1V45h.1A11.88,11.88,0,0,1,24,34.62h0A11.88,11.88,0,0,1,35.78,45h.1V43.1A11.88,11.88,0,0,0,24,31.22Z"/><path id="_Rectangle_2" data-name="&lt;Rectangle&gt;" class="cls-4" d="M24,31.22h0A11.88,11.88,0,0,1,35.88,43.1V45a0,0,0,0,1,0,0H12.12a0,0,0,0,1,0,0V43.1A11.88,11.88,0,0,1,24,31.22Z"/><path class="cls-5" d="M24,27.18a2.54,2.54,0,0,0-2.54,2.54v2.85a2.54,2.54,0,1,0,5.08,0V29.72A2.54,2.54,0,0,0,24,27.18Z"/><line id="_Path_2" data-name="&lt;Path&gt;" class="cls-4" x1="17.06" y1="45" x2="17.06" y2="42.59"/><line id="_Path_3" data-name="&lt;Path&gt;" class="cls-4" x1="30.94" y1="45" x2="30.94" y2="42.59"/><path id="_Path_4" data-name="&lt;Path&gt;" class="cls-6" d="M21.46,31.22c0,1.1.73,2,2.54,2s2.54-.89,2.54-2a2.77,2.77,0,0,1,.74,1.91c0,1.27-1.47,2-3.28,2s-3.28-.77-3.28-2A2.71,2.71,0,0,1,21.46,31.22Z"/><path id="_Path_5" data-name="&lt;Path&gt;" class="cls-7" d="M24,35.12h2.78a1.5,1.5,0,0,1,1.51,1.5V45"/><line id="_Path_6" data-name="&lt;Path&gt;" class="cls-4" x1="24" y1="35.12" x2="24" y2="33.21"/><g id="_Group_" data-name="&lt;Group&gt;"><path class="cls-8" d="M21.84,37.4a.75.75,0,1,0,0,1.5.75.75,0,0,0,0-1.5Z"/></g><g id="_Group_2" data-name="&lt;Group&gt;"><path class="cls-8" d="M26.15,37.4a.75.75,0,1,0,.75.75.75.75,0,0,0-.75-.75Z"/></g><g id="_Group_3" data-name="&lt;Group&gt;"><path class="cls-8" d="M21.84,40.81a.75.75,0,1,0,.75.75.75.75,0,0,0-.75-.75Z"/></g><g id="_Group_4" data-name="&lt;Group&gt;"><path class="cls-8" d="M26.15,40.81a.75.75,0,0,0,0,1.5.75.75,0,1,0,0-1.5Z"/></g><path id="_Path_7" data-name="&lt;Path&gt;" class="cls-9" d="M24,6.91a9.83,9.83,0,0,0-2.44.31c-1.86.42-4.28,1.12-6.47.7a4.2,4.2,0,0,0,.84,3.21,9.81,9.81,0,0,0-1.75,5.6v5.14H33.82V16.73A9.82,9.82,0,0,0,24,6.91Z"/><g id="_Group_5" data-name="&lt;Group&gt;"><path id="_Path_8" data-name="&lt;Path&gt;" class="cls-10" d="M24,6.91a9.83,9.83,0,0,0-2.44.31c-1.86.42-4.28,1.12-6.47.7a4.47,4.47,0,0,0,.68,3,19.4,19.4,0,0,0,5.79-.79,9.81,9.81,0,0,1,12.26,9.51V16.73A9.82,9.82,0,0,0,24,6.91Z"/></g><path id="_Path_9" data-name="&lt;Path&gt;" class="cls-4" d="M24,6.91a9.83,9.83,0,0,0-2.44.31c-1.86.42-4.28,1.12-6.47.7a4.2,4.2,0,0,0,.84,3.21,9.81,9.81,0,0,0-1.75,5.6v5.14H33.82V16.73A9.82,9.82,0,0,0,24,6.91Z"/><path class="cls-11" d="M34.87,21.12a1.83,1.83,0,0,0-1.39-1.54l-.59-.16a2.06,2.06,0,0,1-1.5-2V15.38A1.88,1.88,0,0,0,30,13.57a15.34,15.34,0,0,1-6,1.09,15.34,15.34,0,0,1-6-1.09,1.88,1.88,0,0,0-1.4,1.81v2.06a2.06,2.06,0,0,1-1.5,2l-.59.16a1.83,1.83,0,0,0-1.39,1.54,1.81,1.81,0,0,0,1.81,2h.11a9,9,0,0,0,17.9,0h.11A1.81,1.81,0,0,0,34.87,21.12Z"/><path id="_Path_10" data-name="&lt;Path&gt;" class="cls-12" d="M18.57,20.91a.77.77,0,1,0,.77-.77A.76.76,0,0,0,18.57,20.91Z"/><path id="_Path_11" data-name="&lt;Path&gt;" class="cls-12" d="M29.43,20.91a.77.77,0,1,1-.77-.77A.76.76,0,0,1,29.43,20.91Z"/><g id="_Group_6" data-name="&lt;Group&gt;"><g id="_Group_7" data-name="&lt;Group&gt;"><g id="_Group_8" data-name="&lt;Group&gt;"><g id="_Group_9" data-name="&lt;Group&gt;"><g id="_Group_10" data-name="&lt;Group&gt;"><g id="_Group_11" data-name="&lt;Group&gt;"><g id="_Group_12" data-name="&lt;Group&gt;"><path id="_Path_12" data-name="&lt;Path&gt;" class="cls-13" d="M21.16,25.6a.42.42,0,0,0-.33.16.42.42,0,0,0-.1.35,3.32,3.32,0,0,0,6.54,0,.42.42,0,0,0-.1-.35.44.44,0,0,0-.33-.16Z"/><path id="_Path_13" data-name="&lt;Path&gt;" class="cls-14" d="M24,27a4,4,0,0,0-2.52.77,3.36,3.36,0,0,0,5,0A4,4,0,0,0,24,27Z"/></g></g></g></g></g></g></g><g id="_Group_13" data-name="&lt;Group&gt;"><path id="_Path_14" data-name="&lt;Path&gt;" class="cls-4" d="M21.16,25.6a.42.42,0,0,0-.33.16.42.42,0,0,0-.1.35,3.32,3.32,0,0,0,6.54,0,.42.42,0,0,0-.1-.35.44.44,0,0,0-.33-.16Z"/></g><ellipse id="_Ellipse_2" data-name="&lt;Ellipse&gt;" class="cls-15" cx="18.06" cy="24.19" rx="1" ry="0.6"/><ellipse id="_Ellipse_3" data-name="&lt;Ellipse&gt;" class="cls-15" cx="29.94" cy="24.19" rx="1" ry="0.6"/><path id="_Path_15" data-name="&lt;Path&gt;" class="cls-3" d="M29.94,5.21A7.47,7.47,0,0,0,24,2.58a7.47,7.47,0,0,0-5.94,2.63c-2.62-1.27-7.18.3-7.18,4.54,0,3.95,2.79,4.83,2.79,4.83H34.33s2.79-.88,2.79-4.83C37.12,5.51,32.56,3.94,29.94,5.21Z"/><path id="_Path_16" data-name="&lt;Path&gt;" class="cls-2" d="M18.06,9.92A7.47,7.47,0,0,1,24,7.29a7.47,7.47,0,0,1,5.94,2.63,5.29,5.29,0,0,1,6.71,2.35,6.32,6.32,0,0,0,.47-2.52c0-4.24-4.56-5.81-7.18-4.54A7.47,7.47,0,0,0,24,2.58a7.47,7.47,0,0,0-5.94,2.63c-2.62-1.27-7.18.3-7.18,4.54a6.32,6.32,0,0,0,.47,2.52A5.29,5.29,0,0,1,18.06,9.92Z"/><path id="_Path_17" data-name="&lt;Path&gt;" class="cls-4" d="M29.94,5.21A7.47,7.47,0,0,0,24,2.58a7.47,7.47,0,0,0-5.94,2.63c-2.62-1.27-7.18.3-7.18,4.54,0,3.95,2.79,4.83,2.79,4.83H34.33s2.79-.88,2.79-4.83C37.12,5.51,32.56,3.94,29.94,5.21Z"/><path id="_Path_18" data-name="&lt;Path&gt;" class="cls-4" d="M30,9.08c0,2.67-2.69,4.83-6,4.83s-6-2.16-6-4.83"/><path id="_Path_19" data-name="&lt;Path&gt;" class="cls-16" d="M13.67,14.58c0-1,4.62-1.75,10.33-1.75s10.33.78,10.33,1.75v2.79c0-1-4.62-1.75-10.33-1.75s-10.33.79-10.33,1.75Z"/></svg>