<svg id="Icons" xmlns="http://www.w3.org/2000/svg" viewBox="0 0 48 48"><defs><style>.cls-1,.cls-15{fill:#45413c;}.cls-1{opacity:0.15;}.cls-2{fill:#00b8f0;}.cls-3,.cls-5{fill:#009fd9;}.cls-4{fill:none;}.cls-10,.cls-15,.cls-17,.cls-20,.cls-4,.cls-5,.cls-6,.cls-9{stroke:#45413c;stroke-linecap:round;stroke-linejoin:round;}.cls-6{fill:#fff;}.cls-10,.cls-7{fill:#ffcebf;}.cls-8{fill:#ffb59e;}.cls-9{fill:#a86c4d;}.cls-11{fill:#ff6242;}.cls-12{fill:#ffa694;}.cls-13{fill:#80ddff;}.cls-14{fill:#b8ecff;}.cls-16{fill:#e04122;}.cls-17{fill:#daedf7;}.cls-18,.cls-20{fill:#ffe500;}.cls-19{fill:#fff48c;}.cls-21{fill:#ff8a14;}</style></defs><title>150-man-factory-worker-2</title><ellipse id="_Ellipse_" data-name="&lt;Ellipse&gt;" class="cls-1" cx="24" cy="45.5" rx="13.5" ry="1.5"/><path id="_Rectangle_" data-name="&lt;Rectangle&gt;" class="cls-2" d="M24,31.22h0A11.88,11.88,0,0,1,35.88,43.1V45a0,0,0,0,1,0,0H12.12a0,0,0,0,1,0,0V43.1A11.88,11.88,0,0,1,24,31.22Z"/><path id="_Path_" data-name="&lt;Path&gt;" class="cls-3" d="M24,31.22h0A11.88,11.88,0,0,0,12.12,43.1V45h.07A11.88,11.88,0,0,1,24,34.43h0A11.88,11.88,0,0,1,35.81,45h.07V43.1A11.88,11.88,0,0,0,24,31.22Z"/><path id="_Rectangle_2" data-name="&lt;Rectangle&gt;" class="cls-4" d="M24,31.22h0A11.88,11.88,0,0,1,35.88,43.1V45a0,0,0,0,1,0,0H12.12a0,0,0,0,1,0,0V43.1A11.88,11.88,0,0,1,24,31.22Z"/><path id="_Path_2" data-name="&lt;Path&gt;" class="cls-5" d="M24,39.54l4.38-2.76-.1-2,1.38-1.47S29.5,30,24,30s-5.66,3.31-5.66,3.31l1.38,1.47-.1,2Z"/><path id="_Path_3" data-name="&lt;Path&gt;" class="cls-6" d="M21.46,32.57c0,3.34,2.54,7,2.54,7s2.54-3.47,2.54-7Z"/><path class="cls-7" d="M24,27.17a2.54,2.54,0,0,0-2.54,2.55v2.85a2.54,2.54,0,1,0,5.08,0V29.72A2.54,2.54,0,0,0,24,27.17Z"/><path id="_Path_4" data-name="&lt;Path&gt;" class="cls-8" d="M24,27.17a2.54,2.54,0,0,0-2.54,2.54v.6a2.54,2.54,0,0,0,5.08,0v-.59A2.54,2.54,0,0,0,24,27.17Z"/><path class="cls-4" d="M24,27.17a2.54,2.54,0,0,0-2.54,2.55v2.85a2.54,2.54,0,1,0,5.08,0V29.72A2.54,2.54,0,0,0,24,27.17Z"/><line id="_Path_5" data-name="&lt;Path&gt;" class="cls-4" x1="17.06" y1="45" x2="17.06" y2="42.59"/><line id="_Path_6" data-name="&lt;Path&gt;" class="cls-4" x1="30.94" y1="45" x2="30.94" y2="42.59"/><path id="_Rectangle_3" data-name="&lt;Rectangle&gt;" class="cls-9" d="M24,6.91h0a9.82,9.82,0,0,1,9.82,9.82v5.14a0,0,0,0,1,0,0H14.18a0,0,0,0,1,0,0V16.73A9.82,9.82,0,0,1,24,6.91Z"/><path class="cls-10" d="M34.87,21.12a1.83,1.83,0,0,0-1.39-1.54l-.59-.16a2.06,2.06,0,0,1-1.5-2V15.38A1.88,1.88,0,0,0,30,13.57a15.34,15.34,0,0,1-6,1.09,15.34,15.34,0,0,1-6-1.09,1.88,1.88,0,0,0-1.4,1.81v2.06a2.06,2.06,0,0,1-1.5,2l-.59.16a1.83,1.83,0,0,0-1.39,1.54,1.81,1.81,0,0,0,1.81,2h.11a9,9,0,0,0,17.9,0h.11A1.81,1.81,0,0,0,34.87,21.12Z"/><g id="_Group_" data-name="&lt;Group&gt;"><g id="_Group_2" data-name="&lt;Group&gt;"><g id="_Group_3" data-name="&lt;Group&gt;"><g id="_Group_4" data-name="&lt;Group&gt;"><g id="_Group_5" data-name="&lt;Group&gt;"><g id="_Group_6" data-name="&lt;Group&gt;"><g id="_Group_7" data-name="&lt;Group&gt;"><g id="_Group_8" data-name="&lt;Group&gt;"><path id="_Path_7" data-name="&lt;Path&gt;" class="cls-11" d="M21.16,25.6a.42.42,0,0,0-.33.16.42.42,0,0,0-.1.35,3.32,3.32,0,0,0,6.54,0,.42.42,0,0,0-.1-.35.44.44,0,0,0-.33-.16Z"/><path id="_Path_8" data-name="&lt;Path&gt;" class="cls-12" d="M24,27a4,4,0,0,0-2.52.77,3.36,3.36,0,0,0,5,0A4,4,0,0,0,24,27Z"/></g></g></g></g></g></g></g><g id="_Group_9" data-name="&lt;Group&gt;"><path id="_Path_9" data-name="&lt;Path&gt;" class="cls-4" d="M21.16,25.6a.44.44,0,0,0-.33.16.42.42,0,0,0-.1.35,3.32,3.32,0,0,0,6.54,0,.42.42,0,0,0-.1-.35.44.44,0,0,0-.33-.16Z"/></g></g><ellipse id="_Ellipse_2" data-name="&lt;Ellipse&gt;" class="cls-8" cx="18.06" cy="24.61" rx="1" ry="0.6"/><ellipse id="_Ellipse_3" data-name="&lt;Ellipse&gt;" class="cls-8" cx="29.94" cy="24.61" rx="1" ry="0.6"/><path class="cls-13" d="M16.08,16.44,16.47,22a1.69,1.69,0,0,0,1.69,1.57h3.38a1.93,1.93,0,0,0,1.71-1.05.78.78,0,0,1,1.5,0,1.93,1.93,0,0,0,1.71,1.05h3.38A1.69,1.69,0,0,0,31.53,22l.39-5.58Z"/><path class="cls-14" d="M24,22a.89.89,0,0,1,.75.56,1.93,1.93,0,0,0,1.71,1.05h3.38A1.69,1.69,0,0,0,31.53,22l.39-5.58H25.57l-5.05,7.15h1a1.93,1.93,0,0,0,1.71-1.05A.89.89,0,0,1,24,22Z"/><path class="cls-4" d="M16.08,16.44,16.47,22a1.69,1.69,0,0,0,1.69,1.57h3.38a1.93,1.93,0,0,0,1.71-1.05.78.78,0,0,1,1.5,0,1.93,1.93,0,0,0,1.71,1.05h3.38A1.69,1.69,0,0,0,31.53,22l.39-5.58Z"/><path id="_Path_10" data-name="&lt;Path&gt;" class="cls-15" d="M19.07,20.91a.77.77,0,1,0,.77-.77A.76.76,0,0,0,19.07,20.91Z"/><path id="_Path_11" data-name="&lt;Path&gt;" class="cls-15" d="M28.93,20.91a.77.77,0,1,1-.77-.77A.76.76,0,0,1,28.93,20.91Z"/><path id="_Path_12" data-name="&lt;Path&gt;" class="cls-3" d="M24,14.7c4.6,0,8.49.61,9.79,1.45V15a9.79,9.79,0,0,0-19.58,0v1.14C15.51,15.31,19.4,14.7,24,14.7Z"/><path id="_Path_13" data-name="&lt;Path&gt;" class="cls-2" d="M24,5.22A9.79,9.79,0,0,0,14.21,15v1.14l.09-.06a9.8,9.8,0,0,1,19.4,0l.09.06V15A9.79,9.79,0,0,0,24,5.22Z"/><path id="_Path_14" data-name="&lt;Path&gt;" class="cls-4" d="M24,14.7c4.6,0,8.49.61,9.79,1.45V15a9.79,9.79,0,0,0-19.58,0v1.14C15.51,15.31,19.4,14.7,24,14.7Z"/><path id="_Path_15" data-name="&lt;Path&gt;" class="cls-3" d="M26.79,5.33a1,1,0,0,0-.78-1,9.29,9.29,0,0,0-4,0,1,1,0,0,0-.78,1v9.33h5.58Z"/><path id="_Path_16" data-name="&lt;Path&gt;" class="cls-2" d="M24,4.13a9.52,9.52,0,0,0-2,.22,1,1,0,0,0-.78,1v1.4a9.27,9.27,0,0,1,5.58,0V5.33a1,1,0,0,0-.78-1A9.52,9.52,0,0,0,24,4.13Z"/><path id="_Path_17" data-name="&lt;Path&gt;" class="cls-4" d="M26.79,5.33a1,1,0,0,0-.78-1,9.29,9.29,0,0,0-4,0,1,1,0,0,0-.78,1v9.33h5.58Z"/><path class="cls-3" d="M33.85,17.7a.71.71,0,0,0,.64-.68,2.47,2.47,0,0,0-.23-1C33.66,14.77,29.67,14,24,14s-9.66.8-10.26,2.06a2.47,2.47,0,0,0-.23,1,.71.71,0,0,0,.64.68,88,88,0,0,0,9.85.64A88,88,0,0,0,33.85,17.7Z"/><path class="cls-2" d="M33.85,17.7a.71.71,0,0,0,.64-.68,2.47,2.47,0,0,0-.23-1,1.19,1.19,0,0,0-.09-.15A90.38,90.38,0,0,1,24,16.56a90.38,90.38,0,0,1-10.17-.68,1.19,1.19,0,0,0-.09.15,2.47,2.47,0,0,0-.23,1,.71.71,0,0,0,.64.68,88,88,0,0,0,9.85.64A88,88,0,0,0,33.85,17.7Z"/><path class="cls-4" d="M33.85,17.7a.71.71,0,0,0,.64-.68,2.47,2.47,0,0,0-.23-1C33.66,14.77,29.67,14,24,14s-9.66.8-10.26,2.06a2.47,2.47,0,0,0-.23,1,.71.71,0,0,0,.64.68,88,88,0,0,0,9.85.64A88,88,0,0,0,33.85,17.7Z"/><line id="_Path_18" data-name="&lt;Path&gt;" class="cls-4" x1="24" y1="39.54" x2="24" y2="45"/><rect id="_Rectangle_4" data-name="&lt;Rectangle&gt;" class="cls-11" x="36.52" y="32.5" width="3.58" height="12.5"/><rect id="_Rectangle_5" data-name="&lt;Rectangle&gt;" class="cls-16" x="36.52" y="32.5" width="3.58" height="1.99"/><rect id="_Rectangle_6" data-name="&lt;Rectangle&gt;" class="cls-4" x="36.52" y="32.5" width="3.58" height="12.5"/><path id="_Path_19" data-name="&lt;Path&gt;" class="cls-17" d="M39.31,32.5h-2V25.68a1,1,0,0,1,.2-.6L41.35,20l1.59,1.2L39.31,26Z"/><line id="_Path_20" data-name="&lt;Path&gt;" class="cls-4" x1="40.6" y1="19.42" x2="43.69" y2="21.74"/><rect id="_Rectangle_7" data-name="&lt;Rectangle&gt;" class="cls-17" x="35.63" y="30.55" width="5.37" height="1.95" rx="0.97" ry="0.97"/><rect id="_Rectangle_8" data-name="&lt;Rectangle&gt;" class="cls-18" x="39.06" y="38.08" width="4.33" height="2.31" rx="1.15" ry="1.15"/><path id="_Path_21" data-name="&lt;Path&gt;" class="cls-19" d="M40.22,39.24h2a1.14,1.14,0,0,1,1,.57,1.13,1.13,0,0,0,.18-.57,1.16,1.16,0,0,0-1.16-1.16h-2a1.16,1.16,0,0,0-1.16,1.16,1.13,1.13,0,0,0,.18.57A1.14,1.14,0,0,1,40.22,39.24Z"/><rect id="_Rectangle_9" data-name="&lt;Rectangle&gt;" class="cls-4" x="39.06" y="38.08" width="4.33" height="2.31" rx="1.15" ry="1.15"/><rect id="_Rectangle_10" data-name="&lt;Rectangle&gt;" class="cls-20" x="39.06" y="40.39" width="4.33" height="2.31" rx="1.15" ry="1.15"/><rect id="_Rectangle_11" data-name="&lt;Rectangle&gt;" class="cls-20" x="39.06" y="42.7" width="4.33" height="2.31" rx="1.15" ry="1.15"/><path id="_Rectangle_12" data-name="&lt;Rectangle&gt;" class="cls-18" d="M35,36.73h0a1.54,1.54,0,0,1,1.54,1.54V45a0,0,0,0,1,0,0h0a2.34,2.34,0,0,1-2.34-2.34V37.52A.79.79,0,0,1,35,36.73Z"/><path id="_Path_22" data-name="&lt;Path&gt;" class="cls-19" d="M35,36.73a.8.8,0,0,0-.8.79v1.92a.79.79,0,0,1,.8-.79,1.54,1.54,0,0,1,1.54,1.54V38.27A1.54,1.54,0,0,0,35,36.73Z"/><path id="_Rectangle_13" data-name="&lt;Rectangle&gt;" class="cls-4" d="M35,36.73h0a1.54,1.54,0,0,1,1.54,1.54V45a0,0,0,0,1,0,0h0a2.34,2.34,0,0,1-2.34-2.34V37.52A.79.79,0,0,1,35,36.73Z"/><path id="_Path_23" data-name="&lt;Path&gt;" class="cls-21" d="M45.57,19.15A1.72,1.72,0,0,1,42.92,17c.61-.73,3.56-3.1,4.29-2.49S46.18,18.42,45.57,19.15Z"/><path id="_Path_24" data-name="&lt;Path&gt;" class="cls-19" d="M44.68,18.41a.57.57,0,0,1-.79.07.55.55,0,0,1-.07-.78c.19-.24,1.69-1.65,1.92-1.46S44.87,18.17,44.68,18.41Z"/></svg>