<svg id="Icons" xmlns="http://www.w3.org/2000/svg" viewBox="0 0 48 48"><defs><style>.cls-1{fill:#724f3d;}.cls-1,.cls-10,.cls-16,.cls-18,.cls-5,.cls-6,.cls-7{stroke:#45413c;stroke-linecap:round;stroke-linejoin:round;}.cls-16,.cls-2{fill:#45413c;}.cls-2{opacity:0.15;}.cls-3{fill:#00b8f0;}.cls-4,.cls-6{fill:#009fd9;}.cls-5{fill:none;}.cls-7{fill:#fff;}.cls-10,.cls-8{fill:#ffe500;}.cls-9{fill:#ebcb00;}.cls-11{fill:#ff6242;}.cls-12{fill:#ffa694;}.cls-13{fill:#ffaa54;}.cls-14{fill:#80ddff;}.cls-15{fill:#b8ecff;}.cls-17{fill:#e04122;}.cls-18{fill:#daedf7;}.cls-19{fill:#fff48c;}.cls-20{fill:#ff8a14;}</style></defs><title>151-woman-factory-worker-1</title><path id="_Path_" data-name="&lt;Path&gt;" class="cls-1" d="M24,6.32A10.88,10.88,0,0,1,34.88,17.19V31.38a1.24,1.24,0,0,1-.77,1.14h0a27.09,27.09,0,0,1-20.22,0h0a1.24,1.24,0,0,1-.77-1.14V17.19A10.88,10.88,0,0,1,24,6.32Z"/><ellipse id="_Ellipse_" data-name="&lt;Ellipse&gt;" class="cls-2" cx="24" cy="45.5" rx="13.5" ry="1.5"/><path id="_Rectangle_" data-name="&lt;Rectangle&gt;" class="cls-3" d="M24,31.22h0A11.88,11.88,0,0,1,35.88,43.1V45a0,0,0,0,1,0,0H12.12a0,0,0,0,1,0,0V43.1A11.88,11.88,0,0,1,24,31.22Z"/><path id="_Path_2" data-name="&lt;Path&gt;" class="cls-4" d="M24,31.22h0A11.88,11.88,0,0,0,12.12,43.1V45h.07A11.88,11.88,0,0,1,24,34.43h0A11.88,11.88,0,0,1,35.81,45h.07V43.1A11.88,11.88,0,0,0,24,31.22Z"/><path id="_Rectangle_2" data-name="&lt;Rectangle&gt;" class="cls-5" d="M24,31.22h0A11.88,11.88,0,0,1,35.88,43.1V45a0,0,0,0,1,0,0H12.12a0,0,0,0,1,0,0V43.1A11.88,11.88,0,0,1,24,31.22Z"/><path id="_Path_3" data-name="&lt;Path&gt;" class="cls-6" d="M24,39.54l4.38-2.76-.1-2,1.38-1.47S29.5,30,24,30s-5.66,3.31-5.66,3.31l1.38,1.47-.1,2Z"/><path id="_Path_4" data-name="&lt;Path&gt;" class="cls-7" d="M21.46,32.57c0,3.34,2.54,7,2.54,7s2.54-3.47,2.54-7Z"/><line id="_Path_5" data-name="&lt;Path&gt;" class="cls-5" x1="17.06" y1="45" x2="17.06" y2="42.59"/><path class="cls-8" d="M24,27.17a2.54,2.54,0,0,0-2.54,2.55v2.85a2.54,2.54,0,1,0,5.08,0V29.72A2.54,2.54,0,0,0,24,27.17Z"/><path id="_Path_6" data-name="&lt;Path&gt;" class="cls-9" d="M24,27.17a2.54,2.54,0,0,0-2.54,2.54v.6a2.54,2.54,0,0,0,5.08,0v-.59A2.54,2.54,0,0,0,24,27.17Z"/><path class="cls-5" d="M24,27.17a2.54,2.54,0,0,0-2.54,2.55v2.85a2.54,2.54,0,1,0,5.08,0V29.72A2.54,2.54,0,0,0,24,27.17Z"/><line id="_Path_7" data-name="&lt;Path&gt;" class="cls-5" x1="30.94" y1="45" x2="30.94" y2="42.59"/><g id="_Group_" data-name="&lt;Group&gt;"><path id="_Path_8" data-name="&lt;Path&gt;" class="cls-10" d="M33.06,19.47a8.77,8.77,0,0,1-5.67-5L26.77,13a15.92,15.92,0,0,1-9.95,6.18l-1.89.34a1.81,1.81,0,0,0,0,3.62h.12a9,9,0,0,0,17.9,0h.11a1.81,1.81,0,1,0,0-3.62Z"/></g><g id="_Group_2" data-name="&lt;Group&gt;"><g id="_Group_3" data-name="&lt;Group&gt;"><g id="_Group_4" data-name="&lt;Group&gt;"><g id="_Group_5" data-name="&lt;Group&gt;"><g id="_Group_6" data-name="&lt;Group&gt;"><g id="_Group_7" data-name="&lt;Group&gt;"><g id="_Group_8" data-name="&lt;Group&gt;"><g id="_Group_9" data-name="&lt;Group&gt;"><path id="_Path_9" data-name="&lt;Path&gt;" class="cls-11" d="M21.16,25.6a.42.42,0,0,0-.33.16.42.42,0,0,0-.1.35,3.32,3.32,0,0,0,6.54,0,.42.42,0,0,0-.1-.35.44.44,0,0,0-.33-.16Z"/><path id="_Path_10" data-name="&lt;Path&gt;" class="cls-12" d="M24,27a4,4,0,0,0-2.52.77,3.36,3.36,0,0,0,5,0A4,4,0,0,0,24,27Z"/></g></g></g></g></g></g></g><g id="_Group_10" data-name="&lt;Group&gt;"><path id="_Path_11" data-name="&lt;Path&gt;" class="cls-5" d="M21.16,25.6a.42.42,0,0,0-.33.16.42.42,0,0,0-.1.35,3.32,3.32,0,0,0,6.54,0,.42.42,0,0,0-.1-.35.44.44,0,0,0-.33-.16Z"/></g></g><ellipse id="_Ellipse_2" data-name="&lt;Ellipse&gt;" class="cls-13" cx="18.06" cy="24.61" rx="1" ry="0.6"/><ellipse id="_Ellipse_3" data-name="&lt;Ellipse&gt;" class="cls-13" cx="29.94" cy="24.61" rx="1" ry="0.6"/><path class="cls-14" d="M16.08,16.44,16.47,22a1.69,1.69,0,0,0,1.69,1.57h3.38a1.93,1.93,0,0,0,1.71-1.05.78.78,0,0,1,1.5,0,1.93,1.93,0,0,0,1.71,1.05h3.38A1.69,1.69,0,0,0,31.53,22l.39-5.58Z"/><path class="cls-15" d="M24,22a.89.89,0,0,1,.75.56,1.93,1.93,0,0,0,1.71,1.05h3.38A1.69,1.69,0,0,0,31.53,22l.39-5.58H25.57l-5.05,7.15h1a1.93,1.93,0,0,0,1.71-1.05A.89.89,0,0,1,24,22Z"/><path class="cls-5" d="M16.08,16.44,16.47,22a1.69,1.69,0,0,0,1.69,1.57h3.38a1.93,1.93,0,0,0,1.71-1.05.78.78,0,0,1,1.5,0,1.93,1.93,0,0,0,1.71,1.05h3.38A1.69,1.69,0,0,0,31.53,22l.39-5.58Z"/><path id="_Path_12" data-name="&lt;Path&gt;" class="cls-16" d="M19.07,20.91a.77.77,0,1,0,.77-.77A.76.76,0,0,0,19.07,20.91Z"/><path id="_Path_13" data-name="&lt;Path&gt;" class="cls-16" d="M28.93,20.91a.77.77,0,1,1-.77-.77A.76.76,0,0,1,28.93,20.91Z"/><path id="_Path_14" data-name="&lt;Path&gt;" class="cls-4" d="M24,14.49c5.13,0,9.47.68,10.92,1.61V14.83a10.92,10.92,0,0,0-21.84,0V16.1C14.53,15.17,18.87,14.49,24,14.49Z"/><path id="_Path_15" data-name="&lt;Path&gt;" class="cls-3" d="M24,3.91A10.92,10.92,0,0,0,13.08,14.83V16.1l.11-.07a10.92,10.92,0,0,1,21.62,0l.11.07V14.83A10.92,10.92,0,0,0,24,3.91Z"/><path id="_Path_16" data-name="&lt;Path&gt;" class="cls-5" d="M24,14.49c5.13,0,9.47.68,10.92,1.61V14.83a10.92,10.92,0,0,0-21.84,0V16.1C14.53,15.17,18.87,14.49,24,14.49Z"/><path id="_Path_17" data-name="&lt;Path&gt;" class="cls-4" d="M27.11,4a1.12,1.12,0,0,0-.87-1.09,10.57,10.57,0,0,0-4.48,0A1.12,1.12,0,0,0,20.89,4V14.44h6.22Z"/><path id="_Path_18" data-name="&lt;Path&gt;" class="cls-3" d="M24,2.7a10.32,10.32,0,0,0-2.24.24A1.12,1.12,0,0,0,20.89,4V5.59a10.52,10.52,0,0,1,6.22,0V4a1.12,1.12,0,0,0-.87-1.09A10.32,10.32,0,0,0,24,2.7Z"/><path id="_Path_19" data-name="&lt;Path&gt;" class="cls-5" d="M27.11,4a1.12,1.12,0,0,0-.87-1.09,10.57,10.57,0,0,0-4.48,0A1.12,1.12,0,0,0,20.89,4V14.44h6.22Z"/><path class="cls-4" d="M35,17.82a.76.76,0,0,0,.71-.75A2.6,2.6,0,0,0,35.44,16c-.67-1.4-5.12-2.3-11.44-2.3s-10.77.9-11.44,2.3a2.6,2.6,0,0,0-.25,1.11.76.76,0,0,0,.71.75,95.61,95.61,0,0,0,11,.72A95.61,95.61,0,0,0,35,17.82Z"/><path class="cls-3" d="M35,17.82a.76.76,0,0,0,.71-.75A2.6,2.6,0,0,0,35.44,16a1.4,1.4,0,0,0-.1-.16A101.2,101.2,0,0,1,24,16.55a101.2,101.2,0,0,1-11.34-.75,1.4,1.4,0,0,0-.1.16,2.6,2.6,0,0,0-.25,1.11.76.76,0,0,0,.71.75,95.61,95.61,0,0,0,11,.72A95.61,95.61,0,0,0,35,17.82Z"/><path class="cls-5" d="M35,17.82a.76.76,0,0,0,.71-.75A2.6,2.6,0,0,0,35.44,16c-.67-1.4-5.12-2.3-11.44-2.3s-10.77.9-11.44,2.3a2.6,2.6,0,0,0-.25,1.11.76.76,0,0,0,.71.75,95.61,95.61,0,0,0,11,.72A95.61,95.61,0,0,0,35,17.82Z"/><line id="_Path_20" data-name="&lt;Path&gt;" class="cls-5" x1="24" y1="39.54" x2="24" y2="45"/><rect id="_Rectangle_3" data-name="&lt;Rectangle&gt;" class="cls-11" x="36.52" y="32.5" width="3.58" height="12.5"/><rect id="_Rectangle_4" data-name="&lt;Rectangle&gt;" class="cls-17" x="36.52" y="32.5" width="3.58" height="1.99"/><rect id="_Rectangle_5" data-name="&lt;Rectangle&gt;" class="cls-5" x="36.52" y="32.5" width="3.58" height="12.5"/><path id="_Path_21" data-name="&lt;Path&gt;" class="cls-18" d="M39.31,32.5h-2V25.68a1,1,0,0,1,.2-.6L41.35,20l1.59,1.2L39.31,26Z"/><line id="_Path_22" data-name="&lt;Path&gt;" class="cls-5" x1="40.6" y1="19.42" x2="43.69" y2="21.74"/><rect id="_Rectangle_6" data-name="&lt;Rectangle&gt;" class="cls-18" x="35.63" y="30.55" width="5.37" height="1.95" rx="0.97" ry="0.97"/><rect id="_Rectangle_7" data-name="&lt;Rectangle&gt;" class="cls-8" x="39.06" y="38.08" width="4.33" height="2.31" rx="1.15" ry="1.15"/><path id="_Path_23" data-name="&lt;Path&gt;" class="cls-19" d="M40.22,39.24h2a1.14,1.14,0,0,1,1,.57,1.13,1.13,0,0,0,.18-.57,1.16,1.16,0,0,0-1.16-1.16h-2a1.16,1.16,0,0,0-1.16,1.16,1.13,1.13,0,0,0,.18.57A1.14,1.14,0,0,1,40.22,39.24Z"/><rect id="_Rectangle_8" data-name="&lt;Rectangle&gt;" class="cls-5" x="39.06" y="38.08" width="4.33" height="2.31" rx="1.15" ry="1.15"/><rect id="_Rectangle_9" data-name="&lt;Rectangle&gt;" class="cls-10" x="39.06" y="40.39" width="4.33" height="2.31" rx="1.15" ry="1.15"/><rect id="_Rectangle_10" data-name="&lt;Rectangle&gt;" class="cls-10" x="39.06" y="42.7" width="4.33" height="2.31" rx="1.15" ry="1.15"/><path id="_Rectangle_11" data-name="&lt;Rectangle&gt;" class="cls-8" d="M35,36.73h0a1.54,1.54,0,0,1,1.54,1.54V45a0,0,0,0,1,0,0h0a2.34,2.34,0,0,1-2.34-2.34V37.52A.79.79,0,0,1,35,36.73Z"/><path id="_Path_24" data-name="&lt;Path&gt;" class="cls-19" d="M35,36.73a.8.8,0,0,0-.8.79v1.92a.79.79,0,0,1,.8-.79,1.54,1.54,0,0,1,1.54,1.54V38.27A1.54,1.54,0,0,0,35,36.73Z"/><path id="_Rectangle_12" data-name="&lt;Rectangle&gt;" class="cls-5" d="M35,36.73h0a1.54,1.54,0,0,1,1.54,1.54V45a0,0,0,0,1,0,0h0a2.34,2.34,0,0,1-2.34-2.34V37.52A.79.79,0,0,1,35,36.73Z"/><path id="_Path_25" data-name="&lt;Path&gt;" class="cls-20" d="M45.57,19.15A1.72,1.72,0,0,1,42.92,17c.61-.73,3.56-3.1,4.29-2.49S46.18,18.42,45.57,19.15Z"/><path id="_Path_26" data-name="&lt;Path&gt;" class="cls-19" d="M44.68,18.41a.57.57,0,0,1-.79.07.55.55,0,0,1-.07-.78c.19-.24,1.69-1.65,1.92-1.46S44.87,18.17,44.68,18.41Z"/></svg>