<svg id="Icons" xmlns="http://www.w3.org/2000/svg" viewBox="0 0 48 48"><defs><style>.cls-1,.cls-12{fill:#45413c;}.cls-1{opacity:0.15;}.cls-2{fill:#b8ecff;}.cls-3{fill:none;}.cls-12,.cls-3,.cls-5,.cls-8,.cls-9{stroke:#45413c;stroke-linecap:round;stroke-linejoin:round;}.cls-4,.cls-5{fill:#80ddff;}.cls-6,.cls-9{fill:#ffe500;}.cls-7{fill:#ebcb00;}.cls-8{fill:#ff8a14;}.cls-10{fill:#724f3d;}.cls-11{fill:#a86c4d;}.cls-13{fill:#ff6242;}.cls-14{fill:#ffa694;}.cls-15{fill:#ffaa54;}</style></defs><title>153-man-office-worker-1</title><ellipse id="_Ellipse_" data-name="&lt;Ellipse&gt;" class="cls-1" cx="24" cy="45.5" rx="13.5" ry="1.5"/><path class="cls-2" d="M31.54,32.84,24,30l-7.54,2.87a6.76,6.76,0,0,0-4.35,6.31V45H35.89V39.15A6.76,6.76,0,0,0,31.54,32.84Z"/><line id="_Path_" data-name="&lt;Path&gt;" class="cls-3" x1="17.06" y1="45" x2="17.06" y2="42.59"/><line id="_Path_2" data-name="&lt;Path&gt;" class="cls-3" x1="30.94" y1="45" x2="30.94" y2="42.59"/><path class="cls-4" d="M31.54,32.84,24,30l-7.54,2.87a6.76,6.76,0,0,0-4.35,6.31v3a6.76,6.76,0,0,1,4.35-6.31L24,33l7.54,2.87a6.76,6.76,0,0,1,4.35,6.31v-3A6.76,6.76,0,0,0,31.54,32.84Z"/><path class="cls-3" d="M31.54,32.84,24,30l-7.54,2.87a6.76,6.76,0,0,0-4.35,6.31V45H35.89V39.15A6.76,6.76,0,0,0,31.54,32.84Z"/><path class="cls-5" d="M24,30S19,30,19,32.82a9.94,9.94,0,0,0,2.16,5.77L24,36.16l2.89,2.43a9.94,9.94,0,0,0,2.16-5.77C29.05,30,24,30,24,30Z"/><path class="cls-6" d="M24,27.17a2.54,2.54,0,0,0-2.54,2.55v2.85c0,1.4,2.54,3.59,2.54,3.59s2.54-2.19,2.54-3.59V29.72A2.54,2.54,0,0,0,24,27.17Z"/><path id="_Path_3" data-name="&lt;Path&gt;" class="cls-7" d="M24,27.17a2.54,2.54,0,0,0-2.54,2.54v.6a2.54,2.54,0,0,0,5.08,0v-.59A2.54,2.54,0,0,0,24,27.17Z"/><path class="cls-3" d="M24,27.17a2.54,2.54,0,0,0-2.54,2.55v2.85c0,1.4,2.54,3.59,2.54,3.59s2.54-2.19,2.54-3.59V29.72A2.54,2.54,0,0,0,24,27.17Z"/><polygon class="cls-8" points="24 36.16 22.18 37.69 22.93 39.49 25.07 39.49 25.82 37.69 24 36.16"/><polygon id="_Path_4" data-name="&lt;Path&gt;" class="cls-9" points="25.07 39.49 22.93 39.49 21.93 45 26.07 45 25.07 39.49"/><polygon id="_Path_5" data-name="&lt;Path&gt;" class="cls-8" points="22.05 44.37 25.64 42.65 25.33 40.92 22.42 42.31 22.05 44.37"/><path id="_Path_6" data-name="&lt;Path&gt;" class="cls-10" d="M24,6.91a9.83,9.83,0,0,0-2.44.31c-1.86.42-4.28,1.12-6.47.7a4.2,4.2,0,0,0,.84,3.21,9.81,9.81,0,0,0-1.75,5.6v5.14H33.82V16.73A9.82,9.82,0,0,0,24,6.91Z"/><g id="_Group_" data-name="&lt;Group&gt;"><path id="_Path_7" data-name="&lt;Path&gt;" class="cls-11" d="M24,6.91a9.83,9.83,0,0,0-2.44.31c-1.86.42-4.28,1.12-6.47.7a4.47,4.47,0,0,0,.68,3,19.4,19.4,0,0,0,5.79-.79,9.81,9.81,0,0,1,12.26,9.51V16.73A9.82,9.82,0,0,0,24,6.91Z"/></g><path id="_Path_8" data-name="&lt;Path&gt;" class="cls-3" d="M24,6.91a9.83,9.83,0,0,0-2.44.31c-1.86.42-4.28,1.12-6.47.7a4.2,4.2,0,0,0,.84,3.21,9.81,9.81,0,0,0-1.75,5.6v5.14H33.82V16.73A9.82,9.82,0,0,0,24,6.91Z"/><path class="cls-9" d="M34.87,21.12a1.83,1.83,0,0,0-1.39-1.54l-.59-.16a2.06,2.06,0,0,1-1.5-2V15.38A1.88,1.88,0,0,0,30,13.57a15.34,15.34,0,0,1-6,1.09,15.34,15.34,0,0,1-6-1.09,1.88,1.88,0,0,0-1.4,1.81v2.06a2.06,2.06,0,0,1-1.5,2l-.59.16a1.83,1.83,0,0,0-1.39,1.54,1.81,1.81,0,0,0,1.81,2h.11a9,9,0,0,0,17.9,0h.11A1.81,1.81,0,0,0,34.87,21.12Z"/><path id="_Path_9" data-name="&lt;Path&gt;" class="cls-12" d="M18.57,20.91a.77.77,0,1,0,.77-.77A.76.76,0,0,0,18.57,20.91Z"/><path id="_Path_10" data-name="&lt;Path&gt;" class="cls-12" d="M29.43,20.91a.77.77,0,1,1-.77-.77A.76.76,0,0,1,29.43,20.91Z"/><g id="_Group_2" data-name="&lt;Group&gt;"><g id="_Group_3" data-name="&lt;Group&gt;"><g id="_Group_4" data-name="&lt;Group&gt;"><g id="_Group_5" data-name="&lt;Group&gt;"><g id="_Group_6" data-name="&lt;Group&gt;"><g id="_Group_7" data-name="&lt;Group&gt;"><g id="_Group_8" data-name="&lt;Group&gt;"><path id="_Path_11" data-name="&lt;Path&gt;" class="cls-13" d="M21.16,25.6a.44.44,0,0,0-.33.16.42.42,0,0,0-.1.35,3.32,3.32,0,0,0,6.54,0,.42.42,0,0,0-.1-.35.44.44,0,0,0-.33-.16Z"/><path id="_Path_12" data-name="&lt;Path&gt;" class="cls-14" d="M24,27a4,4,0,0,0-2.52.77,3.36,3.36,0,0,0,5,0A4,4,0,0,0,24,27Z"/></g></g></g></g></g></g></g><g id="_Group_9" data-name="&lt;Group&gt;"><path id="_Path_13" data-name="&lt;Path&gt;" class="cls-3" d="M21.16,25.6a.44.44,0,0,0-.33.16.42.42,0,0,0-.1.35,3.32,3.32,0,0,0,6.54,0,.42.42,0,0,0-.1-.35.44.44,0,0,0-.33-.16Z"/></g><ellipse id="_Ellipse_2" data-name="&lt;Ellipse&gt;" class="cls-15" cx="18.06" cy="24.19" rx="1" ry="0.6"/><ellipse id="_Ellipse_3" data-name="&lt;Ellipse&gt;" class="cls-15" cx="29.94" cy="24.19" rx="1" ry="0.6"/></svg>