<svg id="Icons" xmlns="http://www.w3.org/2000/svg" viewBox="0 0 48 48"><defs><style>.cls-1{fill:#724f3d;}.cls-2{fill:#a86c4d;}.cls-3{fill:none;}.cls-15,.cls-18,.cls-19,.cls-25,.cls-3,.cls-7,.cls-8{stroke:#45413c;stroke-linecap:round;stroke-linejoin:round;}.cls-25,.cls-4{fill:#45413c;}.cls-4{opacity:0.15;}.cls-5{fill:#fff;}.cls-6{fill:#e0e0e0;}.cls-7{fill:#f0f0f0;}.cls-16,.cls-8{fill:#00dba8;}.cls-19,.cls-9{fill:#ffe500;}.cls-10{fill:#ebcb00;}.cls-11,.cls-15{fill:#80ddff;}.cls-12{fill:#b8ecff;}.cls-13{fill:#ff6196;}.cls-14{fill:#ff87af;}.cls-17{fill:#00f5bc;}.cls-18{fill:#e5feff;}.cls-20{fill:#ff6242;}.cls-21{fill:#ffa694;}.cls-22{fill:#ffaa54;}.cls-23{fill:#00b8f0;}.cls-24{fill:#4acfff;}</style></defs><title>159-woman-scientist-1</title><path id="_Path_" data-name="&lt;Path&gt;" class="cls-1" d="M24,6.32A10.88,10.88,0,0,1,34.88,17.19V31.38a1.24,1.24,0,0,1-.77,1.14h0a27.09,27.09,0,0,1-20.22,0h0a1.24,1.24,0,0,1-.77-1.14V17.19A10.88,10.88,0,0,1,24,6.32Z"/><path id="_Path_2" data-name="&lt;Path&gt;" class="cls-2" d="M24,6.32A10.88,10.88,0,0,0,13.12,17.19v3a10.88,10.88,0,0,1,21.76,0v-3A10.88,10.88,0,0,0,24,6.32Z"/><path id="_Path_3" data-name="&lt;Path&gt;" class="cls-3" d="M24,6.32A10.88,10.88,0,0,1,34.88,17.19V31.38a1.24,1.24,0,0,1-.77,1.14h0a27.09,27.09,0,0,1-20.22,0h0a1.24,1.24,0,0,1-.77-1.14V17.19A10.88,10.88,0,0,1,24,6.32Z"/><ellipse id="_Ellipse_" data-name="&lt;Ellipse&gt;" class="cls-4" cx="24" cy="45.5" rx="15" ry="1.5"/><path id="_Rectangle_" data-name="&lt;Rectangle&gt;" class="cls-5" d="M24,31.22h0A11.88,11.88,0,0,1,35.88,43.1V45a0,0,0,0,1,0,0H12.12a0,0,0,0,1,0,0V43.1A11.88,11.88,0,0,1,24,31.22Z"/><path id="_Path_4" data-name="&lt;Path&gt;" class="cls-6" d="M24,31.22A11.88,11.88,0,0,0,12.12,43.1V45h.06a11.87,11.87,0,0,1,23.64,0h.06V43.1A11.88,11.88,0,0,0,24,31.22Z"/><path id="_Rectangle_2" data-name="&lt;Rectangle&gt;" class="cls-3" d="M24,31.22h0A11.88,11.88,0,0,1,35.88,43.1V45a0,0,0,0,1,0,0H12.12a0,0,0,0,1,0,0V43.1A11.88,11.88,0,0,1,24,31.22Z"/><path class="cls-7" d="M30.67,33.26S28.76,30.41,24,30.41s-6.67,2.85-6.67,2.85l2,1.85-.77,2.83L24,42.33l5.43-4.39-.77-2.83Z"/><path id="_Path_5" data-name="&lt;Path&gt;" class="cls-8" d="M26.54,32.57v1.82A5.49,5.49,0,0,1,24,39h0a5.49,5.49,0,0,1-2.54-4.65V32.57Z"/><rect id="_Rectangle_3" data-name="&lt;Rectangle&gt;" class="cls-9" x="21.46" y="27.17" width="5.09" height="7.94" rx="2.54" ry="2.54"/><path id="_Path_6" data-name="&lt;Path&gt;" class="cls-10" d="M24,27.17a2.54,2.54,0,0,0-2.54,2.54v.6a2.54,2.54,0,0,0,5.08,0v-.59A2.54,2.54,0,0,0,24,27.17Z"/><rect id="_Rectangle_4" data-name="&lt;Rectangle&gt;" class="cls-3" x="21.46" y="27.17" width="5.09" height="7.94" rx="2.54" ry="2.54"/><line id="_Path_7" data-name="&lt;Path&gt;" class="cls-3" x1="17.06" y1="45" x2="17.06" y2="42.59"/><line id="_Path_8" data-name="&lt;Path&gt;" class="cls-3" x1="30.94" y1="45" x2="30.94" y2="42.59"/><line id="_Path_9" data-name="&lt;Path&gt;" class="cls-3" x1="24" y1="39.04" x2="24" y2="45"/><path id="_Rectangle_5" data-name="&lt;Rectangle&gt;" class="cls-11" d="M34.87,29H39.6a0,0,0,0,1,0,0V44.68A2.36,2.36,0,0,1,37.24,47h0a2.36,2.36,0,0,1-2.36-2.36V29A0,0,0,0,1,34.87,29Z"/><path id="_Path_10" data-name="&lt;Path&gt;" class="cls-12" d="M39.6,29.48l-4.73,6.78v8.42a2.37,2.37,0,0,0,4.73,0Z"/><path id="_Rectangle_6" data-name="&lt;Rectangle&gt;" class="cls-3" d="M34.87,29H39.6a0,0,0,0,1,0,0V44.68A2.36,2.36,0,0,1,37.24,47h0a2.36,2.36,0,0,1-2.36-2.36V29A0,0,0,0,1,34.87,29Z"/><path id="_Rectangle_7" data-name="&lt;Rectangle&gt;" class="cls-13" d="M34.87,32.74H39.6a0,0,0,0,1,0,0V44.68A2.36,2.36,0,0,1,37.24,47h0a2.36,2.36,0,0,1-2.36-2.36V32.74A0,0,0,0,1,34.87,32.74Z"/><path id="_Path_11" data-name="&lt;Path&gt;" class="cls-14" d="M34.87,36.26v8.42a2.37,2.37,0,0,0,4.73,0V32.74H37.33Z"/><path id="_Rectangle_8" data-name="&lt;Rectangle&gt;" class="cls-3" d="M34.87,32.74H39.6a0,0,0,0,1,0,0V44.68A2.36,2.36,0,0,1,37.24,47h0a2.36,2.36,0,0,1-2.36-2.36V32.74A0,0,0,0,1,34.87,32.74Z"/><rect id="_Rectangle_9" data-name="&lt;Rectangle&gt;" class="cls-15" x="34.1" y="27.07" width="6.27" height="1.92" rx="0.96" ry="0.96"/><rect id="_Rectangle_10" data-name="&lt;Rectangle&gt;" class="cls-16" x="37.43" y="36.44" width="4.33" height="2.31" rx="1.15" ry="1.15"/><path class="cls-17" d="M38.59,37.59h2a1.16,1.16,0,0,1,1,.58,1.15,1.15,0,0,0,.16-.58,1.16,1.16,0,0,0-1.16-1.15h-2a1.16,1.16,0,0,0-1.16,1.15,1.15,1.15,0,0,0,.16.58A1.16,1.16,0,0,1,38.59,37.59Z"/><rect id="_Rectangle_11" data-name="&lt;Rectangle&gt;" class="cls-3" x="37.43" y="36.44" width="4.33" height="2.31" rx="1.15" ry="1.15"/><rect id="_Rectangle_12" data-name="&lt;Rectangle&gt;" class="cls-8" x="37.43" y="38.75" width="4.33" height="2.31" rx="1.15" ry="1.15"/><rect id="_Rectangle_13" data-name="&lt;Rectangle&gt;" class="cls-8" x="37.43" y="41.05" width="4.33" height="2.31" rx="1.15" ry="1.15"/><path id="_Rectangle_14" data-name="&lt;Rectangle&gt;" class="cls-16" d="M33.33,35h0a1.54,1.54,0,0,1,1.54,1.54v6.73a0,0,0,0,1,0,0h0a2.34,2.34,0,0,1-2.34-2.34V35.8A.79.79,0,0,1,33.33,35Z"/><path id="_Path_12" data-name="&lt;Path&gt;" class="cls-17" d="M33.33,35a.79.79,0,0,0-.79.8v1.91a.79.79,0,0,1,.79-.79,1.54,1.54,0,0,1,1.54,1.54V36.55A1.54,1.54,0,0,0,33.33,35Z"/><path id="_Rectangle_15" data-name="&lt;Rectangle&gt;" class="cls-3" d="M33.33,35h0a1.54,1.54,0,0,1,1.54,1.54v6.73a0,0,0,0,1,0,0h0a2.34,2.34,0,0,1-2.34-2.34V35.8A.79.79,0,0,1,33.33,35Z"/><circle id="_Path_13" data-name="&lt;Path&gt;" class="cls-18" cx="38.04" cy="24.21" r="0.94"/><circle id="_Path_14" data-name="&lt;Path&gt;" class="cls-18" cx="37.79" cy="16.68" r="0.94"/><circle id="_Path_15" data-name="&lt;Path&gt;" class="cls-18" cx="40.89" cy="19.54" r="1.5"/><g id="_Group_" data-name="&lt;Group&gt;"><path id="_Path_16" data-name="&lt;Path&gt;" class="cls-19" d="M33.07,19.47a8.77,8.77,0,0,1-5.68-5L26.77,13a15.92,15.92,0,0,1-9.95,6.18l-1.88.34a1.81,1.81,0,1,0,0,3.62h.11a9,9,0,0,0,17.9,0h.12a1.81,1.81,0,1,0,0-3.62Z"/></g><g id="_Group_2" data-name="&lt;Group&gt;"><g id="_Group_3" data-name="&lt;Group&gt;"><g id="_Group_4" data-name="&lt;Group&gt;"><g id="_Group_5" data-name="&lt;Group&gt;"><g id="_Group_6" data-name="&lt;Group&gt;"><g id="_Group_7" data-name="&lt;Group&gt;"><g id="_Group_8" data-name="&lt;Group&gt;"><path id="_Path_17" data-name="&lt;Path&gt;" class="cls-20" d="M21.16,25.6a.44.44,0,0,0-.33.16.42.42,0,0,0-.1.35,3.32,3.32,0,0,0,6.54,0,.42.42,0,0,0-.1-.35.44.44,0,0,0-.33-.16Z"/><path id="_Path_18" data-name="&lt;Path&gt;" class="cls-21" d="M24,27a4,4,0,0,0-2.52.77,3.36,3.36,0,0,0,5,0A4,4,0,0,0,24,27Z"/></g></g></g></g></g></g></g><g id="_Group_9" data-name="&lt;Group&gt;"><path id="_Path_19" data-name="&lt;Path&gt;" class="cls-3" d="M21.16,25.6a.44.44,0,0,0-.33.16.42.42,0,0,0-.1.35,3.32,3.32,0,0,0,6.54,0,.42.42,0,0,0-.1-.35.44.44,0,0,0-.33-.16Z"/></g><ellipse id="_Ellipse_2" data-name="&lt;Ellipse&gt;" class="cls-22" cx="18.06" cy="24.79" rx="1" ry="0.6"/><ellipse id="_Ellipse_3" data-name="&lt;Ellipse&gt;" class="cls-22" cx="29.94" cy="24.79" rx="1" ry="0.6"/><path id="_Path_20" data-name="&lt;Path&gt;" class="cls-23" d="M16,19v3.55a1,1,0,0,0,.88,1l4.07.51a2.07,2.07,0,0,0,1.53-.42l.88-.67a1.14,1.14,0,0,1,1.38,0l.88.67a2.07,2.07,0,0,0,1.53.42l4.07-.51a1,1,0,0,0,.88-1V19a1,1,0,0,0-1-1H17A1,1,0,0,0,16,19Z"/><path id="_Path_21" data-name="&lt;Path&gt;" class="cls-24" d="M32.05,19a1,1,0,0,0-1-1H24.46l-4.17,6,.61.08a2.07,2.07,0,0,0,1.53-.42l.88-.67a1.14,1.14,0,0,1,1.38,0l.88.67a2.07,2.07,0,0,0,1.53.42l4.07-.51a1,1,0,0,0,.88-1Z"/><path id="_Path_22" data-name="&lt;Path&gt;" class="cls-3" d="M16,19v3.55a1,1,0,0,0,.88,1l4.07.51a2.07,2.07,0,0,0,1.53-.42l.88-.67a1.14,1.14,0,0,1,1.38,0l.88.67a2.07,2.07,0,0,0,1.53.42l4.07-.51a1,1,0,0,0,.88-1V19a1,1,0,0,0-1-1H17A1,1,0,0,0,16,19Z"/><path id="_Path_23" data-name="&lt;Path&gt;" class="cls-25" d="M18.82,20.91a.77.77,0,1,0,.77-.77A.76.76,0,0,0,18.82,20.91Z"/><path id="_Path_24" data-name="&lt;Path&gt;" class="cls-25" d="M29.18,20.91a.77.77,0,1,1-.77-.77A.76.76,0,0,1,29.18,20.91Z"/></svg>