<svg id="Icons" xmlns="http://www.w3.org/2000/svg" viewBox="0 0 48 48"><defs><style>.cls-1,.cls-14{fill:#45413c;}.cls-1{opacity:0.15;}.cls-2{fill:#fff;}.cls-3{fill:#e0e0e0;}.cls-4{fill:none;}.cls-14,.cls-4,.cls-5,.cls-6,.cls-7,.cls-8{stroke:#45413c;stroke-linecap:round;stroke-linejoin:round;}.cls-15,.cls-5{fill:#ff6242;}.cls-6{fill:#009fd9;}.cls-7{fill:#656769;}.cls-8{fill:#ffcebf;}.cls-9{fill:#00b8f0;}.cls-10{fill:#4acfff;}.cls-11{fill:#bdbec0;}.cls-12{fill:#a86c4d;}.cls-13{fill:#de926a;}.cls-16{fill:#ffa694;}.cls-17{fill:#ffb59e;}</style></defs><title>178-man-astronaut-2</title><ellipse id="_Ellipse_" data-name="&lt;Ellipse&gt;" class="cls-1" cx="30.57" cy="45.5" rx="15" ry="1.5"/><path class="cls-2" d="M39.32,32.84,30.59,30l-8.74,2.87a6.87,6.87,0,0,0-5.05,6.31V45H44.37V39.15A6.87,6.87,0,0,0,39.32,32.84Z"/><path class="cls-3" d="M39.32,32.84,30.59,30l-8.74,2.87a6.87,6.87,0,0,0-5.05,6.31v3a6.87,6.87,0,0,1,5.05-6.31L30.59,33l8.73,2.87a6.87,6.87,0,0,1,5,6.31v-3A6.87,6.87,0,0,0,39.32,32.84Z"/><path class="cls-4" d="M39.32,32.84,30.59,30l-8.74,2.87a6.87,6.87,0,0,0-5.05,6.31V45H44.37V39.15A6.87,6.87,0,0,0,39.32,32.84Z"/><line id="_Path_" data-name="&lt;Path&gt;" class="cls-4" x1="38.8" y1="45" x2="38.8" y2="33.7"/><line id="_Path_2" data-name="&lt;Path&gt;" class="cls-4" x1="22.38" y1="45" x2="22.38" y2="33.7"/><rect id="_Rectangle_" data-name="&lt;Rectangle&gt;" class="cls-5" x="24.4" y="39.41" width="4.55" height="2.5"/><circle id="_Path_3" data-name="&lt;Path&gt;" class="cls-6" cx="35.51" cy="40.66" r="1.25"/><ellipse id="_Path_4" data-name="&lt;Path&gt;" class="cls-2" cx="30.59" cy="32.04" rx="9.1" ry="3.83"/><path id="_Path_5" data-name="&lt;Path&gt;" class="cls-3" d="M30.59,28.21c-4.4,0-8.07,1.31-8.92,3.06.85,1.74,4.52,3.06,8.92,3.06S38.65,33,39.5,31.27C38.65,29.52,35,28.21,30.59,28.21Z"/><ellipse id="_Path_6" data-name="&lt;Path&gt;" class="cls-4" cx="30.59" cy="32.04" rx="9.1" ry="3.83"/><ellipse id="_Path_7" data-name="&lt;Path&gt;" class="cls-7" cx="30.59" cy="31.49" rx="6.29" ry="1.47"/><path class="cls-8" d="M28,32.83a25,25,0,0,0,5.09,0V29.58H28Z"/><path id="_Rectangle_2" data-name="&lt;Rectangle&gt;" class="cls-3" d="M18.68,27.79h0a0,0,0,0,1,0,0v6.73a1.54,1.54,0,0,1-1.54,1.54h0a.79.79,0,0,1-.79-.79V30.13A2.34,2.34,0,0,1,18.68,27.79Z" transform="translate(45.18 55.59) rotate(159.27)"/><path id="_Rectangle_3" data-name="&lt;Rectangle&gt;" class="cls-4" d="M18.68,27.79h0a0,0,0,0,1,0,0v6.73a1.54,1.54,0,0,1-1.54,1.54h0a.79.79,0,0,1-.79-.79V30.13A2.34,2.34,0,0,1,18.68,27.79Z" transform="translate(45.18 55.59) rotate(159.27)"/><path id="_Path_8" data-name="&lt;Path&gt;" class="cls-3" d="M6.54,42.59a.77.77,0,0,0,.77.77H8A10,10,0,0,0,8.5,45H28.62a10,10,0,0,0,.5-1.64h.69a.77.77,0,0,0,.78-.77V39.54a.77.77,0,0,0-.78-.77h-.69A10.8,10.8,0,0,0,8,38.77H7.31a.77.77,0,0,0-.77.77Z"/><path class="cls-2" d="M29.81,38.77h-.69A10.8,10.8,0,0,0,8,38.77H7.31a.77.77,0,0,0-.77.77v2.17a.78.78,0,0,1,.77-.78.88.88,0,0,0,.85-.64,10.81,10.81,0,0,1,20.8,0,.89.89,0,0,0,.85.64.78.78,0,0,1,.78.78V39.54A.77.77,0,0,0,29.81,38.77Z"/><path id="_Path_9" data-name="&lt;Path&gt;" class="cls-4" d="M6.54,42.59a.77.77,0,0,0,.77.77H8A10,10,0,0,0,8.5,45H28.62a10,10,0,0,0,.5-1.64h.69a.77.77,0,0,0,.78-.77V39.54a.77.77,0,0,0-.78-.77h-.69A10.8,10.8,0,0,0,8,38.77H7.31a.77.77,0,0,0-.77.77Z"/><path id="_Path_10" data-name="&lt;Path&gt;" class="cls-9" d="M26.26,45A8.65,8.65,0,1,0,9.91,41.07a8.55,8.55,0,0,0,1,3.93Z"/><path id="_Path_11" data-name="&lt;Path&gt;" class="cls-10" d="M18.56,36.72c4.3,0,7.86,2.48,8.53,5.71A8.64,8.64,0,1,0,9.91,41.07,7.65,7.65,0,0,0,10,42.43C10.7,39.2,14.26,36.72,18.56,36.72Z"/><path id="_Path_12" data-name="&lt;Path&gt;" class="cls-4" d="M26.26,45A8.65,8.65,0,1,0,9.91,41.07a8.55,8.55,0,0,0,1,3.93Z"/><rect id="_Rectangle_4" data-name="&lt;Rectangle&gt;" class="cls-11" x="12.63" y="30.43" width="4.33" height="2.31" rx="1.15" ry="1.15" transform="translate(-3.48 61.29) rotate(-123.29)"/><path class="cls-3" d="M13.61,29.78a1.15,1.15,0,0,0-.33,1.59l.83,1.26A1.15,1.15,0,0,1,14.44,31a1.16,1.16,0,0,1,1.6.33l-.84-1.26A1.14,1.14,0,0,0,13.61,29.78Z"/><rect id="_Rectangle_5" data-name="&lt;Rectangle&gt;" class="cls-4" x="12.63" y="30.43" width="4.33" height="2.31" rx="1.15" ry="1.15" transform="translate(-3.48 61.29) rotate(-123.29)"/><rect id="_Rectangle_6" data-name="&lt;Rectangle&gt;" class="cls-11" x="10.69" y="31.67" width="4.33" height="2.31" rx="1.15" ry="1.15" transform="translate(-7.53 61.59) rotate(-123.29)"/><path class="cls-3" d="M11.66,31a1.16,1.16,0,0,0-.33,1.6l.83,1.26a1.15,1.15,0,0,1,1.93-1.26l-.83-1.26A1.16,1.16,0,0,0,11.66,31Z"/><rect id="_Rectangle_7" data-name="&lt;Rectangle&gt;" class="cls-4" x="10.69" y="31.67" width="4.33" height="2.31" rx="1.15" ry="1.15" transform="translate(-7.53 61.59) rotate(-123.29)"/><rect id="_Rectangle_8" data-name="&lt;Rectangle&gt;" class="cls-11" x="8.91" y="33.17" width="4.33" height="2.31" rx="1.15" ry="1.15" transform="translate(-11.53 62.43) rotate(-123.29)"/><path class="cls-3" d="M9.89,32.52a1.15,1.15,0,0,0-.33,1.59l.83,1.27a1.16,1.16,0,1,1,1.93-1.27l-.83-1.26A1.15,1.15,0,0,0,9.89,32.52Z"/><rect id="_Rectangle_9" data-name="&lt;Rectangle&gt;" class="cls-4" x="8.91" y="33.17" width="4.33" height="2.31" rx="1.15" ry="1.15" transform="translate(-11.53 62.43) rotate(-123.29)"/><path id="_Path_13" data-name="&lt;Path&gt;" class="cls-12" d="M30.59,6.91a9.91,9.91,0,0,0-2.45.31c-1.85.42-4.27,1.12-6.46.7a4.15,4.15,0,0,0,.84,3.21,9.75,9.75,0,0,0-1.76,5.6v5.14H40.41V16.73A9.82,9.82,0,0,0,30.59,6.91Z"/><g id="_Group_" data-name="&lt;Group&gt;"><path id="_Path_14" data-name="&lt;Path&gt;" class="cls-13" d="M30.59,6.91a9.91,9.91,0,0,0-2.45.31c-1.85.42-4.27,1.12-6.46.7a4.41,4.41,0,0,0,.68,3,19.28,19.28,0,0,0,5.78-.79,9.82,9.82,0,0,1,12.27,9.51V16.73A9.82,9.82,0,0,0,30.59,6.91Z"/></g><path id="_Path_15" data-name="&lt;Path&gt;" class="cls-4" d="M30.59,6.91a9.91,9.91,0,0,0-2.45.31c-1.85.42-4.27,1.12-6.46.7a4.15,4.15,0,0,0,.84,3.21,9.75,9.75,0,0,0-1.76,5.6v5.14H40.41V16.73A9.82,9.82,0,0,0,30.59,6.91Z"/><path class="cls-8" d="M41.46,21.12a1.83,1.83,0,0,0-1.4-1.54l-.58-.16a2.06,2.06,0,0,1-1.5-2V15.38a1.88,1.88,0,0,0-1.4-1.81,15.41,15.41,0,0,1-6,1.09,15.34,15.34,0,0,1-6-1.09,1.87,1.87,0,0,0-1.4,1.81v2.06a2.07,2.07,0,0,1-1.5,2l-.59.16a1.78,1.78,0,0,0,.41,3.51h.11a9.05,9.05,0,0,0,17.91,0h.11A1.82,1.82,0,0,0,41.46,21.12Z"/><path id="_Path_16" data-name="&lt;Path&gt;" class="cls-14" d="M25.15,20.91a.78.78,0,1,0,.77-.77A.77.77,0,0,0,25.15,20.91Z"/><path id="_Path_17" data-name="&lt;Path&gt;" class="cls-14" d="M36,20.91a.77.77,0,1,1-.77-.77A.76.76,0,0,1,36,20.91Z"/><g id="_Group_2" data-name="&lt;Group&gt;"><g id="_Group_3" data-name="&lt;Group&gt;"><g id="_Group_4" data-name="&lt;Group&gt;"><g id="_Group_5" data-name="&lt;Group&gt;"><g id="_Group_6" data-name="&lt;Group&gt;"><g id="_Group_7" data-name="&lt;Group&gt;"><g id="_Group_8" data-name="&lt;Group&gt;"><path id="_Path_18" data-name="&lt;Path&gt;" class="cls-15" d="M27.75,25.6a.46.46,0,0,0-.44.51,3.32,3.32,0,0,0,6.55,0,.45.45,0,0,0-.44-.51Z"/><path id="_Path_19" data-name="&lt;Path&gt;" class="cls-16" d="M30.59,27a4.08,4.08,0,0,0-2.53.77,3.37,3.37,0,0,0,5.05,0A4,4,0,0,0,30.59,27Z"/></g></g></g></g></g></g></g><g id="_Group_9" data-name="&lt;Group&gt;"><path id="_Path_20" data-name="&lt;Path&gt;" class="cls-4" d="M27.75,25.6a.46.46,0,0,0-.44.51,3.32,3.32,0,0,0,6.55,0,.45.45,0,0,0-.44-.51Z"/></g><ellipse id="_Ellipse_2" data-name="&lt;Ellipse&gt;" class="cls-17" cx="24.65" cy="24.19" rx="1" ry="0.6"/><ellipse id="_Ellipse_3" data-name="&lt;Ellipse&gt;" class="cls-17" cx="36.53" cy="24.19" rx="1" ry="0.6"/></svg>