<svg id="Icons" xmlns="http://www.w3.org/2000/svg" viewBox="0 0 48 48"><defs><style>.cls-1,.cls-4{fill:#e04122;}.cls-1,.cls-13,.cls-5,.cls-6,.cls-7,.cls-8,.cls-9{stroke:#45413c;stroke-linecap:round;stroke-linejoin:round;}.cls-2,.cls-9{fill:#45413c;}.cls-2{opacity:0.15;}.cls-13,.cls-3{fill:#ff6242;}.cls-5{fill:none;}.cls-6{fill:#ebcb00;}.cls-7{fill:#724f3d;}.cls-14,.cls-8{fill:#ffe500;}.cls-10{fill:#ffa694;}.cls-11{fill:#ffaa54;}.cls-12{fill:#ff866e;}.cls-15{fill:#fff48c;}.cls-16{fill:#c0dceb;}.cls-17{fill:#daedf7;}.cls-18{fill:#656769;}.cls-19{fill:#525252;}.cls-20{fill:#00b8f0;}.cls-21{fill:#4acfff;}</style></defs><title>183-man-firefighter-1</title><path id="_Path_" data-name="&lt;Path&gt;" class="cls-1" d="M24.09,29.87h0a24.86,24.86,0,0,1-13.42,0h0a4.54,4.54,0,0,1-3.32-4.74l.53-6a6.44,6.44,0,0,1,4.84-5.67h0a18.62,18.62,0,0,1,9.32,0h0a6.47,6.47,0,0,1,4.84,5.67l.52,6A4.52,4.52,0,0,1,24.09,29.87Z"/><ellipse id="_Ellipse_" data-name="&lt;Ellipse&gt;" class="cls-2" cx="19.5" cy="45.5" rx="16.5" ry="1.5"/><path id="_Rectangle_" data-name="&lt;Rectangle&gt;" class="cls-3" d="M17.38,31.22h0A11.88,11.88,0,0,1,29.26,43.1V45a0,0,0,0,1,0,0H5.5a0,0,0,0,1,0,0V43.1A11.88,11.88,0,0,1,17.38,31.22Z"/><path id="_Path_2" data-name="&lt;Path&gt;" class="cls-4" d="M17.38,31.22A11.88,11.88,0,0,0,5.5,43.1V45h.11a11.86,11.86,0,0,1,23.54,0h.11V43.1A11.88,11.88,0,0,0,17.38,31.22Z"/><path id="_Rectangle_2" data-name="&lt;Rectangle&gt;" class="cls-5" d="M17.38,31.22h0A11.88,11.88,0,0,1,29.26,43.1V45a0,0,0,0,1,0,0H5.5a0,0,0,0,1,0,0V43.1A11.88,11.88,0,0,1,17.38,31.22Z"/><path class="cls-6" d="M17.38,27.17a2.55,2.55,0,0,0-2.55,2.55v2.85a2.55,2.55,0,0,0,5.09,0V29.72A2.55,2.55,0,0,0,17.38,27.17Z"/><path id="_Path_3" data-name="&lt;Path&gt;" class="cls-6" d="M14.83,31.21c0,1.1.74,2,2.55,2s2.54-.89,2.54-2a2.77,2.77,0,0,1,.74,1.91c0,1.28-1.47,2-3.28,2s-3.28-.76-3.28-2A2.76,2.76,0,0,1,14.83,31.21Z"/><line id="_Path_4" data-name="&lt;Path&gt;" class="cls-5" x1="17.38" y1="35.11" x2="17.38" y2="33.2"/><path id="_Rectangle_3" data-name="&lt;Rectangle&gt;" class="cls-7" d="M17.38,6.91h0a9.82,9.82,0,0,1,9.82,9.82v5.14a0,0,0,0,1,0,0H7.56a0,0,0,0,1,0,0V16.73a9.82,9.82,0,0,1,9.82-9.82Z"/><path class="cls-8" d="M28.25,21.12a1.83,1.83,0,0,0-1.39-1.54l-.59-.16a2.06,2.06,0,0,1-1.5-2V15.38a1.88,1.88,0,0,0-1.4-1.81,15.37,15.37,0,0,1-6,1.09,15.34,15.34,0,0,1-6-1.09A1.87,1.87,0,0,0,10,15.38v2.06a2.07,2.07,0,0,1-1.5,2l-.59.16a1.83,1.83,0,0,0-1.39,1.54,1.81,1.81,0,0,0,1.8,2h.11a9.05,9.05,0,0,0,17.91,0h.11A1.81,1.81,0,0,0,28.25,21.12Z"/><path id="_Path_5" data-name="&lt;Path&gt;" class="cls-9" d="M11.94,20.91a.78.78,0,1,0,.78-.77A.77.77,0,0,0,11.94,20.91Z"/><path id="_Path_6" data-name="&lt;Path&gt;" class="cls-9" d="M22.81,20.91a.77.77,0,1,1-.77-.77A.76.76,0,0,1,22.81,20.91Z"/><g id="_Group_" data-name="&lt;Group&gt;"><g id="_Group_2" data-name="&lt;Group&gt;"><g id="_Group_3" data-name="&lt;Group&gt;"><g id="_Group_4" data-name="&lt;Group&gt;"><g id="_Group_5" data-name="&lt;Group&gt;"><g id="_Group_6" data-name="&lt;Group&gt;"><g id="_Group_7" data-name="&lt;Group&gt;"><path id="_Path_7" data-name="&lt;Path&gt;" class="cls-3" d="M14.54,25.6a.42.42,0,0,0-.33.16.46.46,0,0,0-.11.35,3.32,3.32,0,0,0,6.55,0,.45.45,0,0,0-.1-.35.44.44,0,0,0-.34-.16Z"/><path id="_Path_8" data-name="&lt;Path&gt;" class="cls-10" d="M17.38,27a4,4,0,0,0-2.52.77,3.36,3.36,0,0,0,5,0A4,4,0,0,0,17.38,27Z"/></g></g></g></g></g></g></g><g id="_Group_8" data-name="&lt;Group&gt;"><path id="_Path_9" data-name="&lt;Path&gt;" class="cls-5" d="M14.54,25.6a.42.42,0,0,0-.33.16.46.46,0,0,0-.11.35,3.32,3.32,0,0,0,6.55,0,.45.45,0,0,0-.1-.35.44.44,0,0,0-.34-.16Z"/></g><ellipse id="_Ellipse_2" data-name="&lt;Ellipse&gt;" class="cls-11" cx="11.44" cy="24.19" rx="1" ry="0.6"/><ellipse id="_Ellipse_3" data-name="&lt;Ellipse&gt;" class="cls-11" cx="23.32" cy="24.19" rx="1" ry="0.6"/><rect id="_Path_10" data-name="&lt;Path&gt;" class="cls-8" x="10.44" y="41.07" width="13.88" height="1.92"/><path class="cls-3" d="M11.74,11.55a22.23,22.23,0,0,1,11.28,0,7.83,7.83,0,0,1,4.39,3,10,10,0,0,0-20.07,0A7.88,7.88,0,0,1,11.74,11.55Z"/><path class="cls-12" d="M17.38,7.24a10,10,0,0,1,9.41,6.56,6.43,6.43,0,0,1,.62.76,10,10,0,0,0-20.07,0A7.6,7.6,0,0,1,8,13.8,10,10,0,0,1,17.38,7.24Z"/><path class="cls-5" d="M11.74,11.55a22.23,22.23,0,0,1,11.28,0,7.83,7.83,0,0,1,4.39,3,10,10,0,0,0-20.07,0A7.88,7.88,0,0,1,11.74,11.55Z"/><path id="_Path_11" data-name="&lt;Path&gt;" class="cls-3" d="M19.39,4.24a1,1,0,0,0-.94-1c-.72,0-1.42,0-2.15,0a1,1,0,0,0-.94,1V10.6h4Z"/><path id="_Path_12" data-name="&lt;Path&gt;" class="cls-12" d="M18.45,3.24c-.72,0-1.42,0-2.15,0a1,1,0,0,0-.94,1V5.91a1,1,0,0,1,.94-1c.73,0,1.43,0,2.15,0a1,1,0,0,1,.94,1V4.24A1,1,0,0,0,18.45,3.24Z"/><path id="_Path_13" data-name="&lt;Path&gt;" class="cls-5" d="M19.39,4.24a1,1,0,0,0-.94-1c-.72,0-1.42,0-2.15,0a1,1,0,0,0-.94,1V10.6h4Z"/><line id="_Path_14" data-name="&lt;Path&gt;" class="cls-5" x1="17.38" y1="45" x2="17.38" y2="35.11"/><line id="_Path_15" data-name="&lt;Path&gt;" class="cls-5" x1="10.44" y1="45" x2="10.44" y2="39.78"/><line id="_Path_16" data-name="&lt;Path&gt;" class="cls-5" x1="24.32" y1="45" x2="24.32" y2="39.78"/><path id="_Rectangle_4" data-name="&lt;Rectangle&gt;" class="cls-8" d="M15.16,6.18h4.43a.22.22,0,0,1,.22.22V8.93a2.43,2.43,0,0,1-2.43,2.43h0a2.43,2.43,0,0,1-2.43-2.43V6.4a.22.22,0,0,1,.22-.22Z"/><path class="cls-13" d="M29.5,25.88l-.63-7.39A7.87,7.87,0,0,0,23,11.55a22.23,22.23,0,0,0-11.28,0,7.86,7.86,0,0,0-5.85,6.94l-.64,7.39a5.56,5.56,0,0,0,4,5.81,29.14,29.14,0,0,0,3,.67,12.37,12.37,0,0,1,2.55-.87v-.82a24.83,24.83,0,0,1-4.16-.8,4.54,4.54,0,0,1-3.32-4.74l.53-6a6.44,6.44,0,0,1,4.84-5.67,18.62,18.62,0,0,1,9.32,0,6.47,6.47,0,0,1,4.84,5.67l.52,6a4.52,4.52,0,0,1-3.31,4.74,24.75,24.75,0,0,1-4.17.8v.82a12.17,12.17,0,0,1,2.55.87,28,28,0,0,0,3-.67A5.54,5.54,0,0,0,29.5,25.88Z"/><path id="_Rectangle_5" data-name="&lt;Rectangle&gt;" class="cls-14" d="M32.93,23.05h0a1.54,1.54,0,0,1,1.54,1.54v6.73a0,0,0,0,1,0,0h0A2.34,2.34,0,0,1,32.13,29V23.85a.79.79,0,0,1,.79-.79Z" transform="translate(4.55 -4.78) rotate(8.8)"/><path id="_Path_17" data-name="&lt;Path&gt;" class="cls-15" d="M33.57,23a.8.8,0,0,0-.91.67l-.3,1.89a.8.8,0,0,1,.91-.66,1.55,1.55,0,0,1,1.29,1.76l.29-1.9A1.54,1.54,0,0,0,33.57,23Z"/><path id="_Rectangle_6" data-name="&lt;Rectangle&gt;" class="cls-5" d="M32.93,23.05h0a1.54,1.54,0,0,1,1.54,1.54v6.73a0,0,0,0,1,0,0h0A2.34,2.34,0,0,1,32.13,29V23.85a.79.79,0,0,1,.79-.79Z" transform="translate(4.55 -4.78) rotate(8.8)"/><polygon id="_Path_18" data-name="&lt;Path&gt;" class="cls-16" points="37.02 35.32 31.32 33.45 37.44 19.65 40.29 20.59 37.02 35.32"/><polygon id="_Path_19" data-name="&lt;Path&gt;" class="cls-17" points="39.16 20.21 37.44 19.65 31.32 33.45 33.05 34.01 39.16 20.21"/><polygon id="_Path_20" data-name="&lt;Path&gt;" class="cls-5" points="37.02 35.32 31.32 33.45 37.44 19.65 40.29 20.59 37.02 35.32"/><rect id="_Rectangle_7" data-name="&lt;Rectangle&gt;" class="cls-16" x="37.11" y="18.18" width="4.13" height="1.99" rx="0.99" ry="0.99" transform="translate(7.94 -11.27) rotate(18.19)"/><path class="cls-17" d="M38.63,19a1.07,1.07,0,0,1,.92-.74l-1.09-.35a1,1,0,1,0-.62,1.88l1.11.37A1.09,1.09,0,0,1,38.63,19Z"/><rect id="_Rectangle_8" data-name="&lt;Rectangle&gt;" class="cls-5" x="37.11" y="18.18" width="4.13" height="1.99" rx="0.99" ry="0.99" transform="translate(7.94 -11.27) rotate(18.19)"/><rect id="_Rectangle_9" data-name="&lt;Rectangle&gt;" class="cls-16" x="29.37" y="34.33" width="9" height="1.97" rx="0.99" ry="0.99" transform="translate(12.72 -8.81) rotate(18.19)"/><path class="cls-17" d="M31.84,33.61l-1-.33a1,1,0,0,0-.61,1.88l1,.33A2.66,2.66,0,0,1,31.84,33.61Z"/><rect id="_Rectangle_10" data-name="&lt;Rectangle&gt;" class="cls-5" x="29.37" y="34.33" width="9" height="1.97" rx="0.99" ry="0.99" transform="translate(12.72 -8.81) rotate(18.19)"/><path id="_Path_21" data-name="&lt;Path&gt;" class="cls-18" d="M31.09,35.44h0a22.57,22.57,0,0,0-2,9.56h4.82a17.79,17.79,0,0,1,1.93-8Z"/><path class="cls-19" d="M30.18,37.76l4.66,1.54a23.58,23.58,0,0,1,1-2.31l-4.71-1.55A21.41,21.41,0,0,0,30.18,37.76Z"/><path id="_Path_22" data-name="&lt;Path&gt;" class="cls-5" d="M31.09,35.44h0a22.57,22.57,0,0,0-2,9.56h4.82a17.79,17.79,0,0,1,1.93-8Z"/><rect id="_Rectangle_11" data-name="&lt;Rectangle&gt;" class="cls-14" x="36.82" y="26.09" width="4.33" height="2.31" rx="1.15" ry="1.15" transform="translate(7.58 -8.47) rotate(13.73)"/><path id="_Path_23" data-name="&lt;Path&gt;" class="cls-15" d="M38,27l2,.48a1.13,1.13,0,0,1,.81.79,1.1,1.1,0,0,0,.31-.52,1.16,1.16,0,0,0-.84-1.39l-2-.48a1.16,1.16,0,0,0-1.4.85,1.11,1.11,0,0,0,0,.6A1.13,1.13,0,0,1,38,27Z"/><rect id="_Rectangle_12" data-name="&lt;Rectangle&gt;" class="cls-5" x="36.82" y="26.09" width="4.33" height="2.31" rx="1.15" ry="1.15" transform="translate(7.58 -8.47) rotate(13.73)"/><rect id="_Rectangle_13" data-name="&lt;Rectangle&gt;" class="cls-8" x="36.27" y="28.33" width="4.33" height="2.31" rx="1.15" ry="1.15" transform="translate(8.09 -8.28) rotate(13.73)"/><rect id="_Rectangle_14" data-name="&lt;Rectangle&gt;" class="cls-8" x="35.73" y="30.57" width="4.33" height="2.31" rx="1.15" ry="1.15" transform="translate(8.61 -8.08) rotate(13.73)"/><path id="_Path_24" data-name="&lt;Path&gt;" class="cls-20" d="M40.7,12.27a5.1,5.1,0,0,0-1.13-3.64c-1.34-1.35-2-3.4-.61-4.51s3.53-.32,3.44,3A8.81,8.81,0,0,1,40.7,12.27Z"/><path id="_Path_25" data-name="&lt;Path&gt;" class="cls-21" d="M39,6.12c1.25-1,3-.49,3.37,1.81,0-.27.06-.54.07-.84.09-3.29-2-4.08-3.44-3a2.21,2.21,0,0,0-.57,2.71A2,2,0,0,1,39,6.12Z"/><path id="_Path_26" data-name="&lt;Path&gt;" class="cls-5" d="M40.7,12.27a5.1,5.1,0,0,0-1.13-3.64c-1.34-1.35-2-3.4-.61-4.51s3.53-.32,3.44,3A8.81,8.81,0,0,1,40.7,12.27Z"/><path id="_Path_27" data-name="&lt;Path&gt;" class="cls-20" d="M40.58,16.52a3.79,3.79,0,0,1,2.67-1c1.42.16,3-.37,3-1.73s-1.45-2.24-3.35-.66A6.55,6.55,0,0,0,40.58,16.52Z"/><path id="_Path_28" data-name="&lt;Path&gt;" class="cls-21" d="M42.85,14.44c1.55-1.29,2.79-.94,3.21,0a1.63,1.63,0,0,0,.14-.64c0-1.36-1.45-2.24-3.35-.66a6.55,6.55,0,0,0-2.27,3.41,4.93,4.93,0,0,1,1-.65A7.14,7.14,0,0,1,42.85,14.44Z"/><path id="_Path_29" data-name="&lt;Path&gt;" class="cls-5" d="M40.58,16.52a3.79,3.79,0,0,1,2.67-1c1.42.16,3-.37,3-1.73s-1.45-2.24-3.35-.66A6.55,6.55,0,0,0,40.58,16.52Z"/></svg>