<svg id="Icons" xmlns="http://www.w3.org/2000/svg" viewBox="0 0 48 48"><defs><style>.cls-1{fill:#45413c;opacity:0.15;}.cls-2{fill:#ffda8f;}.cls-3{fill:#ffbe3d;}.cls-4{fill:none;}.cls-4,.cls-8{stroke:#45413c;stroke-linecap:round;stroke-linejoin:round;}.cls-5{fill:#ffe9bd;}.cls-6{fill:#ffe500;}.cls-7{fill:#fff48c;}.cls-8{fill:#6dd627;}</style></defs><title>195-construction-worker</title><g id="_Group_" data-name="&lt;Group&gt;"><ellipse id="_Ellipse_" data-name="&lt;Ellipse&gt;" class="cls-1" cx="24" cy="45.33" rx="15.6" ry="1.67"/><circle id="_Ellipse_2" data-name="&lt;Ellipse&gt;" class="cls-2" cx="24" cy="23.72" r="18.09"/><path id="_Compound_Path_" data-name="&lt;Compound Path&gt;" class="cls-3" d="M24,5.64A18.09,18.09,0,1,0,42.09,23.72,18.08,18.08,0,0,0,24,5.64ZM24,39.1A16.51,16.51,0,1,1,40.51,22.59,16.51,16.51,0,0,1,24,39.1Z"/><circle id="_Ellipse_3" data-name="&lt;Ellipse&gt;" class="cls-4" cx="24" cy="23.72" r="18.09"/><path id="_Path_" data-name="&lt;Path&gt;" class="cls-5" d="M37.11,32.26c0,.75-1,1.36-2.26,1.36s-2.26-.61-2.26-1.36,1-1.36,2.26-1.36S37.11,31.51,37.11,32.26Z"/><ellipse id="_Ellipse_4" data-name="&lt;Ellipse&gt;" class="cls-5" cx="13.15" cy="32.26" rx="2.26" ry="1.36"/><path id="_Path_2" data-name="&lt;Path&gt;" class="cls-4" d="M16.17,26.51a1.67,1.67,0,0,1-3.34,0"/><path id="_Path_3" data-name="&lt;Path&gt;" class="cls-4" d="M31.83,26.51a1.67,1.67,0,1,0,3.34,0"/><line id="_Path_4" data-name="&lt;Path&gt;" class="cls-4" x1="22.05" y1="36.71" x2="25.95" y2="36.71"/><path id="_Path_5" data-name="&lt;Path&gt;" class="cls-6" d="M5.3,20.2a18.7,18.7,0,0,1,37.4,0Z"/><path id="_Path_6" data-name="&lt;Path&gt;" class="cls-7" d="M24,5.7A18.72,18.72,0,0,1,42.23,20.2h.47a18.7,18.7,0,0,0-37.4,0h.47A18.72,18.72,0,0,1,24,5.7Z"/><path id="_Path_7" data-name="&lt;Path&gt;" class="cls-4" d="M5.3,20.2a18.7,18.7,0,0,1,37.4,0Z"/><path id="_Path_8" data-name="&lt;Path&gt;" class="cls-6" d="M3.25,19a1.67,1.67,0,0,1,2-1.64A93.32,93.32,0,0,0,24,19.3a93.32,93.32,0,0,0,18.72-2,1.67,1.67,0,0,1,2,1.64v1.39a1.74,1.74,0,0,1-1.38,1.71A99.76,99.76,0,0,1,24,24.2,99.76,99.76,0,0,1,4.63,22.06a1.74,1.74,0,0,1-1.38-1.71Z"/><path id="_Path_9" data-name="&lt;Path&gt;" class="cls-7" d="M42.72,17.32A93.32,93.32,0,0,1,24,19.3a93.32,93.32,0,0,1-18.72-2,1.67,1.67,0,0,0-2,1.64v1.39a1.63,1.63,0,0,0,.08.44,1.66,1.66,0,0,1,2-1.17A93.32,93.32,0,0,0,24,21.6a93.32,93.32,0,0,0,18.72-2,1.66,1.66,0,0,1,2,1.17,1.63,1.63,0,0,0,.08-.44V19A1.67,1.67,0,0,0,42.72,17.32Z"/><path id="_Path_10" data-name="&lt;Path&gt;" class="cls-4" d="M3.25,19a1.67,1.67,0,0,1,2-1.64A93.32,93.32,0,0,0,24,19.3a93.32,93.32,0,0,0,18.72-2,1.67,1.67,0,0,1,2,1.64v1.39a1.74,1.74,0,0,1-1.38,1.71A99.76,99.76,0,0,1,24,24.2,99.76,99.76,0,0,1,4.63,22.06a1.74,1.74,0,0,1-1.38-1.71Z"/><path id="_Path_11" data-name="&lt;Path&gt;" class="cls-8" d="M28.21,9.26H26.12V7.16A1.12,1.12,0,0,0,25,6.05H23a1.12,1.12,0,0,0-1.12,1.11v2.1H19.79a1.1,1.1,0,0,0-1.11,1.11v2a1.11,1.11,0,0,0,1.11,1.11h2.09v2.09A1.12,1.12,0,0,0,23,16.7h2a1.12,1.12,0,0,0,1.12-1.12V13.49h2.09a1.11,1.11,0,0,0,1.11-1.11v-2A1.1,1.1,0,0,0,28.21,9.26Z"/></g></svg>