<svg id="Icons" xmlns="http://www.w3.org/2000/svg" viewBox="0 0 48 48"><defs><style>.cls-1,.cls-4{fill:#656769;}.cls-2{fill:#525252;}.cls-3{fill:none;}.cls-10,.cls-13,.cls-14,.cls-3,.cls-4,.cls-6{stroke:#45413c;stroke-linecap:round;stroke-linejoin:round;}.cls-14,.cls-5,.cls-9{fill:#45413c;}.cls-5{opacity:0.15;}.cls-6{fill:#fff;}.cls-13,.cls-7{fill:#ffcebf;}.cls-8{fill:#ffb59e;}.cls-10{fill:#009fd9;}.cls-11{fill:#a86c4d;}.cls-12{fill:#de926a;}.cls-15{fill:#ff6242;}.cls-16{fill:#ffa694;}</style></defs><title>205-man-in-tuxedo-2</title><path class="cls-1" d="M31.54,32.84,24,30l-7.54,2.87a6.76,6.76,0,0,0-4.35,6.31V45H35.89V39.15A6.76,6.76,0,0,0,31.54,32.84Z"/><path class="cls-2" d="M31.54,32.84,24,30l-7.54,2.87a6.76,6.76,0,0,0-4.35,6.31v3a6.76,6.76,0,0,1,4.35-6.31L24,33l7.54,2.87a6.76,6.76,0,0,1,4.35,6.31v-3A6.76,6.76,0,0,0,31.54,32.84Z"/><path class="cls-3" d="M31.54,32.84,24,30l-7.54,2.87a6.76,6.76,0,0,0-4.35,6.31V45H35.89V39.15A6.76,6.76,0,0,0,31.54,32.84Z"/><polygon class="cls-4" points="30.23 35.83 32.36 35.3 30.82 32.56 24 29.97 17.18 32.56 15.64 35.3 17.77 35.83 17.04 38.05 21.92 45 26.08 45 30.96 38.05 30.23 35.83"/><ellipse id="_Ellipse_" data-name="&lt;Ellipse&gt;" class="cls-5" cx="24" cy="45.5" rx="13.5" ry="1.5"/><path class="cls-6" d="M24,30S19,30,19,32.81a10,10,0,0,0,2.16,5.78L24,36.15l2.89,2.44a10,10,0,0,0,2.16-5.78C29.05,30,24,30,24,30Z"/><path id="_Path_" data-name="&lt;Path&gt;" class="cls-7" d="M24,36.15h0L21.75,33.9a1,1,0,0,1-.29-.7v-3A2.54,2.54,0,0,1,24,27.66h0a2.54,2.54,0,0,1,2.54,2.54v3a1,1,0,0,1-.29.7Z"/><path id="_Path_2" data-name="&lt;Path&gt;" class="cls-8" d="M24,27.66a2.54,2.54,0,0,0-2.54,2.54v.59a2.54,2.54,0,1,0,5.08,0V30.2A2.54,2.54,0,0,0,24,27.66Z"/><path id="_Path_3" data-name="&lt;Path&gt;" class="cls-3" d="M24,36.15h0L21.75,33.9a1,1,0,0,1-.29-.7v-3A2.54,2.54,0,0,1,24,27.66h0a2.54,2.54,0,0,1,2.54,2.54v3a1,1,0,0,1-.29.7Z"/><polygon id="_Path_4" data-name="&lt;Path&gt;" class="cls-6" points="26.89 38.59 26.05 45 21.92 45 21.11 38.59 24 36.15 26.89 38.59"/><circle id="_Path_5" data-name="&lt;Path&gt;" class="cls-9" cx="24" cy="40.65" r="0.5"/><circle id="_Path_6" data-name="&lt;Path&gt;" class="cls-9" cx="24" cy="42.9" r="0.5"/><path id="_Path_7" data-name="&lt;Path&gt;" class="cls-10" d="M24,37.35l-3-1.81a1.2,1.2,0,0,0-1.82,1v1.51a1.2,1.2,0,0,0,1.81,1Z"/><line id="_Path_8" data-name="&lt;Path&gt;" class="cls-3" x1="21.44" y1="37.35" x2="24" y2="37.35"/><path id="_Path_9" data-name="&lt;Path&gt;" class="cls-10" d="M24,37.35l3-1.81a1.2,1.2,0,0,1,1.82,1v1.51a1.2,1.2,0,0,1-1.8,1Z"/><line id="_Path_10" data-name="&lt;Path&gt;" class="cls-3" x1="26.56" y1="37.35" x2="24" y2="37.35"/><circle id="_Path_11" data-name="&lt;Path&gt;" class="cls-10" cx="24" cy="37.35" r="1.39"/><path id="_Path_12" data-name="&lt;Path&gt;" class="cls-11" d="M24,6.91a9.82,9.82,0,0,0-2.44.3c-1.86.42-4.28,1.13-6.47.71a4.22,4.22,0,0,0,.84,3.21,9.81,9.81,0,0,0-1.75,5.6v5.14H33.82V16.73A9.82,9.82,0,0,0,24,6.91Z"/><g id="_Group_" data-name="&lt;Group&gt;"><path id="_Path_13" data-name="&lt;Path&gt;" class="cls-12" d="M24,6.91a9.82,9.82,0,0,0-2.44.3c-1.86.42-4.28,1.13-6.47.71a4.44,4.44,0,0,0,.68,3,18.77,18.77,0,0,0,5.79-.79,9.85,9.85,0,0,1,12.26,9.52V16.73A9.82,9.82,0,0,0,24,6.91Z"/></g><path id="_Path_14" data-name="&lt;Path&gt;" class="cls-3" d="M24,6.91a9.82,9.82,0,0,0-2.44.3c-1.86.42-4.28,1.13-6.47.71a4.22,4.22,0,0,0,.84,3.21,9.81,9.81,0,0,0-1.75,5.6v5.14H33.82V16.73A9.82,9.82,0,0,0,24,6.91Z"/><path class="cls-13" d="M34.87,21.12a1.83,1.83,0,0,0-1.39-1.54l-.59-.17a2,2,0,0,1-1.5-2V15.37a1.86,1.86,0,0,0-1.4-1.8,15.52,15.52,0,0,1-6,1.09,15.52,15.52,0,0,1-6-1.09,1.86,1.86,0,0,0-1.4,1.8v2.07a2,2,0,0,1-1.5,2l-.59.17a1.83,1.83,0,0,0-1.39,1.54,1.81,1.81,0,0,0,1.81,2h.11a9,9,0,0,0,17.9,0h.11A1.81,1.81,0,0,0,34.87,21.12Z"/><path id="_Path_15" data-name="&lt;Path&gt;" class="cls-14" d="M18.57,20.91a.77.77,0,0,0,1.54,0,.77.77,0,1,0-1.54,0Z"/><path id="_Path_16" data-name="&lt;Path&gt;" class="cls-14" d="M29.43,20.91a.77.77,0,0,1-1.54,0,.77.77,0,1,1,1.54,0Z"/><g id="_Group_2" data-name="&lt;Group&gt;"><g id="_Group_3" data-name="&lt;Group&gt;"><g id="_Group_4" data-name="&lt;Group&gt;"><g id="_Group_5" data-name="&lt;Group&gt;"><g id="_Group_6" data-name="&lt;Group&gt;"><g id="_Group_7" data-name="&lt;Group&gt;"><g id="_Group_8" data-name="&lt;Group&gt;"><path id="_Path_17" data-name="&lt;Path&gt;" class="cls-15" d="M21.16,25.6a.46.46,0,0,0-.33.15.43.43,0,0,0-.1.36,3.32,3.32,0,0,0,6.54,0,.43.43,0,0,0-.1-.36.45.45,0,0,0-.33-.15Z"/><path id="_Path_18" data-name="&lt;Path&gt;" class="cls-16" d="M24,27a4.11,4.11,0,0,0-2.52.77,3.34,3.34,0,0,0,5,0A4.11,4.11,0,0,0,24,27Z"/></g></g></g></g></g></g></g><g id="_Group_9" data-name="&lt;Group&gt;"><path id="_Path_19" data-name="&lt;Path&gt;" class="cls-3" d="M21.16,25.6a.46.46,0,0,0-.33.15.43.43,0,0,0-.1.36,3.32,3.32,0,0,0,6.54,0,.43.43,0,0,0-.1-.36.45.45,0,0,0-.33-.15Z"/></g><ellipse id="_Ellipse_2" data-name="&lt;Ellipse&gt;" class="cls-8" cx="18.06" cy="24.19" rx="1" ry="0.6"/><ellipse id="_Ellipse_3" data-name="&lt;Ellipse&gt;" class="cls-8" cx="29.94" cy="24.19" rx="1" ry="0.6"/></svg>