<svg id="Icons" xmlns="http://www.w3.org/2000/svg" viewBox="0 0 48 48"><defs><style>.cls-1{fill:#fff;}.cls-2{fill:#e5feff;}.cls-3{fill:none;}.cls-3,.cls-4,.cls-8{stroke:#45413c;stroke-linecap:round;stroke-linejoin:round;}.cls-4,.cls-5{fill:#ffcebf;}.cls-6{fill:#ffb59e;}.cls-7,.cls-8{fill:#45413c;}.cls-7{opacity:0.15;}.cls-9{fill:#a86c4d;}.cls-10{fill:#de926a;}.cls-11{fill:#ffe500;}.cls-12{fill:#fff48c;}</style></defs><title>211-baby-angel-2</title><path id="_Path_" data-name="&lt;Path&gt;" class="cls-1" d="M3.07,32.35h8.71a5.47,5.47,0,1,1,0,10.93H8.13a1.83,1.83,0,0,1,0-3.65H5.39a1.82,1.82,0,1,1,0-3.64H3.07a1.82,1.82,0,0,1,0-3.64Z"/><g id="_Group_" data-name="&lt;Group&gt;"><path id="_Path_2" data-name="&lt;Path&gt;" class="cls-2" d="M8.13,41.31h3.65a5.46,5.46,0,0,0,5.37-4.48,5.25,5.25,0,0,1,.1,1,5.47,5.47,0,0,1-5.47,5.47H8.13a1.83,1.83,0,0,1-1.82-1.82,1.85,1.85,0,0,1,.29-1A1.8,1.8,0,0,0,8.13,41.31Z"/></g><path id="_Path_3" data-name="&lt;Path&gt;" class="cls-3" d="M3.07,32.35h8.71a5.47,5.47,0,1,1,0,10.93H8.13a1.83,1.83,0,0,1,0-3.65H5.39a1.82,1.82,0,1,1,0-3.64H3.07a1.82,1.82,0,0,1,0-3.64Z"/><line class="cls-3" x1="9.54" y1="35.99" x2="5.39" y2="35.99"/><line id="_Path_4" data-name="&lt;Path&gt;" class="cls-3" x1="8.13" y1="39.63" x2="11.25" y2="39.63"/><path id="_Path_5" data-name="&lt;Path&gt;" class="cls-1" d="M44.93,32.35H36.22a5.47,5.47,0,1,0,0,10.93h3.65a1.83,1.83,0,0,0,0-3.65h2.74a1.82,1.82,0,0,0,0-3.64h2.32a1.82,1.82,0,1,0,0-3.64Z"/><g id="_Group_2" data-name="&lt;Group&gt;"><path id="_Path_6" data-name="&lt;Path&gt;" class="cls-2" d="M39.87,41.31H36.22a5.46,5.46,0,0,1-5.37-4.48,5.25,5.25,0,0,0-.1,1,5.47,5.47,0,0,0,5.47,5.47h3.65a1.83,1.83,0,0,0,1.82-1.82,1.85,1.85,0,0,0-.29-1A1.8,1.8,0,0,1,39.87,41.31Z"/></g><path id="_Path_7" data-name="&lt;Path&gt;" class="cls-3" d="M44.93,32.35H36.22a5.47,5.47,0,1,0,0,10.93h3.65a1.83,1.83,0,0,0,0-3.65h2.74a1.82,1.82,0,0,0,0-3.64h2.32a1.82,1.82,0,1,0,0-3.64Z"/><line class="cls-3" x1="38.46" y1="35.99" x2="42.61" y2="35.99"/><line id="_Path_8" data-name="&lt;Path&gt;" class="cls-3" x1="39.87" y1="39.63" x2="36.75" y2="39.63"/><ellipse id="_Path_9" data-name="&lt;Path&gt;" class="cls-4" cx="8.93" cy="25.93" rx="2.94" ry="3.25"/><ellipse id="_Path_10" data-name="&lt;Path&gt;" class="cls-4" cx="39.07" cy="25.93" rx="2.94" ry="3.25"/><circle id="_Ellipse_" data-name="&lt;Ellipse&gt;" class="cls-5" cx="24" cy="25.93" r="15.07"/><path id="_Compound_Path_" data-name="&lt;Compound Path&gt;" class="cls-6" d="M24,10.87A15.07,15.07,0,1,0,39.07,25.93,15.07,15.07,0,0,0,24,10.87Zm0,27.87A13.75,13.75,0,1,1,37.75,25,13.75,13.75,0,0,1,24,38.74Z"/><ellipse id="_Ellipse_2" data-name="&lt;Ellipse&gt;" class="cls-7" cx="24" cy="45.5" rx="16" ry="1.5"/><circle id="_Ellipse_3" data-name="&lt;Ellipse&gt;" class="cls-3" cx="24" cy="25.93" r="15.07"/><path id="_Path_11" data-name="&lt;Path&gt;" class="cls-8" d="M16.84,25.86a.75.75,0,1,1-.75-.76A.75.75,0,0,1,16.84,25.86Z"/><path id="_Path_12" data-name="&lt;Path&gt;" class="cls-8" d="M31.16,25.86a.75.75,0,1,0,.75-.76A.75.75,0,0,0,31.16,25.86Z"/><path id="_Path_13" data-name="&lt;Path&gt;" class="cls-6" d="M34.92,30.38c0,.62-.84,1.13-1.88,1.13s-1.88-.51-1.88-1.13S32,29.25,33,29.25,34.92,29.75,34.92,30.38Z"/><path id="_Path_14" data-name="&lt;Path&gt;" class="cls-6" d="M13.08,30.38c0,.62.84,1.13,1.88,1.13s1.88-.51,1.88-1.13S16,29.25,15,29.25,13.08,29.75,13.08,30.38Z"/><path id="_Path_15" data-name="&lt;Path&gt;" class="cls-9" d="M39.75,22.43S39.25,7.62,24,7.62C9.38,7.62,8.19,20.56,8.13,22.25a3.77,3.77,0,0,1,.58,0,6,6,0,0,0,5.11-1.61h0l.25,1.69,5.25-2.69a11.22,11.22,0,0,0,6.18,3,16,16,0,0,0,5.66,0L31.63,20l1.88,1.29A7.83,7.83,0,0,0,39.75,22.43Z"/><path id="_Path_16" data-name="&lt;Path&gt;" class="cls-10" d="M24,10.57c11,0,14.3,7.64,15.31,12,.15,0,.3-.05.44-.09S39.25,7.62,24,7.62C9.38,7.62,8.19,20.56,8.13,22.25a3.11,3.11,0,0,1,.43,0C9.58,17.94,13,10.57,24,10.57Z"/><path id="_Path_17" data-name="&lt;Path&gt;" class="cls-3" d="M39.75,22.43S39.25,7.62,24,7.62C9.38,7.62,8.19,20.56,8.13,22.25a3.77,3.77,0,0,1,.58,0,6,6,0,0,0,5.11-1.61h0l.25,1.69,5.25-2.69a11.22,11.22,0,0,0,6.18,3,16,16,0,0,0,5.66,0L31.63,20l1.88,1.29A7.83,7.83,0,0,0,39.75,22.43Z"/><path id="_Compound_Path_2" data-name="&lt;Compound Path&gt;" class="cls-11" d="M24,2.5C15.47,2.5,8.56,5.21,8.56,8.56S15.47,14.63,24,14.63s15.44-2.72,15.44-6.07S32.53,2.5,24,2.5Zm0,9.07c-6,0-10.92-1.35-10.92-3s4.89-3,10.92-3,10.92,1.35,10.92,3S30,11.57,24,11.57Z"/><g id="_Group_3" data-name="&lt;Group&gt;"><path id="_Path_18" data-name="&lt;Path&gt;" class="cls-12" d="M24,4.38c7.71,0,14.09,2.22,15.24,5.12a2.56,2.56,0,0,0,.2-.94C39.44,5.21,32.53,2.5,24,2.5S8.56,5.21,8.56,8.56a2.56,2.56,0,0,0,.2.94C9.91,6.6,16.29,4.38,24,4.38Z"/></g><path id="_Compound_Path_3" data-name="&lt;Compound Path&gt;" class="cls-3" d="M24,2.5C15.47,2.5,8.56,5.21,8.56,8.56S15.47,14.63,24,14.63s15.44-2.72,15.44-6.07S32.53,2.5,24,2.5Zm0,9.07c-6,0-10.92-1.35-10.92-3s4.89-3,10.92-3,10.92,1.35,10.92,3S30,11.57,24,11.57Z"/><path id="_Path_19" data-name="&lt;Path&gt;" class="cls-3" d="M19.85,33.5A5.12,5.12,0,0,0,24,35.25a5.12,5.12,0,0,0,4.15-1.75"/></svg>