<svg id="Icons" xmlns="http://www.w3.org/2000/svg" viewBox="0 0 48 48"><defs><style>.cls-1{fill:#724f3d;}.cls-2{fill:#a86c4d;}.cls-3{fill:none;}.cls-3,.cls-7,.cls-8,.cls-9{stroke:#45413c;stroke-linecap:round;stroke-linejoin:round;}.cls-4,.cls-9{fill:#45413c;}.cls-4{opacity:0.15;}.cls-5{fill:#ff87af;}.cls-6{fill:#ff6196;}.cls-7{fill:#ebcb00;}.cls-8{fill:#ffe500;}.cls-10{fill:#ffaa54;}</style></defs><title>216-woman-frowning-1</title><path id="_Path_" data-name="&lt;Path&gt;" class="cls-1" d="M24,8.82A10.88,10.88,0,0,1,34.88,19.69V33.88A1.24,1.24,0,0,1,34.11,35h0a27.09,27.09,0,0,1-20.22,0h0a1.24,1.24,0,0,1-.77-1.14V19.69A10.88,10.88,0,0,1,24,8.82Z"/><path id="_Path_2" data-name="&lt;Path&gt;" class="cls-2" d="M24,8.82A10.88,10.88,0,0,0,13.12,19.69v3a10.88,10.88,0,0,1,21.76,0v-3A10.88,10.88,0,0,0,24,8.82Z"/><path id="_Path_3" data-name="&lt;Path&gt;" class="cls-3" d="M24,8.82A10.88,10.88,0,0,1,34.88,19.69V33.88A1.24,1.24,0,0,1,34.11,35h0a27.09,27.09,0,0,1-20.22,0h0a1.24,1.24,0,0,1-.77-1.14V19.69A10.88,10.88,0,0,1,24,8.82Z"/><ellipse id="_Ellipse_" data-name="&lt;Ellipse&gt;" class="cls-4" cx="24" cy="45.54" rx="13.5" ry="1.5"/><path id="_Rectangle_" data-name="&lt;Rectangle&gt;" class="cls-5" d="M24,31.22h0A11.88,11.88,0,0,1,35.88,43.1V45a0,0,0,0,1,0,0H12.12a0,0,0,0,1,0,0V43.1A11.88,11.88,0,0,1,24,31.22Z"/><path id="_Path_4" data-name="&lt;Path&gt;" class="cls-6" d="M24,31.22h0A11.88,11.88,0,0,0,12.12,43.1V45h.07A11.88,11.88,0,0,1,24,34.43h0A11.88,11.88,0,0,1,35.81,45h.07V43.1A11.88,11.88,0,0,0,24,31.22Z"/><path id="_Rectangle_2" data-name="&lt;Rectangle&gt;" class="cls-3" d="M24,31.22h0A11.88,11.88,0,0,1,35.88,43.1V45a0,0,0,0,1,0,0H12.12a0,0,0,0,1,0,0V43.1A11.88,11.88,0,0,1,24,31.22Z"/><line id="_Path_5" data-name="&lt;Path&gt;" class="cls-3" x1="17.06" y1="45" x2="17.06" y2="42.59"/><line id="_Path_6" data-name="&lt;Path&gt;" class="cls-3" x1="30.94" y1="45" x2="30.94" y2="42.59"/><rect id="_Rectangle_3" data-name="&lt;Rectangle&gt;" class="cls-7" x="21.46" y="27.17" width="5.09" height="7.94" rx="2.54" ry="2.54"/><g id="_Group_" data-name="&lt;Group&gt;"><path id="_Path_7" data-name="&lt;Path&gt;" class="cls-8" d="M33.07,22a8.77,8.77,0,0,1-5.68-5l-.62-1.49a15.92,15.92,0,0,1-9.95,6.18L14.93,22a1.81,1.81,0,0,0,0,3.62h.12a9,9,0,0,0,17.9,0h.12a1.81,1.81,0,1,0,0-3.62Z"/></g><path id="_Path_8" data-name="&lt;Path&gt;" class="cls-9" d="M18.57,23.41a.77.77,0,1,0,.77-.77A.76.76,0,0,0,18.57,23.41Z"/><path id="_Path_9" data-name="&lt;Path&gt;" class="cls-9" d="M29.43,23.41a.77.77,0,1,1-.77-.77A.76.76,0,0,1,29.43,23.41Z"/><ellipse id="_Ellipse_2" data-name="&lt;Ellipse&gt;" class="cls-10" cx="18.06" cy="26.69" rx="1" ry="0.6"/><ellipse id="_Ellipse_3" data-name="&lt;Ellipse&gt;" class="cls-10" cx="29.94" cy="26.69" rx="1" ry="0.6"/><path id="_Path_10" data-name="&lt;Path&gt;" class="cls-3" d="M21.65,29.87a2.73,2.73,0,0,1,4.7,0"/></svg>