<svg id="Icons" xmlns="http://www.w3.org/2000/svg" viewBox="0 0 48 48"><defs><style>.cls-1,.cls-8{fill:#45413c;}.cls-1{opacity:0.15;}.cls-12,.cls-2{fill:#ffcebf;}.cls-2,.cls-5,.cls-8{stroke:#45413c;stroke-linecap:round;stroke-linejoin:round;}.cls-3{fill:#00b8f0;}.cls-4{fill:#009fd9;}.cls-5{fill:none;}.cls-6{fill:#a86c4d;}.cls-7{fill:#de926a;}.cls-9{fill:#ff6242;}.cls-10{fill:#ffa694;}.cls-11{fill:#ffb59e;}</style></defs><title>227-man-gesturing-OK-2</title><ellipse id="_Ellipse_" data-name="&lt;Ellipse&gt;" class="cls-1" cx="24" cy="45.5" rx="15" ry="1.5"/><path id="_Path_" data-name="&lt;Path&gt;" class="cls-2" d="M10.75,12.3a11.76,11.76,0,0,1,7.78-3.78A1.39,1.39,0,0,1,20,10a1.37,1.37,0,0,1-.49,1l-4.7,3.93Z"/><path id="_Path_2" data-name="&lt;Path&gt;" class="cls-2" d="M37.25,12.3a11.76,11.76,0,0,0-7.78-3.78A1.39,1.39,0,0,0,28,10a1.37,1.37,0,0,0,.49,1l4.7,3.93Z"/><path class="cls-3" d="M38.31,12.84a1,1,0,0,0-1.39-.32l-4.71,2.39s2.29,3.23,1.67,10.16c-.38,4.21-1,7.36-2.31,9.23a3,3,0,0,1-3.48,1.14,12,12,0,0,0-8.18,0,3,3,0,0,1-3.48-1.14c-1.29-1.87-1.93-5-2.31-9.23-.62-6.93,1.67-10.16,1.67-10.16l-4.71-2.39a1,1,0,0,0-1.39.32c-1.19,2-3.79,6.35-3.3,15.51C7,40.57,13.37,45,13.37,45H34.63s6.34-4.43,7-16.65C42.1,19.19,39.5,14.8,38.31,12.84Z"/><path class="cls-4" d="M33.93,24.33c0,.24,0,.49,0,.74-.38,4.21-1,7.36-2.31,9.23a3,3,0,0,1-3.48,1.14,12,12,0,0,0-8.18,0,3,3,0,0,1-3.48-1.14c-1.29-1.87-1.93-5-2.31-9.23,0-.25,0-.5,0-.74a24.2,24.2,0,0,0,0,3.87c.38,4.21,1,7.35,2.31,9.22a3,3,0,0,0,3.48,1.14,12,12,0,0,1,8.18,0,3,3,0,0,0,3.48-1.14c1.29-1.87,1.93-5,2.31-9.22A24.2,24.2,0,0,0,33.93,24.33Z"/><path class="cls-5" d="M38.31,12.84a1,1,0,0,0-1.39-.32l-4.71,2.39s2.29,3.23,1.67,10.16c-.38,4.21-1,7.36-2.31,9.23a3,3,0,0,1-3.48,1.14,12,12,0,0,0-8.18,0,3,3,0,0,1-3.48-1.14c-1.29-1.87-1.93-5-2.31-9.23-.62-6.93,1.67-10.16,1.67-10.16l-4.71-2.39a1,1,0,0,0-1.39.32c-1.19,2-3.79,6.35-3.3,15.51C7,40.57,13.37,45,13.37,45H34.63s6.34-4.43,7-16.65C42.1,19.19,39.5,14.8,38.31,12.84Z"/><path id="_Path_3" data-name="&lt;Path&gt;" class="cls-6" d="M24,10.41a9.83,9.83,0,0,0-2.44.31c-1.86.42-4.28,1.12-6.47.7a4.2,4.2,0,0,0,.84,3.21,9.81,9.81,0,0,0-1.75,5.6v5.14H33.82V20.23A9.82,9.82,0,0,0,24,10.41Z"/><g id="_Group_" data-name="&lt;Group&gt;"><path id="_Path_4" data-name="&lt;Path&gt;" class="cls-7" d="M24,10.41a9.83,9.83,0,0,0-2.44.31c-1.86.42-4.28,1.12-6.47.7a4.47,4.47,0,0,0,.68,3,19.4,19.4,0,0,0,5.79-.79,9.81,9.81,0,0,1,12.26,9.51V20.23A9.82,9.82,0,0,0,24,10.41Z"/></g><path id="_Path_5" data-name="&lt;Path&gt;" class="cls-5" d="M24,10.41a9.83,9.83,0,0,0-2.44.31c-1.86.42-4.28,1.12-6.47.7a4.2,4.2,0,0,0,.84,3.21,9.81,9.81,0,0,0-1.75,5.6v5.14H33.82V20.23A9.82,9.82,0,0,0,24,10.41Z"/><path class="cls-2" d="M34.87,24.62a1.83,1.83,0,0,0-1.39-1.54l-.59-.16a2.06,2.06,0,0,1-1.5-2V18.88A1.88,1.88,0,0,0,30,17.07a15.34,15.34,0,0,1-6,1.09,15.34,15.34,0,0,1-6-1.09,1.88,1.88,0,0,0-1.4,1.81v2.06a2.06,2.06,0,0,1-1.5,2l-.59.16a1.83,1.83,0,0,0-1.39,1.54,1.81,1.81,0,0,0,1.81,2h.11a9,9,0,0,0,17.9,0h.11A1.81,1.81,0,0,0,34.87,24.62Z"/><path id="_Path_6" data-name="&lt;Path&gt;" class="cls-8" d="M18.57,24.41a.77.77,0,1,0,.77-.77A.76.76,0,0,0,18.57,24.41Z"/><path id="_Path_7" data-name="&lt;Path&gt;" class="cls-8" d="M29.43,24.41a.77.77,0,1,1-.77-.77A.76.76,0,0,1,29.43,24.41Z"/><g id="_Group_2" data-name="&lt;Group&gt;"><g id="_Group_3" data-name="&lt;Group&gt;"><g id="_Group_4" data-name="&lt;Group&gt;"><g id="_Group_5" data-name="&lt;Group&gt;"><g id="_Group_6" data-name="&lt;Group&gt;"><g id="_Group_7" data-name="&lt;Group&gt;"><g id="_Group_8" data-name="&lt;Group&gt;"><path id="_Path_8" data-name="&lt;Path&gt;" class="cls-9" d="M21.16,29.1a.42.42,0,0,0-.33.16.42.42,0,0,0-.1.35,3.32,3.32,0,0,0,6.54,0,.42.42,0,0,0-.1-.35.44.44,0,0,0-.33-.16Z"/><path id="_Path_9" data-name="&lt;Path&gt;" class="cls-10" d="M24,30.47a4,4,0,0,0-2.52.77,3.36,3.36,0,0,0,5,0A4,4,0,0,0,24,30.47Z"/></g></g></g></g></g></g></g><g id="_Group_9" data-name="&lt;Group&gt;"><path id="_Path_10" data-name="&lt;Path&gt;" class="cls-5" d="M21.16,29.1a.42.42,0,0,0-.33.16.42.42,0,0,0-.1.35,3.32,3.32,0,0,0,6.54,0,.42.42,0,0,0-.1-.35.44.44,0,0,0-.33-.16Z"/></g><ellipse id="_Ellipse_2" data-name="&lt;Ellipse&gt;" class="cls-11" cx="18.06" cy="27.69" rx="1" ry="0.6"/><ellipse id="_Ellipse_3" data-name="&lt;Ellipse&gt;" class="cls-11" cx="29.94" cy="27.69" rx="1" ry="0.6"/><path id="_Path_11" data-name="&lt;Path&gt;" class="cls-12" d="M24,34.3a8.86,8.86,0,0,1-2.54-.37v2.14a2.54,2.54,0,1,0,5.08,0V33.93A8.86,8.86,0,0,1,24,34.3Z"/><path id="_Path_12" data-name="&lt;Path&gt;" class="cls-11" d="M24,34.3a8.86,8.86,0,0,1-2.54-.37,2.54,2.54,0,1,0,5.08,0A8.86,8.86,0,0,1,24,34.3Z"/><path id="_Path_13" data-name="&lt;Path&gt;" class="cls-5" d="M24,34.3a8.86,8.86,0,0,1-2.54-.37v2.14a2.54,2.54,0,1,0,5.08,0V33.93A8.86,8.86,0,0,1,24,34.3Z"/></svg>