<svg id="Icons" xmlns="http://www.w3.org/2000/svg" viewBox="0 0 48 48"><defs><style>.cls-1{fill:#a86c4d;}.cls-2{fill:#de926a;}.cls-3{fill:none;}.cls-3,.cls-7,.cls-8{stroke:#45413c;stroke-linecap:round;stroke-linejoin:round;}.cls-4{fill:#45413c;opacity:0.15;}.cls-5{fill:#ff87af;}.cls-6{fill:#ff6196;}.cls-7,.cls-9{fill:#ffb59e;}.cls-8{fill:#ffcebf;}.cls-10{fill:#ffb0ca;}</style></defs><title>245-woman-facepalming-2</title><path id="_Path_" data-name="&lt;Path&gt;" class="cls-1" d="M24,6.32A10.88,10.88,0,0,1,34.88,17.19V31.38a1.24,1.24,0,0,1-.77,1.14h0a27.09,27.09,0,0,1-20.22,0h0a1.24,1.24,0,0,1-.77-1.14V17.19A10.88,10.88,0,0,1,24,6.32Z"/><path id="_Path_2" data-name="&lt;Path&gt;" class="cls-2" d="M24,6.32A10.88,10.88,0,0,0,13.12,17.19v3a10.88,10.88,0,0,1,21.76,0v-3A10.88,10.88,0,0,0,24,6.32Z"/><path id="_Path_3" data-name="&lt;Path&gt;" class="cls-3" d="M24,6.32A10.88,10.88,0,0,1,34.88,17.19V31.38a1.24,1.24,0,0,1-.77,1.14h0a27.09,27.09,0,0,1-20.22,0h0a1.24,1.24,0,0,1-.77-1.14V17.19A10.88,10.88,0,0,1,24,6.32Z"/><ellipse id="_Ellipse_" data-name="&lt;Ellipse&gt;" class="cls-4" cx="24" cy="45.5" rx="13.5" ry="1.5"/><path id="_Rectangle_" data-name="&lt;Rectangle&gt;" class="cls-5" d="M24,31.22h0A11.88,11.88,0,0,1,35.88,43.1V45a0,0,0,0,1,0,0H12.12a0,0,0,0,1,0,0V43.1A11.88,11.88,0,0,1,24,31.22Z"/><path id="_Path_4" data-name="&lt;Path&gt;" class="cls-6" d="M24,31.22h0A11.88,11.88,0,0,0,12.12,43.1V45h.07A11.88,11.88,0,0,1,24,34.43h0A11.88,11.88,0,0,1,35.81,45h.07V43.1A11.88,11.88,0,0,0,24,31.22Z"/><path id="_Rectangle_2" data-name="&lt;Rectangle&gt;" class="cls-3" d="M24,31.22h0A11.88,11.88,0,0,1,35.88,43.1V45a0,0,0,0,1,0,0H12.12a0,0,0,0,1,0,0V43.1A11.88,11.88,0,0,1,24,31.22Z"/><line id="_Path_5" data-name="&lt;Path&gt;" class="cls-3" x1="17.06" y1="45" x2="17.06" y2="42.59"/><line id="_Path_6" data-name="&lt;Path&gt;" class="cls-3" x1="30.94" y1="45" x2="30.94" y2="42.59"/><rect id="_Rectangle_3" data-name="&lt;Rectangle&gt;" class="cls-7" x="21.46" y="27.17" width="5.09" height="7.94" rx="2.54" ry="2.54"/><g id="_Group_" data-name="&lt;Group&gt;"><path id="_Path_7" data-name="&lt;Path&gt;" class="cls-8" d="M33.07,19.47a8.77,8.77,0,0,1-5.68-5L26.77,13a15.92,15.92,0,0,1-9.95,6.18l-1.89.34a1.81,1.81,0,0,0,0,3.62h.12a9,9,0,0,0,17.9,0h.12a1.81,1.81,0,1,0,0-3.62Z"/><ellipse id="_Ellipse_2" data-name="&lt;Ellipse&gt;" class="cls-9" cx="18.06" cy="24.19" rx="1" ry="0.6"/></g><path id="_Path_8" data-name="&lt;Path&gt;" class="cls-8" d="M30,28a5.69,5.69,0,0,0,.33-1.61c0-.79-.33-2.74.29-3.78a11.06,11.06,0,0,1,.64-1,.52.52,0,0,0-.11-.73h0a1.34,1.34,0,0,0-1.68.06h0a2.69,2.69,0,0,0-.85,1.45L28.5,23l-1.77-5.44a.85.85,0,0,0-1-.57h0a.85.85,0,0,0-.65,1.07l1.11,3.81-1.94-4.18A.91.91,0,0,0,23,17.29h0a.91.91,0,0,0-.42,1.14l1.63,4.28-1.85-3.42a.8.8,0,0,0-1.1-.32h0A.81.81,0,0,0,20.93,20l1.69,3.38-1.29-1.89A.86.86,0,0,0,20,21.37h0a.87.87,0,0,0-.2,1,61.55,61.55,0,0,0,3.38,6.48c.85,1,1.22,1.18,1.92,1.27C26.21,30.26,29.45,28.87,30,28Z"/><path id="_Path_9" data-name="&lt;Path&gt;" class="cls-5" d="M28.86,45,24.11,31.7a1,1,0,0,1,.52-1.24l4.85-2.3a1,1,0,0,1,1.34.49L38.13,45Z"/><path id="_Path_10" data-name="&lt;Path&gt;" class="cls-10" d="M24.73,33.43l3.87-1.84a1,1,0,0,1,1.35.5L35.72,45h2.41L30.82,28.65a1,1,0,0,0-1.34-.49l-4.85,2.3a1,1,0,0,0-.52,1.24Z"/><path id="_Path_11" data-name="&lt;Path&gt;" class="cls-3" d="M28.86,45,24.11,31.7a1,1,0,0,1,.52-1.24l4.85-2.3a1,1,0,0,1,1.34.49L38.13,45Z"/></svg>