<svg id="Icons" xmlns="http://www.w3.org/2000/svg" viewBox="0 0 48 48"><defs><style>.cls-1{fill:#724f3d;}.cls-2{fill:#a86c4d;}.cls-3{fill:none;}.cls-10,.cls-3,.cls-9{stroke:#45413c;stroke-linecap:round;stroke-linejoin:round;}.cls-10,.cls-4{fill:#45413c;}.cls-4{opacity:0.15;}.cls-5{fill:#ff87af;}.cls-6{fill:#ff6196;}.cls-7,.cls-9{fill:#ffe500;}.cls-8{fill:#ebcb00;}.cls-11{fill:#ffaa54;}.cls-12{fill:#ff6242;}.cls-13{fill:#ffa694;}</style></defs><title>248-woman-shrugging-1</title><path id="_Path_" data-name="&lt;Path&gt;" class="cls-1" d="M24,6.32A10.88,10.88,0,0,1,34.88,17.19V31.38a1.24,1.24,0,0,1-.77,1.14h0a27.09,27.09,0,0,1-20.22,0h0a1.24,1.24,0,0,1-.77-1.14V17.19A10.88,10.88,0,0,1,24,6.32Z"/><path id="_Path_2" data-name="&lt;Path&gt;" class="cls-2" d="M24,6.32A10.88,10.88,0,0,0,13.12,17.19v3a10.88,10.88,0,0,1,21.76,0v-3A10.88,10.88,0,0,0,24,6.32Z"/><path id="_Path_3" data-name="&lt;Path&gt;" class="cls-3" d="M24,6.32A10.88,10.88,0,0,1,34.88,17.19V31.38a1.24,1.24,0,0,1-.77,1.14h0a27.09,27.09,0,0,1-20.22,0h0a1.24,1.24,0,0,1-.77-1.14V17.19A10.88,10.88,0,0,1,24,6.32Z"/><ellipse id="_Ellipse_" data-name="&lt;Ellipse&gt;" class="cls-4" cx="24" cy="45.5" rx="18" ry="1.5"/><path id="_Path_4" data-name="&lt;Path&gt;" class="cls-5" d="M36,29.83l-1.38,8a11.87,11.87,0,0,0-21.26,0l-1.38-8-4.93.52L8.22,41.49A3.92,3.92,0,0,0,12.12,45H35.88a3.92,3.92,0,0,0,3.9-3.51l1.16-11.14Z"/><polygon class="cls-6" points="7.06 30.35 7.31 32.75 12.41 32.22 11.99 29.83 7.06 30.35"/><polygon class="cls-6" points="36.01 29.83 35.59 32.22 40.69 32.75 40.94 30.35 36.01 29.83"/><path class="cls-6" d="M24,31.22a11.88,11.88,0,0,0-10.63,6.59l.34,1.8a11.86,11.86,0,0,1,20.58,0l.34-1.8A11.88,11.88,0,0,0,24,31.22Z"/><path id="_Path_5" data-name="&lt;Path&gt;" class="cls-3" d="M36,29.83l-1.38,8a11.87,11.87,0,0,0-21.26,0l-1.38-8-4.93.52L8.22,41.49A3.92,3.92,0,0,0,12.12,45H35.88a3.92,3.92,0,0,0,3.9-3.51l1.16-11.14Z"/><rect id="_Rectangle_" data-name="&lt;Rectangle&gt;" class="cls-7" x="21.46" y="27.17" width="5.09" height="7.94" rx="2.54" ry="2.54"/><path id="_Path_6" data-name="&lt;Path&gt;" class="cls-8" d="M24,27.17a2.54,2.54,0,0,0-2.54,2.54v.6a2.54,2.54,0,0,0,5.08,0v-.59A2.54,2.54,0,0,0,24,27.17Z"/><rect id="_Rectangle_2" data-name="&lt;Rectangle&gt;" class="cls-3" x="21.46" y="27.17" width="5.09" height="7.94" rx="2.54" ry="2.54"/><path id="_Path_7" data-name="&lt;Path&gt;" class="cls-9" d="M9.5,29.12l-3.18-.61a.89.89,0,0,1-.7-1h0a.89.89,0,0,1,1-.7L11,27.6Z"/><path id="_Path_8" data-name="&lt;Path&gt;" class="cls-9" d="M3.3,27.93l4.1.79A4,4,0,0,1,11,27.6h0a1.88,1.88,0,0,1,1.48,2.19h0a1.88,1.88,0,0,1-2.19,1.48L2.93,29.86a1,1,0,0,1-.78-1.15A1,1,0,0,1,3.3,27.93Z"/><path id="_Path_9" data-name="&lt;Path&gt;" class="cls-9" d="M38.5,29.12l3.18-.61a.89.89,0,0,0,.7-1h0a.89.89,0,0,0-1-.7L37,27.6Z"/><path id="_Path_10" data-name="&lt;Path&gt;" class="cls-9" d="M44.7,27.93l-4.1.79A4,4,0,0,0,37,27.6h0a1.88,1.88,0,0,0-1.48,2.19h0a1.88,1.88,0,0,0,2.19,1.48l7.33-1.41a1,1,0,0,0,.78-1.15A1,1,0,0,0,44.7,27.93Z"/><line id="_Path_11" data-name="&lt;Path&gt;" class="cls-3" x1="13.37" y1="37.81" x2="14.15" y2="41.88"/><line id="_Path_12" data-name="&lt;Path&gt;" class="cls-3" x1="34.63" y1="37.81" x2="33.85" y2="41.88"/><g id="_Group_" data-name="&lt;Group&gt;"><path id="_Path_13" data-name="&lt;Path&gt;" class="cls-9" d="M33.06,19.47a8.77,8.77,0,0,1-5.67-5L26.77,13a15.92,15.92,0,0,1-9.95,6.18l-1.89.34a1.81,1.81,0,0,0,0,3.62h.12a9,9,0,0,0,17.9,0h.11a1.81,1.81,0,1,0,0-3.62Z"/></g><path id="_Path_14" data-name="&lt;Path&gt;" class="cls-10" d="M18.57,20.91a.77.77,0,1,0,.77-.77A.76.76,0,0,0,18.57,20.91Z"/><path id="_Path_15" data-name="&lt;Path&gt;" class="cls-10" d="M29.43,20.91a.77.77,0,1,1-.77-.77A.76.76,0,0,1,29.43,20.91Z"/><ellipse id="_Ellipse_2" data-name="&lt;Ellipse&gt;" class="cls-11" cx="18.06" cy="24.19" rx="1" ry="0.6"/><ellipse id="_Ellipse_3" data-name="&lt;Ellipse&gt;" class="cls-11" cx="29.94" cy="24.19" rx="1" ry="0.6"/><path id="_Path_16" data-name="&lt;Path&gt;" class="cls-12" d="M26.54,27.83c0,.86-1.13,1.05-2.54,1.05s-2.54-.19-2.54-1.05a2.6,2.6,0,0,1,5.08,0Z"/><path id="_Path_17" data-name="&lt;Path&gt;" class="cls-13" d="M26.21,28.46a2.73,2.73,0,0,0-4.42,0,4,4,0,0,0,2.21.42A4,4,0,0,0,26.21,28.46Z"/><path id="_Path_18" data-name="&lt;Path&gt;" class="cls-3" d="M26.54,27.83c0,.86-1.13,1.05-2.54,1.05s-2.54-.19-2.54-1.05a2.6,2.6,0,0,1,5.08,0Z"/></svg>