<svg id="Icons" xmlns="http://www.w3.org/2000/svg" viewBox="0 0 48 48"><defs><style>.cls-1{fill:#45413c;opacity:0.15;}.cls-2{fill:#00b8f0;}.cls-3{fill:#009fd9;}.cls-4{fill:none;}.cls-4,.cls-9{stroke:#45413c;stroke-linecap:round;stroke-linejoin:round;}.cls-5,.cls-9{fill:#ffcebf;}.cls-6{fill:#ffb59e;}.cls-7{fill:#a86c4d;}.cls-8{fill:#de926a;}.cls-10{fill:#ffdcd1;}</style></defs><title>251-man-getting-massage-2</title><ellipse id="_Ellipse_" data-name="&lt;Ellipse&gt;" class="cls-1" cx="24" cy="45.5" rx="15" ry="1.5"/><path id="_Path_" data-name="&lt;Path&gt;" class="cls-2" d="M35.88,45H12.12V43.1a11.88,11.88,0,1,1,23.76,0Z"/><path id="_Path_2" data-name="&lt;Path&gt;" class="cls-3" d="M24,31.22A11.88,11.88,0,0,0,12.12,43.1V45h.17a11.88,11.88,0,0,1,23.42,0h.17V43.1A11.88,11.88,0,0,0,24,31.22Z"/><path id="_Path_3" data-name="&lt;Path&gt;" class="cls-4" d="M35.88,45H12.12V43.1a11.88,11.88,0,1,1,23.76,0Z"/><line id="_Path_4" data-name="&lt;Path&gt;" class="cls-4" x1="17.06" y1="45" x2="17.06" y2="42.59"/><line id="_Path_5" data-name="&lt;Path&gt;" class="cls-4" x1="30.94" y1="45" x2="30.94" y2="42.59"/><path class="cls-5" d="M24,27.17a2.54,2.54,0,0,0-2.54,2.55v2.85a2.54,2.54,0,1,0,5.08,0V29.72A2.54,2.54,0,0,0,24,27.17Z"/><path id="_Path_6" data-name="&lt;Path&gt;" class="cls-6" d="M24,27.17a2.54,2.54,0,0,0-2.54,2.54v.6a2.54,2.54,0,0,0,5.08,0v-.59A2.54,2.54,0,0,0,24,27.17Z"/><path class="cls-4" d="M24,27.17a2.54,2.54,0,0,0-2.54,2.55v2.85a2.54,2.54,0,1,0,5.08,0V29.72A2.54,2.54,0,0,0,24,27.17Z"/><path id="_Path_7" data-name="&lt;Path&gt;" class="cls-7" d="M24,6.91a9.83,9.83,0,0,0-2.44.31c-1.86.42-4.28,1.12-6.47.7a4.2,4.2,0,0,0,.84,3.21,9.81,9.81,0,0,0-1.75,5.6v5.14H33.82V16.73A9.82,9.82,0,0,0,24,6.91Z"/><g id="_Group_" data-name="&lt;Group&gt;"><path id="_Path_8" data-name="&lt;Path&gt;" class="cls-8" d="M24,6.91a9.83,9.83,0,0,0-2.44.31c-1.86.42-4.28,1.12-6.47.7a4.47,4.47,0,0,0,.68,3,19.4,19.4,0,0,0,5.79-.79,9.81,9.81,0,0,1,12.26,9.51V16.73A9.82,9.82,0,0,0,24,6.91Z"/></g><path id="_Path_9" data-name="&lt;Path&gt;" class="cls-4" d="M24,6.91a9.83,9.83,0,0,0-2.44.31c-1.86.42-4.28,1.12-6.47.7a4.2,4.2,0,0,0,.84,3.21,9.81,9.81,0,0,0-1.75,5.6v5.14H33.82V16.73A9.82,9.82,0,0,0,24,6.91Z"/><path class="cls-9" d="M34.87,21.12a1.83,1.83,0,0,0-1.39-1.54l-.59-.16a2.06,2.06,0,0,1-1.5-2V15.38A1.88,1.88,0,0,0,30,13.57a15.34,15.34,0,0,1-6,1.09,15.34,15.34,0,0,1-6-1.09,1.88,1.88,0,0,0-1.4,1.81v2.06a2.06,2.06,0,0,1-1.5,2l-.59.16a1.83,1.83,0,0,0-1.39,1.54,1.81,1.81,0,0,0,1.81,2h.11a9,9,0,0,0,17.9,0h.11A1.81,1.81,0,0,0,34.87,21.12Z"/><path id="_Path_10" data-name="&lt;Path&gt;" class="cls-4" d="M18.57,20.91a.77.77,0,0,0,1.54,0"/><path id="_Path_11" data-name="&lt;Path&gt;" class="cls-4" d="M29.43,20.91a.77.77,0,0,1-1.54,0"/><path id="_Path_12" data-name="&lt;Path&gt;" class="cls-4" d="M21.81,27.17a2.78,2.78,0,0,0,4.38,0"/><ellipse id="_Ellipse_2" data-name="&lt;Ellipse&gt;" class="cls-6" cx="18.06" cy="24.19" rx="1" ry="0.6"/><ellipse id="_Ellipse_3" data-name="&lt;Ellipse&gt;" class="cls-6" cx="29.94" cy="24.19" rx="1" ry="0.6"/><path id="_Path_13" data-name="&lt;Path&gt;" class="cls-5" d="M19.14,12.24a5.55,5.55,0,0,1-3-4.93V3.64H12.18v4.9c0,1.18-.88,6-.76,5.23a8.11,8.11,0,0,0,.13,3.29l1.51,6.09c.29,1.15,2.13.73,2.13-.6V16a1.68,1.68,0,0,1,2.18-1.61l1.26.39c1.63.51,2.93-1.35,2-1.84Z"/><path class="cls-10" d="M16.12,9.37a5.48,5.48,0,0,0,1.27,3.53A6.67,6.67,0,0,0,20,14.72c.88-.4,1.31-1.4.64-1.74l-1.45-.74a5.55,5.55,0,0,1-3-4.93Z"/><path id="_Path_14" data-name="&lt;Path&gt;" class="cls-4" d="M19.14,12.24a5.55,5.55,0,0,1-3-4.93V3.64H12.18v4.9c0,1.18-.88,6-.76,5.23a8.11,8.11,0,0,0,.13,3.29l1.51,6.09c.29,1.15,2.13.73,2.13-.6V16a1.68,1.68,0,0,1,2.18-1.61l1.26.39c1.63.51,2.93-1.35,2-1.84Z"/><path id="_Path_15" data-name="&lt;Path&gt;" class="cls-5" d="M28.86,12.24a5.55,5.55,0,0,0,3-4.93V3.64h3.94v4.9c0,1.18.88,6,.76,5.23a8.11,8.11,0,0,1-.13,3.29l-1.51,6.09c-.29,1.15-2.13.73-2.13-.6V16a1.68,1.68,0,0,0-2.18-1.61l-1.26.39c-1.63.51-2.93-1.35-2-1.84Z"/><path class="cls-10" d="M31.88,9.37a5.48,5.48,0,0,1-1.27,3.53,6.67,6.67,0,0,1-2.56,1.82c-.88-.4-1.31-1.4-.64-1.74l1.45-.74a5.55,5.55,0,0,0,3-4.93Z"/><path id="_Path_16" data-name="&lt;Path&gt;" class="cls-4" d="M28.86,12.24a5.55,5.55,0,0,0,3-4.93V3.64h3.94v4.9c0,1.18.88,6,.76,5.23a8.11,8.11,0,0,1-.13,3.29l-1.51,6.09c-.29,1.15-2.13.73-2.13-.6V16a1.68,1.68,0,0,0-2.18-1.61l-1.26.39c-1.63.51-2.93-1.35-2-1.84Z"/></svg>