<svg id="Icons" xmlns="http://www.w3.org/2000/svg" viewBox="0 0 48 48"><defs><style>.cls-1{fill:#daedf7;}.cls-1,.cls-10,.cls-11,.cls-15,.cls-4{stroke:#45413c;stroke-linecap:round;stroke-linejoin:round;}.cls-2{fill:#724f3d;}.cls-3{fill:#a86c4d;}.cls-4{fill:none;}.cls-11,.cls-5{fill:#45413c;}.cls-5{opacity:0.15;}.cls-6{fill:#ff87af;}.cls-7{fill:#ff6196;}.cls-10,.cls-8{fill:#ffe500;}.cls-9{fill:#ebcb00;}.cls-12,.cls-15{fill:#ff6242;}.cls-13{fill:#ffa694;}.cls-14{fill:#ffaa54;}</style></defs><title>256-woman-getting-haircut-1</title><path class="cls-1" d="M28.05,14.27A2.81,2.81,0,0,0,25,16.79l10.61,1.05a3.85,3.85,0,0,0,2.72-.76l.17-1.77Z"/><path id="_Path_" data-name="&lt;Path&gt;" class="cls-2" d="M10.27,32.52a27.09,27.09,0,0,0,20.22,0,19.38,19.38,0,0,0,8.22-6.87.5.5,0,0,0-.51-.77,5.5,5.5,0,0,1-6.94-5.48V17.55A11.11,11.11,0,0,0,20.58,6.32,10.88,10.88,0,0,0,9.5,17.19V31.38A1.23,1.23,0,0,0,10.27,32.52Z"/><path id="_Path_2" data-name="&lt;Path&gt;" class="cls-3" d="M20.58,9.2A11.12,11.12,0,0,1,31.26,20.44v1.85a5.43,5.43,0,0,0,5.63,5.63,20.55,20.55,0,0,0,1.82-2.27.5.5,0,0,0-.51-.77,5.5,5.5,0,0,1-6.94-5.48V17.55A11.11,11.11,0,0,0,20.58,6.32,10.88,10.88,0,0,0,9.5,17.19v2.89A10.88,10.88,0,0,1,20.58,9.2Z"/><path id="_Path_3" data-name="&lt;Path&gt;" class="cls-4" d="M10.27,32.52a27.09,27.09,0,0,0,20.22,0,19.38,19.38,0,0,0,8.22-6.87.5.5,0,0,0-.51-.77,5.5,5.5,0,0,1-6.94-5.48V17.55A11.11,11.11,0,0,0,20.58,6.32,10.88,10.88,0,0,0,9.5,17.19V31.38A1.23,1.23,0,0,0,10.27,32.52Z"/><ellipse id="_Ellipse_" data-name="&lt;Ellipse&gt;" class="cls-5" cx="20.38" cy="45.5" rx="15" ry="1.5"/><path id="_Path_4" data-name="&lt;Path&gt;" class="cls-6" d="M32.26,45H8.5V43.1a11.88,11.88,0,1,1,23.76,0Z"/><path id="_Path_5" data-name="&lt;Path&gt;" class="cls-7" d="M20.38,31.22A11.88,11.88,0,0,0,8.5,43.1V45h.17a11.88,11.88,0,0,1,23.42,0h.17V43.1A11.88,11.88,0,0,0,20.38,31.22Z"/><path id="_Path_6" data-name="&lt;Path&gt;" class="cls-4" d="M32.26,45H8.5V43.1a11.88,11.88,0,1,1,23.76,0Z"/><path class="cls-8" d="M20.38,27.17a2.55,2.55,0,0,0-2.55,2.55v2.85a2.55,2.55,0,0,0,5.09,0V29.72A2.55,2.55,0,0,0,20.38,27.17Z"/><path id="_Path_7" data-name="&lt;Path&gt;" class="cls-9" d="M20.38,27.17a2.55,2.55,0,0,0-2.55,2.54v.6a2.55,2.55,0,0,0,5.09,0v-.59A2.55,2.55,0,0,0,20.38,27.17Z"/><path class="cls-4" d="M20.38,27.17a2.55,2.55,0,0,0-2.55,2.55v2.85a2.55,2.55,0,0,0,5.09,0V29.72A2.55,2.55,0,0,0,20.38,27.17Z"/><g id="_Group_" data-name="&lt;Group&gt;"><path id="_Path_8" data-name="&lt;Path&gt;" class="cls-10" d="M29.44,19.47a8.77,8.77,0,0,1-5.67-5L23.15,13a15.92,15.92,0,0,1-9.95,6.18l-1.89.34a1.81,1.81,0,0,0,0,3.62h.11a9.05,9.05,0,0,0,17.91,0h.11a1.81,1.81,0,1,0,0-3.62Z"/><path id="_Path_9" data-name="&lt;Path&gt;" class="cls-11" d="M14.94,20.91a.78.78,0,1,0,.78-.77A.77.77,0,0,0,14.94,20.91Z"/><path id="_Path_10" data-name="&lt;Path&gt;" class="cls-11" d="M25.81,20.91a.77.77,0,1,1-.77-.77A.76.76,0,0,1,25.81,20.91Z"/><g id="_Group_2" data-name="&lt;Group&gt;"><g id="_Group_3" data-name="&lt;Group&gt;"><g id="_Group_4" data-name="&lt;Group&gt;"><g id="_Group_5" data-name="&lt;Group&gt;"><g id="_Group_6" data-name="&lt;Group&gt;"><g id="_Group_7" data-name="&lt;Group&gt;"><g id="_Group_8" data-name="&lt;Group&gt;"><path id="_Path_11" data-name="&lt;Path&gt;" class="cls-12" d="M17.54,25.6a.42.42,0,0,0-.33.16.46.46,0,0,0-.11.35,3.32,3.32,0,0,0,6.55,0,.45.45,0,0,0-.1-.35.44.44,0,0,0-.34-.16Z"/><path id="_Path_12" data-name="&lt;Path&gt;" class="cls-13" d="M20.38,27a4,4,0,0,0-2.52.77,3.36,3.36,0,0,0,5,0A4,4,0,0,0,20.38,27Z"/></g></g></g></g></g></g></g><g id="_Group_9" data-name="&lt;Group&gt;"><path id="_Path_13" data-name="&lt;Path&gt;" class="cls-4" d="M17.54,25.6a.42.42,0,0,0-.33.16.46.46,0,0,0-.11.35,3.32,3.32,0,0,0,6.55,0,.45.45,0,0,0-.1-.35.44.44,0,0,0-.34-.16Z"/></g><ellipse id="_Ellipse_2" data-name="&lt;Ellipse&gt;" class="cls-14" cx="14.44" cy="24.19" rx="1" ry="0.6"/><ellipse id="_Ellipse_3" data-name="&lt;Ellipse&gt;" class="cls-14" cx="26.32" cy="24.19" rx="1" ry="0.6"/></g><line id="_Path_14" data-name="&lt;Path&gt;" class="cls-4" x1="13.44" y1="45" x2="13.44" y2="42.59"/><line id="_Path_15" data-name="&lt;Path&gt;" class="cls-4" x1="27.32" y1="45" x2="27.32" y2="42.59"/><path id="_Compound_Path_" data-name="&lt;Compound Path&gt;" class="cls-15" d="M43.7,13.79a2.9,2.9,0,0,0-3,1.75l-2.26-.23-.17,1.77,2.25.23a2.92,2.92,0,1,0,3.14-3.52Zm-.24,1.9a1,1,0,1,1-1.1.9A1,1,0,0,1,43.46,15.69Z"/><path class="cls-1" d="M37.17,14.33a3.87,3.87,0,0,0-1.72,2.24l-3,10.24A2.81,2.81,0,0,0,36,24.89l2.92-10.07Z"/><path id="_Compound_Path_2" data-name="&lt;Compound Path&gt;" class="cls-15" d="M40.24,6.92a2.92,2.92,0,0,0-2.44,5.23l-.63,2.18,1.71.49.63-2.17a2.92,2.92,0,0,0,.73-5.73Zm-1.11,3.82a1,1,0,0,1,.56-1.93,1,1,0,1,1-.56,1.93Z"/></svg>