<svg id="Icons" xmlns="http://www.w3.org/2000/svg" viewBox="0 0 48 48"><defs><style>.cls-1{fill:#bf8df2;}.cls-2{fill:#dabff5;}.cls-3{fill:#a86c4d;}.cls-4{fill:#de926a;}.cls-5{fill:none;}.cls-10,.cls-5,.cls-9{stroke:#45413c;stroke-linecap:round;stroke-linejoin:round;}.cls-6{fill:#c0dceb;}.cls-7{fill:#adc4d9;}.cls-8{fill:#45413c;opacity:0.15;}.cls-11,.cls-9{fill:#ffcebf;}.cls-10{fill:#656769;}.cls-12{fill:#ffb59e;}</style></defs><title>261-woman-walking-2</title><path id="_Path_" data-name="&lt;Path&gt;" class="cls-1" d="M25.9,19.92a2.15,2.15,0,0,0-2.18-1.69,1.39,1.39,0,0,0-.35,0,5.43,5.43,0,0,0-3.72,2.84c-1.16,2.12.69,2.77.69,2.77-.87,3.92-.14,5.65-.14,5.65h7C27.36,27.69,26.17,21.45,25.9,19.92Z"/><path class="cls-2" d="M25.9,19.92a2.15,2.15,0,0,0-2.18-1.69,1.39,1.39,0,0,0-.35,0,5.43,5.43,0,0,0-3.72,2.84,1.87,1.87,0,0,0,0,2.25,5.23,5.23,0,0,1,4-2.94,2.6,2.6,0,0,1,2.59,1C26.06,20.78,26,20.25,25.9,19.92Z"/><path id="_Path_2" data-name="&lt;Path&gt;" class="cls-3" d="M28.5,9.68s2.31-1.06,3.58.38c1.5,1.69.21,5.87.67,7.54A4.06,4.06,0,0,0,34.37,20a3.66,3.66,0,0,1-3.07-.44c-2.13-1.29-1.93-5.25-2-6.71s-1.07-1.47-1.07-1.47Z"/><path id="_Path_3" data-name="&lt;Path&gt;" class="cls-4" d="M32.08,12.13a3.45,3.45,0,0,1,.71,2c.1-1.55.09-3.15-.71-4-1.27-1.44-3.58-.38-3.58-.38l-.28,1.7a1,1,0,0,1,.58.26C29.47,11.41,31.09,11,32.08,12.13Z"/><path id="_Path_4" data-name="&lt;Path&gt;" class="cls-5" d="M28.5,9.68s2.31-1.06,3.58.38c1.5,1.69.21,5.87.67,7.54A4.06,4.06,0,0,0,34.37,20a3.66,3.66,0,0,1-3.07-.44c-2.13-1.29-1.93-5.25-2-6.71s-1.07-1.47-1.07-1.47Z"/><path id="_Path_5" data-name="&lt;Path&gt;" class="cls-6" d="M20.2,29.53l-1,1.61a14,14,0,0,0-2.11,7.39V42h4.77V38.14a8.93,8.93,0,0,1,1.46-4.91l2.41-3.7Z"/><path id="_Path_6" data-name="&lt;Path&gt;" class="cls-7" d="M19.2,31.14A13.35,13.35,0,0,0,18,33.66h5.09c.08-.15.17-.29.26-.43l2.41-3.7H20.2Z"/><path id="_Path_7" data-name="&lt;Path&gt;" class="cls-5" d="M20.2,29.53l-1,1.61a14,14,0,0,0-2.11,7.39V42h4.77V38.14a8.93,8.93,0,0,1,1.46-4.91l2.41-3.7Z"/><path id="_Path_8" data-name="&lt;Path&gt;" class="cls-6" d="M22.39,29.53l.2,1.45a14,14,0,0,0,6.76,10.16l.81.48,2.55-4.37-1.06-.61a9,9,0,0,1-4.39-6.44l-.1-.67Z"/><path id="_Path_9" data-name="&lt;Path&gt;" class="cls-7" d="M27.26,30.2l-.1-.67H22.39l.2,1.45a13.42,13.42,0,0,0,.64,2.68h5.33A9,9,0,0,1,27.26,30.2Z"/><path id="_Path_10" data-name="&lt;Path&gt;" class="cls-5" d="M22.39,29.53l.2,1.45a14,14,0,0,0,6.76,10.16l.81.48,2.55-4.37-1.06-.61a9,9,0,0,1-4.39-6.44l-.1-.67Z"/><ellipse id="_Ellipse_" data-name="&lt;Ellipse&gt;" class="cls-8" cx="24.67" cy="45.6" rx="11.5" ry="1.5"/><circle id="_Path_11" data-name="&lt;Path&gt;" class="cls-9" cx="23.53" cy="11.38" r="5.02"/><path id="_Path_12" data-name="&lt;Path&gt;" class="cls-5" d="M25.9,19.92a2.15,2.15,0,0,0-2.18-1.69,1.39,1.39,0,0,0-.35,0,5.43,5.43,0,0,0-3.72,2.84c-1.16,2.12.69,2.77.69,2.77-.87,3.92-.14,5.65-.14,5.65h7C27.36,27.69,26.17,21.45,25.9,19.92Z"/><path id="_Rectangle_" data-name="&lt;Rectangle&gt;" class="cls-10" d="M18.3,42h3.56a0,0,0,0,1,0,0v2a1,1,0,0,1-1,1H15.34a0,0,0,0,1,0,0v0a3,3,0,0,1,3-3Z"/><path id="_Rectangle_2" data-name="&lt;Rectangle&gt;" class="cls-10" d="M32.05,39.33h3.56a0,0,0,0,1,0,0v2a1,1,0,0,1-1,1H29.09a0,0,0,0,1,0,0v0A3,3,0,0,1,32.05,39.33Z" transform="translate(-19.21 48.17) rotate(-59.72)"/><path id="_Rectangle_3" data-name="&lt;Rectangle&gt;" class="cls-1" d="M24,18.22h0a2,2,0,0,1,2,2v4.2a0,0,0,0,1,0,0H22a0,0,0,0,1,0,0V20.2A2,2,0,0,1,24,18.22Z" transform="translate(-2.47 3.16) rotate(-7.16)"/><path id="_Path_13" data-name="&lt;Path&gt;" class="cls-2" d="M23.61,18.24a2,2,0,0,0-1.72,2.22l.27,2.12a2,2,0,1,1,3.94-.5L25.83,20A2,2,0,0,0,23.61,18.24Z"/><path id="_Rectangle_4" data-name="&lt;Rectangle&gt;" class="cls-5" d="M24,18.22h0a2,2,0,0,1,2,2v4.2a0,0,0,0,1,0,0H22a0,0,0,0,1,0,0V20.2A2,2,0,0,1,24,18.22Z" transform="translate(-2.47 3.16) rotate(-7.16)"/><path id="_Path_14" data-name="&lt;Path&gt;" class="cls-11" d="M22.63,24.6l.12,1a6.15,6.15,0,0,1-.22,2.52l-.85,2.73a1.65,1.65,0,0,0,1,2h0a1.65,1.65,0,0,0,2.15-1.06L25.68,29A10,10,0,0,0,26,24.82L26,24.18Z"/><path id="_Path_15" data-name="&lt;Path&gt;" class="cls-12" d="M22.75,25.56a5.1,5.1,0,0,1,0,.78l3.33-.42a10,10,0,0,0-.08-1.1L26,24.18l-3.33.42Z"/><path id="_Path_16" data-name="&lt;Path&gt;" class="cls-5" d="M22.63,24.6l.12,1a6.15,6.15,0,0,1-.22,2.52l-.85,2.73a1.65,1.65,0,0,0,1,2h0a1.65,1.65,0,0,0,2.15-1.06L25.68,29A10,10,0,0,0,26,24.82L26,24.18Z"/><path id="_Path_17" data-name="&lt;Path&gt;" class="cls-3" d="M18.33,8.06c-.62,1.65,1.53,1.59,2.38,1.18a4.1,4.1,0,0,0,2.85,2,1.29,1.29,0,0,1,1.76.05,1.46,1.46,0,0,1-.27,2.31,2.43,2.43,0,0,1-.74.16,2.17,2.17,0,0,0,.94,2.38,5,5,0,0,0,4.1-4.37,6,6,0,0,0-3-6.18C24.12,4.35,19.58,4.72,18.33,8.06Z"/><path id="_Path_18" data-name="&lt;Path&gt;" class="cls-4" d="M18.76,9.35c1.64-2.54,5.56-2.76,7.59-1.67a5.94,5.94,0,0,1,3,4.18.79.79,0,0,1,0-.13,6,6,0,0,0-3-6.18c-2.23-1.2-6.77-.83-8,2.51C18.06,8.78,18.32,9.17,18.76,9.35Z"/><path id="_Path_19" data-name="&lt;Path&gt;" class="cls-5" d="M18.33,8.06c-.62,1.65,1.53,1.59,2.38,1.18a4.1,4.1,0,0,0,2.85,2,1.29,1.29,0,0,1,1.76.05,1.46,1.46,0,0,1-.27,2.31,2.43,2.43,0,0,1-.74.16,2.17,2.17,0,0,0,.94,2.38,5,5,0,0,0,4.1-4.37,6,6,0,0,0-3-6.18C24.12,4.35,19.58,4.72,18.33,8.06Z"/></svg>