<svg id="Icons" xmlns="http://www.w3.org/2000/svg" viewBox="0 0 48 48"><defs><style>.cls-1{fill:#656769;}.cls-1,.cls-11,.cls-4,.cls-5{stroke:#45413c;stroke-linecap:round;stroke-linejoin:round;}.cls-2{fill:#00b8f0;}.cls-3{fill:#009fd9;}.cls-4{fill:none;}.cls-5{fill:#e04122;}.cls-6{fill:#45413c;opacity:0.15;}.cls-7{fill:#ff6242;}.cls-8{fill:#ff866e;}.cls-11,.cls-9{fill:#ffe500;}.cls-10{fill:#ebcb00;}.cls-12{fill:#724f3d;}.cls-13{fill:#a86c4d;}</style></defs><title>262-man-running-1</title><path id="_Rectangle_" data-name="&lt;Rectangle&gt;" class="cls-1" d="M36.48,37H40a0,0,0,0,1,0,0v2a1,1,0,0,1-1,1H33.51a0,0,0,0,1,0,0v0a3,3,0,0,1,3-3Z" transform="translate(-8.1 67.21) rotate(-78.92)"/><path id="_Path_" data-name="&lt;Path&gt;" class="cls-2" d="M24.32,30.38a2.37,2.37,0,0,0-.38,3.32l1.36,1.71a10,10,0,0,0,6,3.62l3.73.69L36,35l-3.27-.62a7,7,0,0,1-4.26-2.63l-.75-1a2.37,2.37,0,0,0-3.35-.42Z"/><path class="cls-3" d="M28.42,31.79l-.75-1a2.36,2.36,0,1,0-3.73,2.9l1.36,1.71a9.93,9.93,0,0,0,1.76,1.73,26.33,26.33,0,0,1,3.51-3.49A7,7,0,0,1,28.42,31.79Z"/><path id="_Path_2" data-name="&lt;Path&gt;" class="cls-4" d="M24.32,30.38a2.37,2.37,0,0,0-.38,3.32l1.36,1.71a10,10,0,0,0,6,3.62l3.73.69L36,35l-3.27-.62a7,7,0,0,1-4.26-2.63l-.75-1a2.37,2.37,0,0,0-3.35-.42Z"/><path id="_Rectangle_2" data-name="&lt;Rectangle&gt;" class="cls-1" d="M16.68,41.2h3.56a0,0,0,0,1,0,0v2a1,1,0,0,1-1,1H13.71a0,0,0,0,1,0,0v0A3,3,0,0,1,16.68,41.2Z" transform="translate(17.77 -3.24) rotate(22.68)"/><path id="_Path_3" data-name="&lt;Path&gt;" class="cls-2" d="M24.75,29.75l-2.7,1.95a14,14,0,0,0-4.39,5.58l-1.51,3.45,4.41,1.84,1.36-3.26a9,9,0,0,1,2.87-3.71l2.84-2.05a2.38,2.38,0,0,0,.46-3.34h0A2.38,2.38,0,0,0,24.75,29.75Z"/><path class="cls-3" d="M28.09,30.21a2.38,2.38,0,0,0-3.34-.46l-2.7,1.95a13.76,13.76,0,0,0-2.16,2,56.09,56.09,0,0,0,8-.38A2.38,2.38,0,0,0,28.09,30.21Z"/><path id="_Path_4" data-name="&lt;Path&gt;" class="cls-4" d="M24.75,29.75l-2.7,1.95a14,14,0,0,0-4.39,5.58l-1.51,3.45,4.41,1.84,1.36-3.26a9,9,0,0,1,2.87-3.71l2.84-2.05a2.38,2.38,0,0,0,.46-3.34h0A2.38,2.38,0,0,0,24.75,29.75Z"/><path id="_Rectangle_3" data-name="&lt;Rectangle&gt;" class="cls-5" d="M19.5,21h.42a1.57,1.57,0,0,1,1.57,1.57v4a0,0,0,0,1,0,0H17.94a0,0,0,0,1,0,0v-4A1.57,1.57,0,0,1,19.5,21Z" transform="translate(20.56 -7.1) rotate(41.25)"/><ellipse id="_Ellipse_" data-name="&lt;Ellipse&gt;" class="cls-6" cx="24.06" cy="46.31" rx="11.5" ry="1.5"/><g id="_Group_" data-name="&lt;Group&gt;"><g id="_Group_2" data-name="&lt;Group&gt;"><path id="_Path_5" data-name="&lt;Path&gt;" class="cls-7" d="M28.07,28.52,23.28,31a1,1,0,0,1-1.35-.43,14.76,14.76,0,0,1-1.81-4.3c-.93-3-1.14-5.78.39-6.57h0a2.16,2.16,0,0,1,2.72.49L28.41,27A1,1,0,0,1,28.07,28.52Z"/></g><path id="_Path_6" data-name="&lt;Path&gt;" class="cls-8" d="M22.12,30.84c-.22-.57-.47-1.27-.73-2.12-.93-3-1.14-5.78.39-6.57a2.17,2.17,0,0,1,2.72.49L28.55,28a1,1,0,0,0-.14-.95L23.23,20.2a2.16,2.16,0,0,0-2.72-.49c-1.53.79-1.32,3.55-.39,6.57a14.76,14.76,0,0,0,1.81,4.3A1,1,0,0,0,22.12,30.84Z"/><g id="_Group_3" data-name="&lt;Group&gt;"><path id="_Path_7" data-name="&lt;Path&gt;" class="cls-4" d="M28.07,28.52,23.28,31a1,1,0,0,1-1.35-.43,14.76,14.76,0,0,1-1.81-4.3c-.93-3-1.14-5.78.39-6.57h0a2.16,2.16,0,0,1,2.72.49L28.41,27A1,1,0,0,1,28.07,28.52Z"/></g></g><path id="_Path_8" data-name="&lt;Path&gt;" class="cls-9" d="M11,23.8A1.55,1.55,0,0,0,11,26l1.2,1.13A4.69,4.69,0,0,0,19,26.82h0l-2.3-2.06h0a1.66,1.66,0,0,1-2.41.1l-1.13-1.09A1.54,1.54,0,0,0,11,23.8Z"/><path id="_Path_9" data-name="&lt;Path&gt;" class="cls-10" d="M16,28.36A4.6,4.6,0,0,0,19,26.82l-2.3-2.06h0a1.65,1.65,0,0,1-1.23.56Z"/><path id="_Path_10" data-name="&lt;Path&gt;" class="cls-4" d="M11,23.8A1.55,1.55,0,0,0,11,26l1.2,1.13A4.69,4.69,0,0,0,19,26.82h0l-2.3-2.06h0a1.66,1.66,0,0,1-2.41.1l-1.13-1.09A1.54,1.54,0,0,0,11,23.8Z"/><path id="_Rectangle_4" data-name="&lt;Rectangle&gt;" class="cls-7" d="M23.75,18.46h0a1.89,1.89,0,0,1,1.89,1.89v4a0,0,0,0,1,0,0H21.86a0,0,0,0,1,0,0v-4A1.89,1.89,0,0,1,23.75,18.46Z" transform="matrix(0.55, -0.83, 0.83, 0.55, -7.22, 29.34)"/><path id="_Path_11" data-name="&lt;Path&gt;" class="cls-8" d="M23.08,21a1.89,1.89,0,0,1,2.62-.53l1.51,1,0,0-3.32-2.21a1.89,1.89,0,1,0-2.09,3.14l1.44,1A1.88,1.88,0,0,1,23.08,21Z"/><path id="_Rectangle_5" data-name="&lt;Rectangle&gt;" class="cls-4" d="M23.75,18.46h0a1.89,1.89,0,0,1,1.89,1.89v4a0,0,0,0,1,0,0H21.86a0,0,0,0,1,0,0v-4A1.89,1.89,0,0,1,23.75,18.46Z" transform="matrix(0.55, -0.83, 0.83, 0.55, -7.22, 29.34)"/><path id="_Path_12" data-name="&lt;Path&gt;" class="cls-9" d="M28,30.8a1.53,1.53,0,0,1-1.32-1.72L27,26.93a2,2,0,0,0-.8-1.88l-.89-.65L27,21.75l.54.39A6,6,0,0,1,30,27.9l-.25,1.61A1.53,1.53,0,0,1,28,30.8Z"/><path id="_Path_13" data-name="&lt;Path&gt;" class="cls-10" d="M27.55,22.14,27,21.75,25.29,24.4l.89.65a2,2,0,0,1,.56.67L28,22.53A5.58,5.58,0,0,0,27.55,22.14Z"/><path id="_Path_14" data-name="&lt;Path&gt;" class="cls-4" d="M28,30.8a1.53,1.53,0,0,1-1.32-1.72L27,26.93a2,2,0,0,0-.8-1.88l-.89-.65L27,21.75l.54.39A6,6,0,0,1,30,27.9l-.25,1.61A1.53,1.53,0,0,1,28,30.8Z"/><circle id="_Path_15" data-name="&lt;Path&gt;" class="cls-11" cx="16.78" cy="14.1" r="5.02"/><path id="_Path_16" data-name="&lt;Path&gt;" class="cls-12" d="M19.1,8.67a6.32,6.32,0,0,0-4.57-.16A2.42,2.42,0,0,1,11.76,8s-1.85,3.19.31,4.34a7.6,7.6,0,0,0,5-.16l-.26,1.73s1.15-.65,1.77.05.3,2.66-1,2.47a2.71,2.71,0,0,0,.94,2.38,5.06,5.06,0,0,0,3.26-4C22.15,12.07,21.57,10.11,19.1,8.67Z"/><g id="_Group_4" data-name="&lt;Group&gt;"><path id="_Path_17" data-name="&lt;Path&gt;" class="cls-13" d="M11.47,10.73a.54.54,0,0,1,.31-.28.5.5,0,0,1,.41.05,2.7,2.7,0,0,0,2.34.14,6.32,6.32,0,0,1,4.57.16,4.94,4.94,0,0,1,2.69,3.69c.31-2.58-.33-4.44-2.69-5.82a6.32,6.32,0,0,0-4.57-.16A2.42,2.42,0,0,1,11.76,8s-1.19,2-.55,3.45A6.76,6.76,0,0,1,11.47,10.73Z"/></g><path id="_Path_18" data-name="&lt;Path&gt;" class="cls-4" d="M19.1,8.67a6.32,6.32,0,0,0-4.57-.16A2.42,2.42,0,0,1,11.76,8s-1.85,3.19.31,4.34a7.6,7.6,0,0,0,5-.16l-.26,1.73s1.15-.65,1.77.05.3,2.66-1,2.47a2.71,2.71,0,0,0,.94,2.38,5.06,5.06,0,0,0,3.26-4C22.15,12.07,21.57,10.11,19.1,8.67Z"/></svg>