<svg id="Icons" xmlns="http://www.w3.org/2000/svg" viewBox="0 0 48 48"><defs><style>.cls-1,.cls-12{fill:#ffcebf;}.cls-2{fill:#ffb59e;}.cls-3{fill:none;}.cls-12,.cls-3,.cls-4{stroke:#45413c;stroke-linecap:round;stroke-linejoin:round;}.cls-4{fill:#656769;}.cls-5{fill:#c0dceb;}.cls-6{fill:#adc4d9;}.cls-7{fill:#45413c;opacity:0.15;}.cls-8{fill:#bf8df2;}.cls-9{fill:#dabff5;}.cls-10{fill:#a86c4d;}.cls-11{fill:#de926a;}</style></defs><title>265-woman-running-2</title><path id="_Path_" data-name="&lt;Path&gt;" class="cls-1" d="M17.71,22.62l-1.16,1.31a1.66,1.66,0,0,1-2.41.1L13,22.94a1.54,1.54,0,0,0-2.17,0h0a1.54,1.54,0,0,0,0,2.19l1.2,1.13a4.7,4.7,0,0,0,6.77-.3l1.06-1.21Z"/><path class="cls-2" d="M16.55,23.93a1.69,1.69,0,0,1-1.23.57l.61,3.05A4.66,4.66,0,0,0,18.85,26l1.06-1.21-2.2-2.17Z"/><path id="_Path_2" data-name="&lt;Path&gt;" class="cls-3" d="M17.71,22.62l-1.16,1.31a1.66,1.66,0,0,1-2.41.1L13,22.94a1.54,1.54,0,0,0-2.17,0h0a1.54,1.54,0,0,0,0,2.19l1.2,1.13a4.7,4.7,0,0,0,6.77-.3l1.06-1.21Z"/><path id="_Rectangle_" data-name="&lt;Rectangle&gt;" class="cls-4" d="M35.07,37h3.56a0,0,0,0,1,0,0v2a1,1,0,0,1-1,1H32.11a0,0,0,0,1,0,0v0A3,3,0,0,1,35.07,37Z" transform="translate(-9.24 65.83) rotate(-78.92)"/><path id="_Path_3" data-name="&lt;Path&gt;" class="cls-5" d="M22.91,30.38a2.37,2.37,0,0,0-.38,3.32l1.36,1.71a10,10,0,0,0,6,3.61l3.73.7L34.54,35l-3.27-.62A7,7,0,0,1,27,31.79l-.75-1a2.37,2.37,0,0,0-3.35-.42Z"/><path class="cls-6" d="M27,31.79l-.75-1a2.36,2.36,0,1,0-3.73,2.9l1.36,1.71a9.66,9.66,0,0,0,1.77,1.73,25.19,25.19,0,0,1,3.51-3.49A7,7,0,0,1,27,31.79Z"/><path id="_Path_4" data-name="&lt;Path&gt;" class="cls-3" d="M22.91,30.38a2.37,2.37,0,0,0-.38,3.32l1.36,1.71a10,10,0,0,0,6,3.61l3.73.7L34.54,35l-3.27-.62A7,7,0,0,1,27,31.79l-.75-1a2.37,2.37,0,0,0-3.35-.42Z"/><path id="_Rectangle_2" data-name="&lt;Rectangle&gt;" class="cls-4" d="M15.27,41.2h3.56a0,0,0,0,1,0,0v2a1,1,0,0,1-1,1H12.31a0,0,0,0,1,0,0v0A3,3,0,0,1,15.27,41.2Z" transform="translate(17.66 -2.7) rotate(22.68)"/><path id="_Path_5" data-name="&lt;Path&gt;" class="cls-5" d="M23.34,29.75l-2.7,1.95a14,14,0,0,0-4.39,5.58l-1.5,3.45,4.4,1.84,1.36-3.26a9,9,0,0,1,2.87-3.71l2.84-2.05a2.39,2.39,0,0,0,.47-3.34h0A2.39,2.39,0,0,0,23.34,29.75Z"/><path class="cls-6" d="M26.52,33.29a2.39,2.39,0,0,0-3.18-3.54l-2.7,1.95a14,14,0,0,0-2.14,2A48.81,48.81,0,0,0,26.52,33.29Z"/><path id="_Path_6" data-name="&lt;Path&gt;" class="cls-3" d="M23.34,29.75l-2.7,1.95a14,14,0,0,0-4.39,5.58l-1.5,3.45,4.4,1.84,1.36-3.26a9,9,0,0,1,2.87-3.71l2.84-2.05a2.39,2.39,0,0,0,.47-3.34h0A2.39,2.39,0,0,0,23.34,29.75Z"/><ellipse id="_Ellipse_" data-name="&lt;Ellipse&gt;" class="cls-7" cx="22.65" cy="46.31" rx="11.5" ry="1.5"/><g id="_Group_" data-name="&lt;Group&gt;"><g id="_Group_2" data-name="&lt;Group&gt;"><path id="_Path_7" data-name="&lt;Path&gt;" class="cls-8" d="M21.81,20a2.16,2.16,0,0,0-2.72-.52,2.9,2.9,0,0,0-.29.19,5.45,5.45,0,0,0-2,4.23c-.07,2.41,1.88,2.15,1.88,2.15a15,15,0,0,0,1.78,4.32,1,1,0,0,0,1.34.43l4.81-2.45a1,1,0,0,0,.35-1.49Z"/><g id="_Group_3" data-name="&lt;Group&gt;"><path id="_Path_8" data-name="&lt;Path&gt;" class="cls-9" d="M17.77,25.88a5.43,5.43,0,0,1,2-4.23,1.81,1.81,0,0,1,.29-.19A2.16,2.16,0,0,1,22.8,22l4.3,5.76a1,1,0,0,0-.16-.83L21.81,20a2.16,2.16,0,0,0-2.72-.52,2.9,2.9,0,0,0-.29.19,5.45,5.45,0,0,0-2,4.23c0,1.28.49,1.8,1,2Z"/></g><path id="_Path_9" data-name="&lt;Path&gt;" class="cls-3" d="M21.81,20a2.16,2.16,0,0,0-2.72-.52,2.9,2.9,0,0,0-.29.19,5.45,5.45,0,0,0-2,4.23c-.07,2.41,1.88,2.15,1.88,2.15a15,15,0,0,0,1.78,4.32,1,1,0,0,0,1.34.43l4.81-2.45a1,1,0,0,0,.35-1.49Z"/></g></g><path id="_Rectangle_3" data-name="&lt;Rectangle&gt;" class="cls-8" d="M22.34,18.46h0a1.89,1.89,0,0,1,1.89,1.89v4a0,0,0,0,1,0,0H20.45a0,0,0,0,1,0,0v-4A1.89,1.89,0,0,1,22.34,18.46Z" transform="translate(-7.85 28.17) rotate(-56.4)"/><path class="cls-9" d="M19.89,19.78a1.88,1.88,0,0,0,.53,2.61l1.81,1.21a1.89,1.89,0,0,1,2.09-3.15l-1.81-1.2A1.89,1.89,0,0,0,19.89,19.78Z"/><path id="_Rectangle_4" data-name="&lt;Rectangle&gt;" class="cls-3" d="M22.34,18.46h0a1.89,1.89,0,0,1,1.89,1.89v4a0,0,0,0,1,0,0H20.45a0,0,0,0,1,0,0v-4A1.89,1.89,0,0,1,22.34,18.46Z" transform="translate(-7.85 28.17) rotate(-56.4)"/><path class="cls-1" d="M26.14,22.14l-.51-.37L23.88,24.4l.89.65a2,2,0,0,1,.8,1.88l-.28,2.15a1.53,1.53,0,0,0,3,.43l.25-1.61A6,6,0,0,0,26.14,22.14Z"/><path class="cls-2" d="M26.14,22.14l-.51-.37L23.88,24.4l.89.65a2,2,0,0,1,.57.65l1.27-3.18A5.58,5.58,0,0,0,26.14,22.14Z"/><path class="cls-3" d="M26.14,22.14l-.51-.37L23.88,24.4l.89.65a2,2,0,0,1,.8,1.88l-.28,2.15a1.53,1.53,0,0,0,3,.43l.25-1.61A6,6,0,0,0,26.14,22.14Z"/><path id="_Path_10" data-name="&lt;Path&gt;" class="cls-10" d="M20.71,11.78S22.18,9.71,24,10.32c2.15.71,3.12,5,4.35,6.19A4.07,4.07,0,0,0,31,17.78a3.67,3.67,0,0,1-2.88,1.15c-2.49-.05-4.3-3.58-5.1-4.8s-1.66-.74-1.66-.74Z"/><g id="_Group_4" data-name="&lt;Group&gt;"><path id="_Path_11" data-name="&lt;Path&gt;" class="cls-11" d="M25,12.11a3.48,3.48,0,0,1,1.6,1.36C26,12.08,25.14,10.7,24,10.32c-1.82-.61-3.29,1.46-3.29,1.46l.61,1.61a1,1,0,0,1,.63-.06C22.42,12.79,23.62,11.64,25,12.11Z"/></g><path id="_Path_12" data-name="&lt;Path&gt;" class="cls-3" d="M20.71,11.78S22.18,9.71,24,10.32c2.15.71,3.12,5,4.35,6.19A4.07,4.07,0,0,0,31,17.78a3.67,3.67,0,0,1-2.88,1.15c-2.49-.05-4.3-3.58-5.1-4.8s-1.66-.74-1.66-.74Z"/><circle id="_Path_13" data-name="&lt;Path&gt;" class="cls-12" cx="16.33" cy="12.99" r="5.02"/><path id="_Path_14" data-name="&lt;Path&gt;" class="cls-10" d="M11.13,9.67c-.62,1.65,1.53,1.59,2.37,1.18a4.12,4.12,0,0,0,2.85,2,1.28,1.28,0,0,1,1.76.06,1.45,1.45,0,0,1-.27,2.3,2.43,2.43,0,0,1-.74.16A2.17,2.17,0,0,0,18,17.71a5,5,0,0,0,4.1-4.36,6,6,0,0,0-3-6.19C16.91,6,12.38,6.33,11.13,9.67Z"/><g id="_Group_5" data-name="&lt;Group&gt;"><path id="_Path_15" data-name="&lt;Path&gt;" class="cls-11" d="M11.56,11c1.63-2.54,5.55-2.76,7.59-1.67a5.93,5.93,0,0,1,3,4.18l0-.12a6,6,0,0,0-3-6.19c-2.24-1.2-6.78-.83-8,2.51C10.86,10.39,11.11,10.78,11.56,11Z"/></g><path id="_Path_16" data-name="&lt;Path&gt;" class="cls-3" d="M11.13,9.67c-.62,1.65,1.53,1.59,2.37,1.18a4.12,4.12,0,0,0,2.85,2,1.28,1.28,0,0,1,1.76.06,1.45,1.45,0,0,1-.27,2.3,2.43,2.43,0,0,1-.74.16A2.17,2.17,0,0,0,18,17.71a5,5,0,0,0,4.1-4.36,6,6,0,0,0-3-6.19C16.91,6,12.38,6.33,11.13,9.67Z"/></svg>