<svg id="Icons" xmlns="http://www.w3.org/2000/svg" viewBox="0 0 48 48"><defs><style>.cls-1{fill:#ffcebf;}.cls-1,.cls-2,.cls-3,.cls-5,.cls-6{stroke:#45413c;stroke-linecap:round;stroke-linejoin:round;}.cls-2{fill:#00b8f0;}.cls-3{fill:#fff;}.cls-4{fill:#45413c;opacity:0.15;}.cls-5{fill:#656769;}.cls-6{fill:none;}.cls-7{fill:#ffc44d;}.cls-8{fill:#ffdb94;}</style></defs><title>269-man-dancing-2</title><path id="_Path_" data-name="&lt;Path&gt;" class="cls-1" d="M36.61,14.25h0a2,2,0,0,0-2.71.85h0A7.35,7.35,0,0,1,28.83,19h0a15.11,15.11,0,0,1-3,.3h-6.5a9.65,9.65,0,0,0-7.45,3.51L10.79,24.1a2,2,0,0,0,.27,2.8h0a2,2,0,0,0,2.81-.27L15,25.32a5.67,5.67,0,0,1,4.38-2.07h0v7.33h8.9V23.16l1.35-.28a11.42,11.42,0,0,0,7.86-6h0A2,2,0,0,0,36.61,14.25Z"/><path id="_Path_2" data-name="&lt;Path&gt;" class="cls-2" d="M33,16.46A7.35,7.35,0,0,1,28.83,19a15.11,15.11,0,0,1-3,.3h-6.5a9.69,9.69,0,0,0-7.2,3.22L15,25.23a5.7,5.7,0,0,1,4.31-2v7.33h8.9V23.16l1.35-.28a11.47,11.47,0,0,0,6.53-3.94Z"/><path id="_Path_3" data-name="&lt;Path&gt;" class="cls-3" d="M28.27,19.07a15.25,15.25,0,0,1-2.44.2H19.67l-.52,1.87,2.94,1.33-1,2.75L24,28.1l2.93-2.88L26,22.47l2.85-1.33Z"/><ellipse id="_Ellipse_" data-name="&lt;Ellipse&gt;" class="cls-4" cx="24.2" cy="46.04" rx="11.5" ry="1.5"/><circle id="_Path_4" data-name="&lt;Path&gt;" class="cls-1" cx="24.2" cy="11.9" r="5.24"/><path class="cls-2" d="M32.37,41.94a3.18,3.18,0,0,1,.82.11,16.84,16.84,0,0,0-5-11.47h-8.9a11.26,11.26,0,0,1-4,8.63L17.61,42a3.29,3.29,0,0,1,.44.74,16,16,0,0,0,5.73-9c3.36,0,5,4.47,5,8.21Z"/><path id="_Rectangle_" data-name="&lt;Rectangle&gt;" class="cls-5" d="M28.78,41.94h3.58A3.06,3.06,0,0,1,35.43,45v0a0,0,0,0,1,0,0H29.78a1,1,0,0,1-1-1V41.94A0,0,0,0,1,28.78,41.94Z"/><path id="_Rectangle_2" data-name="&lt;Rectangle&gt;" class="cls-5" d="M12.93,41.22h3.58a3.06,3.06,0,0,1,3.06,3.06v0a0,0,0,0,1,0,0H13.93a1,1,0,0,1-1-1V41.22A0,0,0,0,1,12.93,41.22Z" transform="translate(39.03 3.09) rotate(50.68)"/><path class="cls-1" d="M24,28.1l2.34-8.84H21.75Z"/><line id="_Path_5" data-name="&lt;Path&gt;" class="cls-6" x1="24" y1="28.1" x2="24" y2="30.58"/><path id="_Path_6" data-name="&lt;Path&gt;" class="cls-7" d="M20.92,16l.14-.07a3.64,3.64,0,0,0,2-2.55h0a2.07,2.07,0,0,1-1.62-.77c-.48-.77-.13-2.39.84-2.57s1.53,1.06,1.53,1.06S25.68,9.8,29.43,10c2.82.19,2.87-4.16,1.32-5.63-.58.88-1.91,1.4-5.52.86-3.93-.58-6,1.18-6.93,3.57C17.16,11.94,18.58,15.21,20.92,16Z"/><g id="_Group_" data-name="&lt;Group&gt;"><path id="_Path_7" data-name="&lt;Path&gt;" class="cls-8" d="M18.3,11.17c.89-2.39,3-4.15,6.93-3.57,2.38.36,3.77.26,4.6-.11a1.32,1.32,0,0,1,1.1,0,1.34,1.34,0,0,1,.69.85,4.31,4.31,0,0,0-.87-4c-.58.88-1.91,1.4-5.52.86-3.93-.58-6,1.18-6.93,3.57A6.44,6.44,0,0,0,18,12.26,7.66,7.66,0,0,1,18.3,11.17Z"/></g><path id="_Path_8" data-name="&lt;Path&gt;" class="cls-6" d="M20.92,16l.14-.07a3.64,3.64,0,0,0,2-2.55h0a2.07,2.07,0,0,1-1.62-.77c-.48-.77-.13-2.39.84-2.57s1.53,1.06,1.53,1.06S25.68,9.8,29.43,10c2.82.19,2.87-4.16,1.32-5.63-.58.88-1.91,1.4-5.52.86-3.93-.58-6,1.18-6.93,3.57C17.16,11.94,18.58,15.21,20.92,16Z"/></svg>