<svg id="Icons" xmlns="http://www.w3.org/2000/svg" viewBox="0 0 48 48"><defs><style>.cls-1,.cls-10{fill:#45413c;}.cls-1{opacity:0.15;}.cls-2,.cls-5{fill:#656769;}.cls-3{fill:#525252;}.cls-4{fill:none;}.cls-4,.cls-5,.cls-8{stroke:#45413c;stroke-linecap:round;stroke-linejoin:round;}.cls-6{fill:#bf8256;}.cls-7{fill:#dea47a;}.cls-8{fill:#ffcebf;}.cls-9{fill:#87898c;}</style></defs><title>273-women-with-bunny-ears-2</title><ellipse id="_Ellipse_" data-name="&lt;Ellipse&gt;" class="cls-1" cx="24.38" cy="44.98" rx="18" ry="1.5"/><ellipse id="_Path_" data-name="&lt;Path&gt;" class="cls-2" cx="10.97" cy="10.06" rx="1.46" ry="4.38" transform="translate(-1.53 1.97) rotate(-9.61)"/><ellipse id="_Path_2" data-name="&lt;Path&gt;" class="cls-2" cx="17.03" cy="10.06" rx="4.38" ry="1.46" transform="translate(4.27 25.17) rotate(-80.39)"/><path id="_Path_3" data-name="&lt;Path&gt;" class="cls-3" d="M10.24,7.91C11,7.78,12,9.6,12.41,12c.05.28.08.55.11.82a10.27,10.27,0,0,0-.11-3C12,7.43,11,5.61,10.24,5.75s-1,1.72-.82,3.74C9.54,8.59,9.82,8,10.24,7.91Z"/><path id="_Path_4" data-name="&lt;Path&gt;" class="cls-3" d="M15.59,12C16,9.6,17,7.78,17.76,7.91c.42.07.7.68.82,1.58.21-2-.12-3.63-.82-3.74S16,7.43,15.59,9.82a10.63,10.63,0,0,0-.11,3C15.51,12.53,15.55,12.26,15.59,12Z"/><ellipse id="_Path_5" data-name="&lt;Path&gt;" class="cls-4" cx="10.97" cy="10.06" rx="1.46" ry="4.38" transform="translate(-1.53 1.97) rotate(-9.61)"/><ellipse id="_Path_6" data-name="&lt;Path&gt;" class="cls-4" cx="17.03" cy="10.06" rx="4.38" ry="1.46" transform="translate(4.27 25.17) rotate(-80.39)"/><ellipse id="_Path_7" data-name="&lt;Path&gt;" class="cls-5" cx="20.84" cy="40.99" rx="1.89" ry="3.01" transform="translate(-20.39 20.62) rotate(-36.75)"/><path id="_Path_8" data-name="&lt;Path&gt;" class="cls-6" d="M19.1,24.73H8.9V16.49a5.1,5.1,0,0,1,10.2,0Z"/><path id="_Path_9" data-name="&lt;Path&gt;" class="cls-7" d="M14,11.39a5.1,5.1,0,0,0-5.1,5.1v1.88a5.1,5.1,0,0,1,10.2,0V16.49A5.1,5.1,0,0,0,14,11.39Z"/><path id="_Path_10" data-name="&lt;Path&gt;" class="cls-4" d="M19.1,24.73H8.9V16.49a5.1,5.1,0,0,1,10.2,0Z"/><path id="_Path_11" data-name="&lt;Path&gt;" class="cls-8" d="M16.14,12.41a10.49,10.49,0,0,1-6.87,4.2,4.73,4.73,0,0,0,9.46,0,4.69,4.69,0,0,0-.06-.54,2.62,2.62,0,0,1-2.18-2Z"/><path id="_Path_12" data-name="&lt;Path&gt;" class="cls-8" d="M9.15,23.18,6.33,26.07a4,4,0,0,0-.67,4.66l.42.79a1.45,1.45,0,1,0,2.56-1.37L8.55,30a2,2,0,0,1,.33-2.34l2.36-2.42Z"/><path id="_Path_13" data-name="&lt;Path&gt;" class="cls-8" d="M18.85,23.18l2.82,2.89a4,4,0,0,1,.67,4.66l-.41.79a1.46,1.46,0,1,1-2.57-1.37l.09-.17a2,2,0,0,0-.33-2.34l-2.35-2.42Z"/><rect id="_Rectangle_" data-name="&lt;Rectangle&gt;" class="cls-8" x="10.42" y="31.73" width="3.55" height="13.25"/><path id="_Path_14" data-name="&lt;Path&gt;" class="cls-5" d="M13.86,45H10.52a.5.5,0,0,1-.49-.6l.05-.21a2.14,2.14,0,0,1,2.11-1.75h0a2.16,2.16,0,0,1,2.12,1.75l0,.21A.5.5,0,0,1,13.86,45Z"/><path id="_Path_15" data-name="&lt;Path&gt;" class="cls-8" d="M13.13,32.57a35.32,35.32,0,0,0,3.69,6.21,29.92,29.92,0,0,0,2.07,2.54,1.75,1.75,0,0,0,2.55-2.4,32.06,32.06,0,0,1-2.07-2.47,21.74,21.74,0,0,1-3.21-6.29Z"/><path id="_Path_16" data-name="&lt;Path&gt;" class="cls-2" d="M9.15,23.18a11.74,11.74,0,0,1,1.27,5.13v3.76a1,1,0,0,0,.36.77L13.37,35a1,1,0,0,0,1.26,0l2.59-2.12a1,1,0,0,0,.36-.77V28.31a11.78,11.78,0,0,1,1.27-5.13Z"/><path id="_Path_17" data-name="&lt;Path&gt;" class="cls-9" d="M9.89,25h8.22a19.52,19.52,0,0,1,.74-1.83H9.15A19.52,19.52,0,0,1,9.89,25Z"/><path id="_Path_18" data-name="&lt;Path&gt;" class="cls-4" d="M9.15,23.18a11.74,11.74,0,0,1,1.27,5.13v3.76a1,1,0,0,0,.36.77L13.37,35a1,1,0,0,0,1.26,0l2.59-2.12a1,1,0,0,0,.36-.77V28.31a11.78,11.78,0,0,1,1.27-5.13Z"/><path id="_Path_19" data-name="&lt;Path&gt;" class="cls-8" d="M14,25.68a2.49,2.49,0,0,0,2.5-2.5h-5A2.49,2.49,0,0,0,14,25.68Z"/><circle id="_Path_20" data-name="&lt;Path&gt;" class="cls-10" cx="12.16" cy="17.34" r="0.66"/><circle id="_Path_21" data-name="&lt;Path&gt;" class="cls-10" cx="15.84" cy="17.34" r="0.66"/><ellipse id="_Path_22" data-name="&lt;Path&gt;" class="cls-2" cx="30.58" cy="10.08" rx="1.46" ry="4.38" transform="translate(-1.25 5.25) rotate(-9.61)"/><ellipse id="_Path_23" data-name="&lt;Path&gt;" class="cls-2" cx="36.64" cy="10.08" rx="4.38" ry="1.46" transform="translate(20.58 44.52) rotate(-80.39)"/><path id="_Path_24" data-name="&lt;Path&gt;" class="cls-3" d="M29.85,7.94C30.64,7.8,31.61,9.62,32,12c0,.27.08.54.11.81a10.64,10.64,0,0,0-.11-3c-.41-2.38-1.38-4.2-2.17-4.07s-1,1.73-.82,3.74C29.15,8.61,29.43,8,29.85,7.94Z"/><path id="_Path_25" data-name="&lt;Path&gt;" class="cls-3" d="M35.2,12c.4-2.39,1.37-4.21,2.17-4.07.41.07.69.67.81,1.57.21-2-.11-3.62-.81-3.74S35.6,7.46,35.2,9.84a10.28,10.28,0,0,0-.11,3C35.12,12.55,35.15,12.28,35.2,12Z"/><ellipse id="_Path_26" data-name="&lt;Path&gt;" class="cls-4" cx="30.58" cy="10.08" rx="1.46" ry="4.38" transform="translate(-1.25 5.25) rotate(-9.61)"/><ellipse id="_Path_27" data-name="&lt;Path&gt;" class="cls-4" cx="36.64" cy="10.08" rx="4.38" ry="1.46" transform="translate(20.58 44.52) rotate(-80.39)"/><ellipse id="_Path_28" data-name="&lt;Path&gt;" class="cls-5" cx="40.45" cy="41.02" rx="1.89" ry="3.01" transform="translate(-16.5 32.36) rotate(-36.75)"/><path id="_Path_29" data-name="&lt;Path&gt;" class="cls-6" d="M38.71,24.76H28.51V16.51a5.1,5.1,0,0,1,10.2,0Z"/><path id="_Path_30" data-name="&lt;Path&gt;" class="cls-7" d="M33.61,11.42a5.09,5.09,0,0,0-5.1,5.09v1.88a5.1,5.1,0,0,1,10.2,0V16.51A5.1,5.1,0,0,0,33.61,11.42Z"/><path id="_Path_31" data-name="&lt;Path&gt;" class="cls-4" d="M38.71,24.76H28.51V16.51a5.1,5.1,0,0,1,10.2,0Z"/><path id="_Path_32" data-name="&lt;Path&gt;" class="cls-8" d="M35.74,12.43a10.4,10.4,0,0,1-6.86,4.2,4.73,4.73,0,1,0,9.45,0,4.53,4.53,0,0,0,0-.53,2.62,2.62,0,0,1-2.18-2Z"/><path id="_Path_33" data-name="&lt;Path&gt;" class="cls-8" d="M28.75,23.21,25.94,26.1a4,4,0,0,0-.67,4.66l.41.78a1.45,1.45,0,1,0,2.56-1.37L28.16,30a2,2,0,0,1,.32-2.35l2.36-2.42Z"/><path id="_Path_34" data-name="&lt;Path&gt;" class="cls-8" d="M38.46,23.21l2.81,2.89A4,4,0,0,1,42,30.76l-.42.78A1.45,1.45,0,1,1,39,30.17l.09-.16a2,2,0,0,0-.33-2.35l-2.36-2.42Z"/><rect id="_Rectangle_2" data-name="&lt;Rectangle&gt;" class="cls-8" x="30.02" y="31.75" width="3.55" height="13.25"/><path id="_Path_35" data-name="&lt;Path&gt;" class="cls-5" d="M33.47,45H30.13a.5.5,0,0,1-.49-.6l0-.21a2.16,2.16,0,0,1,2.12-1.74h0a2.14,2.14,0,0,1,2.11,1.74l.05.21A.5.5,0,0,1,33.47,45Z"/><path id="_Path_36" data-name="&lt;Path&gt;" class="cls-8" d="M32.73,32.59a34.64,34.64,0,0,0,3.7,6.21,25.47,25.47,0,0,0,2.07,2.54A1.75,1.75,0,0,0,41.05,39c-.52-.56-1.21-1.36-2.08-2.48a22,22,0,0,1-3.21-6.28Z"/><path id="_Path_37" data-name="&lt;Path&gt;" class="cls-2" d="M28.75,23.21A11.51,11.51,0,0,1,30,28.33v3.76a1,1,0,0,0,.37.77L33,35a1,1,0,0,0,1.27,0l2.58-2.12a1,1,0,0,0,.37-.77V28.33a11.55,11.55,0,0,1,1.27-5.12Z"/><path id="_Path_38" data-name="&lt;Path&gt;" class="cls-9" d="M29.49,25h8.23a19.52,19.52,0,0,1,.74-1.83H28.75A19.52,19.52,0,0,1,29.49,25Z"/><path id="_Path_39" data-name="&lt;Path&gt;" class="cls-4" d="M28.75,23.21A11.51,11.51,0,0,1,30,28.33v3.76a1,1,0,0,0,.37.77L33,35a1,1,0,0,0,1.27,0l2.58-2.12a1,1,0,0,0,.37-.77V28.33a11.55,11.55,0,0,1,1.27-5.12Z"/><path id="_Path_40" data-name="&lt;Path&gt;" class="cls-8" d="M33.61,25.71a2.5,2.5,0,0,0,2.5-2.5h-5A2.5,2.5,0,0,0,33.61,25.71Z"/><circle id="_Path_41" data-name="&lt;Path&gt;" class="cls-10" cx="31.76" cy="17.36" r="0.66"/><circle id="_Path_42" data-name="&lt;Path&gt;" class="cls-10" cx="35.45" cy="17.36" r="0.66"/></svg>