<svg id="Icons" xmlns="http://www.w3.org/2000/svg" viewBox="0 0 48 48"><defs><style>.cls-1,.cls-9{fill:#45413c;}.cls-1{opacity:0.15;}.cls-2,.cls-3{fill:#ffcebf;}.cls-12,.cls-15,.cls-2,.cls-5,.cls-6{stroke:#45413c;stroke-linecap:round;stroke-linejoin:round;}.cls-4{fill:#ffb59e;}.cls-5{fill:none;}.cls-6{fill:#656769;}.cls-7{fill:#a86c4d;}.cls-8{fill:#de926a;}.cls-10,.cls-15{fill:#ff6242;}.cls-11{fill:#ff866e;}.cls-12{fill:#e04122;}.cls-13{fill:#ff87af;}.cls-14{fill:#ffb0ca;}</style></defs><title>284-two-women-holding-hands-2</title><ellipse class="cls-1" cx="24" cy="45.5" rx="16.5" ry="1.5"/><path id="_Path_" data-name="&lt;Path&gt;" class="cls-2" d="M10.94,24.68a31.77,31.77,0,0,0-1.12,8.37,1.33,1.33,0,1,0,2.65,0V24.68Z"/><rect id="_Rectangle_" data-name="&lt;Rectangle&gt;" class="cls-3" x="12.95" y="31.75" width="3.09" height="13.25"/><rect id="_Rectangle_2" data-name="&lt;Rectangle&gt;" class="cls-4" x="12.95" y="31.75" width="3.09" height="7.6"/><rect id="_Rectangle_3" data-name="&lt;Rectangle&gt;" class="cls-5" x="12.95" y="31.75" width="3.09" height="13.25"/><rect id="_Rectangle_4" data-name="&lt;Rectangle&gt;" class="cls-3" x="16.04" y="31.75" width="3.09" height="13.25"/><rect id="_Rectangle_5" data-name="&lt;Rectangle&gt;" class="cls-4" x="16.04" y="31.75" width="3.09" height="7.6"/><rect id="_Rectangle_6" data-name="&lt;Rectangle&gt;" class="cls-5" x="16.04" y="31.75" width="3.09" height="13.25"/><path id="_Path_2" data-name="&lt;Path&gt;" class="cls-6" d="M19.7,44.19a2.16,2.16,0,0,0-2.12-1.74A2.11,2.11,0,0,0,16,43.1a2.16,2.16,0,0,0-3.66,1.09c-.12.58.11.81.45.81h6.42C19.59,45,19.81,44.77,19.7,44.19Z"/><path id="_Path_3" data-name="&lt;Path&gt;" class="cls-7" d="M21.17,21.39a1,1,0,0,1-1,1H12a1,1,0,0,1-1-1V14.14a5.1,5.1,0,0,1,10.2,0Z"/><path class="cls-8" d="M16.07,9.05A5.09,5.09,0,0,0,11,14.14V15.9a5.1,5.1,0,0,1,10.2,0V14.14A5.1,5.1,0,0,0,16.07,9.05Z"/><path id="_Path_4" data-name="&lt;Path&gt;" class="cls-5" d="M21.17,21.39a1,1,0,0,1-1,1H12a1,1,0,0,1-1-1V14.14a5.1,5.1,0,0,1,10.2,0Z"/><path id="_Path_5" data-name="&lt;Path&gt;" class="cls-2" d="M18.19,10.8l-.73.85A9.87,9.87,0,0,1,11.34,15a4.73,4.73,0,1,0,9.46,0,4.52,4.52,0,0,0-.06-.53,2.62,2.62,0,0,1-2.18-2Z"/><circle id="_Path_6" data-name="&lt;Path&gt;" class="cls-9" cx="14.23" cy="15.74" r="0.66"/><circle id="_Path_7" data-name="&lt;Path&gt;" class="cls-9" cx="17.91" cy="15.74" r="0.66"/><path id="_Path_8" data-name="&lt;Path&gt;" class="cls-2" d="M21.14,24.68l0,.44a7.29,7.29,0,0,0,3.06,5.51A1.47,1.47,0,1,1,22.5,33a8.83,8.83,0,0,1-3.73-7h0Z"/><path class="cls-10" d="M12.48,31.24V28.53a5.36,5.36,0,0,0-1.54-3.85A5.13,5.13,0,0,1,16,21.43a5.13,5.13,0,0,1,5.1,3.25,5.36,5.36,0,0,0-1.54,3.85v2.71c0,1.74.63,3.11.83,5a1,1,0,0,1-1,1.1H12.65a1,1,0,0,1-1-1.1C11.85,34.35,12.48,33,12.48,31.24Z"/><path class="cls-11" d="M16,23.6a5.25,5.25,0,0,0-4.38,2,4.45,4.45,0,0,0-.72-.9A5.13,5.13,0,0,1,16,21.43a5.13,5.13,0,0,1,5.1,3.25,4.45,4.45,0,0,0-.72.9A5.25,5.25,0,0,0,16,23.6Z"/><path class="cls-5" d="M12.48,31.24V28.53a5.36,5.36,0,0,0-1.54-3.85A5.13,5.13,0,0,1,16,21.43a5.13,5.13,0,0,1,5.1,3.25,5.36,5.36,0,0,0-1.54,3.85v2.71c0,1.74.63,3.11.83,5a1,1,0,0,1-1,1.1H12.65a1,1,0,0,1-1-1.1C11.85,34.35,12.48,33,12.48,31.24Z"/><rect id="_Rectangle_7" data-name="&lt;Rectangle&gt;" class="cls-12" x="12.47" y="29.15" width="7.13" height="2.17"/><line id="_Path_9" data-name="&lt;Path&gt;" class="cls-5" x1="16.04" y1="43.1" x2="16.04" y2="45"/><line id="_Path_10" data-name="&lt;Path&gt;" class="cls-5" x1="17.83" y1="37.38" x2="17.58" y2="35.04"/><line id="_Path_11" data-name="&lt;Path&gt;" class="cls-5" x1="14.24" y1="37.38" x2="14.49" y2="35.04"/><path class="cls-2" d="M16,21.43a6.72,6.72,0,0,1,1.82.24A2.13,2.13,0,0,1,16,23.85a2.12,2.12,0,0,1-1.82-2.18A6.62,6.62,0,0,1,16,21.43Z"/><path id="_Path_12" data-name="&lt;Path&gt;" class="cls-2" d="M37.06,24.68a31.77,31.77,0,0,1,1.12,8.37,1.33,1.33,0,1,1-2.65,0V24.68Z"/><rect id="_Rectangle_8" data-name="&lt;Rectangle&gt;" class="cls-3" x="31.96" y="31.75" width="3.09" height="13.25" transform="translate(67.01 76.75) rotate(-180)"/><rect id="_Rectangle_9" data-name="&lt;Rectangle&gt;" class="cls-4" x="31.96" y="31.75" width="3.09" height="7.6" transform="translate(67.01 71.1) rotate(-180)"/><rect id="_Rectangle_10" data-name="&lt;Rectangle&gt;" class="cls-5" x="31.96" y="31.75" width="3.09" height="13.25" transform="translate(67.01 76.75) rotate(-180)"/><rect id="_Rectangle_11" data-name="&lt;Rectangle&gt;" class="cls-3" x="28.87" y="31.75" width="3.09" height="13.25" transform="translate(60.84 76.75) rotate(-180)"/><rect id="_Rectangle_12" data-name="&lt;Rectangle&gt;" class="cls-4" x="28.87" y="31.75" width="3.09" height="7.6" transform="translate(60.84 71.1) rotate(-180)"/><rect id="_Rectangle_13" data-name="&lt;Rectangle&gt;" class="cls-5" x="28.87" y="31.75" width="3.09" height="13.25" transform="translate(60.84 76.75) rotate(-180)"/><path id="_Path_13" data-name="&lt;Path&gt;" class="cls-6" d="M35.62,44.19A2.16,2.16,0,0,0,32,43.1a2.11,2.11,0,0,0-1.54-.65,2.16,2.16,0,0,0-2.12,1.74c-.11.58.11.81.45.81h6.42C35.51,45,35.74,44.77,35.62,44.19Z"/><path id="_Path_14" data-name="&lt;Path&gt;" class="cls-7" d="M37,21.39a1,1,0,0,1-1,1h-8.2a1,1,0,0,1-1-1V14.14a5.1,5.1,0,0,1,10.2,0Z"/><path class="cls-8" d="M31.93,9.05a5.1,5.1,0,0,0-5.1,5.09V15.9a5.1,5.1,0,0,1,10.2,0V14.14A5.09,5.09,0,0,0,31.93,9.05Z"/><path id="_Path_15" data-name="&lt;Path&gt;" class="cls-5" d="M37,21.39a1,1,0,0,1-1,1h-8.2a1,1,0,0,1-1-1V14.14a5.1,5.1,0,0,1,10.2,0Z"/><path id="_Path_16" data-name="&lt;Path&gt;" class="cls-2" d="M34.05,10.8l-.73.85A9.85,9.85,0,0,1,27.2,15a4.73,4.73,0,1,0,9.46,0,4.52,4.52,0,0,0-.06-.53,2.62,2.62,0,0,1-2.18-2Z"/><circle id="_Path_17" data-name="&lt;Path&gt;" class="cls-9" cx="30.09" cy="15.74" r="0.66"/><circle id="_Path_18" data-name="&lt;Path&gt;" class="cls-9" cx="33.77" cy="15.74" r="0.66"/><path id="_Path_19" data-name="&lt;Path&gt;" class="cls-2" d="M26.86,24.68l0,.44a7.29,7.29,0,0,1-3.06,5.51A1.47,1.47,0,1,0,25.5,33a8.83,8.83,0,0,0,3.73-7h0Z"/><path class="cls-13" d="M35.52,31.24V28.53a5.36,5.36,0,0,1,1.54-3.85A5.13,5.13,0,0,0,32,21.43a5.13,5.13,0,0,0-5.1,3.25,5.36,5.36,0,0,1,1.54,3.85v2.71c0,1.74-.63,3.11-.83,5a1,1,0,0,0,1,1.1h6.78a1,1,0,0,0,1-1.1C36.15,34.35,35.52,33,35.52,31.24Z"/><path class="cls-14" d="M32,23.6a5.25,5.25,0,0,1,4.38,2,4.45,4.45,0,0,1,.72-.9A5.13,5.13,0,0,0,32,21.43a5.13,5.13,0,0,0-5.1,3.25,4.45,4.45,0,0,1,.72.9A5.25,5.25,0,0,1,32,23.6Z"/><path class="cls-5" d="M35.52,31.24V28.53a5.36,5.36,0,0,1,1.54-3.85A5.13,5.13,0,0,0,32,21.43a5.13,5.13,0,0,0-5.1,3.25,5.36,5.36,0,0,1,1.54,3.85v2.71c0,1.74-.63,3.11-.83,5a1,1,0,0,0,1,1.1h6.78a1,1,0,0,0,1-1.1C36.15,34.35,35.52,33,35.52,31.24Z"/><rect id="_Rectangle_14" data-name="&lt;Rectangle&gt;" class="cls-15" x="28.4" y="29.15" width="7.13" height="2.17" transform="translate(63.92 60.47) rotate(-180)"/><line id="_Path_20" data-name="&lt;Path&gt;" class="cls-5" x1="31.96" y1="43.1" x2="31.96" y2="45"/><line id="_Path_21" data-name="&lt;Path&gt;" class="cls-5" x1="30.17" y1="37.38" x2="30.42" y2="35.04"/><line id="_Path_22" data-name="&lt;Path&gt;" class="cls-5" x1="33.76" y1="37.38" x2="33.51" y2="35.04"/><path class="cls-2" d="M32,21.43a6.72,6.72,0,0,0-1.82.24A2.13,2.13,0,0,0,32,23.85a2.12,2.12,0,0,0,1.82-2.18A6.62,6.62,0,0,0,32,21.43Z"/></svg>