<svg id="Icons" xmlns="http://www.w3.org/2000/svg" viewBox="0 0 48 48"><defs><style>.cls-1{fill:#a86c4d;}.cls-2{fill:#de926a;}.cls-3,.cls-6{fill:none;}.cls-3,.cls-4,.cls-6{stroke:#45413c;stroke-linecap:round;}.cls-3,.cls-4{stroke-linejoin:round;}.cls-4{fill:#ffcebf;}.cls-5{fill:#ffb59e;}.cls-6{stroke-miterlimit:10;}.cls-7{fill:#ff6196;}.cls-8{fill:#ff87af;}</style></defs><title>288-kiss-man-man-2</title><path id="_Path_" data-name="&lt;Path&gt;" class="cls-1" d="M36.62,15.5a9.83,9.83,0,0,0-2.44.31c-1.86.42-4.27,1.12-6.46.7a4.15,4.15,0,0,0,.83,3.21,9.81,9.81,0,0,0-1.75,5.6v5.14H46.44V25.32A9.82,9.82,0,0,0,36.62,15.5Z"/><g id="_Group_" data-name="&lt;Group&gt;"><path id="_Path_2" data-name="&lt;Path&gt;" class="cls-2" d="M36.62,15.5a9.83,9.83,0,0,0-2.44.31c-1.86.42-4.27,1.12-6.46.7a4.53,4.53,0,0,0,.45,2.63,17.93,17.93,0,0,0,6-.77,9.81,9.81,0,0,1,12.26,9.51V25.32A9.82,9.82,0,0,0,36.62,15.5Z"/></g><path id="_Path_3" data-name="&lt;Path&gt;" class="cls-3" d="M36.62,15.5a9.83,9.83,0,0,0-2.44.31c-1.86.42-4.27,1.12-6.46.7a4.15,4.15,0,0,0,.83,3.21,9.81,9.81,0,0,0-1.75,5.6v5.14H46.44V25.32A9.82,9.82,0,0,0,36.62,15.5Z"/><path id="_Path_4" data-name="&lt;Path&gt;" class="cls-4" d="M47.49,29.71a1.84,1.84,0,0,0-1.39-1.54L45.51,28A2.06,2.06,0,0,1,44,26V24a1.87,1.87,0,0,0-1.4-1.81,15.34,15.34,0,0,1-6,1.09,15.52,15.52,0,0,1-6-1.08,1.85,1.85,0,0,0-1.4,1.8v2.49a1.6,1.6,0,0,1-1.59,1.6,1.88,1.88,0,0,0-1.88,1.51,1.81,1.81,0,0,0,1.79,2.11h.11a9.05,9.05,0,0,0,17.91,0h.11A1.81,1.81,0,0,0,47.49,29.71Z"/><ellipse id="_Ellipse_" data-name="&lt;Ellipse&gt;" class="cls-5" cx="30.43" cy="32.79" rx="1" ry="0.6"/><ellipse id="_Ellipse_2" data-name="&lt;Ellipse&gt;" class="cls-5" cx="42.56" cy="32.79" rx="1" ry="0.6"/><g id="_Group_2" data-name="&lt;Group&gt;"><path id="_Path_5" data-name="&lt;Path&gt;" class="cls-6" d="M35.37,33.17a1.13,1.13,0,0,0-.55-.15,1.11,1.11,0,0,0,0,2.22"/><path id="_Path_6" data-name="&lt;Path&gt;" class="cls-6" d="M34.82,35.24a1.11,1.11,0,1,0,0,2.21,1,1,0,0,0,.55-.15"/></g><path id="_Path_7" data-name="&lt;Path&gt;" class="cls-3" d="M41.25,29.15a1,1,0,1,1-1.93,0"/><path id="_Path_8" data-name="&lt;Path&gt;" class="cls-3" d="M32.43,29.15a1,1,0,1,1-1.94,0"/><path id="_Path_9" data-name="&lt;Path&gt;" class="cls-1" d="M11.38,15.5a9.83,9.83,0,0,1,2.44.31c1.86.42,4.27,1.12,6.46.7a4.15,4.15,0,0,1-.83,3.21,9.81,9.81,0,0,1,1.75,5.6v5.14H1.56V25.32A9.82,9.82,0,0,1,11.38,15.5Z"/><g id="_Group_3" data-name="&lt;Group&gt;"><path id="_Path_10" data-name="&lt;Path&gt;" class="cls-2" d="M11.38,15.5a9.83,9.83,0,0,1,2.44.31c1.86.42,4.27,1.12,6.46.7a4.53,4.53,0,0,1-.45,2.63,17.93,17.93,0,0,1-6-.77A9.81,9.81,0,0,0,1.56,27.88V25.32A9.82,9.82,0,0,1,11.38,15.5Z"/></g><path id="_Path_11" data-name="&lt;Path&gt;" class="cls-3" d="M11.38,15.5a9.83,9.83,0,0,1,2.44.31c1.86.42,4.27,1.12,6.46.7a4.15,4.15,0,0,1-.83,3.21,9.81,9.81,0,0,1,1.75,5.6v5.14H1.56V25.32A9.82,9.82,0,0,1,11.38,15.5Z"/><path id="_Path_12" data-name="&lt;Path&gt;" class="cls-4" d="M.51,29.71A1.84,1.84,0,0,1,1.9,28.17L2.49,28A2.06,2.06,0,0,0,4,26V24a1.87,1.87,0,0,1,1.4-1.81,15.34,15.34,0,0,0,6,1.09,15.52,15.52,0,0,0,6-1.08,1.85,1.85,0,0,1,1.4,1.8v2.49a1.6,1.6,0,0,0,1.59,1.6,1.88,1.88,0,0,1,1.88,1.51,1.81,1.81,0,0,1-1.79,2.11h-.11a9.05,9.05,0,0,1-17.91,0H2.31A1.81,1.81,0,0,1,.51,29.71Z"/><ellipse id="_Ellipse_3" data-name="&lt;Ellipse&gt;" class="cls-5" cx="17.57" cy="32.79" rx="1" ry="0.6"/><ellipse id="_Ellipse_4" data-name="&lt;Ellipse&gt;" class="cls-5" cx="5.44" cy="32.79" rx="1" ry="0.6"/><g id="_Group_4" data-name="&lt;Group&gt;"><path id="_Path_13" data-name="&lt;Path&gt;" class="cls-6" d="M12.63,33.17a1.13,1.13,0,0,1,.55-.15,1.11,1.11,0,0,1,0,2.22"/><path id="_Path_14" data-name="&lt;Path&gt;" class="cls-6" d="M13.18,35.24a1.11,1.11,0,1,1,0,2.21,1,1,0,0,1-.55-.15"/></g><path id="_Path_15" data-name="&lt;Path&gt;" class="cls-3" d="M6.75,29.15a1,1,0,1,0,1.93,0"/><path id="_Path_16" data-name="&lt;Path&gt;" class="cls-3" d="M15.57,29.15a1,1,0,1,0,1.94,0"/><g id="_Group_5" data-name="&lt;Group&gt;"><path class="cls-7" d="M33.16,5.07a5.17,5.17,0,0,0-7.1.78L24,8.14,21.94,5.85a5.17,5.17,0,0,0-7.1-.78,6.53,6.53,0,0,0-2.51,5.29,8.41,8.41,0,0,0,2.6,6.17L24,24.89l9.07-8.36a8.41,8.41,0,0,0,2.6-6.17A6.53,6.53,0,0,0,33.16,5.07Z"/><path class="cls-8" d="M14.84,11a5.17,5.17,0,0,1,7.1.77l1.2,1.34a1.16,1.16,0,0,0,1.72,0l1.2-1.34a5.17,5.17,0,0,1,7.1-.77,6,6,0,0,1,2,2.5,8.92,8.92,0,0,0,.56-3.1,6.53,6.53,0,0,0-2.51-5.29,5.17,5.17,0,0,0-7.1.78L24,8.14,21.94,5.85a5.17,5.17,0,0,0-7.1-.78,6.53,6.53,0,0,0-2.51,5.29,8.92,8.92,0,0,0,.56,3.1A6,6,0,0,1,14.84,11Z"/><path class="cls-3" d="M33.16,5.07a5.17,5.17,0,0,0-7.1.78L24,8.14,21.94,5.85a5.17,5.17,0,0,0-7.1-.78,6.53,6.53,0,0,0-2.51,5.29,8.41,8.41,0,0,0,2.6,6.17L24,24.89l9.07-8.36a8.41,8.41,0,0,0,2.6-6.17A6.53,6.53,0,0,0,33.16,5.07Z"/></g></svg>