<svg id="Icons" xmlns="http://www.w3.org/2000/svg" viewBox="0 0 48 48"><defs><style>.cls-1{fill:#a86c4d;}.cls-2{fill:#de926a;}.cls-3{fill:none;}.cls-3,.cls-8,.cls-9{stroke:#45413c;stroke-linecap:round;stroke-linejoin:round;}.cls-4{fill:#ff87af;}.cls-5{fill:#ff6196;}.cls-6,.cls-8{fill:#ffcebf;}.cls-7{fill:#ffb59e;}.cls-9{fill:#45413c;}.cls-10{fill:#ff6242;}.cls-11{fill:#ffa694;}</style></defs><title>296-couple-with-heart-woman-woman-2</title><path id="_Path_" data-name="&lt;Path&gt;" class="cls-1" d="M6,5.82H6a10.7,10.7,0,0,0-2.54.3V33.86A27.06,27.06,0,0,0,16.15,32a1.23,1.23,0,0,0,.77-1.14V16.69A10.88,10.88,0,0,0,6,5.82Z"/><path id="_Path_2" data-name="&lt;Path&gt;" class="cls-2" d="M6,5.82H6a10.7,10.7,0,0,0-2.54.3v3.2A10.7,10.7,0,0,1,6,9H6A10.88,10.88,0,0,1,16.92,19.89v-3.2A10.88,10.88,0,0,0,6,5.82Z"/><path id="_Path_3" data-name="&lt;Path&gt;" class="cls-3" d="M6,5.82H6a10.7,10.7,0,0,0-2.54.3V33.86A27.06,27.06,0,0,0,16.15,32a1.23,1.23,0,0,0,.77-1.14V16.69A10.88,10.88,0,0,0,6,5.82Z"/><path id="_Path_4" data-name="&lt;Path&gt;" class="cls-4" d="M6,30.72A11.84,11.84,0,0,0,3.5,31V44.5H17.92V42.6A11.88,11.88,0,0,0,6,30.72Z"/><path id="_Path_5" data-name="&lt;Path&gt;" class="cls-5" d="M6,30.72A11.84,11.84,0,0,0,3.5,31v3.26A11.86,11.86,0,0,1,17.85,44.5h.07V42.6A11.88,11.88,0,0,0,6,30.72Z"/><path id="_Path_6" data-name="&lt;Path&gt;" class="cls-3" d="M6,30.72A11.84,11.84,0,0,0,3.5,31V44.5H17.92V42.6A11.88,11.88,0,0,0,6,30.72Z"/><rect id="_Rectangle_" data-name="&lt;Rectangle&gt;" class="cls-6" x="3.5" y="26.67" width="5.09" height="7.94" rx="2.54" ry="2.54"/><path id="_Path_7" data-name="&lt;Path&gt;" class="cls-7" d="M6,26.67A2.54,2.54,0,0,0,3.5,29.21v.6a2.55,2.55,0,0,0,5.09,0v-.59A2.55,2.55,0,0,0,6,26.67Z"/><rect id="_Rectangle_2" data-name="&lt;Rectangle&gt;" class="cls-3" x="3.5" y="26.67" width="5.09" height="7.94" rx="2.54" ry="2.54"/><path id="_Path_8" data-name="&lt;Path&gt;" class="cls-8" d="M15.11,19a8.73,8.73,0,0,1-5.67-5l-.63-1.49A15.84,15.84,0,0,1,3.5,17V29.93A8.92,8.92,0,0,0,6,30.3a9.06,9.06,0,0,0,9-7.72h.11a1.81,1.81,0,1,0,0-3.62Z"/><path id="_Path_9" data-name="&lt;Path&gt;" class="cls-9" d="M11.48,20.41a.77.77,0,1,1-.77-.77A.77.77,0,0,1,11.48,20.41Z"/><line id="_Path_10" data-name="&lt;Path&gt;" class="cls-3" x1="12.98" y1="44.5" x2="12.98" y2="42.09"/><ellipse id="_Ellipse_" data-name="&lt;Ellipse&gt;" class="cls-7" cx="11.98" cy="23.69" rx="1" ry="0.6"/><path id="_Path_11" data-name="&lt;Path&gt;" class="cls-10" d="M9.22,25.26a.46.46,0,0,0-.34-.16H3.5v2.11a3.33,3.33,0,0,0,5.82-1.6A.45.45,0,0,0,9.22,25.26Z"/><path id="_Path_12" data-name="&lt;Path&gt;" class="cls-11" d="M6,26.54a3.31,3.31,0,0,0-2.3.92,3.35,3.35,0,0,0,4.61,0A3.32,3.32,0,0,0,6,26.54Z"/><path id="_Path_13" data-name="&lt;Path&gt;" class="cls-3" d="M9.22,25.26a.46.46,0,0,0-.34-.16H3.5v2.11a3.33,3.33,0,0,0,5.82-1.6A.45.45,0,0,0,9.22,25.26Z"/><path id="_Path_14" data-name="&lt;Path&gt;" class="cls-1" d="M42,5.82h0a10.7,10.7,0,0,1,2.54.3V33.86A27.06,27.06,0,0,1,31.85,32a1.23,1.23,0,0,1-.77-1.14V16.69A10.88,10.88,0,0,1,42,5.82Z"/><path id="_Path_15" data-name="&lt;Path&gt;" class="cls-2" d="M42,5.82h0a10.7,10.7,0,0,1,2.54.3v3.2A10.7,10.7,0,0,0,42,9h0A10.88,10.88,0,0,0,31.08,19.89v-3.2A10.88,10.88,0,0,1,42,5.82Z"/><path id="_Path_16" data-name="&lt;Path&gt;" class="cls-3" d="M42,5.82h0a10.7,10.7,0,0,1,2.54.3V33.86A27.06,27.06,0,0,1,31.85,32a1.23,1.23,0,0,1-.77-1.14V16.69A10.88,10.88,0,0,1,42,5.82Z"/><path id="_Path_17" data-name="&lt;Path&gt;" class="cls-4" d="M42,30.72A11.84,11.84,0,0,1,44.5,31V44.5H30.08V42.6A11.88,11.88,0,0,1,42,30.72Z"/><path id="_Path_18" data-name="&lt;Path&gt;" class="cls-5" d="M42,30.72A11.84,11.84,0,0,1,44.5,31v3.26A11.86,11.86,0,0,0,30.15,44.5h-.07V42.6A11.88,11.88,0,0,1,42,30.72Z"/><path id="_Path_19" data-name="&lt;Path&gt;" class="cls-3" d="M42,30.72A11.84,11.84,0,0,1,44.5,31V44.5H30.08V42.6A11.88,11.88,0,0,1,42,30.72Z"/><rect id="_Rectangle_3" data-name="&lt;Rectangle&gt;" class="cls-6" x="39.41" y="26.67" width="5.09" height="7.94" rx="2.54" ry="2.54" transform="translate(83.91 61.28) rotate(180)"/><path id="_Path_20" data-name="&lt;Path&gt;" class="cls-7" d="M42,26.67a2.54,2.54,0,0,1,2.54,2.54v.6a2.55,2.55,0,0,1-5.09,0v-.59A2.55,2.55,0,0,1,42,26.67Z"/><rect id="_Rectangle_4" data-name="&lt;Rectangle&gt;" class="cls-3" x="39.41" y="26.67" width="5.09" height="7.94" rx="2.54" ry="2.54" transform="translate(83.91 61.28) rotate(180)"/><path id="_Path_21" data-name="&lt;Path&gt;" class="cls-8" d="M32.89,19a8.73,8.73,0,0,0,5.67-5l.63-1.49A15.84,15.84,0,0,0,44.5,17V29.93A8.92,8.92,0,0,1,42,30.3a9.06,9.06,0,0,1-9-7.72h-.11a1.81,1.81,0,0,1,0-3.62Z"/><path id="_Path_22" data-name="&lt;Path&gt;" class="cls-9" d="M36.52,20.41a.77.77,0,1,0,.77-.77A.77.77,0,0,0,36.52,20.41Z"/><line id="_Path_23" data-name="&lt;Path&gt;" class="cls-3" x1="35.02" y1="44.5" x2="35.02" y2="42.09"/><ellipse id="_Ellipse_2" data-name="&lt;Ellipse&gt;" class="cls-7" cx="36.02" cy="23.69" rx="1" ry="0.6"/><path id="_Path_24" data-name="&lt;Path&gt;" class="cls-10" d="M38.78,25.26a.46.46,0,0,1,.34-.16H44.5v2.11a3.33,3.33,0,0,1-5.82-1.6A.45.45,0,0,1,38.78,25.26Z"/><path id="_Path_25" data-name="&lt;Path&gt;" class="cls-11" d="M42,26.54a3.31,3.31,0,0,1,2.3.92,3.35,3.35,0,0,1-4.61,0A3.32,3.32,0,0,1,42,26.54Z"/><path id="_Path_26" data-name="&lt;Path&gt;" class="cls-3" d="M38.78,25.26a.46.46,0,0,1,.34-.16H44.5v2.11a3.33,3.33,0,0,1-5.82-1.6A.45.45,0,0,1,38.78,25.26Z"/><g id="_Group_" data-name="&lt;Group&gt;"><path class="cls-5" d="M33.16,2.68a5.17,5.17,0,0,0-7.1.78L24,5.75,21.94,3.46a5.17,5.17,0,0,0-7.1-.78A6.53,6.53,0,0,0,12.33,8a8.39,8.39,0,0,0,2.6,6.17L24,22.5l9.07-8.36A8.39,8.39,0,0,0,35.67,8,6.53,6.53,0,0,0,33.16,2.68Z"/><path class="cls-4" d="M14.84,8.57a5.17,5.17,0,0,1,7.1.78l1.2,1.33a1.16,1.16,0,0,0,1.72,0l1.2-1.33a5.17,5.17,0,0,1,7.1-.78,6,6,0,0,1,2,2.5A8.92,8.92,0,0,0,35.67,8a6.53,6.53,0,0,0-2.51-5.29,5.17,5.17,0,0,0-7.1.78L24,5.75,21.94,3.46a5.17,5.17,0,0,0-7.1-.78A6.53,6.53,0,0,0,12.33,8a8.92,8.92,0,0,0,.56,3.1A6,6,0,0,1,14.84,8.57Z"/><path class="cls-3" d="M33.16,2.68a5.17,5.17,0,0,0-7.1.78L24,5.75,21.94,3.46a5.17,5.17,0,0,0-7.1-.78A6.53,6.53,0,0,0,12.33,8a8.39,8.39,0,0,0,2.6,6.17L24,22.5l9.07-8.36A8.39,8.39,0,0,0,35.67,8,6.53,6.53,0,0,0,33.16,2.68Z"/></g></svg>