<svg id="Icons" xmlns="http://www.w3.org/2000/svg" viewBox="0 0 48 48"><defs><style>.cls-1{fill:#a86c4d;}.cls-2{fill:#de926a;}.cls-3{fill:none;}.cls-3,.cls-8,.cls-9{stroke:#45413c;stroke-linecap:round;stroke-linejoin:round;}.cls-4{fill:#00b8f0;}.cls-5{fill:#009fd9;}.cls-6,.cls-8{fill:#ffcebf;}.cls-7{fill:#ffb59e;}.cls-9{fill:#45413c;}.cls-10{fill:#ff6242;}.cls-11{fill:#ffa694;}.cls-12{fill:#00f5bc;}.cls-13{fill:#00dba8;}.cls-14{fill:#ffaa54;}.cls-15{fill:#ff8a14;}</style></defs><title>330-family-man-boy-boy-2</title><path id="_Path_" data-name="&lt;Path&gt;" class="cls-1" d="M24,1.42a10.22,10.22,0,0,0-2.42.3c-1.83.42-4.22,1.12-6.39.7A4.13,4.13,0,0,0,16,5.6a9.62,9.62,0,0,0-1.74,5.54v5.08H33.72V11.14A9.72,9.72,0,0,0,24,1.42Z"/><g id="_Group_" data-name="&lt;Group&gt;"><path id="_Path_2" data-name="&lt;Path&gt;" class="cls-2" d="M24,1.42a10.22,10.22,0,0,0-2.42.3c-1.83.42-4.22,1.12-6.39.7a4.38,4.38,0,0,0,.67,3,18.62,18.62,0,0,0,5.72-.79A10.22,10.22,0,0,1,24,4.31,9.72,9.72,0,0,1,33.72,14V11.14A9.72,9.72,0,0,0,24,1.42Z"/></g><path id="_Path_3" data-name="&lt;Path&gt;" class="cls-3" d="M24,1.42a10.22,10.22,0,0,0-2.42.3c-1.83.42-4.22,1.12-6.39.7A4.13,4.13,0,0,0,16,5.6a9.62,9.62,0,0,0-1.74,5.54v5.08H33.72V11.14A9.72,9.72,0,0,0,24,1.42Z"/><path id="_Rectangle_" data-name="&lt;Rectangle&gt;" class="cls-4" d="M24,25.47h0A11.75,11.75,0,0,1,35.75,37.22V47.48a0,0,0,0,1,0,0H12.25a0,0,0,0,1,0,0V37.22A11.75,11.75,0,0,1,24,25.47Z"/><path class="cls-5" d="M24,25.47A11.75,11.75,0,0,0,12.25,37.22v3.59a11.75,11.75,0,0,1,23.5,0V37.22A11.75,11.75,0,0,0,24,25.47Z"/><path id="_Rectangle_2" data-name="&lt;Rectangle&gt;" class="cls-3" d="M24,25.47h0A11.75,11.75,0,0,1,35.75,37.22V47.48a0,0,0,0,1,0,0H12.25a0,0,0,0,1,0,0V37.22A11.75,11.75,0,0,1,24,25.47Z"/><rect id="_Rectangle_3" data-name="&lt;Rectangle&gt;" class="cls-6" x="21.48" y="21.46" width="5.03" height="7.85" rx="2.52" ry="2.52"/><rect id="_Rectangle_4" data-name="&lt;Rectangle&gt;" class="cls-7" x="21.48" y="21.46" width="5.03" height="5.82" rx="2.52" ry="2.52"/><rect id="_Rectangle_5" data-name="&lt;Rectangle&gt;" class="cls-3" x="21.48" y="21.46" width="5.03" height="7.85" rx="2.52" ry="2.52"/><path class="cls-8" d="M34.74,15.33a1.86,1.86,0,0,0-1.86-1.49,1.58,1.58,0,0,1-1.58-1.58V9.8A1.86,1.86,0,0,0,29.92,8,15.2,15.2,0,0,1,24,9.09,15.2,15.2,0,0,1,18.08,8,1.86,1.86,0,0,0,16.7,9.8v2.46a1.58,1.58,0,0,1-1.58,1.58,1.86,1.86,0,0,0-1.86,1.49A1.8,1.8,0,0,0,15,17.43h.11a9,9,0,0,0,17.72,0H33A1.8,1.8,0,0,0,34.74,15.33Z"/><path id="_Path_4" data-name="&lt;Path&gt;" class="cls-9" d="M18.62,15.27a.77.77,0,0,0,.77.76.76.76,0,0,0,0-1.52A.77.77,0,0,0,18.62,15.27Z"/><path id="_Path_5" data-name="&lt;Path&gt;" class="cls-9" d="M29.38,15.27a.77.77,0,0,1-.77.76.76.76,0,0,1,0-1.52A.77.77,0,0,1,29.38,15.27Z"/><g id="_Group_2" data-name="&lt;Group&gt;"><g id="_Group_3" data-name="&lt;Group&gt;"><path id="_Path_6" data-name="&lt;Path&gt;" class="cls-10" d="M21.19,19.91a.48.48,0,0,0-.33.15.47.47,0,0,0-.1.36,3.29,3.29,0,0,0,6.48,0,.47.47,0,0,0-.1-.36.48.48,0,0,0-.33-.15Z"/></g><path id="_Path_7" data-name="&lt;Path&gt;" class="cls-11" d="M24,23.16a3.3,3.3,0,0,0,2.3-.93,3.31,3.31,0,0,0-4.6,0A3.3,3.3,0,0,0,24,23.16Z"/></g><g id="_Group_4" data-name="&lt;Group&gt;"><path id="_Path_8" data-name="&lt;Path&gt;" class="cls-3" d="M21.19,19.91a.48.48,0,0,0-.33.15.47.47,0,0,0-.1.36,3.29,3.29,0,0,0,6.48,0,.47.47,0,0,0-.1-.36.48.48,0,0,0-.33-.15Z"/></g><ellipse id="_Ellipse_" data-name="&lt;Ellipse&gt;" class="cls-7" cx="18.12" cy="18.52" rx="0.99" ry="0.59"/><ellipse id="_Ellipse_2" data-name="&lt;Ellipse&gt;" class="cls-7" cx="29.88" cy="18.52" rx="0.99" ry="0.59"/><path id="_Path_9" data-name="&lt;Path&gt;" class="cls-12" d="M20.12,47.48a9.42,9.42,0,0,0-17.62,0Z"/><path id="_Path_10" data-name="&lt;Path&gt;" class="cls-13" d="M11.31,44.15a9.4,9.4,0,0,1,7.19,3.33h1.62a9.42,9.42,0,0,0-17.62,0H4.13A9.36,9.36,0,0,1,11.31,44.15Z"/><path id="_Path_11" data-name="&lt;Path&gt;" class="cls-3" d="M20.12,47.48a9.42,9.42,0,0,0-17.62,0Z"/><rect id="_Rectangle_6" data-name="&lt;Rectangle&gt;" class="cls-6" x="9.45" y="38.2" width="3.72" height="6.4" rx="1.86" ry="1.86"/><rect id="_Rectangle_7" data-name="&lt;Rectangle&gt;" class="cls-7" x="9.45" y="38.2" width="3.72" height="4.64" rx="1.86" ry="1.86"/><rect id="_Rectangle_8" data-name="&lt;Rectangle&gt;" class="cls-3" x="9.45" y="38.2" width="3.72" height="6.4" rx="1.86" ry="1.86"/><path id="_Path_12" data-name="&lt;Path&gt;" class="cls-1" d="M11.31,23.75a7.1,7.1,0,0,0-1.8.23,12.11,12.11,0,0,1-4.78.52,3.08,3.08,0,0,0,.62,2.37A7.22,7.22,0,0,0,4.05,31v3.8H18.57V31A7.26,7.26,0,0,0,11.31,23.75Z"/><path id="_Path_13" data-name="&lt;Path&gt;" class="cls-2" d="M11.31,23.75a7.1,7.1,0,0,0-1.8.23,12.11,12.11,0,0,1-4.78.52,3.11,3.11,0,0,0,.6,2.35,14.21,14.21,0,0,0,4.18-.6,7.58,7.58,0,0,1,1.8-.22,7.26,7.26,0,0,1,7.26,7.26V31A7.26,7.26,0,0,0,11.31,23.75Z"/><path id="_Path_14" data-name="&lt;Path&gt;" class="cls-3" d="M11.31,23.75a7.1,7.1,0,0,0-1.8.23,12.11,12.11,0,0,1-4.78.52,3.08,3.08,0,0,0,.62,2.37A7.22,7.22,0,0,0,4.05,31v3.8H18.57V31A7.26,7.26,0,0,0,11.31,23.75Z"/><path id="_Path_15" data-name="&lt;Path&gt;" class="cls-8" d="M4.31,33.11a1.31,1.31,0,0,0,.3,2.6h.08a6.69,6.69,0,0,0,13.24,0H18a1.35,1.35,0,0,0,1.34-1.46,1.38,1.38,0,0,0-1-1.14c-3-.59-4.65-3.76-4.69-3.83C13.59,29.37,11.15,33.2,4.31,33.11Z"/><path id="_Path_16" data-name="&lt;Path&gt;" class="cls-9" d="M7.79,34.64a.51.51,0,0,0,.5.5.5.5,0,0,0,.5-.5.5.5,0,0,0-.5-.5A.5.5,0,0,0,7.79,34.64Z"/><path id="_Path_17" data-name="&lt;Path&gt;" class="cls-9" d="M14.83,34.64a.5.5,0,0,1-1,0,.5.5,0,0,1,1,0Z"/><ellipse id="_Ellipse_3" data-name="&lt;Ellipse&gt;" class="cls-7" cx="6.97" cy="36.76" rx="0.65" ry="0.39"/><ellipse id="_Ellipse_4" data-name="&lt;Ellipse&gt;" class="cls-7" cx="15.66" cy="36.76" rx="0.65" ry="0.39"/><path id="_Path_18" data-name="&lt;Path&gt;" class="cls-3" d="M9.62,38.61a2.34,2.34,0,0,0,1.69.54A2.34,2.34,0,0,0,13,38.61"/><g id="_Group_5" data-name="&lt;Group&gt;"><path id="_Path_19" data-name="&lt;Path&gt;" class="cls-1" d="M36.69,23.75A7.26,7.26,0,0,0,29.43,31V34.8H44V31A7.26,7.26,0,0,0,36.69,23.75Z"/><path class="cls-2" d="M36.69,23.75A7.26,7.26,0,0,0,29.43,31v2.27a7.26,7.26,0,0,1,14.52,0V31A7.26,7.26,0,0,0,36.69,23.75Z"/><path id="_Path_20" data-name="&lt;Path&gt;" class="cls-14" d="M45.5,47.48a9.42,9.42,0,0,0-17.62,0Z"/><path id="_Path_21" data-name="&lt;Path&gt;" class="cls-15" d="M36.69,44.15a9.36,9.36,0,0,1,7.18,3.33H45.5a9.42,9.42,0,0,0-17.62,0H29.5A9.4,9.4,0,0,1,36.69,44.15Z"/><path id="_Path_22" data-name="&lt;Path&gt;" class="cls-3" d="M45.5,47.48a9.42,9.42,0,0,0-17.62,0Z"/><rect id="_Rectangle_9" data-name="&lt;Rectangle&gt;" class="cls-6" x="34.83" y="38.2" width="3.72" height="6.4" rx="1.86" ry="1.86"/><rect id="_Rectangle_10" data-name="&lt;Rectangle&gt;" class="cls-7" x="34.83" y="38.2" width="3.72" height="4.64" rx="1.86" ry="1.86"/><rect id="_Rectangle_11" data-name="&lt;Rectangle&gt;" class="cls-3" x="34.83" y="38.2" width="3.72" height="6.4" rx="1.86" ry="1.86"/><path id="_Path_23" data-name="&lt;Path&gt;" class="cls-3" d="M36.69,23.75A7.26,7.26,0,0,0,29.43,31V34.8H44V31A7.26,7.26,0,0,0,36.69,23.75Z"/><path id="_Path_24" data-name="&lt;Path&gt;" class="cls-8" d="M29.68,33.11a1.38,1.38,0,0,0-1,1.14A1.35,1.35,0,0,0,30,35.71h.08a6.69,6.69,0,0,0,13.24,0h.08a1.31,1.31,0,0,0,.3-2.6c-3-.59-4.64-3.76-4.68-3.83C39,29.37,36.52,33.2,29.68,33.11Z"/><path id="_Path_25" data-name="&lt;Path&gt;" class="cls-9" d="M33.17,34.64a.5.5,0,0,0,1,0,.5.5,0,0,0-1,0Z"/><path id="_Path_26" data-name="&lt;Path&gt;" class="cls-9" d="M40.21,34.64a.51.51,0,0,1-.5.5.5.5,0,0,1-.5-.5.5.5,0,0,1,.5-.5A.5.5,0,0,1,40.21,34.64Z"/><ellipse id="_Ellipse_5" data-name="&lt;Ellipse&gt;" class="cls-7" cx="32.34" cy="36.76" rx="0.65" ry="0.39"/><ellipse id="_Ellipse_6" data-name="&lt;Ellipse&gt;" class="cls-7" cx="41.03" cy="36.76" rx="0.65" ry="0.39"/><path id="_Path_27" data-name="&lt;Path&gt;" class="cls-3" d="M35,38.61a2.34,2.34,0,0,0,1.69.54,2.34,2.34,0,0,0,1.69-.54"/></g></svg>