<svg id="Icons" xmlns="http://www.w3.org/2000/svg" viewBox="0 0 48 48"><defs><style>.cls-1,.cls-13{fill:#724f3d;}.cls-2{fill:#a86c4d;}.cls-3{fill:none;}.cls-13,.cls-3,.cls-8,.cls-9{stroke:#45413c;stroke-linecap:round;stroke-linejoin:round;}.cls-4{fill:#ff87af;}.cls-5{fill:#ff6196;}.cls-6,.cls-8{fill:#ffe500;}.cls-7{fill:#ebcb00;}.cls-9{fill:#45413c;}.cls-10{fill:#ff6242;}.cls-11{fill:#ffa694;}.cls-12{fill:#ffaa54;}.cls-14{fill:#bf8df2;}.cls-15{fill:#9f5ae5;}.cls-16{fill:#9ceb60;}.cls-17{fill:#6dd627;}</style></defs><title>345-family-woman-girl-girl-1</title><path id="_Path_" data-name="&lt;Path&gt;" class="cls-1" d="M24,.85A10.76,10.76,0,0,1,34.76,11.61v14A1.23,1.23,0,0,1,34,26.78h0a26.9,26.9,0,0,1-20,0h0a1.23,1.23,0,0,1-.76-1.13v-14A10.76,10.76,0,0,1,24,.85Z"/><path id="_Path_2" data-name="&lt;Path&gt;" class="cls-2" d="M24,.85A10.76,10.76,0,0,0,13.24,11.61v3.17A10.76,10.76,0,0,1,24,4h0A10.76,10.76,0,0,1,34.76,14.78V11.61A10.76,10.76,0,0,0,24,.85Z"/><path id="_Path_3" data-name="&lt;Path&gt;" class="cls-3" d="M24,.85A10.76,10.76,0,0,1,34.76,11.61v14A1.23,1.23,0,0,1,34,26.78h0a26.9,26.9,0,0,1-20,0h0a1.23,1.23,0,0,1-.76-1.13v-14A10.76,10.76,0,0,1,24,.85Z"/><path id="_Rectangle_" data-name="&lt;Rectangle&gt;" class="cls-4" d="M12.25,25.49h23.5a0,0,0,0,1,0,0V35.75A11.75,11.75,0,0,1,24,47.5h0A11.75,11.75,0,0,1,12.25,35.75V25.49A0,0,0,0,1,12.25,25.49Z" transform="translate(48 72.99) rotate(180)"/><path class="cls-5" d="M24,25.49A11.75,11.75,0,0,1,35.75,37.24v3.59a11.75,11.75,0,0,0-23.5,0V37.24A11.75,11.75,0,0,1,24,25.49Z"/><path id="_Rectangle_2" data-name="&lt;Rectangle&gt;" class="cls-3" d="M12.25,25.49h23.5a0,0,0,0,1,0,0V35.75A11.75,11.75,0,0,1,24,47.5h0A11.75,11.75,0,0,1,12.25,35.75V25.49A0,0,0,0,1,12.25,25.49Z" transform="translate(48 72.99) rotate(180)"/><rect id="_Rectangle_3" data-name="&lt;Rectangle&gt;" class="cls-6" x="21.48" y="21.48" width="5.03" height="7.85" rx="2.52" ry="2.52"/><rect id="_Rectangle_4" data-name="&lt;Rectangle&gt;" class="cls-7" x="21.48" y="21.48" width="5.03" height="5.82" rx="2.52" ry="2.52"/><rect id="_Rectangle_5" data-name="&lt;Rectangle&gt;" class="cls-3" x="21.48" y="21.48" width="5.03" height="7.85" rx="2.52" ry="2.52"/><g id="_Group_" data-name="&lt;Group&gt;"><path id="_Path_4" data-name="&lt;Path&gt;" class="cls-8" d="M33,13.86a8.68,8.68,0,0,1-5.62-5l-.61-1.47a15.75,15.75,0,0,1-9.84,6.11L15,13.86a1.8,1.8,0,0,0,0,3.59h.11a9,9,0,0,0,17.72,0H33a1.8,1.8,0,0,0,0-3.59Z"/></g><path id="_Path_5" data-name="&lt;Path&gt;" class="cls-9" d="M18.62,15.29a.77.77,0,0,0,.77.76.76.76,0,0,0,0-1.52A.77.77,0,0,0,18.62,15.29Z"/><path id="_Path_6" data-name="&lt;Path&gt;" class="cls-9" d="M29.38,15.29a.77.77,0,0,1-.77.76.76.76,0,0,1,0-1.52A.77.77,0,0,1,29.38,15.29Z"/><g id="_Group_2" data-name="&lt;Group&gt;"><g id="_Group_3" data-name="&lt;Group&gt;"><path id="_Path_7" data-name="&lt;Path&gt;" class="cls-10" d="M21.19,19.93a.45.45,0,0,0-.33.16.43.43,0,0,0-.1.35,3.29,3.29,0,0,0,6.48,0,.43.43,0,0,0-.1-.35.45.45,0,0,0-.33-.16Z"/></g><path id="_Path_8" data-name="&lt;Path&gt;" class="cls-11" d="M24,23.18a3.3,3.3,0,0,0,2.3-.93,3.31,3.31,0,0,0-4.6,0A3.3,3.3,0,0,0,24,23.18Z"/></g><g id="_Group_4" data-name="&lt;Group&gt;"><path id="_Path_9" data-name="&lt;Path&gt;" class="cls-3" d="M21.19,19.93a.45.45,0,0,0-.33.16.43.43,0,0,0-.1.35,3.29,3.29,0,0,0,6.48,0,.43.43,0,0,0-.1-.35.45.45,0,0,0-.33-.16Z"/></g><ellipse id="_Ellipse_" data-name="&lt;Ellipse&gt;" class="cls-12" cx="18.12" cy="18.54" rx="0.99" ry="0.59"/><ellipse id="_Ellipse_2" data-name="&lt;Ellipse&gt;" class="cls-12" cx="29.88" cy="18.54" rx="0.99" ry="0.59"/><path id="_Path_10" data-name="&lt;Path&gt;" class="cls-13" d="M26.81,41.17a8.12,8.12,0,0,0,1.62-2c.8-1.38,2.69-1.69,3.46-.46.67,1.06.28,2.35-1.49,3A3.84,3.84,0,0,1,26.81,41.17Z"/><path id="_Path_11" data-name="&lt;Path&gt;" class="cls-13" d="M46.56,41.17a8.22,8.22,0,0,1-1.61-2c-.8-1.38-2.69-1.69-3.47-.46-.67,1.06-.27,2.35,1.5,3A3.81,3.81,0,0,0,46.56,41.17Z"/><path id="_Path_12" data-name="&lt;Path&gt;" class="cls-14" d="M45.5,47.5a9.42,9.42,0,0,0-17.62,0Z"/><path id="_Path_13" data-name="&lt;Path&gt;" class="cls-15" d="M36.69,44.17a9.36,9.36,0,0,1,7.18,3.33H45.5a9.42,9.42,0,0,0-17.62,0H29.5A9.4,9.4,0,0,1,36.69,44.17Z"/><path id="_Path_14" data-name="&lt;Path&gt;" class="cls-3" d="M45.5,47.5a9.42,9.42,0,0,0-17.62,0Z"/><rect id="_Rectangle_6" data-name="&lt;Rectangle&gt;" class="cls-6" x="34.83" y="38.22" width="3.72" height="6.4" rx="1.86" ry="1.86"/><rect id="_Rectangle_7" data-name="&lt;Rectangle&gt;" class="cls-7" x="34.83" y="38.22" width="3.72" height="4.64" rx="1.86" ry="1.86"/><rect id="_Rectangle_8" data-name="&lt;Rectangle&gt;" class="cls-3" x="34.83" y="38.22" width="3.72" height="6.4" rx="1.86" ry="1.86"/><path id="_Rectangle_9" data-name="&lt;Rectangle&gt;" class="cls-1" d="M36.69,23.77h0A7.26,7.26,0,0,1,43.95,31v3.8a0,0,0,0,1,0,0H29.43a0,0,0,0,1,0,0V31a7.26,7.26,0,0,1,7.26-7.26Z"/><path id="_Path_15" data-name="&lt;Path&gt;" class="cls-2" d="M36.69,23.77A7.26,7.26,0,0,0,29.43,31v2.28a7.26,7.26,0,0,1,14.52,0V31A7.26,7.26,0,0,0,36.69,23.77Z"/><path id="_Path_16" data-name="&lt;Path&gt;" class="cls-3" d="M36.69,23.77A7.26,7.26,0,0,0,29.43,31v3.8H44V31A7.26,7.26,0,0,0,36.69,23.77Z"/><path class="cls-8" d="M44.72,34.27a1.35,1.35,0,0,0-1-1.14,7.64,7.64,0,0,1-7-3.83,7.65,7.65,0,0,1-7,3.83,1.38,1.38,0,0,0-1,1.14A1.35,1.35,0,0,0,30,35.73h.08a6.69,6.69,0,0,0,13.24,0h.08A1.34,1.34,0,0,0,44.72,34.27Z"/><path id="_Path_17" data-name="&lt;Path&gt;" class="cls-9" d="M33.17,34.66a.5.5,0,0,0,1,0,.5.5,0,0,0-1,0Z"/><path id="_Path_18" data-name="&lt;Path&gt;" class="cls-9" d="M40.21,34.66a.51.51,0,0,1-.5.5.5.5,0,0,1-.5-.5.5.5,0,0,1,.5-.5A.5.5,0,0,1,40.21,34.66Z"/><ellipse id="_Ellipse_3" data-name="&lt;Ellipse&gt;" class="cls-12" cx="32.34" cy="36.78" rx="0.65" ry="0.39"/><ellipse id="_Ellipse_4" data-name="&lt;Ellipse&gt;" class="cls-12" cx="41.03" cy="36.78" rx="0.65" ry="0.39"/><path id="_Path_19" data-name="&lt;Path&gt;" class="cls-3" d="M35,38.76a2.34,2.34,0,0,0,1.69.54,2.34,2.34,0,0,0,1.69-.54"/><g id="_Group_5" data-name="&lt;Group&gt;"><path id="_Path_20" data-name="&lt;Path&gt;" class="cls-1" d="M11.31,23.74a8,8,0,0,0-8,8V42.73a.77.77,0,0,0,.54.74h0a24.18,24.18,0,0,0,15,0h0a.77.77,0,0,0,.54-.74V31.78A8,8,0,0,0,11.31,23.74Z"/><path class="cls-2" d="M11.31,23.74a8,8,0,0,0-8,8v2.29a8,8,0,0,1,16.08,0V31.78A8,8,0,0,0,11.31,23.74Z"/><path id="_Path_21" data-name="&lt;Path&gt;" class="cls-3" d="M11.31,23.74a8,8,0,0,0-8,8V42.73a.77.77,0,0,0,.54.74h0a24.18,24.18,0,0,0,15,0h0a.77.77,0,0,0,.54-.74V31.78A8,8,0,0,0,11.31,23.74Z"/><path id="_Path_22" data-name="&lt;Path&gt;" class="cls-16" d="M20.12,47.5a9.42,9.42,0,0,0-17.62,0Z"/><path id="_Path_23" data-name="&lt;Path&gt;" class="cls-17" d="M11.31,44.17A9.4,9.4,0,0,1,18.5,47.5h1.62a9.42,9.42,0,0,0-17.62,0H4.13A9.36,9.36,0,0,1,11.31,44.17Z"/><path id="_Path_24" data-name="&lt;Path&gt;" class="cls-3" d="M20.12,47.5a9.42,9.42,0,0,0-17.62,0Z"/><rect id="_Rectangle_10" data-name="&lt;Rectangle&gt;" class="cls-6" x="9.45" y="38.22" width="3.72" height="6.4" rx="1.86" ry="1.86"/><rect id="_Rectangle_11" data-name="&lt;Rectangle&gt;" class="cls-7" x="9.45" y="38.22" width="3.72" height="4.64" rx="1.86" ry="1.86"/><rect id="_Rectangle_12" data-name="&lt;Rectangle&gt;" class="cls-3" x="9.45" y="38.22" width="3.72" height="6.4" rx="1.86" ry="1.86"/><path class="cls-8" d="M19.35,34.27a1.38,1.38,0,0,0-1-1.14,7.65,7.65,0,0,1-7-3.83,7.64,7.64,0,0,1-7,3.83,1.31,1.31,0,0,0,.3,2.6h.08a6.69,6.69,0,0,0,13.24,0H18A1.35,1.35,0,0,0,19.35,34.27Z"/><path id="_Path_25" data-name="&lt;Path&gt;" class="cls-9" d="M7.79,34.66a.51.51,0,0,0,.5.5.5.5,0,0,0,.5-.5.5.5,0,0,0-.5-.5A.5.5,0,0,0,7.79,34.66Z"/><path id="_Path_26" data-name="&lt;Path&gt;" class="cls-9" d="M14.83,34.66a.5.5,0,0,1-1,0,.5.5,0,0,1,1,0Z"/><ellipse id="_Ellipse_5" data-name="&lt;Ellipse&gt;" class="cls-12" cx="6.97" cy="36.78" rx="0.65" ry="0.39"/><ellipse id="_Ellipse_6" data-name="&lt;Ellipse&gt;" class="cls-12" cx="15.66" cy="36.78" rx="0.65" ry="0.39"/><path id="_Path_27" data-name="&lt;Path&gt;" class="cls-3" d="M9.62,38.76a2.34,2.34,0,0,0,1.69.54A2.34,2.34,0,0,0,13,38.76"/></g></svg>