<svg id="Icons" xmlns="http://www.w3.org/2000/svg" viewBox="0 0 48 48"><defs><style>.cls-1{fill:#45413c;opacity:0.15;}.cls-2{fill:#ffcebf;}.cls-3{fill:#ffdcd1;}.cls-4{fill:none;stroke:#45413c;stroke-linecap:round;stroke-linejoin:round;}</style></defs><title>350-flexed-biceps-2</title><ellipse id="_Ellipse_" data-name="&lt;Ellipse&gt;" class="cls-1" cx="24" cy="45" rx="15" ry="1.5"/><path class="cls-2" d="M38.42,23.76l-1.86-1.2A10.71,10.71,0,0,0,23,24.11l-4.18,4.32,1.39-10.26a12.12,12.12,0,0,0,5.7-.38l3.89-1.21a2,2,0,0,0,1.37-2.34,2,2,0,0,0-.51-1l.54-2.74a3.72,3.72,0,0,0-2.34-4.21L25.49,5.05a6.41,6.41,0,0,0-6.26,1L15.51,9a7.73,7.73,0,0,0-2.43,3.35L7.92,26.21a10.5,10.5,0,0,0,1.21,9.65,10.17,10.17,0,0,0,7.43,4.34l21.68,2a1,1,0,0,0,1.09-1V25.44A2,2,0,0,0,38.42,23.76Z"/><path class="cls-3" d="M12.15,14.86c.74-1.47,1.72-2,7.08-6.32a6.41,6.41,0,0,1,6.26-1l3.38,1.27a3.68,3.68,0,0,1,2.22,2.31l.12-.6a3.72,3.72,0,0,0-2.34-4.21L25.49,5.05a6.41,6.41,0,0,0-6.26,1L15.51,9a7.73,7.73,0,0,0-2.43,3.35Z"/><path id="_Path_" data-name="&lt;Path&gt;" class="cls-3" d="M38.42,23.76l-1.86-1.2a10.76,10.76,0,0,0-6.88-1.68h0A10.69,10.69,0,0,0,23,24.11l-4.18,4.32L17,30.22l5.17-2.62c2.91-1.33,5-4,7.51-4.22h0a10.76,10.76,0,0,1,6.88,1.68l1.86,1.2a2,2,0,0,1,.91,1.68v-2.5A2,2,0,0,0,38.42,23.76Z"/><path class="cls-4" d="M38.42,23.76l-1.86-1.2A10.71,10.71,0,0,0,23,24.11l-4.18,4.32,1.39-10.26a12.12,12.12,0,0,0,5.7-.38l3.89-1.21a2,2,0,0,0,1.37-2.34,2,2,0,0,0-.51-1l.54-2.74a3.72,3.72,0,0,0-2.34-4.21L25.49,5.05a6.41,6.41,0,0,0-6.26,1L15.51,9a7.73,7.73,0,0,0-2.43,3.35L7.92,26.21a10.5,10.5,0,0,0,1.21,9.65,10.17,10.17,0,0,0,7.43,4.34l21.68,2a1,1,0,0,0,1.09-1V25.44A2,2,0,0,0,38.42,23.76Z"/><line id="_Path_2" data-name="&lt;Path&gt;" class="cls-4" x1="18.83" y1="28.43" x2="17" y2="30.22"/><path id="_Path_3" data-name="&lt;Path&gt;" class="cls-4" d="M18.25,17.67h0a12.27,12.27,0,0,0,7.67.12l3.89-1.21a2,2,0,0,0,1.37-2.34h0A2,2,0,0,0,29,12.65l-3.3.37a2.71,2.71,0,0,1-1.35-.26,1.83,1.83,0,0,1-.26-3.22h0A1.83,1.83,0,0,1,26,9.5l1.29.76"/><path id="_Path_4" data-name="&lt;Path&gt;" class="cls-4" d="M24.08,34.6S30.5,36.85,34.58,33"/></svg>