<svg id="Icons" xmlns="http://www.w3.org/2000/svg" viewBox="0 0 48 48"><defs><style>.cls-1{fill:#45413c;opacity:0.15;}.cls-2,.cls-5{fill:#ffcebf;}.cls-3{fill:#ffdcd1;}.cls-4{fill:none;}.cls-4,.cls-5{stroke:#45413c;stroke-linecap:round;stroke-linejoin:round;}</style></defs><title>356-index-pointing-up-2</title><ellipse id="_Ellipse_" data-name="&lt;Ellipse&gt;" class="cls-1" cx="24" cy="45.5" rx="11" ry="1.5"/><path id="_Path_" data-name="&lt;Path&gt;" class="cls-2" d="M34.13,26.33V9a2.3,2.3,0,0,0-4.6,0V19.89a2.71,2.71,0,0,0-5.42,0v0a2.68,2.68,0,0,0-5.36,0v3.26a2.52,2.52,0,0,0-5,0v8.09a9.22,9.22,0,0,0,9.22,9.22h1.28A11.06,11.06,0,0,0,35.27,29.37,4.59,4.59,0,0,0,34.13,26.33Z"/><g id="_Group_" data-name="&lt;Group&gt;"><path id="_Path_2" data-name="&lt;Path&gt;" class="cls-3" d="M31.83,9.22a2.3,2.3,0,0,1,2.3,2.3V9a2.3,2.3,0,0,0-4.6,0v2.5A2.3,2.3,0,0,1,31.83,9.22Z"/><path id="_Path_3" data-name="&lt;Path&gt;" class="cls-3" d="M16.23,23.1a2.52,2.52,0,0,1,2.52,2.52v-2.5a2.52,2.52,0,0,0-5,0v2.5A2.52,2.52,0,0,1,16.23,23.1Z"/><path id="_Path_4" data-name="&lt;Path&gt;" class="cls-3" d="M21.43,19.68a2.68,2.68,0,0,1,2.68,2.68v0a2.71,2.71,0,0,1,5.42,0v-2.5a2.71,2.71,0,0,0-5.42,0v0a2.68,2.68,0,0,0-5.36,0v2.5A2.68,2.68,0,0,1,21.43,19.68Z"/></g><path id="_Path_5" data-name="&lt;Path&gt;" class="cls-4" d="M34.13,26.33V9a2.3,2.3,0,0,0-4.6,0V19.89a2.71,2.71,0,0,0-5.42,0v0a2.68,2.68,0,0,0-5.36,0v3.26a2.52,2.52,0,0,0-5,0v8.09a9.22,9.22,0,0,0,9.22,9.22h1.28A11.06,11.06,0,0,0,35.27,29.37,4.59,4.59,0,0,0,34.13,26.33Z"/><rect id="_Rectangle_" data-name="&lt;Rectangle&gt;" class="cls-4" x="13.71" y="20.6" width="5.04" height="8.33" rx="2.52" ry="2.52"/><path id="_Path_6" data-name="&lt;Path&gt;" class="cls-3" d="M35.27,29.37a4.6,4.6,0,0,0-4.6-4.6H20A1.23,1.23,0,0,0,18.75,26,4.38,4.38,0,0,0,19,27.3a1.21,1.21,0,0,1,1-.56H31.1A4.55,4.55,0,0,1,35.27,29.37Z"/><path id="_Path_7" data-name="&lt;Path&gt;" class="cls-4" d="M35.27,29.37a4.6,4.6,0,0,0-4.6-4.6H20A1.23,1.23,0,0,0,18.75,26h0A4.22,4.22,0,0,0,23,30.22h5.24"/><line id="_Path_8" data-name="&lt;Path&gt;" class="cls-5" x1="24.11" y1="19.89" x2="24.11" y2="24.77"/><line id="_Path_9" data-name="&lt;Path&gt;" class="cls-5" x1="29.53" y1="19.89" x2="29.53" y2="24.77"/><path id="_Path_10" data-name="&lt;Path&gt;" class="cls-4" d="M28.15,30.22h0a4.44,4.44,0,0,0-4.44,4.44V36"/></svg>