<svg id="Icons" xmlns="http://www.w3.org/2000/svg" viewBox="0 0 48 48"><defs><style>.cls-1{fill:#ffe500;}.cls-2{fill:#fff48c;}.cls-3{fill:none;stroke:#45413c;stroke-linecap:round;stroke-linejoin:round;}.cls-4{fill:#45413c;opacity:0.15;}</style></defs><title>357-backhand-index-pointing-up-1</title><path id="_Path_" data-name="&lt;Path&gt;" class="cls-1" d="M33.23,20a2.61,2.61,0,0,0-2.61,2.61V20a2.78,2.78,0,0,0-5.56,0,2.78,2.78,0,0,0-5.56,0V7.57a2.42,2.42,0,1,0-4.83,0V26a8.14,8.14,0,0,0-1.55-4.77,3.94,3.94,0,0,0-5-1.32,1.58,1.58,0,0,0-.67,2.17l2.21,4A27.22,27.22,0,0,1,12,32a12.27,12.27,0,0,0,5.31,7.13,12.59,12.59,0,0,0,6.75,2h4.14a7.61,7.61,0,0,0,7.6-7.6V22.58A2.61,2.61,0,0,0,33.23,20Z"/><path class="cls-2" d="M7.79,22.76a1.53,1.53,0,0,1,.3-.19,4.42,4.42,0,0,1,5.45,1.16A7.07,7.07,0,0,1,14.67,26a8.14,8.14,0,0,0-1.55-4.77,3.94,3.94,0,0,0-5-1.32,1.58,1.58,0,0,0-.67,2.17Z"/><g id="_Group_" data-name="&lt;Group&gt;"><path id="_Path_2" data-name="&lt;Path&gt;" class="cls-2" d="M17.08,7.78a2.41,2.41,0,0,1,2.42,2.41V7.57a2.42,2.42,0,1,0-4.83,0v2.62A2.41,2.41,0,0,1,17.08,7.78Z"/><path id="_Path_3" data-name="&lt;Path&gt;" class="cls-2" d="M33.23,20a2.61,2.61,0,0,0-2.61,2.61V20a2.78,2.78,0,0,0-5.56,0,2.78,2.78,0,0,0-5.56,0v2.38a2.78,2.78,0,1,1,5.56,0,2.78,2.78,0,0,1,2.78-2.78,3,3,0,0,1,2.78,3v.34c0-1.44,1.34-2,2.61-1.8a3.42,3.42,0,0,1,2.61,3.24h0v-1.8A2.61,2.61,0,0,0,33.23,20Z"/></g><path id="_Path_4" data-name="&lt;Path&gt;" class="cls-3" d="M33.23,20a2.61,2.61,0,0,0-2.61,2.61V20a2.78,2.78,0,0,0-5.56,0,2.78,2.78,0,0,0-5.56,0V7.57a2.42,2.42,0,1,0-4.83,0V26a8.14,8.14,0,0,0-1.55-4.77,3.94,3.94,0,0,0-5-1.32,1.58,1.58,0,0,0-.67,2.17l2.21,4A27.22,27.22,0,0,1,12,32a12.27,12.27,0,0,0,5.31,7.13,12.59,12.59,0,0,0,6.75,2h4.14a7.61,7.61,0,0,0,7.6-7.6V22.58A2.61,2.61,0,0,0,33.23,20Z"/><line id="_Path_5" data-name="&lt;Path&gt;" class="cls-3" x1="25.06" y1="19.97" x2="25.06" y2="22.07"/><line id="_Path_6" data-name="&lt;Path&gt;" class="cls-3" x1="19.5" y1="19.97" x2="19.5" y2="22.07"/><line id="_Path_7" data-name="&lt;Path&gt;" class="cls-3" x1="14.67" y1="26.03" x2="14.67" y2="27.89"/><ellipse id="_Ellipse_" data-name="&lt;Ellipse&gt;" class="cls-4" cx="24" cy="45.5" rx="11" ry="1.5"/></svg>