<svg id="Icons" xmlns="http://www.w3.org/2000/svg" viewBox="0 0 48 48"><defs><style>.cls-1{fill:#45413c;opacity:0.15;}.cls-2{fill:#ffcebf;}.cls-3{fill:#ffdcd1;}.cls-4{fill:none;stroke:#45413c;stroke-linecap:round;stroke-linejoin:round;}</style></defs><title>360-backhand-index-pointing-down-2</title><ellipse id="_Ellipse_" data-name="&lt;Ellipse&gt;" class="cls-1" cx="24" cy="45.5" rx="11" ry="1.5"/><path id="_Path_" data-name="&lt;Path&gt;" class="cls-2" d="M13.85,26.24a2.6,2.6,0,0,0,2.61-2.6v2.6a2.78,2.78,0,1,0,5.56,0,2.78,2.78,0,1,0,5.56,0V38.65a2.42,2.42,0,1,0,4.84,0V20.19A8.15,8.15,0,0,0,34,25a3.94,3.94,0,0,0,5,1.33,1.58,1.58,0,0,0,.66-2.17l-2.2-4A26.76,26.76,0,0,1,35,14.25a12.27,12.27,0,0,0-5.31-7.13,12.54,12.54,0,0,0-6.75-2H18.85a7.6,7.6,0,0,0-7.6,7.6V23.64A2.59,2.59,0,0,0,13.85,26.24Z"/><path class="cls-3" d="M39,26.28a1.58,1.58,0,0,0,.66-2.17l-2.2-4A26.76,26.76,0,0,1,35,14.25a12.27,12.27,0,0,0-5.31-7.13,12.54,12.54,0,0,0-6.75-2H18.85a7.6,7.6,0,0,0-7.6,7.6v3.89A7.6,7.6,0,0,1,18.85,9H23a12.54,12.54,0,0,1,6.75,2C35.25,14.47,33.25,17.26,39,26.28Z"/><path id="_Path_2" data-name="&lt;Path&gt;" class="cls-4" d="M13.85,26.24a2.6,2.6,0,0,0,2.61-2.6v2.6a2.78,2.78,0,1,0,5.56,0,2.78,2.78,0,1,0,5.56,0V38.65a2.42,2.42,0,1,0,4.84,0V20.19A8.15,8.15,0,0,0,34,25a3.94,3.94,0,0,0,5,1.33,1.58,1.58,0,0,0,.66-2.17l-2.2-4A26.76,26.76,0,0,1,35,14.25a12.27,12.27,0,0,0-5.31-7.13,12.54,12.54,0,0,0-6.75-2H18.85a7.6,7.6,0,0,0-7.6,7.6V23.64A2.59,2.59,0,0,0,13.85,26.24Z"/><line id="_Path_3" data-name="&lt;Path&gt;" class="cls-4" x1="22.02" y1="26.24" x2="22.02" y2="24.15"/><line id="_Path_4" data-name="&lt;Path&gt;" class="cls-4" x1="27.58" y1="26.24" x2="27.58" y2="24.15"/><line id="_Path_5" data-name="&lt;Path&gt;" class="cls-4" x1="32.42" y1="20.19" x2="32.42" y2="18.33"/></svg>