<svg id="Icons" xmlns="http://www.w3.org/2000/svg" viewBox="0 0 48 48"><defs><style>.cls-1,.cls-5{fill:#ffcebf;}.cls-2{fill:#ffdcd1;}.cls-3{fill:#45413c;opacity:0.15;}.cls-4{fill:none;}.cls-4,.cls-5{stroke:#45413c;stroke-linecap:round;stroke-linejoin:round;}</style></defs><title>380-raised-fist-2</title><path id="_Path_" data-name="&lt;Path&gt;" class="cls-1" d="M37.29,22.24V13.08a3.17,3.17,0,0,0-6.34,0v.28a3.74,3.74,0,1,0-7.48,0v0a3.7,3.7,0,1,0-7.39,0v4.49a3.48,3.48,0,0,0-6.95,0V29A12.71,12.71,0,0,0,21.85,41.7h1.76A15.26,15.26,0,0,0,38.87,26.44,6.31,6.31,0,0,0,37.29,22.24Z"/><g id="_Group_" data-name="&lt;Group&gt;"><path id="_Path_2" data-name="&lt;Path&gt;" class="cls-2" d="M34.12,13.36a3.17,3.17,0,0,1,3.17,3.17V13.08a3.17,3.17,0,0,0-6.34,0v3.45A3.17,3.17,0,0,1,34.12,13.36Z"/><path id="_Path_3" data-name="&lt;Path&gt;" class="cls-2" d="M12.6,17.79a3.47,3.47,0,0,1,3.48,3.47V17.81a3.48,3.48,0,0,0-6.95,0v3.45A3.47,3.47,0,0,1,12.6,17.79Z"/><path id="_Path_4" data-name="&lt;Path&gt;" class="cls-2" d="M19.77,13.07a3.7,3.7,0,0,1,3.7,3.7v0a3.74,3.74,0,0,1,7.48,0V13.36a3.74,3.74,0,1,0-7.48,0v0a3.7,3.7,0,1,0-7.39,0v3.45A3.7,3.7,0,0,1,19.77,13.07Z"/></g><ellipse id="_Ellipse_" data-name="&lt;Ellipse&gt;" class="cls-3" cx="24" cy="45.5" rx="11" ry="1.5"/><rect id="_Rectangle_" data-name="&lt;Rectangle&gt;" class="cls-4" x="9.13" y="14.34" width="6.95" height="11.5" rx="3.48" ry="3.48"/><path class="cls-1" d="M37.3,22.25a6.32,6.32,0,0,0-4.77-2.16H17.32a1.23,1.23,0,0,0-1.24,1.24v.78a5.51,5.51,0,0,0,5.51,5.51H38.83c0-.39.05-.79.05-1.18A6.34,6.34,0,0,0,37.3,22.25Z"/><path id="_Path_5" data-name="&lt;Path&gt;" class="cls-2" d="M17.32,22.24H32.53a6.35,6.35,0,0,1,6,4.24l.36,0a6.34,6.34,0,0,0-6.34-6.35H17.32a1.23,1.23,0,0,0-1.24,1.24v.78a6,6,0,0,0,.08.95A1.23,1.23,0,0,1,17.32,22.24Z"/><path id="_Path_6" data-name="&lt;Path&gt;" class="cls-4" d="M38.87,26.44a6.34,6.34,0,0,0-6.34-6.35H17.32a1.23,1.23,0,0,0-1.24,1.24v.78a5.51,5.51,0,0,0,5.51,5.51h7.54"/><line id="_Path_7" data-name="&lt;Path&gt;" class="cls-5" x1="23.47" y1="13.36" x2="23.47" y2="20.09"/><path id="_Path_8" data-name="&lt;Path&gt;" class="cls-4" d="M37.29,22.24V13.08a3.17,3.17,0,0,0-6.34,0v.28a3.74,3.74,0,1,0-7.48,0v0a3.7,3.7,0,1,0-7.39,0v4.49a3.48,3.48,0,0,0-6.95,0V29A12.71,12.71,0,0,0,21.85,41.7h1.76A15.26,15.26,0,0,0,38.87,26.44,6.31,6.31,0,0,0,37.29,22.24Z"/><line id="_Path_9" data-name="&lt;Path&gt;" class="cls-5" x1="30.95" y1="13.36" x2="30.95" y2="20.09"/><path id="_Path_10" data-name="&lt;Path&gt;" class="cls-4" d="M29,27.62h0a6.12,6.12,0,0,0-6.12,6.12v1.81"/></svg>