<svg id="Icons" xmlns="http://www.w3.org/2000/svg" viewBox="0 0 48 48"><defs><style>.cls-1{fill:#45413c;opacity:0.15;}.cls-2{fill:#ffcebf;}.cls-3{fill:#ffb59e;}.cls-4{fill:none;stroke:#45413c;stroke-linecap:round;stroke-linejoin:round;}.cls-5{fill:#ffdcd1;}</style></defs><title>382-oncoming-fist-2</title><ellipse id="_Ellipse_" data-name="&lt;Ellipse&gt;" class="cls-1" cx="24" cy="45.5" rx="15" ry="1.5"/><path id="_Path_" data-name="&lt;Path&gt;" class="cls-2" d="M32.44,20.92a3.77,3.77,0,0,0-3.77,3.77v7H25a5.74,5.74,0,0,0-5.74,5.74h0A1.59,1.59,0,0,0,20.8,39H32.58a9,9,0,0,0,9-8.95h0A9.1,9.1,0,0,0,32.44,20.92Z"/><path class="cls-3" d="M41.53,29.64a9.1,9.1,0,0,0-9.09-8.72,3.77,3.77,0,0,0-3.77,3.77v7H25a5.72,5.72,0,0,0-4.49,2.16A3.64,3.64,0,0,0,24,36.67H33.9A7.66,7.66,0,0,0,41.53,29.64Z"/><path id="_Path_2" data-name="&lt;Path&gt;" class="cls-4" d="M32.44,20.92a3.77,3.77,0,0,0-3.77,3.77v7H25a5.74,5.74,0,0,0-5.74,5.74h0A1.59,1.59,0,0,0,20.8,39H32.58a9,9,0,0,0,9-8.95h0A9.1,9.1,0,0,0,32.44,20.92Z"/><path id="_Path_3" data-name="&lt;Path&gt;" class="cls-2" d="M39.14,15.68a4.06,4.06,0,0,0-3.88-4.12,5.13,5.13,0,0,0-3.77,1.65,1,1,0,0,1-1.55-.32,5,5,0,0,0-9.21,0,.91.91,0,0,1-1.43.38,4.9,4.9,0,0,0-4.83-.85,4.29,4.29,0,0,0-3.11,4.42.77.77,0,0,1-1.23.66,3.24,3.24,0,0,0-2-.7,3.42,3.42,0,0,0-3.23,3.43v11a3.37,3.37,0,0,0,3.07,3.42,3.24,3.24,0,0,0,3.42-3.24v-.84A4.52,4.52,0,0,0,16.85,35a4.58,4.58,0,0,0,3.53-4.52v0a5,5,0,0,0,10,0v.09a4.52,4.52,0,0,0,4,4.55,4.38,4.38,0,0,0,4.81-4.36Z"/><path id="_Path_4" data-name="&lt;Path&gt;" class="cls-5" d="M39.14,15.68a4.06,4.06,0,0,0-3.88-4.12,5.13,5.13,0,0,0-3.77,1.65,1,1,0,0,1-1.55-.32,5,5,0,0,0-9.21,0,.91.91,0,0,1-1.43.38,4.9,4.9,0,0,0-4.83-.85,4.29,4.29,0,0,0-3.11,4.42.77.77,0,0,1-1.23.66,3.24,3.24,0,0,0-2-.7,3.42,3.42,0,0,0-3.23,3.43v3.54A3.41,3.41,0,0,1,8.1,20.39a3.18,3.18,0,0,1,2,.7.77.77,0,0,0,1.23-.67A4.29,4.29,0,0,1,14.47,16a4.87,4.87,0,0,1,4.83.85.91.91,0,0,0,1.43-.38,5,5,0,0,1,9.21-.05,1,1,0,0,0,1.55.32,5.1,5.1,0,0,1,3.77-1.65,4.06,4.06,0,0,1,3.88,4.12Z"/><path id="_Path_5" data-name="&lt;Path&gt;" class="cls-4" d="M39.14,15.68a4.06,4.06,0,0,0-3.88-4.12,5.13,5.13,0,0,0-3.77,1.65,1,1,0,0,1-1.55-.32,5,5,0,0,0-9.21,0,.91.91,0,0,1-1.43.38,4.9,4.9,0,0,0-4.83-.85,4.29,4.29,0,0,0-3.11,4.42.77.77,0,0,1-1.23.66,3.24,3.24,0,0,0-2-.7,3.42,3.42,0,0,0-3.23,3.43v11a3.37,3.37,0,0,0,3.07,3.42,3.24,3.24,0,0,0,3.42-3.24v-.84A4.52,4.52,0,0,0,16.85,35a4.58,4.58,0,0,0,3.53-4.52v0a5,5,0,0,0,10,0v.09a4.52,4.52,0,0,0,4,4.55,4.38,4.38,0,0,0,4.81-4.36Z"/><line id="_Path_6" data-name="&lt;Path&gt;" class="cls-4" x1="11.36" y1="30.61" x2="11.36" y2="26.16"/><line id="_Path_7" data-name="&lt;Path&gt;" class="cls-4" x1="20.38" y1="30.46" x2="20.38" y2="24.79"/><line id="_Path_8" data-name="&lt;Path&gt;" class="cls-4" x1="30.38" y1="30.46" x2="30.38" y2="22.63"/></svg>