<svg id="Icons" xmlns="http://www.w3.org/2000/svg" viewBox="0 0 48 48"><defs><style>.cls-1{fill:#45413c;opacity:0.15;}.cls-2,.cls-6{fill:#ffb59e;}.cls-2,.cls-5{stroke:#45413c;stroke-linecap:round;stroke-linejoin:round;}.cls-3{fill:#009fd9;}.cls-4{fill:#00b8f0;}.cls-5{fill:none;}.cls-7{fill:#ffcebf;}.cls-8{fill:#ffdcd1;}</style></defs><title>386-writing-hand-2</title><ellipse id="_Ellipse_" data-name="&lt;Ellipse&gt;" class="cls-1" cx="23.02" cy="45.5" rx="16.5" ry="1.5"/><path id="_Path_" data-name="&lt;Path&gt;" class="cls-2" d="M20.7,17.89l14.77,6.94L34.32,36,31.8,37.27a8.52,8.52,0,0,1-6.9.42l-1.5-.56A8.91,8.91,0,0,0,19,36.66L16.61,37a3,3,0,0,1-2.84-1.2h0a1,1,0,0,1,.39-1.48l5.23-2.43-6.45-4.84Z"/><path id="_Path_2" data-name="&lt;Path&gt;" class="cls-3" d="M10.34,38.59,6,41.69a.5.5,0,0,1-.76-.55L6.66,36a.85.85,0,0,1,.15-.3L27.18,7a1,1,0,0,1,1.39-.24l2.14,1.52A1,1,0,0,1,31,9.65L10.58,38.36A1,1,0,0,1,10.34,38.59Z"/><path id="_Path_3" data-name="&lt;Path&gt;" class="cls-4" d="M8.31,38a1.26,1.26,0,0,1,.16-.33L29.81,7.61l-1.24-.88A1,1,0,0,0,27.18,7L6.81,35.68a.85.85,0,0,0-.15.3L5.19,41.14a.5.5,0,0,0,.76.55L7.49,40.6Z"/><path id="_Path_4" data-name="&lt;Path&gt;" class="cls-5" d="M10.34,38.59,6,41.69a.5.5,0,0,1-.76-.55L6.66,36a.85.85,0,0,1,.15-.3L27.18,7a1,1,0,0,1,1.39-.24l2.14,1.52A1,1,0,0,1,31,9.65L10.58,38.36A1,1,0,0,1,10.34,38.59Z"/><path id="_Path_5" data-name="&lt;Path&gt;" class="cls-6" d="M13.21,26.65l-1.36,5.76a3.05,3.05,0,0,1-3.5,2.3h0A1.54,1.54,0,0,1,7,33l.67-6.44a5.19,5.19,0,0,1,3-4.18l8.12-3.67Z"/><path id="_Path_6" data-name="&lt;Path&gt;" class="cls-7" d="M10.13,25.51l5.22-1.87,3.48-4.9-8.12,3.67a5.19,5.19,0,0,0-3,4.18l0,.47A6.76,6.76,0,0,1,10.13,25.51Z"/><path id="_Path_7" data-name="&lt;Path&gt;" class="cls-5" d="M13.21,26.65l-1.36,5.76a3.05,3.05,0,0,1-3.5,2.3h0A1.54,1.54,0,0,1,7,33l.67-6.44a5.19,5.19,0,0,1,3-4.18l8.12-3.67Z"/><path id="_Path_8" data-name="&lt;Path&gt;" class="cls-7" d="M18.79,26.78l-7.44,3.67a2,2,0,0,0-.91,2.66h0A4,4,0,0,0,15.65,35l2.73-1.24a3.54,3.54,0,0,1,3.3.17l.8.47a15.18,15.18,0,0,0,11,1.72h0a6.9,6.9,0,0,1,3.92.28l4.66,1.77a1,1,0,0,0,1.36-.94v-10a1,1,0,0,0-1-1h-.84a14.48,14.48,0,0,1-6.14-1.37L24,19.44Z"/><g id="_Group_" data-name="&lt;Group&gt;"><path id="_Path_9" data-name="&lt;Path&gt;" class="cls-8" d="M42.45,26.2h-.84a14.48,14.48,0,0,1-6.14-1.37L24,19.44l-2.44,3.43,12.85,5.34a18.26,18.26,0,0,0,7,1.37h1a1.07,1.07,0,0,1,1.13,1V27.2A1,1,0,0,0,42.45,26.2Z"/><path id="_Path_10" data-name="&lt;Path&gt;" class="cls-8" d="M12.58,31.44a13,13,0,0,0,5-3.78l.34-.42-6.52,3.21a2,2,0,0,0-1.1,2Z"/></g><path id="_Path_11" data-name="&lt;Path&gt;" class="cls-5" d="M18.79,26.78l-7.44,3.67a2,2,0,0,0-.91,2.66h0A4,4,0,0,0,15.65,35l2.73-1.24a3.54,3.54,0,0,1,3.3.17l.8.47a15.18,15.18,0,0,0,11,1.72h0a6.9,6.9,0,0,1,3.92.28l4.66,1.77a1,1,0,0,0,1.36-.94v-10a1,1,0,0,0-1-1h-.84a14.48,14.48,0,0,1-6.14-1.37L24,19.44Z"/></svg>