<svg id="Icons" xmlns="http://www.w3.org/2000/svg" viewBox="0 0 48 48"><defs><style>.cls-1{fill:#ffe500;}.cls-1,.cls-4{stroke:#45413c;stroke-linecap:round;stroke-linejoin:round;}.cls-2{fill:#ffcebf;}.cls-3{fill:#ffdcd1;}.cls-4{fill:none;}.cls-5{fill:#009fd9;}.cls-6{fill:#00b8f0;}</style></defs><title>392-folded-hands-2</title><path id="_Path_" data-name="&lt;Path&gt;" class="cls-1" d="M14.85,11.42,10.14,5.35a.54.54,0,0,0-.85-.06L7,8.18A.54.54,0,0,0,7.22,9l7,3.18A.49.49,0,0,0,14.85,11.42Z"/><path id="_Path_2" data-name="&lt;Path&gt;" class="cls-1" d="M12.6,16.12,5.16,13.68a.55.55,0,0,0-.75.42l-.32,3.7a.56.56,0,0,0,.68.54l7.76-1.26A.49.49,0,0,0,12.6,16.12Z"/><path id="_Path_3" data-name="&lt;Path&gt;" class="cls-1" d="M12,22.28l-6.95.14a.5.5,0,0,0-.47.64l1,3.56a.51.51,0,0,0,.75.29l5.92-3.71A.5.5,0,0,0,12,22.28Z"/><path id="_Path_4" data-name="&lt;Path&gt;" class="cls-2" d="M21.68,3.2a2.23,2.23,0,0,0-2,2.14L19.1,16.19c-.19,3.34-1.6,4.84-2.27,8.42s-.5,3.42-1.23,4.15l-6.1,6.1,7,8.08,4.06-3.76a10.59,10.59,0,0,0,2.08-2.63h0A10.73,10.73,0,0,0,24,31.32v-26A2.14,2.14,0,0,0,21.68,3.2Z"/><path class="cls-3" d="M21.28,10.92a1.25,1.25,0,0,1,1.26-1.31A1.46,1.46,0,0,1,24,11.07V9.26A1.46,1.46,0,0,0,22.54,7.8c-.76,0-1.11.55-1.16,1.31Z"/><path class="cls-3" d="M21.81,6A2.5,2.5,0,0,1,24,7.3v-2A2.14,2.14,0,0,0,21.68,3.2a2.23,2.23,0,0,0-2,2.14l-.11,2A2.5,2.5,0,0,1,21.81,6Z"/><path id="_Path_5" data-name="&lt;Path&gt;" class="cls-3" d="M16.83,24.61c-.66,3.58-.5,3.42-1.23,4.15l-6.1,6.1,1.28,1.47,4.82-4.82C16.33,30.78,17.85,28.56,16.83,24.61Z"/><path id="_Path_6" data-name="&lt;Path&gt;" class="cls-4" d="M21.68,3.2a2.23,2.23,0,0,0-2,2.14L19.1,16.19c-.19,3.34-1.6,4.84-2.27,8.42s-.5,3.42-1.23,4.15l-6.1,6.1,7,8.08,4.06-3.76a10.59,10.59,0,0,0,2.08-2.63h0A10.73,10.73,0,0,0,24,31.32v-26A2.14,2.14,0,0,0,21.68,3.2Z"/><path id="_Path_7" data-name="&lt;Path&gt;" class="cls-4" d="M24,9.26A1.46,1.46,0,0,0,22.54,7.8h0c-.76,0-1.11.55-1.16,1.31l-.57,10.56"/><path id="_Path_8" data-name="&lt;Path&gt;" class="cls-5" d="M3.37,38.37l6.25-5a1,1,0,0,1,1.35.09l7.61,8a1,1,0,0,1,.08,1.29L17.22,44.6a1,1,0,0,1-.8.4H4a1,1,0,0,1-1-1V39.14A1,1,0,0,1,3.37,38.37Z"/><path id="_Path_9" data-name="&lt;Path&gt;" class="cls-6" d="M12.86,35.39l-1.89-2a1,1,0,0,0-1.35-.09l-6.25,5a1,1,0,0,0-.37.77v4.21Z"/><path id="_Path_10" data-name="&lt;Path&gt;" class="cls-4" d="M3.37,38.37l6.25-5a1,1,0,0,1,1.35.09l7.61,8a1,1,0,0,1,.08,1.29L17.22,44.6a1,1,0,0,1-.8.4H4a1,1,0,0,1-1-1V39.14A1,1,0,0,1,3.37,38.37Z"/><path id="_Path_11" data-name="&lt;Path&gt;" class="cls-1" d="M33.15,11.42l4.71-6.07a.54.54,0,0,1,.85-.06L41,8.18a.54.54,0,0,1-.25.82l-7,3.18A.49.49,0,0,1,33.15,11.42Z"/><path id="_Path_12" data-name="&lt;Path&gt;" class="cls-1" d="M35.4,16.12l7.44-2.44a.55.55,0,0,1,.75.42l.32,3.7a.56.56,0,0,1-.68.54l-7.76-1.26A.49.49,0,0,1,35.4,16.12Z"/><path id="_Path_13" data-name="&lt;Path&gt;" class="cls-1" d="M36,22.28l7,.14a.5.5,0,0,1,.47.64l-1,3.56a.51.51,0,0,1-.75.29L35.73,23.2A.5.5,0,0,1,36,22.28Z"/><path id="_Path_14" data-name="&lt;Path&gt;" class="cls-2" d="M26.32,3.2a2.23,2.23,0,0,1,2,2.14l.61,10.85c.19,3.34,1.6,4.84,2.27,8.42s.5,3.42,1.23,4.15l6.1,6.1-7,8.08-4.06-3.76a10.59,10.59,0,0,1-2.08-2.63h0A10.73,10.73,0,0,1,24,31.32v-26A2.14,2.14,0,0,1,26.32,3.2Z"/><path class="cls-3" d="M26.72,10.92a1.25,1.25,0,0,0-1.26-1.31A1.46,1.46,0,0,0,24,11.07V9.26A1.46,1.46,0,0,1,25.46,7.8c.76,0,1.11.55,1.17,1.31Z"/><path class="cls-3" d="M26.19,6A2.5,2.5,0,0,0,24,7.3v-2A2.14,2.14,0,0,1,26.32,3.2a2.23,2.23,0,0,1,2,2.14l.11,2A2.5,2.5,0,0,0,26.19,6Z"/><path id="_Path_15" data-name="&lt;Path&gt;" class="cls-3" d="M31.17,24.61c.66,3.58.5,3.42,1.23,4.15l6.1,6.1-1.28,1.47L32.4,31.51C31.67,30.78,30.15,28.56,31.17,24.61Z"/><path id="_Path_16" data-name="&lt;Path&gt;" class="cls-4" d="M26.32,3.2a2.23,2.23,0,0,1,2,2.14l.61,10.85c.19,3.34,1.6,4.84,2.27,8.42s.5,3.42,1.23,4.15l6.1,6.1-7,8.08-4.06-3.76a10.59,10.59,0,0,1-2.08-2.63h0A10.73,10.73,0,0,1,24,31.32v-26A2.14,2.14,0,0,1,26.32,3.2Z"/><path id="_Path_17" data-name="&lt;Path&gt;" class="cls-4" d="M24,9.26A1.46,1.46,0,0,1,25.46,7.8h0c.76,0,1.11.55,1.16,1.31l.57,10.56"/><path id="_Path_18" data-name="&lt;Path&gt;" class="cls-5" d="M44.63,38.37l-6.25-5a1,1,0,0,0-1.35.09l-7.61,8a1,1,0,0,0-.08,1.29l1.44,1.92a1,1,0,0,0,.8.4H44a1,1,0,0,0,1-1V39.14A1,1,0,0,0,44.63,38.37Z"/><path id="_Path_19" data-name="&lt;Path&gt;" class="cls-6" d="M35.14,35.39l1.89-2a1,1,0,0,1,1.35-.09l6.25,5a1,1,0,0,1,.37.77v4.21Z"/><path id="_Path_20" data-name="&lt;Path&gt;" class="cls-4" d="M44.63,38.37l-6.25-5a1,1,0,0,0-1.35.09l-7.61,8a1,1,0,0,0-.08,1.29l1.44,1.92a1,1,0,0,0,.8.4H44a1,1,0,0,0,1-1V39.14A1,1,0,0,0,44.63,38.37Z"/></svg>