<svg id="Icons" xmlns="http://www.w3.org/2000/svg" viewBox="0 0 48 48"><defs><style>.cls-1{fill:#ffda8f;}.cls-2{fill:#ffbe3d;}.cls-3{fill:#45413c;opacity:0.15;}.cls-4{fill:#ffe9bd;}.cls-5{fill:none;stroke:#45413c;stroke-linecap:round;stroke-linejoin:round;}</style></defs><title>395-ear</title><g id="_Group_" data-name="&lt;Group&gt;"><path class="cls-1" d="M25.7,3.16A10.59,10.59,0,0,0,15.11,13.74V34.52a5,5,0,0,0,5,5,6.15,6.15,0,0,0,5.6-3.61,12.11,12.11,0,0,1,4-4.84,19.52,19.52,0,0,0,8.1-15.84A12.06,12.06,0,0,0,25.7,3.16Z"/><g id="_Group_2" data-name="&lt;Group&gt;"><path id="_Path_" data-name="&lt;Path&gt;" class="cls-2" d="M25.86,11.5a7.72,7.72,0,0,1,7.58,6.29v0a18.69,18.69,0,0,0,.14-2.11,7.72,7.72,0,0,0-7.72-7.72,6.58,6.58,0,0,0-6.58,6.57v3.58A6.58,6.58,0,0,1,25.86,11.5Z"/></g><ellipse id="_Ellipse_" data-name="&lt;Ellipse&gt;" class="cls-3" cx="24" cy="45.21" rx="13.7" ry="1.79"/><path class="cls-4" d="M25.7,3.16A10.59,10.59,0,0,0,15.11,13.74v3.65A10.59,10.59,0,0,1,25.7,6.81,12,12,0,0,1,37.63,17.28a17.7,17.7,0,0,0,.12-2.07h0A12.06,12.06,0,0,0,25.7,3.16Z"/><path class="cls-5" d="M25.7,3.16A10.59,10.59,0,0,0,15.11,13.74V34.52a5,5,0,0,0,5,5,6.15,6.15,0,0,0,5.6-3.61,12.11,12.11,0,0,1,4-4.84,19.52,19.52,0,0,0,8.1-15.84A12.06,12.06,0,0,0,25.7,3.16Z"/><path id="_Path_2" data-name="&lt;Path&gt;" class="cls-2" d="M21.66,19.84a2.39,2.39,0,0,0-2.38,2.38v2.24a2.39,2.39,0,1,1,4.77,0V22.22A2.39,2.39,0,0,0,21.66,19.84Z"/><path id="_Path_3" data-name="&lt;Path&gt;" class="cls-5" d="M21.66,19.84a2.39,2.39,0,0,1,2.39,2.38v2.39a2.39,2.39,0,0,1-4.77,0V22.22A2.39,2.39,0,0,1,21.66,19.84Z"/><path id="_Path_4" data-name="&lt;Path&gt;" class="cls-5" d="M19.28,22.22V14.5a6.58,6.58,0,0,1,6.58-6.57,7.72,7.72,0,0,1,7.72,7.72,18.16,18.16,0,0,1-1.79,7.76"/><path id="_Path_5" data-name="&lt;Path&gt;" class="cls-5" d="M24.64,14.48c2.49,0,4.17,1,4.17,4.76"/></g></svg>