<svg id="Icons" xmlns="http://www.w3.org/2000/svg" viewBox="0 0 48 48"><defs><style>.cls-1{fill:#45413c;opacity:0.15;}.cls-2{fill:#fff;}.cls-3{fill:#e0e0e0;}.cls-4{fill:none;stroke:#45413c;stroke-linecap:round;stroke-linejoin:round;}.cls-5{fill:#656769;}.cls-6{fill:#525252;}.cls-7{fill:#87898c;}</style></defs><title>396-eyes</title><g id="_Group_" data-name="&lt;Group&gt;"><ellipse id="_Ellipse_" data-name="&lt;Ellipse&gt;" class="cls-1" cx="24" cy="45.21" rx="17.87" ry="1.79"/><ellipse id="_Path_" data-name="&lt;Path&gt;" class="cls-2" cx="11.49" cy="23.73" rx="8.94" ry="12.49"/><path id="_Path_2" data-name="&lt;Path&gt;" class="cls-3" d="M11.49,14c4.73,0,8.59,4.69,8.9,10.61,0-.28,0-.56,0-.84,0-6.9-4-12.5-8.94-12.5s-8.94,5.6-8.94,12.5c0,.28,0,.56,0,.84C2.89,18.65,6.76,14,11.49,14Z"/><ellipse id="_Path_3" data-name="&lt;Path&gt;" class="cls-4" cx="11.49" cy="23.73" rx="8.94" ry="12.49"/><circle id="_Path_4" data-name="&lt;Path&gt;" class="cls-5" cx="8.46" cy="23.91" r="5.91"/><path id="_Path_5" data-name="&lt;Path&gt;" class="cls-6" d="M8.46,27.33a5.9,5.9,0,0,1-5.77-4.66,5.61,5.61,0,0,0-.14,1.24,5.91,5.91,0,1,0,11.82,0,5.61,5.61,0,0,0-.14-1.24A5.9,5.9,0,0,1,8.46,27.33Z"/><circle id="_Path_6" data-name="&lt;Path&gt;" class="cls-4" cx="8.46" cy="23.91" r="5.91"/><ellipse id="_Path_7" data-name="&lt;Path&gt;" class="cls-7" cx="8.46" cy="20.04" rx="1.54" ry="0.84"/><ellipse id="_Path_8" data-name="&lt;Path&gt;" class="cls-2" cx="35.95" cy="23.73" rx="8.94" ry="12.49"/><path id="_Path_9" data-name="&lt;Path&gt;" class="cls-3" d="M36,14c4.73,0,8.59,4.69,8.9,10.61q0-.42,0-.84c0-6.9-4-12.5-8.93-12.5S27,16.83,27,23.73c0,.28,0,.56,0,.84C27.35,18.65,31.22,14,36,14Z"/><ellipse id="_Path_10" data-name="&lt;Path&gt;" class="cls-4" cx="35.95" cy="23.73" rx="8.94" ry="12.49"/><circle id="_Path_11" data-name="&lt;Path&gt;" class="cls-5" cx="32.92" cy="23.91" r="5.91"/><path id="_Path_12" data-name="&lt;Path&gt;" class="cls-6" d="M32.92,27.33a5.9,5.9,0,0,1-5.77-4.66A5.61,5.61,0,0,0,27,23.91a5.91,5.91,0,1,0,11.82,0,5.61,5.61,0,0,0-.14-1.24A5.9,5.9,0,0,1,32.92,27.33Z"/><circle id="_Path_13" data-name="&lt;Path&gt;" class="cls-4" cx="32.92" cy="23.91" r="5.91"/><ellipse id="_Path_14" data-name="&lt;Path&gt;" class="cls-7" cx="32.92" cy="20.04" rx="1.54" ry="0.84"/></g></svg>