<svg id="Icons" xmlns="http://www.w3.org/2000/svg" viewBox="0 0 48 48"><defs><style>.cls-1{fill:#45413c;opacity:0.15;}.cls-2{fill:#ff6196;}.cls-3{fill:#e0366f;}.cls-4{fill:none;stroke:#45413c;stroke-linecap:round;stroke-linejoin:round;}.cls-5{fill:#ff87af;}</style></defs><title>400-kiss-mark</title><g id="_Group_" data-name="&lt;Group&gt;"><ellipse id="_Ellipse_" data-name="&lt;Ellipse&gt;" class="cls-1" cx="24" cy="44.95" rx="15.69" ry="2.05"/><path id="_Path_" data-name="&lt;Path&gt;" class="cls-2" d="M29.81,24.23a12.09,12.09,0,0,1-5.25,3.29,12.16,12.16,0,0,1-6.18.42C14,27,9.5,27.85,8,32.1c4.38,3.63,11.68,7.17,19.63,4.59s11.15-9.27,13.22-15C37.16,18.94,32.92,20.81,29.81,24.23Z"/><path class="cls-3" d="M19.43,31.15a12.24,12.24,0,0,0,6.17-.42,12.12,12.12,0,0,0,5.25-3.29c2.6-2.85,6-4.62,9.19-3.53.31-.74.59-1.48.85-2.2-3.73-2.77-8-.9-11.08,2.52a12.09,12.09,0,0,1-5.25,3.29,12.16,12.16,0,0,1-6.18.42C14,27,9.5,27.85,8,32.1c.59.49,1.24,1,1.94,1.46C11.94,30.84,15.71,30.37,19.43,31.15Z"/><path id="_Path_2" data-name="&lt;Path&gt;" class="cls-4" d="M29.81,24.23a12.09,12.09,0,0,1-5.25,3.29,12.16,12.16,0,0,1-6.18.42C14,27,9.5,27.85,8,32.1c4.38,3.63,11.68,7.17,19.63,4.59s11.15-9.27,13.22-15C37.16,18.94,32.92,20.81,29.81,24.23Z"/><path id="_Path_3" data-name="&lt;Path&gt;" class="cls-2" d="M26.12,7.39a3.07,3.07,0,0,0-2.54.6c-1.24,1-2.4,2.92-4.12,3.47s-3.8-.33-5.38-.39a3.08,3.08,0,0,0-2.41,1C7.07,17,4.27,22.22,5.42,28.45c3.86-.55,7.56-3.26,10-6.31a1.69,1.69,0,0,1,1.85-.5,9.08,9.08,0,0,0,9.76-3.22,1.68,1.68,0,0,1,1.81-.7c3.81,1.06,8.45,1.1,11.93-.74C38.07,11.26,32.72,8.65,26.12,7.39Z"/><path id="_Path_4" data-name="&lt;Path&gt;" class="cls-5" d="M12.61,15.9a3.08,3.08,0,0,1,2.4-1c1.58.06,3.66.95,5.39.4s2.88-2.51,4.12-3.48a3.07,3.07,0,0,1,2.54-.6c5.16,1,9.54,2.83,12.51,6.3A10.45,10.45,0,0,0,40.79,17c-2.72-5.72-8.07-8.33-14.67-9.59a3.07,3.07,0,0,0-2.54.6c-1.24,1-2.4,2.92-4.12,3.47s-3.8-.33-5.38-.39a3.08,3.08,0,0,0-2.41,1C7.07,17,4.27,22.22,5.42,28.45l.74-.15C6.54,23.76,9,19.72,12.61,15.9Z"/><path id="_Path_5" data-name="&lt;Path&gt;" class="cls-4" d="M26.12,7.39a3.07,3.07,0,0,0-2.54.6c-1.24,1-2.4,2.92-4.12,3.47s-3.8-.33-5.38-.39a3.08,3.08,0,0,0-2.41,1C7.07,17,4.27,22.22,5.42,28.45c3.86-.55,7.56-3.26,10-6.31a1.69,1.69,0,0,1,1.85-.5,9.08,9.08,0,0,0,9.76-3.22,1.68,1.68,0,0,1,1.81-.7c3.81,1.06,8.45,1.1,11.93-.74C38.07,11.26,32.72,8.65,26.12,7.39Z"/></g></svg>