<svg id="Icons" xmlns="http://www.w3.org/2000/svg" viewBox="0 0 48 48"><defs><style>.cls-1{fill:#45413c;opacity:0.15;}.cls-2{fill:#bf8256;}.cls-2,.cls-3,.cls-6,.cls-7{stroke:#45413c;stroke-linecap:round;stroke-linejoin:round;}.cls-3{fill:#00b8f0;}.cls-4{fill:#ff6242;}.cls-5{fill:#ff866e;}.cls-6{fill:none;}.cls-7{fill:#c0dceb;}</style></defs><title>401-heart-with-arrow</title><g id="_Group_" data-name="&lt;Group&gt;"><ellipse id="_Ellipse_" data-name="&lt;Ellipse&gt;" class="cls-1" cx="25" cy="45.5" rx="9.5" ry="1.5"/><g id="_Group_2" data-name="&lt;Group&gt;"><g id="_Group_3" data-name="&lt;Group&gt;"><rect id="_Rectangle_" data-name="&lt;Rectangle&gt;" class="cls-2" x="34.25" y="9.19" width="9.92" height="3.31" transform="translate(3.56 30.45) rotate(-44.28)"/><path id="_Path_" data-name="&lt;Path&gt;" class="cls-3" d="M41.15,3.93a.83.83,0,0,0-1.4-.53L37.23,5.85a3.66,3.66,0,0,0-.36,5L41.61,6.2A11.44,11.44,0,0,1,41.15,3.93Z"/><path id="_Path_2" data-name="&lt;Path&gt;" class="cls-3" d="M46.17,9.08a.83.83,0,0,1,.5,1.42L44.15,13a3.63,3.63,0,0,1-5,.23l4.73-4.61A12,12,0,0,0,46.17,9.08Z"/></g><g id="_Group_4" data-name="&lt;Group&gt;"><path id="_Path_3" data-name="&lt;Path&gt;" class="cls-4" d="M21.19,18a8.25,8.25,0,0,0-9.8-6.36C5.74,12.81,4.51,19,5.45,23.43,8,35.19,20.74,40.39,25,41.81a2.45,2.45,0,0,0,2.44-.52c3.29-3,12.87-13,10.37-24.73C36.85,12.1,33.22,7,27.56,8.17A8.28,8.28,0,0,0,21.19,18Z"/><path id="_Path_4" data-name="&lt;Path&gt;" class="cls-5" d="M28.83,12.13a8.68,8.68,0,0,0-6.69,6.69.82.82,0,0,1-1.46.31,8.69,8.69,0,0,0-8.83-3.4c-4,.86-5.93,4.13-6.42,7.6-.91-4.45.34-10.53,6-11.72A8.25,8.25,0,0,1,21.19,18a8.28,8.28,0,0,1,6.37-9.8C33.18,7,36.79,12,37.77,16.47,35.92,13.49,32.87,11.27,28.83,12.13Z"/><path id="_Path_5" data-name="&lt;Path&gt;" class="cls-6" d="M21.19,18a8.25,8.25,0,0,0-9.8-6.36C5.74,12.81,4.51,19,5.45,23.43,8,35.19,20.74,40.39,25,41.81a2.45,2.45,0,0,0,2.44-.52c3.29-3,12.87-13,10.37-24.73C36.85,12.1,33.22,7,27.56,8.17A8.28,8.28,0,0,0,21.19,18Z"/></g><g id="_Group_5" data-name="&lt;Group&gt;"><path id="_Path_6" data-name="&lt;Path&gt;" class="cls-7" d="M8.37,41.84l4.34-1.39a1.23,1.23,0,0,0,.51-2L11.4,36.55A1.23,1.23,0,0,0,9.35,37l-1.5,4.31A.42.42,0,0,0,8.37,41.84Z"/><path class="cls-2" d="M21.7,28.15a4.62,4.62,0,0,1-2-.22l-8.57,8.36,2.31,2.37,8.77-8.56A3.93,3.93,0,0,1,21.7,28.15Z"/></g><path id="_Path_7" data-name="&lt;Path&gt;" class="cls-6" d="M18.39,26.57c0,1,1.55,1.74,3.31,1.58,0,2.12,2.24,4.48,3.51,3.73"/><path id="_Path_8" data-name="&lt;Path&gt;" class="cls-6" d="M6.45,10.37a6.62,6.62,0,0,0-5.14,7.82"/><path id="_Path_9" data-name="&lt;Path&gt;" class="cls-6" d="M7.22,7.51A3.72,3.72,0,0,0,2.38,9.58"/></g></g></svg>