<svg id="Icons" xmlns="http://www.w3.org/2000/svg" viewBox="0 0 48 48"><defs><style>.cls-1{fill:#fcd;stroke:#ffb0ca;}.cls-1,.cls-5{stroke-linecap:round;stroke-linejoin:round;}.cls-2{fill:#ffe5ee;opacity:0.7;}.cls-3{fill:#ff6196;}.cls-4{fill:#ff87af;}.cls-5{fill:none;stroke:#45413c;}</style></defs><title>402-beating-heart</title><g id="_Group_" data-name="&lt;Group&gt;"><path id="_Path_" data-name="&lt;Path&gt;" class="cls-1" d="M37.91,13.32a4.08,4.08,0,0,0-4.84-3.12A1.13,1.13,0,1,1,32.59,8a6.31,6.31,0,0,1,7.52,4.84,1.13,1.13,0,1,1-2.2.48Z"/><path id="_Path_2" data-name="&lt;Path&gt;" class="cls-1" d="M42.54,11.92a8.3,8.3,0,0,0-9.87-6.35,1.13,1.13,0,1,1-.47-2.21,10.57,10.57,0,0,1,12.55,8.09,1.13,1.13,0,1,1-2.21.47Z"/><path id="_Path_3" data-name="&lt;Path&gt;" class="cls-1" d="M10.09,13.32a4.08,4.08,0,0,1,4.84-3.12A1.13,1.13,0,0,0,15.41,8a6.31,6.31,0,0,0-7.52,4.84,1.13,1.13,0,0,0,2.2.48Z"/><path id="_Path_4" data-name="&lt;Path&gt;" class="cls-1" d="M5.46,11.92a8.3,8.3,0,0,1,9.87-6.35,1.13,1.13,0,1,0,.47-2.21A10.57,10.57,0,0,0,3.25,11.45a1.13,1.13,0,0,0,2.21.47Z"/><ellipse id="_Ellipse_" data-name="&lt;Ellipse&gt;" class="cls-2" cx="24" cy="44.5" rx="11.5" ry="1.5"/><g id="_Group_2" data-name="&lt;Group&gt;"><path id="_Path_5" data-name="&lt;Path&gt;" class="cls-3" d="M23.21,39a1.29,1.29,0,0,0,1.58,0c2.55-1.89,10.43-8.1,11.73-13.49,1.55-6.45-2.41-10.42-6.26-10.42a7.86,7.86,0,0,0-5.75,3.06.66.66,0,0,1-1,0,7.86,7.86,0,0,0-5.75-3.06c-3.85,0-7.81,4-6.26,10.42C12.78,30.9,20.66,37.11,23.21,39Z"/><path id="_Path_6" data-name="&lt;Path&gt;" class="cls-4" d="M30.26,15.09a7.86,7.86,0,0,0-5.75,3.06.66.66,0,0,1-1,0,7.86,7.86,0,0,0-5.75-3.06c-3.85,0-7.81,4-6.26,10.42A12,12,0,0,0,13.06,29c-.08-.22-.18-.44-.24-.66-1.38-5.18,2.16-8.36,5.59-8.36A8.06,8.06,0,0,1,24,22.32a8.06,8.06,0,0,1,5.59-2.39c3.43,0,7,3.18,5.59,8.36-.06.22-.16.44-.24.66a12.1,12.1,0,0,0,1.58-3.44C38.07,19.05,34.11,15.09,30.26,15.09Z"/><path id="_Path_7" data-name="&lt;Path&gt;" class="cls-5" d="M23.21,39a1.29,1.29,0,0,0,1.58,0c2.55-1.89,10.43-8.1,11.73-13.49,1.55-6.45-2.41-10.42-6.26-10.42a7.86,7.86,0,0,0-5.75,3.06.66.66,0,0,1-1,0,7.86,7.86,0,0,0-5.75-3.06c-3.85,0-7.81,4-6.26,10.42C12.78,30.9,20.66,37.11,23.21,39Z"/></g></g></svg>