<svg id="Icons" xmlns="http://www.w3.org/2000/svg" viewBox="0 0 48 48"><defs><style>.cls-1{fill:#45413c;opacity:0.15;}.cls-2{fill:#ff6196;}.cls-3{fill:#ff87af;}.cls-4{fill:none;}.cls-4,.cls-5,.cls-8{stroke:#45413c;stroke-linecap:round;stroke-linejoin:round;}.cls-5,.cls-6{fill:#ffe500;}.cls-7,.cls-8{fill:#ebcb00;}.cls-9{fill:#fff48c;}</style></defs><title>406-heart-with-ribbon</title><g id="_Group_" data-name="&lt;Group&gt;"><ellipse id="_Ellipse_" data-name="&lt;Ellipse&gt;" class="cls-1" cx="24" cy="44.31" rx="12.97" ry="1.69"/><path id="_Path_" data-name="&lt;Path&gt;" class="cls-2" d="M24,11.1a8.93,8.93,0,0,1,8.93-8.93c6.25,0,8.93,6.23,8.93,11.17,0,13-12.35,21.36-16.51,23.81a2.66,2.66,0,0,1-2.7,0C18.49,34.7,6.14,26.33,6.14,13.34c0-4.94,2.68-11.17,8.93-11.17A8.93,8.93,0,0,1,24,11.1Z"/><path id="_Path_2" data-name="&lt;Path&gt;" class="cls-3" d="M14.62,6.64a9.39,9.39,0,0,1,8.58,5.57.88.88,0,0,0,1.6,0,9.39,9.39,0,0,1,8.58-5.57c4.46,0,7.19,3,8.48,6.59,0-4.91-2.72-11.06-8.93-11.06A8.93,8.93,0,0,0,24,11.1a8.93,8.93,0,0,0-8.93-8.93c-6.21,0-8.89,6.15-8.93,11.06C7.43,9.67,10.16,6.64,14.62,6.64Z"/><path id="_Path_3" data-name="&lt;Path&gt;" class="cls-4" d="M24,11.1a8.93,8.93,0,0,1,8.93-8.93c6.25,0,8.93,6.23,8.93,11.17,0,13-12.35,21.36-16.51,23.81a2.66,2.66,0,0,1-2.7,0C18.49,34.7,6.14,26.33,6.14,13.34c0-4.94,2.68-11.17,8.93-11.17A8.93,8.93,0,0,1,24,11.1Z"/><path id="_Path_4" data-name="&lt;Path&gt;" class="cls-5" d="M7.18,19.75a24.73,24.73,0,0,0,3.31,6.5,102.88,102.88,0,0,0,13.7.85,105,105,0,0,0,13.28-.79,24.71,24.71,0,0,0,3.33-6.49,95.46,95.46,0,0,1-16.61,1.31A94.48,94.48,0,0,1,7.18,19.75Z"/><g id="_Group_2" data-name="&lt;Group&gt;"><g id="_Group_3" data-name="&lt;Group&gt;"><path id="_Path_5" data-name="&lt;Path&gt;" class="cls-6" d="M12,25.36s-3.87,1.42-4.12,7.11c0,.66.71,1,1.07.52A3.26,3.26,0,0,1,10.7,31.7,13,13,0,0,0,12.83,35a.56.56,0,0,0,1-.46,17.44,17.44,0,0,1,1.79-8.17Z"/><path id="_Path_6" data-name="&lt;Path&gt;" class="cls-7" d="M12,25.36A5.45,5.45,0,0,0,10.3,26.5a5.59,5.59,0,0,0,4.58,1.6,17.22,17.22,0,0,1,.72-1.71Z"/><path id="_Path_7" data-name="&lt;Path&gt;" class="cls-4" d="M12,25.36s-3.87,1.42-4.12,7.11c0,.66.71,1,1.07.52A3.26,3.26,0,0,1,10.7,31.7,13,13,0,0,0,12.83,35a.56.56,0,0,0,1-.46,17.44,17.44,0,0,1,1.79-8.17Z"/></g><g id="_Group_4" data-name="&lt;Group&gt;"><path id="_Path_8" data-name="&lt;Path&gt;" class="cls-6" d="M18.16,23.63s4.05-.8,7.22,3.93c.36.55-.09,1.24-.65,1a3.3,3.3,0,0,0-2.18-.19,13,13,0,0,1-.09,3.94.56.56,0,0,1-1.09.12,17.28,17.28,0,0,0-5.77-6Z"/><path id="_Path_9" data-name="&lt;Path&gt;" class="cls-7" d="M18.16,23.63a5.39,5.39,0,0,1,2,.09,5.6,5.6,0,0,1-3.08,3.76,15.83,15.83,0,0,0-1.51-1.09Z"/><path id="_Path_10" data-name="&lt;Path&gt;" class="cls-4" d="M18.16,23.63s4.05-.8,7.22,3.93c.36.55-.09,1.24-.65,1a3.3,3.3,0,0,0-2.18-.19,13,13,0,0,1-.09,3.94.56.56,0,0,1-1.09.12,17.28,17.28,0,0,0-5.77-6Z"/></g><path id="_Path_11" data-name="&lt;Path&gt;" class="cls-8" d="M25.82,18.92C25.09,22.71,16.74,24,16.74,24l-1.55-1.88,8.34-7.72Z"/><g id="_Group_5" data-name="&lt;Group&gt;"><path id="_Path_12" data-name="&lt;Path&gt;" class="cls-6" d="M15.19,22.15s2.36-8.63,7-8.49a1.57,1.57,0,0,1,1.32.77l2.29,4.49C21.52,17.3,16.74,24,16.74,24Z"/><path id="_Path_13" data-name="&lt;Path&gt;" class="cls-9" d="M23.29,15.66c-4-.11-6.28,6.13-6.87,8l-1.23-1.49s2.36-8.63,7-8.49a1.57,1.57,0,0,1,1.32.77l.9,1.75A1.66,1.66,0,0,0,23.29,15.66Z"/><path id="_Path_14" data-name="&lt;Path&gt;" class="cls-4" d="M15.19,22.15s2.36-8.63,7-8.49a1.57,1.57,0,0,1,1.32.77l2.29,4.49C21.52,17.3,16.74,24,16.74,24Z"/></g><path id="_Path_15" data-name="&lt;Path&gt;" class="cls-8" d="M3,25.31C5.59,28.17,13.41,25,13.41,25l.35-2.41L2.61,20.29Z"/><g id="_Group_6" data-name="&lt;Group&gt;"><path id="_Path_16" data-name="&lt;Path&gt;" class="cls-6" d="M13.76,22.55s-6.5-6.14-10.42-3.61a1.6,1.6,0,0,0-.73,1.35l.38,5C5.83,21.7,13.41,25,13.41,25Z"/><path id="_Path_17" data-name="&lt;Path&gt;" class="cls-9" d="M3.46,21.22c3.34-2.16,8.55,2,10,3.25l.28-1.92s-6.5-6.14-10.42-3.61a1.6,1.6,0,0,0-.73,1.35l.15,2A1.63,1.63,0,0,1,3.46,21.22Z"/><path id="_Path_18" data-name="&lt;Path&gt;" class="cls-4" d="M13.76,22.55s-6.5-6.14-10.42-3.61a1.6,1.6,0,0,0-.73,1.35l.38,5C5.83,21.7,13.41,25,13.41,25Z"/></g><g id="_Group_7" data-name="&lt;Group&gt;"><ellipse id="_Ellipse_2" data-name="&lt;Ellipse&gt;" class="cls-6" cx="14.67" cy="23.07" rx="4.2" ry="3.7" transform="translate(-5.68 4.81) rotate(-15.65)"/><path id="_Path_19" data-name="&lt;Path&gt;" class="cls-9" d="M14.14,21.16a7.44,7.44,0,0,1,4.24,0,4.12,4.12,0,0,0-4.71-1.65,4.13,4.13,0,0,0-3.16,3.86A7.45,7.45,0,0,1,14.14,21.16Z"/><ellipse id="_Ellipse_3" data-name="&lt;Ellipse&gt;" class="cls-4" cx="14.67" cy="23.07" rx="4.2" ry="3.7" transform="translate(-5.68 4.81) rotate(-15.65)"/></g></g></g></svg>