<svg id="Icons" xmlns="http://www.w3.org/2000/svg" viewBox="0 0 48 48"><defs><style>.cls-1{fill:#fcd;stroke:#ffb0ca;}.cls-1,.cls-5{stroke-linecap:round;stroke-linejoin:round;}.cls-2{fill:#ffe5ee;opacity:0.7;}.cls-3{fill:#ff6196;}.cls-4{fill:#ff87af;}.cls-5{fill:none;stroke:#45413c;}</style></defs><title>407-revolving-hearts</title><g id="_Group_" data-name="&lt;Group&gt;"><path id="_Path_" data-name="&lt;Path&gt;" class="cls-1" d="M4,20a.89.89,0,0,0,1.36-1,3,3,0,0,1-.07-1.15c.63-4.44,11.43-6.6,24.14-4.81a.5.5,0,0,0,.55-.39.49.49,0,0,0-.35-.57,58,58,0,0,0-7-1.43C11,9.09,1.1,11.06.53,15.12.3,16.74,1.6,18.45,4,20Z"/><ellipse id="_Ellipse_" data-name="&lt;Ellipse&gt;" class="cls-2" cx="20.61" cy="41.62" rx="8.26" ry="1.38"/><g id="_Group_2" data-name="&lt;Group&gt;"><path id="_Path_2" data-name="&lt;Path&gt;" class="cls-3" d="M34.13,11.92a4.06,4.06,0,0,1,4.06-4.06c2.85,0,4.06,2.84,4.06,5.08,0,5.91-5.61,9.71-7.5,10.82a1.18,1.18,0,0,1-1.23,0C31.63,22.65,26,18.85,26,12.94c0-2.24,1.22-5.08,4.06-5.08A4.06,4.06,0,0,1,34.13,11.92Z"/><path id="_Path_3" data-name="&lt;Path&gt;" class="cls-4" d="M29.87,9.89a4.27,4.27,0,0,1,3.9,2.54.4.4,0,0,0,.73,0,4.26,4.26,0,0,1,3.9-2.54,4.07,4.07,0,0,1,3.85,3c0-2.23-1.23-5-4.06-5a4.06,4.06,0,0,0-4.06,4.06,4.06,4.06,0,0,0-4.06-4.06c-2.82,0-4,2.8-4.06,5A4.09,4.09,0,0,1,29.87,9.89Z"/><path id="_Path_4" data-name="&lt;Path&gt;" class="cls-5" d="M34.13,11.92a4.06,4.06,0,0,1,4.06-4.06c2.85,0,4.06,2.84,4.06,5.08,0,5.91-5.61,9.71-7.5,10.82a1.18,1.18,0,0,1-1.23,0C31.63,22.65,26,18.85,26,12.94c0-2.24,1.22-5.08,4.06-5.08A4.06,4.06,0,0,1,34.13,11.92Z"/></g><g id="_Group_3" data-name="&lt;Group&gt;"><path id="_Path_5" data-name="&lt;Path&gt;" class="cls-3" d="M20.4,20.79a5.46,5.46,0,0,1,5.46-5.46c3.82,0,5.46,3.81,5.46,6.82,0,7.94-7.55,13.06-10.09,14.55a1.63,1.63,0,0,1-1.65,0C17,35.21,9.49,30.09,9.49,22.15c0-3,1.63-6.82,5.45-6.82A5.45,5.45,0,0,1,20.4,20.79Z"/><path id="_Path_6" data-name="&lt;Path&gt;" class="cls-4" d="M14.67,18.06a5.73,5.73,0,0,1,5.24,3.4.54.54,0,0,0,1,0,5.75,5.75,0,0,1,5.24-3.4c2.73,0,4.4,1.85,5.19,4,0-3-1.66-6.76-5.46-6.76a5.46,5.46,0,0,0-5.46,5.46,5.45,5.45,0,0,0-5.46-5.46c-3.79,0-5.43,3.75-5.45,6.76C10.27,19.91,11.94,18.06,14.67,18.06Z"/><path id="_Path_7" data-name="&lt;Path&gt;" class="cls-5" d="M20.4,20.79a5.46,5.46,0,0,1,5.46-5.46c3.82,0,5.46,3.81,5.46,6.82,0,7.94-7.55,13.06-10.09,14.55a1.63,1.63,0,0,1-1.65,0C17,35.21,9.49,30.09,9.49,22.15c0-3,1.63-6.82,5.45-6.82A5.45,5.45,0,0,1,20.4,20.79Z"/></g><path id="_Path_8" data-name="&lt;Path&gt;" class="cls-1" d="M44,22.72a.89.89,0,0,0-1.36,1,3,3,0,0,1,.07,1.16c-.63,4.44-11.43,6.59-24.14,4.81A.48.48,0,0,0,18,30a.49.49,0,0,0,.35.57,58,58,0,0,0,7,1.42c11.61,1.63,21.47-.33,22-4.39C47.7,26,46.4,24.29,44,22.72Z"/></g></svg>