<svg id="Icons" xmlns="http://www.w3.org/2000/svg" viewBox="0 0 48 48"><defs><style>.cls-1{fill:#45413c;opacity:0.15;}.cls-2,.cls-5{fill:#fff;}.cls-3{fill:#f0f0f0;}.cls-4{fill:none;}.cls-4,.cls-5{stroke:#45413c;stroke-linecap:round;stroke-linejoin:round;}</style></defs><title>415-thought-balloon</title><g id="_Group_" data-name="&lt;Group&gt;"><ellipse id="_Ellipse_" data-name="&lt;Ellipse&gt;" class="cls-1" cx="27.5" cy="43.5" rx="13.5" ry="1.5"/><g id="_Group_2" data-name="&lt;Group&gt;"><path id="_Path_" data-name="&lt;Path&gt;" class="cls-2" d="M47.5,17.69A13.69,13.69,0,0,0,21.87,11a10.75,10.75,0,1,0-6.36,19.85,10.25,10.25,0,0,0,18.78.51A13.68,13.68,0,0,0,47.5,17.69Z"/><path id="_Path_2" data-name="&lt;Path&gt;" class="cls-3" d="M34.65,27.17A10.73,10.73,0,0,1,15,26.65,11.26,11.26,0,0,1,5.46,20c0,.05,0,.09,0,.13A10.74,10.74,0,0,0,15.51,30.85a10.25,10.25,0,0,0,18.78.51A13.68,13.68,0,0,0,47.48,18.1,14.32,14.32,0,0,1,34.65,27.17Z"/><path id="_Path_3" data-name="&lt;Path&gt;" class="cls-4" d="M47.5,17.69A13.69,13.69,0,0,0,21.87,11a10.75,10.75,0,1,0-6.36,19.85,10.25,10.25,0,0,0,18.78.51A13.68,13.68,0,0,0,47.5,17.69Z"/></g><circle id="_Ellipse_2" data-name="&lt;Ellipse&gt;" class="cls-5" cx="2.46" cy="41.11" r="1.96"/><g id="_Group_3" data-name="&lt;Group&gt;"><circle id="_Ellipse_3" data-name="&lt;Ellipse&gt;" class="cls-2" cx="11.29" cy="37.58" r="3.42"/><path id="_Path_4" data-name="&lt;Path&gt;" class="cls-3" d="M11.29,39.53A4.39,4.39,0,0,1,7.9,37.91a3.4,3.4,0,0,0,6.78,0A4.39,4.39,0,0,1,11.29,39.53Z"/><circle id="_Ellipse_4" data-name="&lt;Ellipse&gt;" class="cls-4" cx="11.29" cy="37.58" r="3.42"/></g></g></svg>