<svg id="Icons" xmlns="http://www.w3.org/2000/svg" viewBox="0 0 48 48"><defs><style>.cls-1{fill:#45413c;opacity:0.15;}.cls-2{fill:#fff;}.cls-2,.cls-5{stroke:#45413c;stroke-linecap:round;stroke-linejoin:round;}.cls-3{fill:#525252;}.cls-4{fill:#656769;}.cls-5{fill:none;}.cls-6{fill:#87898c;}</style></defs><title>418-sunglasses</title><ellipse id="_Ellipse_" data-name="&lt;Ellipse&gt;" class="cls-1" cx="24" cy="41" rx="10.59" ry="1.5"/><path id="_Path_" data-name="&lt;Path&gt;" class="cls-2" d="M41.8,9.85A1.58,1.58,0,0,1,43,8.67l2.37-.55a.2.2,0,0,0,0-.38L43,7.19A1.58,1.58,0,0,1,41.8,6l-.54-2.37a.2.2,0,0,0-.38,0L40.33,6a1.55,1.55,0,0,1-1.18,1.17l-2.36.55a.2.2,0,0,0,0,.38l2.36.55a1.55,1.55,0,0,1,1.18,1.18l.55,2.36a.2.2,0,0,0,.38,0Z"/><path id="_Path_2" data-name="&lt;Path&gt;" class="cls-2" d="M6.47,39.79l2.08-.7a.18.18,0,0,0,.13-.18.2.2,0,0,0-.13-.19l-1.71-.57a.75.75,0,0,1-.49-.49L5.78,36a.2.2,0,0,0-.19-.13.18.18,0,0,0-.18.13l-.57,1.71a.79.79,0,0,1-.5.49l-1.71.57a.2.2,0,0,0-.13.19.18.18,0,0,0,.13.18l1.71.57a.78.78,0,0,1,.5.5l.57,1.71a.18.18,0,0,0,.18.13.2.2,0,0,0,.19-.13Z"/><path id="_Path_3" data-name="&lt;Path&gt;" class="cls-3" d="M24,22.47a1,1,0,0,1,.95.85c.18,1.68.81,5.5,2.8,8.21,2.62,3.56,10.69,2.81,12.62,0a25.65,25.65,0,0,0,3-6.63l.84-.16a1,1,0,0,0,.8-.89L45.36,20a1,1,0,0,0-.72-1,39.7,39.7,0,0,0-10.27-1.33,22.29,22.29,0,0,0-8.83,1.54,3.75,3.75,0,0,1-1.54.34h0a3.75,3.75,0,0,1-1.54-.34,22.31,22.31,0,0,0-8.84-1.54A39.68,39.68,0,0,0,3.36,18.92a1,1,0,0,0-.72,1L3,23.85a1,1,0,0,0,.8.89l.83.16a26,26,0,0,0,3,6.63c1.94,2.81,10,3.56,12.63,0,2-2.71,2.62-6.53,2.8-8.21a1,1,0,0,1,.95-.85Z"/><path id="_Path_4" data-name="&lt;Path&gt;" class="cls-4" d="M2.77,21.42A1,1,0,0,1,3.36,21a40.27,40.27,0,0,1,10.26-1.32,22.12,22.12,0,0,1,8.84,1.54,3.76,3.76,0,0,0,3.08,0,22.12,22.12,0,0,1,8.84-1.54A40.27,40.27,0,0,1,44.64,21a1,1,0,0,1,.59.46L45.36,20a1,1,0,0,0-.72-1,39.68,39.68,0,0,0-10.26-1.33,22.31,22.31,0,0,0-8.84,1.54,3.66,3.66,0,0,1-3.08,0,22.31,22.31,0,0,0-8.84-1.54A39.68,39.68,0,0,0,3.36,18.92a1,1,0,0,0-.72,1Z"/><path id="_Path_5" data-name="&lt;Path&gt;" class="cls-5" d="M24,22.47a1,1,0,0,1,.95.85c.18,1.68.81,5.5,2.8,8.21,2.62,3.56,10.69,2.81,12.62,0a25.86,25.86,0,0,0,3-6.63l.83-.16a1,1,0,0,0,.8-.89L45.36,20a1,1,0,0,0-.72-1,39.68,39.68,0,0,0-10.26-1.33,22.31,22.31,0,0,0-8.84,1.54,3.75,3.75,0,0,1-1.54.34h0a3.75,3.75,0,0,1-1.54-.34,22.31,22.31,0,0,0-8.84-1.54A39.68,39.68,0,0,0,3.36,18.92a1,1,0,0,0-.72,1L3,23.85a1,1,0,0,0,.8.89l.83.16a26,26,0,0,0,3,6.63c1.94,2.81,10,3.56,12.63,0,2-2.71,2.62-6.53,2.8-8.21a1,1,0,0,1,.95-.85Z"/><path id="_Path_6" data-name="&lt;Path&gt;" class="cls-4" d="M6.7,21.35C5.63,23,7.76,29.07,10.05,30.83S17.66,32,18.81,30c1.66-3,2.4-7.19,1.34-8.5s-2.67-1.83-6.62-1.83C9.86,19.64,7.39,20.25,6.7,21.35Z"/><path class="cls-6" d="M14.89,19.66l-1.36,0c-3.67,0-6.13.61-6.83,1.71s0,4.3,1.3,6.76Z"/><path id="_Path_7" data-name="&lt;Path&gt;" class="cls-4" d="M41.3,21.35C42.37,23,40.24,29.07,38,30.83S30.34,32,29.19,30c-1.66-3-2.4-7.19-1.34-8.5s2.67-1.83,6.62-1.83C38.14,19.64,40.6,20.25,41.3,21.35Z"/><path class="cls-6" d="M35.39,19.66l-.92,0c-3.95,0-5.56.52-6.62,1.83-.87,1.08-.53,4.08.54,6.77Z"/><path id="_Path_8" data-name="&lt;Path&gt;" class="cls-5" d="M6.7,21.35C5.63,23,7.76,29.07,10.05,30.83S17.66,32,18.81,30c1.66-3,2.4-7.19,1.34-8.5s-2.67-1.83-6.62-1.83C9.86,19.64,7.39,20.25,6.7,21.35Z"/><path id="_Path_9" data-name="&lt;Path&gt;" class="cls-5" d="M41.3,21.35C42.37,23,40.24,29.07,38,30.83S30.34,32,29.19,30c-1.66-3-2.4-7.19-1.34-8.5s2.67-1.83,6.62-1.83C38.14,19.64,40.6,20.25,41.3,21.35Z"/></svg>