<svg id="Icons" xmlns="http://www.w3.org/2000/svg" viewBox="0 0 48 48"><defs><style>.cls-1{fill:#45413c;opacity:0.15;}.cls-2{fill:#00b8f0;}.cls-3{fill:#4acfff;}.cls-4{fill:none;stroke:#45413c;stroke-linecap:round;stroke-linejoin:round;}.cls-5{fill:#009fd9;}</style></defs><title>420-t-shirt</title><g id="_Group_" data-name="&lt;Group&gt;"><ellipse id="_Ellipse_" data-name="&lt;Ellipse&gt;" class="cls-1" cx="24" cy="45.18" rx="16.4" ry="1.82"/><path id="_Path_" data-name="&lt;Path&gt;" class="cls-2" d="M13.07,44.5a2.43,2.43,0,0,1-2.43-2.43V19.27a.62.62,0,0,0-.91-.55C9,19.13,8.29,19.57,7.6,20A2.37,2.37,0,0,1,4,19.11L2.12,15.22A2.46,2.46,0,0,1,3,12.09a38.61,38.61,0,0,1,42,0,2.44,2.44,0,0,1,.87,3.13L44,19.11A2.37,2.37,0,0,1,40.4,20c-.69-.46-1.4-.9-2.14-1.31a.62.62,0,0,0-.9.55v22.8a2.43,2.43,0,0,1-2.43,2.43Z"/><path class="cls-3" d="M14.89,7.15l.27-.25A38.51,38.51,0,0,0,3,12.09a2.46,2.46,0,0,0-.88,3.13L3,16.94H3a38.32,38.32,0,0,1,13.37-5.46Z"/><path class="cls-3" d="M45,12.09A38.51,38.51,0,0,0,32.84,6.9l.27.25-1.48,4.32A38.32,38.32,0,0,1,45,16.93h0l.84-1.72A2.44,2.44,0,0,0,45,12.09Z"/><path id="_Path_2" data-name="&lt;Path&gt;" class="cls-4" d="M13.07,44.5a2.43,2.43,0,0,1-2.43-2.43V19.27a.62.62,0,0,0-.91-.55C9,19.13,8.29,19.57,7.6,20A2.37,2.37,0,0,1,4,19.11L2.12,15.22A2.46,2.46,0,0,1,3,12.09a38.61,38.61,0,0,1,42,0,2.44,2.44,0,0,1,.87,3.13L44,19.11A2.37,2.37,0,0,1,40.4,20c-.69-.46-1.4-.9-2.14-1.31a.62.62,0,0,0-.9.55v22.8a2.43,2.43,0,0,1-2.43,2.43Z"/><path id="_Path_3" data-name="&lt;Path&gt;" class="cls-2" d="M29.47,3.81,24,9.27l6.05,4.4a.61.61,0,0,0,.92-.26l2.14-6.26Z"/><path id="_Path_4" data-name="&lt;Path&gt;" class="cls-2" d="M18.53,3.81,24,9.27,18,13.67a.61.61,0,0,1-.92-.26L14.89,7.15Z"/><polygon id="_Path_5" data-name="&lt;Path&gt;" class="cls-3" points="31.26 5.45 29.47 3.81 24 9.27 25.99 10.72 31.26 5.45"/><polygon id="_Path_6" data-name="&lt;Path&gt;" class="cls-3" points="22.01 10.72 24 9.27 18.53 3.81 16.74 5.45 22.01 10.72"/><path id="_Path_7" data-name="&lt;Path&gt;" class="cls-4" d="M29.47,3.81,24,9.27l6.05,4.4a.61.61,0,0,0,.92-.26l2.14-6.26Z"/><path id="_Path_8" data-name="&lt;Path&gt;" class="cls-4" d="M18.53,3.81,24,9.27,18,13.67a.61.61,0,0,1-.92-.26L14.89,7.15Z"/><polygon id="_Path_9" data-name="&lt;Path&gt;" class="cls-5" points="18.53 3.81 24 9.27 29.47 3.81 18.53 3.81"/><polygon id="_Path_10" data-name="&lt;Path&gt;" class="cls-2" points="27.21 6.07 20.79 6.07 18.53 3.81 29.47 3.81 27.21 6.07"/><polygon id="_Path_11" data-name="&lt;Path&gt;" class="cls-4" points="18.53 3.81 24 9.27 29.47 3.81 18.53 3.81"/><line id="_Path_12" data-name="&lt;Path&gt;" class="cls-4" x1="24" y1="9.27" x2="24" y2="14.74"/></g></svg>