<svg id="Icons" xmlns="http://www.w3.org/2000/svg" viewBox="0 0 48 48"><defs><style>.cls-1{fill:#45413c;opacity:0.15;}.cls-2{fill:#f7e5c6;}.cls-3{fill:#fff5e3;}.cls-4{fill:#947746;}.cls-4,.cls-7,.cls-9{stroke:#45413c;stroke-linecap:round;stroke-linejoin:round;}.cls-5{fill:#debb7e;}.cls-6{fill:#b89558;}.cls-7{fill:none;}.cls-8{fill:#f0d5a8;}.cls-9{fill:#e8f4fa;}</style></defs><title>426-handbag</title><g id="_Group_" data-name="&lt;Group&gt;"><ellipse id="_Ellipse_" data-name="&lt;Ellipse&gt;" class="cls-1" cx="24" cy="44.13" rx="19.31" ry="1.87"/><path id="_Path_" data-name="&lt;Path&gt;" class="cls-2" d="M14.12,11.68l-.68,8.43h3.12L17,11.7A4.89,4.89,0,0,1,21.85,7h0a4.9,4.9,0,0,1,4.89,4.67l.4,8.41h3.12l-.68-8.43a7.76,7.76,0,0,0-7.73-7.14h0A7.75,7.75,0,0,0,14.12,11.68Z"/><path id="_Path_2" data-name="&lt;Path&gt;" class="cls-3" d="M14.12,14.38a7.75,7.75,0,0,1,5.6-6.84,4.7,4.7,0,0,1,4.26,0,7.75,7.75,0,0,1,5.6,6.84L30,20.11h.22l-.68-8.43a7.75,7.75,0,0,0-15.46,0l-.68,8.43h.22Z"/><path class="cls-4" d="M35.15,20.11H11.24a3.74,3.74,0,0,0-3.5,2.43c-.3.81-.6,1.62-.74,2.1A41.4,41.4,0,0,0,5.24,35l-.17,4.25A3.74,3.74,0,0,0,8.8,43.16H28.88a3.75,3.75,0,0,0,3.74-3.59L32.8,35a41.45,41.45,0,0,1,3-13.93A.71.71,0,0,0,35.15,20.11Z"/><path id="_Path_3" data-name="&lt;Path&gt;" class="cls-5" d="M6.69,25.72A41.72,41.72,0,0,0,5.24,35l-.17,4.25A3.74,3.74,0,0,0,8.8,43.16h19l1.41-17.44Z"/><path id="_Path_4" data-name="&lt;Path&gt;" class="cls-6" d="M28.85,29.84l.33-4.12H6.69c-.37,1.36-.66,2.74-.9,4.12Z"/><path id="_Path_5" data-name="&lt;Path&gt;" class="cls-7" d="M6.69,25.72A41.72,41.72,0,0,0,5.24,35l-.17,4.25A3.74,3.74,0,0,0,8.8,43.16h19l1.41-17.44Z"/><path id="_Path_6" data-name="&lt;Path&gt;" class="cls-5" d="M34.56,20.11a5,5,0,0,1,4.56,3,42.67,42.67,0,0,1,2.06,5.47A36.21,36.21,0,0,1,42.27,36l.13,3.28a3.74,3.74,0,0,1-3.74,3.89H18.59a3.74,3.74,0,0,1-3.74-3.59L14.67,35a41.75,41.75,0,0,0-1.08-7.88c-.24-1-.54-2.65-.79-4.11a2.49,2.49,0,0,1,2.46-2.92Z"/><path id="_Path_7" data-name="&lt;Path&gt;" class="cls-8" d="M13.11,24.77a2.48,2.48,0,0,1,2.15-1.23h19.3a5,5,0,0,1,4.56,3A43.23,43.23,0,0,1,41.18,32a36.31,36.31,0,0,1,1.09,7.42l0,.87a3.73,3.73,0,0,0,.1-1L42.27,36a36.21,36.21,0,0,0-1.09-7.42,42.67,42.67,0,0,0-2.06-5.47,5,5,0,0,0-4.56-3H15.26A2.49,2.49,0,0,0,12.8,23C12.9,23.59,13,24.19,13.11,24.77Z"/><path id="_Path_8" data-name="&lt;Path&gt;" class="cls-7" d="M34.56,20.11a5,5,0,0,1,4.56,3,42.67,42.67,0,0,1,2.06,5.47A36.21,36.21,0,0,1,42.27,36l.13,3.28a3.74,3.74,0,0,1-3.74,3.89H18.59a3.74,3.74,0,0,1-3.74-3.59L14.67,35a41.75,41.75,0,0,0-1.08-7.88c-.24-1-.54-2.65-.79-4.11a2.49,2.49,0,0,1,2.46-2.92Z"/><path id="_Path_9" data-name="&lt;Path&gt;" class="cls-9" d="M21.61,25.1H18.9a2.51,2.51,0,0,1-2.33-1.62l-1.26-3.37h6.23l1.24,3.3A1.25,1.25,0,0,1,21.61,25.1Z"/><path id="_Path_10" data-name="&lt;Path&gt;" class="cls-9" d="M34.69,25.1H32a2.51,2.51,0,0,1-2.33-1.62l-1.26-3.37h6.23l1.23,3.3A1.24,1.24,0,0,1,34.69,25.1Z"/><path id="_Path_11" data-name="&lt;Path&gt;" class="cls-7" d="M14.12,11.68l-.68,8.43h3.12L17,11.7A4.89,4.89,0,0,1,21.85,7h0a4.9,4.9,0,0,1,4.89,4.67l.4,8.41h3.12l-.68-8.43a7.76,7.76,0,0,0-7.73-7.14h0A7.75,7.75,0,0,0,14.12,11.68Z"/><line id="_Path_12" data-name="&lt;Path&gt;" class="cls-7" x1="18.42" y1="20.11" x2="20.29" y2="25.1"/><line id="_Path_13" data-name="&lt;Path&gt;" class="cls-7" x1="31.5" y1="20.11" x2="33.37" y2="25.1"/><path id="_Path_14" data-name="&lt;Path&gt;" class="cls-2" d="M17.23,11.68l-.67,8.43h3.11l.4-8.41A4.9,4.9,0,0,1,25,7h0a4.91,4.91,0,0,1,4.9,4.67l.4,8.41h3.11l-.67-8.43A7.77,7.77,0,0,0,25,4.54h0A7.76,7.76,0,0,0,17.23,11.68Z"/><path id="_Path_15" data-name="&lt;Path&gt;" class="cls-3" d="M17.23,14.38a7.75,7.75,0,0,1,5.61-6.84,4.68,4.68,0,0,1,4.25,0,7.77,7.77,0,0,1,5.61,6.84l.46,5.73h.21l-.67-8.43a7.76,7.76,0,0,0-15.47,0l-.67,8.43h.21Z"/><path id="_Path_16" data-name="&lt;Path&gt;" class="cls-7" d="M17.23,11.68l-.67,8.43h3.11l.4-8.41A4.9,4.9,0,0,1,25,7h0a4.91,4.91,0,0,1,4.9,4.67l.4,8.41h3.11l-.67-8.43A7.77,7.77,0,0,0,25,4.54h0A7.76,7.76,0,0,0,17.23,11.68Z"/></g></svg>