<svg id="Icons" xmlns="http://www.w3.org/2000/svg" viewBox="0 0 48 48"><defs><style>.cls-1{fill:#45413c;opacity:0.15;}.cls-2{fill:#4acfff;}.cls-3{fill:#80ddff;}.cls-4{fill:none;}.cls-4,.cls-7,.cls-8{stroke:#45413c;stroke-linecap:round;stroke-linejoin:round;}.cls-5{fill:#f0f0f0;}.cls-6,.cls-8{fill:#fff;}.cls-7{fill:#bdbec0;stroke-width:1.01px;}</style></defs><title>429-running-shoe</title><ellipse id="_Ellipse_" data-name="&lt;Ellipse&gt;" class="cls-1" cx="26.03" cy="42.83" rx="17.7" ry="1.66"/><path id="_Path_" data-name="&lt;Path&gt;" class="cls-2" d="M31.29,23.25,26.81,9.68A2.63,2.63,0,0,0,24,7.89l-1.85.2a1.09,1.09,0,0,0-.94.78L17.75,20.35Z"/><path id="_Path_2" data-name="&lt;Path&gt;" class="cls-3" d="M26.81,9.68A2.65,2.65,0,0,0,24,7.88l-1.85.21a1.09,1.09,0,0,0-.94.78l-.68,2.24c.13-.42,1.18-.7,1.62-.75l1.85-.2c1.24-.13,3.15.62,3.54,1.8Z"/><path id="_Path_3" data-name="&lt;Path&gt;" class="cls-4" d="M31.29,23.25,26.81,9.68A2.63,2.63,0,0,0,24,7.89l-1.85.2a1.09,1.09,0,0,0-.94.78L17.75,20.35Z"/><path id="_Path_4" data-name="&lt;Path&gt;" class="cls-5" d="M44,40,3,25,9.06,8.4a1.37,1.37,0,0,1,2.29-.47h0A12.86,12.86,0,0,0,22,11.66h0a3.76,3.76,0,0,1,3.16,1.15l10.6,11.24a20.59,20.59,0,0,0,5.84,4.34h0a7.06,7.06,0,0,1,3.49,8.75Z"/><path id="_Path_5" data-name="&lt;Path&gt;" class="cls-6" d="M8.61,11.57a14.45,14.45,0,0,0,11.3,4,4.25,4.25,0,0,1,3.36,1.23L34.69,28.31A22.76,22.76,0,0,0,41,32.8a7.59,7.59,0,0,1,4,4.68l.13-.34a7.06,7.06,0,0,0-3.49-8.75,20.59,20.59,0,0,1-5.84-4.34L25.14,12.81A3.76,3.76,0,0,0,22,11.66,12.86,12.86,0,0,1,11.35,7.93a1.37,1.37,0,0,0-2.29.47L8,11.2A1.64,1.64,0,0,1,8.61,11.57Z"/><path id="_Path_6" data-name="&lt;Path&gt;" class="cls-4" d="M44,40,3,25,9.06,8.4a1.37,1.37,0,0,1,2.29-.47h0A12.86,12.86,0,0,0,22,11.66h0a3.76,3.76,0,0,1,3.16,1.15l10.6,11.24a20.59,20.59,0,0,0,5.84,4.34h0a7.06,7.06,0,0,1,3.49,8.75Z"/><path id="_Path_7" data-name="&lt;Path&gt;" class="cls-7" d="M39.25,41.24,23.4,35.43a24.86,24.86,0,0,1-4.24-2l-3-1.76a2.11,2.11,0,0,0-1.7-.19h0a3.22,3.22,0,0,1-2.1-.05L5,28.7C3.31,28,2.25,27.05,2.55,26.18L3,25,44,40l-.36,1C43.14,42.16,41.38,42,39.25,41.24Z"/><path id="_Path_8" data-name="&lt;Path&gt;" class="cls-2" d="M45.5,34.72a7.31,7.31,0,0,1-.43,2.42L44,40l-11.45-4.2c1-3,2.4-4.37,4.71-4.81a5.16,5.16,0,0,0,3.87-2.87l.44.23A7.08,7.08,0,0,1,45.5,34.72Z"/><path id="_Path_9" data-name="&lt;Path&gt;" class="cls-3" d="M45.5,34.72a7.31,7.31,0,0,1-.43,2.42l-.12.34a7.61,7.61,0,0,0-4-4.68,22.1,22.1,0,0,1-3.17-1.89,5,5,0,0,0,3.36-2.75,7.43,7.43,0,0,1,2.43,1.71A7,7,0,0,1,45.5,34.72Z"/><path id="_Path_10" data-name="&lt;Path&gt;" class="cls-4" d="M45.5,34.72a7.31,7.31,0,0,1-.43,2.42L44,40l-11.45-4.2c1-3,2.4-4.37,4.71-4.81a5.16,5.16,0,0,0,3.87-2.87l.44.23A7.08,7.08,0,0,1,45.5,34.72Z"/><path class="cls-2" d="M16.46,30c2.86-7.79,2.92-9.83.56-12.81-1.54-2-1.51-3.87-.69-6.09a12,12,0,0,1-5-3.12,1.37,1.37,0,0,0-2.29.47L3,25Z"/><path class="cls-3" d="M11.35,7.93a1.37,1.37,0,0,0-2.29.47L8,11.2a1.64,1.64,0,0,1,.58.37A14,14,0,0,0,16,15.36a6.31,6.31,0,0,1,.3-4.31A12,12,0,0,1,11.35,7.93Z"/><path class="cls-4" d="M16.46,30c2.86-7.79,2.92-9.83.56-12.81-1.54-2-1.51-3.87-.69-6.09a12,12,0,0,1-5-3.12,1.37,1.37,0,0,0-2.29.47L3,25Z"/><path class="cls-8" d="M34.05,20a1.11,1.11,0,0,0-1.56-.12L30.2,21.82a1.1,1.1,0,1,0,1.43,1.68l2.29-1.95A1.11,1.11,0,0,0,34.05,20Z"/><path class="cls-8" d="M30,15.55a1.11,1.11,0,0,0-1.56-.12l-2.29,1.95a1.11,1.11,0,1,0,1.43,1.69l2.3-2A1.11,1.11,0,0,0,30,15.55Z"/><path class="cls-8" d="M38.06,24a1.1,1.1,0,0,0-1.55-.12l-1.86,1.58a1.11,1.11,0,0,0,1.43,1.69l1.86-1.59A1.11,1.11,0,0,0,38.06,24Z"/></svg>