<svg id="Icons" xmlns="http://www.w3.org/2000/svg" viewBox="0 0 48 48"><defs><style>.cls-1{fill:#45413c;opacity:0.15;}.cls-2{fill:#f7e5c6;}.cls-3{fill:#f0d5a8;}.cls-4{fill:none;}.cls-4,.cls-5{stroke:#45413c;stroke-linecap:round;stroke-linejoin:round;}.cls-5{fill:#debb7e;}.cls-6{fill:#fff5e3;}</style></defs><title>431-woman’s-sandal</title><ellipse id="_Ellipse_" data-name="&lt;Ellipse&gt;" class="cls-1" cx="24.79" cy="35.53" rx="21.71" ry="1.97"/><path id="_Path_" data-name="&lt;Path&gt;" class="cls-2" d="M2.75,21.3,5,34.17A1,1,0,0,0,6,35h6.61a1,1,0,0,0,1-1V21.3Z"/><path id="_Path_2" data-name="&lt;Path&gt;" class="cls-3" d="M3.24,24H5.9a15.38,15.38,0,0,1,7.71,2.54V21.3H2.75Z"/><path id="_Path_3" data-name="&lt;Path&gt;" class="cls-4" d="M2.75,21.3,5,34.17A1,1,0,0,0,6,35h6.61a1,1,0,0,0,1-1V21.3Z"/><path id="_Path_4" data-name="&lt;Path&gt;" class="cls-5" d="M24.08,31a20.45,20.45,0,0,0,12.18,4h7.62a.49.49,0,0,0,.45-.29l1.3-2.84a.5.5,0,0,0-.46-.71H38A19.11,19.11,0,0,1,27,27.64l-1.9-1.33c-4.81-3.41-8.48-8.69-16.44-9.18H3.25a.5.5,0,0,0-.5.5V21.3h4C13,21.3,19.06,27.25,24.08,31Z"/><path class="cls-2" d="M22.75,30l1.33,1a20.45,20.45,0,0,0,12.18,4h1.05c1.46-3.64,2.48-10.19,2.85-12.81a1.2,1.2,0,0,0-.9-1.32A31.64,31.64,0,0,1,28,16.09a.7.7,0,0,0-1.08.6,20,20,0,0,1-1.44,8.11A29.09,29.09,0,0,1,22.75,30Z"/><path id="_Path_5" data-name="&lt;Path&gt;" class="cls-6" d="M26.47,21.43A49.46,49.46,0,0,0,39,25a1.69,1.69,0,0,1,.71.29c.22-1.27.38-2.37.49-3.14a1.2,1.2,0,0,0-.9-1.32A31.64,31.64,0,0,1,28,16.09a.7.7,0,0,0-1.08.6A19.9,19.9,0,0,1,26.47,21.43Z"/><path class="cls-4" d="M22.75,30l1.33,1a20.45,20.45,0,0,0,12.18,4h1.05c1.46-3.64,2.48-10.19,2.85-12.81a1.2,1.2,0,0,0-.9-1.32A31.64,31.64,0,0,1,28,16.09a.7.7,0,0,0-1.08.6,20,20,0,0,1-1.44,8.11A29.09,29.09,0,0,1,22.75,30Z"/></svg>