<svg id="Icons" xmlns="http://www.w3.org/2000/svg" viewBox="0 0 48 48"><defs><style>.cls-1{fill:#45413c;opacity:0.15;}.cls-2{fill:#ebcb00;}.cls-2,.cls-5,.cls-9{stroke:#45413c;stroke-linecap:round;stroke-linejoin:round;}.cls-3{fill:#ffe500;}.cls-4{fill:#fff48c;}.cls-5{fill:none;}.cls-6,.cls-9{fill:#ff6242;}.cls-7{fill:#e04122;}.cls-8{fill:#ff866e;}.cls-10{fill:#c0dceb;}.cls-11{fill:#e8f4fa;}</style></defs><title>433-crown</title><g id="_Group_" data-name="&lt;Group&gt;"><ellipse id="_Ellipse_" data-name="&lt;Ellipse&gt;" class="cls-1" cx="24" cy="43.5" rx="17" ry="1.5"/><g id="_Group_2" data-name="&lt;Group&gt;"><path id="_Path_" data-name="&lt;Path&gt;" class="cls-2" d="M19,24.5c-1.8-1.73-3.35-6.27-4.53-9.66a.5.5,0,0,0-.94,0C12.35,18.23,10.8,22.77,9,24.5Z"/><path id="_Path_2" data-name="&lt;Path&gt;" class="cls-2" d="M29,24.5c1.8-1.73,3.35-6.27,4.53-9.66a.5.5,0,0,1,.94,0c1.18,3.39,2.73,7.93,4.53,9.66Z"/><g id="_Group_3" data-name="&lt;Group&gt;"><path id="_Path_3" data-name="&lt;Path&gt;" class="cls-3" d="M23.54,11.72a.49.49,0,0,1,.92,0c1.34,3.41,5.36,12.78,9,12.78,3.17,0,6.35-4.48,7.94-7.12a.51.51,0,0,1,.93.3L41.5,32c0,3.59-7.84,6.5-17.5,6.5S6.5,35.59,6.5,32L5.63,17.68a.51.51,0,0,1,.93-.3C8.15,20,11.33,24.5,14.5,24.5,18.18,24.5,22.2,15.13,23.54,11.72Z"/><path id="_Path_4" data-name="&lt;Path&gt;" class="cls-4" d="M12.39,36.86,28.78,20.47a52.56,52.56,0,0,1-4.32-8.75.49.49,0,0,0-.92,0c-1.34,3.41-5.36,12.78-9,12.78-3.17,0-6.35-4.48-7.94-7.12a.51.51,0,0,0-.93.3L6.5,32C6.5,33.93,8.79,35.66,12.39,36.86Z"/><path id="_Path_5" data-name="&lt;Path&gt;" class="cls-5" d="M23.54,11.72a.49.49,0,0,1,.92,0c1.34,3.41,5.36,12.78,9,12.78,3.17,0,6.35-4.48,7.94-7.12a.51.51,0,0,1,.93.3L41.5,32c0,3.59-7.84,6.5-17.5,6.5S6.5,35.59,6.5,32L5.63,17.68a.51.51,0,0,1,.93-.3C8.15,20,11.33,24.5,14.5,24.5,18.18,24.5,22.2,15.13,23.54,11.72Z"/></g><g id="_Group_4" data-name="&lt;Group&gt;"><path id="_Path_6" data-name="&lt;Path&gt;" class="cls-6" d="M27.5,28a3.5,3.5,0,0,0-7,0v2a3.5,3.5,0,0,0,7,0Z"/><path id="_Path_7" data-name="&lt;Path&gt;" class="cls-7" d="M24,32a3.5,3.5,0,0,1-3.5-3.5V30a3.5,3.5,0,0,0,7,0V28.5A3.5,3.5,0,0,1,24,32Z"/><path id="_Path_8" data-name="&lt;Path&gt;" class="cls-8" d="M24,24.5A3.5,3.5,0,0,0,20.5,28v2a1.9,1.9,0,0,0,0,.25,3.48,3.48,0,0,1,6.94,0,1.9,1.9,0,0,0,0-.25V28A3.5,3.5,0,0,0,24,24.5Z"/><path id="_Path_9" data-name="&lt;Path&gt;" class="cls-5" d="M27.5,28a3.5,3.5,0,0,0-7,0v2a3.5,3.5,0,0,0,7,0Z"/></g><circle id="_Ellipse_2" data-name="&lt;Ellipse&gt;" class="cls-9" cx="35.5" cy="29.5" r="2"/><circle id="_Ellipse_3" data-name="&lt;Ellipse&gt;" class="cls-9" cx="12.5" cy="29.5" r="2"/><g id="_Group_5" data-name="&lt;Group&gt;"><path id="_Path_10" data-name="&lt;Path&gt;" class="cls-10" d="M6.5,37c0,3.59,7.84,6.5,17.5,6.5S41.5,40.59,41.5,37V32c0,3.59-7.84,6.5-17.5,6.5S6.5,35.59,6.5,32Z"/><path id="_Path_11" data-name="&lt;Path&gt;" class="cls-11" d="M24,38.5c-9.66,0-17.5-2.91-17.5-6.5v2.5C6.5,38.09,14.34,41,24,41s17.5-2.91,17.5-6.5V32C41.5,35.59,33.66,38.5,24,38.5Z"/><path id="_Path_12" data-name="&lt;Path&gt;" class="cls-5" d="M6.5,37c0,3.59,7.84,6.5,17.5,6.5S41.5,40.59,41.5,37V32c0,3.59-7.84,6.5-17.5,6.5S6.5,35.59,6.5,32Z"/></g><g id="_Group_6" data-name="&lt;Group&gt;"><circle id="_Ellipse_4" data-name="&lt;Ellipse&gt;" class="cls-6" cx="14" cy="12.5" r="2.5"/><path id="_Path_13" data-name="&lt;Path&gt;" class="cls-8" d="M12.23,14.27a2.5,2.5,0,0,1,3.54-3.54Z"/><circle id="_Ellipse_5" data-name="&lt;Ellipse&gt;" class="cls-5" cx="14" cy="12.5" r="2.5"/></g><g id="_Group_7" data-name="&lt;Group&gt;"><circle id="_Ellipse_6" data-name="&lt;Ellipse&gt;" class="cls-6" cx="34" cy="12.5" r="2.5"/><path id="_Path_14" data-name="&lt;Path&gt;" class="cls-8" d="M32.23,14.27a2.5,2.5,0,0,1,3.54-3.54Z"/><circle id="_Ellipse_7" data-name="&lt;Ellipse&gt;" class="cls-5" cx="34" cy="12.5" r="2.5"/></g><g id="_Group_8" data-name="&lt;Group&gt;"><circle id="_Ellipse_8" data-name="&lt;Ellipse&gt;" class="cls-6" cx="5.5" cy="14.5" r="3"/><path id="_Path_15" data-name="&lt;Path&gt;" class="cls-8" d="M3.38,16.62a3,3,0,0,1,4.24-4.24Z"/><circle id="_Ellipse_9" data-name="&lt;Ellipse&gt;" class="cls-5" cx="5.5" cy="14.5" r="3"/></g><g id="_Group_9" data-name="&lt;Group&gt;"><circle id="_Ellipse_10" data-name="&lt;Ellipse&gt;" class="cls-6" cx="24" cy="9.5" r="3"/><path id="_Path_16" data-name="&lt;Path&gt;" class="cls-8" d="M21.88,11.62a3,3,0,0,1,4.24-4.24Z"/><circle id="_Ellipse_11" data-name="&lt;Ellipse&gt;" class="cls-5" cx="24" cy="9.5" r="3"/></g><g id="_Group_10" data-name="&lt;Group&gt;"><circle id="_Ellipse_12" data-name="&lt;Ellipse&gt;" class="cls-6" cx="42.5" cy="14.5" r="3"/><path id="_Path_17" data-name="&lt;Path&gt;" class="cls-8" d="M40.38,16.62a3,3,0,1,1,4.24-4.24Z"/><circle id="_Ellipse_13" data-name="&lt;Ellipse&gt;" class="cls-5" cx="42.5" cy="14.5" r="3"/></g></g></g></svg>