<svg id="Icons" xmlns="http://www.w3.org/2000/svg" viewBox="0 0 48 48"><defs><style>.cls-1{fill:#656769;}.cls-2{fill:#525252;}.cls-3{fill:none;}.cls-3,.cls-6{stroke:#45413c;stroke-linecap:round;stroke-linejoin:round;}.cls-4{fill:#45413c;opacity:0.15;}.cls-5{fill:#87898c;}.cls-6{fill:#ffe500;}</style></defs><title>435-graduation-cap</title><g id="_Group_" data-name="&lt;Group&gt;"><path id="_Path_" data-name="&lt;Path&gt;" class="cls-1" d="M36.57,29.6l-4.32,2.75a15.26,15.26,0,0,1-16.5,0L11.43,29.6a3.44,3.44,0,0,1-1.56-2.9v-6H38.13v6A3.44,3.44,0,0,1,36.57,29.6Z"/><path id="_Path_2" data-name="&lt;Path&gt;" class="cls-2" d="M38.13,20.69H9.87v4.64l10.66,6.24a6.84,6.84,0,0,0,6.94,0l10.66-6.24Z"/><path id="_Path_3" data-name="&lt;Path&gt;" class="cls-3" d="M36.57,29.6l-4.32,2.75a15.26,15.26,0,0,1-16.5,0L11.43,29.6a3.44,3.44,0,0,1-1.56-2.9v-6H38.13v6A3.44,3.44,0,0,1,36.57,29.6Z"/><ellipse id="_Ellipse_" data-name="&lt;Ellipse&gt;" class="cls-4" cx="24" cy="45.3" rx="13" ry="1.7"/><path id="_Path_4" data-name="&lt;Path&gt;" class="cls-1" d="M5.69,19.21,20.53,27.9a6.89,6.89,0,0,0,6.94,0l14.84-8.69A4.12,4.12,0,0,0,42.15,12L27.2,4.14a6.84,6.84,0,0,0-6.4,0L5.85,12A4.12,4.12,0,0,0,5.69,19.21Z"/><path class="cls-5" d="M42.15,12,27.2,4.14a6.84,6.84,0,0,0-6.4,0L5.85,12a4.12,4.12,0,0,0-1.59,5.79,3.89,3.89,0,0,1,1.59-1.13l15-6a8.83,8.83,0,0,1,6.4,0l15,6a3.89,3.89,0,0,1,1.59,1.13A4.12,4.12,0,0,0,42.15,12Z"/><path id="_Path_5" data-name="&lt;Path&gt;" class="cls-3" d="M5.69,19.21,20.53,27.9a6.89,6.89,0,0,0,6.94,0l14.84-8.69A4.12,4.12,0,0,0,42.15,12L27.2,4.14a6.84,6.84,0,0,0-6.4,0L5.85,12A4.12,4.12,0,0,0,5.69,19.21Z"/><polyline id="_Path_6" data-name="&lt;Path&gt;" class="cls-3" points="22.32 16.21 12.34 22.67 12.34 37.07"/><path id="_Path_7" data-name="&lt;Path&gt;" class="cls-6" d="M11.65,39.13,9.88,44.46A1.34,1.34,0,0,0,10.34,46a3.45,3.45,0,0,0,2,.7,3.47,3.47,0,0,0,2-.7,1.34,1.34,0,0,0,.46-1.52L13,39.13Z"/><circle id="_Path_8" data-name="&lt;Path&gt;" class="cls-6" cx="12.34" cy="39.13" r="2.06"/><path id="_Path_9" data-name="&lt;Path&gt;" class="cls-6" d="M26.74,15.12c0,.76-1.22,1.37-2.74,1.37s-2.74-.61-2.74-1.37,1.22-1.37,2.74-1.37S26.74,14.36,26.74,15.12Z"/></g></svg>