<svg id="Icons" xmlns="http://www.w3.org/2000/svg" viewBox="0 0 48 48"><defs><style>.cls-1{fill:#45413c;opacity:0.15;}.cls-2{fill:#87898c;}.cls-3{fill:#bdbec0;}.cls-4{fill:none;stroke:#45413c;stroke-linecap:round;stroke-linejoin:round;}.cls-5{fill:#daedf7;}.cls-6{fill:#e8f4fa;}.cls-7{fill:#ff6242;}.cls-8{fill:#ff866e;}</style></defs><title>436-lipstick</title><g id="_Group_" data-name="&lt;Group&gt;"><ellipse id="_Ellipse_" data-name="&lt;Ellipse&gt;" class="cls-1" cx="24" cy="44.36" rx="12.56" ry="1.64"/><path id="_Rectangle_" data-name="&lt;Rectangle&gt;" class="cls-2" d="M18.11,22.11H31.82a.73.73,0,0,1,.73.73V40.72a1.38,1.38,0,0,1-1.38,1.38H18.76a1.38,1.38,0,0,1-1.38-1.38V22.83a.73.73,0,0,1,.73-.73Z" transform="translate(-8.07 8.38) rotate(-16.45)"/><path id="_Path_" data-name="&lt;Path&gt;" class="cls-3" d="M34.67,38.22,29.61,21.07a.73.73,0,0,0-.9-.5l-2.32.69,5.66,19.17,1.69-.5A1.37,1.37,0,0,0,34.67,38.22Z"/><path id="_Rectangle_2" data-name="&lt;Rectangle&gt;" class="cls-4" d="M18.11,22.11H31.82a.73.73,0,0,1,.73.73V40.72a1.38,1.38,0,0,1-1.38,1.38H18.76a1.38,1.38,0,0,1-1.38-1.38V22.83a.73.73,0,0,1,.73-.73Z" transform="translate(-8.07 8.38) rotate(-16.45)"/><path id="_Path_2" data-name="&lt;Path&gt;" class="cls-5" d="M28.74,20.56,15.52,24.47l-.26-2.94a.68.68,0,0,1,.49-.72l10.82-3.2a.69.69,0,0,1,.8.34Z"/><path id="_Path_3" data-name="&lt;Path&gt;" class="cls-6" d="M23.62,18.49,25,21.68l3.76-1.12L27.37,18a.69.69,0,0,0-.8-.34l-2.95.87Z"/><path id="_Path_4" data-name="&lt;Path&gt;" class="cls-4" d="M28.74,20.56,15.52,24.47l-.26-2.94a.68.68,0,0,1,.49-.72l10.82-3.2a.69.69,0,0,1,.8.34Z"/><path id="_Path_5" data-name="&lt;Path&gt;" class="cls-7" d="M25.79,17.84l-9.26,2.74L11.67,4.12a1.39,1.39,0,0,1,1.84-1.67l6.9,2.75a4.14,4.14,0,0,1,2.43,2.67Z"/><path id="_Path_6" data-name="&lt;Path&gt;" class="cls-8" d="M12.23,6l6,2.39a4.14,4.14,0,0,1,2.43,2.67l2.25,7.61,2.87-.85-2.95-10A4.14,4.14,0,0,0,20.41,5.2l-6.9-2.75a1.39,1.39,0,0,0-1.84,1.67Z"/><path id="_Path_7" data-name="&lt;Path&gt;" class="cls-4" d="M25.79,17.84l-9.26,2.74L11.67,4.12a1.39,1.39,0,0,1,1.84-1.67l6.9,2.75a4.14,4.14,0,0,1,2.43,2.67Z"/><rect id="_Rectangle_3" data-name="&lt;Rectangle&gt;" class="cls-7" x="18.16" y="33.02" width="15.16" height="3.45" transform="translate(-8.78 8.71) rotate(-16.45)"/><polygon id="_Path_8" data-name="&lt;Path&gt;" class="cls-8" points="33.5 34.26 30.49 35.14 29.52 31.84 32.53 30.95 33.5 34.26"/><rect id="_Rectangle_4" data-name="&lt;Rectangle&gt;" class="cls-4" x="18.16" y="33.02" width="15.16" height="3.45" transform="translate(-8.78 8.71) rotate(-16.45)"/></g></svg>