<svg id="Icons" xmlns="http://www.w3.org/2000/svg" viewBox="0 0 48 48"><defs><style>.cls-1,.cls-10{fill:#45413c;}.cls-1{opacity:0.15;}.cls-2{fill:#debb7e;}.cls-3{fill:#f0d5a8;}.cls-4{fill:none;}.cls-10,.cls-4,.cls-9{stroke:#45413c;stroke-linecap:round;stroke-linejoin:round;}.cls-5{fill:#ffcabf;}.cls-6,.cls-9{fill:#ffa694;}.cls-7{fill:#fff5e3;}.cls-8{fill:#fff;}</style></defs><title>439-monkey-face</title><g id="_Group_" data-name="&lt;Group&gt;"><ellipse id="_Ellipse_" data-name="&lt;Ellipse&gt;" class="cls-1" cx="24" cy="44.5" rx="11.5" ry="1.5"/><circle id="_Path_" data-name="&lt;Path&gt;" class="cls-2" cx="40.84" cy="21.74" r="6.04"/><path id="_Path_2" data-name="&lt;Path&gt;" class="cls-3" d="M40.84,18.22A6,6,0,0,1,46.74,23a5.86,5.86,0,0,0,.13-1.26,6,6,0,0,0-12.07,0A6.57,6.57,0,0,0,34.93,23,6,6,0,0,1,40.84,18.22Z"/><circle id="_Path_3" data-name="&lt;Path&gt;" class="cls-4" cx="40.84" cy="21.74" r="6.04"/><circle id="_Path_4" data-name="&lt;Path&gt;" class="cls-2" cx="7.16" cy="21.74" r="6.04"/><path id="_Path_5" data-name="&lt;Path&gt;" class="cls-3" d="M7.16,18.22A6,6,0,0,1,13.07,23a6.57,6.57,0,0,0,.13-1.26,6,6,0,0,0-12.07,0A5.86,5.86,0,0,0,1.26,23,6,6,0,0,1,7.16,18.22Z"/><circle id="_Path_6" data-name="&lt;Path&gt;" class="cls-4" cx="7.16" cy="21.74" r="6.04"/><path id="_Path_7" data-name="&lt;Path&gt;" class="cls-5" d="M44.19,21.81a3.36,3.36,0,1,1-3.35-3.36A3.35,3.35,0,0,1,44.19,21.81Z"/><path id="_Path_8" data-name="&lt;Path&gt;" class="cls-6" d="M40.84,20.93A3.36,3.36,0,0,1,44,23a3.32,3.32,0,0,0,.23-1.23A3.36,3.36,0,1,0,37.72,23,3.34,3.34,0,0,1,40.84,20.93Z"/><path id="_Path_9" data-name="&lt;Path&gt;" class="cls-4" d="M44.19,21.81a3.36,3.36,0,1,1-3.35-3.36A3.35,3.35,0,0,1,44.19,21.81Z"/><path id="_Path_10" data-name="&lt;Path&gt;" class="cls-5" d="M10.52,21.81a3.36,3.36,0,1,1-3.36-3.36A3.35,3.35,0,0,1,10.52,21.81Z"/><path id="_Path_11" data-name="&lt;Path&gt;" class="cls-6" d="M7.16,20.93A3.34,3.34,0,0,1,10.28,23a3.33,3.33,0,0,0,.24-1.23,3.36,3.36,0,1,0-6.71,0A3.32,3.32,0,0,0,4,23,3.36,3.36,0,0,1,7.16,20.93Z"/><path id="_Path_12" data-name="&lt;Path&gt;" class="cls-4" d="M10.52,21.81a3.36,3.36,0,1,1-3.36-3.36A3.35,3.35,0,0,1,10.52,21.81Z"/><path id="_Path_13" data-name="&lt;Path&gt;" class="cls-2" d="M41,21.09C41,12.2,33.41,5,24,5S7,12.2,7,21.09a15.17,15.17,0,0,0,1.26,6.05,9.69,9.69,0,0,1,.71,4.64,5.83,5.83,0,0,0,0,.59c0,5.84,6.76,9.13,15.09,9.13s15.09-3.29,15.09-9.13a5.83,5.83,0,0,0,0-.59,9.69,9.69,0,0,1,.71-4.64A15.17,15.17,0,0,0,41,21.09Z"/><path id="_Path_14" data-name="&lt;Path&gt;" class="cls-3" d="M24,8.4c8.79,0,16,6.3,16.93,14.38a13.57,13.57,0,0,0,.1-1.69C41,12.2,33.41,5,24,5S7,12.2,7,21.09a13.57,13.57,0,0,0,.1,1.69C8,14.7,15.21,8.4,24,8.4Z"/><path id="_Path_15" data-name="&lt;Path&gt;" class="cls-4" d="M41,21.09C41,12.2,33.41,5,24,5S7,12.2,7,21.09a15.17,15.17,0,0,0,1.26,6.05,9.69,9.69,0,0,1,.71,4.64,5.83,5.83,0,0,0,0,.59c0,5.84,6.76,9.13,15.09,9.13s15.09-3.29,15.09-9.13a5.83,5.83,0,0,0,0-.59,9.69,9.69,0,0,1,.71-4.64A15.17,15.17,0,0,0,41,21.09Z"/><path id="_Path_16" data-name="&lt;Path&gt;" class="cls-7" d="M30.3,13.24a6.32,6.32,0,0,0-4.5,1.37,3,3,0,0,1-3.6,0,6.32,6.32,0,0,0-4.5-1.37c-4,.41-6.78,4.93-6.19,10.11a9.4,9.4,0,0,0,2.09,5,1,1,0,0,1,.07,1.1,4.49,4.49,0,0,0-.86,2.81c0,4.5,5.28,6.33,11.19,6.33s11.19-1.83,11.19-6.33a4.4,4.4,0,0,0-.86-2.81,1,1,0,0,1,.07-1.11,9.33,9.33,0,0,0,2.09-5C37.08,18.17,34.31,13.65,30.3,13.24Z"/><g id="_Group_2" data-name="&lt;Group&gt;"><path id="_Path_17" data-name="&lt;Path&gt;" class="cls-8" d="M11.52,23.45c.5-3.89,2.93-6.93,6.18-7.26a6.33,6.33,0,0,1,4.5,1.38,3.06,3.06,0,0,0,3.6,0,6.33,6.33,0,0,1,4.5-1.38c3.25.33,5.68,3.37,6.18,7.26a.34.34,0,0,1,0-.1c.59-5.18-2.18-9.7-6.19-10.11a6.32,6.32,0,0,0-4.5,1.37,3,3,0,0,1-3.6,0,6.32,6.32,0,0,0-4.5-1.37c-4,.41-6.78,4.93-6.19,10.11A.34.34,0,0,1,11.52,23.45Z"/></g><path id="_Path_18" data-name="&lt;Path&gt;" class="cls-4" d="M30.3,13.24a6.32,6.32,0,0,0-4.5,1.37,3,3,0,0,1-3.6,0,6.32,6.32,0,0,0-4.5-1.37c-4,.41-6.78,4.93-6.19,10.11a9.4,9.4,0,0,0,2.09,5,1,1,0,0,1,.07,1.1,4.49,4.49,0,0,0-.86,2.81c0,4.5,5.28,6.33,11.19,6.33s11.19-1.83,11.19-6.33a4.4,4.4,0,0,0-.86-2.81,1,1,0,0,1,.07-1.11,9.33,9.33,0,0,0,2.09-5C37.08,18.17,34.31,13.65,30.3,13.24Z"/><path id="_Path_19" data-name="&lt;Path&gt;" class="cls-4" d="M29.84,33.32A11.5,11.5,0,0,1,24,34.69a11.63,11.63,0,0,1-5.84-1.36"/><ellipse id="_Path_20" data-name="&lt;Path&gt;" class="cls-9" cx="24" cy="27.39" rx="1.95" ry="1.46"/><line id="_Path_21" data-name="&lt;Path&gt;" class="cls-4" x1="24" y1="28.85" x2="24" y2="34.69"/><circle id="_Path_22" data-name="&lt;Path&gt;" class="cls-10" cx="29.7" cy="21.55" r="1.32"/><circle id="_Path_23" data-name="&lt;Path&gt;" class="cls-10" cx="18.3" cy="21.55" r="1.32"/><path id="_Path_24" data-name="&lt;Path&gt;" class="cls-5" d="M33.73,31.77a1,1,0,1,1-1-1A1,1,0,0,1,33.73,31.77Z"/><path id="_Path_25" data-name="&lt;Path&gt;" class="cls-5" d="M16.21,31.77a1,1,0,1,1-1-1A1,1,0,0,1,16.21,31.77Z"/></g></svg>