<svg id="Icons" xmlns="http://www.w3.org/2000/svg" viewBox="0 0 48 48"><defs><style>.cls-1,.cls-7{fill:#45413c;}.cls-1{opacity:0.15;}.cls-2{fill:#f7e5c6;}.cls-3,.cls-6{fill:#fff5e3;}.cls-4{fill:none;}.cls-4,.cls-5,.cls-6{stroke:#45413c;stroke-linecap:round;stroke-linejoin:round;}.cls-5{fill:#fff;}.cls-8{fill:#ffaa54;}</style></defs><title>442-dog</title><ellipse id="_Ellipse_" data-name="&lt;Ellipse&gt;" class="cls-1" cx="23.19" cy="44.32" rx="17.91" ry="1.68"/><path id="_Path_" data-name="&lt;Path&gt;" class="cls-2" d="M44.5,11.54a6.92,6.92,0,0,0-7.19-1.67,1.43,1.43,0,0,0-.92,1.7,1.45,1.45,0,0,0,1.3,1.08c1.44.1,3.79.82,2.89,4.49a6.18,6.18,0,0,1-3.69,4.65,5.72,5.72,0,0,0-3.7-1.15L25.44,21a7.15,7.15,0,0,1-6.63-3.82,6.68,6.68,0,0,1-.65-1.9l-.4-2A4.66,4.66,0,0,0,13.6,9.55c-1.66-.15-4.36.58-5.32,1.94L7,13.22l-3.39.9a1.11,1.11,0,0,0-.87,1.34l.73,3.32a1.15,1.15,0,0,0,.72.81L8.2,21a2.88,2.88,0,0,1,1.86,2.27L11,29.43a7.12,7.12,0,0,0,.87,2.48l-.68,8.86a2.14,2.14,0,0,0-1.9,2.13,1.1,1.1,0,0,0,1.1,1.1h3.71a1.12,1.12,0,0,0,1-.7l3-7.36a13.89,13.89,0,0,0,6.69,0l3.47-.86a12.15,12.15,0,0,1,3.94-.21A14.37,14.37,0,0,0,33.46,37a5.18,5.18,0,0,1,.74,3.17l-.05.6a2.15,2.15,0,0,0-2.22,2.15A1.1,1.1,0,0,0,33,44H37A1.12,1.12,0,0,0,38,43.2l1.78-5.91c.66-1.92-1-2.51-1-5.48l.21-.57a9,9,0,0,0-.48-7.4C46.88,23.74,48.29,15,44.5,11.54Z"/><g id="_Group_" data-name="&lt;Group&gt;"><path id="_Path_2" data-name="&lt;Path&gt;" class="cls-3" d="M3.14,17.09a1.14,1.14,0,0,1,.51-.27L7,15.93l1.24-1.74c1-1.35,3.66-2.09,5.32-1.94A4.67,4.67,0,0,1,17.76,16l.4,1.95a6.79,6.79,0,0,0,.65,1.9,7.17,7.17,0,0,0,6.63,3.82l7.75-.32a5.77,5.77,0,0,1,3.7,1.14,6.14,6.14,0,0,0,3.69-4.65,4.56,4.56,0,0,0,0-2.69,6.22,6.22,0,0,1-3.69,4.64,5.72,5.72,0,0,0-3.7-1.15L25.44,21a7.15,7.15,0,0,1-6.63-3.82,6.68,6.68,0,0,1-.65-1.9l-.4-2A4.66,4.66,0,0,0,13.6,9.55c-1.66-.15-4.36.58-5.32,1.94L7,13.22l-3.39.9a1.11,1.11,0,0,0-.87,1.34Z"/><path id="_Path_3" data-name="&lt;Path&gt;" class="cls-3" d="M37.35,12.57a6.9,6.9,0,0,1,7.15,1.68,6.27,6.27,0,0,1,1.87,3.55,6.93,6.93,0,0,0-9.06-7.93,1.43,1.43,0,0,0-.92,1.7A1.4,1.4,0,0,0,37.35,12.57Z"/></g><path id="_Path_4" data-name="&lt;Path&gt;" class="cls-4" d="M44.5,11.54a6.92,6.92,0,0,0-7.19-1.67,1.43,1.43,0,0,0-.92,1.7,1.45,1.45,0,0,0,1.3,1.08c1.44.1,3.79.82,2.89,4.49a6.18,6.18,0,0,1-3.69,4.65,5.72,5.72,0,0,0-3.7-1.15L25.44,21a7.15,7.15,0,0,1-6.63-3.82,6.68,6.68,0,0,1-.65-1.9l-.4-2A4.66,4.66,0,0,0,13.6,9.55c-1.66-.15-4.36.58-5.32,1.94L7,13.22l-3.39.9a1.11,1.11,0,0,0-.87,1.34l.73,3.32a1.15,1.15,0,0,0,.72.81L8.2,21a2.88,2.88,0,0,1,1.86,2.27L11,29.43a7.12,7.12,0,0,0,.87,2.48l-.68,8.86a2.14,2.14,0,0,0-1.9,2.13,1.1,1.1,0,0,0,1.1,1.1h3.71a1.12,1.12,0,0,0,1-.7l3-7.36a13.89,13.89,0,0,0,6.69,0l3.47-.86a12.15,12.15,0,0,1,3.94-.21A14.37,14.37,0,0,0,33.46,37a5.18,5.18,0,0,1,.74,3.17l-.05.6a2.15,2.15,0,0,0-2.22,2.15A1.1,1.1,0,0,0,33,44H37A1.12,1.12,0,0,0,38,43.2l1.78-5.91c.66-1.92-1-2.51-1-5.48l.21-.57a9,9,0,0,0-.48-7.4C46.88,23.74,48.29,15,44.5,11.54Z"/><line id="_Path_5" data-name="&lt;Path&gt;" class="cls-5" x1="18.07" y1="35.94" x2="19.32" y2="32.81"/><path id="_Path_6" data-name="&lt;Path&gt;" class="cls-4" d="M31.54,29.45l-.19,2a7,7,0,0,0,.82,3.4"/><path id="_Path_7" data-name="&lt;Path&gt;" class="cls-6" d="M12.6,10.42a19.46,19.46,0,0,1,1.12-3.91c.35-.63,2.45,1.18,2.24,5.59"/><path id="_Path_8" data-name="&lt;Path&gt;" class="cls-7" d="M11.08,13.89a.9.9,0,1,1-.89-.89A.89.89,0,0,1,11.08,13.89Z"/><path id="_Path_9" data-name="&lt;Path&gt;" class="cls-8" d="M12.6,15.52c0,.25.4.45.9.45s.89-.2.89-.45-.4-.45-.89-.45S12.6,15.27,12.6,15.52Z"/></svg>