<svg id="Icons" xmlns="http://www.w3.org/2000/svg" viewBox="0 0 48 48"><defs><style>.cls-1,.cls-5{fill:#45413c;}.cls-1{opacity:0.15;}.cls-2{fill:#fc9;}.cls-3{fill:#ffe8d1;}.cls-4{fill:none;stroke:#45413c;stroke-linecap:round;stroke-linejoin:round;}.cls-6{fill:#ffaa54;}</style></defs><title>448-cat</title><g id="_Group_" data-name="&lt;Group&gt;"><ellipse id="_Ellipse_" data-name="&lt;Ellipse&gt;" class="cls-1" cx="26.38" cy="43.94" rx="15.77" ry="2.06"/><path id="_Path_" data-name="&lt;Path&gt;" class="cls-2" d="M45,10.12A9.66,9.66,0,0,0,43,3.7a2,2,0,0,0-3-.29A2,2,0,0,0,40,6.21a5.46,5.46,0,0,1,1.58,3.91c0,3.22-1.61,6.64-7.68,8A8.38,8.38,0,0,0,32.31,18l-11.82.58a3.57,3.57,0,0,1-3.3-1.84l-1.67-3.88a5,5,0,0,0-1.68-1.58A8.35,8.35,0,0,0,13,9.41a5.06,5.06,0,0,0-2-2,.69.69,0,0,0-1,.55l-.23,2.55a5.27,5.27,0,0,0-3.91,2.11l-.79,1.19L2.88,16a1.31,1.31,0,0,0-.3,1.38l.74,3.22a3.19,3.19,0,0,0,2.06,1.93l3.84,1.15a2.76,2.76,0,0,1,1.88,2l.82,3.41a9.11,9.11,0,0,0,3.35,4.54,27.48,27.48,0,0,1,.25,3.55,45.75,45.75,0,0,1-1,5.18A1.37,1.37,0,0,0,15.88,44h.89a1.36,1.36,0,0,0,1.2-.71c.94-1.71,3.26-6.06,3.69-8a8.8,8.8,0,0,0,2.08-.46L27,33.59a4.62,4.62,0,0,1,2.87-.08,13.46,13.46,0,0,0,2.5.48,7.31,7.31,0,0,0,3,3.84l-.51,4.65A1.37,1.37,0,0,0,36.25,44h1.51a1.37,1.37,0,0,0,1.33-1l1.8-7.19a11.44,11.44,0,0,1-.69-3.42l.42-5.42a8.33,8.33,0,0,0-2-6.13l-.27-.28C42,18.89,44.9,15.67,45,10.12Z"/><g id="_Group_2" data-name="&lt;Group&gt;"><path id="_Path_2" data-name="&lt;Path&gt;" class="cls-3" d="M3.62,19.63a1.4,1.4,0,0,1,.32-1.49l2.43-2.31.85-1.28a5.69,5.69,0,0,1,4.21-2.27l.25-2.75a.73.73,0,0,1,1-.6,4.93,4.93,0,0,0-1.64-1.49.69.69,0,0,0-1,.55l-.23,2.55a5.27,5.27,0,0,0-3.91,2.11l-.79,1.19L2.88,16a1.31,1.31,0,0,0-.3,1.38l.74,3.22a3.11,3.11,0,0,0,.79,1.19Z"/><path id="_Path_3" data-name="&lt;Path&gt;" class="cls-3" d="M19.34,18.9a3.86,3.86,0,0,0,3.56,2l12.72-.62a8.85,8.85,0,0,1,1.71.17A15.57,15.57,0,0,0,40,19.6c2.87-1.81,4.91-4.82,5-9.48A9.64,9.64,0,0,0,43,3.7a2,2,0,0,0-3-.29A2,2,0,0,0,40,6.21a5.46,5.46,0,0,1,1.58,3.91c0,3.22-1.61,6.64-7.68,8A8.38,8.38,0,0,0,32.31,18l-11.82.58a3.62,3.62,0,0,1-1.42-.26Z"/></g><path id="_Path_4" data-name="&lt;Path&gt;" class="cls-4" d="M45,10.12A9.66,9.66,0,0,0,43,3.7a2,2,0,0,0-3-.29A2,2,0,0,0,40,6.21a5.46,5.46,0,0,1,1.58,3.91c0,3.22-1.61,6.64-7.68,8A8.38,8.38,0,0,0,32.31,18l-11.82.58a3.57,3.57,0,0,1-3.3-1.84l-1.67-3.88a5,5,0,0,0-1.68-1.58A8.35,8.35,0,0,0,13,9.41a5.06,5.06,0,0,0-2-2,.69.69,0,0,0-1,.55l-.23,2.55a5.27,5.27,0,0,0-3.91,2.11l-.79,1.19L2.88,16a1.31,1.31,0,0,0-.3,1.38l.74,3.22a3.19,3.19,0,0,0,2.06,1.93l3.84,1.15a2.76,2.76,0,0,1,1.88,2l.82,3.41a9.11,9.11,0,0,0,3.35,4.54,27.48,27.48,0,0,1,.25,3.55,45.75,45.75,0,0,1-1,5.18A1.37,1.37,0,0,0,15.88,44h.89a1.36,1.36,0,0,0,1.2-.71c.94-1.71,3.26-6.06,3.69-8a8.8,8.8,0,0,0,2.08-.46L27,33.59a4.62,4.62,0,0,1,2.87-.08,13.46,13.46,0,0,0,2.5.48,7.31,7.31,0,0,0,3,3.84l-.51,4.65A1.37,1.37,0,0,0,36.25,44h1.51a1.37,1.37,0,0,0,1.33-1l1.8-7.19a11.44,11.44,0,0,1-.69-3.42l.42-5.42a8.33,8.33,0,0,0-2-6.13l-.27-.28C42,18.89,44.9,15.67,45,10.12Z"/><path id="_Path_5" data-name="&lt;Path&gt;" class="cls-4" d="M21.66,35.24c.43-2.39.72-5,.72-5"/><path id="_Path_6" data-name="&lt;Path&gt;" class="cls-4" d="M35.41,37.83S31.21,35.6,32,29.6"/><path id="_Path_7" data-name="&lt;Path&gt;" class="cls-5" d="M9.16,15.16a1.1,1.1,0,1,1-1.1-1.1A1.1,1.1,0,0,1,9.16,15.16Z"/><path id="_Path_8" data-name="&lt;Path&gt;" class="cls-6" d="M10.27,17.86c0,.3.5.55,1.1.55s1.1-.25,1.1-.55-.49-.55-1.1-.55S10.27,17.55,10.27,17.86Z"/></g></svg>