<svg id="Icons" xmlns="http://www.w3.org/2000/svg" viewBox="0 0 48 48"><defs><style>.cls-1{fill:#fff48c;}.cls-2{fill:#fffacf;}.cls-3{fill:none;}.cls-10,.cls-3,.cls-9{stroke:#45413c;stroke-linecap:round;stroke-linejoin:round;}.cls-4{fill:#f0f0f0;}.cls-5{fill:#fff;}.cls-10,.cls-6{fill:#45413c;}.cls-6{opacity:0.15;}.cls-7{fill:#fcd;}.cls-8{fill:#ffe5ee;}.cls-9{fill:#ff87af;}</style></defs><title>455-cow-face</title><g id="_Group_" data-name="&lt;Group&gt;"><path id="_Path_" data-name="&lt;Path&gt;" class="cls-1" d="M18.72,8.68a9.61,9.61,0,0,1-4.23-2.12,18.37,18.37,0,0,1-2.7-3.19,1.06,1.06,0,0,0-1.86.24A11.77,11.77,0,0,0,9.2,9.2a9.33,9.33,0,0,0,3.17,5.29Z"/><path id="_Path_2" data-name="&lt;Path&gt;" class="cls-2" d="M9.28,9.63a12.42,12.42,0,0,1,.65-2.41A1.05,1.05,0,0,1,11.79,7a18.82,18.82,0,0,0,2.7,3.19,9,9,0,0,0,1.46,1l2.77-2.53a9.61,9.61,0,0,1-4.23-2.12,18.82,18.82,0,0,1-2.7-3.19,1.06,1.06,0,0,0-1.86.24A11.77,11.77,0,0,0,9.2,9.2C9.22,9.35,9.25,9.49,9.28,9.63Z"/><path id="_Path_3" data-name="&lt;Path&gt;" class="cls-3" d="M18.72,8.68a9.61,9.61,0,0,1-4.23-2.12,18.37,18.37,0,0,1-2.7-3.19,1.06,1.06,0,0,0-1.86.24A11.77,11.77,0,0,0,9.2,9.2a9.33,9.33,0,0,0,3.17,5.29Z"/><path id="_Path_4" data-name="&lt;Path&gt;" class="cls-1" d="M29.28,8.68a9.61,9.61,0,0,0,4.23-2.12,18.37,18.37,0,0,0,2.7-3.19,1.06,1.06,0,0,1,1.86.24A11.77,11.77,0,0,1,38.8,9.2a9.33,9.33,0,0,1-3.17,5.29Z"/><path id="_Path_5" data-name="&lt;Path&gt;" class="cls-2" d="M38.72,9.63a12.42,12.42,0,0,0-.65-2.41A1.05,1.05,0,0,0,36.21,7a18.82,18.82,0,0,1-2.7,3.19,9,9,0,0,1-1.46,1L29.28,8.68a9.61,9.61,0,0,0,4.23-2.12,18.82,18.82,0,0,0,2.7-3.19,1.06,1.06,0,0,1,1.86.24A11.77,11.77,0,0,1,38.8,9.2C38.78,9.35,38.75,9.49,38.72,9.63Z"/><path id="_Path_6" data-name="&lt;Path&gt;" class="cls-3" d="M29.28,8.68a9.61,9.61,0,0,0,4.23-2.12,18.37,18.37,0,0,0,2.7-3.19,1.06,1.06,0,0,1,1.86.24A11.77,11.77,0,0,1,38.8,9.2a9.33,9.33,0,0,1-3.17,5.29Z"/><path id="_Path_7" data-name="&lt;Path&gt;" class="cls-4" d="M12.75,12.34s-7,.94-10,9c-1.94,5.11,10,2.64,10,2.64Z"/><path id="_Path_8" data-name="&lt;Path&gt;" class="cls-5" d="M2.71,21.33a1.87,1.87,0,0,0,.46,2.37,13.43,13.43,0,0,1,9.58-7.92V12.34S5.76,13.28,2.71,21.33Z"/><path id="_Path_9" data-name="&lt;Path&gt;" class="cls-3" d="M12.75,12.34s-7,.94-10,9c-1.94,5.11,10,2.64,10,2.64Z"/><path id="_Path_10" data-name="&lt;Path&gt;" class="cls-4" d="M35.25,12.34s7,.94,10,9c1.94,5.11-10,2.64-10,2.64Z"/><path id="_Path_11" data-name="&lt;Path&gt;" class="cls-5" d="M45.29,21.33a1.87,1.87,0,0,1-.46,2.37,13.43,13.43,0,0,0-9.58-7.92V12.34S42.24,13.28,45.29,21.33Z"/><path id="_Path_12" data-name="&lt;Path&gt;" class="cls-3" d="M35.25,12.34s7,.94,10,9c1.94,5.11-10,2.64-10,2.64Z"/><ellipse id="_Ellipse_" data-name="&lt;Ellipse&gt;" class="cls-6" cx="24" cy="45.41" rx="12.16" ry="1.59"/><path id="_Rectangle_" data-name="&lt;Rectangle&gt;" class="cls-4" d="M20.33,8.15h7.35a9.54,9.54,0,0,1,9.54,9.54V32.46a0,0,0,0,1,0,0H10.79a0,0,0,0,1,0,0V17.69a9.54,9.54,0,0,1,9.54-9.54Z"/><path id="_Path_13" data-name="&lt;Path&gt;" class="cls-5" d="M27.67,8.15H20.33a9.54,9.54,0,0,0-9.54,9.54v3.83A9.54,9.54,0,0,1,20.33,12h7.34a9.54,9.54,0,0,1,9.54,9.54V17.69A9.54,9.54,0,0,0,27.67,8.15Z"/><path id="_Rectangle_2" data-name="&lt;Rectangle&gt;" class="cls-3" d="M20.33,8.15h7.35a9.54,9.54,0,0,1,9.54,9.54V32.46a0,0,0,0,1,0,0H10.79a0,0,0,0,1,0,0V17.69a9.54,9.54,0,0,1,9.54-9.54Z"/><ellipse id="_Path_14" data-name="&lt;Path&gt;" class="cls-7" cx="24" cy="32.46" rx="15.33" ry="10.04"/><path id="_Path_15" data-name="&lt;Path&gt;" class="cls-8" d="M24,26.12c11.66,0,14.63,3.4,15.21,8a12.2,12.2,0,0,0,.12-1.61c0-5.55-1.94-10-15.33-10s-15.33,4.49-15.33,10a12.2,12.2,0,0,0,.12,1.61C9.37,29.52,12.34,26.12,24,26.12Z"/><ellipse id="_Path_16" data-name="&lt;Path&gt;" class="cls-3" cx="24" cy="32.46" rx="15.33" ry="10.04"/><circle id="_Path_17" data-name="&lt;Path&gt;" class="cls-9" cx="17.66" cy="33.52" r="1.59"/><circle id="_Path_18" data-name="&lt;Path&gt;" class="cls-9" cx="30.34" cy="33.52" r="1.59"/><circle id="_Path_19" data-name="&lt;Path&gt;" class="cls-10" cx="30.72" cy="18.56" r="1.43"/><circle id="_Path_20" data-name="&lt;Path&gt;" class="cls-10" cx="17.28" cy="18.56" r="1.43"/><path id="_Path_21" data-name="&lt;Path&gt;" class="cls-7" d="M36.16,21.36c0,.55-.71,1-1.59,1s-1.59-.45-1.59-1,.71-1,1.59-1S36.16,20.81,36.16,21.36Z"/><path id="_Path_22" data-name="&lt;Path&gt;" class="cls-7" d="M15,21.36c0,.55-.71,1-1.59,1s-1.59-.45-1.59-1,.71-1,1.59-1S15,20.81,15,21.36Z"/></g></svg>