<svg id="Icons" xmlns="http://www.w3.org/2000/svg" viewBox="0 0 48 48"><defs><style>.cls-1,.cls-7{fill:#45413c;}.cls-1{opacity:0.15;}.cls-2{fill:#debb7e;}.cls-3{fill:#f0d5a8;}.cls-4{fill:none;}.cls-4,.cls-5,.cls-6{stroke:#45413c;stroke-linecap:round;stroke-linejoin:round;}.cls-5{fill:#fffacf;}.cls-6{fill:#dea47a;}</style></defs><title>456-ox</title><ellipse class="cls-1" cx="27.5" cy="45.25" rx="15.5" ry="1.75"/><path id="_Path_" data-name="&lt;Path&gt;" class="cls-2" d="M42.1,24.28c.14-6.34-.49-8.31-8.45-7.32s-10.47-3.13-14.13-3.13-4.27.8-6.2,1.13a20.6,20.6,0,0,1-3.94,0c-1.9,0-3.17,1.19-5,3.69-2.44,3.28-3,3.52-2.82,4.5s1.08,2.35,2.26,2.26,1.64-.8,2.81-.57a5.41,5.41,0,0,0,3-.22,7.16,7.16,0,0,1,2.5,3.61c.66,2.14,1,4.27,3.18,5.62.32.79.67,1.52.94,2.31.71,2.06.33,4.22-1,4.79a2.52,2.52,0,0,0-1.8,2.42.57.57,0,0,0,.56.63h5.19a.57.57,0,0,0,.53-.37c.28-.76.76-3,.73-9.3a9.44,9.44,0,0,1,4-.85c2.68.33,6.94.63,9-1.52,1,1.33,2.17,2.5,3.11,3.59,2.21,2.57,0,5.63,0,5.63a4.64,4.64,0,0,0-1.1,2.18.56.56,0,0,0,.56.64h4.52a.57.57,0,0,0,.56-.53l.44-6.66A5.14,5.14,0,0,0,41,34.39l-.75-1.75A1.68,1.68,0,0,1,40.51,31C41.15,30.13,42,28.26,42.1,24.28Z"/><g id="_Group_" data-name="&lt;Group&gt;"><path id="_Path_2" data-name="&lt;Path&gt;" class="cls-3" d="M2.08,24.41c.44-.59,1.16-1.45,2.27-2.95,1.86-2.5,3.13-3.69,5-3.69a20.6,20.6,0,0,0,3.94,0c1.93-.33,2.54-1.12,6.2-1.12s6.17,4.11,14.13,3.12c6.78-.84,8.24.48,8.44,4.81,0-.1,0-.19,0-.3.14-6.34-.49-8.31-8.45-7.32s-10.47-3.13-14.13-3.13-4.27.8-6.2,1.13a20.6,20.6,0,0,1-3.94,0c-1.9,0-3.17,1.19-5,3.69-2.44,3.28-3,3.52-2.82,4.5A3.47,3.47,0,0,0,2.08,24.41Z"/></g><path id="_Path_3" data-name="&lt;Path&gt;" class="cls-3" d="M11.6,15.05a4.35,4.35,0,0,1,1.91,1.43c.66.86.29,3,.09,3.84a.34.34,0,0,1-.47.24c-.88-.36-3-1.42-2.93-3.23"/><path id="_Path_4" data-name="&lt;Path&gt;" class="cls-4" d="M42.1,24.28c.14-6.34-.49-8.31-8.45-7.32s-10.47-3.13-14.13-3.13-4.27.8-6.2,1.13a20.6,20.6,0,0,1-3.94,0c-1.9,0-3.17,1.19-5,3.69-2.44,3.28-3,3.52-2.82,4.5s1.08,2.35,2.26,2.26,1.64-.8,2.81-.57a5.41,5.41,0,0,0,3-.22,7.16,7.16,0,0,1,2.5,3.61c.66,2.14,1,4.27,3.18,5.62.32.79.67,1.52.94,2.31.71,2.06.33,4.22-1,4.79a2.52,2.52,0,0,0-1.8,2.42.57.57,0,0,0,.56.63h5.19a.57.57,0,0,0,.53-.37c.28-.76.76-3,.73-9.3a9.44,9.44,0,0,1,4-.85c2.68.33,6.94.63,9-1.52,1,1.33,2.17,2.5,3.11,3.59,2.21,2.57,0,5.63,0,5.63a4.64,4.64,0,0,0-1.1,2.18.56.56,0,0,0,.56.64h4.52a.57.57,0,0,0,.56-.53l.44-6.66A5.14,5.14,0,0,0,41,34.39l-.75-1.75A1.68,1.68,0,0,1,40.51,31C41.15,30.13,42,28.26,42.1,24.28Z"/><path id="_Path_5" data-name="&lt;Path&gt;" class="cls-4" d="M6.6,24.84c1.17.24,3.61.24,4.5-1.69"/><path id="_Path_6" data-name="&lt;Path&gt;" class="cls-4" d="M30.82,25.41A10.65,10.65,0,0,0,33.36,32"/><path id="_Path_7" data-name="&lt;Path&gt;" class="cls-4" d="M15.23,33.86a10.08,10.08,0,0,1-.8-4.84"/><path id="_Path_8" data-name="&lt;Path&gt;" class="cls-4" d="M21.56,31.08a3.1,3.1,0,0,0-1.23,2.36c0,.3,0,.6,0,.89"/><path id="_Path_9" data-name="&lt;Path&gt;" class="cls-5" d="M8.38,17c-1,.76-2.68-.54-2.9-2.18s.51-3.55.88-3.28.39,2.15,1.51,2.53A1.62,1.62,0,0,1,8.38,17Z"/><path id="_Path_10" data-name="&lt;Path&gt;" class="cls-4" d="M11.6,15.05a4.35,4.35,0,0,1,1.91,1.43c.66.86.29,3,.09,3.84a.34.34,0,0,1-.47.24c-.88-.36-3-1.42-2.93-3.23"/><path id="_Path_11" data-name="&lt;Path&gt;" class="cls-4" d="M40.88,17.85c2.9,2.42,3.46,4.32,3.46,9.53v2.89"/><path id="_Path_12" data-name="&lt;Path&gt;" class="cls-6" d="M44.34,30.27a5,5,0,0,0-1,2.67,8.74,8.74,0,0,0,1,3.24S46,34.7,46,33.22,44.34,30.27,44.34,30.27Z"/><circle id="_Path_13" data-name="&lt;Path&gt;" class="cls-7" cx="6.56" cy="20.03" r="0.56"/></svg>