<svg id="Icons" xmlns="http://www.w3.org/2000/svg" viewBox="0 0 48 48"><defs><style>.cls-1{fill:#ffb0ca;}.cls-2{fill:#fcd;}.cls-3{fill:none;}.cls-3,.cls-7,.cls-9{stroke:#45413c;stroke-linecap:round;stroke-linejoin:round;}.cls-4,.cls-7{fill:#45413c;}.cls-4{opacity:0.15;}.cls-5{fill:#ffe5ee;}.cls-6{fill:#fff;}.cls-8{fill:#ff6196;}.cls-9{fill:#ff87af;}</style></defs><title>459-pig-face</title><path id="_Path_" data-name="&lt;Path&gt;" class="cls-1" d="M6.9,11.84c-2.77,4.11-2.07,6.7,1,8.8,4.52,3.1,5-3,7.19-6.06s4.68-5.24,2.59-6.74S10.13,7,6.9,11.84Z"/><path id="_Path_2" data-name="&lt;Path&gt;" class="cls-2" d="M6.9,14.88c3.23-4.8,8.69-5.49,10.78-4l.11.07c.81-1.27,1.05-2.29-.11-3.12-2.09-1.49-7.55-.81-10.78,4-1.66,2.46-2.07,4.38-1.48,6A11.5,11.5,0,0,1,6.9,14.88Z"/><path id="_Path_3" data-name="&lt;Path&gt;" class="cls-3" d="M6.9,11.84c-2.77,4.11-2.07,6.7,1,8.8,4.52,3.1,5-3,7.19-6.06s4.68-5.24,2.59-6.74S10.13,7,6.9,11.84Z"/><path id="_Path_4" data-name="&lt;Path&gt;" class="cls-1" d="M41.1,11.84c2.77,4.11,2.07,6.7-1,8.8-4.52,3.1-5-3-7.19-6.06s-4.68-5.24-2.59-6.74S37.87,7,41.1,11.84Z"/><path id="_Path_5" data-name="&lt;Path&gt;" class="cls-2" d="M41.1,14.88c-3.23-4.8-8.69-5.49-10.78-4l-.11.07c-.81-1.27-1.05-2.29.11-3.12,2.09-1.49,7.55-.81,10.78,4,1.66,2.46,2.07,4.38,1.48,6A11.5,11.5,0,0,0,41.1,14.88Z"/><path id="_Path_6" data-name="&lt;Path&gt;" class="cls-3" d="M41.1,11.84c2.77,4.11,2.07,6.7-1,8.8-4.52,3.1-5-3-7.19-6.06s-4.68-5.24-2.59-6.74S37.87,7,41.1,11.84Z"/><ellipse id="_Ellipse_" data-name="&lt;Ellipse&gt;" class="cls-4" cx="24" cy="44.49" rx="11.5" ry="1.5"/><path id="_Path_7" data-name="&lt;Path&gt;" class="cls-1" d="M29.49,8.52a22.42,22.42,0,0,0-11,0C12.86,10,9,14.34,9,19.32v4.35a2.09,2.09,0,0,1-.42,1.22A7.44,7.44,0,0,0,7.5,29.52c0,6.06,7.11,11,16.5,11s16.5-4.92,16.5-11a7.44,7.44,0,0,0-1.08-4.63A2.09,2.09,0,0,1,39,23.67V19.32C39,14.34,35.14,10,29.49,8.52Z"/><path class="cls-2" d="M18.51,11.87a22.42,22.42,0,0,1,11,0C35.14,13.3,39,17.68,39,22.66V19.32c0-5-3.86-9.37-9.51-10.8a22.42,22.42,0,0,0-11,0C12.86,10,9,14.34,9,19.32v3.34C9,17.68,12.86,13.3,18.51,11.87Z"/><path id="_Path_8" data-name="&lt;Path&gt;" class="cls-3" d="M29.49,8.52a22.42,22.42,0,0,0-11,0C12.86,10,9,14.34,9,19.32v4.35a2.09,2.09,0,0,1-.42,1.22A7.44,7.44,0,0,0,7.5,29.52c0,6.06,7.11,11,16.5,11s16.5-4.92,16.5-11a7.44,7.44,0,0,0-1.08-4.63A2.09,2.09,0,0,1,39,23.67V19.32C39,14.34,35.14,10,29.49,8.52Z"/><path id="_Path_9" data-name="&lt;Path&gt;" class="cls-5" d="M30,29.94c0,2-2.69,3.56-6,3.56s-6-1.59-6-3.56,2.69-4.44,6-4.44S30,28,30,29.94Z"/><path id="_Path_10" data-name="&lt;Path&gt;" class="cls-6" d="M24,27.5a6.4,6.4,0,0,1,5.77,3.41,2.2,2.2,0,0,0,.23-1c0-2-2.69-4.44-6-4.44S18,28,18,29.94a2.2,2.2,0,0,0,.23,1A6.4,6.4,0,0,1,24,27.5Z"/><path id="_Path_11" data-name="&lt;Path&gt;" class="cls-3" d="M30,29.94c0,2-2.69,3.56-6,3.56s-6-1.59-6-3.56,2.69-4.44,6-4.44S30,28,30,29.94Z"/><circle id="_Path_12" data-name="&lt;Path&gt;" class="cls-7" cx="32" cy="22" r="1.5"/><circle id="_Path_13" data-name="&lt;Path&gt;" class="cls-7" cx="16" cy="22" r="1.5"/><path id="_Path_14" data-name="&lt;Path&gt;" class="cls-8" d="M38.64,28.18c0,.55-.82,1-1.82,1s-1.82-.45-1.82-1,.81-1,1.82-1S38.64,27.63,38.64,28.18Z"/><path id="_Path_15" data-name="&lt;Path&gt;" class="cls-8" d="M13,28.18c0,.55-.81,1-1.82,1s-1.82-.45-1.82-1,.82-1,1.82-1S13,27.63,13,28.18Z"/><ellipse id="_Path_16" data-name="&lt;Path&gt;" class="cls-9" cx="21.5" cy="29.75" rx="1" ry="1.25"/><ellipse id="_Path_17" data-name="&lt;Path&gt;" class="cls-9" cx="26.5" cy="29.75" rx="1" ry="1.25"/></svg>