<svg id="Icons" xmlns="http://www.w3.org/2000/svg" viewBox="0 0 48 48"><defs><style>.cls-1,.cls-6{fill:#45413c;}.cls-1{opacity:0.15;}.cls-2,.cls-5{fill:#ffdcd1;}.cls-3{fill:#ffe8e0;}.cls-4{fill:none;}.cls-4,.cls-5{stroke:#45413c;stroke-linecap:round;stroke-linejoin:round;}</style></defs><title>460-pig</title><g id="_Group_" data-name="&lt;Group&gt;"><ellipse id="_Ellipse_" data-name="&lt;Ellipse&gt;" class="cls-1" cx="22.95" cy="44.5" rx="18.5" ry="1.5"/><path id="_Path_" data-name="&lt;Path&gt;" class="cls-2" d="M41.86,23.75c-1.62-3.63-5-6.69-17.25-6.69-9.18,0-12.12,2.13-15.25,3.75s-4.25,4.13-5.25,5.57A3.49,3.49,0,0,1,2,27.7a1,1,0,0,0-.77,1l.57,4.74s.4.58,3.71.9c2.36.22,3.39,1.34,7.18,2.51a35.3,35.3,0,0,1,.9,4.67,13.17,13.17,0,0,1-.05,1.89A.49.49,0,0,0,14,44h2.58a.5.5,0,0,0,.5-.46,14,14,0,0,1,.85-3.73A17.26,17.26,0,0,0,18.55,38c5.06.47,11,.17,15.73-1.59.94,1.66,2.17,2.9,2.21,3.88a16.8,16.8,0,0,1-.27,3.17.49.49,0,0,0,.49.58h2.88a.5.5,0,0,0,.5-.46,44.33,44.33,0,0,1,1.27-8.1C42.3,32.56,43.49,27.38,41.86,23.75Z"/><path class="cls-3" d="M42.31,25a7.2,7.2,0,0,0-.45-1.28c-1.62-3.63-5-6.69-17.25-6.69-9.18,0-12.12,2.13-15.25,3.75A11.31,11.31,0,0,0,5,25.07a47.72,47.72,0,0,1,5.3-3.23C14,19.94,20,19.31,25.41,19.31,30.42,19.31,38,19.42,42.31,25Z"/><path id="_Path_2" data-name="&lt;Path&gt;" class="cls-4" d="M41.86,23.75c-1.62-3.63-5-6.69-17.25-6.69-9.18,0-12.12,2.13-15.25,3.75s-4.25,4.13-5.25,5.57A3.49,3.49,0,0,1,2,27.7a1,1,0,0,0-.77,1l.57,4.74s.4.58,3.71.9c2.36.22,3.39,1.34,7.18,2.51a35.3,35.3,0,0,1,.9,4.67,13.17,13.17,0,0,1-.05,1.89A.49.49,0,0,0,14,44h2.58a.5.5,0,0,0,.5-.46,14,14,0,0,1,.85-3.73A17.26,17.26,0,0,0,18.55,38c5.06.47,11,.17,15.73-1.59.94,1.66,2.17,2.9,2.21,3.88a16.8,16.8,0,0,1-.27,3.17.49.49,0,0,0,.49.58h2.88a.5.5,0,0,0,.5-.46,44.33,44.33,0,0,1,1.27-8.1C42.3,32.56,43.49,27.38,41.86,23.75Z"/><path id="_Path_3" data-name="&lt;Path&gt;" class="cls-5" d="M12.55,20.71A3.09,3.09,0,0,0,10.61,19a18.43,18.43,0,0,1-2.31-.88,1,1,0,0,0-1.45.58c-.47,1.43.08,3,2.64,4.43"/><path id="_Path_4" data-name="&lt;Path&gt;" class="cls-4" d="M34.28,36.37a7.13,7.13,0,0,1-1-3.81"/><path id="_Path_5" data-name="&lt;Path&gt;" class="cls-4" d="M18.55,38a9.14,9.14,0,0,0,.26-3.15"/><path id="_Path_6" data-name="&lt;Path&gt;" class="cls-6" d="M7.62,26.19a.92.92,0,1,1-.92-.92A.92.92,0,0,1,7.62,26.19Z"/><path id="_Path_7" data-name="&lt;Path&gt;" class="cls-4" d="M41.49,23a2.35,2.35,0,0,0,2.25-2.29c.14-2.25-1.58-3.22-2.3-2.3-1.14,1.45,2.64,5.32,5.06,2.3"/></g></svg>