<svg id="Icons" xmlns="http://www.w3.org/2000/svg" viewBox="0 0 48 48"><defs><style>.cls-1,.cls-6{fill:#45413c;}.cls-1{opacity:0.15;}.cls-2,.cls-5{fill:#f0d5a8;}.cls-3{fill:#f7e5c6;}.cls-4{fill:none;}.cls-4,.cls-5{stroke:#45413c;stroke-linecap:round;stroke-linejoin:round;}</style></defs><title>468-camel</title><ellipse id="_Ellipse_" data-name="&lt;Ellipse&gt;" class="cls-1" cx="29.33" cy="44.41" rx="16.42" ry="1.59"/><path id="_Path_" data-name="&lt;Path&gt;" class="cls-2" d="M44.77,32.6a2.08,2.08,0,0,1-.31-1.05c0-1.24.75-5.61.75-7.77A5.58,5.58,0,0,0,42.7,19c-1.59-1.15-1.81-2.65-2.56-5.65S37.8,9.26,35.72,9.26s-2.65,2.65-3,4.06-1.5,1.5-2.29-.53A3.92,3.92,0,0,0,27,10c-1.06,0-3.27,0-4.19,4.72a5.85,5.85,0,0,1-5.92,5.08c-1,0-2.07-.31-2.91-2.74-.18-.5-.34-1-.52-1.44,1.43-.28,2.27-1.73,1.44-1.69a9.31,9.31,0,0,1-2.73-.58A2.93,2.93,0,0,0,10,12.52H3.36c-.75,0-2.65,2.79,0,3.62s2.39,2.43,4.77,2.43h.4a10.75,10.75,0,0,0,3.62,6.21c3.77,3.35,7,2.81,7.11,2.79A7.18,7.18,0,0,0,20.05,29c1.28,1.72,2.23,6.31,2.23,8.83s-2.12,2.91-3.11,3.91a2.18,2.18,0,0,0-.63,1.81.52.52,0,0,0,.53.46h5.21a.54.54,0,0,0,.53-.52c0-1,.05-3.19.05-5.66s.42-4.9.62-7.36a16.82,16.82,0,0,0,12.15-2.08,13.94,13.94,0,0,0,.78,2.07C40,33.71,41.9,35,41.9,37.73s-.62,3.09-1.63,4a2.44,2.44,0,0,0-.78,1.71A.52.52,0,0,0,40,44h4.13a.53.53,0,0,0,.53-.53V37.73a8.47,8.47,0,0,1,.37-2.5A3.23,3.23,0,0,0,44.77,32.6Z"/><g id="_Group_" data-name="&lt;Group&gt;"><path id="_Path_2" data-name="&lt;Path&gt;" class="cls-3" d="M14,17.15a2.34,2.34,0,0,1-.55.15c.18.42.34.86.52,1.32.84,2.21,1.9,2.49,2.91,2.49a5.78,5.78,0,0,0,5.92-4.62c.92-4.34,3.13-4.3,4.19-4.3a3.88,3.88,0,0,1,3.4,2.53c.79,1.85,1.9,1.77,2.29.48s1-3.69,3-3.69,3.67,1,4.42,3.69,1,4.1,2.56,5.14a5,5,0,0,1,2.5,4c0-.2,0-.38,0-.55A5.58,5.58,0,0,0,42.7,19c-1.59-1.15-1.81-2.65-2.56-5.65S37.8,9.26,35.72,9.26s-2.65,2.65-3,4.06-1.5,1.5-2.29-.53A3.92,3.92,0,0,0,27,10c-1.06,0-3.27,0-4.19,4.72a5.85,5.85,0,0,1-5.92,5.08C15.87,19.81,14.82,19.51,14,17.15Z"/><path id="_Path_3" data-name="&lt;Path&gt;" class="cls-3" d="M3.36,14.48H10a3.1,3.1,0,0,1,2.17.76,10.66,10.66,0,0,0,1.37.37c1.38-.31,2.18-1.71,1.36-1.67a9.31,9.31,0,0,1-2.73-.58A2.93,2.93,0,0,0,10,12.52H3.36c-.6,0-1.93,1.77-1.09,2.92C2.57,14.89,3.06,14.48,3.36,14.48Z"/></g><path id="_Path_4" data-name="&lt;Path&gt;" class="cls-4" d="M44.77,32.6a2.08,2.08,0,0,1-.31-1.05c0-1.24.75-5.61.75-7.77A5.58,5.58,0,0,0,42.7,19c-1.59-1.15-1.81-2.65-2.56-5.65S37.8,9.26,35.72,9.26s-2.65,2.65-3,4.06-1.5,1.5-2.29-.53A3.92,3.92,0,0,0,27,10c-1.06,0-3.27,0-4.19,4.72a5.85,5.85,0,0,1-5.92,5.08c-1,0-2.07-.31-2.91-2.74-.18-.5-.34-1-.52-1.44,1.43-.28,2.27-1.73,1.44-1.69a9.31,9.31,0,0,1-2.73-.58A2.93,2.93,0,0,0,10,12.52H3.36c-.75,0-2.65,2.79,0,3.62s2.39,2.43,4.77,2.43h.4a10.75,10.75,0,0,0,3.62,6.21c3.77,3.35,7,2.81,7.11,2.79A7.18,7.18,0,0,0,20.05,29c1.28,1.72,2.23,6.31,2.23,8.83s-2.12,2.91-3.11,3.91a2.18,2.18,0,0,0-.63,1.81.52.52,0,0,0,.53.46h5.21a.54.54,0,0,0,.53-.52c0-1,.05-3.19.05-5.66s.42-4.9.62-7.36a16.82,16.82,0,0,0,12.15-2.08,13.94,13.94,0,0,0,.78,2.07C40,33.71,41.9,35,41.9,37.73s-.62,3.09-1.63,4a2.44,2.44,0,0,0-.78,1.71A.52.52,0,0,0,40,44h4.13a.53.53,0,0,0,.53-.53V37.73a8.47,8.47,0,0,1,.37-2.5A3.23,3.23,0,0,0,44.77,32.6Z"/><path id="_Path_5" data-name="&lt;Path&gt;" class="cls-5" d="M37.63,28.38a8.41,8.41,0,0,1-.14-4.33"/><path id="_Path_6" data-name="&lt;Path&gt;" class="cls-5" d="M10.1,17.82s-.17.64-1.57.74"/><path id="_Path_7" data-name="&lt;Path&gt;" class="cls-5" d="M18.44,25.1a11.82,11.82,0,0,0,.82,2.46"/><path id="_Path_8" data-name="&lt;Path&gt;" class="cls-4" d="M12.15,13.36a9.3,9.3,0,0,0,2.73.58c1.06,0-.62,2.34-2.73,1.59"/><circle id="_Path_9" data-name="&lt;Path&gt;" class="cls-6" cx="9.12" cy="14.52" r="0.79"/></svg>