<svg id="Icons" xmlns="http://www.w3.org/2000/svg" viewBox="0 0 48 48"><defs><style>.cls-1{fill:#e0e0e0;}.cls-2{fill:#f0f0f0;}.cls-3{fill:none;}.cls-3,.cls-9{stroke:#45413c;stroke-linecap:round;stroke-linejoin:round;}.cls-4{fill:#bdbec0;}.cls-5{fill:#87898c;}.cls-6,.cls-9{fill:#45413c;}.cls-6{opacity:0.15;}.cls-7{fill:#ffa694;}.cls-8{fill:#ffcabf;}</style></defs><title>470-mouse-face</title><circle id="_Path_" data-name="&lt;Path&gt;" class="cls-1" cx="12.68" cy="11.57" r="9.43" transform="translate(-3.1 4.8) rotate(-19.16)"/><circle id="_Path_2" data-name="&lt;Path&gt;" class="cls-1" cx="35.32" cy="11.57" r="9.43" transform="translate(-1.84 12.15) rotate(-19.04)"/><path id="_Path_3" data-name="&lt;Path&gt;" class="cls-2" d="M12.68,4.5A9.42,9.42,0,0,1,22,12.75a9.11,9.11,0,0,0,.08-1.18,9.43,9.43,0,0,0-18.86,0,9.11,9.11,0,0,0,.08,1.18A9.42,9.42,0,0,1,12.68,4.5Z"/><path id="_Path_4" data-name="&lt;Path&gt;" class="cls-2" d="M35.32,4.5a9.42,9.42,0,0,1,9.35,8.25,9.11,9.11,0,0,0,.08-1.18,9.43,9.43,0,0,0-18.86,0A9.11,9.11,0,0,0,26,12.75,9.42,9.42,0,0,1,35.32,4.5Z"/><circle id="_Path_5" data-name="&lt;Path&gt;" class="cls-3" cx="12.68" cy="11.57" r="9.43" transform="translate(-3.1 4.8) rotate(-19.16)"/><circle id="_Path_6" data-name="&lt;Path&gt;" class="cls-3" cx="35.32" cy="11.57" r="9.43" transform="translate(-1.84 12.15) rotate(-19.04)"/><path id="_Path_7" data-name="&lt;Path&gt;" class="cls-4" d="M19.28,11.57A6.6,6.6,0,1,1,12.68,5,6.6,6.6,0,0,1,19.28,11.57Z"/><path id="_Path_8" data-name="&lt;Path&gt;" class="cls-4" d="M41.92,11.57A6.6,6.6,0,1,1,35.32,5,6.61,6.61,0,0,1,41.92,11.57Z"/><path id="_Path_9" data-name="&lt;Path&gt;" class="cls-5" d="M12.68,7.45a6.6,6.6,0,0,1,6.48,5.36,6.28,6.28,0,0,0,.12-1.24,6.6,6.6,0,0,0-13.2,0,6.28,6.28,0,0,0,.12,1.24A6.6,6.6,0,0,1,12.68,7.45Z"/><path id="_Path_10" data-name="&lt;Path&gt;" class="cls-5" d="M35.32,7.45a6.6,6.6,0,0,1,6.48,5.36,6.28,6.28,0,0,0,.12-1.24,6.6,6.6,0,0,0-13.2,0,6.28,6.28,0,0,0,.12,1.24A6.6,6.6,0,0,1,35.32,7.45Z"/><path id="_Path_11" data-name="&lt;Path&gt;" class="cls-3" d="M19.28,11.57A6.6,6.6,0,1,1,12.68,5,6.6,6.6,0,0,1,19.28,11.57Z"/><path id="_Path_12" data-name="&lt;Path&gt;" class="cls-3" d="M41.92,11.57A6.6,6.6,0,1,1,35.32,5,6.61,6.61,0,0,1,41.92,11.57Z"/><path class="cls-1" d="M36,21.85A12.15,12.15,0,0,0,24,10.13,12.15,12.15,0,0,0,12,21.85,7,7,0,0,0,7.36,28.5c0,2.9,2.57,4.75,4.87,5.77C14.7,35.37,16.18,37,18,39c1.65,1.77,2.68,3.52,6,3.52s4.32-1.75,6-3.52c1.85-2,3.33-3.61,5.8-4.71,2.3-1,4.87-2.87,4.87-5.77A7,7,0,0,0,36,21.85Z"/><path class="cls-2" d="M36,21.85A12.15,12.15,0,0,0,24,10.13,12.15,12.15,0,0,0,12,21.85,7,7,0,0,0,7.36,28.5a4.81,4.81,0,0,0,.16,1.23,7,7,0,0,1,3.76-4.89,1.42,1.42,0,0,0,.81-1.11A12.13,12.13,0,0,1,24,12.81,12.13,12.13,0,0,1,35.91,23.73a1.42,1.42,0,0,0,.81,1.11,7,7,0,0,1,3.76,4.89,4.81,4.81,0,0,0,.16-1.23A7,7,0,0,0,36,21.85Z"/><path class="cls-3" d="M36,21.85A12.15,12.15,0,0,0,24,10.13,12.15,12.15,0,0,0,12,21.85,7,7,0,0,0,7.36,28.5c0,2.9,2.57,4.75,4.87,5.77C14.7,35.37,16.18,37,18,39c1.65,1.77,2.68,3.52,6,3.52s4.32-1.75,6-3.52c1.85-2,3.33-3.61,5.8-4.71,2.3-1,4.87-2.87,4.87-5.77A7,7,0,0,0,36,21.85Z"/><ellipse id="_Ellipse_" data-name="&lt;Ellipse&gt;" class="cls-6" cx="24" cy="45.5" rx="11.5" ry="1.5"/><path id="_Path_13" data-name="&lt;Path&gt;" class="cls-7" d="M26.81,35.26A3.17,3.17,0,0,1,24,37.51a3.17,3.17,0,0,1-2.81-2.25c0-.62,1.26-1.12,2.81-1.12S26.81,34.64,26.81,35.26Z"/><path id="_Path_14" data-name="&lt;Path&gt;" class="cls-8" d="M24,35.56a4.61,4.61,0,0,1,2.42.56,1.74,1.74,0,0,0,.39-.86c0-.62-1.26-1.12-2.81-1.12s-2.81.5-2.81,1.12a1.74,1.74,0,0,0,.39.86A4.61,4.61,0,0,1,24,35.56Z"/><path id="_Path_15" data-name="&lt;Path&gt;" class="cls-3" d="M26.81,35.26A3.17,3.17,0,0,1,24,37.51a3.17,3.17,0,0,1-2.81-2.25c0-.62,1.26-1.12,2.81-1.12S26.81,34.64,26.81,35.26Z"/><circle id="_Path_16" data-name="&lt;Path&gt;" class="cls-9" cx="30.17" cy="24.78" r="1.41"/><circle id="_Path_17" data-name="&lt;Path&gt;" class="cls-9" cx="17.84" cy="24.78" r="1.41"/><path id="_Path_18" data-name="&lt;Path&gt;" class="cls-7" d="M38,28.71c0,.56-.76,1-1.71,1s-1.71-.44-1.71-1,.76-1,1.71-1S38,28.16,38,28.71Z"/><path id="_Path_19" data-name="&lt;Path&gt;" class="cls-7" d="M13.46,28.71c0,.56-.76,1-1.71,1s-1.71-.44-1.71-1,.76-1,1.71-1S13.46,28.16,13.46,28.71Z"/><path id="_Path_20" data-name="&lt;Path&gt;" class="cls-3" d="M29.66,34.68a10.18,10.18,0,0,1,8.49,2.83"/><path id="_Path_21" data-name="&lt;Path&gt;" class="cls-3" d="M29.66,36.57s4.3.53,6.13,4.24"/><path id="_Path_22" data-name="&lt;Path&gt;" class="cls-3" d="M18.34,34.68a10.18,10.18,0,0,0-8.49,2.83"/><path id="_Path_23" data-name="&lt;Path&gt;" class="cls-3" d="M18.34,36.57s-4.3.53-6.13,4.24"/></svg>