<svg id="Icons" xmlns="http://www.w3.org/2000/svg" viewBox="0 0 48 48"><defs><style>.cls-1{fill:#f0f0f0;}.cls-2{fill:#fff;}.cls-3{fill:none;}.cls-10,.cls-3{stroke:#45413c;stroke-linecap:round;stroke-linejoin:round;}.cls-4{fill:#ffb0ca;}.cls-5{fill:#ff87af;}.cls-10,.cls-6{fill:#45413c;}.cls-6{opacity:0.15;}.cls-7{fill:#fcd;}.cls-8{fill:#ffaa54;}.cls-9{fill:#fc9;}</style></defs><title>472-hamster-face</title><g id="_Group_" data-name="&lt;Group&gt;"><circle id="_Path_" data-name="&lt;Path&gt;" class="cls-1" cx="10.97" cy="13.97" r="9.47"/><circle id="_Path_2" data-name="&lt;Path&gt;" class="cls-1" cx="37.03" cy="13.97" r="9.47"/><path id="_Path_3" data-name="&lt;Path&gt;" class="cls-2" d="M11,7.34a9.48,9.48,0,0,1,9.36,8.05A9.38,9.38,0,0,0,20.45,14,9.48,9.48,0,0,0,1.5,14a9.38,9.38,0,0,0,.12,1.42A9.47,9.47,0,0,1,11,7.34Z"/><path id="_Path_4" data-name="&lt;Path&gt;" class="cls-2" d="M37,7.34a9.47,9.47,0,0,1,9.35,8.05A9.39,9.39,0,0,0,37,4.5,9.47,9.47,0,0,0,27.55,14a9.38,9.38,0,0,0,.12,1.42A9.48,9.48,0,0,1,37,7.34Z"/><circle id="_Path_5" data-name="&lt;Path&gt;" class="cls-3" cx="10.97" cy="13.97" r="9.47"/><circle id="_Path_6" data-name="&lt;Path&gt;" class="cls-3" cx="37.03" cy="13.97" r="9.47"/><circle id="_Path_7" data-name="&lt;Path&gt;" class="cls-4" cx="10.97" cy="13.97" r="6.63"/><circle id="_Path_8" data-name="&lt;Path&gt;" class="cls-4" cx="37.03" cy="13.97" r="6.63"/><path id="_Path_9" data-name="&lt;Path&gt;" class="cls-5" d="M11,9.59A6.62,6.62,0,0,1,17.5,15.1,6,6,0,0,0,17.61,14,6.64,6.64,0,0,0,4.34,14a7,7,0,0,0,.1,1.13A6.64,6.64,0,0,1,11,9.59Z"/><path id="_Path_10" data-name="&lt;Path&gt;" class="cls-5" d="M37,9.59a6.64,6.64,0,0,1,6.53,5.51,7,7,0,0,0,.1-1.13,6.64,6.64,0,0,0-13.27,0,6,6,0,0,0,.11,1.13A6.62,6.62,0,0,1,37,9.59Z"/><circle id="_Path_11" data-name="&lt;Path&gt;" class="cls-3" cx="10.97" cy="13.97" r="6.63"/><circle id="_Path_12" data-name="&lt;Path&gt;" class="cls-3" cx="37.03" cy="13.97" r="6.63"/><ellipse id="_Ellipse_" data-name="&lt;Ellipse&gt;" class="cls-6" cx="24" cy="44.5" rx="11.5" ry="1.5"/><path id="_Path_13" data-name="&lt;Path&gt;" class="cls-1" d="M38,26.28a5.92,5.92,0,0,1-1.25-3.64,11.21,11.21,0,0,0-.39-3.14,12.92,12.92,0,0,0-12.88-9.3A12.49,12.49,0,0,0,11.21,22.42v0a6.83,6.83,0,0,1-1.36,4,7.91,7.91,0,0,0-1.48,4.91c.18,4.43,4.2,7.84,8.83,7.84h.47a5.73,5.73,0,0,1,3.14.48,6.35,6.35,0,0,0,6.38,0,5.73,5.73,0,0,1,3.14-.48h.47c4.45,0,8.38-3.13,8.79-7.37A7.86,7.86,0,0,0,38,26.28Z"/><path id="_Path_14" data-name="&lt;Path&gt;" class="cls-2" d="M11.26,24.22A12.56,12.56,0,0,1,23.52,13,12.93,12.93,0,0,1,36.4,22.35a10.5,10.5,0,0,1,.33,1.87H37a5.25,5.25,0,0,1-.23-1.58,11.21,11.21,0,0,0-.39-3.14,12.92,12.92,0,0,0-12.88-9.3A12.49,12.49,0,0,0,11.21,22.42v0a6.3,6.3,0,0,1-.28,1.78Z"/><path id="_Path_15" data-name="&lt;Path&gt;" class="cls-3" d="M38,26.28a5.92,5.92,0,0,1-1.25-3.64,11.21,11.21,0,0,0-.39-3.14,12.92,12.92,0,0,0-12.88-9.3A12.49,12.49,0,0,0,11.21,22.41v0a6.83,6.83,0,0,1-1.36,4,7.91,7.91,0,0,0-1.48,4.91c.18,4.43,4.2,7.84,8.83,7.84h.47a5.73,5.73,0,0,1,3.14.48,6.35,6.35,0,0,0,6.38,0,5.73,5.73,0,0,1,3.14-.48h.47c4.45,0,8.38-3.13,8.79-7.37A7.86,7.86,0,0,0,38,26.28Z"/><path id="_Path_16" data-name="&lt;Path&gt;" class="cls-4" d="M26.84,35.45a2.93,2.93,0,0,1-5.68,0c0-.81,1.27-1.1,2.84-1.1S26.84,34.64,26.84,35.45Z"/><path id="_Path_17" data-name="&lt;Path&gt;" class="cls-7" d="M24,36a5,5,0,0,1,2.41.43,1.73,1.73,0,0,0,.43-1c0-.81-1.27-1.1-2.84-1.1s-2.84.29-2.84,1.1a1.73,1.73,0,0,0,.43,1A5,5,0,0,1,24,36Z"/><path id="_Path_18" data-name="&lt;Path&gt;" class="cls-3" d="M26.84,35.45a2.93,2.93,0,0,1-5.68,0c0-.81,1.27-1.1,2.84-1.1S26.84,34.64,26.84,35.45Z"/><path id="_Path_19" data-name="&lt;Path&gt;" class="cls-8" d="M38,26.28a5.92,5.92,0,0,1-1.25-3.64,11.21,11.21,0,0,0-.39-3.14,12.93,12.93,0,0,0-12.74-9.3l-1.44,2.18a6.11,6.11,0,0,0-.77,5.3,7.27,7.27,0,0,0,3.24,3.89,2.07,2.07,0,0,1,1,2.41c-.73,2.23-.16,5.71,2.08,7.05l.73.44c2.19,1.32,5.38.68,8,.21a9.32,9.32,0,0,0,3.08-1.13A7.94,7.94,0,0,0,38,26.28Z"/><path id="_Path_20" data-name="&lt;Path&gt;" class="cls-9" d="M37,24.22a5.25,5.25,0,0,1-.23-1.58,11.21,11.21,0,0,0-.39-3.14,12.93,12.93,0,0,0-12.74-9.3l-1.44,2.18a5.58,5.58,0,0,0-.47.86,13.07,13.07,0,0,1,1.79-.2,12.92,12.92,0,0,1,12.88,9.31,10.54,10.54,0,0,1,.34,1.87Z"/><path id="_Path_21" data-name="&lt;Path&gt;" class="cls-3" d="M38,26.28a5.92,5.92,0,0,1-1.25-3.64,11.21,11.21,0,0,0-.39-3.14,12.93,12.93,0,0,0-12.74-9.3l-1.44,2.18a6.11,6.11,0,0,0-.77,5.3,7.27,7.27,0,0,0,3.24,3.89,2.07,2.07,0,0,1,1,2.41c-.73,2.23-.16,5.71,2.08,7.05l.73.44c2.19,1.32,5.38.68,8,.21a9.32,9.32,0,0,0,3.08-1.13A7.94,7.94,0,0,0,38,26.28Z"/><path id="_Path_22" data-name="&lt;Path&gt;" class="cls-10" d="M32.05,28.19a1.42,1.42,0,1,1-1.42-1.42A1.42,1.42,0,0,1,32.05,28.19Z"/><path id="_Path_23" data-name="&lt;Path&gt;" class="cls-10" d="M18.79,28.19a1.42,1.42,0,1,1-1.42-1.42A1.43,1.43,0,0,1,18.79,28.19Z"/><path id="_Path_24" data-name="&lt;Path&gt;" class="cls-7" d="M35.84,34.52c0,.55-.77,1-1.72,1s-1.72-.45-1.72-1,.77-1,1.72-1S35.84,34,35.84,34.52Z"/><path id="_Path_25" data-name="&lt;Path&gt;" class="cls-7" d="M15.6,34.52c0,.55-.77,1-1.72,1s-1.72-.45-1.72-1,.77-1,1.72-1S15.6,34,15.6,34.52Z"/></g></svg>