<svg id="Icons" xmlns="http://www.w3.org/2000/svg" viewBox="0 0 48 48"><defs><style>.cls-1,.cls-9{fill:#45413c;}.cls-1{opacity:0.15;}.cls-2{fill:#bdbec0;}.cls-3{fill:#e0e0e0;}.cls-4{fill:none;}.cls-10,.cls-4,.cls-9{stroke:#45413c;stroke-linecap:round;stroke-linejoin:round;}.cls-5{fill:#ffe5ee;}.cls-6{fill:#fcd;}.cls-7{fill:#fff;}.cls-8{fill:#f0f0f0;}.cls-10{fill:#ff87af;}</style></defs><title>473-rabbit-face</title><ellipse id="_Ellipse_" data-name="&lt;Ellipse&gt;" class="cls-1" cx="24" cy="45.5" rx="11.5" ry="1.5"/><path id="_Path_" data-name="&lt;Path&gt;" class="cls-2" d="M28.83,11.85c-.49,4.21-.06,10.94,1.83,14.12,2.57-2.67,4.61-6.42,5.37-13.28a18.46,18.46,0,0,0-1.7-10.2.94.94,0,0,0-1.52-.18A18.31,18.31,0,0,0,28.83,11.85Z"/><path id="_Path_2" data-name="&lt;Path&gt;" class="cls-2" d="M19.17,11.85c.49,4.21.06,10.94-1.83,14.12C14.77,23.3,12.73,19.55,12,12.69a18.46,18.46,0,0,1,1.7-10.2.94.94,0,0,1,1.52-.18A18.31,18.31,0,0,1,19.17,11.85Z"/><path id="_Path_3" data-name="&lt;Path&gt;" class="cls-3" d="M28.83,14.44a18.31,18.31,0,0,1,4-9.54.94.94,0,0,1,1.52.17,17.86,17.86,0,0,1,1.76,6.73,18.27,18.27,0,0,0-1.76-9.31.94.94,0,0,0-1.52-.18,18.31,18.31,0,0,0-4,9.54,33.49,33.49,0,0,0-.16,4.82C28.7,15.88,28.75,15.13,28.83,14.44Z"/><path id="_Path_4" data-name="&lt;Path&gt;" class="cls-3" d="M13.67,5.07a.94.94,0,0,1,1.52-.17,18.31,18.31,0,0,1,4,9.54c.08.69.13,1.44.16,2.23a33.49,33.49,0,0,0-.16-4.82,18.31,18.31,0,0,0-4-9.54.94.94,0,0,0-1.52.18,18.27,18.27,0,0,0-1.76,9.31A17.86,17.86,0,0,1,13.67,5.07Z"/><path id="_Path_5" data-name="&lt;Path&gt;" class="cls-4" d="M28.83,11.85c-.49,4.21-.06,10.94,1.83,14.12,2.57-2.67,4.61-6.42,5.37-13.28a18.46,18.46,0,0,0-1.7-10.2.94.94,0,0,0-1.52-.18A18.31,18.31,0,0,0,28.83,11.85Z"/><path id="_Path_6" data-name="&lt;Path&gt;" class="cls-4" d="M19.17,11.85c.49,4.21.06,10.94-1.83,14.12C14.77,23.3,12.73,19.55,12,12.69a18.46,18.46,0,0,1,1.7-10.2.94.94,0,0,1,1.52-.18A18.31,18.31,0,0,1,19.17,11.85Z"/><path id="_Path_7" data-name="&lt;Path&gt;" class="cls-5" d="M30.66,18.53a22.17,22.17,0,0,1,.39-7.45,16.91,16.91,0,0,1,1.88-5.19.39.39,0,0,1,.72.09,21,21,0,0,1,.54,7.45,13.57,13.57,0,0,1-2,6.27Z"/><path id="_Path_8" data-name="&lt;Path&gt;" class="cls-5" d="M17.34,18.53A22.17,22.17,0,0,0,17,11.08a16.91,16.91,0,0,0-1.88-5.19.39.39,0,0,0-.72.09,21,21,0,0,0-.54,7.45,13.57,13.57,0,0,0,2,6.27Z"/><path id="_Path_9" data-name="&lt;Path&gt;" class="cls-6" d="M31.05,14.45a17,17,0,0,1,1.88-5.19.4.4,0,0,1,.72.09,19.87,19.87,0,0,1,.58,3.52A20.92,20.92,0,0,0,33.65,6a.39.39,0,0,0-.72-.09,16.91,16.91,0,0,0-1.88,5.19,23.42,23.42,0,0,0-.47,6.71A24.25,24.25,0,0,1,31.05,14.45Z"/><path id="_Path_10" data-name="&lt;Path&gt;" class="cls-6" d="M14.35,9.35a.4.4,0,0,1,.72-.09A17,17,0,0,1,17,14.45a24.25,24.25,0,0,1,.47,3.34A23.42,23.42,0,0,0,17,11.08a16.91,16.91,0,0,0-1.88-5.19.39.39,0,0,0-.72.09,20.92,20.92,0,0,0-.58,6.89A19.87,19.87,0,0,1,14.35,9.35Z"/><path id="_Path_11" data-name="&lt;Path&gt;" class="cls-4" d="M30.66,18.53a22.17,22.17,0,0,1,.39-7.45,16.91,16.91,0,0,1,1.88-5.19.39.39,0,0,1,.72.09,21,21,0,0,1,.54,7.45,13.57,13.57,0,0,1-2,6.27Z"/><path id="_Path_12" data-name="&lt;Path&gt;" class="cls-4" d="M17.34,18.53A22.17,22.17,0,0,0,17,11.08a16.91,16.91,0,0,0-1.88-5.19.39.39,0,0,0-.72.09,21,21,0,0,0-.54,7.45,13.57,13.57,0,0,0,2,6.27Z"/><path id="_Path_13" data-name="&lt;Path&gt;" class="cls-7" d="M25.87,44.5H22.13a.78.78,0,0,1-.78-.7l-.57-5.21h6.44l-.57,5.21A.78.78,0,0,1,25.87,44.5Z"/><polygon id="_Path_14" data-name="&lt;Path&gt;" class="cls-8" points="26.75 42.94 27.22 38.59 20.78 38.59 21.25 42.94 26.75 42.94"/><path id="_Path_15" data-name="&lt;Path&gt;" class="cls-4" d="M25.87,44.5H22.13a.78.78,0,0,1-.78-.7l-.57-5.21h6.44l-.57,5.21A.78.78,0,0,1,25.87,44.5Z"/><line id="_Path_16" data-name="&lt;Path&gt;" class="cls-4" x1="24" y1="40.19" x2="24" y2="44.5"/><path class="cls-2" d="M34.78,25.11a1,1,0,0,1-.52-.69l-.55-2.94c-.57-4-4.75-7-9.71-7s-9.14,3-9.71,7l-.55,2.94a1,1,0,0,1-.52.69A7.16,7.16,0,0,0,9.5,31.3v.55a7.53,7.53,0,0,0,7.76,7.26h2.93a3.8,3.8,0,0,0,3.81-3,3.8,3.8,0,0,0,3.81,3h2.93a7.53,7.53,0,0,0,7.76-7.26V31.3A7.16,7.16,0,0,0,34.78,25.11Z"/><path id="_Path_17" data-name="&lt;Path&gt;" class="cls-3" d="M34.78,25.11a1,1,0,0,1-.52-.69l-.55-2.94c-.57-4-4.75-7-9.71-7s-9.14,3-9.71,7l-.55,2.94a1,1,0,0,1-.52.69A7.16,7.16,0,0,0,9.5,31.3v.55a6.72,6.72,0,0,0,.14,1.35,7.28,7.28,0,0,1,3.58-4.9,1,1,0,0,0,.52-.69l.55-2.93c.57-4,4.75-7,9.71-7s9.14,3,9.71,7l.55,2.93a1,1,0,0,0,.52.69,7.28,7.28,0,0,1,3.58,4.9,6.72,6.72,0,0,0,.14-1.35V31.3A7.16,7.16,0,0,0,34.78,25.11Z"/><path class="cls-4" d="M34.78,25.11a1,1,0,0,1-.52-.69l-.55-2.94c-.57-4-4.75-7-9.71-7s-9.14,3-9.71,7l-.55,2.94a1,1,0,0,1-.52.69A7.16,7.16,0,0,0,9.5,31.3v.55a7.53,7.53,0,0,0,7.76,7.26h2.93a3.8,3.8,0,0,0,3.81-3,3.8,3.8,0,0,0,3.81,3h2.93a7.53,7.53,0,0,0,7.76-7.26V31.3A7.16,7.16,0,0,0,34.78,25.11Z"/><circle id="_Path_18" data-name="&lt;Path&gt;" class="cls-9" cx="29.75" cy="27.86" r="1.36"/><circle id="_Path_19" data-name="&lt;Path&gt;" class="cls-9" cx="18.25" cy="27.86" r="1.36"/><path id="_Path_20" data-name="&lt;Path&gt;" class="cls-8" d="M36.64,31.26c0,.48-.73.87-1.64.87s-1.64-.39-1.64-.87.73-.87,1.64-.87S36.64,30.78,36.64,31.26Z"/><path id="_Path_21" data-name="&lt;Path&gt;" class="cls-8" d="M14.64,31.52c0,.48-.73.87-1.64.87s-1.64-.39-1.64-.87.73-.86,1.64-.86S14.64,31.05,14.64,31.52Z"/><path id="_Path_22" data-name="&lt;Path&gt;" class="cls-8" d="M26.32,30.18A1.81,1.81,0,0,1,25,29.29a1.13,1.13,0,0,0-2,0,1.81,1.81,0,0,1-1.33.89c-4.4.69-7.68,3.25-7.68,6.32C14,40.09,18.54,43,24,41c5.5,1.88,10-.91,10-4.5C34,33.43,30.72,30.87,26.32,30.18Z"/><path class="cls-7" d="M21.68,32.39a1.82,1.82,0,0,0,1.33-.9,1.13,1.13,0,0,1,2,0,1.82,1.82,0,0,0,1.33.9c3.86.6,6.86,2.64,7.54,5.21A4.48,4.48,0,0,0,34,36.5c0-3.07-3.28-5.63-7.68-6.32A1.81,1.81,0,0,1,25,29.29a1.13,1.13,0,0,0-2,0,1.81,1.81,0,0,1-1.33.89c-4.4.69-7.68,3.25-7.68,6.32a4.54,4.54,0,0,0,.14,1.1C14.82,35,17.82,33,21.68,32.39Z"/><path id="_Path_23" data-name="&lt;Path&gt;" class="cls-4" d="M26.32,30.18A1.81,1.81,0,0,1,25,29.29a1.13,1.13,0,0,0-2,0,1.81,1.81,0,0,1-1.33.89c-4.4.69-7.68,3.25-7.68,6.32C14,40.09,18.54,43,24,41c5.5,1.88,10-.91,10-4.5C34,33.43,30.72,30.87,26.32,30.18Z"/><path id="_Path_24" data-name="&lt;Path&gt;" class="cls-10" d="M26.69,34.61a2.76,2.76,0,0,1-5.38,0c0-.89,1.21-1.61,2.69-1.61S26.69,33.72,26.69,34.61Z"/></svg>