<svg id="Icons" xmlns="http://www.w3.org/2000/svg" viewBox="0 0 48 48"><defs><style>.cls-1,.cls-7{fill:#45413c;}.cls-1{opacity:0.15;}.cls-2{fill:#e5feff;}.cls-3,.cls-5{fill:#fff;}.cls-4{fill:none;}.cls-4,.cls-5,.cls-6{stroke:#45413c;stroke-linecap:round;stroke-linejoin:round;}.cls-6{fill:#ffa694;}.cls-8{fill:#fc9;}</style></defs><title>474-rabbit</title><ellipse id="_Ellipse_" data-name="&lt;Ellipse&gt;" class="cls-1" cx="24.05" cy="45.13" rx="16.84" ry="1.87"/><path id="_Path_" data-name="&lt;Path&gt;" class="cls-2" d="M13.45,16.62s.07-3,3.74-8.1,6.93-5.54,7.48-5,.94,4.13-2.49,8.73a18.63,18.63,0,0,1-6.24,5.61Z"/><path id="_Path_2" data-name="&lt;Path&gt;" class="cls-3" d="M17.19,12.61c3.58-5,6.78-5.51,7.43-5,.67-2.2.39-3.72.05-4.06-.55-.55-3.82-.16-7.48,5s-3.74,8.1-3.74,8.1l1.07.54A26.85,26.85,0,0,1,17.19,12.61Z"/><path id="_Path_3" data-name="&lt;Path&gt;" class="cls-4" d="M13.45,16.62s.07-3,3.74-8.1,6.93-5.54,7.48-5,.94,4.13-2.49,8.73a18.63,18.63,0,0,1-6.24,5.61Z"/><circle id="_Path_4" data-name="&lt;Path&gt;" class="cls-5" cx="40.88" cy="24.73" r="3.12"/><path class="cls-2" d="M42.13,31.59c0-8.26-7.48-9.35-12.47-9.35H21.55a10,10,0,0,0-1.05-2.52,27.57,27.57,0,0,0,6-1.22c5.3-1.64,9-4.14,8.73-5s-3.59-1.87-10-.63a17.62,17.62,0,0,0-8.24,3.89,4,4,0,0,0-.49-.15c-3.58-.77-6.78,1.17-8.73,2.5a23.47,23.47,0,0,0-3.11,2.49s.25,4.1,3.74,5.62a8.69,8.69,0,0,0,5,.62s.27,4.12,2.63,6.43l-2,7.6h-.62a2.6,2.6,0,0,0-2,1.67,1.24,1.24,0,0,0,1.14,1.76h3.52a2.49,2.49,0,0,0,2.34-1.63l2.76-7.5a51,51,0,0,0,7,.41,8,8,0,0,0,2.38,5H27.91c-2.31,0-2.92,1.09-3,2A1.23,1.23,0,0,0,26.13,45h5.18C35.88,45,42.13,39.7,42.13,31.59Z"/><g id="_Group_" data-name="&lt;Group&gt;"><path id="_Path_5" data-name="&lt;Path&gt;" class="cls-3" d="M21.55,22.24a2.41,2.41,0,0,0,2.4,2.4h5.71c4.77,0,11.81,1,12.41,8.34,0-.45.06-.91.06-1.39,0-8.26-7.48-9.35-12.47-9.35Z"/><path id="_Path_6" data-name="&lt;Path&gt;" class="cls-3" d="M7.83,21.52C9.78,20.2,13,18.25,16.56,19a3.94,3.94,0,0,1,.49.14,17.53,17.53,0,0,1,8.24-3.88c4.22-.83,7.1-.66,8.65-.21.93-.67,1.42-1.24,1.33-1.57-.23-.86-3.59-1.87-10-.63a17.62,17.62,0,0,0-8.24,3.89,4,4,0,0,0-.49-.15c-3.58-.77-6.78,1.17-8.73,2.5a23.47,23.47,0,0,0-3.11,2.49,7.91,7.91,0,0,0,.46,2A28.46,28.46,0,0,1,7.83,21.52Z"/></g><path class="cls-4" d="M42.13,31.59c0-8.26-7.48-9.35-12.47-9.35H21.55a10,10,0,0,0-1.05-2.52,27.57,27.57,0,0,0,6-1.22c5.3-1.64,9-4.14,8.73-5s-3.59-1.87-10-.63a17.62,17.62,0,0,0-8.24,3.89,4,4,0,0,0-.49-.15c-3.58-.77-6.78,1.17-8.73,2.5a23.47,23.47,0,0,0-3.11,2.49s.25,4.1,3.74,5.62a8.69,8.69,0,0,0,5,.62s.27,4.12,2.63,6.43l-2,7.6h-.62a2.6,2.6,0,0,0-2,1.67,1.24,1.24,0,0,0,1.14,1.76h3.52a2.49,2.49,0,0,0,2.34-1.63l2.76-7.5a51,51,0,0,0,7,.41,8,8,0,0,0,2.38,5H27.91c-2.31,0-2.92,1.09-3,2A1.23,1.23,0,0,0,26.13,45h5.18C35.88,45,42.13,39.7,42.13,31.59Z"/><path id="_Path_7" data-name="&lt;Path&gt;" class="cls-4" d="M30.56,41.64A7.79,7.79,0,0,1,29,32.53"/><path id="_Path_8" data-name="&lt;Path&gt;" class="cls-6" d="M21,19.67a28.53,28.53,0,0,0,5.54-1.17,28.3,28.3,0,0,0,7.11-3.22c-1.45-.7-3.65-.87-7.11.1C21.81,16.7,21.3,19.24,21,19.67Z"/><path id="_Path_9" data-name="&lt;Path&gt;" class="cls-7" d="M15,20.58a1.25,1.25,0,1,1-1.24-1.24A1.25,1.25,0,0,1,15,20.58Z"/><path id="_Path_10" data-name="&lt;Path&gt;" class="cls-8" d="M16.1,23.52c0,.35.56.63,1.25.63s1.25-.28,1.25-.63-.56-.62-1.25-.62S16.1,23.18,16.1,23.52Z"/><path id="_Path_11" data-name="&lt;Path&gt;" class="cls-6" d="M7.73,22.18c0-.66-1-1.19-2.32-1.2-.44.38-.69.63-.69.63a7.79,7.79,0,0,0,.5,2.08C6.7,23.77,7.73,22.81,7.73,22.18Z"/></svg>