<svg id="Icons" xmlns="http://www.w3.org/2000/svg" viewBox="0 0 48 48"><defs><style>.cls-1,.cls-8{fill:#debb7e;}.cls-10,.cls-2{fill:#f0d5a8;}.cls-12,.cls-3{fill:none;}.cls-10,.cls-13,.cls-3,.cls-8{stroke:#45413c;}.cls-10,.cls-12,.cls-13,.cls-3,.cls-8{stroke-linecap:round;stroke-linejoin:round;}.cls-4{fill:#f7e5c6;}.cls-5{fill:#fff5e3;}.cls-6{fill:#bf8256;}.cls-13,.cls-7{fill:#915e3a;}.cls-11,.cls-9{fill:#45413c;}.cls-9{opacity:0.15;}.cls-12{stroke:#915e3a;}</style></defs><title>475-chipmunk</title><g id="_Group_" data-name="&lt;Group&gt;"><path id="_Path_" data-name="&lt;Path&gt;" class="cls-1" d="M14.89,6.38c-7.44-.6-9,4.13-10.39,6.91C2.64,17,2.64,19.06,7.2,19.68s5.89-.41,7.51.9,1.46,4.79.31,9-.54,9.11,3.78,11.66,8.8,3.16,14.82,2.47S44,39.31,45,31s-2.47-8.44-3.12-14.64c-.61-5.88,2.81-8.77-1.46-11.11C37,3.38,32.69,7.85,32.77,13.48s4.4,7,5.78,12.74S37.47,38,35.54,38c.62-2.32,2.17-8.94-.69-13.46S26.51,18.5,24,15.72,19.43,6.75,14.89,6.38Z"/><g id="_Group_2" data-name="&lt;Group&gt;"><path id="_Path_2" data-name="&lt;Path&gt;" class="cls-2" d="M32.89,15c.72-4.75,4.51-8.13,7.52-6.48a4,4,0,0,1,2,1.92c.41-2.23.54-3.78-2-5.14C37,3.42,32.69,7.89,32.77,13.52A9.35,9.35,0,0,0,32.89,15Z"/><path id="_Path_3" data-name="&lt;Path&gt;" class="cls-2" d="M4.5,16.55c1.39-2.78,3-7.51,10.39-6.9C19.43,10,21.42,16.21,24,19s8,4.33,10.88,8.85A11.47,11.47,0,0,1,36.45,33a13.78,13.78,0,0,0-1.6-8.36C32,20.08,26.51,18.54,24,15.76s-4.54-9-9.08-9.34c-7.44-.6-9,4.13-10.39,6.91-1.11,2.21-1.56,3.84-.76,4.93A15.1,15.1,0,0,1,4.5,16.55Z"/></g><path id="_Path_4" data-name="&lt;Path&gt;" class="cls-3" d="M14.89,6.38c-7.44-.6-9,4.13-10.39,6.91C2.64,17,2.64,19.06,7.2,19.68s5.89-.41,7.51.9,1.46,4.79.31,9-.54,9.11,3.78,11.66,8.8,3.16,14.82,2.47S44,39.31,45,31s-2.47-8.44-3.12-14.64c-.61-5.88,2.81-8.77-1.46-11.11C37,3.38,32.69,7.85,32.77,13.48s4.4,7,5.78,12.74S37.47,38,35.54,38c.62-2.32,2.17-8.94-.69-13.46S26.51,18.5,24,15.72,19.43,6.75,14.89,6.38Z"/><path id="_Path_5" data-name="&lt;Path&gt;" class="cls-4" d="M20.26,33.7c-2.78-3-.54-5.24-.69-8.7s-3.4-6.81-5-8.35.08-4.71-3.32-6.72c-2.16-1.27-4.4.52-6.1,2.05L4.5,13.29C2.64,17,2.64,19.06,7.2,19.68s5.89-.41,7.51.9,1.46,4.79.31,9-.54,9.11,3.78,11.66a19.47,19.47,0,0,0,4.44,1.93C22.82,40,22,35.54,20.26,33.7Z"/><path id="_Path_6" data-name="&lt;Path&gt;" class="cls-5" d="M10.41,18.1c1.94.11,4,.26,6.07.56-.71-.82-1.4-1.51-1.93-2-1.62-1.55.08-4.71-3.32-6.72-2.16-1.27-4.4.52-6.1,2.05L4.5,13.29a10.34,10.34,0,0,0-1.13,3.13A16.73,16.73,0,0,0,10.41,18.1Z"/><path id="_Path_7" data-name="&lt;Path&gt;" class="cls-3" d="M20.26,33.7c-2.78-3-.54-5.24-.69-8.7s-3.4-6.81-5-8.35.08-4.71-3.32-6.72c-2.16-1.27-4.4.52-6.1,2.05L4.5,13.29C2.64,17,2.64,19.06,7.2,19.68s5.89-.41,7.51.9,1.46,4.79.31,9-.54,9.11,3.78,11.66a19.47,19.47,0,0,0,4.44,1.93C22.82,40,22,35.54,20.26,33.7Z"/><path id="_Path_8" data-name="&lt;Path&gt;" class="cls-6" d="M8.44,30.85l-.62.76A1.22,1.22,0,0,1,6.49,32l-.92-.32a3.61,3.61,0,0,1-2.45-3.13l-.2-2.38,4.84-1.38L8.85,26.9A3.63,3.63,0,0,1,8.44,30.85Z"/><path class="cls-7" d="M8.85,26.9l-.92-1.8L3,26.53l.17,2a2,2,0,0,0,0,.35L9,27.22A3.13,3.13,0,0,0,8.85,26.9Z"/><path id="_Path_9" data-name="&lt;Path&gt;" class="cls-3" d="M8.44,30.85l-.62.76A1.22,1.22,0,0,1,6.49,32l-.92-.32a3.61,3.61,0,0,1-2.45-3.13l-.2-2.38,4.84-1.38L8.85,26.9A3.63,3.63,0,0,1,8.44,30.85Z"/><path class="cls-8" d="M8,24.41a1.61,1.61,0,0,0-1.91-.88l-2.43.7A1.62,1.62,0,0,0,2.51,26a.63.63,0,0,0,.8.52l4.3-1.24A.62.62,0,0,0,8,24.41Z"/><line id="_Path_10" data-name="&lt;Path&gt;" class="cls-3" x1="4.88" y1="23.88" x2="4.5" y2="22.54"/><ellipse id="_Ellipse_" data-name="&lt;Ellipse&gt;" class="cls-9" cx="24" cy="45.15" rx="17.91" ry="1.85"/><path id="_Path_11" data-name="&lt;Path&gt;" class="cls-1" d="M19.73,41.24s-5.1-6-.86-10.39,12-1.31,12.43,5.09c.36,5.92-1.93,8.06-1.93,8.06H13.09s-.62-1.81.69-2.73S19.73,41.24,19.73,41.24Z"/><g id="_Group_3" data-name="&lt;Group&gt;"><path id="_Path_12" data-name="&lt;Path&gt;" class="cls-2" d="M18.87,34.11c4.17-4.3,11.7-1.44,12.39,4.67a18.71,18.71,0,0,0,0-2.84c-.39-6.4-8.16-9.49-12.43-5.09a6,6,0,0,0-1.48,5.79A5.89,5.89,0,0,1,18.87,34.11Z"/></g><path id="_Path_13" data-name="&lt;Path&gt;" class="cls-3" d="M19.73,41.24s-5.1-6-.86-10.39,12-1.31,12.43,5.09c.36,5.92-1.93,8.06-1.93,8.06H13.09s-.62-1.81.69-2.73S19.73,41.24,19.73,41.24Z"/><path id="_Path_14" data-name="&lt;Path&gt;" class="cls-8" d="M18.26,19.27c-3.51,2-4,4.47-7,5.55S8,25,6.68,26s-1.39,2.93,0,3.31,3.24-1,5.56-.92,7.61.94,9.9-3.81"/><path id="_Path_15" data-name="&lt;Path&gt;" class="cls-10" d="M12.94,8.06c.33-.39.28-4.92,3-4.54s2.23,3.37,1,4.44"/><path id="_Path_16" data-name="&lt;Path&gt;" class="cls-11" d="M9.92,12.87A.93.93,0,1,1,9,11.94.92.92,0,0,1,9.92,12.87Z"/><path id="_Path_17" data-name="&lt;Path&gt;" class="cls-12" d="M19.57,13.29s.62,4.28,5.94,7.06,8.18,5.25,8.26,12.74"/><path id="_Path_18" data-name="&lt;Path&gt;" class="cls-12" d="M25.67,23.19a9.31,9.31,0,0,1,5.09,5.6"/><path id="_Path_19" data-name="&lt;Path&gt;" class="cls-13" d="M6.36,16.57c.13.58-.5,1.22-1.57,1.46s-1.33-.19-1.46-.78-.09-1.08,1-1.33S6.23,16,6.36,16.57Z"/></g></svg>