<svg id="Icons" xmlns="http://www.w3.org/2000/svg" viewBox="0 0 48 48"><defs><style>.cls-1{fill:#debb7e;}.cls-2,.cls-5{fill:#f0d5a8;}.cls-3{fill:none;}.cls-3,.cls-5,.cls-8,.cls-9{stroke:#45413c;stroke-linecap:round;stroke-linejoin:round;}.cls-4,.cls-9{fill:#45413c;}.cls-4{opacity:0.15;}.cls-6{fill:#f7e5c6;}.cls-7{fill:#fff5e3;}.cls-8{fill:#87898c;}</style></defs><title>476-bear-face</title><g id="_Group_" data-name="&lt;Group&gt;"><circle id="_Path_" data-name="&lt;Path&gt;" class="cls-1" cx="34.38" cy="11.09" r="6.72"/><circle id="_Path_2" data-name="&lt;Path&gt;" class="cls-1" cx="13.62" cy="11.09" r="6.72"/><path id="_Path_3" data-name="&lt;Path&gt;" class="cls-2" d="M34.38,7A6.72,6.72,0,0,1,41,12.42a6.52,6.52,0,0,0,.13-1.33,6.72,6.72,0,1,0-13.43,0,6.53,6.53,0,0,0,.14,1.33A6.72,6.72,0,0,1,34.38,7Z"/><path id="_Path_4" data-name="&lt;Path&gt;" class="cls-2" d="M13.62,7a6.72,6.72,0,0,1,6.58,5.38,6.53,6.53,0,0,0,.14-1.33,6.72,6.72,0,1,0-13.43,0A6.52,6.52,0,0,0,7,12.42,6.72,6.72,0,0,1,13.62,7Z"/><circle id="_Path_5" data-name="&lt;Path&gt;" class="cls-3" cx="34.38" cy="11.09" r="6.72"/><circle id="_Path_6" data-name="&lt;Path&gt;" class="cls-3" cx="13.62" cy="11.09" r="6.72"/><ellipse id="_Ellipse_" data-name="&lt;Ellipse&gt;" class="cls-4" cx="24" cy="45.17" rx="14.04" ry="1.83"/><path id="_Path_7" data-name="&lt;Path&gt;" class="cls-1" d="M37.91,19.63h0V18.39C37.91,11.79,32.26,7,25.28,7H22.72c-7,0-12.63,4.75-12.63,11.35v1.23h0A10.72,10.72,0,0,0,6.3,27.77C6.3,33.39,11.11,38,17.05,38H31c5.94,0,10.75-4.56,10.75-10.18A10.72,10.72,0,0,0,37.91,19.63Z"/><path class="cls-2" d="M37.91,19.63h0V18.39C37.91,11.79,32.26,7,25.28,7H22.72c-7,0-12.63,4.75-12.63,11.35v1.23h0A10.72,10.72,0,0,0,6.3,27.77a9.5,9.5,0,0,0,.2,1.93,10.81,10.81,0,0,1,2.79-5.48,2.85,2.85,0,0,0,.8-2c0-6.61,5.65-11.35,12.63-11.35h2.56c7,0,12.63,4.74,12.63,11.35a2.85,2.85,0,0,0,.8,2A10.81,10.81,0,0,1,41.5,29.7a9.5,9.5,0,0,0,.2-1.93A10.72,10.72,0,0,0,37.91,19.63Z"/><path id="_Path_8" data-name="&lt;Path&gt;" class="cls-3" d="M37.91,19.63h0V18.39C37.91,11.79,32.26,7,25.28,7H22.72c-7,0-12.63,4.75-12.63,11.35v1.23h0A10.72,10.72,0,0,0,6.3,27.77C6.3,33.39,11.11,38,17.05,38H31c5.94,0,10.75-4.56,10.75-10.18A10.72,10.72,0,0,0,37.91,19.63Z"/><ellipse id="_Path_9" data-name="&lt;Path&gt;" class="cls-5" cx="24" cy="37.95" rx="4.88" ry="3.05"/><path id="_Path_10" data-name="&lt;Path&gt;" class="cls-6" d="M25.83,28.18H22.17a6.11,6.11,0,0,0-6.11,6.1A4.26,4.26,0,0,0,24,36.45a4.26,4.26,0,0,0,7.94-2.17A6.11,6.11,0,0,0,25.83,28.18Z"/><path id="_Path_11" data-name="&lt;Path&gt;" class="cls-7" d="M22.17,31.46h3.66a6.1,6.1,0,0,1,5.82,4.34,4.24,4.24,0,0,0,.29-1.52,6.11,6.11,0,0,0-6.11-6.1H22.17a6.11,6.11,0,0,0-6.11,6.1,4.24,4.24,0,0,0,.29,1.52A6.1,6.1,0,0,1,22.17,31.46Z"/><path id="_Path_12" data-name="&lt;Path&gt;" class="cls-3" d="M25.83,28.18H22.17a6.11,6.11,0,0,0-6.11,6.1A4.26,4.26,0,0,0,24,36.45a4.26,4.26,0,0,0,7.94-2.17A6.11,6.11,0,0,0,25.83,28.18Z"/><path id="_Path_13" data-name="&lt;Path&gt;" class="cls-8" d="M27.05,30A3.13,3.13,0,0,1,21,30c0-1,1.36-1.83,3.05-1.83S27.05,29,27.05,30Z"/><circle id="_Path_14" data-name="&lt;Path&gt;" class="cls-9" cx="31.94" cy="24.52" r="1.83"/><circle id="_Path_15" data-name="&lt;Path&gt;" class="cls-9" cx="16.06" cy="24.52" r="1.83"/><path id="_Path_16" data-name="&lt;Path&gt;" class="cls-7" d="M38.65,30.4c0,.55-1,1-2.22,1s-2.22-.45-2.22-1,1-1,2.22-1S38.65,29.85,38.65,30.4Z"/><path id="_Path_17" data-name="&lt;Path&gt;" class="cls-7" d="M13.79,30.4c0,.55-1,1-2.22,1s-2.22-.45-2.22-1,1-1,2.22-1S13.79,29.85,13.79,30.4Z"/></g></svg>