<svg id="Icons" xmlns="http://www.w3.org/2000/svg" viewBox="0 0 48 48"><defs><style>.cls-1{fill:#ff8a14;}.cls-2{fill:#ffaa54;}.cls-3{fill:none;}.cls-10,.cls-3{stroke:#45413c;stroke-linecap:round;stroke-linejoin:round;}.cls-10,.cls-4{fill:#45413c;}.cls-4{opacity:0.15;}.cls-5{fill:#ffe500;}.cls-6{fill:#fff48c;}.cls-7{fill:#ebcb00;}.cls-8{fill:#f0f0f0;}.cls-9{fill:#fff;}</style></defs><title>483hatching chick-2</title><g id="_Group_" data-name="&lt;Group&gt;"><path id="_Path_" data-name="&lt;Path&gt;" class="cls-1" d="M17.46,6.5A6,6,0,0,0,14,4.76a5.52,5.52,0,0,0-2.91,0,.51.51,0,0,0-.24.79l3.34,4.29-3.81,1.33a.5.5,0,0,0-.11.89,11.37,11.37,0,0,0,3.27,1.54,12.83,12.83,0,0,0,2.67.39Z"/><g id="_Group_2" data-name="&lt;Group&gt;"><path id="_Path_2" data-name="&lt;Path&gt;" class="cls-2" d="M11.52,6.47a6.14,6.14,0,0,1,2.44.1A6.94,6.94,0,0,1,17.19,8l.27-1.54A6,6,0,0,0,14,4.76a5.53,5.53,0,0,0-2.91,0,.51.51,0,0,0-.24.79Z"/></g><path id="_Path_3" data-name="&lt;Path&gt;" class="cls-3" d="M17.46,6.5A6,6,0,0,0,14,4.76a5.52,5.52,0,0,0-2.91,0,.51.51,0,0,0-.24.79l3.34,4.29-3.81,1.33a.5.5,0,0,0-.11.89,11.37,11.37,0,0,0,3.27,1.54,12.83,12.83,0,0,0,2.67.39Z"/><ellipse id="_Ellipse_" data-name="&lt;Ellipse&gt;" class="cls-4" cx="24" cy="45.5" rx="13" ry="1.5"/><path id="_Path_4" data-name="&lt;Path&gt;" class="cls-5" d="M29.08,21.59s7.08-4.25,8.5-3.5-.59,8.17-5,10S29.08,21.59,29.08,21.59Z"/><path id="_Path_5" data-name="&lt;Path&gt;" class="cls-6" d="M29.08,24.09s7.08-4.25,8.5-3.5a.69.69,0,0,1,.25.28c.32-1.4.25-2.51-.25-2.78-1.42-.75-8.5,3.5-8.5,3.5a18.14,18.14,0,0,0,0,2.9C29.06,24.24,29.08,24.09,29.08,24.09Z"/><path id="_Path_6" data-name="&lt;Path&gt;" class="cls-3" d="M29.08,21.59s7.08-4.25,8.5-3.5-.59,8.17-5,10S29.08,21.59,29.08,21.59Z"/><path id="_Path_7" data-name="&lt;Path&gt;" class="cls-5" d="M18.92,21.59s-7.08-4.25-8.5-3.5.58,8.17,5,10S18.92,21.59,18.92,21.59Z"/><path id="_Path_8" data-name="&lt;Path&gt;" class="cls-6" d="M10.42,20.59c1.42-.75,8.5,3.5,8.5,3.5s0,.15,0,.4a17.51,17.51,0,0,0,0-2.9s-7.08-4.25-8.5-3.5c-.5.27-.57,1.38-.25,2.78A.63.63,0,0,1,10.42,20.59Z"/><path id="_Path_9" data-name="&lt;Path&gt;" class="cls-3" d="M18.92,21.59s-7.08-4.25-8.5-3.5.58,8.17,5,10S18.92,21.59,18.92,21.59Z"/><ellipse id="_Path_10" data-name="&lt;Path&gt;" class="cls-5" cx="24" cy="30.5" rx="10.5" ry="12.5"/><path id="_Path_11" data-name="&lt;Path&gt;" class="cls-7" d="M31.88,22.23a10.5,10.5,0,0,1-15.76,0A9.87,9.87,0,0,1,24,18,9.87,9.87,0,0,1,31.88,22.23Z"/><ellipse id="_Path_12" data-name="&lt;Path&gt;" class="cls-3" cx="24" cy="30.5" rx="10.5" ry="12.5"/><circle id="_Path_13" data-name="&lt;Path&gt;" class="cls-5" cx="24" cy="12.5" r="10.5"/><path id="_Path_14" data-name="&lt;Path&gt;" class="cls-6" d="M24,4.78a10.51,10.51,0,0,1,10.4,9.11,10.5,10.5,0,1,0-20.8,0A10.49,10.49,0,0,1,24,4.78Z"/><circle id="_Path_15" data-name="&lt;Path&gt;" class="cls-3" cx="24" cy="12.5" r="10.5"/><path id="_Path_16" data-name="&lt;Path&gt;" class="cls-8" d="M39.07,28.07l-3.3,3.3a.86.86,0,0,1-1.21,0L30.19,27A.86.86,0,0,0,29,27l-4.36,4.37a.88.88,0,0,1-1.22,0L19,27a.85.85,0,0,0-1.21,0l-4.37,4.37a.86.86,0,0,1-1.21,0l-3.3-3.3a.43.43,0,0,0-.74.32C8.9,39.46,15.7,45,24,45s15.1-5.54,15.81-16.61A.43.43,0,0,0,39.07,28.07Z"/><path id="_Path_17" data-name="&lt;Path&gt;" class="cls-9" d="M8.93,31.21l3.3,2.87a1,1,0,0,0,1.21,0l4.37-3.8a1,1,0,0,1,1.21,0l4.37,3.8a1,1,0,0,0,1.22,0L29,30.28a1,1,0,0,1,1.22,0l4.37,3.8a1,1,0,0,0,1.21,0l3.3-2.87a.46.46,0,0,1,.4-.09,25.13,25.13,0,0,0,.34-2.73.43.43,0,0,0-.74-.32l-3.3,3.3a.86.86,0,0,1-1.21,0L30.19,27A.86.86,0,0,0,29,27l-4.36,4.37a.88.88,0,0,1-1.22,0L19,27a.85.85,0,0,0-1.21,0l-4.37,4.37a.86.86,0,0,1-1.21,0l-3.3-3.3a.43.43,0,0,0-.74.32,25.18,25.18,0,0,0,.33,2.73A.47.47,0,0,1,8.93,31.21Z"/><path id="_Path_18" data-name="&lt;Path&gt;" class="cls-3" d="M39.07,28.07l-3.3,3.3a.86.86,0,0,1-1.21,0L30.19,27A.86.86,0,0,0,29,27l-4.36,4.37a.88.88,0,0,1-1.22,0L19,27a.85.85,0,0,0-1.21,0l-4.37,4.37a.86.86,0,0,1-1.21,0l-3.3-3.3a.43.43,0,0,0-.74.32C8.9,39.46,15.7,45,24,45s15.1-5.54,15.81-16.61A.43.43,0,0,0,39.07,28.07Z"/><circle id="_Path_19" data-name="&lt;Path&gt;" class="cls-10" cx="23.35" cy="8.65" r="1.36"/><path id="_Path_20" data-name="&lt;Path&gt;" class="cls-6" d="M27,13.64c0,.55-.74,1-1.64,1s-1.65-.45-1.65-1,.74-1,1.65-1S27,13.09,27,13.64Z"/></g></svg>