<svg id="Icons" xmlns="http://www.w3.org/2000/svg" viewBox="0 0 48 48"><defs><style>.cls-1,.cls-3{fill:#c8ffa1;}.cls-1,.cls-5,.cls-6,.cls-9{stroke:#45413c;stroke-linecap:round;stroke-linejoin:round;}.cls-2,.cls-9{fill:#45413c;}.cls-2{opacity:0.15;}.cls-4{fill:#e4ffd1;}.cls-5{fill:none;}.cls-6{fill:#ebcb00;}.cls-7{fill:#46b000;}.cls-8{fill:#6dd627;}.cls-10{fill:#9ceb60;}</style></defs><title>491-turtle</title><path id="_Path_" data-name="&lt;Path&gt;" class="cls-1" d="M42,33s2.94.69,4.5,0a4.59,4.59,0,0,1-5,3.5C39.25,36.37,42,33,42,33Z"/><ellipse id="_Ellipse_" data-name="&lt;Ellipse&gt;" class="cls-2" cx="26" cy="42.5" rx="19" ry="1.5"/><path id="_Path_2" data-name="&lt;Path&gt;" class="cls-3" d="M17.5,23.5A7.5,7.5,0,0,0,10,16c-4.14,0-8.5,4.36-8.5,8.5S5.86,31,10,31h.5a7,7,0,0,0,7,7Z"/><path class="cls-4" d="M10.08,18.82A7.51,7.51,0,0,1,17.5,25.2V23.5A7.5,7.5,0,0,0,10,16c-4.14,0-8.5,4.36-8.5,8.5a5.58,5.58,0,0,0,.22,1.55C2.48,22.33,6.37,18.82,10.08,18.82Z"/><path id="_Path_3" data-name="&lt;Path&gt;" class="cls-5" d="M17.5,23.5A7.5,7.5,0,0,0,10,16c-4.14,0-8.5,4.36-8.5,8.5S5.86,31,10,31h.5a7,7,0,0,0,7,7Z"/><path id="_Path_4" data-name="&lt;Path&gt;" class="cls-6" d="M41.58,37.31A17.59,17.59,0,0,0,42,32.46c-.44-7.53-5.87-13.63-12.41-13.95C22.13,18.15,16,25,16,33.5a17.58,17.58,0,0,0,.42,3.81,1.1,1.1,0,0,0,.79.84c14.44,3.49,24.58-.24,23.58,0A1.1,1.1,0,0,0,41.58,37.31Z"/><path id="_Path_5" data-name="&lt;Path&gt;" class="cls-7" d="M42,34.1c0-.54,0-1.08,0-1.64-.44-7.53-5.87-13.63-12.41-13.95C22.13,18.15,16,25,16,33.5v.15c2.16,1.18,6.43,2.85,13.43,2.85A29.16,29.16,0,0,0,42,34.1Z"/><path id="_Path_6" data-name="&lt;Path&gt;" class="cls-8" d="M16.32,33.82c1.35-6.89,6.8-12,13.24-11.68,6,.29,11,5.43,12.18,12.07L42,34.1c0-.54,0-1.08,0-1.64-.44-7.53-5.87-13.63-12.41-13.95C22.13,18.15,16,25,16,33.5v.15Z"/><path id="_Path_7" data-name="&lt;Path&gt;" class="cls-5" d="M42,34.1c0-.54,0-1.08,0-1.64-.44-7.53-5.87-13.63-12.41-13.95C22.13,18.15,16,25,16,33.5v.15c2.16,1.18,6.43,2.85,13.43,2.85A29.16,29.16,0,0,0,42,34.1Z"/><path class="cls-3" d="M19,31.5a4,4,0,0,0-4,4l-.42,5.42a1,1,0,0,0,1,1.08h6a1,1,0,0,0,1-.92L23,35.5A4,4,0,0,0,19,31.5Z"/><path class="cls-4" d="M18.79,34.61a4.13,4.13,0,0,1,4,3.23L23,35.5a4,4,0,0,0-8,0l-.16,2A4.13,4.13,0,0,1,18.79,34.61Z"/><path class="cls-3" d="M43.42,40.92,43,35.5a4,4,0,0,0-8,0l.43,5.58a1,1,0,0,0,1,.92h6A1,1,0,0,0,43.42,40.92Z"/><path class="cls-4" d="M39.21,34.61a4.13,4.13,0,0,0-4,3.23L35,35.5a4,4,0,0,1,8,0l.16,2A4.13,4.13,0,0,0,39.21,34.61Z"/><path class="cls-5" d="M19,31.5a4,4,0,0,0-4,4l-.42,5.42a1,1,0,0,0,1,1.08h6a1,1,0,0,0,1-.92L23,35.5A4,4,0,0,0,19,31.5Z"/><path class="cls-5" d="M43.42,40.92,43,35.5a4,4,0,0,0-8,0l.43,5.58a1,1,0,0,0,1,.92h6A1,1,0,0,0,43.42,40.92Z"/><circle id="_Path_8" data-name="&lt;Path&gt;" class="cls-9" cx="9.58" cy="21.42" r="1.08"/><path id="_Path_9" data-name="&lt;Path&gt;" class="cls-10" d="M14.5,25.31A1.32,1.32,0,1,1,13.19,24,1.32,1.32,0,0,1,14.5,25.31Z"/><path id="_Path_10" data-name="&lt;Path&gt;" class="cls-5" d="M3.83,29s4,.59,5.17-2.53"/><path id="_Path_11" data-name="&lt;Path&gt;" class="cls-5" d="M20.93,21.74s2.32,3.82,3.57,3.88,2.69-1.94,4.5-1.94,3.75,3,4.88,2.82,4.44-3.41,4.44-3.41"/><line id="_Path_12" data-name="&lt;Path&gt;" class="cls-5" x1="29" y1="23.68" x2="29" y2="18.51"/><path id="_Path_13" data-name="&lt;Path&gt;" class="cls-5" d="M24.5,25.62A16.9,16.9,0,0,0,22.11,33"/><path id="_Path_14" data-name="&lt;Path&gt;" class="cls-5" d="M33.88,26.5a19.32,19.32,0,0,1,1.88,6.66"/><path id="_Path_15" data-name="&lt;Path&gt;" class="cls-5" d="M22.66,33.88a37.94,37.94,0,0,0,12.6.2"/></svg>