<svg id="Icons" xmlns="http://www.w3.org/2000/svg" viewBox="0 0 48 48"><defs><style>.cls-1,.cls-5{fill:#45413c;}.cls-1{opacity:0.15;}.cls-10,.cls-2{fill:#4acfff;}.cls-3{fill:#80ddff;}.cls-4{fill:none;}.cls-10,.cls-4,.cls-5,.cls-9{stroke:#45413c;stroke-linecap:round;stroke-linejoin:round;}.cls-6{fill:#ffaa54;}.cls-7{fill:#4aeff7;}.cls-8{fill:#a6fbff;}.cls-9{fill:#fff;}</style></defs><title>493-spouting-whale</title><g id="_Group_" data-name="&lt;Group&gt;"><ellipse id="_Ellipse_" data-name="&lt;Ellipse&gt;" class="cls-1" cx="24" cy="45.32" rx="15.12" ry="1.68"/><path id="_Path_" data-name="&lt;Path&gt;" class="cls-2" d="M45,18.71a.52.52,0,0,0-.55-.28,7.38,7.38,0,0,0-5.26,3.94,7.18,7.18,0,0,0-.56,1.5,7.94,7.94,0,0,0-.85-.78,7.35,7.35,0,0,0-6.45-1.27.51.51,0,0,0-.37.48,7.39,7.39,0,0,0,7.15,7.44c-.14,1.2-.94,2.73-4,2.94-4,.28-4.23-4.48-5.86-7.85a12,12,0,0,0-10.41-7.36c-6.62-.36-12.74,4.68-13.1,11.3s2.7,12,10.79,14c11.46,2.88,21.12.35,24.78-5.12,2.92-4.36,1.41-7.73.76-8.83a7.36,7.36,0,0,0,4-10.1Z"/><g id="_Group_2" data-name="&lt;Group&gt;"><path id="_Path_2" data-name="&lt;Path&gt;" class="cls-3" d="M39.16,25.31a7.38,7.38,0,0,1,5.29-4,.5.5,0,0,1,.54.28,7.22,7.22,0,0,1,.61,1.8,7.33,7.33,0,0,0-.6-4.69.52.52,0,0,0-.55-.28,7.35,7.35,0,0,0-5.26,3.94,7.18,7.18,0,0,0-.56,1.5,7.94,7.94,0,0,0-.85-.78,7.35,7.35,0,0,0-6.45-1.27.51.51,0,0,0-.37.48,7.32,7.32,0,0,0,.38,2.41,7.28,7.28,0,0,1,6.13,1.06A1.15,1.15,0,0,0,39.16,25.31Z"/><path id="_Path_3" data-name="&lt;Path&gt;" class="cls-3" d="M17.81,20.36a12,12,0,0,1,10.41,7.36c1.63,3.38,2.3,6.5,6.34,6.22,3.09-.21,3.41-3,3.55-4.2-.14,1.2-.94,2.73-4,2.94-4,.28-4.23-4.48-5.86-7.85a12,12,0,0,0-10.41-7.36c-6.62-.36-12.74,4.68-13.1,11.3a20.07,20.07,0,0,0,0,2.46C5.34,24.83,11.33,20,17.81,20.36Z"/></g><path id="_Path_4" data-name="&lt;Path&gt;" class="cls-4" d="M45,18.71a.52.52,0,0,0-.55-.28,7.38,7.38,0,0,0-5.26,3.94,7.18,7.18,0,0,0-.56,1.5,7.94,7.94,0,0,0-.85-.78,7.35,7.35,0,0,0-6.45-1.27.51.51,0,0,0-.37.48,7.39,7.39,0,0,0,7.15,7.44c-.14,1.2-.94,2.73-4,2.94-4,.28-4.23-4.48-5.86-7.85a12,12,0,0,0-10.41-7.36c-6.62-.36-12.74,4.68-13.1,11.3s2.7,12,10.79,14c11.46,2.88,21.12.35,24.78-5.12,2.92-4.36,1.41-7.73.76-8.83a7.36,7.36,0,0,0,4-10.1Z"/><path id="_Path_5" data-name="&lt;Path&gt;" class="cls-5" d="M13.59,26.94a1.38,1.38,0,1,1-1.3-1.45A1.38,1.38,0,0,1,13.59,26.94Z"/><path id="_Path_6" data-name="&lt;Path&gt;" class="cls-6" d="M20,30.71c-.05.55-.84,1-1.76.94s-1.64-.5-1.59-1,.84-1,1.77-1S20.08,30.16,20,30.71Z"/><path id="_Path_7" data-name="&lt;Path&gt;" class="cls-7" d="M17.93,15.16s-1.24-4.07-4.82-4.88S7.79,11.76,5.33,8.93s1.57-7,6.29-5.2C15.47,5.21,18.28,8.63,17.93,15.16Z"/><path id="_Path_8" data-name="&lt;Path&gt;" class="cls-7" d="M19.84,10s.05-5,2.52-6.84,5.79-.31,5.8,1.93S25.85,7.37,23.73,7.5C21.4,7.64,19.84,10,19.84,10Z"/><path class="cls-8" d="M11.62,3.73C7.37,2.09,3.67,5.32,4.78,8.05c.91-1.85,3.66-3.19,6.71-2,3.25,1.25,5.76,3.9,6.25,8.63.13.31.19.5.19.5h0C18.28,8.63,15.47,5.21,11.62,3.73Z"/><path id="_Path_9" data-name="&lt;Path&gt;" class="cls-8" d="M20,9.75a7.11,7.11,0,0,1,2.22-4.31,3.77,3.77,0,0,1,5.55.91,2.08,2.08,0,0,0,.38-1.29c0-2.24-3.33-3.76-5.8-1.93S19.84,10,19.84,10Z"/><path id="_Path_10" data-name="&lt;Path&gt;" class="cls-4" d="M17.93,15.16s-1.24-4.07-4.82-4.88S7.79,11.76,5.33,8.93s1.57-7,6.29-5.2C15.47,5.21,18.28,8.63,17.93,15.16Z"/><path id="_Path_11" data-name="&lt;Path&gt;" class="cls-4" d="M19.84,10s.05-5,2.52-6.84,5.79-.31,5.8,1.93S25.85,7.37,23.73,7.5C21.4,7.64,19.84,10,19.84,10Z"/><path class="cls-9" d="M39.41,38.76c-7.53,3.65-15.79-.67-22.15-2.83-1.58-.54-3.17-1-4.69-1.47a11.5,11.5,0,0,1-6.64,1.31c1.55,3.26,4.62,5.75,9.57,7C26.15,45.44,35.24,43.44,39.41,38.76Z"/><path id="_Path_12" data-name="&lt;Path&gt;" class="cls-4" d="M9.52,35.58c1.52,2.23,6.22,3.88,8.88,4.61a74.78,74.78,0,0,0,16,2"/><path id="_Path_13" data-name="&lt;Path&gt;" class="cls-10" d="M20.5,35.88a7.16,7.16,0,0,0,1,6.32c1.62,2.49,4.77,3.29,6.33,3.54a.8.8,0,0,0,.94-.78c0-2.13-.21-7.47-2-9.27"/><path id="_Path_14" data-name="&lt;Path&gt;" class="cls-4" d="M14.53,31a1.8,1.8,0,0,0,2,2.59"/><path id="_Path_15" data-name="&lt;Path&gt;" class="cls-4" d="M12.57,34.46a9.76,9.76,0,0,0,2.08-1.59"/></g></svg>