<svg id="Icons" xmlns="http://www.w3.org/2000/svg" viewBox="0 0 48 48"><defs><style>.cls-1,.cls-9{fill:#45413c;}.cls-1{opacity:0.15;}.cls-2{fill:#4aeff7;}.cls-3{fill:#a6fbff;}.cls-4{fill:none;}.cls-11,.cls-4{stroke:#45413c;stroke-linecap:round;stroke-linejoin:round;}.cls-5{fill:#f0f0f0;}.cls-6{fill:#fff;}.cls-11,.cls-7{fill:#ffe500;}.cls-8{fill:#fff48c;}.cls-10{fill:#fffacf;}</style></defs><title>495-tropical-fish</title><g id="_Group_" data-name="&lt;Group&gt;"><ellipse id="_Ellipse_" data-name="&lt;Ellipse&gt;" class="cls-1" cx="24" cy="45.5" rx="11.5" ry="1.5"/><path id="_Path_" data-name="&lt;Path&gt;" class="cls-2" d="M35,28.83c-.33-3.41,4-5.5,4-5.5v-5s-6.8-2.19-7-7c-.17-4.08,6.08-5.75,11.22-7a.5.5,0,0,0-.13-1C37.7,3.39,28.39,4,21,6.83A20.94,20.94,0,0,0,10.14,16,11.24,11.24,0,0,1,4.33,21l-1.68.61a1,1,0,0,0-.65.94v1a1,1,0,0,0,.79,1l1.52.32a12.46,12.46,0,0,1,7.25,4.67A15.15,15.15,0,0,0,22,35.33a42.49,42.49,0,0,0,16.14-1.57.49.49,0,0,0,.08-.92A5.24,5.24,0,0,1,35,28.83Z"/><g id="_Group_2" data-name="&lt;Group&gt;"><path id="_Path_2" data-name="&lt;Path&gt;" class="cls-3" d="M2.79,24.5l1.52.32.36.09a11.18,11.18,0,0,0,5.47-4.8A20.93,20.93,0,0,1,21,10.92,54.32,54.32,0,0,1,33.66,8c2.18-1.83,6.12-2.87,9.56-3.74a.5.5,0,0,0-.13-1C37.7,3.39,28.39,4,21,6.83A20.94,20.94,0,0,0,10.14,16,11.28,11.28,0,0,1,4.33,21l-1.68.61a1,1,0,0,0-.65.94v1A1,1,0,0,0,2.79,24.5Z"/><path id="_Path_3" data-name="&lt;Path&gt;" class="cls-3" d="M32.53,13.37A3.6,3.6,0,0,0,32,15.42c.2,4.8,7,7,7,7V18.33S34.15,16.76,32.53,13.37Z"/></g><path id="_Path_4" data-name="&lt;Path&gt;" class="cls-4" d="M35,28.83c-.33-3.41,4-5.5,4-5.5v-5s-6.8-2.19-7-7c-.17-4.08,6.08-5.75,11.22-7a.5.5,0,0,0-.13-1C37.7,3.39,28.39,4,21,6.83A20.94,20.94,0,0,0,10.14,16,11.24,11.24,0,0,1,4.33,21l-1.68.61a1,1,0,0,0-.65.94v1a1,1,0,0,0,.79,1l1.52.32a12.46,12.46,0,0,1,7.25,4.67A15.15,15.15,0,0,0,22,35.33a42.49,42.49,0,0,0,16.14-1.57.49.49,0,0,0,.08-.92A5.24,5.24,0,0,1,35,28.83Z"/><path id="_Path_5" data-name="&lt;Path&gt;" class="cls-5" d="M30.9,35.25a36.64,36.64,0,0,1-2.4-13.92,55.73,55.73,0,0,1,2.6-17c-1.43.23-2.88.5-4.31.82A61,61,0,0,0,24.5,21.33a49.57,49.57,0,0,0,2.14,14.23A40.61,40.61,0,0,0,30.9,35.25Z"/><g id="_Group_3" data-name="&lt;Group&gt;"><path id="_Path_6" data-name="&lt;Path&gt;" class="cls-6" d="M31.1,4.29c-.36,1.09-.78,2.54-1.17,4.28-1.4.24-2.8.53-4.19.88.36-1.76.73-3.23,1-4.34C28.22,4.78,29.67,4.51,31.1,4.29Z"/></g><path id="_Path_7" data-name="&lt;Path&gt;" class="cls-4" d="M30.9,35.25a36.64,36.64,0,0,1-2.4-13.92,55.73,55.73,0,0,1,2.6-17c-1.43.23-2.88.5-4.31.82A61,61,0,0,0,24.5,21.33a49.57,49.57,0,0,0,2.14,14.23A40.61,40.61,0,0,0,30.9,35.25Z"/><path id="_Path_8" data-name="&lt;Path&gt;" class="cls-7" d="M21.5,34.33a42.72,42.72,0,0,1-1-15c.32-4.5.86-9.45,2.53-13.18-.69.22-1.37.43-2,.68a21.65,21.65,0,0,0-5.15,2.82A53.18,53.18,0,0,0,14.5,21.83c0,10,2,15.16,6,18a13.32,13.32,0,0,0,5.85,2.49.5.5,0,0,0,.33-.92A11.09,11.09,0,0,1,21.5,34.33Z"/><g id="_Group_4" data-name="&lt;Group&gt;"><path id="_Path_9" data-name="&lt;Path&gt;" class="cls-8" d="M23,6.13A23.26,23.26,0,0,0,21.6,10.7l-.6.22a21.44,21.44,0,0,0-6,3.47,46.94,46.94,0,0,1,.87-4.76A21.19,21.19,0,0,1,21,6.84C21.66,6.59,22.34,6.35,23,6.13Z"/></g><path id="_Path_10" data-name="&lt;Path&gt;" class="cls-4" d="M21.5,34.33a42.72,42.72,0,0,1-1-15c.32-4.5.86-9.45,2.53-13.18-.69.22-1.37.43-2,.68a21.65,21.65,0,0,0-5.15,2.82A53.18,53.18,0,0,0,14.5,21.83c0,10,2,15.16,6,18a13.32,13.32,0,0,0,5.85,2.49.5.5,0,0,0,.33-.92A11.09,11.09,0,0,1,21.5,34.33Z"/><path id="_Path_11" data-name="&lt;Path&gt;" class="cls-7" d="M39,18.33c1.92.42,3.83-3.58,5-4s2,2.34,2,6c0,2.75-.25,6.09-1.5,6-1.52-.1-2.67-4.33-5.5-3Z"/><path id="_Path_12" data-name="&lt;Path&gt;" class="cls-8" d="M45.3,16.44a1.08,1.08,0,0,1,.3,0c-.35-1.47-.92-2.31-1.6-2.07-1.17.42-3.08,4.42-5,4v2.11C41.42,20.85,43.83,16.85,45.3,16.44Z"/><path id="_Path_13" data-name="&lt;Path&gt;" class="cls-4" d="M39,18.33c1.92.42,3.83-3.58,5-4s2,2.34,2,6c0,2.75-.25,6.09-1.5,6-1.52-.1-2.67-4.33-5.5-3Z"/><circle id="_Path_14" data-name="&lt;Path&gt;" class="cls-9" cx="12.08" cy="20.25" r="1.08"/><path id="_Path_15" data-name="&lt;Path&gt;" class="cls-10" d="M18.25,24.24a1.32,1.32,0,1,1-1.31-1.32A1.31,1.31,0,0,1,18.25,24.24Z"/><path id="_Path_16" data-name="&lt;Path&gt;" class="cls-11" d="M42,19.33A7.38,7.38,0,0,0,45.88,18"/><path id="_Path_17" data-name="&lt;Path&gt;" class="cls-11" d="M42,21.33s2.85,0,3.92,1.43"/></g></svg>