<svg id="Icons" xmlns="http://www.w3.org/2000/svg" viewBox="0 0 48 48"><defs><style>.cls-1{fill:#fff;}.cls-1,.cls-4,.cls-5,.cls-6,.cls-8{stroke:#45413c;stroke-linecap:round;stroke-linejoin:round;}.cls-2{fill:#ffaa54;}.cls-3{fill:#fc9;}.cls-4{fill:none;}.cls-5,.cls-7{fill:#eb6d00;}.cls-6,.cls-9{fill:#45413c;}.cls-8{fill:#ff8a14;}.cls-9{opacity:0.15;}</style></defs><title>497-octopus</title><g id="_Group_" data-name="&lt;Group&gt;"><circle id="_Path_" data-name="&lt;Path&gt;" class="cls-1" cx="39.85" cy="2.44" r="1.94"/><circle id="_Path_2" data-name="&lt;Path&gt;" class="cls-1" cx="9.33" cy="7.67" r="1.94"/><circle id="_Path_3" data-name="&lt;Path&gt;" class="cls-1" cx="42.9" cy="10.61" r="1.11"/><circle id="_Path_4" data-name="&lt;Path&gt;" class="cls-1" cx="7.39" cy="17.41" r="1.11"/><path id="_Path_5" data-name="&lt;Path&gt;" class="cls-2" d="M31.4,32.17s3.13,1.11,5.53,0a6,6,0,0,0,3.32-5c.19-1.62,2.49-2.31,3.32,0a8.3,8.3,0,0,1-3.32,9.41,13.17,13.17,0,0,1-12.17.55C25.13,35.63,31.4,32.17,31.4,32.17Z"/><path id="_Path_6" data-name="&lt;Path&gt;" class="cls-2" d="M16.6,32.17s-3.13,1.11-5.53,0a6,6,0,0,1-3.32-5c-.19-1.62-2.49-2.31-3.32,0A8.3,8.3,0,0,0,7.75,36.6a13.17,13.17,0,0,0,12.17.55C22.87,35.63,16.6,32.17,16.6,32.17Z"/><path id="_Path_7" data-name="&lt;Path&gt;" class="cls-3" d="M28.08,37.15l.4.19a17.31,17.31,0,0,1,2.92-2.06s3.13,1.1,5.53,0a6,6,0,0,0,3.32-5c.19-1.62,2.49-2.31,3.32,0a5.49,5.49,0,0,1,.24.89,7.94,7.94,0,0,0-.24-4c-.83-2.31-3.13-1.62-3.32,0a6,6,0,0,1-3.32,5c-2.4,1.11-5.53,0-5.53,0S25.13,35.63,28.08,37.15Z"/><path id="_Path_8" data-name="&lt;Path&gt;" class="cls-3" d="M4.43,30.3c.83-2.31,3.13-1.62,3.32,0a6,6,0,0,0,3.32,5c2.4,1.1,5.53,0,5.53,0a17.31,17.31,0,0,1,2.92,2.06l.4-.19c2.95-1.52-3.32-5-3.32-5s-3.13,1.11-5.53,0a6,6,0,0,1-3.32-5c-.19-1.62-2.49-2.31-3.32,0a7.94,7.94,0,0,0-.24,4A5.49,5.49,0,0,1,4.43,30.3Z"/><path id="_Path_9" data-name="&lt;Path&gt;" class="cls-4" d="M31.4,32.17s3.13,1.11,5.53,0a6,6,0,0,0,3.32-5c.19-1.62,2.49-2.31,3.32,0a8.3,8.3,0,0,1-3.32,9.41,13.17,13.17,0,0,1-12.17.55C25.13,35.63,31.4,32.17,31.4,32.17Z"/><path id="_Path_10" data-name="&lt;Path&gt;" class="cls-4" d="M16.6,32.17s-3.13,1.11-5.53,0a6,6,0,0,1-3.32-5c-.19-1.62-2.49-2.31-3.32,0A8.3,8.3,0,0,0,7.75,36.6a13.17,13.17,0,0,0,12.17.55C22.87,35.63,16.6,32.17,16.6,32.17Z"/><path id="_Path_11" data-name="&lt;Path&gt;" class="cls-2" d="M36.73,26.81a12.73,12.73,0,0,1-25.46,0C11.27,18.1,17,13,24,13S36.73,18.1,36.73,26.81Z"/><path id="_Path_12" data-name="&lt;Path&gt;" class="cls-3" d="M24,17.41c6.35,0,11.59,4.18,12.56,11.41a13.29,13.29,0,0,0,.17-2C36.73,18.1,31,13,24,13S11.27,18.1,11.27,26.81a13.29,13.29,0,0,0,.17,2C12.41,21.59,17.65,17.41,24,17.41Z"/><path id="_Path_13" data-name="&lt;Path&gt;" class="cls-4" d="M36.73,26.81a12.73,12.73,0,0,1-25.46,0C11.27,18.1,17,13,24,13S36.73,18.1,36.73,26.81Z"/><path class="cls-5" d="M30.64,33.46c-2-.24-3.18,2.21-6.64,2.21s-4.61-2.45-6.64-2.21a4.11,4.11,0,0,0-2.72,2,12.73,12.73,0,0,0,18.72,0A4.11,4.11,0,0,0,30.64,33.46Z"/><path id="_Path_14" data-name="&lt;Path&gt;" class="cls-2" d="M22.43,39.17s-.95,4.25-7.21,4.25S6.48,39.31,6.3,37.05s2.38-3.93,4.24-1.7c2.69,3.22,4.89,2.83,6.37.85S22.43,39.17,22.43,39.17Z"/><path id="_Path_15" data-name="&lt;Path&gt;" class="cls-3" d="M6.33,37.29l.33.17c5.43,3.22,9.85,2.83,12.85.85a3.24,3.24,0,0,1,1.72-.45c-1.31-1.31-3.35-3-4.32-1.66-1.48,2-3.68,2.37-6.37-.85-1.86-2.23-4.42-.57-4.24,1.7A2.24,2.24,0,0,0,6.33,37.29Z"/><path id="_Path_16" data-name="&lt;Path&gt;" class="cls-4" d="M22.43,39.17s-.95,4.25-7.21,4.25S6.48,39.31,6.3,37.05s2.38-3.93,4.24-1.7c2.69,3.22,4.89,2.83,6.37.85S22.43,39.17,22.43,39.17Z"/><path id="_Path_17" data-name="&lt;Path&gt;" class="cls-2" d="M25.57,39.17s.95,4.25,7.21,4.25,8.74-4.11,8.92-6.37-2.38-3.93-4.24-1.7c-2.69,3.22-4.89,2.83-6.37.85S25.57,39.17,25.57,39.17Z"/><path id="_Path_18" data-name="&lt;Path&gt;" class="cls-3" d="M41.67,37.29l-.33.17c-5.43,3.22-9.85,2.83-12.85.85a3.24,3.24,0,0,0-1.72-.45c1.31-1.31,3.35-3,4.32-1.66,1.48,2,3.68,2.37,6.37-.85,1.86-2.23,4.42-.57,4.24,1.7A2.24,2.24,0,0,1,41.67,37.29Z"/><path id="_Path_19" data-name="&lt;Path&gt;" class="cls-4" d="M25.57,39.17s.95,4.25,7.21,4.25,8.74-4.11,8.92-6.37-2.38-3.93-4.24-1.7c-2.69,3.22-4.89,2.83-6.37.85S25.57,39.17,25.57,39.17Z"/><circle id="_Path_20" data-name="&lt;Path&gt;" class="cls-6" cx="20.13" cy="27.92" r="1.11"/><circle id="_Path_21" data-name="&lt;Path&gt;" class="cls-6" cx="27.87" cy="27.92" r="1.11"/><ellipse id="_Ellipse_" data-name="&lt;Ellipse&gt;" class="cls-7" cx="32.3" cy="30.69" rx="1.66" ry="1"/><ellipse id="_Ellipse_2" data-name="&lt;Ellipse&gt;" class="cls-7" cx="15.7" cy="30.69" rx="1.66" ry="1"/><circle id="_Path_22" data-name="&lt;Path&gt;" class="cls-8" cx="20.4" cy="18.79" r="1.94"/><circle id="_Path_23" data-name="&lt;Path&gt;" class="cls-8" cx="26.21" cy="16.3" r="1.11"/><circle id="_Path_24" data-name="&lt;Path&gt;" class="cls-8" cx="30.64" cy="19.07" r="1.11"/><circle id="_Path_25" data-name="&lt;Path&gt;" class="cls-1" cx="39.02" cy="15.89" r="1.11"/><ellipse id="_Ellipse_3" data-name="&lt;Ellipse&gt;" class="cls-9" cx="24" cy="44.34" rx="12.73" ry="1.66"/></g></svg>