<svg id="Icons" xmlns="http://www.w3.org/2000/svg" viewBox="0 0 48 48"><defs><style>.cls-1{fill:none;stroke:#45413c;stroke-linecap:round;stroke-linejoin:round;}.cls-2,.cls-5{fill:#45413c;}.cls-2{opacity:0.15;}.cls-3{fill:#ff866e;}.cls-4{fill:#ffa694;}.cls-6{fill:#ffcabf;}</style></defs><title>501-ant</title><g id="_Group_" data-name="&lt;Group&gt;"><path id="_Path_" data-name="&lt;Path&gt;" class="cls-1" d="M10.82,16.55S8.88,4.81,1.49,8.45"/><path id="_Path_2" data-name="&lt;Path&gt;" class="cls-1" d="M15.35,15.09s.32-10.35-7.53-9.4"/><path id="_Path_3" data-name="&lt;Path&gt;" class="cls-1" d="M26.42,37.9s-.25,6.3,1.8,6.3"/><ellipse id="_Ellipse_" data-name="&lt;Ellipse&gt;" class="cls-2" cx="24.5" cy="44.2" rx="18.6" ry="1.8"/><circle id="_Path_4" data-name="&lt;Path&gt;" class="cls-3" cx="13.82" cy="22.49" r="8.4"/><path id="_Path_5" data-name="&lt;Path&gt;" class="cls-4" d="M13.82,16.55a8.39,8.39,0,0,1,8.3,7.17,8.28,8.28,0,0,0,.1-1.23,8.4,8.4,0,0,0-16.8,0,8.28,8.28,0,0,0,.1,1.23A8.39,8.39,0,0,1,13.82,16.55Z"/><circle id="_Path_6" data-name="&lt;Path&gt;" class="cls-1" cx="13.82" cy="22.49" r="8.4"/><circle id="_Path_7" data-name="&lt;Path&gt;" class="cls-3" cx="21.02" cy="30.89" r="4.8"/><path id="_Path_8" data-name="&lt;Path&gt;" class="cls-4" d="M21,28.64a4.79,4.79,0,0,1,4.6,3.52,4.49,4.49,0,0,0,.2-1.27,4.8,4.8,0,0,0-9.6,0,4.88,4.88,0,0,0,.19,1.27A4.79,4.79,0,0,1,21,28.64Z"/><circle id="_Path_9" data-name="&lt;Path&gt;" class="cls-1" cx="21.02" cy="30.89" r="4.8"/><path id="_Path_10" data-name="&lt;Path&gt;" class="cls-3" d="M35.13,23.1c6.46.6,11.43,7.48,11.1,10.61s-6.41,9-12.87,8.44-11-5.35-10.51-10.61S28.67,22.5,35.13,23.1Z"/><path id="_Path_11" data-name="&lt;Path&gt;" class="cls-4" d="M35.13,26.6c5.19.48,9.42,5,10.71,8.42a4.37,4.37,0,0,0,.39-1.31c.33-3.13-4.65-10-11.1-10.61s-11.79,3.18-12.28,8.44A8.26,8.26,0,0,0,23,34C24,29.31,29.09,26,35.13,26.6Z"/><path id="_Path_12" data-name="&lt;Path&gt;" class="cls-1" d="M35.13,23.1c6.46.6,11.43,7.48,11.1,10.61s-6.41,9-12.87,8.44-11-5.35-10.51-10.61S28.67,22.5,35.13,23.1Z"/><path id="_Path_13" data-name="&lt;Path&gt;" class="cls-1" d="M17.42,32.09l-6,2a2.41,2.41,0,0,0-1.56,1.66C9.28,38.16,7.74,43.23,6,43.23"/><path id="_Path_14" data-name="&lt;Path&gt;" class="cls-1" d="M19.22,33.06l-2.64,2.13a2.36,2.36,0,0,0-.89,2c.11,2.39.19,7.52-1.27,7.52"/><path id="_Path_15" data-name="&lt;Path&gt;" class="cls-5" d="M11.52,20.09a1.2,1.2,0,1,1-1.2-1.2A1.2,1.2,0,0,1,11.52,20.09Z"/><path id="_Path_16" data-name="&lt;Path&gt;" class="cls-6" d="M12.62,22.92c0,.33.54.6,1.2.6s1.2-.27,1.2-.6-.54-.6-1.2-.6S12.62,22.59,12.62,22.92Z"/><path id="_Path_17" data-name="&lt;Path&gt;" class="cls-1" d="M31.46,23.24s-2.64,1.86-3.91,6.64c-1.14,4.3-.71,9.26,1.17,11"/><path id="_Path_18" data-name="&lt;Path&gt;" class="cls-1" d="M34.53,42.19a14.71,14.71,0,0,1-1.47-10.13c1.47-6.78,5.2-8.17,5.2-8.17"/><path id="_Path_19" data-name="&lt;Path&gt;" class="cls-1" d="M41.41,39.82s-1.93-.64-2-4.8a8.19,8.19,0,0,1,4-7.32"/></g></svg>