<svg id="Icons" xmlns="http://www.w3.org/2000/svg" viewBox="0 0 48 48"><defs><style>.cls-1,.cls-5{fill:#fcd;}.cls-2{fill:#ffe5ee;}.cls-3{fill:none;}.cls-13,.cls-14,.cls-15,.cls-3,.cls-4,.cls-5,.cls-6,.cls-8{stroke:#45413c;stroke-linecap:round;stroke-linejoin:round;}.cls-4{fill:#ebcb00;}.cls-18,.cls-6{fill:#6dd627;}.cls-7{fill:#45413c;opacity:0.15;}.cls-8,.cls-9{fill:#ff6242;}.cls-10{fill:#ff866e;}.cls-11,.cls-13{fill:#ffe500;}.cls-12{fill:#fff48c;}.cls-14,.cls-16{fill:#ff87af;}.cls-15,.cls-17{fill:#ff6196;}.cls-19{fill:#9ceb60;}</style></defs><title>504-bouquet</title><path id="_Path_" data-name="&lt;Path&gt;" class="cls-1" d="M35.76,33.8s.51-7.21,4.68-5.3-1.62,6.11-1.62,6.11Z"/><path id="_Path_2" data-name="&lt;Path&gt;" class="cls-2" d="M39.61,30.58c1.08.5,1.51,1.13,1.55,1.81,1-1.3,1.48-2.88-.72-3.89-2.63-1.21-3.8,1.22-4.31,3.17A2.48,2.48,0,0,1,39.61,30.58Z"/><path id="_Path_3" data-name="&lt;Path&gt;" class="cls-3" d="M35.76,33.8s.51-7.21,4.68-5.3-1.62,6.11-1.62,6.11Z"/><path id="_Path_4" data-name="&lt;Path&gt;" class="cls-4" d="M38.57,34.54l-.2-1.38a5.13,5.13,0,0,1,.35-2.48"/><path id="_Path_5" data-name="&lt;Path&gt;" class="cls-5" d="M38.37,34.57a9.08,9.08,0,0,1,3.89-1.06,10.58,10.58,0,0,1,4.24,1.42l-1.06,3.18a9.38,9.38,0,0,0-3.18-2.48,4.86,4.86,0,0,0-3.54,0Z"/><path id="_Path_6" data-name="&lt;Path&gt;" class="cls-6" d="M21.44,18.3l1.56,1a7.13,7.13,0,0,1,2.42,2.72,43.87,43.87,0,0,0,4.51,7.55,147,147,0,0,0,11.3,12l1.41-1.42A150.93,150.93,0,0,1,32.05,28.91a39.54,39.54,0,0,1-3.86-6.13,7.1,7.1,0,0,1-.53-5.86Z"/><ellipse id="_Ellipse_" data-name="&lt;Ellipse&gt;" class="cls-7" cx="26.78" cy="44.5" rx="15.5" ry="1.5"/><g id="_Group_" data-name="&lt;Group&gt;"><path id="_Path_7" data-name="&lt;Path&gt;" class="cls-6" d="M10.79,16.19l.71.2a8.65,8.65,0,0,1,3.85,2.24L40.49,43.76l1.41-1.41L17.63,18.07A9,9,0,0,1,15,11.94Z"/><path id="_Path_8" data-name="&lt;Path&gt;" class="cls-8" d="M10.37,13.77h0A5.74,5.74,0,0,1,4.44,8.25L4.33,5,7.12,7.58a10.56,10.56,0,0,1,3.25,6.19Z"/><path id="_Path_9" data-name="&lt;Path&gt;" class="cls-9" d="M12.33,12.3h0A5.72,5.72,0,0,0,7.76,5.61L4.33,5,6.7,8.15a10.62,10.62,0,0,0,5.63,4.15Z"/><path class="cls-10" d="M7.83,7.59a5.73,5.73,0,0,1,4.54,4.46A5.73,5.73,0,0,0,7.76,5.61L4.33,5,6,7.26Z"/><path id="_Path_10" data-name="&lt;Path&gt;" class="cls-3" d="M12.33,12.3h0A5.72,5.72,0,0,0,7.76,5.61L4.33,5,6.7,8.15a10.62,10.62,0,0,0,5.63,4.15Z"/><path id="_Path_11" data-name="&lt;Path&gt;" class="cls-9" d="M13.33,16.54h0a7,7,0,0,0,0-9.9L10.5,3.81V8.48a12.91,12.91,0,0,0,2.83,8.06Z"/><path id="_Path_12" data-name="&lt;Path&gt;" class="cls-10" d="M12.58,8.47a7,7,0,0,1,1.84,6.66,7,7,0,0,0-1.09-8.49L10.5,3.81V6.4Z"/><path id="_Path_13" data-name="&lt;Path&gt;" class="cls-3" d="M13.33,16.54h0a7,7,0,0,0,0-9.9L10.5,3.81V8.48a12.91,12.91,0,0,0,2.83,8.06Z"/><path class="cls-8" d="M10.9,11.65a12.92,12.92,0,0,0-3.22-.41H3l2.83,2.83a7,7,0,0,0,7,1.75A12.69,12.69,0,0,1,10.9,11.65Z"/></g><g id="_Group_2" data-name="&lt;Group&gt;"><path id="_Path_14" data-name="&lt;Path&gt;" class="cls-11" d="M25.8,15.5h0a5.73,5.73,0,0,0-1.88-7.88L21.14,5.9,22,9.62A10.51,10.51,0,0,0,25.8,15.5Z"/><path id="_Path_15" data-name="&lt;Path&gt;" class="cls-12" d="M23.34,9.29A5.72,5.72,0,0,1,26,15.19a5.73,5.73,0,0,0-2-7.57L21.14,5.9l.56,2.38Z"/><path id="_Path_16" data-name="&lt;Path&gt;" class="cls-3" d="M25.8,15.5h0a5.73,5.73,0,0,0-1.88-7.88L21.14,5.9,22,9.62A10.51,10.51,0,0,0,25.8,15.5Z"/><path id="_Path_17" data-name="&lt;Path&gt;" class="cls-13" d="M23.55,16.42h0A5.73,5.73,0,0,1,20,9.14L21.14,5.9l1.59,3.57a10.63,10.63,0,0,1,.82,7Z"/><path id="_Path_18" data-name="&lt;Path&gt;" class="cls-13" d="M26.78,19.33h0a7,7,0,0,1-8.61-4.89l-1.06-3.86,4.05,2.31a12.91,12.91,0,0,1,5.62,6.44Z"/><g id="_Group_3" data-name="&lt;Group&gt;"><path id="_Path_19" data-name="&lt;Path&gt;" class="cls-11" d="M23.71,14.79a12.77,12.77,0,0,1,1.22-2.94l2.3-4.06,1.06,3.86a7,7,0,0,1-1.87,6.88A12.85,12.85,0,0,0,23.71,14.79Z"/><path id="_Path_20" data-name="&lt;Path&gt;" class="cls-12" d="M27.29,13a7,7,0,0,1-.69,5.37,7,7,0,0,0,1.69-6.7L27.23,7.79l-.92,1.62Z"/><path id="_Path_21" data-name="&lt;Path&gt;" class="cls-3" d="M23.71,14.79a12.77,12.77,0,0,1,1.22-2.94l2.3-4.06,1.06,3.86a7,7,0,0,1-1.87,6.88A12.85,12.85,0,0,0,23.71,14.79Z"/></g></g><path id="_Path_22" data-name="&lt;Path&gt;" class="cls-6" d="M14.65,21.52l1,1.55a7,7,0,0,0,2.72,2.42A44.28,44.28,0,0,1,26,30c4.9,3.85,13.78,13.09,13.78,13.09L38.34,44.5S30.08,36,25.26,32.13a39.73,39.73,0,0,0-6.13-3.87,7.13,7.13,0,0,0-5.86-.53Z"/><g id="_Group_4" data-name="&lt;Group&gt;"><path id="_Path_23" data-name="&lt;Path&gt;" class="cls-14" d="M11.79,25.87h0A5.73,5.73,0,0,1,3.91,24L2.2,21.21l3.71.88a10.58,10.58,0,0,1,5.88,3.78Z"/><path id="_Path_24" data-name="&lt;Path&gt;" class="cls-15" d="M12.77,23.62h0A5.73,5.73,0,0,0,5.5,20.06L2.2,21.21,5.83,22.8a10.47,10.47,0,0,0,6.94.82Z"/><path id="_Path_25" data-name="&lt;Path&gt;" class="cls-16" d="M15.68,26.85h0a7,7,0,0,0-4.89-8.6L6.94,17.18l2.3,4.06a12.88,12.88,0,0,0,6.44,5.61Z"/><path id="_Path_26" data-name="&lt;Path&gt;" class="cls-17" d="M10.63,19.83a7,7,0,0,1,5.14,6.68,7,7,0,0,0-5-8.26L6.94,17.18,8,19.11Z"/><path id="_Path_27" data-name="&lt;Path&gt;" class="cls-3" d="M15.68,26.85h0a7,7,0,0,0-4.89-8.6L6.94,17.18l2.3,4.06a12.88,12.88,0,0,0,6.44,5.61Z"/><g id="_Group_5" data-name="&lt;Group&gt;"><path id="_Path_28" data-name="&lt;Path&gt;" class="cls-14" d="M11.14,23.79A12.74,12.74,0,0,0,8.2,25l-4,2.3L8,28.37a7,7,0,0,0,6.88-1.87A13.22,13.22,0,0,1,11.14,23.79Z"/></g></g><path id="_Path_29" data-name="&lt;Path&gt;" class="cls-18" d="M38,41.43s-7.48-7.36-8.48-14.14,6-13.79,6-13.79-3.18,5.3-1.06,13.08a28.48,28.48,0,0,0,6.41,12Z"/><path id="_Path_30" data-name="&lt;Path&gt;" class="cls-19" d="M33.13,16.41a18.56,18.56,0,0,0-.59,12.11,32.35,32.35,0,0,0,6.51,11.89l1.84-1.82a28.48,28.48,0,0,1-6.41-12C32.36,18.8,35.54,13.5,35.54,13.5A25.87,25.87,0,0,0,33.13,16.41Z"/><path id="_Path_31" data-name="&lt;Path&gt;" class="cls-3" d="M38,41.43s-7.48-7.36-8.48-14.14,6-13.79,6-13.79-3.18,5.3-1.06,13.08a28.48,28.48,0,0,0,6.41,12Z"/><path id="_Path_32" data-name="&lt;Path&gt;" class="cls-18" d="M40.89,38.45s-4.11-6.05-14.12-9.82S8.32,33.51,8.32,33.51a17.45,17.45,0,0,1,16.53.27A52.79,52.79,0,0,1,36.6,42.71Z"/><path id="_Path_33" data-name="&lt;Path&gt;" class="cls-19" d="M25.77,31.25a32.83,32.83,0,0,1,13.4,8.91l1.72-1.71s-4.11-6.05-14.12-9.82S8.32,33.51,8.32,33.51a17,17,0,0,1,5.7-1.8A15.55,15.55,0,0,1,25.77,31.25Z"/><path id="_Path_34" data-name="&lt;Path&gt;" class="cls-3" d="M40.89,38.45s-4.11-6.05-14.12-9.82S8.32,33.51,8.32,33.51a17.45,17.45,0,0,1,16.53.27A52.79,52.79,0,0,1,36.6,42.71Z"/><polygon id="_Path_35" data-name="&lt;Path&gt;" class="cls-1" points="39.43 35.7 34.13 41 29.88 38.17 36.6 31.45 39.43 35.7"/><polygon id="_Path_36" data-name="&lt;Path&gt;" class="cls-2" points="39.43 35.7 37.9 37.23 35.08 32.97 36.6 31.45 39.43 35.7"/><polygon id="_Path_37" data-name="&lt;Path&gt;" class="cls-3" points="39.43 35.7 34.13 41 29.88 38.17 36.6 31.45 39.43 35.7"/></svg>