<svg id="Icons" xmlns="http://www.w3.org/2000/svg" viewBox="0 0 48 48"><defs><style>.cls-1{fill:#45413c;opacity:0.15;}.cls-2{fill:#ffe500;}.cls-3{fill:#ebcb00;}.cls-4{fill:none;}.cls-4,.cls-7,.cls-8{stroke:#45413c;stroke-linecap:round;stroke-linejoin:round;}.cls-5{fill:#ffaa54;}.cls-6{fill:#ff8a14;}.cls-7{fill:#ffb0ca;}.cls-8{fill:#ff87af;}.cls-9{fill:#fc9;}</style></defs><title>508-sunflower-2</title><g id="_Group_" data-name="&lt;Group&gt;"><ellipse id="_Ellipse_" data-name="&lt;Ellipse&gt;" class="cls-1" cx="24" cy="45.98" rx="10" ry="1.5"/><g id="_Group_2" data-name="&lt;Group&gt;"><g id="_Group_3" data-name="&lt;Group&gt;"><g id="_Group_4" data-name="&lt;Group&gt;"><g id="_Group_5" data-name="&lt;Group&gt;"><g id="_Group_6" data-name="&lt;Group&gt;"><g id="_Group_7" data-name="&lt;Group&gt;"><path id="_Path_" data-name="&lt;Path&gt;" class="cls-2" d="M22.57,11a3.67,3.67,0,1,1-6.78,2.81c-.61-1.48-.55-7.31-.5-9.7a.45.45,0,0,1,.77-.32C17.79,5.4,22,9.48,22.57,11Z"/></g></g></g><g id="_Group_8" data-name="&lt;Group&gt;"><g id="_Group_9" data-name="&lt;Group&gt;"><g id="_Group_10" data-name="&lt;Group&gt;"><path id="_Path_2" data-name="&lt;Path&gt;" class="cls-2" d="M13.77,15.79A3.67,3.67,0,1,1,11,22.57C9.48,22,5.4,17.79,3.75,16.06a.45.45,0,0,1,.32-.77C6.46,15.24,12.29,15.18,13.77,15.79Z"/></g></g></g><g id="_Group_11" data-name="&lt;Group&gt;"><g id="_Group_12" data-name="&lt;Group&gt;"><g id="_Group_13" data-name="&lt;Group&gt;"><path id="_Path_3" data-name="&lt;Path&gt;" class="cls-2" d="M11,25.43a3.67,3.67,0,1,1,2.81,6.78c-1.48.61-7.31.55-9.7.5a.45.45,0,0,1-.32-.77C5.4,30.21,9.48,26,11,25.43Z"/></g></g></g><g id="_Group_14" data-name="&lt;Group&gt;"><g id="_Group_15" data-name="&lt;Group&gt;"><g id="_Group_16" data-name="&lt;Group&gt;"><path id="_Path_4" data-name="&lt;Path&gt;" class="cls-2" d="M15.79,34.23A3.67,3.67,0,1,1,22.57,37c-.61,1.48-4.78,5.56-6.51,7.21a.45.45,0,0,1-.77-.32C15.24,41.54,15.18,35.71,15.79,34.23Z"/></g></g></g><g id="_Group_17" data-name="&lt;Group&gt;"><g id="_Group_18" data-name="&lt;Group&gt;"><g id="_Group_19" data-name="&lt;Group&gt;"><path id="_Path_5" data-name="&lt;Path&gt;" class="cls-2" d="M25.43,37a3.67,3.67,0,1,1,6.78-2.81c.61,1.48.55,7.31.5,9.7a.45.45,0,0,1-.77.32C30.21,42.6,26,38.52,25.43,37Z"/></g></g></g><g id="_Group_20" data-name="&lt;Group&gt;"><g id="_Group_21" data-name="&lt;Group&gt;"><g id="_Group_22" data-name="&lt;Group&gt;"><path id="_Path_6" data-name="&lt;Path&gt;" class="cls-2" d="M34.23,32.21A3.67,3.67,0,1,1,37,25.43c1.48.61,5.56,4.78,7.21,6.51a.45.45,0,0,1-.32.77C41.54,32.76,35.71,32.82,34.23,32.21Z"/></g></g></g><g id="_Group_23" data-name="&lt;Group&gt;"><g id="_Group_24" data-name="&lt;Group&gt;"><g id="_Group_25" data-name="&lt;Group&gt;"><path id="_Path_7" data-name="&lt;Path&gt;" class="cls-2" d="M37,22.57a3.67,3.67,0,1,1-2.81-6.78c1.48-.61,7.31-.55,9.7-.5a.45.45,0,0,1,.32.77C42.6,17.79,38.52,22,37,22.57Z"/></g></g></g><g id="_Group_26" data-name="&lt;Group&gt;"><g id="_Group_27" data-name="&lt;Group&gt;"><g id="_Group_28" data-name="&lt;Group&gt;"><path id="_Path_8" data-name="&lt;Path&gt;" class="cls-2" d="M32.21,13.77A3.67,3.67,0,1,1,25.43,11C26,9.48,30.21,5.4,31.94,3.75a.45.45,0,0,1,.77.32C32.76,6.46,32.82,12.29,32.21,13.77Z"/></g></g></g><path id="_Path_9" data-name="&lt;Path&gt;" class="cls-3" d="M20.59,15.76a3.67,3.67,0,0,0,2-4.8,6.63,6.63,0,0,0-1-1.43,14.49,14.49,0,0,0-6.15,2.55,6.74,6.74,0,0,0,.33,1.69A3.68,3.68,0,0,0,20.59,15.76Z"/><path id="_Path_10" data-name="&lt;Path&gt;" class="cls-3" d="M15.76,20.58a3.68,3.68,0,0,0-2-4.79,6.74,6.74,0,0,0-1.69-.33,14.49,14.49,0,0,0-2.55,6.15,6.63,6.63,0,0,0,1.43,1A3.67,3.67,0,0,0,15.76,20.58Z"/><path id="_Path_11" data-name="&lt;Path&gt;" class="cls-3" d="M15.76,27.41a3.67,3.67,0,0,0-4.8-2,6.63,6.63,0,0,0-1.43,1,14.49,14.49,0,0,0,2.55,6.15,6.74,6.74,0,0,0,1.69-.33A3.68,3.68,0,0,0,15.76,27.41Z"/><path id="_Path_12" data-name="&lt;Path&gt;" class="cls-3" d="M20.59,32.24a3.68,3.68,0,0,0-4.8,2,6.74,6.74,0,0,0-.33,1.69,14.49,14.49,0,0,0,6.15,2.55,6.63,6.63,0,0,0,1-1.43A3.67,3.67,0,0,0,20.59,32.24Z"/><path id="_Path_13" data-name="&lt;Path&gt;" class="cls-3" d="M27.41,32.24a3.67,3.67,0,0,0-2,4.8,6.63,6.63,0,0,0,1,1.43,14.49,14.49,0,0,0,6.15-2.55,6.74,6.74,0,0,0-.33-1.69A3.68,3.68,0,0,0,27.41,32.24Z"/><path id="_Path_14" data-name="&lt;Path&gt;" class="cls-3" d="M37,25.43a3.67,3.67,0,1,0-2.81,6.78,6.74,6.74,0,0,0,1.69.33,14.49,14.49,0,0,0,2.55-6.15A6.63,6.63,0,0,0,37,25.43Z"/><path id="_Path_15" data-name="&lt;Path&gt;" class="cls-3" d="M32.24,20.58a3.67,3.67,0,0,0,4.8,2,6.63,6.63,0,0,0,1.43-1,14.49,14.49,0,0,0-2.55-6.15,6.74,6.74,0,0,0-1.69.33A3.68,3.68,0,0,0,32.24,20.58Z"/><path id="_Path_16" data-name="&lt;Path&gt;" class="cls-3" d="M27.41,15.76a3.68,3.68,0,0,0,4.8-2,6.74,6.74,0,0,0,.33-1.69,14.49,14.49,0,0,0-6.15-2.55,6.63,6.63,0,0,0-1,1.43A3.67,3.67,0,0,0,27.41,15.76Z"/><g id="_Group_29" data-name="&lt;Group&gt;"><g id="_Group_30" data-name="&lt;Group&gt;"><g id="_Group_31" data-name="&lt;Group&gt;"><path id="_Path_17" data-name="&lt;Path&gt;" class="cls-4" d="M22.57,11a3.67,3.67,0,1,1-6.78,2.81c-.61-1.48-.55-7.31-.5-9.7a.45.45,0,0,1,.77-.32C17.79,5.4,22,9.48,22.57,11Z"/></g></g></g><g id="_Group_32" data-name="&lt;Group&gt;"><g id="_Group_33" data-name="&lt;Group&gt;"><g id="_Group_34" data-name="&lt;Group&gt;"><path id="_Path_18" data-name="&lt;Path&gt;" class="cls-4" d="M13.77,15.79A3.67,3.67,0,1,1,11,22.57C9.48,22,5.4,17.79,3.75,16.06a.45.45,0,0,1,.32-.77C6.46,15.24,12.29,15.18,13.77,15.79Z"/></g></g></g><g id="_Group_35" data-name="&lt;Group&gt;"><g id="_Group_36" data-name="&lt;Group&gt;"><g id="_Group_37" data-name="&lt;Group&gt;"><path id="_Path_19" data-name="&lt;Path&gt;" class="cls-4" d="M11,25.43a3.67,3.67,0,1,1,2.81,6.78c-1.48.61-7.31.55-9.7.5a.45.45,0,0,1-.32-.77C5.4,30.21,9.48,26,11,25.43Z"/></g></g></g><g id="_Group_38" data-name="&lt;Group&gt;"><g id="_Group_39" data-name="&lt;Group&gt;"><g id="_Group_40" data-name="&lt;Group&gt;"><path id="_Path_20" data-name="&lt;Path&gt;" class="cls-4" d="M15.79,34.23A3.67,3.67,0,1,1,22.57,37c-.61,1.48-4.78,5.56-6.51,7.21a.45.45,0,0,1-.77-.32C15.24,41.54,15.18,35.71,15.79,34.23Z"/></g></g></g><g id="_Group_41" data-name="&lt;Group&gt;"><g id="_Group_42" data-name="&lt;Group&gt;"><g id="_Group_43" data-name="&lt;Group&gt;"><path id="_Path_21" data-name="&lt;Path&gt;" class="cls-4" d="M25.43,37a3.67,3.67,0,1,1,6.78-2.81c.61,1.48.55,7.31.5,9.7a.45.45,0,0,1-.77.32C30.21,42.6,26,38.52,25.43,37Z"/></g></g></g><g id="_Group_44" data-name="&lt;Group&gt;"><g id="_Group_45" data-name="&lt;Group&gt;"><g id="_Group_46" data-name="&lt;Group&gt;"><path id="_Path_22" data-name="&lt;Path&gt;" class="cls-4" d="M34.23,32.21A3.67,3.67,0,1,1,37,25.43c1.48.61,5.56,4.78,7.21,6.51a.45.45,0,0,1-.32.77C41.54,32.76,35.71,32.82,34.23,32.21Z"/></g></g></g><g id="_Group_47" data-name="&lt;Group&gt;"><g id="_Group_48" data-name="&lt;Group&gt;"><g id="_Group_49" data-name="&lt;Group&gt;"><path id="_Path_23" data-name="&lt;Path&gt;" class="cls-4" d="M37,22.57a3.67,3.67,0,1,1-2.81-6.78c1.48-.61,7.31-.55,9.7-.5a.45.45,0,0,1,.32.77C42.6,17.79,38.52,22,37,22.57Z"/></g></g></g><g id="_Group_50" data-name="&lt;Group&gt;"><g id="_Group_51" data-name="&lt;Group&gt;"><g id="_Group_52" data-name="&lt;Group&gt;"><path id="_Path_24" data-name="&lt;Path&gt;" class="cls-4" d="M32.21,13.77A3.67,3.67,0,1,1,25.43,11C26,9.48,30.21,5.4,31.94,3.75a.45.45,0,0,1,.77.32C32.76,6.46,32.82,12.29,32.21,13.77Z"/></g></g></g></g><g id="_Group_53" data-name="&lt;Group&gt;"><g id="_Group_54" data-name="&lt;Group&gt;"><g id="_Group_55" data-name="&lt;Group&gt;"><g id="_Group_56" data-name="&lt;Group&gt;"><path id="_Path_25" data-name="&lt;Path&gt;" class="cls-2" d="M17.69,12.5a3.67,3.67,0,0,1-5.19,5.19c-1.13-1.13-3.31-6.54-4.17-8.77a.45.45,0,0,1,.59-.59C11.15,9.19,16.56,11.37,17.69,12.5Z"/></g></g></g><g id="_Group_57" data-name="&lt;Group&gt;"><g id="_Group_58" data-name="&lt;Group&gt;"><g id="_Group_59" data-name="&lt;Group&gt;"><path id="_Path_26" data-name="&lt;Path&gt;" class="cls-2" d="M11.41,20.33a3.67,3.67,0,0,1,0,7.34c-1.6,0-7-2.29-9.16-3.25a.46.46,0,0,1,0-.84C4.44,22.62,9.81,20.33,11.41,20.33Z"/></g></g></g><g id="_Group_60" data-name="&lt;Group&gt;"><g id="_Group_61" data-name="&lt;Group&gt;"><g id="_Group_62" data-name="&lt;Group&gt;"><path id="_Path_27" data-name="&lt;Path&gt;" class="cls-2" d="M12.5,30.31a3.67,3.67,0,0,1,5.19,5.19c-1.13,1.13-6.54,3.31-8.77,4.17a.45.45,0,0,1-.59-.59C9.19,36.85,11.37,31.44,12.5,30.31Z"/></g></g></g><g id="_Group_63" data-name="&lt;Group&gt;"><g id="_Group_64" data-name="&lt;Group&gt;"><g id="_Group_65" data-name="&lt;Group&gt;"><path id="_Path_28" data-name="&lt;Path&gt;" class="cls-2" d="M20.33,36.59a3.67,3.67,0,0,1,7.34,0c0,1.6-2.29,7-3.25,9.16a.46.46,0,0,1-.84,0C22.62,43.56,20.33,38.19,20.33,36.59Z"/></g></g></g><g id="_Group_66" data-name="&lt;Group&gt;"><g id="_Group_67" data-name="&lt;Group&gt;"><g id="_Group_68" data-name="&lt;Group&gt;"><path id="_Path_29" data-name="&lt;Path&gt;" class="cls-2" d="M30.31,35.5a3.67,3.67,0,0,1,5.19-5.19c1.13,1.13,3.31,6.54,4.17,8.77a.45.45,0,0,1-.59.59C36.85,38.81,31.44,36.63,30.31,35.5Z"/></g></g></g><g id="_Group_69" data-name="&lt;Group&gt;"><g id="_Group_70" data-name="&lt;Group&gt;"><g id="_Group_71" data-name="&lt;Group&gt;"><path id="_Path_30" data-name="&lt;Path&gt;" class="cls-2" d="M36.59,27.67a3.67,3.67,0,0,1,0-7.34c1.6,0,7,2.29,9.16,3.25a.46.46,0,0,1,0,.84C43.56,25.38,38.19,27.67,36.59,27.67Z"/></g></g></g><g id="_Group_72" data-name="&lt;Group&gt;"><g id="_Group_73" data-name="&lt;Group&gt;"><g id="_Group_74" data-name="&lt;Group&gt;"><path id="_Path_31" data-name="&lt;Path&gt;" class="cls-2" d="M35.5,17.69a3.67,3.67,0,0,1-5.19-5.19c1.13-1.13,6.54-3.31,8.77-4.17a.45.45,0,0,1,.59.59C38.81,11.15,36.63,16.56,35.5,17.69Z"/></g></g></g><g id="_Group_75" data-name="&lt;Group&gt;"><g id="_Group_76" data-name="&lt;Group&gt;"><g id="_Group_77" data-name="&lt;Group&gt;"><path id="_Path_32" data-name="&lt;Path&gt;" class="cls-2" d="M27.67,11.41a3.67,3.67,0,0,1-7.34,0c0-1.6,2.29-7,3.25-9.16a.46.46,0,0,1,.84,0C25.38,4.44,27.67,9.81,27.67,11.41Z"/></g></g></g><path id="_Path_33" data-name="&lt;Path&gt;" class="cls-3" d="M17.69,17.69a3.68,3.68,0,0,0,0-5.19,6.56,6.56,0,0,0-1.44-.95,14.85,14.85,0,0,0-4.7,4.7,6.56,6.56,0,0,0,.95,1.44A3.68,3.68,0,0,0,17.69,17.69Z"/><path id="_Path_34" data-name="&lt;Path&gt;" class="cls-3" d="M15.08,24a3.67,3.67,0,0,0-3.67-3.67,7,7,0,0,0-1.7.34,14.41,14.41,0,0,0,0,6.66,7,7,0,0,0,1.7.34A3.67,3.67,0,0,0,15.08,24Z"/><path id="_Path_35" data-name="&lt;Path&gt;" class="cls-3" d="M17.69,30.31a3.68,3.68,0,0,0-5.19,0,6.56,6.56,0,0,0-.95,1.44,14.85,14.85,0,0,0,4.7,4.7,6.56,6.56,0,0,0,1.44-1A3.68,3.68,0,0,0,17.69,30.31Z"/><path id="_Path_36" data-name="&lt;Path&gt;" class="cls-3" d="M24,32.92a3.67,3.67,0,0,0-3.67,3.67,7,7,0,0,0,.34,1.7,14.41,14.41,0,0,0,6.66,0,7,7,0,0,0,.34-1.7A3.67,3.67,0,0,0,24,32.92Z"/><path id="_Path_37" data-name="&lt;Path&gt;" class="cls-3" d="M30.31,30.31a3.68,3.68,0,0,0,0,5.19,6.56,6.56,0,0,0,1.44,1,14.85,14.85,0,0,0,4.7-4.7,6.56,6.56,0,0,0-1-1.44A3.68,3.68,0,0,0,30.31,30.31Z"/><path id="_Path_38" data-name="&lt;Path&gt;" class="cls-3" d="M38.29,20.67a7,7,0,0,0-1.7-.34,3.67,3.67,0,0,0,0,7.34,7,7,0,0,0,1.7-.34,14.41,14.41,0,0,0,0-6.66Z"/><path id="_Path_39" data-name="&lt;Path&gt;" class="cls-3" d="M30.31,17.69a3.68,3.68,0,0,0,5.19,0,6.56,6.56,0,0,0,1-1.44,14.85,14.85,0,0,0-4.7-4.7,6.56,6.56,0,0,0-1.44.95A3.68,3.68,0,0,0,30.31,17.69Z"/><path id="_Path_40" data-name="&lt;Path&gt;" class="cls-3" d="M24,15.08a3.67,3.67,0,0,0,3.67-3.67,7,7,0,0,0-.34-1.7,14.41,14.41,0,0,0-6.66,0,7,7,0,0,0-.34,1.7A3.67,3.67,0,0,0,24,15.08Z"/><g id="_Group_78" data-name="&lt;Group&gt;"><g id="_Group_79" data-name="&lt;Group&gt;"><g id="_Group_80" data-name="&lt;Group&gt;"><path id="_Path_41" data-name="&lt;Path&gt;" class="cls-4" d="M17.69,12.5a3.67,3.67,0,0,1-5.19,5.19c-1.13-1.13-3.31-6.54-4.17-8.77a.45.45,0,0,1,.59-.59C11.15,9.19,16.56,11.37,17.69,12.5Z"/></g></g></g><g id="_Group_81" data-name="&lt;Group&gt;"><g id="_Group_82" data-name="&lt;Group&gt;"><g id="_Group_83" data-name="&lt;Group&gt;"><path id="_Path_42" data-name="&lt;Path&gt;" class="cls-4" d="M11.41,20.33a3.67,3.67,0,0,1,0,7.34c-1.6,0-7-2.29-9.16-3.25a.46.46,0,0,1,0-.84C4.44,22.62,9.81,20.33,11.41,20.33Z"/></g></g></g><g id="_Group_84" data-name="&lt;Group&gt;"><g id="_Group_85" data-name="&lt;Group&gt;"><g id="_Group_86" data-name="&lt;Group&gt;"><path id="_Path_43" data-name="&lt;Path&gt;" class="cls-4" d="M12.5,30.31a3.67,3.67,0,0,1,5.19,5.19c-1.13,1.13-6.54,3.31-8.77,4.17a.45.45,0,0,1-.59-.59C9.19,36.85,11.37,31.44,12.5,30.31Z"/></g></g></g><g id="_Group_87" data-name="&lt;Group&gt;"><g id="_Group_88" data-name="&lt;Group&gt;"><g id="_Group_89" data-name="&lt;Group&gt;"><path id="_Path_44" data-name="&lt;Path&gt;" class="cls-4" d="M20.33,36.59a3.67,3.67,0,0,1,7.34,0c0,1.6-2.29,7-3.25,9.16a.46.46,0,0,1-.84,0C22.62,43.56,20.33,38.19,20.33,36.59Z"/></g></g></g><g id="_Group_90" data-name="&lt;Group&gt;"><g id="_Group_91" data-name="&lt;Group&gt;"><g id="_Group_92" data-name="&lt;Group&gt;"><path id="_Path_45" data-name="&lt;Path&gt;" class="cls-4" d="M30.31,35.5a3.67,3.67,0,0,1,5.19-5.19c1.13,1.13,3.31,6.54,4.17,8.77a.45.45,0,0,1-.59.59C36.85,38.81,31.44,36.63,30.31,35.5Z"/></g></g></g><g id="_Group_93" data-name="&lt;Group&gt;"><g id="_Group_94" data-name="&lt;Group&gt;"><g id="_Group_95" data-name="&lt;Group&gt;"><path id="_Path_46" data-name="&lt;Path&gt;" class="cls-4" d="M36.59,27.67a3.67,3.67,0,0,1,0-7.34c1.6,0,7,2.29,9.16,3.25a.46.46,0,0,1,0,.84C43.56,25.38,38.19,27.67,36.59,27.67Z"/></g></g></g><g id="_Group_96" data-name="&lt;Group&gt;"><g id="_Group_97" data-name="&lt;Group&gt;"><g id="_Group_98" data-name="&lt;Group&gt;"><path id="_Path_47" data-name="&lt;Path&gt;" class="cls-4" d="M35.5,17.69a3.67,3.67,0,0,1-5.19-5.19c1.13-1.13,6.54-3.31,8.77-4.17a.45.45,0,0,1,.59.59C38.81,11.15,36.63,16.56,35.5,17.69Z"/></g></g></g><g id="_Group_99" data-name="&lt;Group&gt;"><g id="_Group_100" data-name="&lt;Group&gt;"><g id="_Group_101" data-name="&lt;Group&gt;"><path id="_Path_48" data-name="&lt;Path&gt;" class="cls-4" d="M27.67,11.41a3.67,3.67,0,0,1-7.34,0c0-1.6,2.29-7,3.25-9.16a.46.46,0,0,1,.84,0C25.38,4.44,27.67,9.81,27.67,11.41Z"/></g></g></g></g></g><g id="_Group_102" data-name="&lt;Group&gt;"><circle id="_Ellipse_2" data-name="&lt;Ellipse&gt;" class="cls-5" cx="24" cy="24" r="12.75"/><path id="_Path_49" data-name="&lt;Path&gt;" class="cls-6" d="M25.19,11.31a11.59,11.59,0,1,1-2.38,0,12.75,12.75,0,1,0,2.38,0Z"/><circle id="_Ellipse_3" data-name="&lt;Ellipse&gt;" class="cls-4" cx="24" cy="24" r="12.75"/></g><g id="_Group_103" data-name="&lt;Group&gt;"><path id="_Path_50" data-name="&lt;Path&gt;" class="cls-6" d="M16.27,26.32c0,.42.52.77,1.16.77s1.16-.35,1.16-.77-.52-.77-1.16-.77S16.27,25.89,16.27,26.32Z"/><g id="_Group_104" data-name="&lt;Group&gt;"><path id="_Path_51" data-name="&lt;Path&gt;" class="cls-7" d="M27,28.25a.78.78,0,0,1,.75,1,3.87,3.87,0,0,1-7.48,0,.78.78,0,0,1,.75-1Z"/><path id="_Path_52" data-name="&lt;Path&gt;" class="cls-8" d="M24,32.11a3.84,3.84,0,0,0,3-1.5,6,6,0,0,0-6.08,0A3.84,3.84,0,0,0,24,32.11Z"/></g><path id="_Path_53" data-name="&lt;Path&gt;" class="cls-4" d="M17.05,24.77a1.16,1.16,0,1,1,2.31,0"/><path id="_Path_54" data-name="&lt;Path&gt;" class="cls-6" d="M31.73,26.32c0,.42-.52.77-1.16.77s-1.16-.35-1.16-.77.52-.77,1.16-.77S31.73,25.89,31.73,26.32Z"/><path id="_Path_55" data-name="&lt;Path&gt;" class="cls-4" d="M31,24.77a1.16,1.16,0,1,0-2.31,0"/><ellipse id="_Ellipse_4" data-name="&lt;Ellipse&gt;" class="cls-9" cx="24" cy="15.89" rx="3.09" ry="0.77"/></g></g></g></svg>