<svg id="Icons" xmlns="http://www.w3.org/2000/svg" viewBox="0 0 48 48"><defs><style>.cls-1{fill:#ff87af;}.cls-1,.cls-2{stroke:#45413c;stroke-linecap:round;stroke-linejoin:round;}.cls-2{fill:none;}.cls-3{fill:#45413c;opacity:0.15;}.cls-4{fill:#6dd627;}.cls-5{fill:#9ceb60;}</style></defs><title>513-cactus-1</title><g id="_Group_" data-name="&lt;Group&gt;"><path id="_Path_" data-name="&lt;Path&gt;" class="cls-1" d="M20.82,2.47a1.81,1.81,0,0,1,1.81,1.82V7.92H20.36L19.14,5A1.82,1.82,0,0,1,20.82,2.47Z"/><path id="_Path_2" data-name="&lt;Path&gt;" class="cls-1" d="M27.18,2.47A1.82,1.82,0,0,1,28.86,5L27.63,7.92H25.36V4.29A1.82,1.82,0,0,1,27.18,2.47Z"/><path id="_Path_3" data-name="&lt;Path&gt;" class="cls-1" d="M24,2A2.32,2.32,0,0,1,26.28,4.7l-.46,2.77H22.18L21.72,4.7A2.31,2.31,0,0,1,24,2Z"/><line id="_Path_4" data-name="&lt;Path&gt;" class="cls-2" x1="23.14" y1="2.18" x2="22.63" y2="0.65"/><line id="_Path_5" data-name="&lt;Path&gt;" class="cls-2" x1="24.85" y1="2.18" x2="25.36" y2="0.65"/><ellipse id="_Ellipse_" data-name="&lt;Ellipse&gt;" class="cls-3" cx="24" cy="45.51" rx="14.54" ry="1.5"/><path id="_Path_6" data-name="&lt;Path&gt;" class="cls-4" d="M39.07,23.83a3.26,3.26,0,0,1,3.1,4.26l-1.09,3.42a7.28,7.28,0,0,1-6.93,5.05H30.36l-.91-6.82H33.8a1.83,1.83,0,0,0,1.8-1.54l.25-1.6A3.26,3.26,0,0,1,39.07,23.83Z"/><path id="_Path_7" data-name="&lt;Path&gt;" class="cls-5" d="M33.8,32a1.82,1.82,0,0,0,1.8-1.54l.25-1.6a3.26,3.26,0,0,1,6.28-.63l0-.15a3.26,3.26,0,1,0-6.32-1.49l-.25,1.6a1.83,1.83,0,0,1-1.8,1.54H29.45L29.76,32Z"/><path id="_Path_8" data-name="&lt;Path&gt;" class="cls-2" d="M39.07,23.83a3.26,3.26,0,0,1,3.1,4.26l-1.09,3.42a7.28,7.28,0,0,1-6.93,5.05H30.36l-.91-6.82H33.8a1.83,1.83,0,0,0,1.8-1.54l.25-1.6A3.26,3.26,0,0,1,39.07,23.83Z"/><path id="_Path_9" data-name="&lt;Path&gt;" class="cls-4" d="M8.77,20.65A3.25,3.25,0,0,0,5.65,24.8l1.08,3.77a7.28,7.28,0,0,0,7,5.26h3.62l.9-6.82H14a1.81,1.81,0,0,1-1.81-1.64L12,23.59A3.25,3.25,0,0,0,8.77,20.65Z"/><path id="_Path_10" data-name="&lt;Path&gt;" class="cls-5" d="M5.73,25.08a3.24,3.24,0,0,1,6.28.78l.17,1.78A1.81,1.81,0,0,0,14,29.28h4l.3-2.27H14a1.81,1.81,0,0,1-1.81-1.64L12,23.59A3.25,3.25,0,1,0,5.65,24.8Z"/><path id="_Path_11" data-name="&lt;Path&gt;" class="cls-2" d="M8.77,20.65A3.25,3.25,0,0,0,5.65,24.8l1.08,3.77a7.28,7.28,0,0,0,7,5.26h3.62l.9-6.82H14a1.81,1.81,0,0,1-1.81-1.64L12,23.59A3.25,3.25,0,0,0,8.77,20.65Z"/><path class="cls-4" d="M24,7a9.61,9.61,0,0,0-9.6,10l.8,20a8.81,8.81,0,0,0,17.6,0l.8-20A9.61,9.61,0,0,0,24,7Z"/><path id="_Path_12" data-name="&lt;Path&gt;" class="cls-5" d="M24,10.65A9.6,9.6,0,0,1,33.52,19l.08-2a9.61,9.61,0,1,0-19.2,0l.08,2A9.6,9.6,0,0,1,24,10.65Z"/><path class="cls-2" d="M24,7a9.61,9.61,0,0,0-9.6,10l.8,20a8.81,8.81,0,0,0,17.6,0l.8-20A9.61,9.61,0,0,0,24,7Z"/><line id="_Path_13" data-name="&lt;Path&gt;" class="cls-2" x1="17.71" y1="9.36" x2="16.73" y2="8.38"/><line id="_Path_14" data-name="&lt;Path&gt;" class="cls-2" x1="14.76" y1="13.98" x2="13.55" y2="13.38"/><line id="_Path_15" data-name="&lt;Path&gt;" class="cls-2" x1="30.76" y1="9.8" x2="31.73" y2="8.83"/><line id="_Path_16" data-name="&lt;Path&gt;" class="cls-2" x1="33.34" y1="14.35" x2="34.91" y2="13.83"/><line id="_Path_17" data-name="&lt;Path&gt;" class="cls-2" x1="33.38" y1="22.47" x2="34.91" y2="22.47"/><line id="_Path_18" data-name="&lt;Path&gt;" class="cls-2" x1="14.55" y1="20.68" x2="13.09" y2="20.19"/><line id="_Path_19" data-name="&lt;Path&gt;" class="cls-2" x1="9" y1="20.65" x2="9.46" y2="19.29"/><line id="_Path_20" data-name="&lt;Path&gt;" class="cls-2" x1="5.82" y1="22.47" x2="4.91" y2="22.01"/><line id="_Path_21" data-name="&lt;Path&gt;" class="cls-2" x1="6.68" y1="28.38" x2="4.91" y2="28.38"/><line id="_Path_22" data-name="&lt;Path&gt;" class="cls-2" x1="10.25" y1="32.95" x2="8.55" y2="33.38"/><line id="_Path_23" data-name="&lt;Path&gt;" class="cls-2" x1="15.28" y1="37.92" x2="14.37" y2="37.47"/><line id="_Path_24" data-name="&lt;Path&gt;" class="cls-2" x1="32.36" y1="39.47" x2="34.91" y2="38.83"/><line id="_Path_25" data-name="&lt;Path&gt;" class="cls-2" x1="38.39" y1="35.19" x2="39.91" y2="35.19"/><line id="_Path_26" data-name="&lt;Path&gt;" class="cls-2" x1="41.35" y1="30.65" x2="43.09" y2="30.65"/><line id="_Path_27" data-name="&lt;Path&gt;" class="cls-2" x1="42.05" y1="25.77" x2="43.09" y2="24.74"/><line id="_Path_28" data-name="&lt;Path&gt;" class="cls-2" x1="38.16" y1="23.96" x2="37.64" y2="22.92"/><line id="_Path_29" data-name="&lt;Path&gt;" class="cls-2" x1="20.36" y1="14.74" x2="19.45" y2="13.38"/><line id="_Path_30" data-name="&lt;Path&gt;" class="cls-2" x1="27.18" y1="16.1" x2="28.09" y2="15.65"/><line id="_Path_31" data-name="&lt;Path&gt;" class="cls-2" x1="19.45" y1="22.01" x2="18.09" y2="21.1"/><line id="_Path_32" data-name="&lt;Path&gt;" class="cls-2" x1="24" y1="25.19" x2="24.91" y2="24.29"/><line id="_Path_33" data-name="&lt;Path&gt;" class="cls-2" x1="29.91" y1="21.1" x2="30.82" y2="19.74"/><line id="_Path_34" data-name="&lt;Path&gt;" class="cls-2" x1="19" y1="30.65" x2="18.09" y2="29.74"/><line id="_Path_35" data-name="&lt;Path&gt;" class="cls-2" x1="26.27" y1="31.1" x2="27.64" y2="29.28"/><line id="_Path_36" data-name="&lt;Path&gt;" class="cls-2" x1="22.18" y1="37.92" x2="20.82" y2="36.56"/><line id="_Path_37" data-name="&lt;Path&gt;" class="cls-2" x1="29" y1="37.01" x2="29.45" y2="35.19"/><line id="_Path_38" data-name="&lt;Path&gt;" class="cls-2" x1="37.64" y1="29.74" x2="38.54" y2="28.38"/><line id="_Path_39" data-name="&lt;Path&gt;" class="cls-2" x1="35.36" y1="33.38" x2="36.73" y2="32.92"/><line id="_Path_40" data-name="&lt;Path&gt;" class="cls-2" x1="9.91" y1="27.47" x2="9" y2="26.56"/></g></svg>