<svg id="Icons" xmlns="http://www.w3.org/2000/svg" viewBox="0 0 48 48"><defs><style>.cls-1{fill:#45413c;opacity:0.15;}.cls-2{fill:#ffaa54;}.cls-3{fill:#fc9;}.cls-4{fill:none;stroke:#45413c;stroke-linecap:round;stroke-linejoin:round;}</style></defs><title>517-maple-leaf</title><g id="_Group_" data-name="&lt;Group&gt;"><ellipse id="_Ellipse_" data-name="&lt;Ellipse&gt;" class="cls-1" cx="24" cy="45.5" rx="11.5" ry="1.5"/><path id="_Path_" data-name="&lt;Path&gt;" class="cls-2" d="M41.44,35.09a.5.5,0,0,0-.13-.82,15.43,15.43,0,0,0-8.77-1.14l-.71.14a30.19,30.19,0,0,0,4-3.46,27.66,27.66,0,0,0,6.68-11.2.51.51,0,0,0-.64-.61,27.66,27.66,0,0,0-10.91,7.14,29.67,29.67,0,0,0-2.64,3.16,31.1,31.1,0,0,0,1.06-8A29.76,29.76,0,0,0,24.42,3.61a.51.51,0,0,0-.84,0,29.76,29.76,0,0,0-4.92,16.64,31.1,31.1,0,0,0,1.06,8.05,29.67,29.67,0,0,0-2.64-3.16A27.66,27.66,0,0,0,6.17,18a.51.51,0,0,0-.64.61,27.66,27.66,0,0,0,6.68,11.2,30.19,30.19,0,0,0,4,3.46l-.71-.14a15.48,15.48,0,0,0-8.78,1.14.5.5,0,0,0-.12.82,15.8,15.8,0,0,0,16.37,2.8A7.65,7.65,0,0,1,22,40.76a.49.49,0,0,0,.43.74h3.16a.49.49,0,0,0,.43-.74,7.65,7.65,0,0,1-.94-2.87,15.8,15.8,0,0,0,16.37-2.8Z"/><g id="_Group_2" data-name="&lt;Group&gt;"><path id="_Path_2" data-name="&lt;Path&gt;" class="cls-3" d="M28.83,27.57a.54.54,0,0,0,.27.59.53.53,0,0,0,.65-.1q.55-.57,1.17-1.14a28.25,28.25,0,0,1,10.85-6.27c.27-.68.5-1.36.7-2a.51.51,0,0,0-.64-.61,27.66,27.66,0,0,0-10.91,7.14A29.27,29.27,0,0,0,28.83,27.57Z"/><path id="_Path_3" data-name="&lt;Path&gt;" class="cls-3" d="M23.58,7.94a.55.55,0,0,1,.84,0,24.06,24.06,0,0,1,4.9,13.56c0-.41,0-.83,0-1.25A29.76,29.76,0,0,0,24.42,3.61a.51.51,0,0,0-.84,0,29.76,29.76,0,0,0-4.92,16.64c0,.42,0,.84,0,1.25A24.06,24.06,0,0,1,23.58,7.94Z"/><path id="_Path_4" data-name="&lt;Path&gt;" class="cls-3" d="M14.3,33.86a.47.47,0,0,0,.47-.3.47.47,0,0,0-.16-.54,15.3,15.3,0,0,0-7.92,1.25.49.49,0,0,0-.15.8A.38.38,0,0,1,6.69,35,16.91,16.91,0,0,1,14.3,33.86Z"/><path id="_Path_5" data-name="&lt;Path&gt;" class="cls-3" d="M41.46,35.07a.5.5,0,0,0-.14-.8A15.35,15.35,0,0,0,33.39,33a.47.47,0,0,0-.16.54.47.47,0,0,0,.47.3A17,17,0,0,1,41.32,35,.42.42,0,0,1,41.46,35.07Z"/><path id="_Path_6" data-name="&lt;Path&gt;" class="cls-3" d="M6.23,20.65a28.25,28.25,0,0,1,10.85,6.27q.62.57,1.17,1.14a.53.53,0,0,0,.65.1.54.54,0,0,0,.27-.59,29.27,29.27,0,0,0-2.09-2.43A27.66,27.66,0,0,0,6.17,18a.51.51,0,0,0-.64.61C5.73,19.29,6,20,6.23,20.65Z"/></g><path id="_Path_7" data-name="&lt;Path&gt;" class="cls-4" d="M41.44,35.09a.5.5,0,0,0-.13-.82,15.43,15.43,0,0,0-8.77-1.14l-.71.14a30.19,30.19,0,0,0,4-3.46,27.66,27.66,0,0,0,6.68-11.2.51.51,0,0,0-.64-.61,27.66,27.66,0,0,0-10.91,7.14,29.67,29.67,0,0,0-2.64,3.16,31.1,31.1,0,0,0,1.06-8A29.76,29.76,0,0,0,24.42,3.61a.51.51,0,0,0-.84,0,29.76,29.76,0,0,0-4.92,16.64,31.1,31.1,0,0,0,1.06,8.05,29.67,29.67,0,0,0-2.64-3.16A27.66,27.66,0,0,0,6.17,18a.51.51,0,0,0-.64.61,27.66,27.66,0,0,0,6.68,11.2,30.19,30.19,0,0,0,4,3.46l-.71-.14a15.48,15.48,0,0,0-8.78,1.14.5.5,0,0,0-.12.82,15.8,15.8,0,0,0,16.37,2.8A7.65,7.65,0,0,1,22,40.76a.49.49,0,0,0,.43.74h3.16a.49.49,0,0,0,.43-.74,7.65,7.65,0,0,1-.94-2.87,15.8,15.8,0,0,0,16.37-2.8Z"/><line id="_Path_8" data-name="&lt;Path&gt;" class="cls-4" x1="24" y1="34.39" x2="24" y2="14.39"/><line id="_Path_9" data-name="&lt;Path&gt;" class="cls-4" x1="26.5" y1="34.39" x2="31.5" y2="28.89"/><line id="_Path_10" data-name="&lt;Path&gt;" class="cls-4" x1="28" y1="36.39" x2="31.5" y2="35.89"/><line id="_Path_11" data-name="&lt;Path&gt;" class="cls-4" x1="21.5" y1="34.39" x2="16.5" y2="28.89"/><line id="_Path_12" data-name="&lt;Path&gt;" class="cls-4" x1="20" y1="36.39" x2="16.5" y2="35.89"/></g></svg>