<svg id="Icons" xmlns="http://www.w3.org/2000/svg" viewBox="0 0 48 48"><defs><style>.cls-1{fill:#45413c;opacity:0.15;}.cls-2{fill:#ffaa54;}.cls-3{fill:#fc9;}.cls-4{fill:none;stroke:#45413c;stroke-linecap:round;stroke-linejoin:round;}</style></defs><title>518-fallen-leaf</title><g id="_Group_" data-name="&lt;Group&gt;"><ellipse id="_Ellipse_" data-name="&lt;Ellipse&gt;" class="cls-1" cx="32.43" cy="43.85" rx="11.5" ry="1.5"/><ellipse id="_Ellipse_2" data-name="&lt;Ellipse&gt;" class="cls-1" cx="11.93" cy="44.5" rx="6.5" ry="1.5"/><path id="_Path_" data-name="&lt;Path&gt;" class="cls-2" d="M14.73,34.37a14.84,14.84,0,0,1-6.87,9.35.89.89,0,0,1-1.21-.29,14.87,14.87,0,0,1,4.93-20.79.91.91,0,0,1,1.22.28A14.9,14.9,0,0,1,14.73,34.37Z"/><path id="_Path_2" data-name="&lt;Path&gt;" class="cls-3" d="M4.71,34.87a14.89,14.89,0,0,1,9-10.39,14.73,14.73,0,0,0-.86-1.56.91.91,0,0,0-1.22-.28A14.88,14.88,0,0,0,4.71,32a14.72,14.72,0,0,0-.33,4.88A14.13,14.13,0,0,1,4.71,34.87Z"/><path id="_Path_3" data-name="&lt;Path&gt;" class="cls-4" d="M14.73,34.37a14.84,14.84,0,0,1-6.87,9.35.89.89,0,0,1-1.21-.29,14.87,14.87,0,0,1,4.93-20.79.91.91,0,0,1,1.22.28A14.9,14.9,0,0,1,14.73,34.37Z"/><path id="_Path_4" data-name="&lt;Path&gt;" class="cls-2" d="M41.8,29.27c-2.21-3.69-1.83-11.84-9-18A23.88,23.88,0,0,0,18.5,5.48a7,7,0,0,1-1.21-2.9,1,1,0,1,0-2,.37A8.89,8.89,0,0,0,17,6.79,22.43,22.43,0,0,0,21.51,29c8.41,9.82,18.69,7,22.88,5.23a1,1,0,0,0,.19-1.74A10.36,10.36,0,0,1,41.8,29.27Z"/><path id="_Path_5" data-name="&lt;Path&gt;" class="cls-3" d="M16.74,7.59a2.41,2.41,0,0,0,2,1.48,24.08,24.08,0,0,1,13.07,5.7c7.17,6.16,6.79,14.31,9,18a12.1,12.1,0,0,0,1.61,2.15c.75-.24,1.42-.49,2-.72a1,1,0,0,0,.19-1.74,10.36,10.36,0,0,1-2.78-3.19c-2.21-3.69-1.83-11.84-9-18A23.88,23.88,0,0,0,18.5,5.48a7,7,0,0,1-1.21-2.9,1,1,0,1,0-2,.37A8.89,8.89,0,0,0,17,6.79C16.91,7,16.83,7.3,16.74,7.59Z"/><path id="_Path_6" data-name="&lt;Path&gt;" class="cls-4" d="M41.8,29.27c-2.21-3.69-1.83-11.84-9-18A23.88,23.88,0,0,0,18.5,5.48a7,7,0,0,1-1.21-2.9,1,1,0,1,0-2,.37A8.89,8.89,0,0,0,17,6.79,22.43,22.43,0,0,0,21.51,29c8.41,9.82,18.69,7,22.88,5.23a1,1,0,0,0,.19-1.74A10.36,10.36,0,0,1,41.8,29.27Z"/><path id="_Path_7" data-name="&lt;Path&gt;" class="cls-4" d="M13.64,21c-2.7,3-4.3,8.23-5.47,13.13"/><path id="_Path_8" data-name="&lt;Path&gt;" class="cls-4" d="M19.8,7.77s4.82,2.46,12,14c4.75,7.62,7,8.5,7,8.5"/></g></svg>