<svg id="Icons" xmlns="http://www.w3.org/2000/svg" viewBox="0 0 48 48"><defs><style>.cls-1{fill:#45413c;opacity:0.15;}.cls-2{fill:#9ceb60;}.cls-3{fill:#c8ffa1;}.cls-4{fill:none;}.cls-4,.cls-9{stroke:#45413c;stroke-linecap:round;stroke-linejoin:round;}.cls-5{fill:#fffacf;}.cls-6{fill:#fff;}.cls-7{fill:#ff87af;}.cls-8{fill:#ffb0ca;}.cls-9{fill:#ff6196;}.cls-10{fill:#ffe5ee;}</style></defs><title>524-watermelon-2</title><g id="_Group_" data-name="&lt;Group&gt;"><ellipse id="_Ellipse_" data-name="&lt;Ellipse&gt;" class="cls-1" cx="24.31" cy="43.5" rx="13.5" ry="1.5"/><g id="_Group_2" data-name="&lt;Group&gt;"><g id="_Group_3" data-name="&lt;Group&gt;"><path id="_Path_" data-name="&lt;Path&gt;" class="cls-2" d="M41.29,25.83l-4.7-1.18a4.8,4.8,0,0,1-4.73,1.47,4.76,4.76,0,0,1-7.57-1.43,4.69,4.69,0,0,1-1.11-.14,4.76,4.76,0,0,1-3.58-4.19L2.77,16.11a1.59,1.59,0,0,0-2,1.27A21.53,21.53,0,0,0,42.42,27.89,1.61,1.61,0,0,0,41.29,25.83Z"/><g id="_Group_4" data-name="&lt;Group&gt;"><path id="_Path_2" data-name="&lt;Path&gt;" class="cls-3" d="M41.57,30c.31-.68.6-1.39.85-2.12a1.61,1.61,0,0,0-1.13-2.06l-4.7-1.18a4.8,4.8,0,0,1-4.73,1.47,4.64,4.64,0,0,1-1.69,1Z"/><path id="_Path_3" data-name="&lt;Path&gt;" class="cls-3" d="M25.07,25.85a5,5,0,0,1-.78-1.16,4.69,4.69,0,0,1-1.11-.14,4.76,4.76,0,0,1-3.58-4.19L2.77,16.11a1.59,1.59,0,0,0-2,1.27,19.65,19.65,0,0,0-.26,2.28Z"/></g><path id="_Path_4" data-name="&lt;Path&gt;" class="cls-4" d="M41.29,25.83l-4.7-1.18a4.8,4.8,0,0,1-4.73,1.47,4.76,4.76,0,0,1-7.57-1.43,4.69,4.69,0,0,1-1.11-.14,4.76,4.76,0,0,1-3.58-4.19L2.77,16.11a1.59,1.59,0,0,0-2,1.27A21.53,21.53,0,0,0,42.42,27.89,1.61,1.61,0,0,0,41.29,25.83Z"/></g><g id="_Group_5" data-name="&lt;Group&gt;"><path id="_Path_5" data-name="&lt;Path&gt;" class="cls-5" d="M36.59,24.65a4.8,4.8,0,0,1-4.73,1.47,4.76,4.76,0,0,1-7.57-1.43,4.69,4.69,0,0,1-1.11-.14,4.76,4.76,0,0,1-3.58-4.19l-15.73-4A18.74,18.74,0,1,0,40.2,25.56Z"/><g id="_Group_6" data-name="&lt;Group&gt;"><path id="_Path_6" data-name="&lt;Path&gt;" class="cls-6" d="M38.81,29.32a19.62,19.62,0,0,0,1.39-3.76l-3.61-.91a4.8,4.8,0,0,1-4.73,1.47,4.64,4.64,0,0,1-1.69,1Z"/><path id="_Path_7" data-name="&lt;Path&gt;" class="cls-6" d="M25.07,25.85a5,5,0,0,1-.78-1.16,4.69,4.69,0,0,1-1.11-.14,4.76,4.76,0,0,1-3.58-4.19l-15.73-4a18.26,18.26,0,0,0-.56,4Z"/></g><path id="_Path_8" data-name="&lt;Path&gt;" class="cls-4" d="M36.59,24.65a4.8,4.8,0,0,1-4.73,1.47,4.76,4.76,0,0,1-7.57-1.43,4.69,4.69,0,0,1-1.11-.14,4.76,4.76,0,0,1-3.58-4.19l-15.73-4A18.74,18.74,0,1,0,40.2,25.56Z"/></g><g id="_Group_7" data-name="&lt;Group&gt;"><path id="_Path_9" data-name="&lt;Path&gt;" class="cls-7" d="M36.59,24.65a4.8,4.8,0,0,1-4.73,1.47,4.76,4.76,0,0,1-7.57-1.43,4.69,4.69,0,0,1-1.11-.14,4.76,4.76,0,0,1-3.58-4.19L6.18,17a16.35,16.35,0,0,0,31.7,8Z"/><g id="_Group_8" data-name="&lt;Group&gt;"><path id="_Path_10" data-name="&lt;Path&gt;" class="cls-8" d="M36.41,28.71A16.55,16.55,0,0,0,37.88,25l-1.29-.32a4.8,4.8,0,0,1-4.73,1.47,4.64,4.64,0,0,1-1.69,1Z"/><path id="_Path_11" data-name="&lt;Path&gt;" class="cls-8" d="M25.07,25.85a5,5,0,0,1-.78-1.16,4.69,4.69,0,0,1-1.11-.14,4.76,4.76,0,0,1-3.58-4.19L6.18,17a17.13,17.13,0,0,0-.48,4Z"/></g><path id="_Path_12" data-name="&lt;Path&gt;" class="cls-4" d="M36.59,24.65a4.8,4.8,0,0,1-4.73,1.47,4.76,4.76,0,0,1-7.57-1.43,4.69,4.69,0,0,1-1.11-.14,4.76,4.76,0,0,1-3.58-4.19L6.18,17a16.35,16.35,0,0,0,31.7,8Z"/></g><g id="_Group_9" data-name="&lt;Group&gt;"><path id="_Path_13" data-name="&lt;Path&gt;" class="cls-9" d="M9.07,21.81a.8.8,0,1,0,1.55.39l.2-.77a.81.81,0,0,0-.58-1,.8.8,0,0,0-1,.58Z"/><path id="_Path_14" data-name="&lt;Path&gt;" class="cls-9" d="M12,26.65a.8.8,0,0,0,1.55.39l.19-.77a.79.79,0,1,0-1.54-.39Z"/><path id="_Path_15" data-name="&lt;Path&gt;" class="cls-9" d="M16.8,23.76a.81.81,0,0,0,.58,1,.8.8,0,0,0,1-.58l.2-.77a.81.81,0,0,0-.58-1A.8.8,0,0,0,17,23Z"/><path id="_Path_16" data-name="&lt;Path&gt;" class="cls-9" d="M28.2,30.75a.8.8,0,0,1-1.55-.39l.2-.77a.79.79,0,0,1,1-.58.8.8,0,0,1,.58,1Z"/><path id="_Path_17" data-name="&lt;Path&gt;" class="cls-9" d="M14.85,31.49a.8.8,0,1,0,1.55.39l.19-.77a.79.79,0,1,0-1.54-.39Z"/><path id="_Path_18" data-name="&lt;Path&gt;" class="cls-9" d="M23.36,33.64a.8.8,0,0,1-1.55-.39l.19-.77a.8.8,0,1,1,1.55.39Z"/><path id="_Path_19" data-name="&lt;Path&gt;" class="cls-9" d="M19.31,28.51a.79.79,0,0,0,1.54.39l.2-.78a.8.8,0,0,0-.58-1,.81.81,0,0,0-1,.58Z"/></g></g><g id="_Group_10" data-name="&lt;Group&gt;"><g id="_Group_11" data-name="&lt;Group&gt;"><path id="_Path_20" data-name="&lt;Path&gt;" class="cls-6" d="M35.68,8.25a1.45,1.45,0,0,0-.6-1.93,1.46,1.46,0,0,0-1.72,1.07,18,18,0,0,0-.28,3.69.23.23,0,0,0,.42.16A18.48,18.48,0,0,0,35.68,8.25Z"/><path id="_Path_21" data-name="&lt;Path&gt;" class="cls-10" d="M34.71,7.32a1.29,1.29,0,0,0-1.46.6,2.41,2.41,0,0,1,.11-.53,1.46,1.46,0,0,1,1.72-1.07,1.45,1.45,0,0,1,.6,1.93,2.77,2.77,0,0,1-.25.47A1.31,1.31,0,0,0,34.71,7.32Z"/><path id="_Path_22" data-name="&lt;Path&gt;" class="cls-4" d="M35.68,8.25a1.45,1.45,0,0,0-.6-1.93,1.46,1.46,0,0,0-1.72,1.07,18,18,0,0,0-.28,3.69.23.23,0,0,0,.42.16A18.48,18.48,0,0,0,35.68,8.25Z"/></g><g id="_Group_12" data-name="&lt;Group&gt;"><path id="_Path_23" data-name="&lt;Path&gt;" class="cls-6" d="M42.21,12.87a1.45,1.45,0,0,0,.18-2,1.45,1.45,0,0,0-2,.33,18,18,0,0,0-1.67,3.3c-.1.24.09.43.33.3A17.83,17.83,0,0,0,42.21,12.87Z"/><path id="_Path_24" data-name="&lt;Path&gt;" class="cls-10" d="M41.67,11.64a1.3,1.3,0,0,0-1.58,0,2.34,2.34,0,0,1,.3-.44,1.45,1.45,0,0,1,2-.33,1.45,1.45,0,0,1-.18,2,2.35,2.35,0,0,1-.42.34A1.3,1.3,0,0,0,41.67,11.64Z"/><path id="_Path_25" data-name="&lt;Path&gt;" class="cls-4" d="M42.21,12.87a1.45,1.45,0,0,0,.18-2,1.45,1.45,0,0,0-2,.33,18,18,0,0,0-1.67,3.3c-.1.24.09.43.33.3A17.83,17.83,0,0,0,42.21,12.87Z"/></g><g id="_Group_13" data-name="&lt;Group&gt;"><path id="_Path_26" data-name="&lt;Path&gt;" class="cls-6" d="M46.47,19.64a1.44,1.44,0,0,0,.94-1.79,1.45,1.45,0,0,0-2-.46,18,18,0,0,0-2.81,2.41.23.23,0,0,0,.18.41A18.8,18.8,0,0,0,46.47,19.64Z"/><path id="_Path_27" data-name="&lt;Path&gt;" class="cls-10" d="M46.44,18.29A1.3,1.3,0,0,0,45,17.68a2.35,2.35,0,0,1,.45-.29,1.45,1.45,0,0,1,2,.46,1.44,1.44,0,0,1-.94,1.79,2.66,2.66,0,0,1-.51.15A1.29,1.29,0,0,0,46.44,18.29Z"/><path id="_Path_28" data-name="&lt;Path&gt;" class="cls-4" d="M46.47,19.64a1.44,1.44,0,0,0,.94-1.79,1.45,1.45,0,0,0-2-.46,18,18,0,0,0-2.81,2.41.23.23,0,0,0,.18.41A18.8,18.8,0,0,0,46.47,19.64Z"/></g><g id="_Group_14" data-name="&lt;Group&gt;"><path id="_Path_29" data-name="&lt;Path&gt;" class="cls-6" d="M25.84,6.82A1.45,1.45,0,0,1,27,5.17c.68,0,1.26.67,1.3,1.55a19.37,19.37,0,0,1-.88,3.6.23.23,0,0,1-.45,0A18.4,18.4,0,0,1,25.84,6.82Z"/><path id="_Path_30" data-name="&lt;Path&gt;" class="cls-10" d="M27.06,6.23a1.32,1.32,0,0,1,1.2,1,3,3,0,0,0,.06-.53c0-.88-.62-1.58-1.3-1.55a1.45,1.45,0,0,0-1.18,1.65,2.19,2.19,0,0,0,.1.52A1.3,1.3,0,0,1,27.06,6.23Z"/><path id="_Path_31" data-name="&lt;Path&gt;" class="cls-4" d="M25.84,6.82A1.45,1.45,0,0,1,27,5.17c.68,0,1.26.67,1.3,1.55a19.37,19.37,0,0,1-.88,3.6.23.23,0,0,1-.45,0A18.4,18.4,0,0,1,25.84,6.82Z"/></g><g id="_Group_15" data-name="&lt;Group&gt;"><path id="_Path_32" data-name="&lt;Path&gt;" class="cls-6" d="M18.2,9.18a1.46,1.46,0,0,1,.45-2,1.47,1.47,0,0,1,1.8.94A18.37,18.37,0,0,1,21,11.8a.22.22,0,0,1-.4.19A18.47,18.47,0,0,1,18.2,9.18Z"/><path id="_Path_33" data-name="&lt;Path&gt;" class="cls-10" d="M19.1,8.17a1.3,1.3,0,0,1,1.5.49,3.47,3.47,0,0,0-.15-.52,1.47,1.47,0,0,0-1.8-.94,1.46,1.46,0,0,0-.45,2,2.71,2.71,0,0,0,.29.45A1.31,1.31,0,0,1,19.1,8.17Z"/><path id="_Path_34" data-name="&lt;Path&gt;" class="cls-4" d="M18.2,9.18a1.46,1.46,0,0,1,.45-2,1.47,1.47,0,0,1,1.8.94A18.37,18.37,0,0,1,21,11.8a.22.22,0,0,1-.4.19A18.47,18.47,0,0,1,18.2,9.18Z"/></g></g></g></svg>