<svg id="Icons" xmlns="http://www.w3.org/2000/svg" viewBox="0 0 48 48"><defs><style>.cls-1{fill:#45413c;opacity:0.15;}.cls-2{fill:#ffe500;}.cls-3{fill:#fff48c;}.cls-4{fill:none;stroke:#45413c;stroke-linecap:round;stroke-linejoin:round;}.cls-5{fill:#debb7e;}.cls-6{fill:#f0d5a8;}.cls-7{fill:#6dd627;}.cls-8{fill:#9ceb60;}</style></defs><title>526-lemon</title><g id="_Group_" data-name="&lt;Group&gt;"><ellipse id="_Ellipse_" data-name="&lt;Ellipse&gt;" class="cls-1" cx="21.37" cy="45.36" rx="12.6" ry="1.64"/><path class="cls-2" d="M37.8,23.51a13.75,13.75,0,0,1-.54-4.16,5.6,5.6,0,0,0-1.67-4.18l-.94-.93a5.56,5.56,0,0,0-4.17-1.67A13.86,13.86,0,0,1,26.31,12c-5.62-1.51-11.73.75-16.18,5.19S3.43,27.78,4.94,33.41a13.74,13.74,0,0,1,.53,4.16,5.65,5.65,0,0,0,1.68,4.18l.93.93a5.6,5.6,0,0,0,4.18,1.67,13.83,13.83,0,0,1,4.16.54c5.63,1.51,11.74-.75,16.18-5.19S39.3,29.14,37.8,23.51Z"/><path id="_Path_" data-name="&lt;Path&gt;" class="cls-3" d="M10.13,22.22c4.45-4.44,10.56-6.7,16.18-5.19a13.86,13.86,0,0,0,4.17.54,5.56,5.56,0,0,1,4.17,1.67l.94.93a5.6,5.6,0,0,1,1.67,4.18,13.79,13.79,0,0,0,.54,4.16c.09.36.17.72.24,1.09a14.39,14.39,0,0,0-.24-6.09,13.75,13.75,0,0,1-.54-4.16,5.6,5.6,0,0,0-1.67-4.18l-.94-.93a5.56,5.56,0,0,0-4.17-1.67A13.86,13.86,0,0,1,26.31,12c-5.62-1.51-11.73.75-16.18,5.19C6,21.38,3.73,27,4.69,32.32A19.16,19.16,0,0,1,10.13,22.22Z"/><path class="cls-4" d="M37.8,23.51a13.75,13.75,0,0,1-.54-4.16,5.6,5.6,0,0,0-1.67-4.18l-.94-.93a5.56,5.56,0,0,0-4.17-1.67A13.86,13.86,0,0,1,26.31,12c-5.62-1.51-11.73.75-16.18,5.19S3.43,27.78,4.94,33.41a13.74,13.74,0,0,1,.53,4.16,5.65,5.65,0,0,0,1.68,4.18l.93.93a5.6,5.6,0,0,0,4.18,1.67,13.83,13.83,0,0,1,4.16.54c5.63,1.51,11.74-.75,16.18-5.19S39.3,29.14,37.8,23.51Z"/><path id="_Path_2" data-name="&lt;Path&gt;" class="cls-5" d="M33.27,15a14.81,14.81,0,0,1,6.59-4.26c2.48-.67,3,.84,3.14,2a1.11,1.11,0,0,1-1,1.19,16,16,0,0,0-7.22,2.64C33.43,16.67,33.27,15,33.27,15Z"/><path id="_Path_3" data-name="&lt;Path&gt;" class="cls-6" d="M33.89,16.27a14.33,14.33,0,0,1,6-3.61c1.7-.45,2.49.12,2.86.89a1.14,1.14,0,0,0,.28-.82c-.09-1.14-.66-2.65-3.14-2A14.81,14.81,0,0,0,33.27,15,2.16,2.16,0,0,0,33.89,16.27Z"/><path id="_Path_4" data-name="&lt;Path&gt;" class="cls-4" d="M33.27,15a14.9,14.9,0,0,1,6.59-4.26c2.48-.66,3,.85,3.14,2a1.11,1.11,0,0,1-1,1.19,16.1,16.1,0,0,0-7.22,2.64C33.43,16.66,33.27,15,33.27,15Z"/><path id="_Path_5" data-name="&lt;Path&gt;" class="cls-7" d="M33.32,15a9.1,9.1,0,0,0-2.69-9.84A9.38,9.38,0,0,0,20.09,3.05a1.07,1.07,0,0,0-.64,1A10,10,0,0,0,23.21,12C27.16,15,31.2,11.54,33.32,15Z"/><path id="_Path_6" data-name="&lt;Path&gt;" class="cls-8" d="M20.09,6A9.4,9.4,0,0,1,30.63,8.07a9.5,9.5,0,0,1,3.05,5.5,9.18,9.18,0,0,0-3.05-8.46A9.38,9.38,0,0,0,20.09,3.05a1.07,1.07,0,0,0-.64,1,11.71,11.71,0,0,0,.25,2.27A1.07,1.07,0,0,1,20.09,6Z"/><path id="_Path_7" data-name="&lt;Path&gt;" class="cls-4" d="M33.32,15a9.1,9.1,0,0,0-2.69-9.84A9.38,9.38,0,0,0,20.09,3.05a1.07,1.07,0,0,0-.64,1A10,10,0,0,0,23.21,12C27.16,15,31.2,11.54,33.32,15Z"/><path id="_Path_8" data-name="&lt;Path&gt;" class="cls-4" d="M33.32,15s0-5.93-5.56-8.38"/></g></svg>