<svg id="Icons" xmlns="http://www.w3.org/2000/svg" viewBox="0 0 48 48"><defs><style>.cls-1{fill:#6dd627;}.cls-2{fill:#9ceb60;}.cls-3{fill:none;}.cls-3,.cls-7,.cls-8,.cls-9{stroke:#45413c;stroke-linecap:round;stroke-linejoin:round;}.cls-4,.cls-9{fill:#45413c;}.cls-4{opacity:0.15;}.cls-5{fill:#ff6242;}.cls-6,.cls-8{fill:#ff866e;}.cls-10,.cls-7{fill:#e04122;}</style></defs><title>532-strawberry-2</title><path class="cls-1" d="M34.94,7l-2.16-.29a.86.86,0,0,1-.71-1.13A1.43,1.43,0,0,0,30,3.88L27.63,5.31a.87.87,0,0,1-1.24-.38L25.3,2.53a1.43,1.43,0,0,0-2.6,0l-1.09,2.4a.87.87,0,0,1-1.24.38L18,3.88a1.43,1.43,0,0,0-2.11,1.67.86.86,0,0,1-.71,1.13L13.06,7a1.43,1.43,0,0,0-.58,2.63l2.41,1.53H33.11L35.52,9.6A1.43,1.43,0,0,0,34.94,7Z"/><path class="cls-2" d="M34.94,7l-2.16-.29a.86.86,0,0,1-.71-1.13A1.43,1.43,0,0,0,30,3.88L27.63,5.31a.87.87,0,0,1-1.24-.38L25.3,2.53a1.43,1.43,0,0,0-2.6,0l-1.09,2.4a.87.87,0,0,1-1.24.38L18,3.88a1.43,1.43,0,0,0-2.11,1.67.86.86,0,0,1-.71,1.13L13.06,7a1.44,1.44,0,0,0-1.12,2,1.38,1.38,0,0,1,1.12-.68l2.16-.21c.54-.06.88-.47.71-.86-.42-1,1-1.82,2.11-1.28L20.37,7a1,1,0,0,0,1.24-.29L22.7,4.92a1.64,1.64,0,0,1,2.6,0l1.09,1.83A1,1,0,0,0,27.63,7L30,6c1.14-.54,2.53.31,2.11,1.28-.17.39.17.8.71.86l2.16.21A1.38,1.38,0,0,1,36.06,9,1.44,1.44,0,0,0,34.94,7Z"/><path class="cls-3" d="M34.94,7l-2.16-.29a.86.86,0,0,1-.71-1.13A1.43,1.43,0,0,0,30,3.88L27.63,5.31a.87.87,0,0,1-1.24-.38L25.3,2.53a1.43,1.43,0,0,0-2.6,0l-1.09,2.4a.87.87,0,0,1-1.24.38L18,3.88a1.43,1.43,0,0,0-2.11,1.67.86.86,0,0,1-.71,1.13L13.06,7a1.43,1.43,0,0,0-.58,2.63l2.41,1.53H33.11L35.52,9.6A1.43,1.43,0,0,0,34.94,7Z"/><ellipse id="_Ellipse_" data-name="&lt;Ellipse&gt;" class="cls-4" cx="24" cy="45.5" rx="11.5" ry="1.5"/><path class="cls-5" d="M26.11,7.55H21.89C9.67,7.55,2.09,20.49,9,30l8.78,11.68a7.67,7.67,0,0,0,6.21,3,7.67,7.67,0,0,0,6.21-3L39,30C45.91,20.49,38.33,7.55,26.11,7.55Z"/><path class="cls-6" d="M21.89,13h4.22A15.3,15.3,0,0,1,41.33,24.84C43.15,16.4,36.22,7.55,26.11,7.55H21.89c-10.11,0-17,8.85-15.22,17.29A15.3,15.3,0,0,1,21.89,13Z"/><path class="cls-3" d="M26.11,7.55H21.89C9.67,7.55,2.09,20.49,9,30l8.78,11.68a7.67,7.67,0,0,0,6.21,3,7.67,7.67,0,0,0,6.21-3L39,30C45.91,20.49,38.33,7.55,26.11,7.55Z"/><ellipse id="_Path_" data-name="&lt;Path&gt;" class="cls-7" cx="24" cy="12.53" rx="1" ry="1.75"/><ellipse id="_Path_2" data-name="&lt;Path&gt;" class="cls-7" cx="14" cy="14.78" rx="1" ry="1.75"/><ellipse id="_Path_3" data-name="&lt;Path&gt;" class="cls-7" cx="34" cy="14.78" rx="1" ry="1.75"/><path id="_Path_4" data-name="&lt;Path&gt;" class="cls-8" d="M24,34.69h0a2.23,2.23,0,0,1-2.22-2l-.24-3a.5.5,0,0,1,.5-.54H26a.5.5,0,0,1,.5.54l-.24,3A2.22,2.22,0,0,1,24,34.69Z"/><circle id="_Path_5" data-name="&lt;Path&gt;" class="cls-9" cx="31.5" cy="21.69" r="1.5"/><circle id="_Path_6" data-name="&lt;Path&gt;" class="cls-9" cx="16.5" cy="21.69" r="1.5"/><path id="_Path_7" data-name="&lt;Path&gt;" class="cls-10" d="M36.5,27.87c0,.56-.81,1-1.82,1s-1.82-.44-1.82-1,.82-1,1.82-1S36.5,27.32,36.5,27.87Z"/><path id="_Path_8" data-name="&lt;Path&gt;" class="cls-10" d="M15.14,27.87c0,.56-.82,1-1.82,1s-1.82-.44-1.82-1,.81-1,1.82-1S15.14,27.32,15.14,27.87Z"/></svg>