<svg id="Icons" xmlns="http://www.w3.org/2000/svg" viewBox="0 0 48 48"><defs><style>.cls-1{fill:#45413c;opacity:0.15;}.cls-2{fill:#fff5e3;}.cls-3{fill:#f7e5c6;}.cls-4{fill:none;}.cls-10,.cls-4,.cls-9{stroke:#45413c;stroke-linecap:round;stroke-linejoin:round;}.cls-5{fill:#ff6242;}.cls-6{fill:#ff866e;}.cls-7,.cls-9{fill:#fff48c;}.cls-10,.cls-8{fill:#fffacf;}</style></defs><title>534-mushroom</title><ellipse id="_Ellipse_" data-name="&lt;Ellipse&gt;" class="cls-1" cx="24.01" cy="44.88" rx="12.4" ry="1.62"/><path class="cls-2" d="M31,33.68a50.23,50.23,0,0,1-.54-7.55H17.53A50.23,50.23,0,0,1,17,33.68c-.62,4.58-2.78,6.2-2.69,8.62S18.79,45,24,45s9.61-.27,9.7-2.7S31.63,38.26,31,33.68Z"/><path class="cls-3" d="M16.77,34.94a24.1,24.1,0,0,0,14.46,0c-.09-.4-.16-.82-.22-1.26a50.23,50.23,0,0,1-.54-7.55H17.53A50.23,50.23,0,0,1,17,33.68C16.93,34.12,16.86,34.54,16.77,34.94Z"/><path class="cls-4" d="M31,33.68a50.23,50.23,0,0,1-.54-7.55H17.53A50.23,50.23,0,0,1,17,33.68c-.62,4.58-2.78,6.2-2.69,8.62S18.79,45,24,45s9.61-.27,9.7-2.7S31.63,38.26,31,33.68Z"/><path class="cls-5" d="M24,3.48C10.82,3.48,2.05,16.21,3.05,23.06s11,7.38,21,7.38,19.94-.54,21-7.38S37.18,3.48,24,3.48Z"/><path class="cls-6" d="M3.6,24.9C5.78,18.14,13.49,10.05,24,10.05S42.22,18.14,44.4,24.9A6.68,6.68,0,0,0,45,23.06c1-6.85-7.77-19.58-21-19.58S2.05,16.21,3.05,23.06A6.68,6.68,0,0,0,3.6,24.9Z"/><path class="cls-4" d="M24,3.48C10.82,3.48,2.05,16.21,3.05,23.06s11,7.38,21,7.38,19.94-.54,21-7.38S37.18,3.48,24,3.48Z"/><path class="cls-7" d="M32,5.11C28.64,5,26,6.28,25.64,8.49c-.48,2.77,2.77,5.92,7.24,7,4.18,1,7.95-.06,8.82-2.46A23.29,23.29,0,0,0,32,5.11Z"/><path class="cls-8" d="M38.18,15.67a4.6,4.6,0,0,0,3.52-2.61A23.29,23.29,0,0,0,32,5.11C28.64,5,26,6.28,25.64,8.49a3.54,3.54,0,0,0,.12,1.64A21.38,21.38,0,0,1,38.18,15.67Z"/><path class="cls-4" d="M32,5.11C28.64,5,26,6.28,25.64,8.49c-.48,2.77,2.77,5.92,7.24,7,4.18,1,7.95-.06,8.82-2.46A23.29,23.29,0,0,0,32,5.11Z"/><path id="_Path_" data-name="&lt;Path&gt;" class="cls-9" d="M9,15C7,16.35,6,18.89,6.86,20.72S10,23,12,21.65s2.93-3.86,2.1-5.69S10.94,13.72,9,15Z"/><path id="_Path_2" data-name="&lt;Path&gt;" class="cls-9" d="M29.82,23.43a3.14,3.14,0,1,1-3.14-3.24A3.19,3.19,0,0,1,29.82,23.43Z"/><path id="_Path_3" data-name="&lt;Path&gt;" class="cls-10" d="M18.62,8.64A1.79,1.79,0,0,1,17,10.48,1.64,1.64,0,0,1,15.06,9.1,1.81,1.81,0,0,1,16.7,7.26,1.64,1.64,0,0,1,18.62,8.64Z"/><path id="_Path_4" data-name="&lt;Path&gt;" class="cls-9" d="M38.32,22.35a1.79,1.79,0,1,0,1.78-1.62A1.7,1.7,0,0,0,38.32,22.35Z"/></svg>