<svg id="Icons" xmlns="http://www.w3.org/2000/svg" viewBox="0 0 48 48"><defs><style>.cls-1{fill:#45413c;opacity:0.15;}.cls-2{fill:#b89558;}.cls-3{fill:#debb7e;}.cls-4{fill:none;stroke:#45413c;stroke-linecap:round;stroke-linejoin:round;}.cls-5{fill:#f7e5c6;}.cls-6{fill:#fff5e3;}</style></defs><title>536-bread</title><g id="_Group_" data-name="&lt;Group&gt;"><ellipse id="_Ellipse_" data-name="&lt;Ellipse&gt;" class="cls-1" cx="24" cy="45.11" rx="20.12" ry="1.89"/><path id="_Path_" data-name="&lt;Path&gt;" class="cls-2" d="M23.37,7.15c-9.53,0-16,2.83-19.49,6.92L16.46,31,24,30.66V45.5l16.92-4a2.52,2.52,0,0,0,1.94-2.45V25.9a8.92,8.92,0,0,1,1.38-4.58,8.05,8.05,0,0,0,1.13-4.48C45,9.18,31.35,7.15,23.37,7.15Z"/><path class="cls-3" d="M43.87,22c.11-.22.24-.45.37-.67a8.05,8.05,0,0,0,1.13-4.48c-.35-7.66-14-9.69-22-9.69-9.53,0-16,2.83-19.49,6.92l8.73,11.77h0l1,0s9-8.49,18.65-9.85C38.94,15,44.19,15.64,43.87,22Z"/><path id="_Path_2" data-name="&lt;Path&gt;" class="cls-4" d="M23.37,7.15c-9.53,0-16,2.83-19.49,6.92L16.46,31,24,30.66V45.5l16.92-4a2.52,2.52,0,0,0,1.94-2.45V25.9a8.92,8.92,0,0,1,1.38-4.58,8.05,8.05,0,0,0,1.13-4.48C45,9.18,31.35,7.15,23.37,7.15Z"/><path id="_Path_3" data-name="&lt;Path&gt;" class="cls-5" d="M26.51,22.85A8.08,8.08,0,0,0,20.28,15L8.8,12.31a4.86,4.86,0,0,0-6.17,4.53,8.05,8.05,0,0,0,1.13,4.48A8.92,8.92,0,0,1,5.14,25.9V39.1a2.51,2.51,0,0,0,1.94,2.45L24,45.5V30a5.94,5.94,0,0,1,1.31-3.88A5,5,0,0,0,26.51,22.85Z"/><g id="_Group_2" data-name="&lt;Group&gt;"><path id="_Path_4" data-name="&lt;Path&gt;" class="cls-6" d="M3.47,19.35A4.58,4.58,0,0,1,9.2,14.83l10.68,2.68a8,8,0,0,1,5.8,7.86,2.3,2.3,0,0,1,0,.26,4.87,4.87,0,0,0,.86-2.78A8.08,8.08,0,0,0,20.28,15L8.8,12.31a4.86,4.86,0,0,0-6.17,4.53,8,8,0,0,0,.94,4.09A8.23,8.23,0,0,1,3.47,19.35Z"/></g><path id="_Path_5" data-name="&lt;Path&gt;" class="cls-4" d="M26.51,22.85A8.08,8.08,0,0,0,20.28,15L8.8,12.31a4.86,4.86,0,0,0-6.17,4.53,8.05,8.05,0,0,0,1.13,4.48A8.92,8.92,0,0,1,5.14,25.9V39.1a2.51,2.51,0,0,0,1.94,2.45L24,45.5V30a5.94,5.94,0,0,1,1.31-3.88A5,5,0,0,0,26.51,22.85Z"/></g></svg>