<svg id="Icons" xmlns="http://www.w3.org/2000/svg" viewBox="0 0 48 48"><defs><style>.cls-1{fill:#45413c;opacity:0.15;}.cls-2{fill:#fff;}.cls-3{fill:#f0f0f0;}.cls-4{fill:none;stroke:#45413c;stroke-linecap:round;stroke-linejoin:round;}.cls-5{fill:#bf8256;}.cls-6{fill:#915e3a;}.cls-7{fill:#dea47a;}</style></defs><title>537-meat-on-bone</title><g id="_Group_" data-name="&lt;Group&gt;"><ellipse id="_Ellipse_" data-name="&lt;Ellipse&gt;" class="cls-1" cx="24.69" cy="45.02" rx="15.16" ry="1.98"/><path id="_Compound_Path_" data-name="&lt;Compound Path&gt;" class="cls-2" d="M39.62,44.06a3.27,3.27,0,0,0,.92-2.81,3.33,3.33,0,0,0,2.81-.92,3.3,3.3,0,0,0-4.66-4.66c-.16.16-8.86-7.93-8.86-7.93L27,30.54s8.08,8.7,7.92,8.86a3.3,3.3,0,1,0,4.66,4.66Z"/><g id="_Group_2" data-name="&lt;Group&gt;"><path id="_Path_" data-name="&lt;Path&gt;" class="cls-3" d="M41.29,38.31A3.73,3.73,0,0,1,35,41.5a3.52,3.52,0,0,1-.71-1,3.29,3.29,0,1,0,6.29.78,3.33,3.33,0,0,0,2.81-.92,3.26,3.26,0,0,0,.91-2.89A3.76,3.76,0,0,1,41.29,38.31Z"/></g><path id="_Compound_Path_2" data-name="&lt;Compound Path&gt;" class="cls-4" d="M39.62,44.06a3.27,3.27,0,0,0,.92-2.81,3.33,3.33,0,0,0,2.81-.92,3.3,3.3,0,0,0-4.66-4.66c-.16.16-8.86-7.93-8.86-7.93L27,30.54s8.08,8.7,7.92,8.86a3.3,3.3,0,1,0,4.66,4.66Z"/><path id="_Path_2" data-name="&lt;Path&gt;" class="cls-5" d="M26.71,9.7,38.07,21.07a6.84,6.84,0,0,1,2.07,4.61c.08,2.4-.89,5.86-5.1,10.07-7.11,7.11-12,4.8-14.06,2.71-2.83-2.82-2.72-3.87-4.61-5.75S13.56,32,9,27.42Z"/><path id="_Path_3" data-name="&lt;Path&gt;" class="cls-6" d="M23.25,36.07C20,32.81,20,31.69,17.84,29.51,16,27.63,15,28.25,11.38,25L9,27.42c4.56,4.56,5.49,3.4,7.37,5.29s1.78,2.93,4.61,5.75c1.77,1.78,5.56,3.72,11-.13A8.47,8.47,0,0,1,23.25,36.07Z"/><path id="_Path_4" data-name="&lt;Path&gt;" class="cls-4" d="M26.71,9.7,38.07,21.07a6.84,6.84,0,0,1,2.07,4.61c.08,2.4-.89,5.86-5.1,10.07-7.11,7.11-12,4.8-14.06,2.71-2.83-2.82-2.72-3.87-4.61-5.75S13.56,32,9,27.42Z"/><ellipse id="_Path_5" data-name="&lt;Path&gt;" class="cls-7" cx="17.85" cy="18.56" rx="12.52" ry="8.1" transform="translate(-7.9 18.06) rotate(-45)"/><path id="_Path_6" data-name="&lt;Path&gt;" class="cls-5" d="M23.58,21.41C18.69,26.3,12.16,27.7,9,24.53A5.79,5.79,0,0,1,7.42,21.4a6.8,6.8,0,0,0,1.58,6c3.16,3.16,9.69,1.76,14.58-3.13,3.6-3.6,5.3-8.08,4.69-11.46A16.11,16.11,0,0,1,23.58,21.41Z"/><ellipse id="_Path_7" data-name="&lt;Path&gt;" class="cls-4" cx="17.85" cy="18.56" rx="12.52" ry="8.1" transform="translate(-7.9 18.06) rotate(-45)"/><path id="_Compound_Path_3" data-name="&lt;Compound Path&gt;" class="cls-2" d="M9.15,4.8A3.31,3.31,0,0,0,7.47,8.18,3.31,3.31,0,0,0,4.09,9.86a3.24,3.24,0,0,0,0,3.19,3.29,3.29,0,0,0,5.2.71c.12-.12,3.87,3.24,5.83,5a1.65,1.65,0,0,0,2.28-.07l.56-.56a1.65,1.65,0,0,0,.07-2.28c-1.77-2-5.12-5.71-5-5.83a3.29,3.29,0,0,0-.71-5.2A3.24,3.24,0,0,0,9.15,4.8Z"/><g id="_Group_3" data-name="&lt;Group&gt;"><path id="_Path_8" data-name="&lt;Path&gt;" class="cls-3" d="M14,7.73c-.06.08-.11.16-.17.23s0,.1.14.24A3.71,3.71,0,0,0,14,7.73Z"/><path id="_Path_9" data-name="&lt;Path&gt;" class="cls-3" d="M18,18.14a2,2,0,0,1-1.17-.55c-2.27-2.07-6.61-6-6.72-5.9-1.49,1.49-4.29,1-5.7-1.2a4.08,4.08,0,0,1-.31-.63,3.24,3.24,0,0,0,0,3.19,3.29,3.29,0,0,0,5.2.71c.12-.12,3.87,3.24,5.83,5a1.65,1.65,0,0,0,2.28-.07Z"/></g><path id="_Compound_Path_4" data-name="&lt;Compound Path&gt;" class="cls-4" d="M9.15,4.8A3.31,3.31,0,0,0,7.47,8.18,3.31,3.31,0,0,0,4.09,9.86a3.24,3.24,0,0,0,0,3.19,3.29,3.29,0,0,0,5.2.71c.12-.12,3.87,3.24,5.83,5a1.65,1.65,0,0,0,2.28-.07l.56-.56a1.65,1.65,0,0,0,.07-2.28c-1.77-2-5.12-5.71-5-5.83a3.29,3.29,0,0,0-.71-5.2A3.24,3.24,0,0,0,9.15,4.8Z"/></g></svg>