<svg id="Icons" xmlns="http://www.w3.org/2000/svg" viewBox="0 0 48 48"><defs><style>.cls-1{fill:#45413c;opacity:0.15;}.cls-2,.cls-8{fill:#debb7e;}.cls-3{fill:#b89558;}.cls-4,.cls-6{fill:none;}.cls-4,.cls-5,.cls-8{stroke:#45413c;}.cls-4,.cls-5,.cls-6,.cls-8{stroke-linecap:round;stroke-linejoin:round;}.cls-5{fill:#bf8256;}.cls-6{stroke:#915e3a;}.cls-7{fill:#f0d5a8;}</style></defs><title>539-hamburger-1</title><g id="_Group_" data-name="&lt;Group&gt;"><ellipse id="_Ellipse_" data-name="&lt;Ellipse&gt;" class="cls-1" cx="24" cy="44.26" rx="21.41" ry="1.74"/><g id="_Group_2" data-name="&lt;Group&gt;"><g id="_Group_3" data-name="&lt;Group&gt;"><path id="_Path_" data-name="&lt;Path&gt;" class="cls-2" d="M44.25,30.77V36c0,4.15-9.07,7.52-20.25,7.52S3.75,40.13,3.75,36V30.77Z"/><g id="_Group_4" data-name="&lt;Group&gt;"><path id="_Path_2" data-name="&lt;Path&gt;" class="cls-3" d="M3.75,33.09c0,4.15,9.07,7.52,20.25,7.52s20.25-3.37,20.25-7.52V30.77H3.75Z"/></g><path id="_Path_3" data-name="&lt;Path&gt;" class="cls-4" d="M44.25,30.77V36c0,4.15-9.07,7.52-20.25,7.52S3.75,40.13,3.75,36V30.77Z"/></g><g id="_Group_5" data-name="&lt;Group&gt;"><path id="_Path_4" data-name="&lt;Path&gt;" class="cls-5" d="M24,37.71c25,0,24.3-8.1,21.41-12.72-2.9-4-9.59-7.53-21.41-7.53S5.49,20.94,2.59,25C-.3,29.61-.95,37.71,24,37.71Z"/><path id="_Path_5" data-name="&lt;Path&gt;" class="cls-6" d="M41.94,29.09C38.11,31.15,31.51,32.51,24,32.51S9.89,31.15,6.06,29.09"/></g><g id="_Group_6" data-name="&lt;Group&gt;"><g id="_Group_7" data-name="&lt;Group&gt;"><path id="_Path_6" data-name="&lt;Path&gt;" class="cls-7" d="M44.25,22.09c0,4.16-9.07,7.52-20.25,7.52S3.75,26.25,3.75,22.09c0,0,1.16-13.3,20.25-13.3S44.25,22.09,44.25,22.09Z"/><path id="_Path_7" data-name="&lt;Path&gt;" class="cls-2" d="M24,25.56c-9.56,0-17.57-2.46-19.7-5.77a10.69,10.69,0,0,0-.55,2.3c0,4.16,9.07,7.52,20.25,7.52s20.25-3.36,20.25-7.52a10.69,10.69,0,0,0-.55-2.3C41.57,23.1,33.56,25.56,24,25.56Z"/><path id="_Path_8" data-name="&lt;Path&gt;" class="cls-4" d="M44.25,22.09c0,4.16-9.07,7.52-20.25,7.52S3.75,26.25,3.75,22.09c0,0,1.16-13.3,20.25-13.3S44.25,22.09,44.25,22.09Z"/></g><path id="_Path_9" data-name="&lt;Path&gt;" class="cls-8" d="M12.13,14.91a1.16,1.16,0,1,0,.6,2.24l1.12-.3a1.16,1.16,0,0,0-.6-2.24Z"/><path id="_Path_10" data-name="&lt;Path&gt;" class="cls-8" d="M18.9,18A1.15,1.15,0,1,0,21,19l.48-1.06a1.15,1.15,0,1,0-2.1-1Z"/><path id="_Path_11" data-name="&lt;Path&gt;" class="cls-8" d="M35.87,14.91a1.16,1.16,0,1,1-.6,2.24l-1.12-.3a1.16,1.16,0,0,1,.6-2.24Z"/><path id="_Path_12" data-name="&lt;Path&gt;" class="cls-8" d="M29.1,18A1.15,1.15,0,0,1,27,19l-.48-1.06a1.15,1.15,0,1,1,2.1-1Z"/></g></g></g></svg>