<svg id="Icons" xmlns="http://www.w3.org/2000/svg" viewBox="0 0 48 48"><defs><style>.cls-1{fill:#45413c;opacity:0.15;}.cls-2,.cls-5{fill:#debb7e;}.cls-2,.cls-6,.cls-9{stroke:#45413c;stroke-linecap:round;stroke-linejoin:round;}.cls-3{fill:#f0d5a8;}.cls-4{fill:#f7e5c6;}.cls-6{fill:none;}.cls-7{fill:#ffe500;}.cls-8{fill:#ebcb00;}.cls-9{fill:#ff6242;}</style></defs><title>544-pizza-2</title><ellipse id="_Ellipse_" data-name="&lt;Ellipse&gt;" class="cls-1" cx="24" cy="42.5" rx="13.5" ry="1.5"/><path id="_Path_" data-name="&lt;Path&gt;" class="cls-2" d="M40.21,26.6,40.49,28s-11,3.86-16.25,5c-6,1.27-15.56,2.13-18.72,2.57a3.88,3.88,0,0,1-3.93-2l-.49-.87,38.84-7.58Z"/><path id="_Path_2" data-name="&lt;Path&gt;" class="cls-3" d="M40.21,26.6l-.46-2.43c-.7-3.72-9-8.13-19-7.11,0,0-1.9-3.42,1-4.6s23.92-5.17,24.7,10.83a2.44,2.44,0,0,1-2,2.49Z"/><path id="_Path_3" data-name="&lt;Path&gt;" class="cls-4" d="M21.81,12.46c-1.91.77-1.76,2.49-1.43,3.59a2.69,2.69,0,0,1,1.16-.83c2.83-1.15,22.7-4.94,24.58,9.47a2.34,2.34,0,0,0,.39-1.4C45.73,7.29,24.73,11.28,21.81,12.46Z"/><path id="_Path_4" data-name="&lt;Path&gt;" class="cls-5" d="M40.21,26.6l4.29-.82a2.44,2.44,0,0,0,2-2.49,14.47,14.47,0,0,0-.73-4,5,5,0,0,0-2.58-.16c-2.35.44-4,2.3-3.62,4.14Z"/><path id="_Path_5" data-name="&lt;Path&gt;" class="cls-6" d="M40.21,26.6l4.29-.82a2.44,2.44,0,0,0,2-2.49,14.47,14.47,0,0,0-.73-4,5,5,0,0,0-2.58-.16c-2.35.44-4,2.3-3.62,4.14Z"/><path id="_Path_6" data-name="&lt;Path&gt;" class="cls-6" d="M40.21,26.6l-.46-2.43c-.7-3.72-9-8.13-19-7.11,0,0-1.9-3.42,1-4.6s23.92-5.17,24.7,10.83a2.44,2.44,0,0,1-2,2.49Z"/><path id="_Path_7" data-name="&lt;Path&gt;" class="cls-7" d="M20.79,17.06l-19.27,14A1.25,1.25,0,0,0,1,32.3l.08.44.46,2.43a1.24,1.24,0,0,0,1.45,1,1.22,1.22,0,0,0,1-1.44l-.23-1.22,3.65-.69.34,1.83a1.86,1.86,0,0,0,3.65-.69l-.35-1.83,17-3.22.23,1.22a1.24,1.24,0,0,0,1.45,1,1.22,1.22,0,0,0,1-1.44l-.23-1.22,6.08-1.15.34,1.83a1.86,1.86,0,0,0,3.65-.69l-.81-4.25C39.05,20.45,30.77,16,20.79,17.06Z"/><path id="_Path_8" data-name="&lt;Path&gt;" class="cls-8" d="M36.57,27.28l.34,1.83a1.86,1.86,0,0,0,3.65-.69l-.81-4.25c-.7-3.72-9-8.13-19-7.11l-1.09.79c8.22.25,14.58,4,15.19,7.23l.46,2.43Z"/><path class="cls-8" d="M6.34,31a.51.51,0,0,1-.49-.41.5.5,0,0,1,.4-.58l30.37-5.75a.5.5,0,1,1,.19,1L6.43,31Z"/><line id="_Line_" data-name="&lt;Line&gt;" class="cls-6" x1="30.49" y1="28.43" x2="30.26" y2="27.22"/><line id="_Line_2" data-name="&lt;Line&gt;" class="cls-6" x1="36.57" y1="27.28" x2="36.11" y2="24.85"/><path id="_Path_9" data-name="&lt;Path&gt;" class="cls-6" d="M20.79,17.06l-19.27,14A1.25,1.25,0,0,0,1,32.3l.54,2.87a1.24,1.24,0,0,0,1.45,1,1.22,1.22,0,0,0,1-1.44l-.23-1.22,3.65-.69.34,1.83a1.86,1.86,0,0,0,3.65-.69l-.35-1.83,17-3.22.23,1.22a1.24,1.24,0,0,0,1.45,1,1.22,1.22,0,0,0,1-1.44l-.23-1.22,6.08-1.15.34,1.83a1.86,1.86,0,0,0,3.65-.69l-.81-4.25C39.05,20.45,30.77,16,20.79,17.06Z"/><line id="_Line_3" data-name="&lt;Line&gt;" class="cls-6" x1="7.41" y1="32.8" x2="7.18" y2="31.59"/><path id="_Path_10" data-name="&lt;Path&gt;" class="cls-9" d="M18.18,23.21c2.35-.44,4.05-1.89,3.79-3.23-.18-1-1.33-1.6-2.83-1.73l-5.4,3.93C14.42,23.13,16.21,23.59,18.18,23.21Z"/><path id="_Path_11" data-name="&lt;Path&gt;" class="cls-9" d="M34.3,25.2a1.74,1.74,0,0,0,.36-1.33c-.25-1.34-2.36-2.07-4.71-1.63s-4,1.9-3.79,3.24a1.76,1.76,0,0,0,.82,1.1Z"/><path id="_Path_12" data-name="&lt;Path&gt;" class="cls-9" d="M10,29.79a1.74,1.74,0,0,0,.35-1.32c-.18-1-1.36-1.63-2.89-1.73L2.11,30.63a2,2,0,0,0,.58.55Z"/><path id="_Path_13" data-name="&lt;Path&gt;" class="cls-9" d="M23.86,27.17c-.71-1.3-2.87-2-5.22-1.53S14.53,27.5,14.34,29Z"/></svg>