<svg id="Icons" xmlns="http://www.w3.org/2000/svg" viewBox="0 0 48 48"><defs><style>.cls-1{fill:#45413c;opacity:0.15;}.cls-2{fill:#87898c;}.cls-3{fill:#bdbec0;}.cls-4{fill:none;stroke:#45413c;stroke-linecap:round;stroke-linejoin:round;}.cls-5{fill:#ffe500;}.cls-6{fill:#fff48c;}.cls-7{fill:#656769;}.cls-8{fill:#525252;}.cls-9{fill:#f0f0f0;}.cls-10{fill:#fff;}.cls-11{fill:#ffaa54;}.cls-12{fill:#fc9;}</style></defs><title>545-cooking</title><g id="_Group_" data-name="&lt;Group&gt;"><ellipse id="_Ellipse_" data-name="&lt;Ellipse&gt;" class="cls-1" cx="20.48" cy="45.32" rx="12.92" ry="1.68"/><path id="_Path_" data-name="&lt;Path&gt;" class="cls-2" d="M36.4,9.22,32,13.65A17.41,17.41,0,1,0,34.35,16l4.43-4.43Z"/><path class="cls-3" d="M34.81,10.81,32,13.65A17.4,17.4,0,0,0,3.56,28.39a17.4,17.4,0,0,1,26.8-13.33,2.5,2.5,0,0,0,3.12-.32l2.63-2.63Z"/><path id="_Path_2" data-name="&lt;Path&gt;" class="cls-4" d="M36.4,9.22,32,13.65A17.41,17.41,0,1,0,34.35,16l4.43-4.43Z"/><path class="cls-5" d="M43.94,4.06a2.8,2.8,0,0,0-4,0L34.81,9.22a1.12,1.12,0,0,0,0,1.59l2.38,2.38a1.12,1.12,0,0,0,1.59,0L43.94,8A2.8,2.8,0,0,0,43.94,4.06Z"/><path class="cls-6" d="M43.94,4.06a2.8,2.8,0,0,0-4,0L34.81,9.22a1.12,1.12,0,0,0,0,1.59l.85.85a.8.8,0,0,1,.13-.19L41,6.3a2.8,2.8,0,0,1,3.8-.14A2.75,2.75,0,0,0,43.94,4.06Z"/><path id="_Path_3" data-name="&lt;Path&gt;" class="cls-4" d="M43.94,4.06a2.8,2.8,0,0,1,0,4l-5.16,5.16a1.12,1.12,0,0,1-1.59,0l-2.38-2.38a1.12,1.12,0,0,1,0-1.59L40,4.06A2.8,2.8,0,0,1,43.94,4.06Z"/><circle id="_Path_4" data-name="&lt;Path&gt;" class="cls-7" cx="20.91" cy="27.09" r="14.04"/><path id="_Path_5" data-name="&lt;Path&gt;" class="cls-8" d="M11,20.53a14,14,0,0,1,23.86,8.24A14,14,0,1,0,7,28.77,14,14,0,0,1,11,20.53Z"/><circle id="_Path_6" data-name="&lt;Path&gt;" class="cls-4" cx="20.91" cy="27.09" r="14.04"/><path id="_Path_7" data-name="&lt;Path&gt;" class="cls-9" d="M26.55,25.42a1.67,1.67,0,0,1-1.67-1.67,4.74,4.74,0,0,0-5.57-4.91,8.43,8.43,0,1,0,9.94,9.71A2.7,2.7,0,0,0,26.55,25.42Z"/><path class="cls-10" d="M12.67,28.63A8.44,8.44,0,0,1,19.31,22a4.74,4.74,0,0,1,5.57,4.91,1.68,1.68,0,0,0,1.67,1.68,2.78,2.78,0,0,1,2.35,1.3,8.38,8.38,0,0,0,.35-1.33,2.7,2.7,0,0,0-2.7-3.13,1.67,1.67,0,0,1-1.67-1.67,4.74,4.74,0,0,0-5.57-4.91,8.42,8.42,0,0,0-6.64,6.63,8.82,8.82,0,0,0,0,3.2Z"/><path id="_Path_8" data-name="&lt;Path&gt;" class="cls-4" d="M26.55,25.42a1.67,1.67,0,0,1-1.67-1.67,4.74,4.74,0,0,0-5.57-4.91,8.43,8.43,0,1,0,9.94,9.71A2.7,2.7,0,0,0,26.55,25.42Z"/><circle id="_Path_9" data-name="&lt;Path&gt;" class="cls-11" cx="19.82" cy="28.23" r="3.37"/><path id="_Path_10" data-name="&lt;Path&gt;" class="cls-12" d="M19.82,26.86A3.35,3.35,0,0,1,23,29.23a3.33,3.33,0,0,0,.17-1,3.37,3.37,0,0,0-6.74,0,3.33,3.33,0,0,0,.17,1A3.36,3.36,0,0,1,19.82,26.86Z"/><circle id="_Path_11" data-name="&lt;Path&gt;" class="cls-4" cx="19.82" cy="28.23" r="3.37"/></g></svg>