<svg id="Icons" xmlns="http://www.w3.org/2000/svg" viewBox="0 0 48 48"><defs><style>.cls-1{fill:#45413c;opacity:0.15;}.cls-2{fill:#bf8256;}.cls-2,.cls-3,.cls-5,.cls-7,.cls-8{stroke:#45413c;}.cls-2,.cls-3,.cls-5,.cls-6,.cls-7,.cls-8{stroke-linecap:round;stroke-linejoin:round;}.cls-3{fill:#ffe3cf;}.cls-4{fill:#ff6242;}.cls-5,.cls-6{fill:none;}.cls-6{stroke:#e04122;}.cls-7{fill:#fffef2;}.cls-8{fill:#ffe500;}</style></defs><title>558-birthday-cake-2</title><g id="_Group_" data-name="&lt;Group&gt;"><ellipse id="_Ellipse_" data-name="&lt;Ellipse&gt;" class="cls-1" cx="21.87" cy="45.5" rx="16.5" ry="1.5"/><g id="_Group_2" data-name="&lt;Group&gt;"><g id="_Group_3" data-name="&lt;Group&gt;"><path id="_Path_" data-name="&lt;Path&gt;" class="cls-2" d="M43.15,18.27h-17V31H42.3a.85.85,0,0,0,.85-.85Z"/><rect id="_Rectangle_" data-name="&lt;Rectangle&gt;" class="cls-3" x="26.13" y="23.37" width="17.02" height="4.26"/><g id="_Group_4" data-name="&lt;Group&gt;"><path id="_Path_2" data-name="&lt;Path&gt;" class="cls-4" d="M30.38,21.25a.85.85,0,1,0-1.7,0v.85a1.28,1.28,0,0,1-2.55,0V18.27L32,12.9c6.88.59,12,2.77,12,5.37V22a.42.42,0,0,1-.53.42,1.7,1.7,0,0,1-1.17-1.62.85.85,0,1,0-1.7,0v.85a.86.86,0,0,1-.86.85.85.85,0,0,1-.85-.85.85.85,0,0,0-1.7,0v.85a1.7,1.7,0,1,1-3.4,0V21.25a.85.85,0,1,0-1.7,0v.42a.86.86,0,0,1-.86.85.85.85,0,0,1-.85-.85Z"/><path id="_Path_3" data-name="&lt;Path&gt;" class="cls-5" d="M30.38,21.25a.85.85,0,1,0-1.7,0v.85a1.28,1.28,0,0,1-2.55,0V18.27L32,12.9c6.88.59,12,2.77,12,5.37V22a.42.42,0,0,1-.53.42,1.7,1.7,0,0,1-1.17-1.62.85.85,0,1,0-1.7,0v.85a.86.86,0,0,1-.86.85.85.85,0,0,1-.85-.85.85.85,0,0,0-1.7,0v.85a1.7,1.7,0,1,1-3.4,0V21.25a.85.85,0,1,0-1.7,0v.42a.86.86,0,0,1-.86.85.85.85,0,0,1-.85-.85Z"/><line id="_Line_" data-name="&lt;Line&gt;" class="cls-6" x1="29.11" y1="18.27" x2="41.45" y2="18.27"/></g></g><g id="_Group_5" data-name="&lt;Group&gt;"><g id="_Group_6" data-name="&lt;Group&gt;"><path id="_Path_4" data-name="&lt;Path&gt;" class="cls-2" d="M4.85,27.2c0,3.06,6.67,5.53,14.9,5.53s14.89-2.47,14.89-5.53V40C34.64,43,28,45.5,19.75,45.5S4.85,43,4.85,40Z"/><path id="_Path_5" data-name="&lt;Path&gt;" class="cls-3" d="M4.85,32.31c0,3,6.67,5.53,14.9,5.53s14.89-2.48,14.89-5.53v4.25c0,3.06-6.67,5.54-14.89,5.54s-14.9-2.48-14.9-5.54Z"/></g><g id="_Group_7" data-name="&lt;Group&gt;"><path id="_Path_6" data-name="&lt;Path&gt;" class="cls-4" d="M23.5,21.84c-1.2-.11-2.46-.17-3.75-.17C11.05,21.67,4,24.15,4,27.2V34a1.28,1.28,0,1,0,2.55,0,1.28,1.28,0,0,1,2.56,0v2.55a2.13,2.13,0,1,0,4.25,0,1.28,1.28,0,0,1,2.56,0v.86a1.28,1.28,0,0,0,2.55,0V37a2.13,2.13,0,1,1,4.25,0v1.28a1.28,1.28,0,0,0,2.56,0v-3a.43.43,0,1,1,.85,0,2.13,2.13,0,1,0,4.25,0v-1.7a1.28,1.28,0,1,1,2.56,0,1.28,1.28,0,0,0,2.55,0V28.05a.85.85,0,0,0-.85-.85H18Z"/><path id="_Path_7" data-name="&lt;Path&gt;" class="cls-5" d="M23.5,21.84c-1.2-.11-2.46-.17-3.75-.17C11.05,21.67,4,24.15,4,27.2V34a1.28,1.28,0,1,0,2.55,0,1.28,1.28,0,0,1,2.56,0v2.55a2.13,2.13,0,1,0,4.25,0,1.28,1.28,0,0,1,2.56,0v.86a1.28,1.28,0,0,0,2.55,0V37a2.13,2.13,0,1,1,4.25,0v1.28a1.28,1.28,0,0,0,2.56,0v-3a.43.43,0,1,1,.85,0,2.13,2.13,0,1,0,4.25,0v-1.7a1.28,1.28,0,1,1,2.56,0,1.28,1.28,0,0,0,2.55,0V28.05a.85.85,0,0,0-.85-.85H18Z"/><polygon id="_Path_8" data-name="&lt;Path&gt;" class="cls-2" points="23.5 27.2 23.5 21.84 18.04 27.2 23.5 27.2"/><path id="_Path_9" data-name="&lt;Path&gt;" class="cls-6" d="M5.7,27.2C5.7,29.32,12,31,19.75,31c5.32,0,10-.81,12.34-2"/></g></g><g id="_Group_8" data-name="&lt;Group&gt;"><path id="_Path_10" data-name="&lt;Path&gt;" class="cls-7" d="M37.19,15.71V8.9a.85.85,0,0,0-.85-.85h-1.7a.85.85,0,0,0-.85.85v6.81a2.13,2.13,0,0,0,3.4,0Z"/><path id="_Path_11" data-name="&lt;Path&gt;" class="cls-8" d="M33.53,3.84a2,2,0,1,0,3.93.94c.35-1.48-1.89-1.72-1.84-3.9A4.26,4.26,0,0,0,33.53,3.84Z"/></g><g id="_Group_9" data-name="&lt;Group&gt;"><path id="_Path_12" data-name="&lt;Path&gt;" class="cls-7" d="M12.51,26.78V20a.85.85,0,0,0-.85-.85H10a.85.85,0,0,0-.85.85v6.81a1.83,1.83,0,0,0,1.7.85A1.83,1.83,0,0,0,12.51,26.78Z"/><path id="_Path_13" data-name="&lt;Path&gt;" class="cls-8" d="M8.85,14.91a2,2,0,0,0,3.93.93c.35-1.48-1.9-1.72-1.84-3.9A4.25,4.25,0,0,0,8.85,14.91Z"/></g><g id="_Group_10" data-name="&lt;Group&gt;"><path id="_Path_14" data-name="&lt;Path&gt;" class="cls-7" d="M18.47,23.37V16.56a.85.85,0,0,0-.85-.85h-1.7a.86.86,0,0,0-.86.85v6.81a1.86,1.86,0,0,0,1.71.85A1.85,1.85,0,0,0,18.47,23.37Z"/><path id="_Path_15" data-name="&lt;Path&gt;" class="cls-8" d="M14.81,11.5a2,2,0,1,0,3.93.94c.35-1.48-1.9-1.72-1.84-3.9A4.26,4.26,0,0,0,14.81,11.5Z"/></g><g id="_Group_11" data-name="&lt;Group&gt;"><path id="_Path_16" data-name="&lt;Path&gt;" class="cls-7" d="M24.19,28.48V21.67a.85.85,0,0,0-.85-.85h-1.7a.85.85,0,0,0-.85.85v6.81a1.83,1.83,0,0,0,1.7.85A1.85,1.85,0,0,0,24.19,28.48Z"/><path id="_Path_17" data-name="&lt;Path&gt;" class="cls-8" d="M20.53,16.61a2,2,0,0,0,3.93.93c.35-1.47-1.9-1.72-1.84-3.9A4.27,4.27,0,0,0,20.53,16.61Z"/></g></g></g></svg>