<svg id="Icons" xmlns="http://www.w3.org/2000/svg" viewBox="0 0 48 48"><defs><style>.cls-1{fill:#45413c;opacity:0.15;}.cls-2{fill:#bf8256;}.cls-2,.cls-3,.cls-5{stroke:#45413c;}.cls-2,.cls-3,.cls-5,.cls-6{stroke-linecap:round;stroke-linejoin:round;}.cls-3{fill:#ffe3cf;}.cls-4{fill:#ff6242;}.cls-5,.cls-6{fill:none;}.cls-6{stroke:#e04122;}</style></defs><title>559-birthday-cake-3</title><g id="_Group_" data-name="&lt;Group&gt;"><ellipse id="_Ellipse_" data-name="&lt;Ellipse&gt;" class="cls-1" cx="20.07" cy="44.5" rx="16.5" ry="1.5"/><g id="_Group_2" data-name="&lt;Group&gt;"><g id="_Group_3" data-name="&lt;Group&gt;"><path id="_Path_" data-name="&lt;Path&gt;" class="cls-2" d="M45.4,12.18,27.72,14.34,29.34,27.6l16.79-2.05a.89.89,0,0,0,.78-1Z"/><rect id="_Rectangle_" data-name="&lt;Rectangle&gt;" class="cls-3" x="28.57" y="18.55" width="17.81" height="4.45" transform="translate(-2.24 4.7) rotate(-6.96)"/><g id="_Group_4" data-name="&lt;Group&gt;"><path id="_Path_2" data-name="&lt;Path&gt;" class="cls-4" d="M32.52,16.89a.9.9,0,0,0-1-.77.89.89,0,0,0-.77,1l.11.88a1.34,1.34,0,0,1-2.65.33l-.49-4L33.15,8c7.22-.26,12.8,1.35,13.13,4.05L46.76,16a.44.44,0,0,1-.5.49,1.76,1.76,0,0,1-1.42-1.53.89.89,0,1,0-1.77.22l.11.88a.89.89,0,0,1-1.77.22.89.89,0,0,0-1.77.21l.11.89a1.78,1.78,0,0,1-3.54.43l-.16-1.33a.88.88,0,0,0-1-.77.9.9,0,0,0-.78,1l.06.44a.89.89,0,0,1-1.77.22Z"/><path id="_Path_3" data-name="&lt;Path&gt;" class="cls-5" d="M32.52,16.89a.9.9,0,0,0-1-.77.89.89,0,0,0-.77,1l.11.88a1.34,1.34,0,0,1-2.65.33l-.49-4L33.15,8c7.22-.26,12.8,1.35,13.13,4.05L46.76,16a.44.44,0,0,1-.5.49,1.76,1.76,0,0,1-1.42-1.53.89.89,0,1,0-1.77.22l.11.88a.89.89,0,0,1-1.77.22.89.89,0,0,0-1.77.21l.11.89a1.78,1.78,0,0,1-3.54.43l-.16-1.33a.88.88,0,0,0-1-.77.9.9,0,0,0-.78,1l.06.44a.89.89,0,0,1-1.77.22Z"/><line id="_Line_" data-name="&lt;Line&gt;" class="cls-6" x1="30.81" y1="13.96" x2="43.63" y2="12.4"/></g></g><g id="_Group_5" data-name="&lt;Group&gt;"><g id="_Group_6" data-name="&lt;Group&gt;"><path id="_Path_4" data-name="&lt;Path&gt;" class="cls-2" d="M3.2,22.52C2.84,25.7,9.48,29.06,18,30s15.78-.81,16.14-4L32.66,39.31c-.36,3.18-7.59,5-16.14,4S1.33,39,1.69,35.79Z"/><path id="_Path_5" data-name="&lt;Path&gt;" class="cls-3" d="M2.59,27.83C2.23,31,8.87,34.37,17.43,35.34s15.77-.82,16.13-4l-.5,4.42c-.36,3.18-7.59,5-16.14,4S1.73,35.43,2.09,32.25Z"/></g><g id="_Group_7" data-name="&lt;Group&gt;"><path id="_Path_6" data-name="&lt;Path&gt;" class="cls-4" d="M23.22,19.14c-1.24-.25-2.54-.46-3.88-.61-9-1-16.67.71-17,3.89l-.8,7.08a1.33,1.33,0,1,0,2.65.3,1.34,1.34,0,1,1,2.66.3l-.3,2.66a2.22,2.22,0,0,0,4.42.5,1.33,1.33,0,1,1,2.65.3l-.1.88a1.34,1.34,0,0,0,2.66.31l.05-.45a2.22,2.22,0,1,1,4.42.51l-.15,1.32a1.34,1.34,0,0,0,2.66.31l.35-3.1A.44.44,0,0,1,24,33a.43.43,0,0,1,.39.49,2.23,2.23,0,0,0,4.43.5l.2-1.77a1.33,1.33,0,0,1,2.65.3,1.34,1.34,0,0,0,2.66.31L35,27a.89.89,0,0,0-.78-1l-17.26-2Z"/><path id="_Path_7" data-name="&lt;Path&gt;" class="cls-5" d="M23.22,19.14c-1.24-.25-2.54-.46-3.88-.61-9-1-16.67.71-17,3.89l-.8,7.08a1.33,1.33,0,1,0,2.65.3,1.34,1.34,0,1,1,2.66.3l-.3,2.66a2.22,2.22,0,0,0,4.42.5,1.34,1.34,0,0,1,1.48-1.18,1.33,1.33,0,0,1,1.17,1.48l-.1.88a1.34,1.34,0,0,0,2.66.31l.05-.45a2.22,2.22,0,1,1,4.42.51l-.15,1.32a1.34,1.34,0,0,0,2.66.31l.35-3.1A.44.44,0,0,1,24,33a.43.43,0,0,1,.39.49,2.23,2.23,0,0,0,4.43.5l.2-1.77a1.33,1.33,0,0,1,2.65.3,1.34,1.34,0,0,0,2.66.31L35,27a.85.85,0,0,0-.19-.65.9.9,0,0,0-.59-.33l-17.26-2Z"/><polygon id="_Path_8" data-name="&lt;Path&gt;" class="cls-2" points="22.59 24.72 23.22 19.14 16.91 24.08 22.59 24.72"/><path id="_Path_9" data-name="&lt;Path&gt;" class="cls-6" d="M4.08,22.62c-.25,2.2,6.09,4.72,14.15,5.64,5.54.63,10.45.34,13.07-.62"/></g></g></g></g></svg>