<svg id="Icons" xmlns="http://www.w3.org/2000/svg" viewBox="0 0 48 48"><defs><style>.cls-1{fill:#45413c;opacity:0.15;}.cls-2{fill:#bf8256;}.cls-2,.cls-3,.cls-5,.cls-7{stroke:#45413c;}.cls-2,.cls-3,.cls-5,.cls-6,.cls-7{stroke-linecap:round;stroke-linejoin:round;}.cls-3{fill:#ffe3cf;}.cls-4,.cls-7{fill:#ff6242;}.cls-5,.cls-6{fill:none;}.cls-6{stroke:#e04122;}</style></defs><title>561-shortcake-2</title><g id="_Group_" data-name="&lt;Group&gt;"><ellipse id="_Ellipse_" data-name="&lt;Ellipse&gt;" class="cls-1" cx="24.11" cy="44.06" rx="20" ry="1.94"/><g id="_Group_2" data-name="&lt;Group&gt;"><g id="_Group_3" data-name="&lt;Group&gt;"><path id="_Path_" data-name="&lt;Path&gt;" class="cls-2" d="M42.5,20.58,4,24.27l1.72,18a1.29,1.29,0,0,0,1.41,1.16l36-3.45a1.28,1.28,0,0,0,1.16-1.4Z"/><rect id="_Path_2" data-name="&lt;Path&gt;" class="cls-3" x="4.94" y="30.12" width="38.7" height="6.45" transform="translate(-3.07 2.47) rotate(-5.48)"/></g><g id="_Group_4" data-name="&lt;Group&gt;"><path id="_Path_3" data-name="&lt;Path&gt;" class="cls-4" d="M21.23,28.45a1.93,1.93,0,1,1,3.85-.37l.06.64a1.29,1.29,0,0,0,1.41,1.16,1.28,1.28,0,0,0,1.16-1.4l-.06-.64a.64.64,0,1,1,1.28-.13l.17,1.79A2.69,2.69,0,0,0,31.5,32a2.58,2.58,0,0,0,2.75-2.82L34,25.94a1.93,1.93,0,1,0,3.85-.37l-.06-.65a1.28,1.28,0,0,1,1.16-1.4,1.29,1.29,0,0,1,1.41,1.16L40.43,26a3.86,3.86,0,0,0,2.31,3.18,1.28,1.28,0,0,0,1.75-1.33l-.7-7.35c-.36-3.79-8.08-8.68-18-8.93a3.78,3.78,0,0,0-2,.54L4.11,23.56A2.6,2.6,0,0,0,2.85,26l.88,9.2a.65.65,0,0,0,.83.56,3.85,3.85,0,0,0,2.73-3.94A2,2,0,0,1,8.64,29.7a1.94,1.94,0,0,1,2.5,1.66l.06.65a1.93,1.93,0,1,0,3.85-.37l-.12-1.29a.64.64,0,0,1,1.28-.12L16.38,32a2.67,2.67,0,0,0,2.4,2.46,2.58,2.58,0,0,0,2.75-2.82Z"/><path id="_Path_4" data-name="&lt;Path&gt;" class="cls-5" d="M21.23,28.45a1.93,1.93,0,1,1,3.85-.37l.06.64a1.29,1.29,0,0,0,1.41,1.16,1.28,1.28,0,0,0,1.16-1.4l-.06-.64a.64.64,0,1,1,1.28-.13l.17,1.79A2.69,2.69,0,0,0,31.5,32a2.58,2.58,0,0,0,2.75-2.82L34,25.94a1.93,1.93,0,1,0,3.85-.37l-.06-.65a1.28,1.28,0,0,1,1.16-1.4,1.29,1.29,0,0,1,1.41,1.16L40.43,26a3.86,3.86,0,0,0,2.31,3.18,1.28,1.28,0,0,0,1.75-1.33l-.7-7.35c-.36-3.79-8.08-8.68-18-8.93a3.78,3.78,0,0,0-2,.54L4.11,23.56A2.6,2.6,0,0,0,2.85,26l.88,9.2a.65.65,0,0,0,.83.56,3.85,3.85,0,0,0,2.73-3.94A2,2,0,0,1,8.64,29.7a1.94,1.94,0,0,1,2.5,1.66l.06.65a1.93,1.93,0,1,0,3.85-.37l-.12-1.29a.64.64,0,0,1,1.28-.12L16.38,32a2.67,2.67,0,0,0,2.4,2.46,2.58,2.58,0,0,0,2.75-2.82Z"/><line id="_Path_5" data-name="&lt;Path&gt;" class="cls-6" x1="9.11" y1="23.78" x2="39.94" y2="20.82"/></g><g id="_Group_5" data-name="&lt;Group&gt;"><path id="_Path_6" data-name="&lt;Path&gt;" class="cls-7" d="M35.06,10.56c-.17-3.2-3.67-8.21-6.87-8s-6.18,5.5-6,8.7,3.54,5.64,6.74,5.47S35.22,13.76,35.06,10.56Z"/><line id="_Line_" data-name="&lt;Line&gt;" class="cls-5" x1="24.68" y1="9.8" x2="24.75" y2="11.09"/><line id="_Line_2" data-name="&lt;Line&gt;" class="cls-5" x1="26.42" y1="5.84" x2="26.48" y2="7.13"/><line id="_Line_3" data-name="&lt;Line&gt;" class="cls-5" x1="28.55" y1="9.61" x2="28.62" y2="10.89"/><line id="_Line_4" data-name="&lt;Line&gt;" class="cls-5" x1="30.28" y1="5.64" x2="30.35" y2="6.93"/><line id="_Line_5" data-name="&lt;Line&gt;" class="cls-5" x1="32.42" y1="9.41" x2="32.48" y2="10.7"/></g><path id="_Path_7" data-name="&lt;Path&gt;" class="cls-3" d="M36.69,14c.17,1.78-3.14,3.54-7.4,4s-7.84-.7-8-2.47A1.94,1.94,0,0,1,23,13.38c1.06-.1,1.95,0,2.05,1.1-.2-2.13,1.42-3.38,3.55-3.58s3.95.71,4.16,2.84c-.11-1.06.74-1.37,1.8-1.47A1.94,1.94,0,0,1,36.69,14Z"/></g></g></svg>