<svg id="Icons" xmlns="http://www.w3.org/2000/svg" viewBox="0 0 48 48"><defs><style>.cls-1{fill:#45413c;opacity:0.15;}.cls-2{fill:#e5f8ff;}.cls-3{fill:#e5fff9;}.cls-4{fill:#fff;}.cls-5{fill:none;stroke:#45413c;stroke-linecap:round;stroke-linejoin:round;stroke-width:1.01px;}.cls-6{fill:#4aeff7;}.cls-7{fill:#a6fbff;}.cls-8{fill:#fff48c;}.cls-9{fill:#fffacf;}</style></defs><title>565-baby-bottle</title><g id="_Group_" data-name="&lt;Group&gt;"><ellipse id="_Ellipse_" data-name="&lt;Ellipse&gt;" class="cls-1" cx="24.66" cy="45.37" rx="12.53" ry="1.63"/><path id="_Path_" data-name="&lt;Path&gt;" class="cls-2" d="M19.35,44.53l-8.07-4.42c-2.79-1.52-4-4.6-2.8-6.88l8.91-16.29A7.7,7.7,0,0,1,20.31,14h0l16.15,8.84h0a7.63,7.63,0,0,1-.9,4L26.65,43.17C25.4,45.44,22.14,46.05,19.35,44.53Z"/><path id="_Path_2" data-name="&lt;Path&gt;" class="cls-3" d="M34.76,28.34,26.65,43.17c-1.25,2.27-4.52,2.88-7.31,1.35l-8.06-4.41c-2.79-1.52-4-4.6-2.8-6.88l2.68-4.89Z"/><polygon id="_Path_3" data-name="&lt;Path&gt;" class="cls-4" points="32.3 32.84 34.77 28.34 11.16 28.34 8.7 32.84 32.3 32.84"/><path id="_Path_4" data-name="&lt;Path&gt;" class="cls-5" d="M34.76,28.34,26.65,43.17c-1.25,2.27-4.52,2.88-7.31,1.35l-8.06-4.41c-2.79-1.52-4-4.6-2.8-6.88l2.68-4.89Z"/><path id="_Path_5" data-name="&lt;Path&gt;" class="cls-5" d="M19.35,44.53l-8.07-4.42c-2.79-1.52-4-4.6-2.8-6.88l8.91-16.29A7.7,7.7,0,0,1,20.31,14h0l16.15,8.84h0a7.63,7.63,0,0,1-.9,4L26.65,43.17C25.4,45.44,22.14,46.05,19.35,44.53Z"/><rect id="_Rectangle_" data-name="&lt;Rectangle&gt;" class="cls-6" x="19.54" y="12.25" width="20.71" height="6.54" rx="1.06" ry="1.06" transform="translate(11.12 -12.44) rotate(28.68)"/><path id="_Path_6" data-name="&lt;Path&gt;" class="cls-7" d="M20.17,13.93l.54.3h0a3.48,3.48,0,0,1,4.72-1.39l13.65,7.47,1-1.75a1.06,1.06,0,0,0-.42-1.45L23.31,8.2a1.06,1.06,0,0,0-1.44.42l-2.12,3.87A1.06,1.06,0,0,0,20.17,13.93Z"/><rect id="_Rectangle_2" data-name="&lt;Rectangle&gt;" class="cls-5" x="19.54" y="12.25" width="20.71" height="6.54" rx="1.06" ry="1.06" transform="translate(11.12 -12.44) rotate(28.68)"/><path id="_Path_7" data-name="&lt;Path&gt;" class="cls-8" d="M37.68,11.3h0a4.46,4.46,0,0,1-.36-3.79l.23-.68a2.71,2.71,0,0,0-.86-3.73,2.72,2.72,0,0,0-3.61,1.29L32.64,5a4.51,4.51,0,0,1-3.39,1.74h0A5.91,5.91,0,0,0,24.77,9h0l13.38,7.32h0A6,6,0,0,0,37.68,11.3Z"/><g id="_Group_2" data-name="&lt;Group&gt;"><path id="_Path_8" data-name="&lt;Path&gt;" class="cls-9" d="M29.25,9.38a4.51,4.51,0,0,0,3.39-1.74l.44-.56a2.72,2.72,0,0,1,3.61-1.29,2.24,2.24,0,0,1,.91.92,2.69,2.69,0,0,0-.91-3.61,2.72,2.72,0,0,0-3.61,1.29L32.64,5a4.51,4.51,0,0,1-3.39,1.74A5.93,5.93,0,0,0,24.77,9l1.95,1.07A5.45,5.45,0,0,1,29.25,9.38Z"/></g><path id="_Path_9" data-name="&lt;Path&gt;" class="cls-5" d="M37.68,11.3h0a4.46,4.46,0,0,1-.36-3.79l.23-.68a2.71,2.71,0,0,0-.86-3.73,2.72,2.72,0,0,0-3.61,1.29L32.64,5a4.51,4.51,0,0,1-3.39,1.74h0A5.91,5.91,0,0,0,24.77,9h0l13.38,7.32h0A6,6,0,0,0,37.68,11.3Z"/><line id="_Path_10" data-name="&lt;Path&gt;" class="cls-5" x1="17.45" y1="16.85" x2="21.22" y2="18.92"/><line id="_Path_11" data-name="&lt;Path&gt;" class="cls-5" x1="14.65" y1="21.96" x2="18.42" y2="24.03"/><line id="_Path_12" data-name="&lt;Path&gt;" class="cls-5" x1="11.77" y1="27.22" x2="15.55" y2="29.29"/><line id="_Path_13" data-name="&lt;Path&gt;" class="cls-5" x1="9.16" y1="32" x2="12.93" y2="34.07"/></g></svg>