<svg id="Icons" xmlns="http://www.w3.org/2000/svg" viewBox="0 0 48 48"><defs><style>.cls-1{fill:#45413c;opacity:0.15;}.cls-2{fill:#e5f8ff;}.cls-2,.cls-5,.cls-6,.cls-7,.cls-8{stroke:#45413c;stroke-linecap:round;stroke-linejoin:round;}.cls-3,.cls-6{fill:#e8f4fa;}.cls-4,.cls-8{fill:#fff;}.cls-5{fill:none;}.cls-7{fill:#bf8256;}</style></defs><title>567-hot-beverage-2</title><ellipse id="_Ellipse_" data-name="&lt;Ellipse&gt;" class="cls-1" cx="24" cy="45.42" rx="16.85" ry="1.58"/><g id="_Group_" data-name="&lt;Group&gt;"><path class="cls-2" d="M7.25,39.08c0,4.11,8.38,6.42,16.75,6.42s16.75-2.31,16.75-6.42Z"/><g id="_Group_2" data-name="&lt;Group&gt;"><ellipse id="_Ellipse_2" data-name="&lt;Ellipse&gt;" class="cls-3" cx="24" cy="39.08" rx="16.75" ry="4.41"/><path id="_Path_" data-name="&lt;Path&gt;" class="cls-4" d="M8.33,40.62C10.71,39,16.82,37.76,24,37.76S37.29,39,39.67,40.62a2,2,0,0,0,1.08-1.54c0-2.43-7.5-4.41-16.75-4.41s-16.75,2-16.75,4.41A2,2,0,0,0,8.33,40.62Z"/><ellipse id="_Ellipse_3" data-name="&lt;Ellipse&gt;" class="cls-5" cx="24" cy="39.08" rx="16.75" ry="4.41"/><ellipse id="_Ellipse_4" data-name="&lt;Ellipse&gt;" class="cls-6" cx="24" cy="39.52" rx="9.7" ry="2.2"/></g></g><g id="_Group_3" data-name="&lt;Group&gt;"><g id="_Group_4" data-name="&lt;Group&gt;"><path id="_Path_2" data-name="&lt;Path&gt;" class="cls-3" d="M39.43,32.91a6.17,6.17,0,1,0,0-12.34H36.78V24.1h2.65a2.64,2.64,0,1,1,0,5.28H35v3.53Z"/><path id="_Path_3" data-name="&lt;Path&gt;" class="cls-4" d="M38.54,21.89a6.17,6.17,0,0,1,6.17,6.17,6.1,6.1,0,0,1-.64,2.73,6.16,6.16,0,0,0-4.64-10.22H36.78v1.32Z"/><path id="_Path_4" data-name="&lt;Path&gt;" class="cls-5" d="M39.43,32.91a6.17,6.17,0,1,0,0-12.34H36.78V24.1h2.65a2.64,2.64,0,1,1,0,5.28H35v3.53Z"/></g><g id="_Group_5" data-name="&lt;Group&gt;"><path id="_Path_5" data-name="&lt;Path&gt;" class="cls-4" d="M38.54,16.6c0-1.7-6.51-3.08-14.54-3.08S9.46,14.9,9.46,16.6v8.82a14.54,14.54,0,0,0,29.08,0Z"/><path id="_Path_6" data-name="&lt;Path&gt;" class="cls-3" d="M24,36.44a16.73,16.73,0,0,1-14.2-7.9,14.54,14.54,0,0,0,28.4,0A16.73,16.73,0,0,1,24,36.44Z"/><path id="_Path_7" data-name="&lt;Path&gt;" class="cls-5" d="M38.54,16.6c0-1.7-6.51-3.08-14.54-3.08S9.46,14.9,9.46,16.6v8.82a14.54,14.54,0,0,0,29.08,0Z"/></g><g id="_Group_6" data-name="&lt;Group&gt;"><path id="_Path_8" data-name="&lt;Path&gt;" class="cls-7" d="M34.81,18.8A30,30,0,0,0,24,17,30,30,0,0,0,13.19,18.8,30.27,30.27,0,0,0,24,20.57,30.27,30.27,0,0,0,34.81,18.8Z"/><path id="_Path_9" data-name="&lt;Path&gt;" class="cls-5" d="M11.22,17.82c2.63,1.65,7.36,2.75,12.78,2.75s10.15-1.1,12.78-2.75"/></g></g><circle id="_Ellipse_5" data-name="&lt;Ellipse&gt;" class="cls-8" cx="20.83" cy="4.26" r="1.76"/><path id="_Path_10" data-name="&lt;Path&gt;" class="cls-8" d="M14.79,6.76a4,4,0,1,0-3.23,1.67,4,4,0,0,0,.5,0,2.63,2.63,0,0,0-.06.49,2.21,2.21,0,1,0,2.79-2.11Z"/></svg>