<svg id="Icons" xmlns="http://www.w3.org/2000/svg" viewBox="0 0 48 48"><defs><style>.cls-1{fill:#debb7e;}.cls-1,.cls-4,.cls-6{stroke:#45413c;stroke-linecap:round;stroke-linejoin:round;}.cls-2{fill:#f0d5a8;}.cls-3{fill:#f7e5c6;}.cls-4{fill:none;}.cls-5{fill:#45413c;opacity:0.15;}.cls-6,.cls-9{fill:#e0e0e0;}.cls-7{fill:#f0f0f0;}.cls-8{fill:#fff;}.cls-10{fill:#9ceb60;}.cls-11{fill:#c8ffa1;}</style></defs><title>568-teacup-without-handle</title><g id="_Group_" data-name="&lt;Group&gt;"><path id="_Path_" data-name="&lt;Path&gt;" class="cls-1" d="M42,35.73c0,4.84-8.06,8.77-18,8.77S6,40.57,6,35.73V33.67H42Z"/><ellipse id="_Path_2" data-name="&lt;Path&gt;" class="cls-2" cx="24" cy="33.43" rx="18" ry="9.18"/><path id="_Path_3" data-name="&lt;Path&gt;" class="cls-3" d="M24,27.51c8.85,0,16.19,3.26,17.7,7.55a4.8,4.8,0,0,0,.3-1.63c0-5.07-8.06-9.18-18-9.18S6,28.36,6,33.43a4.8,4.8,0,0,0,.3,1.63C7.81,30.77,15.15,27.51,24,27.51Z"/><ellipse id="_Path_4" data-name="&lt;Path&gt;" class="cls-4" cx="24" cy="33.43" rx="18" ry="9.18"/><ellipse id="_Ellipse_" data-name="&lt;Ellipse&gt;" class="cls-5" cx="24" cy="45.5" rx="11.5" ry="1.5"/><path id="_Path_5" data-name="&lt;Path&gt;" class="cls-4" d="M20,12.1a2.74,2.74,0,0,1-.9-2.25c0-1.61,1.8-3.15,1.8-4.95A5.7,5.7,0,0,0,20,2.2"/><path id="_Path_6" data-name="&lt;Path&gt;" class="cls-4" d="M24,12.1a2.74,2.74,0,0,1-.9-2.25c0-1.61,1.8-3.15,1.8-4.95A5.7,5.7,0,0,0,24,2.2"/><path id="_Path_7" data-name="&lt;Path&gt;" class="cls-4" d="M28.05,12.1a2.74,2.74,0,0,1-.9-2.25C27.15,8.24,29,6.7,29,4.9a5.7,5.7,0,0,0-.9-2.7"/><path id="_Path_8" data-name="&lt;Path&gt;" class="cls-6" d="M30.4,34.4c0,1.12-2.87,2-6.4,2s-6.4-.91-6.4-2V32.83H30.4Z"/><path id="_Path_9" data-name="&lt;Path&gt;" class="cls-7" d="M38.5,18.93c0,5-1.26,12.33-8.7,14.5a22.79,22.79,0,0,1-5.8.66,22.79,22.79,0,0,1-5.8-.66c-7.44-2.17-8.7-9.5-8.7-14.5Z"/><path class="cls-8" d="M24,27.51a56.78,56.78,0,0,0,13.59-2,22.25,22.25,0,0,0,.91-6.6H9.5a22.25,22.25,0,0,0,.91,6.6A56.78,56.78,0,0,0,24,27.51Z"/><path id="_Path_10" data-name="&lt;Path&gt;" class="cls-4" d="M38.5,18.93c0,5-1.26,12.33-8.7,14.5a22.79,22.79,0,0,1-5.8.66,22.79,22.79,0,0,1-5.8-.66c-7.44-2.17-8.7-9.5-8.7-14.5Z"/><ellipse id="_Path_11" data-name="&lt;Path&gt;" class="cls-9" cx="24" cy="18.93" rx="14.5" ry="5"/><path id="_Path_12" data-name="&lt;Path&gt;" class="cls-7" d="M24,15.93c7,0,12.87,1.71,14.21,4a2,2,0,0,0,.29-1c0-2.77-6.49-5-14.5-5s-14.5,2.23-14.5,5a2,2,0,0,0,.29,1C11.13,17.64,17,15.93,24,15.93Z"/><ellipse id="_Path_13" data-name="&lt;Path&gt;" class="cls-4" cx="24" cy="18.93" rx="14.5" ry="5"/><ellipse id="_Path_14" data-name="&lt;Path&gt;" class="cls-10" cx="24" cy="20.68" rx="13.57" ry="3.25"/><path id="_Path_15" data-name="&lt;Path&gt;" class="cls-11" d="M24,19.93a29.44,29.44,0,0,1,11.58,2,7.84,7.84,0,0,0,2-1.25c-2.06-1.9-7.35-3.25-13.57-3.25s-11.51,1.35-13.57,3.25a7.84,7.84,0,0,0,2,1.25A29.44,29.44,0,0,1,24,19.93Z"/><ellipse id="_Path_16" data-name="&lt;Path&gt;" class="cls-4" cx="24" cy="20.68" rx="13.57" ry="3.25"/></g></svg>