<svg id="Icons" xmlns="http://www.w3.org/2000/svg" viewBox="0 0 48 48"><defs><style>.cls-1{fill:#45413c;opacity:0.15;}.cls-2,.cls-8{fill:#46b000;}.cls-10,.cls-3{fill:#6dd627;}.cls-4,.cls-7{fill:#ffe500;}.cls-5{fill:#fff48c;}.cls-6{fill:none;}.cls-10,.cls-11,.cls-12,.cls-13,.cls-14,.cls-6,.cls-7,.cls-8{stroke:#45413c;stroke-linecap:round;stroke-linejoin:round;}.cls-13,.cls-9{fill:#fff;}.cls-11{fill:#ff6242;}.cls-12{fill:#00b8f0;}.cls-14{fill:#debb7e;}</style></defs><title>569-bottle-with-popping-cork</title><ellipse id="_Ellipse_" data-name="&lt;Ellipse&gt;" class="cls-1" cx="29.52" cy="45.5" rx="9" ry="1.5"/><g id="_Group_" data-name="&lt;Group&gt;"><path id="_Path_" data-name="&lt;Path&gt;" class="cls-2" d="M38.62,45.5A24.92,24.92,0,0,0,46.5,34.82L44.38,32.7a17.18,17.18,0,0,0-7.47-4.38,17.26,17.26,0,0,1-7.48-4.38l-4.71-4.72-3.09,3.1L26.34,27a17.18,17.18,0,0,1,4.38,7.47A17.26,17.26,0,0,0,35.1,42Z"/><path class="cls-3" d="M29.43,27.34a17.26,17.26,0,0,0,7.48,4.38,17.09,17.09,0,0,1,7.47,4.38l1.06,1.06a24.73,24.73,0,0,0,1.05-2.35L44.38,32.7a17.18,17.18,0,0,0-7.47-4.38,17.26,17.26,0,0,1-7.48-4.38l-4.71-4.72L23,20.92Z"/><path class="cls-4" d="M36.91,28.32a17.26,17.26,0,0,1-7.48-4.38l-4.71-4.72-3.09,3.1L26.34,27a17.18,17.18,0,0,1,4.38,7.47s0,.1,0,.14l5-.77a.64.64,0,0,0,.53-.52l.76-5Z"/><path class="cls-5" d="M36.54,31.61l.5-3.25-.13,0a17.26,17.26,0,0,1-7.48-4.38l-4.71-4.72L23,20.92l6.41,6.42A17.24,17.24,0,0,0,36.54,31.61Z"/><path class="cls-6" d="M36.91,28.32a17.26,17.26,0,0,1-7.48-4.38l-4.71-4.72-3.09,3.1L26.34,27a17.18,17.18,0,0,1,4.38,7.47s0,.1,0,.14l5-.77a.64.64,0,0,0,.53-.52l.76-5Z"/><path id="_Path_2" data-name="&lt;Path&gt;" class="cls-6" d="M38.62,45.5A24.92,24.92,0,0,0,46.5,34.82L44.38,32.7a17.18,17.18,0,0,0-7.47-4.38,17.26,17.26,0,0,1-7.48-4.38l-4.71-4.72-3.09,3.1L26.34,27a17.18,17.18,0,0,1,4.38,7.47A17.26,17.26,0,0,0,35.1,42Z"/><path class="cls-7" d="M38.62,45.5A24.92,24.92,0,0,0,46.5,34.82l-.11-.11L37.11,44Z"/><path id="_Rectangle_" data-name="&lt;Rectangle&gt;" class="cls-8" d="M21.41,19.79h3.75a.62.62,0,0,1,.62.62v1.25a.31.31,0,0,1-.31.31H21.1a.31.31,0,0,1-.31-.31V20.41a.62.62,0,0,1,.62-.62Z" transform="translate(-7.95 22.58) rotate(-45)"/></g><g id="_Group_2" data-name="&lt;Group&gt;"><path id="_Path_3" data-name="&lt;Path&gt;" class="cls-9" d="M22,28.52a.94.94,0,0,1-1.87,0A6.17,6.17,0,0,1,21,26.73a.19.19,0,0,1,.15-.09.19.19,0,0,1,.16.09A6.17,6.17,0,0,1,22,28.52Z"/><path id="_Path_4" data-name="&lt;Path&gt;" class="cls-6" d="M22,28.52a.94.94,0,0,1-1.87,0A6.17,6.17,0,0,1,21,26.73a.19.19,0,0,1,.15-.09.19.19,0,0,1,.16.09A6.17,6.17,0,0,1,22,28.52Z"/></g><path id="_Path_5" data-name="&lt;Path&gt;" class="cls-10" d="M35.67,16.89a4.29,4.29,0,0,1-3.54,2l-1.25-2.2a4.31,4.31,0,0,0,3.53-2Z"/><path id="_Path_6" data-name="&lt;Path&gt;" class="cls-11" d="M27.05,40.68a3.49,3.49,0,0,1-2.87,1.62l-1-1.79A3.46,3.46,0,0,0,26,38.89Z"/><path id="_Path_7" data-name="&lt;Path&gt;" class="cls-7" d="M32.92,6.61a3.79,3.79,0,0,1-.44,3.54l-2.21-.28a3.8,3.8,0,0,0,.44-3.53Z"/><path id="_Path_8" data-name="&lt;Path&gt;" class="cls-7" d="M8.63,18.17a3.79,3.79,0,0,1-.43,3.54L6,21.43a3.77,3.77,0,0,0,.43-3.53Z"/><path id="_Path_9" data-name="&lt;Path&gt;" class="cls-12" d="M23.14,9.54a3.61,3.61,0,0,1-.71-3.3l2.06-.44a3.6,3.6,0,0,0,.71,3.29Z"/><path id="_Path_10" data-name="&lt;Path&gt;" class="cls-10" d="M14.84,35.54a5.34,5.34,0,0,1-1.06-4.92L16.86,30a5.34,5.34,0,0,0,1.05,4.92Z"/><path id="_Path_11" data-name="&lt;Path&gt;" class="cls-12" d="M13.17,38.81a4.09,4.09,0,0,1,2.36,3l-1.88,1.48a4,4,0,0,0-2.36-3Z"/><path id="_Path_12" data-name="&lt;Path&gt;" class="cls-11" d="M43.33,18.79a4.58,4.58,0,0,1-4.1-1.39l.87-2.57a4.59,4.59,0,0,0,4.1,1.4Z"/><path id="_Path_13" data-name="&lt;Path&gt;" class="cls-7" d="M8.69,36.66a3.93,3.93,0,0,1-3.48-1.18L6,33.31a3.92,3.92,0,0,0,3.47,1.18Z"/><path id="_Path_14" data-name="&lt;Path&gt;" class="cls-11" d="M2.22,27.73A3.88,3.88,0,0,1,4.57,25L6.3,26.44A3.86,3.86,0,0,0,4,29.2Z"/><circle id="_Path_15" data-name="&lt;Path&gt;" class="cls-13" cx="14.89" cy="18.11" r="1.09"/><circle id="_Path_16" data-name="&lt;Path&gt;" class="cls-13" cx="22.23" cy="13.58" r="1.11"/><g id="_Group_3" data-name="&lt;Group&gt;"><path id="_Path_17" data-name="&lt;Path&gt;" class="cls-14" d="M8.71,3.77,6.16,6.32C-.85,4.86,7.25-3.21,8.71,3.77Z"/><path id="_Path_18" data-name="&lt;Path&gt;" class="cls-14" d="M8.53,4l1.83,1.51a.65.65,0,0,1,.22.45.66.66,0,0,1-.18.48L8.77,8a.62.62,0,0,1-.47.18A.65.65,0,0,1,7.85,8L6.34,6.14Z"/></g><g id="_Group_4" data-name="&lt;Group&gt;"><line id="_Path_19" data-name="&lt;Path&gt;" class="cls-6" x1="17.55" y1="14.82" x2="14.66" y2="11.93"/><line id="_Path_20" data-name="&lt;Path&gt;" class="cls-6" x1="16.42" y1="11.61" x2="14.98" y2="10.17"/><line id="_Path_21" data-name="&lt;Path&gt;" class="cls-6" x1="14.02" y1="9.2" x2="13.77" y2="8.96"/><line id="_Path_22" data-name="&lt;Path&gt;" class="cls-6" x1="13.69" y1="10.97" x2="13.45" y2="10.73"/><line id="_Path_23" data-name="&lt;Path&gt;" class="cls-6" x1="12.81" y1="8" x2="12.57" y2="7.76"/><line id="_Path_24" data-name="&lt;Path&gt;" class="cls-6" x1="14.22" y1="13.82" x2="12.77" y2="12.37"/><line id="_Path_25" data-name="&lt;Path&gt;" class="cls-6" x1="11.81" y1="11.41" x2="11.57" y2="11.17"/><line id="_Path_26" data-name="&lt;Path&gt;" class="cls-6" x1="10.6" y1="10.21" x2="10.36" y2="9.97"/><line id="_Path_27" data-name="&lt;Path&gt;" class="cls-6" x1="12.49" y1="9.77" x2="12.25" y2="9.52"/></g><path id="_Path_28" data-name="&lt;Path&gt;" class="cls-13" d="M23.64,16.69a1.8,1.8,0,0,0-2.54,0l0,0a1.48,1.48,0,0,0-.22-.29,1.44,1.44,0,1,0-2,2,1.29,1.29,0,0,0,.3.22l-.05,0a1.8,1.8,0,0,0,0,2.54,1.84,1.84,0,0,0,1.21.52V24.3a.78.78,0,0,0,1.56,0V21a1.79,1.79,0,0,0,1-.5,1.75,1.75,0,0,0,.5-1.07,1.64,1.64,0,0,0,.26-.2A1.8,1.8,0,0,0,23.64,16.69Z"/></svg>