<svg id="Icons" xmlns="http://www.w3.org/2000/svg" viewBox="0 0 48 48"><defs><style>.cls-1{fill:#45413c;opacity:0.15;}.cls-2,.cls-3{fill:#00b8f0;}.cls-2,.cls-5{stroke:#45413c;stroke-linecap:round;stroke-linejoin:round;}.cls-4{fill:#4acfff;}.cls-5{fill:none;}.cls-6{fill:#c8ffa1;}.cls-7{fill:#e4ffd1;}.cls-8{fill:#9ceb60;}.cls-9{fill:#ff6242;}.cls-10{fill:#ff866e;}.cls-11{fill:#46b000;}.cls-12{fill:#6dd627;}</style></defs><title>571-cocktail-glass</title><g id="_Group_" data-name="&lt;Group&gt;"><ellipse id="_Ellipse_" data-name="&lt;Ellipse&gt;" class="cls-1" cx="24" cy="45.5" rx="10" ry="1.5"/><g id="_Group_2" data-name="&lt;Group&gt;"><path id="_Path_" data-name="&lt;Path&gt;" class="cls-2" d="M33.14,43.35c-.56-1.07-3.36-1.93-7-2.18a.87.87,0,0,1-.82-.87v-15H22.68v15a.87.87,0,0,1-.82.87c-3.64.25-6.44,1.11-7,2.18a.42.42,0,0,0,.2.56c.86.44,3.61,1.59,8.94,1.59s8.08-1.15,8.94-1.59A.42.42,0,0,0,33.14,43.35Z"/><g id="_Group_3" data-name="&lt;Group&gt;"><g id="_Group_4" data-name="&lt;Group&gt;"><path id="_Path_2" data-name="&lt;Path&gt;" class="cls-3" d="M41.17,10.73c0-2.19-7.69-4-17.17-4s-17.17,1.77-17.17,4v1.84a2.64,2.64,0,0,0,1,2l14,11.53s0,1.76,2.2,1.76,2.2-1.76,2.2-1.76l14-11.53a2.64,2.64,0,0,0,1-2Z"/><path id="_Path_3" data-name="&lt;Path&gt;" class="cls-4" d="M33.82,7.48A62.91,62.91,0,0,0,24,6.77c-9.48,0-17.17,1.77-17.17,4v1.84a2.64,2.64,0,0,0,1,2L20.16,24.79A53.77,53.77,0,0,0,33.82,7.48Z"/><ellipse id="_Ellipse_2" data-name="&lt;Ellipse&gt;" class="cls-3" cx="24" cy="10.73" rx="17.17" ry="3.96"/><path id="_Path_4" data-name="&lt;Path&gt;" class="cls-5" d="M41.17,10.73c0-2.19-7.69-4-17.17-4s-17.17,1.77-17.17,4v1.84a2.64,2.64,0,0,0,1,2l14,11.53s0,1.76,2.2,1.76,2.2-1.76,2.2-1.76l14-11.53a2.64,2.64,0,0,0,1-2Z"/></g><g id="_Group_5" data-name="&lt;Group&gt;"><path id="_Path_5" data-name="&lt;Path&gt;" class="cls-6" d="M35.44,16l-9.68,7.92a3.07,3.07,0,0,1-1.76.88,3.07,3.07,0,0,1-1.76-.88L12.56,16S15.64,14.25,24,14.25,35.44,16,35.44,16Z"/><path id="_Path_6" data-name="&lt;Path&gt;" class="cls-7" d="M29.57,14.56A44.91,44.91,0,0,0,24,14.25C15.64,14.25,12.56,16,12.56,16l9.14,7.48A49.25,49.25,0,0,0,29.57,14.56Z"/><path id="_Path_7" data-name="&lt;Path&gt;" class="cls-8" d="M35.44,16S32.36,17.77,24,17.77,12.56,16,12.56,16,15.64,14.25,24,14.25,35.44,16,35.44,16Z"/><path id="_Path_8" data-name="&lt;Path&gt;" class="cls-6" d="M27.25,17.67c.83-1,1.6-2.07,2.32-3.11A44.91,44.91,0,0,0,24,14.25C15.64,14.25,12.56,16,12.56,16S15.64,17.77,24,17.77C25.19,17.77,26.26,17.73,27.25,17.67Z"/></g></g><g id="_Group_6" data-name="&lt;Group&gt;"><path id="_Path_9" data-name="&lt;Path&gt;" class="cls-9" d="M37.19,6.87a2.64,2.64,0,1,1-.71-3.66A2.63,2.63,0,0,1,37.19,6.87Z"/><path id="_Path_10" data-name="&lt;Path&gt;" class="cls-10" d="M32.41,5.9a2.64,2.64,0,0,1,5.19-1Z"/><line id="_Line_" data-name="&lt;Line&gt;" class="cls-5" x1="33.53" y1="7.58" x2="31.06" y2="11.23"/><path id="_Path_11" data-name="&lt;Path&gt;" class="cls-11" d="M32.5,15.39c-.82,1.21-2.78,1.3-4.4.22s-2.25-2.95-1.43-4.16,2.78-1.31,4.39-.22S33.32,14.18,32.5,15.39Z"/><path id="_Path_12" data-name="&lt;Path&gt;" class="cls-12" d="M26.66,14l5.85-1.13a4.35,4.35,0,0,0-1.45-1.62c-1.61-1.09-3.58-1-4.39.22A2.46,2.46,0,0,0,26.66,14Z"/><path id="_Path_13" data-name="&lt;Path&gt;" class="cls-5" d="M32.5,15.39c-.82,1.21-2.78,1.3-4.4.22s-2.25-2.95-1.43-4.16,2.78-1.31,4.39-.22S33.32,14.18,32.5,15.39Z"/><path id="_Path_14" data-name="&lt;Path&gt;" class="cls-11" d="M29.54,19.77c-.81,1.2-2.78,1.3-4.39.21S22.89,17,23.71,15.82s2.78-1.3,4.39-.21S30.36,18.56,29.54,19.77Z"/><path id="_Path_15" data-name="&lt;Path&gt;" class="cls-12" d="M23.7,18.36l5.85-1.13a4.19,4.19,0,0,0-1.45-1.62c-1.61-1.09-3.58-1-4.39.21A2.48,2.48,0,0,0,23.7,18.36Z"/><path id="_Path_16" data-name="&lt;Path&gt;" class="cls-5" d="M29.54,19.77c-.81,1.2-2.78,1.3-4.39.21S22.89,17,23.71,15.82s2.78-1.3,4.39-.21S30.36,18.56,29.54,19.77Z"/><line id="_Line_2" data-name="&lt;Line&gt;" class="cls-5" x1="25.15" y1="19.98" x2="23.67" y2="22.17"/><path id="_Path_17" data-name="&lt;Path&gt;" class="cls-5" d="M37.19,6.87a2.64,2.64,0,1,1-.71-3.66A2.63,2.63,0,0,1,37.19,6.87Z"/></g><path id="_Path_18" data-name="&lt;Path&gt;" class="cls-5" d="M41.17,10.73c0,2.19-7.69,4-17.17,4s-17.17-1.77-17.17-4"/></g></g></svg>