<svg id="Icons" xmlns="http://www.w3.org/2000/svg" viewBox="0 0 48 48"><defs><style>.cls-1{fill:#45413c;opacity:0.15;}.cls-2,.cls-3{fill:#00b8f0;}.cls-2,.cls-5{stroke:#45413c;stroke-linecap:round;stroke-linejoin:round;}.cls-4{fill:#4acfff;}.cls-5{fill:none;}.cls-6{fill:#ff8a14;}.cls-7{fill:#ffaa54;}.cls-8{fill:#e5f8ff;}</style></defs><title>573-red-wine-glass</title><g id="_Group_" data-name="&lt;Group&gt;"><ellipse id="_Ellipse_" data-name="&lt;Ellipse&gt;" class="cls-1" cx="24" cy="46.44" rx="10.38" ry="1.56"/><path id="_Path_" data-name="&lt;Path&gt;" class="cls-2" d="M34.11,44.12c-.62-1.18-3.72-2.13-7.74-2.41a1,1,0,0,1-.91-1V32.87H22.54v7.88a1,1,0,0,1-.91,1c-4,.28-7.12,1.23-7.74,2.41a.46.46,0,0,0,.23.62c1,.49,4,1.76,9.88,1.76s8.93-1.27,9.88-1.76A.46.46,0,0,0,34.11,44.12Z"/><g id="_Group_2" data-name="&lt;Group&gt;"><path id="_Path_2" data-name="&lt;Path&gt;" class="cls-3" d="M24,34.59c9.68,0,17.52-4.38,17.52-11.19,0-5.23-3-13.58-7.3-19.47C32.76,2.47,29.64,1.5,24,1.5s-8.76,1-10.22,2.43C9.47,9.82,6.48,18.17,6.48,23.4,6.48,30.21,14.32,34.59,24,34.59Z"/><path id="_Path_3" data-name="&lt;Path&gt;" class="cls-4" d="M10.31,30.64C22,25.48,30.94,14.71,36.2,7a34.37,34.37,0,0,0-2-3C32.76,2.47,29.64,1.5,24,1.5s-8.76,1-10.22,2.43C9.47,9.82,6.48,18.17,6.48,23.4A9.09,9.09,0,0,0,10.31,30.64Z"/><path id="_Path_4" data-name="&lt;Path&gt;" class="cls-3" d="M13.78,3.93c0,1.35,4.58,2.44,10.22,2.44S34.22,5.28,34.22,3.93C32.76,2.47,29.64,1.5,24,1.5S15.24,2.47,13.78,3.93Z"/><path id="_Path_5" data-name="&lt;Path&gt;" class="cls-5" d="M34.22,3.93c0,1.35-4.58,2.44-10.22,2.44S13.78,5.28,13.78,3.93"/><path id="_Path_6" data-name="&lt;Path&gt;" class="cls-5" d="M24,34.59c9.68,0,17.52-4.38,17.52-11.19,0-5.23-3-13.58-7.3-19.47C32.76,2.47,29.64,1.5,24,1.5s-8.76,1-10.22,2.43C9.47,9.82,6.48,18.17,6.48,23.4,6.48,30.21,14.32,34.59,24,34.59Z"/><g id="_Group_3" data-name="&lt;Group&gt;"><path id="_Path_7" data-name="&lt;Path&gt;" class="cls-6" d="M10.86,24.86s2.43-2.92,5.84-2.92,5.84,2.92,5.84,2.92Z"/><path id="_Path_8" data-name="&lt;Path&gt;" class="cls-6" d="M30.81,19.51c-4.86,0-8.27,5.35-14.6,5.35a26.76,26.76,0,0,1-7.29-1.11s0,.09,0,.14c0,4.56,6.76,8.27,15.09,8.27s15.09-3.71,15.09-8.27a12.25,12.25,0,0,0-.31-2.68A23.42,23.42,0,0,0,30.81,19.51Z"/><path id="_Path_9" data-name="&lt;Path&gt;" class="cls-7" d="M16.21,24.86a26.76,26.76,0,0,1-7.29-1.11s0,.09,0,.14c0,2.13,1.49,4.07,3.91,5.54a49.85,49.85,0,0,0,8.56-5.79A12.19,12.19,0,0,1,16.21,24.86Z"/></g></g><g id="_Group_4" data-name="&lt;Group&gt;"><circle id="_Ellipse_2" data-name="&lt;Ellipse&gt;" class="cls-8" cx="15.73" cy="11.72" r="1.95"/><circle id="_Ellipse_3" data-name="&lt;Ellipse&gt;" class="cls-8" cx="12.81" cy="14.64" r="0.97"/></g></g></svg>