<svg id="Icons" xmlns="http://www.w3.org/2000/svg" viewBox="0 0 48 48"><defs><style>.cls-1{fill:#45413c;opacity:0.15;}.cls-2,.cls-3{fill:#00b8f0;}.cls-2,.cls-5{stroke:#45413c;stroke-linecap:round;stroke-linejoin:round;}.cls-4{fill:#4acfff;}.cls-5{fill:none;}.cls-6{fill:#fff48c;}.cls-7{fill:#fffacf;}.cls-8{fill:#e5f8ff;}</style></defs><title>574-white-wine-glass</title><g id="_Group_" data-name="&lt;Group&gt;"><ellipse id="_Ellipse_" data-name="&lt;Ellipse&gt;" class="cls-1" cx="24" cy="45.41" rx="9.53" ry="1.59"/><g id="_Group_2" data-name="&lt;Group&gt;"><path id="_Path_" data-name="&lt;Path&gt;" class="cls-2" d="M22.27,30.24c1,4.16.69,11.16.69,11.16a.7.7,0,0,1-.65.69c-2.86.19-5.07.87-5.51,1.71a.33.33,0,0,0,.16.45c.67.35,2.84,1.25,7,1.25s6.37-.9,7-1.25a.33.33,0,0,0,.16-.45c-.44-.84-2.65-1.52-5.51-1.71A.7.7,0,0,1,25,41.4s-.35-7,.69-11.16Z"/><g id="_Group_3" data-name="&lt;Group&gt;"><g id="_Group_4" data-name="&lt;Group&gt;"><path id="_Path_2" data-name="&lt;Path&gt;" class="cls-3" d="M17.41,4.6c.69-1,2.95-1.39,6.59-1.39s5.9.35,6.59,1.39c1.53,1.77,3.47,14.45,3.47,17a10.06,10.06,0,1,1-20.12,0C13.94,19.05,15.88,6.37,17.41,4.6Z"/><path id="_Path_3" data-name="&lt;Path&gt;" class="cls-4" d="M16.94,28.73C26.29,24.41,30.36,15.27,32.1,8.91A13.41,13.41,0,0,0,30.59,4.6c-.69-1-2.95-1.39-6.59-1.39s-5.9.35-6.59,1.39c-1.53,1.77-3.47,14.45-3.47,17A10,10,0,0,0,16.94,28.73Z"/><path id="_Path_4" data-name="&lt;Path&gt;" class="cls-3" d="M24,6c3.64,0,6.59-.62,6.59-1.39-.69-1-2.95-1.39-6.59-1.39s-5.9.35-6.59,1.39C17.41,5.37,20.36,6,24,6Z"/><path id="_Path_5" data-name="&lt;Path&gt;" class="cls-5" d="M17.41,4.6c.69-1,2.95-1.39,6.59-1.39s5.9.35,6.59,1.39c1.53,1.77,3.47,14.45,3.47,17a10.06,10.06,0,1,1-20.12,0C13.94,19.05,15.88,6.37,17.41,4.6Z"/><path id="_Path_6" data-name="&lt;Path&gt;" class="cls-5" d="M30.59,4.6C30.59,5.37,27.64,6,24,6s-6.59-.62-6.59-1.39"/></g><g id="_Group_5" data-name="&lt;Group&gt;"><path id="_Path_7" data-name="&lt;Path&gt;" class="cls-6" d="M16.72,23s.69-2.78,4.51-2.78S26.08,23,26.08,23Z"/><path id="_Path_8" data-name="&lt;Path&gt;" class="cls-6" d="M32.32,21.57a8.32,8.32,0,0,1-16.64,0A13.63,13.63,0,0,0,20.53,23c2.08,0,4.86-2.78,6.94-2.78A13.63,13.63,0,0,1,32.32,21.57Z"/><path id="_Path_9" data-name="&lt;Path&gt;" class="cls-7" d="M18.59,27.89a25.25,25.25,0,0,0,8.33-7.64c-2,.39-4.48,2.71-6.39,2.71a13.63,13.63,0,0,1-4.85-1.39A8.31,8.31,0,0,0,18.59,27.89Z"/></g></g><g id="_Group_6" data-name="&lt;Group&gt;"><circle id="_Ellipse_2" data-name="&lt;Ellipse&gt;" class="cls-8" cx="19.84" cy="9.78" r="1.39"/><circle id="_Ellipse_3" data-name="&lt;Ellipse&gt;" class="cls-8" cx="17.76" cy="11.86" r="0.69"/></g></g></g></svg>