<svg id="Icons" xmlns="http://www.w3.org/2000/svg" viewBox="0 0 48 48"><defs><style>.cls-1{fill:#e5feff;}.cls-1,.cls-5,.cls-7{stroke:#45413c;stroke-linecap:round;stroke-linejoin:round;}.cls-2{fill:#ffe500;}.cls-3{fill:#fff48c;}.cls-4{fill:#45413c;opacity:0.15;}.cls-5{fill:none;}.cls-6{fill:#ebcb00;}.cls-7{fill:#fff;}</style></defs><title>577-beer-mug</title><g id="_Group_" data-name="&lt;Group&gt;"><path id="_Path_" data-name="&lt;Path&gt;" class="cls-1" d="M32.92,20.8v3.63h3.23a1.61,1.61,0,0,1,1.61,1.62v4.79a3.23,3.23,0,0,1-2,3L32.92,35v4.44l4.56-2a6.44,6.44,0,0,0,3.92-5.93V24.84a4,4,0,0,0-4-4Z"/><path id="_Path_2" data-name="&lt;Path&gt;" class="cls-2" d="M34.13,41.87h-23A4.13,4.13,0,0,0,12.34,39V17.17H32.92V39a4.17,4.17,0,0,0,1.21,2.92Z"/><path id="_Path_3" data-name="&lt;Path&gt;" class="cls-3" d="M22.43,17.17H12.34V39a4.13,4.13,0,0,1-1.21,2.92h11.3Z"/><ellipse id="_Ellipse_" data-name="&lt;Ellipse&gt;" class="cls-4" cx="22.63" cy="45.5" rx="14.5" ry="1.5"/><path id="_Path_4" data-name="&lt;Path&gt;" class="cls-5" d="M34.13,41.87h-23A4.13,4.13,0,0,0,12.34,39V17.17H32.92V39a4.17,4.17,0,0,0,1.21,2.92Z"/><circle id="_Path_5" data-name="&lt;Path&gt;" class="cls-6" cx="15.98" cy="26.45" r="1.21"/><circle id="_Path_6" data-name="&lt;Path&gt;" class="cls-6" cx="30.1" cy="23.22" r="0.81"/><circle id="_Path_7" data-name="&lt;Path&gt;" class="cls-7" cx="33.33" cy="8.52" r="1.15"/><circle id="_Path_8" data-name="&lt;Path&gt;" class="cls-7" cx="11.74" cy="8.33" r="1.01"/><path id="_Path_9" data-name="&lt;Path&gt;" class="cls-4" d="M12.34,19.62a3.28,3.28,0,0,0,.43,0,2.91,2.91,0,0,0,1.29-.3v2.88a1.08,1.08,0,1,0,2.15,0V19.45a4.25,4.25,0,0,0,1.29.21,4,4,0,0,0,.86-.1v5.26a1.94,1.94,0,0,0,3.87,0V19.66a5.52,5.52,0,0,0,3-.88,4.22,4.22,0,0,0,5.17,0,3,3,0,0,0,2.14.89,2.33,2.33,0,0,0,.38,0V17.17H12.34Z"/><g id="_Group_2" data-name="&lt;Group&gt;"><line id="_Path_10" data-name="&lt;Path&gt;" class="cls-5" x1="17.05" y1="1.11" x2="17.05" y2="0.5"/><line id="_Path_11" data-name="&lt;Path&gt;" class="cls-5" x1="18.34" y1="1.64" x2="18.76" y2="1.21"/><line id="_Path_12" data-name="&lt;Path&gt;" class="cls-5" x1="18.87" y1="2.92" x2="19.47" y2="2.92"/><line id="_Path_13" data-name="&lt;Path&gt;" class="cls-5" x1="18.34" y1="4.2" x2="18.76" y2="4.63"/><line id="_Path_14" data-name="&lt;Path&gt;" class="cls-5" x1="17.05" y1="4.74" x2="17.05" y2="5.34"/><line id="_Path_15" data-name="&lt;Path&gt;" class="cls-5" x1="15.77" y1="4.2" x2="15.34" y2="4.63"/><line id="_Path_16" data-name="&lt;Path&gt;" class="cls-5" x1="15.24" y1="2.92" x2="14.63" y2="2.92"/><line id="_Path_17" data-name="&lt;Path&gt;" class="cls-5" x1="15.77" y1="1.64" x2="15.34" y2="1.21"/></g><g id="_Group_3" data-name="&lt;Group&gt;"><line id="_Path_18" data-name="&lt;Path&gt;" class="cls-5" x1="26.66" y1="4.98" x2="26.66" y2="3.37"/><line id="_Path_19" data-name="&lt;Path&gt;" class="cls-5" x1="25.85" y1="4.18" x2="27.46" y2="4.18"/></g><path id="_Path_20" data-name="&lt;Path&gt;" class="cls-7" d="M35.55,15.14a3,3,0,0,0-3-3,3.08,3.08,0,0,0-.75.1,4.3,4.3,0,0,0-4-2.68,4.58,4.58,0,0,0-.83.08,5.58,5.58,0,0,0-9.46-.08h0a4.3,4.3,0,0,0-4,2.68,3.08,3.08,0,0,0-.75-.1,3,3,0,0,0,0,6,2.91,2.91,0,0,0,1.29-.3v2.88a1.08,1.08,0,0,0,2.15,0V17.94a4.25,4.25,0,0,0,1.29.21,4,4,0,0,0,.86-.1v5.26a1.94,1.94,0,0,0,3.87,0V18.15a5.52,5.52,0,0,0,3-.88,4.22,4.22,0,0,0,5.17,0,3,3,0,0,0,5.15-2.12Z"/><circle id="_Path_21" data-name="&lt;Path&gt;" class="cls-6" cx="28.08" cy="34.52" r="1.21"/><circle id="_Path_22" data-name="&lt;Path&gt;" class="cls-6" cx="18.4" cy="36.94" r="0.81"/><circle id="_Path_23" data-name="&lt;Path&gt;" class="cls-6" cx="14.77" cy="30.75" r="0.81"/><circle id="_Path_24" data-name="&lt;Path&gt;" class="cls-6" cx="25.66" cy="26.85" r="0.81"/><g id="_Group_4" data-name="&lt;Group&gt;"><path id="_Path_25" data-name="&lt;Path&gt;" class="cls-7" d="M21.85,31.3a1.61,1.61,0,1,1-3.21,0A10.45,10.45,0,0,1,20,28.22a.32.32,0,0,1,.27-.16.3.3,0,0,1,.26.16A10.19,10.19,0,0,1,21.85,31.3Z"/></g><path id="_Path_26" data-name="&lt;Path&gt;" class="cls-1" d="M35.75,43.68A1.79,1.79,0,0,1,34,45.5H11.28a1.82,1.82,0,0,1,0-3.63H34A1.79,1.79,0,0,1,35.75,43.68Z"/></g></svg>