<svg id="Icons" xmlns="http://www.w3.org/2000/svg" viewBox="0 0 48 48"><defs><style>.cls-1{fill:#45413c;opacity:0.15;}.cls-2,.cls-3{fill:#00b8f0;}.cls-2,.cls-5{stroke:#45413c;stroke-linecap:round;stroke-linejoin:round;}.cls-4{fill:#4acfff;}.cls-5{fill:none;}.cls-6{fill:#ffe500;}.cls-7{fill:#fff48c;}.cls-8{fill:#e5f8ff;}</style></defs><title>579-clinking-glasses-1</title><g id="_Group_" data-name="&lt;Group&gt;"><ellipse id="_Ellipse_" data-name="&lt;Ellipse&gt;" class="cls-1" cx="12.5" cy="45.5" rx="9" ry="1.5"/><ellipse id="_Ellipse_2" data-name="&lt;Ellipse&gt;" class="cls-1" cx="35.5" cy="45.5" rx="9" ry="1.5"/><g id="_Group_2" data-name="&lt;Group&gt;"><path id="_Path_" data-name="&lt;Path&gt;" class="cls-2" d="M12.15,31.08c.12,3.92-1.54,10.1-1.54,10.1a.63.63,0,0,1-.71.49c-2.59-.38-4.7-.2-5.25.46a.31.31,0,0,0,.06.43,14.28,14.28,0,0,0,6,2.48,14.38,14.38,0,0,0,6.53.24.32.32,0,0,0,.23-.37c-.23-.83-2.07-1.86-4.59-2.59a.63.63,0,0,1-.45-.74s1-6.31,2.77-9.83Z"/><g id="_Group_3" data-name="&lt;Group&gt;"><path id="_Path_2" data-name="&lt;Path&gt;" class="cls-3" d="M22.22,26.46c-.85,3.93-4.86,7-8.79,6.2S7.13,27.31,8,23.38L13.83,2.29,25.6,4.83Z"/><path id="_Path_3" data-name="&lt;Path&gt;" class="cls-4" d="M23.91,15.66,25.6,4.83,13.83,2.29,8,23.38a8,8,0,0,0-.08,2.85A39.78,39.78,0,0,0,23.91,15.66Z"/><path id="_Path_4" data-name="&lt;Path&gt;" class="cls-5" d="M22.22,26.46c-.85,3.93-4.86,7-8.79,6.2S7.13,27.31,8,23.38L13.83,2.29,25.6,4.83Z"/><path id="_Path_5" data-name="&lt;Path&gt;" class="cls-2" d="M25.6,4.83c-.15.68-2.9.67-6.15,0S13.69,3,13.83,2.29s2.91-.67,6.15,0S25.75,4.14,25.6,4.83Z"/></g><g id="_Group_4" data-name="&lt;Group&gt;"><path id="_Path_6" data-name="&lt;Path&gt;" class="cls-6" d="M11.46,19.27a2.73,2.73,0,0,1,2.81-1,4.72,4.72,0,0,1,3.07,2.28Z"/><path id="_Path_7" data-name="&lt;Path&gt;" class="cls-6" d="M20.81,25.5c-.67,3.08-4,6.27-7,5.61s-4.76-4.94-4.1-8L11,18.21s.42,1.06,2.59,1.53S16.81,18.48,19,19s2.59,1.53,2.59,1.53Z"/><path id="_Path_8" data-name="&lt;Path&gt;" class="cls-7" d="M20.13,19.31A6.84,6.84,0,0,0,19,19c-2.17-.47-3.19,1.26-5.35.79S11,18.21,11,18.21L9.66,23.09a7.33,7.33,0,0,0-.07,2.48A42.14,42.14,0,0,0,20.13,19.31Z"/></g><g id="_Group_5" data-name="&lt;Group&gt;"><path id="_Path_9" data-name="&lt;Path&gt;" class="cls-8" d="M17.78,8a1.26,1.26,0,1,1-1-1.51A1.26,1.26,0,0,1,17.78,8Z"/><path id="_Path_10" data-name="&lt;Path&gt;" class="cls-8" d="M14.91,9.32a.65.65,0,0,1-.76.49.63.63,0,1,1,.76-.49Z"/></g></g><g id="_Group_6" data-name="&lt;Group&gt;"><path id="_Path_11" data-name="&lt;Path&gt;" class="cls-2" d="M33,31.69c1.77,3.5,2.87,9.8,2.87,9.8a.64.64,0,0,1-.44.75c-2.51.75-4.34,1.8-4.56,2.64a.3.3,0,0,0,.23.36,14.39,14.39,0,0,0,6.52-.31,14.38,14.38,0,0,0,6-2.53.32.32,0,0,0,.06-.43c-.57-.66-2.67-.82-5.26-.42a.63.63,0,0,1-.72-.48S36,34.91,36.08,31Z"/><g id="_Group_7" data-name="&lt;Group&gt;"><path id="_Path_12" data-name="&lt;Path&gt;" class="cls-3" d="M40.17,23.25c.89,3.92-1.43,8.44-5.36,9.33s-8-2.19-8.85-6.11l-3.6-21.6L34.1,2.21Z"/><path id="_Path_13" data-name="&lt;Path&gt;" class="cls-4" d="M37.14,12.75l-3-10.54L22.36,4.87,26,26.47a8.08,8.08,0,0,0,1.13,2.61A39.69,39.69,0,0,0,37.14,12.75Z"/><path id="_Path_14" data-name="&lt;Path&gt;" class="cls-5" d="M40.17,23.25c.89,3.92-1.43,8.44-5.36,9.33s-8-2.19-8.85-6.11l-3.6-21.6L34.1,2.21Z"/><path id="_Path_15" data-name="&lt;Path&gt;" class="cls-2" d="M34.1,2.21c.16.68-2.34,1.83-5.59,2.57s-6,.77-6.15.09S24.71,3,28,2.31,34,1.53,34.1,2.21Z"/></g><g id="_Group_8" data-name="&lt;Group&gt;"><path id="_Path_16" data-name="&lt;Path&gt;" class="cls-6" d="M27.38,21.27a2.73,2.73,0,0,1,2.12-2.1,4.74,4.74,0,0,1,3.75.77Z"/><path id="_Path_17" data-name="&lt;Path&gt;" class="cls-6" d="M38.48,23c.7,3.07-.95,7.36-4,8.05s-6.4-2.46-7.1-5.53l-.81-5s.83.78,3,.29,2.36-2.48,4.52-3,3,.3,3,.3Z"/><path id="_Path_18" data-name="&lt;Path&gt;" class="cls-7" d="M35.26,17.65a6.52,6.52,0,0,0-1.2.16c-2.16.49-2.35,2.48-4.52,3s-3-.29-3-.29l.81,5a7.41,7.41,0,0,0,1,2.27A41.79,41.79,0,0,0,35.26,17.65Z"/></g><g id="_Group_9" data-name="&lt;Group&gt;"><path id="_Path_19" data-name="&lt;Path&gt;" class="cls-8" d="M28.36,8.39a1.27,1.27,0,0,1-1,1.51,1.27,1.27,0,0,1-.56-2.47A1.28,1.28,0,0,1,28.36,8.39Z"/><path id="_Path_20" data-name="&lt;Path&gt;" class="cls-8" d="M26.31,10.8a.64.64,0,0,1-1.24.28.64.64,0,1,1,1.24-.28Z"/></g></g></g></svg>