<svg id="Icons" xmlns="http://www.w3.org/2000/svg" viewBox="0 0 48 48"><defs><style>.cls-1{fill:#45413c;opacity:0.15;}.cls-2,.cls-3{fill:#00b8f0;}.cls-2,.cls-5{stroke:#45413c;stroke-linecap:round;stroke-linejoin:round;}.cls-4{fill:#4acfff;}.cls-5{fill:none;}.cls-6{fill:#ff8a14;}.cls-7{fill:#ffaa54;}.cls-8{fill:#e5f8ff;}</style></defs><title>583-clinking-glasses-5</title><g id="_Group_" data-name="&lt;Group&gt;"><ellipse id="_Ellipse_" data-name="&lt;Ellipse&gt;" class="cls-1" cx="11.67" cy="45.5" rx="9" ry="1.5"/><ellipse id="_Ellipse_2" data-name="&lt;Ellipse&gt;" class="cls-1" cx="37.8" cy="45.5" rx="9" ry="1.5"/><g id="_Group_2" data-name="&lt;Group&gt;"><path id="_Path_" data-name="&lt;Path&gt;" class="cls-2" d="M18.17,42.4c-.29-.93-2.4-2-5.26-2.76a.71.71,0,0,1-.54-.81l1.05-5.69-2.11-.38-1,5.68a.72.72,0,0,1-.79.58c-2.93-.34-5.3-.07-5.9.71a.34.34,0,0,0,.08.48c.62.47,2.65,1.79,6.9,2.57s6.61.27,7.37,0A.34.34,0,0,0,18.17,42.4Z"/><g id="_Group_3" data-name="&lt;Group&gt;"><path id="_Path_2" data-name="&lt;Path&gt;" class="cls-3" d="M12.11,34.35c7,1.29,13.22-.84,14.13-5.75.69-3.78-.36-10.2-2.69-15-.86-1.25-3-2.36-7.06-3.11s-6.45-.46-7.7.4C4.9,14.54,1.64,20.18,1,24,0,28.87,5.12,33.07,12.11,34.35Z"/><path id="_Path_3" data-name="&lt;Path&gt;" class="cls-4" d="M2.75,29.68c9.12-2.17,17-8.76,21.82-13.65-.31-.85-.65-1.67-1-2.45-.86-1.25-3-2.36-7.06-3.11s-6.45-.46-7.7.4C4.9,14.54,1.64,20.18,1,24A6.63,6.63,0,0,0,2.75,29.68Z"/><path id="_Path_4" data-name="&lt;Path&gt;" class="cls-3" d="M8.79,10.87c-.17,1,3,2.36,7.06,3.11s7.52.57,7.7-.4c-.86-1.25-3-2.36-7.06-3.11S10,10,8.79,10.87Z"/><path id="_Path_5" data-name="&lt;Path&gt;" class="cls-5" d="M23.55,13.58c-.18,1-3.63,1.15-7.7.4s-7.23-2.14-7.06-3.11"/><path id="_Path_6" data-name="&lt;Path&gt;" class="cls-5" d="M12.11,34.35c7,1.29,13.22-.84,14.13-5.75.69-3.78-.36-10.2-2.69-15-.86-1.25-3-2.36-7.06-3.11s-6.45-.46-7.7.4C4.9,14.54,1.64,20.18,1,24,0,28.87,5.12,33.07,12.11,34.35Z"/><g id="_Group_4" data-name="&lt;Group&gt;"><path id="_Path_7" data-name="&lt;Path&gt;" class="cls-6" d="M3.91,25.59a6.28,6.28,0,0,1,4.6-1.34,6.31,6.31,0,0,1,3.83,2.89Z"/><path id="_Path_8" data-name="&lt;Path&gt;" class="cls-6" d="M19,24.37c-3.51-.65-6.68,2.77-11.24,1.93a19.47,19.47,0,0,1-5.12-1.77c-.72,3.57,4.1,7,9.77,8.07,6,1.1,11.38-.68,12-4a9.29,9.29,0,0,0,.14-2A17,17,0,0,0,19,24.37Z"/><path id="_Path_9" data-name="&lt;Path&gt;" class="cls-7" d="M7.78,26.3a19.47,19.47,0,0,1-5.12-1.77c-.36,1.79.7,3.4,2.06,4.62a36.9,36.9,0,0,0,7-3A8.82,8.82,0,0,1,7.78,26.3Z"/></g></g><g id="_Group_5" data-name="&lt;Group&gt;"><circle id="_Ellipse_3" data-name="&lt;Ellipse&gt;" class="cls-8" cx="9.17" cy="16.75" r="1.43"/><path id="_Path_10" data-name="&lt;Path&gt;" class="cls-8" d="M7.37,18.6a.71.71,0,0,1-.83.57A.72.72,0,0,1,6,18.34a.71.71,0,0,1,.83-.57A.7.7,0,0,1,7.37,18.6Z"/></g></g><g id="_Group_6" data-name="&lt;Group&gt;"><path id="_Path_11" data-name="&lt;Path&gt;" class="cls-2" d="M45,34c-.64-.75-3-.93-5.93-.47a.72.72,0,0,1-.81-.54L37,27.35l-2.09.47,1.27,5.64a.7.7,0,0,1-.49.83c-2.84.85-4.9,2-5.15,3a.33.33,0,0,0,.26.41c.76.2,3.14.62,7.36-.33S44.34,35,45,34.48A.35.35,0,0,0,45,34Z"/><g id="_Group_7" data-name="&lt;Group&gt;"><path id="_Path_12" data-name="&lt;Path&gt;" class="cls-3" d="M36.27,29C43.2,27.41,48.1,23,47,18.13c-.84-3.74-4.33-9.24-8.36-12.75-1.28-.81-3.67-1-7.71-.09S24.81,7.4,24,8.68c-2.14,4.9-2.93,11.37-2.09,15.11C23,28.67,29.34,30.54,36.27,29Z"/><path id="_Path_13" data-name="&lt;Path&gt;" class="cls-4" d="M25.83,28.35C33.36,22.78,38,13.62,40.54,7.23a25.39,25.39,0,0,0-1.9-1.85c-1.28-.81-3.67-1-7.71-.09S24.81,7.4,24,8.68c-2.14,4.9-2.93,11.37-2.09,15.11A6.67,6.67,0,0,0,25.83,28.35Z"/><path id="_Path_14" data-name="&lt;Path&gt;" class="cls-3" d="M24,8.68c.21,1,3.66,1,7.7.09s7.14-2.43,6.93-3.39c-1.28-.81-3.67-1-7.71-.09S24.81,7.4,24,8.68Z"/><path id="_Path_15" data-name="&lt;Path&gt;" class="cls-5" d="M38.64,5.38c.21,1-2.89,2.48-6.93,3.39s-7.49.87-7.7-.09"/><path id="_Path_16" data-name="&lt;Path&gt;" class="cls-5" d="M36.27,29C43.2,27.41,48.1,23,47,18.13c-.84-3.74-4.33-9.24-8.36-12.75-1.28-.81-3.67-1-7.71-.09S24.81,7.4,24,8.68c-2.14,4.9-2.93,11.37-2.09,15.11C23,28.67,29.34,30.54,36.27,29Z"/><g id="_Group_8" data-name="&lt;Group&gt;"><path id="_Path_17" data-name="&lt;Path&gt;" class="cls-6" d="M25.29,24.13a6.27,6.27,0,0,1,3.71-3,6.27,6.27,0,0,1,4.65,1.14Z"/><path id="_Path_18" data-name="&lt;Path&gt;" class="cls-6" d="M38.71,17.08c-3.48.78-5.06,5.16-9.59,6.18a19.71,19.71,0,0,1-5.4.39c.75,3.58,6.55,4.85,12.16,3.58,6-1.34,10.2-5.08,9.46-8.35A8.65,8.65,0,0,0,44.69,17,17.18,17.18,0,0,0,38.71,17.08Z"/><path id="_Path_19" data-name="&lt;Path&gt;" class="cls-7" d="M29.12,23.26a19.71,19.71,0,0,1-5.4.39c.38,1.79,2,2.86,3.71,3.43a36.73,36.73,0,0,0,5.2-5.53A8.67,8.67,0,0,1,29.12,23.26Z"/></g></g><g id="_Group_9" data-name="&lt;Group&gt;"><path id="_Path_20" data-name="&lt;Path&gt;" class="cls-8" d="M28.05,13.62a1.43,1.43,0,1,1-1.71-1.08A1.43,1.43,0,0,1,28.05,13.62Z"/><path id="_Path_21" data-name="&lt;Path&gt;" class="cls-8" d="M25.73,16.34a.71.71,0,0,1-.54.86.72.72,0,0,1-.85-.54.71.71,0,1,1,1.39-.32Z"/></g></g></g></svg>