<svg id="Icons" xmlns="http://www.w3.org/2000/svg" viewBox="0 0 48 48"><defs><style>.cls-1{fill:#45413c;opacity:0.15;}.cls-2{fill:#8ca4b8;}.cls-3{fill:#adc4d9;}.cls-4{fill:none;}.cls-4,.cls-9{stroke:#45413c;stroke-linecap:round;stroke-linejoin:round;}.cls-5{fill:#fff;}.cls-6{fill:#e0e0e0;}.cls-7{fill:#00b8f0;}.cls-8{fill:#4acfff;}.cls-9{fill:#ff6242;}</style></defs><title>588-hospital</title><g id="_Group_" data-name="&lt;Group&gt;"><ellipse id="_Ellipse_" data-name="&lt;Ellipse&gt;" class="cls-1" cx="24" cy="45.5" rx="20.5" ry="1.5"/><rect id="_Rectangle_" data-name="&lt;Rectangle&gt;" class="cls-2" x="4" y="15" width="40" height="3" rx="1" ry="1"/><path id="_Path_" data-name="&lt;Path&gt;" class="cls-3" d="M43,15H5a1,1,0,0,0-1,1v1a1,1,0,0,0,0,.25,1,1,0,0,1,1-.75H43a1,1,0,0,1,1,.75A1,1,0,0,0,44,17V16A1,1,0,0,0,43,15Z"/><rect id="_Rectangle_2" data-name="&lt;Rectangle&gt;" class="cls-4" x="4" y="15" width="40" height="3" rx="1" ry="1"/><path id="_Rectangle_3" data-name="&lt;Rectangle&gt;" class="cls-5" d="M5,18H43a0,0,0,0,1,0,0V43.5a1,1,0,0,1-1,1H6a1,1,0,0,1-1-1V18A0,0,0,0,1,5,18Z"/><rect id="_Path_2" data-name="&lt;Path&gt;" class="cls-6" x="5" y="18" width="38" height="2.25"/><path id="_Rectangle_4" data-name="&lt;Rectangle&gt;" class="cls-4" d="M5,18H43a0,0,0,0,1,0,0V43.5a1,1,0,0,1-1,1H6a1,1,0,0,1-1-1V18A0,0,0,0,1,5,18Z"/><rect id="_Rectangle_5" data-name="&lt;Rectangle&gt;" class="cls-5" x="13.5" y="12.5" width="21" height="32"/><rect id="_Rectangle_6" data-name="&lt;Rectangle&gt;" class="cls-6" x="13.5" y="12.5" width="21" height="1.79"/><rect id="_Rectangle_7" data-name="&lt;Rectangle&gt;" class="cls-4" x="13.5" y="12.5" width="21" height="32"/><rect id="_Rectangle_8" data-name="&lt;Rectangle&gt;" class="cls-7" x="18" y="33.5" width="12" height="11"/><polygon id="_Path_3" data-name="&lt;Path&gt;" class="cls-8" points="20.44 44.5 25.64 44.5 30 33.93 30 33.5 24.97 33.5 20.44 44.5"/><rect id="_Rectangle_9" data-name="&lt;Rectangle&gt;" class="cls-4" x="18" y="33.5" width="12" height="11"/><rect id="_Rectangle_10" data-name="&lt;Rectangle&gt;" class="cls-2" x="17" y="30" width="14" height="3.5" rx="1" ry="1"/><path id="_Path_4" data-name="&lt;Path&gt;" class="cls-3" d="M30,30H18a1,1,0,0,0-1,1v1.5a.53.53,0,0,0,0,.12,1,1,0,0,1,1-.87H30a1,1,0,0,1,1,.87.53.53,0,0,0,0-.12V31A1,1,0,0,0,30,30Z"/><rect id="_Rectangle_11" data-name="&lt;Rectangle&gt;" class="cls-4" x="17" y="30" width="14" height="3.5" rx="1" ry="1"/><rect id="_Rectangle_12" data-name="&lt;Rectangle&gt;" class="cls-2" x="12.5" y="9.5" width="23" height="3" rx="1" ry="1"/><path id="_Path_5" data-name="&lt;Path&gt;" class="cls-3" d="M34.5,9.5h-21a1,1,0,0,0-1,1v1a1,1,0,0,0,.05.25A1,1,0,0,1,13.5,11h21a1,1,0,0,1,1,.75,1,1,0,0,0,0-.25v-1A1,1,0,0,0,34.5,9.5Z"/><rect id="_Rectangle_13" data-name="&lt;Rectangle&gt;" class="cls-4" x="12.5" y="9.5" width="23" height="3" rx="1" ry="1"/><path id="_Path_6" data-name="&lt;Path&gt;" class="cls-9" d="M27.5,19H26a.5.5,0,0,1-.5-.5V17a.5.5,0,0,0-.5-.5H23a.5.5,0,0,0-.5.5v1.5a.5.5,0,0,1-.5.5H20.5a.5.5,0,0,0-.5.5v2a.5.5,0,0,0,.5.5H22a.5.5,0,0,1,.5.5V24a.5.5,0,0,0,.5.5h2a.5.5,0,0,0,.5-.5V22.5A.5.5,0,0,1,26,22h1.5a.5.5,0,0,0,.5-.5v-2A.5.5,0,0,0,27.5,19Z"/><rect id="_Rectangle_14" data-name="&lt;Rectangle&gt;" class="cls-7" x="8" y="20.5" width="2.5" height="4.5" rx="0.5" ry="0.5"/><path id="_Path_7" data-name="&lt;Path&gt;" class="cls-8" d="M8.5,25H10a.5.5,0,0,0,.5-.5V21a.5.5,0,0,0-.11-.3L8.17,24.87A.49.49,0,0,0,8.5,25Z"/><rect id="_Rectangle_15" data-name="&lt;Rectangle&gt;" class="cls-7" x="8" y="27.5" width="2.5" height="4.5" rx="0.5" ry="0.5"/><path id="_Path_8" data-name="&lt;Path&gt;" class="cls-8" d="M8.5,32H10a.5.5,0,0,0,.5-.5V28a.5.5,0,0,0-.11-.3L8.17,31.87A.49.49,0,0,0,8.5,32Z"/><rect id="_Rectangle_16" data-name="&lt;Rectangle&gt;" class="cls-7" x="8" y="34.5" width="2.5" height="4.5" rx="0.5" ry="0.5"/><path id="_Path_9" data-name="&lt;Path&gt;" class="cls-8" d="M8.5,39H10a.5.5,0,0,0,.5-.5V35a.5.5,0,0,0-.11-.3L8.17,38.87A.49.49,0,0,0,8.5,39Z"/><rect id="_Rectangle_17" data-name="&lt;Rectangle&gt;" class="cls-4" x="8" y="20.5" width="2.5" height="4.5" rx="0.5" ry="0.5"/><rect id="_Rectangle_18" data-name="&lt;Rectangle&gt;" class="cls-4" x="8" y="27.5" width="2.5" height="4.5" rx="0.5" ry="0.5"/><rect id="_Rectangle_19" data-name="&lt;Rectangle&gt;" class="cls-4" x="8" y="34.5" width="2.5" height="4.5" rx="0.5" ry="0.5"/><rect id="_Rectangle_20" data-name="&lt;Rectangle&gt;" class="cls-7" x="37.5" y="20.5" width="2.5" height="4.5" rx="0.5" ry="0.5"/><path id="_Path_10" data-name="&lt;Path&gt;" class="cls-8" d="M38,25h1.5a.5.5,0,0,0,.5-.5V21a.5.5,0,0,0-.11-.3l-2.22,4.17A.49.49,0,0,0,38,25Z"/><rect id="_Rectangle_21" data-name="&lt;Rectangle&gt;" class="cls-7" x="37.5" y="27.5" width="2.5" height="4.5" rx="0.5" ry="0.5"/><path id="_Path_11" data-name="&lt;Path&gt;" class="cls-8" d="M38,32h1.5a.5.5,0,0,0,.5-.5V28a.5.5,0,0,0-.11-.3l-2.22,4.17A.49.49,0,0,0,38,32Z"/><rect id="_Rectangle_22" data-name="&lt;Rectangle&gt;" class="cls-7" x="37.5" y="34.5" width="2.5" height="4.5" rx="0.5" ry="0.5"/><path id="_Path_12" data-name="&lt;Path&gt;" class="cls-8" d="M38,39h1.5a.5.5,0,0,0,.5-.5V35a.5.5,0,0,0-.11-.3l-2.22,4.17A.49.49,0,0,0,38,39Z"/><rect id="_Rectangle_23" data-name="&lt;Rectangle&gt;" class="cls-4" x="37.5" y="20.5" width="2.5" height="4.5" rx="0.5" ry="0.5"/><rect id="_Rectangle_24" data-name="&lt;Rectangle&gt;" class="cls-4" x="37.5" y="27.5" width="2.5" height="4.5" rx="0.5" ry="0.5"/><rect id="_Rectangle_25" data-name="&lt;Rectangle&gt;" class="cls-4" x="37.5" y="34.5" width="2.5" height="4.5" rx="0.5" ry="0.5"/><line id="_Path_13" data-name="&lt;Path&gt;" class="cls-4" x1="24" y1="33.5" x2="24" y2="44.5"/></g></svg>