<svg id="Icons" xmlns="http://www.w3.org/2000/svg" viewBox="0 0 48 48"><defs><style>.cls-1{fill:#45413c;opacity:0.15;}.cls-2{fill:#fcd;}.cls-3{fill:#ffb0ca;}.cls-4{fill:none;}.cls-10,.cls-11,.cls-12,.cls-4{stroke:#45413c;stroke-linecap:round;stroke-linejoin:round;}.cls-12,.cls-5{fill:#ffe5ee;}.cls-10,.cls-6{fill:#00b8f0;}.cls-7{fill:#4acfff;}.cls-11,.cls-8{fill:#ff6242;}.cls-9{fill:#ff866e;}.cls-13{fill:#ff87af;}</style></defs><title>589-love-hotel</title><g id="_Group_" data-name="&lt;Group&gt;"><ellipse id="_Ellipse_" data-name="&lt;Ellipse&gt;" class="cls-1" cx="24" cy="45.5" rx="18.5" ry="1.5"/><path id="_Rectangle_" data-name="&lt;Rectangle&gt;" class="cls-2" d="M24.75,13.5h16a0,0,0,0,1,0,0V44a.5.5,0,0,1-.5.5H24.75a0,0,0,0,1,0,0v-31A0,0,0,0,1,24.75,13.5Z"/><rect id="_Path_" data-name="&lt;Path&gt;" class="cls-3" x="24.75" y="13.5" width="16" height="1.91"/><path id="_Rectangle_2" data-name="&lt;Rectangle&gt;" class="cls-4" d="M24.75,13.5h16a0,0,0,0,1,0,0V44a.5.5,0,0,1-.5.5H24.75a0,0,0,0,1,0,0v-31A0,0,0,0,1,24.75,13.5Z"/><path id="_Path_2" data-name="&lt;Path&gt;" class="cls-2" d="M7.25,44.5h17.5v-23h-17a1,1,0,0,0-1,1V44A.5.5,0,0,0,7.25,44.5Z"/><path id="_Path_3" data-name="&lt;Path&gt;" class="cls-5" d="M7.75,21.5a1,1,0,0,0-1,1v2.29a1,1,0,0,1,1-1h17V21.5Z"/><path id="_Rectangle_3" data-name="&lt;Rectangle&gt;" class="cls-4" d="M7.75,21.5h17a0,0,0,0,1,0,0v23a0,0,0,0,1,0,0H7.25a.5.5,0,0,1-.5-.5V22.5A1,1,0,0,1,7.75,21.5Z"/><rect id="_Rectangle_4" data-name="&lt;Rectangle&gt;" class="cls-6" x="29.75" y="37.5" width="6" height="7"/><polygon id="_Path_4" data-name="&lt;Path&gt;" class="cls-7" points="30.07 44.5 35.75 44.5 35.75 37.5 33.35 37.5 30.07 44.5"/><rect id="_Rectangle_5" data-name="&lt;Rectangle&gt;" class="cls-4" x="29.75" y="37.5" width="6" height="7"/><path class="cls-8" d="M32.75,33.5a4,4,0,0,0-4,4h8A4,4,0,0,0,32.75,33.5Z"/><path id="_Path_5" data-name="&lt;Path&gt;" class="cls-9" d="M32.75,35.5a4,4,0,0,1,3.45,2h.55a4,4,0,0,0-8,0h.55A4,4,0,0,1,32.75,35.5Z"/><path class="cls-4" d="M32.75,33.5a4,4,0,0,0-4,4h8A4,4,0,0,0,32.75,33.5Z"/><rect id="_Rectangle_6" data-name="&lt;Rectangle&gt;" class="cls-6" x="9.25" y="38.5" width="13" height="3"/><polygon id="_Path_6" data-name="&lt;Path&gt;" class="cls-7" points="17.13 41.5 22.25 41.5 22.25 38.5 18.54 38.5 17.13 41.5"/><rect id="_Rectangle_7" data-name="&lt;Rectangle&gt;" class="cls-4" x="9.25" y="38.5" width="13" height="3"/><rect id="_Rectangle_8" data-name="&lt;Rectangle&gt;" class="cls-10" x="9.25" y="32.08" width="2.59" height="3"/><rect id="_Rectangle_9" data-name="&lt;Rectangle&gt;" class="cls-10" x="14.45" y="32.08" width="2.59" height="3"/><rect id="_Rectangle_10" data-name="&lt;Rectangle&gt;" class="cls-10" x="19.66" y="32.08" width="2.59" height="3"/><rect id="_Rectangle_11" data-name="&lt;Rectangle&gt;" class="cls-10" x="9.25" y="25.75" width="2.59" height="3"/><rect id="_Rectangle_12" data-name="&lt;Rectangle&gt;" class="cls-10" x="14.45" y="25.75" width="2.59" height="3"/><rect id="_Rectangle_13" data-name="&lt;Rectangle&gt;" class="cls-10" x="19.66" y="25.75" width="2.59" height="3"/><rect id="_Rectangle_14" data-name="&lt;Rectangle&gt;" class="cls-10" x="28.26" y="28.08" width="2.59" height="3"/><rect id="_Rectangle_15" data-name="&lt;Rectangle&gt;" class="cls-10" x="34.97" y="28.08" width="2.59" height="3"/><rect id="_Rectangle_16" data-name="&lt;Rectangle&gt;" class="cls-10" x="28.26" y="22.29" width="2.59" height="3"/><rect id="_Rectangle_17" data-name="&lt;Rectangle&gt;" class="cls-10" x="34.97" y="22.29" width="2.59" height="3"/><rect id="_Rectangle_18" data-name="&lt;Rectangle&gt;" class="cls-10" x="28.26" y="16.66" width="2.59" height="3"/><rect id="_Rectangle_19" data-name="&lt;Rectangle&gt;" class="cls-10" x="34.97" y="16.66" width="2.59" height="3"/><path class="cls-11" d="M40.25,11.5h-15a1,1,0,0,0,0,2h15a1,1,0,0,0,0-2Z"/><path id="_Rectangle_20" data-name="&lt;Rectangle&gt;" class="cls-12" d="M10.75,19h10a1,1,0,0,1,1,1v1.5a0,0,0,0,1,0,0h-12a0,0,0,0,1,0,0V20A1,1,0,0,1,10.75,19Z"/><line id="_Path_7" data-name="&lt;Path&gt;" class="cls-4" x1="32.75" y1="37.5" x2="32.75" y2="44.5"/><path class="cls-13" d="M14.89,10.46a2.12,2.12,0,0,0-1.16-1.39,2.08,2.08,0,0,0-2.52.64l-.6.79-.91-.41a2.08,2.08,0,0,0-2.89,2.4A4.33,4.33,0,0,0,9,15.24L12.23,17l2.06-3.06A4.31,4.31,0,0,0,14.89,10.46Z"/><path id="_Path_8" data-name="&lt;Path&gt;" class="cls-3" d="M11.21,12.2l-.6.8-.91-.42a2.07,2.07,0,0,0-2.58.73,4.47,4.47,0,0,1-.31-.82,2.08,2.08,0,0,1,2.89-2.4l.91.41.6-.79a2.08,2.08,0,0,1,2.52-.64,2.12,2.12,0,0,1,1.16,1.39,4.34,4.34,0,0,1-.08,2.29A2.07,2.07,0,0,0,11.21,12.2Z"/><path class="cls-4" d="M14.89,10.46a2.12,2.12,0,0,0-1.16-1.39,2.08,2.08,0,0,0-2.52.64l-.6.79-.91-.41a2.08,2.08,0,0,0-2.89,2.4A4.33,4.33,0,0,0,9,15.24L12.23,17l2.06-3.06A4.31,4.31,0,0,0,14.89,10.46Z"/><path class="cls-13" d="M25.6,3.37a2.6,2.6,0,0,0-3.14-.82l-1.14.5-.75-1a2.6,2.6,0,0,0-4.6.89,5.34,5.34,0,0,0,.71,4.31L19.2,11.1,23.3,9A5.4,5.4,0,0,0,26,5.58,2.61,2.61,0,0,0,25.6,3.37Z"/><path id="_Path_9" data-name="&lt;Path&gt;" class="cls-3" d="M25.87,6a2.58,2.58,0,0,0-3.41-1.29l-1.14.5-.75-1a2.6,2.6,0,0,0-4.66,1.18A5.49,5.49,0,0,1,16,2.94a2.6,2.6,0,0,1,4.6-.89l.75,1,1.14-.5a2.6,2.6,0,0,1,3.57,3C26,5.73,25.92,5.86,25.87,6Z"/><path class="cls-4" d="M25.6,3.37a2.6,2.6,0,0,0-3.14-.82l-1.14.5-.75-1a2.6,2.6,0,0,0-4.6.89,5.34,5.34,0,0,0,.71,4.31L19.2,11.1,23.3,9A5.4,5.4,0,0,0,26,5.58,2.61,2.61,0,0,0,25.6,3.37Z"/></g></svg>