<svg id="Icons" xmlns="http://www.w3.org/2000/svg" viewBox="0 0 48 48"><defs><style>.cls-1{fill:#45413c;opacity:0.15;}.cls-2,.cls-8{fill:#fff;}.cls-3{fill:#f0f0f0;}.cls-4{fill:none;}.cls-11,.cls-12,.cls-4,.cls-7,.cls-8{stroke:#45413c;stroke-linecap:round;stroke-linejoin:round;}.cls-5{fill:#00b8f0;}.cls-6{fill:#009fd9;}.cls-7{fill:#ff6242;}.cls-9{fill:#b89558;}.cls-10{fill:#debb7e;}.cls-11{fill:#00dfeb;}.cls-12{fill:#e0e0e0;}</style></defs><title>590-factory</title><path id="_Path_" data-name="&lt;Path&gt;" class="cls-1" d="M46.25,45.7c0,1-10,1.3-22.25,1.3S1.75,46.69,1.75,45.7s10-1.81,22.25-1.81S46.25,44.7,46.25,45.7Z"/><rect id="_Rectangle_" data-name="&lt;Rectangle&gt;" class="cls-2" x="2.95" y="2.95" width="42.1" height="42.1" rx="3.61" ry="3.61"/><path id="_Path_2" data-name="&lt;Path&gt;" class="cls-3" d="M41.44,42H6.56A3.61,3.61,0,0,1,3,38.43v3a3.61,3.61,0,0,0,3.61,3.61H41.44a3.61,3.61,0,0,0,3.61-3.61v-3A3.61,3.61,0,0,1,41.44,42Z"/><rect id="_Rectangle_2" data-name="&lt;Rectangle&gt;" class="cls-4" x="2.95" y="2.95" width="42.1" height="42.1" rx="3.61" ry="3.61"/><rect id="_Rectangle_3" data-name="&lt;Rectangle&gt;" class="cls-5" x="5.96" y="5.96" width="36.08" height="36.08" rx="1.2" ry="1.2"/><path id="_Path_3" data-name="&lt;Path&gt;" class="cls-6" d="M40.84,39H7.16A1.2,1.2,0,0,1,6,37.83v3A1.2,1.2,0,0,0,7.16,42H40.84a1.2,1.2,0,0,0,1.2-1.2v-3A1.2,1.2,0,0,1,40.84,39Z"/><rect id="_Rectangle_4" data-name="&lt;Rectangle&gt;" class="cls-4" x="5.96" y="5.96" width="36.08" height="36.08" rx="1.2" ry="1.2"/><polygon id="_Path_4" data-name="&lt;Path&gt;" class="cls-7" points="14.36 29.99 9.58 29.99 10.19 14.35 13.76 14.35 14.36 29.99"/><polygon id="_Path_5" data-name="&lt;Path&gt;" class="cls-7" points="26.39 29.99 21.61 29.99 22.21 14.35 25.79 14.35 26.39 29.99"/><polygon id="_Path_6" data-name="&lt;Path&gt;" class="cls-7" points="38.42 29.99 33.64 29.99 34.24 14.35 37.81 14.35 38.42 29.99"/><polygon id="_Path_7" data-name="&lt;Path&gt;" class="cls-8" points="9.86 22.7 14.08 22.7 13.9 18.09 10.04 18.09 9.86 22.7"/><polygon id="_Path_8" data-name="&lt;Path&gt;" class="cls-8" points="21.89 22.7 26.11 22.7 25.93 18.09 22.07 18.09 21.89 22.7"/><polygon id="_Path_9" data-name="&lt;Path&gt;" class="cls-8" points="33.92 22.7 38.14 22.7 37.96 18.09 34.1 18.09 33.92 22.7"/><path id="_Path_10" data-name="&lt;Path&gt;" class="cls-9" d="M41.15,23.78,30,29.83V24.31a.59.59,0,0,0-.88-.53L18,29.83V24.31a.6.6,0,0,0-.89-.53L6,29.83v11A1.2,1.2,0,0,0,7.16,42H40.84a1.2,1.2,0,0,0,1.2-1.2V24.31A.6.6,0,0,0,41.15,23.78Z"/><g id="_Group_" data-name="&lt;Group&gt;"><path id="_Path_11" data-name="&lt;Path&gt;" class="cls-10" d="M18,33,29.13,27a.59.59,0,0,1,.88.52V24.31a.59.59,0,0,0-.88-.53L18,29.83Z"/><path id="_Path_12" data-name="&lt;Path&gt;" class="cls-10" d="M18,27.5V24.31a.6.6,0,0,0-.89-.53L6,29.83V33L17.1,27A.6.6,0,0,1,18,27.5Z"/><path id="_Path_13" data-name="&lt;Path&gt;" class="cls-10" d="M41.15,23.78,30,29.83V33L41.15,27a.6.6,0,0,1,.89.52V24.31A.6.6,0,0,0,41.15,23.78Z"/></g><path id="_Path_14" data-name="&lt;Path&gt;" class="cls-4" d="M41.15,23.78,30,29.83V24.31a.59.59,0,0,0-.88-.53L18,29.83V24.31a.6.6,0,0,0-.89-.53L6,29.83v11A1.2,1.2,0,0,0,7.16,42H40.84a1.2,1.2,0,0,0,1.2-1.2V24.31A.6.6,0,0,0,41.15,23.78Z"/><rect id="_Rectangle_5" data-name="&lt;Rectangle&gt;" class="cls-11" x="9.58" y="33.44" width="2.53" height="8.6"/><rect id="_Rectangle_6" data-name="&lt;Rectangle&gt;" class="cls-11" x="15.31" y="33.44" width="2.53" height="8.6"/><rect id="_Rectangle_7" data-name="&lt;Rectangle&gt;" class="cls-11" x="30.16" y="33.44" width="2.53" height="8.6"/><rect id="_Rectangle_8" data-name="&lt;Rectangle&gt;" class="cls-11" x="35.89" y="33.44" width="2.53" height="8.6"/><path id="_Path_15" data-name="&lt;Path&gt;" class="cls-12" d="M11,6A4.76,4.76,0,0,0,12,8.13a2,2,0,1,0,2.87,1.64,5,5,0,0,0,.78.07A4.81,4.81,0,0,0,20.38,6Z"/><path id="_Path_16" data-name="&lt;Path&gt;" class="cls-12" d="M22.84,6A4.86,4.86,0,0,0,23.9,8.13a2,2,0,1,0,2.88,1.64,4.92,4.92,0,0,0,.78.07A4.8,4.8,0,0,0,32.27,6Z"/><path id="_Path_17" data-name="&lt;Path&gt;" class="cls-12" d="M40.84,6h-6.1A4.76,4.76,0,0,0,35.8,8.13a2,2,0,1,0,2.87,1.64,5,5,0,0,0,.78.07A4.77,4.77,0,0,0,42,9.08V7.16A1.2,1.2,0,0,0,40.84,6Z"/></svg>