<svg id="Icons" xmlns="http://www.w3.org/2000/svg" viewBox="0 0 48 48"><defs><style>.cls-1{fill:#45413c;opacity:0.15;}.cls-2,.cls-9{fill:#fff;}.cls-3{fill:#f0f0f0;}.cls-4{fill:none;}.cls-4,.cls-9{stroke:#45413c;stroke-linecap:round;stroke-linejoin:round;}.cls-5{fill:#00b8f0;}.cls-6{fill:#009fd9;}.cls-7{fill:#ff6242;}.cls-8{fill:#e04122;}.cls-10{fill:#ff866e;}</style></defs><title>596-ferris-wheel</title><g id="_Group_" data-name="&lt;Group&gt;"><path id="_Path_" data-name="&lt;Path&gt;" class="cls-1" d="M46.25,45.7c0,1-10,1.3-22.25,1.3S1.75,46.69,1.75,45.7s10-1.81,22.25-1.81S46.25,44.7,46.25,45.7Z"/><rect id="_Rectangle_" data-name="&lt;Rectangle&gt;" class="cls-2" x="2.95" y="2.95" width="42.09" height="42.09" rx="3.61" ry="3.61"/><path id="_Path_2" data-name="&lt;Path&gt;" class="cls-3" d="M41.44,42H6.56A3.61,3.61,0,0,1,3,38.43v3a3.61,3.61,0,0,0,3.61,3.61H41.44a3.61,3.61,0,0,0,3.61-3.61v-3A3.61,3.61,0,0,1,41.44,42Z"/><rect id="_Rectangle_2" data-name="&lt;Rectangle&gt;" class="cls-4" x="2.95" y="2.95" width="42.09" height="42.09" rx="3.61" ry="3.61"/><rect id="_Rectangle_3" data-name="&lt;Rectangle&gt;" class="cls-5" x="5.96" y="5.96" width="36.08" height="36.08" rx="1.2" ry="1.2"/><path id="_Path_3" data-name="&lt;Path&gt;" class="cls-6" d="M40.84,39H7.16A1.2,1.2,0,0,1,6,37.83v3A1.2,1.2,0,0,0,7.16,42H40.84a1.2,1.2,0,0,0,1.2-1.2v-3A1.2,1.2,0,0,1,40.84,39Z"/><rect id="_Rectangle_4" data-name="&lt;Rectangle&gt;" class="cls-4" x="5.96" y="5.96" width="36.08" height="36.08" rx="1.2" ry="1.2"/><polygon id="_Path_4" data-name="&lt;Path&gt;" class="cls-7" points="21.59 24 13.78 42.04 18.59 42.04 24 26.41 29.41 42.04 34.22 42.04 26.41 24 21.59 24"/><g id="_Group_2" data-name="&lt;Group&gt;"><polygon id="_Path_5" data-name="&lt;Path&gt;" class="cls-8" points="15.08 39.03 13.78 42.04 18.59 42.04 19.63 39.03 15.08 39.03"/><polygon id="_Path_6" data-name="&lt;Path&gt;" class="cls-8" points="28.37 39.03 29.41 42.04 34.22 42.04 32.92 39.03 28.37 39.03"/></g><polygon id="_Path_7" data-name="&lt;Path&gt;" class="cls-4" points="21.59 23.85 13.78 41.89 18.59 41.89 24 26.26 29.41 41.89 34.22 41.89 26.41 23.85 21.59 23.85"/><path id="_Compound_Path_" data-name="&lt;Compound Path&gt;" class="cls-9" d="M24,11.37A12.63,12.63,0,1,0,36.63,24,12.64,12.64,0,0,0,24,11.37Zm0,22.25A9.62,9.62,0,1,1,33.62,24,9.62,9.62,0,0,1,24,33.62Z"/><circle id="_Path_8" data-name="&lt;Path&gt;" class="cls-7" cx="24" cy="13.18" r="3.01"/><circle id="_Path_9" data-name="&lt;Path&gt;" class="cls-7" cx="24" cy="35.43" r="3.01"/><path id="_Path_10" data-name="&lt;Path&gt;" class="cls-7" d="M15.87,16.13a3,3,0,1,1-4.11,1.1A3,3,0,0,1,15.87,16.13Z"/><path id="_Path_11" data-name="&lt;Path&gt;" class="cls-7" d="M35.14,27.26A3,3,0,1,1,31,28.36,3,3,0,0,1,35.14,27.26Z"/><path id="_Path_12" data-name="&lt;Path&gt;" class="cls-7" d="M12.86,27.26a3,3,0,1,1-1.1,4.11A3,3,0,0,1,12.86,27.26Z"/><path id="_Path_13" data-name="&lt;Path&gt;" class="cls-7" d="M32.13,16.13A3,3,0,1,1,31,20.24,3,3,0,0,1,32.13,16.13Z"/><path id="_Path_14" data-name="&lt;Path&gt;" class="cls-10" d="M24,12.27a3,3,0,0,1,2.82,2A3.05,3.05,0,0,0,27,13.18a3,3,0,0,0-6,0,3.05,3.05,0,0,0,.19,1.05A3,3,0,0,1,24,12.27Z"/><path id="_Path_15" data-name="&lt;Path&gt;" class="cls-10" d="M24,34.52a3,3,0,0,1,2.82,2,3.05,3.05,0,0,0,.19-1,3,3,0,0,0-6,0,3.05,3.05,0,0,0,.19,1A3,3,0,0,1,24,34.52Z"/><path id="_Path_16" data-name="&lt;Path&gt;" class="cls-10" d="M11.76,19.34a3,3,0,0,1,4.11-1.1,3,3,0,0,1,1.31,1.55,3,3,0,1,0-5.63,0A4.54,4.54,0,0,1,11.76,19.34Z"/><path id="_Path_17" data-name="&lt;Path&gt;" class="cls-7" d="M31,30.46a3,3,0,0,1,5.42.45,3,3,0,1,0-5.63,0A3.82,3.82,0,0,1,31,30.46Z"/><path id="_Path_18" data-name="&lt;Path&gt;" class="cls-10" d="M12.86,29.36A3,3,0,0,1,17,30.46a3.82,3.82,0,0,1,.21.46,3,3,0,1,0-5.63,0A3,3,0,0,1,12.86,29.36Z"/><path id="_Path_19" data-name="&lt;Path&gt;" class="cls-10" d="M32.13,18.24a3,3,0,0,1,4.11,1.1,4.54,4.54,0,0,1,.21.45,3,3,0,1,0-5.63,0A3,3,0,0,1,32.13,18.24Z"/><circle id="_Path_20" data-name="&lt;Path&gt;" class="cls-7" cx="24" cy="24" r="2.41"/><path id="_Path_21" data-name="&lt;Path&gt;" class="cls-10" d="M24,23.4A2.41,2.41,0,0,1,26.26,25a2.54,2.54,0,0,0,.15-.83,2.41,2.41,0,0,0-4.82,0,2.54,2.54,0,0,0,.15.83A2.41,2.41,0,0,1,24,23.4Z"/><circle id="_Path_22" data-name="&lt;Path&gt;" class="cls-4" cx="24" cy="13.18" r="3.01"/><path id="_Path_23" data-name="&lt;Path&gt;" class="cls-4" d="M15.87,16.13a3,3,0,1,1-4.11,1.1A3,3,0,0,1,15.87,16.13Z"/><path id="_Path_24" data-name="&lt;Path&gt;" class="cls-4" d="M35.14,27.26A3,3,0,1,1,31,28.36,3,3,0,0,1,35.14,27.26Z"/><path id="_Path_25" data-name="&lt;Path&gt;" class="cls-4" d="M12.86,27.26a3,3,0,1,1-1.1,4.11A3,3,0,0,1,12.86,27.26Z"/><path id="_Path_26" data-name="&lt;Path&gt;" class="cls-4" d="M32.13,16.13A3,3,0,1,1,31,20.24,3,3,0,0,1,32.13,16.13Z"/><circle id="_Path_27" data-name="&lt;Path&gt;" class="cls-4" cx="24" cy="24.15" r="2.41"/><line id="_Path_28" data-name="&lt;Path&gt;" class="cls-4" x1="24" y1="16.18" x2="24" y2="21.59"/><line id="_Path_29" data-name="&lt;Path&gt;" class="cls-4" x1="17.39" y1="20.39" x2="21.59" y2="22.8"/><line id="_Path_30" data-name="&lt;Path&gt;" class="cls-4" x1="26.41" y1="22.8" x2="30.61" y2="20.39"/><line id="_Path_31" data-name="&lt;Path&gt;" class="cls-4" x1="21.59" y1="25.8" x2="17.39" y2="28.21"/><line id="_Path_32" data-name="&lt;Path&gt;" class="cls-4" x1="26.41" y1="25.8" x2="30.61" y2="28.21"/><circle id="_Path_33" data-name="&lt;Path&gt;" class="cls-4" cx="24" cy="35.43" r="3.01"/></g></svg>