<svg id="Icons" xmlns="http://www.w3.org/2000/svg" viewBox="0 0 48 48"><defs><style>.cls-1{fill:#45413c;opacity:0.15;}.cls-2{fill:#daedf7;}.cls-11,.cls-3{fill:#fff;}.cls-4{fill:none;}.cls-10,.cls-11,.cls-4,.cls-6{stroke:#45413c;stroke-linecap:round;stroke-linejoin:round;}.cls-5{fill:#c0dceb;}.cls-6{fill:#6dd627;}.cls-7{fill:#e0e0e0;}.cls-8{fill:#00b8f0;}.cls-9{fill:#009fd9;}.cls-10{fill:#ff6242;}</style></defs><title>598-barber-pole</title><g id="_Group_" data-name="&lt;Group&gt;"><ellipse id="_Ellipse_" data-name="&lt;Ellipse&gt;" class="cls-1" cx="24" cy="45.35" rx="12.64" ry="1.65"/><circle id="_Path_" data-name="&lt;Path&gt;" class="cls-2" cx="24" cy="12.52" r="8.79"/><g id="_Group_2" data-name="&lt;Group&gt;"><path id="_Path_2" data-name="&lt;Path&gt;" class="cls-3" d="M24,6.48c4.68,0,8.49,2.91,8.77,6.58,0-.18,0-.36,0-.54a8.79,8.79,0,0,0-17.58,0c0,.18,0,.36,0,.54C15.51,9.39,19.32,6.48,24,6.48Z"/></g><circle id="_Path_3" data-name="&lt;Path&gt;" class="cls-4" cx="24" cy="12.52" r="8.79"/><circle id="_Path_4" data-name="&lt;Path&gt;" class="cls-2" cx="24" cy="36.71" r="8.79"/><path id="_Path_5" data-name="&lt;Path&gt;" class="cls-5" d="M17.35,42.47h13.3a8.8,8.8,0,0,0,1.88-3.64H15.47A8.8,8.8,0,0,0,17.35,42.47Z"/><circle id="_Path_6" data-name="&lt;Path&gt;" class="cls-4" cx="24" cy="36.71" r="8.79"/><rect id="_Rectangle_" data-name="&lt;Rectangle&gt;" class="cls-6" x="15.21" y="13.07" width="17.59" height="23.63"/><rect id="_Rectangle_2" data-name="&lt;Rectangle&gt;" class="cls-3" x="15.21" y="13.07" width="17.59" height="23.63"/><rect id="_Rectangle_3" data-name="&lt;Rectangle&gt;" class="cls-7" x="15.21" y="13.07" width="17.59" height="3.64"/><rect id="_Rectangle_4" data-name="&lt;Rectangle&gt;" class="cls-4" x="15.21" y="13.07" width="17.59" height="23.63"/><path class="cls-2" d="M32.79,36.71H15.21a1.65,1.65,0,1,0,0,3.29H32.79a1.65,1.65,0,1,0,0-3.29Z"/><path id="_Path_7" data-name="&lt;Path&gt;" class="cls-3" d="M15.21,38.4H32.79a1.65,1.65,0,0,1,1.41.81,1.64,1.64,0,0,0-1.41-2.5H15.21a1.64,1.64,0,0,0-1.41,2.5A1.65,1.65,0,0,1,15.21,38.4Z"/><path class="cls-4" d="M32.79,36.71H15.21a1.65,1.65,0,1,0,0,3.29H32.79a1.65,1.65,0,1,0,0-3.29Z"/><path class="cls-2" d="M32.79,9.78H15.21a1.65,1.65,0,1,0,0,3.29H32.79a1.65,1.65,0,1,0,0-3.29Z"/><path id="_Path_8" data-name="&lt;Path&gt;" class="cls-3" d="M15.21,11.42H32.79a1.68,1.68,0,0,1,1.43.84,1.67,1.67,0,0,0,.22-.84,1.64,1.64,0,0,0-1.65-1.64H15.21a1.65,1.65,0,0,0-1.43,2.47A1.67,1.67,0,0,1,15.21,11.42Z"/><path class="cls-4" d="M32.79,9.78H15.21a1.65,1.65,0,1,0,0,3.29H32.79a1.65,1.65,0,1,0,0-3.29Z"/><polygon id="_Path_9" data-name="&lt;Path&gt;" class="cls-8" points="15.21 13.07 15.21 14.72 32.79 28.46 32.79 20.77 22.95 13.07 15.21 13.07"/><polygon id="_Path_10" data-name="&lt;Path&gt;" class="cls-9" points="27.6 16.71 22.95 13.07 15.21 13.07 15.21 14.72 17.75 16.71 27.6 16.71"/><polygon id="_Path_11" data-name="&lt;Path&gt;" class="cls-4" points="15.21 13.07 15.21 14.72 32.79 28.46 32.79 20.77 22.95 13.07 15.21 13.07"/><polygon id="_Path_12" data-name="&lt;Path&gt;" class="cls-10" points="15.21 29.56 24.35 36.71 32.79 36.71 32.79 35.61 15.21 21.87 15.21 29.56"/><polygon id="_Path_13" data-name="&lt;Path&gt;" class="cls-11" points="15.21 14.72 32.79 28.46 32.79 35.61 15.21 21.87 15.21 14.72"/></g></svg>