<svg id="Icons" xmlns="http://www.w3.org/2000/svg" viewBox="0 0 48 48"><defs><style>.cls-1{fill:#f7e5c6;}.cls-2{fill:#fff5e3;}.cls-3{fill:none;stroke:#45413c;stroke-linecap:round;stroke-linejoin:round;}.cls-4{fill:#45413c;opacity:0.15;}.cls-5{fill:#f0d5a8;}.cls-6{fill:#ff6242;}.cls-7{fill:#ff8a14;}.cls-8{fill:#6dd627;}.cls-9{fill:#ffe500;}.cls-10{fill:#e04122;}.cls-11{fill:#eb6d00;}.cls-12{fill:#46b000;}.cls-13{fill:#ebcb00;}.cls-14{fill:#4acfff;}.cls-15{fill:#80ddff;}.cls-16{fill:#daedf7;}.cls-17{fill:#e8f4fa;}</style></defs><title>600-artist-palette</title><path id="_Path_" data-name="&lt;Path&gt;" class="cls-1" d="M37.53,12.15a4.52,4.52,0,0,1-.81-4.43,6.94,6.94,0,0,1,3.63-3.63A3.31,3.31,0,0,0,42,1.67s3.3,4.58,1.61,8.47c-1.61,3.69-4,2.82-4,2.82Z"/><path id="_Path_2" data-name="&lt;Path&gt;" class="cls-2" d="M40.35,4.09a7,7,0,0,0-3.59,3.55,5,5,0,0,1,3.71.08,5,5,0,0,1,3,2.59l.08-.17C45.27,6.25,42,1.67,42,1.67A3.31,3.31,0,0,1,40.35,4.09Z"/><path id="_Path_3" data-name="&lt;Path&gt;" class="cls-3" d="M37.53,12.15a4.52,4.52,0,0,1-.81-4.43,6.94,6.94,0,0,1,3.63-3.63A3.31,3.31,0,0,0,42,1.67s3.3,4.58,1.61,8.47c-1.61,3.69-4,2.82-4,2.82Z"/><path id="_Path_4" data-name="&lt;Path&gt;" class="cls-3" d="M39.3,12.73a7.13,7.13,0,0,0,2.28-3.44"/><path id="_Path_5" data-name="&lt;Path&gt;" class="cls-3" d="M38.32,12.42a6.89,6.89,0,0,1,.44-3.66"/><ellipse id="_Ellipse_" data-name="&lt;Ellipse&gt;" class="cls-4" cx="24" cy="45.5" rx="11.5" ry="1.5"/><path id="_Compound_Path_" data-name="&lt;Compound Path&gt;" class="cls-5" d="M21,6.61c-9.67,0-17.5,4.72-17.5,13v.07A3.82,3.82,0,0,0,9.24,22.9l3.12-1.74a1.1,1.1,0,0,1,1.47,1.53l-4.32,7a3.46,3.46,0,0,0,1.39,4.93,19.58,19.58,0,0,0,8.63,2c9.66,0,17.5-6.71,17.5-15S30.69,6.61,21,6.61Zm-3,26.5c-1.66,0-3-1-3-2.25s1.34-2.25,3-2.25,3,1,3,2.25S19.68,33.11,18,33.11Z"/><path id="_Path_6" data-name="&lt;Path&gt;" class="cls-1" d="M21,9.61c9,0,15.15,5.87,15.91,13.41A13.18,13.18,0,0,0,37,21.61c0-8.28-6.34-15-16-15s-17.5,4.72-17.5,13v.07a3.6,3.6,0,0,0,.16,1.05C4.79,13.62,12.12,9.61,21,9.61Z"/><path id="_Compound_Path_2" data-name="&lt;Compound Path&gt;" class="cls-3" d="M21,6.61c-9.67,0-17.5,4.72-17.5,13v.07A3.82,3.82,0,0,0,9.24,22.9l3.12-1.74a1.1,1.1,0,0,1,1.47,1.53l-4.32,7a3.46,3.46,0,0,0,1.39,4.93,19.58,19.58,0,0,0,8.63,2c9.66,0,17.5-6.71,17.5-15S30.69,6.61,21,6.61Zm-3,26.5c-1.66,0-3-1-3-2.25s1.34-2.25,3-2.25,3,1,3,2.25S19.68,33.11,18,33.11Z"/><ellipse id="_Path_7" data-name="&lt;Path&gt;" class="cls-6" cx="28.38" cy="27.36" rx="3.15" ry="2.25"/><ellipse id="_Path_8" data-name="&lt;Path&gt;" class="cls-7" cx="29.78" cy="17.32" rx="2.75" ry="2.29"/><ellipse id="_Path_9" data-name="&lt;Path&gt;" class="cls-8" cx="11.23" cy="14.36" rx="2.7" ry="2.25"/><ellipse id="_Path_10" data-name="&lt;Path&gt;" class="cls-9" cx="20.95" cy="11.86" rx="2.93" ry="2.25"/><path id="_Path_11" data-name="&lt;Path&gt;" class="cls-10" d="M28.38,26.48a3.19,3.19,0,0,1,3,1.57,1.67,1.67,0,0,0,.17-.69c0-1.24-1.41-2.25-3.15-2.25s-3.15,1-3.15,2.25a1.66,1.66,0,0,0,.16.69A3.2,3.2,0,0,1,28.38,26.48Z"/><path id="_Path_12" data-name="&lt;Path&gt;" class="cls-11" d="M29.78,16.4A2.72,2.72,0,0,1,32.39,18a1.92,1.92,0,0,0,.14-.68A2.55,2.55,0,0,0,29.78,15,2.55,2.55,0,0,0,27,17.32a1.72,1.72,0,0,0,.14.68A2.72,2.72,0,0,1,29.78,16.4Z"/><path id="_Path_13" data-name="&lt;Path&gt;" class="cls-12" d="M11.23,13.48a2.68,2.68,0,0,1,2.56,1.57,2,2,0,0,0,.14-.69,2.51,2.51,0,0,0-2.7-2.25,2.51,2.51,0,0,0-2.7,2.25,1.81,1.81,0,0,0,.14.69A2.67,2.67,0,0,1,11.23,13.48Z"/><path id="_Path_14" data-name="&lt;Path&gt;" class="cls-13" d="M21,11a2.94,2.94,0,0,1,2.78,1.57,1.82,1.82,0,0,0,.15-.69c0-1.24-1.31-2.25-2.93-2.25S18,10.62,18,11.86a1.82,1.82,0,0,0,.15.69A2.93,2.93,0,0,1,21,11Z"/><ellipse id="_Path_15" data-name="&lt;Path&gt;" class="cls-3" cx="28.38" cy="27.36" rx="3.15" ry="2.25"/><ellipse id="_Path_16" data-name="&lt;Path&gt;" class="cls-3" cx="29.78" cy="17.32" rx="2.75" ry="2.29"/><ellipse id="_Path_17" data-name="&lt;Path&gt;" class="cls-3" cx="11.23" cy="14.36" rx="2.7" ry="2.25"/><ellipse id="_Path_18" data-name="&lt;Path&gt;" class="cls-3" cx="20.95" cy="11.86" rx="2.93" ry="2.25"/><path class="cls-14" d="M37.34,17.16a2.24,2.24,0,0,0-2.71,1.23l-.52,1.19a61.12,61.12,0,0,0-3.63,10.87L27.57,42.92a1.62,1.62,0,0,0,3.08,1L35.38,32a62,62,0,0,0,3.24-11l.25-1.27A2.23,2.23,0,0,0,37.34,17.16Z"/><path id="_Path_19" data-name="&lt;Path&gt;" class="cls-15" d="M29.35,44,32.26,31.5a62.31,62.31,0,0,1,3.63-10.88l.52-1.18a2.23,2.23,0,0,1,2.16-1.33,2.19,2.19,0,0,0-1.23-.95,2.24,2.24,0,0,0-2.71,1.23l-.52,1.19a61.12,61.12,0,0,0-3.63,10.87L27.57,42.92a1.62,1.62,0,0,0,1.09,1.91,1.59,1.59,0,0,0,.75,0A1.55,1.55,0,0,1,29.35,44Z"/><path class="cls-3" d="M37.34,17.16a2.24,2.24,0,0,0-2.71,1.23l-.52,1.19a61.12,61.12,0,0,0-3.63,10.87L27.57,42.92a1.62,1.62,0,0,0,3.08,1L35.38,32a62,62,0,0,0,3.24-11l.25-1.27A2.23,2.23,0,0,0,37.34,17.16Z"/><path id="_Path_20" data-name="&lt;Path&gt;" class="cls-16" d="M38.52,19.62a.49.49,0,0,0,.65-.43,18.06,18.06,0,0,1,.51-3.33,9.3,9.3,0,0,1,1-2.07c.23-.35-.08-.84-.63-1L37.6,12c-.55-.18-1.08.05-1.1.47a8.85,8.85,0,0,1-.33,2.29,18.06,18.06,0,0,1-1.49,3,.5.5,0,0,0,.29.73Z"/><path id="_Path_21" data-name="&lt;Path&gt;" class="cls-17" d="M36.14,18.5a17.68,17.68,0,0,0,1.49-3A9.3,9.3,0,0,0,38,13.19c0-.42.54-.64,1.09-.47l1.65.52a1.08,1.08,0,0,0-.62-.46L37.6,12c-.56-.18-1.08.05-1.1.47a8.85,8.85,0,0,1-.33,2.29,18.06,18.06,0,0,1-1.49,3,.5.5,0,0,0,.29.73l1.12.35A.51.51,0,0,1,36.14,18.5Z"/><path id="_Path_22" data-name="&lt;Path&gt;" class="cls-3" d="M38.52,19.62a.49.49,0,0,0,.65-.43,18.06,18.06,0,0,1,.51-3.33,9.3,9.3,0,0,1,1-2.07c.23-.35-.08-.84-.63-1L37.6,12c-.55-.18-1.08.05-1.1.47a8.85,8.85,0,0,1-.33,2.29,18.06,18.06,0,0,1-1.49,3,.5.5,0,0,0,.29.73Z"/></svg>