<svg id="Icons" xmlns="http://www.w3.org/2000/svg" viewBox="0 0 48 48"><defs><style>.cls-1{fill:#45413c;opacity:0.15;}.cls-2{fill:#8ca4b8;}.cls-3{fill:#adc4d9;}.cls-4{fill:none;}.cls-10,.cls-12,.cls-4{stroke:#45413c;stroke-linecap:round;stroke-linejoin:round;}.cls-5{fill:#ff6242;}.cls-6{fill:#e04122;}.cls-12,.cls-7{fill:#656769;}.cls-8{fill:#87898c;}.cls-9{fill:#ff866e;}.cls-10,.cls-13{fill:#ffe500;}.cls-11{fill:#525252;}.cls-14{fill:#fff48c;}.cls-15{fill:#00b8f0;}.cls-16{fill:#4acfff;}</style></defs><title>602-locomotive</title><g id="_Group_" data-name="&lt;Group&gt;"><ellipse id="_Ellipse_" data-name="&lt;Ellipse&gt;" class="cls-1" cx="24.5" cy="42.5" rx="19.5" ry="1.5"/><rect id="_Rectangle_" data-name="&lt;Rectangle&gt;" class="cls-2" x="7.5" y="32.5" width="35.5" height="6"/><rect id="_Rectangle_2" data-name="&lt;Rectangle&gt;" class="cls-3" x="7.5" y="32.5" width="35.5" height="2.56"/><rect id="_Rectangle_3" data-name="&lt;Rectangle&gt;" class="cls-4" x="7.5" y="32.5" width="35.5" height="6"/><path id="_Path_" data-name="&lt;Path&gt;" class="cls-5" d="M41.5,32.5H26V14H43.5a3.61,3.61,0,0,0-2,3.24Z"/><path id="_Path_2" data-name="&lt;Path&gt;" class="cls-6" d="M43.5,14H26v3H41.52A3.61,3.61,0,0,1,43.5,14Z"/><path id="_Path_3" data-name="&lt;Path&gt;" class="cls-4" d="M41.5,32.5H26V14H43.5a3.61,3.61,0,0,0-2,3.24Z"/><rect id="_Rectangle_4" data-name="&lt;Rectangle&gt;" class="cls-7" x="17.5" y="20" width="8.5" height="12.5"/><rect id="_Path_4" data-name="&lt;Path&gt;" class="cls-8" x="17.5" y="20" width="8.5" height="2.25"/><rect id="_Rectangle_5" data-name="&lt;Rectangle&gt;" class="cls-4" x="17.5" y="20" width="8.5" height="12.5"/><path id="_Rectangle_6" data-name="&lt;Rectangle&gt;" class="cls-5" d="M26,9H43.5a1,1,0,0,1,1,1v3.5a.5.5,0,0,1-.5.5H25.5a.5.5,0,0,1-.5-.5V10A1,1,0,0,1,26,9Z"/><path id="_Path_5" data-name="&lt;Path&gt;" class="cls-9" d="M43.5,9H26a1,1,0,0,0-1,1v2.5a1,1,0,0,1,1-1H43.5a1,1,0,0,1,1,1V10A1,1,0,0,0,43.5,9Z"/><path id="_Rectangle_7" data-name="&lt;Rectangle&gt;" class="cls-4" d="M26,9H43.5a1,1,0,0,1,1,1v3.5a.5.5,0,0,1-.5.5H25.5a.5.5,0,0,1-.5-.5V10A1,1,0,0,1,26,9Z"/><path id="_Rectangle_8" data-name="&lt;Rectangle&gt;" class="cls-7" d="M9,19h8a.5.5,0,0,1,.5.5v13a0,0,0,0,1,0,0h-9a0,0,0,0,1,0,0v-13A.5.5,0,0,1,9,19Z"/><path id="_Path_6" data-name="&lt;Path&gt;" class="cls-8" d="M17,19H9a.5.5,0,0,0-.5.5v2.25a.5.5,0,0,1,.5-.5h8a.5.5,0,0,1,.5.5V19.5A.5.5,0,0,0,17,19Z"/><path id="_Rectangle_9" data-name="&lt;Rectangle&gt;" class="cls-4" d="M9,19h8a.5.5,0,0,1,.5.5v13a0,0,0,0,1,0,0h-9a0,0,0,0,1,0,0v-13A.5.5,0,0,1,9,19Z"/><path id="_Rectangle_10" data-name="&lt;Rectangle&gt;" class="cls-10" d="M10,9.5H16a.53.53,0,0,1,.53.53V13.5a0,0,0,0,1,0,0h-7a0,0,0,0,1,0,0V10A.53.53,0,0,1,10,9.5Z"/><polygon id="_Path_7" data-name="&lt;Path&gt;" class="cls-7" points="9.5 13.5 11 16.5 11 19 15 19 15 16.5 16.5 13.5 9.5 13.5"/><polygon id="_Path_8" data-name="&lt;Path&gt;" class="cls-11" points="15.6 15.29 16.5 13.5 9.5 13.5 10.4 15.29 15.6 15.29"/><polygon id="_Path_9" data-name="&lt;Path&gt;" class="cls-4" points="9.5 13.5 11 16.5 11 19 15 19 15 16.5 16.5 13.5 9.5 13.5"/><path id="_Path_10" data-name="&lt;Path&gt;" class="cls-12" d="M8.5,20A8.56,8.56,0,0,0,6,26.5c0,4.44,2.5,6,2.5,6Z"/><line id="_Path_11" data-name="&lt;Path&gt;" class="cls-4" x1="9" y1="11.5" x2="17" y2="11.5"/><path class="cls-7" d="M21.75,16.5A1.75,1.75,0,0,0,20,18.25V20h3.5V18.25A1.75,1.75,0,0,0,21.75,16.5Z"/><path id="_Path_12" data-name="&lt;Path&gt;" class="cls-8" d="M21.75,16.5A1.75,1.75,0,0,0,20,18.25V20a1.75,1.75,0,0,1,3.5,0V18.25A1.75,1.75,0,0,0,21.75,16.5Z"/><path class="cls-4" d="M21.75,16.5A1.75,1.75,0,0,0,20,18.25V20h3.5V18.25A1.75,1.75,0,0,0,21.75,16.5Z"/><rect id="_Rectangle_11" data-name="&lt;Rectangle&gt;" class="cls-13" x="17.5" y="20" width="2" height="12.5"/><rect id="_Rectangle_12" data-name="&lt;Rectangle&gt;" class="cls-13" x="24" y="20" width="2" height="12.5"/><rect id="_Rectangle_13" data-name="&lt;Rectangle&gt;" class="cls-14" x="17.5" y="20" width="2" height="2.25"/><rect id="_Rectangle_14" data-name="&lt;Rectangle&gt;" class="cls-14" x="24" y="20" width="2" height="2.25"/><rect id="_Rectangle_15" data-name="&lt;Rectangle&gt;" class="cls-4" x="17.5" y="20" width="2" height="12.5"/><rect id="_Rectangle_16" data-name="&lt;Rectangle&gt;" class="cls-4" x="24" y="20" width="2" height="12.5"/><path id="_Rectangle_17" data-name="&lt;Rectangle&gt;" class="cls-15" d="M30.5,16.5h5a2,2,0,0,1,2,2V24a.5.5,0,0,1-.5.5H29a.5.5,0,0,1-.5-.5V18.5A2,2,0,0,1,30.5,16.5Z"/><path class="cls-16" d="M34.47,16.5h-4a2,2,0,0,0-2,2V24a.5.5,0,0,0,.5.5h2.53Z"/><path id="_Rectangle_18" data-name="&lt;Rectangle&gt;" class="cls-4" d="M30.5,16.5h5a2,2,0,0,1,2,2V24a.5.5,0,0,1-.5.5H29a.5.5,0,0,1-.5-.5V18.5A2,2,0,0,1,30.5,16.5Z"/><rect id="_Rectangle_19" data-name="&lt;Rectangle&gt;" class="cls-10" x="26" y="27" width="15.5" height="3"/><circle id="_Path_13" data-name="&lt;Path&gt;" class="cls-5" cx="28.5" cy="38" r="4"/><circle id="_Path_14" data-name="&lt;Path&gt;" class="cls-5" cx="36.5" cy="38" r="4"/><path id="_Path_15" data-name="&lt;Path&gt;" class="cls-9" d="M28.5,35.43a4,4,0,0,1,3.93,3.28A4.17,4.17,0,0,0,32.5,38a4,4,0,0,0-8,0,4.17,4.17,0,0,0,.07.71A4,4,0,0,1,28.5,35.43Z"/><path id="_Path_16" data-name="&lt;Path&gt;" class="cls-9" d="M36.5,35.43a4,4,0,0,1,3.93,3.28A4.17,4.17,0,0,0,40.5,38a4,4,0,0,0-8,0,4.17,4.17,0,0,0,.07.71A4,4,0,0,1,36.5,35.43Z"/><circle id="_Path_17" data-name="&lt;Path&gt;" class="cls-4" cx="28.5" cy="38" r="4"/><circle id="_Path_18" data-name="&lt;Path&gt;" class="cls-4" cx="36.5" cy="38" r="4"/><circle id="_Path_19" data-name="&lt;Path&gt;" class="cls-5" cx="17" cy="39.5" r="2.5"/><circle id="_Path_20" data-name="&lt;Path&gt;" class="cls-5" cx="12" cy="39.5" r="2.5"/><path id="_Path_21" data-name="&lt;Path&gt;" class="cls-9" d="M17,38.5a2.49,2.49,0,0,1,2.37,1.75,2.36,2.36,0,0,0,.13-.75,2.5,2.5,0,0,0-5,0,2.36,2.36,0,0,0,.13.75A2.49,2.49,0,0,1,17,38.5Z"/><path id="_Path_22" data-name="&lt;Path&gt;" class="cls-9" d="M12,38.5a2.49,2.49,0,0,1,2.37,1.75,2.36,2.36,0,0,0,.13-.75,2.5,2.5,0,0,0-5,0,2.36,2.36,0,0,0,.13.75A2.49,2.49,0,0,1,12,38.5Z"/><circle id="_Path_23" data-name="&lt;Path&gt;" class="cls-4" cx="17" cy="39.5" r="2.5"/><circle id="_Path_24" data-name="&lt;Path&gt;" class="cls-4" cx="12" cy="39.5" r="2.5"/><rect id="_Rectangle_20" data-name="&lt;Rectangle&gt;" class="cls-2" x="43" y="32.5" width="2" height="4.5"/><rect id="_Rectangle_21" data-name="&lt;Rectangle&gt;" class="cls-3" x="43" y="32.5" width="2" height="1.5"/><rect id="_Rectangle_22" data-name="&lt;Rectangle&gt;" class="cls-4" x="43" y="32.5" width="2" height="4.5"/><polygon id="_Path_25" data-name="&lt;Path&gt;" class="cls-5" points="7.5 32.5 7.5 40.5 2.5 40.5 7.5 32.5"/><polygon id="_Path_26" data-name="&lt;Path&gt;" class="cls-9" points="2.5 40.5 4.06 40.5 7.5 35 7.5 32.5 2.5 40.5"/><polygon id="_Path_27" data-name="&lt;Path&gt;" class="cls-4" points="7.5 32.5 7.5 40.5 2.5 40.5 7.5 32.5"/><line id="_Path_28" data-name="&lt;Path&gt;" class="cls-4" x1="7.5" y1="36.5" x2="5" y2="40.5"/><line id="_Path_29" data-name="&lt;Path&gt;" class="cls-4" x1="12" y1="37" x2="12" y2="42"/><line id="_Path_30" data-name="&lt;Path&gt;" class="cls-4" x1="9.5" y1="39.5" x2="14.5" y2="39.5"/><line id="_Path_31" data-name="&lt;Path&gt;" class="cls-4" x1="15.5" y1="38" x2="18.5" y2="41"/><line id="_Path_32" data-name="&lt;Path&gt;" class="cls-4" x1="15.5" y1="41" x2="18.5" y2="38"/><path id="_Rectangle_23" data-name="&lt;Rectangle&gt;" class="cls-2" d="M18,32.5h6.5a0,0,0,0,1,0,0V38a1,1,0,0,1-1,1H19a1,1,0,0,1-1-1V32.5A0,0,0,0,1,18,32.5Z"/><rect id="_Path_33" data-name="&lt;Path&gt;" class="cls-3" x="18" y="32.5" width="6.5" height="2.56"/><path id="_Rectangle_24" data-name="&lt;Rectangle&gt;" class="cls-4" d="M18,32.5h6.5a0,0,0,0,1,0,0V38a1,1,0,0,1-1,1H19a1,1,0,0,1-1-1V32.5A0,0,0,0,1,18,32.5Z"/><line id="_Path_34" data-name="&lt;Path&gt;" class="cls-4" x1="28.5" y1="34" x2="28.5" y2="42"/><line id="_Path_35" data-name="&lt;Path&gt;" class="cls-4" x1="25.04" y1="36" x2="31.96" y2="40"/><line id="_Path_36" data-name="&lt;Path&gt;" class="cls-4" x1="25.04" y1="40" x2="31.96" y2="36"/><line id="_Path_37" data-name="&lt;Path&gt;" class="cls-4" x1="36.5" y1="42" x2="36.5" y2="34"/><line id="_Path_38" data-name="&lt;Path&gt;" class="cls-4" x1="39.96" y1="40" x2="33.04" y2="36"/><line id="_Path_39" data-name="&lt;Path&gt;" class="cls-4" x1="39.96" y1="36" x2="33.04" y2="40"/><path id="_Path_40" data-name="&lt;Path&gt;" class="cls-10" d="M37,38H24.5V36H37a1,1,0,0,1,1,1h0A1,1,0,0,1,37,38Z"/></g></svg>