<svg id="Icons" xmlns="http://www.w3.org/2000/svg" viewBox="0 0 48 48"><defs><style>.cls-1{fill:#00b8f0;}.cls-2{fill:#4acfff;}.cls-3{fill:none;}.cls-10,.cls-11,.cls-13,.cls-3,.cls-9{stroke:#45413c;stroke-linecap:round;stroke-linejoin:round;}.cls-4{fill:#45413c;opacity:0.15;}.cls-5{fill:#ffe500;}.cls-6,.cls-9{fill:#fff48c;}.cls-7{fill:#656769;}.cls-8{fill:#87898c;}.cls-10{fill:#ff8a14;}.cls-11{fill:#ff6242;}.cls-12{fill:#525252;}.cls-13{fill:#daedf7;}</style></defs><title>605-bus</title><g id="_Group_" data-name="&lt;Group&gt;"><path id="_Path_" data-name="&lt;Path&gt;" class="cls-1" d="M4.1,13.89s-.75,3.87-1,7.29a37.36,37.36,0,0,0,0,6.24h5.2V13.89Z"/><path id="_Path_2" data-name="&lt;Path&gt;" class="cls-2" d="M3,25.53c0,1.16.11,1.89.11,1.89h5.2V17.22Z"/><path id="_Path_3" data-name="&lt;Path&gt;" class="cls-3" d="M4.1,13.89s-.75,3.87-1,7.29a37.36,37.36,0,0,0,0,6.24h5.2V13.89Z"/><ellipse id="_Ellipse_" data-name="&lt;Ellipse&gt;" class="cls-4" cx="24" cy="42.44" rx="21.32" ry="1.56"/><path id="_Path_4" data-name="&lt;Path&gt;" class="cls-5" d="M44.92,34.18H2.54V27.42a1,1,0,0,1,1-1h.65a1,1,0,0,0,1-.9l1.36-10a.52.52,0,0,0-.51-.59H3.65a.52.52,0,0,1-.52-.58l.22-1.75a2.08,2.08,0,0,1,2.07-1.83H41.8a3.12,3.12,0,0,1,3.12,3.12Z"/><g id="_Group_2" data-name="&lt;Group&gt;"><path id="_Path_5" data-name="&lt;Path&gt;" class="cls-6" d="M41.8,10.77H5.42A2.08,2.08,0,0,0,3.35,12.6l-.22,1.75a.53.53,0,0,0,.29.53,2.08,2.08,0,0,1,2-1.51H41.8a3.12,3.12,0,0,1,3.12,3.12v-2.6A3.12,3.12,0,0,0,41.8,10.77Z"/></g><path id="_Path_6" data-name="&lt;Path&gt;" class="cls-3" d="M44.92,34.18H2.54V27.42a1,1,0,0,1,1-1h.65a1,1,0,0,0,1-.9l1.36-10a.52.52,0,0,0-.51-.59H3.65a.52.52,0,0,1-.52-.58l.22-1.75a2.08,2.08,0,0,1,2.07-1.83H41.8a3.12,3.12,0,0,1,3.12,3.12Z"/><path id="_Rectangle_" data-name="&lt;Rectangle&gt;" class="cls-7" d="M2.54,34.18H44.92a.52.52,0,0,1,.52.52v2.6a1,1,0,0,1-1,1H3.06a1,1,0,0,1-1-1V34.7A.52.52,0,0,1,2.54,34.18Z"/><path id="_Path_7" data-name="&lt;Path&gt;" class="cls-8" d="M44.92,34.18H2.54A.52.52,0,0,0,2,34.7v.52a1,1,0,0,0,1,1H44.4a1,1,0,0,0,1-1V34.7A.52.52,0,0,0,44.92,34.18Z"/><path id="_Rectangle_2" data-name="&lt;Rectangle&gt;" class="cls-3" d="M2.54,34.18H44.92a.52.52,0,0,1,.52.52v2.6a1,1,0,0,1-1,1H3.06a1,1,0,0,1-1-1V34.7A.52.52,0,0,1,2.54,34.18Z"/><path id="_Path_8" data-name="&lt;Path&gt;" class="cls-9" d="M37.12,10.77H10.86l.33-1.29a1,1,0,0,1,1-.79h23.6a1,1,0,0,1,1,.79Z"/><path id="_Path_9" data-name="&lt;Path&gt;" class="cls-1" d="M14.66,26.38H9.38a.52.52,0,0,1-.52-.59l1.36-10a1,1,0,0,1,1-.9H40.76a1,1,0,0,1,1,1v6.25a1,1,0,0,1-1,1H16.94a1,1,0,0,0-1,.86l-.23,1.39A1.05,1.05,0,0,1,14.66,26.38Z"/><polygon id="_Path_10" data-name="&lt;Path&gt;" class="cls-2" points="19.75 23.28 24.89 14.96 38.62 14.93 33.47 23.26 19.75 23.28"/><path id="_Path_11" data-name="&lt;Path&gt;" class="cls-3" d="M14.66,26.38H9.38a.52.52,0,0,1-.52-.59l1.36-10a1,1,0,0,1,1-.9H40.76a1,1,0,0,1,1,1v6.25a1,1,0,0,1-1,1H16.94a1,1,0,0,0-1,.86l-.23,1.39A1.05,1.05,0,0,1,14.66,26.38Z"/><rect id="_Rectangle_3" data-name="&lt;Rectangle&gt;" class="cls-10" x="2.54" y="29.5" width="42.38" height="4.68"/><path id="_Rectangle_4" data-name="&lt;Rectangle&gt;" class="cls-11" d="M2.54,29h1a0,0,0,0,1,0,0V32.1a0,0,0,0,1,0,0h-1a1,1,0,0,1-1-1V30A1,1,0,0,1,2.54,29Z"/><path id="_Rectangle_5" data-name="&lt;Rectangle&gt;" class="cls-11" d="M44.92,28.46h1a1,1,0,0,1,1,1v1.56a1,1,0,0,1-1,1h-1a0,0,0,0,1,0,0V28.46A0,0,0,0,1,44.92,28.46Z"/><circle id="_Path_12" data-name="&lt;Path&gt;" class="cls-12" cx="9.82" cy="38.34" r="4.16"/><circle id="_Path_13" data-name="&lt;Path&gt;" class="cls-12" cx="37.64" cy="38.34" r="4.16"/><path id="_Path_14" data-name="&lt;Path&gt;" class="cls-7" d="M9.82,36.26a4.16,4.16,0,0,1,4,3.12,4.42,4.42,0,0,0,.14-1,4.16,4.16,0,0,0-8.32,0,4,4,0,0,0,.15,1A4.15,4.15,0,0,1,9.82,36.26Z"/><path id="_Path_15" data-name="&lt;Path&gt;" class="cls-7" d="M37.64,36.26a4.15,4.15,0,0,1,4,3.12,4,4,0,0,0,.15-1,4.16,4.16,0,1,0-8.32,0,4.42,4.42,0,0,0,.14,1A4.16,4.16,0,0,1,37.64,36.26Z"/><circle id="_Path_16" data-name="&lt;Path&gt;" class="cls-3" cx="9.82" cy="38.34" r="4.16"/><circle id="_Path_17" data-name="&lt;Path&gt;" class="cls-3" cx="37.64" cy="38.34" r="4.16"/><circle id="_Path_18" data-name="&lt;Path&gt;" class="cls-13" cx="9.82" cy="38.34" r="1.56"/><circle id="_Path_19" data-name="&lt;Path&gt;" class="cls-13" cx="37.64" cy="38.34" r="1.56"/><line id="_Path_20" data-name="&lt;Path&gt;" class="cls-3" x1="16.58" y1="23.26" x2="16.58" y2="14.93"/><line id="_Path_21" data-name="&lt;Path&gt;" class="cls-3" x1="29.29" y1="14.93" x2="29.29" y2="23.26"/><line id="_Path_22" data-name="&lt;Path&gt;" class="cls-3" x1="22.94" y1="14.93" x2="22.94" y2="23.26"/><line id="_Path_23" data-name="&lt;Path&gt;" class="cls-3" x1="35.64" y1="14.93" x2="35.64" y2="23.26"/><line id="_Path_24" data-name="&lt;Path&gt;" class="cls-3" x1="7.22" y1="12.85" x2="9.3" y2="12.85"/><line id="_Path_25" data-name="&lt;Path&gt;" class="cls-3" x1="38.68" y1="12.85" x2="40.76" y2="12.85"/></g></svg>