<svg id="Icons" xmlns="http://www.w3.org/2000/svg" viewBox="0 0 48 48"><defs><style>.cls-1{fill:#45413c;opacity:0.15;}.cls-2{fill:#ff6242;}.cls-3{fill:#ff866e;}.cls-4{fill:none;}.cls-11,.cls-14,.cls-15,.cls-18,.cls-4,.cls-5{stroke:#45413c;stroke-linecap:round;stroke-linejoin:round;}.cls-16,.cls-5{fill:#daedf7;}.cls-6{fill:#adc4d9;}.cls-7{fill:#8ca4b8;}.cls-8{fill:#87898c;}.cls-9{fill:#bdbec0;}.cls-10{fill:#656769;}.cls-11,.cls-17{fill:#c0dceb;}.cls-12{fill:#00b8f0;}.cls-13{fill:#4acfff;}.cls-14{fill:#ffe500;}.cls-15{fill:#fff;}.cls-18{fill:#ffaa54;}</style></defs><title>608-fire-engine</title><g id="_Group_" data-name="&lt;Group&gt;"><ellipse id="_Ellipse_" data-name="&lt;Ellipse&gt;" class="cls-1" cx="24" cy="42.5" rx="19.5" ry="1.5"/><path id="_Path_" data-name="&lt;Path&gt;" class="cls-2" d="M18,36H2V28.27A6,6,0,0,1,3,25l2.77-4.27a6,6,0,0,1,5-2.74H17a1,1,0,0,1,1,1Z"/><path id="_Path_2" data-name="&lt;Path&gt;" class="cls-3" d="M17,18H10.76a6,6,0,0,0-5,2.74L3,25a6,6,0,0,0-1,3.26v2A6,6,0,0,1,3,27l2.77-4.27a6,6,0,0,1,5-2.74H17a1,1,0,0,1,1,1V19A1,1,0,0,0,17,18Z"/><path id="_Path_3" data-name="&lt;Path&gt;" class="cls-4" d="M18,36H2V28.27A6,6,0,0,1,3,25l2.77-4.27a6,6,0,0,1,5-2.74H17a1,1,0,0,1,1,1Z"/><path id="_Rectangle_" data-name="&lt;Rectangle&gt;" class="cls-2" d="M22.5,15.5h20a2,2,0,0,1,2,2v19a2,2,0,0,1-2,2h-22a0,0,0,0,1,0,0v-21A2,2,0,0,1,22.5,15.5Z"/><path id="_Path_4" data-name="&lt;Path&gt;" class="cls-3" d="M42.5,15.5h-20a2,2,0,0,0-2,2V20a2,2,0,0,1,2-2h20a2,2,0,0,1,2,2V17.5A2,2,0,0,0,42.5,15.5Z"/><path id="_Rectangle_2" data-name="&lt;Rectangle&gt;" class="cls-4" d="M22.5,15.5h20a2,2,0,0,1,2,2v19a2,2,0,0,1-2,2h-22a0,0,0,0,1,0,0v-21A2,2,0,0,1,22.5,15.5Z"/><path id="_Rectangle_3" data-name="&lt;Rectangle&gt;" class="cls-5" d="M2,36H20.5a0,0,0,0,1,0,0v2.5a0,0,0,0,1,0,0H2a1,1,0,0,1-1-1V37A1,1,0,0,1,2,36Z"/><path id="_Path_5" data-name="&lt;Path&gt;" class="cls-6" d="M45.56,15.5H17.94a1,1,0,0,1-.94-1V13a1,1,0,0,1,.47-.86l4.93-3A1,1,0,0,1,22.87,9H45.56a1,1,0,0,1,.94,1v4.5A1,1,0,0,1,45.56,15.5Z"/><path id="_Path_6" data-name="&lt;Path&gt;" class="cls-7" d="M45.56,9H22.87a1,1,0,0,0-.47.13l-4.93,3A1,1,0,0,0,17,13V14.5a1.06,1.06,0,0,0,.08.4,1,1,0,0,1,.39-.47l4.93-3a1,1,0,0,1,.47-.13H45.56a1,1,0,0,1,.94,1V10A1,1,0,0,0,45.56,9Z"/><path id="_Path_7" data-name="&lt;Path&gt;" class="cls-4" d="M45.56,15.5H17.94a1,1,0,0,1-.94-1V13a1,1,0,0,1,.47-.86l4.93-3A1,1,0,0,1,22.87,9H45.56a1,1,0,0,1,.94,1v4.5A1,1,0,0,1,45.56,15.5Z"/><rect id="_Rectangle_4" data-name="&lt;Rectangle&gt;" class="cls-8" x="18" y="19.5" width="2.5" height="16.5"/><rect id="_Rectangle_5" data-name="&lt;Rectangle&gt;" class="cls-9" x="18" y="19.5" width="2.5" height="2.25"/><rect id="_Rectangle_6" data-name="&lt;Rectangle&gt;" class="cls-4" x="18" y="19.5" width="2.5" height="16.5"/><circle id="_Path_8" data-name="&lt;Path&gt;" class="cls-10" cx="9.5" cy="38.5" r="4"/><path id="_Path_9" data-name="&lt;Path&gt;" class="cls-8" d="M9.5,36.33a4,4,0,0,1,3.89,3.09,4,4,0,1,0-7.78,0A4,4,0,0,1,9.5,36.33Z"/><circle id="_Path_10" data-name="&lt;Path&gt;" class="cls-4" cx="9.5" cy="38.5" r="4"/><circle id="_Path_11" data-name="&lt;Path&gt;" class="cls-10" cx="35" cy="38.5" r="4"/><path id="_Path_12" data-name="&lt;Path&gt;" class="cls-8" d="M35,36.29a4,4,0,0,1,3.9,3.11,3.82,3.82,0,0,0,.1-.9,4,4,0,0,0-8,0,3.82,3.82,0,0,0,.1.9A4,4,0,0,1,35,36.29Z"/><circle id="_Path_13" data-name="&lt;Path&gt;" class="cls-4" cx="35" cy="38.5" r="4"/><circle id="_Path_14" data-name="&lt;Path&gt;" class="cls-11" cx="9.5" cy="38.5" r="1.5"/><circle id="_Path_15" data-name="&lt;Path&gt;" class="cls-11" cx="35" cy="38.5" r="1.5"/><path id="_Path_16" data-name="&lt;Path&gt;" class="cls-12" d="M14,23.5v-2a1,1,0,0,0-1-1H6.17l-.44.24L3,25a6.1,6.1,0,0,0-.69,1.49H11A3,3,0,0,0,14,23.5Z"/><polygon id="_Path_17" data-name="&lt;Path&gt;" class="cls-13" points="4.59 26.5 9.47 26.5 12.44 20.5 7.82 20.5 4.59 26.5"/><path id="_Path_18" data-name="&lt;Path&gt;" class="cls-4" d="M14,23.5v-2a1,1,0,0,0-1-1H6.17l-.44.24L3,25a6.1,6.1,0,0,0-.69,1.49H11A3,3,0,0,0,14,23.5Z"/><path id="_Path_19" data-name="&lt;Path&gt;" class="cls-14" d="M2.75,33.5H2a.5.5,0,0,1-.5-.5V30.5A.5.5,0,0,1,2,30h.75A1.75,1.75,0,0,1,4.5,31.75h0A1.75,1.75,0,0,1,2.75,33.5Z"/><rect id="_Rectangle_7" data-name="&lt;Rectangle&gt;" class="cls-15" x="20.5" y="24" width="24" height="5"/><rect id="_Rectangle_8" data-name="&lt;Rectangle&gt;" class="cls-16" x="23" y="9" width="2.5" height="6.5"/><rect id="_Rectangle_9" data-name="&lt;Rectangle&gt;" class="cls-16" x="29" y="9" width="2.5" height="6.5"/><rect id="_Rectangle_10" data-name="&lt;Rectangle&gt;" class="cls-16" x="35" y="9" width="2.5" height="6.5"/><rect id="_Rectangle_11" data-name="&lt;Rectangle&gt;" class="cls-16" x="41" y="9" width="2.5" height="6.5"/><rect id="_Rectangle_12" data-name="&lt;Rectangle&gt;" class="cls-17" x="23" y="9" width="2.5" height="2.95"/><rect id="_Rectangle_13" data-name="&lt;Rectangle&gt;" class="cls-17" x="29" y="9" width="2.5" height="2.95"/><rect id="_Rectangle_14" data-name="&lt;Rectangle&gt;" class="cls-17" x="35" y="9" width="2.5" height="2.95"/><rect id="_Rectangle_15" data-name="&lt;Rectangle&gt;" class="cls-17" x="41" y="9" width="2.5" height="2.95"/><rect id="_Rectangle_16" data-name="&lt;Rectangle&gt;" class="cls-4" x="23" y="9" width="2.5" height="6.5"/><rect id="_Rectangle_17" data-name="&lt;Rectangle&gt;" class="cls-4" x="29" y="9" width="2.5" height="6.5"/><rect id="_Rectangle_18" data-name="&lt;Rectangle&gt;" class="cls-4" x="35" y="9" width="2.5" height="6.5"/><rect id="_Rectangle_19" data-name="&lt;Rectangle&gt;" class="cls-4" x="41" y="9" width="2.5" height="6.5"/><path class="cls-18" d="M12.25,14.5a1.75,1.75,0,0,0-1.75,1.75V18H14V16.25A1.75,1.75,0,0,0,12.25,14.5Z"/></g></svg>