<svg id="Icons" xmlns="http://www.w3.org/2000/svg" viewBox="0 0 48 48"><defs><style>.cls-1{fill:#87898c;}.cls-1,.cls-2,.cls-5,.cls-7{stroke:#45413c;stroke-linecap:round;stroke-linejoin:round;}.cls-2,.cls-3{fill:#daedf7;}.cls-4{fill:#fff;}.cls-5{fill:none;}.cls-6{fill:#45413c;opacity:0.15;}.cls-7,.cls-8{fill:#ff6242;}.cls-9{fill:#e04122;}.cls-10{fill:#e0e0e0;}.cls-11{fill:#9ceb60;}.cls-12{fill:#6dd627;}.cls-13{fill:#ff866e;}.cls-14{fill:#f0f0f0;}</style></defs><title>616-fuel-pump</title><g id="_Group_" data-name="&lt;Group&gt;"><path id="_Path_" data-name="&lt;Path&gt;" class="cls-1" d="M39.63,42.33c-3.73,0-3.73-4.25-3.73-8,0-4.63-2-5.86-3.2-5.86a1.07,1.07,0,0,1,0-2.14c2,0,5.33,1.69,5.33,8,0,4.55.36,5.87,1.6,5.87s1.6-1.5,1.6-5.33V23.13a1.07,1.07,0,0,1,2.14,0V34.87C43.37,37.48,43.37,42.33,39.63,42.33Z"/><path class="cls-2" d="M38.73,12.16,40.63,11a1,1,0,0,1,.43-.15,9.8,9.8,0,0,0-3.71-4.23l-.92-.57v3.2A7.2,7.2,0,0,1,38.73,12.16Z"/><rect id="_Rectangle_" data-name="&lt;Rectangle&gt;" class="cls-1" x="34.83" y="19.4" width="5.33" height="2.13"/><rect id="_Rectangle_2" data-name="&lt;Rectangle&gt;" class="cls-3" x="6.57" y="1.8" width="29.87" height="21.33" rx="3.2" ry="3.2"/><path id="_Path_2" data-name="&lt;Path&gt;" class="cls-4" d="M33.23,1.8H9.77A3.2,3.2,0,0,0,6.57,5V8.2A3.2,3.2,0,0,1,9.77,5H33.23a3.2,3.2,0,0,1,3.2,3.2V5A3.2,3.2,0,0,0,33.23,1.8Z"/><rect id="_Rectangle_3" data-name="&lt;Rectangle&gt;" class="cls-5" x="6.57" y="1.8" width="29.87" height="21.33" rx="3.2" ry="3.2"/><ellipse id="_Ellipse_" data-name="&lt;Ellipse&gt;" class="cls-6" cx="21.5" cy="45.4" rx="17.6" ry="1.6"/><path id="_Rectangle_4" data-name="&lt;Rectangle&gt;" class="cls-7" d="M9.77,9.8H33.23a0,0,0,0,1,0,0v9.07a1.07,1.07,0,0,1-1.07,1.07H10.83a1.07,1.07,0,0,1-1.07-1.07V9.8A0,0,0,0,1,9.77,9.8Z"/><polygon id="_Path_3" data-name="&lt;Path&gt;" class="cls-8" points="32.17 42.33 10.83 42.33 10.3 23.13 32.7 23.13 32.17 42.33"/><polygon id="_Path_4" data-name="&lt;Path&gt;" class="cls-9" points="32.63 25.8 32.7 23.13 10.3 23.13 10.37 25.8 32.63 25.8"/><polygon id="_Path_5" data-name="&lt;Path&gt;" class="cls-5" points="32.17 42.33 10.83 42.33 10.3 23.13 32.7 23.13 32.17 42.33"/><path id="_Rectangle_5" data-name="&lt;Rectangle&gt;" class="cls-4" d="M10.83,5H32.17a1.07,1.07,0,0,1,1.07,1.07V9.8a0,0,0,0,1,0,0H9.77a0,0,0,0,1,0,0V6.07A1.07,1.07,0,0,1,10.83,5Z"/><path id="_Path_6" data-name="&lt;Path&gt;" class="cls-10" d="M32.17,5H10.83A1.06,1.06,0,0,0,9.77,6.07v2.4A1.06,1.06,0,0,1,10.83,7.4H32.17a1.06,1.06,0,0,1,1.06,1.07V6.07A1.06,1.06,0,0,0,32.17,5Z"/><path id="_Rectangle_6" data-name="&lt;Rectangle&gt;" class="cls-5" d="M10.83,5H32.17a1.07,1.07,0,0,1,1.07,1.07V9.8a0,0,0,0,1,0,0H9.77a0,0,0,0,1,0,0V6.07A1.07,1.07,0,0,1,10.83,5Z"/><path id="_Rectangle_7" data-name="&lt;Rectangle&gt;" class="cls-1" d="M10.83,42.33H32.17a1.07,1.07,0,0,1,1.07,1.07V45a0,0,0,0,1,0,0H9.77a0,0,0,0,1,0,0V43.4A1.07,1.07,0,0,1,10.83,42.33Z"/><rect id="_Rectangle_8" data-name="&lt;Rectangle&gt;" class="cls-11" x="22.57" y="12.47" width="8" height="3.73" rx="1.07" ry="1.07"/><path id="_Path_7" data-name="&lt;Path&gt;" class="cls-12" d="M22.57,13.53v.8h8v-.8a1.06,1.06,0,0,0-1.07-1.06H23.63A1.05,1.05,0,0,0,22.57,13.53Z"/><rect id="_Rectangle_9" data-name="&lt;Rectangle&gt;" class="cls-5" x="22.57" y="12.47" width="8" height="3.73" rx="1.07" ry="1.07"/><path id="_Path_8" data-name="&lt;Path&gt;" class="cls-8" d="M42.83,13.53l-.64-1.94A1.07,1.07,0,0,0,40.63,11l-4.2,2.51v3.74l1.9-1.11a1.06,1.06,0,0,1,1.57.68,8.16,8.16,0,0,1,.27,2v3.2a1.05,1.05,0,0,0,1.06,1.06h1.6a1.06,1.06,0,0,0,1.07-1.06V19.4A16.58,16.58,0,0,0,42.83,13.53Z"/><path id="_Path_9" data-name="&lt;Path&gt;" class="cls-13" d="M42.83,13.53l-.64-1.94A1.07,1.07,0,0,0,40.63,11l-4.2,2.51v2.4l4.2-2.51a1.07,1.07,0,0,1,1.56.58l.64,1.93A16.58,16.58,0,0,1,43.9,21.8V19.4A16.58,16.58,0,0,0,42.83,13.53Z"/><path id="_Path_10" data-name="&lt;Path&gt;" class="cls-5" d="M42.83,13.53l-.64-1.94A1.07,1.07,0,0,0,40.63,11l-4.2,2.51v3.74l1.9-1.11a1.06,1.06,0,0,1,1.57.68,8.16,8.16,0,0,1,.27,2v3.2a1.05,1.05,0,0,0,1.06,1.06h1.6a1.06,1.06,0,0,0,1.07-1.06V19.4A16.58,16.58,0,0,0,42.83,13.53Z"/><circle id="_Path_11" data-name="&lt;Path&gt;" class="cls-14" cx="21.5" cy="33.27" r="6.4"/><path id="_Path_12" data-name="&lt;Path&gt;" class="cls-4" d="M21.5,28.76a6.4,6.4,0,0,1,6.32,5.45,5.86,5.86,0,0,0,.08-.94,6.4,6.4,0,1,0-12.8,0,5.86,5.86,0,0,0,.08.94A6.4,6.4,0,0,1,21.5,28.76Z"/><circle id="_Path_13" data-name="&lt;Path&gt;" class="cls-5" cx="21.5" cy="33.27" r="6.4"/><path class="cls-1" d="M23.62,33.54l-1.49-3.09a.71.71,0,0,0-1.26,0l-1.49,3.09a2.16,2.16,0,0,0,2.12,3A2.16,2.16,0,0,0,23.62,33.54Z"/></g></svg>