<svg id="Icons" xmlns="http://www.w3.org/2000/svg" viewBox="0 0 48 48"><defs><style>.cls-1{fill:#ff6242;}.cls-2{fill:#ff866e;}.cls-3{fill:none;}.cls-10,.cls-3{stroke:#45413c;stroke-linecap:round;stroke-linejoin:round;}.cls-4{fill:#c0dceb;}.cls-5{fill:#daedf7;}.cls-6{fill:#87898c;}.cls-7{fill:#656769;}.cls-10,.cls-8{fill:#ffe500;}.cls-9{fill:#fff48c;}.cls-11{fill:#45413c;opacity:0.15;}</style></defs><title>617-police-car-light</title><g id="_Group_" data-name="&lt;Group&gt;"><path id="_Path_" data-name="&lt;Path&gt;" class="cls-1" d="M12.86,38.1l1.9-16.33a2.6,2.6,0,0,1,2.58-2.3H30.79a2.6,2.6,0,0,1,2.58,2.3l1.9,16.33Z"/><path id="_Path_2" data-name="&lt;Path&gt;" class="cls-1" d="M12.86,38.1l1.9-16.33a2.6,2.6,0,0,1,2.58-2.3H30.79a2.6,2.6,0,0,1,2.58,2.3l1.9,16.33Z"/><path id="_Path_3" data-name="&lt;Path&gt;" class="cls-2" d="M16.9,22.87H31.23a2.8,2.8,0,0,1,2.43,1.36l-.29-2.46a2.6,2.6,0,0,0-2.58-2.3H17.34a2.6,2.6,0,0,0-2.58,2.3l-.29,2.46A2.79,2.79,0,0,1,16.9,22.87Z"/><path id="_Path_4" data-name="&lt;Path&gt;" class="cls-3" d="M12.86,38.1l1.9-16.33a2.6,2.6,0,0,1,2.58-2.3H30.79a2.6,2.6,0,0,1,2.58,2.3l1.9,16.33Z"/><rect id="_Rectangle_" data-name="&lt;Rectangle&gt;" class="cls-4" x="11.37" y="38.1" width="25.13" height="3.9" rx="0.87" ry="0.87"/><path id="_Path_5" data-name="&lt;Path&gt;" class="cls-5" d="M35.64,38.1H12.24a.87.87,0,0,0-.87.87v2a.87.87,0,0,1,.87-.87h23.4a.86.86,0,0,1,.86.87V39A.86.86,0,0,0,35.64,38.1Z"/><rect id="_Rectangle_2" data-name="&lt;Rectangle&gt;" class="cls-3" x="11.37" y="38.1" width="25.13" height="3.9" rx="0.87" ry="0.87"/><rect id="_Rectangle_3" data-name="&lt;Rectangle&gt;" class="cls-6" x="22.27" y="33.33" width="3.47" height="4.77"/><rect id="_Rectangle_4" data-name="&lt;Rectangle&gt;" class="cls-7" x="22.27" y="33.33" width="3.47" height="1.61"/><rect id="_Rectangle_5" data-name="&lt;Rectangle&gt;" class="cls-3" x="22.27" y="33.33" width="3.47" height="4.77"/><path class="cls-8" d="M24,26.4a3,3,0,0,0-3,3v3a.86.86,0,0,0,.86.86h4.34a.86.86,0,0,0,.86-.86v-3A3,3,0,0,0,24,26.4Z"/><path id="_Path_6" data-name="&lt;Path&gt;" class="cls-9" d="M24,26.4a3,3,0,0,0-3,3v1.95a3,3,0,1,1,6.06,0V29.44A3,3,0,0,0,24,26.4Z"/><path class="cls-3" d="M24,26.4a3,3,0,0,0-3,3v3a.86.86,0,0,0,.86.86h4.34a.86.86,0,0,0,.86-.86v-3A3,3,0,0,0,24,26.4Z"/><path id="_Path_7" data-name="&lt;Path&gt;" class="cls-10" d="M36.34,9.12A.51.51,0,0,0,35.89,9a.54.54,0,0,0-.38.28l-3.29,6.27a.52.52,0,0,0,.11.64.53.53,0,0,0,.65,0l5.78-3.93a.51.51,0,0,0,.23-.4.53.53,0,0,0-.16-.43Z"/><path id="_Path_8" data-name="&lt;Path&gt;" class="cls-10" d="M22.22,5.4a.58.58,0,0,0-.45.2.51.51,0,0,0-.1.46l1.91,6.85a.55.55,0,0,0,.54.4.56.56,0,0,0,.54-.41l1.67-6.81a.5.5,0,0,0-.1-.44.55.55,0,0,0-.43-.21Z"/><path id="_Path_9" data-name="&lt;Path&gt;" class="cls-10" d="M46.42,22.94a.53.53,0,0,1-.42.73l-7,.9a.53.53,0,0,1-.37-1l5.71-4a.52.52,0,0,1,.45-.08.53.53,0,0,1,.34.31Z"/><path id="_Path_10" data-name="&lt;Path&gt;" class="cls-10" d="M46.17,35.44a.5.5,0,0,1-.3.35.49.49,0,0,1-.47,0l-6.14-3.54a.53.53,0,0,1,.28-1l7,.23a.55.55,0,0,1,.41.21.56.56,0,0,1,.09.45Z"/><path id="_Path_11" data-name="&lt;Path&gt;" class="cls-10" d="M11.66,9.12A.51.51,0,0,1,12.11,9a.54.54,0,0,1,.38.28l3.29,6.27a.52.52,0,0,1-.11.64.53.53,0,0,1-.65,0L9.24,12.28a.51.51,0,0,1-.23-.4.53.53,0,0,1,.16-.43Z"/><path id="_Path_12" data-name="&lt;Path&gt;" class="cls-10" d="M1.58,22.94a.49.49,0,0,0,0,.47.49.49,0,0,0,.39.26l7,.9a.53.53,0,0,0,.37-1l-5.71-4a.52.52,0,0,0-.45-.08.53.53,0,0,0-.34.31Z"/><path id="_Path_13" data-name="&lt;Path&gt;" class="cls-10" d="M1.83,35.44a.5.5,0,0,0,.3.35.49.49,0,0,0,.47,0l6.14-3.54a.53.53,0,0,0-.28-1l-7,.23a.55.55,0,0,0-.41.21.56.56,0,0,0-.09.45Z"/><ellipse class="cls-11" cx="24" cy="42.5" rx="14" ry="1.5"/></g></svg>