<svg id="Icons" xmlns="http://www.w3.org/2000/svg" viewBox="0 0 48 48"><defs><style>.cls-1{fill:#45413c;opacity:0.15;}.cls-2{fill:#daedf7;}.cls-3{fill:#fff;}.cls-4{fill:none;}.cls-13,.cls-4{stroke:#45413c;stroke-linecap:round;stroke-linejoin:round;}.cls-5{fill:#87898c;}.cls-6{fill:#656769;}.cls-7{fill:#ffe500;}.cls-8{fill:#fff48c;}.cls-9{fill:#6dd627;}.cls-10{fill:#9ceb60;}.cls-11{fill:#ff6242;}.cls-12{fill:#ff866e;}.cls-13{fill:#bdbec0;}</style></defs><title>618-vertical-traffic-light</title><g id="_Group_" data-name="&lt;Group&gt;"><ellipse id="_Ellipse_" data-name="&lt;Ellipse&gt;" class="cls-1" cx="24" cy="46.5" rx="11" ry="1.5"/><path id="_Path_" data-name="&lt;Path&gt;" class="cls-2" d="M24,45.5h0A10.47,10.47,0,0,1,13.53,35V11A10.47,10.47,0,0,1,24,.5h0A10.47,10.47,0,0,1,34.47,11V35A10.47,10.47,0,0,1,24,45.5Z"/><path id="_Path_2" data-name="&lt;Path&gt;" class="cls-3" d="M24,.5A10.47,10.47,0,0,0,13.53,11v2.61a10.47,10.47,0,0,1,20.94,0V11A10.47,10.47,0,0,0,24,.5Z"/><path id="_Path_3" data-name="&lt;Path&gt;" class="cls-4" d="M24,45.5h0A10.47,10.47,0,0,1,13.53,35V11A10.47,10.47,0,0,1,24,.5h0A10.47,10.47,0,0,1,34.47,11V35A10.47,10.47,0,0,1,24,45.5Z"/><path id="_Path_4" data-name="&lt;Path&gt;" class="cls-5" d="M24,42.88h0A7.85,7.85,0,0,1,16.15,35V11A7.85,7.85,0,0,1,24,3.12h0A7.85,7.85,0,0,1,31.85,11V35A7.85,7.85,0,0,1,24,42.88Z"/><path id="_Path_5" data-name="&lt;Path&gt;" class="cls-6" d="M24,3.12A7.85,7.85,0,0,0,16.15,11v2.75a7.85,7.85,0,0,1,15.7,0V11A7.85,7.85,0,0,0,24,3.12Z"/><path id="_Path_6" data-name="&lt;Path&gt;" class="cls-4" d="M24,42.88h0A7.85,7.85,0,0,1,16.15,35V11A7.85,7.85,0,0,1,24,3.12h0A7.85,7.85,0,0,1,31.85,11V35A7.85,7.85,0,0,1,24,42.88Z"/><circle id="_Path_7" data-name="&lt;Path&gt;" class="cls-7" cx="24" cy="23.5" r="4.5"/><path id="_Path_8" data-name="&lt;Path&gt;" class="cls-8" d="M24,19a4.49,4.49,0,0,0-1.92,8.56l5-7.31A4.49,4.49,0,0,0,24,19Z"/><circle id="_Path_9" data-name="&lt;Path&gt;" class="cls-9" cx="24" cy="12" r="4.5"/><path id="_Path_10" data-name="&lt;Path&gt;" class="cls-10" d="M24,7.5a4.49,4.49,0,0,0-1.92,8.56l5-7.31A4.49,4.49,0,0,0,24,7.5Z"/><circle id="_Path_11" data-name="&lt;Path&gt;" class="cls-11" cx="24" cy="35" r="4.5"/><path id="_Path_12" data-name="&lt;Path&gt;" class="cls-12" d="M24,30.5a4.49,4.49,0,0,0-1.92,8.56l5-7.31A4.49,4.49,0,0,0,24,30.5Z"/><circle id="_Path_13" data-name="&lt;Path&gt;" class="cls-4" cx="24" cy="23.5" r="4.5"/><circle id="_Path_14" data-name="&lt;Path&gt;" class="cls-4" cx="24" cy="12" r="4.5"/><circle id="_Path_15" data-name="&lt;Path&gt;" class="cls-4" cx="24" cy="35" r="4.5"/><path id="_Path_16" data-name="&lt;Path&gt;" class="cls-13" d="M29,34.7c0,2.76-.81-2.5-5-2.5s-5,5.26-5,2.5a5,5,0,0,1,10,0Z"/><path id="_Path_17" data-name="&lt;Path&gt;" class="cls-13" d="M29,23.2c0,2.76-.81-2.5-5-2.5S19,26,19,23.2a5,5,0,0,1,10,0Z"/><path id="_Path_18" data-name="&lt;Path&gt;" class="cls-13" d="M29,11.7c0,2.76-.81-2.5-5-2.5s-5,5.26-5,2.5a5,5,0,0,1,10,0Z"/></g></svg>