<svg id="Icons" xmlns="http://www.w3.org/2000/svg" viewBox="0 0 48 48"><defs><style>.cls-1{fill:#45413c;opacity:0.15;}.cls-2,.cls-7{fill:#bf8256;}.cls-3{fill:#dea47a;}.cls-4{fill:none;}.cls-4,.cls-7{stroke:#45413c;stroke-linecap:round;stroke-linejoin:round;}.cls-5{fill:#ff6242;}.cls-6{fill:#ffe500;}</style></defs><title>621-sailboat</title><g id="_Group_" data-name="&lt;Group&gt;"><ellipse id="_Ellipse_" data-name="&lt;Ellipse&gt;" class="cls-1" cx="24" cy="45.39" rx="15.02" ry="1.61"/><g id="_Group_2" data-name="&lt;Group&gt;"><g id="_Group_3" data-name="&lt;Group&gt;"><path id="_Path_" data-name="&lt;Path&gt;" class="cls-2" d="M39.81,37.62a.88.88,0,0,1,.87,1c-.75,5.94-7.44,6.89-17.07,6.89s-16.33-1-17.08-6.89a.88.88,0,0,1,.87-1Z"/><path id="_Path_2" data-name="&lt;Path&gt;" class="cls-3" d="M7,40.36a.92.92,0,0,1,.43-.11H39.81a.89.89,0,0,1,.43.11,7.12,7.12,0,0,0,.44-1.75.88.88,0,0,0-.87-1H7.4a.88.88,0,0,0-.87,1A7.12,7.12,0,0,0,7,40.36Z"/><path id="_Path_3" data-name="&lt;Path&gt;" class="cls-4" d="M39.81,37.62a.88.88,0,0,1,.87,1c-.75,5.94-7.44,6.89-17.07,6.89s-16.33-1-17.08-6.89a.88.88,0,0,1,.87-1Z"/></g><g id="_Group_4" data-name="&lt;Group&gt;"><path id="_Path_4" data-name="&lt;Path&gt;" class="cls-5" d="M26,5.21h-1.1v28H40.45a.88.88,0,0,0,.65-1.47A67,67,0,0,1,26.85,5.84.87.87,0,0,0,26,5.21Z"/><path id="_Path_5" data-name="&lt;Path&gt;" class="cls-6" d="M29.4,13.08a35.69,35.69,0,0,1-4.48,1.67V20.7a35.72,35.72,0,0,0,6.82-2.63C30.91,16.45,30.11,14.8,29.4,13.08Z"/><path id="_Path_6" data-name="&lt;Path&gt;" class="cls-6" d="M34.11,22.31a35.27,35.27,0,0,1-9.19,3.54v5.89a34.18,34.18,0,0,0,12.13-5C36,25.28,35,23.82,34.11,22.31Z"/><path id="_Path_7" data-name="&lt;Path&gt;" class="cls-4" d="M26,5.21h-1.1v28H40.45a.88.88,0,0,0,.65-1.47A67,67,0,0,1,26.85,5.84.87.87,0,0,0,26,5.21Z"/></g><g id="_Group_5" data-name="&lt;Group&gt;"><path id="_Path_8" data-name="&lt;Path&gt;" class="cls-5" d="M23.17,1.71V35H4.38a.86.86,0,0,1-.61-1.49C11.44,26.08,17.79,15.18,23.17,1.71Z"/><path id="_Path_9" data-name="&lt;Path&gt;" class="cls-6" d="M23.17,11.5c-1.86.86-3.68,1.58-5.4,2.18q-2.34,4.55-4.88,8.49a63.11,63.11,0,0,0,10.28-3.66Z"/><path id="_Path_10" data-name="&lt;Path&gt;" class="cls-6" d="M3.77,33.5A.86.86,0,0,0,4.38,35h7.28a57.14,57.14,0,0,0,11.51-5.25v-7A59.82,59.82,0,0,1,7.8,29.14,58.56,58.56,0,0,1,3.77,33.5Z"/><path id="_Path_11" data-name="&lt;Path&gt;" class="cls-4" d="M23.17,1.71V35H4.38a.86.86,0,0,1-.61-1.49C11.44,26.08,17.79,15.18,23.17,1.71Z"/></g><rect id="_Rectangle_" data-name="&lt;Rectangle&gt;" class="cls-7" x="23.17" y="1.71" width="1.75" height="35.91"/></g></g></svg>