<svg id="Icons" xmlns="http://www.w3.org/2000/svg" viewBox="0 0 48 48"><defs><style>.cls-1{fill:#45413c;opacity:0.15;}.cls-2,.cls-5{fill:#debb7e;}.cls-3{fill:#f0d5a8;}.cls-4{fill:none;}.cls-4,.cls-5,.cls-6{stroke:#45413c;stroke-linecap:round;stroke-linejoin:round;}.cls-6,.cls-7{fill:#ffe500;}.cls-8{fill:#fff48c;}.cls-9{fill:#b89558;}</style></defs><title>627-door</title><g id="_Group_" data-name="&lt;Group&gt;"><ellipse id="_Ellipse_" data-name="&lt;Ellipse&gt;" class="cls-1" cx="24" cy="45.14" rx="14.91" ry="1.86"/><path id="_Rectangle_" data-name="&lt;Rectangle&gt;" class="cls-2" d="M12.2,3.51h3.73a0,0,0,0,1,0,0v41a0,0,0,0,1,0,0H12.2A1.24,1.24,0,0,1,11,43.26V4.75A1.24,1.24,0,0,1,12.2,3.51Z"/><rect id="_Rectangle_2" data-name="&lt;Rectangle&gt;" class="cls-2" x="21.52" y="-2.08" width="4.97" height="16.15" transform="translate(29.99 -18.01) rotate(90)"/><rect id="_Path_" data-name="&lt;Path&gt;" class="cls-3" x="15.93" y="3.51" width="16.15" height="2.48"/><rect id="_Rectangle_3" data-name="&lt;Rectangle&gt;" class="cls-4" x="21.52" y="-2.08" width="4.97" height="16.15" transform="translate(29.99 -18.01) rotate(90)"/><rect id="_Rectangle_4" data-name="&lt;Rectangle&gt;" class="cls-5" x="21.52" y="17.79" width="4.97" height="16.15" transform="translate(49.87 1.87) rotate(90)"/><rect id="_Rectangle_5" data-name="&lt;Rectangle&gt;" class="cls-5" x="21.52" y="33.94" width="4.97" height="16.15" transform="translate(66.02 18.02) rotate(90)"/><path id="_Rectangle_6" data-name="&lt;Rectangle&gt;" class="cls-2" d="M32.07,3.51H35.8A1.24,1.24,0,0,1,37,4.75V43.26A1.24,1.24,0,0,1,35.8,44.5H32.07a0,0,0,0,1,0,0v-41A0,0,0,0,1,32.07,3.51Z"/><path id="_Path_2" data-name="&lt;Path&gt;" class="cls-3" d="M12.2,3.51A1.23,1.23,0,0,0,11,4.75V8.48A2.48,2.48,0,0,1,13.44,6h2.49V3.51Z"/><path id="_Path_3" data-name="&lt;Path&gt;" class="cls-3" d="M35.8,3.51H32.07V6h2.49A2.48,2.48,0,0,1,37,8.48V4.75A1.23,1.23,0,0,0,35.8,3.51Z"/><path id="_Rectangle_7" data-name="&lt;Rectangle&gt;" class="cls-4" d="M12.2,3.51h3.73a0,0,0,0,1,0,0v41a0,0,0,0,1,0,0H12.2A1.24,1.24,0,0,1,11,43.26V4.75A1.24,1.24,0,0,1,12.2,3.51Z"/><path id="_Rectangle_8" data-name="&lt;Rectangle&gt;" class="cls-4" d="M32.07,3.51H35.8A1.24,1.24,0,0,1,37,4.75V43.26A1.24,1.24,0,0,1,35.8,44.5H32.07a0,0,0,0,1,0,0v-41A0,0,0,0,1,32.07,3.51Z"/><path id="_Rectangle_9" data-name="&lt;Rectangle&gt;" class="cls-6" d="M34.56,21.52H37a0,0,0,0,1,0,0v6.83a0,0,0,0,1,0,0H35.8a1.24,1.24,0,0,1-1.24-1.24V21.52A0,0,0,0,1,34.56,21.52Z"/><circle id="_Path_4" data-name="&lt;Path&gt;" class="cls-7" cx="35.8" cy="22.76" r="1.86"/><path id="_Path_5" data-name="&lt;Path&gt;" class="cls-8" d="M35.8,22.48a1.84,1.84,0,0,1,1.68,1.07,1.76,1.76,0,0,0,.18-.79,1.86,1.86,0,1,0-3.72,0,1.91,1.91,0,0,0,.18.79A1.87,1.87,0,0,1,35.8,22.48Z"/><circle id="_Path_6" data-name="&lt;Path&gt;" class="cls-4" cx="35.8" cy="22.76" r="1.86"/><rect id="_Rectangle_10" data-name="&lt;Rectangle&gt;" class="cls-2" x="15.93" y="8.48" width="16.15" height="14.91"/><rect id="_Rectangle_11" data-name="&lt;Rectangle&gt;" class="cls-9" x="15.93" y="8.48" width="16.15" height="2.43"/><rect id="_Rectangle_12" data-name="&lt;Rectangle&gt;" class="cls-4" x="15.93" y="8.48" width="16.15" height="14.91"/><rect id="_Rectangle_13" data-name="&lt;Rectangle&gt;" class="cls-2" x="15.93" y="28.35" width="16.15" height="11.18"/><rect id="_Rectangle_14" data-name="&lt;Rectangle&gt;" class="cls-9" x="15.93" y="28.35" width="16.15" height="2.43"/><rect id="_Rectangle_15" data-name="&lt;Rectangle&gt;" class="cls-4" x="15.93" y="28.35" width="16.15" height="11.18"/></g></svg>