<svg id="Icons" xmlns="http://www.w3.org/2000/svg" viewBox="0 0 48 48"><defs><style>.cls-1{fill:#e8f4fa;}.cls-2{fill:#fff;}.cls-3{fill:none;}.cls-3,.cls-8{stroke:#45413c;stroke-linecap:round;stroke-linejoin:round;}.cls-4{fill:#45413c;opacity:0.15;}.cls-5{fill:#f0f0f0;}.cls-6{fill:#ffe500;}.cls-7{fill:#fff48c;}.cls-8{fill:#4acfff;}</style></defs><title>630-bathtub</title><path id="_Path_" data-name="&lt;Path&gt;" class="cls-1" d="M41.89,24.3a1,1,0,0,1-1-1.05V6.65a2.34,2.34,0,0,0-3.37-2.09L35,5.8a1.05,1.05,0,1,1-.94-1.88l2.47-1.24a4.43,4.43,0,0,1,6.41,4v16.6A1,1,0,0,1,41.89,24.3Z"/><path id="_Path_2" data-name="&lt;Path&gt;" class="cls-2" d="M40.84,2.88a4.39,4.39,0,0,0-4.31-.2L34.06,3.92a1,1,0,0,0-.47,1.41.88.88,0,0,0,.12.15,1,1,0,0,1,.35-.29L36.53,4a4.43,4.43,0,0,1,6.41,4V6.65A4.41,4.41,0,0,0,40.84,2.88Z"/><path id="_Path_3" data-name="&lt;Path&gt;" class="cls-3" d="M41.89,24.3a1,1,0,0,1-1-1.05V6.65a2.34,2.34,0,0,0-3.37-2.09L35,5.8a1.05,1.05,0,1,1-.94-1.88l2.47-1.24a4.43,4.43,0,0,1,6.41,4v16.6A1,1,0,0,1,41.89,24.3Z"/><ellipse id="_Ellipse_" data-name="&lt;Ellipse&gt;" class="cls-4" cx="24" cy="44.3" rx="20.92" ry="1.7"/><path id="_Path_4" data-name="&lt;Path&gt;" class="cls-2" d="M43.46,25.88s.2,2.83-1.57,8.41c-1.62,5.11-7,6.31-20,6.31-6.22,0-13.54-.13-15.25-7.89-1.54-7-.35-9.89-2.62-11,0,0,.59-2.11,6.3-2.11S29.27,24.3,35.06,24.3,43.46,25.88,43.46,25.88Z"/><g id="_Group_" data-name="&lt;Group&gt;"><path id="_Path_5" data-name="&lt;Path&gt;" class="cls-5" d="M21.79,36.39c-5.94,0-12.8-.12-15.5-5.66.11.63.23,1.28.38,2,1.71,7.76,9,7.89,15.25,7.89,12.94,0,18.35-1.2,20-6.31.41-1.3.71-2.45.94-3.45C40.78,35.31,34.91,36.39,21.79,36.39Z"/></g><path id="_Path_6" data-name="&lt;Path&gt;" class="cls-3" d="M43.46,25.88s.2,2.83-1.57,8.41c-1.62,5.11-7,6.31-20,6.31-6.22,0-13.54-.13-15.25-7.89-1.54-7-.35-9.89-2.62-11,0,0,.59-2.11,6.3-2.11S29.27,24.3,35.06,24.3,43.46,25.88,43.46,25.88Z"/><path id="_Path_7" data-name="&lt;Path&gt;" class="cls-6" d="M44.52,26.41c-6.48,0-13.32-1.41-21.24-3l-5.88-1.2C7.62,20.24,3.73,22,3.7,22a1.6,1.6,0,0,1-2.11-.72,1.58,1.58,0,0,1,.68-2.1C2.74,19,7.15,16.93,18,19.08c2,.4,4,.81,5.9,1.2,7.75,1.59,14.44,3,20.6,3a1.58,1.58,0,0,1,0,3.16Z"/><path class="cls-7" d="M1.69,21.49A1.51,1.51,0,0,1,2.27,21c.47-.25,4.88-2.3,15.75-.15,2,.4,4,.81,5.9,1.2,7.75,1.6,14.44,3,20.6,3a1.57,1.57,0,0,1,1.31.7,1.65,1.65,0,0,0,.26-.88,1.57,1.57,0,0,0-1.57-1.58c-6.16,0-12.85-1.38-20.6-3-1.89-.39-3.86-.8-5.9-1.2C7.15,16.93,2.74,19,2.27,19.22a1.58,1.58,0,0,0-.68,2.1Z"/><path id="_Path_8" data-name="&lt;Path&gt;" class="cls-3" d="M44.52,26.41c-6.48,0-13.32-1.41-21.24-3l-5.88-1.2C7.62,20.24,3.73,22,3.7,22a1.6,1.6,0,0,1-2.11-.72,1.58,1.58,0,0,1,.68-2.1C2.74,19,7.15,16.93,18,19.08c2,.4,4,.81,5.9,1.2,7.75,1.59,14.44,3,20.6,3a1.58,1.58,0,0,1,0,3.16Z"/><path id="_Path_9" data-name="&lt;Path&gt;" class="cls-6" d="M8.45,44.3l-1.25,0a1.58,1.58,0,1,1,0-3.16l.83,0A1.68,1.68,0,0,0,9.8,40.5c.56-.52.69-2.34.56-3.4a1.58,1.58,0,0,1,1.39-1.75,1.6,1.6,0,0,1,1.75,1.39c.08.69.38,4.25-1.54,6.06A4.48,4.48,0,0,1,8.45,44.3Z"/><path id="_Path_10" data-name="&lt;Path&gt;" class="cls-6" d="M40.23,44.3l1.25,0a1.58,1.58,0,0,0,0-3.16l-.84,0a1.66,1.66,0,0,1-1.76-.64c-.56-.52-.69-2.34-.57-3.4a1.58,1.58,0,1,0-3.13-.36c-.08.69-.39,4.25,1.54,6.06A4.48,4.48,0,0,0,40.23,44.3Z"/><g id="_Group_2" data-name="&lt;Group&gt;"><path id="_Path_11" data-name="&lt;Path&gt;" class="cls-7" d="M10.4,38.24A1.57,1.57,0,0,1,11.75,37,1.59,1.59,0,0,1,13.5,38.4c0,.09,0,.23,0,.4a12.11,12.11,0,0,0,0-2.06,1.6,1.6,0,0,0-1.75-1.39,1.58,1.58,0,0,0-1.39,1.75A8.21,8.21,0,0,1,10.4,38.24Z"/><path id="_Path_12" data-name="&lt;Path&gt;" class="cls-7" d="M7.2,42.79l.83,0a1.7,1.7,0,0,0,1.77-.65c.56-.52.69-2.34.56-3.39v0A3.12,3.12,0,0,1,9.8,40.5,1.68,1.68,0,0,1,8,41.14l-.83,0A1.58,1.58,0,0,0,5.62,42.7a1.55,1.55,0,0,0,.24.83A1.58,1.58,0,0,1,7.2,42.79Z"/></g><g id="_Group_3" data-name="&lt;Group&gt;"><path id="_Path_13" data-name="&lt;Path&gt;" class="cls-7" d="M38.31,38.77c-.12,1,0,2.87.57,3.39a1.69,1.69,0,0,0,1.76.65l.84,0a1.58,1.58,0,0,1,1.33.74,1.55,1.55,0,0,0,.24-.83,1.57,1.57,0,0,0-1.57-1.58l-.84,0a1.66,1.66,0,0,1-1.76-.64,3.12,3.12,0,0,1-.57-1.76Z"/><path id="_Path_14" data-name="&lt;Path&gt;" class="cls-7" d="M35.18,38.4a1.57,1.57,0,0,1,3.1-.16,7,7,0,0,1,0-1.14,1.58,1.58,0,1,0-3.13-.36,11.77,11.77,0,0,0,0,2.06C35.16,38.63,35.17,38.49,35.18,38.4Z"/></g><path id="_Path_15" data-name="&lt;Path&gt;" class="cls-3" d="M8.45,44.3l-1.25,0a1.58,1.58,0,1,1,0-3.16l.83,0A1.68,1.68,0,0,0,9.8,40.5c.56-.52.69-2.34.56-3.4a1.58,1.58,0,0,1,1.39-1.75,1.6,1.6,0,0,1,1.75,1.39c.08.69.38,4.25-1.54,6.06A4.48,4.48,0,0,1,8.45,44.3Z"/><path id="_Path_16" data-name="&lt;Path&gt;" class="cls-3" d="M40.23,44.3l1.25,0a1.58,1.58,0,0,0,0-3.16l-.84,0a1.66,1.66,0,0,1-1.76-.64c-.56-.52-.69-2.34-.57-3.4a1.58,1.58,0,1,0-3.13-.36c-.08.69-.39,4.25,1.54,6.06A4.48,4.48,0,0,0,40.23,44.3Z"/><path id="_Rectangle_" data-name="&lt;Rectangle&gt;" class="cls-1" d="M33.8,4.11h1.58a1.05,1.05,0,0,1,1.05,1.05V6.21a0,0,0,0,1,0,0H32.75a0,0,0,0,1,0,0V5.16A1.05,1.05,0,0,1,33.8,4.11Z" transform="translate(18.09 -25.67) rotate(53.36)"/><polygon id="_Path_17" data-name="&lt;Path&gt;" class="cls-1" points="32.64 4.31 28.55 4.09 33.88 11.26 34.84 7.27 32.64 4.31"/><path id="_Rectangle_2" data-name="&lt;Rectangle&gt;" class="cls-1" d="M25.9,7.25h8.94a0,0,0,0,1,0,0V8.82a.53.53,0,0,1-.53.53H26.43a.53.53,0,0,1-.53-.53V7.25A0,0,0,0,1,25.9,7.25Z" transform="translate(18.9 -21.02) rotate(53.36)"/><path id="_Path_18" data-name="&lt;Path&gt;" class="cls-2" d="M33.88,6l.87-.66a1.05,1.05,0,0,1,1.2,0,1.17,1.17,0,0,0-.05-.11L35,3.9a1.05,1.05,0,0,0-1.47-.21l-.85.62Z"/><polygon id="_Path_19" data-name="&lt;Path&gt;" class="cls-2" points="29.77 5.74 33.85 5.93 32.64 4.31 28.55 4.09 29.77 5.74"/><path id="_Path_20" data-name="&lt;Path&gt;" class="cls-2" d="M28.42,7.44a.59.59,0,0,1,.13-.79l1.22-.91L28.54,4.09,27.28,5a.52.52,0,0,0-.11.73Z"/><path id="_Rectangle_3" data-name="&lt;Rectangle&gt;" class="cls-3" d="M33.8,4.11h1.58a1.05,1.05,0,0,1,1.05,1.05V6.21a0,0,0,0,1,0,0H32.75a0,0,0,0,1,0,0V5.16A1.05,1.05,0,0,1,33.8,4.11Z" transform="translate(18.09 -25.67) rotate(53.36)"/><polygon id="_Path_21" data-name="&lt;Path&gt;" class="cls-3" points="32.64 4.31 28.55 4.09 33.88 11.26 34.84 7.27 32.64 4.31"/><path id="_Rectangle_4" data-name="&lt;Rectangle&gt;" class="cls-3" d="M25.9,7.25h8.94a0,0,0,0,1,0,0V8.82a.53.53,0,0,1-.53.53H26.43a.53.53,0,0,1-.53-.53V7.25A0,0,0,0,1,25.9,7.25Z" transform="translate(18.9 -21.02) rotate(53.36)"/><path class="cls-8" d="M23.49,12.93a1.15,1.15,0,0,0-.59,1,1.17,1.17,0,0,0,2.26.42l1.27-3.15Z"/><path class="cls-8" d="M19.58,9a1.18,1.18,0,0,0,1.79,1.45L24,8.26l-3.39.06A1.21,1.21,0,0,0,19.58,9Z"/><path class="cls-8" d="M27.23,16.27a1.18,1.18,0,1,0,2,.92l.3-3.38Z"/></svg>