<svg id="Icons" xmlns="http://www.w3.org/2000/svg" viewBox="0 0 48 48"><defs><style>.cls-1{fill:#45413c;opacity:0.15;}.cls-2{fill:#80ddff;}.cls-3{fill:#b8ecff;}.cls-4{fill:none;stroke:#45413c;stroke-linecap:round;stroke-linejoin:round;}.cls-5{fill:#debb7e;}.cls-6{fill:#f0d5a8;}.cls-7{fill:#f7e5c6;}.cls-8{fill:#fff5e3;}</style></defs><title>631-hourglass-done</title><g id="_Group_" data-name="&lt;Group&gt;"><ellipse id="_Ellipse_" data-name="&lt;Ellipse&gt;" class="cls-1" cx="24" cy="45.19" rx="15.09" ry="1.81"/><path id="_Path_" data-name="&lt;Path&gt;" class="cls-2" d="M34.86,8.28H13.14L13.49,14a7.26,7.26,0,0,0,3.68,5.86l1.84,1a2.83,2.83,0,0,1,0,4.93l-1.84,1a7.26,7.26,0,0,0-3.68,5.86l-.35,5.72H34.86l-.35-5.72a7.26,7.26,0,0,0-3.68-5.86l-1.84-1a2.83,2.83,0,0,1,0-4.93l1.84-1A7.26,7.26,0,0,0,34.51,14Z"/><path id="_Path_2" data-name="&lt;Path&gt;" class="cls-3" d="M30.83,26.84,29,25.8a2.83,2.83,0,0,1,0-4.93l1.84-1A7.26,7.26,0,0,0,34.51,14l.35-5.73H27.32L18.17,38.46h9.34L31,26.94Z"/><path id="_Path_3" data-name="&lt;Path&gt;" class="cls-4" d="M34.86,8.28H13.14L13.49,14a7.26,7.26,0,0,0,3.68,5.86l1.84,1a2.83,2.83,0,0,1,0,4.93l-1.84,1a7.26,7.26,0,0,0-3.68,5.86l-.35,5.72H34.86l-.35-5.72a7.26,7.26,0,0,0-3.68-5.86l-1.84-1a2.83,2.83,0,0,1,0-4.93l1.84-1A7.26,7.26,0,0,0,34.51,14Z"/><rect id="_Rectangle_" data-name="&lt;Rectangle&gt;" class="cls-5" x="11.32" y="2.25" width="25.35" height="6.04" rx="1.21" ry="1.21"/><path id="_Path_4" data-name="&lt;Path&gt;" class="cls-6" d="M35.47,2.25H12.53a1.21,1.21,0,0,0-1.21,1.2V6a1.21,1.21,0,0,1,1.21-1.21H35.47A1.21,1.21,0,0,1,36.68,6V3.45A1.21,1.21,0,0,0,35.47,2.25Z"/><rect id="_Rectangle_2" data-name="&lt;Rectangle&gt;" class="cls-4" x="11.32" y="2.25" width="25.35" height="6.04" rx="1.21" ry="1.21"/><rect id="_Rectangle_3" data-name="&lt;Rectangle&gt;" class="cls-5" x="11.32" y="38.46" width="25.35" height="6.04" rx="1.21" ry="1.21"/><path id="_Path_5" data-name="&lt;Path&gt;" class="cls-6" d="M35.47,38.46H12.53a1.21,1.21,0,0,0-1.21,1.21v2.57A1.21,1.21,0,0,1,12.53,41H35.47a1.21,1.21,0,0,1,1.21,1.21V39.67A1.21,1.21,0,0,0,35.47,38.46Z"/><rect id="_Rectangle_4" data-name="&lt;Rectangle&gt;" class="cls-4" x="11.32" y="38.46" width="25.35" height="6.04" rx="1.21" ry="1.21"/><path id="_Path_6" data-name="&lt;Path&gt;" class="cls-7" d="M34.44,32.13c-1-1-4-3.06-10.44-3.06s-9.52,2.38-10.49,3.41a2.28,2.28,0,0,1,0,.26l-.35,5.72H34.86l-.35-5.72C34.49,32.53,34.47,32.33,34.44,32.13Z"/><path id="_Path_7" data-name="&lt;Path&gt;" class="cls-8" d="M21,29.26l-2.78,9.2h9.34l2.61-8.61A21.92,21.92,0,0,0,24,29.07,23.4,23.4,0,0,0,21,29.26Z"/><path id="_Path_8" data-name="&lt;Path&gt;" class="cls-4" d="M34.44,32.13c-1-1-4-3.06-10.44-3.06s-9.52,2.38-10.49,3.41a2.28,2.28,0,0,1,0,.26l-.35,5.72H34.86l-.35-5.72C34.49,32.53,34.47,32.33,34.44,32.13Z"/></g></svg>