<svg id="Icons" xmlns="http://www.w3.org/2000/svg" viewBox="0 0 48 48"><defs><style>.cls-1{fill:#45413c;opacity:0.15;}.cls-2{fill:#00b8f0;}.cls-3{fill:#4acfff;}.cls-4{fill:none;stroke:#45413c;stroke-linecap:round;stroke-linejoin:round;}.cls-5{fill:#bf8256;}.cls-6{fill:#dea47a;}.cls-7{fill:#915e3a;}.cls-8{fill:#f0d5a8;}.cls-9{fill:#fff5e3;}</style></defs><title>633-hourglass-not-done-2</title><g id="_Group_" data-name="&lt;Group&gt;"><ellipse id="_Ellipse_" data-name="&lt;Ellipse&gt;" class="cls-1" cx="24" cy="46.22" rx="15.5" ry="1.72"/><g id="_Group_2" data-name="&lt;Group&gt;"><g id="_Group_3" data-name="&lt;Group&gt;"><path id="_Path_" data-name="&lt;Path&gt;" class="cls-2" d="M24,24A11.25,11.25,0,0,1,35.25,35.23v8.31a2,2,0,0,1-2,2H14.71a2,2,0,0,1-2-2V35.23A11.25,11.25,0,0,1,24,24Z"/><path id="_Path_2" data-name="&lt;Path&gt;" class="cls-3" d="M24,24A11.25,11.25,0,0,0,12.75,35.23v8.31L30.35,26A11.19,11.19,0,0,0,24,24Z"/><path id="_Path_3" data-name="&lt;Path&gt;" class="cls-4" d="M24,24A11.25,11.25,0,0,1,35.25,35.23v8.31a2,2,0,0,1-2,2H14.71a2,2,0,0,1-2-2V35.23A11.25,11.25,0,0,1,24,24Z"/></g><g id="_Group_4" data-name="&lt;Group&gt;"><path id="_Path_4" data-name="&lt;Path&gt;" class="cls-2" d="M35.25,12.74V4.42a2,2,0,0,0-2-1.95H14.71a2,2,0,0,0-2,1.95v8.32a11.25,11.25,0,0,0,22.5,0Z"/><path id="_Path_5" data-name="&lt;Path&gt;" class="cls-3" d="M32.8,2.47H14.71a2,2,0,0,0-2,1.95v8.32a11.2,11.2,0,0,0,2.6,7.18Z"/><path id="_Path_6" data-name="&lt;Path&gt;" class="cls-4" d="M35.25,12.74V4.42a2,2,0,0,0-2-1.95H14.71a2,2,0,0,0-2,1.95v8.32a11.25,11.25,0,0,0,22.5,0Z"/></g><g id="_Group_5" data-name="&lt;Group&gt;"><path id="_Path_7" data-name="&lt;Path&gt;" class="cls-5" d="M12.75,2.47a2,2,0,0,0,0,3.91h22.5a2,2,0,0,0,0-3.91Z"/><path id="_Path_8" data-name="&lt;Path&gt;" class="cls-6" d="M37.2,4.42a2,2,0,0,0-2-1.95H12.75A2,2,0,0,0,10.8,4.42Z"/><path id="_Path_9" data-name="&lt;Path&gt;" class="cls-4" d="M12.75,2.47a2,2,0,0,0,0,3.91h22.5a2,2,0,0,0,0-3.91Z"/></g><path id="_Path_10" data-name="&lt;Path&gt;" class="cls-5" d="M12.75,41.59a2,2,0,0,0,0,3.91h22.5a2,2,0,0,0,0-3.91Z"/><path id="_Path_11" data-name="&lt;Path&gt;" class="cls-7" d="M10.8,43.54a2,2,0,0,0,1.95,2h22.5a2,2,0,0,0,2-2Z"/><path id="_Path_12" data-name="&lt;Path&gt;" class="cls-4" d="M12.75,41.59a2,2,0,0,0,0,3.91h22.5a2,2,0,0,0,0-3.91Z"/><g id="_Group_6" data-name="&lt;Group&gt;"><path id="_Path_13" data-name="&lt;Path&gt;" class="cls-8" d="M31.42,13.2a1,1,0,0,1,1.24,1.14,8.81,8.81,0,0,1-17.32,0,1,1,0,0,1,1.24-1.14,26.89,26.89,0,0,0,7.42,1A26.89,26.89,0,0,0,31.42,13.2Z"/><path id="_Path_14" data-name="&lt;Path&gt;" class="cls-9" d="M17.09,18.18l4.11-4.12a25.25,25.25,0,0,1-4.62-.86,1,1,0,0,0-1.24,1.14A8.82,8.82,0,0,0,17.09,18.18Z"/><path id="_Path_15" data-name="&lt;Path&gt;" class="cls-4" d="M31.42,13.2a1,1,0,0,1,1.24,1.14,8.81,8.81,0,0,1-17.32,0,1,1,0,0,1,1.24-1.14,26.89,26.89,0,0,0,7.42,1A26.89,26.89,0,0,0,31.42,13.2Z"/></g><path id="_Path_16" data-name="&lt;Path&gt;" class="cls-8" d="M14.71,37.68a2,2,0,0,0,1.95,2H31.34a2,2,0,0,0,1.95-2S31.34,33.76,24,33.76,14.71,37.68,14.71,37.68Z"/><path id="_Path_17" data-name="&lt;Path&gt;" class="cls-9" d="M22.47,33.83c-6.08.5-7.76,3.85-7.76,3.85a2,2,0,0,0,1.95,2Z"/><path id="_Path_18" data-name="&lt;Path&gt;" class="cls-4" d="M14.71,37.68a2,2,0,0,0,1.95,2H31.34a2,2,0,0,0,1.95-2S31.34,33.76,24,33.76,14.71,37.68,14.71,37.68Z"/></g></g></svg>