<svg id="Icons" xmlns="http://www.w3.org/2000/svg" viewBox="0 0 48 48"><defs><style>.cls-1{fill:#45413c;opacity:0.15;}.cls-2,.cls-6{fill:#daedf7;}.cls-2,.cls-5{stroke:#45413c;stroke-linecap:round;stroke-linejoin:round;}.cls-3{fill:#656769;}.cls-4{fill:#87898c;}.cls-5{fill:none;}.cls-7{fill:#e8f4fa;}.cls-8{fill:#fff;}.cls-9{fill:#e0e0e0;}</style></defs><title>634-watch</title><g id="_Group_" data-name="&lt;Group&gt;"><ellipse id="_Ellipse_" data-name="&lt;Ellipse&gt;" class="cls-1" cx="24" cy="43" rx="11.5" ry="1.5"/><rect id="_Rectangle_" data-name="&lt;Rectangle&gt;" class="cls-2" x="14.5" y="12" width="19" height="24" rx="1.06" ry="1.06"/><rect id="_Rectangle_2" data-name="&lt;Rectangle&gt;" class="cls-3" x="17" y="6" width="14" height="36" rx="1.64" ry="1.64"/><path id="_Path_" data-name="&lt;Path&gt;" class="cls-4" d="M29.36,6H18.64A1.63,1.63,0,0,0,17,7.64v2.5A1.63,1.63,0,0,1,18.64,8.5H29.36A1.63,1.63,0,0,1,31,10.14V7.64A1.63,1.63,0,0,0,29.36,6Z"/><rect id="_Rectangle_3" data-name="&lt;Rectangle&gt;" class="cls-5" x="17" y="6" width="14" height="36" rx="1.64" ry="1.64"/><path id="_Rectangle_4" data-name="&lt;Rectangle&gt;" class="cls-2" d="M35,21h2a1,1,0,0,1,1,1v4a1,1,0,0,1-1,1H35a0,0,0,0,1,0,0V21A0,0,0,0,1,35,21Z"/><circle id="_Path_2" data-name="&lt;Path&gt;" class="cls-6" cx="24" cy="24" r="12"/><path id="_Path_3" data-name="&lt;Path&gt;" class="cls-7" d="M24,14.62A12,12,0,0,1,35.92,25.31,11.38,11.38,0,0,0,36,24a12,12,0,0,0-24,0,11.38,11.38,0,0,0,.08,1.31A12,12,0,0,1,24,14.62Z"/><circle id="_Path_4" data-name="&lt;Path&gt;" class="cls-5" cx="24" cy="24" r="12"/><circle id="_Path_5" data-name="&lt;Path&gt;" class="cls-8" cx="24" cy="24" r="8.5"/><path id="_Path_6" data-name="&lt;Path&gt;" class="cls-9" d="M24,17.5A8.51,8.51,0,0,1,32.44,25c0-.33.06-.66.06-1a8.5,8.5,0,0,0-17,0c0,.34,0,.67.06,1A8.51,8.51,0,0,1,24,17.5Z"/><circle id="_Path_7" data-name="&lt;Path&gt;" class="cls-5" cx="24" cy="24" r="8.5"/><polyline id="_Path_8" data-name="&lt;Path&gt;" class="cls-5" points="24 18.5 24 24 27 22.5"/><line id="_Path_9" data-name="&lt;Path&gt;" class="cls-5" x1="24" y1="15.5" x2="24" y2="16.5"/><line id="_Path_10" data-name="&lt;Path&gt;" class="cls-5" x1="24" y1="31.5" x2="24" y2="32.5"/><line id="_Path_11" data-name="&lt;Path&gt;" class="cls-5" x1="19.75" y1="16.64" x2="20.25" y2="17.5"/><line id="_Path_12" data-name="&lt;Path&gt;" class="cls-5" x1="27.75" y1="30.5" x2="28.25" y2="31.36"/><line id="_Path_13" data-name="&lt;Path&gt;" class="cls-5" x1="16.64" y1="19.75" x2="17.5" y2="20.25"/><line id="_Path_14" data-name="&lt;Path&gt;" class="cls-5" x1="30.5" y1="27.75" x2="31.36" y2="28.25"/><line id="_Path_15" data-name="&lt;Path&gt;" class="cls-5" x1="15.5" y1="24" x2="16.5" y2="24"/><line id="_Path_16" data-name="&lt;Path&gt;" class="cls-5" x1="31.5" y1="24" x2="32.5" y2="24"/><line id="_Path_17" data-name="&lt;Path&gt;" class="cls-5" x1="16.64" y1="28.25" x2="17.5" y2="27.75"/><line id="_Path_18" data-name="&lt;Path&gt;" class="cls-5" x1="30.5" y1="20.25" x2="31.36" y2="19.75"/><line id="_Path_19" data-name="&lt;Path&gt;" class="cls-5" x1="19.75" y1="31.36" x2="20.25" y2="30.5"/><line id="_Path_20" data-name="&lt;Path&gt;" class="cls-5" x1="27.75" y1="17.5" x2="28.25" y2="16.64"/></g></svg>