<svg id="Icons" xmlns="http://www.w3.org/2000/svg" viewBox="0 0 48 48"><defs><style>.cls-1{fill:#45413c;opacity:0.15;}.cls-2{fill:#656769;}.cls-3{fill:#ffe500;}.cls-4{fill:#87898c;}.cls-5{fill:#fff48c;}.cls-6{fill:none;stroke:#45413c;stroke-linecap:round;stroke-linejoin:round;}.cls-7{fill:#ebcb00;}.cls-8{fill:#525252;}</style></defs><title>636-waxing-crescent-moon</title><g id="_Group_" data-name="&lt;Group&gt;"><ellipse id="_Ellipse_" data-name="&lt;Ellipse&gt;" class="cls-1" cx="24" cy="45.35" rx="12.68" ry="1.65"/><circle id="_Path_" data-name="&lt;Path&gt;" class="cls-2" cx="24" cy="24" r="18.75"/><path id="_Path_2" data-name="&lt;Path&gt;" class="cls-3" d="M24,5.25a19.47,19.47,0,0,0-2.54.19c7,1.24,12.36,9.07,12.36,18.56S28.44,41.32,21.46,42.56a19.47,19.47,0,0,0,2.54.19,18.75,18.75,0,0,0,0-37.5Z"/><path id="_Path_3" data-name="&lt;Path&gt;" class="cls-4" d="M24,9.66A18.74,18.74,0,0,1,42.61,26.21,18,18,0,0,0,42.75,24a18.75,18.75,0,0,0-37.5,0,20.17,20.17,0,0,0,.14,2.21A18.74,18.74,0,0,1,24,9.66Z"/><path id="_Path_4" data-name="&lt;Path&gt;" class="cls-5" d="M24,5.25c-.5,0-1,0-1.47.07s-.71.07-1.06.12h0a13.21,13.21,0,0,1,7.94,5A18.76,18.76,0,0,1,42.61,26.2h0c0-.22,0-.45.06-.67,0-.51.08-1,.08-1.53A18.74,18.74,0,0,0,24,5.25Z"/><circle id="_Path_5" data-name="&lt;Path&gt;" class="cls-6" cx="24" cy="24" r="18.75"/><path id="_Path_6" data-name="&lt;Path&gt;" class="cls-5" d="M37.87,18.74c-1.23.9-3.25.23-4.5-1.49s-1.28-3.84,0-4.74,3.24-.23,4.5,1.49S39.1,17.84,37.87,18.74Z"/><path id="_Path_7" data-name="&lt;Path&gt;" class="cls-7" d="M33.32,14.82c1.23-.9,3.24-.23,4.5,1.49a4.93,4.93,0,0,1,.76,1.52,4.17,4.17,0,0,0-.76-3.8c-1.26-1.72-3.27-2.39-4.5-1.49a2.83,2.83,0,0,0-.71,3.22A2,2,0,0,1,33.32,14.82Z"/><path id="_Path_8" data-name="&lt;Path&gt;" class="cls-6" d="M37.87,18.78c-1.23.89-3.25.23-4.5-1.5s-1.28-3.84,0-4.74,3.24-.23,4.5,1.49S39.1,17.88,37.87,18.78Z"/><path id="_Path_9" data-name="&lt;Path&gt;" class="cls-4" d="M9.43,20.89c.86.33,2-.45,2.44-1.73s.19-2.58-.67-2.91S9.26,16.7,8.77,18,8.58,20.56,9.43,20.89Z"/><path id="_Path_10" data-name="&lt;Path&gt;" class="cls-8" d="M8.77,19.63c.49-1.28,1.58-2.05,2.43-1.73a1.39,1.39,0,0,1,.78.9c.31-1.15,0-2.25-.78-2.55S9.26,16.7,8.77,18a3.14,3.14,0,0,0-.11,2C8.7,19.87,8.73,19.75,8.77,19.63Z"/><path id="_Path_11" data-name="&lt;Path&gt;" class="cls-6" d="M9.43,20.89c.86.33,2-.45,2.44-1.73s.19-2.58-.67-2.91S9.26,16.7,8.77,18,8.58,20.56,9.43,20.89Z"/><path id="_Path_12" data-name="&lt;Path&gt;" class="cls-4" d="M23.88,38.49c-.35,1.32-2.3,2-4.37,1.42s-3.45-2-3.11-3.37,2.3-2,4.37-1.43S24.22,37.16,23.88,38.49Z"/><path id="_Path_13" data-name="&lt;Path&gt;" class="cls-8" d="M20.77,36.7a4.44,4.44,0,0,1,2.95,2.14,1.54,1.54,0,0,0,.15-.35c.35-1.33-1-2.84-3.1-3.38s-4,.1-4.37,1.43a1.84,1.84,0,0,0,.16,1.23C17.14,36.69,18.9,36.21,20.77,36.7Z"/><path id="_Path_14" data-name="&lt;Path&gt;" class="cls-6" d="M23.88,38.49c-.35,1.32-2.3,2-4.37,1.42s-3.45-2-3.11-3.37,2.3-2,4.37-1.43S24.22,37.16,23.88,38.49Z"/><circle id="_Path_15" data-name="&lt;Path&gt;" class="cls-5" cx="37.51" cy="27.03" r="1.93"/><path id="_Path_16" data-name="&lt;Path&gt;" class="cls-7" d="M37.51,26.55a1.93,1.93,0,0,1,1.79,1.21,2,2,0,0,0,.14-.73,1.93,1.93,0,1,0-3.86,0,2,2,0,0,0,.14.73A1.93,1.93,0,0,1,37.51,26.55Z"/><circle id="_Path_17" data-name="&lt;Path&gt;" class="cls-6" cx="37.51" cy="27.03" r="1.93"/><circle id="_Path_18" data-name="&lt;Path&gt;" class="cls-4" cx="16" cy="25.38" r="1.93"/><path id="_Path_19" data-name="&lt;Path&gt;" class="cls-8" d="M16,24.83a1.91,1.91,0,0,1,1.8,1.24,2,2,0,0,0,.13-.69,1.93,1.93,0,1,0-3.86,0,1.81,1.81,0,0,0,.14.69A1.9,1.9,0,0,1,16,24.83Z"/><circle id="_Path_20" data-name="&lt;Path&gt;" class="cls-6" cx="16" cy="25.38" r="1.93"/><circle id="_Path_21" data-name="&lt;Path&gt;" class="cls-4" cx="19.04" cy="14.62" r="3.31"/><path id="_Path_22" data-name="&lt;Path&gt;" class="cls-8" d="M19,13.38a3.29,3.29,0,0,1,3.12,2.28,3.25,3.25,0,0,0,.19-1,3.31,3.31,0,0,0-6.62,0,3.24,3.24,0,0,0,.18,1A3.3,3.3,0,0,1,19,13.38Z"/><circle id="_Path_23" data-name="&lt;Path&gt;" class="cls-6" cx="19.07" cy="14.62" r="3.31"/><circle id="_Path_24" data-name="&lt;Path&gt;" class="cls-4" cx="27.31" cy="30.07" r="2.76"/><path id="_Path_25" data-name="&lt;Path&gt;" class="cls-8" d="M27.31,29a2.77,2.77,0,0,1,2.62,1.93,2.76,2.76,0,1,0-5.24,0A2.76,2.76,0,0,1,27.31,29Z"/><circle id="_Path_26" data-name="&lt;Path&gt;" class="cls-6" cx="27.31" cy="30.07" r="2.76"/></g></svg>