<svg id="Icons" xmlns="http://www.w3.org/2000/svg" viewBox="0 0 48 48"><defs><style>.cls-1{fill:#45413c;opacity:0.15;}.cls-2{fill:#ffe500;}.cls-3{fill:#fff48c;}.cls-4{fill:#656769;}.cls-5{fill:#87898c;}.cls-6{fill:none;stroke:#45413c;stroke-linecap:round;stroke-linejoin:round;}.cls-7{fill:#525252;}.cls-8{fill:#ebcb00;}</style></defs><title>637-first-quarter-moon</title><g id="_Group_" data-name="&lt;Group&gt;"><ellipse id="_Ellipse_" data-name="&lt;Ellipse&gt;" class="cls-1" cx="24" cy="45.32" rx="12.87" ry="1.68"/><circle id="_Path_" data-name="&lt;Path&gt;" class="cls-2" cx="24" cy="24" r="19.03"/><path id="_Path_2" data-name="&lt;Path&gt;" class="cls-3" d="M24,9.45A19,19,0,0,1,42.89,26.24,20.72,20.72,0,0,0,43,24,19,19,0,0,0,5,24a20.72,20.72,0,0,0,.14,2.24A19,19,0,0,1,24,9.45Z"/><path id="_Path_3" data-name="&lt;Path&gt;" class="cls-4" d="M24.05,5V43A19,19,0,0,0,24.05,5Z"/><path id="_Path_4" data-name="&lt;Path&gt;" class="cls-5" d="M24,5V9.45A19,19,0,0,1,42.89,26.24,20.72,20.72,0,0,0,43,24,19,19,0,0,0,24,5Z"/><circle id="_Path_5" data-name="&lt;Path&gt;" class="cls-6" cx="24" cy="24" r="19.03"/><path id="_Path_6" data-name="&lt;Path&gt;" class="cls-5" d="M38.08,18.66c-1.25.92-3.3.24-4.57-1.51s-1.3-3.9,0-4.81,3.29-.24,4.57,1.51S39.33,17.75,38.08,18.66Z"/><path id="_Path_7" data-name="&lt;Path&gt;" class="cls-7" d="M33.46,14.68c1.24-.91,3.29-.23,4.57,1.51a5.22,5.22,0,0,1,.77,1.55A4.24,4.24,0,0,0,38,13.88c-1.28-1.74-3.33-2.42-4.57-1.51a2.88,2.88,0,0,0-.72,3.27A2,2,0,0,1,33.46,14.68Z"/><path id="_Path_8" data-name="&lt;Path&gt;" class="cls-6" d="M38.08,18.7c-1.25.91-3.3.23-4.57-1.52s-1.3-3.9,0-4.81,3.29-.23,4.57,1.51S39.33,17.79,38.08,18.7Z"/><path id="_Path_9" data-name="&lt;Path&gt;" class="cls-3" d="M9.22,20.84c.86.33,2-.45,2.46-1.75s.2-2.62-.67-2.95-2,.45-2.46,1.75S8.35,20.51,9.22,20.84Z"/><path id="_Path_10" data-name="&lt;Path&gt;" class="cls-8" d="M8.55,19.56c.49-1.29,1.6-2.08,2.46-1.75a1.39,1.39,0,0,1,.79.92c.31-1.18,0-2.29-.79-2.59s-2,.45-2.46,1.75a3.09,3.09,0,0,0-.11,2A3,3,0,0,1,8.55,19.56Z"/><path id="_Path_11" data-name="&lt;Path&gt;" class="cls-6" d="M9.22,20.84c.86.33,2-.45,2.46-1.75s.2-2.62-.67-2.95-2,.45-2.46,1.75S8.35,20.51,9.22,20.84Z"/><path id="_Path_12" data-name="&lt;Path&gt;" class="cls-3" d="M23.87,38.7c-.35,1.35-2.33,2-4.42,1.45s-3.51-2.08-3.16-3.43,2.33-2,4.43-1.44S24.22,37.36,23.87,38.7Z"/><path id="_Path_13" data-name="&lt;Path&gt;" class="cls-8" d="M20.72,36.89a4.53,4.53,0,0,1,3,2.17,1.44,1.44,0,0,0,.15-.36c.35-1.34-1.06-2.88-3.15-3.42s-4.08.1-4.43,1.44A1.83,1.83,0,0,0,16.45,38C17,36.88,18.82,36.39,20.72,36.89Z"/><path id="_Path_14" data-name="&lt;Path&gt;" class="cls-6" d="M23.87,38.7c-.35,1.35-2.33,2-4.42,1.45s-3.51-2.08-3.16-3.43,2.33-2,4.43-1.44S24.22,37.36,23.87,38.7Z"/><circle id="_Path_15" data-name="&lt;Path&gt;" class="cls-5" cx="37.71" cy="27.08" r="1.96"/><path id="_Path_16" data-name="&lt;Path&gt;" class="cls-7" d="M37.71,26.59a2,2,0,0,1,1.82,1.22,1.94,1.94,0,0,0,.14-.73,2,2,0,1,0-3.77.73A2,2,0,0,1,37.71,26.59Z"/><circle id="_Path_17" data-name="&lt;Path&gt;" class="cls-6" cx="37.71" cy="27.08" r="1.96"/><circle id="_Path_18" data-name="&lt;Path&gt;" class="cls-3" cx="15.88" cy="25.4" r="1.96"/><path id="_Path_19" data-name="&lt;Path&gt;" class="cls-8" d="M15.88,24.84a2,2,0,0,1,1.83,1.26,2,2,0,0,0,.13-.7,2,2,0,0,0-3.92,0,2,2,0,0,0,.14.7A2,2,0,0,1,15.88,24.84Z"/><circle id="_Path_20" data-name="&lt;Path&gt;" class="cls-6" cx="15.88" cy="25.4" r="1.96"/><circle id="_Path_21" data-name="&lt;Path&gt;" class="cls-3" cx="18.96" cy="14.48" r="3.36"/><path id="_Path_22" data-name="&lt;Path&gt;" class="cls-8" d="M19,13.23a3.36,3.36,0,0,1,3.18,2.3,3.31,3.31,0,0,0,.18-1,3.36,3.36,0,0,0-6.72,0,3.31,3.31,0,0,0,.19,1A3.35,3.35,0,0,1,19,13.23Z"/><circle id="_Path_23" data-name="&lt;Path&gt;" class="cls-6" cx="19" cy="14.48" r="3.36"/><circle id="_Path_24" data-name="&lt;Path&gt;" class="cls-5" cx="27.36" cy="30.16" r="2.8"/><path id="_Path_25" data-name="&lt;Path&gt;" class="cls-7" d="M27.36,29A2.77,2.77,0,0,1,30,31a2.65,2.65,0,0,0,.15-.84,2.8,2.8,0,1,0-5.6,0,3,3,0,0,0,.14.84A2.79,2.79,0,0,1,27.36,29Z"/><circle id="_Path_26" data-name="&lt;Path&gt;" class="cls-6" cx="27.36" cy="30.16" r="2.8"/></g></svg>