<svg id="Icons" xmlns="http://www.w3.org/2000/svg" viewBox="0 0 48 48"><defs><style>.cls-1{fill:#45413c;opacity:0.15;}.cls-2{fill:#ffe500;}.cls-3{fill:#656769;}.cls-4{fill:#fff48c;}.cls-5{fill:#87898c;}.cls-6{fill:none;stroke:#45413c;stroke-linecap:round;stroke-linejoin:round;}.cls-7{fill:#525252;}.cls-8{fill:#ebcb00;}</style></defs><title>639-waning-gibbous-moon</title><g id="_Group_" data-name="&lt;Group&gt;"><ellipse id="_Ellipse_" data-name="&lt;Ellipse&gt;" class="cls-1" cx="24" cy="45.35" rx="12.66" ry="1.65"/><circle id="_Path_" data-name="&lt;Path&gt;" class="cls-2" cx="24" cy="24" r="18.71"/><path id="_Path_2" data-name="&lt;Path&gt;" class="cls-3" d="M24,5.29a19.19,19.19,0,0,0-2.53.19c7,1.24,12.33,9,12.33,18.52S28.43,41.28,21.47,42.52a19.19,19.19,0,0,0,2.53.19A18.71,18.71,0,0,0,24,5.29Z"/><path id="_Path_3" data-name="&lt;Path&gt;" class="cls-4" d="M24,9.69A18.71,18.71,0,0,1,42.57,26.2a19.83,19.83,0,0,0,.14-2.2A18.71,18.71,0,0,0,5.29,24a19.83,19.83,0,0,0,.14,2.2A18.71,18.71,0,0,1,24,9.69Z"/><path id="_Path_4" data-name="&lt;Path&gt;" class="cls-5" d="M24,5.29c-.49,0-1,0-1.47.08s-.71.06-1.06.11h0a13.26,13.26,0,0,1,7.92,5A18.74,18.74,0,0,1,42.57,26.2h0l.06-.66c0-.51.08-1,.08-1.53A18.71,18.71,0,0,0,24,5.29Z"/><circle id="_Path_5" data-name="&lt;Path&gt;" class="cls-6" cx="24" cy="24" r="18.71"/><path id="_Path_6" data-name="&lt;Path&gt;" class="cls-5" d="M37.84,18.75c-1.23.9-3.24.23-4.49-1.48s-1.28-3.84-.05-4.74,3.23-.23,4.49,1.49S39.07,17.86,37.84,18.75Z"/><path id="_Path_7" data-name="&lt;Path&gt;" class="cls-7" d="M33.3,14.84c1.22-.9,3.23-.23,4.49,1.48a5.41,5.41,0,0,1,.76,1.52,4.13,4.13,0,0,0-.76-3.78c-1.26-1.72-3.27-2.39-4.49-1.49a2.83,2.83,0,0,0-.71,3.21A2,2,0,0,1,33.3,14.84Z"/><path id="_Path_8" data-name="&lt;Path&gt;" class="cls-6" d="M37.84,18.79c-1.23.89-3.24.23-4.49-1.49s-1.28-3.84-.05-4.73,3.23-.23,4.49,1.49S39.07,17.89,37.84,18.79Z"/><path id="_Path_9" data-name="&lt;Path&gt;" class="cls-4" d="M9.47,20.9c.85.32,1.94-.45,2.42-1.73s.2-2.57-.66-2.9S9.3,16.72,8.81,18,8.62,20.57,9.47,20.9Z"/><path id="_Path_10" data-name="&lt;Path&gt;" class="cls-8" d="M8.81,19.64c.49-1.28,1.57-2.05,2.42-1.72a1.35,1.35,0,0,1,.77.9c.31-1.16,0-2.25-.77-2.55S9.3,16.72,8.81,18a3,3,0,0,0-.11,2A2.47,2.47,0,0,1,8.81,19.64Z"/><path id="_Path_11" data-name="&lt;Path&gt;" class="cls-6" d="M9.47,20.9c.85.32,1.94-.45,2.42-1.73s.2-2.57-.66-2.9S9.3,16.72,8.81,18,8.62,20.57,9.47,20.9Z"/><path id="_Path_12" data-name="&lt;Path&gt;" class="cls-4" d="M23.88,38.45c-.35,1.33-2.3,2-4.36,1.43s-3.44-2.05-3.1-3.37,2.3-2,4.35-1.42S24.22,37.13,23.88,38.45Z"/><path id="_Path_13" data-name="&lt;Path&gt;" class="cls-8" d="M20.77,36.67a4.41,4.41,0,0,1,2.95,2.14,2.32,2.32,0,0,0,.16-.36c.34-1.32-1.05-2.83-3.11-3.36s-4,.1-4.35,1.42a1.84,1.84,0,0,0,.16,1.23C17.15,36.66,18.91,36.18,20.77,36.67Z"/><path id="_Path_14" data-name="&lt;Path&gt;" class="cls-6" d="M23.88,38.45c-.35,1.33-2.3,2-4.36,1.43s-3.44-2.05-3.1-3.37,2.3-2,4.35-1.42S24.22,37.13,23.88,38.45Z"/><circle id="_Path_15" data-name="&lt;Path&gt;" class="cls-5" cx="37.48" cy="27.03" r="1.93"/><path id="_Path_16" data-name="&lt;Path&gt;" class="cls-7" d="M37.48,26.54a1.91,1.91,0,0,1,1.78,1.21,1.92,1.92,0,1,0-3.56,0A1.91,1.91,0,0,1,37.48,26.54Z"/><circle id="_Path_17" data-name="&lt;Path&gt;" class="cls-6" cx="37.48" cy="27.03" r="1.93"/><circle id="_Path_18" data-name="&lt;Path&gt;" class="cls-4" cx="16.02" cy="25.38" r="1.93"/><path id="_Path_19" data-name="&lt;Path&gt;" class="cls-8" d="M16,24.83a1.93,1.93,0,0,1,1.8,1.23,1.93,1.93,0,1,0-3.59,0A1.92,1.92,0,0,1,16,24.83Z"/><circle id="_Path_20" data-name="&lt;Path&gt;" class="cls-6" cx="16.02" cy="25.38" r="1.93"/><circle id="_Path_21" data-name="&lt;Path&gt;" class="cls-4" cx="19.05" cy="14.65" r="3.3"/><path id="_Path_22" data-name="&lt;Path&gt;" class="cls-8" d="M19.05,13.41a3.29,3.29,0,0,1,3.12,2.27,3.23,3.23,0,0,0,.18-1,3.3,3.3,0,1,0-6.6,0,3.23,3.23,0,0,0,.18,1A3.28,3.28,0,0,1,19.05,13.41Z"/><circle id="_Path_23" data-name="&lt;Path&gt;" class="cls-6" cx="19.08" cy="14.65" r="3.3"/><circle id="_Path_24" data-name="&lt;Path&gt;" class="cls-4" cx="27.3" cy="30.05" r="2.75"/><path id="_Path_25" data-name="&lt;Path&gt;" class="cls-8" d="M27.3,29a2.73,2.73,0,0,1,2.61,1.93,2.54,2.54,0,0,0,.14-.83,2.75,2.75,0,0,0-5.5,0,2.83,2.83,0,0,0,.14.83A2.73,2.73,0,0,1,27.3,29Z"/><circle id="_Path_26" data-name="&lt;Path&gt;" class="cls-6" cx="27.3" cy="30.05" r="2.75"/></g></svg>