<svg id="Icons" xmlns="http://www.w3.org/2000/svg" viewBox="0 0 48 48"><defs><style>.cls-1{fill:#45413c;opacity:0.15;}.cls-2{fill:#ffe500;}.cls-3{fill:#ebcb00;}.cls-4{fill:none;stroke:#45413c;stroke-linecap:round;stroke-linejoin:round;}</style></defs><title>640-crescent-moon</title><g id="_Group_" data-name="&lt;Group&gt;"><ellipse id="_Ellipse_" data-name="&lt;Ellipse&gt;" class="cls-1" cx="25.67" cy="45.5" rx="14.5" ry="1.5"/><path id="_Path_" data-name="&lt;Path&gt;" class="cls-2" d="M28.3,4.65A15.42,15.42,0,1,1,6.64,26.32a.62.62,0,0,0-1.1.52A18.84,18.84,0,1,0,28.83,3.55.62.62,0,0,0,28.3,4.65Z"/><g id="_Group_2" data-name="&lt;Group&gt;"><path id="_Path_2" data-name="&lt;Path&gt;" class="cls-3" d="M41.05,14.43a19.23,19.23,0,0,1,0,5.36A18.84,18.84,0,0,1,5.85,26.14a.58.58,0,0,0-.31.7A18.84,18.84,0,1,0,41.05,14.43Z"/></g><path id="_Path_3" data-name="&lt;Path&gt;" class="cls-4" d="M28.3,4.65A15.42,15.42,0,1,1,6.64,26.32a.62.62,0,0,0-1.1.52A18.84,18.84,0,1,0,28.83,3.55.62.62,0,0,0,28.3,4.65Z"/></g></svg>