<svg id="Icons" xmlns="http://www.w3.org/2000/svg" viewBox="0 0 48 48"><defs><style>.cls-1,.cls-5{fill:#45413c;}.cls-1{opacity:0.15;}.cls-2{fill:#ffe500;}.cls-3{fill:#fff48c;}.cls-4{fill:none;stroke-linecap:round;stroke-linejoin:round;}.cls-4,.cls-5{stroke:#45413c;}.cls-5{stroke-miterlimit:10;}.cls-6{fill:#fffacf;}</style></defs><title>641-first-quarter-moon-face</title><ellipse id="_Ellipse_" data-name="&lt;Ellipse&gt;" class="cls-1" cx="24" cy="46.5" rx="11.5" ry="1.5"/><path id="_Path_" data-name="&lt;Path&gt;" class="cls-2" d="M40.75,29A22,22,0,0,0,20.17,1.5a1,1,0,0,0-.76,1.71A21,21,0,0,1,25.2,21c-.88,3.59-6.15,2.66-8,4.41s4.22,5.09,4.22,5.09h0A23.3,23.3,0,0,1,7.33,39.82,1,1,0,0,0,7,41.63,22,22,0,0,0,40.75,29Z"/><path id="_Path_2" data-name="&lt;Path&gt;" class="cls-3" d="M18.1,28.18c2.34-.73,5.72-.77,6.41-3.58A20.77,20.77,0,0,0,24.74,22c-1.58,2.36-5.9,1.81-7.57,3.36C16.34,26.14,17.05,27.21,18.1,28.18Z"/><path id="_Path_3" data-name="&lt;Path&gt;" class="cls-3" d="M28.21,3.31a22.15,22.15,0,0,0-8-1.81,1,1,0,0,0-.76,1.71,22.1,22.1,0,0,1,1.72,2,21.93,21.93,0,0,1,19.49,24.2c0-.15.09-.29.13-.44A22.09,22.09,0,0,0,28.21,3.31Z"/><path id="_Path_4" data-name="&lt;Path&gt;" class="cls-4" d="M21.39,30.47c1.91,1.06,3.36,1.36,3.84-.42"/><path id="_Path_5" data-name="&lt;Path&gt;" class="cls-5" d="M31.35,24.38a1.08,1.08,0,0,1-1.37.69,1.07,1.07,0,0,1-.69-1.36,1.08,1.08,0,1,1,2.06.67Z"/><path id="_Path_6" data-name="&lt;Path&gt;" class="cls-6" d="M33.38,34.59a1.31,1.31,0,1,1-.84-1.66A1.31,1.31,0,0,1,33.38,34.59Z"/><path id="_Path_7" data-name="&lt;Path&gt;" class="cls-4" d="M26.91,34.48a2.51,2.51,0,0,0-.72,2.2,2.31,2.31,0,0,0,1.87,1.73"/><path class="cls-3" d="M19.49,32.81a23,23,0,0,1-12.16,7A1,1,0,0,0,7,41.63a21.34,21.34,0,0,0,2,1.22c3.92-1.62,7.37-4.79,9.5-6.62C20.08,34.86,19.9,33.6,19.49,32.81Z"/><path id="_Path_8" data-name="&lt;Path&gt;" class="cls-4" d="M40.75,29A22,22,0,0,0,20.17,1.5a1,1,0,0,0-.76,1.71A21,21,0,0,1,25.2,21c-.88,3.59-6.15,2.66-8,4.41s4.22,5.09,4.22,5.09h0A23.36,23.36,0,0,1,7.34,39.82,1,1,0,0,0,7,41.63,22,22,0,0,0,40.75,29Z"/><path id="_Path_9" data-name="&lt;Path&gt;" class="cls-4" d="M17.86,34.42a9,9,0,0,0,8.33,2.26"/></svg>