<svg id="Icons" xmlns="http://www.w3.org/2000/svg" viewBox="0 0 48 48"><defs><style>.cls-1,.cls-5{fill:#45413c;}.cls-1{opacity:0.15;}.cls-2{fill:#ffe500;}.cls-3{fill:#ebcb00;}.cls-4,.cls-6{fill:none;}.cls-4,.cls-5,.cls-6{stroke:#45413c;stroke-linecap:round;}.cls-4,.cls-5{stroke-linejoin:round;}.cls-6{stroke-miterlimit:10;}</style></defs><title>642-full-moon-face</title><ellipse id="_Ellipse_" data-name="&lt;Ellipse&gt;" class="cls-1" cx="24" cy="46.5" rx="14.5" ry="1.5"/><circle id="_Ellipse_2" data-name="&lt;Ellipse&gt;" class="cls-2" cx="24" cy="24" r="20"/><path id="_Compound_Path_" data-name="&lt;Compound Path&gt;" class="cls-3" d="M24,4A20,20,0,1,0,44,24,20,20,0,0,0,24,4Zm0,37A18.25,18.25,0,1,1,42.25,22.75,18.25,18.25,0,0,1,24,41Z"/><circle id="_Ellipse_3" data-name="&lt;Ellipse&gt;" class="cls-4" cx="24" cy="24" r="20"/><path id="_Path_" data-name="&lt;Path&gt;" class="cls-5" d="M15,24a1,1,0,1,1-1-1A1,1,0,0,1,15,24Z"/><path id="_Path_2" data-name="&lt;Path&gt;" class="cls-5" d="M33,24a1,1,0,1,0,1-1A1,1,0,0,0,33,24Z"/><path id="_Path_3" data-name="&lt;Path&gt;" class="cls-3" d="M38.5,30.75c0,.83-1.12,1.5-2.5,1.5s-2.5-.67-2.5-1.5,1.12-1.5,2.5-1.5S38.5,29.92,38.5,30.75Z"/><path id="_Path_4" data-name="&lt;Path&gt;" class="cls-3" d="M9.5,30.75c0,.83,1.12,1.5,2.5,1.5s2.5-.67,2.5-1.5-1.12-1.5-2.5-1.5S9.5,29.92,9.5,30.75Z"/><path id="_Path_5" data-name="&lt;Path&gt;" class="cls-6" d="M18.64,31.6A2.61,2.61,0,0,1,16,34.21"/><path id="_Path_6" data-name="&lt;Path&gt;" class="cls-6" d="M30,33.3a10.75,10.75,0,0,1-6,1.82h0a10.75,10.75,0,0,1-6-1.82"/><path id="_Path_7" data-name="&lt;Path&gt;" class="cls-6" d="M29.36,31.6A2.61,2.61,0,0,0,32,34.21"/><g id="_Group_" data-name="&lt;Group&gt;"><path id="_Path_8" data-name="&lt;Path&gt;" class="cls-3" d="M31.73,11.44c1.11-.82,2.94-.21,4.08,1.35a4.82,4.82,0,0,1,.69,1.38,3.76,3.76,0,0,0-.69-3.44c-1.14-1.56-3-2.17-4.08-1.36a2.6,2.6,0,0,0-.65,2.93A1.87,1.87,0,0,1,31.73,11.44Z"/><path id="_Path_9" data-name="&lt;Path&gt;" class="cls-3" d="M9.48,16.55c.44-1.16,1.43-1.86,2.2-1.57a1.24,1.24,0,0,1,.7.82c.28-1.05,0-2-.7-2.31s-1.76.41-2.2,1.57a2.69,2.69,0,0,0-.1,1.82A2.07,2.07,0,0,1,9.48,16.55Z"/><path id="_Path_10" data-name="&lt;Path&gt;" class="cls-3" d="M19.44,38.31a3,3,0,0,1,2,1.43,1.75,1.75,0,0,0,.11-.24c.23-.88-.7-1.88-2.07-2.24s-2.67.07-2.9,1a1.18,1.18,0,0,0,.1.82A2.47,2.47,0,0,1,19.44,38.31Z"/><path id="_Path_11" data-name="&lt;Path&gt;" class="cls-3" d="M40.19,21.93a1.76,1.76,0,0,1,.71,1.82,1.9,1.9,0,0,0,.48-.46,1.75,1.75,0,1,0-2.88-2,1.8,1.8,0,0,0-.27.62A1.75,1.75,0,0,1,40.19,21.93Z"/><path id="_Path_12" data-name="&lt;Path&gt;" class="cls-3" d="M8.25,24.49a1.75,1.75,0,0,1,2-.06,1.57,1.57,0,0,0-.27-.57,1.75,1.75,0,1,0-2.35,2.5A1.73,1.73,0,0,1,8.25,24.49Z"/><path id="_Path_13" data-name="&lt;Path&gt;" class="cls-3" d="M23.85,26.64a2.47,2.47,0,0,1,2.35,1.41,2.06,2.06,0,0,0,.15-.82,2.49,2.49,0,0,0-5,.12,2.19,2.19,0,0,0,.19.81A2.48,2.48,0,0,1,23.85,26.64Z"/><path id="_Path_14" data-name="&lt;Path&gt;" class="cls-3" d="M19,8.92A3,3,0,0,1,21.86,11,2.94,2.94,0,0,0,22,10a3,3,0,0,0-6,0,3,3,0,0,0,.17.94A3,3,0,0,1,19,8.92Z"/><path id="_Path_15" data-name="&lt;Path&gt;" class="cls-3" d="M27.5,14.39a2.49,2.49,0,0,1,2.37,1.75,2.36,2.36,0,0,0,.13-.75,2.5,2.5,0,0,0-5,0,2.36,2.36,0,0,0,.13.75A2.49,2.49,0,0,1,27.5,14.39Z"/></g></svg>