<svg id="Icons" xmlns="http://www.w3.org/2000/svg" viewBox="0 0 48 48"><defs><style>.cls-1{fill:#45413c;opacity:0.15;}.cls-2{fill:#fff;}.cls-3{fill:#f0f0f0;}.cls-4{fill:none;stroke:#45413c;stroke-linecap:round;stroke-linejoin:round;}</style></defs><title>644-cloud-1</title><g id="_Group_" data-name="&lt;Group&gt;"><ellipse id="_Ellipse_" data-name="&lt;Ellipse&gt;" class="cls-1" cx="24" cy="43.09" rx="14.63" ry="1.91"/><path id="_Path_" data-name="&lt;Path&gt;" class="cls-2" d="M43.27,27.41a6.09,6.09,0,0,0-3.65-5.58,6.7,6.7,0,0,0,.23-1.74A6.83,6.83,0,0,0,33,13.26a6.67,6.67,0,0,0-2.58.51,10.18,10.18,0,0,0-20.21,1.71c0,.24,0,.47,0,.7A9,9,0,0,0,13.74,33.5H37.21A6.09,6.09,0,0,0,43.27,27.41Z"/><path id="_Path_2" data-name="&lt;Path&gt;" class="cls-3" d="M37.21,29.21H13.74A9,9,0,0,1,5,22.34,9,9,0,0,0,13.74,33.5H37.21a6.09,6.09,0,0,0,5.67-8.24A6.1,6.1,0,0,1,37.21,29.21Z"/><path id="_Path_3" data-name="&lt;Path&gt;" class="cls-4" d="M43.27,27.41a6.09,6.09,0,0,0-3.65-5.58,6.7,6.7,0,0,0,.23-1.74A6.83,6.83,0,0,0,33,13.26a6.67,6.67,0,0,0-2.58.51,10.18,10.18,0,0,0-20.21,1.71c0,.24,0,.47,0,.7A9,9,0,0,0,13.74,33.5H37.21A6.09,6.09,0,0,0,43.27,27.41Z"/><path id="_Path_4" data-name="&lt;Path&gt;" class="cls-4" d="M30.45,13.77a7.63,7.63,0,0,0-4.12,6.49"/></g></svg>