<svg id="Icons" xmlns="http://www.w3.org/2000/svg" viewBox="0 0 48 48"><defs><style>.cls-1{fill:#45413c;opacity:0.15;}.cls-2{fill:#fff;}.cls-3{fill:none;}.cls-3,.cls-5,.cls-6,.cls-7,.cls-8,.cls-9{stroke:#45413c;stroke-linecap:round;stroke-linejoin:round;}.cls-4,.cls-9{fill:#00b8f0;}.cls-5{fill:#ff6242;}.cls-6{fill:#ffe500;}.cls-7{fill:#00dba8;}.cls-8{fill:#bf8df2;}</style></defs><title>649-rainbow</title><ellipse id="_Ellipse_" data-name="&lt;Ellipse&gt;" class="cls-1" cx="24" cy="45.3" rx="20.92" ry="1.7"/><rect id="_Rectangle_" data-name="&lt;Rectangle&gt;" class="cls-2" x="4.21" y="4.21" width="39.57" height="39.57" rx="3.39" ry="3.39"/><rect id="_Rectangle_2" data-name="&lt;Rectangle&gt;" class="cls-3" x="4.21" y="4.21" width="39.57" height="39.57" rx="3.39" ry="3.39"/><rect id="_Rectangle_3" data-name="&lt;Rectangle&gt;" class="cls-4" x="7.04" y="7.04" width="33.92" height="33.92" rx="1.13" ry="1.13"/><rect id="_Rectangle_4" data-name="&lt;Rectangle&gt;" class="cls-3" x="7.04" y="7.04" width="33.92" height="33.92" rx="1.13" ry="1.13"/><path id="_Rectangle_5" data-name="&lt;Rectangle&gt;" class="cls-5" d="M41,9.4h0a0,0,0,0,1,0,0V39.83A1.13,1.13,0,0,1,39.83,41H9.4a0,0,0,0,1,0,0v0A31.56,31.56,0,0,1,41,9.4Z"/><path id="_Rectangle_6" data-name="&lt;Rectangle&gt;" class="cls-6" d="M41,14.13h0a0,0,0,0,1,0,0v25.7A1.13,1.13,0,0,1,39.83,41H14.13a0,0,0,0,1,0,0v0A26.83,26.83,0,0,1,41,14.13Z"/><path id="_Rectangle_7" data-name="&lt;Rectangle&gt;" class="cls-7" d="M41,19h0a0,0,0,0,1,0,0V39.83A1.13,1.13,0,0,1,39.83,41H19a0,0,0,0,1,0,0v0A22,22,0,0,1,41,19Z"/><path id="_Rectangle_8" data-name="&lt;Rectangle&gt;" class="cls-8" d="M41,23.73h0a0,0,0,0,1,0,0v16.1A1.13,1.13,0,0,1,39.83,41H23.73a0,0,0,0,1,0,0v0A17.23,17.23,0,0,1,41,23.73Z"/><path id="_Rectangle_9" data-name="&lt;Rectangle&gt;" class="cls-9" d="M41,28.25h0a0,0,0,0,1,0,0V39.83A1.13,1.13,0,0,1,39.83,41H28.25a0,0,0,0,1,0,0v0A12.71,12.71,0,0,1,41,28.25Z"/></svg>