<svg id="Icons" xmlns="http://www.w3.org/2000/svg" viewBox="0 0 48 48"><defs><style>.cls-1{fill:#45413c;opacity:0.15;}.cls-2{fill:#debb7e;}.cls-3{fill:#b89558;}.cls-4{fill:none;stroke:#45413c;stroke-linecap:round;stroke-linejoin:round;}.cls-5{fill:#bf8df2;}.cls-6{fill:#dabff5;}</style></defs><title>651-umbrella</title><g id="_Group_" data-name="&lt;Group&gt;"><ellipse id="_Ellipse_" data-name="&lt;Ellipse&gt;" class="cls-1" cx="24" cy="45.42" rx="12.12" ry="1.58"/><path class="cls-2" d="M24,3.5a1.27,1.27,0,0,0-1.27,1.27v36a1.51,1.51,0,0,1-3,0V39.66a1.27,1.27,0,0,0-2.54,0v1.07a4,4,0,1,0,8.09,0v-36A1.27,1.27,0,0,0,24,3.5Z"/><rect id="_Path_" data-name="&lt;Path&gt;" class="cls-3" x="22.73" y="19.62" width="2.54" height="9.48"/><path id="_Path_2" data-name="&lt;Path&gt;" class="cls-4" d="M22.73,4.77v36a1.5,1.5,0,0,1-1.51,1.5h0a1.5,1.5,0,0,1-1.5-1.5V39.66a1.27,1.27,0,0,0-1.27-1.27h0a1.27,1.27,0,0,0-1.27,1.27v1.07a4.05,4.05,0,0,0,4.05,4.05h0a4.05,4.05,0,0,0,4-4.05v-36A1.27,1.27,0,0,0,24,3.5h0A1.27,1.27,0,0,0,22.73,4.77Z"/><path id="_Path_3" data-name="&lt;Path&gt;" class="cls-5" d="M9,22.66a6,6,0,0,1,3.23.93,1,1,0,0,0,1.06,0,6.07,6.07,0,0,1,6.46,0,1,1,0,0,0,1.06,0,6.07,6.07,0,0,1,6.46,0,1,1,0,0,0,1.06,0,6.07,6.07,0,0,1,6.46,0,1,1,0,0,0,1.06,0A6,6,0,0,1,39,22.66a5.83,5.83,0,0,1,1.68.24A1,1,0,0,0,42,21.68a18.37,18.37,0,0,0-36,0A1,1,0,0,0,7.28,22.9,5.83,5.83,0,0,1,9,22.66Z"/><path id="_Path_4" data-name="&lt;Path&gt;" class="cls-6" d="M24,11a19.59,19.59,0,0,1,18,11.2,1,1,0,0,0,0-.53,18.37,18.37,0,0,0-36,0,1,1,0,0,0,0,.53A19.59,19.59,0,0,1,24,11Z"/><path id="_Path_5" data-name="&lt;Path&gt;" class="cls-4" d="M9,22.66a6,6,0,0,1,3.23.93,1,1,0,0,0,1.06,0,6.07,6.07,0,0,1,6.46,0,1,1,0,0,0,1.06,0,6.07,6.07,0,0,1,6.46,0,1,1,0,0,0,1.06,0,6.07,6.07,0,0,1,6.46,0,1,1,0,0,0,1.06,0A6,6,0,0,1,39,22.66a5.83,5.83,0,0,1,1.68.24A1,1,0,0,0,42,21.68a18.37,18.37,0,0,0-36,0A1,1,0,0,0,7.28,22.9,5.83,5.83,0,0,1,9,22.66Z"/></g></svg>