<svg id="Icons" xmlns="http://www.w3.org/2000/svg" viewBox="0 0 48 48"><defs><style>.cls-1{fill:#6dd627;}.cls-2{fill:#9ceb60;}.cls-3{fill:#45413c;opacity:0.15;}.cls-4{fill:none;stroke:#45413c;stroke-linecap:round;stroke-linejoin:round;}.cls-5{fill:#ff8a14;}.cls-6{fill:#ffaa54;}.cls-7{fill:#ffe500;}.cls-8{fill:#ebcb00;}</style></defs><title>659-jack-o-lantern</title><path id="_Path_" data-name="&lt;Path&gt;" class="cls-1" d="M27.43,2a1.54,1.54,0,0,1,1,1.44v10H19.58v-10a1.54,1.54,0,0,1,1-1.44A9.76,9.76,0,0,1,27.43,2Z"/><path id="_Path_2" data-name="&lt;Path&gt;" class="cls-2" d="M27.43,2a9.76,9.76,0,0,0-6.86,0,1.54,1.54,0,0,0-1,1.44V5.58a1.52,1.52,0,0,1,1-1.43,9.76,9.76,0,0,1,6.86,0,1.52,1.52,0,0,1,1,1.43V3.43A1.54,1.54,0,0,0,27.43,2Z"/><ellipse id="_Ellipse_" data-name="&lt;Ellipse&gt;" class="cls-3" cx="24" cy="45.05" rx="14.93" ry="1.95"/><path id="_Path_3" data-name="&lt;Path&gt;" class="cls-4" d="M27.43,2a1.54,1.54,0,0,1,1,1.44v10H19.58v-10a1.54,1.54,0,0,1,1-1.44A9.76,9.76,0,0,1,27.43,2Z"/><path id="_Path_4" data-name="&lt;Path&gt;" class="cls-5" d="M43.91,26.63c0-7.87-3.22-12.62-8.15-15.18-1.23-1.38-3.39-2.66-7.17-3.23A6.53,6.53,0,0,0,24,6.79a6.53,6.53,0,0,0-4.59,1.43c-3.85.58-6,1.9-7.24,3.31-4.89,2.59-8.08,7.35-8.08,15.1,0,6.53,1.77,11.23,7,13.81.73,1.49,2.78,3.32,8.36,4A8,8,0,0,0,24,45.5a8,8,0,0,0,4.59-1.09c5.58-.65,7.63-2.48,8.36-4C42.14,37.86,43.91,33.16,43.91,26.63Z"/><path id="_Path_5" data-name="&lt;Path&gt;" class="cls-6" d="M12.17,14.84c1.22-1.4,3.39-2.72,7.24-3.31A6.58,6.58,0,0,1,24,10.11a6.58,6.58,0,0,1,4.59,1.42c3.78.58,5.94,1.86,7.17,3.24,4.59,2.38,7.69,6.66,8.1,13.58,0-.56,0-1.13,0-1.72,0-7.87-3.22-12.62-8.15-15.18-1.23-1.38-3.39-2.66-7.17-3.23A6.53,6.53,0,0,0,24,6.79a6.53,6.53,0,0,0-4.59,1.43c-3.85.58-6,1.9-7.24,3.31-4.89,2.59-8.08,7.35-8.08,15.1,0,.6,0,1.17,0,1.73C4.55,21.54,7.62,17.25,12.17,14.84Z"/><path id="_Path_6" data-name="&lt;Path&gt;" class="cls-4" d="M43.91,26.63c0-7.87-3.22-12.62-8.15-15.18-1.23-1.38-3.39-2.66-7.17-3.23A6.53,6.53,0,0,0,24,6.79a6.53,6.53,0,0,0-4.59,1.43c-3.85.58-6,1.9-7.24,3.31-4.89,2.59-8.08,7.35-8.08,15.1,0,6.53,1.77,11.23,7,13.81.73,1.49,2.78,3.32,8.36,4A8,8,0,0,0,24,45.5a8,8,0,0,0,4.59-1.09c5.58-.65,7.63-2.48,8.36-4C42.14,37.86,43.91,33.16,43.91,26.63Z"/><path class="cls-7" d="M26.26,26.64,24.85,25a1.1,1.1,0,0,0-1.7,0l-1.41,1.69a1.21,1.21,0,0,0,1.79,1.63.68.68,0,0,1,.94,0,1.21,1.21,0,0,0,1.79-1.63Z"/><path id="_Path_7" data-name="&lt;Path&gt;" class="cls-8" d="M21.84,28.29l1.31-1.57a1.11,1.11,0,0,1,1.7,0l1.31,1.57a1.43,1.43,0,0,0,.25-.33,1.2,1.2,0,0,0-.15-1.32L24.85,25a1.11,1.11,0,0,0-1.7,0l-1.41,1.69A1.2,1.2,0,0,0,21.59,28,1.43,1.43,0,0,0,21.84,28.29Z"/><path class="cls-4" d="M26.26,26.64,24.85,25a1.1,1.1,0,0,0-1.7,0l-1.41,1.69a1.21,1.21,0,0,0,1.79,1.63.68.68,0,0,1,.94,0,1.21,1.21,0,0,0,1.79-1.63Z"/><path id="_Path_8" data-name="&lt;Path&gt;" class="cls-7" d="M34.38,17.2c1.73,1.73,2.59,3.67.78,5.48s-3.75.94-5.47-.79-2.08-4.17-.78-5.47S32.65,15.48,34.38,17.2Z"/><path id="_Path_9" data-name="&lt;Path&gt;" class="cls-7" d="M13.62,17.2c-1.73,1.73-2.59,3.67-.78,5.48s3.75.94,5.47-.79,2.08-4.17.78-5.47S15.35,15.48,13.62,17.2Z"/><path id="_Path_10" data-name="&lt;Path&gt;" class="cls-8" d="M28.91,18.36c1.29-1.3,3.74-.95,5.47.78A6.55,6.55,0,0,1,36,21.47c.56-1.45-.24-2.92-1.59-4.27-1.73-1.72-4.18-2.08-5.47-.78a3.1,3.1,0,0,0-.64,3A2.47,2.47,0,0,1,28.91,18.36Z"/><path id="_Path_11" data-name="&lt;Path&gt;" class="cls-8" d="M13.62,19.14c1.73-1.73,4.18-2.08,5.47-.78a2.47,2.47,0,0,1,.64,1.09,3.1,3.1,0,0,0-.64-3c-1.29-1.3-3.74-.94-5.47.78C12.27,18.55,11.47,20,12,21.47A6.55,6.55,0,0,1,13.62,19.14Z"/><path id="_Path_12" data-name="&lt;Path&gt;" class="cls-4" d="M34.38,17.2c1.73,1.73,2.59,3.67.78,5.48s-3.75.94-5.47-.79-2.08-4.17-.78-5.47S32.65,15.48,34.38,17.2Z"/><path id="_Path_13" data-name="&lt;Path&gt;" class="cls-4" d="M13.62,17.2c-1.73,1.73-2.59,3.67-.78,5.48s3.75.94,5.47-.79,2.08-4.17.78-5.47S15.35,15.48,13.62,17.2Z"/><path id="_Path_14" data-name="&lt;Path&gt;" class="cls-4" d="M28.59,8.22a5,5,0,0,1,1.49,4.1"/><path id="_Path_15" data-name="&lt;Path&gt;" class="cls-4" d="M37.27,16.19a5.86,5.86,0,0,0-1.51-4.74"/><path id="_Path_16" data-name="&lt;Path&gt;" class="cls-4" d="M12.18,11.52a5.85,5.85,0,0,0-1.45,4.67"/><path id="_Path_17" data-name="&lt;Path&gt;" class="cls-4" d="M17.92,12.32a5,5,0,0,1,1.49-4.1"/><path id="_Path_18" data-name="&lt;Path&gt;" class="cls-4" d="M37,40.44a3.33,3.33,0,0,0,.32-2.13"/><path id="_Path_19" data-name="&lt;Path&gt;" class="cls-4" d="M30.08,41.27a3.3,3.3,0,0,1-1.49,3.14"/><path id="_Path_20" data-name="&lt;Path&gt;" class="cls-4" d="M19.41,44.41a3.3,3.3,0,0,1-1.49-3.14"/><path id="_Path_21" data-name="&lt;Path&gt;" class="cls-4" d="M10.73,38.31A3.3,3.3,0,0,0,11,40.42"/><path id="_Path_22" data-name="&lt;Path&gt;" class="cls-7" d="M35.76,31.13a30.94,30.94,0,0,1-4.14,1,.56.56,0,0,0-.44.39l-.34,1.2a1.1,1.1,0,0,1-.94.79l-3.18.35a1.09,1.09,0,0,1-1.21-.94l-.17-1.18c-.44,0-.88,0-1.34,0s-.9,0-1.34,0l-.17,1.18a1.09,1.09,0,0,1-1.21.94l-3.18-.35a1.1,1.1,0,0,1-.94-.79l-.34-1.2a.56.56,0,0,0-.44-.39,30.94,30.94,0,0,1-4.14-1,.55.55,0,0,0-.62.85,15.27,15.27,0,0,0,24.76,0A.55.55,0,0,0,35.76,31.13Z"/><path id="_Path_23" data-name="&lt;Path&gt;" class="cls-8" d="M12.17,32.69h.07a31.21,31.21,0,0,0,4.14,1,.58.58,0,0,1,.44.4l.34,1.19a1.1,1.1,0,0,0,.94.8l3.18.35a1.09,1.09,0,0,0,1.21-.94l.17-1.18c.44,0,.88,0,1.34,0s.9,0,1.34,0l.17,1.18a1.09,1.09,0,0,0,1.21.94l3.18-.35a1.1,1.1,0,0,0,.94-.8l.34-1.19a.58.58,0,0,1,.44-.4,31.21,31.21,0,0,0,4.14-1h.07c.2-.25.39-.49.55-.71a.55.55,0,0,0-.62-.85,30.94,30.94,0,0,1-4.14,1,.56.56,0,0,0-.44.39l-.34,1.2a1.1,1.1,0,0,1-.94.79l-3.18.35a1.09,1.09,0,0,1-1.21-.94l-.17-1.18c-.44,0-.88,0-1.34,0s-.9,0-1.34,0l-.17,1.18a1.09,1.09,0,0,1-1.21.94l-3.18-.35a1.1,1.1,0,0,1-.94-.79l-.34-1.2a.56.56,0,0,0-.44-.39,30.94,30.94,0,0,1-4.14-1,.55.55,0,0,0-.62.85C11.78,32.2,12,32.44,12.17,32.69Z"/><path id="_Path_24" data-name="&lt;Path&gt;" class="cls-4" d="M35.76,31.13a30.94,30.94,0,0,1-4.14,1,.56.56,0,0,0-.44.39l-.34,1.2a1.1,1.1,0,0,1-.94.79l-3.18.35a1.09,1.09,0,0,1-1.21-.94l-.17-1.18c-.44,0-.88,0-1.34,0s-.9,0-1.34,0l-.17,1.18a1.09,1.09,0,0,1-1.21.94l-3.18-.35a1.1,1.1,0,0,1-.94-.79l-.34-1.2a.56.56,0,0,0-.44-.39,30.94,30.94,0,0,1-4.14-1,.55.55,0,0,0-.62.85,15.27,15.27,0,0,0,24.76,0A.55.55,0,0,0,35.76,31.13Z"/></svg>