<svg id="Icons" xmlns="http://www.w3.org/2000/svg" viewBox="0 0 48 48"><defs><style>.cls-1,.cls-9{fill:#45413c;}.cls-1{opacity:0.15;}.cls-2{fill:#dea47a;}.cls-3{fill:#bf8256;}.cls-4{fill:none;}.cls-11,.cls-12,.cls-13,.cls-4,.cls-7,.cls-8,.cls-9{stroke:#45413c;stroke-linecap:round;stroke-linejoin:round;}.cls-5{fill:#6dd627;}.cls-6{fill:#9ceb60;}.cls-7{fill:#ffe500;}.cls-8{fill:#ff866e;}.cls-10{fill:#ffcebf;}.cls-11{fill:#ff6242;}.cls-12{fill:#ff6196;}.cls-13{fill:#00dfeb;}</style></defs><title>660-christmas-tree</title><ellipse id="_Ellipse_" data-name="&lt;Ellipse&gt;" class="cls-1" cx="24" cy="45.5" rx="12" ry="1.5"/><path id="_Path_" data-name="&lt;Path&gt;" class="cls-2" d="M30.48,44.17a.83.83,0,0,1-.66,1.33H18.07a.83.83,0,0,1-.66-1.33,11.14,11.14,0,0,0,2.23-6.69V33.66h8.61v3.82A11.14,11.14,0,0,0,30.48,44.17Z"/><path id="_Path_2" data-name="&lt;Path&gt;" class="cls-3" d="M28.88,41.16a10.91,10.91,0,0,1-.63-3.68V33.66H19.64v3.82A11.16,11.16,0,0,1,19,41.16Z"/><path id="_Path_3" data-name="&lt;Path&gt;" class="cls-4" d="M30.48,44.17a.83.83,0,0,1-.66,1.33H18.07a.83.83,0,0,1-.66-1.33,11.14,11.14,0,0,0,2.23-6.69V33.66h8.61v3.82A11.14,11.14,0,0,0,30.48,44.17Z"/><path id="_Path_4" data-name="&lt;Path&gt;" class="cls-5" d="M38.17,34.32l-3.85-4.58A.89.89,0,0,1,35,28.28h.59a1.49,1.49,0,0,0,1.08-2.51l-4-4.29a1.07,1.07,0,0,1,.78-1.81,1.49,1.49,0,0,0,1.1-2.5l-9-9.78a2.17,2.17,0,0,0-3.17,0l-9,9.78a1.49,1.49,0,0,0,1.09,2.5,1.08,1.08,0,0,1,.79,1.81l-4,4.29a1.49,1.49,0,0,0,1.09,2.51h.59a.89.89,0,0,1,.68,1.46L9.72,34.32A2.22,2.22,0,0,0,11.41,38H36.47A2.22,2.22,0,0,0,38.17,34.32Z"/><path id="_Path_5" data-name="&lt;Path&gt;" class="cls-6" d="M14.28,19.66l8.08-8.76a2.17,2.17,0,0,1,3.17,0l8.08,8.76a1.48,1.48,0,0,0,.94-2.49l-9-9.78a2.17,2.17,0,0,0-3.17,0l-9,9.78A1.48,1.48,0,0,0,14.28,19.66Z"/><path id="_Path_6" data-name="&lt;Path&gt;" class="cls-4" d="M38.17,34.32l-3.85-4.58A.89.89,0,0,1,35,28.28h.59a1.49,1.49,0,0,0,1.08-2.51l-4-4.29a1.07,1.07,0,0,1,.78-1.81,1.49,1.49,0,0,0,1.1-2.5l-9-9.78a2.17,2.17,0,0,0-3.17,0l-9,9.78a1.49,1.49,0,0,0,1.09,2.5,1.08,1.08,0,0,1,.79,1.81l-4,4.29a1.49,1.49,0,0,0,1.09,2.51h.59a.89.89,0,0,1,.68,1.46L9.72,34.32A2.22,2.22,0,0,0,11.41,38H36.47A2.22,2.22,0,0,0,38.17,34.32Z"/><path id="_Path_7" data-name="&lt;Path&gt;" class="cls-7" d="M23.94,6.69l-1.13.6a.88.88,0,0,1-1.28-.94l.21-1.26-.91-.89a.88.88,0,0,1,.49-1.51l1.26-.19.57-1.14a.89.89,0,0,1,1.59,0l.57,1.14,1.26.19a.88.88,0,0,1,.49,1.51l-.91.89.21,1.26a.88.88,0,0,1-1.28.94Z"/><path class="cls-8" d="M25.68,28.33H22.21a.44.44,0,0,0-.44.47L22,31.44a2,2,0,0,0,3.93,0l.21-2.64A.44.44,0,0,0,25.68,28.33Z"/><circle id="_Path_8" data-name="&lt;Path&gt;" class="cls-9" cx="29.71" cy="23.45" r="1.33"/><circle id="_Path_9" data-name="&lt;Path&gt;" class="cls-9" cx="18.18" cy="23.45" r="1.33"/><path id="_Path_10" data-name="&lt;Path&gt;" class="cls-10" d="M32.93,28.11c0,.53-.72,1-1.61,1s-1.61-.44-1.61-1,.72-1,1.61-1S32.93,27.58,32.93,28.11Z"/><path id="_Path_11" data-name="&lt;Path&gt;" class="cls-10" d="M18.18,28.18c0,.54-.72,1-1.61,1s-1.61-.43-1.61-1,.72-1,1.61-1S18.18,27.65,18.18,28.18Z"/><circle id="_Path_12" data-name="&lt;Path&gt;" class="cls-7" cx="27.93" cy="15.47" r="1.33"/><circle id="_Path_13" data-name="&lt;Path&gt;" class="cls-11" cx="31.04" cy="13.26" r="1.33"/><circle id="_Path_14" data-name="&lt;Path&gt;" class="cls-12" cx="23.94" cy="15.92" r="1.33"/><circle id="_Path_15" data-name="&lt;Path&gt;" class="cls-13" cx="19.96" cy="15.47" r="1.33"/><circle id="_Path_16" data-name="&lt;Path&gt;" class="cls-7" cx="16.85" cy="13.26" r="1.33"/></svg>