<svg id="Icons" xmlns="http://www.w3.org/2000/svg" viewBox="0 0 48 48"><defs><style>.cls-1{fill:#45413c;opacity:0.15;}.cls-2{fill:#ff6196;}.cls-3,.cls-5{fill:#e0366f;}.cls-4{fill:none;}.cls-4,.cls-5{stroke:#45413c;stroke-linecap:round;stroke-linejoin:round;}.cls-6{fill:#ff87af;}</style></defs><title>664-ribbon</title><ellipse id="_Ellipse_" data-name="&lt;Ellipse&gt;" class="cls-1" cx="24" cy="45.5" rx="13.5" ry="1.5"/><path id="_Path_" data-name="&lt;Path&gt;" class="cls-2" d="M17.85,25.54s-7.87.62-11.27,11c-.39,1.21.79,2.23,1.71,1.52a6.3,6.3,0,0,1,3.93-1.47,24.66,24.66,0,0,0,2.2,7.21,1.07,1.07,0,0,0,2.06-.34C18,35.73,24,29.32,24,29.32Z"/><path id="_Path_2" data-name="&lt;Path&gt;" class="cls-3" d="M17.85,25.54a10.56,10.56,0,0,0-3.69,1.23,10.73,10.73,0,0,0,7.61,5.32A32.51,32.51,0,0,1,24,29.32Z"/><path id="_Path_3" data-name="&lt;Path&gt;" class="cls-4" d="M17.85,25.54s-7.87.62-11.27,11c-.39,1.21.79,2.23,1.71,1.52a6.3,6.3,0,0,1,3.93-1.47,24.66,24.66,0,0,0,2.2,7.21,1.07,1.07,0,0,0,2.06-.34C18,35.73,24,29.32,24,29.32Z"/><path id="_Path_4" data-name="&lt;Path&gt;" class="cls-2" d="M30.15,25.54s7.87.62,11.27,11c.39,1.21-.79,2.23-1.71,1.52a6.3,6.3,0,0,0-3.93-1.47,24.66,24.66,0,0,1-2.2,7.21,1.07,1.07,0,0,1-2.06-.34C30,35.73,24,29.32,24,29.32Z"/><path id="_Path_5" data-name="&lt;Path&gt;" class="cls-3" d="M30.15,25.54a10.56,10.56,0,0,1,3.69,1.23,10.73,10.73,0,0,1-7.61,5.32A32.51,32.51,0,0,0,24,29.32Z"/><path id="_Path_6" data-name="&lt;Path&gt;" class="cls-4" d="M30.15,25.54s7.87.62,11.27,11c.39,1.21-.79,2.23-1.71,1.52a6.3,6.3,0,0,0-3.93-1.47,24.66,24.66,0,0,1-2.2,7.21,1.07,1.07,0,0,1-2.06-.34C30,35.73,24,29.32,24,29.32Z"/><path id="_Path_7" data-name="&lt;Path&gt;" class="cls-5" d="M1.45,20.05a2,2,0,0,0,.36,1.58C6,27.27,20.69,25.54,20.69,25.54l1.89-4.26L3.19,11.35Z"/><path class="cls-2" d="M5.23,9.24a3.07,3.07,0,0,0-2,2.11l-1.74,8.7a2.09,2.09,0,0,0,0,.66c7.12-5,19.26,4.83,19.26,4.83l1.89-4.26S13.77,6.59,5.23,9.24Z"/><path id="_Path_8" data-name="&lt;Path&gt;" class="cls-6" d="M2.45,15.05A3.13,3.13,0,0,1,4.29,13.5C11.55,11.24,19,21.55,21.08,24.66l1.5-3.38S13.77,6.59,5.23,9.24a3.07,3.07,0,0,0-2,2.11Z"/><path class="cls-4" d="M5.23,9.24a3.07,3.07,0,0,0-2,2.11l-1.74,8.7a2.09,2.09,0,0,0,0,.66c7.12-5,19.26,4.83,19.26,4.83l1.89-4.26S13.77,6.59,5.23,9.24Z"/><path id="_Path_9" data-name="&lt;Path&gt;" class="cls-5" d="M46.55,20.05a2,2,0,0,1-.36,1.58C42,27.27,27.31,25.54,27.31,25.54l-1.89-4.26,19.39-9.93Z"/><path class="cls-2" d="M42.77,9.24a3.07,3.07,0,0,1,2,2.11l1.74,8.7a2.09,2.09,0,0,1,0,.66c-7.12-5-19.26,4.83-19.26,4.83l-1.89-4.26S34.23,6.59,42.77,9.24Z"/><path id="_Path_10" data-name="&lt;Path&gt;" class="cls-6" d="M45.55,15.05a3.13,3.13,0,0,0-1.84-1.55C36.45,11.24,29,21.55,26.92,24.66l-1.5-3.38s8.81-14.69,17.35-12a3.07,3.07,0,0,1,2,2.11Z"/><path class="cls-4" d="M42.77,9.24a3.07,3.07,0,0,1,2,2.11l1.74,8.7a2.09,2.09,0,0,1,0,.66c-7.12-5-19.26,4.83-19.26,4.83l-1.89-4.26S34.23,6.59,42.77,9.24Z"/><ellipse id="_Ellipse_2" data-name="&lt;Ellipse&gt;" class="cls-2" cx="24" cy="22.59" rx="8.04" ry="7.09"/><path id="_Path_11" data-name="&lt;Path&gt;" class="cls-6" d="M24,18.81A14.2,14.2,0,0,1,31.82,21,7.88,7.88,0,0,0,24,15.5,7.88,7.88,0,0,0,16.18,21,14.2,14.2,0,0,1,24,18.81Z"/><ellipse id="_Ellipse_3" data-name="&lt;Ellipse&gt;" class="cls-4" cx="24" cy="22.59" rx="8.04" ry="7.09"/></svg>