<svg id="Icons" xmlns="http://www.w3.org/2000/svg" viewBox="0 0 48 48"><defs><style>.cls-1{fill:#45413c;opacity:0.15;}.cls-2,.cls-7{fill:#ff866e;}.cls-3{fill:#ff6242;}.cls-4,.cls-5,.cls-9{fill:none;}.cls-12,.cls-13,.cls-4,.cls-7,.cls-8{stroke:#45413c;}.cls-12,.cls-13,.cls-4,.cls-5,.cls-7,.cls-8,.cls-9{stroke-linecap:round;stroke-linejoin:round;}.cls-5{stroke:#e04122;}.cls-6{fill:#ffa694;}.cls-10,.cls-8{fill:#eddbff;}.cls-9{stroke:#bf8df2;}.cls-11,.cls-12{fill:#dabff5;}.cls-13,.cls-14{fill:#bf8df2;}</style></defs><title>665-wrapped-gift-1</title><g id="_Group_" data-name="&lt;Group&gt;"><ellipse id="_Ellipse_" data-name="&lt;Ellipse&gt;" class="cls-1" cx="24" cy="44.5" rx="17.5" ry="1.5"/><g id="_Group_2" data-name="&lt;Group&gt;"><g id="_Group_3" data-name="&lt;Group&gt;"><path id="_Path_" data-name="&lt;Path&gt;" class="cls-2" d="M22.68,26.78,5,20.59V37.38a1,1,0,0,0,.67.94l17,6a4.11,4.11,0,0,0,2.64,0l17-6a1,1,0,0,0,.67-.94V20.59L25.32,26.78A4,4,0,0,1,22.68,26.78Z"/><path id="_Path_2" data-name="&lt;Path&gt;" class="cls-3" d="M25.32,26.78a4,4,0,0,1-2.64,0L5,20.59v5l17.68,6.19a4,4,0,0,0,2.64,0L43,25.59v-5Z"/><path id="_Path_3" data-name="&lt;Path&gt;" class="cls-4" d="M22.68,26.78,5,20.59V37.38a1,1,0,0,0,.67.94l17,6a4.11,4.11,0,0,0,2.64,0l17-6a1,1,0,0,0,.67-.94V20.59L25.32,26.78A4,4,0,0,1,22.68,26.78Z"/><line id="_Line_" data-name="&lt;Line&gt;" class="cls-5" x1="24" y1="42.74" x2="24" y2="29.24"/></g><g id="_Group_4" data-name="&lt;Group&gt;"><path id="_Path_4" data-name="&lt;Path&gt;" class="cls-2" d="M22.68,19.78,4,13.24v6.29a1,1,0,0,0,.67.94l18,6.31a4,4,0,0,0,2.64,0l18-6.31a1,1,0,0,0,.67-.94V13.24L25.32,19.78A4,4,0,0,1,22.68,19.78Z"/><path id="_Path_5" data-name="&lt;Path&gt;" class="cls-6" d="M25.32,19.78a4,4,0,0,1-2.64,0L4,13.24v3l18.68,6.54a4,4,0,0,0,2.64,0L44,16.24v-3Z"/><path id="_Path_6" data-name="&lt;Path&gt;" class="cls-4" d="M22.68,19.78,4,13.24v6.29a1,1,0,0,0,.67.94l18,6.31a4,4,0,0,0,2.64,0l18-6.31a1,1,0,0,0,.67-.94V13.24L25.32,19.78A4,4,0,0,1,22.68,19.78Z"/><path id="_Path_7" data-name="&lt;Path&gt;" class="cls-7" d="M4,13.24,22.68,6.7a4,4,0,0,1,2.64,0L44,13.24,25.32,19.78a4,4,0,0,1-2.64,0Z"/></g><g id="_Group_5" data-name="&lt;Group&gt;"><polygon id="_Path_8" data-name="&lt;Path&gt;" class="cls-8" points="28.16 7.7 8 14.64 8 21.64 17 24.79 17 17.79 37.16 10.85 28.16 7.7"/><line id="_Path_9" data-name="&lt;Path&gt;" class="cls-9" x1="10.67" y1="15.58" x2="15.22" y2="17.17"/><polygon id="_Path_10" data-name="&lt;Path&gt;" class="cls-10" points="9 21.99 9 39.49 18 42.64 18 25.14 9 21.99"/><polygon id="_Path_11" data-name="&lt;Path&gt;" class="cls-11" points="9 21.99 9 26.99 18 30.14 18 25.14 9 21.99"/><polygon id="_Path_12" data-name="&lt;Path&gt;" class="cls-4" points="9 21.99 9 39.49 18 42.64 18 25.14 9 21.99"/></g><g id="_Group_6" data-name="&lt;Group&gt;"><polygon id="_Path_13" data-name="&lt;Path&gt;" class="cls-8" points="19.84 7.7 40 14.64 40 21.64 31 24.79 31 17.79 10.84 10.85 19.84 7.7"/><line id="_Path_14" data-name="&lt;Path&gt;" class="cls-9" x1="37.33" y1="15.58" x2="32.78" y2="17.17"/><polygon id="_Path_15" data-name="&lt;Path&gt;" class="cls-10" points="39 21.99 39 39.49 30 42.64 30 25.14 39 21.99"/><polygon id="_Path_16" data-name="&lt;Path&gt;" class="cls-11" points="39 21.99 39 26.99 30 30.14 30 25.14 39 21.99"/><polygon id="_Path_17" data-name="&lt;Path&gt;" class="cls-4" points="39 21.99 39 39.49 30 42.64 30 25.14 39 21.99"/></g><g id="_Group_7" data-name="&lt;Group&gt;"><g id="_Group_8" data-name="&lt;Group&gt;"><path id="_Path_18" data-name="&lt;Path&gt;" class="cls-12" d="M21,14.29l1.5-2.5s-6.19-8.08-13-6.11A3,3,0,0,0,7.34,8.74L7.54,12Z"/><path id="_Path_19" data-name="&lt;Path&gt;" class="cls-13" d="M21,14.29S15.42,16.58,8.1,12.87A1,1,0,0,1,8.26,11,12.8,12.8,0,0,1,21,14.29Z"/></g><g id="_Group_9" data-name="&lt;Group&gt;"><path id="_Path_20" data-name="&lt;Path&gt;" class="cls-12" d="M27.05,14.29l-1.5-2.5s6.19-8.08,13-6.11a3,3,0,0,1,2.12,3.06L40.46,12Z"/><path id="_Path_21" data-name="&lt;Path&gt;" class="cls-13" d="M27.05,14.29s5.53,2.29,12.85-1.42A1,1,0,0,0,39.74,11,12.8,12.8,0,0,0,27.05,14.29Z"/></g><path id="_Path_22" data-name="&lt;Path&gt;" class="cls-13" d="M26.38,13.41s7.28,2.24,8.86,7.6l-3.59-.62L30.53,24S27.14,15.84,24,14.67Z"/><path id="_Path_23" data-name="&lt;Path&gt;" class="cls-13" d="M21.62,13.41s-7.28,2.24-8.86,7.6l3.59-.62L17.47,24s3.39-8.19,6.53-9.36Z"/><g id="_Group_10" data-name="&lt;Group&gt;"><ellipse id="_Ellipse_2" data-name="&lt;Ellipse&gt;" class="cls-14" cx="24" cy="12.17" rx="4.5" ry="3.5"/><path id="_Path_24" data-name="&lt;Path&gt;" class="cls-11" d="M24,10.67a4.47,4.47,0,0,1,4.29,2.5,2.84,2.84,0,0,0,.21-1c0-1.94-2-3.5-4.5-3.5s-4.5,1.56-4.5,3.5a2.84,2.84,0,0,0,.21,1A4.47,4.47,0,0,1,24,10.67Z"/><ellipse id="_Ellipse_3" data-name="&lt;Ellipse&gt;" class="cls-4" cx="24" cy="12.17" rx="4.5" ry="3.5"/></g></g></g></g></svg>