<svg id="Icons" xmlns="http://www.w3.org/2000/svg" viewBox="0 0 48 48"><defs><style>.cls-1{fill:#45413c;opacity:0.15;}.cls-2{fill:#f0f0f0;}.cls-3{fill:#fff;}.cls-4{fill:none;}.cls-4,.cls-5,.cls-6{stroke:#45413c;stroke-linecap:round;stroke-linejoin:round;}.cls-5{fill:#ff866e;}.cls-6{fill:#ff6242;}</style></defs><title>667-baseball</title><ellipse id="_Ellipse_" data-name="&lt;Ellipse&gt;" class="cls-1" cx="24" cy="44.86" rx="16.38" ry="2.14"/><circle id="_Path_" data-name="&lt;Path&gt;" class="cls-2" cx="24" cy="24" r="19.94"/><path id="_Path_2" data-name="&lt;Path&gt;" class="cls-3" d="M24,9.76A19.94,19.94,0,0,1,43.72,26.85,20.55,20.55,0,0,0,43.94,24,19.94,19.94,0,0,0,4.06,24a20.55,20.55,0,0,0,.22,2.85A19.94,19.94,0,0,1,24,9.76Z"/><circle id="_Path_3" data-name="&lt;Path&gt;" class="cls-4" cx="24" cy="24" r="19.94"/><path id="_Path_4" data-name="&lt;Path&gt;" class="cls-4" d="M29,4.69v.08s-1.43,9.73,3.56,17.09c4.18,6.18,9.36,6.5,10.93,6.45"/><path id="_Path_5" data-name="&lt;Path&gt;" class="cls-4" d="M4.88,18.33c1,.22,8.39,2.05,12.71,7.81,4.09,5.46,2.62,15.18,2.22,17.36"/><path class="cls-5" d="M30.59,5.68,27,5.64a1.43,1.43,0,0,0,0,2.85l3.56,0a1.43,1.43,0,1,0,0-2.85Z"/><path class="cls-6" d="M32.25,13a1.43,1.43,0,0,0-1.63-1.18l-3.52.56A1.43,1.43,0,0,0,25.92,14a1.41,1.41,0,0,0,1.63,1.18l3.52-.56A1.43,1.43,0,0,0,32.25,13Z"/><path class="cls-6" d="M13.68,18.51a1.42,1.42,0,0,0-1.95.48L9.89,22.05a1.43,1.43,0,0,0,2.45,1.46l1.83-3.05A1.42,1.42,0,0,0,13.68,18.51Z"/><path class="cls-5" d="M7.87,15.85a1.42,1.42,0,0,0-1.77,1l-1,3.41A1.43,1.43,0,0,0,7.79,21l1-3.41A1.42,1.42,0,0,0,7.87,15.85Z"/><path class="cls-6" d="M19.28,22.9a1.42,1.42,0,0,0-2-.12l-2.66,2.36a1.42,1.42,0,1,0,1.89,2.13l2.66-2.36A1.42,1.42,0,0,0,19.28,22.9Z"/><path class="cls-6" d="M22.84,29.59a1.43,1.43,0,0,0-1.76-1l-3.43,1a1.43,1.43,0,1,0,.77,2.75l3.43-1A1.42,1.42,0,0,0,22.84,29.59Z"/><path class="cls-6" d="M22.43,35l-3.56-.08a1.43,1.43,0,1,0-.07,2.85l3.57.08A1.43,1.43,0,0,0,22.43,35Z"/><path class="cls-6" d="M22.11,40.76l-3.49-.7a1.42,1.42,0,0,0-1.68,1.11,1.44,1.44,0,0,0,1.12,1.68l3.49.7a1.42,1.42,0,0,0,1.68-1.11A1.44,1.44,0,0,0,22.11,40.76Z"/><path class="cls-6" d="M33.92,18.3a1.42,1.42,0,0,0-2-.43L29,19.8a1.43,1.43,0,0,0,1.54,2.4l3-1.93A1.42,1.42,0,0,0,33.92,18.3Z"/><path class="cls-6" d="M37.38,22.72a1.42,1.42,0,0,0-2,.41l-2,3a1.43,1.43,0,1,0,2.38,1.57l2-3A1.42,1.42,0,0,0,37.38,22.72Z"/><path class="cls-6" d="M42.48,25.44a1.42,1.42,0,0,0-1.73,1l-.9,3.45a1.43,1.43,0,1,0,2.76.72l.89-3.45A1.42,1.42,0,0,0,42.48,25.44Z"/></svg>