<svg id="Icons" xmlns="http://www.w3.org/2000/svg" viewBox="0 0 48 48"><defs><style>.cls-1{fill:#45413c;opacity:0.15;}.cls-2{fill:#ff8a14;}.cls-3{fill:#ffaa54;}.cls-4{fill:none;stroke:#45413c;stroke-linecap:round;stroke-linejoin:round;stroke-width:1.01px;}.cls-5{fill:#87898c;}.cls-6{fill:#bdbec0;}.cls-7{fill:#9ceb60;}.cls-8{fill:#c8ffa1;}</style></defs><title>671-tennis-2</title><ellipse id="_Ellipse_" data-name="&lt;Ellipse&gt;" class="cls-1" cx="24" cy="46.44" rx="13.53" ry="1.56"/><path class="cls-2" d="M39.58,20.51c4-6.35,2.71-14.26-2.77-17.66s-13.12-1-17.07,5.35A15.11,15.11,0,0,0,17.47,17c.1,5.35,2.05,10.21-.43,14.21L15.27,34l3.18,2,1.76-2.85c2.48-4,7.71-4.41,12.54-6.69A15.06,15.06,0,0,0,39.58,20.51ZM19.74,30.35a20.86,20.86,0,0,0,.62-6.29,11.77,11.77,0,0,0,2.16,1.8A12.09,12.09,0,0,0,25.1,27,21.22,21.22,0,0,0,19.74,30.35ZM24,23.48c-4.16-2.58-5-8.76-1.88-13.8s9-7,13.21-4.45S40.33,14,37.2,19,28.16,26.07,24,23.48Z"/><path class="cls-3" d="M19.86,10.94C23.8,4.58,31.44,2.19,36.92,5.59a10.89,10.89,0,0,1,4.94,7.86,11.38,11.38,0,0,0-5-10.6c-5.48-3.4-13.12-1-17.07,5.35A15.11,15.11,0,0,0,17.47,17q0,.87.09,1.71A15.21,15.21,0,0,1,19.86,10.94Z"/><path class="cls-4" d="M39.58,20.51c4-6.35,2.71-14.26-2.77-17.66s-13.12-1-17.07,5.35A15.11,15.11,0,0,0,17.47,17c.1,5.35,2.05,10.21-.43,14.21L15.27,34l3.18,2,1.76-2.85c2.48-4,7.71-4.41,12.54-6.69A15.06,15.06,0,0,0,39.58,20.51ZM19.74,30.35a20.86,20.86,0,0,0,.62-6.29,11.77,11.77,0,0,0,2.16,1.8A12.09,12.09,0,0,0,25.1,27,21.22,21.22,0,0,0,19.74,30.35ZM24,23.48c-4.16-2.58-5-8.76-1.88-13.8s9-7,13.21-4.45S40.33,14,37.2,19,28.16,26.07,24,23.48Z"/><path id="_Rectangle_" data-name="&lt;Rectangle&gt;" class="cls-5" d="M13.61,31.19h2.8a.93.93,0,0,1,.93.93V44.74a0,0,0,0,1,0,0H12.68a0,0,0,0,1,0,0V32.13A.93.93,0,0,1,13.61,31.19Z" transform="translate(22.28 -2.21) rotate(31.82)"/><path id="_Path_" data-name="&lt;Path&gt;" class="cls-6" d="M18.59,32.22l-1.2-.75a.93.93,0,0,0-1.28.3L9.46,42.49l2,1.24Z"/><path id="_Rectangle_2" data-name="&lt;Rectangle&gt;" class="cls-4" d="M13.61,31.19h2.8a.93.93,0,0,1,.93.93V44.74a0,0,0,0,1,0,0H12.68a0,0,0,0,1,0,0V32.13A.93.93,0,0,1,13.61,31.19Z" transform="translate(22.28 -2.21) rotate(31.82)"/><rect id="_Rectangle_3" data-name="&lt;Rectangle&gt;" class="cls-5" x="8.76" y="42.35" width="5.6" height="2.34" rx="0.93" ry="0.93" transform="translate(24.69 0.44) rotate(31.82)"/><path id="_Path_2" data-name="&lt;Path&gt;" class="cls-6" d="M11.07,43.83l.43-.71a1.05,1.05,0,0,1,.86-.48l-1.77-1.1a.93.93,0,0,0-1.28.31l-.25.39a.94.94,0,0,0,.3,1.29l1.57,1A1,1,0,0,1,11.07,43.83Z"/><rect id="_Rectangle_4" data-name="&lt;Rectangle&gt;" class="cls-4" x="8.76" y="42.35" width="5.6" height="2.34" rx="0.93" ry="0.93" transform="translate(24.69 0.44) rotate(31.82)"/><line id="_Path_3" data-name="&lt;Path&gt;" class="cls-4" x1="35.33" y1="5.23" x2="24" y2="23.48"/><line id="_Path_4" data-name="&lt;Path&gt;" class="cls-4" x1="31.08" y1="4.1" x2="21.1" y2="20.18"/><line id="_Path_5" data-name="&lt;Path&gt;" class="cls-4" x1="38.23" y1="8.53" x2="28.25" y2="24.61"/><line id="_Path_6" data-name="&lt;Path&gt;" class="cls-4" x1="22.38" y1="9.28" x2="37.45" y2="18.64"/><line id="_Path_7" data-name="&lt;Path&gt;" class="cls-4" x1="26.19" y1="5.6" x2="39.05" y2="13.59"/><line id="_Path_8" data-name="&lt;Path&gt;" class="cls-4" x1="20.28" y1="15.12" x2="33.14" y2="23.11"/><path id="_Path_9" data-name="&lt;Path&gt;" class="cls-7" d="M39,34.62a3.74,3.74,0,1,1-4.69-2.42A3.74,3.74,0,0,1,39,34.62Z"/><path class="cls-8" d="M34.26,34.26A3.74,3.74,0,0,1,39,36.68a.44.44,0,0,1,0,.1,3.73,3.73,0,1,0-7.18,0A3.71,3.71,0,0,1,34.26,34.26Z"/><path id="_Path_10" data-name="&lt;Path&gt;" class="cls-4" d="M39,34.62a3.74,3.74,0,1,1-4.69-2.42A3.74,3.74,0,0,1,39,34.62Z"/><path id="_Path_11" data-name="&lt;Path&gt;" class="cls-4" d="M36.79,32.29a5.81,5.81,0,0,0-.06,3,5.87,5.87,0,0,0,1.81,2.45"/><path id="_Path_12" data-name="&lt;Path&gt;" class="cls-4" d="M32.25,33.74a6,6,0,0,1,1.81,2.44,5.81,5.81,0,0,1-.07,3"/></svg>