<svg id="Icons" xmlns="http://www.w3.org/2000/svg" viewBox="0 0 48 48"><defs><style>.cls-1{fill:#45413c;opacity:0.15;}.cls-2{fill:#656769;}.cls-3{fill:#525252;}.cls-4{fill:none;}.cls-4,.cls-5{stroke:#45413c;stroke-linecap:round;stroke-linejoin:round;}.cls-5{fill:#fff;}.cls-6{fill:#87898c;}</style></defs><title>672-pool-8-ball</title><g id="_Group_" data-name="&lt;Group&gt;"><ellipse id="_Ellipse_" data-name="&lt;Ellipse&gt;" class="cls-1" cx="24" cy="45.24" rx="13.53" ry="1.76"/><circle id="_Path_" data-name="&lt;Path&gt;" class="cls-2" cx="24" cy="24" r="20"/><path id="_Path_2" data-name="&lt;Path&gt;" class="cls-3" d="M24,39.66A20,20,0,0,1,4.12,21.83C4.05,22.54,4,23.27,4,24a20,20,0,0,0,40,0c0-.73,0-1.46-.12-2.17A20,20,0,0,1,24,39.66Z"/><circle id="_Path_3" data-name="&lt;Path&gt;" class="cls-4" cx="24" cy="24" r="20"/><circle id="_Path_4" data-name="&lt;Path&gt;" class="cls-5" cx="24" cy="24" r="8.82"/><ellipse id="_Path_5" data-name="&lt;Path&gt;" class="cls-4" cx="24" cy="21.57" rx="2.5" ry="1.91"/><ellipse id="_Path_6" data-name="&lt;Path&gt;" class="cls-4" cx="24" cy="25.91" rx="3.06" ry="2.43"/><path id="_Path_7" data-name="&lt;Path&gt;" class="cls-6" d="M29,7.63c0,1.08-2.24,2-5,2s-5-.88-5-2,2.24-2,5-2S29,6.54,29,7.63Z"/></g></svg>