<svg id="Icons" xmlns="http://www.w3.org/2000/svg" viewBox="0 0 48 48"><defs><style>.cls-1{fill:#45413c;opacity:0.15;}.cls-2{fill:#6dd627;}.cls-3{fill:#9ceb60;}.cls-4{fill:none;}.cls-4,.cls-5,.cls-6,.cls-7{stroke:#45413c;stroke-linecap:round;stroke-linejoin:round;}.cls-5{fill:#46b000;}.cls-6{fill:#daedf7;}.cls-7{fill:#ff6242;}</style></defs><title>675-flag-in-hole</title><g id="_Group_" data-name="&lt;Group&gt;"><ellipse id="_Ellipse_" data-name="&lt;Ellipse&gt;" class="cls-1" cx="24" cy="44.42" rx="12.11" ry="1.58"/><path id="_Path_" data-name="&lt;Path&gt;" class="cls-2" d="M43,36.23c0,2.64-8.49,5.27-19,5.27S5,39,5,36.23c0-4.07,8.49-7.37,19-7.37S43,32.16,43,36.23Z"/><path id="_Path_2" data-name="&lt;Path&gt;" class="cls-3" d="M24,32c8.78,0,16.15,2.32,18.31,5.48A1.89,1.89,0,0,0,43,36.23c0-4.07-8.49-7.37-19-7.37S5,32.16,5,36.23a1.9,1.9,0,0,0,.64,1.29C7.81,34.36,15.19,32,24,32Z"/><path id="_Path_3" data-name="&lt;Path&gt;" class="cls-4" d="M43,36.23c0,2.64-8.49,5.27-19,5.27S5,39,5,36.23c0-4.07,8.49-7.37,19-7.37S43,32.16,43,36.23Z"/><ellipse id="_Path_4" data-name="&lt;Path&gt;" class="cls-5" cx="24" cy="30.44" rx="5.27" ry="1.58"/><path id="_Path_5" data-name="&lt;Path&gt;" class="cls-6" d="M24,3.58h0a1,1,0,0,0-1.05,1V31.16a.85.85,0,0,0,.85.86h.4a.85.85,0,0,0,.85-.86V4.63A1,1,0,0,0,24,3.58Z"/><path id="_Path_6" data-name="&lt;Path&gt;" class="cls-7" d="M37.68,14.15l-5.24-2.39a3.55,3.55,0,0,1-1.9-2.13A2.77,2.77,0,0,0,28.76,7L25.05,5.62V17.34l2.75-1a3.15,3.15,0,0,1,2.74.28h0a3.26,3.26,0,0,0,4.31.51l2.91-2A.53.53,0,0,0,37.68,14.15Z"/><line id="_Path_7" data-name="&lt;Path&gt;" class="cls-7" x1="30.54" y1="16.59" x2="30.54" y2="9.63"/></g></svg>