<svg id="Icons" xmlns="http://www.w3.org/2000/svg" viewBox="0 0 48 48"><defs><style>.cls-1{fill:#45413c;opacity:0.15;}.cls-11,.cls-2{fill:#4acfff;}.cls-10,.cls-2,.cls-5{stroke:#45413c;stroke-linecap:round;stroke-linejoin:round;}.cls-3{fill:#87898c;}.cls-4{fill:#bdbec0;}.cls-5{fill:none;}.cls-6{fill:#e8f4fa;}.cls-7{fill:#fff;}.cls-8{fill:#c0dceb;}.cls-9{fill:#daedf7;}.cls-10{fill:#ffe500;}.cls-12{fill:#80ddff;}.cls-13{fill:#4f4b45;}</style></defs><title>676-fishing-pole</title><g id="_Group_" data-name="&lt;Group&gt;"><ellipse id="_Ellipse_" data-name="&lt;Ellipse&gt;" class="cls-1" cx="24" cy="45.5" rx="12" ry="1.5"/><path id="_Path_" data-name="&lt;Path&gt;" class="cls-2" d="M32.21,28.49a7.77,7.77,0,0,0-2,2.55,5.1,5.1,0,0,0-.5,3.13l2.49-1.09Z"/><path id="_Path_2" data-name="&lt;Path&gt;" class="cls-2" d="M39.78,28.49a7.77,7.77,0,0,1,2,2.55,5.1,5.1,0,0,1,.5,3.13l-2.49-1.09Z"/><path id="_Path_3" data-name="&lt;Path&gt;" class="cls-3" d="M18.36,45.42h0a2.17,2.17,0,0,1-2.7-1.48l-2.82-9.61a.88.88,0,0,1,.59-1.09l2.51-.73A.87.87,0,0,1,17,33.1l2.82,9.62A2.17,2.17,0,0,1,18.36,45.42Z"/><path id="_Path_4" data-name="&lt;Path&gt;" class="cls-4" d="M19.84,42.72,17,33.1a.87.87,0,0,0-1.08-.59l-1.35.39a.61.61,0,0,1,.11.21L17.84,43.8a2.18,2.18,0,0,1-.21,1.7,2.28,2.28,0,0,0,.73-.08A2.17,2.17,0,0,0,19.84,42.72Z"/><path id="_Path_5" data-name="&lt;Path&gt;" class="cls-5" d="M18.36,45.42h0a2.17,2.17,0,0,1-2.7-1.48l-2.82-9.61a.88.88,0,0,1,.59-1.09l2.51-.73A.87.87,0,0,1,17,33.1l2.82,9.62A2.17,2.17,0,0,1,18.36,45.42Z"/><path class="cls-6" d="M36.48,11.25A14,14,0,0,0,19.26,2,14.38,14.38,0,0,0,9.51,19.87l3.92,13.37,2.51-.73L12.08,19.34A12,12,0,0,1,20.2,4.47c6.15-1.8,12.92,1.24,15,7.19a.66.66,0,1,0,1.25-.41Z"/><g id="_Group_2" data-name="&lt;Group&gt;"><path id="_Path_6" data-name="&lt;Path&gt;" class="cls-7" d="M19.26,3.48A13.92,13.92,0,0,1,36.2,12a.64.64,0,0,0,.28-.75A14,14,0,0,0,19.26,2,14.36,14.36,0,0,0,9,16.54,14.35,14.35,0,0,1,19.26,3.48Z"/></g><path class="cls-5" d="M36.48,11.25A14,14,0,0,0,19.26,2,14.38,14.38,0,0,0,9.51,19.87l3.92,13.37,2.51-.73L12.08,19.34A12,12,0,0,1,20.2,4.47c6.15-1.8,12.92,1.24,15,7.19a.66.66,0,1,0,1.25-.41Z"/><path id="_Path_7" data-name="&lt;Path&gt;" class="cls-8" d="M20.17,29.91a3,3,0,1,1-3.79-2.07A3,3,0,0,1,20.17,29.91Z"/><path id="_Path_8" data-name="&lt;Path&gt;" class="cls-9" d="M16.38,29.15a3,3,0,0,1,3.79,2.06c0,.07,0,.14,0,.21a3,3,0,0,0,0-1.51,3,3,0,0,0-5.89,1.51A3,3,0,0,1,16.38,29.15Z"/><path id="_Path_9" data-name="&lt;Path&gt;" class="cls-5" d="M20.17,29.91a3,3,0,1,1-3.79-2.07A3,3,0,0,1,20.17,29.91Z"/><path id="_Path_10" data-name="&lt;Path&gt;" class="cls-10" d="M18.5,30.4a1.31,1.31,0,1,1-1.62-.89A1.31,1.31,0,0,1,18.5,30.4Z"/><line id="_Path_11" data-name="&lt;Path&gt;" class="cls-5" x1="36" y1="12.09" x2="36" y2="24.9"/><path id="_Path_12" data-name="&lt;Path&gt;" class="cls-11" d="M39.57,39.36l-2-3.26a6.13,6.13,0,0,0,2.66-5.18,6.42,6.42,0,0,0-4.22-6,6.21,6.21,0,0,0-4.22,6,6.07,6.07,0,0,0,2.63,5.21l-2.07,3.23Z"/><g id="_Group_3" data-name="&lt;Group&gt;"><path id="_Path_13" data-name="&lt;Path&gt;" class="cls-12" d="M33.48,28.84a3.47,3.47,0,0,1,5,0,6,6,0,0,1,1.63,3.23,7.15,7.15,0,0,0,.11-1.17,6.42,6.42,0,0,0-4.22-6,6.21,6.21,0,0,0-4.22,6,7.18,7.18,0,0,0,.1,1.17A6,6,0,0,1,33.48,28.84Z"/></g><path id="_Path_14" data-name="&lt;Path&gt;" class="cls-5" d="M39.57,39.36l-2-3.26a6.13,6.13,0,0,0,2.66-5.18,6.42,6.42,0,0,0-4.22-6,6.21,6.21,0,0,0-4.22,6,6.07,6.07,0,0,0,2.63,5.21l-2.07,3.23Z"/><path id="_Path_15" data-name="&lt;Path&gt;" class="cls-13" d="M37.54,28.89a.61.61,0,1,1-.61-.6A.6.6,0,0,1,37.54,28.89Z"/><path id="_Path_16" data-name="&lt;Path&gt;" class="cls-5" d="M31.78,30.92A7.41,7.41,0,0,0,36,32.09a7.78,7.78,0,0,0,4.25-1.17"/></g></svg>