<svg id="Icons" xmlns="http://www.w3.org/2000/svg" viewBox="0 0 48 48"><defs><style>.cls-1{fill:#45413c;opacity:0.15;}.cls-2{fill:#daedf7;}.cls-3{fill:#fff;}.cls-4{fill:none;}.cls-4,.cls-5,.cls-6{stroke:#45413c;stroke-linecap:round;stroke-linejoin:round;}.cls-5{fill:#ff6242;}.cls-6{fill:#656769;}</style></defs><title>678-game-dice</title><g id="_Group_" data-name="&lt;Group&gt;"><ellipse id="_Ellipse_" data-name="&lt;Ellipse&gt;" class="cls-1" cx="24" cy="45.04" rx="15.02" ry="1.96"/><path id="_Path_" data-name="&lt;Path&gt;" class="cls-2" d="M24,20.8V44.5a6.62,6.62,0,0,0,2.36-.44l15.39-6a3.92,3.92,0,0,0,2.5-3.65V15.65a3.9,3.9,0,0,0-.81-2.37Z"/><path id="_Path_2" data-name="&lt;Path&gt;" class="cls-2" d="M4.56,13.28a3.9,3.9,0,0,0-.81,2.37v18.8a3.92,3.92,0,0,0,2.5,3.65l15.39,6A6.62,6.62,0,0,0,24,44.5V20.8Z"/><path id="_Path_3" data-name="&lt;Path&gt;" class="cls-3" d="M24,20.8V44.5a6.62,6.62,0,0,0,2.36-.44l15.39-6a3.92,3.92,0,0,0,2.5-3.65V15.65a3.9,3.9,0,0,0-.81-2.37Z"/><path id="_Path_4" data-name="&lt;Path&gt;" class="cls-3" d="M4.56,13.28a3.9,3.9,0,0,0-.81,2.37v18.8a3.92,3.92,0,0,0,2.5,3.65l15.39,6A6.62,6.62,0,0,0,24,44.5V20.8Z"/><path id="_Path_5" data-name="&lt;Path&gt;" class="cls-2" d="M41.75,34.4l-15.39,6A6.62,6.62,0,0,1,24,40.8v3.7a6.62,6.62,0,0,0,2.36-.44l15.39-6a3.92,3.92,0,0,0,2.5-3.65V30.74A3.94,3.94,0,0,1,41.75,34.4Z"/><path id="_Path_6" data-name="&lt;Path&gt;" class="cls-2" d="M6.25,34.4a3.94,3.94,0,0,1-2.5-3.66v3.71a3.92,3.92,0,0,0,2.5,3.65l15.39,6A6.62,6.62,0,0,0,24,44.5V40.8a6.62,6.62,0,0,1-2.36-.44Z"/><path id="_Path_7" data-name="&lt;Path&gt;" class="cls-4" d="M24,20.8V44.5a6.62,6.62,0,0,0,2.36-.44l15.39-6a3.92,3.92,0,0,0,2.5-3.65V15.65a3.9,3.9,0,0,0-.81-2.37Z"/><path id="_Path_8" data-name="&lt;Path&gt;" class="cls-4" d="M4.56,13.28a3.9,3.9,0,0,0-.81,2.37v18.8a3.92,3.92,0,0,0,2.5,3.65l15.39,6A6.62,6.62,0,0,0,24,44.5V20.8Z"/><path id="_Path_9" data-name="&lt;Path&gt;" class="cls-3" d="M24,20.8l19.44-7.52A4,4,0,0,0,41.75,12L26.36,6a6.51,6.51,0,0,0-4.72,0L6.25,12a4,4,0,0,0-1.69,1.29Z"/><path id="_Path_10" data-name="&lt;Path&gt;" class="cls-2" d="M41.75,12l-1.28-.49L26,17.09a5.58,5.58,0,0,1-4.06,0L7.53,11.5,6.25,12a4,4,0,0,0-1.69,1.29L24,20.8l19.44-7.52A4,4,0,0,0,41.75,12Z"/><path id="_Path_11" data-name="&lt;Path&gt;" class="cls-4" d="M24,20.8l19.44-7.52A4,4,0,0,0,41.75,12L26.36,6a6.51,6.51,0,0,0-4.72,0L6.25,12a4,4,0,0,0-1.69,1.29Z"/><ellipse id="_Path_12" data-name="&lt;Path&gt;" class="cls-5" cx="24" cy="12.89" rx="4.57" ry="1.96"/><path id="_Path_13" data-name="&lt;Path&gt;" class="cls-6" d="M11.57,24.08c.23,1.61-.3,3-1.19,3.15s-1.81-1.07-2-2.68.3-3,1.19-3.14S11.34,22.48,11.57,24.08Z"/><path id="_Path_14" data-name="&lt;Path&gt;" class="cls-6" d="M38.35,20.8c-.23,1.6.3,3,1.2,3.14s1.8-1.07,2-2.68-.3-3-1.19-3.14S38.58,19.19,38.35,20.8Z"/><path id="_Path_15" data-name="&lt;Path&gt;" class="cls-6" d="M27.32,36.47c-.23,1.61.3,3,1.2,3.15s1.8-1.07,2-2.68-.3-3-1.19-3.14S27.55,34.87,27.32,36.47Z"/><path id="_Path_16" data-name="&lt;Path&gt;" class="cls-6" d="M33.12,28.68c-.23,1.6.31,3,1.2,3.14s1.8-1.07,2-2.67-.31-3-1.2-3.15S33.36,27.07,33.12,28.68Z"/><path id="_Path_17" data-name="&lt;Path&gt;" class="cls-6" d="M17.49,33.25c.23,1.61-.3,3-1.2,3.14s-1.8-1.07-2-2.67.3-3,1.19-3.15S17.26,31.64,17.49,33.25Z"/></g></svg>