<svg id="Icons" xmlns="http://www.w3.org/2000/svg" viewBox="0 0 48 48"><defs><style>.cls-1{fill:#45413c;opacity:0.15;}.cls-2{fill:#ff6242;}.cls-3{fill:#ff866e;}.cls-4{fill:none;stroke:#45413c;stroke-linecap:round;stroke-linejoin:round;}</style></defs><title>680-heart-suit</title><g id="_Group_" data-name="&lt;Group&gt;"><ellipse id="_Ellipse_" data-name="&lt;Ellipse&gt;" class="cls-1" cx="24" cy="45.5" rx="11.5" ry="1.5"/><g id="_Group_2" data-name="&lt;Group&gt;"><path id="_Path_" data-name="&lt;Path&gt;" class="cls-2" d="M24,11.93a10,10,0,0,1,10-10c7,0,10,7,10,12.5C44,29,30.17,38.35,25.51,41.09a3,3,0,0,1-3,0C17.83,38.35,4,29,4,14.43,4,8.9,7,1.93,14,1.93A10,10,0,0,1,24,11.93Z"/><path id="_Path_2" data-name="&lt;Path&gt;" class="cls-3" d="M13.5,6.93a10.49,10.49,0,0,1,9.6,6.24,1,1,0,0,0,1.8,0,10.49,10.49,0,0,1,9.6-6.24c5,0,8.06,3.39,9.5,7.38,0-5.5-3-12.38-10-12.38a10,10,0,0,0-10,10,10,10,0,0,0-10-10C7.05,1.93,4,8.81,4,14.31,5.44,10.32,8.5,6.93,13.5,6.93Z"/><path id="_Path_3" data-name="&lt;Path&gt;" class="cls-4" d="M24,11.93a10,10,0,0,1,10-10c7,0,10,7,10,12.5C44,29,30.17,38.35,25.51,41.09a3,3,0,0,1-3,0C17.83,38.35,4,29,4,14.43,4,8.9,7,1.93,14,1.93A10,10,0,0,1,24,11.93Z"/></g></g></svg>