<svg id="Icons" xmlns="http://www.w3.org/2000/svg" viewBox="0 0 48 48"><defs><style>.cls-1{fill:#00b8f0;}.cls-2{fill:#45413c;opacity:0.15;}.cls-3{fill:#4acfff;}.cls-4{fill:none;stroke:#45413c;stroke-linecap:round;stroke-linejoin:round;}</style></defs><title>688-musical-note</title><path id="_Path_" data-name="&lt;Path&gt;" class="cls-1" d="M12.93,6.86a1,1,0,0,0-.93,1v21.8a5.94,5.94,0,0,0-4-.72,6,6,0,0,0,1.26,11.9A6.15,6.15,0,0,0,15,34.6V15.71l23-1.66V27.22a5.94,5.94,0,0,0-4-.72,6,6,0,0,0,1.26,11.91A6.17,6.17,0,0,0,41,32.17V5.91a1,1,0,0,0-1.07-1Z"/><ellipse id="_Ellipse_" data-name="&lt;Ellipse&gt;" class="cls-2" cx="24" cy="45.5" rx="12" ry="1.5"/><path id="_Path_2" data-name="&lt;Path&gt;" class="cls-3" d="M34,29.54a6,6,0,0,1,3.27.35.54.54,0,0,0,.75-.5V27.22a5.94,5.94,0,0,0-4-.72,6,6,0,0,0-4.92,5,6.13,6.13,0,0,0,.13,2.39A6,6,0,0,1,34,29.54Z"/><path id="_Path_3" data-name="&lt;Path&gt;" class="cls-3" d="M8,32a6.06,6.06,0,0,1,3.27.36.52.52,0,0,0,.51-.06.54.54,0,0,0,.24-.45V29.65a5.94,5.94,0,0,0-4-.72,6,6,0,0,0-4.79,7.42A6.06,6.06,0,0,1,8,32Z"/><path id="_Path_4" data-name="&lt;Path&gt;" class="cls-3" d="M39.93,4.92l-27,1.94a1,1,0,0,0-.93,1v3a1,1,0,0,1,.93-1L39.93,8A1,1,0,0,1,41,9v-3A1,1,0,0,0,39.93,4.92Z"/><path id="_Path_5" data-name="&lt;Path&gt;" class="cls-4" d="M12.93,6.86a1,1,0,0,0-.93,1v21.8a5.94,5.94,0,0,0-4-.72,6,6,0,0,0,1.26,11.9A6.15,6.15,0,0,0,15,34.6V15.71l23-1.66V27.22a5.94,5.94,0,0,0-4-.72,6,6,0,0,0,1.26,11.91A6.17,6.17,0,0,0,41,32.17V5.91a1,1,0,0,0-1.07-1Z"/></svg>