<svg id="Icons" xmlns="http://www.w3.org/2000/svg" viewBox="0 0 48 48"><defs><style>.cls-1{fill:#45413c;opacity:0.15;}.cls-10,.cls-2{fill:#525252;}.cls-2,.cls-5,.cls-9{stroke:#45413c;stroke-linecap:round;stroke-linejoin:round;}.cls-3{fill:#656769;}.cls-4{fill:#87898c;}.cls-5{fill:none;}.cls-6{fill:#fff;}.cls-7,.cls-9{fill:#bdbec0;}.cls-8{fill:#e0e0e0;}</style></defs><title>695-musical-keyboard</title><g id="_Group_" data-name="&lt;Group&gt;"><ellipse id="_Ellipse_" data-name="&lt;Ellipse&gt;" class="cls-1" cx="24" cy="44.7" rx="21.49" ry="2.3"/><rect id="_Rectangle_" data-name="&lt;Rectangle&gt;" class="cls-2" x="5.58" y="11.5" width="36.84" height="3.84"/><path id="_Rectangle_2" data-name="&lt;Rectangle&gt;" class="cls-3" d="M8.65,3.06h30.7a3.07,3.07,0,0,1,3.07,3.07V11.5a0,0,0,0,1,0,0H5.58a0,0,0,0,1,0,0V6.13A3.07,3.07,0,0,1,8.65,3.06Z"/><path id="_Path_" data-name="&lt;Path&gt;" class="cls-4" d="M39.35,3.06H8.65A3.07,3.07,0,0,0,5.58,6.13V10A3.08,3.08,0,0,1,8.65,6.89h30.7A3.08,3.08,0,0,1,42.42,10V6.13A3.07,3.07,0,0,0,39.35,3.06Z"/><path id="_Rectangle_3" data-name="&lt;Rectangle&gt;" class="cls-5" d="M8.65,3.06h30.7a3.07,3.07,0,0,1,3.07,3.07V11.5a0,0,0,0,1,0,0H5.58a0,0,0,0,1,0,0V6.13A3.07,3.07,0,0,1,8.65,3.06Z"/><rect id="_Rectangle_4" data-name="&lt;Rectangle&gt;" class="cls-6" x="5.58" y="15.34" width="9.21" height="25.33"/><rect id="_Rectangle_5" data-name="&lt;Rectangle&gt;" class="cls-6" x="14.79" y="15.34" width="9.21" height="25.33"/><rect id="_Rectangle_6" data-name="&lt;Rectangle&gt;" class="cls-6" x="24" y="15.34" width="9.21" height="25.33"/><rect id="_Rectangle_7" data-name="&lt;Rectangle&gt;" class="cls-6" x="33.21" y="15.34" width="9.21" height="25.33"/><rect id="_Path_2" data-name="&lt;Path&gt;" class="cls-7" x="5.58" y="15.34" width="9.21" height="5.08"/><rect id="_Path_3" data-name="&lt;Path&gt;" class="cls-8" x="14.79" y="15.34" width="9.21" height="5.08"/><rect id="_Path_4" data-name="&lt;Path&gt;" class="cls-8" x="24" y="15.34" width="9.21" height="5.08"/><rect id="_Path_5" data-name="&lt;Path&gt;" class="cls-8" x="33.21" y="15.34" width="9.21" height="5.08"/><rect id="_Rectangle_8" data-name="&lt;Rectangle&gt;" class="cls-5" x="5.58" y="15.34" width="9.21" height="25.33"/><rect id="_Rectangle_9" data-name="&lt;Rectangle&gt;" class="cls-5" x="14.79" y="15.34" width="9.21" height="25.33"/><rect id="_Rectangle_10" data-name="&lt;Rectangle&gt;" class="cls-5" x="24" y="15.34" width="9.21" height="25.33"/><rect id="_Rectangle_11" data-name="&lt;Rectangle&gt;" class="cls-5" x="33.21" y="15.34" width="9.21" height="25.33"/><path id="_Rectangle_12" data-name="&lt;Rectangle&gt;" class="cls-9" d="M5.58,40.66h9.21a0,0,0,0,1,0,0V44.5a0,0,0,0,1,0,0H8.65a3.07,3.07,0,0,1-3.07-3.07v-.77a0,0,0,0,1,0,0Z"/><rect id="_Rectangle_13" data-name="&lt;Rectangle&gt;" class="cls-9" x="14.79" y="40.66" width="9.21" height="3.84"/><rect id="_Rectangle_14" data-name="&lt;Rectangle&gt;" class="cls-9" x="24" y="40.66" width="9.21" height="3.84"/><path id="_Rectangle_15" data-name="&lt;Rectangle&gt;" class="cls-9" d="M33.21,40.66h9.21a0,0,0,0,1,0,0v.77a3.07,3.07,0,0,1-3.07,3.07H33.21a0,0,0,0,1,0,0V40.66A0,0,0,0,1,33.21,40.66Z"/><path id="_Rectangle_16" data-name="&lt;Rectangle&gt;" class="cls-3" d="M12.61,14.57H17a.89.89,0,0,1,.89.89V28.38a0,0,0,0,1,0,0H11.72a0,0,0,0,1,0,0V15.45A.89.89,0,0,1,12.61,14.57Z"/><path id="_Rectangle_17" data-name="&lt;Rectangle&gt;" class="cls-3" d="M21.82,14.57h4.37a.89.89,0,0,1,.89.89V28.38a0,0,0,0,1,0,0H20.93a0,0,0,0,1,0,0V15.45A.89.89,0,0,1,21.82,14.57Z"/><path id="_Rectangle_18" data-name="&lt;Rectangle&gt;" class="cls-3" d="M31,14.57h4.37a.89.89,0,0,1,.89.89V28.38a0,0,0,0,1,0,0H30.14a0,0,0,0,1,0,0V15.45A.89.89,0,0,1,31,14.57Z"/><path id="_Path_6" data-name="&lt;Path&gt;" class="cls-10" d="M17,14.57H12.61a.88.88,0,0,0-.89.88v2.88a.88.88,0,0,1,.89-.88H17a.88.88,0,0,1,.89.88V15.45A.88.88,0,0,0,17,14.57Z"/><path id="_Path_7" data-name="&lt;Path&gt;" class="cls-10" d="M26.18,14.57H21.82a.88.88,0,0,0-.89.88v2.88a.88.88,0,0,1,.89-.88h4.36a.88.88,0,0,1,.89.88V15.45A.88.88,0,0,0,26.18,14.57Z"/><path id="_Path_8" data-name="&lt;Path&gt;" class="cls-10" d="M35.39,14.57H31a.88.88,0,0,0-.89.88v2.88a.88.88,0,0,1,.89-.88h4.36a.88.88,0,0,1,.89.88V15.45A.88.88,0,0,0,35.39,14.57Z"/><path id="_Rectangle_19" data-name="&lt;Rectangle&gt;" class="cls-5" d="M12.61,14.57H17a.89.89,0,0,1,.89.89V28.38a0,0,0,0,1,0,0H11.72a0,0,0,0,1,0,0V15.45A.89.89,0,0,1,12.61,14.57Z"/><path id="_Rectangle_20" data-name="&lt;Rectangle&gt;" class="cls-5" d="M21.82,14.57h4.37a.89.89,0,0,1,.89.89V28.38a0,0,0,0,1,0,0H20.93a0,0,0,0,1,0,0V15.45A.89.89,0,0,1,21.82,14.57Z"/><path id="_Rectangle_21" data-name="&lt;Rectangle&gt;" class="cls-5" d="M31,14.57h4.37a.89.89,0,0,1,.89.89V28.38a0,0,0,0,1,0,0H30.14a0,0,0,0,1,0,0V15.45A.89.89,0,0,1,31,14.57Z"/><rect id="_Rectangle_22" data-name="&lt;Rectangle&gt;" class="cls-2" x="11.72" y="28.38" width="6.14" height="3.07"/><rect id="_Rectangle_23" data-name="&lt;Rectangle&gt;" class="cls-2" x="20.93" y="28.38" width="6.14" height="3.07"/><rect id="_Rectangle_24" data-name="&lt;Rectangle&gt;" class="cls-2" x="30.14" y="28.38" width="6.14" height="3.07"/></g></svg>