<svg id="Icons" xmlns="http://www.w3.org/2000/svg" viewBox="0 0 48 48"><defs><style>.cls-1{fill:#45413c;opacity:0.15;}.cls-2,.cls-6{fill:#ffe500;}.cls-3{fill:#fff48c;}.cls-4{fill:none;}.cls-4,.cls-6{stroke:#45413c;stroke-linecap:round;stroke-linejoin:round;}.cls-5{fill:#ebcb00;}</style></defs><title>696-trumpet</title><ellipse id="_Ellipse_" data-name="&lt;Ellipse&gt;" class="cls-1" cx="24.55" cy="37.5" rx="15.5" ry="1.5"/><path id="_Path_" data-name="&lt;Path&gt;" class="cls-2" d="M23.12,20.73A5,5,0,0,0,20,26.61a5,5,0,0,0,5.89,3.17l5.37-1.61-1.5-2.94L25.47,26.5a1.48,1.48,0,0,1-.85-2.83l19-5.68-.93-3.11Z"/><g id="_Group_" data-name="&lt;Group&gt;"><path id="_Path_2" data-name="&lt;Path&gt;" class="cls-3" d="M23.12,22.47l6.51-1.95,2.54-.77,10.47-3.13.46,1.52.47-.15-.93-3.11L32.17,18l-2.54.76-6.51,1.95a5,5,0,0,0-3.25,5.54A4.94,4.94,0,0,1,23.12,22.47Z"/><path id="_Path_3" data-name="&lt;Path&gt;" class="cls-3" d="M25.47,26.5A1.47,1.47,0,0,1,23.85,26a1.47,1.47,0,0,0-.22,1.29,1.48,1.48,0,0,0,1.84,1L29.71,27l.73,1.43.77-.23-1.5-2.94Z"/></g><path id="_Path_4" data-name="&lt;Path&gt;" class="cls-4" d="M23.12,20.73A5,5,0,0,0,20,26.61a5,5,0,0,0,5.89,3.17l5.37-1.61-1.5-2.94L25.47,26.5a1.48,1.48,0,0,1-.85-2.83l19-5.68-.93-3.11Z"/><path id="_Rectangle_" data-name="&lt;Rectangle&gt;" class="cls-2" d="M40.86,15h2.36a0,0,0,0,1,0,0v4.13a0,0,0,0,1,0,0H40.86A1.18,1.18,0,0,1,39.68,18V16.2A1.18,1.18,0,0,1,40.86,15Z" transform="translate(-3.16 12.62) rotate(-16.68)"/><path id="_Path_5" data-name="&lt;Path&gt;" class="cls-3" d="M40.29,15.28a1.18,1.18,0,0,0-.79,1.47L40,18.44A1.18,1.18,0,0,1,40.8,17l2.27-.67-.51-1.7Z"/><path id="_Rectangle_2" data-name="&lt;Rectangle&gt;" class="cls-4" d="M40.86,15h2.36a0,0,0,0,1,0,0v4.13a0,0,0,0,1,0,0H40.86A1.18,1.18,0,0,1,39.68,18V16.2A1.18,1.18,0,0,1,40.86,15Z" transform="translate(-3.16 12.62) rotate(-16.68)"/><path class="cls-2" d="M45.84,17.31,45,14.49a1.19,1.19,0,0,0-1.47-.8,1.18,1.18,0,0,0-.79,1.47L43.57,18a1.18,1.18,0,1,0,2.27-.68Z"/><path id="_Path_6" data-name="&lt;Path&gt;" class="cls-3" d="M43.52,13.69a1.18,1.18,0,0,0-.79,1.47L43.27,17a1.18,1.18,0,0,1,2.26-.68L45,14.49A1.19,1.19,0,0,0,43.52,13.69Z"/><path class="cls-4" d="M45.84,17.31,45,14.49a1.19,1.19,0,0,0-1.47-.8,1.18,1.18,0,0,0-.79,1.47L43.57,18a1.18,1.18,0,1,0,2.27-.68Z"/><path class="cls-2" d="M30.48,29.25,27,17.57a.72.72,0,0,0-.92-.43l-1.47.44a.74.74,0,0,0-.54.87l3.5,11.68a1.54,1.54,0,0,0,2.93-.88Z"/><path class="cls-2" d="M33.42,28.43,29.93,16.74a.74.74,0,0,0-.93-.43l-1.46.44a.72.72,0,0,0-.54.87l3.5,11.69a1.53,1.53,0,0,0,2.92-.88Z"/><path id="_Path_7" data-name="&lt;Path&gt;" class="cls-5" d="M28.12,26.72a1.45,1.45,0,0,1-1.85-.86l1.28,4.27a1.54,1.54,0,0,0,2.93-.88L29.2,25A1.46,1.46,0,0,1,28.12,26.72Z"/><path id="_Path_8" data-name="&lt;Path&gt;" class="cls-5" d="M31.07,25.89A1.44,1.44,0,0,1,29.22,25l1.28,4.28a1.53,1.53,0,0,0,2.92-.88l-1.27-4.28A1.46,1.46,0,0,1,31.07,25.89Z"/><path class="cls-4" d="M30.48,29.25,27,17.57a.72.72,0,0,0-.92-.43l-1.47.44a.74.74,0,0,0-.54.87l3.5,11.68a1.54,1.54,0,0,0,2.93-.88Z"/><path class="cls-4" d="M33.42,28.43,29.93,16.74a.74.74,0,0,0-.93-.43l-1.46.44a.72.72,0,0,0-.54.87l3.5,11.69a1.53,1.53,0,0,0,2.92-.88Z"/><path id="_Path_9" data-name="&lt;Path&gt;" class="cls-2" d="M32.17,18l-11,3.3c-6.5,1.95-17.82-3.9-17.82-3.9l6,20.08s6.23-11.11,12.74-13.06L32.54,21.3a1.48,1.48,0,0,1,.85,2.83l-1.15.35.93,3.11,1.72-.52a5,5,0,0,0,3.17-5.88A5,5,0,0,0,32.17,18Z"/><g id="_Group_2" data-name="&lt;Group&gt;"><path id="_Path_10" data-name="&lt;Path&gt;" class="cls-3" d="M21.14,23l11-3.31a5,5,0,0,1,5.89,3.17c0,.13.07.25.09.38a4.27,4.27,0,0,0-.09-2A5,5,0,0,0,32.17,18l-11,3.3c-6.5,1.95-17.82-3.9-17.82-3.9l.59,1.95C6.31,20.53,15.52,24.68,21.14,23Z"/></g><path id="_Path_11" data-name="&lt;Path&gt;" class="cls-4" d="M32.17,18l-11,3.3c-6.5,1.95-17.82-3.9-17.82-3.9l6,20.08s6.23-11.11,12.74-13.06L32.54,21.3a1.48,1.48,0,0,1,.85,2.83l-1.15.35.93,3.11,1.72-.52a5,5,0,0,0,3.17-5.88A5,5,0,0,0,32.17,18Z"/><line id="_Path_12" data-name="&lt;Path&gt;" class="cls-6" x1="24.52" y1="14.77" x2="25.3" y2="17.37"/><line id="_Path_13" data-name="&lt;Path&gt;" class="cls-6" x1="27.45" y1="13.89" x2="28.22" y2="16.49"/><line id="_Path_14" data-name="&lt;Path&gt;" class="cls-6" x1="23.94" y1="14.94" x2="25.15" y2="14.57"/><line id="_Path_15" data-name="&lt;Path&gt;" class="cls-6" x1="26.83" y1="14.06" x2="28.05" y2="13.7"/><path id="_Path_16" data-name="&lt;Path&gt;" class="cls-2" d="M8.7,26.75c1.67,5.54,2,10.36.64,10.75S5.62,33.72,4,28.17,2,17.81,3.32,17.42,7,21.2,8.7,26.75Z"/><path id="_Path_17" data-name="&lt;Path&gt;" class="cls-5" d="M3.28,22.66c2-.58,4.91,3.43,6.58,9A39.58,39.58,0,0,0,8.7,26.75C7,21.2,4.63,17,3.32,17.42c-.87.26-1,2.47-.56,5.55A1.47,1.47,0,0,1,3.28,22.66Z"/><path id="_Path_18" data-name="&lt;Path&gt;" class="cls-4" d="M8.7,26.75c1.67,5.54,2,10.36.64,10.75S5.62,33.72,4,28.17,2,17.81,3.32,17.42,7,21.2,8.7,26.75Z"/></svg>