<svg id="Icons" xmlns="http://www.w3.org/2000/svg" viewBox="0 0 48 48"><defs><style>.cls-1{fill:#ff6242;}.cls-2{fill:#45413c;opacity:0.15;}.cls-3{fill:none;}.cls-3,.cls-5,.cls-6,.cls-7,.cls-8{stroke:#45413c;stroke-linejoin:round;}.cls-3,.cls-5,.cls-6,.cls-7{stroke-linecap:round;}.cls-4{fill:#ff866e;}.cls-5{fill:#e04122;}.cls-6{fill:#8ca4b8;}.cls-7{fill:#fff5e3;}.cls-8{fill:#fff;}</style></defs><title>698-telephone</title><path id="_Path_" data-name="&lt;Path&gt;" class="cls-1" d="M44.14,25.11a7.55,7.55,0,0,0-1.69-8.2A12.61,12.61,0,0,0,37.74,14a53.7,53.7,0,0,0-8.67-2.18,54.48,54.48,0,0,0-8.9-.92A12.85,12.85,0,0,0,14.74,12a7.56,7.56,0,0,0-4.39,7.13A1.21,1.21,0,0,0,12,20.25l4.23-1.51A1.39,1.39,0,0,0,17,17l-.37-1a.93.93,0,0,1,.86-1.25,60.3,60.3,0,0,1,10.9.76,60.49,60.49,0,0,1,10.51,3,.93.93,0,0,1,.38,1.47l-.7.84a1.38,1.38,0,0,0,.18,1.95l3.45,2.86A1.21,1.21,0,0,0,44.14,25.11Z"/><ellipse id="_Ellipse_" data-name="&lt;Ellipse&gt;" class="cls-2" cx="27.52" cy="45.5" rx="14.5" ry="1.5"/><path id="_Rectangle_" data-name="&lt;Rectangle&gt;" class="cls-1" d="M13.37,35.66h28a0,0,0,0,1,0,0v6.07a.93.93,0,0,1-.93.93H14.3a.93.93,0,0,1-.93-.93V35.66A0,0,0,0,1,13.37,35.66Z"/><path id="_Rectangle_2" data-name="&lt;Rectangle&gt;" class="cls-3" d="M13.37,35.66h28a0,0,0,0,1,0,0v6.07a.93.93,0,0,1-.93.93H14.3a.93.93,0,0,1-.93-.93V35.66A0,0,0,0,1,13.37,35.66Z"/><path id="_Path_2" data-name="&lt;Path&gt;" class="cls-1" d="M41.37,35.66h-28l4-12.42a.93.93,0,0,1,.89-.64H36.49a.93.93,0,0,1,.89.64Z"/><path id="_Path_3" data-name="&lt;Path&gt;" class="cls-4" d="M16.73,26.33H38a1.16,1.16,0,0,1,.38.06l-1-3.15a.93.93,0,0,0-.89-.64H18.25a.93.93,0,0,0-.89.64l-1,3.15A1.21,1.21,0,0,1,16.73,26.33Z"/><path id="_Path_4" data-name="&lt;Path&gt;" class="cls-3" d="M41.37,35.66h-28l4-12.42a.93.93,0,0,1,.89-.64H36.49a.93.93,0,0,1,.89.64Z"/><rect id="_Rectangle_3" data-name="&lt;Rectangle&gt;" class="cls-5" x="18.97" y="20.26" width="4.2" height="2.33"/><rect id="_Rectangle_4" data-name="&lt;Rectangle&gt;" class="cls-5" x="31.57" y="20.26" width="4.2" height="2.33"/><path id="_Path_5" data-name="&lt;Path&gt;" class="cls-4" d="M14.44,13.78a12.92,12.92,0,0,1,5.44-1.17,54.48,54.48,0,0,1,8.9.92,54,54,0,0,1,8.67,2.18,12.69,12.69,0,0,1,4.71,2.95,7.53,7.53,0,0,1,2.23,5.72,7.54,7.54,0,0,0-1.94-7.47A12.61,12.61,0,0,0,37.74,14a53.7,53.7,0,0,0-8.67-2.18,54.48,54.48,0,0,0-8.9-.92A12.85,12.85,0,0,0,14.74,12a7.53,7.53,0,0,0-4.38,6.49A7.53,7.53,0,0,1,14.44,13.78Z"/><path id="_Path_6" data-name="&lt;Path&gt;" class="cls-3" d="M44.14,25.11a7.55,7.55,0,0,0-1.69-8.2A12.61,12.61,0,0,0,37.74,14a53.7,53.7,0,0,0-8.67-2.18,54.48,54.48,0,0,0-8.9-.92A12.85,12.85,0,0,0,14.74,12a7.56,7.56,0,0,0-4.39,7.13A1.21,1.21,0,0,0,12,20.25l4.23-1.51A1.39,1.39,0,0,0,17,17l-.37-1a.93.93,0,0,1,.86-1.25,60.3,60.3,0,0,1,10.9.76,60.49,60.49,0,0,1,10.51,3,.93.93,0,0,1,.38,1.47l-.7.84a1.38,1.38,0,0,0,.18,1.95l3.45,2.86A1.21,1.21,0,0,0,44.14,25.11Z"/><path id="_Rectangle_5" data-name="&lt;Rectangle&gt;" class="cls-6" d="M14.3,42.67H40.44a0,0,0,0,1,0,0v1.4a.93.93,0,0,1-.93.93H15.23a.93.93,0,0,1-.93-.93v-1.4A0,0,0,0,1,14.3,42.67Z"/><path id="_Path_7" data-name="&lt;Path&gt;" class="cls-7" d="M23.17,32.86a.94.94,0,0,1-.93.94H19a.94.94,0,0,1,0-1.87h3.27A.93.93,0,0,1,23.17,32.86Z"/><path id="_Path_8" data-name="&lt;Path&gt;" class="cls-7" d="M36.71,32.86a.94.94,0,0,1-.94.94H32.51a.94.94,0,1,1,0-1.87h3.26A.94.94,0,0,1,36.71,32.86Z"/><path id="_Path_9" data-name="&lt;Path&gt;" class="cls-7" d="M23.17,29.13a.93.93,0,0,1-.93.93H19.9a.93.93,0,0,1,0-1.86h2.34A.93.93,0,0,1,23.17,29.13Z"/><path id="_Path_10" data-name="&lt;Path&gt;" class="cls-7" d="M35.77,29.13a.93.93,0,0,1-.93.93H32.51a.93.93,0,1,1,0-1.86h2.33A.93.93,0,0,1,35.77,29.13Z"/><path id="_Path_11" data-name="&lt;Path&gt;" class="cls-7" d="M23.64,25.4a.94.94,0,0,1-.94.93H20.84a.94.94,0,1,1,0-1.87H22.7A.94.94,0,0,1,23.64,25.4Z"/><path id="_Path_12" data-name="&lt;Path&gt;" class="cls-7" d="M29.24,25.4a.94.94,0,0,1-.94.93H26.44a.94.94,0,1,1,0-1.87H28.3A.94.94,0,0,1,29.24,25.4Z"/><path id="_Path_13" data-name="&lt;Path&gt;" class="cls-8" d="M13.35,2.55a.32.32,0,0,1,.3,0,.33.33,0,0,1,.16.25l.41,4.45a.35.35,0,0,1-.22.35.34.34,0,0,1-.39-.13L11.18,3.81a.35.35,0,0,1,0-.28.32.32,0,0,1,.2-.21Z"/><path id="_Path_14" data-name="&lt;Path&gt;" class="cls-8" d="M21.12,2.49a.31.31,0,0,1,.22.2.3.3,0,0,1,0,.29L19,6.78a.34.34,0,0,1-.62-.2l.3-4.4a.38.38,0,0,1,.14-.26.36.36,0,0,1,.29,0Z"/><path id="_Path_15" data-name="&lt;Path&gt;" class="cls-8" d="M5.76,7.45a.37.37,0,0,0-.1.28A.35.35,0,0,0,5.83,8l3.88,2.21a.35.35,0,0,0,.41-.06.33.33,0,0,0,0-.41L7.8,6a.33.33,0,0,0-.24-.15.33.33,0,0,0-.27.09Z"/><path id="_Path_16" data-name="&lt;Path&gt;" class="cls-8" d="M2.5,14.5a.35.35,0,0,0,.1.29.32.32,0,0,0,.28.09l4.43-.59A.34.34,0,0,0,7.6,14a.35.35,0,0,0-.22-.35L3.25,12.11a.33.33,0,0,0-.29,0,.31.31,0,0,0-.16.24Z"/><path id="_Path_17" data-name="&lt;Path&gt;" class="cls-7" d="M34.84,25.4a.93.93,0,0,1-.93.93H32a.94.94,0,1,1,0-1.87h1.87A.94.94,0,0,1,34.84,25.4Z"/><path id="_Path_18" data-name="&lt;Path&gt;" class="cls-7" d="M29.7,29.13a.92.92,0,0,1-.93.93H26a.93.93,0,0,1,0-1.86h2.8A.92.92,0,0,1,29.7,29.13Z"/><path id="_Path_19" data-name="&lt;Path&gt;" class="cls-7" d="M29.7,32.86a.93.93,0,0,1-.93.94H26a.94.94,0,0,1,0-1.87h2.8A.93.93,0,0,1,29.7,32.86Z"/></svg>