<svg id="Icons" xmlns="http://www.w3.org/2000/svg" viewBox="0 0 48 48"><defs><style>.cls-1{fill:#45413c;opacity:0.15;}.cls-2{fill:#bdbec0;}.cls-3{fill:#e0e0e0;}.cls-4{fill:none;}.cls-4,.cls-7{stroke:#45413c;stroke-linecap:round;stroke-linejoin:round;}.cls-5{fill:#87898c;}.cls-6{fill:#656769;}.cls-7{fill:#e8f4fa;}.cls-8{fill:#525252;}</style></defs><title>701-electric-plug</title><g id="_Group_" data-name="&lt;Group&gt;"><ellipse id="_Ellipse_" data-name="&lt;Ellipse&gt;" class="cls-1" cx="24" cy="45.5" rx="14" ry="1.5"/><path id="_Path_" data-name="&lt;Path&gt;" class="cls-2" d="M16,3,9.29,15.61a1,1,0,0,1-1.21.48l-1-.33a1,1,0,0,1-.56-1.42l6.91-12.9A1,1,0,0,1,15,1.11l.81.62A1,1,0,0,1,16,3Z"/><path id="_Path_2" data-name="&lt;Path&gt;" class="cls-3" d="M15.77,1.73,15,1.11a1,1,0,0,0-1.49.33l-1.29,2.4a1,1,0,0,1,1.45-.16l.81.6a.91.91,0,0,1,.4,1L16,3A1,1,0,0,0,15.77,1.73Z"/><path id="_Path_3" data-name="&lt;Path&gt;" class="cls-4" d="M16,3,9.29,15.61a1,1,0,0,1-1.21.48l-1-.33a1,1,0,0,1-.56-1.42l6.91-12.9A1,1,0,0,1,15,1.11l.81.62A1,1,0,0,1,16,3Z"/><path id="_Path_4" data-name="&lt;Path&gt;" class="cls-5" d="M9.36,15.48l6.92,3.7a5.46,5.46,0,0,0,2.16.64l2.65.23,5.19-9.7L24.62,8.28a5.55,5.55,0,0,0-1.73-1.44L16,3.13Z"/><path id="_Path_5" data-name="&lt;Path&gt;" class="cls-2" d="M21.58,9.27a7,7,0,0,1,1.78,1.36l1.75,1.9,1.17-2.18L24.62,8.28a5.55,5.55,0,0,0-1.73-1.44L16,3.13,9.36,15.48l5.3-9.91Z"/><path id="_Path_6" data-name="&lt;Path&gt;" class="cls-4" d="M9.36,15.48l6.92,3.7a5.46,5.46,0,0,0,2.16.64l2.65.23,5.19-9.7L24.62,8.28a5.55,5.55,0,0,0-1.73-1.44L16,3.13Z"/><path id="_Rectangle_" data-name="&lt;Rectangle&gt;" class="cls-2" d="M19.29,14.54h11a0,0,0,0,1,0,0V16a1,1,0,0,1-1,1h-9a1,1,0,0,1-1-1v-1.5A0,0,0,0,1,19.29,14.54Z" transform="translate(-0.83 30.19) rotate(-61.85)"/><path id="_Path_7" data-name="&lt;Path&gt;" class="cls-3" d="M27.6,11.06l-1.32-.71-.82,1.52,1.39.75a.92.92,0,0,1,.38,1.25L28,12.41A1,1,0,0,0,27.6,11.06Z"/><path id="_Rectangle_2" data-name="&lt;Rectangle&gt;" class="cls-4" d="M19.29,14.54h11a0,0,0,0,1,0,0V16a1,1,0,0,1-1,1h-9a1,1,0,0,1-1-1v-1.5A0,0,0,0,1,19.29,14.54Z" transform="translate(-0.83 30.19) rotate(-61.85)"/><path id="_Path_8" data-name="&lt;Path&gt;" class="cls-5" d="M24,19.91a3.64,3.64,0,0,1,3.8-.24l1.11.6,1.89-3.53-1.12-.6a3.64,3.64,0,0,1-1.91-3.29Z"/><path id="_Path_9" data-name="&lt;Path&gt;" class="cls-2" d="M29.68,16.14a3.64,3.64,0,0,1-1.91-3.29L26.62,15a4,4,0,0,0,2.2,2.75l1.11.6.87-1.62Z"/><path id="_Path_10" data-name="&lt;Path&gt;" class="cls-4" d="M24,19.91a3.64,3.64,0,0,1,3.8-.24l1.11.6,1.89-3.53-1.12-.6a3.64,3.64,0,0,1-1.91-3.29Z"/><path class="cls-6" d="M19.69,30.08a3.5,3.5,0,0,1,4.74-1.44l9.26,5a6.5,6.5,0,0,0,6.13-11.46l-9.26-5-1.41,2.65,9.26,5A3.5,3.5,0,0,1,35.1,31L25.84,26a6.5,6.5,0,0,0-6.13,11.46L33.82,45a1,1,0,0,0,1.35-.41l.47-.88a1,1,0,0,0-.41-1.35l-14.1-7.55A3.51,3.51,0,0,1,19.69,30.08Z"/><path class="cls-5" d="M35.23,42.37l-14.1-7.55a3.51,3.51,0,0,1-1.71-4.08,3.54,3.54,0,0,0-.35.51A3.5,3.5,0,0,0,20.51,36l14.11,7.55a1,1,0,0,1,.46,1.17.87.87,0,0,0,.09-.11l.47-.88A1,1,0,0,0,35.23,42.37Z"/><path class="cls-5" d="M25.23,27.18l9.25,5a3.5,3.5,0,0,0,4.74-1.44,2.8,2.8,0,0,0,.27-.65A3.5,3.5,0,0,1,35.1,31L25.84,26a6.5,6.5,0,0,0-8.79,2.66,4.71,4.71,0,0,0-.3.65A6.49,6.49,0,0,1,25.23,27.18Z"/><path class="cls-5" d="M39.82,22.14l-9.26-5-.62,1.17,9.26,5a6.51,6.51,0,0,1,3,8.15,4.6,4.6,0,0,0,.31-.53A6.48,6.48,0,0,0,39.82,22.14Z"/><path class="cls-4" d="M19.69,30.08a3.5,3.5,0,0,1,4.74-1.44l9.26,5a6.5,6.5,0,0,0,6.13-11.46l-9.26-5-1.41,2.65,9.26,5A3.5,3.5,0,0,1,35.1,31L25.84,26a6.5,6.5,0,0,0-6.13,11.46L33.82,45a1,1,0,0,0,1.35-.41l.47-.88a1,1,0,0,0-.41-1.35l-14.1-7.55A3.51,3.51,0,0,1,19.69,30.08Z"/><path class="cls-7" d="M2.67,6.79a1,1,0,0,0-1.36.41,1,1,0,0,0,.41,1.35l6.17,3.31,1-1.77Z"/><path class="cls-7" d="M6,.62A1,1,0,1,0,5,2.38l6.18,3.3.94-1.76Z"/><path class="cls-6" d="M19.16,8.81l-1.32-.7a1,1,0,0,0-1.35.41l-2.36,4.4a1,1,0,0,0,.41,1.36l1.32.71a3.5,3.5,0,0,0,3.3-6.18Z"/><path id="_Path_11" data-name="&lt;Path&gt;" class="cls-8" d="M19.16,8.81l-1.32-.7a1,1,0,0,0-1.35.41l-.71,1.31a.75.75,0,0,1,1-.31l2.31,1.23a2.62,2.62,0,0,1,1.24,3.16,2.9,2.9,0,0,0,.25-.36A3.51,3.51,0,0,0,19.16,8.81Z"/><path class="cls-4" d="M19.16,8.81l-1.32-.7a1,1,0,0,0-1.35.41l-2.36,4.4a1,1,0,0,0,.41,1.36l1.32.71a3.5,3.5,0,0,0,3.3-6.18Z"/></g></svg>