<svg id="Icons" xmlns="http://www.w3.org/2000/svg" viewBox="0 0 48 48"><defs><style>.cls-1{fill:#45413c;opacity:0.15;}.cls-2{fill:#656769;}.cls-3{fill:#87898c;}.cls-4{fill:none;}.cls-4,.cls-7,.cls-8{stroke:#45413c;stroke-linecap:round;stroke-linejoin:round;}.cls-5{fill:#daedf7;}.cls-6,.cls-7{fill:#fff;}.cls-8{fill:#80ddff;}</style></defs><title>703-floppy-disk</title><ellipse id="_Ellipse_" data-name="&lt;Ellipse&gt;" class="cls-1" cx="24" cy="44.57" rx="21.08" ry="2.43"/><path id="_Path_" data-name="&lt;Path&gt;" class="cls-2" d="M4,5.62V42.38A1.61,1.61,0,0,0,5.64,44H42.4A1.61,1.61,0,0,0,44,42.38V12.53a3.23,3.23,0,0,0-1-2.29L37.78,5a3.25,3.25,0,0,0-2.3-1H5.64A1.61,1.61,0,0,0,4,5.62Z"/><path id="_Path_2" data-name="&lt;Path&gt;" class="cls-3" d="M43.07,10.24,37.78,5a3.25,3.25,0,0,0-2.3-1H5.64A1.61,1.61,0,0,0,4,5.62v4.46A1.61,1.61,0,0,1,5.64,8.46H35.48a3.25,3.25,0,0,1,2.3.95l5.29,5.29A3.23,3.23,0,0,1,44,17V12.53A3.23,3.23,0,0,0,43.07,10.24Z"/><path id="_Path_3" data-name="&lt;Path&gt;" class="cls-4" d="M4,5.62V42.38A1.61,1.61,0,0,0,5.64,44H42.4A1.61,1.61,0,0,0,44,42.38V12.53a3.23,3.23,0,0,0-1-2.29L37.78,5a3.25,3.25,0,0,0-2.3-1H5.64A1.61,1.61,0,0,0,4,5.62Z"/><path id="_Rectangle_" data-name="&lt;Rectangle&gt;" class="cls-5" d="M13.75,4H33.21a0,0,0,0,1,0,0V14.4a.81.81,0,0,1-.81.81H14.56a.81.81,0,0,1-.81-.81V4A0,0,0,0,1,13.75,4Z"/><rect id="_Path_4" data-name="&lt;Path&gt;" class="cls-6" x="13.75" y="4" width="19.46" height="3.31"/><path id="_Rectangle_2" data-name="&lt;Rectangle&gt;" class="cls-4" d="M13.75,4H33.21a0,0,0,0,1,0,0V14.4a.81.81,0,0,1-.81.81H14.56a.81.81,0,0,1-.81-.81V4A0,0,0,0,1,13.75,4Z"/><rect id="_Rectangle_3" data-name="&lt;Rectangle&gt;" class="cls-7" x="8.48" y="26.43" width="30" height="17.57"/><line id="_Path_5" data-name="&lt;Path&gt;" class="cls-4" x1="29.29" y1="7.31" x2="29.29" y2="11.63"/><path id="_Rectangle_4" data-name="&lt;Rectangle&gt;" class="cls-8" d="M10.1,20.76H36.86a1.62,1.62,0,0,1,1.62,1.62v4.05a0,0,0,0,1,0,0h-30a0,0,0,0,1,0,0V22.38A1.62,1.62,0,0,1,10.1,20.76Z"/></svg>