<svg id="Icons" xmlns="http://www.w3.org/2000/svg" viewBox="0 0 48 48"><defs><style>.cls-1{fill:#45413c;opacity:0.15;}.cls-2{fill:#87898c;}.cls-3,.cls-9{fill:#656769;}.cls-4{fill:none;}.cls-4,.cls-8,.cls-9{stroke:#45413c;stroke-linecap:round;stroke-linejoin:round;}.cls-5{fill:#fff;}.cls-6{fill:#e0e0e0;}.cls-7{fill:#525252;}.cls-8{fill:#e8f4fa;}</style></defs><title>706-videocassette</title><g id="_Group_" data-name="&lt;Group&gt;"><ellipse id="_Ellipse_" data-name="&lt;Ellipse&gt;" class="cls-1" cx="25.41" cy="42.83" rx="17.46" ry="1.59"/><path id="_Rectangle_" data-name="&lt;Rectangle&gt;" class="cls-2" d="M5,13.88H44.16a0,0,0,0,1,0,0V33.66a3.05,3.05,0,0,1-3.05,3.05h-33A3.05,3.05,0,0,1,5,33.66V13.88a0,0,0,0,1,0,0Z" transform="translate(-8.3 12.52) rotate(-24.6)"/><path id="_Path_" data-name="&lt;Path&gt;" class="cls-3" d="M3.34,23.4a1.06,1.06,0,0,0-.52,1.4l2.51,5.47L7,29.52a1.05,1.05,0,0,0,.53-1.4l-.88-1.91a1.06,1.06,0,0,1,.52-1.4l28.48-13a1.06,1.06,0,0,1,1.4.52l.88,1.91a1.05,1.05,0,0,0,1.4.53L40.93,14,38.42,8.5A1.06,1.06,0,0,0,37,8Z"/><path id="_Rectangle_2" data-name="&lt;Rectangle&gt;" class="cls-4" d="M5,13.88H44.16a0,0,0,0,1,0,0V33.66a3.05,3.05,0,0,1-3.05,3.05h-33A3.05,3.05,0,0,1,5,33.66V13.88a0,0,0,0,1,0,0Z" transform="translate(-8.3 12.52) rotate(-24.6)"/><path id="_Path_2" data-name="&lt;Path&gt;" class="cls-5" d="M13.35,25.26a5.41,5.41,0,1,0,4.5,9.84L20.2,34l-4.5-9.84Z"/><path id="_Path_3" data-name="&lt;Path&gt;" class="cls-6" d="M13.35,25.26a5.41,5.41,0,0,0-2.67,7.17,5.35,5.35,0,0,0,.41.74A5.43,5.43,0,0,1,14,26.78l2.36-1.07-.7-1.53Z"/><path id="_Path_4" data-name="&lt;Path&gt;" class="cls-4" d="M13.35,25.26a5.41,5.41,0,1,0,4.5,9.84L20.2,34l-4.5-9.84Z"/><path id="_Path_5" data-name="&lt;Path&gt;" class="cls-5" d="M31.89,16.77l-2.35,1.08L34,27.68l2.36-1.07a5.41,5.41,0,0,0-4.51-9.84Z"/><path id="_Path_6" data-name="&lt;Path&gt;" class="cls-6" d="M39.37,20.28a5.7,5.7,0,0,0-.31-.84,5.41,5.41,0,0,0-7.17-2.67l-2.35,1.08.75,1.63,2.35-1.08A5.41,5.41,0,0,1,39.37,20.28Z"/><path id="_Path_7" data-name="&lt;Path&gt;" class="cls-4" d="M31.89,16.77l-2.35,1.08L34,27.68l2.36-1.07a5.41,5.41,0,0,0-4.51-9.84Z"/><path id="_Path_8" data-name="&lt;Path&gt;" class="cls-3" d="M2.48,21.51A1.06,1.06,0,0,0,2,22.91l2.5,5.48,1.64-.75a1,1,0,0,0,.52-1.4l-.87-1.92a1.06,1.06,0,0,1,.52-1.4l28.48-13a1,1,0,0,1,1.4.52L37,12.32a1.06,1.06,0,0,0,1.4.52l1.64-.75L37.56,6.62a1,1,0,0,0-1.4-.52Z"/><path id="_Path_9" data-name="&lt;Path&gt;" class="cls-2" d="M36.16,6.1l-1.64.75L4.12,20.76l-1.64.75A1.06,1.06,0,0,0,2,22.91l.66,1.45A1.07,1.07,0,0,1,3.14,23l1.64-.74L35.18,8.29l1.64-.75a1.06,1.06,0,0,1,1.4.52l-.66-1.44A1,1,0,0,0,36.16,6.1Z"/><path id="_Path_10" data-name="&lt;Path&gt;" class="cls-4" d="M34.52,6.85,4.12,20.76l-1.64.75A1.06,1.06,0,0,0,2,22.91l.75,1.64,1.75,3.84,1.64-.75a1,1,0,0,0,.52-1.4l-.87-1.92a1.06,1.06,0,0,1,.52-1.4l28.48-13a1,1,0,0,1,1.4.52L37,12.32a1.06,1.06,0,0,0,1.4.52l1.64-.75L38.31,8.26l-.75-1.64a1,1,0,0,0-1.4-.52Z"/><rect id="_Rectangle_3" data-name="&lt;Rectangle&gt;" class="cls-3" x="19.82" y="20.53" width="10.1" height="10.82" transform="translate(-8.54 12.7) rotate(-24.6)"/><rect id="_Rectangle_4" data-name="&lt;Rectangle&gt;" class="cls-7" x="17.95" y="20.93" width="10.1" height="1.79" transform="translate(-7 11.55) rotate(-24.6)"/><rect id="_Rectangle_5" data-name="&lt;Rectangle&gt;" class="cls-4" x="19.82" y="20.53" width="10.1" height="10.82" transform="translate(-8.54 12.7) rotate(-24.6)"/><rect id="_Rectangle_6" data-name="&lt;Rectangle&gt;" class="cls-8" x="22.21" y="24.26" width="5.33" height="3.35" transform="translate(-8.54 12.7) rotate(-24.6)"/><path id="_Path_11" data-name="&lt;Path&gt;" class="cls-9" d="M35.6,21A4.18,4.18,0,0,0,30.05,19l3.49,7.62A4.2,4.2,0,0,0,35.6,21Z"/><path id="_Path_12" data-name="&lt;Path&gt;" class="cls-9" d="M14.14,30.85a4.2,4.2,0,0,0,5.56,2.06l-3.49-7.62A4.2,4.2,0,0,0,14.14,30.85Z"/></g></svg>