<svg id="Icons" xmlns="http://www.w3.org/2000/svg" viewBox="0 0 48 48"><defs><style>.cls-1{fill:#daedf7;}.cls-2{fill:#e8f4fa;}.cls-3{fill:none;stroke:#45413c;stroke-linecap:round;stroke-linejoin:round;}.cls-4{fill:#45413c;opacity:0.15;}.cls-5{fill:#00b8f0;}.cls-6{fill:#4acfff;}.cls-7{fill:#b89558;}.cls-8{fill:#debb7e;}</style></defs><title>707-magnifying-glass-tilted-left</title><g id="_Group_" data-name="&lt;Group&gt;"><path id="_Path_" data-name="&lt;Path&gt;" class="cls-1" d="M30.19,8.79A15.49,15.49,0,1,0,28.82,31.9l2.34,2.34,2.58-2.58L31.4,29.32A15.48,15.48,0,0,0,30.19,8.79Z"/><g id="_Group_2" data-name="&lt;Group&gt;"><path id="_Path_2" data-name="&lt;Path&gt;" class="cls-2" d="M8.29,12a15.47,15.47,0,0,1,26.34,9.37,15.48,15.48,0,1,0-30.79,0A15.38,15.38,0,0,1,8.29,12Z"/></g><path id="_Path_3" data-name="&lt;Path&gt;" class="cls-3" d="M30.19,8.79A15.49,15.49,0,1,0,28.82,31.9l2.34,2.34,2.58-2.58L31.4,29.32A15.48,15.48,0,0,0,30.19,8.79Z"/><ellipse id="_Ellipse_" data-name="&lt;Ellipse&gt;" class="cls-4" cx="28.3" cy="45.34" rx="16.04" ry="1.66"/><circle id="_Path_4" data-name="&lt;Path&gt;" class="cls-5" cx="19.24" cy="19.74" r="12.3"/><path id="_Path_5" data-name="&lt;Path&gt;" class="cls-6" d="M10.54,11A12.29,12.29,0,0,0,9.22,26.85L25.48,9.16A12.29,12.29,0,0,0,10.54,11Z"/><circle id="_Path_6" data-name="&lt;Path&gt;" class="cls-3" cx="19.24" cy="19.74" r="12.3"/><path class="cls-7" d="M43.4,39.39l-8.7-8.7a.92.92,0,0,0-1.29,0l-3.22,3.22a.92.92,0,0,0,0,1.29l8.7,8.7a3.19,3.19,0,0,0,4.51-4.51Z"/><path id="_Path_7" data-name="&lt;Path&gt;" class="cls-8" d="M43.4,39.39l-8.7-8.7a.92.92,0,0,0-1.29,0l-2,2a.91.91,0,0,1,1.29,0l8.7,8.7a3.17,3.17,0,0,1,.77,3.23,3.15,3.15,0,0,0,1.27-.76A3.2,3.2,0,0,0,43.4,39.39Z"/><path class="cls-3" d="M43.4,39.39l-8.7-8.7a.92.92,0,0,0-1.29,0l-3.22,3.22a.92.92,0,0,0,0,1.29l8.7,8.7a3.19,3.19,0,0,0,4.51-4.51Z"/></g></svg>