<svg id="Icons" xmlns="http://www.w3.org/2000/svg" viewBox="0 0 48 48"><defs><style>.cls-1{fill:#adc4d9;}.cls-1,.cls-10,.cls-13,.cls-4,.cls-9{stroke:#45413c;stroke-linecap:round;stroke-linejoin:round;}.cls-2{fill:#c0dceb;}.cls-3{fill:#daedf7;}.cls-4{fill:none;}.cls-13,.cls-5{fill:#fff;}.cls-6{fill:#f0f0f0;}.cls-7{fill:#45413c;opacity:0.15;}.cls-8{fill:#e0e0e0;}.cls-11,.cls-9{fill:#87898c;}.cls-10{fill:#656769;}.cls-12{fill:#bdbec0;}</style></defs><title>708-microscope</title><g id="_Group_" data-name="&lt;Group&gt;"><rect id="_Rectangle_" data-name="&lt;Rectangle&gt;" class="cls-1" x="26.46" y="6.07" width="3.96" height="4.47" transform="translate(7.47 -12.63) rotate(28.67)"/><circle id="_Path_" data-name="&lt;Path&gt;" class="cls-2" cx="25.94" cy="12.89" r="5.22"/><path id="_Path_2" data-name="&lt;Path&gt;" class="cls-3" d="M28.44,8.31a5.22,5.22,0,0,0-7.08,2.07,5.44,5.44,0,0,0-.48,1.33,5.19,5.19,0,0,1,9.46,3.93,1.84,1.84,0,0,0,.17-.25A5.21,5.21,0,0,0,28.44,8.31Z"/><circle id="_Path_3" data-name="&lt;Path&gt;" class="cls-4" cx="25.94" cy="12.89" r="5.22"/><path id="_Path_4" data-name="&lt;Path&gt;" class="cls-5" d="M22.4,37.28c-3.1,1-7.73-.64-8.77-3.75h0a3.4,3.4,0,0,0-.25,4.9,9.61,9.61,0,0,0,10.14,2.19Z"/><path id="_Path_5" data-name="&lt;Path&gt;" class="cls-6" d="M20.2,37.58a7.71,7.71,0,0,1-6-3A10.62,10.62,0,0,1,13,34.24,3.39,3.39,0,0,0,13,38,10,10,0,0,0,20.2,37.58Z"/><path id="_Path_6" data-name="&lt;Path&gt;" class="cls-4" d="M22.4,37.28c-3.1,1-7.73-.64-8.77-3.75h0a3.4,3.4,0,0,0-.25,4.9,9.61,9.61,0,0,0,10.14,2.19Z"/><ellipse id="_Ellipse_" data-name="&lt;Ellipse&gt;" class="cls-7" cx="24" cy="45.15" rx="14.18" ry="1.85"/><path id="_Path_7" data-name="&lt;Path&gt;" class="cls-5" d="M24.89,20.22a7.71,7.71,0,0,1,0,15.42v5.47a13.18,13.18,0,0,0,0-26.36Z"/><path id="_Path_8" data-name="&lt;Path&gt;" class="cls-8" d="M36.68,22.06a13.18,13.18,0,0,0-10.13-7.2A6.24,6.24,0,0,0,25,19a6.39,6.39,0,0,0,.12,1.25,7.71,7.71,0,0,1,7,4.94A6.22,6.22,0,0,0,36.68,22.06Z"/><path id="_Path_9" data-name="&lt;Path&gt;" class="cls-4" d="M24.89,20.22a7.71,7.71,0,0,1,0,15.42v5.47a13.18,13.18,0,0,0,0-26.36Z"/><rect id="_Rectangle_2" data-name="&lt;Rectangle&gt;" class="cls-5" x="17.26" y="10.77" width="11.87" height="14.26" rx="1.23" ry="1.23" transform="translate(11.43 -8.93) rotate(28.67)"/><path id="_Path_10" data-name="&lt;Path&gt;" class="cls-8" d="M26.89,23.51a1.25,1.25,0,0,1-1.68.49L17,19.48a1.23,1.23,0,0,1-.5-1.64l-1.3,2.39a1.22,1.22,0,0,0,.49,1.67l8.25,4.51a1.22,1.22,0,0,0,1.67-.49l5.66-10.34a.08.08,0,0,0,0,0Z"/><rect id="_Rectangle_3" data-name="&lt;Rectangle&gt;" class="cls-4" x="17.26" y="10.77" width="11.87" height="14.26" rx="1.23" ry="1.23" transform="translate(11.43 -8.93) rotate(28.67)"/><path id="_Path_11" data-name="&lt;Path&gt;" class="cls-2" d="M18.3,41.11a6.59,6.59,0,0,1,13.18,0Z"/><path id="_Path_12" data-name="&lt;Path&gt;" class="cls-3" d="M24.89,36.8a6.58,6.58,0,0,1,6.16,4.31h.43a6.59,6.59,0,0,0-13.18,0h.43A6.57,6.57,0,0,1,24.89,36.8Z"/><path id="_Path_13" data-name="&lt;Path&gt;" class="cls-4" d="M18.3,41.11a6.59,6.59,0,0,1,13.18,0Z"/><rect id="_Rectangle_4" data-name="&lt;Rectangle&gt;" class="cls-5" x="12.94" y="41.11" width="22.12" height="3.39" rx="1.23" ry="1.23"/><path id="_Path_14" data-name="&lt;Path&gt;" class="cls-6" d="M33.83,42.89H14.17A1.21,1.21,0,0,1,13,42a1.28,1.28,0,0,0-.07.34v.93a1.23,1.23,0,0,0,1.23,1.23H33.83a1.23,1.23,0,0,0,1.23-1.23v-.93A1.28,1.28,0,0,0,35,42,1.21,1.21,0,0,1,33.83,42.89Z"/><rect id="_Rectangle_5" data-name="&lt;Rectangle&gt;" class="cls-4" x="12.94" y="41.11" width="22.12" height="3.39" rx="1.23" ry="1.23"/><rect id="_Rectangle_6" data-name="&lt;Rectangle&gt;" class="cls-9" x="9.77" y="32.56" width="8.8" height="2.54" rx="0.62" ry="0.62" transform="translate(17.43 -2.7) rotate(27.82)"/><rect id="_Rectangle_7" data-name="&lt;Rectangle&gt;" class="cls-9" x="14.87" y="24.01" width="8.68" height="2.36" transform="translate(14.44 -6.13) rotate(28.67)"/><rect id="_Rectangle_8" data-name="&lt;Rectangle&gt;" class="cls-9" x="27.15" y="3.84" width="6.01" height="2.67" rx="0.62" ry="0.62" transform="translate(6.18 -13.83) rotate(28.67)"/><path id="_Path_15" data-name="&lt;Path&gt;" class="cls-10" d="M18.57,28.83l-2.08-1.14a1.21,1.21,0,0,1-.56-.64l-1.1-2.9,7.62,4.16-3,.64A1.25,1.25,0,0,1,18.57,28.83Z"/><circle id="_Path_16" data-name="&lt;Path&gt;" class="cls-11" cx="31.15" cy="18.98" r="4.24"/><path id="_Path_17" data-name="&lt;Path&gt;" class="cls-12" d="M31.15,16.51a4.25,4.25,0,0,1,4.15,3.35,4.17,4.17,0,0,0,.09-.88,4.24,4.24,0,0,0-8.47,0,4.17,4.17,0,0,0,.09.88A4.25,4.25,0,0,1,31.15,16.51Z"/><circle id="_Path_18" data-name="&lt;Path&gt;" class="cls-4" cx="31.15" cy="18.98" r="4.24"/><circle id="_Path_19" data-name="&lt;Path&gt;" class="cls-13" cx="31.15" cy="18.98" r="1.54"/></g></svg>