<svg id="Icons" xmlns="http://www.w3.org/2000/svg" viewBox="0 0 48 48"><defs><style>.cls-1{fill:#c0dceb;}.cls-2{fill:#daedf7;}.cls-3,.cls-9{fill:none;}.cls-3,.cls-5{stroke:#45413c;}.cls-3,.cls-5,.cls-9{stroke-linecap:round;stroke-linejoin:round;}.cls-4{fill:#45413c;opacity:0.15;}.cls-5,.cls-6{fill:#e8f4fa;}.cls-7{fill:#fff;}.cls-8{fill:#adc4d9;}.cls-9{stroke:#00aed9;}</style></defs><title>710-satellite-antenna</title><g id="_Group_" data-name="&lt;Group&gt;"><circle id="_Path_" data-name="&lt;Path&gt;" class="cls-1" cx="14.1" cy="37.51" r="5.42"/><path id="_Path_2" data-name="&lt;Path&gt;" class="cls-2" d="M14.1,35.45a5.43,5.43,0,0,1,5.16,3.74A5.43,5.43,0,1,0,9,39.19,5.42,5.42,0,0,1,14.1,35.45Z"/><circle id="_Path_3" data-name="&lt;Path&gt;" class="cls-3" cx="14.1" cy="37.51" r="5.42"/><ellipse id="_Ellipse_" data-name="&lt;Ellipse&gt;" class="cls-4" cx="19.26" cy="45.43" rx="13.06" ry="1.57"/><path id="_Path_4" data-name="&lt;Path&gt;" class="cls-1" d="M18.38,30.16c6.17,6.18,13.33,9,16,6.39s-.22-9.8-6.4-16-13.33-9-16-6.39S12.2,24,18.38,30.16Z"/><path id="_Path_5" data-name="&lt;Path&gt;" class="cls-2" d="M11.46,18.45c2.65-2.65,9.8.21,16,6.39,3.87,3.87,6.43,8.12,7.16,11.4,2.18-2.85-.68-9.71-6.64-15.66-6.17-6.18-13.33-9-16-6.39-1,1-1.21,2.6-.78,4.57A1.89,1.89,0,0,1,11.46,18.45Z"/><path id="_Path_6" data-name="&lt;Path&gt;" class="cls-3" d="M18.38,30.16c6.17,6.18,13.33,9,16,6.39s-.22-9.8-6.4-16-13.33-9-16-6.39S12.2,24,18.38,30.16Z"/><path id="_Path_7" data-name="&lt;Path&gt;" class="cls-5" d="M11.67,32.4,29,17.67a.85.85,0,0,1,1.2,1.2L15.5,36.24Z"/><circle id="_Path_8" data-name="&lt;Path&gt;" class="cls-6" cx="30.52" cy="17.38" r="2.26"/><path id="_Path_9" data-name="&lt;Path&gt;" class="cls-7" d="M28.92,17.48a2.27,2.27,0,0,1,3.2,0,2.29,2.29,0,0,1,.5.75,2.26,2.26,0,1,0-4.19,0A2.26,2.26,0,0,1,28.92,17.48Z"/><circle id="_Path_10" data-name="&lt;Path&gt;" class="cls-3" cx="30.52" cy="17.38" r="2.26"/><path id="_Path_11" data-name="&lt;Path&gt;" class="cls-6" d="M18.38,30.16c-6.18-6.17-9-13.33-6.39-16C8,18.21,7.3,28.67,13.58,35s16.73,5.64,20.78,1.59C31.71,39.2,24.55,36.34,18.38,30.16Z"/><g id="_Group_2" data-name="&lt;Group&gt;"><path id="_Path_12" data-name="&lt;Path&gt;" class="cls-7" d="M12.77,22.77c-2-3.69-2.39-7-.78-8.56-3.74,3.74-4.57,13,.37,19.36A16.9,16.9,0,0,1,12.77,22.77Z"/></g><path id="_Path_13" data-name="&lt;Path&gt;" class="cls-3" d="M18.38,30.16c-6.18-6.17-9-13.33-6.39-16C8,18.21,7.3,28.67,13.58,35s16.73,5.64,20.78,1.59C31.71,39.2,24.55,36.34,18.38,30.16Z"/><path class="cls-8" d="M20.46,43.68a1.91,1.91,0,0,0-1.77-1.2H9.52a1.91,1.91,0,0,0-1.77,1.2.77.77,0,0,0,.72,1.06H19.74A.78.78,0,0,0,20.46,43.68Z"/><path id="_Path_14" data-name="&lt;Path&gt;" class="cls-1" d="M9.52,43.61h9.17a1.88,1.88,0,0,1,1.59.91.78.78,0,0,0,.18-.84,1.91,1.91,0,0,0-1.77-1.2H9.52a1.91,1.91,0,0,0-1.77,1.2.78.78,0,0,0,.17.84A1.89,1.89,0,0,1,9.52,43.61Z"/><path class="cls-3" d="M20.46,43.68a1.91,1.91,0,0,0-1.77-1.2H9.52a1.91,1.91,0,0,0-1.77,1.2.77.77,0,0,0,.72,1.06H19.74A.78.78,0,0,0,20.46,43.68Z"/><path id="_Path_15" data-name="&lt;Path&gt;" class="cls-9" d="M32.32,10.87a4.82,4.82,0,0,1,4.81,4.81"/><path id="_Path_16" data-name="&lt;Path&gt;" class="cls-9" d="M32.32,7A8.73,8.73,0,0,1,41,15.68"/><path id="_Path_17" data-name="&lt;Path&gt;" class="cls-9" d="M32.32,2.5A13.18,13.18,0,0,1,45.5,15.68"/></g></svg>