<svg id="Icons" xmlns="http://www.w3.org/2000/svg" viewBox="0 0 48 48"><defs><style>.cls-1{fill:#656769;}.cls-2{fill:#87898c;}.cls-3{fill:none;stroke:#45413c;stroke-linecap:round;stroke-linejoin:round;}.cls-4{fill:#45413c;opacity:0.15;}.cls-5{fill:#fffacf;}.cls-6{fill:#ffe500;}</style></defs><title>711-flashlight</title><g id="_Group_" data-name="&lt;Group&gt;"><path id="_Path_" data-name="&lt;Path&gt;" class="cls-1" d="M25.59,32,44.52,11.26c.78-.78-.46-3.28-2.77-5.59S36.94,2.12,36.16,2.9L15.38,21.83Z"/><path id="_Path_2" data-name="&lt;Path&gt;" class="cls-2" d="M38.75,6c.72-.73,2.58-.08,4.5,1.44a16.46,16.46,0,0,0-1.5-1.72c-2.31-2.31-4.81-3.55-5.59-2.77L15.38,21.83l2.94,2.94Z"/><path id="_Path_3" data-name="&lt;Path&gt;" class="cls-3" d="M25.59,32,44.52,11.26c.78-.78-.46-3.28-2.77-5.59S36.94,2.12,36.16,2.9L15.38,21.83Z"/><path id="_Path_4" data-name="&lt;Path&gt;" class="cls-1" d="M23.54,37.41,25.59,32c.94-.95-.56-4-3.36-6.79s-5.84-4.3-6.79-3.36L9.89,23.76Z"/><path id="_Path_5" data-name="&lt;Path&gt;" class="cls-2" d="M17.88,24.46c.7-.7,2-.67,3.45-.05-2.53-2.25-5-3.36-5.89-2.52L9.89,23.76l3,3Z"/><path id="_Path_6" data-name="&lt;Path&gt;" class="cls-3" d="M23.54,37.41,25.59,32c.94-.95-.56-4-3.36-6.79s-5.84-4.3-6.79-3.36L9.89,23.76Z"/><ellipse id="_Ellipse_" data-name="&lt;Ellipse&gt;" class="cls-4" cx="27.28" cy="45.15" rx="17.25" ry="1.85"/><path id="_Path_7" data-name="&lt;Path&gt;" class="cls-1" d="M17,43.92l6.51-6.51c1.27-1.28-.75-5.37-4.52-9.14s-7.86-5.79-9.13-4.51l-6.51,6.5Z"/><path id="_Path_8" data-name="&lt;Path&gt;" class="cls-2" d="M12.5,26.55c1-1,3.1-.64,5.46.72C14.51,24.16,11,22.6,9.89,23.76l-6.51,6.5L6.08,33Z"/><path id="_Path_9" data-name="&lt;Path&gt;" class="cls-3" d="M17,43.92l6.51-6.51c1.27-1.28-.75-5.37-4.52-9.14s-7.86-5.79-9.13-4.51l-6.51,6.5Z"/><path id="_Path_10" data-name="&lt;Path&gt;" class="cls-5" d="M3.38,30.26C4.65,29,8.74,31,12.51,34.78s5.8,7.86,4.52,9.14-5.36-.75-9.13-4.52S2.11,31.54,3.38,30.26Z"/><path id="_Path_11" data-name="&lt;Path&gt;" class="cls-6" d="M17.33,42.12c-1.87-.39-4.68-2.18-7.33-4.83S5.57,31.84,5.18,30a2,2,0,0,0-1.8.3c-1.27,1.28.75,5.37,4.52,9.14s7.86,5.79,9.13,4.52A1.91,1.91,0,0,0,17.33,42.12Z"/><path id="_Path_12" data-name="&lt;Path&gt;" class="cls-3" d="M3.38,30.26C4.65,29,8.74,31,12.51,34.78s5.8,7.86,4.52,9.14-5.36-.75-9.13-4.52S2.11,31.54,3.38,30.26Z"/></g></svg>