<svg id="Icons" xmlns="http://www.w3.org/2000/svg" viewBox="0 0 48 48"><defs><style>.cls-1,.cls-7{fill:#656769;}.cls-1,.cls-5{stroke:#45413c;stroke-linecap:round;stroke-linejoin:round;}.cls-2{fill:#45413c;opacity:0.15;}.cls-3{fill:#ff6242;}.cls-4{fill:#ff866e;}.cls-5{fill:none;}.cls-6{fill:#87898c;}.cls-8{fill:#ffe500;}.cls-9{fill:#ffaa54;}</style></defs><title>712-red-paper-lantern</title><g id="_Group_" data-name="&lt;Group&gt;"><path id="_Path_" data-name="&lt;Path&gt;" class="cls-1" d="M24,34.49C20.66,34.49,18,35.61,18,37v2.49C18,40.86,20.66,42,24,42s6.05-1.11,6.05-2.49V37C30.05,35.61,27.34,34.49,24,34.49Z"/><ellipse id="_Ellipse_" data-name="&lt;Ellipse&gt;" class="cls-2" cx="24" cy="45.27" rx="13.26" ry="1.73"/><ellipse id="_Path_2" data-name="&lt;Path&gt;" class="cls-3" cx="24" cy="22.6" rx="13.45" ry="16.69"/><ellipse id="_Path_3" data-name="&lt;Path&gt;" class="cls-3" cx="24" cy="22.6" rx="13.45" ry="16.69"/><ellipse id="_Path_4" data-name="&lt;Path&gt;" class="cls-3" cx="24" cy="22.6" rx="13.45" ry="16.69"/><path id="_Path_5" data-name="&lt;Path&gt;" class="cls-4" d="M24,17.16c6.36,0,11.68.85,13.08,10.84a36,36,0,0,0,.37-5.4c0-15.53-6-16.68-13.45-16.68S10.55,7.07,10.55,22.6a36,36,0,0,0,.37,5.4C12.32,18,17.64,17.16,24,17.16Z"/><ellipse id="_Path_6" data-name="&lt;Path&gt;" class="cls-5" cx="24" cy="22.6" rx="13.45" ry="16.69"/><path id="_Path_7" data-name="&lt;Path&gt;" class="cls-6" d="M24,4C20.66,4,18,5.12,18,6.49V9c0,1.37,2.71,2.49,6.05,2.49S30.05,10.36,30.05,9V6.49C30.05,5.12,27.34,4,24,4Z"/><path id="_Path_8" data-name="&lt;Path&gt;" class="cls-7" d="M24,9.65C20.66,9.65,18,8.54,18,7.16V9c0,1.37,2.71,2.49,6.05,2.49S30.05,10.36,30.05,9V7.16C30.05,8.54,27.34,9.65,24,9.65Z"/><path id="_Path_9" data-name="&lt;Path&gt;" class="cls-5" d="M24,4C20.66,4,18,5.12,18,6.49V9c0,1.37,2.71,2.49,6.05,2.49S30.05,10.36,30.05,9V6.49C30.05,5.12,27.34,4,24,4Z"/><ellipse id="_Path_10" data-name="&lt;Path&gt;" class="cls-8" cx="24" cy="5.92" rx="4.94" ry="1.82"/><ellipse id="_Path_11" data-name="&lt;Path&gt;" class="cls-9" cx="24" cy="6.83" rx="4.25" ry="0.91"/><ellipse id="_Path_12" data-name="&lt;Path&gt;" class="cls-5" cx="24" cy="5.92" rx="4.94" ry="1.82"/><path id="_Path_13" data-name="&lt;Path&gt;" class="cls-5" d="M11.87,12.63S13.53,17.15,24,17.15s12.13-4.52,12.13-4.52"/><path id="_Path_14" data-name="&lt;Path&gt;" class="cls-5" d="M10.56,21.45c.17.37,2.34,4.49,13.44,4.49s13.27-4.13,13.44-4.49"/><path id="_Path_15" data-name="&lt;Path&gt;" class="cls-5" d="M11.29,30S13.05,34.49,24,34.49,36.71,30,36.71,30"/></g></svg>