<svg id="Icons" xmlns="http://www.w3.org/2000/svg" viewBox="0 0 48 48"><defs><style>.cls-1{fill:#45413c;opacity:0.15;}.cls-2{fill:#fff;}.cls-3{fill:#f0f0f0;}.cls-4{fill:none;stroke:#45413c;stroke-linecap:round;stroke-linejoin:round;}.cls-5{fill:#00b8f0;}.cls-6{fill:#4acfff;}</style></defs><title>723-e-mail-2</title><ellipse id="_Ellipse_" data-name="&lt;Ellipse&gt;" class="cls-1" cx="23.81" cy="38.19" rx="22.63" ry="1.66"/><rect id="_Rectangle_" data-name="&lt;Rectangle&gt;" class="cls-2" x="2.48" y="10.94" width="42.67" height="26.12" rx="1.1" ry="1.1"/><path id="_Path_" data-name="&lt;Path&gt;" class="cls-3" d="M44,34.37H3.58a1.1,1.1,0,0,1-1.1-1.1V36a1.1,1.1,0,0,0,1.1,1.1H44a1.1,1.1,0,0,0,1.1-1.1V33.27A1.1,1.1,0,0,1,44,34.37Z"/><rect id="_Rectangle_2" data-name="&lt;Rectangle&gt;" class="cls-4" x="2.48" y="10.94" width="42.67" height="26.12" rx="1.1" ry="1.1"/><polyline id="_Path_2" data-name="&lt;Path&gt;" class="cls-4" points="2.79 11.27 23.81 26.85 44.83 11.27"/><line id="_Path_3" data-name="&lt;Path&gt;" class="cls-4" x1="27.7" y1="23.97" x2="44.83" y2="36.67"/><line id="_Path_4" data-name="&lt;Path&gt;" class="cls-4" x1="2.79" y1="36.67" x2="19.92" y2="23.97"/><circle id="_Path_5" data-name="&lt;Path&gt;" class="cls-5" cx="24" cy="23.75" r="9.84"/><path id="_Path_6" data-name="&lt;Path&gt;" class="cls-6" d="M24,16.33A9.84,9.84,0,0,1,33.77,25a12.09,12.09,0,0,0,.07-1.21,9.84,9.84,0,0,0-19.68,0A12.09,12.09,0,0,0,14.23,25,9.84,9.84,0,0,1,24,16.33Z"/><circle id="_Path_7" data-name="&lt;Path&gt;" class="cls-4" cx="24" cy="23.75" r="9.84"/><g id="_Group_" data-name="&lt;Group&gt;"><path class="cls-2" d="M23.83,16.9a7.42,7.42,0,0,1,2.56.45,7.32,7.32,0,0,1,2.2,1.25,6.35,6.35,0,0,1,1.52,1.9,5,5,0,0,1,.58,2.38,4.06,4.06,0,0,1-.57,2.19,4.81,4.81,0,0,1-1.4,1.47,6.69,6.69,0,0,1-1.61.8,4.52,4.52,0,0,1-1.2.24c-.86,0-1.29-.3-1.29-.91h0a2.38,2.38,0,0,1-.86.66,2.45,2.45,0,0,1-1.09.25,2.29,2.29,0,0,1-1.09-.27,3,3,0,0,1-.88-.74,3.68,3.68,0,0,1-.58-1.05,3.46,3.46,0,0,1-.21-1.18,4.83,4.83,0,0,1,.26-1.54,4.27,4.27,0,0,1,.74-1.34A3.42,3.42,0,0,1,22,20.54a3.2,3.2,0,0,1,1.48-.35,2.43,2.43,0,0,1,2.18,1.12h0v-.23c0-.59.34-.89,1-.89a1.25,1.25,0,0,1,.61.14.42.42,0,0,1,.24.38,3.15,3.15,0,0,1-.07.6l-.74,3.38a2.64,2.64,0,0,0-.08.62c0,.26.15.39.43.39a1.37,1.37,0,0,0,.76-.31,2.56,2.56,0,0,0,.78-1A3.39,3.39,0,0,0,29,22.87a3.79,3.79,0,0,0-.41-1.78,4.07,4.07,0,0,0-1.15-1.37,5.57,5.57,0,0,0-1.66-.86,6.54,6.54,0,0,0-2-.29,5.05,5.05,0,0,0-2,.4,5.12,5.12,0,0,0-1.66,1.1,5.49,5.49,0,0,0-1.11,1.66,5.14,5.14,0,0,0-.41,2,5.25,5.25,0,0,0,.4,2,5.25,5.25,0,0,0,2.78,2.78,5.2,5.2,0,0,0,2,.4,8.14,8.14,0,0,0,3.88-.88,6,6,0,0,0,.56-.43,1.38,1.38,0,0,1,.68-.37.61.61,0,0,1,.69.69,1,1,0,0,1-.12.46,3.46,3.46,0,0,1-.38.55,5.66,5.66,0,0,1-2.35,1.29,11.22,11.22,0,0,1-3,.36,6.7,6.7,0,0,1-3.43-.92,6.86,6.86,0,0,1-2.49-2.5,6.85,6.85,0,0,1,2.49-9.36A6.61,6.61,0,0,1,23.83,16.9Zm-.76,8.78A1.68,1.68,0,0,0,24,25.4a1.91,1.91,0,0,0,.67-.74,2.07,2.07,0,0,0,.24-1,1.72,1.72,0,0,0-.37-1.12,1.29,1.29,0,0,0-1-.46,1.44,1.44,0,0,0-.88.3,2.15,2.15,0,0,0-.64.76,2.06,2.06,0,0,0-.23.93,1.87,1.87,0,0,0,.35,1.12A1.11,1.11,0,0,0,23.07,25.68Z"/></g></svg>