<svg id="Icons" xmlns="http://www.w3.org/2000/svg" viewBox="0 0 48 48"><defs><style>.cls-1{fill:#00b8f0;}.cls-2{fill:#4acfff;}.cls-3{fill:none;}.cls-3,.cls-7{stroke:#45413c;stroke-linecap:round;stroke-linejoin:round;}.cls-4{fill:#45413c;opacity:0.15;}.cls-5{fill:#c0dceb;}.cls-6{fill:#8ca4b8;}.cls-7{fill:#ff6242;}.cls-8{fill:#debb7e;}.cls-9{fill:#b89558;}.cls-10{fill:#fff;}.cls-11{fill:#f0f0f0;}</style></defs><title>725-open-mailbox-with-raised-flag</title><g id="_Group_" data-name="&lt;Group&gt;"><path id="_Rectangle_" data-name="&lt;Rectangle&gt;" class="cls-1" d="M14.53,5.24H32.86a8.53,8.53,0,0,1,8.53,8.53v15.1a1.25,1.25,0,0,1-1.25,1.25H7.25A1.25,1.25,0,0,1,6,28.87V13.77a8.53,8.53,0,0,1,8.53-8.53Z"/><path id="_Path_" data-name="&lt;Path&gt;" class="cls-2" d="M32.86,5.24H14.53A8.53,8.53,0,0,0,6,13.77v3.75A8.53,8.53,0,0,1,14.53,9H32.86a8.53,8.53,0,0,1,8.53,8.53V13.77A8.53,8.53,0,0,0,32.86,5.24Z"/><path id="_Rectangle_2" data-name="&lt;Rectangle&gt;" class="cls-3" d="M14.53,5.24H32.86a8.53,8.53,0,0,1,8.53,8.53v15.1a1.25,1.25,0,0,1-1.25,1.25H7.25A1.25,1.25,0,0,1,6,28.87V13.77a8.53,8.53,0,0,1,8.53-8.53Z"/><ellipse id="_Ellipse_" data-name="&lt;Ellipse&gt;" class="cls-4" cx="25.45" cy="44.13" rx="14.37" ry="1.87"/><path class="cls-5" d="M14.54,5.24A8.54,8.54,0,0,0,6,13.78V28.87a1.25,1.25,0,0,0,1.25,1.25H21.82a1.25,1.25,0,0,0,1.25-1.25V13.78A8.53,8.53,0,0,0,14.54,5.24Z"/><path id="_Path_2" data-name="&lt;Path&gt;" class="cls-6" d="M14.54,5.24A8.49,8.49,0,0,0,8.89,7.38a8.52,8.52,0,0,1,9.88,8.43V30.12h3.05a1.25,1.25,0,0,0,1.25-1.25V13.78A8.53,8.53,0,0,0,14.54,5.24Z"/><path class="cls-3" d="M14.54,5.24A8.54,8.54,0,0,0,6,13.78V28.87a1.25,1.25,0,0,0,1.25,1.25H21.82a1.25,1.25,0,0,0,1.25-1.25V13.78A8.53,8.53,0,0,0,14.54,5.24Z"/><path class="cls-7" d="M31,1.37H27.75A1.24,1.24,0,0,0,26.5,2.61V18.3a1.88,1.88,0,1,0,3.75,0V8.64H31A1.24,1.24,0,0,0,32.28,7.4V2.61A1.24,1.24,0,0,0,31,1.37Z"/><path id="_Rectangle_3" data-name="&lt;Rectangle&gt;" class="cls-8" d="M22.16,30.12H28.1a0,0,0,0,1,0,0V42.75A1.25,1.25,0,0,1,26.85,44H23.41a1.25,1.25,0,0,1-1.25-1.25V30.12A0,0,0,0,1,22.16,30.12Z"/><rect id="_Rectangle_4" data-name="&lt;Rectangle&gt;" class="cls-9" x="22.16" y="30.12" width="5.93" height="3.12"/><path id="_Rectangle_5" data-name="&lt;Rectangle&gt;" class="cls-3" d="M22.16,30.12H28.1a0,0,0,0,1,0,0V42.75A1.25,1.25,0,0,1,26.85,44H23.41a1.25,1.25,0,0,1-1.25-1.25V30.12A0,0,0,0,1,22.16,30.12Z"/><path id="_Path_3" data-name="&lt;Path&gt;" class="cls-10" d="M11.17,13.35A1.24,1.24,0,0,0,9.93,14.6V28.87a1.24,1.24,0,0,0,1.24,1.25H21.82a1.25,1.25,0,0,0,1.25-1.25V13.78c0-.15,0-.29,0-.43Z"/><path id="_Path_4" data-name="&lt;Path&gt;" class="cls-11" d="M23.06,13.35H19.68c0,.14,0,.28,0,.43V28.87a1.25,1.25,0,0,1-1.25,1.25h3.38a1.25,1.25,0,0,0,1.25-1.25V13.78C23.07,13.63,23.07,13.49,23.06,13.35Z"/><path id="_Path_5" data-name="&lt;Path&gt;" class="cls-3" d="M11.17,13.35A1.24,1.24,0,0,0,9.93,14.6V28.87a1.24,1.24,0,0,0,1.24,1.25H21.82a1.25,1.25,0,0,0,1.25-1.25V13.78c0-.15,0-.29,0-.43Z"/><line id="_Path_6" data-name="&lt;Path&gt;" class="cls-3" x1="10.24" y1="13.78" x2="23.07" y2="23.3"/><line id="_Path_7" data-name="&lt;Path&gt;" class="cls-3" x1="10.24" y1="29.69" x2="20.25" y2="21.21"/></g></svg>