<svg id="Icons" xmlns="http://www.w3.org/2000/svg" viewBox="0 0 48 48"><defs><style>.cls-1,.cls-6{fill:#45413c;}.cls-1{opacity:0.15;}.cls-2{fill:#c0dceb;}.cls-3{fill:#e8f4fa;}.cls-4{fill:none;}.cls-4,.cls-9{stroke:#45413c;stroke-linecap:round;stroke-linejoin:round;}.cls-5{fill:#fff;}.cls-7{fill:#87898c;}.cls-8{fill:#bdbec0;}.cls-9{fill:#daedf7;}</style></defs><title>727-fountain-pen</title><g id="_Group_" data-name="&lt;Group&gt;"><ellipse id="_Ellipse_" data-name="&lt;Ellipse&gt;" class="cls-1" cx="24" cy="45.27" rx="9.78" ry="1.73"/><path id="_Rectangle_" data-name="&lt;Rectangle&gt;" class="cls-2" d="M23.51,27.44h5.75a.58.58,0,0,1,.58.58v6.9a0,0,0,0,1,0,0h-6.9a0,0,0,0,1,0,0V28A.58.58,0,0,1,23.51,27.44Z" transform="translate(62.79 49.7) rotate(157.22)"/><g id="_Group_2" data-name="&lt;Group&gt;"><polygon id="_Path_" data-name="&lt;Path&gt;" class="cls-3" points="21.76 29.06 24.43 35.43 24.43 35.43 21.76 29.06"/><path id="_Path_2" data-name="&lt;Path&gt;" class="cls-3" d="M30.8,32.76l-2.68-6.37-2,.83,2.71,6.44a.5.5,0,0,1-.26.64l1.88-.79A.58.58,0,0,0,30.8,32.76Z"/></g><path id="_Rectangle_2" data-name="&lt;Rectangle&gt;" class="cls-4" d="M23.51,27.44h5.75a.58.58,0,0,1,.58.58v6.9a0,0,0,0,1,0,0h-6.9a0,0,0,0,1,0,0V28A.58.58,0,0,1,23.51,27.44Z" transform="translate(62.79 49.7) rotate(157.22)"/><path id="_Path_3" data-name="&lt;Path&gt;" class="cls-3" d="M33.22,40.29a6.85,6.85,0,0,0-.7,4.22l-.91.38a6.78,6.78,0,0,0-3.25-2.35A2,2,0,0,1,27,41.43a9.46,9.46,0,0,1-.52-1.66l-.87-4.19,4.55-1.91,2.39,3.55a9.82,9.82,0,0,1,.8,1.5A1.85,1.85,0,0,1,33.22,40.29Z"/><path class="cls-5" d="M33.3,38.72a9.82,9.82,0,0,0-.8-1.5l-2.39-3.55-1.83.77,2.34,3.49a8.34,8.34,0,0,1,.81,1.5A1.89,1.89,0,0,1,31.34,41a7.29,7.29,0,0,0-.77,2.79,6.41,6.41,0,0,1,1,1.1l.91-.38a6.85,6.85,0,0,1,.7-4.22A1.85,1.85,0,0,0,33.3,38.72Z"/><path id="_Path_4" data-name="&lt;Path&gt;" class="cls-4" d="M33.22,40.29a6.85,6.85,0,0,0-.7,4.22l-.91.38a6.78,6.78,0,0,0-3.25-2.35A2,2,0,0,1,27,41.43a9.46,9.46,0,0,1-.52-1.66l-.87-4.19,4.55-1.91,2.39,3.55a9.82,9.82,0,0,1,.8,1.5A1.85,1.85,0,0,1,33.22,40.29Z"/><line id="_Path_5" data-name="&lt;Path&gt;" class="cls-4" x1="32.07" y1="44.7" x2="29.84" y2="39.4"/><path id="_Path_6" data-name="&lt;Path&gt;" class="cls-6" d="M28.78,39.84a1.15,1.15,0,1,1,1.51.62A1.15,1.15,0,0,1,28.78,39.84Z"/><path class="cls-7" d="M28.74,24.88,20.94,6.32a4.6,4.6,0,1,0-8.48,3.57l7.79,18.56a1.15,1.15,0,0,0,1.51.61l6.36-2.67A1.16,1.16,0,0,0,28.74,24.88Z"/><g id="_Group_3" data-name="&lt;Group&gt;"><polygon id="_Path_7" data-name="&lt;Path&gt;" class="cls-8" points="12.46 9.88 12.46 9.88 20.25 28.45 20.25 28.45 12.46 9.88"/><path id="_Path_8" data-name="&lt;Path&gt;" class="cls-8" d="M28.74,24.88,20.94,6.32a4.6,4.6,0,0,0-6-2.46,4.49,4.49,0,0,0-.53.29,3.4,3.4,0,0,1,3.87,2l8.38,20a.85.85,0,0,1-.46,1.11l-3.07,1.3,5-2.11A1.16,1.16,0,0,0,28.74,24.88Z"/></g><path class="cls-4" d="M28.74,24.88,20.94,6.32a4.6,4.6,0,1,0-8.48,3.57l7.79,18.56a1.15,1.15,0,0,0,1.51.61l6.36-2.67A1.16,1.16,0,0,0,28.74,24.88Z"/><line id="_Path_9" data-name="&lt;Path&gt;" class="cls-4" x1="30.66" y1="30.94" x2="23.23" y2="34.06"/><path id="_Path_10" data-name="&lt;Path&gt;" class="cls-9" d="M16.53,10.67a1.15,1.15,0,1,1,2.12-.89l4,9.55a1.15,1.15,0,0,1-2.12.89Z"/></g></svg>