<svg id="Icons" xmlns="http://www.w3.org/2000/svg" viewBox="0 0 48 48"><defs><style>.cls-1{fill:#fff;}.cls-2{fill:#f0f0f0;}.cls-3{fill:#45413c;opacity:0.15;}.cls-4,.cls-7{fill:none;stroke-linecap:round;stroke-linejoin:round;}.cls-4{stroke:#e0e0e0;}.cls-5{fill:#ff6242;}.cls-6{fill:#ff866e;}.cls-7{stroke:#45413c;}.cls-8{fill:#6dd627;}.cls-9{fill:#9ceb60;}.cls-10{fill:#00b8f0;}.cls-11{fill:#4acfff;}</style></defs><title>732-bar-chart</title><rect id="_Rectangle_" data-name="&lt;Rectangle&gt;" class="cls-1" x="5.94" y="5.93" width="36.12" height="36.13" rx="1.28" ry="1.28"/><path id="_Path_" data-name="&lt;Path&gt;" class="cls-2" d="M40.78,5.93H7.22A1.28,1.28,0,0,0,5.94,7.21v3.21A1.28,1.28,0,0,1,7.22,9.14H40.78a1.28,1.28,0,0,1,1.28,1.28V7.21A1.28,1.28,0,0,0,40.78,5.93Z"/><ellipse id="_Ellipse_" data-name="&lt;Ellipse&gt;" class="cls-3" cx="24.01" cy="45.25" rx="13.4" ry="1.75"/><rect id="_Rectangle_2" data-name="&lt;Rectangle&gt;" class="cls-4" x="5.94" y="13.2" width="36.12" height="21.61"/><rect id="_Rectangle_3" data-name="&lt;Rectangle&gt;" class="cls-4" x="5.94" y="20.09" width="36.12" height="7.83"/><rect id="_Rectangle_4" data-name="&lt;Rectangle&gt;" class="cls-4" x="5.93" y="20.27" width="36.13" height="7.46" transform="translate(48 0) rotate(90)"/><rect id="_Rectangle_5" data-name="&lt;Rectangle&gt;" class="cls-4" x="5.93" y="13.18" width="36.13" height="21.65" transform="translate(48 0) rotate(90)"/><path id="_Rectangle_6" data-name="&lt;Rectangle&gt;" class="cls-5" d="M21.88,26.62h4.24A1.28,1.28,0,0,1,27.4,27.9V42.07a0,0,0,0,1,0,0H20.6a0,0,0,0,1,0,0V27.9A1.28,1.28,0,0,1,21.88,26.62Z"/><path class="cls-6" d="M26.12,26.62H21.88A1.28,1.28,0,0,0,20.6,27.9v2.38A1.28,1.28,0,0,1,21.88,29h4.24a1.28,1.28,0,0,1,1.28,1.28V27.9A1.28,1.28,0,0,0,26.12,26.62Z"/><path id="_Rectangle_7" data-name="&lt;Rectangle&gt;" class="cls-7" d="M21.88,26.62h4.24A1.28,1.28,0,0,1,27.4,27.9V42.07a0,0,0,0,1,0,0H20.6a0,0,0,0,1,0,0V27.9A1.28,1.28,0,0,1,21.88,26.62Z"/><path id="_Rectangle_8" data-name="&lt;Rectangle&gt;" class="cls-8" d="M11.08,22h4.24a1.28,1.28,0,0,1,1.28,1.28V42.07a0,0,0,0,1,0,0H9.8a0,0,0,0,1,0,0V23.24A1.28,1.28,0,0,1,11.08,22Z"/><path class="cls-9" d="M15.32,22H11.08A1.28,1.28,0,0,0,9.8,23.24v2.38a1.28,1.28,0,0,1,1.28-1.28h4.24a1.28,1.28,0,0,1,1.28,1.28V23.24A1.28,1.28,0,0,0,15.32,22Z"/><path id="_Rectangle_9" data-name="&lt;Rectangle&gt;" class="cls-7" d="M11.08,22h4.24a1.28,1.28,0,0,1,1.28,1.28V42.07a0,0,0,0,1,0,0H9.8a0,0,0,0,1,0,0V23.24A1.28,1.28,0,0,1,11.08,22Z"/><path id="_Rectangle_10" data-name="&lt;Rectangle&gt;" class="cls-10" d="M32.71,13.95h4.24a1.28,1.28,0,0,1,1.28,1.28V42.07a0,0,0,0,1,0,0h-6.8a0,0,0,0,1,0,0V15.23A1.28,1.28,0,0,1,32.71,13.95Z"/><path class="cls-11" d="M36.94,14H32.71a1.28,1.28,0,0,0-1.28,1.28V17.6a1.28,1.28,0,0,1,1.28-1.28h4.23a1.28,1.28,0,0,1,1.28,1.28V15.23A1.28,1.28,0,0,0,36.94,14Z"/><path id="_Rectangle_11" data-name="&lt;Rectangle&gt;" class="cls-7" d="M32.71,13.95h4.24a1.28,1.28,0,0,1,1.28,1.28V42.07a0,0,0,0,1,0,0h-6.8a0,0,0,0,1,0,0V15.23A1.28,1.28,0,0,1,32.71,13.95Z"/><rect id="_Rectangle_12" data-name="&lt;Rectangle&gt;" class="cls-7" x="5.94" y="5.93" width="36.12" height="36.13" rx="1.28" ry="1.28"/></svg>