<svg id="Icons" xmlns="http://www.w3.org/2000/svg" viewBox="0 0 48 48"><defs><style>.cls-1{fill:#45413c;opacity:0.15;}.cls-2{fill:#debb7e;}.cls-3{fill:#f0d5a8;}.cls-4{fill:none;stroke:#45413c;stroke-linecap:round;stroke-linejoin:round;}.cls-5{fill:#fffef2;}.cls-6{fill:#fff;}.cls-7{fill:#daedf7;}.cls-8{fill:#e8f4fa;}</style></defs><title>733-clipboard</title><g id="_Group_" data-name="&lt;Group&gt;"><ellipse id="_Ellipse_" data-name="&lt;Ellipse&gt;" class="cls-1" cx="24" cy="45.15" rx="14.2" ry="1.85"/><g id="_Group_2" data-name="&lt;Group&gt;"><rect id="_Rectangle_" data-name="&lt;Rectangle&gt;" class="cls-2" x="7.49" y="4.35" width="33.03" height="40.15" rx="3.49" ry="3.49"/><path id="_Path_" data-name="&lt;Path&gt;" class="cls-3" d="M37,4.35H11A3.48,3.48,0,0,0,7.49,7.84v4A3.48,3.48,0,0,1,11,8.37H37a3.48,3.48,0,0,1,3.48,3.48v-4A3.48,3.48,0,0,0,37,4.35Z"/><rect id="_Rectangle_2" data-name="&lt;Rectangle&gt;" class="cls-4" x="7.49" y="4.35" width="33.03" height="40.15" rx="3.49" ry="3.49"/><rect id="_Rectangle_3" data-name="&lt;Rectangle&gt;" class="cls-5" x="11.64" y="10.38" width="24.72" height="30.04" rx="1.24" ry="1.24"/><path id="_Path_2" data-name="&lt;Path&gt;" class="cls-6" d="M35.13,10.38H12.87a1.23,1.23,0,0,0-1.23,1.24v3.93a1.23,1.23,0,0,1,1.23-1.23H35.13a1.23,1.23,0,0,1,1.23,1.23V11.62A1.23,1.23,0,0,0,35.13,10.38Z"/><rect id="_Rectangle_4" data-name="&lt;Rectangle&gt;" class="cls-4" x="11.64" y="10.38" width="24.72" height="30.04" rx="1.24" ry="1.24"/><path id="_Path_3" data-name="&lt;Path&gt;" class="cls-7" d="M26,8.1A2,2,0,1,0,22,8.1H18.48a1.23,1.23,0,0,0-1.23,1.23v1.94a1.23,1.23,0,0,0,1.23,1.24h11a1.23,1.23,0,0,0,1.23-1.24V9.33A1.23,1.23,0,0,0,29.52,8.1Z"/><path id="_Path_4" data-name="&lt;Path&gt;" class="cls-8" d="M29.52,8.1H26A2,2,0,1,0,22,8.1H18.48a1.23,1.23,0,0,0-1.23,1.23v2a1.23,1.23,0,0,1,1.23-1.18H22a2,2,0,1,1,4.08,0h3.48a1.23,1.23,0,0,1,1.23,1.18v-2A1.23,1.23,0,0,0,29.52,8.1Z"/><path id="_Path_5" data-name="&lt;Path&gt;" class="cls-4" d="M26,8.1A2,2,0,1,0,22,8.1H18.48a1.23,1.23,0,0,0-1.23,1.23v1.94a1.23,1.23,0,0,0,1.23,1.24h11a1.23,1.23,0,0,0,1.23-1.24V9.33A1.23,1.23,0,0,0,29.52,8.1Z"/><line id="_Path_6" data-name="&lt;Path&gt;" class="cls-4" x1="15.39" y1="16.29" x2="21.64" y2="16.29"/><line id="_Path_7" data-name="&lt;Path&gt;" class="cls-4" x1="15.39" y1="34.35" x2="21.64" y2="34.35"/><line id="_Path_8" data-name="&lt;Path&gt;" class="cls-4" x1="15.39" y1="20" x2="29.9" y2="20"/><line id="_Path_9" data-name="&lt;Path&gt;" class="cls-4" x1="15.39" y1="23.32" x2="29.9" y2="23.32"/><line id="_Path_10" data-name="&lt;Path&gt;" class="cls-4" x1="15.39" y1="26.94" x2="29.9" y2="26.94"/></g></g></svg>