<svg id="Icons" xmlns="http://www.w3.org/2000/svg" viewBox="0 0 48 48"><defs><style>.cls-1{fill:#45413c;opacity:0.15;}.cls-2,.cls-7{fill:#e8f4fa;}.cls-12,.cls-2,.cls-3,.cls-6{stroke:#45413c;stroke-linecap:round;stroke-linejoin:round;}.cls-13,.cls-3{fill:#c0dceb;}.cls-4{fill:#87898c;}.cls-5{fill:#656769;}.cls-6{fill:none;}.cls-12,.cls-8{fill:#fff;}.cls-9{fill:#bdbec0;}.cls-10{fill:#e0e0e0;}.cls-11{fill:#daedf7;}.cls-14{fill:#adc4d9;}</style></defs><title>736-pistol</title><ellipse id="_Ellipse_" data-name="&lt;Ellipse&gt;" class="cls-1" cx="28.23" cy="45.47" rx="15.55" ry="1.5"/><path id="_Path_" data-name="&lt;Path&gt;" class="cls-2" d="M33.35,10.74,32.6,7.85A.92.92,0,0,0,32,7.19l-3.1-.92a.94.94,0,0,0-1.17.63l-.6,2Z"/><polygon id="_Path_2" data-name="&lt;Path&gt;" class="cls-3" points="26.65 20.36 25.04 25.78 25.95 26.05 29.54 22.2 26.65 20.36"/><path id="_Compound_Path_" data-name="&lt;Compound Path&gt;" class="cls-4" d="M22.53,17.66l-.91,3.07a5.31,5.31,0,0,0,1.11,5,5.4,5.4,0,0,0,2.46,1.57l2.73.8a2.74,2.74,0,0,0,2.85-.83l4.29-4.91Zm7.09,7.86a1.86,1.86,0,0,1-1.91.56l-1.81-.54a3.45,3.45,0,0,1-1.64-1.05,3.49,3.49,0,0,1-.74-3.33l.6-2,8.36,3.12Z"/><path id="_Path_3" data-name="&lt;Path&gt;" class="cls-5" d="M23.38,22.23a3.25,3.25,0,0,1,.14-1.07l.6-2,8.36,3.12-2.86,3.28a2.18,2.18,0,0,1-.4.35L31,27l4-4.63-12.53-4.7-.91,3.07c0,.12-.05.24-.08.36Z"/><path id="_Compound_Path_2" data-name="&lt;Compound Path&gt;" class="cls-6" d="M22.53,17.66l-.91,3.07a5.31,5.31,0,0,0,1.11,5,5.4,5.4,0,0,0,2.46,1.57l2.73.8a2.74,2.74,0,0,0,2.85-.83l4.29-4.91Zm7.09,7.86a1.86,1.86,0,0,1-1.91.56l-1.81-.54a3.45,3.45,0,0,1-1.64-1.05,3.49,3.49,0,0,1-.74-3.33l.6-2,8.36,3.12Z"/><path id="_Rectangle_" data-name="&lt;Rectangle&gt;" class="cls-7" d="M3.18,6.8H31.51a0,0,0,0,1,0,0v6.6a0,0,0,0,1,0,0H3.18a.88.88,0,0,1-.88-.88V7.69a.88.88,0,0,1,.88-.88Z" transform="translate(3.56 -4.38) rotate(16.49)"/><path id="_Path_4" data-name="&lt;Path&gt;" class="cls-8" d="M4.68,3a.88.88,0,0,0-1.09.6L2.92,5.9A.89.89,0,0,1,4,5.3l27.17,8,.67-2.25Z"/><path id="_Rectangle_2" data-name="&lt;Rectangle&gt;" class="cls-6" d="M3.18,6.8H31.51a0,0,0,0,1,0,0v6.6a0,0,0,0,1,0,0H3.18a.88.88,0,0,1-.88-.88V7.69a.88.88,0,0,1,.88-.88Z" transform="translate(3.56 -4.38) rotate(16.49)"/><path id="_Path_5" data-name="&lt;Path&gt;" class="cls-9" d="M45.5,14.05a11.86,11.86,0,0,0-6.28,5l-.58.95-2.55-4.68L38,14.15a9.32,9.32,0,0,1,7.53-1A.46.46,0,0,1,45.5,14.05Z"/><path class="cls-10" d="M45.48,13.16a9.32,9.32,0,0,0-7.53,1l-1.86,1.14.57,1,.63-.39a9.36,9.36,0,0,1,6.61-1.21,11.3,11.3,0,0,1,1.6-.68A.46.46,0,0,0,45.48,13.16Z"/><path id="_Path_6" data-name="&lt;Path&gt;" class="cls-6" d="M45.5,14.05a11.86,11.86,0,0,0-6.28,5l-.58.95-2.55-4.68L38,14.15a9.32,9.32,0,0,1,7.53-1A.46.46,0,0,1,45.5,14.05Z"/><path id="_Path_7" data-name="&lt;Path&gt;" class="cls-11" d="M44,42.67l.54-7a14.38,14.38,0,0,0-3.71-11.16h0a3.21,3.21,0,0,1-.71-3.05l.55-1.84a1.85,1.85,0,0,0-.35-1.72l-4.69-5.77a7.82,7.82,0,0,0-3.84-2.56L26.38,8a1,1,0,0,0-1.18.64L22.13,19l11.46,6.65a3,3,0,0,1,1.23,3.87L30.8,39a2.82,2.82,0,0,0,1.81,3.79l7.72,2.29A2.83,2.83,0,0,0,44,42.67Z"/><path id="_Path_8" data-name="&lt;Path&gt;" class="cls-7" d="M40.07,21.47l.55-1.84a1.85,1.85,0,0,0-.35-1.72l-4.69-5.77a7.82,7.82,0,0,0-3.84-2.56L26.38,8a1,1,0,0,0-1.18.64l-.65,2.2a.94.94,0,0,1,1.17-.63l5.36,1.59a7.78,7.78,0,0,1,3.85,2.56l4.69,5.76A1.93,1.93,0,0,1,40,21.84Z"/><path id="_Path_9" data-name="&lt;Path&gt;" class="cls-6" d="M44,42.67l.54-7a14.38,14.38,0,0,0-3.71-11.16h0a3.21,3.21,0,0,1-.71-3.05l.55-1.84a1.85,1.85,0,0,0-.35-1.72l-4.69-5.77a7.82,7.82,0,0,0-3.84-2.56L26.38,8a1,1,0,0,0-1.18.64L22.13,19l11.46,6.65a3,3,0,0,1,1.23,3.87L30.8,39a2.82,2.82,0,0,0,1.81,3.79l7.72,2.29A2.83,2.83,0,0,0,44,42.67Z"/><path id="_Path_10" data-name="&lt;Path&gt;" class="cls-12" d="M7.61,1.45l-1.3-.38a.94.94,0,0,0-1.17.64l-.4,1.35L8.81,4.27,8.25,2.12A.94.94,0,0,0,7.61,1.45Z"/><path id="_Rectangle_3" data-name="&lt;Rectangle&gt;" class="cls-13" d="M2.43,12.39H23.16a0,0,0,0,1,0,0v3.3a0,0,0,0,1,0,0H3.37a.94.94,0,0,1-.94-.94V12.39a0,0,0,0,1,0,0Z" transform="translate(4.51 -3.05) rotate(16.49)"/><rect id="_Path_11" data-name="&lt;Path&gt;" class="cls-14" x="12.35" y="2.77" width="1.41" height="20.73" transform="translate(-3.25 21.93) rotate(-73.51)"/><path id="_Rectangle_4" data-name="&lt;Rectangle&gt;" class="cls-6" d="M2.43,12.39H23.16a0,0,0,0,1,0,0v3.3a0,0,0,0,1,0,0H3.37a.94.94,0,0,1-.94-.94V12.39a0,0,0,0,1,0,0Z" transform="translate(4.51 -3.05) rotate(16.49)"/><path id="_Path_12" data-name="&lt;Path&gt;" class="cls-5" d="M44.49,35.68A14.37,14.37,0,0,0,40.8,24.54a3.12,3.12,0,0,1-.74-3l.31-1-2-.61a1,1,0,0,0-1.09.38l-.77,1.1A1.47,1.47,0,0,1,35,22l-.88-.15a2.84,2.84,0,0,0-2.92,1.4l-.45.81,2.81,1.63a3,3,0,0,1,1.23,3.87L30.8,39a2.82,2.82,0,0,0,1.81,3.79l7.72,2.29A2.83,2.83,0,0,0,44,42.67Z"/><path id="_Path_13" data-name="&lt;Path&gt;" class="cls-4" d="M44,42.67l.54-7A14.37,14.37,0,0,0,40.8,24.54a3.12,3.12,0,0,1-.74-3l.31-1-2-.61a1,1,0,0,0-1.09.38l-.16.24.46.14a.94.94,0,0,1,.64,1.17l0,.14a3.13,3.13,0,0,0,.74,3A14.37,14.37,0,0,1,42.58,36.1l-.54,7a2.82,2.82,0,0,1-1.28,2.09A2.82,2.82,0,0,0,44,42.67Z"/><path id="_Path_14" data-name="&lt;Path&gt;" class="cls-6" d="M44.49,35.68A14.37,14.37,0,0,0,40.8,24.54a3.12,3.12,0,0,1-.74-3l.31-1-2-.61a1,1,0,0,0-1.09.38l-.77,1.1A1.47,1.47,0,0,1,35,22l-.88-.15a2.84,2.84,0,0,0-2.92,1.4l-.45.81,2.81,1.63a3,3,0,0,1,1.23,3.87L30.8,39a2.82,2.82,0,0,0,1.81,3.79l7.72,2.29A2.83,2.83,0,0,0,44,42.67Z"/><line id="_Path_15" data-name="&lt;Path&gt;" class="cls-6" x1="38.34" y1="19.88" x2="32.53" y2="18.17"/><path id="_Rectangle_5" data-name="&lt;Rectangle&gt;" class="cls-9" d="M24.27,12.62H30.4a2.83,2.83,0,0,1,2.83,2.83v.47a2.83,2.83,0,0,1-2.83,2.83H24.27a.94.94,0,0,1-.94-.94V13.56a.94.94,0,0,1,.94-.94Z" transform="translate(5.61 -7.38) rotate(16.49)"/><path id="_Path_16" data-name="&lt;Path&gt;" class="cls-10" d="M31.18,13.34l-5.87-1.73a.93.93,0,0,0-1.17.63l-.54,1.81a1,1,0,0,1,1.17-.64l5.87,1.74a2.82,2.82,0,0,1,2,2.81,2.93,2.93,0,0,0,.29-.65l.14-.45A2.84,2.84,0,0,0,31.18,13.34Z"/><path id="_Rectangle_6" data-name="&lt;Rectangle&gt;" class="cls-6" d="M24.27,12.62H30.4a2.83,2.83,0,0,1,2.83,2.83v.47a2.83,2.83,0,0,1-2.83,2.83H24.27a.94.94,0,0,1-.94-.94V13.56a.94.94,0,0,1,.94-.94Z" transform="translate(5.61 -7.38) rotate(16.49)"/><line id="_Path_17" data-name="&lt;Path&gt;" class="cls-6" x1="23.87" y1="13.15" x2="29.74" y2="14.88"/><line id="_Path_18" data-name="&lt;Path&gt;" class="cls-6" x1="23.2" y1="15.4" x2="29.07" y2="17.14"/></svg>