<svg id="Icons" xmlns="http://www.w3.org/2000/svg" viewBox="0 0 48 48"><defs><style>.cls-1{fill:#45413c;opacity:0.15;}.cls-2{fill:#ff6242;}.cls-3{fill:#ff866e;}.cls-4{fill:#00b8f0;}.cls-5{fill:#4acfff;}.cls-6{fill:none;stroke:#45413c;stroke-linecap:round;stroke-linejoin:round;}</style></defs><title>740-pill</title><g id="_Group_" data-name="&lt;Group&gt;"><ellipse id="_Ellipse_" data-name="&lt;Ellipse&gt;" class="cls-1" cx="24" cy="41.77" rx="15.5" ry="2.02"/><path id="_Path_" data-name="&lt;Path&gt;" class="cls-2" d="M8.09,38.88a9.75,9.75,0,0,1,0-13.79l18-18A9.75,9.75,0,0,1,39.91,20.85l-18,18A9.75,9.75,0,0,1,8.09,38.88Z"/><path id="_Path_2" data-name="&lt;Path&gt;" class="cls-3" d="M12.33,29.34l18-18A9.78,9.78,0,0,1,41.7,9.52a9.86,9.86,0,0,0-1.79-2.46,9.75,9.75,0,0,0-13.79,0l-18,18a9.75,9.75,0,0,0,0,13.79,9.86,9.86,0,0,0,2.46,1.79A9.75,9.75,0,0,1,12.33,29.34Z"/><path id="_Path_3" data-name="&lt;Path&gt;" class="cls-4" d="M26.12,7.06l-9,9L30.89,29.87l9-9A9.75,9.75,0,1,0,26.12,7.06Z"/><path id="_Path_4" data-name="&lt;Path&gt;" class="cls-5" d="M41.7,9.52a9.86,9.86,0,0,0-1.79-2.46,9.75,9.75,0,0,0-13.79,0l-9,9,4.24,4.24,9-9A9.78,9.78,0,0,1,41.7,9.52Z"/><path id="_Path_5" data-name="&lt;Path&gt;" class="cls-6" d="M39.91,7.06a9.75,9.75,0,0,1,0,13.79l-18,18A9.75,9.75,0,0,1,8.09,25.09l18-18A9.75,9.75,0,0,1,39.91,7.06Z"/><path id="_Path_6" data-name="&lt;Path&gt;" class="cls-6" d="M26.12,7.06l-9,9L30.89,29.87l9-9A9.75,9.75,0,1,0,26.12,7.06Z"/></g></svg>