<svg id="Icons" xmlns="http://www.w3.org/2000/svg" viewBox="0 0 48 48"><defs><style>.cls-1{fill:#45413c;opacity:0.15;}.cls-2,.cls-9{fill:#f0f0f0;}.cls-3{fill:#fff;}.cls-4{fill:none;}.cls-4,.cls-7,.cls-8,.cls-9{stroke:#45413c;stroke-linecap:round;stroke-linejoin:round;}.cls-5{fill:#f0d5a8;}.cls-6{fill:#f7e5c6;}.cls-7{fill:#bdbec0;}.cls-8{fill:#ff6242;}</style></defs><title>741-cigarette</title><g id="_Group_" data-name="&lt;Group&gt;"><ellipse id="_Ellipse_" data-name="&lt;Ellipse&gt;" class="cls-1" cx="27.6" cy="44.28" rx="15.52" ry="1.72"/><rect id="_Rectangle_" data-name="&lt;Rectangle&gt;" class="cls-2" x="12.11" y="29.24" width="20.12" height="8.05" transform="translate(8.62 -4.35) rotate(13.87)"/><rect id="_Rectangle_2" data-name="&lt;Rectangle&gt;" class="cls-3" x="12.73" y="29.31" width="20.12" height="2.95" transform="translate(8.05 -4.57) rotate(13.87)"/><rect id="_Rectangle_3" data-name="&lt;Rectangle&gt;" class="cls-4" x="12.11" y="29.24" width="20.12" height="8.05" transform="translate(8.62 -4.35) rotate(13.87)"/><path id="_Rectangle_4" data-name="&lt;Rectangle&gt;" class="cls-5" d="M31.75,33.23H43.82A1.15,1.15,0,0,1,45,34.38v5.75a1.15,1.15,0,0,1-1.15,1.15H31.75a0,0,0,0,1,0,0v-8A0,0,0,0,1,31.75,33.23Z" transform="translate(10.05 -8.11) rotate(13.87)"/><path id="_Rectangle_5" data-name="&lt;Rectangle&gt;" class="cls-6" d="M32.36,33.31H44.43a1.15,1.15,0,0,1,1.15,1.15v1.1a.7.7,0,0,1-.7.7H32.36a0,0,0,0,1,0,0V33.31A0,0,0,0,1,32.36,33.31Z" transform="translate(9.48 -8.33) rotate(13.87)"/><path id="_Rectangle_6" data-name="&lt;Rectangle&gt;" class="cls-4" d="M31.75,33.23H43.82A1.15,1.15,0,0,1,45,34.38v5.75a1.15,1.15,0,0,1-1.15,1.15H31.75a0,0,0,0,1,0,0v-8A0,0,0,0,1,31.75,33.23Z" transform="translate(10.05 -8.11) rotate(13.87)"/><path id="_Path_" data-name="&lt;Path&gt;" class="cls-7" d="M6.47,33.28l-.72-1.81a.57.57,0,0,1,.33-.75L7,30.38a.57.57,0,0,0,.36-.65l-.26-1.25a.5.5,0,0,0-.13-.26l-.9-1a.57.57,0,0,1,0-.74l.68-.82a.58.58,0,0,1,.58-.2l4.43,1.1L9.77,34.34l-2.9-.72A.57.57,0,0,1,6.47,33.28Z"/><path id="_Path_2" data-name="&lt;Path&gt;" class="cls-8" d="M13.37,26.94l-2.1-.52a.57.57,0,0,0-.26,0l-1.12.25L9.34,28.9l1,.84-.87,1.37a.64.64,0,0,0-.08.36l.1,1.26a.56.56,0,0,1-.28.54l-1.09.66,3.35.82Z"/><circle id="_Path_3" data-name="&lt;Path&gt;" class="cls-9" cx="6.94" cy="12.22" r="2.38"/><path id="_Path_4" data-name="&lt;Path&gt;" class="cls-9" d="M10.47,19.36A1.77,1.77,0,1,1,8.7,17.59,1.77,1.77,0,0,1,10.47,19.36Z"/><path id="_Path_5" data-name="&lt;Path&gt;" class="cls-9" d="M15.72,7.12a3.64,3.64,0,1,0-5.24.94,3.58,3.58,0,0,0,1.9.71,1.94,1.94,0,0,0,.76,1.29,2,2,0,0,0,2.77-.39A2,2,0,0,0,15.72,7.12Z"/></g></svg>