<svg id="Icons" xmlns="http://www.w3.org/2000/svg" viewBox="0 0 48 48"><defs><style>.cls-1{fill:#45413c;opacity:0.15;}.cls-2{fill:#915e3a;}.cls-2,.cls-5,.cls-9{stroke:#45413c;stroke-linecap:round;stroke-linejoin:round;}.cls-3{fill:#dea47a;}.cls-4{fill:#bf8256;}.cls-5{fill:none;}.cls-6{fill:#bf8df2;}.cls-7{fill:#9f5ae5;}.cls-8{fill:#dabff5;}.cls-9{fill:#fff;}</style></defs><title>743-crystal-ball-1</title><g id="_Group_" data-name="&lt;Group&gt;"><ellipse id="_Ellipse_" data-name="&lt;Ellipse&gt;" class="cls-1" cx="24" cy="44.5" rx="14" ry="1.5"/><g id="_Group_2" data-name="&lt;Group&gt;"><g id="_Group_3" data-name="&lt;Group&gt;"><path id="_Path_" data-name="&lt;Path&gt;" class="cls-2" d="M34,35.65a24.73,24.73,0,0,1-10,2.21,24.73,24.73,0,0,1-10-2.21,67.53,67.53,0,0,1,19.94,0Z"/><path id="_Path_2" data-name="&lt;Path&gt;" class="cls-3" d="M36.37,40.43a1.48,1.48,0,0,1-.55,1.92c-1.76,1.09-5.61,2.9-11.82,2.9s-10.06-1.81-11.82-2.9a1.48,1.48,0,0,1-.55-1.92L14,35.65a24.73,24.73,0,0,0,10,2.21,24.73,24.73,0,0,0,10-2.21Z"/><path id="_Path_3" data-name="&lt;Path&gt;" class="cls-4" d="M24,40.56a34.6,34.6,0,0,0,11.4-2.07L34,35.65a24.73,24.73,0,0,1-10,2.21,24.73,24.73,0,0,1-10-2.21L12.6,38.49A34.6,34.6,0,0,0,24,40.56Z"/><path id="_Path_4" data-name="&lt;Path&gt;" class="cls-5" d="M36.37,40.43a1.48,1.48,0,0,1-.55,1.92c-1.76,1.09-5.61,2.9-11.82,2.9s-10.06-1.81-11.82-2.9a1.48,1.48,0,0,1-.55-1.92L14,35.65a24.73,24.73,0,0,0,10,2.21,24.73,24.73,0,0,0,10-2.21Z"/></g><g id="_Group_4" data-name="&lt;Group&gt;"><g id="_Group_5" data-name="&lt;Group&gt;"><circle id="_Ellipse_2" data-name="&lt;Ellipse&gt;" class="cls-6" cx="24" cy="20.5" r="15.15"/><path id="_Compound_Path_" data-name="&lt;Compound Path&gt;" class="cls-7" d="M24,5.35A15.15,15.15,0,1,0,39.15,20.5,15.15,15.15,0,0,0,24,5.35ZM24,30.1A12.19,12.19,0,1,1,36.19,17.91,12.19,12.19,0,0,1,24,30.1Z"/><circle id="_Ellipse_3" data-name="&lt;Ellipse&gt;" class="cls-5" cx="24" cy="20.5" r="15.15"/></g><circle id="_Ellipse_4" data-name="&lt;Ellipse&gt;" class="cls-8" cx="29.91" cy="15.33" r="3.69"/><circle id="_Ellipse_5" data-name="&lt;Ellipse&gt;" class="cls-8" cx="22.89" cy="17.17" r="1.11"/><circle id="_Ellipse_6" data-name="&lt;Ellipse&gt;" class="cls-8" cx="23.63" cy="11.26" r="1.85"/></g><path id="_Path_5" data-name="&lt;Path&gt;" class="cls-5" d="M40.62,28.26a6.4,6.4,0,0,1-2.95,4.43"/><path id="_Path_6" data-name="&lt;Path&gt;" class="cls-5" d="M36.93,34.91a5.64,5.64,0,0,0,3.69-2.22"/><path id="_Path_7" data-name="&lt;Path&gt;" class="cls-5" d="M5.9,15.7s.74-3.7,2.95-5.18"/><path id="_Path_8" data-name="&lt;Path&gt;" class="cls-5" d="M4.42,12.74a11,11,0,0,0,0,5.17"/><path id="_Path_9" data-name="&lt;Path&gt;" class="cls-9" d="M42,8.42a1.79,1.79,0,0,1,1.33-1.33L46,6.48a.22.22,0,0,0,.18-.22A.21.21,0,0,0,46,6.05l-2.66-.62A1.77,1.77,0,0,1,42,4.1l-.62-2.66a.22.22,0,0,0-.21-.18.23.23,0,0,0-.22.18L40.34,4.1A1.79,1.79,0,0,1,39,5.43l-2.67.62a.21.21,0,0,0-.17.21.22.22,0,0,0,.17.22L39,7.09a1.77,1.77,0,0,1,1.32,1.33L41,11.09a.22.22,0,0,0,.22.17.21.21,0,0,0,.21-.17Z"/><path id="_Path_10" data-name="&lt;Path&gt;" class="cls-9" d="M5.82,32.31l2.09-.69A.2.2,0,0,0,8,31.43a.18.18,0,0,0-.13-.18l-1.72-.57a.79.79,0,0,1-.49-.5l-.58-1.72a.18.18,0,0,0-.18-.13.2.2,0,0,0-.19.13l-.57,1.72a.8.8,0,0,1-.5.5L2,31.25a.19.19,0,0,0-.14.18.2.2,0,0,0,.14.19l1.71.57a.78.78,0,0,1,.5.5l.57,1.71a.2.2,0,0,0,.19.14.19.19,0,0,0,.18-.14Z"/></g></g></svg>