<svg id="Icons" xmlns="http://www.w3.org/2000/svg" viewBox="0 0 48 48"><defs><style>.cls-1{fill:#45413c;opacity:0.15;}.cls-2{fill:#656769;}.cls-3{fill:#525252;}.cls-4{fill:none;stroke:#45413c;stroke-linecap:round;stroke-linejoin:round;}.cls-5{fill:#fff;}.cls-6{fill:#ff6242;}.cls-7{fill:#ff866e;}</style></defs><title>749-no-mobile-phones</title><g id="_Group_" data-name="&lt;Group&gt;"><ellipse id="_Ellipse_" data-name="&lt;Ellipse&gt;" class="cls-1" cx="24" cy="45.5" rx="11.5" ry="1.5"/><circle id="_Path_" data-name="&lt;Path&gt;" class="cls-2" cx="24" cy="24" r="14.93"/><path id="_Path_2" data-name="&lt;Path&gt;" class="cls-3" d="M24,11.82A14.93,14.93,0,0,1,38.86,25.37c0-.45.07-.91.07-1.37A14.93,14.93,0,0,0,9.07,24c0,.46,0,.92.07,1.37A14.93,14.93,0,0,1,24,11.82Z"/><circle id="_Path_3" data-name="&lt;Path&gt;" class="cls-4" cx="24" cy="24" r="14.93"/><path class="cls-5" d="M28.29,13.41H19.71a1.87,1.87,0,0,0-1.86,1.87V32.72a1.87,1.87,0,0,0,1.86,1.87h8.58a1.87,1.87,0,0,0,1.86-1.87V15.28A1.87,1.87,0,0,0,28.29,13.41Zm-5.58,1h2.58a.37.37,0,0,1,.37.37.36.36,0,0,1-.37.37H22.71a.36.36,0,0,1-.37-.37A.37.37,0,0,1,22.71,14.4ZM24,33.53a1,1,0,1,1,1-1A1,1,0,0,1,24,33.53Zm4.61-3.64a.7.7,0,0,1-.7.71H20.09a.7.7,0,0,1-.7-.71v-13a.7.7,0,0,1,.7-.7h7.82a.7.7,0,0,1,.7.7Z"/><path id="_Compound_Path_" data-name="&lt;Compound Path&gt;" class="cls-6" d="M24,5A19,19,0,1,0,43,24,19,19,0,0,0,24,5Zm0,4.07A14.89,14.89,0,0,1,38.52,27.43l-27-11.65A14.91,14.91,0,0,1,24,9.07Zm0,29.86A14.89,14.89,0,0,1,9.48,20.57l27,11.65A14.91,14.91,0,0,1,24,38.93Z"/><g id="_Group_2" data-name="&lt;Group&gt;"><path id="_Path_4" data-name="&lt;Path&gt;" class="cls-7" d="M24,7.4A19,19,0,0,1,42.94,25.2c0-.4.06-.8.06-1.2A19,19,0,0,0,5,24c0,.4,0,.8.06,1.2A19,19,0,0,1,24,7.4Z"/></g><path id="_Compound_Path_2" data-name="&lt;Compound Path&gt;" class="cls-4" d="M24,5A19,19,0,1,0,43,24,19,19,0,0,0,24,5Zm0,4.07A14.89,14.89,0,0,1,38.52,27.43l-27-11.65A14.91,14.91,0,0,1,24,9.07Zm0,29.86A14.89,14.89,0,0,1,9.48,20.57l27,11.65A14.91,14.91,0,0,1,24,38.93Z"/></g></svg>