<svg id="Icons" xmlns="http://www.w3.org/2000/svg" viewBox="0 0 48 48"><defs><style>.cls-1{fill:#45413c;opacity:0.15;}.cls-2{fill:#46b000;}.cls-2,.cls-5{stroke:#45413c;stroke-linecap:round;stroke-linejoin:round;}.cls-3{fill:#6dd627;}.cls-4{fill:#9ceb60;}.cls-5{fill:none;}</style></defs><title>751-recycling-symbol</title><g id="_Group_" data-name="&lt;Group&gt;"><ellipse id="_Ellipse_" data-name="&lt;Ellipse&gt;" class="cls-1" cx="24" cy="45.5" rx="17" ry="1.5"/><g id="_Group_2" data-name="&lt;Group&gt;"><path id="_Path_" data-name="&lt;Path&gt;" class="cls-2" d="M26.83,2.42H20.64A5.41,5.41,0,0,0,16,5.12L9.83,15.78l9.66,5.55,9.2-15.65A2.16,2.16,0,0,0,26.83,2.42Z"/><path id="_Path_2" data-name="&lt;Path&gt;" class="cls-3" d="M35.06,10.13l-2.87-5a5.41,5.41,0,0,0-4.68-2.7H20.64A5.4,5.4,0,0,0,16,5L16,5.12a1.88,1.88,0,0,1,3.23,0l6.22,10.55-1.71,1,10.6,3.24,2.5-10.8Z"/><g id="_Group_3" data-name="&lt;Group&gt;"><path id="_Path_3" data-name="&lt;Path&gt;" class="cls-4" d="M19.19,5.14l.64,1.08a5.41,5.41,0,0,1,2.65-.7h6.86a5.41,5.41,0,0,1,4.28,2.1l-1.43-2.5a5.41,5.41,0,0,0-4.68-2.7H20.64A5.4,5.4,0,0,0,16,5L16,5.12A1.88,1.88,0,0,1,19.19,5.14Z"/></g><path id="_Path_4" data-name="&lt;Path&gt;" class="cls-5" d="M35.06,10.13l-2.87-5a5.41,5.41,0,0,0-4.68-2.7H20.64A5.4,5.4,0,0,0,16,5L16,5.12a1.88,1.88,0,0,1,3.23,0l6.22,10.55-1.71,1,10.6,3.24,2.5-10.8Z"/></g><g id="_Group_4" data-name="&lt;Group&gt;"><path id="_Path_5" data-name="&lt;Path&gt;" class="cls-2" d="M2.29,35.48l3.1,5.36a5.4,5.4,0,0,0,4.68,2.7H22L22,32.4,4.19,32.24A2.16,2.16,0,0,0,2.29,35.48Z"/><path id="_Path_6" data-name="&lt;Path&gt;" class="cls-3" d="M4.85,24.51,2,29.49A5.39,5.39,0,0,0,2,34.9l3.43,5.94A5.38,5.38,0,0,0,10,43.54h.1a1.88,1.88,0,0,1-1.61-2.8l6-10.67,1.71,1-2.5-10.8L3.11,23.5Z"/><path id="_Path_7" data-name="&lt;Path&gt;" class="cls-4" d="M7.53,25.79l7-2.12-.79-3.41L3.11,23.5l1.74,1L2,29.49A5.39,5.39,0,0,0,2,34.9l1,1.79a5.45,5.45,0,0,1,.55-4Z"/><path id="_Path_8" data-name="&lt;Path&gt;" class="cls-5" d="M4.85,24.51,2,29.49A5.39,5.39,0,0,0,2,34.9l3.43,5.94A5.38,5.38,0,0,0,10,43.54h.1a1.88,1.88,0,0,1-1.61-2.8l6-10.67,1.71,1-2.5-10.8L3.11,23.5Z"/></g><g id="_Group_5" data-name="&lt;Group&gt;"><path id="_Path_9" data-name="&lt;Path&gt;" class="cls-2" d="M43.16,40.22l3.09-5.36a5.39,5.39,0,0,0,0-5.41L40,18.55l-9.63,5.6L39.4,40.2A2.17,2.17,0,0,0,43.16,40.22Z"/><path id="_Path_10" data-name="&lt;Path&gt;" class="cls-3" d="M32.37,43.49h5.77a5.4,5.4,0,0,0,4.68-2.7l3.43-5.94a5.4,5.4,0,0,0,0-5.32l0-.09a1.88,1.88,0,0,1-1.62,2.79l-12.26.11v-2l-8.1,7.56,8.1,7.57Z"/><path id="_Path_11" data-name="&lt;Path&gt;" class="cls-4" d="M45.84,35.47a5.43,5.43,0,0,0,.46-5.93l0-.09a1.88,1.88,0,0,1-1.62,2.79l-12.26.11v-2l-8.1,7.56L26,39.55l4.23-3.94Z"/><path id="_Path_12" data-name="&lt;Path&gt;" class="cls-5" d="M32.37,43.49h5.77a5.4,5.4,0,0,0,4.68-2.7l3.43-5.94a5.4,5.4,0,0,0,0-5.32l0-.09a1.88,1.88,0,0,1-1.62,2.79l-12.26.11v-2l-8.1,7.56,8.1,7.57Z"/></g></g></svg>