<svg id="Icons" xmlns="http://www.w3.org/2000/svg" viewBox="0 0 48 48"><defs><style>.cls-1{fill:#45413c;opacity:0.15;}.cls-2{fill:#87898c;}.cls-3{fill:#656769;}.cls-4{fill:none;stroke:#45413c;stroke-linecap:round;stroke-linejoin:round;}.cls-5{fill:#f0f0f0;}.cls-6{fill:#fff;}</style></defs><title>753-ballot-box-with-check</title><g id="_Group_" data-name="&lt;Group&gt;"><ellipse id="_Ellipse_" data-name="&lt;Ellipse&gt;" class="cls-1" cx="24" cy="45.15" rx="14.16" ry="1.85"/><rect id="_Rectangle_" data-name="&lt;Rectangle&gt;" class="cls-2" x="6.61" y="6.61" width="34.78" height="34.78" rx="7.4" ry="7.4"/><path id="_Path_" data-name="&lt;Path&gt;" class="cls-3" d="M34,6.61H14A7.4,7.4,0,0,0,6.61,14v9.62a7.4,7.4,0,0,1,7.4-7.4H34a7.4,7.4,0,0,1,7.4,7.4V14A7.4,7.4,0,0,0,34,6.61Z"/><rect id="_Rectangle_2" data-name="&lt;Rectangle&gt;" class="cls-4" x="6.61" y="6.61" width="34.78" height="34.78" rx="7.4" ry="7.4"/><path id="_Path_2" data-name="&lt;Path&gt;" class="cls-5" d="M32.41,14.77,21.08,26.1,17.5,22.51a2.46,2.46,0,0,0-3.48,0l-1,1a2.46,2.46,0,0,0,0,3.48l6.28,6.28a2.44,2.44,0,0,0,3.48,0l14-14a2.47,2.47,0,0,0,0-3.49l-1-1A2.46,2.46,0,0,0,32.41,14.77Z"/><path id="_Path_3" data-name="&lt;Path&gt;" class="cls-6" d="M12.88,26.73l2-2a1.23,1.23,0,0,1,1.74,0l3.2,3.2a1.75,1.75,0,0,0,2.5,0l11-11A1.24,1.24,0,0,1,35,17l2,2a2.44,2.44,0,0,0-.18-3.26l-1-1a2.46,2.46,0,0,0-3.49,0L21.08,26.1,17.5,22.51a2.46,2.46,0,0,0-3.48,0l-1,1A2.45,2.45,0,0,0,12.88,26.73Z"/><path id="_Path_4" data-name="&lt;Path&gt;" class="cls-4" d="M32.41,14.77,21.08,26.1,17.5,22.51a2.46,2.46,0,0,0-3.48,0l-1,1a2.46,2.46,0,0,0,0,3.48l6.28,6.28a2.44,2.44,0,0,0,3.48,0l14-14a2.47,2.47,0,0,0,0-3.49l-1-1A2.46,2.46,0,0,0,32.41,14.77Z"/></g></svg>