<svg id="Icons" xmlns="http://www.w3.org/2000/svg" viewBox="0 0 48 48"><defs><style>.cls-1{fill:#45413c;opacity:0.15;}.cls-2{fill:#ff6242;}.cls-3{fill:#ff866e;}.cls-4{fill:none;stroke:#45413c;stroke-linecap:round;stroke-linejoin:round;}</style></defs><title>754-cross-mark</title><g id="_Group_" data-name="&lt;Group&gt;"><ellipse id="_Ellipse_" data-name="&lt;Ellipse&gt;" class="cls-1" cx="24" cy="45.14" rx="14.24" ry="1.86"/><path id="_Path_" data-name="&lt;Path&gt;" class="cls-2" d="M40.06,12.76,35.24,7.94a1.24,1.24,0,0,0-1.75,0L24,17.43,14.51,7.94a1.24,1.24,0,0,0-1.75,0L7.94,12.76a1.24,1.24,0,0,0,0,1.75L17.43,24,7.94,33.49a1.24,1.24,0,0,0,0,1.75l4.82,4.82a1.24,1.24,0,0,0,1.75,0L24,30.57l9.49,9.49a1.24,1.24,0,0,0,1.75,0l4.82-4.82a1.24,1.24,0,0,0,0-1.75L30.57,24l9.49-9.49A1.24,1.24,0,0,0,40.06,12.76Z"/><g id="_Group_2" data-name="&lt;Group&gt;"><path id="_Path_2" data-name="&lt;Path&gt;" class="cls-3" d="M9,15.6l3.73-3.73a1.23,1.23,0,0,1,1.75,0L24,21.35l9.49-9.48a1.23,1.23,0,0,1,1.75,0L39,15.6l1.09-1.09a1.24,1.24,0,0,0,0-1.75L35.24,7.94a1.24,1.24,0,0,0-1.75,0L24,17.43,14.51,7.94a1.24,1.24,0,0,0-1.75,0L7.94,12.76a1.24,1.24,0,0,0,0,1.75Z"/></g><path id="_Path_3" data-name="&lt;Path&gt;" class="cls-4" d="M40.06,12.76,35.24,7.94a1.24,1.24,0,0,0-1.75,0L24,17.43,14.51,7.94a1.24,1.24,0,0,0-1.75,0L7.94,12.76a1.24,1.24,0,0,0,0,1.75L17.43,24,7.94,33.49a1.24,1.24,0,0,0,0,1.75l4.82,4.82a1.24,1.24,0,0,0,1.75,0L24,30.57l9.49,9.49a1.24,1.24,0,0,0,1.75,0l4.82-4.82a1.24,1.24,0,0,0,0-1.75L30.57,24l9.49-9.49A1.24,1.24,0,0,0,40.06,12.76Z"/></g></svg>