<svg id="Icons" xmlns="http://www.w3.org/2000/svg" viewBox="0 0 48 48"><defs><style>.cls-1{fill:#45413c;opacity:0.15;}.cls-2{fill:#ff6242;}.cls-3{fill:#ff866e;}.cls-4{fill:none;stroke:#45413c;stroke-linecap:round;stroke-linejoin:round;}</style></defs><title>755-double-exclamation-mark</title><ellipse id="_Ellipse_" data-name="&lt;Ellipse&gt;" class="cls-1" cx="24" cy="44.23" rx="13.59" ry="1.77"/><path class="cls-2" d="M33.15,3.25H30.41c-1.82,0-3.26,1.15-3.15,2.51L28.88,26.5c.09,1.15,1.36,2.05,2.9,2.05s2.81-.9,2.9-2.05L36.3,5.76C36.4,4.4,35,3.25,33.15,3.25Z"/><path id="_Path_" data-name="&lt;Path&gt;" class="cls-3" d="M27.44,8.11a3.26,3.26,0,0,1,3-1.56h2.74a3.24,3.24,0,0,1,3,1.56l.19-2.35C36.4,4.4,35,3.25,33.15,3.25H30.41c-1.82,0-3.26,1.15-3.15,2.51Z"/><path class="cls-4" d="M33.15,3.25H30.41c-1.82,0-3.26,1.15-3.15,2.51L28.88,26.5c.09,1.15,1.36,2.05,2.9,2.05s2.81-.9,2.9-2.05L36.3,5.76C36.4,4.4,35,3.25,33.15,3.25Z"/><circle id="_Path_2" data-name="&lt;Path&gt;" class="cls-2" cx="31.78" cy="35.2" r="3.56"/><path id="_Path_3" data-name="&lt;Path&gt;" class="cls-3" d="M31.78,33.93a3.49,3.49,0,0,1,3.48,2,3.67,3.67,0,0,0,.08-.75,3.57,3.57,0,0,0-7.13,0,3.08,3.08,0,0,0,.09.75C28.64,34.79,30.07,33.93,31.78,33.93Z"/><circle id="_Path_4" data-name="&lt;Path&gt;" class="cls-4" cx="31.78" cy="35.2" r="3.56"/><path class="cls-2" d="M17.59,3.25H14.85C13,3.25,11.6,4.4,11.7,5.76L13.32,26.5c.09,1.15,1.37,2.05,2.9,2.05s2.81-.9,2.9-2.05L20.74,5.76C20.85,4.4,19.41,3.25,17.59,3.25Z"/><path id="_Path_5" data-name="&lt;Path&gt;" class="cls-3" d="M11.89,8.11a3.24,3.24,0,0,1,3-1.56h2.74a3.26,3.26,0,0,1,3,1.56l.18-2.35c.11-1.36-1.33-2.51-3.15-2.51H14.85C13,3.25,11.6,4.4,11.7,5.76Z"/><path class="cls-4" d="M17.59,3.25H14.85C13,3.25,11.6,4.4,11.7,5.76L13.32,26.5c.09,1.15,1.37,2.05,2.9,2.05s2.81-.9,2.9-2.05L20.74,5.76C20.85,4.4,19.41,3.25,17.59,3.25Z"/><circle id="_Path_6" data-name="&lt;Path&gt;" class="cls-2" cx="16.22" cy="35.2" r="3.56"/><path id="_Path_7" data-name="&lt;Path&gt;" class="cls-3" d="M16.22,33.93c1.71,0,3.14.86,3.48,2a3.08,3.08,0,0,0,.09-.75,3.57,3.57,0,0,0-7.13,0,3.67,3.67,0,0,0,.08.75A3.49,3.49,0,0,1,16.22,33.93Z"/><circle id="_Path_8" data-name="&lt;Path&gt;" class="cls-4" cx="16.22" cy="35.2" r="3.56"/></svg>