<svg id="Icons" xmlns="http://www.w3.org/2000/svg" viewBox="0 0 48 48"><defs><style>.cls-1{fill:#fff;}.cls-1,.cls-2,.cls-3,.cls-4{stroke:#45413c;stroke-linecap:round;stroke-linejoin:round;}.cls-2{fill:#46b000;}.cls-3{fill:#656769;}.cls-4{fill:#ff6242;}.cls-5{fill:#45413c;opacity:0.15;}</style></defs><title>758-United-Arab-Emirates</title><g id="_Group_" data-name="&lt;Group&gt;"><path class="cls-1" d="M45,12.25H38.68A45.89,45.89,0,0,1,24,9.88,45.73,45.73,0,0,0,9.37,7.5H3c-.58,0-1,.35-1,.79v26a.94.94,0,0,0,1,.79H9.37A46,46,0,0,1,24,37.46a45.62,45.62,0,0,0,14.65,2.38H45a.93.93,0,0,0,1-.79V13A.94.94,0,0,0,45,12.25Z"/><path class="cls-2" d="M45,12.25H38.68A45.89,45.89,0,0,1,24,9.88,45.73,45.73,0,0,0,9.37,7.5H3c-.58,0-1,.35-1,.79v8.29H9.37A45.72,45.72,0,0,1,24,19a45.62,45.62,0,0,0,14.65,2.38h7.37V13A.94.94,0,0,0,45,12.25Z"/><path class="cls-3" d="M38.68,30.54A45.89,45.89,0,0,1,24,28.17,45.73,45.73,0,0,0,9.37,25.79H2V34.3a.94.94,0,0,0,1,.79H9.37A46,46,0,0,1,24,37.46a45.62,45.62,0,0,0,14.65,2.38H45a.93.93,0,0,0,1-.79V30.54Z"/><path id="_Path_" data-name="&lt;Path&gt;" class="cls-4" d="M13.53,7.69c-1.38-.12-2.77-.19-4.16-.19H3c-.58,0-1,.35-1,.79v26a.94.94,0,0,0,1,.79H9.37c1.39,0,2.78.07,4.16.19Z"/><ellipse class="cls-5" cx="24" cy="45.5" rx="11.5" ry="1.5"/></g></svg>