<svg id="Icons" xmlns="http://www.w3.org/2000/svg" viewBox="0 0 48 48"><defs><style>.cls-1{fill:#ff6242;stroke-linecap:round;stroke-linejoin:round;}.cls-1,.cls-2,.cls-3{stroke:#45413c;}.cls-2{fill:#fff;}.cls-2,.cls-3{stroke-miterlimit:10;}.cls-3{fill:#009fd9;}.cls-4{fill:#45413c;opacity:0.15;}</style></defs><title>767-France</title><path class="cls-1" d="M45,12.25H38.68A45.89,45.89,0,0,1,24,9.88,45.73,45.73,0,0,0,9.37,7.5H3c-.58,0-1,.35-1,.79v26a.94.94,0,0,0,1,.79H9.37A46,46,0,0,1,24,37.46a45.62,45.62,0,0,0,14.65,2.38H45a.93.93,0,0,0,1-.79V13A.94.94,0,0,0,45,12.25Z"/><path class="cls-2" d="M24,9.88A43.57,43.57,0,0,0,16.28,8V35.61A44.44,44.44,0,0,1,24,37.46a43.26,43.26,0,0,0,7.74,1.86V11.73A44.11,44.11,0,0,1,24,9.88Z"/><path class="cls-3" d="M9.37,7.5H3c-.58,0-1,.35-1,.79v26a.94.94,0,0,0,1,.79H9.37a46.66,46.66,0,0,1,6.91.52V8A46.66,46.66,0,0,0,9.37,7.5Z"/><ellipse class="cls-4" cx="24" cy="45.5" rx="11.5" ry="1.5"/></svg>