<svg id="Icons" xmlns="http://www.w3.org/2000/svg" viewBox="0 0 48 48"><defs><style>.cls-1{fill:#00b8f0;}.cls-1,.cls-2,.cls-3,.cls-4{stroke:#45413c;stroke-linecap:round;stroke-linejoin:round;}.cls-2{fill:#fff;}.cls-3{fill:#ff6242;}.cls-4{fill:none;}.cls-5{fill:#45413c;opacity:0.15;}</style></defs><title>768-United-Kingdom</title><path class="cls-1" d="M45,12.25H38.68A45.89,45.89,0,0,1,24,9.88,45.73,45.73,0,0,0,9.37,7.5H3c-.58,0-1,.35-1,.79v26a.94.94,0,0,0,1,.79H9.37A46,46,0,0,1,24,37.46a45.62,45.62,0,0,0,14.65,2.38H45a.93.93,0,0,0,1-.79V13A.94.94,0,0,0,45,12.25Z"/><path id="_Path_" data-name="&lt;Path&gt;" class="cls-2" d="M26.22,28.08,46.05,16.86V13a.94.94,0,0,0-1-.79H39.1L22.55,21.61Z"/><path id="_Path_2" data-name="&lt;Path&gt;" class="cls-3" d="M25.26,26.39,46.05,14.64V13a.94.94,0,0,0-1-.79H43l-19.53,11Z"/><path id="_Path_3" data-name="&lt;Path&gt;" class="cls-2" d="M17.56,21.77,2,30.57V34.3a.94.94,0,0,0,1,.79H9.12l12.1-6.85Z"/><path id="_Path_4" data-name="&lt;Path&gt;" class="cls-3" d="M18.51,23.46,2,32.79V34.3a.94.94,0,0,0,1,.79H5.18l15.09-8.53Z"/><path id="_Path_5" data-name="&lt;Path&gt;" class="cls-2" d="M46.05,39.05V35.78L27.33,22.42l-4.32,6L38.94,39.84H45A.93.93,0,0,0,46.05,39.05Z"/><path id="_Path_6" data-name="&lt;Path&gt;" class="cls-3" d="M26.2,24l-2.07,2.9,18.15,13H45a.93.93,0,0,0,1-.79v-.89Z"/><path id="_Path_7" data-name="&lt;Path&gt;" class="cls-2" d="M3,7.5c-.58,0-1,.35-1,.79v3.79L18.69,24l4.32-6L8.38,7.5Z"/><path id="_Path_8" data-name="&lt;Path&gt;" class="cls-3" d="M3,7.5c-.58,0-1,.35-1,.79V9.7L19.81,22.42l2.07-2.9L5,7.5Z"/><path id="_Path_9" data-name="&lt;Path&gt;" class="cls-2" d="M38.68,20.09a46.29,46.29,0,0,1-8-.7V11.56A45.58,45.58,0,0,1,24,9.88a44.79,44.79,0,0,0-6.66-1.69V16a46.2,46.2,0,0,0-8-.69H2V27.25H9.37a46.21,46.21,0,0,1,8,.7v7.83A46,46,0,0,1,24,37.46a44.36,44.36,0,0,0,6.65,1.69V31.31a46.29,46.29,0,0,0,8,.69h7.37V20.09Z"/><path id="_Path_10" data-name="&lt;Path&gt;" class="cls-3" d="M38.68,22.45a46.13,46.13,0,0,1-10.4-1.18V11.07A42.27,42.27,0,0,1,24,9.88a43.86,43.86,0,0,0-4.25-1.2v10.2A46.8,46.8,0,0,0,9.37,17.7H2v7.19H9.37a46.22,46.22,0,0,1,10.41,1.18v10.2A43.81,43.81,0,0,1,24,37.46a42.31,42.31,0,0,0,4.25,1.2V28.46a46.71,46.71,0,0,0,10.4,1.18h7.37V22.45Z"/><path id="_Path_11" data-name="&lt;Path&gt;" class="cls-4" d="M24,9.88h0A45.73,45.73,0,0,0,9.37,7.5H3c-.58,0-1,.35-1,.79v26a.94.94,0,0,0,1,.79H9.37A46,46,0,0,1,24,37.46h0a45.62,45.62,0,0,0,14.65,2.38H45a.93.93,0,0,0,1-.79V13a.94.94,0,0,0-1-.79H38.68A45.89,45.89,0,0,1,24,9.88Z"/><ellipse class="cls-5" cx="24" cy="45.5" rx="11.5" ry="1.5"/></svg>