<svg id="Icons" xmlns="http://www.w3.org/2000/svg" viewBox="0 0 48 48"><defs><style>.cls-1{fill:#fff;}.cls-1,.cls-2,.cls-3{stroke:#45413c;}.cls-1,.cls-2,.cls-3,.cls-4{stroke-linecap:round;stroke-linejoin:round;}.cls-2{fill:#ff8a14;}.cls-3{fill:#46b000;}.cls-4{fill:none;stroke:#009fd9;}.cls-5{fill:#009fd9;}.cls-6{fill:#45413c;opacity:0.15;}</style></defs><title>770-India</title><g id="_Group_" data-name="&lt;Group&gt;"><path class="cls-1" d="M45,12.25H38.68A45.89,45.89,0,0,1,24,9.88,45.73,45.73,0,0,0,9.37,7.5H3c-.58,0-1,.35-1,.79v26a.94.94,0,0,0,1,.79H9.37A46,46,0,0,1,24,37.46a45.62,45.62,0,0,0,14.65,2.38H45a.93.93,0,0,0,1-.79V13A.94.94,0,0,0,45,12.25Z"/><path id="_Path_" data-name="&lt;Path&gt;" class="cls-2" d="M2,15.21H9.37A45.73,45.73,0,0,1,24,17.59,45.62,45.62,0,0,0,38.68,20h7.37V13a.94.94,0,0,0-1-.79H38.68A45.89,45.89,0,0,1,24,9.88,45.73,45.73,0,0,0,9.37,7.5H3c-.58,0-1,.35-1,.79Z"/><path id="_Path_2" data-name="&lt;Path&gt;" class="cls-3" d="M2,34.3a.94.94,0,0,0,1,.79H9.37A46,46,0,0,1,24,37.46a45.62,45.62,0,0,0,14.65,2.38H45c.58,0,1-.35,1-.79V32.13H38.68A45.62,45.62,0,0,1,24,29.75,45.72,45.72,0,0,0,9.37,27.38H2Z"/><ellipse id="_Path_3" data-name="&lt;Path&gt;" class="cls-4" cx="24.03" cy="23.67" rx="4.26" ry="4.77" transform="translate(-7.67 12.14) rotate(-24.59)"/><ellipse id="_Path_4" data-name="&lt;Path&gt;" class="cls-5" cx="24.03" cy="23.67" rx="2.08" ry="2.33" transform="translate(-7.67 12.14) rotate(-24.59)"/><line id="_Path_5" data-name="&lt;Path&gt;" class="cls-4" x1="24.03" y1="19" x2="24.03" y2="28.34"/><line id="_Path_6" data-name="&lt;Path&gt;" class="cls-4" x1="19.67" y1="23.28" x2="28.38" y2="24.06"/><line id="_Path_7" data-name="&lt;Path&gt;" class="cls-4" x1="27" y1="20.53" x2="21.09" y2="26.84"/><line id="_Path_8" data-name="&lt;Path&gt;" class="cls-4" x1="20.92" y1="20.11" x2="27" y2="27.12"/></g><ellipse class="cls-6" cx="24" cy="45.5" rx="11.5" ry="1.5"/></svg>