<svg id="Icons" xmlns="http://www.w3.org/2000/svg" viewBox="0 0 48 48"><defs><style>.cls-1,.cls-4{fill:#fff;}.cls-1,.cls-2,.cls-3{stroke:#45413c;stroke-linecap:round;stroke-linejoin:round;}.cls-2,.cls-5{fill:#e04122;}.cls-3{fill:#009fd9;}.cls-6{fill:#45413c;opacity:0.15;}</style></defs><title>775-North-Korea</title><g id="_Group_" data-name="&lt;Group&gt;"><path class="cls-1" d="M45,12.25c-6.89,0-12.94.36-21-2.37A45.73,45.73,0,0,0,9.37,7.5H3c-.58,0-1,.35-1,.79v26a.94.94,0,0,0,1,.79H9.37A46,46,0,0,1,24,37.46c7.92,2.69,13.76,2.38,21,2.38a.93.93,0,0,0,1-.79V13A.94.94,0,0,0,45,12.25Z"/><path class="cls-2" d="M38.68,19.36A45.62,45.62,0,0,1,24,17,45.72,45.72,0,0,0,9.37,14.61H2V28H9.37A45.73,45.73,0,0,1,24,30.36a45.62,45.62,0,0,0,14.65,2.38h7.37V19.36Z"/><path id="_Path_" data-name="&lt;Path&gt;" class="cls-3" d="M45,12.25H38.68A45.89,45.89,0,0,1,24,9.88,45.73,45.73,0,0,0,9.37,7.5H3c-.58,0-1,.35-1,.79v4H9.37A45.73,45.73,0,0,1,24,14.62,45.89,45.89,0,0,0,38.68,17h7.37V13A.94.94,0,0,0,45,12.25Z"/><path class="cls-3" d="M38.68,35.1A45.62,45.62,0,0,1,24,32.72,46,46,0,0,0,9.37,30.35H2V34.3a.94.94,0,0,0,1,.79H9.37A46,46,0,0,1,24,37.46a45.48,45.48,0,0,0,14.65,2.38H45a.93.93,0,0,0,1-.79V35.1Z"/><ellipse id="_Path_2" data-name="&lt;Path&gt;" class="cls-4" cx="15.18" cy="21.97" rx="4.61" ry="5.08" transform="translate(-8.81 10.23) rotate(-29.29)"/><path id="_Path_3" data-name="&lt;Path&gt;" class="cls-5" d="M15.59,18.24l.84,1.81a.55.55,0,0,0,.35.3l1.88.5a.49.49,0,0,1,.26.82l-1.36,1.16a.42.42,0,0,0-.13.4l.32,1.91a.42.42,0,0,1-.68.41l-1.68-1.09A.47.47,0,0,0,15,24.4l-1.68.68a.52.52,0,0,1-.67-.57l.32-1.83a.54.54,0,0,0-.14-.43l-1.36-1.49a.44.44,0,0,1,.26-.77l1.88,0a.39.39,0,0,0,.35-.21l.84-1.6A.47.47,0,0,1,15.59,18.24Z"/></g><ellipse class="cls-6" cx="24" cy="45.5" rx="11.5" ry="1.5"/></svg>