<svg id="Icons" xmlns="http://www.w3.org/2000/svg" viewBox="0 0 48 48"><defs><style>.cls-1{fill:#fff;}.cls-1,.cls-2,.cls-3,.cls-4{stroke:#45413c;stroke-linejoin:round;}.cls-1,.cls-2,.cls-3{stroke-linecap:round;}.cls-2{fill:#ff6242;}.cls-3{fill:#009fd9;}.cls-4{fill:none;}.cls-5{fill:#45413c;opacity:0.15;}</style></defs><title>776-South-Korea</title><g id="_Group_" data-name="&lt;Group&gt;"><path class="cls-1" d="M45,12.25H38.68A45.89,45.89,0,0,1,24,9.88,45.73,45.73,0,0,0,9.37,7.5H3c-.58,0-1,.35-1,.79v26a.94.94,0,0,0,1,.79H9.37A46,46,0,0,1,24,37.46a45.62,45.62,0,0,0,14.65,2.38H45a.93.93,0,0,0,1-.79V13A.94.94,0,0,0,45,12.25Z"/><ellipse id="_Path_" data-name="&lt;Path&gt;" class="cls-2" cx="23.51" cy="23.67" rx="7.92" ry="9.6" transform="translate(-4.69 5.84) rotate(-12.88)"/><path id="_Path_2" data-name="&lt;Path&gt;" class="cls-3" d="M31.4,26a5,5,0,0,0-3.11-3.2c-3.74-1.19-5.23,4.64-9.37,3.38a5.23,5.23,0,0,1-3.41-3.11c.09,5.16,3.63,9.65,8,10.09C27.49,33.55,30.78,30.44,31.4,26Z"/><line id="_Path_3" data-name="&lt;Path&gt;" class="cls-4" x1="8.81" y1="14.86" x2="12.43" y2="9.95"/><line id="_Path_4" data-name="&lt;Path&gt;" class="cls-4" x1="10.17" y1="15.87" x2="13.8" y2="10.96"/><line id="_Path_5" data-name="&lt;Path&gt;" class="cls-4" x1="11.54" y1="16.88" x2="15.17" y2="11.97"/><line id="_Path_6" data-name="&lt;Path&gt;" class="cls-4" x1="11.67" y1="25.8" x2="13.84" y2="31.5"/><line id="_Path_7" data-name="&lt;Path&gt;" class="cls-4" x1="10.08" y1="26.4" x2="10.97" y2="28.74"/><line id="_Path_8" data-name="&lt;Path&gt;" class="cls-4" x1="11.37" y1="29.77" x2="12.25" y2="32.11"/><line id="_Path_9" data-name="&lt;Path&gt;" class="cls-4" x1="8.5" y1="27.01" x2="10.67" y2="32.71"/><line id="_Path_10" data-name="&lt;Path&gt;" class="cls-4" x1="36.96" y1="14.47" x2="37.83" y2="16.91"/><line id="_Path_11" data-name="&lt;Path&gt;" class="cls-4" x1="38.13" y1="17.77" x2="39.01" y2="20.22"/><line id="_Path_12" data-name="&lt;Path&gt;" class="cls-4" x1="35.36" y1="15.04" x2="37.41" y2="20.79"/><line id="_Path_13" data-name="&lt;Path&gt;" class="cls-4" x1="33.76" y1="15.61" x2="34.63" y2="18.05"/><line id="_Path_14" data-name="&lt;Path&gt;" class="cls-4" x1="34.94" y1="18.92" x2="35.81" y2="21.36"/><line id="_Path_15" data-name="&lt;Path&gt;" class="cls-4" x1="31.52" y1="34.12" x2="33.16" y2="32.12"/><line id="_Path_16" data-name="&lt;Path&gt;" class="cls-4" x1="33.75" y1="31.41" x2="35.39" y2="29.4"/><line id="_Path_17" data-name="&lt;Path&gt;" class="cls-4" x1="32.83" y1="35.2" x2="34.48" y2="33.19"/><line id="_Path_18" data-name="&lt;Path&gt;" class="cls-4" x1="34.14" y1="36.28" x2="35.79" y2="34.27"/><line id="_Path_19" data-name="&lt;Path&gt;" class="cls-4" x1="35.06" y1="32.49" x2="36.7" y2="30.48"/><line id="_Path_20" data-name="&lt;Path&gt;" class="cls-4" x1="36.37" y1="33.56" x2="38.02" y2="31.56"/></g><ellipse class="cls-5" cx="24" cy="45.5" rx="11.5" ry="1.5"/></svg>