<svg xmlns="http://www.w3.org/2000/svg" viewBox="0 0 48 48"><defs><style>.cls-5{fill:none}.cls-5,.cls-7{stroke:#45413c;stroke-linecap:round;stroke-linejoin:round}.cls-6{fill:#ffaa54}.cls-7{fill:#fff}</style></defs><circle cx="20.5" cy="21.5" r="20" fill="#ffe500"/><path d="M20.5 1.5a20 20 0 1 0 20 20 20 20 0 0 0-20-20zm0 37a18.25 18.25 0 1 1 18.25-18.25A18.25 18.25 0 0 1 20.5 38.5z" fill="#ebcb00"/><ellipse cx="20.5" cy="5.5" rx="6" ry="1.5" fill="#fff48c"/><ellipse cx="20.5" cy="45.5" rx="16" ry="1.5" fill="#45413c" opacity=".15"/><circle class="cls-5" cx="20.5" cy="21.5" r="20"/><path class="cls-6" d="M35 26.5c0 .83-1.12 1.5-2.5 1.5s-2.5-.67-2.5-1.5 1.12-1.5 2.5-1.5 2.5.67 2.5 1.5z"/><path class="cls-6" d="M6 26.5c0 .83 1.12 1.5 2.5 1.5s2.5-.67 2.5-1.5S9.88 25 8.5 25 6 25.67 6 26.5z"/><path class="cls-5" d="M6.5 22.75a1.75 1.75 0 0 1 3.5 0"/><path class="cls-5" d="M31 22.75a1.75 1.75 0 0 1 3.5 0"/><path class="cls-7" d="M42.67 30.67l4.54-1.52a.43.43 0 0 0 0-.81l-3.73-1.24A1.71 1.71 0 0 1 42.4 26l-1.24-3.73a.44.44 0 0 0-.41-.29.42.42 0 0 0-.4.29L39.1 26a1.71 1.71 0 0 1-1.1 1.1l-3.73 1.24a.43.43 0 0 0 0 .81L38 30.4a1.71 1.71 0 0 1 1.08 1.08l1.25 3.73a.42.42 0 0 0 .4.29.44.44 0 0 0 .41-.29z"/><g><path class="cls-7" d="M20.5 36.55c9.2 0 10.43-3.84 9.89-7a3.41 3.41 0 0 0-4.56-2.36 16.42 16.42 0 0 1-5.33.84 16.42 16.42 0 0 1-5.33-.84 3.41 3.41 0 0 0-4.56 2.36c-.54 3.16.69 7 9.89 7z"/><g><path class="cls-5" d="M30.48 30.28a17.08 17.08 0 0 1-4.6 1.36 32.3 32.3 0 0 1-5.38.41 32.3 32.3 0 0 1-5.38-.41 17.08 17.08 0 0 1-4.6-1.36"/><path class="cls-5" d="M15.78 27.39l-.66 4.25-.63 4.09"/><path class="cls-5" d="M20.5 36.55v-8.5"/><path class="cls-5" d="M25.23 27.39l.65 4.25.63 4.09"/></g></g></svg>