<svg xmlns="http://www.w3.org/2000/svg" viewBox="0 0 48 48"><defs><style>.cls-5{fill:none;stroke:#45413c;stroke-linecap:round;stroke-linejoin:round}.cls-6{fill:#ffaa54}.cls-9{fill:#00b8f0}.cls-10{fill:#4acfff}</style></defs><g><circle cx="24" cy="21.97" r="15.38" fill="#ffe500"/><path d="M24 6.58A15.39 15.39 0 1 0 39.38 22 15.38 15.38 0 0 0 24 6.58zM24 35a14 14 0 1 1 14-14 14 14 0 0 1-14 14z" fill="#ebcb00"/><ellipse cx="24" cy="9.66" rx="4.61" ry="1.15" fill="#fff48c"/><ellipse cx="24" cy="43.5" rx="12.31" ry="1.5" fill="#45413c" opacity=".15"/><circle class="cls-5" cx="24" cy="21.97" r="15.38"/><path class="cls-6" d="M35.15 25.81c0 .64-.86 1.15-1.92 1.15s-1.92-.51-1.92-1.15.86-1.15 1.92-1.15 1.92.51 1.92 1.15z"/><path class="cls-6" d="M12.85 25.81c0 .64.86 1.15 1.92 1.15s1.92-.51 1.92-1.15-.86-1.15-1.92-1.15-1.92.51-1.92 1.15z"/><path class="cls-5" d="M13.23 22.93a1.35 1.35 0 1 1 2.69 0"/><path class="cls-5" d="M32.08 22.93a1.35 1.35 0 1 1 2.69 0"/><g stroke="#45413c" stroke-linecap="round" stroke-linejoin="round"><path d="M19.34 28.12a.73.73 0 0 0-.55.25.72.72 0 0 0-.17.58 5.46 5.46 0 0 0 10.76 0 .72.72 0 0 0-.17-.58.73.73 0 0 0-.55-.25z" fill="#ffb0ca"/><path d="M28.29 31.46a8.74 8.74 0 0 0-4.29-1 8.74 8.74 0 0 0-4.29 1 5.53 5.53 0 0 0 8.58 0z" fill="#ff87af"/></g><g><g><path class="cls-9" d="M3.29 29.51c3.3 3.3 5.74-3.32 9-4-4.63-3.36-12.29.7-9 4z"/><path class="cls-10" d="M12.24 25.55l-.23.06C7.53 24 1.88 27.43 4.61 30.34a3 3 0 0 1-1.32-.83c-3.29-3.3 4.37-7.36 8.95-3.96z"/><path class="cls-5" d="M3.29 29.51c3.3 3.3 5.74-3.32 9-4-4.63-3.36-12.29.7-9 4z"/></g><g><path class="cls-9" d="M6.49 17.73c-1 2.87 3.56 2.5 4.83 4.24.76-3.68-3.78-7.12-4.83-4.24z"/><path class="cls-10" d="M11.13 19.6c-.91-2.53-3.82-4.1-4.64-1.87a1.56 1.56 0 0 0 .5 2c.65-2.1 2.68-1.65 4.14-.13z"/><path class="cls-5" d="M6.49 17.73c-1 2.87 3.56 2.5 4.83 4.24.76-3.68-3.78-7.12-4.83-4.24z"/></g><g><path class="cls-9" d="M1 22.09c.84 2 3-.42 4.53-.13C4.2 19.7.21 20.1 1 22.09z"/><path class="cls-10" d="M1.36 22.6c.52-1 2.59-1.66 4.12-.77C4 19.72.22 20.14 1 22.09a1.65 1.65 0 0 0 .36.51z"/><path class="cls-5" d="M1 22.09c.84 2 3-.42 4.53-.13C4.2 19.7.21 20.1 1 22.09z"/></g></g><g><g><path class="cls-9" d="M44.54 29.51c-3.3 3.3-5.73-3.32-8.95-4 4.59-3.36 12.25.7 8.95 4z"/><path class="cls-10" d="M35.59 25.55a2 2 0 0 1 .23.06C40.3 24 46 27.43 43.22 30.34a3 3 0 0 0 1.32-.83c3.3-3.3-4.36-7.36-8.95-3.96z"/><path class="cls-5" d="M44.54 29.51c-3.3 3.3-5.73-3.32-8.95-4 4.59-3.36 12.25.7 8.95 4z"/></g><g><path class="cls-9" d="M41.34 17.73c1.06 2.87-3.56 2.5-4.83 4.24-.76-3.68 3.78-7.12 4.83-4.24z"/><path class="cls-10" d="M36.7 19.6c.91-2.53 3.83-4.1 4.64-1.87a1.56 1.56 0 0 1-.5 2c-.65-2.1-2.68-1.65-4.14-.13z"/><path class="cls-5" d="M41.34 17.73c1.06 2.87-3.56 2.5-4.83 4.24-.76-3.68 3.78-7.12 4.83-4.24z"/></g><g><path class="cls-9" d="M46.79 22.09c-.83 2-3-.42-4.52-.13 1.37-2.26 5.36-1.86 4.52.13z"/><path class="cls-10" d="M46.47 22.6c-.51-1-2.59-1.66-4.12-.77 1.44-2.11 5.26-1.69 4.44.26a1.65 1.65 0 0 1-.32.51z"/><path class="cls-5" d="M46.79 22.09c-.83 2-3-.42-4.52-.13 1.37-2.26 5.36-1.86 4.52.13z"/></g></g></g></svg>