<svg xmlns="http://www.w3.org/2000/svg" viewBox="0 0 48 48"><defs><style>.cls-5{fill:none;stroke:#45413c;stroke-linecap:round;stroke-linejoin:round}.cls-6{fill:#ffaa54}.cls-9{fill:#00b8f0}.cls-10{fill:#4acfff}</style></defs><g><circle cx="24" cy="21" r="16.05" fill="#ffe500"/><path d="M19.82 5.5A16.05 16.05 0 1 0 39.5 16.82 16.05 16.05 0 0 0 19.82 5.5zm7.73 28.67a14.64 14.64 0 1 1 10.33-18 14.63 14.63 0 0 1-10.33 18z" fill="#ebcb00"/><path d="M25.31 7.35c.17.65-1.77 1.72-4.31 2.41s-4.79.74-5 .09 1.77-1.72 4.33-2.41 4.8-.73 4.98-.09z" fill="#fff48c"/><ellipse cx="24" cy="43.5" rx="12.84" ry="1.5" fill="#45413c" opacity=".15"/><circle class="cls-5" cx="24" cy="21" r="16.05"/><path class="cls-6" d="M36.28 21.84c.17.65-.55 1.4-1.62 1.69s-2.08 0-2.25-.64.59-1.4 1.59-1.69 2.11 0 2.28.64z"/><path class="cls-6" d="M13.81 27.9c.17.65 1.18.93 2.25.64s1.8-1 1.62-1.68-1.18-.93-2.25-.64-1.79 1.04-1.62 1.68z"/><g stroke="#45413c" stroke-linecap="round" stroke-linejoin="round"><path d="M21 28.46a.8.8 0 0 0-.49.41.77.77 0 0 0 0 .63 5.69 5.69 0 0 0 10.83-2.92A.73.73 0 0 0 31 26a.77.77 0 0 0-.63-.11z" fill="#ffb0ca"/><path d="M30.9 29.4a9.21 9.21 0 0 0-4.6.15 9.09 9.09 0 0 0-4 2.18 5.77 5.77 0 0 0 8.6-2.33z" fill="#ff87af"/></g><g><g><path class="cls-9" d="M46.92 23c-2.43 4.21-6.69-1.79-10.1-1.56 3.7-4.7 12.52-2.68 10.1 1.56z"/><path class="cls-10" d="M36.82 21.42h.25c4.07-2.85 10.7-.91 8.74 2.76A3.15 3.15 0 0 0 46.92 23c2.42-4.24-6.4-6.26-10.1-1.58z"/><path class="cls-5" d="M46.92 23c-2.43 4.21-6.69-1.79-10.1-1.56 3.7-4.7 12.52-2.68 10.1 1.56z"/></g><g><path class="cls-9" d="M40.49 12c1.84 2.61-2.91 3.49-3.72 5.59C35 14.06 38.65 9.36 40.49 12z"/><path class="cls-10" d="M36.77 17.56l.07-.15c-.57-3.22 2.41-6.63 4.06-4.45a2.14 2.14 0 0 0-.41-1c-1.84-2.6-5.49 2.1-3.72 5.6z"/><path class="cls-5" d="M40.49 12c1.84 2.61-2.91 3.49-3.72 5.59C35 14.06 38.65 9.36 40.49 12z"/></g><g><path class="cls-9" d="M47.17 14.89c-.3 2.23-3.18.4-4.6 1.1.77-2.65 4.9-3.33 4.6-1.1z"/><path class="cls-10" d="M42.57 16l.11-.05c1.24-1.93 4.42-2.26 4.23-.34a1.55 1.55 0 0 0 .26-.71c.3-2.24-3.83-1.56-4.6 1.1z"/><path class="cls-5" d="M47.17 14.89c-.3 2.23-3.18.4-4.6 1.1.77-2.65 4.9-3.33 4.6-1.1z"/></g></g><g><g><path class="cls-9" d="M5.18 34.23c4.22 2.42 4.88-4.91 8-6.43-5.6-2.18-12.18 4-8 6.43z"/><path class="cls-10" d="M13.13 27.8l-.22.13c-5-.42-9.71 4.59-6.17 6.78a3.22 3.22 0 0 1-1.56-.48C1 31.8 7.58 25.62 13.13 27.8z"/><path class="cls-5" d="M5.18 34.23c4.22 2.42 4.88-4.91 8-6.43-5.6-2.18-12.18 4-8 6.43z"/></g><g><path class="cls-9" d="M5.21 21.49c-.28 3.18 4.27 1.55 6 3-.21-3.95-5.72-6.18-6-3z"/><path class="cls-10" d="M11.23 24.44l-.14-.09c-1.12-3.07-5.41-4.52-5.74-1.8a2 2 0 0 1-.14-1.06c.28-3.18 5.79-.95 6.02 2.95z"/><path class="cls-5" d="M5.21 21.49c-.28 3.18 4.27 1.55 6 3-.21-3.95-5.72-6.18-6-3z"/></g><g><path class="cls-9" d="M.9 27.36c1.38 1.78 3-1.24 4.53-1.36-2-1.9-5.91-.41-4.53 1.36z"/><path class="cls-10" d="M5.43 26h-.12c-2-1.05-5 .27-3.83 1.82a1.45 1.45 0 0 1-.58-.48C-.48 25.59 3.43 24.1 5.43 26z"/><path class="cls-5" d="M.9 27.36c1.38 1.78 3-1.24 4.53-1.36-2-1.9-5.91-.41-4.53 1.36z"/></g></g><path class="cls-5" d="M32.77 15.73l-2.15 1.91A.81.81 0 0 0 31 19l2.83.57"/><path class="cls-5" d="M13.77 20.85l2.82.57a.8.8 0 0 1 .41 1.39l-2.15 1.91"/></g></svg>