<svg xmlns="http://www.w3.org/2000/svg" viewBox="0 0 48 48"><defs><style>.cls-5{fill:none;stroke:#45413c;stroke-linecap:round;stroke-linejoin:round}.cls-6{fill:#ffaa54}</style></defs><g><ellipse cx="24" cy="45.5" rx="16" ry="1.5" fill="#45413c" opacity=".15"/><circle cx="24" cy="21.5" r="20" fill="#ffe500"/><path d="M24 1.5a20 20 0 1 0 20 20 20 20 0 0 0-20-20zm0 37a18.25 18.25 0 1 1 18.25-18.25A18.25 18.25 0 0 1 24 38.5z" fill="#ebcb00"/><ellipse cx="12.69" cy="10.19" rx="6" ry="1.5" transform="rotate(-45 12.68 10.188)" fill="#fff48c"/><circle class="cls-5" cx="24" cy="21.5" r="20"/><path class="cls-6" d="M35 9.83c.59.59.27 1.85-.71 2.83S32 14 31.42 13.37s-.26-1.85.71-2.83 2.24-1.29 2.87-.71z"/><path d="M35.64 33.14c-5.5 5.5-13.83 6.26-19.4 2a1.41 1.41 0 0 1 .13-2.25 86.93 86.93 0 0 0 19.05-19.02 1.41 1.41 0 0 1 2.25-.13c4.23 5.57 3.47 13.9-2.03 19.4z" fill="#ffb0ca" stroke="#45413c" stroke-linecap="round" stroke-linejoin="round"/><path d="M30.9 28.4a25 25 0 0 1 9.48-6.26 16.21 16.21 0 0 1-15.74 15.74 25 25 0 0 1 6.26-9.48z" fill="#ff87af" stroke="#45413c" stroke-linecap="round" stroke-linejoin="round"/><path class="cls-5" d="M26.09 7L25 10.44a1 1 0 0 0 1.26 1.26l3.41-1.13"/><path class="cls-6" d="M12.33 32.46c.59.59 1.85.27 2.83-.71s1.29-2.24.71-2.83-1.87-.26-2.87.71-1.25 2.24-.67 2.83z"/><path class="cls-5" d="M9.53 23.59l3.41-1.13a1 1 0 0 1 1.26 1.26l-1.13 3.41"/><path d="M16.37 32.92a88.21 88.21 0 0 0 10.27-8.78 88.21 88.21 0 0 0 8.78-10.27 1.41 1.41 0 0 1 2.25-.13c.2.26.38.54.56.82A94.07 94.07 0 0 1 28.6 26.1a94.07 94.07 0 0 1-11.54 9.63c-.28-.18-.56-.36-.82-.56a1.41 1.41 0 0 1 .13-2.25z" fill="#fff" stroke="#45413c" stroke-linecap="round" stroke-linejoin="round"/></g></svg>