<svg xmlns="http://www.w3.org/2000/svg" viewBox="0 0 48 48"><defs><style>.cls-5{fill:none;stroke:#45413c;stroke-linecap:round;stroke-linejoin:round}.cls-6{fill:#ffaa54}</style></defs><g><circle cx="24" cy="21.5" r="20" fill="#ffe500"/><path d="M24 1.5a20 20 0 1 0 20 20 20 20 0 0 0-20-20zm0 37a18.25 18.25 0 1 1 18.25-18.25A18.25 18.25 0 0 1 24 38.5z" fill="#ebcb00"/><ellipse cx="24" cy="5.5" rx="6" ry="1.5" fill="#fff48c"/><ellipse cx="24" cy="45.5" rx="16" ry="1.5" fill="#45413c" opacity=".15"/><circle class="cls-5" cx="24" cy="21.5" r="20"/><path class="cls-6" d="M38.5 26.5c0 .83-1.12 1.5-2.5 1.5s-2.5-.67-2.5-1.5S34.62 25 36 25s2.5.67 2.5 1.5z"/><path class="cls-6" d="M9.5 26.5c0 .83 1.12 1.5 2.5 1.5s2.5-.67 2.5-1.5S13.38 25 12 25s-2.5.67-2.5 1.5z"/><path class="cls-5" d="M10 22.75a1.75 1.75 0 0 1 3.5 0"/><path class="cls-5" d="M34.5 22.75a1.75 1.75 0 0 1 3.5 0"/><path class="cls-5" d="M16.11 29.5a11.9 11.9 0 0 0 15.8 0"/><g><path d="M31 30.24a12 12 0 0 1-6.91 2.26c3 2.49 2.22 6.25 5.23 5.89 4.12-.5 3.41-5.85 1.68-8.15z" fill="#ff6242"/><path d="M29.84 38.29c3.53-.87 2.81-5.85 1.15-8a11.26 11.26 0 0 1-1.45.89c1.08 1.93 1.58 5.3.3 7.11z" fill="#ff866e"/><path class="cls-5" d="M31 30.24a12 12 0 0 1-6.91 2.26c3 2.49 2.22 6.25 5.23 5.89 4.12-.5 3.41-5.85 1.68-8.15z"/></g></g></svg>