<svg xmlns="http://www.w3.org/2000/svg" viewBox="0 0 48 48"><defs><style>.cls-4{fill:none;stroke:#45413c;stroke-linecap:round;stroke-linejoin:round}.cls-5{fill:#ffaa54}.cls-10{fill:#ff6242}.cls-11{fill:#ff866e}</style></defs><g><circle cx="24" cy="21.5" r="20" fill="#ffe500"/><path d="M24 1.5a20 20 0 1 0 20 20 20 20 0 0 0-20-20zm0 37a18.25 18.25 0 1 1 18.25-18.25A18.25 18.25 0 0 1 24 38.5z" fill="#ebcb00"/><ellipse cx="24" cy="5.5" rx="6" ry="1.5" fill="#fff48c"/><circle class="cls-4" cx="24" cy="21.5" r="20"/><ellipse class="cls-5" cx="13.09" cy="23.23" rx="2.5" ry="1.5"/><ellipse class="cls-5" cx="34.91" cy="23.23" rx="2.5" ry="1.5"/><path d="M15.73 28a1 1 0 0 0-.75.34 1 1 0 0 0-.25.78 9.34 9.34 0 0 0 18.54 0 1 1 0 0 0-.25-.78 1 1 0 0 0-.75-.34z" fill="#ffb0ca" stroke="#45413c" stroke-linecap="round" stroke-linejoin="round"/><path d="M31.36 33.73A15 15 0 0 0 24 32a15 15 0 0 0-7.36 1.73 9.32 9.32 0 0 0 14.72 0z" fill="#ff87af" stroke="#45413c" stroke-linecap="round" stroke-linejoin="round"/><path d="M31.52 32.23a.43.43 0 0 1 .81.19v9.19a1.63 1.63 0 0 1-3.25 0v-5a3.62 3.62 0 0 1 1-2.53 7.93 7.93 0 0 0 1.44-1.85z" fill="#4aeff7" stroke="#45413c" stroke-linecap="round" stroke-linejoin="round"/><ellipse cx="24" cy="45.5" rx="16" ry="1.5" fill="#45413c" opacity=".15"/><g><path class="cls-10" d="M37.68 15.82a4.37 4.37 0 0 1-2.52 2.35l-6 2-2.49-5.84a4.32 4.32 0 0 1 .09-3.45A3.39 3.39 0 0 1 29 9a2.67 2.67 0 0 1 3.17 1.87l.47 1.51 1.43-.65a2.66 2.66 0 0 1 3.5 1.12 3.37 3.37 0 0 1 .11 2.97z"/><path class="cls-11" d="M27.8 11.73A2.68 2.68 0 0 1 31 13.6l.46 1.51 1.44-.65a2.67 2.67 0 0 1 3.5 1.12 3.16 3.16 0 0 1 .37 1.57 4.51 4.51 0 0 0 .94-1.33 3.37 3.37 0 0 0-.07-3 2.66 2.66 0 0 0-3.5-1.12l-1.43.65-.47-1.51A2.67 2.67 0 0 0 29 9a3.39 3.39 0 0 0-2.29 2 4.56 4.56 0 0 0-.38 1.6 3.13 3.13 0 0 1 1.47-.87z"/><path class="cls-4" d="M37.68 15.82a4.37 4.37 0 0 1-2.52 2.35l-6 2-2.49-5.84a4.32 4.32 0 0 1 .09-3.45A3.39 3.39 0 0 1 29 9a2.67 2.67 0 0 1 3.17 1.87l.47 1.51 1.43-.65a2.66 2.66 0 0 1 3.5 1.12 3.37 3.37 0 0 1 .11 2.97z"/></g><g><path class="cls-10" d="M6.3 8a4.08 4.08 0 0 1 5.49-1.29L13.9 7.9l.9-2.24a4.08 4.08 0 0 1 5.07-2.46 5.17 5.17 0 0 1 3.27 3.26 6.67 6.67 0 0 1-.29 5.27l-4.52 8.62-8.95-3.83a6.66 6.66 0 0 1-3.55-3.9A5.14 5.14 0 0 1 6.3 8z"/><path class="cls-11" d="M7.87 12.42a4.08 4.08 0 0 1 5.49-1.29l2.11 1.17.9-2.24a4.08 4.08 0 0 1 5.07-2.47 4.88 4.88 0 0 1 2.08 1.34 7 7 0 0 0-.38-2.47 5.17 5.17 0 0 0-3.27-3.26 4.08 4.08 0 0 0-5.07 2.46l-.9 2.24-2.11-1.17A4.08 4.08 0 0 0 6.3 8a5.14 5.14 0 0 0-.47 4.6 6.93 6.93 0 0 0 1.27 2.19 4.66 4.66 0 0 1 .77-2.37z"/><path class="cls-4" d="M6.3 8a4.08 4.08 0 0 1 5.49-1.29L13.9 7.9l.9-2.24a4.08 4.08 0 0 1 5.07-2.46 5.17 5.17 0 0 1 3.27 3.26 6.67 6.67 0 0 1-.29 5.27l-4.52 8.62-8.95-3.83a6.66 6.66 0 0 1-3.55-3.9A5.14 5.14 0 0 1 6.3 8z"/></g></g></svg>