<svg xmlns="http://www.w3.org/2000/svg" viewBox="0 0 48 48"><defs><style>.cls-2{fill:#ebcb00}.cls-5{fill:none;stroke:#45413c;stroke-linecap:round;stroke-linejoin:round}</style></defs><g><circle cx="21.5" cy="21.5" r="20" fill="#ffe500"/><path class="cls-2" d="M21.5 1.5a20 20 0 1 0 20 20 20 20 0 0 0-20-20zm0 37a18.25 18.25 0 1 1 18.25-18.25A18.25 18.25 0 0 1 21.5 38.5z"/><ellipse cx="21.5" cy="5.5" rx="6" ry="1.5" fill="#fff48c"/><path class="cls-2" d="M39.39 30.44A20 20 0 0 1 31.2 39l-1.12-2.62-.55-1.29a7.39 7.39 0 0 1 .16-5.86 5.71 5.71 0 0 1 3.9-3.32 4.46 4.46 0 0 1 4.62 1.69 4.89 4.89 0 0 1 .79 1.47z"/><ellipse cx="21.5" cy="45.5" rx="16" ry="1.5" fill="#45413c" opacity=".15"/><circle class="cls-5" cx="21.5" cy="21.5" r="20"/><g><path d="M46 29.88a4.64 4.64 0 0 1 .06 4.12 6 6 0 0 1-3.45 3.22L34.36 40 31 32a6 6 0 0 1 .12-4.72 4.65 4.65 0 0 1 3.15-2.68 3.65 3.65 0 0 1 4.34 2.57l.64 2.06 2-.89A3.65 3.65 0 0 1 46 29.88z" fill="#ff6242"/><path d="M32.51 28.41A3.64 3.64 0 0 1 36.85 31l.64 2 2-.89a3.64 3.64 0 0 1 4.8 1.55 4.3 4.3 0 0 1 .52 2.15A6.27 6.27 0 0 0 46.06 34a4.64 4.64 0 0 0-.06-4.12 3.65 3.65 0 0 0-4.8-1.55l-2 .89-.64-2.06a3.65 3.65 0 0 0-4.34-2.57 4.65 4.65 0 0 0-3.15 2.68 6 6 0 0 0-.52 2.19 4.22 4.22 0 0 1 1.96-1.05z" fill="#ff866e"/><path class="cls-5" d="M46 29.88a4.64 4.64 0 0 1 .06 4.12 6 6 0 0 1-3.45 3.22L34.36 40 31 32a6 6 0 0 1 .12-4.72 4.65 4.65 0 0 1 3.15-2.68 3.65 3.65 0 0 1 4.34 2.57l.64 2.06 2-.89A3.65 3.65 0 0 1 46 29.88z"/></g><g><g><path class="cls-5" d="M21.51 28.27a2 2 0 0 1 1-.27 2 2 0 1 1 0 4 2 2 0 1 1 0 4 2 2 0 0 1-1-.27"/></g></g><path d="M7 26.5c0 .83 1.12 1.5 2.5 1.5s2.5-.67 2.5-1.5S10.88 25 9.5 25 7 25.67 7 26.5z" fill="#ffaa54"/><path class="cls-5" d="M35.5 20.5a1.75 1.75 0 0 1-3.5 0"/><path class="cls-5" d="M11 20.5a1.75 1.75 0 0 1-3.5 0"/></g></svg>