<svg xmlns="http://www.w3.org/2000/svg" viewBox="0 0 48 48"><defs><style>.cls-7{fill:#45413c}.cls-5{fill:none}.cls-5,.cls-7{stroke:#45413c;stroke-linecap:round;stroke-linejoin:round}.cls-6{fill:#ffaa54}</style></defs><g><circle cx="24" cy="21.5" r="20" fill="#ffe500"/><path d="M24 1.5a20 20 0 1 0 20 20 20 20 0 0 0-20-20zm0 37a18.25 18.25 0 1 1 18.25-18.25A18.25 18.25 0 0 1 24 38.5z" fill="#ebcb00"/><ellipse cx="24" cy="5.5" rx="6" ry="1.5" fill="#fff48c"/><ellipse cx="24" cy="45.5" rx="16" ry="1.5" opacity=".15" fill="#45413c"/><circle class="cls-5" cx="24" cy="21.5" r="20"/><path class="cls-6" d="M38.5 23.5c0 .83-1.12 1.5-2.5 1.5s-2.5-.67-2.5-1.5S34.62 22 36 22s2.5.67 2.5 1.5z"/><path class="cls-6" d="M9.5 23.5c0 .83 1.12 1.5 2.5 1.5s2.5-.67 2.5-1.5S13.38 22 12 22s-2.5.67-2.5 1.5z"/><path class="cls-5" d="M30.35 30c-1.47-1.49-4.21-2.5-7.35-2.5a13.43 13.43 0 0 0-2.5.23"/><circle class="cls-7" cx="18.67" cy="19" r="1"/><circle class="cls-7" cx="28" cy="19.03" r="1"/><path class="cls-5" d="M21 15.5s-3-4.5-6.33-3"/><path class="cls-5" d="M33.5 15.5a11.77 11.77 0 0 1-6.95.83"/></g></svg>