<svg xmlns="http://www.w3.org/2000/svg" viewBox="0 0 48 48"><defs><style>.cls-7{fill:#45413c}.cls-5{fill:none}.cls-5,.cls-7{stroke:#45413c;stroke-linecap:round;stroke-linejoin:round}.cls-6{fill:#ffaa54}</style></defs><g><circle cx="24" cy="21.5" r="20" fill="#ffe500"/><path d="M24 1.5a20 20 0 1 0 20 20 20 20 0 0 0-20-20zm0 37a18.25 18.25 0 1 1 18.25-18.25A18.25 18.25 0 0 1 24 38.5z" fill="#ebcb00"/><ellipse cx="24" cy="5.5" rx="6" ry="1.5" fill="#fff48c"/><ellipse cx="24" cy="45.5" rx="16" ry="1.5" opacity=".15" fill="#45413c"/><circle class="cls-5" cx="24" cy="21.5" r="20"/><path class="cls-6" d="M38.5 26.5c0 .83-1.12 1.5-2.5 1.5s-2.5-.67-2.5-1.5S34.62 25 36 25s2.5.67 2.5 1.5z"/><path class="cls-6" d="M9.5 26.5c0 .83 1.12 1.5 2.5 1.5s2.5-.67 2.5-1.5S13.38 25 12 25s-2.5.67-2.5 1.5z"/><path class="cls-5" d="M31.46 29.4a7 7 0 0 1-9.32 3.36"/><path class="cls-7" d="M15.75 22.07a1.08 1.08 0 1 1-2.15 0c0-.52-2.85-1.07-2.85-1.07h3.93a1.07 1.07 0 0 1 1.07 1.07z"/><path class="cls-7" d="M36.75 22.07a1.08 1.08 0 1 1-2.15 0c0-.52-2.85-1.07-2.85-1.07h3.93a1.07 1.07 0 0 1 1.07 1.07z"/><g><path class="cls-5" d="M39.91 19.42a7 7 0 0 0-9.33-3.36"/><path class="cls-5" d="M8.09 19.42a7 7 0 0 1 9.33-3.36"/></g></g></svg>