<svg xmlns="http://www.w3.org/2000/svg" viewBox="0 0 48 48"><defs><style>.cls-5{fill:none;stroke:#45413c;stroke-linecap:round;stroke-linejoin:round}.cls-6{fill:#ffaa54}</style></defs><g><circle cx="24" cy="21.5" r="20" fill="#ffe500"/><path d="M24 1.5a20 20 0 1 0 20 20 20 20 0 0 0-20-20zm0 37a18.25 18.25 0 1 1 18.25-18.25A18.25 18.25 0 0 1 24 38.5z" fill="#ebcb00"/><ellipse cx="24" cy="5.5" rx="6" ry="1.5" fill="#fff48c"/><ellipse cx="24" cy="44.91" rx="16" ry="1.5" fill="#45413c" opacity=".15"/><circle class="cls-5" cx="24" cy="21.5" r="20"/><path class="cls-6" d="M38.5 26.5c0 .83-1.12 1.5-2.5 1.5s-2.5-.67-2.5-1.5S34.62 25 36 25s2.5.67 2.5 1.5z"/><path class="cls-6" d="M9.5 26.5c0 .83 1.12 1.5 2.5 1.5s2.5-.67 2.5-1.5S13.38 25 12 25s-2.5.67-2.5 1.5z"/><path class="cls-5" d="M36.26 18l-3.21 1.61a1 1 0 0 0 0 1.78L36.26 23"/><path class="cls-5" d="M11.74 18L15 19.61a1 1 0 0 1 0 1.78L11.74 23"/><path class="cls-5" d="M13 16a11.43 11.43 0 0 0 3.37-1.1 11.18 11.18 0 0 0 2.88-2.06"/><path class="cls-5" d="M35 16a11.43 11.43 0 0 1-3.37-1.1 11.18 11.18 0 0 1-2.88-2.06"/><path d="M19 31.5a9 9 0 0 1 10 0" stroke-miterlimit="10" fill="none" stroke="#45413c" stroke-linecap="round"/></g></svg>