<svg xmlns="http://www.w3.org/2000/svg" viewBox="0 0 48 48"><defs><style>.cls-4{fill:none}.cls-4,.cls-9{stroke:#45413c;stroke-linejoin:round}.cls-4{stroke-linecap:round}.cls-7{fill:#ffaa54}.cls-9{fill:#dabff5}</style></defs><g><ellipse cx="23.96" cy="45.41" rx="11.67" ry="1.59" fill="#45413c" opacity=".15"/><circle cx="24" cy="27.54" r="13.46" fill="#ffe500"/><path d="M24 14.09a13.46 13.46 0 1 0 13.46 13.45A13.46 13.46 0 0 0 24 14.09zM24 39a12.28 12.28 0 1 1 12.28-12.3A12.28 12.28 0 0 1 24 39z" fill="#ebcb00"/><circle class="cls-4" cx="24" cy="27.54" r="13.46"/><circle cx="24" cy="34.1" r="5.38" fill="#ffb0ca" stroke-linecap="round" stroke="#45413c" stroke-linejoin="round"/><ellipse cx="24" cy="36.96" rx="4.55" ry="2.52" fill="#ff866e" stroke-linecap="round" stroke="#45413c" stroke-linejoin="round"/><path class="cls-7" d="M34.77 31.58c0 .56-.76 1-1.69 1s-1.68-.45-1.68-1 .75-1 1.68-1 1.69.42 1.69 1z"/><path class="cls-7" d="M13.23 31.58c0 .56.76 1 1.69 1s1.68-.45 1.68-1-.75-1-1.68-1-1.69.42-1.69 1z"/><path d="M25.68 39.57a1.77 1.77 0 0 1 1-1.58 1.82 1.82 0 0 0 .62-.52l.56-.74a.67.67 0 0 1 1.21.4V39a1.18 1.18 0 0 1-1.18 1.18.5.5 0 0 0-.51.5v4.88a.84.84 0 0 1-1.68 0z" fill="#4aeff7" stroke-linecap="round" stroke="#45413c" stroke-linejoin="round"/><path class="cls-4" d="M33.42 27.54a1.18 1.18 0 1 1-2.35 0"/><path class="cls-4" d="M16.94 27.54a1.18 1.18 0 0 1-2.36 0"/><g><path class="cls-9" d="M25.57 17.69l-5.93-1.13a.93.93 0 0 1-.38-1.66l5.43-4-3.84-.73a1 1 0 0 1-.74-1.09.93.93 0 0 1 1.09-.74l5.94 1.13a.93.93 0 0 1 .37 1.66l-5.43 4 3.84.73a.93.93 0 1 1-.35 1.83z"/></g><g><path class="cls-9" d="M14.76 23.66L9.94 25.6a.8.8 0 0 1-1-1L11 19.15l-3.14 1.26a.8.8 0 0 1-1-.45.79.79 0 0 1 .44-1L12.08 17a.8.8 0 0 1 1.05 1l-2.08 5.41 3.12-1.25a.8.8 0 1 1 .59 1.48z"/></g><g><path class="cls-9" d="M17.58 14.17L6.3 16.38a1.44 1.44 0 0 1-1.46-2.24L12 4 4.17 5.57a1.44 1.44 0 1 1-.55-2.83L14.9.53a1.43 1.43 0 0 1 1.46 2.23L9.25 12.87 17 11.34a1.44 1.44 0 0 1 .55 2.83z"/></g><g><path d="M4.19 4.29l11.29-2.22a1.47 1.47 0 0 1 1.08.24 1.44 1.44 0 0 0-.17-1.16 1.43 1.43 0 0 0-1.48-.62L3.62 2.74a1.44 1.44 0 0 0-.54 2.6 1.44 1.44 0 0 1 1.11-1.05z" fill="#eddbff"/></g><g><path d="M17.58 14.17L6.3 16.38a1.44 1.44 0 0 1-1.46-2.24L12 4 4.17 5.57a1.44 1.44 0 1 1-.55-2.83L14.9.53a1.43 1.43 0 0 1 1.46 2.23L9.25 12.87 17 11.34a1.44 1.44 0 0 1 .55 2.83z" stroke="#45413c" stroke-linejoin="round" fill="none"/></g></g></svg>