<svg xmlns="http://www.w3.org/2000/svg" viewBox="0 0 48 48"><defs><style>.cls-4{fill:none;stroke:#45413c;stroke-linecap:round;stroke-linejoin:round}.cls-6{fill:#ffaa54}</style></defs><g><circle cx="24" cy="21.5" r="20" fill="#ffe500"/><path d="M24 1.5a20 20 0 1 0 20 20 20 20 0 0 0-20-20zm0 37a18.25 18.25 0 1 1 18.25-18.25A18.25 18.25 0 0 1 24 38.5z" fill="#ebcb00"/><ellipse cx="24" cy="5.5" rx="6" ry="1.5" fill="#fff48c"/><circle class="cls-4" cx="24" cy="21.5" r="20"/><ellipse cx="24" cy="45.5" rx="16" ry="1.5" opacity=".15" fill="#45413c"/><path class="cls-6" d="M40 26.5c0 .83-1.12 1.5-2.5 1.5s-2.5-.67-2.5-1.5 1.12-1.5 2.5-1.5 2.5.67 2.5 1.5z"/><path class="cls-6" d="M8 26.5c0 .83 1.12 1.5 2.5 1.5s2.5-.67 2.5-1.5-1.12-1.5-2.5-1.5-2.5.67-2.5 1.5z"/><g><path d="M16.47 27.93c.5 8 5.09 11 6.85 12a1.37 1.37 0 0 0 1.36 0c1.76-1 6.35-3.92 6.85-12a1.37 1.37 0 0 0-1.38-1.45h-12.3a1.37 1.37 0 0 0-1.38 1.45z" fill="#ffb0ca" stroke="#45413c" stroke-linecap="round" stroke-linejoin="round"/></g><g><path d="M24 33c0-1.5 4.5-1.06 4.5.5V40a4.5 4.5 0 0 1-9 0v-6.5c0-1.56 4.5-2 4.5-.5z" fill="#ff6242"/><path d="M24 33c0-1.5-4.5-1.06-4.5.5v2c0-1.56 9-1.56 9 0v-2c0-1.56-4.5-2-4.5-.5z" fill="#ff866e"/><path class="cls-4" d="M24 33c0-1.5 4.5-1.06 4.5.5V40a4.5 4.5 0 0 1-9 0v-6.5c0-1.56 4.5-2 4.5-.5z"/></g><path d="M35 21a1 1 0 1 0 1-1 1 1 0 0 0-1 1z" fill="#45413c" stroke="#45413c" stroke-linecap="round" stroke-linejoin="round"/><path class="cls-4" d="M9.5 21.5a1.75 1.75 0 0 1 3.5 0"/></g></svg>