<svg xmlns="http://www.w3.org/2000/svg" viewBox="0 0 48 48"><defs><style>.cls-6{fill:#45413c}.cls-5{fill:none}.cls-5,.cls-6{stroke:#45413c;stroke-linecap:round;stroke-linejoin:round}.cls-7{fill:#ffaa54}</style></defs><g><circle cx="24" cy="21.5" r="20" fill="#ffe500"/><path d="M24 1.5a20 20 0 1 0 20 20 20 20 0 0 0-20-20zm0 37a18.25 18.25 0 1 1 18.25-18.25A18.25 18.25 0 0 1 24 38.5z" fill="#ebcb00"/><ellipse cx="24" cy="5.5" rx="6" ry="1.5" fill="#fff48c"/><ellipse cx="24" cy="45.5" rx="16" ry="1.5" opacity=".15" fill="#45413c"/><circle class="cls-5" cx="24" cy="21.5" r="20"/><path id="_Line_" data-name="&lt;Line&gt;" class="cls-5" d="M21.5 31.5h10"/><path class="cls-5" d="M13.25 17.16A11.65 11.65 0 0 0 19.5 14"/><path class="cls-5" d="M34.75 17.16A11.65 11.65 0 0 1 28.5 14"/><path class="cls-6" d="M16 22.07a1.08 1.08 0 1 1-2.15 0C13.85 21.55 11 21 11 21h3.93A1.07 1.07 0 0 1 16 22.07z"/><path class="cls-6" d="M34 22.07a1.08 1.08 0 1 1-2.15 0C31.88 21.55 29 21 29 21h4a1.07 1.07 0 0 1 1 1.07z"/><path class="cls-7" d="M38 29c0 .83-1.12 1.5-2.5 1.5S33 29.83 33 29s1.12-1.5 2.5-1.5 2.5.67 2.5 1.5z"/><path class="cls-7" d="M10 29c0 .83 1.12 1.5 2.5 1.5S15 29.83 15 29s-1.12-1.5-2.5-1.5-2.5.67-2.5 1.5z"/></g></svg>