<svg xmlns="http://www.w3.org/2000/svg" viewBox="0 0 48 48"><defs><style>.cls-5{fill:none;stroke:#45413c;stroke-linecap:round;stroke-linejoin:round}.cls-8{fill:#ffaa54}</style></defs><g><circle cx="24" cy="21.5" r="20" fill="#ffe500"/><path d="M24 1.5a20 20 0 1 0 20 20 20 20 0 0 0-20-20zm0 37a18.25 18.25 0 1 1 18.25-18.25A18.25 18.25 0 0 1 24 38.5z" fill="#ebcb00"/><ellipse cx="24" cy="5.5" rx="6" ry="1.5" fill="#fff48c"/><ellipse cx="24" cy="45.5" rx="16" ry="1.5" fill="#45413c" opacity=".15"/><circle class="cls-5" cx="24" cy="21.5" r="20"/><g><path d="M47.5 33.5a5 5 0 0 1-10 0c0-2.76 5-11 5-11s5 8.24 5 11z" fill="#00b8f0"/><path d="M42.5 36a5 5 0 0 1-4.8-3.69 4.53 4.53 0 0 0-.2 1.19 5 5 0 0 0 10 0 4.53 4.53 0 0 0-.2-1.19A5 5 0 0 1 42.5 36z" fill="#009fd9"/><path class="cls-5" d="M47.5 33.5a5 5 0 0 1-10 0c0-2.76 5-11 5-11s5 8.24 5 11z"/></g><path class="cls-8" d="M38.5 26.5c0 .83-1.12 1.5-2.5 1.5s-2.5-.67-2.5-1.5S34.62 25 36 25s2.5.67 2.5 1.5z"/><path class="cls-8" d="M9.5 26.5c0 .83 1.12 1.5 2.5 1.5s2.5-.67 2.5-1.5S13.38 25 12 25s-2.5.67-2.5 1.5z"/><path d="M19 31.5a9 9 0 0 1 10 0" stroke-miterlimit="10" fill="none" stroke="#45413c" stroke-linecap="round"/><path class="cls-5" d="M10 22.25a1.75 1.75 0 0 1 3.5 0"/><path class="cls-5" d="M34.5 22.25a1.75 1.75 0 0 1 3.5 0"/></g></svg>