<svg xmlns="http://www.w3.org/2000/svg" viewBox="0 0 48 48"><defs><style>.cls-1{fill:#45413c;opacity:.15}.cls-2{fill:#ffe500}.cls-12,.cls-4{fill:none;stroke:#45413c;stroke-linejoin:round}.cls-4{stroke-linecap:round}.cls-5{fill:#ffaa54}.cls-10{fill:#fffacf}.cls-11{fill:#fff}</style></defs><g><ellipse class="cls-1" cx="24" cy="45.31" rx="12.38" ry="1.69"/><circle class="cls-2" cx="24" cy="17.86" r="16.36"/><path d="M24 1.5a16.37 16.37 0 1 0 16.36 16.36A16.36 16.36 0 0 0 24 1.5zm0 30.27a14.93 14.93 0 1 1 14.93-14.93A14.92 14.92 0 0 1 24 31.77z" fill="#ebcb00"/><circle class="cls-4" cx="24" cy="17.86" r="16.36"/><path class="cls-5" d="M37.09 22c0 .68-.91 1.23-2 1.23s-2-.55-2-1.23.92-1.22 2-1.22 2 .5 2 1.22z"/><path class="cls-5" d="M10.91 22c0 .68.91 1.23 2 1.23S15 22.63 15 22s-.92-1.22-2.05-1.22-2.04.5-2.04 1.22z"/><g><path d="M17.84 22.8c.41 6.58 4.16 9.31 5.6 10.12a1.17 1.17 0 0 0 1.12 0c1.44-.81 5.19-3.54 5.6-10.12A1.12 1.12 0 0 0 29 21.61H19a1.12 1.12 0 0 0-1.16 1.19z" fill="#ffb0ca" stroke-linecap="round" stroke="#45413c" stroke-linejoin="round"/></g><g><path d="M24 27.27c0-1.22 3.68-.86 3.68.41V33a3.68 3.68 0 0 1-7.36 0v-5.32c0-1.27 3.68-1.63 3.68-.41z" fill="#ff6242"/><path d="M24 27.27c0-1.22-3.68-.86-3.68.41v1.64c0-1.28 7.36-1.28 7.36 0v-1.64c0-1.27-3.68-1.63-3.68-.41z" fill="#ff866e"/><path class="cls-4" d="M24 27.27c0-1.22 3.68-.86 3.68.41V33a3.68 3.68 0 0 1-7.36 0v-5.32c0-1.27 3.68-1.63 3.68-.41z"/></g><path d="M28.34 41a1.65 1.65 0 1 1-3.27 0c0-1.45 1.63-3.44 1.63-3.44s1.64 2.01 1.64 3.44z" fill="#4aeff7" stroke-linecap="round" stroke="#45413c" stroke-linejoin="round"/><g><g><path class="cls-1" d="M30.23 2.73a9.2 9.2 0 1 0 10.13 15.05A16.36 16.36 0 0 0 30.23 2.73z"/><g><path class="cls-10" d="M42 9.58a8.49 8.49 0 1 1-8.49-8.49A8.49 8.49 0 0 1 42 9.58z"/><path class="cls-2" d="M33.51 16.47a8.49 8.49 0 0 1-8.45-7.69v.8a8.49 8.49 0 0 0 17 0v-.8a8.48 8.48 0 0 1-8.55 7.69z"/><path class="cls-11" d="M33.51 3.74a8.49 8.49 0 0 1 8.38 7.16A9.53 9.53 0 0 0 42 9.58a8.49 8.49 0 0 0-17 0 8.2 8.2 0 0 0 .12 1.32 8.49 8.49 0 0 1 8.39-7.16z"/><path class="cls-12" d="M42 9.58a8.49 8.49 0 1 1-8.49-8.49A8.49 8.49 0 0 1 42 9.58z"/></g></g><g><path class="cls-4" d="M33.51 4.51v10.14"/><path class="cls-4" d="M31.48 11.61a2 2 0 1 0 2-2 2 2 0 1 1 2-2"/></g></g><g><path class="cls-1" d="M17.77 2.73A9.2 9.2 0 1 1 7.64 17.78 16.36 16.36 0 0 1 17.77 2.73z"/><g><path class="cls-10" d="M6 9.58a8.49 8.49 0 1 0 8.49-8.49A8.49 8.49 0 0 0 6 9.58z"/><path class="cls-2" d="M14.49 16.47a8.49 8.49 0 0 0 8.45-7.69v.8a8.49 8.49 0 0 1-17 0v-.8a8.48 8.48 0 0 0 8.55 7.69z"/><path class="cls-11" d="M14.49 3.74a8.49 8.49 0 0 0-8.38 7.16A9.53 9.53 0 0 1 6 9.58a8.49 8.49 0 0 1 17 0 8.2 8.2 0 0 1-.12 1.32 8.49 8.49 0 0 0-8.39-7.16z"/><path class="cls-12" d="M6 9.58a8.49 8.49 0 1 0 8.49-8.49A8.49 8.49 0 0 0 6 9.58z"/></g></g><g><path class="cls-4" d="M14.57 4.51v10.14"/><path class="cls-4" d="M12.55 11.61a2 2 0 1 0 2-2 2 2 0 1 1 2-2"/></g></g></svg>