<svg xmlns="http://www.w3.org/2000/svg" viewBox="0 0 48 48"><defs><style>.cls-10{fill:#45413c}.cls-5{fill:none}.cls-10,.cls-5,.cls-9{stroke:#45413c;stroke-linecap:round;stroke-linejoin:round}.cls-6{fill:#ffaa54}.cls-9{fill:#fff}</style></defs><circle cx="24" cy="21.5" r="20" fill="#ffe500"/><path d="M24 1.5a20 20 0 1 0 20 20 20 20 0 0 0-20-20zm0 37a18.25 18.25 0 1 1 18.25-18.25A18.25 18.25 0 0 1 24 38.5z" fill="#ebcb00"/><ellipse cx="24" cy="5.5" rx="6" ry="1.5" fill="#fff48c"/><ellipse cx="24" cy="45.5" rx="16" ry="1.5" opacity=".15" fill="#45413c"/><circle class="cls-5" cx="24" cy="21.5" r="20"/><path class="cls-6" d="M38.5 26.5c0 .83-1.12 1.5-2.5 1.5s-2.5-.67-2.5-1.5S34.62 25 36 25s2.5.67 2.5 1.5z"/><path class="cls-6" d="M9.5 26.5c0 .83 1.12 1.5 2.5 1.5s2.5-.67 2.5-1.5S13.38 25 12 25s-2.5.67-2.5 1.5z"/><g stroke="#45413c" stroke-linecap="round" stroke-linejoin="round"><circle cx="24" cy="31.5" r="7.5" fill="#ffb0ca"/><ellipse cx="24" cy="35.48" rx="6.35" ry="3.52" fill="#ff866e"/></g><circle class="cls-9" cx="13.98" cy="16.25" r="5"/><path class="cls-10" d="M13 16.25a1 1 0 1 0 1-1 1 1 0 0 0-1 1z"/><circle class="cls-9" cx="34.02" cy="16.25" r="5"/><path class="cls-10" d="M35 16.25a1 1 0 1 1-1-1 1 1 0 0 1 1 1z"/><path class="cls-5" d="M19 9.69c-1.54-1.44-5.83-3.44-8.23-.06M29 9.69c1.54-1.44 5.83-3.44 8.23-.06"/></svg>