<svg xmlns="http://www.w3.org/2000/svg" viewBox="0 0 48 48"><defs><style>.cls-4{fill:none}.cls-4,.cls-8{stroke:#45413c;stroke-linecap:round;stroke-linejoin:round}.cls-6{fill:#ffaa54}.cls-8{fill:#fff}</style></defs><g><circle cx="24" cy="21.5" r="20" fill="#ffe500"/><path d="M24 1.5a20 20 0 1 0 20 20 20 20 0 0 0-20-20zm0 37a18.25 18.25 0 1 1 18.25-18.25A18.25 18.25 0 0 1 24 38.5z" fill="#ebcb00"/><ellipse cx="24" cy="5.5" rx="6" ry="1.5" fill="#fff48c"/><circle class="cls-4" cx="24" cy="21.5" r="20"/><ellipse cx="24" cy="45.5" rx="16" ry="1.5" fill="#45413c" opacity=".15"/><path class="cls-4" d="M10.75 15.5a11.43 11.43 0 0 1 3.37 1.1A11.35 11.35 0 0 1 17 18.66"/><path class="cls-4" d="M37.25 15.5A11.65 11.65 0 0 0 31 18.66"/><path class="cls-6" d="M38.5 26.5c0 .83-1.12 1.5-2.5 1.5s-2.5-.67-2.5-1.5S34.62 25 36 25s2.5.67 2.5 1.5z"/><path class="cls-6" d="M9.5 26.5c0 .83 1.12 1.5 2.5 1.5s2.5-.67 2.5-1.5S13.38 25 12 25s-2.5.67-2.5 1.5z"/><path d="M19 31.5a9 9 0 0 1 10 0" stroke-miterlimit="10" stroke="#45413c" stroke-linecap="round" fill="none"/><path class="cls-4" d="M38 20.5a1.75 1.75 0 0 1-3.5 0"/><path class="cls-4" d="M13.5 20.5a1.75 1.75 0 0 1-3.5 0"/><path class="cls-8" d="M41.69 34.86a2.62 2.62 0 0 0-3.54-1.09 2.55 2.55 0 0 0-.85.74L31 26a1.17 1.17 0 0 0-2 1.08l3.55 10a2.55 2.55 0 0 0-1.09.3A2.62 2.62 0 0 0 33.82 42a4.05 4.05 0 0 0 6.88-3.65 2.62 2.62 0 0 0 .99-3.49z"/><path class="cls-8" d="M6.31 34.86a2.62 2.62 0 0 1 3.54-1.09 2.55 2.55 0 0 1 .85.74L17 26a1.17 1.17 0 0 1 2 1.08L15.46 37a2.55 2.55 0 0 1 1.09.3 2.62 2.62 0 0 1-2.37 4.7 4.05 4.05 0 0 1-6.88-3.65 2.62 2.62 0 0 1-.99-3.49z"/></g></svg>