<svg xmlns="http://www.w3.org/2000/svg" viewBox="0 0 48 48"><defs><style>.cls-10{fill:#45413c}.cls-5{fill:none}.cls-10,.cls-5,.cls-7{stroke:#45413c;stroke-linecap:round;stroke-linejoin:round}.cls-6{fill:#ffaa54}.cls-7,.cls-8{fill:#fff}.cls-9{fill:#f0f0f0}</style></defs><g><circle cx="24" cy="21.5" r="20" fill="#ffe500"/><path d="M24 1.5a20 20 0 1 0 20 20 20 20 0 0 0-20-20zm0 37a18.25 18.25 0 1 1 18.25-18.25A18.25 18.25 0 0 1 24 38.5z" fill="#ebcb00"/><ellipse cx="24" cy="5.5" rx="6" ry="1.5" fill="#fff48c"/><ellipse cx="24" cy="45.5" rx="16" ry="1.5" opacity=".15" fill="#45413c"/><circle class="cls-5" cx="24" cy="21.5" r="20"/><path class="cls-6" d="M38.5 26.5c0 .83-1.12 1.5-2.5 1.5s-2.5-.67-2.5-1.5S34.62 25 36 25s2.5.67 2.5 1.5z"/><path class="cls-6" d="M9.5 26.5c0 .83 1.12 1.5 2.5 1.5s2.5-.67 2.5-1.5S13.38 25 12 25s-2.5.67-2.5 1.5z"/><path class="cls-7" d="M24 38.5a10.9 10.9 0 0 0 11-9.17 1 1 0 0 0-.31-.84 1.12 1.12 0 0 0-.91-.27 61.58 61.58 0 0 1-19.54 0 1.12 1.12 0 0 0-.91.27 1 1 0 0 0-.31.84A10.9 10.9 0 0 0 24 38.5z"/><path class="cls-7" d="M34 32.5A30.23 30.23 0 0 1 24 34a30.23 30.23 0 0 1-10-1.5"/><path class="cls-5" d="M24 29v9.5"/><path class="cls-5" d="M17.5 28.66c0 .6-.05 5.75 1.06 8.49"/><path class="cls-5" d="M30.5 28.66c0 .6.05 5.75-1.06 8.49"/><circle class="cls-8" cx="36.5" cy="14.5" r="8"/><circle class="cls-8" cx="12.5" cy="17.5" r="5"/><path class="cls-9" d="M36.5 19.5a8 8 0 0 1-7.85-6.5 7.48 7.48 0 0 0-.15 1.5 8 8 0 0 0 16 0 7.48 7.48 0 0 0-.15-1.5 8 8 0 0 1-7.85 6.5z"/><path class="cls-9" d="M12.5 20.62a5 5 0 0 1-4.91-4.06 5.87 5.87 0 0 0-.09.94 5 5 0 0 0 10 0 5.87 5.87 0 0 0-.09-.94 5 5 0 0 1-4.91 4.06z"/><circle class="cls-5" cx="36.5" cy="14.5" r="8"/><circle class="cls-5" cx="12.5" cy="17.5" r="5"/><path class="cls-10" d="M13.5 17.5a1 1 0 1 1-1-1 1 1 0 0 1 1 1z"/><path class="cls-10" d="M35.5 14.5a1 1 0 1 0 1-1 1 1 0 0 0-1 1z"/></g></svg>