<svg xmlns="http://www.w3.org/2000/svg" viewBox="0 0 48 48"><defs><style>.cls-2{fill:#e04122}.cls-4,.cls-5{fill:none;stroke:#45413c;stroke-linecap:round;stroke-linejoin:round}.cls-5{fill:#45413c}</style></defs><g><circle cx="24" cy="21.5" r="20" fill="#ff6242"/><path class="cls-2" d="M24 1.5a20 20 0 1 0 20 20 20 20 0 0 0-20-20zm0 37a18.25 18.25 0 1 1 18.25-18.25A18.25 18.25 0 0 1 24 38.5z"/><ellipse cx="24" cy="5.5" rx="6" ry="1.5" fill="#ff866e"/><circle class="cls-4" cx="24" cy="21.5" r="20"/><circle class="cls-5" cx="15.5" cy="22.5" r="1"/><path class="cls-4" d="M19.33 21s-3-4.5-6.33-3"/><path class="cls-4" d="M28.67 21s3-4.5 6.33-3"/><circle class="cls-5" cx="32.5" cy="22.5" r="1"/><path d="M19 31.5a9 9 0 0 1 10 0" stroke-miterlimit="10" stroke="#45413c" stroke-linecap="round" fill="none"/><g><path class="cls-4" d="M30.92 8.37a2.51 2.51 0 0 1-2.92 2"/><path class="cls-4" d="M34.4 13a3 3 0 0 1-1-4.13"/><path class="cls-4" d="M28.54 12.77A3 3 0 0 1 32.6 14"/></g><path class="cls-2" d="M38.5 27c0 .83-1.12 1.5-2.5 1.5s-2.5-.67-2.5-1.5 1.12-1.5 2.5-1.5 2.5.67 2.5 1.5z"/><path class="cls-2" d="M9.5 27c0 .83 1.12 1.5 2.5 1.5s2.5-.67 2.5-1.5-1.12-1.5-2.5-1.5-2.5.67-2.5 1.5z"/><ellipse cx="24" cy="45.5" rx="16" ry="1.5" opacity=".15" fill="#45413c"/></g></svg>