<svg xmlns="http://www.w3.org/2000/svg" viewBox="0 0 48 48"><defs><style>.cls-5{fill:#ffaa54}.cls-8{stroke:#45413c;stroke-linecap:round;stroke-linejoin:round;fill:none}</style></defs><g><circle cx="24" cy="21.5" r="20" fill="#ffe500"/><path d="M24 1.5a20 20 0 1 0 20 20 20 20 0 0 0-20-20zm0 37a18.25 18.25 0 1 1 18.25-18.25A18.25 18.25 0 0 1 24 38.5z" fill="#ebcb00"/><ellipse cx="24" cy="5.5" rx="6" ry="1.5" fill="#fff48c"/><ellipse cx="24" cy="45.5" rx="16" ry="1.5" fill="#45413c" opacity=".15"/><path class="cls-5" d="M38.5 26.5c0 .83-1.12 1.5-2.5 1.5s-2.5-.67-2.5-1.5S34.62 25 36 25s2.5.67 2.5 1.5z"/><path class="cls-5" d="M9.5 26.5c0 .83 1.12 1.5 2.5 1.5s2.5-.67 2.5-1.5S13.38 25 12 25s-2.5.67-2.5 1.5z"/><path d="M13 38.2a20 20 0 0 0 22 0v-8.7S29 27 24 27s-11 2.5-11 2.5z" stroke="#45413c" stroke-linecap="round" stroke-linejoin="round" fill="#8cffe4"/><path d="M24 27c-5 0-11 2.5-11 2.5V32s6-2.5 11-2.5S35 32 35 32v-2.5S29 27 24 27z" fill="#e5fff9"/><path class="cls-8" d="M13 38.2a20 20 0 0 0 22 0v-8.7S29 27 24 27s-11 2.5-11 2.5z"/><circle class="cls-8" cx="24" cy="21.5" r="20"/><path class="cls-8" d="M13 29.5l-9-7"/><path class="cls-8" d="M35 29.5l9-7"/><path class="cls-8" d="M35 33.5a7.69 7.69 0 0 0 4 1"/><path class="cls-8" d="M13 33.5a7.69 7.69 0 0 1-4 1"/><path id="_Line_" data-name="&lt;Line&gt;" class="cls-8" d="M16.5 21H11"/><path id="_Line_2" data-name="&lt;Line&gt;" class="cls-8" d="M37 21h-5.5"/><path class="cls-8" d="M13 16.16a11.43 11.43 0 0 0 3.37-1.1A11.18 11.18 0 0 0 19.25 13"/><path class="cls-8" d="M35 16.16a11.43 11.43 0 0 1-3.37-1.1A11.18 11.18 0 0 1 28.75 13"/></g></svg>