<svg xmlns="http://www.w3.org/2000/svg" viewBox="0 0 48 48"><defs><style>.cls-2{fill:#ebcb00}.cls-9{fill:#45413c}.cls-4{fill:none}.cls-4,.cls-9{stroke:#45413c;stroke-linecap:round;stroke-linejoin:round}.cls-5{fill:#e5f8ff}.cls-6{fill:#fff}.cls-8{fill:#ffaa54}</style></defs><g><circle cx="24" cy="26" r="15.5" fill="#ffe500"/><path class="cls-2" d="M37.06 17.68a15.47 15.47 0 0 0-26.14 0 3.07 3.07 0 0 0 3.7.54s3.08-1.54 9.38-1.54 9.34 1.55 9.34 1.55a3.11 3.11 0 0 0 3.72-.55z"/><path class="cls-2" d="M24 10.5A15.5 15.5 0 1 0 39.5 26 15.5 15.5 0 0 0 24 10.5zm0 28.68A14.15 14.15 0 1 1 38.14 25 14.15 14.15 0 0 1 24 39.18z"/><ellipse cx="24" cy="45.5" rx="12.4" ry="1.5" opacity=".15" fill="#45413c"/><circle class="cls-4" cx="24" cy="26" r="15.5"/><g><path class="cls-5" d="M36.35 10.89c-.42-.24-4.41-2.33-12.35-2.33s-11.93 2.09-12.35 2.33a3.12 3.12 0 0 0-1.23 4.23 3.09 3.09 0 0 0 4.2 1.21s3.08-1.57 9.38-1.57 9.35 1.56 9.38 1.57a3.09 3.09 0 0 0 4.2-1.21 3.12 3.12 0 0 0-1.23-4.23z"/><path class="cls-6" d="M11.65 12.83c.42-.24 4.41-2.33 12.35-2.33s11.93 2.09 12.35 2.33a3.11 3.11 0 0 1 1.45 1.77 3.12 3.12 0 0 0-1.45-3.71c-.42-.24-4.41-2.33-12.35-2.33s-11.93 2.09-12.35 2.33a3.12 3.12 0 0 0-1.45 3.71 3.11 3.11 0 0 1 1.45-1.77z"/><path d="M36.35 10.89c-.42-.24-4.41-2.33-12.35-2.33s-11.93 2.09-12.35 2.33a3.12 3.12 0 0 0-1.23 4.23 3.09 3.09 0 0 0 4.2 1.21s3.08-1.57 9.38-1.57 9.35 1.56 9.38 1.57a3.09 3.09 0 0 0 4.2-1.21 3.12 3.12 0 0 0-1.23-4.23z" stroke-miterlimit="10" stroke="#45413c" fill="none"/></g><path class="cls-8" d="M35.24 29.88c0 .64-.87 1.16-1.94 1.16s-1.94-.52-1.94-1.16.87-1.17 1.94-1.17 1.94.52 1.94 1.17z"/><path class="cls-8" d="M12.76 29.88c0 .64.87 1.16 1.94 1.16s1.94-.52 1.94-1.16-.87-1.17-1.94-1.17-1.94.52-1.94 1.17z"/><path class="cls-9" d="M16.64 25.23a.78.78 0 0 1-.78.77.78.78 0 0 1 0-1.55.78.78 0 0 1 .78.78z"/><path class="cls-9" d="M31.36 25.23a.78.78 0 0 0 .78.77.78.78 0 0 0 0-1.55.78.78 0 0 0-.78.78z"/><path class="cls-4" d="M15.57 22.64a8.77 8.77 0 0 0 2.61-.86 8.88 8.88 0 0 0 2.24-1.59"/><path class="cls-4" d="M32.43 22.64a8.77 8.77 0 0 1-2.61-.86 8.88 8.88 0 0 1-2.24-1.59"/><path class="cls-6" d="M27.72 46.84a2.33 2.33 0 0 1-2.86-1.62L22 34.8a7.07 7.07 0 0 1 4.92.34L29.34 44a2.33 2.33 0 0 1-1.62 2.84z"/><g><path class="cls-5" d="M29.34 44l-.19-.67a2.34 2.34 0 0 1-1.8 2.11 2.57 2.57 0 0 1-2.68-.89l.19.69A2.32 2.32 0 0 0 29.34 44z"/></g><path class="cls-4" d="M27.72 46.84a2.33 2.33 0 0 1-2.86-1.62L22 34.8a7.07 7.07 0 0 1 4.92.34L29.34 44a2.33 2.33 0 0 1-1.62 2.84z"/><path id="_Line_" data-name="&lt;Line&gt;" stroke="#ff6242" stroke-linejoin="round" stroke-linecap="round" fill="none" d="M27.27 43.75l-2.54-9.2"/><path id="_Line_2" data-name="&lt;Line&gt;" class="cls-4" d="M23.83 41.48l1.49-.41"/><path id="_Line_3" data-name="&lt;Line&gt;" class="cls-4" d="M24.45 43.72l1.49-.41"/><path id="_Line_4" data-name="&lt;Line&gt;" class="cls-4" d="M23.21 39.24l1.49-.41"/><path id="_Line_5" data-name="&lt;Line&gt;" class="cls-4" d="M22.59 37l1.5-.41"/><path d="M20.13 35.68a7 7 0 0 1 7.74 0" stroke-miterlimit="10" stroke-linecap="round" stroke="#45413c" fill="none"/><path class="cls-4" d="M17.09 1.68c-2.42 2.19 2.57 3.23-.38 5.55"/><path class="cls-4" d="M31.42 1.68C29 3.87 34 4.91 31 7.23"/><path class="cls-4" d="M24.26.5c-2.42 2.2 2.56 3.23-.39 5.55"/></g></svg>