<svg xmlns="http://www.w3.org/2000/svg" viewBox="0 0 48 48"><defs><style>.cls-2{fill:#46b000}.cls-6{fill:#45413c}.cls-5{fill:none}.cls-5,.cls-6{stroke:#45413c;stroke-linecap:round;stroke-linejoin:round}</style></defs><g><circle cx="24" cy="21.5" r="20" fill="#6dd627"/><path class="cls-2" d="M24 1.5a20 20 0 1 0 20 20 20 20 0 0 0-20-20zm0 37a18.25 18.25 0 1 1 18.25-18.25A18.25 18.25 0 0 1 24 38.5z"/><ellipse cx="24" cy="5.5" rx="6" ry="1.5" fill="#9ceb60"/><ellipse cx="24" cy="45.5" rx="16" ry="1.5" opacity=".15" fill="#45413c"/><circle class="cls-5" cx="24" cy="21.5" r="20"/><path class="cls-2" d="M38.5 27c0 .83-1.12 1.5-2.5 1.5s-2.5-.67-2.5-1.5 1.12-1.5 2.5-1.5 2.5.67 2.5 1.5z"/><path class="cls-2" d="M9.5 27c0 .83 1.12 1.5 2.5 1.5s2.5-.67 2.5-1.5-1.12-1.5-2.5-1.5-2.5.67-2.5 1.5z"/><path class="cls-6" d="M14.5 21.5a1 1 0 1 1-1-1 1 1 0 0 1 1 1z"/><path class="cls-6" d="M33.5 21.5a1 1 0 1 0 1-1 1 1 0 0 0-1 1z"/><path class="cls-5" d="M33.5 15s1.58 3.5 5 3.5"/><path class="cls-5" d="M14.5 15s-1.58 3.5-5 3.5"/><path class="cls-5" d="M18.5 29.02h11"/><path class="cls-5" d="M30.54 31.54a3.57 3.57 0 0 1 0-5"/><path class="cls-5" d="M17.46 26.5a3.57 3.57 0 0 1 0 5"/></g></svg>