<svg xmlns="http://www.w3.org/2000/svg" viewBox="0 0 48 48"><defs><style>.cls-11{fill:#45413c}.cls-2{fill:#00b8f0}.cls-10,.cls-11,.cls-2,.cls-6{stroke:#45413c;stroke-linecap:round;stroke-linejoin:round}.cls-6{fill:none}.cls-7{fill:#ff87af}.cls-8{fill:#ff6242}.cls-9{fill:#ff866e}.cls-10{fill:#4acfff}</style></defs><g><ellipse cx="23.99" cy="45.5" rx="16" ry="1.5" opacity=".15" fill="#45413c"/><path class="cls-2" d="M42.66 9.6A4.43 4.43 0 0 0 43.5 7 4.49 4.49 0 0 0 39 2.5a4.43 4.43 0 0 0-2.6.84A2.5 2.5 0 1 0 34 6.5a2.6 2.6 0 0 0 .56-.07 3.68 3.68 0 0 0-.06.57 4.49 4.49 0 0 0 4.5 4.5 3.68 3.68 0 0 0 .57-.06 2.6 2.6 0 0 0-.07.56 2.5 2.5 0 1 0 3.16-2.4z"/><path class="cls-2" d="M5.34 9.6A4.43 4.43 0 0 1 4.5 7 4.49 4.49 0 0 1 9 2.5a4.43 4.43 0 0 1 2.6.84A2.5 2.5 0 1 1 14 6.5a2.6 2.6 0 0 1-.56-.07 3.68 3.68 0 0 1 .06.57A4.49 4.49 0 0 1 9 11.5a3.68 3.68 0 0 1-.57-.06 2.6 2.6 0 0 1 .07.56 2.5 2.5 0 1 1-3.16-2.4z"/><circle cx="24" cy="22.5" r="20" fill="#fffce5"/><path d="M24 2.5a20 20 0 1 0 20 20 20 20 0 0 0-20-20zm0 37a18.25 18.25 0 1 1 18.25-18.25A18.25 18.25 0 0 1 24 39.5z" fill="#fffacf"/><ellipse cx="24" cy="6.5" rx="6" ry="1.5" fill="#fff"/><circle class="cls-6" cx="24" cy="22.5" r="20"/><path class="cls-7" d="M39 27.5c0 .83-1.12 1.5-2.5 1.5s-2.5-.67-2.5-1.5 1.12-1.5 2.5-1.5 2.5.67 2.5 1.5z"/><path class="cls-7" d="M9 27.5c0 .83 1.12 1.5 2.5 1.5s2.5-.67 2.5-1.5-1.12-1.5-2.5-1.5-2.5.67-2.5 1.5z"/><ellipse class="cls-8" cx="24" cy="26" rx="4.5" ry="3.5"/><path class="cls-9" d="M24 24.5a4.48 4.48 0 0 1 4.29 2.5 2.84 2.84 0 0 0 .21-1c0-1.93-2-3.5-4.5-3.5s-4.5 1.57-4.5 3.5a2.84 2.84 0 0 0 .21 1A4.48 4.48 0 0 1 24 24.5z"/><ellipse class="cls-6" cx="24" cy="26" rx="4.5" ry="3.5"/><path class="cls-8" d="M24 38a11.36 11.36 0 0 1-9-4 2.5 2.5 0 0 1 4-3 6.42 6.42 0 0 0 5 2 6.36 6.36 0 0 0 5-2 2.53 2.53 0 0 1 3.49-.48A2.48 2.48 0 0 1 33 34a11.36 11.36 0 0 1-9 4z"/><path class="cls-9" d="M32.49 30.52A2.53 2.53 0 0 0 29 31a6.36 6.36 0 0 1-5 2 6.42 6.42 0 0 1-5-2 2.49 2.49 0 0 0-4.49 1.29 2.75 2.75 0 0 1 4 .47A7.06 7.06 0 0 0 24 35a7.06 7.06 0 0 0 5.52-2.2 2.74 2.74 0 0 1 4-.47 2.49 2.49 0 0 0-1.03-1.81z"/><path class="cls-6" d="M24 38a11.36 11.36 0 0 1-9-4 2.5 2.5 0 0 1 4-3 6.42 6.42 0 0 0 5 2 6.36 6.36 0 0 0 5-2 2.53 2.53 0 0 1 3.49-.48A2.48 2.48 0 0 1 33 34a11.36 11.36 0 0 1-9 4z"/><path class="cls-6" d="M17.5 33s1.88 2.5 6.5 2.5 6.5-2.5 6.5-2.5"/><ellipse class="cls-10" cx="33.5" cy="20.5" rx="3.5" ry="4"/><ellipse class="cls-10" cx="14.5" cy="20.5" rx="3.5" ry="4"/><path class="cls-11" d="M15.5 20.5a1 1 0 1 1-1-1 1 1 0 0 1 1 1z"/><path class="cls-11" d="M32.5 20.5a1 1 0 1 0 1-1 1 1 0 0 0-1 1z"/><path class="cls-6" d="M30 14a4 4 0 0 1 3.5-2.5A4 4 0 0 1 37 14"/><path class="cls-6" d="M11 14a4 4 0 0 1 3.5-2.5A4 4 0 0 1 18 14"/></g></svg>