<svg xmlns="http://www.w3.org/2000/svg" viewBox="0 0 48 48"><defs><style>.cls-1{fill:#ffe500}.cls-2{fill:#ebcb00}.cls-7{fill:#45413c}.cls-5{fill:none}.cls-5,.cls-7{stroke:#45413c;stroke-linecap:round;stroke-linejoin:round}.cls-6{fill:#ffaa54}</style></defs><g><circle class="cls-1" cx="24" cy="21.5" r="20"/><path class="cls-2" d="M24 1.5a20 20 0 1 0 20 20 20 20 0 0 0-20-20zm0 37a18.25 18.25 0 1 1 18.25-18.25A18.25 18.25 0 0 1 24 38.5z"/><ellipse cx="24" cy="5.5" rx="6" ry="1.5" fill="#fff48c"/><ellipse cx="24" cy="45.5" rx="16" ry="1.5" opacity=".15" fill="#45413c"/><circle class="cls-5" cx="24" cy="21.5" r="20"/><path class="cls-6" d="M38.5 24.5c0 .83-1.12 1.5-2.5 1.5s-2.5-.67-2.5-1.5S34.62 23 36 23s2.5.67 2.5 1.5z"/><path class="cls-6" d="M9.5 24.5c0 .83 1.12 1.5 2.5 1.5s2.5-.67 2.5-1.5S13.38 23 12 23s-2.5.67-2.5 1.5z"/><path class="cls-7" d="M14.5 18.5a1 1 0 1 1-1-1 1 1 0 0 1 1 1z"/><path class="cls-7" d="M33.5 18.5a1 1 0 1 0 1-1 1 1 0 0 0-1 1z"/><path class="cls-5" d="M18.5 27a19 19 0 0 0 5.5 1 19 19 0 0 0 5.5-1"/><path d="M24 22.5a2 2 0 0 0-2 2V36h4V24.5a2 2 0 0 0-2-2z" stroke="#45413c" stroke-linecap="round" stroke-linejoin="round" fill="#ffe500"/><path class="cls-1" d="M20.4 45.5a6 6 0 0 0 3.73-1.32l5.1-4.18a2 2 0 0 0-1.88-3.52l-1.35.44v-3A3.89 3.89 0 0 0 22.11 30H20a2.5 2.5 0 0 0-2.5 2.5 3 3 0 0 0-3 3v4.1a5.9 5.9 0 0 0 5.9 5.9z"/><path class="cls-2" d="M29.23 38l-5.1 4.15a6 6 0 0 1-3.73 1.35 5.9 5.9 0 0 1-5.9-5.9v2a5.9 5.9 0 0 0 5.9 5.9 6 6 0 0 0 3.73-1.32l5.1-4.18a2 2 0 0 0 .54-2.49s-.33.35-.54.49z"/><path class="cls-5" d="M20.4 45.5a6 6 0 0 0 3.73-1.32l5.1-4.18a2 2 0 0 0-1.88-3.52l-1.35.44v-3A3.89 3.89 0 0 0 22.11 30H20a2.5 2.5 0 0 0-2.5 2.5 3 3 0 0 0-3 3v4.1a5.9 5.9 0 0 0 5.9 5.9z"/><path class="cls-5" d="M18.5 36v3.5a2 2 0 0 0 4 0v-1.75"/><path class="cls-5" d="M26 33.89v3.86a1.75 1.75 0 0 1-3.5 0v-2.22a3 3 0 0 0-3-3h-2"/></g></svg>