<svg xmlns="http://www.w3.org/2000/svg" viewBox="0 0 48 48"><defs><style>.cls-7{fill:#45413c}.cls-5{fill:none}.cls-5,.cls-7{stroke:#45413c;stroke-linecap:round;stroke-linejoin:round}.cls-6{fill:#ffaa54}.cls-8{fill:#87898c}.cls-9{fill:#bdbec0}</style></defs><g><ellipse cx="24" cy="45.5" rx="16" ry="1.5" opacity=".15" fill="#45413c"/><circle cx="24" cy="21.5" r="20" fill="#ffe500"/><path d="M24 1.5a20 20 0 1 0 20 20 20 20 0 0 0-20-20zm0 37a18.25 18.25 0 1 1 18.25-18.25A18.25 18.25 0 0 1 24 38.5z" fill="#ebcb00"/><ellipse cx="24" cy="5.5" rx="6" ry="1.5" fill="#fff48c"/><circle class="cls-5" cx="24" cy="21.5" r="20"/><path class="cls-6" d="M38.5 26.5c0 .83-1.12 1.5-2.5 1.5s-2.5-.67-2.5-1.5S34.62 25 36 25s2.5.67 2.5 1.5z"/><path class="cls-6" d="M9.5 26.5c0 .83 1.12 1.5 2.5 1.5s2.5-.67 2.5-1.5S13.38 25 12 25s-2.5.67-2.5 1.5z"/><path class="cls-7" d="M14.5 17.5a1 1 0 1 1-1-1 1 1 0 0 1 1 1z"/><path class="cls-7" d="M33.5 20.5a1 1 0 1 0 1-1 1 1 0 0 0-1 1z"/><path class="cls-8" d="M42.5 14H44a1.5 1.5 0 0 1 1.5 1.5V17a1.5 1.5 0 0 1-1.5 1.5h-1.5V14z"/><path class="cls-9" d="M44 14h-1.5v1.5H44a1.5 1.5 0 0 1 1.5 1.5v-1.5A1.5 1.5 0 0 0 44 14z"/><path class="cls-5" d="M42.5 14H44a1.5 1.5 0 0 1 1.5 1.5V17a1.5 1.5 0 0 1-1.5 1.5h-1.5V14z"/><circle class="cls-8" cx="35" cy="16.5" r="8.5"/><path class="cls-9" d="M35 10a8.5 8.5 0 0 1 8.44 7.5c0-.33.06-.66.06-1a8.5 8.5 0 0 0-17 0c0 .34 0 .67.06 1A8.5 8.5 0 0 1 35 10z"/><circle class="cls-5" cx="35" cy="16.5" r="8.5"/><circle cx="35" cy="16.5" r="6.5" fill="#00b8f0"/><path d="M35 10a6.5 6.5 0 0 0-5.65 9.71l7.82-9.33A6.51 6.51 0 0 0 35 10z" fill="#4acfff"/><circle class="cls-5" cx="35" cy="16.5" r="6.5"/><path class="cls-5" d="M45.5 16s1.5.06 1.5 2v17a3.72 3.72 0 0 1-4 4 3.68 3.68 0 0 1-4-4v-.27"/><path class="cls-5" d="M21 28.62a6.61 6.61 0 0 1 3-.62 6.61 6.61 0 0 1 3 .62"/><path class="cls-5" d="M11 15s.42-2.5 2.5-2.5S16 15 16 15"/></g></svg>