<svg xmlns="http://www.w3.org/2000/svg" viewBox="0 0 48 48"><defs><style>.cls-1{fill:#803ec2}.cls-1,.cls-6,.cls-7{stroke:#45413c;stroke-linecap:round;stroke-linejoin:round}.cls-7{fill:#45413c}.cls-6{fill:none}.cls-8{fill:#eddbff}</style></defs><g><path class="cls-1" d="M32.15 10.49a19.43 19.43 0 0 0 6.28-3.32 15.83 15.83 0 0 0 3.63-3.86.63.63 0 0 1 1.09.13 11.3 11.3 0 0 1-.46 8.94c-2.6 5.56-5.5 6.92-5.5 6.92z"/><path class="cls-1" d="M15.85 10.49a19.43 19.43 0 0 1-6.28-3.32 15.83 15.83 0 0 1-3.63-3.86.63.63 0 0 0-1.09.13 11.3 11.3 0 0 0 .46 8.94c2.6 5.56 5.5 6.92 5.5 6.92z"/><circle cx="24" cy="23.44" r="18.06" fill="#9f5ae5"/><path d="M24 5.38a18.06 18.06 0 1 0 18.06 18.06A18.06 18.06 0 0 0 24 5.38zm0 33.41a16.48 16.48 0 1 1 16.48-16.48A16.48 16.48 0 0 1 24 38.79z" fill="#803ec2"/><ellipse cx="24" cy="8.99" rx="5.42" ry="1.35" fill="#bf8df2"/><ellipse cx="24" cy="45.44" rx="15.63" ry="1.56" opacity=".15" fill="#45413c"/><circle class="cls-6" cx="24" cy="23.44" r="18.06"/><path class="cls-7" d="M16.2 22.54a.9.9 0 1 1-.9-.91.9.9 0 0 1 .9.91z"/><path class="cls-7" d="M31.8 22.54a.9.9 0 1 0 .9-.91.9.9 0 0 0-.9.91z"/><path class="cls-8" d="M37.09 28c0 .75-1 1.36-2.25 1.36s-2.26-.66-2.26-1.36 1-1.35 2.26-1.35 2.25.56 2.25 1.35z"/><path class="cls-8" d="M10.91 28c0 .75 1 1.36 2.25 1.36s2.26-.61 2.26-1.36-1-1.35-2.26-1.35-2.25.56-2.25 1.35z"/><path class="cls-6" d="M17.84 31.46A9.3 9.3 0 0 0 24 33.37a9.3 9.3 0 0 0 6.16-1.91"/><path class="cls-6" d="M30.84 22.92a4.9 4.9 0 0 1 4.44-2.57"/><path class="cls-6" d="M17.16 22.92a4.9 4.9 0 0 0-4.44-2.57"/></g></svg>