<svg xmlns="http://www.w3.org/2000/svg" viewBox="0 0 48 48"><defs><style>.cls-4{fill:#45413c}.cls-11,.cls-4,.cls-5{stroke:#45413c;stroke-linecap:round;stroke-linejoin:round}.cls-5{fill:none}.cls-7{fill:#ffaa54}.cls-9{fill:#f0f0f0}.cls-10,.cls-11{fill:#fff}</style></defs><g><circle cx="19.27" cy="22.27" r="17.77" fill="#ffe500"/><path d="M19.27 4.5a17.78 17.78 0 1 0 17.78 17.77A17.78 17.78 0 0 0 19.27 4.5zm0 32.88a16.22 16.22 0 1 1 16.22-16.22 16.22 16.22 0 0 1-16.22 16.22z" fill="#ebcb00"/><ellipse cx="19.27" cy="8.05" rx="5.33" ry="1.33" fill="#fff48c"/><circle class="cls-4" cx="11.72" cy="23.16" r=".89"/><path class="cls-5" d="M15.12 21.83s-2.67-4-5.62-2.67"/><path class="cls-5" d="M23.42 21.83s2.67-4 5.63-2.67"/><circle class="cls-4" cx="26.83" cy="23.16" r=".89"/><path d="M14.83 31.16a8 8 0 0 1 8.89 0" stroke-miterlimit="10" fill="none" stroke="#45413c" stroke-linecap="round"/><path class="cls-7" d="M32.16 27.16c0 .74-1 1.34-2.22 1.34s-2.22-.6-2.22-1.34 1-1.33 2.22-1.33 2.22.6 2.22 1.33z"/><path class="cls-7" d="M6.39 27.16c0 .74 1 1.34 2.22 1.34s2.22-.6 2.22-1.34-1-1.33-2.22-1.33-2.22.6-2.22 1.33z"/><ellipse cx="18.94" cy="44.46" rx="14.22" ry="1.5" opacity=".15" fill="#45413c"/><circle class="cls-5" cx="19.27" cy="22.27" r="17.77"/><path class="cls-9" d="M33.49 11.61H3.24a.9.9 0 0 0-.71.35 16.61 16.61 0 0 0-1.95 3.28.89.89 0 0 0 .06.85.92.92 0 0 0 .75.41h34.7a17.67 17.67 0 0 0-2.6-4.89z"/><path class="cls-10" d="M33.49 11.61H3.24a.9.9 0 0 0-.71.35 16.36 16.36 0 0 0-1 1.43h33.14a17.7 17.7 0 0 0-1.18-1.78z"/><path class="cls-5" d="M33.49 11.61H3.24a.9.9 0 0 0-.71.35 16.61 16.61 0 0 0-1.95 3.28.89.89 0 0 0 .06.85.92.92 0 0 0 .75.41h34.7a17.67 17.67 0 0 0-2.6-4.89z"/><path class="cls-11" d="M34.38 14.28s4.88 5.45 12.14 4.79a.88.88 0 0 1 .93 1.15 34.16 34.16 0 0 1-1.82 4.24.89.89 0 0 1-1.11.44c-2.44-.9-10.01-4.29-10.14-10.62z"/><path class="cls-11" d="M34.31 12.89s1.66 8.8 7.11 14.27a.88.88 0 0 1-.31 1.44 21.34 21.34 0 0 1-5.92 1.2.89.89 0 0 1-.93-.75c-.44-2.89-1.78-12.92.05-16.16z"/><path class="cls-9" d="M37.49 14.05a2.89 2.89 0 0 1-2.89 2.89h-.44a2.89 2.89 0 1 1 0-5.77h.44a2.88 2.88 0 0 1 2.89 2.88z"/><path class="cls-10" d="M34.16 13h.44a2.89 2.89 0 0 1 2.75 2 3 3 0 0 0 .14-.9 2.88 2.88 0 0 0-2.89-2.88h-.44a2.88 2.88 0 0 0-2.89 2.88 3 3 0 0 0 .14.9 2.9 2.9 0 0 1 2.75-2z"/><path class="cls-5" d="M37.49 14.05a2.89 2.89 0 0 1-2.89 2.89h-.44a2.89 2.89 0 1 1 0-5.77h.44a2.88 2.88 0 0 1 2.89 2.88z"/></g></svg>