<svg xmlns="http://www.w3.org/2000/svg" viewBox="0 0 48 48"><defs><style>.cls-1{fill:#f0f0f0}.cls-1,.cls-9{stroke:#45413c;stroke-linecap:round;stroke-linejoin:round}.cls-3{fill:#e0e0e0}.cls-7{fill:#656769}.cls-8{fill:#525252}.cls-9{fill:none}</style></defs><path class="cls-1" d="M46.52 11.29a1.89 1.89 0 0 0-2.77 1.38 8.54 8.54 0 0 1-4.35 6.21v1.06c0 3.22.13 5.92.35 8.18l1.79-1.87a21.56 21.56 0 0 0 5.95-13.15 1.9 1.9 0 0 0-.97-1.81zM8.21 28.12c.22-2.26.35-5 .35-8.18v-1.06a8.54 8.54 0 0 1-4.35-6.21 1.88 1.88 0 0 0-3.74.43 21.56 21.56 0 0 0 5.95 13.15z"/><path d="M39.44 19.94a15.44 15.44 0 0 0-30.88 0c0 18.14-4.28 19.68-2.7 19.68 3.78 0 4.63-1.93 7-1.93s3.09 1.93 5.79 1.93 3.08-1.93 5.4-1.93 2.7 1.93 5.4 1.93 3.48-1.93 5.79-1.93 3.17 1.93 7 1.93c1.48 0-2.8-1.54-2.8-19.68z" fill="#f0f0f0"/><path class="cls-3" d="M35.91 35.46c-2.46 0-3.28 1.9-6.16 1.9s-3.29-1.9-5.75-1.9-2.88 1.9-5.75 1.9-3.7-1.9-6.16-1.9C10 35.46 9 36.79 6.4 37.22c-.76 2.07-1.26 2.4-.54 2.4 3.78 0 4.63-1.93 7-1.93s3.09 1.93 5.79 1.93 3.08-1.93 5.4-1.93 2.7 1.93 5.4 1.93 3.48-1.93 5.79-1.93 3.17 1.93 7 1.93c.72 0 .22-.33-.54-2.4-2.7-.43-3.7-1.76-5.79-1.76z"/><ellipse cx="24" cy="7.59" rx="4.63" ry="1.16" fill="#fff"/><ellipse cx="24" cy="44.5" rx="17.5" ry="1.5" fill="#45413c" opacity=".15"/><path d="M12.81 23.8c0 .64.86 1.15 1.93 1.15s1.93-.51 1.93-1.15-.87-1.16-1.93-1.16-1.93.52-1.93 1.16z" fill="#ffaa54"/><path class="cls-3" d="M12.81 23.8c0 .64.86 1.15 1.93 1.15s1.93-.51 1.93-1.15-.87-1.16-1.93-1.16-1.93.52-1.93 1.16z"/><path class="cls-3" d="M35.19 23.8c0 .64-.86 1.15-1.93 1.15s-1.93-.51-1.93-1.15.87-1.16 1.93-1.16 1.93.52 1.93 1.16z"/><path class="cls-7" d="M33.26 18.39a2.7 2.7 0 1 1-2.7-2.7 2.7 2.7 0 0 1 2.7 2.7z"/><path class="cls-8" d="M30.56 17.24a2.7 2.7 0 0 1 2.58 1.92 2.76 2.76 0 0 0 .12-.77 2.7 2.7 0 1 0-5.4 0 2.76 2.76 0 0 0 .12.77 2.7 2.7 0 0 1 2.58-1.92z"/><path class="cls-9" d="M33.26 18.39a2.7 2.7 0 1 1-2.7-2.7 2.7 2.7 0 0 1 2.7 2.7z"/><path class="cls-7" d="M13.58 17.24a3.86 3.86 0 1 0 3.86-3.86 3.85 3.85 0 0 0-3.86 3.86z"/><path class="cls-8" d="M17.44 15.31a3.84 3.84 0 0 1 3.72 2.89 3.86 3.86 0 1 0-7.44 0 3.84 3.84 0 0 1 3.72-2.89z"/><path class="cls-9" d="M13.58 17.24a3.86 3.86 0 1 0 3.86-3.86 3.85 3.85 0 0 0-3.86 3.86z"/><path class="cls-9" d="M39.44 19.94a15.44 15.44 0 0 0-30.88 0c0 18.14-4.28 19.68-2.7 19.68 3.78 0 4.63-1.93 7-1.93s3.09 1.93 5.79 1.93 3.08-1.93 5.4-1.93 2.7 1.93 5.4 1.93 3.48-1.93 5.79-1.93 3.17 1.93 7 1.93c1.48 0-2.8-1.54-2.8-19.68z"/><g><path d="M18.19 25.67c.38 6.21 3.93 8.47 5.28 9.24a1.11 1.11 0 0 0 1.06 0c1.35-.77 4.9-3 5.28-9.24a1.06 1.06 0 0 0-1.06-1.12h-9.5a1.06 1.06 0 0 0-1.06 1.12z" fill="#ffb0ca" stroke="#45413c" stroke-linecap="round" stroke-linejoin="round"/></g><g><path d="M24 29.58c0-1.15 3.47-.81 3.47.39v5a3.47 3.47 0 0 1-6.94 0V30c0-1.23 3.47-1.57 3.47-.42z" fill="#ff6242"/><path d="M24 29.58c0-1.15-3.47-.81-3.47.39v1.54c0-1.2 6.94-1.2 6.94 0V30c0-1.23-3.47-1.57-3.47-.42z" fill="#ff866e"/><path class="cls-9" d="M24 29.58c0-1.15 3.47-.81 3.47.39v5a3.47 3.47 0 0 1-6.94 0V30c0-1.23 3.47-1.57 3.47-.42z"/></g></svg>