<svg xmlns="http://www.w3.org/2000/svg" viewBox="0 0 48 48"><defs><style>.cls-2{fill:#00ad85}.cls-5{fill:none;stroke:#45413c;stroke-linecap:round;stroke-linejoin:round}.cls-6{fill:#bf8df2}.cls-7{fill:#dabff5}</style></defs><g><path d="M44 19c0 11.05-13.5 22.5-20 22.5S4 30.05 4 19 13 1.5 24 1.5 44 8 44 19z" fill="#00dba8"/><path class="cls-2" d="M24 38.39c-6.22 0-18.82-10.47-19.91-21C4 17.89 4 18.43 4 19c0 11.05 13.5 22.5 20 22.5S44 30.05 44 19c0-.57 0-1.11-.08-1.65-1.1 10.57-13.7 21.04-19.92 21.04z"/><path d="M29 30a9 9 0 0 1-10 0" stroke-miterlimit="10" fill="none" stroke="#45413c" stroke-linecap="round"/><ellipse cx="24" cy="45.5" rx="16" ry="1.5" fill="#45413c" opacity=".15"/><path class="cls-5" d="M44 19c0 11.05-13.5 22.5-20 22.5S4 30.05 4 19 13 1.5 24 1.5 44 8 44 19z"/><g><path class="cls-6" d="M10.88 12.41c-2.37 1.81-2.44 5.7-.17 8.69s6.28 3.45 9 3.06a8.78 8.78 0 0 0-.41-9.61c-2.3-2.99-6.04-3.94-8.42-2.14z"/><path class="cls-7" d="M19.3 14.55c-2.27-3-6-3.94-8.42-2.14a5.3 5.3 0 0 0-1.67 5.44 4.64 4.64 0 0 1 1.67-2.71c2.38-1.81 6.15-.85 8.42 2.13A8.24 8.24 0 0 1 20.85 21a8.71 8.71 0 0 0-1.55-6.45z"/><path class="cls-5" d="M10.88 12.41c-2.37 1.81-2.44 5.7-.17 8.69s6.28 3.45 9 3.06a8.78 8.78 0 0 0-.41-9.61c-2.3-2.99-6.04-3.94-8.42-2.14z"/></g><g><path class="cls-6" d="M37.12 12.41c2.37 1.81 2.44 5.7.17 8.69s-6.28 3.45-9 3.06a8.78 8.78 0 0 1 .41-9.61c2.3-2.99 6.04-3.94 8.42-2.14z"/><path class="cls-7" d="M28.7 14.55c2.27-3 6-3.94 8.42-2.14a5.3 5.3 0 0 1 1.67 5.44 4.64 4.64 0 0 0-1.67-2.71c-2.38-1.81-6.15-.85-8.42 2.13A8.24 8.24 0 0 0 27.15 21a8.71 8.71 0 0 1 1.55-6.45z"/><path class="cls-5" d="M37.12 12.41c2.37 1.81 2.44 5.7.17 8.69s-6.28 3.45-9 3.06a8.78 8.78 0 0 1 .41-9.61c2.3-2.99 6.04-3.94 8.42-2.14z"/></g><path id="_Line_" data-name="&lt;Line&gt;" class="cls-5" d="M25.5 26v1.5"/><path id="_Line_2" data-name="&lt;Line&gt;" class="cls-5" d="M22.5 26v1.5"/><ellipse class="cls-2" cx="13.31" cy="28.17" rx="2.5" ry="1.5"/><ellipse class="cls-2" cx="34.69" cy="28.17" rx="2.5" ry="1.5"/><ellipse cx="24.04" cy="5.39" rx="6" ry="1.5" fill="#00f5bc"/></g></svg>