<svg xmlns="http://www.w3.org/2000/svg" viewBox="0 0 48 48"><defs><style>.cls-4{fill:#45413c;stroke:#45413c;stroke-linecap:round;stroke-linejoin:round}.cls-8{fill:#915e3a}</style></defs><g><ellipse cx="24" cy="45.5" rx="11" ry="1.5" opacity=".15" fill="#45413c"/><path d="M38 24.86a5 5 0 0 0 .94-2.9c0-2.88-1.87-5-6.42-5a4.27 4.27 0 0 0-2.82-7.47h-5.17c-1-.34-2.18-2.57-1.62-5.07a.7.7 0 0 0-.78-.84c-7.88 1.19-9.36 11-7.06 13.38C8.91 17 8 22.11 10 24.86c-9.24 3-7 16.64 2.61 16.64h22.76C45 41.5 47.22 27.83 38 24.86z" fill="#bf8256"/><g><path d="M13.42 25.76a4.76 4.76 0 0 1 3.88-6.32 1.38 1.38 0 0 0 1.09-1.69 10.51 10.51 0 0 1 4.52-10.66 5.87 5.87 0 0 1 0-2.64.72.72 0 0 0-.17-.63.73.73 0 0 0-.61-.21c-7.88 1.19-9.36 11-7.06 13.38C8.91 17 8 22.11 10 24.86c-8.56 2.75-7.31 14.69.62 16.42C7 37.5 7.28 30.46 12.7 27.71a1.61 1.61 0 0 0 .72-1.95z" fill="#dea47a"/></g><path class="cls-4" d="M15 28.15a.91.91 0 1 1-.91-.91.91.91 0 0 1 .91.91z"/><path class="cls-4" d="M35.49 28.15a.91.91 0 1 1-.91-.91.91.91 0 0 1 .91.91z"/><g stroke="#45413c" stroke-linecap="round" stroke-linejoin="round"><path d="M18.16 31.33a.92.92 0 0 0-.9 1.05 6.82 6.82 0 0 0 13.48 0 .92.92 0 0 0-.9-1.05z" fill="#ffb0ca"/><path d="M29.37 35.52A10.87 10.87 0 0 0 24 34.26a10.87 10.87 0 0 0-5.37 1.26 6.8 6.8 0 0 0 10.74 0z" fill="#ff87af"/></g><path d="M38 24.86a5 5 0 0 0 .94-2.9c0-2.88-1.87-5-6.42-5a4.27 4.27 0 0 0-2.82-7.47h-5.17c-1-.34-2.18-2.57-1.62-5.07a.72.72 0 0 0-.17-.63.73.73 0 0 0-.61-.21c-7.88 1.19-9.36 11-7.06 13.38C8.91 17 8 22.11 10 24.86c-9.24 3-7 16.64 2.61 16.64h22.76C45 41.5 47.22 27.83 38 24.86z" fill="none" stroke="#45413c" stroke-linecap="round" stroke-linejoin="round"/><ellipse class="cls-8" cx="11.4" cy="32.7" rx="2.27" ry="1.36"/><ellipse class="cls-8" cx="37.31" cy="32.7" rx="2.27" ry="1.36"/></g></svg>