<svg xmlns="http://www.w3.org/2000/svg" viewBox="0 0 48 48"><defs><style>.cls-1{fill:#ffe500}.cls-2{fill:#ffa694}.cls-3{fill:#fff48c}.cls-4{fill:none}.cls-4,.cls-7{stroke:#45413c;stroke-linecap:round;stroke-linejoin:round}.cls-5{fill:#ff866e}.cls-7{fill:#45413c}</style></defs><path class="cls-1" d="M27.12 8.68s8.43-5.74 11.57-3.15-1.21 13.21-1.21 13.21z"/><path class="cls-2" d="M28.49 10.87s6-4.35 8.14-2.6-1.12 9.41-1.12 9.41z"/><path class="cls-1" d="M20.88 8.68S12.45 2.94 9.31 5.53s1.21 13.21 1.21 13.21z"/><path class="cls-3" d="M38.69 7.72a3.51 3.51 0 0 1 1.09 2.38c.18-2 0-3.71-1.09-4.57-3.14-2.59-11.57 3.15-11.57 3.15L28.49 10c2.51-1.48 7.85-4.22 10.2-2.28z"/><path class="cls-3" d="M9.31 7.72c2.35-1.94 7.68.8 10.2 2.29l1.37-1.33S12.45 2.94 9.31 5.53C8.26 6.39 8 8.14 8.22 10.1a3.51 3.51 0 0 1 1.09-2.38z"/><path class="cls-4" d="M27.12 8.68s8.43-5.74 11.57-3.15-1.21 13.21-1.21 13.21z"/><path class="cls-4" d="M20.88 8.68S12.45 2.94 9.31 5.53s1.21 13.21 1.21 13.21z"/><path class="cls-2" d="M19.51 10.87s-6-4.35-8.14-2.6 1.12 9.41 1.12 9.41z"/><path class="cls-5" d="M36.63 10.52a2 2 0 0 1 .63 1.17c.2-1.48.11-2.81-.63-3.42-2.13-1.75-8.14 2.6-8.14 2.6l1.38 1.34c1.9-1.21 5.27-2.92 6.76-1.69z"/><path class="cls-5" d="M11.37 10.52c1.49-1.23 4.86.52 6.76 1.69l1.38-1.34s-6-4.35-8.14-2.6c-.74.61-.83 1.94-.63 3.42a2 2 0 0 1 .63-1.17z"/><path class="cls-4" d="M28.49 10.87s6-4.35 8.14-2.6-1.12 9.41-1.12 9.41z"/><path class="cls-4" d="M19.51 10.87s-6-4.35-8.14-2.6 1.12 9.41 1.12 9.41z"/><ellipse cx="24" cy="43.5" rx="11" ry="1.5" opacity=".15" fill="#45413c"/><path class="cls-1" d="M39.33 28.91l-.94-8.71A14.26 14.26 0 0 0 24 7.75 14.26 14.26 0 0 0 9.61 20.2l-.94 8.71a8.09 8.09 0 0 0 8.25 8.77h.46c1.25 1.55 3.74 2.61 6.62 2.61s5.37-1.06 6.62-2.61h.46a8.09 8.09 0 0 0 8.25-8.77z"/><path class="cls-3" d="M9.61 23.88A14.25 14.25 0 0 1 24 11.44a14.26 14.26 0 0 1 14.39 12.44l.81 7.49a7.74 7.74 0 0 0 .13-2.46l-.94-8.71A14.27 14.27 0 0 0 24 7.75 14.26 14.26 0 0 0 9.61 20.2l-.94 8.71a7.74 7.74 0 0 0 .13 2.46z"/><path class="cls-4" d="M39.33 28.91l-.94-8.71A14.26 14.26 0 0 0 24 7.75 14.26 14.26 0 0 0 9.61 20.2l-.94 8.71a8.09 8.09 0 0 0 8.25 8.77h.46c1.25 1.55 3.74 2.61 6.62 2.61s5.37-1.06 6.62-2.61h.46a8.09 8.09 0 0 0 8.25-8.77z"/><path class="cls-5" d="M26.68 29.59A3 3 0 0 1 24 31.82a3 3 0 0 1-2.68-2.23c0-.68 1.2-1.23 2.68-1.23s2.68.55 2.68 1.23z"/><path class="cls-2" d="M24 29.86a4 4 0 0 1 2.32.61 1.72 1.72 0 0 0 .36-.88c0-.68-1.2-1.23-2.68-1.23s-2.68.55-2.68 1.23a1.72 1.72 0 0 0 .36.88 4 4 0 0 1 2.32-.61z"/><path class="cls-4" d="M26.68 29.59A3 3 0 0 1 24 31.82a3 3 0 0 1-2.68-2.23c0-.68 1.2-1.23 2.68-1.23s2.68.55 2.68 1.23z"/><path class="cls-7" d="M15.92 24a1.15 1.15 0 1 0 1.15-1.15A1.14 1.14 0 0 0 15.92 24z"/><path class="cls-7" d="M32.08 24a1.15 1.15 0 1 1-1.15-1.15A1.14 1.14 0 0 1 32.08 24z"/><g stroke="#45413c" stroke-linecap="round" stroke-linejoin="round"><path d="M19.78 33.3a.66.66 0 0 0-.5.23.65.65 0 0 0-.15.52 4.94 4.94 0 0 0 9.74 0 .65.65 0 0 0-.15-.52.66.66 0 0 0-.5-.23z" fill="#ffb0ca"/><path d="M27.88 36.32a7.89 7.89 0 0 0-3.88-.91 7.89 7.89 0 0 0-3.88.91 5 5 0 0 0 7.76 0z" fill="#ff87af"/></g><path class="cls-4" d="M31.11 30.18l5.42-.83"/><path class="cls-4" d="M31.11 32.64l5.42.75"/><path class="cls-4" d="M16.89 30.18l-5.42-.83"/><path class="cls-4" d="M16.89 32.64l-5.42.75"/></svg>