<svg xmlns="http://www.w3.org/2000/svg" viewBox="0 0 48 48"><defs><style>.cls-1{fill:#ffe500}.cls-2{fill:#ffa694}.cls-3{fill:#fff48c}.cls-4{fill:none;stroke:#45413c;stroke-linecap:round;stroke-linejoin:round}.cls-5{fill:#ff866e}.cls-9{fill:#00b8f0}.cls-10{fill:#4acfff}</style></defs><path class="cls-1" d="M27.12 8.68s8.43-5.74 11.57-3.15-1.21 13.21-1.21 13.21z"/><path class="cls-2" d="M28.49 10.87s6-4.35 8.14-2.6-1.12 9.41-1.12 9.41z"/><path class="cls-1" d="M20.88 8.68S12.45 2.94 9.31 5.53s1.21 13.21 1.21 13.21z"/><path class="cls-3" d="M38.69 7.72a3.51 3.51 0 0 1 1.09 2.38c.18-2 0-3.71-1.09-4.57-3.14-2.59-11.57 3.15-11.57 3.15L28.49 10c2.51-1.48 7.85-4.22 10.2-2.28z"/><path class="cls-3" d="M9.31 7.72c2.35-1.94 7.68.8 10.2 2.29l1.37-1.33S12.45 2.94 9.31 5.53C8.26 6.39 8 8.14 8.22 10.1a3.51 3.51 0 0 1 1.09-2.38z"/><path class="cls-4" d="M27.12 8.68s8.43-5.74 11.57-3.15-1.21 13.21-1.21 13.21z"/><path class="cls-4" d="M20.88 8.68S12.45 2.94 9.31 5.53s1.21 13.21 1.21 13.21z"/><path class="cls-2" d="M19.51 10.87s-6-4.35-8.14-2.6 1.12 9.41 1.12 9.41z"/><path class="cls-5" d="M36.63 10.52a2 2 0 0 1 .63 1.17c.2-1.48.11-2.81-.63-3.42-2.13-1.75-8.14 2.6-8.14 2.6l1.38 1.34c1.9-1.21 5.27-2.92 6.76-1.69z"/><path class="cls-5" d="M11.37 10.52c1.49-1.23 4.86.52 6.76 1.69l1.38-1.34s-6-4.35-8.14-2.6c-.74.61-.83 1.94-.63 3.42a2 2 0 0 1 .63-1.17z"/><path class="cls-4" d="M28.49 10.87s6-4.35 8.14-2.6-1.12 9.41-1.12 9.41z"/><path class="cls-4" d="M19.51 10.87s-6-4.35-8.14-2.6 1.12 9.41 1.12 9.41z"/><ellipse cx="24" cy="43.5" rx="11" ry="1.5" fill="#45413c" opacity=".15"/><path class="cls-1" d="M39.33 28.91l-.94-8.71A14.26 14.26 0 0 0 24 7.75 14.26 14.26 0 0 0 9.61 20.2l-.94 8.71a8.09 8.09 0 0 0 8.25 8.77h.46c1.25 1.55 3.74 2.61 6.62 2.61s5.37-1.06 6.62-2.61h.46a8.09 8.09 0 0 0 8.25-8.77z"/><path class="cls-3" d="M9.61 23.88A14.26 14.26 0 0 1 24 11.44a14.26 14.26 0 0 1 14.39 12.44l.81 7.49a7.74 7.74 0 0 0 .13-2.46l-.94-8.71A14.27 14.27 0 0 0 24 7.75 14.27 14.27 0 0 0 9.61 20.2l-.94 8.71a7.74 7.74 0 0 0 .13 2.46z"/><path class="cls-4" d="M39.33 28.91l-.94-8.71A14.26 14.26 0 0 0 24 7.75 14.26 14.26 0 0 0 9.61 20.2l-.94 8.71a8.09 8.09 0 0 0 8.25 8.77h.46c1.25 1.55 3.74 2.61 6.62 2.61s5.37-1.06 6.62-2.61h.46a8.09 8.09 0 0 0 8.25-8.77z"/><path class="cls-5" d="M26.68 30.25A3 3 0 0 1 24 32.48a3 3 0 0 1-2.68-2.23c0-.68 1.2-1.23 2.68-1.23s2.68.55 2.68 1.23z"/><path class="cls-2" d="M24 30.52a4 4 0 0 1 2.32.61 1.72 1.72 0 0 0 .36-.88c0-.68-1.2-1.23-2.68-1.23s-2.68.55-2.68 1.23a1.72 1.72 0 0 0 .36.88 4 4 0 0 1 2.32-.61z"/><path class="cls-4" d="M26.68 30.25A3 3 0 0 1 24 32.48a3 3 0 0 1-2.68-2.23c0-.68 1.2-1.23 2.68-1.23s2.68.55 2.68 1.23z"/><g stroke="#45413c" stroke-linecap="round" stroke-linejoin="round"><path d="M20.12 34.18a.57.57 0 0 0-.46.21.57.57 0 0 0-.14.48 4.54 4.54 0 0 0 9 0 .57.57 0 0 0-.14-.48.57.57 0 0 0-.46-.21z" fill="#ffb0ca"/><path d="M27.58 37a7.37 7.37 0 0 0-3.58-.88 7.37 7.37 0 0 0-3.58.84 4.6 4.6 0 0 0 7.16 0z" fill="#ff87af"/></g><path class="cls-4" d="M15.32 25.32a1.75 1.75 0 0 1 3.5 0"/><path class="cls-4" d="M29.18 25.32a1.75 1.75 0 0 1 3.5 0"/><path class="cls-4" d="M31.11 29.94l5.42-.83"/><path class="cls-4" d="M31.11 32.4l5.42.75"/><path class="cls-4" d="M16.89 29.94l-5.42-.83"/><path class="cls-4" d="M16.89 32.4l-5.42.75"/><g><g><path class="cls-9" d="M40 34c-4.44 1.42-3.57-5.58-6.14-7.62 5.62-.97 10.57 6.15 6.14 7.62z"/><path class="cls-10" d="M33.84 26.33l.18.16c4.73.61 8.17 6.26 4.41 7.6A3 3 0 0 0 40 34c4.43-1.47-.52-8.59-6.16-7.67z"/><path class="cls-4" d="M40 34c-4.44 1.42-3.57-5.58-6.14-7.62 5.62-.97 10.57 6.15 6.14 7.62z"/></g><g><path class="cls-9" d="M42.54 22c-.38 3-4.31.59-6.24 1.56C37.31 20 42.92 19 42.54 22z"/><path class="cls-10" d="M36.3 23.57l.15-.07c1.67-2.64 6-3.13 5.74-.52a2.05 2.05 0 0 0 .35-1c.38-2.98-5.23-1.98-6.24 1.59z"/><path class="cls-4" d="M42.54 22c-.38 3-4.31.59-6.24 1.56C37.31 20 42.92 19 42.54 22z"/></g><g><path class="cls-9" d="M45.38 28.39c-1.65 1.38-2.5-1.76-4-2.19 2.29-1.38 5.62.8 4 2.19z"/><path class="cls-10" d="M41.42 26.2h.1c2.14-.57 4.6 1.25 3.22 2.48a1.4 1.4 0 0 0 .64-.33C47 27 43.67 24.82 41.42 26.2z"/><path class="cls-4" d="M45.38 28.39c-1.65 1.38-2.5-1.76-4-2.19 2.29-1.38 5.62.8 4 2.19z"/></g></g><g><g><path class="cls-9" d="M8 34c4.44 1.42 3.57-5.58 6.14-7.62C8.52 25.41 3.57 32.53 8 34z"/><path class="cls-10" d="M14.16 26.33l-.18.16c-4.73.61-8.17 6.26-4.41 7.6A3 3 0 0 1 8 34c-4.43-1.47.52-8.59 6.16-7.67z"/><path class="cls-4" d="M8 34c4.44 1.42 3.57-5.58 6.14-7.62C8.52 25.41 3.57 32.53 8 34z"/></g><g><path class="cls-9" d="M5.46 22c.38 3 4.31.59 6.24 1.56C10.69 20 5.08 19 5.46 22z"/><path class="cls-10" d="M11.7 23.57l-.15-.07c-1.67-2.64-6-3.13-5.74-.52a2.05 2.05 0 0 1-.35-1C5.08 19 10.69 20 11.7 23.57z"/><path class="cls-4" d="M5.46 22c.38 3 4.31.59 6.24 1.56C10.69 20 5.08 19 5.46 22z"/></g><g><path class="cls-9" d="M2.62 28.39c1.65 1.38 2.5-1.76 4-2.19-2.29-1.38-5.62.8-4 2.19z"/><path class="cls-10" d="M6.58 26.2h-.1c-2.14-.57-4.6 1.25-3.22 2.48a1.4 1.4 0 0 1-.64-.33C1 27 4.33 24.82 6.58 26.2z"/><path class="cls-4" d="M2.62 28.39c1.65 1.38 2.5-1.76 4-2.19-2.29-1.38-5.62.8-4 2.19z"/></g></g></svg>