<svg xmlns="http://www.w3.org/2000/svg" viewBox="0 0 48 48"><defs><style>.cls-1{fill:#ffe500}.cls-2{fill:#ffa694}.cls-3{fill:#fff48c}.cls-4{fill:none;stroke:#45413c;stroke-linecap:round;stroke-linejoin:round}.cls-5{fill:#ff866e}.cls-9{fill:#ff6242}</style></defs><path class="cls-1" d="M27.12 8.68s8.43-5.74 11.57-3.15-1.21 13.21-1.21 13.21z"/><path class="cls-2" d="M28.49 10.87s6-4.35 8.14-2.6-1.12 9.41-1.12 9.41z"/><path class="cls-1" d="M20.88 8.68S12.45 2.94 9.31 5.53s1.21 13.21 1.21 13.21z"/><path class="cls-3" d="M38.69 7.72a3.51 3.51 0 0 1 1.09 2.38c.18-2 0-3.71-1.09-4.57-3.14-2.59-11.57 3.15-11.57 3.15L28.49 10c2.51-1.48 7.85-4.22 10.2-2.28z"/><path class="cls-3" d="M9.31 7.72c2.35-1.94 7.68.8 10.2 2.29l1.37-1.33S12.45 2.94 9.31 5.53C8.26 6.39 8 8.14 8.22 10.1a3.51 3.51 0 0 1 1.09-2.38z"/><path class="cls-4" d="M27.12 8.68s8.43-5.74 11.57-3.15-1.21 13.21-1.21 13.21z"/><path class="cls-4" d="M20.88 8.68S12.45 2.94 9.31 5.53s1.21 13.21 1.21 13.21z"/><path class="cls-2" d="M19.51 10.87s-6-4.35-8.14-2.6 1.12 9.41 1.12 9.41z"/><path class="cls-5" d="M36.63 10.52a2 2 0 0 1 .63 1.17c.2-1.48.11-2.81-.63-3.42-2.13-1.75-8.14 2.6-8.14 2.6l1.38 1.34c1.9-1.21 5.27-2.92 6.76-1.69z"/><path class="cls-5" d="M11.37 10.52c1.49-1.23 4.86.52 6.76 1.69l1.38-1.34s-6-4.35-8.14-2.6c-.74.61-.83 1.94-.63 3.42a2 2 0 0 1 .63-1.17z"/><path class="cls-4" d="M28.49 10.87s6-4.35 8.14-2.6-1.12 9.41-1.12 9.41z"/><path class="cls-4" d="M19.51 10.87s-6-4.35-8.14-2.6 1.12 9.41 1.12 9.41z"/><ellipse cx="24" cy="43.5" rx="11" ry="1.5" fill="#45413c" opacity=".15"/><path class="cls-1" d="M39.33 28.91l-.94-8.71A14.26 14.26 0 0 0 24 7.75 14.26 14.26 0 0 0 9.61 20.2l-.94 8.71a8.09 8.09 0 0 0 8.25 8.77h.46c1.25 1.55 3.74 2.61 6.62 2.61s5.37-1.06 6.62-2.61h.46a8.09 8.09 0 0 0 8.25-8.77z"/><path class="cls-3" d="M9.61 23.88A14.25 14.25 0 0 1 24 11.44a14.26 14.26 0 0 1 14.39 12.44l.81 7.49a7.74 7.74 0 0 0 .13-2.46l-.94-8.71A14.27 14.27 0 0 0 24 7.75 14.26 14.26 0 0 0 9.61 20.2l-.94 8.71a7.74 7.74 0 0 0 .13 2.46z"/><path class="cls-4" d="M39.33 28.91l-.94-8.71A14.26 14.26 0 0 0 24 7.75 14.26 14.26 0 0 0 9.61 20.2l-.94 8.71a8.09 8.09 0 0 0 8.25 8.77h.46c1.25 1.55 3.74 2.61 6.62 2.61s5.37-1.06 6.62-2.61h.46a8.09 8.09 0 0 0 8.25-8.77z"/><path class="cls-5" d="M26.68 29.89A3 3 0 0 1 24 32.12a3 3 0 0 1-2.68-2.23c0-.68 1.2-1.23 2.68-1.23s2.68.55 2.68 1.23z"/><path class="cls-2" d="M24 30.16a4 4 0 0 1 2.32.61 1.72 1.72 0 0 0 .36-.88c0-.68-1.2-1.23-2.68-1.23s-2.68.55-2.68 1.23a1.72 1.72 0 0 0 .36.88 4 4 0 0 1 2.32-.61z"/><path class="cls-4" d="M26.68 29.89A3 3 0 0 1 24 32.12a3 3 0 0 1-2.68-2.23c0-.68 1.2-1.23 2.68-1.23s2.68.55 2.68 1.23z"/><path d="M19.9 33.56a.51.51 0 0 0-.5.55 4.63 4.63 0 0 0 9.2 0 .51.51 0 0 0-.5-.55z" fill="#ffb0ca" stroke="#45413c" stroke-linecap="round" stroke-linejoin="round"/><path d="M27.65 36.4a7.43 7.43 0 0 0-3.65-.86 7.43 7.43 0 0 0-3.65.86 4.62 4.62 0 0 0 7.3 0z" fill="#ff87af" stroke="#45413c" stroke-linecap="round" stroke-linejoin="round"/><g><path class="cls-9" d="M34.73 22.53a1.84 1.84 0 0 0-2.42-.78l-1 .45-.33-1a1.83 1.83 0 0 0-2.19-1.29 2.31 2.31 0 0 0-1.58 1.35 3 3 0 0 0-.07 2.38l1.72 4 4.14-1.4a3 3 0 0 0 1.74-1.63 2.34 2.34 0 0 0-.01-2.08z"/><path class="cls-5" d="M34.73 22.53a1.84 1.84 0 0 0-2.42-.78l-1 .45-.33-1a1.83 1.83 0 0 0-2.19-1.29 2.31 2.31 0 0 0-1.58 1.35 3.06 3.06 0 0 0-.27 1.1 2.18 2.18 0 0 1 1-.53 1.84 1.84 0 0 1 2.19 1.29l.33 1 1-.45a1.84 1.84 0 0 1 2.42.78 2.17 2.17 0 0 1 .26 1.09 3.11 3.11 0 0 0 .65-.93 2.34 2.34 0 0 0-.06-2.08z"/><path class="cls-4" d="M34.73 22.53a1.84 1.84 0 0 0-2.42-.78l-1 .45-.33-1a1.83 1.83 0 0 0-2.19-1.29 2.31 2.31 0 0 0-1.58 1.35 3 3 0 0 0-.07 2.38l1.72 4 4.14-1.4a3 3 0 0 0 1.74-1.63 2.34 2.34 0 0 0-.01-2.08z"/></g><g><path class="cls-9" d="M21.68 20.65a3 3 0 0 0-1.93-1.93 2.42 2.42 0 0 0-3 1.45l-.53 1.33-1.22-.69a2.4 2.4 0 0 0-3.24.76 3 3 0 0 0-.28 2.71 3.88 3.88 0 0 0 2.1 2.31l5.29 2.27 2.67-5.1a3.89 3.89 0 0 0 .14-3.11z"/><path class="cls-5" d="M12.66 24.17a2.4 2.4 0 0 1 3.24-.76l1.25.69.53-1.33a2.41 2.41 0 0 1 3-1.45 2.75 2.75 0 0 1 1.23.79 4.06 4.06 0 0 0-.23-1.46 3 3 0 0 0-1.93-1.93 2.42 2.42 0 0 0-3 1.45l-.53 1.33-1.22-.69a2.4 2.4 0 0 0-3.24.76 3 3 0 0 0-.28 2.71 3.94 3.94 0 0 0 .75 1.29 2.74 2.74 0 0 1 .43-1.4z"/><path class="cls-4" d="M21.68 20.65a3 3 0 0 0-1.93-1.93 2.42 2.42 0 0 0-3 1.45l-.53 1.33-1.22-.69a2.4 2.4 0 0 0-3.24.76 3 3 0 0 0-.28 2.71 3.88 3.88 0 0 0 2.1 2.31l5.29 2.27 2.67-5.1a3.89 3.89 0 0 0 .14-3.11z"/></g><path class="cls-4" d="M31.11 30.18l5.42-.83"/><path class="cls-4" d="M31.11 32.64l5.42.75"/><path class="cls-4" d="M16.89 30.18l-5.42-.83"/><path class="cls-4" d="M16.89 32.64l-5.42.75"/></svg>