<svg xmlns="http://www.w3.org/2000/svg" viewBox="0 0 48 48"><defs><style>.cls-1{fill:#ffe500}.cls-2{fill:#fff48c}.cls-3{fill:none;stroke:#45413c;stroke-linecap:round;stroke-linejoin:round}.cls-6{fill:#ff866e}.cls-7{fill:#ffa694}</style></defs><path class="cls-1" d="M18.77 9.41s8.3-9.26 11.46-8.19 1.71 8.36 1.71 8.36-4.48 1.29-7.1 4.19a12.67 12.67 0 0 1-6.07-4.36z"/><path class="cls-2" d="M30.23 3.41c1.36.46 1.87 2.09 2 3.79.14-2.23 0-5.31-2-6C27.07.15 18.77 9.41 18.77 9.41a9.88 9.88 0 0 0 1 1.14C22 8.16 27.73 2.56 30.23 3.41z"/><path class="cls-3" d="M18.77 9.41s8.3-9.26 11.46-8.19 1.71 8.36 1.71 8.36-4.48 1.29-7.1 4.19a12.67 12.67 0 0 1-6.07-4.36z"/><path d="M29.57 4.39c-1.58.59-6 8.87-6 8.87s.83.36 1.27.51a15.7 15.7 0 0 1 5.5-3.62c.18-2.56.25-6.15-.77-5.76z" fill="#ff866e" stroke="#45413c" stroke-linecap="round" stroke-linejoin="round"/><ellipse cx="24" cy="44.5" rx="11" ry="1.5" opacity=".15" fill="#45413c"/><path class="cls-1" d="M6.22 18.71a17.39 17.39 0 0 0 11.5 21.74c9.18 2.83 18.33-.43 21.16-9.61 1.4-4.54.18-6.13-1.25-7.91-2.07-2.6.42-12.61-9.67-15.72a17.38 17.38 0 0 0-21.74 11.5z"/><g><path class="cls-2" d="M28.5 11a11.86 11.86 0 0 1 7.79 6.46c-.68-3.8-2.13-8.32-8.33-10.23A17.38 17.38 0 0 0 6.22 18.71a16 16 0 0 0-.45 1.78A19.24 19.24 0 0 1 28.5 11z"/></g><path class="cls-3" d="M6.22 18.71a17.39 17.39 0 0 0 11.5 21.74c9.18 2.83 18.33-.43 21.16-9.61 1.4-4.54.18-6.13-1.25-7.91-2.07-2.6.42-12.61-9.67-15.72a17.38 17.38 0 0 0-21.74 11.5z"/><path class="cls-6" d="M40.58 26.52c-.08.95-.59 2.95-2.13 2.82S35.82 27 35.9 26s1.4-1.62 2.94-1.49 1.82 1.06 1.74 2.01z"/><path class="cls-7" d="M38.84 26.26a1.67 1.67 0 0 1 1.63 1 4.26 4.26 0 0 0 .11-.71c.08-.95-.19-1.87-1.74-2S36 25.06 35.9 26a2.7 2.7 0 0 0 .23 1.14 3.11 3.11 0 0 1 2.71-.88z"/><path class="cls-3" d="M40.58 26.52c-.08.95-.59 2.95-2.13 2.82S35.82 27 35.9 26s1.4-1.62 2.94-1.49 1.82 1.06 1.74 2.01z"/><path d="M32.17 22.18a1.07 1.07 0 0 1-2-.86c.21-.48-2.18-2.13-2.18-2.13l3.6 1.58a1.07 1.07 0 0 1 .58 1.41z" fill="#45413c" stroke="#45413c" stroke-linecap="round" stroke-linejoin="round"/><path class="cls-3" d="M30.67 27.06l-5.66-.82"/><path class="cls-3" d="M30.67 29.52l-5.66.75"/><path class="cls-3" d="M38 33s-3.64-.73-6.26 1.34"/><path class="cls-1" d="M11.92 15.45a1.31 1.31 0 0 1-.92-1.61c.85-3.11 3.3-11.11 6.42-11.67s5.63 3.93 6.48 5.66A1 1 0 0 1 23.71 9a17 17 0 0 0-4 6.14 1 1 0 0 1-.81.72 17.91 17.91 0 0 1-6.98-.41z"/><path class="cls-2" d="M11.53 15.28c1.41-3.63 4.27-9.71 7.77-10.19a5.7 5.7 0 0 1 3.41.65c-1.23-1.87-3.12-4-5.32-3.57-3.12.56-5.57 8.56-6.42 11.67a1.3 1.3 0 0 0 .56 1.44z"/><path class="cls-3" d="M11.92 15.45a1.31 1.31 0 0 1-.92-1.61c.85-3.11 3.3-11.11 6.42-11.67s5.63 3.93 6.48 5.66A1 1 0 0 1 23.71 9a17 17 0 0 0-4 6.14 1 1 0 0 1-.81.72 17.91 17.91 0 0 1-6.98-.41z"/><path class="cls-7" d="M18.64 5.19c-1 1.08-.89 7.36-.74 10.75l1-.12a1 1 0 0 0 .81-.72 15.63 15.63 0 0 1 3.27-5.32c-1.41-2.3-3.53-5.45-4.34-4.59z"/><path class="cls-6" d="M21.12 7.62a1.45 1.45 0 0 1 .37-.11C20.37 5.9 19.2 4.6 18.64 5.19c-1 1.08-.89 7.36-.74 10.75l1-.12a.82.82 0 0 0 .35-.13c-.15-2.87 0-7.21 1.87-8.07z"/><path class="cls-3" d="M18.64 5.19c-1 1.08-.89 7.36-.74 10.75l1-.12a1 1 0 0 0 .81-.72 15.63 15.63 0 0 1 3.27-5.32c-1.41-2.3-3.53-5.45-4.34-4.59z"/></svg>