<svg xmlns="http://www.w3.org/2000/svg" viewBox="0 0 48 48"><defs><style>.cls-5{fill:#45413c}.cls-4{fill:none}.cls-4,.cls-5{stroke:#45413c;stroke-linecap:round;stroke-linejoin:round}.cls-8{fill:#ffaa54}</style></defs><ellipse cx="24" cy="44.5" rx="13.5" ry="1.5" opacity=".15" fill="#45413c"/><path d="M40.88 22.75a3.27 3.27 0 0 0-2.8-3.23C36.71 12.37 30.93 7 24 7S11.29 12.37 9.92 19.52a3.27 3.27 0 0 0 0 6.47C11.29 33.13 17.07 38.5 24 38.5S36.71 33.13 38.08 26a3.28 3.28 0 0 0 2.8-3.25z" fill="#ffe500"/><path d="M9.38 22.92a1 1 0 0 0 .68-.72 14.35 14.35 0 0 1 27.88 0 1 1 0 0 0 .68.72 3.24 3.24 0 0 1 1.85 1.41 3.23 3.23 0 0 0 .41-1.58 3.27 3.27 0 0 0-2.8-3.23C36.71 12.37 30.93 7 24 7S11.29 12.37 9.92 19.52a3.27 3.27 0 0 0-2.8 3.23 3.23 3.23 0 0 0 .41 1.58 3.24 3.24 0 0 1 1.85-1.41z" fill="#fff48c"/><path class="cls-4" d="M40.88 22.75a3.27 3.27 0 0 0-2.8-3.23C36.71 12.37 30.93 7 24 7S11.29 12.37 9.92 19.52a3.27 3.27 0 0 0 0 6.47C11.29 33.13 17.07 38.5 24 38.5S36.71 33.13 38.08 26a3.28 3.28 0 0 0 2.8-3.25z"/><path class="cls-5" d="M15.55 21.9a1.2 1.2 0 1 0 1.2-1.2 1.2 1.2 0 0 0-1.2 1.2z"/><path class="cls-5" d="M32.45 21.9a1.2 1.2 0 1 1-1.2-1.2 1.2 1.2 0 0 1 1.2 1.2z"/><g><g><path d="M19.59 29.2a.69.69 0 0 0-.52.24.68.68 0 0 0-.16.55 5.16 5.16 0 0 0 10.18 0 .68.68 0 0 0-.16-.55.69.69 0 0 0-.52-.24z" fill="#ff6242"/><path d="M24 31.32a6.29 6.29 0 0 0-3.92 1.2 5.21 5.21 0 0 0 7.84 0 6.29 6.29 0 0 0-3.92-1.2z" fill="#ffa694"/></g></g><g><path class="cls-4" d="M19.59 29.2a.69.69 0 0 0-.52.24.68.68 0 0 0-.16.55 5.16 5.16 0 0 0 10.18 0 .68.68 0 0 0-.16-.55.69.69 0 0 0-.52-.24z"/></g><ellipse class="cls-8" cx="14.76" cy="27.01" rx="1.55" ry=".93"/><ellipse class="cls-8" cx="33.24" cy="27.01" rx="1.55" ry=".93"/><path d="M28.53 10.6a4.5 4.5 0 0 0-7.66-3.22 2.72 2.72 0 0 1 .86-.14 2.67 2.67 0 1 1-2.12 4.3 4.51 4.51 0 0 0 8.92-.94z" fill="#724f3d"/><g><path d="M24.12 8.72a4.52 4.52 0 0 1 3.35 4.36 3.71 3.71 0 0 1 0 .47 4.51 4.51 0 0 0-6.57-6.17 2.72 2.72 0 0 1 .86-.14 2.66 2.66 0 0 1 2.36 1.48z" fill="#a86c4d"/></g><path class="cls-4" d="M28.53 10.6a4.5 4.5 0 0 0-7.66-3.22 2.72 2.72 0 0 1 .86-.14 2.67 2.67 0 1 1-2.12 4.3 4.51 4.51 0 0 0 8.92-.94z"/></svg>