<svg xmlns="http://www.w3.org/2000/svg" viewBox="0 0 48 48"><defs><style>.cls-3{fill:none;stroke:#45413c;stroke-linecap:round;stroke-linejoin:round}.cls-6{fill:#ffbe3d}</style></defs><g><path d="M44.27 21.59a3.93 3.93 0 0 0-3.36-3.89c-1.64-8.58-8.59-15-16.91-15S8.73 9.12 7.09 17.7a3.93 3.93 0 0 0 0 7.77c1.64 8.58 8.59 15 16.91 15s15.27-6.45 16.91-15a3.92 3.92 0 0 0 3.36-3.88z" fill="#ffda8f"/><path d="M7.09 21.64a17.25 17.25 0 0 1 33.82 0 4 4 0 0 1 2.87 1.84 3.92 3.92 0 0 0-2.87-5.78c-1.64-8.58-8.59-15-16.91-15S8.73 9.12 7.09 17.7a3.92 3.92 0 0 0-2.87 5.78 4 4 0 0 1 2.87-1.84z" fill="#ffe9bd"/><path class="cls-3" d="M44.27 21.59a3.93 3.93 0 0 0-3.36-3.89c-1.64-8.58-8.59-15-16.91-15S8.73 9.12 7.09 17.7a3.93 3.93 0 0 0 0 7.77c1.64 8.58 8.59 15 16.91 15s15.27-6.45 16.91-15a3.92 3.92 0 0 0 3.36-3.88z"/><g><g><path d="M18.7 29.33a.81.81 0 0 0-.62.29.79.79 0 0 0-.19.66 6.2 6.2 0 0 0 12.22 0 .79.79 0 0 0-.19-.66.81.81 0 0 0-.62-.29z" fill="#ff6242"/><path d="M24 31.88a7.55 7.55 0 0 0-4.71 1.44 6.27 6.27 0 0 0 9.42 0A7.55 7.55 0 0 0 24 31.88z" fill="#ffa694"/></g></g><g><path class="cls-3" d="M18.7 29.33a.81.81 0 0 0-.62.29.79.79 0 0 0-.19.66 6.2 6.2 0 0 0 12.22 0 .79.79 0 0 0-.19-.66.81.81 0 0 0-.62-.29z"/></g><ellipse class="cls-6" cx="12.91" cy="26.7" rx="1.87" ry="1.12"/><ellipse class="cls-6" cx="35.09" cy="26.7" rx="1.87" ry="1.12"/><path d="M24 1.51a5.4 5.4 0 0 0-3.79 1.55 3.21 3.21 0 1 1-1.51 5A5.42 5.42 0 1 0 24 1.51z" fill="#614b44"/><g><path d="M24.13 4.67a5.43 5.43 0 0 1 4 5.24 5.07 5.07 0 0 1 0 .55 5.42 5.42 0 0 0-7.9-7.4 3.22 3.22 0 0 1 3.91 1.61z" fill="#947063"/></g><path class="cls-3" d="M24 1.51a5.4 5.4 0 0 0-3.79 1.55 3.21 3.21 0 1 1-1.51 5A5.42 5.42 0 1 0 24 1.51z"/><g><path class="cls-3" d="M17.69 20.4a1.95 1.95 0 0 0-3.6 0"/><path class="cls-3" d="M33.91 20.4a1.95 1.95 0 0 0-3.6 0"/></g><ellipse cx="24" cy="44.5" rx="13.5" ry="1.5" fill="#45413c" opacity=".15"/></g></svg>