<svg xmlns="http://www.w3.org/2000/svg" viewBox="0 0 48 48"><defs><style>.cls-3,.cls-6{fill:#45413c;stroke:#45413c;stroke-linecap:round;stroke-linejoin:round}.cls-6{fill:none}.cls-7{fill:#bd704a}</style></defs><ellipse cx="24" cy="44.5" rx="13.5" ry="1.5" opacity=".15" fill="#45413c"/><path d="M40.88 22.75a3.27 3.27 0 0 0-2.8-3.23C36.71 12.37 30.93 7 24 7S11.29 12.37 9.92 19.52a3.27 3.27 0 0 0 0 6.47C11.29 33.13 17.07 38.5 24 38.5S36.71 33.13 38.08 26a3.28 3.28 0 0 0 2.8-3.25z" stroke="#45413c" fill="#d18660" stroke-miterlimit="10"/><path class="cls-3" d="M15.55 21.9a1.2 1.2 0 1 0 1.2-1.2 1.2 1.2 0 0 0-1.2 1.2z"/><path class="cls-3" d="M32.45 21.9a1.2 1.2 0 1 1-1.2-1.2 1.2 1.2 0 0 1 1.2 1.2z"/><g><g><path d="M19.59 29.2a.69.69 0 0 0-.52.24.68.68 0 0 0-.16.55 5.16 5.16 0 0 0 10.18 0 .68.68 0 0 0-.16-.55.69.69 0 0 0-.52-.24z" fill="#ff6242"/><path d="M24 31.32a6.29 6.29 0 0 0-3.92 1.2 5.21 5.21 0 0 0 7.84 0 6.29 6.29 0 0 0-3.92-1.2z" fill="#ffa694"/></g></g><g><path class="cls-6" d="M19.59 29.2a.69.69 0 0 0-.52.24.68.68 0 0 0-.16.55 5.16 5.16 0 0 0 10.18 0 .68.68 0 0 0-.16-.55.69.69 0 0 0-.52-.24z"/></g><ellipse class="cls-7" cx="14.76" cy="27.01" rx="1.55" ry=".93"/><ellipse class="cls-7" cx="33.24" cy="27.01" rx="1.55" ry=".93"/><path d="M9.62 19.58a16.41 16.41 0 0 0 5.65-1.75 12.83 12.83 0 0 0 3.63-3v2.72a11.89 11.89 0 0 0 5.51-1.36 8.36 8.36 0 0 0 3.11-2.79 9.87 9.87 0 0 0 4.16 4.21 14.9 14.9 0 0 0 6.4 1.89v-1.57a14.23 14.23 0 0 0-28.46 0z" fill="#614b44"/><path d="M23.85 3.71A14.23 14.23 0 0 0 9.62 17.93v1.65h.13A14.23 14.23 0 0 1 38 19.51h.13v-1.58A14.23 14.23 0 0 0 23.85 3.71z" fill="#947063"/><path class="cls-6" d="M9.62 19.58a16.41 16.41 0 0 0 5.65-1.75 12.83 12.83 0 0 0 3.63-3v2.72a11.89 11.89 0 0 0 5.51-1.36 8.36 8.36 0 0 0 3.11-2.79 9.87 9.87 0 0 0 4.16 4.21 14.9 14.9 0 0 0 6.4 1.89v-1.57a14.23 14.23 0 0 0-28.46 0z"/></svg>