<svg xmlns="http://www.w3.org/2000/svg" viewBox="0 0 48 48"><defs><style>.cls-1{fill:#614b44}.cls-2{fill:#947063}.cls-3{fill:none;stroke:#45413c;stroke-linecap:round;stroke-linejoin:round}.cls-8{fill:#ffbe3d}</style></defs><path class="cls-1" d="M10.58 29.93a5.94 5.94 0 0 0-5.06 1.89c-1.6 1.87-2.1 4.58-3.33 5.6a.87.87 0 0 0 0 1.37c3.27 2.56 6.87 2.58 9.36.26 2.75-2.58 4.59-7.51-.97-9.12z"/><path class="cls-1" d="M37.44 29.93a5.94 5.94 0 0 1 5.06 1.89c1.6 1.87 2.1 4.58 3.33 5.6a.88.88 0 0 1 0 1.37c-3.28 2.56-6.87 2.58-9.37.26-2.74-2.58-4.58-7.51.98-9.12z"/><path class="cls-2" d="M2.16 38.79a9.7 9.7 0 0 0 1 .72 20.27 20.27 0 0 1 2.32-4.2 5.94 5.94 0 0 1 5.06-1.89 4.88 4.88 0 0 1 3.23 2.3c.87-2.29.38-4.74-3.23-5.79a5.94 5.94 0 0 0-5.06 1.89c-1.6 1.87-2.1 4.58-3.33 5.6a.87.87 0 0 0 .01 1.37z"/><path class="cls-2" d="M37.44 33.42a5.94 5.94 0 0 1 5.06 1.89 20.75 20.75 0 0 1 2.32 4.2 10.82 10.82 0 0 0 1-.72.88.88 0 0 0 0-1.37c-1.23-1-1.73-3.73-3.33-5.6a5.94 5.94 0 0 0-5.06-1.89c-3.62 1.05-4.1 3.5-3.24 5.79a4.9 4.9 0 0 1 3.25-2.3z"/><path class="cls-3" d="M10.58 29.93a5.94 5.94 0 0 0-5.06 1.89c-1.6 1.87-2.1 4.58-3.33 5.6a.87.87 0 0 0 0 1.37c3.27 2.56 6.87 2.58 9.36.26 2.75-2.58 4.59-7.51-.97-9.12z"/><path class="cls-3" d="M37.44 29.93a5.94 5.94 0 0 1 5.06 1.89c1.6 1.87 2.1 4.58 3.33 5.6a.88.88 0 0 1 0 1.37c-3.28 2.56-6.87 2.58-9.37.26-2.74-2.58-4.58-7.51.98-9.12z"/><ellipse cx="24" cy="44.36" rx="14.74" ry="1.64" fill="#45413c" opacity=".15"/><path d="M42.42 23.56A3.57 3.57 0 0 0 39.37 20C37.88 12.23 31.56 6.38 24 6.38S10.12 12.23 8.63 20a3.57 3.57 0 0 0 0 7.07C10.12 34.9 16.44 40.75 24 40.75S37.88 34.9 39.37 27.1a3.57 3.57 0 0 0 3.05-3.54z" fill="#ffda8f" stroke="#45413c" stroke-linecap="round" stroke-linejoin="round"/><g><g><path d="M19.19 30.6a.74.74 0 0 0-.57.27.73.73 0 0 0-.18.6 5.64 5.64 0 0 0 11.12 0 .76.76 0 0 0-.18-.61.77.77 0 0 0-.57-.26z" fill="#ff6242"/><path d="M24 32.92a6.92 6.92 0 0 0-4.28 1.3 5.67 5.67 0 0 0 8.56 0 6.92 6.92 0 0 0-4.28-1.3z" fill="#ffa694"/></g></g><g><path class="cls-3" d="M19.19 30.6a.74.74 0 0 0-.57.27.73.73 0 0 0-.18.6 5.64 5.64 0 0 0 11.12 0 .76.76 0 0 0-.18-.61.77.77 0 0 0-.57-.26z"/></g><ellipse class="cls-8" cx="13.92" cy="28.21" rx="1.7" ry="1.02"/><ellipse class="cls-8" cx="34.08" cy="28.21" rx="1.7" ry="1.02"/><path class="cls-1" d="M24 1.5A16.61 16.61 0 0 0 7.4 18.1v2.36L8.63 20h.86A17.24 17.24 0 0 0 24 12.11 17.24 17.24 0 0 0 38.51 20h.86l1.24.43V18.1A16.6 16.6 0 0 0 24 1.5z"/><path class="cls-2" d="M24 1.5A16.61 16.61 0 0 0 7.4 18.1v2.36h.1a16.6 16.6 0 0 1 33 0h.1V18.1A16.6 16.6 0 0 0 24 1.5z"/><path class="cls-3" d="M24 1.5A16.61 16.61 0 0 0 7.4 18.1v2.36L8.63 20h.86A17.24 17.24 0 0 0 24 12.11 17.24 17.24 0 0 0 38.51 20h.86l1.24.43V18.1A16.6 16.6 0 0 0 24 1.5z"/><g><path class="cls-3" d="M18.27 22.63a1.77 1.77 0 0 0-3.28 0"/><path class="cls-3" d="M33 22.63a1.77 1.77 0 0 0-3.28 0"/></g></svg>