<svg xmlns="http://www.w3.org/2000/svg" viewBox="0 0 48 48"><defs><style>.cls-6{fill:#45413c}.cls-4{fill:none}.cls-4,.cls-6{stroke:#45413c;stroke-linecap:round;stroke-linejoin:round}.cls-9{fill:#ffb59e}</style></defs><ellipse cx="24" cy="44.5" rx="12.5" ry="1.5" opacity=".15" fill="#45413c"/><g><path d="M24 5.23a14.27 14.27 0 0 0-3.55.45c-2.71.61-6.23 1.63-9.41 1a6.11 6.11 0 0 0 1.21 4.68 14.28 14.28 0 0 0-2.55 8.17V27h28.6v-7.47A14.3 14.3 0 0 0 24 5.23z" fill="#a86c4d"/><g><path d="M24 5.23a14.27 14.27 0 0 0-3.55.45c-2.71.61-6.23 1.63-9.41 1a6.83 6.83 0 0 0 .48 3.46c3.05.43 6.36-.52 8.93-1.1A14.29 14.29 0 0 1 38.3 22.91v-3.38A14.3 14.3 0 0 0 24 5.23z" fill="#de926a"/></g><path class="cls-4" d="M24 5.23a14.27 14.27 0 0 0-3.55.45c-2.71.61-6.23 1.63-9.41 1a6.11 6.11 0 0 0 1.21 4.68 14.28 14.28 0 0 0-2.55 8.17V27h28.6v-7.47A14.3 14.3 0 0 0 24 5.23z"/><path d="M39.82 25.92a2.69 2.69 0 0 0-2-2.25l-.86-.23a3 3 0 0 1-2.18-2.88v-3a2.71 2.71 0 0 0-2-2.62A22.54 22.54 0 0 1 24 16.51a22.52 22.52 0 0 1-8.71-1.58 2.7 2.7 0 0 0-2 2.62v3.63a2.34 2.34 0 0 1-2.32 2.33 2.74 2.74 0 0 0-2.74 2.2 2.64 2.64 0 0 0 2.61 3.07H11a13.17 13.17 0 0 0 26.06 0h.16a2.63 2.63 0 0 0 2.6-2.86z" fill="#ffcebf" stroke="#45413c" stroke-linecap="round" stroke-linejoin="round"/><path class="cls-6" d="M16.09 25.61a1.13 1.13 0 1 0 1.12-1.12 1.12 1.12 0 0 0-1.12 1.12z"/><path class="cls-6" d="M31.91 25.61a1.13 1.13 0 1 1-1.12-1.12 1.12 1.12 0 0 1 1.12 1.12z"/><g><g><path d="M19.87 32.45a.66.66 0 0 0-.49.22.65.65 0 0 0-.14.52 4.83 4.83 0 0 0 9.52 0 .65.65 0 0 0-.14-.52.66.66 0 0 0-.49-.22z" fill="#ff6242"/><path d="M24 34.43a5.92 5.92 0 0 0-3.67 1.12 4.87 4.87 0 0 0 7.34 0A5.92 5.92 0 0 0 24 34.43z" fill="#ffa694"/></g></g><g><path class="cls-4" d="M19.87 32.45a.66.66 0 0 0-.49.22.65.65 0 0 0-.14.52 4.83 4.83 0 0 0 9.52 0 .65.65 0 0 0-.14-.52.66.66 0 0 0-.49-.22z"/></g><ellipse class="cls-9" cx="15.35" cy="30.39" rx="1.46" ry=".87"/><ellipse class="cls-9" cx="32.65" cy="30.39" rx="1.46" ry=".87"/></g></svg>