<svg xmlns="http://www.w3.org/2000/svg" viewBox="0 0 48 48"><defs><style>.cls-4{fill:#656769}.cls-11,.cls-2{stroke:#45413c;stroke-linecap:round;stroke-linejoin:round}.cls-2{fill:none}.cls-5{fill:#525252}.cls-7{fill:#ffb59e}.cls-11{fill:#45413c}</style></defs><path d="M23.55 17.33l-15-7.64a.5.5 0 0 1 0-.89l15-7.69a1 1 0 0 1 .92 0l15 7.69a.5.5 0 0 1 0 .89l-15 7.64a1 1 0 0 1-.92 0z" stroke="#45413c" stroke-linecap="round" stroke-linejoin="round" fill="#656769"/><path class="cls-2" d="M8.31 9.24v7.95"/><path d="M9.27 17.18a1 1 0 0 0-1-1.07 1 1 0 0 0-1 1.07l-.19 3.69h2.38z" fill="#ffe500" stroke="#45413c" stroke-linecap="round" stroke-linejoin="round"/><path class="cls-4" d="M31.54 34.09L24 31.22l-7.54 2.87a6.76 6.76 0 0 0-4.35 6.31V45h23.78v-4.6a6.76 6.76 0 0 0-4.35-6.31z"/><path class="cls-5" d="M31.54 34.09L24 31.22l-7.54 2.87a6.76 6.76 0 0 0-4.35 6.31v3a6.76 6.76 0 0 1 4.35-6.31L24 34.21l7.54 2.87a6.76 6.76 0 0 1 4.35 6.31v-3a6.76 6.76 0 0 0-4.35-6.3z"/><path class="cls-2" d="M31.54 34.09L24 31.22l-7.54 2.87a6.76 6.76 0 0 0-4.35 6.31V45h23.78v-4.6a6.76 6.76 0 0 0-4.35-6.31z"/><path d="M24 35.11s-2.54-1.11-2.54-2.54v-2.85A2.54 2.54 0 0 1 24 27.17a2.54 2.54 0 0 1 2.54 2.55v2.85c0 1.43-2.54 2.54-2.54 2.54z" fill="#ffcebf"/><path class="cls-7" d="M24 27.17a2.54 2.54 0 0 0-2.54 2.54v.6a2.54 2.54 0 0 0 5.08 0v-.59A2.54 2.54 0 0 0 24 27.17z"/><path class="cls-2" d="M24 35.11s-2.54-1.11-2.54-2.54v-2.85A2.54 2.54 0 0 1 24 27.17a2.54 2.54 0 0 1 2.54 2.55v2.85c0 1.43-2.54 2.54-2.54 2.54z"/><path class="cls-2" d="M13.45 36.35L17.06 45"/><path class="cls-2" d="M34.55 36.35L30.94 45"/><path class="cls-2" d="M20.54 40.48l.73 4.52"/><path class="cls-2" d="M27.46 40.48L26.73 45"/><ellipse cx="24" cy="45.5" rx="15" ry="1.5" opacity=".15" fill="#45413c"/><path d="M24 6.91a9.82 9.82 0 0 1 9.82 9.82v5.14H14.18v-5.14A9.82 9.82 0 0 1 24 6.91z" fill="#a86c4d" stroke="#45413c" stroke-linecap="round" stroke-linejoin="round"/><path d="M34.87 21.12a1.83 1.83 0 0 0-1.39-1.54l-.59-.16a2.06 2.06 0 0 1-1.5-2v-2.04A1.88 1.88 0 0 0 30 13.57a15.34 15.34 0 0 1-6 1.09 15.34 15.34 0 0 1-6-1.09 1.88 1.88 0 0 0-1.4 1.81v2.06a2.06 2.06 0 0 1-1.5 2l-.59.16a1.83 1.83 0 0 0-1.39 1.54 1.81 1.81 0 0 0 1.81 2h.11a9 9 0 0 0 17.9 0h.11a1.81 1.81 0 0 0 1.82-2.02z" fill="#ffcebf" stroke="#45413c" stroke-linecap="round" stroke-linejoin="round"/><path class="cls-11" d="M18.57 20.91a.77.77 0 1 0 .77-.77.76.76 0 0 0-.77.77z"/><path class="cls-11" d="M29.43 20.91a.77.77 0 1 1-.77-.77.76.76 0 0 1 .77.77z"/><g><g><g><g><g><g><g><path d="M21.16 25.6a.44.44 0 0 0-.33.16.42.42 0 0 0-.1.35 3.32 3.32 0 0 0 6.54 0 .42.42 0 0 0-.1-.35.44.44 0 0 0-.33-.16z" fill="#ff6242"/><path d="M24 27a4 4 0 0 0-2.52.77 3.36 3.36 0 0 0 5 0A4 4 0 0 0 24 27z" fill="#ffa694"/></g></g></g></g></g></g></g><g><path class="cls-2" d="M21.16 25.6a.44.44 0 0 0-.33.16.42.42 0 0 0-.1.35 3.32 3.32 0 0 0 6.54 0 .42.42 0 0 0-.1-.35.44.44 0 0 0-.33-.16z"/></g><ellipse class="cls-7" cx="18.06" cy="24.19" rx="1" ry=".6"/><ellipse class="cls-7" cx="29.94" cy="24.19" rx="1" ry=".6"/><path class="cls-4" d="M14.68 9c0-1.22 3.9-2.21 9.32-2.21s9.32 1 9.32 2.21l1 8.59c0-1.28-4.61-2.32-10.3-2.32s-10.3 1-10.3 2.32z"/><path class="cls-5" d="M24 10.07c4.62 0 8.22.6 9.61 1.43L33.32 9c0-1.22-3.9-2.21-9.32-2.21s-9.32 1-9.32 2.21l-.29 2.53c1.39-.86 4.99-1.46 9.61-1.46z"/><path class="cls-2" d="M14.68 9c0-1.22 3.9-2.21 9.32-2.21s9.32 1 9.32 2.21l1 8.59c0-1.28-4.61-2.32-10.3-2.32s-10.3 1-10.3 2.32z"/></svg>