<svg xmlns="http://www.w3.org/2000/svg" viewBox="0 0 48 48"><defs><style>.cls-3{fill:none}.cls-18,.cls-3{stroke:#45413c;stroke-linecap:round;stroke-linejoin:round}.cls-18{fill:#45413c}.cls-8{fill:#f0d5a8}.cls-9{fill:#f7e5c6}.cls-10{fill:#debb7e}.cls-12{fill:#ffcebf}.cls-13{fill:#ffdcd1}.cls-14{fill:#ffb59e}</style></defs><path d="M27.94 32.84L20.39 30l-7.54 2.87a6.76 6.76 0 0 0-4.35 6.28V45h23.78v-5.85a6.76 6.76 0 0 0-4.34-6.31z" fill="#656769"/><path d="M27.94 32.84L20.39 30l-7.54 2.87a6.76 6.76 0 0 0-4.35 6.28v3a6.76 6.76 0 0 1 4.35-6.31L20.39 33l7.55 2.87a6.76 6.76 0 0 1 4.34 6.31v-3a6.76 6.76 0 0 0-4.34-6.34z" fill="#525252"/><path class="cls-3" d="M27.94 32.84L20.39 30l-7.54 2.87a6.76 6.76 0 0 0-4.35 6.28V45h23.78v-5.85a6.76 6.76 0 0 0-4.34-6.31z"/><ellipse cx="20.41" cy="45.5" rx="13.5" ry="1.5" opacity=".15" fill="#45413c"/><path d="M20.39 30s-5 0-5 2.82a10 10 0 0 0 2.15 5.78l2.89-2.44 2.89 2.44a10 10 0 0 0 2.16-5.78C25.44 30 20.39 30 20.39 30z" fill="#f0f0f0" stroke="#45413c" stroke-linecap="round" stroke-linejoin="round"/><path class="cls-3" d="M11.87 45l-.5-2.41"/><path class="cls-3" d="M28.92 45l.5-2.41"/><path fill="#fff" stroke="#45413c" stroke-linecap="round" stroke-linejoin="round" d="M17.5 38.59l2.89 3.53 2.89-3.53-2.89-2.44-2.89 2.44z"/><path fill="#ff6242" stroke="#45413c" stroke-linecap="round" stroke-linejoin="round" d="M21.87 37.4l-1.48-1.25-1.47 1.25.77 1.45-.42 1.9 1.12 1.37 1.12-1.37-.42-1.9.78-1.45z"/><path class="cls-3" d="M10.86 34a6.82 6.82 0 0 0 1.35 4.57c1.68 2.49 4.56 6.43 4.56 6.43"/><path class="cls-3" d="M29.92 34a6.77 6.77 0 0 1-1.34 4.57C26.89 41.06 24 45 24 45"/><rect class="cls-8" x="31.28" y="25.38" width="1.94" height="7.75" rx=".97" ry=".97" transform="rotate(14.19 32.24 29.275)"/><path class="cls-9" d="M33.2 25.5a1 1 0 0 0-1.18.7l-.35 1.41a1.13 1.13 0 0 1 .85-.14l.25.07a1.07 1.07 0 0 1 .75.66l.39-1.52a1 1 0 0 0-.71-1.18z"/><rect class="cls-3" x="31.28" y="25.38" width="1.94" height="7.75" rx=".97" ry=".97" transform="rotate(14.19 32.24 29.275)"/><rect class="cls-8" x="41.89" y="28.06" width="1.94" height="7.75" rx=".97" ry=".97" transform="rotate(14.19 42.853 31.951)"/><path class="cls-9" d="M43.81 28.18a1 1 0 0 0-1.18.7l-.35 1.41a1 1 0 0 1 .85-.14l.25.06a1.08 1.08 0 0 1 .75.67l.39-1.53a1 1 0 0 0-.71-1.17z"/><rect class="cls-3" x="41.89" y="28.06" width="1.94" height="7.75" rx=".97" ry=".97" transform="rotate(14.19 42.853 31.951)"/><path class="cls-10" transform="rotate(14.19 37.546 30.613)" d="M33.06 27.17h9v6.85h-9z"/><path class="cls-8" transform="rotate(-75.81 38.104 28.44)" d="M36.91 23.94h2.4v9h-2.4z"/><path class="cls-3" transform="rotate(14.19 37.546 30.613)" d="M33.06 27.17h9v6.85h-9z"/><path class="cls-10" transform="rotate(14.19 35.282 39.624)" d="M34.22 33.74h2.11v11.75h-2.11z"/><path transform="rotate(-75.81 36.48 34.871)" fill="#b89558" d="M35.5 33.81h1.96v2.11H35.5z"/><path class="cls-3" transform="rotate(14.19 35.282 39.624)" d="M34.22 33.74h2.11v11.75h-2.11z"/><path class="cls-12" d="M32.33 36.62a1.54 1.54 0 0 1 1.54 1.54v6.73a2.34 2.34 0 0 1-2.34-2.34v-5.14a.79.79 0 0 1 .8-.79z" transform="rotate(14.19 32.69 40.763)"/><path class="cls-13" d="M33.35 36.65a.8.8 0 0 0-1 .58l-.47 1.86a.79.79 0 0 1 1-.58A1.55 1.55 0 0 1 34 40.39l.47-1.86a1.55 1.55 0 0 0-1.12-1.88z"/><path class="cls-3" d="M32.33 36.62a1.54 1.54 0 0 1 1.54 1.54v6.73a2.34 2.34 0 0 1-2.34-2.34v-5.14a.79.79 0 0 1 .8-.79z" transform="rotate(14.19 32.69 40.763)"/><path class="cls-12" d="M37 39l-1.94-.49a1.16 1.16 0 0 0-1.4.84 1.15 1.15 0 0 0 .78 1.37A1.15 1.15 0 0 0 34 43a1.15 1.15 0 0 0-.57 2.23l1.94.49A2.17 2.17 0 0 0 38 44.1l.62-2.44A2.19 2.19 0 0 0 37 39z"/><g><path class="cls-13" d="M37 39l-1.94-.49a1.16 1.16 0 0 0-1.4.84 1.18 1.18 0 0 0 0 .59 1.15 1.15 0 0 1 1.09-.32l1.94.49a2.17 2.17 0 0 1 1.58 2.65l.28-1.1A2.19 2.19 0 0 0 37 39z"/></g><path class="cls-3" d="M37 39l-1.94-.49a1.16 1.16 0 0 0-1.4.84 1.15 1.15 0 0 0 .78 1.37A1.15 1.15 0 0 0 34 43a1.15 1.15 0 0 0-.57 2.23l1.94.49A2.17 2.17 0 0 0 38 44.1l.62-2.44A2.19 2.19 0 0 0 37 39z"/><path class="cls-12" d="M20.39 27.16a2.55 2.55 0 0 0-2.54 2.55v2.85c0 1.4 2.54 3.59 2.54 3.59s2.55-2.19 2.55-3.59v-2.85a2.55 2.55 0 0 0-2.55-2.55z"/><path class="cls-14" d="M20.39 27.16a2.55 2.55 0 0 0-2.54 2.55v.59a2.55 2.55 0 0 0 5.09 0v-.59a2.55 2.55 0 0 0-2.55-2.55z"/><path class="cls-3" d="M20.39 27.16a2.55 2.55 0 0 0-2.54 2.55v2.85c0 1.4 2.54 3.59 2.54 3.59s2.55-2.19 2.55-3.59v-2.85a2.55 2.55 0 0 0-2.55-2.55z"/><path d="M20.39 6.91a9.83 9.83 0 0 0-2.39.31c-1.86.42-4.27 1.12-6.46.7a4.17 4.17 0 0 0 .83 3.21 9.81 9.81 0 0 0-1.75 5.6v5.14h19.59v-5.14a9.82 9.82 0 0 0-9.82-9.82z" fill="#a86c4d"/><g><path d="M20.39 6.91a9.83 9.83 0 0 0-2.39.31c-1.86.42-4.27 1.12-6.46.7a4.42 4.42 0 0 0 .67 3 19.4 19.4 0 0 0 5.79-.78 9.81 9.81 0 0 1 12.26 9.51v-2.92a9.82 9.82 0 0 0-9.87-9.82z" fill="#de926a"/></g><path class="cls-3" d="M20.39 6.91a9.83 9.83 0 0 0-2.39.31c-1.86.42-4.27 1.12-6.46.7a4.17 4.17 0 0 0 .83 3.21 9.81 9.81 0 0 0-1.75 5.6v5.14h19.59v-5.14a9.82 9.82 0 0 0-9.82-9.82z"/><path d="M31.26 21.12a1.83 1.83 0 0 0-1.39-1.54l-.59-.16a2.07 2.07 0 0 1-1.5-2v-2.04a1.87 1.87 0 0 0-1.4-1.81 15.34 15.34 0 0 1-6 1.09 15.37 15.37 0 0 1-6-1.09A1.88 1.88 0 0 0 13 15.38v2.06a2.06 2.06 0 0 1-1.5 2l-.59.16a1.83 1.83 0 0 0-1.39 1.54 1.81 1.81 0 0 0 1.81 2h.11a9.05 9.05 0 0 0 17.91 0h.11a1.81 1.81 0 0 0 1.8-2.02z" fill="#ffcebf" stroke="#45413c" stroke-linecap="round" stroke-linejoin="round"/><path class="cls-18" d="M15 20.91a.77.77 0 1 0 .77-.77.76.76 0 0 0-.77.77z"/><path class="cls-18" d="M25.83 20.91a.78.78 0 1 1-.78-.77.77.77 0 0 1 .78.77z"/><g><g><g><g><g><g><g><path d="M17.56 25.6a.44.44 0 0 0-.34.16.45.45 0 0 0-.1.35 3.32 3.32 0 0 0 6.55 0 .46.46 0 0 0-.11-.35.42.42 0 0 0-.33-.16z" fill="#ff6242"/><path d="M20.39 27a4 4 0 0 0-2.52.77 3.36 3.36 0 0 0 5 0 4 4 0 0 0-2.48-.77z" fill="#ffa694"/></g></g></g></g></g></g></g><g><path class="cls-3" d="M17.56 25.6a.44.44 0 0 0-.34.16.45.45 0 0 0-.1.35 3.32 3.32 0 0 0 6.55 0 .46.46 0 0 0-.44-.51z"/></g><ellipse class="cls-14" cx="14.45" cy="24.19" rx="1" ry=".6"/><ellipse class="cls-14" cx="26.33" cy="24.19" rx="1" ry=".6"/></svg>