<svg xmlns="http://www.w3.org/2000/svg" viewBox="0 0 48 48"><defs><style>.cls-3{fill:none}.cls-18,.cls-3{stroke:#45413c;stroke-linecap:round;stroke-linejoin:round}.cls-18{fill:#45413c}.cls-10{fill:#f0d5a8}.cls-11{fill:#f7e5c6}.cls-12{fill:#debb7e}.cls-14{fill:#ffe500}.cls-15{fill:#fff48c}.cls-21{fill:#ffaa54}</style></defs><path d="M20.39 6.32a10.88 10.88 0 0 1 10.88 10.87v14.19a1.23 1.23 0 0 1-.77 1.14 27.09 27.09 0 0 1-20.22 0 1.24 1.24 0 0 1-.77-1.14V17.19A10.88 10.88 0 0 1 20.39 6.32z" fill="#724f3d"/><path d="M20.39 6.32A10.88 10.88 0 0 0 9.51 17.19v3a10.88 10.88 0 0 1 21.76 0v-3A10.88 10.88 0 0 0 20.39 6.32z" fill="#a86c4d"/><path class="cls-3" d="M20.39 6.32a10.88 10.88 0 0 1 10.88 10.87v14.19a1.23 1.23 0 0 1-.77 1.14 27.09 27.09 0 0 1-20.22 0 1.24 1.24 0 0 1-.77-1.14V17.19A10.88 10.88 0 0 1 20.39 6.32z"/><path d="M27.94 32.84L20.39 30l-7.54 2.87a6.76 6.76 0 0 0-4.35 6.28V45h23.78v-5.85a6.76 6.76 0 0 0-4.34-6.31z" fill="#656769"/><path d="M27.94 32.84L20.39 30l-7.54 2.87a6.76 6.76 0 0 0-4.35 6.28v3a6.76 6.76 0 0 1 4.35-6.31L20.39 33l7.55 2.87a6.76 6.76 0 0 1 4.34 6.31v-3a6.76 6.76 0 0 0-4.34-6.34z" fill="#525252"/><path class="cls-3" d="M27.94 32.84L20.39 30l-7.54 2.87a6.76 6.76 0 0 0-4.35 6.28V45h23.78v-5.85a6.76 6.76 0 0 0-4.34-6.31z"/><ellipse cx="20.41" cy="45.5" rx="13.5" ry="1.5" opacity=".15" fill="#45413c"/><path d="M20.39 30s-5 0-5 2.82a10 10 0 0 0 2.15 5.78l2.89-2.44 2.89 2.44a10 10 0 0 0 2.16-5.78C25.44 30 20.39 30 20.39 30z" fill="#f0f0f0" stroke="#45413c" stroke-linecap="round" stroke-linejoin="round"/><path class="cls-3" d="M11.87 45l-.5-2.41"/><path class="cls-3" d="M28.92 45l.5-2.41"/><path fill="#fff" stroke="#45413c" stroke-linecap="round" stroke-linejoin="round" d="M17.5 38.59l2.89 3.53 2.89-3.53-2.89-2.44-2.89 2.44z"/><path fill="#ff6242" stroke="#45413c" stroke-linecap="round" stroke-linejoin="round" d="M21.87 37.4l-1.48-1.25-1.47 1.25.77 1.45-.42 1.9 1.12 1.37 1.12-1.37-.42-1.9.78-1.45z"/><path class="cls-3" d="M10.86 34a6.82 6.82 0 0 0 1.35 4.57c1.68 2.49 4.56 6.43 4.56 6.43"/><path class="cls-3" d="M29.92 34a6.77 6.77 0 0 1-1.34 4.57C26.89 41.06 24 45 24 45"/><rect class="cls-10" x="31.28" y="25.38" width="1.94" height="7.75" rx=".97" ry=".97" transform="rotate(14.19 32.24 29.275)"/><path class="cls-11" d="M33.2 25.5a1 1 0 0 0-1.18.7l-.35 1.41a1.13 1.13 0 0 1 .85-.14l.25.07a1.07 1.07 0 0 1 .75.66l.39-1.52a1 1 0 0 0-.71-1.18z"/><rect class="cls-3" x="31.28" y="25.38" width="1.94" height="7.75" rx=".97" ry=".97" transform="rotate(14.19 32.24 29.275)"/><rect class="cls-10" x="41.89" y="28.06" width="1.94" height="7.75" rx=".97" ry=".97" transform="rotate(14.19 42.853 31.951)"/><path class="cls-11" d="M43.81 28.18a1 1 0 0 0-1.18.7l-.35 1.41a1 1 0 0 1 .85-.14l.25.06a1.08 1.08 0 0 1 .75.67l.39-1.53a1 1 0 0 0-.71-1.17z"/><rect class="cls-3" x="41.89" y="28.06" width="1.94" height="7.75" rx=".97" ry=".97" transform="rotate(14.19 42.853 31.951)"/><path class="cls-12" transform="rotate(14.19 37.546 30.613)" d="M33.06 27.17h9v6.85h-9z"/><path class="cls-10" transform="rotate(-75.81 38.104 28.44)" d="M36.91 23.94h2.4v9h-2.4z"/><path class="cls-3" transform="rotate(14.19 37.546 30.613)" d="M33.06 27.17h9v6.85h-9z"/><path class="cls-12" transform="rotate(14.19 35.282 39.624)" d="M34.22 33.74h2.11v11.75h-2.11z"/><path transform="rotate(-75.81 36.48 34.871)" fill="#b89558" d="M35.5 33.81h1.96v2.11H35.5z"/><path class="cls-3" transform="rotate(14.19 35.282 39.624)" d="M34.22 33.74h2.11v11.75h-2.11z"/><path class="cls-14" d="M32.33 36.62a1.54 1.54 0 0 1 1.54 1.54v6.73a2.34 2.34 0 0 1-2.34-2.34v-5.14a.79.79 0 0 1 .8-.79z" transform="rotate(14.19 32.69 40.763)"/><path class="cls-15" d="M33.35 36.65a.8.8 0 0 0-1 .58l-.47 1.86a.79.79 0 0 1 1-.58A1.55 1.55 0 0 1 34 40.39l.47-1.86a1.55 1.55 0 0 0-1.12-1.88z"/><path class="cls-3" d="M32.33 36.62a1.54 1.54 0 0 1 1.54 1.54v6.73a2.34 2.34 0 0 1-2.34-2.34v-5.14a.79.79 0 0 1 .8-.79z" transform="rotate(14.19 32.69 40.763)"/><path class="cls-14" d="M37 39l-1.94-.49a1.16 1.16 0 0 0-1.4.84 1.15 1.15 0 0 0 .78 1.37A1.15 1.15 0 0 0 34 43a1.15 1.15 0 0 0-.57 2.23l1.94.49A2.17 2.17 0 0 0 38 44.1l.62-2.44A2.19 2.19 0 0 0 37 39z"/><g><path class="cls-15" d="M37 39l-1.94-.49a1.16 1.16 0 0 0-1.4.84 1.18 1.18 0 0 0 0 .59 1.15 1.15 0 0 1 1.09-.32l1.94.49a2.17 2.17 0 0 1 1.58 2.65l.28-1.1A2.19 2.19 0 0 0 37 39z"/></g><path class="cls-3" d="M37 39l-1.94-.49a1.16 1.16 0 0 0-1.4.84 1.15 1.15 0 0 0 .78 1.37A1.15 1.15 0 0 0 34 43a1.15 1.15 0 0 0-.57 2.23l1.94.49A2.17 2.17 0 0 0 38 44.1l.62-2.44A2.19 2.19 0 0 0 37 39z"/><path class="cls-14" d="M20.39 27.16a2.55 2.55 0 0 0-2.54 2.55v2.85c0 1.4 2.54 3.59 2.54 3.59s2.55-2.19 2.55-3.59v-2.85a2.55 2.55 0 0 0-2.55-2.55z"/><path d="M20.39 27.16a2.55 2.55 0 0 0-2.54 2.55v.59a2.55 2.55 0 0 0 5.09 0v-.59a2.55 2.55 0 0 0-2.55-2.55z" fill="#ebcb00"/><path class="cls-3" d="M20.39 27.16a2.55 2.55 0 0 0-2.54 2.55v2.85c0 1.4 2.54 3.59 2.54 3.59s2.55-2.19 2.55-3.59v-2.85a2.55 2.55 0 0 0-2.55-2.55z"/><g><path d="M29.46 19.47a8.77 8.77 0 0 1-5.68-5L23.16 13a15.92 15.92 0 0 1-9.95 6.18l-1.88.34a1.81 1.81 0 1 0 0 3.62h.11a9.05 9.05 0 0 0 17.91 0h.11a1.81 1.81 0 0 0 0-3.62z" fill="#ffe500" stroke="#45413c" stroke-linecap="round" stroke-linejoin="round"/></g><path class="cls-18" d="M15 20.91a.77.77 0 1 0 .77-.77.76.76 0 0 0-.77.77z"/><path class="cls-18" d="M25.83 20.91a.78.78 0 1 1-.78-.77.77.77 0 0 1 .78.77z"/><g><g><g><g><g><g><g><path d="M17.56 25.6a.45.45 0 0 0-.44.51 3.32 3.32 0 0 0 6.55 0 .46.46 0 0 0-.44-.51z" fill="#ff6242"/><path d="M20.39 27a4 4 0 0 0-2.52.77 3.36 3.36 0 0 0 5 0 4 4 0 0 0-2.48-.77z" fill="#ffa694"/></g></g></g></g></g></g></g><g><path class="cls-3" d="M17.56 25.6a.45.45 0 0 0-.44.51 3.32 3.32 0 0 0 6.55 0 .46.46 0 0 0-.44-.51z"/></g><ellipse class="cls-21" cx="14.45" cy="24.19" rx="1" ry=".6"/><ellipse class="cls-21" cx="26.33" cy="24.19" rx="1" ry=".6"/></svg>