<svg xmlns="http://www.w3.org/2000/svg" viewBox="0 0 48 48"><defs><style>.cls-12,.cls-8{fill:#45413c}.cls-2{fill:#fff}.cls-3{fill:#f0f0f0}.cls-4{fill:none}.cls-12,.cls-4{stroke:#45413c;stroke-linecap:round;stroke-linejoin:round}.cls-15{fill:#ffb59e}</style></defs><ellipse cx="24" cy="45.51" rx="13.5" ry="1.5" opacity=".15" fill="#45413c"/><path class="cls-2" d="M24 31.22A11.88 11.88 0 0 1 35.88 43.1V45H12.12v-1.9A11.88 11.88 0 0 1 24 31.22z"/><path class="cls-3" d="M24 31.22A11.88 11.88 0 0 0 12.12 43.1V45h.1A11.88 11.88 0 0 1 24 34.62 11.88 11.88 0 0 1 35.78 45h.1v-1.9A11.88 11.88 0 0 0 24 31.22z"/><path class="cls-4" d="M24 31.22A11.88 11.88 0 0 1 35.88 43.1V45H12.12v-1.9A11.88 11.88 0 0 1 24 31.22z"/><path d="M24 27.18a2.54 2.54 0 0 0-2.54 2.54v2.85a2.54 2.54 0 1 0 5.08 0v-2.85A2.54 2.54 0 0 0 24 27.18z" fill="#ffb59e" stroke="#45413c" stroke-linecap="round" stroke-linejoin="round"/><path class="cls-4" d="M17.06 45v-2.41"/><path class="cls-4" d="M30.94 45v-2.41"/><path d="M21.46 31.22c0 1.1.73 2 2.54 2s2.54-.89 2.54-2a2.77 2.77 0 0 1 .74 1.91c0 1.27-1.47 2-3.28 2s-3.28-.77-3.28-2a2.71 2.71 0 0 1 .74-1.91z" fill="#00dfeb" stroke="#45413c" stroke-linecap="round" stroke-linejoin="round"/><path d="M24 35.12h2.78a1.5 1.5 0 0 1 1.51 1.5V45" stroke="#45413c" stroke-linecap="round" stroke-linejoin="round" fill="#fff"/><path class="cls-4" d="M24 35.12v-1.91"/><path class="cls-8" d="M21.84 37.4a.75.75 0 1 0 0 1.5.75.75 0 0 0 0-1.5z"/><path class="cls-8" d="M26.15 37.4a.75.75 0 1 0 .75.75.75.75 0 0 0-.75-.75z"/><path class="cls-8" d="M21.84 40.81a.75.75 0 1 0 .75.75.75.75 0 0 0-.75-.75z"/><path class="cls-8" d="M26.15 40.81a.75.75 0 0 0 0 1.5.75.75 0 1 0 0-1.5z"/><path d="M24 6.91a9.83 9.83 0 0 0-2.44.31c-1.86.42-4.28 1.12-6.47.7a4.2 4.2 0 0 0 .84 3.21 9.81 9.81 0 0 0-1.75 5.6v5.14h19.64v-5.14A9.82 9.82 0 0 0 24 6.91z" fill="#a86c4d"/><g><path d="M24 6.91a9.83 9.83 0 0 0-2.44.31c-1.86.42-4.28 1.12-6.47.7a4.47 4.47 0 0 0 .68 3 19.4 19.4 0 0 0 5.79-.79 9.81 9.81 0 0 1 12.26 9.51v-2.91A9.82 9.82 0 0 0 24 6.91z" fill="#de926a"/></g><path class="cls-4" d="M24 6.91a9.83 9.83 0 0 0-2.44.31c-1.86.42-4.28 1.12-6.47.7a4.2 4.2 0 0 0 .84 3.21 9.81 9.81 0 0 0-1.75 5.6v5.14h19.64v-5.14A9.82 9.82 0 0 0 24 6.91z"/><path d="M34.87 21.12a1.83 1.83 0 0 0-1.39-1.54l-.59-.16a2.06 2.06 0 0 1-1.5-2v-2.04A1.88 1.88 0 0 0 30 13.57a15.34 15.34 0 0 1-6 1.09 15.34 15.34 0 0 1-6-1.09 1.88 1.88 0 0 0-1.4 1.81v2.06a2.06 2.06 0 0 1-1.5 2l-.59.16a1.83 1.83 0 0 0-1.39 1.54 1.81 1.81 0 0 0 1.81 2h.11a9 9 0 0 0 17.9 0h.11a1.81 1.81 0 0 0 1.82-2.02z" fill="#ffcebf" stroke="#45413c" stroke-linecap="round" stroke-linejoin="round"/><path class="cls-12" d="M18.57 20.91a.77.77 0 1 0 .77-.77.76.76 0 0 0-.77.77z"/><path class="cls-12" d="M29.43 20.91a.77.77 0 1 1-.77-.77.76.76 0 0 1 .77.77z"/><g><g><g><g><g><g><g><path d="M21.16 25.6a.42.42 0 0 0-.33.16.42.42 0 0 0-.1.35 3.32 3.32 0 0 0 6.54 0 .42.42 0 0 0-.1-.35.44.44 0 0 0-.33-.16z" fill="#ff6242"/><path d="M24 27a4 4 0 0 0-2.52.77 3.36 3.36 0 0 0 5 0A4 4 0 0 0 24 27z" fill="#ffa694"/></g></g></g></g></g></g></g><g><path class="cls-4" d="M21.16 25.6a.42.42 0 0 0-.33.16.42.42 0 0 0-.1.35 3.32 3.32 0 0 0 6.54 0 .42.42 0 0 0-.1-.35.44.44 0 0 0-.33-.16z"/></g><ellipse class="cls-15" cx="18.06" cy="24.19" rx="1" ry=".6"/><ellipse class="cls-15" cx="29.94" cy="24.19" rx="1" ry=".6"/><path class="cls-3" d="M29.94 5.21A7.47 7.47 0 0 0 24 2.58a7.47 7.47 0 0 0-5.94 2.63c-2.62-1.27-7.18.3-7.18 4.54 0 3.95 2.79 4.83 2.79 4.83h20.66s2.79-.88 2.79-4.83c0-4.24-4.56-5.81-7.18-4.54z"/><path class="cls-2" d="M18.06 9.92A7.47 7.47 0 0 1 24 7.29a7.47 7.47 0 0 1 5.94 2.63 5.29 5.29 0 0 1 6.71 2.35 6.32 6.32 0 0 0 .47-2.52c0-4.24-4.56-5.81-7.18-4.54A7.47 7.47 0 0 0 24 2.58a7.47 7.47 0 0 0-5.94 2.63c-2.62-1.27-7.18.3-7.18 4.54a6.32 6.32 0 0 0 .47 2.52 5.29 5.29 0 0 1 6.71-2.35z"/><path class="cls-4" d="M29.94 5.21A7.47 7.47 0 0 0 24 2.58a7.47 7.47 0 0 0-5.94 2.63c-2.62-1.27-7.18.3-7.18 4.54 0 3.95 2.79 4.83 2.79 4.83h20.66s2.79-.88 2.79-4.83c0-4.24-4.56-5.81-7.18-4.54z"/><path class="cls-4" d="M30 9.08c0 2.67-2.69 4.83-6 4.83s-6-2.16-6-4.83"/><path d="M13.67 14.58c0-1 4.62-1.75 10.33-1.75s10.33.78 10.33 1.75v2.79c0-1-4.62-1.75-10.33-1.75s-10.33.79-10.33 1.75z" stroke="#45413c" stroke-linecap="round" stroke-linejoin="round" fill="#f0f0f0"/></svg>