<svg xmlns="http://www.w3.org/2000/svg" viewBox="0 0 48 48"><defs><style>.cls-16{fill:#45413c}.cls-4{fill:none}.cls-16,.cls-4{stroke:#45413c;stroke-linecap:round;stroke-linejoin:round}.cls-6{fill:#eb6d00}.cls-8{fill:#ffcebf}.cls-9{fill:#ffb59e}</style></defs><ellipse cx="24" cy="45.5" rx="15" ry="1.5" opacity=".15" fill="#45413c"/><path d="M24 31.22A11.88 11.88 0 0 1 35.88 43.1V45H12.12v-1.9A11.88 11.88 0 0 1 24 31.22z" fill="#00b8f0"/><path d="M24 31.22A11.88 11.88 0 0 0 12.12 43.1V45h.15a11.87 11.87 0 0 1 23.46 0h.15v-1.9A11.88 11.88 0 0 0 24 31.22z" fill="#009fd9"/><path class="cls-4" d="M24 31.22A11.88 11.88 0 0 1 35.88 43.1V45H12.12v-1.9A11.88 11.88 0 0 1 24 31.22z"/><path d="M29.94 32.81v6.36a1 1 0 0 1-1 1h-9.88a1 1 0 0 1-1-1v-6.36a12.41 12.41 0 0 0-2.19 1.62V45h16.26V34.43a12.41 12.41 0 0 0-2.19-1.62z" fill="#ff8a14"/><path class="cls-6" d="M29.94 36.52a12 12 0 0 1 2.19 1.63v-3.72a12.41 12.41 0 0 0-2.19-1.62zM18.06 36.52v-3.71a12.41 12.41 0 0 0-2.19 1.62v3.72a12 12 0 0 1 2.19-1.63z"/><path class="cls-4" d="M29.94 32.81v6.36a1 1 0 0 1-1 1h-9.88a1 1 0 0 1-1-1v-6.36a12.41 12.41 0 0 0-2.19 1.62V45h16.26V34.43a12.41 12.41 0 0 0-2.19-1.62z"/><path d="M24 30s-5-.06-5 2.79a10 10 0 0 0 2.16 5.77L24 36.13l2.89 2.43a10 10 0 0 0 2.16-5.77C29.05 29.94 24 30 24 30z" stroke="#45413c" stroke-linecap="round" stroke-linejoin="round" fill="#009fd9"/><path class="cls-8" d="M24 36.13l-2.25-2.25a1 1 0 0 1-.29-.71v-3A2.54 2.54 0 0 1 24 27.63a2.54 2.54 0 0 1 2.54 2.55v3a1 1 0 0 1-.29.71z"/><path class="cls-9" d="M24 27.63a2.54 2.54 0 0 0-2.54 2.55v.59a2.54 2.54 0 0 0 5.08 0v-.59A2.54 2.54 0 0 0 24 27.63z"/><path class="cls-4" d="M24 36.13l-2.25-2.25a1 1 0 0 1-.29-.71v-3A2.54 2.54 0 0 1 24 27.63a2.54 2.54 0 0 1 2.54 2.55v3a1 1 0 0 1-.29.71z"/><path class="cls-4" d="M24 36.13v4.04"/><path d="M42.15 33.62a3.93 3.93 0 0 0-1.32-4.39l-1 2.84a1.21 1.21 0 0 1-1.56.75 1.23 1.23 0 0 1-.76-1.56l1-2.84a3.9 3.9 0 0 0-2.45 7l-1.82 5.21 2.31.81 1.82-5.21a3.9 3.9 0 0 0 3.78-2.61z" fill="#daedf7"/><g><path d="M34.75 33.11a3.89 3.89 0 0 1 3-2.54l.75-2.15A3.92 3.92 0 0 0 34.75 31a3.83 3.83 0 0 0-.07 2.34c.03-.06.04-.14.07-.23z" fill="#fff"/></g><path class="cls-4" d="M42.15 33.62a3.93 3.93 0 0 0-1.32-4.39l-1 2.84a1.21 1.21 0 0 1-1.56.75 1.23 1.23 0 0 1-.76-1.56l1-2.84a3.9 3.9 0 0 0-2.45 7l-1.82 5.21 2.31.81 1.82-5.21a3.9 3.9 0 0 0 3.78-2.61z"/><path class="cls-8" d="M37.16 39.82l-3.54-1.24a1.17 1.17 0 1 0-.77 2.2 1.17 1.17 0 1 0-.77 2.2L32 43a1.08 1.08 0 0 0-.71 2l3.63 1.27a2 2 0 0 0 2.5-1.2l1-2.74a2 2 0 0 0-1.26-2.51z"/><g><path d="M37.9 43.65l.46-1.34a2 2 0 0 0-1.2-2.49l-3.54-1.24A1.14 1.14 0 0 0 32.15 40a1.15 1.15 0 0 1 1-.13l3.54 1.24a2 2 0 0 1 1.21 2.54z" fill="#ffdcd1"/></g><path class="cls-4" d="M37.16 39.82l-3.54-1.24a1.17 1.17 0 1 0-.77 2.2 1.17 1.17 0 1 0-.77 2.2L32 43a1.08 1.08 0 0 0-.71 2l3.63 1.27a2 2 0 0 0 2.5-1.2l1-2.74a2 2 0 0 0-1.26-2.51z"/><path class="cls-4" d="M32.85 40.78l1.52.53"/><path class="cls-4" d="M32.08 42.98l1.53.54"/><path d="M24 6.83a9.83 9.83 0 0 0-2.44.31c-1.86.42-4.28 1.12-6.47.7a4.17 4.17 0 0 0 .84 3.21 9.81 9.81 0 0 0-1.75 5.6v5.14h19.64v-5.14A9.82 9.82 0 0 0 24 6.83z" fill="#a86c4d"/><g><path d="M24 6.83a9.83 9.83 0 0 0-2.44.31c-1.86.42-4.28 1.12-6.47.7a4.47 4.47 0 0 0 .68 3 18.77 18.77 0 0 0 5.79-.79 9.81 9.81 0 0 1 12.26 9.51v-2.91A9.82 9.82 0 0 0 24 6.83z" fill="#de926a"/></g><path class="cls-4" d="M24 6.83a9.83 9.83 0 0 0-2.44.31c-1.86.42-4.28 1.12-6.47.7a4.17 4.17 0 0 0 .84 3.21 9.81 9.81 0 0 0-1.75 5.6v5.14h19.64v-5.14A9.82 9.82 0 0 0 24 6.83z"/><path d="M34.87 21a1.84 1.84 0 0 0-1.39-1.54l-.59-.16a2.06 2.06 0 0 1-1.5-2v-2A1.88 1.88 0 0 0 30 13.49a15.34 15.34 0 0 1-6 1.09 15.34 15.34 0 0 1-6-1.09 1.88 1.88 0 0 0-1.4 1.81v2.06a2.06 2.06 0 0 1-1.5 2l-.59.16A1.84 1.84 0 0 0 13.13 21a1.81 1.81 0 0 0 1.81 2h.11A9 9 0 0 0 33 23h.11a1.81 1.81 0 0 0 1.76-2z" fill="#ffcebf" stroke="#45413c" stroke-linecap="round" stroke-linejoin="round"/><path class="cls-16" d="M18.57 20.83a.77.77 0 1 0 1.54 0 .77.77 0 0 0-1.54 0z"/><path class="cls-16" d="M29.43 20.83a.77.77 0 1 1-1.54 0 .77.77 0 0 1 1.54 0z"/><g><g><g><g><g><g><g><path d="M21.16 25.53a.41.41 0 0 0-.33.15.42.42 0 0 0-.1.35 3.32 3.32 0 0 0 6.54 0 .42.42 0 0 0-.1-.35.43.43 0 0 0-.33-.15z" fill="#ff6242"/><path d="M24 26.89a4 4 0 0 0-2.52.77 3.36 3.36 0 0 0 5 0 4 4 0 0 0-2.48-.77z" fill="#ffa694"/></g></g></g></g></g></g></g><g><path class="cls-4" d="M21.16 25.53a.43.43 0 0 0-.33.15.42.42 0 0 0-.1.35 3.32 3.32 0 0 0 6.54 0 .42.42 0 0 0-.1-.35.43.43 0 0 0-.33-.15z"/></g><ellipse class="cls-9" cx="18.06" cy="24.12" rx="1" ry=".6"/><ellipse class="cls-9" cx="29.94" cy="24.12" rx="1" ry=".6"/></svg>