<svg xmlns="http://www.w3.org/2000/svg" viewBox="0 0 48 48"><defs><style>.cls-10,.cls-16,.cls-18,.cls-5{stroke:#45413c;stroke-linecap:round;stroke-linejoin:round}.cls-16{fill:#45413c}.cls-3{fill:#00b8f0}.cls-4{fill:#009fd9}.cls-5{fill:none}.cls-10,.cls-8{fill:#ffe500}.cls-11{fill:#ff6242}.cls-13{fill:#ffaa54}.cls-18{fill:#daedf7}.cls-19{fill:#fff48c}</style></defs><path d="M24 6.32a10.88 10.88 0 0 1 10.88 10.87v14.19a1.24 1.24 0 0 1-.77 1.14 27.09 27.09 0 0 1-20.22 0 1.24 1.24 0 0 1-.77-1.14V17.19A10.88 10.88 0 0 1 24 6.32z" stroke="#45413c" stroke-linecap="round" stroke-linejoin="round" fill="#724f3d"/><ellipse cx="24" cy="45.5" rx="13.5" ry="1.5" opacity=".15" fill="#45413c"/><path class="cls-3" d="M24 31.22A11.88 11.88 0 0 1 35.88 43.1V45H12.12v-1.9A11.88 11.88 0 0 1 24 31.22z"/><path class="cls-4" d="M24 31.22A11.88 11.88 0 0 0 12.12 43.1V45h.07A11.88 11.88 0 0 1 24 34.43 11.88 11.88 0 0 1 35.81 45h.07v-1.9A11.88 11.88 0 0 0 24 31.22z"/><path class="cls-5" d="M24 31.22A11.88 11.88 0 0 1 35.88 43.1V45H12.12v-1.9A11.88 11.88 0 0 1 24 31.22z"/><path d="M24 39.54l4.38-2.76-.1-2 1.38-1.47S29.5 30 24 30s-5.66 3.31-5.66 3.31l1.38 1.47-.1 2z" fill="#009fd9" stroke="#45413c" stroke-linecap="round" stroke-linejoin="round"/><path d="M21.46 32.57c0 3.34 2.54 7 2.54 7s2.54-3.47 2.54-7z" fill="#fff" stroke="#45413c" stroke-linecap="round" stroke-linejoin="round"/><path class="cls-5" d="M17.06 45v-2.41"/><path class="cls-8" d="M24 27.17a2.54 2.54 0 0 0-2.54 2.55v2.85a2.54 2.54 0 1 0 5.08 0v-2.85A2.54 2.54 0 0 0 24 27.17z"/><path d="M24 27.17a2.54 2.54 0 0 0-2.54 2.54v.6a2.54 2.54 0 0 0 5.08 0v-.59A2.54 2.54 0 0 0 24 27.17z" fill="#ebcb00"/><path class="cls-5" d="M24 27.17a2.54 2.54 0 0 0-2.54 2.55v2.85a2.54 2.54 0 1 0 5.08 0v-2.85A2.54 2.54 0 0 0 24 27.17z"/><path class="cls-5" d="M30.94 45v-2.41"/><g><path class="cls-10" d="M33.06 19.47a8.77 8.77 0 0 1-5.67-5L26.77 13a15.92 15.92 0 0 1-9.95 6.18l-1.89.34a1.81 1.81 0 0 0 0 3.62h.12a9 9 0 0 0 17.9 0h.11a1.81 1.81 0 1 0 0-3.62z"/></g><g><g><g><g><g><g><g><g><path class="cls-11" d="M21.16 25.6a.42.42 0 0 0-.33.16.42.42 0 0 0-.1.35 3.32 3.32 0 0 0 6.54 0 .42.42 0 0 0-.1-.35.44.44 0 0 0-.33-.16z"/><path d="M24 27a4 4 0 0 0-2.52.77 3.36 3.36 0 0 0 5 0A4 4 0 0 0 24 27z" fill="#ffa694"/></g></g></g></g></g></g></g><g><path class="cls-5" d="M21.16 25.6a.42.42 0 0 0-.33.16.42.42 0 0 0-.1.35 3.32 3.32 0 0 0 6.54 0 .42.42 0 0 0-.1-.35.44.44 0 0 0-.33-.16z"/></g></g><ellipse class="cls-13" cx="18.06" cy="24.61" rx="1" ry=".6"/><ellipse class="cls-13" cx="29.94" cy="24.61" rx="1" ry=".6"/><path d="M16.08 16.44l.39 5.56a1.69 1.69 0 0 0 1.69 1.57h3.38a1.93 1.93 0 0 0 1.71-1.05.78.78 0 0 1 1.5 0 1.93 1.93 0 0 0 1.71 1.05h3.38A1.69 1.69 0 0 0 31.53 22l.39-5.58z" fill="#80ddff"/><path d="M24 22a.89.89 0 0 1 .75.56 1.93 1.93 0 0 0 1.71 1.05h3.38A1.69 1.69 0 0 0 31.53 22l.39-5.58h-6.35l-5.05 7.15h1a1.93 1.93 0 0 0 1.71-1.05A.89.89 0 0 1 24 22z" fill="#b8ecff"/><path class="cls-5" d="M16.08 16.44l.39 5.56a1.69 1.69 0 0 0 1.69 1.57h3.38a1.93 1.93 0 0 0 1.71-1.05.78.78 0 0 1 1.5 0 1.93 1.93 0 0 0 1.71 1.05h3.38A1.69 1.69 0 0 0 31.53 22l.39-5.58z"/><path class="cls-16" d="M19.07 20.91a.77.77 0 1 0 .77-.77.76.76 0 0 0-.77.77z"/><path class="cls-16" d="M28.93 20.91a.77.77 0 1 1-.77-.77.76.76 0 0 1 .77.77z"/><path class="cls-4" d="M24 14.49c5.13 0 9.47.68 10.92 1.61v-1.27a10.92 10.92 0 0 0-21.84 0v1.27c1.45-.93 5.79-1.61 10.92-1.61z"/><path class="cls-3" d="M24 3.91a10.92 10.92 0 0 0-10.92 10.92v1.27l.11-.07a10.92 10.92 0 0 1 21.62 0l.11.07v-1.27A10.92 10.92 0 0 0 24 3.91z"/><path class="cls-5" d="M24 14.49c5.13 0 9.47.68 10.92 1.61v-1.27a10.92 10.92 0 0 0-21.84 0v1.27c1.45-.93 5.79-1.61 10.92-1.61z"/><path class="cls-4" d="M27.11 4a1.12 1.12 0 0 0-.87-1.09 10.57 10.57 0 0 0-4.48 0A1.12 1.12 0 0 0 20.89 4v10.44h6.22z"/><path class="cls-3" d="M24 2.7a10.32 10.32 0 0 0-2.24.24A1.12 1.12 0 0 0 20.89 4v1.59a10.52 10.52 0 0 1 6.22 0V4a1.12 1.12 0 0 0-.87-1.09A10.32 10.32 0 0 0 24 2.7z"/><path class="cls-5" d="M27.11 4a1.12 1.12 0 0 0-.87-1.09 10.57 10.57 0 0 0-4.48 0A1.12 1.12 0 0 0 20.89 4v10.44h6.22z"/><path class="cls-4" d="M35 17.82a.76.76 0 0 0 .71-.75 2.6 2.6 0 0 0-.27-1.07c-.67-1.4-5.12-2.3-11.44-2.3s-10.77.9-11.44 2.3a2.6 2.6 0 0 0-.25 1.11.76.76 0 0 0 .71.75 95.61 95.61 0 0 0 11 .72A95.61 95.61 0 0 0 35 17.82z"/><path class="cls-3" d="M35 17.82a.76.76 0 0 0 .71-.75 2.6 2.6 0 0 0-.27-1.07 1.4 1.4 0 0 0-.1-.16 101.2 101.2 0 0 1-11.34.71 101.2 101.2 0 0 1-11.34-.75 1.4 1.4 0 0 0-.1.16 2.6 2.6 0 0 0-.25 1.11.76.76 0 0 0 .71.75 95.61 95.61 0 0 0 11 .72A95.61 95.61 0 0 0 35 17.82z"/><path class="cls-5" d="M35 17.82a.76.76 0 0 0 .71-.75 2.6 2.6 0 0 0-.27-1.07c-.67-1.4-5.12-2.3-11.44-2.3s-10.77.9-11.44 2.3a2.6 2.6 0 0 0-.25 1.11.76.76 0 0 0 .71.75 95.61 95.61 0 0 0 11 .72A95.61 95.61 0 0 0 35 17.82z"/><path class="cls-5" d="M24 39.54V45"/><path class="cls-11" d="M36.52 32.5h3.58V45h-3.58z"/><path fill="#e04122" d="M36.52 32.5h3.58v1.99h-3.58z"/><path class="cls-5" d="M36.52 32.5h3.58V45h-3.58z"/><path class="cls-18" d="M39.31 32.5h-2v-6.82a1 1 0 0 1 .2-.6L41.35 20l1.59 1.2-3.63 4.8z"/><path class="cls-5" d="M40.6 19.42l3.09 2.32"/><rect class="cls-18" x="35.63" y="30.55" width="5.37" height="1.95" rx=".97" ry=".97"/><rect class="cls-8" x="39.06" y="38.08" width="4.33" height="2.31" rx="1.15" ry="1.15"/><path class="cls-19" d="M40.22 39.24h2a1.14 1.14 0 0 1 1 .57 1.13 1.13 0 0 0 .18-.57 1.16 1.16 0 0 0-1.16-1.16h-2a1.16 1.16 0 0 0-1.16 1.16 1.13 1.13 0 0 0 .18.57 1.14 1.14 0 0 1 .96-.57z"/><rect class="cls-5" x="39.06" y="38.08" width="4.33" height="2.31" rx="1.15" ry="1.15"/><rect class="cls-10" x="39.06" y="40.39" width="4.33" height="2.31" rx="1.15" ry="1.15"/><rect class="cls-10" x="39.06" y="42.7" width="4.33" height="2.31" rx="1.15" ry="1.15"/><path class="cls-8" d="M35 36.73a1.54 1.54 0 0 1 1.54 1.54V45a2.34 2.34 0 0 1-2.34-2.34v-5.14a.79.79 0 0 1 .8-.79z"/><path class="cls-19" d="M35 36.73a.8.8 0 0 0-.8.79v1.92a.79.79 0 0 1 .8-.79 1.54 1.54 0 0 1 1.54 1.54v-1.92A1.54 1.54 0 0 0 35 36.73z"/><path class="cls-5" d="M35 36.73a1.54 1.54 0 0 1 1.54 1.54V45a2.34 2.34 0 0 1-2.34-2.34v-5.14a.79.79 0 0 1 .8-.79z"/><path d="M45.57 19.15A1.72 1.72 0 0 1 42.92 17c.61-.73 3.56-3.1 4.29-2.49s-1.03 3.91-1.64 4.64z" fill="#ff8a14"/><path class="cls-19" d="M44.68 18.41a.57.57 0 0 1-.79.07.55.55 0 0 1-.07-.78c.19-.24 1.69-1.65 1.92-1.46s-.87 1.93-1.06 2.17z"/></svg>