<svg xmlns="http://www.w3.org/2000/svg" viewBox="0 0 48 48"><defs><style>.cls-3{fill:none}.cls-13,.cls-3,.cls-7{stroke:#45413c;stroke-linecap:round;stroke-linejoin:round}.cls-13{fill:#45413c}.cls-7{fill:#009fd9}.cls-16{fill:#ffaa54}</style></defs><path d="M24 6.31a10.88 10.88 0 0 1 10.88 10.88v14.19a1.24 1.24 0 0 1-.77 1.14 27.18 27.18 0 0 1-20.22 0 1.24 1.24 0 0 1-.77-1.14V17.19A10.88 10.88 0 0 1 24 6.31z" fill="#724f3d"/><path d="M24 6.31a10.88 10.88 0 0 0-10.88 10.88v3a10.88 10.88 0 0 1 21.76 0v-3A10.88 10.88 0 0 0 24 6.31z" fill="#a86c4d"/><path class="cls-3" d="M24 6.31a10.88 10.88 0 0 1 10.88 10.88v14.19a1.24 1.24 0 0 1-.77 1.14 27.18 27.18 0 0 1-20.22 0 1.24 1.24 0 0 1-.77-1.14V17.19A10.88 10.88 0 0 1 24 6.31z"/><ellipse cx="23.98" cy="45.5" rx="13.5" ry="1.5" opacity=".15" fill="#45413c"/><path d="M31.54 32.84L24 30l-7.54 2.87a6.76 6.76 0 0 0-4.35 6.31V45h23.78v-5.85a6.76 6.76 0 0 0-4.35-6.31z" fill="#4acfff"/><path d="M31.54 32.84L24 30l-7.54 2.87a6.76 6.76 0 0 0-4.35 6.31v3a6.76 6.76 0 0 1 4.35-6.31L24 33l7.54 2.87a6.76 6.76 0 0 1 4.35 6.31v-3a6.76 6.76 0 0 0-4.35-6.34z" fill="#00b8f0"/><path class="cls-3" d="M31.54 32.84L24 30l-7.54 2.87a6.76 6.76 0 0 0-4.35 6.31V45h23.78v-5.85a6.76 6.76 0 0 0-4.35-6.31z"/><path class="cls-7" d="M17.43 32.47l-1.9 4.37 2.43.94-1.5 1.31 2.5 5.91h2.32l-2.65-12.99-1.2.46z"/><path fill="#fff" stroke="#45413c" stroke-linecap="round" stroke-linejoin="round" d="M24 29.97l-5.37 2.04L21.28 45h5.44l2.65-12.99L24 29.97z"/><path class="cls-7" d="M17.43 32.47l-1.9 4.37 2.43.94-1.5 1.31 2.5 5.91h2.78L20.4 31.34l-2.97 1.13zM30.57 32.47l1.9 4.37-2.43.94 1.5 1.31-2.5 5.91h-2.78l1.34-13.66 2.97 1.13z"/><path d="M24 30s-5 0-5 2.82a9.94 9.94 0 0 0 2.16 5.77L24 36.16l2.89 2.43a9.94 9.94 0 0 0 2.16-5.77C29.05 30 24 30 24 30z" fill="#f0f0f0" stroke="#45413c" stroke-linecap="round" stroke-linejoin="round"/><path d="M24 27.17a2.54 2.54 0 0 0-2.54 2.55v2.85c0 1.4 2.54 3.59 2.54 3.59s2.54-2.19 2.54-3.59v-2.85A2.54 2.54 0 0 0 24 27.17z" fill="#ffe500"/><path d="M24 27.17a2.54 2.54 0 0 0-2.54 2.54v.6a2.54 2.54 0 0 0 5.08 0v-.59A2.54 2.54 0 0 0 24 27.17z" fill="#ebcb00"/><path class="cls-3" d="M24 27.17a2.54 2.54 0 0 0-2.54 2.55v2.85c0 1.4 2.54 3.59 2.54 3.59s2.54-2.19 2.54-3.59v-2.85A2.54 2.54 0 0 0 24 27.17z"/><g><path d="M33.07 19.46a8.72 8.72 0 0 1-5.68-5L26.77 13a15.9 15.9 0 0 1-9.95 6.17l-1.89.34a1.82 1.82 0 0 0 0 3.63h.12a9 9 0 0 0 17.9 0h.12a1.82 1.82 0 0 0 0-3.63z" fill="#ffe500" stroke="#45413c" stroke-linecap="round" stroke-linejoin="round"/></g><path class="cls-13" d="M18.57 20.91a.77.77 0 0 0 1.54 0 .77.77 0 1 0-1.54 0z"/><path class="cls-13" d="M29.43 20.91a.77.77 0 0 1-1.54 0 .77.77 0 1 1 1.54 0z"/><g><g><g><g><g><g><path d="M21.16 25.6a.46.46 0 0 0-.33.15.43.43 0 0 0-.1.36 3.32 3.32 0 0 0 6.54 0 .43.43 0 0 0-.1-.36.45.45 0 0 0-.33-.15z" fill="#ff6242"/><path d="M24 27a4.11 4.11 0 0 0-2.52.77 3.34 3.34 0 0 0 5 0A4.11 4.11 0 0 0 24 27z" fill="#ffa694"/></g></g></g></g></g></g><path class="cls-3" d="M21.16 25.6a.46.46 0 0 0-.33.15.43.43 0 0 0-.1.36 3.32 3.32 0 0 0 6.54 0 .43.43 0 0 0-.1-.36.45.45 0 0 0-.33-.15z"/><ellipse class="cls-16" cx="18.06" cy="24.19" rx="1" ry=".6"/><ellipse class="cls-16" cx="29.94" cy="24.19" rx="1" ry=".6"/></svg>