<svg xmlns="http://www.w3.org/2000/svg" viewBox="0 0 48 48"><defs><style>.cls-24{fill:#45413c}.cls-4{fill:none}.cls-16,.cls-24,.cls-4,.cls-6{stroke:#45413c;stroke-linecap:round;stroke-linejoin:round}.cls-14,.cls-6{fill:#00dba8}.cls-8{fill:#ffb59e}.cls-15{fill:#00f5bc}.cls-16{fill:#e5feff}</style></defs><ellipse cx="24" cy="45.5" rx="15" ry="1.5" opacity=".15" fill="#45413c"/><path d="M24 31.22A11.88 11.88 0 0 1 35.88 43.1V45H12.12v-1.9A11.88 11.88 0 0 1 24 31.22z" fill="#fff"/><path d="M24 31.22A11.88 11.88 0 0 0 12.12 43.1V45h.06a11.87 11.87 0 0 1 23.64 0h.06v-1.9A11.88 11.88 0 0 0 24 31.22z" fill="#e0e0e0"/><path class="cls-4" d="M24 31.22A11.88 11.88 0 0 1 35.88 43.1V45H12.12v-1.9A11.88 11.88 0 0 1 24 31.22z"/><path d="M30.67 33.26s-1.91-2.85-6.67-2.85-6.67 2.85-6.67 2.85l2 1.85-.77 2.83L24 42.33l5.43-4.39-.77-2.83z" fill="#f0f0f0" stroke="#45413c" stroke-linecap="round" stroke-linejoin="round"/><path class="cls-6" d="M26.54 32.57v1.82A5.49 5.49 0 0 1 24 39a5.49 5.49 0 0 1-2.54-4.65v-1.78z"/><rect x="21.46" y="27.17" width="5.09" height="7.94" rx="2.54" ry="2.54" fill="#ffcebf"/><path class="cls-8" d="M24 27.17a2.54 2.54 0 0 0-2.54 2.54v.6a2.54 2.54 0 0 0 5.08 0v-.59A2.54 2.54 0 0 0 24 27.17z"/><rect class="cls-4" x="21.46" y="27.17" width="5.09" height="7.94" rx="2.54" ry="2.54"/><path class="cls-4" d="M17.06 45v-2.41"/><path class="cls-4" d="M30.94 45v-2.41"/><path class="cls-4" d="M24 39.04V45"/><path d="M35.8 28.65h4.73v15.68a2.36 2.36 0 0 1-2.36 2.36 2.36 2.36 0 0 1-2.36-2.36V28.65z" fill="#80ddff"/><path d="M40.53 29.13l-4.73 6.78v8.42a2.37 2.37 0 0 0 4.73 0z" fill="#b8ecff"/><path class="cls-4" d="M35.8 28.65h4.73v15.68a2.36 2.36 0 0 1-2.36 2.36 2.36 2.36 0 0 1-2.36-2.36V28.65z"/><path d="M35.8 32.39h4.73v11.94a2.36 2.36 0 0 1-2.36 2.36 2.36 2.36 0 0 1-2.36-2.36V32.39h-.01z" fill="#ff6196"/><path d="M35.8 35.91v8.42a2.37 2.37 0 0 0 4.73 0V32.39h-2.27z" fill="#ff87af"/><path class="cls-4" d="M35.8 32.39h4.73v11.94a2.36 2.36 0 0 1-2.36 2.36 2.36 2.36 0 0 1-2.36-2.36V32.39h-.01z"/><rect x="35.03" y="26.72" width="6.27" height="1.92" rx=".96" ry=".96" fill="#80ddff" stroke="#45413c" stroke-linecap="round" stroke-linejoin="round"/><rect class="cls-14" x="38.36" y="34.97" width="4.33" height="2.31" rx="1.15" ry="1.15"/><path class="cls-15" d="M39.52 36.12h2a1.16 1.16 0 0 1 1 .58 1.15 1.15 0 0 0 .16-.58A1.16 1.16 0 0 0 41.54 35h-2a1.16 1.16 0 0 0-1.16 1.15 1.15 1.15 0 0 0 .16.58 1.16 1.16 0 0 1 .98-.61z"/><rect class="cls-4" x="38.36" y="34.97" width="4.33" height="2.31" rx="1.15" ry="1.15"/><rect class="cls-6" x="38.36" y="37.28" width="4.33" height="2.31" rx="1.15" ry="1.15"/><rect class="cls-6" x="38.36" y="39.58" width="4.33" height="2.31" rx="1.15" ry="1.15"/><path class="cls-14" d="M34.26 33.53a1.54 1.54 0 0 1 1.54 1.54v6.73a2.34 2.34 0 0 1-2.34-2.34v-5.13a.79.79 0 0 1 .8-.8z"/><path class="cls-15" d="M34.26 33.53a.79.79 0 0 0-.79.8v1.91a.79.79 0 0 1 .79-.79A1.54 1.54 0 0 1 35.8 37v-1.92a1.54 1.54 0 0 0-1.54-1.55z"/><path class="cls-4" d="M34.26 33.53a1.54 1.54 0 0 1 1.54 1.54v6.73a2.34 2.34 0 0 1-2.34-2.34v-5.13a.79.79 0 0 1 .8-.8z"/><circle class="cls-16" cx="37.68" cy="23.86" r=".94"/><circle class="cls-16" cx="37.43" cy="16.33" r=".94"/><circle class="cls-16" cx="40.53" cy="19.19" r="1.5"/><path d="M24 6.91a9.83 9.83 0 0 0-2.44.31c-1.86.42-4.28 1.12-6.47.7a4.2 4.2 0 0 0 .84 3.21 9.81 9.81 0 0 0-1.75 5.6v5.14h19.64v-5.14A9.82 9.82 0 0 0 24 6.91z" fill="#a86c4d"/><g><path d="M24 6.91a9.83 9.83 0 0 0-2.44.31c-1.86.42-4.28 1.12-6.47.7a4.47 4.47 0 0 0 .68 3 19.4 19.4 0 0 0 5.79-.79 9.81 9.81 0 0 1 12.26 9.51v-2.91A9.82 9.82 0 0 0 24 6.91z" fill="#de926a"/></g><path class="cls-4" d="M24 6.91a9.83 9.83 0 0 0-2.44.31c-1.86.42-4.28 1.12-6.47.7a4.2 4.2 0 0 0 .84 3.21 9.81 9.81 0 0 0-1.75 5.6v5.14h19.64v-5.14A9.82 9.82 0 0 0 24 6.91z"/><path d="M34.87 21.12a1.83 1.83 0 0 0-1.39-1.54l-.59-.16a2.06 2.06 0 0 1-1.5-2v-2.04A1.88 1.88 0 0 0 30 13.57a15.34 15.34 0 0 1-6 1.09 15.34 15.34 0 0 1-6-1.09 1.88 1.88 0 0 0-1.4 1.81v2.06a2.06 2.06 0 0 1-1.5 2l-.59.16a1.83 1.83 0 0 0-1.39 1.54 1.81 1.81 0 0 0 1.81 2h.11a9 9 0 0 0 17.9 0h.11a1.81 1.81 0 0 0 1.82-2.02z" fill="#ffcebf" stroke="#45413c" stroke-linecap="round" stroke-linejoin="round"/><g><g><g><g><g><g><g><path d="M21.16 25.6a.44.44 0 0 0-.33.16.42.42 0 0 0-.1.35 3.32 3.32 0 0 0 6.54 0 .42.42 0 0 0-.1-.35.44.44 0 0 0-.33-.16z" fill="#ff6242"/><path d="M24 27a4 4 0 0 0-2.52.77 3.36 3.36 0 0 0 5 0A4 4 0 0 0 24 27z" fill="#ffa694"/></g></g></g></g></g></g></g><g><path class="cls-4" d="M21.16 25.6a.44.44 0 0 0-.33.16.42.42 0 0 0-.1.35 3.32 3.32 0 0 0 6.54 0 .42.42 0 0 0-.1-.35.44.44 0 0 0-.33-.16z"/></g><ellipse class="cls-8" cx="18.06" cy="24.79" rx="1" ry=".6"/><ellipse class="cls-8" cx="29.94" cy="24.79" rx="1" ry=".6"/><path d="M16 19v3.55a1 1 0 0 0 .88 1l4.07.51a2.07 2.07 0 0 0 1.53-.42l.88-.67a1.14 1.14 0 0 1 1.38 0l.88.67a2.07 2.07 0 0 0 1.53.42l4.07-.51a1 1 0 0 0 .88-1V19a1 1 0 0 0-1-1H17a1 1 0 0 0-1 1z" fill="#00b8f0"/><path d="M32.05 19a1 1 0 0 0-1-1h-6.59l-4.17 6 .61.08a2.07 2.07 0 0 0 1.53-.42l.88-.67a1.14 1.14 0 0 1 1.38 0l.88.67a2.07 2.07 0 0 0 1.53.42l4.07-.51a1 1 0 0 0 .88-1z" fill="#4acfff"/><path class="cls-4" d="M16 19v3.55a1 1 0 0 0 .88 1l4.07.51a2.07 2.07 0 0 0 1.53-.42l.88-.67a1.14 1.14 0 0 1 1.38 0l.88.67a2.07 2.07 0 0 0 1.53.42l4.07-.51a1 1 0 0 0 .88-1V19a1 1 0 0 0-1-1H17a1 1 0 0 0-1 1z"/><path class="cls-24" d="M18.82 20.91a.77.77 0 1 0 .77-.77.76.76 0 0 0-.77.77z"/><path class="cls-24" d="M29.18 20.91a.77.77 0 1 1-.77-.77.76.76 0 0 1 .77.77z"/></svg>