<svg xmlns="http://www.w3.org/2000/svg" viewBox="0 0 48 48"><defs><style>.cls-3{fill:none}.cls-18,.cls-24,.cls-3,.cls-8{stroke:#45413c;stroke-linecap:round;stroke-linejoin:round}.cls-24{fill:#45413c}.cls-16,.cls-8{fill:#00dba8}.cls-10{fill:#ffb59e}.cls-17{fill:#00f5bc}.cls-18{fill:#e5feff}</style></defs><path d="M24 6.32a10.88 10.88 0 0 1 10.88 10.87v14.19a1.24 1.24 0 0 1-.77 1.14 27.09 27.09 0 0 1-20.22 0 1.24 1.24 0 0 1-.77-1.14V17.19A10.88 10.88 0 0 1 24 6.32z" fill="#a86c4d"/><path d="M24 6.32a10.88 10.88 0 0 0-10.88 10.87v3a10.88 10.88 0 0 1 21.76 0v-3A10.88 10.88 0 0 0 24 6.32z" fill="#de926a"/><path class="cls-3" d="M24 6.32a10.88 10.88 0 0 1 10.88 10.87v14.19a1.24 1.24 0 0 1-.77 1.14 27.09 27.09 0 0 1-20.22 0 1.24 1.24 0 0 1-.77-1.14V17.19A10.88 10.88 0 0 1 24 6.32z"/><ellipse cx="24" cy="45.5" rx="15" ry="1.5" opacity=".15" fill="#45413c"/><path d="M24 31.22A11.88 11.88 0 0 1 35.88 43.1V45H12.12v-1.9A11.88 11.88 0 0 1 24 31.22z" fill="#fff"/><path d="M24 31.22A11.88 11.88 0 0 0 12.12 43.1V45h.06a11.87 11.87 0 0 1 23.64 0h.06v-1.9A11.88 11.88 0 0 0 24 31.22z" fill="#e0e0e0"/><path class="cls-3" d="M24 31.22A11.88 11.88 0 0 1 35.88 43.1V45H12.12v-1.9A11.88 11.88 0 0 1 24 31.22z"/><path d="M30.67 33.26s-1.91-2.85-6.67-2.85-6.67 2.85-6.67 2.85l2 1.85-.77 2.83L24 42.33l5.43-4.39-.77-2.83z" fill="#f0f0f0" stroke="#45413c" stroke-linecap="round" stroke-linejoin="round"/><path class="cls-8" d="M26.54 32.57v1.82A5.49 5.49 0 0 1 24 39a5.49 5.49 0 0 1-2.54-4.65v-1.78z"/><rect x="21.46" y="27.17" width="5.09" height="7.94" rx="2.54" ry="2.54" fill="#ffcebf"/><path class="cls-10" d="M24 27.17a2.54 2.54 0 0 0-2.54 2.54v.6a2.54 2.54 0 0 0 5.08 0v-.59A2.54 2.54 0 0 0 24 27.17z"/><rect class="cls-3" x="21.46" y="27.17" width="5.09" height="7.94" rx="2.54" ry="2.54"/><path class="cls-3" d="M17.06 45v-2.41"/><path class="cls-3" d="M30.94 45v-2.41"/><path class="cls-3" d="M24 39.04V45"/><path d="M34.87 29h4.73v15.68A2.36 2.36 0 0 1 37.24 47a2.36 2.36 0 0 1-2.36-2.36V29h-.01z" fill="#80ddff"/><path d="M39.6 29.48l-4.73 6.78v8.42a2.37 2.37 0 0 0 4.73 0z" fill="#b8ecff"/><path class="cls-3" d="M34.87 29h4.73v15.68A2.36 2.36 0 0 1 37.24 47a2.36 2.36 0 0 1-2.36-2.36V29h-.01z"/><path d="M34.87 32.74h4.73v11.94A2.36 2.36 0 0 1 37.24 47a2.36 2.36 0 0 1-2.36-2.36v-11.9z" fill="#ff6196"/><path d="M34.87 36.26v8.42a2.37 2.37 0 0 0 4.73 0V32.74h-2.27z" fill="#ff87af"/><path class="cls-3" d="M34.87 32.74h4.73v11.94A2.36 2.36 0 0 1 37.24 47a2.36 2.36 0 0 1-2.36-2.36v-11.9h-.01z"/><rect x="34.1" y="27.07" width="6.27" height="1.92" rx=".96" ry=".96" fill="#80ddff" stroke="#45413c" stroke-linecap="round" stroke-linejoin="round"/><rect class="cls-16" x="37.43" y="36.44" width="4.33" height="2.31" rx="1.15" ry="1.15"/><path class="cls-17" d="M38.59 37.59h2a1.16 1.16 0 0 1 1 .58 1.15 1.15 0 0 0 .16-.58 1.16 1.16 0 0 0-1.16-1.15h-2a1.16 1.16 0 0 0-1.16 1.15 1.15 1.15 0 0 0 .16.58 1.16 1.16 0 0 1 1-.58z"/><rect class="cls-3" x="37.43" y="36.44" width="4.33" height="2.31" rx="1.15" ry="1.15"/><rect class="cls-8" x="37.43" y="38.75" width="4.33" height="2.31" rx="1.15" ry="1.15"/><rect class="cls-8" x="37.43" y="41.05" width="4.33" height="2.31" rx="1.15" ry="1.15"/><path class="cls-16" d="M33.33 35a1.54 1.54 0 0 1 1.54 1.54v6.73a2.34 2.34 0 0 1-2.34-2.34V35.8a.79.79 0 0 1 .8-.8z"/><path class="cls-17" d="M33.33 35a.79.79 0 0 0-.79.8v1.91a.79.79 0 0 1 .79-.79 1.54 1.54 0 0 1 1.54 1.54v-1.91A1.54 1.54 0 0 0 33.33 35z"/><path class="cls-3" d="M33.33 35a1.54 1.54 0 0 1 1.54 1.54v6.73a2.34 2.34 0 0 1-2.34-2.34V35.8a.79.79 0 0 1 .8-.8z"/><circle class="cls-18" cx="38.04" cy="24.21" r=".94"/><circle class="cls-18" cx="37.79" cy="16.68" r=".94"/><circle class="cls-18" cx="40.89" cy="19.54" r="1.5"/><g><path d="M33.07 19.47a8.77 8.77 0 0 1-5.68-5L26.77 13a15.92 15.92 0 0 1-9.95 6.18l-1.88.34a1.81 1.81 0 1 0 0 3.62h.11a9 9 0 0 0 17.9 0h.12a1.81 1.81 0 1 0 0-3.62z" fill="#ffcebf" stroke="#45413c" stroke-linecap="round" stroke-linejoin="round"/></g><g><g><g><g><g><g><g><path d="M21.16 25.6a.44.44 0 0 0-.33.16.42.42 0 0 0-.1.35 3.32 3.32 0 0 0 6.54 0 .42.42 0 0 0-.1-.35.44.44 0 0 0-.33-.16z" fill="#ff6242"/><path d="M24 27a4 4 0 0 0-2.52.77 3.36 3.36 0 0 0 5 0A4 4 0 0 0 24 27z" fill="#ffa694"/></g></g></g></g></g></g></g><g><path class="cls-3" d="M21.16 25.6a.44.44 0 0 0-.33.16.42.42 0 0 0-.1.35 3.32 3.32 0 0 0 6.54 0 .42.42 0 0 0-.1-.35.44.44 0 0 0-.33-.16z"/></g><ellipse class="cls-10" cx="18.06" cy="24.79" rx="1" ry=".6"/><ellipse class="cls-10" cx="29.94" cy="24.79" rx="1" ry=".6"/><path d="M16 19v3.55a1 1 0 0 0 .88 1l4.07.51a2.07 2.07 0 0 0 1.53-.42l.88-.67a1.14 1.14 0 0 1 1.38 0l.88.67a2.07 2.07 0 0 0 1.53.42l4.07-.51a1 1 0 0 0 .88-1V19a1 1 0 0 0-1-1H17a1 1 0 0 0-1 1z" fill="#00b8f0"/><path d="M32.05 19a1 1 0 0 0-1-1h-6.59l-4.17 6 .61.08a2.07 2.07 0 0 0 1.53-.42l.88-.67a1.14 1.14 0 0 1 1.38 0l.88.67a2.07 2.07 0 0 0 1.53.42l4.07-.51a1 1 0 0 0 .88-1z" fill="#4acfff"/><path class="cls-3" d="M16 19v3.55a1 1 0 0 0 .88 1l4.07.51a2.07 2.07 0 0 0 1.53-.42l.88-.67a1.14 1.14 0 0 1 1.38 0l.88.67a2.07 2.07 0 0 0 1.53.42l4.07-.51a1 1 0 0 0 .88-1V19a1 1 0 0 0-1-1H17a1 1 0 0 0-1 1z"/><path class="cls-24" d="M18.82 20.91a.77.77 0 1 0 .77-.77.76.76 0 0 0-.77.77z"/><path class="cls-24" d="M29.18 20.91a.77.77 0 1 1-.77-.77.76.76 0 0 1 .77.77z"/></svg>