<svg xmlns="http://www.w3.org/2000/svg" viewBox="0 0 48 48"><defs><style>.cls-12{fill:#45413c}.cls-12,.cls-6{stroke:#45413c;stroke-linecap:round;stroke-linejoin:round}.cls-3{fill:#6dd627}.cls-6{fill:none}.cls-15{fill:#ffaa54}.cls-18{fill:#fff}</style></defs><ellipse cx="24" cy="45.5" rx="15" ry="1.5" opacity=".15" fill="#45413c"/><g><rect x="4.67" y="4" width="38.67" height="25.21" rx="2" ry="2" stroke="#45413c" stroke-linecap="round" stroke-linejoin="round" fill="#525252"/><rect class="cls-3" x="7.56" y="6.59" width="8.73" height="2.67" rx=".5" ry=".5"/><rect class="cls-3" x="17.62" y="6.59" width="17.41" height="2.67" rx=".5" ry=".5"/><rect class="cls-3" x="36.02" y="6.59" width="4.42" height="2.67" rx=".5" ry=".5"/><rect class="cls-3" x="7.56" y="10.93" width="2.11" height="2.67" rx=".5" ry=".5"/><rect class="cls-3" x="11.07" y="10.93" width="9.04" height="2.67" rx=".5" ry=".5"/><rect class="cls-3" x="21.46" y="10.93" width="4.52" height="2.67" rx=".5" ry=".5"/><rect class="cls-3" x="27.17" y="10.93" width="13.26" height="2.67" rx=".5" ry=".5"/><rect class="cls-3" x="7.42" y="15.27" width="10.06" height="2.67" rx=".5" ry=".5"/><rect class="cls-3" x="18.57" y="15.27" width="21.87" height="2.67" rx=".5" ry=".5"/><rect class="cls-3" x="7.42" y="19.61" width="6.76" height="2.67" rx=".5" ry=".5"/><rect class="cls-3" x="15.68" y="19.61" width="15.26" height="2.67" rx=".5" ry=".5"/><rect class="cls-3" x="32.18" y="19.61" width="2.65" height="2.67" rx=".5" ry=".5"/><rect class="cls-3" x="36.02" y="19.61" width="4.42" height="2.67" rx=".5" ry=".5"/><rect class="cls-3" x="7.42" y="23.95" width="24.76" height="2.67" rx=".5" ry=".5"/><rect class="cls-3" x="33.5" y="23.95" width="6.94" height="2.67" rx=".5" ry=".5"/></g><path d="M24 31.22A11.88 11.88 0 0 1 35.88 43.1V45H12.12v-1.9A11.88 11.88 0 0 1 24 31.22z" fill="#00b8f0"/><path d="M24 31.22A11.88 11.88 0 0 0 12.12 43.1V45h.13A11.88 11.88 0 0 1 24 34.8 11.88 11.88 0 0 1 35.75 45h.13v-1.9A11.88 11.88 0 0 0 24 31.22z" fill="#009fd9"/><path class="cls-6" d="M24 31.22A11.88 11.88 0 0 1 35.88 43.1V45H12.12v-1.9A11.88 11.88 0 0 1 24 31.22z"/><rect x="21.46" y="27.17" width="5.09" height="7.94" rx="2.54" ry="2.54" fill="#ffe500"/><path d="M24 27.17a2.54 2.54 0 0 0-2.54 2.54v.6a2.54 2.54 0 0 0 5.08 0v-.59A2.54 2.54 0 0 0 24 27.17z" fill="#ebcb00"/><rect class="cls-6" x="21.46" y="27.17" width="5.09" height="7.94" rx="2.54" ry="2.54"/><path class="cls-6" d="M17.06 45v-2.41"/><path class="cls-6" d="M30.94 45v-2.41"/><path d="M24 6.91a9.83 9.83 0 0 0-2.44.31c-1.86.42-4.28 1.12-6.47.7a4.2 4.2 0 0 0 .84 3.21 9.81 9.81 0 0 0-1.75 5.6v5.14h19.64v-5.14A9.82 9.82 0 0 0 24 6.91z" fill="#724f3d"/><g><path d="M24 6.91a9.83 9.83 0 0 0-2.44.31c-1.86.42-4.28 1.12-6.47.7a4.47 4.47 0 0 0 .68 3 19.4 19.4 0 0 0 5.79-.79 9.81 9.81 0 0 1 12.26 9.51v-2.91A9.82 9.82 0 0 0 24 6.91z" fill="#a86c4d"/></g><path class="cls-6" d="M24 6.91a9.83 9.83 0 0 0-2.44.31c-1.86.42-4.28 1.12-6.47.7a4.2 4.2 0 0 0 .84 3.21 9.81 9.81 0 0 0-1.75 5.6v5.14h19.64v-5.14A9.82 9.82 0 0 0 24 6.91z"/><path d="M34.87 21.12a1.83 1.83 0 0 0-1.39-1.54l-.59-.16a2.06 2.06 0 0 1-1.5-2v-2.04A1.88 1.88 0 0 0 30 13.57a15.34 15.34 0 0 1-6 1.09 15.34 15.34 0 0 1-6-1.09 1.88 1.88 0 0 0-1.4 1.81v2.06a2.06 2.06 0 0 1-1.5 2l-.59.16a1.83 1.83 0 0 0-1.39 1.54 1.81 1.81 0 0 0 1.81 2h.11a9 9 0 0 0 17.9 0h.11a1.81 1.81 0 0 0 1.82-2.02z" fill="#ffe500" stroke="#45413c" stroke-linecap="round" stroke-linejoin="round"/><path class="cls-12" d="M18.57 20.91a.77.77 0 1 0 .77-.77.76.76 0 0 0-.77.77z"/><path class="cls-12" d="M29.43 20.91a.77.77 0 1 1-.77-.77.76.76 0 0 1 .77.77z"/><g><g><g><g><g><g><g><path d="M21.16 25.6a.44.44 0 0 0-.33.16.42.42 0 0 0-.1.35 3.32 3.32 0 0 0 6.54 0 .42.42 0 0 0-.1-.35.42.42 0 0 0-.33-.16z" fill="#ff6242"/><path d="M24 27a4 4 0 0 0-2.52.77 3.36 3.36 0 0 0 5 0A4 4 0 0 0 24 27z" fill="#ffa694"/></g></g></g></g></g></g></g><g><path class="cls-6" d="M21.16 25.6a.44.44 0 0 0-.33.16.42.42 0 0 0-.1.35 3.32 3.32 0 0 0 6.54 0 .42.42 0 0 0-.1-.35.42.42 0 0 0-.33-.16z"/></g><ellipse class="cls-15" cx="18.06" cy="24.19" rx="1" ry=".6"/><ellipse class="cls-15" cx="29.94" cy="24.19" rx="1" ry=".6"/><path d="M32.52 45h-17a.76.76 0 0 1-.77-.62l-1.21-9.9a.73.73 0 0 1 .78-.77h19.4a.73.73 0 0 1 .78.77l-1.21 9.9a.76.76 0 0 1-.77.62z" fill="#adc4d9"/><path d="M14.28 36.94h19.44a.79.79 0 0 1 .46.15l.32-2.61a.73.73 0 0 0-.78-.77H14.28a.73.73 0 0 0-.78.77l.32 2.61a.79.79 0 0 1 .46-.15z" fill="#c0dceb"/><path class="cls-6" d="M32.52 45h-17a.76.76 0 0 1-.77-.62l-1.21-9.9a.73.73 0 0 1 .78-.77h19.4a.73.73 0 0 1 .78.77l-1.21 9.9a.76.76 0 0 1-.77.62z"/><path class="cls-18" d="M25.19 39.36a1.43 1.43 0 0 1 .24-.85.65.65 0 0 0-.37-.24.81.81 0 0 0-.95.33.83.83 0 0 0-1-.33c-.5.1-.75.82-.57 1.59s.74 1.32 1.25 1.22a.7.7 0 0 0 .28-.15.61.61 0 0 0 .27.15c.41.08.85-.26 1.1-.8a1.33 1.33 0 0 1-.25-.92z"/><ellipse class="cls-18" cx="24.61" cy="37.65" rx=".62" ry=".24" transform="rotate(-48.65 24.605 37.658)"/></svg>