<svg xmlns="http://www.w3.org/2000/svg" viewBox="0 0 48 48"><defs><style>.cls-10,.cls-13,.cls-20,.cls-5{stroke:#45413c;stroke-linecap:round;stroke-linejoin:round}.cls-20{fill:#45413c}.cls-5{fill:none}.cls-10{fill:#00dba8}.cls-8{fill:#ffcebf}.cls-9{fill:#ffb59e}.cls-13{fill:#ff6242}.cls-18{fill:#ffdcd1}.cls-23{fill:#8ca4b8}.cls-24{fill:#627b8c}</style></defs><path d="M34.11 32.54a27.18 27.18 0 0 1-20.22 0 1.24 1.24 0 0 1-.77-1.14V17.21A10.88 10.88 0 0 1 24 6.33a10.88 10.88 0 0 1 10.88 10.88V31.4a1.23 1.23 0 0 1-.77 1.14z" stroke="#45413c" stroke-linecap="round" stroke-linejoin="round" fill="#a86c4d"/><ellipse cx="23.34" cy="45.5" rx="17" ry="1.5" opacity=".15" fill="#45413c"/><path d="M24 31.22A11.88 11.88 0 0 1 35.88 43.1V45H12.12v-1.9A11.88 11.88 0 0 1 24 31.22z" fill="#fff"/><path d="M24 31.22A11.88 11.88 0 0 0 12.12 43.1V45h.11a11.88 11.88 0 0 1 23.54 0h.11v-1.9A11.88 11.88 0 0 0 24 31.22z" fill="#f0f0f0"/><path class="cls-5" d="M24 31.22A11.88 11.88 0 0 1 35.88 43.1V45H12.12v-1.9A11.88 11.88 0 0 1 24 31.22z"/><ellipse cx="24" cy="33.65" rx="4.71" ry="3.54" fill="#00dba8"/><path d="M24 30.11a4.75 4.75 0 0 0-4.5 2.49 4.74 4.74 0 0 0 4.5 2.5 4.74 4.74 0 0 0 4.5-2.5 4.75 4.75 0 0 0-4.5-2.49z" fill="#00ad85"/><ellipse class="cls-5" cx="24" cy="33.65" rx="4.71" ry="3.54"/><path class="cls-8" d="M24 27.16a2.54 2.54 0 0 0-2.54 2.55v2.84a2.54 2.54 0 1 0 5.08 0v-2.84A2.54 2.54 0 0 0 24 27.16z"/><path class="cls-9" d="M24 27.16a2.54 2.54 0 0 0-2.54 2.54v.6a2.54 2.54 0 0 0 5.08 0v-.59A2.54 2.54 0 0 0 24 27.16z"/><path class="cls-5" d="M24 27.16a2.54 2.54 0 0 0-2.54 2.55v2.84a2.54 2.54 0 1 0 5.08 0v-2.84A2.54 2.54 0 0 0 24 27.16z"/><path class="cls-5" d="M17.06 45v-2.41"/><path class="cls-5" d="M30.94 45v-2.42"/><path class="cls-10" d="M26.1 37.08a4 4 0 0 0 2 1.44c1.3.36 2.14-.18 2.7.17-.82-2.26-2.76-3.43-4-2.86s-.7 1.25-.7 1.25z"/><path class="cls-10" d="M25 37.12a4.71 4.71 0 0 0-.39 2.88c.36 1.53 1.37 2.09 1.33 2.86 1.86-2.1 2-4.74.7-5.7S25 37.12 25 37.12z"/><path class="cls-10" d="M24 35.1a1.78 1.78 0 0 1 .81.83 4 4 0 0 1 .19 1.19 2.29 2.29 0 0 0 1.85 0 1.78 1.78 0 0 0 .47-2.56c-.68-.88-2.15-1.08-3.32.54z"/><path d="M7.25 45s-6.65-7.58-.92-8.45c6.21-.93 13 8.45 13 8.45z" fill="#debb7e"/><path d="M6.33 39.4c3.92-.59 8.05 2.92 10.57 5.6h2.39s-6.75-9.38-13-8.45c-2.54.39-2.65 2.08-2 3.86a2.73 2.73 0 0 1 2.04-1.01z" fill="#f0d5a8"/><path class="cls-5" d="M7.25 45s-6.65-7.58-.92-8.45c6.21-.93 13 8.45 13 8.45z"/><ellipse class="cls-13" cx="9" cy="39.33" rx=".89" ry="1.71" transform="rotate(-55.03 9.005 39.336)"/><ellipse cx="13.61" cy="41.78" rx=".89" ry="1.71" transform="rotate(-55.03 13.617 41.775)" fill="#ffe500" stroke="#45413c" stroke-linecap="round" stroke-linejoin="round"/><path fill="#daedf7" stroke="#45413c" stroke-linecap="round" stroke-linejoin="round" d="M39.04 36.34l-2.1-.52 1.45-6.94 2.59.64-1.94 6.82z"/><path transform="rotate(13.81 37.029 40.09)" fill="#bf8256" stroke="#45413c" stroke-linecap="round" stroke-linejoin="round" d="M35.92 35.96h2.17v8.25h-2.17z"/><path d="M38.39 28.88c-.65-1.24.18-2.76 1.13-3.54a3.58 3.58 0 0 0 1.26-1.84 3.71 3.71 0 0 1 1.52 3.77 3.38 3.38 0 0 1-1.3 2.25z" fill="#fff5e3" stroke="#45413c" stroke-linecap="round" stroke-linejoin="round"/><path class="cls-13" d="M38.73 26.21a6.17 6.17 0 0 0 1.64.65 6.25 6.25 0 0 0 2 .17 3.75 3.75 0 0 0-1.57-3.53 3.58 3.58 0 0 1-1.26 1.84 3.91 3.91 0 0 0-.81.87z"/><path class="cls-8" d="M34.22 36.24a1.54 1.54 0 0 1 1.54 1.54v6.73a2.34 2.34 0 0 1-2.34-2.34V37a.79.79 0 0 1 .8-.76z" transform="rotate(13.81 34.593 40.385)"/><path class="cls-18" d="M35.22 36.27a.78.78 0 0 0-1 .58l-.46 1.86a.79.79 0 0 1 1-.58A1.53 1.53 0 0 1 35.89 40l.46-1.86a1.54 1.54 0 0 0-1.13-1.87z"/><path class="cls-5" d="M34.22 36.24a1.54 1.54 0 0 1 1.54 1.54v6.73a2.34 2.34 0 0 1-2.34-2.34V37a.79.79 0 0 1 .8-.76z" transform="rotate(13.81 34.593 40.385)"/><path class="cls-8" d="M38.9 38.59l-1.9-.48a1.15 1.15 0 0 0-.6 2.22 1.15 1.15 0 0 0-.49 2.24 1.15 1.15 0 1 0-.55 2.24l1.93.47a2.19 2.19 0 0 0 2.65-1.6l.6-2.44a2.19 2.19 0 0 0-1.6-2.65z"/><g><path class="cls-18" d="M38.9 38.59l-1.9-.48a1.15 1.15 0 0 0-1.39.85 1.07 1.07 0 0 0 0 .59 1.15 1.15 0 0 1 1.09-.33l1.94.48a2.18 2.18 0 0 1 1.6 2.64l.27-1.1a2.19 2.19 0 0 0-1.61-2.65z"/></g><path class="cls-5" d="M38.9 38.59l-1.9-.48a1.15 1.15 0 0 0-.6 2.22 1.15 1.15 0 0 0-.49 2.24 1.15 1.15 0 1 0-.55 2.24l1.93.47a2.19 2.19 0 0 0 2.65-1.6l.6-2.44a2.19 2.19 0 0 0-1.6-2.65z"/><g><path d="M33.07 19.48a8.77 8.77 0 0 1-5.68-5L26.77 13a15.92 15.92 0 0 1-9.95 6.18l-1.88.34a1.82 1.82 0 1 0 0 3.63h.11a9.05 9.05 0 0 0 17.91 0h.11a1.82 1.82 0 0 0 0-3.63z" fill="#ffcebf" stroke="#45413c" stroke-linecap="round" stroke-linejoin="round"/></g><path class="cls-20" d="M18.57 20.92a.77.77 0 1 0 .77-.77.77.77 0 0 0-.77.77z"/><path class="cls-20" d="M29.44 20.92a.78.78 0 1 1-.78-.77.78.78 0 0 1 .78.77z"/><g><g><g><g><g><g><g><path d="M21.17 25.62a.45.45 0 0 0-.34.15.47.47 0 0 0-.1.36 3.32 3.32 0 0 0 6.55 0 .44.44 0 0 0-.11-.36.41.41 0 0 0-.33-.15z" fill="#ff6242"/><path d="M24 27a4 4 0 0 0-2.52.77 3.34 3.34 0 0 0 5 0A4 4 0 0 0 24 27z" fill="#ffa694"/></g></g></g></g></g></g></g><g><path class="cls-5" d="M21.17 25.62a.45.45 0 0 0-.34.15.47.47 0 0 0-.1.36 3.32 3.32 0 0 0 6.55 0 .44.44 0 0 0-.11-.36.41.41 0 0 0-.33-.15z"/></g><ellipse class="cls-9" cx="18.06" cy="24.21" rx="1" ry=".6"/><ellipse class="cls-9" cx="29.94" cy="24.21" rx="1" ry=".6"/><path class="cls-23" d="M13.21 16c0-1.06 4.85-1.92 10.82-1.92s10.82.86 10.82 1.92l-.35-3.84c0-1.05-4.68-1.91-10.47-1.91s-10.47.86-10.47 1.91z"/><g><path class="cls-24" d="M13.22 15.94a.13.13 0 0 0 0 .06z"/><path class="cls-24" d="M24 10.25c-5.78 0-10.47.86-10.47 1.91l-.34 3.78c.17-1 4.94-1.86 10.81-1.86h1.68a20.52 20.52 0 0 0 5.68-3.3 43.73 43.73 0 0 0-7.36-.53z"/></g><path class="cls-5" d="M13.21 16c0-1.06 4.85-1.92 10.82-1.92s10.82.86 10.82 1.92l-.35-3.84c0-1.05-4.68-1.91-10.47-1.91s-10.47.86-10.47 1.91z"/><path class="cls-23" d="M35.86 7.29C33.63 3.94 28 3.06 24 3.37a29.29 29.29 0 0 0-13 4.71c-1.83 1.3-2.46 2.6-1.93 3.39 1.12 2 7.07 2.47 16.18-1.21 5.19.11 9.22.92 9.22 1.9.03 0 3.35-1.91 1.39-4.87z"/><path d="M9.5 12a7.1 7.1 0 0 1 1.5-1.45 29.17 29.17 0 0 1 13-4.71c4-.31 9.6.57 11.83 3.92a4.46 4.46 0 0 1 .33.6 2.94 2.94 0 0 0-.33-3.07C33.63 3.94 28 3.06 24 3.37a29.29 29.29 0 0 0-13 4.71c-1.83 1.3-2.46 2.6-1.93 3.39a2 2 0 0 0 .43.53z" fill="#adc4d9"/><path class="cls-5" d="M35.86 7.29C33.63 3.94 28 3.06 24 3.37a29.29 29.29 0 0 0-13 4.71c-1.83 1.3-2.46 2.6-1.93 3.39 1.12 2 7.07 2.47 16.18-1.21 5.19.11 9.22.92 9.22 1.9.03 0 3.35-1.91 1.39-4.87z"/><path class="cls-5" d="M25.28 10.26c1.41-.57 2.89-1.23 4.44-2"/><ellipse cx="24.03" cy="3.37" rx="1.73" ry="1.09" transform="rotate(-6.11 24.06 3.351)" fill="#627b8c" stroke="#45413c" stroke-linecap="round" stroke-linejoin="round"/></svg>