<svg xmlns="http://www.w3.org/2000/svg" viewBox="0 0 48 48"><defs><style>.cls-11{fill:#45413c}.cls-2,.cls-6{fill:#656769}.cls-3{fill:#525252}.cls-4{fill:none}.cls-11,.cls-4,.cls-5,.cls-6,.cls-7{stroke:#45413c;stroke-linecap:round;stroke-linejoin:round}.cls-5{fill:#fff}.cls-7{fill:#ffe500}.cls-14{fill:#ffaa54}</style></defs><ellipse cx="24" cy="45.5" rx="13.5" ry="1.5" opacity=".15" fill="#45413c"/><path class="cls-2" d="M31.54 32.84L24 30l-7.54 2.87a6.76 6.76 0 0 0-4.35 6.31V45h23.78v-5.85a6.76 6.76 0 0 0-4.35-6.31z"/><path class="cls-3" d="M15.64 35.3l1.55-2.74-.73.28a6.76 6.76 0 0 0-4.35 6.31v3a6.73 6.73 0 0 1 4.35-6.3l.56-.22zM31.54 32.84l-.73-.28 1.55 2.74-1.36.34.56.22a6.73 6.73 0 0 1 4.35 6.3v-3a6.76 6.76 0 0 0-4.37-6.32z"/><path class="cls-4" d="M31.54 32.84L24 30l-7.54 2.87a6.76 6.76 0 0 0-4.35 6.31V45h23.78v-5.85a6.76 6.76 0 0 0-4.35-6.31z"/><path class="cls-4" d="M30.23 35.83l2.13-.53-1.55-2.74L24 29.97l-6.81 2.59-1.55 2.74 2.13.53-.72 2.22L21.92 45h4.16l4.87-6.95-.72-2.22z"/><path class="cls-5" d="M24 36.16l-2.89 2.43.81 6.41h4.16l.81-6.41L24 36.16z"/><path class="cls-5" d="M24 30s-5 0-5 2.82a9.94 9.94 0 0 0 2.16 5.77L24 36.16l2.89 2.43a9.94 9.94 0 0 0 2.16-5.77C29.05 30 24 30 24 30z"/><path class="cls-6" d="M24 36.16l-1.81 1.52 1.01 1.81h1.6l1.01-1.81L24 36.16zM24.8 39.49h-1.6L21.92 45h4.16l-1.28-5.51z"/><path class="cls-7" d="M34.15 40.79h-5.84l.42 1.3a.71.71 0 0 0 .66.53h3.69a.7.7 0 0 0 .65-.53z"/><circle class="cls-7" cx="31.23" cy="41.71" r=".91"/><path d="M24 27.17a2.54 2.54 0 0 0-2.54 2.55v2.85c0 1.4 2.54 3.59 2.54 3.59s2.54-2.19 2.54-3.59v-2.85A2.54 2.54 0 0 0 24 27.17z" fill="#ffe500"/><path d="M24 27.17a2.54 2.54 0 0 0-2.54 2.54v.6a2.54 2.54 0 0 0 5.08 0v-.59A2.54 2.54 0 0 0 24 27.17z" fill="#ebcb00"/><path class="cls-4" d="M24 27.17a2.54 2.54 0 0 0-2.54 2.55v2.85c0 1.4 2.54 3.59 2.54 3.59s2.54-2.19 2.54-3.59v-2.85A2.54 2.54 0 0 0 24 27.17z"/><path d="M24 6.91a9.82 9.82 0 0 0-2.44.3c-1.86.42-4.28 1.13-6.47.71a4.22 4.22 0 0 0 .84 3.21 9.81 9.81 0 0 0-1.75 5.6v5.14h19.64v-5.14A9.82 9.82 0 0 0 24 6.91z" fill="#724f3d" stroke="#45413c" stroke-linecap="round" stroke-linejoin="round"/><path class="cls-7" d="M34.87 21.12a1.83 1.83 0 0 0-1.39-1.54l-.59-.17a2 2 0 0 1-1.5-2v-2.04a1.86 1.86 0 0 0-1.4-1.8 15.52 15.52 0 0 1-6 1.09 15.52 15.52 0 0 1-6-1.09 1.86 1.86 0 0 0-1.4 1.8v2.07a2 2 0 0 1-1.5 2l-.59.17a1.83 1.83 0 0 0-1.39 1.54 1.81 1.81 0 0 0 1.81 2h.11a9 9 0 0 0 17.9 0h.11a1.81 1.81 0 0 0 1.83-2.03z"/><path class="cls-11" d="M18.57 20.91a.77.77 0 0 0 1.54 0 .77.77 0 1 0-1.54 0z"/><path class="cls-11" d="M29.43 20.91a.77.77 0 0 1-1.54 0 .77.77 0 1 1 1.54 0z"/><g><g><g><g><g><g><g><path d="M21.16 25.6a.45.45 0 0 0-.33.15.43.43 0 0 0-.1.36 3.32 3.32 0 0 0 6.54 0 .43.43 0 0 0-.1-.36.46.46 0 0 0-.33-.15z" fill="#ff6242"/><path d="M24 27a4.11 4.11 0 0 0-2.52.77 3.34 3.34 0 0 0 5 0A4.11 4.11 0 0 0 24 27z" fill="#ffa694"/></g></g></g></g></g></g></g><g><path class="cls-4" d="M21.16 25.6a.45.45 0 0 0-.33.15.43.43 0 0 0-.1.36 3.32 3.32 0 0 0 6.54 0 .43.43 0 0 0-.1-.36.46.46 0 0 0-.33-.15z"/></g><ellipse class="cls-14" cx="18.06" cy="24.19" rx="1" ry=".6"/><ellipse class="cls-14" cx="29.94" cy="24.19" rx="1" ry=".6"/><path class="cls-6" d="M24 15.09a38.28 38.28 0 0 0-8.78.81c1.62 1.36.9 3.1 8.78 3.1s7.16-1.7 8.78-3.06a38.28 38.28 0 0 0-8.78-.85z"/><path class="cls-2" d="M24 3.57c-6.25 0-12 4.94-12 7.89a3.67 3.67 0 0 0 1.87 2.86C14.87 13.55 19 13 24 13s9.13.59 10.09 1.36a3.67 3.67 0 0 0 1.91-2.9c0-2.95-5.75-7.89-12-7.89z"/><path d="M24 6c5.41 0 10.41 3.7 11.66 6.6a2.49 2.49 0 0 0 .3-1.18c0-3-5.71-7.89-12-7.89S12 8.51 12 11.46a2.49 2.49 0 0 0 .3 1.18C13.59 9.74 18.59 6 24 6z" fill="#87898c"/><path class="cls-4" d="M24 3.57c-6.25 0-12 4.94-12 7.89a3.67 3.67 0 0 0 1.87 2.86C14.87 13.55 19 13 24 13s9.13.59 10.09 1.36a3.67 3.67 0 0 0 1.91-2.9c0-2.95-5.75-7.89-12-7.89z"/><path class="cls-7" d="M13.71 16.79c0-.94 4.61-1.7 10.29-1.7s10.29.76 10.29 1.7v-2.13c0-.94-4.61-1.7-10.29-1.7s-10.29.76-10.29 1.7z"/><path d="M24 13c4.46 0 8.26.47 9.69 1.13-.32-2.49-4.54-4.43-9.69-4.43s-9.37 1.94-9.69 4.39C15.74 13.43 19.54 13 24 13z" stroke="#45413c" stroke-linecap="round" stroke-linejoin="round" fill="#525252"/><path class="cls-7" d="M27.67 8.78h-7.34l.53 1.3a.87.87 0 0 0 .82.53h4.64a.87.87 0 0 0 .82-.53z"/><path class="cls-7" d="M28.69 7h-9.38L20 8.26a1.18 1.18 0 0 0 1 .52h6a1.18 1.18 0 0 0 1-.52z"/><path class="cls-7" d="M22.48 8.48A1.52 1.52 0 0 1 24 7a1.52 1.52 0 0 1 1.52 1.52v.61a1.52 1.52 0 1 1-3 0z"/></svg>