<svg xmlns="http://www.w3.org/2000/svg" viewBox="0 0 48 48"><defs><style>.cls-5,.cls-7,.cls-9{stroke:#45413c;stroke-linecap:round;stroke-linejoin:round}.cls-9{fill:#45413c}.cls-3{fill:#ff6242}.cls-5{fill:none}.cls-11{fill:#ffb59e}.cls-14,.cls-7{fill:#ffe500}.cls-12{fill:#ff866e}.cls-15{fill:#fff48c}.cls-16{fill:#c0dceb}.cls-17{fill:#daedf7}.cls-20{fill:#00b8f0}.cls-21{fill:#4acfff}</style></defs><path d="M17.38 7.24c5.54 0 10 4.87 10 10.88v14.19a1.24 1.24 0 0 1-.71 1.14 23.27 23.27 0 0 1-18.65 0 1.24 1.24 0 0 1-.71-1.14V18.12c.03-6.01 4.53-10.88 10.07-10.88z" stroke="#45413c" stroke-linecap="round" stroke-linejoin="round" fill="#a86c4d"/><ellipse cx="19.5" cy="45.5" rx="16.5" ry="1.5" opacity=".15" fill="#45413c"/><path class="cls-3" d="M17.38 31.22A11.88 11.88 0 0 1 29.26 43.1V45H5.5v-1.9a11.88 11.88 0 0 1 11.88-11.88z"/><path d="M17.38 31.22A11.88 11.88 0 0 0 5.5 43.1V45h.11a11.86 11.86 0 0 1 23.54 0h.11v-1.9a11.88 11.88 0 0 0-11.88-11.88z" fill="#e04122"/><path class="cls-5" d="M17.38 31.22A11.88 11.88 0 0 1 29.26 43.1V45H5.5v-1.9a11.88 11.88 0 0 1 11.88-11.88z"/><path d="M17.38 27.17a2.55 2.55 0 0 0-2.55 2.55v2.85a2.55 2.55 0 0 0 5.09 0v-2.85a2.55 2.55 0 0 0-2.54-2.55z" fill="#ffb59e" stroke="#45413c" stroke-linecap="round" stroke-linejoin="round"/><path class="cls-7" d="M14.83 31.21c0 1.1.74 2 2.55 2s2.54-.89 2.54-2a2.77 2.77 0 0 1 .74 1.91c0 1.28-1.47 2-3.28 2s-3.28-.76-3.28-2a2.76 2.76 0 0 1 .73-1.91z"/><path class="cls-5" d="M17.38 35.11V33.2"/><g><path d="M26.44 19.47a8.77 8.77 0 0 1-5.67-5L20.15 13a15.92 15.92 0 0 1-9.95 6.18l-1.89.34a1.81 1.81 0 0 0 0 3.62h.11a9.05 9.05 0 0 0 17.91 0h.11a1.81 1.81 0 1 0 0-3.62z" fill="#ffcebf" stroke="#45413c" stroke-linecap="round" stroke-linejoin="round"/></g><path class="cls-9" d="M11.94 20.91a.78.78 0 1 0 .78-.77.77.77 0 0 0-.78.77z"/><path class="cls-9" d="M22.81 20.91a.77.77 0 1 1-.77-.77.76.76 0 0 1 .77.77z"/><g><g><g><g><g><g><g><path class="cls-3" d="M14.54 25.6a.42.42 0 0 0-.33.16.46.46 0 0 0-.11.35 3.32 3.32 0 0 0 6.55 0 .45.45 0 0 0-.1-.35.44.44 0 0 0-.34-.16z"/><path d="M17.38 27a4 4 0 0 0-2.52.77 3.36 3.36 0 0 0 5 0 4 4 0 0 0-2.48-.77z" fill="#ffa694"/></g></g></g></g></g></g></g><g><path class="cls-5" d="M14.54 25.6a.42.42 0 0 0-.33.16.46.46 0 0 0-.11.35 3.32 3.32 0 0 0 6.55 0 .45.45 0 0 0-.1-.35.44.44 0 0 0-.34-.16z"/></g><ellipse class="cls-11" cx="11.44" cy="24.19" rx="1" ry=".6"/><ellipse class="cls-11" cx="23.32" cy="24.19" rx="1" ry=".6"/><path class="cls-7" d="M10.44 41.07h13.88v1.92H10.44z"/><path class="cls-3" d="M11.74 11.55a22.23 22.23 0 0 1 11.28 0 7.83 7.83 0 0 1 4.39 3 10 10 0 0 0-20.07 0 7.88 7.88 0 0 1 4.4-3z"/><path class="cls-12" d="M17.38 7.24a10 10 0 0 1 9.41 6.56 6.43 6.43 0 0 1 .62.76 10 10 0 0 0-20.07 0A7.6 7.6 0 0 1 8 13.8a10 10 0 0 1 9.38-6.56z"/><path class="cls-5" d="M11.74 11.55a22.23 22.23 0 0 1 11.28 0 7.83 7.83 0 0 1 4.39 3 10 10 0 0 0-20.07 0 7.88 7.88 0 0 1 4.4-3z"/><path class="cls-3" d="M19.39 4.24a1 1 0 0 0-.94-1H16.3a1 1 0 0 0-.94 1v6.36h4z"/><path class="cls-12" d="M18.45 3.24H16.3a1 1 0 0 0-.94 1v1.67a1 1 0 0 1 .94-1h2.15a1 1 0 0 1 .94 1V4.24a1 1 0 0 0-.94-1z"/><path class="cls-5" d="M19.39 4.24a1 1 0 0 0-.94-1H16.3a1 1 0 0 0-.94 1v6.36h4z"/><path class="cls-5" d="M17.38 45v-9.89"/><path class="cls-5" d="M10.44 45v-5.22"/><path class="cls-5" d="M24.32 45v-5.22"/><path class="cls-7" d="M15.16 6.18h4.43a.22.22 0 0 1 .22.22v2.53a2.43 2.43 0 0 1-2.43 2.43 2.43 2.43 0 0 1-2.43-2.43V6.4a.22.22 0 0 1 .22-.22z"/><path d="M29.5 25.88l-.63-7.39A7.87 7.87 0 0 0 23 11.55a22.23 22.23 0 0 0-11.28 0 7.86 7.86 0 0 0-5.85 6.94l-.64 7.39a5.59 5.59 0 0 0 2.09 4.83v-5-.61l.53-6a6.44 6.44 0 0 1 4.84-5.67 18.62 18.62 0 0 1 9.32 0 6.47 6.47 0 0 1 4.84 5.67l.52 6a4.16 4.16 0 0 1 0 .61v5a5.54 5.54 0 0 0 2.13-4.83z" fill="#ff6242" stroke="#45413c" stroke-linecap="round" stroke-linejoin="round"/><path class="cls-14" d="M32.93 23.05a1.54 1.54 0 0 1 1.54 1.54v6.73A2.34 2.34 0 0 1 32.13 29v-5.15a.79.79 0 0 1 .79-.79z" transform="rotate(8.8 33.336 27.176)"/><path class="cls-15" d="M33.57 23a.8.8 0 0 0-.91.67l-.3 1.89a.8.8 0 0 1 .91-.66 1.55 1.55 0 0 1 1.29 1.76l.29-1.9A1.54 1.54 0 0 0 33.57 23z"/><path class="cls-5" d="M32.93 23.05a1.54 1.54 0 0 1 1.54 1.54v6.73A2.34 2.34 0 0 1 32.13 29v-5.15a.79.79 0 0 1 .79-.79z" transform="rotate(8.8 33.336 27.176)"/><path class="cls-16" d="M37.02 35.32l-5.7-1.87 6.12-13.8 2.85.94-3.27 14.73z"/><path class="cls-17" d="M39.16 20.21l-1.72-.56-6.12 13.8 1.73.56 6.11-13.8z"/><path class="cls-5" d="M37.02 35.32l-5.7-1.87 6.12-13.8 2.85.94-3.27 14.73z"/><rect class="cls-16" x="37.11" y="18.18" width="4.13" height="1.99" rx=".99" ry=".99" transform="rotate(18.19 39.17 19.164)"/><path class="cls-17" d="M38.63 19a1.07 1.07 0 0 1 .92-.74l-1.09-.35a1 1 0 1 0-.62 1.88l1.11.37a1.09 1.09 0 0 1-.32-1.16z"/><rect class="cls-5" x="37.11" y="18.18" width="4.13" height="1.99" rx=".99" ry=".99" transform="rotate(18.19 39.17 19.164)"/><rect class="cls-16" x="29.37" y="34.33" width="9" height="1.97" rx=".99" ry=".99" transform="rotate(18.19 33.877 35.324)"/><path class="cls-17" d="M31.84 33.61l-1-.33a1 1 0 0 0-.61 1.88l1 .33a2.66 2.66 0 0 1 .61-1.88z"/><rect class="cls-5" x="29.37" y="34.33" width="9" height="1.97" rx=".99" ry=".99" transform="rotate(18.19 33.877 35.324)"/><path d="M31.09 35.44a22.57 22.57 0 0 0-2 9.56h4.82a17.79 17.79 0 0 1 1.93-8z" fill="#656769"/><path d="M30.18 37.76l4.66 1.54a23.58 23.58 0 0 1 1-2.31l-4.71-1.55a21.41 21.41 0 0 0-.95 2.32z" fill="#525252"/><path class="cls-5" d="M31.09 35.44a22.57 22.57 0 0 0-2 9.56h4.82a17.79 17.79 0 0 1 1.93-8z"/><rect class="cls-14" x="36.82" y="26.09" width="4.33" height="2.31" rx="1.15" ry="1.15" transform="rotate(13.73 38.966 27.245)"/><path class="cls-15" d="M38 27l2 .48a1.13 1.13 0 0 1 .81.79 1.1 1.1 0 0 0 .31-.52 1.16 1.16 0 0 0-.84-1.39l-2-.48a1.16 1.16 0 0 0-1.4.85 1.11 1.11 0 0 0 0 .6A1.13 1.13 0 0 1 38 27z"/><rect class="cls-5" x="36.82" y="26.09" width="4.33" height="2.31" rx="1.15" ry="1.15" transform="rotate(13.73 38.966 27.245)"/><rect class="cls-7" x="36.27" y="28.33" width="4.33" height="2.31" rx="1.15" ry="1.15" transform="rotate(13.73 38.432 29.458)"/><rect class="cls-7" x="35.73" y="30.57" width="4.33" height="2.31" rx="1.15" ry="1.15" transform="rotate(13.73 37.862 31.718)"/><path class="cls-20" d="M40.7 12.27a5.1 5.1 0 0 0-1.13-3.64c-1.34-1.35-2-3.4-.61-4.51s3.53-.32 3.44 3a8.81 8.81 0 0 1-1.7 5.15z"/><path class="cls-21" d="M39 6.12c1.25-1 3-.49 3.37 1.81 0-.27.06-.54.07-.84.09-3.29-2-4.08-3.44-3a2.21 2.21 0 0 0-.57 2.71 2 2 0 0 1 .57-.68z"/><path class="cls-5" d="M40.7 12.27a5.1 5.1 0 0 0-1.13-3.64c-1.34-1.35-2-3.4-.61-4.51s3.53-.32 3.44 3a8.81 8.81 0 0 1-1.7 5.15z"/><path class="cls-20" d="M40.58 16.52a3.79 3.79 0 0 1 2.67-1c1.42.16 3-.37 3-1.73s-1.45-2.24-3.35-.66a6.55 6.55 0 0 0-2.32 3.39z"/><path class="cls-21" d="M42.85 14.44c1.55-1.29 2.79-.94 3.21 0a1.63 1.63 0 0 0 .14-.64c0-1.36-1.45-2.24-3.35-.66a6.55 6.55 0 0 0-2.27 3.41 4.93 4.93 0 0 1 1-.65 7.14 7.14 0 0 1 1.27-1.46z"/><path class="cls-5" d="M40.58 16.52a3.79 3.79 0 0 1 2.67-1c1.42.16 3-.37 3-1.73s-1.45-2.24-3.35-.66a6.55 6.55 0 0 0-2.32 3.39z"/></svg>