<svg xmlns="http://www.w3.org/2000/svg" viewBox="0 0 48 48"><defs><style>.cls-3,.cls-6{stroke:#45413c;stroke-linecap:round;stroke-linejoin:round}.cls-3{fill:#45413c}.cls-6{fill:none}.cls-7{fill:#ffb59e}</style></defs><path d="M24 3.59A16.16 16.16 0 0 0 7.84 19.75v17a2.21 2.21 0 0 1-2.57 2.42.5.5 0 0 0-.45.76c.67 1.13 2.35 3 6.18 3a10 10 0 0 0 8.13-3.87h9.74A10 10 0 0 0 37 42.93c3.83 0 5.51-1.85 6.18-3a.5.5 0 0 0-.45-.76 2.21 2.21 0 0 1-2.57-2.42v-17A16.16 16.16 0 0 0 24 3.59z" stroke="#45413c" stroke-linecap="round" stroke-linejoin="round" fill="#a86c4d"/><g><path d="M37.47 23.16A13 13 0 0 1 29 15.69l-.93-2.21a23.62 23.62 0 0 1-14.78 9.18l-2.8.5a2.7 2.7 0 0 0 0 5.39h.17a13.45 13.45 0 0 0 26.6 0h.17a2.7 2.7 0 0 0 0-5.39z" fill="#ffcebf" stroke="#45413c" stroke-linecap="round" stroke-linejoin="round"/></g><g><path class="cls-3" d="M15.93 25.31a1.15 1.15 0 1 0 1.14-1.15 1.15 1.15 0 0 0-1.14 1.15z"/><path class="cls-3" d="M32.07 25.31a1.15 1.15 0 1 1-1.14-1.15 1.15 1.15 0 0 1 1.14 1.15z"/><g><g><path d="M20.31 32.59a.61.61 0 0 0-.44.2.57.57 0 0 0-.13.47 4.32 4.32 0 0 0 8.52 0 .57.57 0 0 0-.13-.47.61.61 0 0 0-.44-.2z" fill="#ff6242"/><path d="M24 34.37a5.3 5.3 0 0 0-3.29 1 4.38 4.38 0 0 0 6.58 0 5.3 5.3 0 0 0-3.29-1z" fill="#ffa694"/></g></g><g><path class="cls-6" d="M20.31 32.59a.61.61 0 0 0-.44.2.57.57 0 0 0-.13.47 4.32 4.32 0 0 0 8.52 0 .57.57 0 0 0-.13-.47.61.61 0 0 0-.44-.2z"/></g><ellipse class="cls-7" cx="15.18" cy="30.19" rx="1.49" ry=".89"/><ellipse class="cls-7" cx="32.82" cy="30.19" rx="1.49" ry=".89"/></g><ellipse cx="24" cy="44.5" rx="12.5" ry="1.5" opacity=".15" fill="#45413c"/><path d="M40.2 18.24s-10.21 3-16.2 3-16.2-3-16.2-3l-1.65-3.51a3.3 3.3 0 0 1 1-4.07C10.55 8.09 17.55 3.5 24 3.5s13.45 4.59 16.86 7.16a3.3 3.3 0 0 1 1 4.07z" fill="#00b8f0"/><path d="M6.24 14.92a3.07 3.07 0 0 1 .9-1.07C10.55 11.28 17.55 6.69 24 6.69s13.45 4.59 16.86 7.16a3.21 3.21 0 0 1 .91 1.07l.08-.19a3.3 3.3 0 0 0-1-4.07C37.45 8.09 30.45 3.5 24 3.5S10.55 8.09 7.14 10.66a3.3 3.3 0 0 0-1 4.07z" fill="#4acfff"/><path class="cls-6" d="M40.2 18.24s-10.21 3-16.2 3-16.2-3-16.2-3l-1.65-3.51a3.3 3.3 0 0 1 1-4.07C10.55 8.09 17.55 3.5 24 3.5s13.45 4.59 16.86 7.16a3.3 3.3 0 0 1 1 4.07z"/><path d="M24 13.28c-7.1 0-13.29 1.9-16.2 5 0 0 10.21 3 16.2 3s16.2-3 16.2-3c-2.91-3.1-9.1-5-16.2-5z" fill="#009fd9" stroke="#45413c" stroke-linecap="round" stroke-linejoin="round"/><path d="M37 19.08s-4.32-1.93-13-1.93-13 1.93-13 1.93 1.71 3.84 13 3.84 13-3.84 13-3.84z" fill="#525252"/><path d="M11 19.08a4.57 4.57 0 0 0 2 1.76 42.45 42.45 0 0 1 11-1.28 42.45 42.45 0 0 1 11 1.28 4.57 4.57 0 0 0 2-1.76s-4.32-1.93-13-1.93-13 1.93-13 1.93z" fill="#656769"/><path class="cls-6" d="M37 19.08s-4.32-1.93-13-1.93-13 1.93-13 1.93 1.71 3.84 13 3.84 13-3.84 13-3.84z"/><path d="M24.42 7.73L24 7.5l-.42.23a2.73 2.73 0 0 1-2.53 0l-.5-.25v3.79a4.05 4.05 0 0 0 3.45 3.8 4.05 4.05 0 0 0 3.45-3.78V7.5l-.5.25a2.73 2.73 0 0 1-2.53-.02z" fill="#ffe500" stroke="#45413c" stroke-linecap="round" stroke-linejoin="round"/></svg>