<svg xmlns="http://www.w3.org/2000/svg" viewBox="0 0 48 48"><defs><style>.cls-4,.cls-7{fill:#45413c;stroke:#45413c;stroke-linecap:round;stroke-linejoin:round}.cls-7{fill:none}.cls-8{fill:#ffb59e}.cls-9{fill:#b89558}.cls-10{fill:#debb7e}</style></defs><ellipse cx="24" cy="44.5" rx="12.5" ry="1.5" opacity=".15" fill="#45413c"/><g><path d="M24 5A14.59 14.59 0 0 0 9.41 19.6v7.64h29.18V19.6A14.59 14.59 0 0 0 24 5z" stroke="#45413c" stroke-linecap="round" stroke-linejoin="round" fill="#a86c4d"/><path d="M40.15 26.13a2.73 2.73 0 0 0-2.07-2.3l-.87-.24A3 3 0 0 1 35 20.66v-3.07a2.77 2.77 0 0 0-2.08-2.68A23 23 0 0 1 24 16.52a23 23 0 0 1-8.9-1.61 2.77 2.77 0 0 0-2.1 2.68v3.07a3 3 0 0 1-2.23 2.93l-.87.24a2.73 2.73 0 0 0-2.07 2.3 2.69 2.69 0 0 0 2.68 2.92h.17a13.45 13.45 0 0 0 26.6 0h.17a2.69 2.69 0 0 0 2.7-2.92z" fill="#ffcebf" stroke="#45413c" stroke-linecap="round" stroke-linejoin="round"/><path class="cls-4" d="M15.93 25.81a1.15 1.15 0 1 0 1.14-1.15 1.15 1.15 0 0 0-1.14 1.15z"/><path class="cls-4" d="M32.07 25.81a1.15 1.15 0 1 1-1.14-1.15 1.15 1.15 0 0 1 1.14 1.15z"/><g><g><path d="M20.31 33.09a.61.61 0 0 0-.44.2.57.57 0 0 0-.13.47 4.32 4.32 0 0 0 8.52 0 .57.57 0 0 0-.13-.47.61.61 0 0 0-.44-.2z" fill="#ff6242"/><path d="M24 34.87a5.3 5.3 0 0 0-3.29 1 4.38 4.38 0 0 0 6.58 0 5.3 5.3 0 0 0-3.29-1z" fill="#ffa694"/></g></g><g><path class="cls-7" d="M20.31 33.09a.61.61 0 0 0-.44.2.57.57 0 0 0-.13.47 4.32 4.32 0 0 0 8.52 0 .57.57 0 0 0-.13-.47.61.61 0 0 0-.44-.2z"/></g><ellipse class="cls-8" cx="15.18" cy="30.69" rx="1.49" ry=".89"/><ellipse class="cls-8" cx="32.82" cy="30.69" rx="1.49" ry=".89"/></g><path class="cls-9" d="M43.5 15.27c0 3.39-8.73 6.47-19.5 6.47S4.5 18.66 4.5 15.27s8.73-4.69 19.5-4.69 19.5 1.3 19.5 4.69z"/><path class="cls-10" d="M24 13.58c9.08 0 16.69.93 18.86 3.25a2.57 2.57 0 0 0 .64-1.56c0-3.39-8.73-4.69-19.5-4.69s-19.5 1.3-19.5 4.69a2.57 2.57 0 0 0 .64 1.56c2.17-2.32 9.78-3.25 18.86-3.25z"/><path class="cls-7" d="M43.5 15.27c0 3.39-8.73 6.47-19.5 6.47S4.5 18.66 4.5 15.27s8.73-4.69 19.5-4.69 19.5 1.3 19.5 4.69z"/><path class="cls-9" d="M36.83 15s-.61-8.14-6-11.39a3.81 3.81 0 0 0-3.66.1 7.26 7.26 0 0 1-6.24 0 3.81 3.81 0 0 0-3.66-.1c-5.44 3.25-6 11.39-6 11.39s3.48 3 12.73 3 12.83-3 12.83-3z"/><path class="cls-10" d="M17.22 6.44a3.78 3.78 0 0 1 3.66.09 7.26 7.26 0 0 0 6.24 0 3.78 3.78 0 0 1 3.66-.09c3.5 2.09 5 6.18 5.62 8.85a3.82 3.82 0 0 0 .43-.3s-.61-8.14-6-11.39a3.81 3.81 0 0 0-3.66.1 7.26 7.26 0 0 1-6.24 0 3.81 3.81 0 0 0-3.66-.1c-5.44 3.25-6 11.39-6 11.39a3.82 3.82 0 0 0 .43.3c.53-2.67 2.02-6.76 5.52-8.85z"/><path class="cls-7" d="M36.83 15s-.61-8.14-6-11.39a3.81 3.81 0 0 0-3.66.1 7.26 7.26 0 0 1-6.24 0 3.81 3.81 0 0 0-3.66-.1c-5.44 3.25-6 11.39-6 11.39s3.48 3 12.73 3 12.83-3 12.83-3z"/><path d="M24 13.65a32.61 32.61 0 0 1-12.14-2.18 18.93 18.93 0 0 0-.69 3.53s3.58 3 12.83 3 12.83-3 12.83-3a18.93 18.93 0 0 0-.69-3.52A32.81 32.81 0 0 1 24 13.65z" fill="#656769" stroke="#45413c" stroke-linecap="round" stroke-linejoin="round"/><g><path transform="rotate(-38.03 35.441 32.195)" fill="#daedf7" stroke="#45413c" stroke-linecap="round" stroke-linejoin="round" d="M34.49 30.36h1.91v3.66h-1.91z"/><rect class="cls-10" x="36.7" y="32.47" width="2.81" height="6.26" rx=".86" ry=".86" transform="rotate(-38.03 38.1 35.595)"/><path d="M40.61 36.52L37.81 33a.85.85 0 0 0-1.2-.15l-.86.67a.78.78 0 0 0-.24.33.85.85 0 0 1 1.19.15l2.8 3.57a.85.85 0 0 1 .09.88l.86-.67a.87.87 0 0 0 .16-1.26z" fill="#f0d5a8"/><rect class="cls-7" x="36.7" y="32.47" width="2.81" height="6.26" rx=".86" ry=".86" transform="rotate(-38.03 38.1 35.595)"/><circle cx="30.63" cy="26.04" r="6.51" fill="#daedf7"/><path d="M26.62 22.58a6.49 6.49 0 0 1 10.46 4.31 6.51 6.51 0 1 0-12.9 0 6.44 6.44 0 0 1 2.44-4.31z" fill="#fff"/><circle class="cls-7" cx="30.63" cy="26.04" r="6.51"/><circle cx="30.63" cy="26.04" r="4.61" fill="#00b8f0"/><path d="M27.37 29.31l6.52-6.53a4.61 4.61 0 0 0-6.89 6.1 5 5 0 0 0 .37.43z" fill="#4acfff"/><circle class="cls-7" cx="30.63" cy="26.04" r="4.61"/></g></svg>