<svg xmlns="http://www.w3.org/2000/svg" viewBox="0 0 48 48"><defs><style>.cls-4{fill:none;stroke:#45413c;stroke-linecap:round;stroke-linejoin:round}.cls-5{fill:#ffe9bd}.cls-6{fill:#ffe500}.cls-7{fill:#fff48c}</style></defs><g><ellipse cx="24" cy="45.33" rx="15.6" ry="1.67" fill="#45413c" opacity=".15"/><circle cx="24" cy="23.72" r="18.09" fill="#ffda8f"/><path d="M24 5.64a18.09 18.09 0 1 0 18.09 18.08A18.08 18.08 0 0 0 24 5.64zm0 33.46a16.51 16.51 0 1 1 16.51-16.51A16.51 16.51 0 0 1 24 39.1z" fill="#ffbe3d"/><circle class="cls-4" cx="24" cy="23.72" r="18.09"/><path class="cls-5" d="M37.11 32.26c0 .75-1 1.36-2.26 1.36s-2.26-.61-2.26-1.36 1-1.36 2.26-1.36 2.26.61 2.26 1.36z"/><ellipse class="cls-5" cx="13.15" cy="32.26" rx="2.26" ry="1.36"/><path class="cls-4" d="M16.17 26.51a1.67 1.67 0 0 1-3.34 0"/><path class="cls-4" d="M31.83 26.51a1.67 1.67 0 1 0 3.34 0"/><path class="cls-4" d="M22.05 36.71h3.9"/><path class="cls-6" d="M5.3 20.2a18.7 18.7 0 0 1 37.4 0z"/><path class="cls-7" d="M24 5.7a18.72 18.72 0 0 1 18.23 14.5h.47a18.7 18.7 0 0 0-37.4 0h.47A18.72 18.72 0 0 1 24 5.7z"/><path class="cls-4" d="M5.3 20.2a18.7 18.7 0 0 1 37.4 0z"/><path class="cls-6" d="M3.25 19a1.67 1.67 0 0 1 2-1.64A93.32 93.32 0 0 0 24 19.3a93.32 93.32 0 0 0 18.72-2 1.67 1.67 0 0 1 2 1.64v1.39a1.74 1.74 0 0 1-1.38 1.71A99.76 99.76 0 0 1 24 24.2a99.76 99.76 0 0 1-19.37-2.14 1.74 1.74 0 0 1-1.38-1.71z"/><path class="cls-7" d="M42.72 17.32A93.32 93.32 0 0 1 24 19.3a93.32 93.32 0 0 1-18.72-2 1.67 1.67 0 0 0-2 1.64v1.39a1.63 1.63 0 0 0 .08.44 1.66 1.66 0 0 1 2-1.17 93.32 93.32 0 0 0 18.64 2 93.32 93.32 0 0 0 18.72-2 1.66 1.66 0 0 1 2 1.17 1.63 1.63 0 0 0 .08-.44V19a1.67 1.67 0 0 0-2.08-1.68z"/><path class="cls-4" d="M3.25 19a1.67 1.67 0 0 1 2-1.64A93.32 93.32 0 0 0 24 19.3a93.32 93.32 0 0 0 18.72-2 1.67 1.67 0 0 1 2 1.64v1.39a1.74 1.74 0 0 1-1.38 1.71A99.76 99.76 0 0 1 24 24.2a99.76 99.76 0 0 1-19.37-2.14 1.74 1.74 0 0 1-1.38-1.71z"/><path d="M28.21 9.26h-2.09v-2.1A1.12 1.12 0 0 0 25 6.05h-2a1.12 1.12 0 0 0-1.12 1.11v2.1h-2.09a1.1 1.1 0 0 0-1.11 1.11v2a1.11 1.11 0 0 0 1.11 1.11h2.09v2.09A1.12 1.12 0 0 0 23 16.7h2a1.12 1.12 0 0 0 1.12-1.12v-2.09h2.09a1.11 1.11 0 0 0 1.11-1.11v-2a1.1 1.1 0 0 0-1.11-1.12z" fill="#6dd627" stroke="#45413c" stroke-linecap="round" stroke-linejoin="round"/></g></svg>