<svg xmlns="http://www.w3.org/2000/svg" viewBox="0 0 48 48"><defs><style>.cls-4{fill:#45413c}.cls-11,.cls-3,.cls-4,.cls-7{stroke:#45413c;stroke-linecap:round;stroke-linejoin:round}.cls-3{fill:#ffe500}.cls-7{fill:none}.cls-8{fill:#ffaa54}.cls-11{fill:#ff87af}</style></defs><ellipse cx="24" cy="45.5" rx="12.5" ry="1.5" opacity=".15" fill="#45413c"/><g><g><path d="M24 7.76A14.59 14.59 0 0 0 9.41 22.35V30h29.18v-7.65A14.59 14.59 0 0 0 24 7.76z" stroke="#45413c" stroke-linecap="round" stroke-linejoin="round" fill="#724f3d"/><path class="cls-3" d="M40.15 28.88a2.73 2.73 0 0 0-2.07-2.3l-.87-.24A3 3 0 0 1 35 23.41v-3.07a2.77 2.77 0 0 0-2.08-2.68A23 23 0 0 1 24 19.27a23 23 0 0 1-8.9-1.61 2.77 2.77 0 0 0-2.1 2.68v3.07a3 3 0 0 1-2.23 2.93l-.87.24a2.73 2.73 0 0 0-2.07 2.3 2.69 2.69 0 0 0 2.68 2.92h.17a13.45 13.45 0 0 0 26.6 0h.17a2.69 2.69 0 0 0 2.7-2.92z"/><path class="cls-4" d="M15.93 28.56a1.15 1.15 0 1 0 1.14-1.15 1.15 1.15 0 0 0-1.14 1.15z"/><path class="cls-4" d="M32.07 28.56a1.15 1.15 0 1 1-1.14-1.15 1.15 1.15 0 0 1 1.14 1.15z"/><g><g><path d="M20.31 35.84a.61.61 0 0 0-.44.2.57.57 0 0 0-.13.47 4.32 4.32 0 0 0 8.52 0 .57.57 0 0 0-.13-.47.61.61 0 0 0-.44-.2z" fill="#ff6242"/><path d="M24 37.62a5.3 5.3 0 0 0-3.29 1 4.38 4.38 0 0 0 6.58 0 5.3 5.3 0 0 0-3.29-1z" fill="#ffa694"/></g></g><g><path class="cls-7" d="M20.31 35.84a.61.61 0 0 0-.44.2.57.57 0 0 0-.13.47 4.32 4.32 0 0 0 8.52 0 .57.57 0 0 0-.13-.47.61.61 0 0 0-.44-.2z"/></g><ellipse class="cls-8" cx="15.18" cy="33.44" rx="1.49" ry=".89"/><ellipse class="cls-8" cx="32.82" cy="33.44" rx="1.49" ry=".89"/></g></g><path class="cls-3" d="M38.92 11.93a2.18 2.18 0 0 1-4-.55L33.81 7l-2.14 3.53a2.8 2.8 0 0 1-5-.52L24 2.48 21.36 10a2.8 2.8 0 0 1-5 .52L14.19 7l-1.09 4.38a2.18 2.18 0 0 1-4 .55L8.56 11l.55 9.48h29.78l.55-9.48z"/><circle class="cls-3" cx="14.16" cy="6.42" r="1.19"/><circle class="cls-3" cx="33.84" cy="6.42" r="1.19"/><circle class="cls-3" cx="8.73" cy="11.29" r="1"/><circle class="cls-3" cx="39.27" cy="11.29" r="1"/><ellipse cx="24" cy="13.27" rx="1.56" ry="2.22" fill="#00dba8"/><path d="M24 12.82a1.65 1.65 0 0 1 1.43 1.33 3.12 3.12 0 0 0 .13-.88c0-1.23-.7-2.22-1.56-2.22s-1.56 1-1.56 2.22a3.12 3.12 0 0 0 .13.88A1.65 1.65 0 0 1 24 12.82z" fill="#00f5bc"/><ellipse class="cls-7" cx="24" cy="13.27" rx="1.56" ry="2.22"/><circle class="cls-3" cx="24" cy="2" r="1.5"/><circle class="cls-11" cx="15.25" cy="14.46" r="1.19"/><circle class="cls-11" cx="32.75" cy="14.46" r="1.19"/><path d="M38.9 20.51c0-1.86-6.67-3.38-14.9-3.38S9.1 18.65 9.1 20.51v3.37c0-1.86 6.67-3.37 14.9-3.37S38.9 22 38.9 23.88z" fill="#ffe500"/><path d="M24 17.13c-8.23 0-14.9 1.52-14.9 3.38v1.62c0-1.86 6.67-3.37 14.9-3.37s14.9 1.51 14.9 3.37v-1.62c0-1.86-6.67-3.38-14.9-3.38z" fill="#fff48c"/><path class="cls-7" d="M38.9 20.51c0-1.86-6.67-3.38-14.9-3.38S9.1 18.65 9.1 20.51v3.37c0-1.86 6.67-3.37 14.9-3.37S38.9 22 38.9 23.88z"/></svg>