<svg xmlns="http://www.w3.org/2000/svg" viewBox="0 0 48 48"><defs><style>.cls-4{fill:#45413c}.cls-4,.cls-7{stroke:#45413c;stroke-linecap:round;stroke-linejoin:round}.cls-5{fill:#ffb59e}.cls-7{fill:none}</style></defs><ellipse cx="24" cy="44.5" rx="12.5" ry="1.5" opacity=".15" fill="#45413c"/><g><g><path d="M24 5A14.59 14.59 0 0 0 9.41 19.6v7.64h29.18V19.6A14.59 14.59 0 0 0 24 5z" stroke="#45413c" stroke-linecap="round" stroke-linejoin="round" fill="#ffe500"/><path d="M40.15 26.13a2.73 2.73 0 0 0-2.07-2.3l-.87-.24A3 3 0 0 1 35 20.66v-3.07a2.77 2.77 0 0 0-2.08-2.68A23 23 0 0 1 24 16.52a23 23 0 0 1-8.9-1.61 2.77 2.77 0 0 0-2.1 2.68v3.07a3 3 0 0 1-2.23 2.93l-.87.24a2.73 2.73 0 0 0-2.07 2.3 2.69 2.69 0 0 0 2.68 2.92h.17a13.45 13.45 0 0 0 26.6 0h.17a2.69 2.69 0 0 0 2.7-2.92z" fill="#ffcebf" stroke="#45413c" stroke-linecap="round" stroke-linejoin="round"/><path class="cls-4" d="M15.93 25.81a1.15 1.15 0 1 0 1.14-1.15 1.15 1.15 0 0 0-1.14 1.15z"/><path class="cls-4" d="M32.07 25.81a1.15 1.15 0 1 1-1.14-1.15 1.15 1.15 0 0 1 1.14 1.15z"/><ellipse class="cls-5" cx="15.18" cy="30.69" rx="1.49" ry=".89"/><ellipse class="cls-5" cx="32.82" cy="30.69" rx="1.49" ry=".89"/></g></g><path d="M35.35 21.42v6.94a11.39 11.39 0 0 1-5 9.46v-1.27c0-2.59-2.83-4.68-6.31-4.68s-6.35 2.13-6.35 4.68v1.27a11.39 11.39 0 0 1-5-9.46v-6.94l-1.92 2.17v4.94c0 9.27 8.11 14.9 13.27 14.86s13.27-5.57 13.27-14.86v-4.94z" fill="#a86c4d" stroke="#45413c" stroke-linecap="round" stroke-linejoin="round"/><path class="cls-7" d="M21.19 36.12s.69.93 2.81.93 2.81-.93 2.81-.93"/><path d="M39.38 16.66v-2.84C39.42 6.9 32.82 1.65 24 1.65S8.58 6.9 8.58 13.82c0 8.92.83 10.21.83 10.21a88 88 0 0 1 15-5.39A58.43 58.43 0 0 1 38.59 24s.64-1 .79-7.34z" fill="#f0f0f0"/><path d="M24 5.74c8.42 0 14.81 4.78 15.38 11.24v-.32-2.84C39.42 6.9 32.82 1.65 24 1.65S8.58 6.9 8.58 13.82v3.16C9.18 10.53 15.57 5.74 24 5.74z" fill="#fff"/><path class="cls-7" d="M39.38 16.66v-2.84C39.42 6.9 32.82 1.65 24 1.65S8.58 6.9 8.58 13.82c0 8.92.83 10.21.83 10.21a88 88 0 0 1 15-5.39A58.43 58.43 0 0 1 38.59 24s.64-1 .79-7.34z"/><path class="cls-7" d="M8.58 13.82s5.77-10.52 22.35-11"/><path class="cls-7" d="M35.38 11.93a43.66 43.66 0 0 0-22.13 6.62"/><path class="cls-7" d="M24.4 18.64c10.5-2.51 15-2 15-2"/></svg>