<svg xmlns="http://www.w3.org/2000/svg" viewBox="0 0 48 48"><defs><style>.cls-3{stroke:#45413c;stroke-linecap:round;stroke-linejoin:round;fill:#45413c}.cls-7{fill:#ffb59e}</style></defs><g><path d="M24 4.51A14.59 14.59 0 0 0 9.41 19.1v7.64h29.18V19.1A14.59 14.59 0 0 0 24 4.51z" stroke="#45413c" stroke-linecap="round" stroke-linejoin="round" fill="#614b44"/><path d="M40.15 25.63a2.73 2.73 0 0 0-2.07-2.3l-.87-.24A3 3 0 0 1 35 20.16v-3.07a2.77 2.77 0 0 0-2.08-2.68A23 23 0 0 1 24 16a23 23 0 0 1-8.9-1.61 2.77 2.77 0 0 0-2.1 2.7v3.07a3 3 0 0 1-2.23 2.93l-.87.24a2.73 2.73 0 0 0-2.07 2.3 2.69 2.69 0 0 0 2.68 2.92h.17a13.45 13.45 0 0 0 26.6 0h.17a2.69 2.69 0 0 0 2.7-2.92z" fill="#ffcebf" stroke="#45413c" stroke-linecap="round" stroke-linejoin="round"/><path class="cls-3" d="M15.93 25.31a1.15 1.15 0 1 0 1.14-1.15 1.15 1.15 0 0 0-1.14 1.15z"/><path class="cls-3" d="M32.07 25.31a1.15 1.15 0 1 1-1.14-1.15 1.15 1.15 0 0 1 1.14 1.15z"/><g><g><path d="M20.31 32.59a.61.61 0 0 0-.44.2.57.57 0 0 0-.13.47 4.32 4.32 0 0 0 8.52 0 .57.57 0 0 0-.13-.47.61.61 0 0 0-.44-.2z" fill="#ff6242"/><path d="M24 34.37a5.3 5.3 0 0 0-3.29 1 4.38 4.38 0 0 0 6.58 0 5.3 5.3 0 0 0-3.29-1z" fill="#ffa694"/></g></g><g><path d="M20.31 32.59a.61.61 0 0 0-.44.2.57.57 0 0 0-.13.47 4.32 4.32 0 0 0 8.52 0 .57.57 0 0 0-.13-.47.61.61 0 0 0-.44-.2z" fill="none" stroke="#45413c" stroke-linecap="round" stroke-linejoin="round"/></g><ellipse class="cls-7" cx="15.18" cy="30.19" rx="1.49" ry=".89"/><ellipse class="cls-7" cx="32.82" cy="30.19" rx="1.49" ry=".89"/></g><path d="M24 13.74c6.69 0 12.43.89 14.91 2.15a15 15 0 0 0-29.82 0c2.48-1.26 8.22-2.15 14.91-2.15z" fill="#ff6242" stroke="#45413c" stroke-linecap="round" stroke-linejoin="round"/><ellipse cx="24" cy="44.5" rx="12.5" ry="1.5" opacity=".15" fill="#45413c"/><path d="M24 2.5c-4.9 3.71-7.43 9.89-8 16h16c-.57-6.11-3.1-12.29-8-16z" fill="#9ceb60" stroke="#45413c" stroke-linecap="round" stroke-linejoin="round"/><path d="M24 13.74c-9 0-16.23 1.59-16.23 3.55v3.6a2.12 2.12 0 0 0 1.64 2v-.8A1.12 1.12 0 0 1 9.94 21C13 19.15 20.24 18.79 24 18.79s11 .36 14.06 2.21a1.12 1.12 0 0 1 .53 1.12v.8a2.12 2.12 0 0 0 1.64-2v-3.6c0-1.99-7.23-3.58-16.23-3.58z" fill="#656769" stroke="#45413c" stroke-linecap="round" stroke-linejoin="round"/><circle cx="24" cy="16.26" r="2.52" fill="#ffe500" stroke="#45413c" stroke-linecap="round" stroke-linejoin="round"/></svg>