<svg xmlns="http://www.w3.org/2000/svg" viewBox="0 0 48 48"><defs><style>.cls-1{fill:#fff}.cls-2{fill:#f0f0f0}.cls-3,.cls-8{fill:none;stroke:#45413c;stroke-linecap:round;stroke-linejoin:round}.cls-8{fill:#45413c}.cls-9{fill:#ffb59e}.cls-10{fill:#e0e0e0}</style></defs><circle class="cls-1" cx="39.2" cy="31.82" r="3.65"/><path class="cls-2" d="M39.2 33.53a3.65 3.65 0 0 1-3.5-2.68 3.85 3.85 0 0 0-.14 1 3.65 3.65 0 0 0 7.29 0 3.45 3.45 0 0 0-.15-1 3.63 3.63 0 0 1-3.5 2.68z"/><circle class="cls-3" cx="39.2" cy="31.82" r="3.65"/><path d="M25 2.81a15.5 15.5 0 0 0-15.5 15.5v.75h27.8v11.23a5.41 5.41 0 0 0 5.41-5.42v-4.34A17.71 17.71 0 0 0 25 2.81z" fill="#ff6242"/><path d="M25 2.81a15.5 15.5 0 0 0-15.5 15.5h.4A15.5 15.5 0 0 1 25 6.39a17.72 17.72 0 0 1 17.68 17.72v-3.58A17.71 17.71 0 0 0 25 2.81z" fill="#ff866e"/><path class="cls-3" d="M25 2.81a15.5 15.5 0 0 0-15.5 15.5v.75h27.8v11.23a5.41 5.41 0 0 0 5.41-5.42v-4.34A17.71 17.71 0 0 0 25 2.81z"/><path d="M37.27 22.42A37.26 37.26 0 0 0 24 20.37a37.3 37.3 0 0 0-13.27 2.05 3.08 3.08 0 0 0 0 6.1C12 35.25 17.47 40.31 24 40.31s12-5.06 13.27-11.79a3.08 3.08 0 0 0 0-6.1z" fill="#ffcebf" stroke="#45413c" stroke-linecap="round" stroke-linejoin="round"/><ellipse cx="24" cy="44.5" rx="12.5" ry="1.5" opacity=".15" fill="#45413c"/><path class="cls-8" d="M32.13 24.52A1.15 1.15 0 1 1 31 23.37a1.15 1.15 0 0 1 1.13 1.15z"/><ellipse class="cls-9" cx="32.88" cy="29.4" rx="1.49" ry=".89"/><path class="cls-8" d="M15.87 24.52A1.15 1.15 0 1 0 17 23.37a1.15 1.15 0 0 0-1.13 1.15z"/><ellipse class="cls-9" cx="15.12" cy="29.4" rx="1.49" ry=".89"/><path class="cls-2" d="M35.35 20.13v6.94a9.39 9.39 0 0 1-1.18 4.18 4 4 0 0 1-5.71 1.2A7.51 7.51 0 0 0 24 31.08a7.51 7.51 0 0 0-4.46 1.37 4 4 0 0 1-5.71-1.2 9.39 9.39 0 0 1-1.18-4.18v-6.94l-1.92 1.68v10c0 7.33 5.94 11.69 13.27 11.69s13.27-4.36 13.27-11.69v-10z"/><path class="cls-10" d="M24 40.87c-7.33 0-13.27-4.36-13.27-11.69v2.63c0 7.33 5.94 11.69 13.27 11.69s13.27-4.36 13.27-11.69v-2.63c0 7.33-5.94 11.69-13.27 11.69z"/><path class="cls-3" d="M35.35 20.13v6.94a9.39 9.39 0 0 1-1.18 4.18 4 4 0 0 1-5.71 1.2A7.51 7.51 0 0 0 24 31.08a7.51 7.51 0 0 0-4.46 1.37 4 4 0 0 1-5.71-1.2 9.39 9.39 0 0 1-1.18-4.18v-6.94l-1.92 1.68v10c0 7.33 5.94 11.69 13.27 11.69s13.27-4.36 13.27-11.69v-10z"/><path class="cls-3" d="M21.19 34.83s.69.93 2.81.93 2.81-.93 2.81-.93"/><path class="cls-1" d="M24 15.41c-8.46 0-15.32 2.16-15.32 4.83a2.58 2.58 0 0 0 2.05 2.18A37.3 37.3 0 0 1 24 20.37a37.26 37.26 0 0 1 13.27 2.05 2.58 2.58 0 0 0 2-2.18c.05-2.67-6.81-4.83-15.27-4.83z"/><path class="cls-10" d="M24 18.32c-6.85 0-12.64 1.41-14.61 3.37a2.86 2.86 0 0 0 1.34.73A37.3 37.3 0 0 1 24 20.37a37.26 37.26 0 0 1 13.27 2.05 2.86 2.86 0 0 0 1.34-.73c-1.97-1.96-7.76-3.37-14.61-3.37z"/><path class="cls-3" d="M24 15.41c-8.46 0-15.32 2.16-15.32 4.83a2.58 2.58 0 0 0 2.05 2.18A37.3 37.3 0 0 1 24 20.37a37.26 37.26 0 0 1 13.27 2.05 2.58 2.58 0 0 0 2-2.18c.05-2.67-6.81-4.83-15.27-4.83z"/><path class="cls-3" d="M38.06 18.32c0-7.26-5.18-9.67-5.18-9.67"/></svg>