<svg xmlns="http://www.w3.org/2000/svg" viewBox="0 0 48 48"><defs><style>.cls-9{fill:#45413c}.cls-4{fill:none}.cls-4,.cls-9{stroke:#45413c;stroke-linecap:round;stroke-linejoin:round}.cls-10{fill:#ffaa54}</style></defs><ellipse cx="24" cy="45.54" rx="13.5" ry="1.5" opacity=".15" fill="#45413c"/><path d="M24 31.22A11.88 11.88 0 0 1 35.88 43.1V45H12.12v-1.9A11.88 11.88 0 0 1 24 31.22z" fill="#00b8f0"/><path d="M24 31.22A11.88 11.88 0 0 0 12.12 43.1V45h.07A11.88 11.88 0 0 1 24 34.43 11.88 11.88 0 0 1 35.81 45h.07v-1.9A11.88 11.88 0 0 0 24 31.22z" fill="#009fd9"/><path class="cls-4" d="M24 31.22A11.88 11.88 0 0 1 35.88 43.1V45H12.12v-1.9A11.88 11.88 0 0 1 24 31.22z"/><path class="cls-4" d="M17.06 45v-2.41"/><path class="cls-4" d="M30.94 45v-2.41"/><rect x="21.46" y="27.17" width="5.09" height="7.94" rx="2.54" ry="2.54" fill="#ebcb00" stroke="#45413c" stroke-linecap="round" stroke-linejoin="round"/><path d="M24 9.41a9.83 9.83 0 0 0-2.44.31c-1.86.42-4.28 1.12-6.47.7a4.2 4.2 0 0 0 .84 3.21 9.81 9.81 0 0 0-1.75 5.6v5.14h19.64v-5.14A9.82 9.82 0 0 0 24 9.41z" fill="#724f3d"/><g><path d="M24 9.41a9.83 9.83 0 0 0-2.44.31c-1.86.42-4.28 1.12-6.47.7a4.47 4.47 0 0 0 .68 3 19.4 19.4 0 0 0 5.79-.79 9.81 9.81 0 0 1 12.26 9.51v-2.91A9.82 9.82 0 0 0 24 9.41z" fill="#a86c4d"/></g><path class="cls-4" d="M24 9.41a9.83 9.83 0 0 0-2.44.31c-1.86.42-4.28 1.12-6.47.7a4.2 4.2 0 0 0 .84 3.21 9.81 9.81 0 0 0-1.75 5.6v5.14h19.64v-5.14A9.82 9.82 0 0 0 24 9.41z"/><path d="M34.87 23.62a1.83 1.83 0 0 0-1.39-1.54l-.59-.16a2.06 2.06 0 0 1-1.5-2v-2.04A1.88 1.88 0 0 0 30 16.07a15.34 15.34 0 0 1-6 1.09 15.34 15.34 0 0 1-6-1.09 1.88 1.88 0 0 0-1.4 1.81v2.06a2.06 2.06 0 0 1-1.5 2l-.59.16a1.83 1.83 0 0 0-1.39 1.54 1.81 1.81 0 0 0 1.81 2h.11a9 9 0 0 0 17.9 0h.11a1.81 1.81 0 0 0 1.82-2.02z" fill="#ffe500" stroke="#45413c" stroke-linecap="round" stroke-linejoin="round"/><path class="cls-9" d="M18.57 23.41a.77.77 0 1 0 .77-.77.76.76 0 0 0-.77.77z"/><path class="cls-9" d="M29.43 23.41a.77.77 0 1 1-.77-.77.76.76 0 0 1 .77.77z"/><ellipse class="cls-10" cx="18.06" cy="26.69" rx="1" ry=".6"/><ellipse class="cls-10" cx="29.94" cy="26.69" rx="1" ry=".6"/><path class="cls-4" d="M21.65 29.87a2.73 2.73 0 0 1 4.7 0"/></svg>