<svg xmlns="http://www.w3.org/2000/svg" viewBox="0 0 48 48"><defs><style>.cls-3,.cls-9{fill:none;stroke:#45413c;stroke-linecap:round;stroke-linejoin:round}.cls-9{fill:#45413c}.cls-10{fill:#ffb59e}</style></defs><path d="M24 8.82a10.88 10.88 0 0 1 10.88 10.87v14.19a1.24 1.24 0 0 1-.77 1.12 27.09 27.09 0 0 1-20.22 0 1.24 1.24 0 0 1-.77-1.14V19.69A10.88 10.88 0 0 1 24 8.82z" fill="#a86c4d"/><path d="M24 8.82a10.88 10.88 0 0 0-10.88 10.87v3a10.88 10.88 0 0 1 21.76 0v-3A10.88 10.88 0 0 0 24 8.82z" fill="#de926a"/><path class="cls-3" d="M24 8.82a10.88 10.88 0 0 1 10.88 10.87v14.19a1.24 1.24 0 0 1-.77 1.12 27.09 27.09 0 0 1-20.22 0 1.24 1.24 0 0 1-.77-1.14V19.69A10.88 10.88 0 0 1 24 8.82z"/><ellipse cx="24" cy="45.54" rx="13.5" ry="1.5" opacity=".15" fill="#45413c"/><path d="M24 31.22A11.88 11.88 0 0 1 35.88 43.1V45H12.12v-1.9A11.88 11.88 0 0 1 24 31.22z" fill="#ff87af"/><path d="M24 31.22A11.88 11.88 0 0 0 12.12 43.1V45h.07A11.88 11.88 0 0 1 24 34.43 11.88 11.88 0 0 1 35.81 45h.07v-1.9A11.88 11.88 0 0 0 24 31.22z" fill="#ff6196"/><path class="cls-3" d="M24 31.22A11.88 11.88 0 0 1 35.88 43.1V45H12.12v-1.9A11.88 11.88 0 0 1 24 31.22z"/><path class="cls-3" d="M17.06 45v-2.41"/><path class="cls-3" d="M30.94 45v-2.41"/><rect x="21.46" y="27.17" width="5.09" height="7.94" rx="2.54" ry="2.54" fill="#ffb59e" stroke="#45413c" stroke-linecap="round" stroke-linejoin="round"/><g><path d="M33.07 22a8.77 8.77 0 0 1-5.68-5l-.62-1.49a15.92 15.92 0 0 1-9.95 6.18l-1.89.31a1.81 1.81 0 0 0 0 3.62h.12a9 9 0 0 0 17.9 0h.12a1.81 1.81 0 1 0 0-3.62z" fill="#ffcebf" stroke="#45413c" stroke-linecap="round" stroke-linejoin="round"/></g><path class="cls-9" d="M18.57 23.41a.77.77 0 1 0 .77-.77.76.76 0 0 0-.77.77z"/><path class="cls-9" d="M29.43 23.41a.77.77 0 1 1-.77-.77.76.76 0 0 1 .77.77z"/><ellipse class="cls-10" cx="18.06" cy="26.69" rx="1" ry=".6"/><ellipse class="cls-10" cx="29.94" cy="26.69" rx="1" ry=".6"/><path class="cls-3" d="M21.65 29.87a2.73 2.73 0 0 1 4.7 0"/></svg>