<svg xmlns="http://www.w3.org/2000/svg" viewBox="0 0 48 48"><defs><style>.cls-3{fill:none}.cls-10,.cls-3{stroke:#45413c;stroke-linecap:round;stroke-linejoin:round}.cls-7{fill:#ffb59e}.cls-10{fill:#45413c}</style></defs><path d="M34.88 31.38a1.24 1.24 0 0 1-.77 1.14 27.09 27.09 0 0 1-20.22 0 1.24 1.24 0 0 1-.77-1.14V17.19a10.88 10.88 0 0 1 21.76 0z" fill="#a86c4d"/><path d="M24 6.32a10.88 10.88 0 0 0-10.88 10.87v2.9a10.88 10.88 0 0 1 21.76 0v-2.9A10.88 10.88 0 0 0 24 6.32z" fill="#de926a"/><path class="cls-3" d="M34.88 31.38a1.24 1.24 0 0 1-.77 1.14 27.09 27.09 0 0 1-20.22 0 1.24 1.24 0 0 1-.77-1.14V17.19a10.88 10.88 0 0 1 21.76 0z"/><path d="M35.88 45H12.12v-1.9a11.88 11.88 0 1 1 23.76 0z" fill="#ff87af"/><path d="M24 31.22A11.88 11.88 0 0 0 12.12 43.1V45h.17a11.88 11.88 0 0 1 23.42 0h.17v-1.9A11.88 11.88 0 0 0 24 31.22z" fill="#ff6196"/><path class="cls-3" d="M35.88 45H12.12v-1.9a11.88 11.88 0 1 1 23.76 0z"/><path d="M24 27.17a2.54 2.54 0 0 0-2.54 2.55v2.85a2.54 2.54 0 1 0 5.08 0v-2.85A2.54 2.54 0 0 0 24 27.17z" fill="#ffcebf"/><path class="cls-7" d="M24 27.17a2.54 2.54 0 0 0-2.54 2.54v.6a2.54 2.54 0 0 0 5.08 0v-.59A2.54 2.54 0 0 0 24 27.17z"/><path class="cls-3" d="M24 27.17a2.54 2.54 0 0 0-2.54 2.55v2.85a2.54 2.54 0 1 0 5.08 0v-2.85A2.54 2.54 0 0 0 24 27.17z"/><g><path d="M33.06 19.47a8.77 8.77 0 0 1-5.67-5L26.77 13a15.92 15.92 0 0 1-9.95 6.18l-1.89.34a1.81 1.81 0 0 0 0 3.62h.12a9 9 0 0 0 17.9 0h.11a1.81 1.81 0 1 0 0-3.62z" fill="#ffcebf" stroke="#45413c" stroke-linecap="round" stroke-linejoin="round"/></g><path class="cls-3" d="M17.06 45v-2.41"/><path class="cls-3" d="M30.94 45v-2.41"/><ellipse cx="24" cy="45.5" rx="15" ry="1.5" opacity=".15" fill="#45413c"/><path class="cls-10" d="M18.57 20.91a.77.77 0 1 0 .77-.77.76.76 0 0 0-.77.77z"/><path class="cls-10" d="M29.43 20.91a.77.77 0 1 1-.77-.77.76.76 0 0 1 .77.77z"/><ellipse class="cls-7" cx="18.06" cy="24.19" rx="1" ry=".6"/><ellipse class="cls-7" cx="29.94" cy="24.19" rx="1" ry=".6"/><path d="M23.06 28.54a.5.5 0 0 1-.5-.53c0-.79.29-2.21 1.44-2.21s1.4 1.42 1.44 2.21a.5.5 0 0 1-.5.53z" fill="#ff866e" stroke="#45413c" stroke-linecap="round" stroke-linejoin="round"/></svg>