<svg xmlns="http://www.w3.org/2000/svg" viewBox="0 0 48 48"><defs><style>.cls-9{fill:#45413c}.cls-4{fill:none}.cls-4,.cls-9{stroke:#45413c;stroke-linecap:round;stroke-linejoin:round}.cls-5{fill:#ff87af}.cls-6{fill:#ff6196}.cls-12{fill:#ffcebf}.cls-10{fill:#ffb59e}.cls-11{fill:#ffb0ca}.cls-13{fill:#ffdcd1}</style></defs><ellipse cx="24" cy="44.5" rx="14.5" ry="1.5" opacity=".15" fill="#45413c"/><path d="M24 4.82a10.88 10.88 0 0 1 10.88 10.87v14.19a1.24 1.24 0 0 1-.77 1.12 27.09 27.09 0 0 1-20.22 0 1.24 1.24 0 0 1-.77-1.14V15.69A10.88 10.88 0 0 1 24 4.82z" fill="#a86c4d"/><path d="M24 4.82a10.88 10.88 0 0 0-10.88 10.87v3a10.88 10.88 0 0 1 21.76 0v-3A10.88 10.88 0 0 0 24 4.82z" fill="#de926a"/><path class="cls-4" d="M24 4.82a10.88 10.88 0 0 1 10.88 10.87v14.19a1.24 1.24 0 0 1-.77 1.12 27.09 27.09 0 0 1-20.22 0 1.24 1.24 0 0 1-.77-1.14V15.69A10.88 10.88 0 0 1 24 4.82z"/><path class="cls-5" d="M24 29.72A11.88 11.88 0 0 1 35.88 41.6v1.9H12.12v-1.9A11.88 11.88 0 0 1 24 29.72z"/><path class="cls-6" d="M24 29.72A11.88 11.88 0 0 0 12.12 41.6v1.9h.07A11.88 11.88 0 0 1 24 32.93 11.88 11.88 0 0 1 35.81 43.5h.07v-1.9A11.88 11.88 0 0 0 24 29.72z"/><path class="cls-4" d="M24 29.72A11.88 11.88 0 0 1 35.88 41.6v1.9H12.12v-1.9A11.88 11.88 0 0 1 24 29.72z"/><path class="cls-4" d="M17.06 43.5v-2.41"/><path class="cls-4" d="M30.94 43.5v-2.41"/><rect x="21.46" y="25.67" width="5.09" height="7.94" rx="2.54" ry="2.54" fill="#ebcb00" stroke="#45413c" stroke-linecap="round" stroke-linejoin="round"/><g><path d="M33.06 18a8.77 8.77 0 0 1-5.67-5l-.62-1.49a15.92 15.92 0 0 1-9.95 6.18l-1.89.31a1.81 1.81 0 0 0 0 3.62h.12a9 9 0 0 0 17.9 0h.11a1.81 1.81 0 1 0 0-3.62z" fill="#ffcebf" stroke="#45413c" stroke-linecap="round" stroke-linejoin="round"/></g><path class="cls-9" d="M18.57 19.41a.77.77 0 1 0 .77-.77.76.76 0 0 0-.77.77z"/><path class="cls-9" d="M29.43 19.41a.77.77 0 1 1-.77-.77.76.76 0 0 1 .77.77z"/><ellipse class="cls-10" cx="18.06" cy="22.69" rx="1" ry=".6"/><ellipse class="cls-10" cx="29.94" cy="22.69" rx="1" ry=".6"/><path class="cls-4" d="M22.83 25.67h2.34"/><path class="cls-5" d="M35.29 45.48a4 4 0 0 1-5.71-.23L16.83 30.79a1 1 0 0 1 .06-1.38l3.12-3a1 1 0 0 1 1.39 0l13.89 13.36a4 4 0 0 1 0 5.71z"/><path class="cls-6" d="M21.55 36.14l4.8 5.45 4.97-5.64-4.79-4.6-4.98 4.79z"/><path class="cls-11" d="M24.71 33.1l1.82-1.75-5.13-4.94a1 1 0 0 0-1.39 0l-3.12 3a1 1 0 0 0-.06 1.38l1 1.18a4.1 4.1 0 0 1 5.67 0z"/><path class="cls-4" d="M35.29 45.48a4 4 0 0 1-5.71-.23L16.83 30.79a1 1 0 0 1 .06-1.38l3.12-3a1 1 0 0 1 1.39 0l13.89 13.36a4 4 0 0 1 0 5.71z"/><path class="cls-12" d="M20 26.45l-3 2.92-2.16-2.26a4.46 4.46 0 0 1-.9-1.37l-1.6-3.83a1.85 1.85 0 0 1 .43-2 .69.69 0 0 1 1 0z"/><path class="cls-13" d="M13.68 22.31a.69.69 0 0 0-1 0 1.92 1.92 0 0 0-.18.22l-.25-.6a1.85 1.85 0 0 1 .43-2 .69.69 0 0 1 1 0L20 26.45l-1.21 1.16z"/><path class="cls-4" d="M20 26.45l-3 2.92-2.16-2.26a4.46 4.46 0 0 1-.9-1.37l-1.6-3.83a1.85 1.85 0 0 1 .43-2 .69.69 0 0 1 1 0z"/><path class="cls-5" d="M12.71 45.48a4 4 0 0 0 5.71-.23l12.75-14.46a1 1 0 0 0-.06-1.38l-3.12-3a1 1 0 0 0-1.39 0L12.71 39.77a4 4 0 0 0 0 5.71z"/><path class="cls-11" d="M31.11 29.41l-3.12-3a1 1 0 0 0-1.39 0L12.71 39.77a4 4 0 0 0-.8 4.63 3.78 3.78 0 0 1 .8-1.12L24.46 32a4.1 4.1 0 0 1 5.67 0l1-1.18a1 1 0 0 0-.02-1.41z"/><path class="cls-4" d="M12.71 45.48a4 4 0 0 0 5.71-.23l12.75-14.46a1 1 0 0 0-.06-1.38l-3.12-3a1 1 0 0 0-1.39 0L12.71 39.77a4 4 0 0 0 0 5.71z"/><path class="cls-12" d="M28 26.45l3 2.92 2.16-2.26a4.46 4.46 0 0 0 .9-1.37l1.6-3.83a1.85 1.85 0 0 0-.43-2 .69.69 0 0 0-1 0z"/><path class="cls-13" d="M34.32 22.31a.69.69 0 0 1 1 0 1.92 1.92 0 0 1 .18.22l.25-.6a1.85 1.85 0 0 0-.43-2 .69.69 0 0 0-1 0L28 26.45l1.21 1.16z"/><path class="cls-4" d="M28 26.45l3 2.92 2.16-2.26a4.46 4.46 0 0 0 .9-1.37l1.6-3.83a1.85 1.85 0 0 0-.43-2 .69.69 0 0 0-1 0z"/></svg>