<svg xmlns="http://www.w3.org/2000/svg" viewBox="0 0 48 48"><defs><style>.cls-8{fill:#45413c}.cls-2{fill:#ffcebf}.cls-2,.cls-5,.cls-8{stroke:#45413c;stroke-linecap:round;stroke-linejoin:round}.cls-5{fill:none}.cls-11{fill:#ffb59e}</style></defs><ellipse cx="24" cy="45.5" rx="15" ry="1.5" opacity=".15" fill="#45413c"/><path class="cls-2" d="M10.75 12.3a11.76 11.76 0 0 1 7.78-3.78A1.39 1.39 0 0 1 20 10a1.37 1.37 0 0 1-.49 1l-4.7 3.93z"/><path class="cls-2" d="M37.25 12.3a11.76 11.76 0 0 0-7.78-3.78A1.39 1.39 0 0 0 28 10a1.37 1.37 0 0 0 .49 1l4.7 3.93z"/><path d="M38.31 12.84a1 1 0 0 0-1.39-.32l-4.71 2.39s2.29 3.23 1.67 10.16c-.38 4.21-1 7.36-2.31 9.23a3 3 0 0 1-3.48 1.14 12 12 0 0 0-8.18 0 3 3 0 0 1-3.48-1.14c-1.29-1.87-1.93-5-2.31-9.23-.62-6.93 1.67-10.16 1.67-10.16l-4.71-2.39a1 1 0 0 0-1.39.32c-1.19 2-3.79 6.35-3.3 15.51C7 40.57 13.37 45 13.37 45h21.26s6.34-4.43 7-16.65c.47-9.16-2.13-13.55-3.32-15.51z" fill="#00b8f0"/><path d="M33.93 24.33v.74c-.38 4.21-1 7.36-2.31 9.23a3 3 0 0 1-3.48 1.14 12 12 0 0 0-8.18 0 3 3 0 0 1-3.48-1.14c-1.29-1.87-1.93-5-2.31-9.23v-.74a24.2 24.2 0 0 0 0 3.87c.38 4.21 1 7.35 2.31 9.22a3 3 0 0 0 3.48 1.14 12 12 0 0 1 8.18 0 3 3 0 0 0 3.48-1.14c1.29-1.87 1.93-5 2.31-9.22a24.2 24.2 0 0 0 0-3.87z" fill="#009fd9"/><path class="cls-5" d="M38.31 12.84a1 1 0 0 0-1.39-.32l-4.71 2.39s2.29 3.23 1.67 10.16c-.38 4.21-1 7.36-2.31 9.23a3 3 0 0 1-3.48 1.14 12 12 0 0 0-8.18 0 3 3 0 0 1-3.48-1.14c-1.29-1.87-1.93-5-2.31-9.23-.62-6.93 1.67-10.16 1.67-10.16l-4.71-2.39a1 1 0 0 0-1.39.32c-1.19 2-3.79 6.35-3.3 15.51C7 40.57 13.37 45 13.37 45h21.26s6.34-4.43 7-16.65c.47-9.16-2.13-13.55-3.32-15.51z"/><path d="M24 10.41a9.83 9.83 0 0 0-2.44.31c-1.86.42-4.28 1.12-6.47.7a4.2 4.2 0 0 0 .84 3.21 9.81 9.81 0 0 0-1.75 5.6v5.14h19.64v-5.14A9.82 9.82 0 0 0 24 10.41z" fill="#a86c4d"/><g><path d="M24 10.41a9.83 9.83 0 0 0-2.44.31c-1.86.42-4.28 1.12-6.47.7a4.47 4.47 0 0 0 .68 3 19.4 19.4 0 0 0 5.79-.79 9.81 9.81 0 0 1 12.26 9.51v-2.91A9.82 9.82 0 0 0 24 10.41z" fill="#de926a"/></g><path class="cls-5" d="M24 10.41a9.83 9.83 0 0 0-2.44.31c-1.86.42-4.28 1.12-6.47.7a4.2 4.2 0 0 0 .84 3.21 9.81 9.81 0 0 0-1.75 5.6v5.14h19.64v-5.14A9.82 9.82 0 0 0 24 10.41z"/><path class="cls-2" d="M34.87 24.62a1.83 1.83 0 0 0-1.39-1.54l-.59-.16a2.06 2.06 0 0 1-1.5-2v-2.04A1.88 1.88 0 0 0 30 17.07a15.34 15.34 0 0 1-6 1.09 15.34 15.34 0 0 1-6-1.09 1.88 1.88 0 0 0-1.4 1.81v2.06a2.06 2.06 0 0 1-1.5 2l-.59.16a1.83 1.83 0 0 0-1.39 1.54 1.81 1.81 0 0 0 1.81 2h.11a9 9 0 0 0 17.9 0h.11a1.81 1.81 0 0 0 1.82-2.02z"/><path class="cls-8" d="M18.57 24.41a.77.77 0 1 0 .77-.77.76.76 0 0 0-.77.77z"/><path class="cls-8" d="M29.43 24.41a.77.77 0 1 1-.77-.77.76.76 0 0 1 .77.77z"/><g><g><g><g><g><g><g><path d="M21.16 29.1a.42.42 0 0 0-.33.16.42.42 0 0 0-.1.35 3.32 3.32 0 0 0 6.54 0 .42.42 0 0 0-.1-.35.44.44 0 0 0-.33-.16z" fill="#ff6242"/><path d="M24 30.47a4 4 0 0 0-2.52.77 3.36 3.36 0 0 0 5 0 4 4 0 0 0-2.48-.77z" fill="#ffa694"/></g></g></g></g></g></g></g><g><path class="cls-5" d="M21.16 29.1a.42.42 0 0 0-.33.16.42.42 0 0 0-.1.35 3.32 3.32 0 0 0 6.54 0 .42.42 0 0 0-.1-.35.44.44 0 0 0-.33-.16z"/></g><ellipse class="cls-11" cx="18.06" cy="27.69" rx="1" ry=".6"/><ellipse class="cls-11" cx="29.94" cy="27.69" rx="1" ry=".6"/><path d="M24 34.3a8.86 8.86 0 0 1-2.54-.37v2.14a2.54 2.54 0 1 0 5.08 0v-2.14a8.86 8.86 0 0 1-2.54.37z" fill="#ffcebf"/><path class="cls-11" d="M24 34.3a8.86 8.86 0 0 1-2.54-.37 2.54 2.54 0 1 0 5.08 0 8.86 8.86 0 0 1-2.54.37z"/><path class="cls-5" d="M24 34.3a8.86 8.86 0 0 1-2.54-.37v2.14a2.54 2.54 0 1 0 5.08 0v-2.14a8.86 8.86 0 0 1-2.54.37z"/></svg>