<svg xmlns="http://www.w3.org/2000/svg" viewBox="0 0 48 48"><defs><style>.cls-3{fill:none}.cls-10,.cls-3,.cls-7,.cls-8{stroke:#45413c;stroke-linecap:round;stroke-linejoin:round}.cls-8{fill:#45413c}.cls-7{fill:#ffcebf}.cls-9{fill:#ffb59e}.cls-10{fill:#ffe500}</style></defs><path d="M30.24 28.83H17.76a8.65 8.65 0 0 0-8 5.72l-1.46 3.8C7.1 41.48 9.24 45 12.48 45h23c3.24 0 5.38-3.52 4.18-6.65l-1.47-3.8a8.65 8.65 0 0 0-7.95-5.72z" fill="#009fd9"/><path d="M39.7 38.35l-1.47-3.8a8.65 8.65 0 0 0-8-5.72H17.76a8.65 8.65 0 0 0-8 5.72l-1.46 3.8A5 5 0 0 0 9.77 44a4.5 4.5 0 0 1 .25-.94l1.3-3.39a7.73 7.73 0 0 1 7.12-5.1h11.12a7.73 7.73 0 0 1 7.12 5.1L38 43.09a4.5 4.5 0 0 1 .25.94 5 5 0 0 0 1.45-5.68z" fill="#00b8f0"/><path class="cls-3" d="M30.24 28.83H17.76a8.65 8.65 0 0 0-8 5.72l-1.46 3.8C7.1 41.48 9.24 45 12.48 45h23c3.24 0 5.38-3.52 4.18-6.65l-1.47-3.8a8.65 8.65 0 0 0-7.95-5.72z"/><ellipse cx="24" cy="45.5" rx="17" ry="1.5" opacity=".15" fill="#45413c"/><path d="M24 15.1a10.32 10.32 0 0 0-2.44.29c-1.86.4-4.28 1.07-6.47.67a3.81 3.81 0 0 0 .84 3 8.93 8.93 0 0 0-1.75 5.29v4.86h19.64v-4.83A9.57 9.57 0 0 0 24 15.1z" fill="#a86c4d"/><g><path d="M24 15.1a10.32 10.32 0 0 0-2.44.29c-1.86.4-4.28 1.07-6.47.67a3.81 3.81 0 0 0 .84 3 10.44 10.44 0 0 0-.58.89c2.12.31 4.42-.32 6.21-.7A10.32 10.32 0 0 1 24 19a9.56 9.56 0 0 1 9.82 9.27v-3.89A9.57 9.57 0 0 0 24 15.1z" fill="#de926a"/></g><path class="cls-3" d="M24 15.1a10.32 10.32 0 0 0-2.44.29c-1.86.4-4.28 1.07-6.47.67a3.81 3.81 0 0 0 .84 3 8.93 8.93 0 0 0-1.75 5.29v4.86h19.64v-4.83A9.57 9.57 0 0 0 24 15.1z"/><path class="cls-7" d="M34.87 28.49A1.83 1.83 0 0 0 33.48 27l-.59-.17c-.89-.24-1.5-.05-1.5-1V25a1.31 1.31 0 0 0-1.86-1.12 15.84 15.84 0 0 1-5.53.91 16.17 16.17 0 0 1-5.53-.9A1.3 1.3 0 0 0 16.62 25v1.24c0 .88-.71.6-1.59.6a1.88 1.88 0 0 0-1.88 1.51 1.81 1.81 0 0 0 1.78 2.12h.12a9 9 0 0 0 17.9 0h.12a1.81 1.81 0 0 0 1.8-1.98z"/><path class="cls-8" d="M18.57 31.23a.77.77 0 1 0 .77-.77.77.77 0 0 0-.77.77z"/><path class="cls-8" d="M29.43 31.23a.77.77 0 1 1-.77-.77.77.77 0 0 1 .77.77z"/><ellipse class="cls-9" cx="18.06" cy="33.72" rx="1" ry=".6"/><ellipse class="cls-9" cx="29.94" cy="33.72" rx="1" ry=".6"/><path class="cls-3" d="M22.8 35.48h2.4"/><path class="cls-7" d="M24 43.83A1.18 1.18 0 0 0 25.17 45h5.77v-3.41l-2.37-.2a4.17 4.17 0 0 0-2.41.53l-1.56.88a1.18 1.18 0 0 0-.6 1.03z"/><path class="cls-3" d="M30.94 41.59l2.55-1.36"/><path class="cls-7" d="M24 43.83A1.18 1.18 0 0 1 22.83 45h-5.77v-3.41l2.37-.2a4.17 4.17 0 0 1 2.41.53l1.56.88a1.18 1.18 0 0 1 .6 1.03z"/><path class="cls-3" d="M17.06 41.59l-2.55-1.36"/><path class="cls-10" d="M27.89 9.6l2-3.07a.5.5 0 0 0-.29-.76l-2.23-.58a.51.51 0 0 0-.63.52L27 9.36a.5.5 0 0 0 .89.24z"/><path class="cls-10" d="M34.46 12.46l2.86-2.27a.5.5 0 0 0 0-.81l-1.96-1.27a.51.51 0 0 0-.76.29l-.94 3.54a.5.5 0 0 0 .8.52z"/><path class="cls-10" d="M20.11 9.6l-2-3.07a.5.5 0 0 1 .29-.76l2.23-.58a.51.51 0 0 1 .63.52L21 9.36a.5.5 0 0 1-.89.24z"/><path class="cls-10" d="M13.54 12.46l-2.86-2.27a.5.5 0 0 1 0-.81l1.92-1.27a.51.51 0 0 1 .76.29l.94 3.54a.5.5 0 0 1-.76.52z"/></svg>