<svg xmlns="http://www.w3.org/2000/svg" viewBox="0 0 48 48"><defs><style>.cls-8{fill:#45413c}.cls-4{fill:none}.cls-4,.cls-5,.cls-8{stroke:#45413c;stroke-linecap:round;stroke-linejoin:round}.cls-5{fill:#ffe500}.cls-9{fill:#ffaa54}</style></defs><ellipse cx="24" cy="45.5" rx="17" ry="1.5" opacity=".15" fill="#45413c"/><path d="M30.24 28.83H17.76a8.65 8.65 0 0 0-8 5.72l-1.46 3.8C7.1 41.48 9.24 45 12.48 45h23c3.24 0 5.38-3.52 4.18-6.65l-1.47-3.8a8.65 8.65 0 0 0-7.95-5.72z" fill="#ff6196"/><path d="M39.7 38.35l-1.47-3.8a8.65 8.65 0 0 0-8-5.72H17.76a8.65 8.65 0 0 0-8 5.72l-1.46 3.8A5 5 0 0 0 9.77 44a4.5 4.5 0 0 1 .25-.94l1.3-3.39a7.73 7.73 0 0 1 7.12-5.1h11.12a7.73 7.73 0 0 1 7.12 5.1L38 43.09a4.5 4.5 0 0 1 .25.94 5 5 0 0 0 1.45-5.68z" fill="#ff87af"/><path class="cls-4" d="M30.24 28.83H17.76a8.65 8.65 0 0 0-8 5.72l-1.46 3.8C7.1 41.48 9.24 45 12.48 45h23c3.24 0 5.38-3.52 4.18-6.65l-1.47-3.8a8.65 8.65 0 0 0-7.95-5.72z"/><path class="cls-5" d="M24 43.83A1.18 1.18 0 0 0 25.17 45h5.77v-3.41l-2.37-.2a4.17 4.17 0 0 0-2.41.53l-1.56.88a1.18 1.18 0 0 0-.6 1.03z"/><path class="cls-4" d="M30.94 41.59l2.55-1.36"/><path class="cls-5" d="M24 43.83A1.18 1.18 0 0 1 22.83 45h-5.77v-3.41l2.37-.2a4.17 4.17 0 0 1 2.41.53l1.56.88a1.18 1.18 0 0 1 .6 1.03z"/><path class="cls-4" d="M17.06 41.59l-2.55-1.36"/><path d="M34.88 34.43A1.39 1.39 0 0 1 33 35.72a25 25 0 0 0-18 0 1.39 1.39 0 0 1-1.89-1.29v-9.87a10.88 10.88 0 0 1 21.76 0z" fill="#724f3d"/><path d="M24 13.68a10.88 10.88 0 0 0-10.88 10.88v4.91a10.88 10.88 0 0 1 21.76 0v-4.91A10.88 10.88 0 0 0 24 13.68z" fill="#a86c4d"/><path class="cls-4" d="M34.88 34.43A1.39 1.39 0 0 1 33 35.72a25 25 0 0 0-18 0 1.39 1.39 0 0 1-1.89-1.29v-9.87a10.88 10.88 0 0 1 21.76 0z"/><g><path class="cls-5" d="M33.07 26.83a8 8 0 0 1-5.68-2.28l-.62-.73c-4 2.9-5.55 2.51-9.95 2.67l-1.89.34a1.82 1.82 0 0 0 0 3.63h.12a9 9 0 0 0 17.9 0h.12a1.82 1.82 0 0 0 0-3.63z"/></g><path class="cls-8" d="M18.57 31.23a.77.77 0 1 0 .77-.77.77.77 0 0 0-.77.77z"/><path class="cls-8" d="M29.43 31.23a.77.77 0 1 1-.77-.77.77.77 0 0 1 .77.77z"/><ellipse class="cls-9" cx="18.06" cy="33.72" rx="1" ry=".6"/><ellipse class="cls-9" cx="29.94" cy="33.72" rx="1" ry=".6"/><path class="cls-4" d="M22.8 35.48h2.4"/><path class="cls-5" d="M27.89 9.6l2-3.07a.51.51 0 0 0-.29-.76l-2.23-.58a.51.51 0 0 0-.63.52L27 9.36a.5.5 0 0 0 .89.24z"/><path class="cls-5" d="M34.46 12.46l2.86-2.27a.5.5 0 0 0 0-.81l-1.96-1.27a.51.51 0 0 0-.76.29l-.94 3.54a.5.5 0 0 0 .8.52z"/><path class="cls-5" d="M20.11 9.6l-2-3.07a.5.5 0 0 1 .29-.76l2.23-.58a.51.51 0 0 1 .63.52L21 9.36a.5.5 0 0 1-.89.24z"/><path class="cls-5" d="M13.54 12.46l-2.86-2.27a.5.5 0 0 1 0-.81l1.92-1.27a.51.51 0 0 1 .76.29l.94 3.54a.5.5 0 0 1-.76.52z"/></svg>