<svg xmlns="http://www.w3.org/2000/svg" viewBox="0 0 48 48"><defs><style>.cls-1{fill:#00b8f0}.cls-2{fill:#009fd9}.cls-3{fill:none}.cls-3,.cls-7{stroke:#45413c;stroke-linecap:round;stroke-linejoin:round}.cls-6{fill:#ff6242}.cls-7{fill:#656769}</style></defs><path class="cls-1" d="M20 28.7l-1.06 1.68a14.83 14.83 0 0 0-2.22 7.8v3.69h5v-4.1a9.52 9.52 0 0 1 1.54-5.18l2.54-3.89z"/><path class="cls-2" d="M18.94 30.38a15.22 15.22 0 0 0-1.3 2.62H23c.08-.15.18-.3.27-.45l2.54-3.89H20z"/><path class="cls-3" d="M20 28.7l-1.06 1.68a14.83 14.83 0 0 0-2.22 7.8v3.69h5v-4.1a9.52 9.52 0 0 1 1.54-5.18l2.54-3.89z"/><path class="cls-1" d="M22.3 28.7l.21 1.52a14.8 14.8 0 0 0 7.13 10.71l.86.5 2.68-4.6-1.12-.65a9.48 9.48 0 0 1-4.62-6.78l-.11-.7z"/><path class="cls-2" d="M27.44 29.4l-.11-.7h-5l.21 1.52a14 14 0 0 0 .65 2.78h5.61a9.49 9.49 0 0 1-1.36-3.6z"/><path class="cls-3" d="M22.3 28.7l.21 1.52a14.8 14.8 0 0 0 7.13 10.71l.86.5 2.68-4.6-1.12-.65a9.48 9.48 0 0 1-4.62-6.78l-.11-.7z"/><ellipse cx="24.71" cy="45.64" rx="12.12" ry="1.58" fill="#45413c" opacity=".15"/><circle cx="23.51" cy="9.55" r="5.29" fill="#ffcebf" stroke="#45413c" stroke-linecap="round" stroke-linejoin="round"/><g><path class="cls-6" d="M27.33 28.7H20c-.25-1.06-.61-1.84.14-6 .6-3.28 1.74-6 3.56-6a2.28 2.28 0 0 1 2.3 1.86z"/><path class="cls-3" d="M27.33 28.7H20c-.25-1.06-.61-1.84.14-6 .6-3.28 1.74-6 3.56-6a2.28 2.28 0 0 1 2.3 1.86z"/></g><path class="cls-7" d="M18 41.87h3.75v2.07A1.05 1.05 0 0 1 20.69 45h-5.82A3.13 3.13 0 0 1 18 41.87z"/><path class="cls-7" d="M32.49 39h3.75v2.1a1.05 1.05 0 0 1-1.05 1.05h-5.83A3.13 3.13 0 0 1 32.49 39z" transform="rotate(-59.72 32.802 40.59)"/><g><path class="cls-6" d="M24 16.77a2.09 2.09 0 0 1 2.09 2.09v4.42h-4.18v-4.42A2.09 2.09 0 0 1 24 16.77z" transform="rotate(-7.16 24.02 20.036)"/><path d="M23.59 16.79a2.1 2.1 0 0 0-1.81 2.34l.28 2.23a2.09 2.09 0 0 1 4.15-.52l-.28-2.23a2.1 2.1 0 0 0-2.34-1.82z" fill="#ff866e"/><path class="cls-3" d="M24 16.77a2.09 2.09 0 0 1 2.09 2.09v4.42h-4.18v-4.42A2.09 2.09 0 0 1 24 16.77z" transform="rotate(-7.16 24.02 20.036)"/></g><path d="M26 3.83a6.65 6.65 0 0 0-4.81-.16 2.57 2.57 0 0 1-2.93-.53s-1.94 3.36.33 4.58a8 8 0 0 0 5.26-.18l-.27 1.83s1.21-.69 1.86.05.32 2.81-1.07 2.6a2.84 2.84 0 0 0 1 2.51 5.28 5.28 0 0 0 3.44-4.21c.36-2.9-.26-4.97-2.81-6.49z" fill="#a86c4d"/><g><path d="M17.91 6a.56.56 0 0 1 .32-.3.61.61 0 0 1 .44 0 2.84 2.84 0 0 0 2.47.15 6.65 6.65 0 0 1 4.86.23A5.23 5.23 0 0 1 28.79 10c.32-2.71-.34-4.68-2.84-6.14a6.65 6.65 0 0 0-4.81-.16 2.57 2.57 0 0 1-2.93-.53S17 5.29 17.63 6.78c.09-.29.19-.55.28-.78z" fill="#de926a"/></g><path class="cls-3" d="M26 3.83a6.65 6.65 0 0 0-4.81-.16 2.57 2.57 0 0 1-2.93-.53s-1.94 3.36.33 4.58a8 8 0 0 0 5.26-.18l-.27 1.83s1.21-.69 1.86.05.32 2.81-1.07 2.6a2.84 2.84 0 0 0 1 2.51 5.28 5.28 0 0 0 3.44-4.21c.36-2.9-.26-4.97-2.81-6.49z"/><g><path d="M22.55 23.49l.13 1a6.47 6.47 0 0 1-.23 2.66l-.9 2.85a1.74 1.74 0 0 0 1.05 2.14 1.74 1.74 0 0 0 2.27-1.12l.9-2.93a10.44 10.44 0 0 0 .38-4.41l-.08-.67z" fill="#ffcebf"/><path d="M22.68 24.5a7.7 7.7 0 0 1 .05.83l3.5-.44a9.2 9.2 0 0 0-.08-1.17l-.08-.67-3.52.44z" fill="#ffb59e"/><path class="cls-3" d="M22.55 23.49l.13 1a6.47 6.47 0 0 1-.23 2.66l-.9 2.85a1.74 1.74 0 0 0 1.05 2.14 1.74 1.74 0 0 0 2.27-1.12l.9-2.93a10.44 10.44 0 0 0 .38-4.41l-.08-.67z"/></g></svg>