<svg xmlns="http://www.w3.org/2000/svg" viewBox="0 0 48 48"><defs><style>.cls-1{fill:#bf8df2}.cls-2{fill:#dabff5}.cls-3{fill:#724f3d}.cls-4{fill:#a86c4d}.cls-5{fill:none}.cls-10,.cls-5{stroke:#45413c;stroke-linecap:round;stroke-linejoin:round}.cls-6{fill:#c0dceb}.cls-7{fill:#adc4d9}.cls-10{fill:#656769}</style></defs><path class="cls-1" d="M25.9 19.92a2.15 2.15 0 0 0-2.18-1.69 1.39 1.39 0 0 0-.35 0 5.43 5.43 0 0 0-3.72 2.84c-1.16 2.12.69 2.77.69 2.77-.87 3.92-.14 5.65-.14 5.65h7c.16-1.8-1.03-8.04-1.3-9.57z"/><path class="cls-2" d="M25.9 19.92a2.15 2.15 0 0 0-2.18-1.69 1.39 1.39 0 0 0-.35 0 5.43 5.43 0 0 0-3.72 2.84 1.87 1.87 0 0 0 0 2.25 5.23 5.23 0 0 1 4-2.94 2.6 2.6 0 0 1 2.59 1c-.18-.6-.24-1.13-.34-1.46z"/><path class="cls-3" d="M28.5 9.68s2.31-1.06 3.58.38c1.5 1.69.21 5.87.67 7.54a4.06 4.06 0 0 0 1.62 2.4 3.66 3.66 0 0 1-3.07-.44c-2.13-1.29-1.93-5.25-2-6.71s-1.07-1.47-1.07-1.47z"/><path class="cls-4" d="M32.08 12.13a3.45 3.45 0 0 1 .71 2c.1-1.55.09-3.15-.71-4-1.27-1.44-3.58-.38-3.58-.38l-.28 1.7a1 1 0 0 1 .58.26c.67-.3 2.29-.71 3.28.42z"/><path class="cls-5" d="M28.5 9.68s2.31-1.06 3.58.38c1.5 1.69.21 5.87.67 7.54a4.06 4.06 0 0 0 1.62 2.4 3.66 3.66 0 0 1-3.07-.44c-2.13-1.29-1.93-5.25-2-6.71s-1.07-1.47-1.07-1.47z"/><path class="cls-6" d="M20.2 29.53l-1 1.61a14 14 0 0 0-2.11 7.39V42h4.77v-3.86a8.93 8.93 0 0 1 1.46-4.91l2.41-3.7z"/><path class="cls-7" d="M19.2 31.14a13.35 13.35 0 0 0-1.2 2.52h5.09c.08-.15.17-.29.26-.43l2.41-3.7H20.2z"/><path class="cls-5" d="M20.2 29.53l-1 1.61a14 14 0 0 0-2.11 7.39V42h4.77v-3.86a8.93 8.93 0 0 1 1.46-4.91l2.41-3.7z"/><path class="cls-6" d="M22.39 29.53l.2 1.45a14 14 0 0 0 6.76 10.16l.81.48 2.55-4.37-1.06-.61a9 9 0 0 1-4.39-6.44l-.1-.67z"/><path class="cls-7" d="M27.26 30.2l-.1-.67h-4.77l.2 1.45a13.42 13.42 0 0 0 .64 2.68h5.33a9 9 0 0 1-1.3-3.46z"/><path class="cls-5" d="M22.39 29.53l.2 1.45a14 14 0 0 0 6.76 10.16l.81.48 2.55-4.37-1.06-.61a9 9 0 0 1-4.39-6.44l-.1-.67z"/><ellipse cx="24.67" cy="45.6" rx="11.5" ry="1.5" fill="#45413c" opacity=".15"/><circle cx="23.53" cy="11.38" r="5.02" fill="#ffe500" stroke="#45413c" stroke-linecap="round" stroke-linejoin="round"/><path class="cls-5" d="M25.9 19.92a2.15 2.15 0 0 0-2.18-1.69 1.39 1.39 0 0 0-.35 0 5.43 5.43 0 0 0-3.72 2.84c-1.16 2.12.69 2.77.69 2.77-.87 3.92-.14 5.65-.14 5.65h7c.16-1.8-1.03-8.04-1.3-9.57z"/><path class="cls-10" d="M18.3 42h3.56v2a1 1 0 0 1-1 1h-5.52a3 3 0 0 1 2.96-3z"/><path class="cls-10" d="M32.05 39.33h3.56v2a1 1 0 0 1-1 1h-5.52a3 3 0 0 1 3-3z" transform="rotate(-59.72 32.348 40.816)"/><path class="cls-1" d="M24 18.22a2 2 0 0 1 2 2v4.2h-4V20.2a2 2 0 0 1 2-1.98z" transform="rotate(-7.16 24.019 21.32)"/><path class="cls-2" d="M23.61 18.24a2 2 0 0 0-1.72 2.22l.27 2.12a2 2 0 1 1 3.94-.5L25.83 20a2 2 0 0 0-2.22-1.76z"/><path class="cls-5" d="M24 18.22a2 2 0 0 1 2 2v4.2h-4V20.2a2 2 0 0 1 2-1.98z" transform="rotate(-7.16 24.019 21.32)"/><path d="M22.63 24.6l.12 1a6.15 6.15 0 0 1-.22 2.52l-.85 2.73a1.65 1.65 0 0 0 1 2 1.65 1.65 0 0 0 2.15-1.06l.85-2.79a10 10 0 0 0 .32-4.18v-.64z" fill="#ffe500"/><path d="M22.75 25.56a5.1 5.1 0 0 1 0 .78l3.33-.42a10 10 0 0 0-.08-1.1v-.64l-3.33.42z" fill="#ebcb00"/><path class="cls-5" d="M22.63 24.6l.12 1a6.15 6.15 0 0 1-.22 2.52l-.85 2.73a1.65 1.65 0 0 0 1 2 1.65 1.65 0 0 0 2.15-1.06l.85-2.79a10 10 0 0 0 .32-4.18v-.64z"/><path class="cls-3" d="M18.33 8.06c-.62 1.65 1.53 1.59 2.38 1.18a4.1 4.1 0 0 0 2.85 2 1.29 1.29 0 0 1 1.76.05 1.46 1.46 0 0 1-.27 2.31 2.43 2.43 0 0 1-.74.16 2.17 2.17 0 0 0 .94 2.38 5 5 0 0 0 4.1-4.37 6 6 0 0 0-3-6.18c-2.23-1.24-6.77-.87-8.02 2.47z"/><path class="cls-4" d="M18.76 9.35c1.64-2.54 5.56-2.76 7.59-1.67a5.94 5.94 0 0 1 3 4.18.79.79 0 0 1 0-.13 6 6 0 0 0-3-6.18c-2.23-1.2-6.77-.83-8 2.51-.29.72-.03 1.11.41 1.29z"/><path class="cls-5" d="M18.33 8.06c-.62 1.65 1.53 1.59 2.38 1.18a4.1 4.1 0 0 0 2.85 2 1.29 1.29 0 0 1 1.76.05 1.46 1.46 0 0 1-.27 2.31 2.43 2.43 0 0 1-.74.16 2.17 2.17 0 0 0 .94 2.38 5 5 0 0 0 4.1-4.37 6 6 0 0 0-3-6.18c-2.23-1.24-6.77-.87-8.02 2.47z"/></svg>