<svg xmlns="http://www.w3.org/2000/svg" viewBox="0 0 48 48"><defs><style>.cls-1{fill:#656769}.cls-1,.cls-4{stroke:#45413c;stroke-linecap:round;stroke-linejoin:round}.cls-2{fill:#00b8f0}.cls-3{fill:#009fd9}.cls-4{fill:none}.cls-7{fill:#ff6242}.cls-8{fill:#ff866e}.cls-9{fill:#ffcebf}.cls-10{fill:#ffb59e}</style></defs><path class="cls-1" d="M38.07 36h4v2.22A1.13 1.13 0 0 1 41 39.37h-6.27A3.34 3.34 0 0 1 38.07 36z" transform="rotate(-78.92 38.404 37.696)"/><path class="cls-2" d="M24.36 28.52a2.67 2.67 0 0 0-.43 3.74l1.53 1.93a11.27 11.27 0 0 0 6.76 4.07l4.22.79 1-5.28-3.69-.7a7.91 7.91 0 0 1-4.8-3L28.14 29a2.66 2.66 0 0 0-3.78-.47z"/><path class="cls-3" d="M29 30.1l-.86-1.1a2.67 2.67 0 1 0-4.21 3.27l1.53 1.93a11.83 11.83 0 0 0 2 2 28.88 28.88 0 0 1 4-3.93A8 8 0 0 1 29 30.1z"/><path class="cls-4" d="M24.36 28.52a2.67 2.67 0 0 0-.43 3.74l1.53 1.93a11.27 11.27 0 0 0 6.76 4.07l4.22.79 1-5.28-3.69-.7a7.91 7.91 0 0 1-4.8-3L28.14 29a2.66 2.66 0 0 0-3.78-.47z"/><path class="cls-1" d="M15.75 40.71h4v2.22a1.13 1.13 0 0 1-1.13 1.13H12.4a3.34 3.34 0 0 1 3.35-3.35z" transform="rotate(22.68 16.07 42.37)"/><path class="cls-2" d="M24.85 27.8L21.8 30a15.8 15.8 0 0 0-4.95 6.29l-1.7 3.9 5 2.07 1.53-3.68a10.22 10.22 0 0 1 3.24-4.18l3.2-2.31a2.68 2.68 0 0 0 .53-3.76 2.7 2.7 0 0 0-3.8-.53z"/><path class="cls-3" d="M28.62 28.33a2.7 2.7 0 0 0-3.77-.53L21.8 30a15.45 15.45 0 0 0-2.43 2.28 63.47 63.47 0 0 0 9-.43 2.68 2.68 0 0 0 .25-3.52z"/><path class="cls-4" d="M24.85 27.8L21.8 30a15.8 15.8 0 0 0-4.95 6.29l-1.7 3.9 5 2.07 1.53-3.68a10.22 10.22 0 0 1 3.24-4.18l3.2-2.31a2.68 2.68 0 0 0 .53-3.76 2.7 2.7 0 0 0-3.8-.53z"/><path d="M18.93 17.92h.48a1.77 1.77 0 0 1 1.77 1.77v4.52h-4v-4.52a1.77 1.77 0 0 1 1.75-1.77z" transform="rotate(41.25 19.164 21.058)" fill="#e04122" stroke="#45413c" stroke-linecap="round" stroke-linejoin="round"/><ellipse cx="24.07" cy="46.48" rx="12.96" ry="1.69" fill="#45413c" opacity=".15"/><g><g><path class="cls-7" d="M28.59 26.42l-5.4 2.81a1.13 1.13 0 0 1-1.52-.48 16.93 16.93 0 0 1-2-4.86c-1.05-3.4-1.29-6.51.44-7.41a2.43 2.43 0 0 1 3.06.56l5.83 7.7a1.13 1.13 0 0 1-.41 1.68z"/></g><path class="cls-8" d="M21.88 29c-.25-.65-.53-1.43-.82-2.39-1-3.41-1.29-6.52.44-7.41a2.43 2.43 0 0 1 3.06.55l4.56 6a1.12 1.12 0 0 0-.12-1.01L23.13 17a2.43 2.43 0 0 0-3.06-.56c-1.73.9-1.49 4-.44 7.41a16.93 16.93 0 0 0 2 4.86 1.19 1.19 0 0 0 .25.29z"/><g><path class="cls-4" d="M28.59 26.42l-5.4 2.81a1.13 1.13 0 0 1-1.52-.48 16.93 16.93 0 0 1-2-4.86c-1.05-3.4-1.29-6.51.44-7.41a2.43 2.43 0 0 1 3.06.56l5.83 7.7a1.13 1.13 0 0 1-.41 1.68z"/></g></g><path class="cls-9" d="M9.29 21.1a1.72 1.72 0 0 0 .05 2.47l1.35 1.29a5.32 5.32 0 0 0 7.63-.35l-2.59-2.33a1.87 1.87 0 0 1-2.72.11l-1.28-1.22a1.72 1.72 0 0 0-2.44.03z"/><path class="cls-10" d="M15 26.24a5.27 5.27 0 0 0 3.3-1.73l-2.59-2.33a1.9 1.9 0 0 1-1.4.64z"/><path class="cls-4" d="M9.29 21.1a1.72 1.72 0 0 0 .05 2.47l1.35 1.29a5.32 5.32 0 0 0 7.63-.35l-2.59-2.33a1.87 1.87 0 0 1-2.72.11l-1.28-1.22a1.72 1.72 0 0 0-2.44.03z"/><path class="cls-7" d="M23.72 15.08a2.13 2.13 0 0 1 2.13 2.13v4.5h-4.26v-4.5a2.13 2.13 0 0 1 2.13-2.13z" transform="rotate(-56.4 23.717 18.396)"/><path class="cls-8" d="M23 18a2.13 2.13 0 0 1 3-.59l1.7 1.13v-.05L23.91 16a2.13 2.13 0 0 0-2.36 3.54l1.62 1.08A2.12 2.12 0 0 1 23 18z"/><path class="cls-4" d="M23.72 15.08a2.13 2.13 0 0 1 2.13 2.13v4.5h-4.26v-4.5a2.13 2.13 0 0 1 2.13-2.13z" transform="rotate(-56.4 23.717 18.396)"/><path class="cls-9" d="M28.53 29A1.73 1.73 0 0 1 27 27.05l.32-2.43a2.27 2.27 0 0 0-.9-2.12l-1-.73 1.93-3 .61.44a6.78 6.78 0 0 1 2.73 6.49l-.28 1.81A1.72 1.72 0 0 1 28.53 29z"/><path class="cls-10" d="M28 19.23l-.61-.44-1.93 3 1 .73a2.2 2.2 0 0 1 .63.76l1.43-3.6a5.4 5.4 0 0 0-.52-.45z"/><path class="cls-4" d="M28.53 29A1.73 1.73 0 0 1 27 27.05l.32-2.43a2.27 2.27 0 0 0-.9-2.12l-1-.73 1.93-3 .61.44a6.78 6.78 0 0 1 2.73 6.49l-.28 1.81A1.72 1.72 0 0 1 28.53 29z"/><circle cx="15.86" cy="10.16" r="5.66" fill="#ffcebf" stroke="#45413c" stroke-linecap="round" stroke-linejoin="round"/><path d="M18.47 4a7.11 7.11 0 0 0-5.14-.18 2.74 2.74 0 0 1-3.13-.52s-2.09 3.59.35 4.89C13.1 9.24 16.17 8 16.17 8l-.28 2s1.29-.74 2 .06.35 3-1.14 2.78a3 3 0 0 0 1.06 2.68A5.65 5.65 0 0 0 21.46 11c.45-3.12-.2-5.34-2.99-7z" fill="#a86c4d"/><g><path d="M9.87 6.36a.57.57 0 0 1 .35-.31.59.59 0 0 1 .47 0 3 3 0 0 0 2.64.16 7.11 7.11 0 0 1 5.14.18 5.59 5.59 0 0 1 3 4.16c.34-2.9-.37-5-3-6.56a7.11 7.11 0 0 0-5.14-.18 2.74 2.74 0 0 1-3.13-.51s-1.34 2.3-.62 3.88a8.55 8.55 0 0 1 .29-.82z" fill="#de926a"/></g><path class="cls-4" d="M18.47 4a7.11 7.11 0 0 0-5.14-.18 2.74 2.74 0 0 1-3.13-.52s-2.09 3.59.35 4.89C13.1 9.24 16.17 8 16.17 8l-.28 2s1.29-.74 2 .06.35 3-1.14 2.78a3 3 0 0 0 1.06 2.68A5.65 5.65 0 0 0 21.46 11c.45-3.12-.2-5.34-2.99-7z"/></svg>