<svg xmlns="http://www.w3.org/2000/svg" viewBox="0 0 48 48"><defs><style>.cls-1,.cls-10{fill:#656769}.cls-2{fill:#525252}.cls-3{fill:none}.cls-10,.cls-3,.cls-5{stroke:#45413c;stroke-linecap:round;stroke-linejoin:round}.cls-5{fill:#ffe500}</style></defs><ellipse class="cls-1" cx="21.44" cy="38.41" rx="1.58" ry="2.96"/><path class="cls-2" d="M21.44 35.45c-1.14 0-1.46.81-1.55 1.95.15 1.35.79 2.36 1.55 2.36s1.4-1 1.55-2.36c-.09-1.14-.4-1.95-1.55-1.95z"/><ellipse class="cls-3" cx="21.44" cy="38.41" rx="1.58" ry="2.96"/><ellipse class="cls-1" cx="26.55" cy="38.41" rx="1.58" ry="2.96"/><path class="cls-2" d="M26.55 35.45c-1.14 0-1.46.81-1.55 1.95.15 1.35.79 2.36 1.55 2.36s1.4-1 1.55-2.36c-.1-1.14-.4-1.95-1.55-1.95z"/><ellipse class="cls-3" cx="26.55" cy="38.41" rx="1.58" ry="2.96"/><ellipse cx="24" cy="45.5" rx="6.5" ry="1.5" fill="#45413c" opacity=".15"/><path class="cls-1" d="M19.93 26.16v10.71c0 .85.68 1 1.53 1s1.54-.19 1.54-1v-7.24a1 1 0 0 1 1-1 1 1 0 0 1 1 1v7.24c0 .85.69 1 1.54 1 .85 0 1.54-.19 1.54-1V26.16z"/><path class="cls-2" d="M19.93 26.16h-.01v2.31h8.15v-2.31h-8.14z"/><path class="cls-3" d="M19.93 26.16v10.71c0 .85.68 1 1.53 1s1.54-.19 1.54-1v-7.24a1 1 0 0 1 1-1 1 1 0 0 1 1 1v7.24c0 .85.69 1 1.54 1 .85 0 1.54-.19 1.54-1V26.16z"/><path class="cls-1" d="M24 15a6.73 6.73 0 0 0-6.73 6.73v2.84h2.65v1.59h8.16v-1.59h2.65v-2.84A6.73 6.73 0 0 0 24 15z"/><path class="cls-2" d="M24 15a6.73 6.73 0 0 0-6.73 6.73v2.84a6.73 6.73 0 0 1 13.46 0v-2.84A6.73 6.73 0 0 0 24 15z"/><path class="cls-3" d="M24 15a6.73 6.73 0 0 0-6.73 6.73v2.84h2.65v1.59h8.16v-1.59h2.65v-2.84A6.73 6.73 0 0 0 24 15z"/><path class="cls-3" d="M28.08 24.57v-5.54"/><path class="cls-3" d="M19.92 24.57v-5.54"/><path class="cls-5" d="M28.08 24.57h2.66V26a1.33 1.33 0 0 1-1.33 1.33A1.33 1.33 0 0 1 28.08 26v-1.43z"/><path class="cls-5" d="M18.6 24.57a1.33 1.33 0 0 1 1.33 1.33v1.42h-2.66V25.9a1.33 1.33 0 0 1 1.33-1.33z" transform="rotate(180 18.595 25.94)"/><path d="M28.17 17.39l-.53-1.32a6.73 6.73 0 0 0-7.28 0l-.53 1.32L22 18.91l-.83 1.44L24 23.44l2.84-3.09-.84-1.44z" fill="#bdbec0" stroke="#45413c" stroke-linecap="round" stroke-linejoin="round"/><path d="M24 15a6.74 6.74 0 0 0-2.3.4l2.3 8 2.3-8A6.74 6.74 0 0 0 24 15z" fill="#fff" stroke="#45413c" stroke-linecap="round" stroke-linejoin="round"/><path class="cls-3" d="M24 23.44v2.72"/><path fill="#ff6242" stroke="#45413c" stroke-linecap="round" stroke-linejoin="round" d="M24 15l-1.21 4.22L24 23.44l1.21-4.22L24 15z"/><path class="cls-1" d="M28 3c0-.64-1.53-1.66-4-1.66s-4 1-4 1.66l-.32 2A14.27 14.27 0 0 1 24 4.35a14.27 14.27 0 0 1 4.36.65z"/><path d="M24 2.75a6.29 6.29 0 0 1 4.23 1.4L28 3c0-.64-1.53-1.66-4-1.66s-4 1-4 1.66l-.19 1.17A6.29 6.29 0 0 1 24 2.75z" fill="#87898c"/><path class="cls-3" d="M28 3c0-.64-1.53-1.66-4-1.66s-4 1-4 1.66l-.32 2A14.27 14.27 0 0 1 24 4.35a14.27 14.27 0 0 1 4.36.65z"/><ellipse class="cls-10" cx="24" cy="7.67" rx="7.46" ry="3.33"/><path class="cls-5" d="M19.59 6.8a5 5 0 0 0-.25 1.54 4.66 4.66 0 1 0 9.32 0 5 5 0 0 0-.25-1.54A14.27 14.27 0 0 0 24 6.15a14.27 14.27 0 0 0-4.41.65z"/><path class="cls-10" d="M20.5 8h2.84v.58A1.42 1.42 0 0 1 21.92 10a1.42 1.42 0 0 1-1.42-1.42V8z"/><path class="cls-10" d="M26.08 8a1.42 1.42 0 0 1 1.42 1.42V10h-2.84v-.58A1.42 1.42 0 0 1 26.08 8z" transform="rotate(-180 26.08 9)"/><path class="cls-3" d="M23.34 8.5h1.32"/></svg>