<svg xmlns="http://www.w3.org/2000/svg" viewBox="0 0 48 48"><defs><style>.cls-3{fill:#adc4d9}</style></defs><g><ellipse cx="24" cy="45.35" rx="17.57" ry="1.65" fill="#45413c" opacity=".15"/><path d="M31.56 32.35l-4.8-1.57V29a10 10 0 0 0 7-8.07h.12a2 2 0 0 0 2-2.16 1.92 1.92 0 0 0-1.16-1.53V14a10.79 10.79 0 1 0-21.57 0v3.22a1.92 1.92 0 0 0-1.13 1.44 2 2 0 0 0 2 2.32h.13a9.94 9.94 0 0 0 7 8.07v1.78l-4.79 1.57a7.93 7.93 0 0 0-5.46 7.53V45H37v-5.12a7.93 7.93 0 0 0-5.44-7.53z" fill="#8ca4b8"/><path class="cls-3" d="M16.38 36.13l1.21-.4a5.2 5.2 0 0 0 3.58-4.95l-4.79 1.57a7.93 7.93 0 0 0-5.46 7.53v3.77a7.91 7.91 0 0 1 5.46-7.52z"/><path class="cls-3" d="M13.18 17.73a10.79 10.79 0 0 1 21.57 0V14a10.79 10.79 0 1 0-21.57 0v3.77z"/><path class="cls-3" d="M31.56 32.35l-4.8-1.57a5.21 5.21 0 0 0 3.59 4.95l1.21.4A7.91 7.91 0 0 1 37 43.65v-3.77a7.93 7.93 0 0 0-5.44-7.53z"/><path d="M31.56 32.35l-4.8-1.57V29a10 10 0 0 0 7-8.07h.12a2 2 0 0 0 2-2.16 1.92 1.92 0 0 0-1.16-1.53V14a10.79 10.79 0 1 0-21.57 0v3.22a1.92 1.92 0 0 0-1.13 1.44 2 2 0 0 0 2 2.32h.13a9.94 9.94 0 0 0 7 8.07v1.78l-4.79 1.57a7.93 7.93 0 0 0-5.46 7.53V45H37v-5.12a7.93 7.93 0 0 0-5.44-7.53z" fill="none" stroke="#45413c" stroke-linecap="round" stroke-linejoin="round"/></g></svg>