<svg xmlns="http://www.w3.org/2000/svg" viewBox="0 0 48 48"><defs><style>.cls-3{fill:#adc4d9}.cls-4{fill:#8ca4b8}.cls-5{fill:none;stroke:#45413c;stroke-linecap:round;stroke-linejoin:round}</style></defs><g><ellipse cx="24" cy="45.58" rx="22.63" ry="1.62" fill="#45413c" opacity=".15"/><path d="M40 34.74l-3.89-1.28V32a8.09 8.09 0 0 0 5.71-6.55H42a1.62 1.62 0 0 0 1.61-1.75 1.57 1.57 0 0 0-.94-1.24v-2.64a8.75 8.75 0 1 0-17.5 0v2.61a1.59 1.59 0 0 0 .67 3.05h.1A8.09 8.09 0 0 0 31.61 32v1.44l-3.89 1.28a6.42 6.42 0 0 0-4.42 6.11V45h21.16v-4.15A6.42 6.42 0 0 0 40 34.74z" fill="#627b8c"/><path class="cls-3" d="M27.72 37.8l1-.32a4.22 4.22 0 0 0 2.91-4l-3.89 1.28a6.42 6.42 0 0 0-4.42 6.11v3.06a6.43 6.43 0 0 1 4.4-6.13z"/><path class="cls-4" d="M25.13 22.88a8.75 8.75 0 1 1 17.5 0v-3.06a8.75 8.75 0 1 0-17.5 0v3.06z"/><path class="cls-4" d="M40 34.74l-3.89-1.28a4.22 4.22 0 0 0 2.91 4l1 .32a6.43 6.43 0 0 1 4.42 6.11v-3.04A6.42 6.42 0 0 0 40 34.74z"/><path class="cls-5" d="M40 34.74l-3.89-1.28V32a8.09 8.09 0 0 0 5.71-6.55H42a1.62 1.62 0 0 0 1.61-1.75 1.57 1.57 0 0 0-.94-1.24v-2.64a8.75 8.75 0 1 0-17.5 0v2.61a1.59 1.59 0 0 0 .67 3.05h.1A8.09 8.09 0 0 0 31.61 32v1.44l-3.89 1.28a6.42 6.42 0 0 0-4.42 6.11V45h21.16v-4.15A6.42 6.42 0 0 0 40 34.74z"/><path class="cls-4" d="M23 32.54L18.28 31v-1.76a9.82 9.82 0 0 0 6.94-7.95h.12a2 2 0 0 0 1.95-2.13 1.91 1.91 0 0 0-1.14-1.51v-3.23a10.63 10.63 0 0 0-21.25 0v3.17A1.92 1.92 0 0 0 3.79 19a2 2 0 0 0 1.93 2.3h.12a9.82 9.82 0 0 0 6.94 8V31l-4.73 1.54A7.81 7.81 0 0 0 2.68 40v5h25.7v-5A7.8 7.8 0 0 0 23 32.54z"/><path class="cls-3" d="M8.05 36.26l1.19-.39A5.14 5.14 0 0 0 12.78 31l-4.73 1.54A7.81 7.81 0 0 0 2.68 40v3.71a7.8 7.8 0 0 1 5.37-7.45z"/><path class="cls-3" d="M4.9 18.14a10.63 10.63 0 1 1 21.25 0v-3.72a10.63 10.63 0 0 0-21.25 0v3.72z"/><path class="cls-3" d="M23 32.54L18.28 31a5.14 5.14 0 0 0 3.54 4.88l1.18.39a7.8 7.8 0 0 1 5.38 7.41V40A7.8 7.8 0 0 0 23 32.54z"/><path class="cls-5" d="M23 32.54L18.28 31v-1.76a9.82 9.82 0 0 0 6.94-7.95h.12a2 2 0 0 0 1.95-2.13 1.91 1.91 0 0 0-1.14-1.51v-3.23a10.63 10.63 0 0 0-21.25 0v3.17A1.92 1.92 0 0 0 3.79 19a2 2 0 0 0 1.93 2.3h.12a9.82 9.82 0 0 0 6.94 8V31l-4.73 1.54A7.81 7.81 0 0 0 2.68 40v5h25.7v-5A7.8 7.8 0 0 0 23 32.54z"/></g></svg>