<svg xmlns="http://www.w3.org/2000/svg" viewBox="0 0 48 48"><defs><style>.cls-6{fill:#45413c}.cls-2{fill:#ffe500}.cls-2,.cls-5,.cls-8{stroke:#45413c;stroke-linecap:round;stroke-linejoin:round}.cls-3{fill:#724f3d}.cls-4{fill:#a86c4d}.cls-5{fill:none}.cls-8{fill:#656769}.cls-9{fill:#00b8f0}</style></defs><ellipse cx="24" cy="45.5" rx="16.5" ry="1.5" opacity=".15" fill="#45413c"/><circle class="cls-2" cx="14.8" cy="15.1" r="4.66"/><path class="cls-3" d="M14.8 9.15a29.57 29.57 0 0 0-4.92.45l1.26 1.32a4.64 4.64 0 0 0-1 2.89v1.51a3.89 3.89 0 0 0 1.92-2.63.65.65 0 0 1 .25-.41 5.09 5.09 0 0 0 2.49.58 5.09 5.09 0 0 0 2.49-.58.65.65 0 0 1 .25.41 3.86 3.86 0 0 0 1.92 2.63v-1.51a4.66 4.66 0 0 0-4.66-4.66z"/><g><path class="cls-4" d="M14.8 9.15a29.57 29.57 0 0 0-4.92.45l1.26 1.32-.14.18a28.3 28.3 0 0 1 3.8-.28 4.67 4.67 0 0 1 4.66 4.5v-1.51a4.66 4.66 0 0 0-4.66-4.66z"/></g><path class="cls-5" d="M19.46 13.81a4.66 4.66 0 0 0-4.66-4.66 29.57 29.57 0 0 0-4.92.45l1.26 1.32a4.64 4.64 0 0 0-1 2.89v1.51a3.89 3.89 0 0 0 1.92-2.63.65.65 0 0 1 .25-.41 5.09 5.09 0 0 0 2.49.58 5.09 5.09 0 0 0 2.49-.58.65.65 0 0 1 .25.41 3.86 3.86 0 0 0 1.92 2.63z"/><circle class="cls-6" cx="12.96" cy="15.79" r=".66"/><circle class="cls-6" cx="16.64" cy="15.79" r=".66"/><path class="cls-3" d="M10.73 32.75V45h3.07v-8.78a1 1 0 0 1 1-1 1 1 0 0 1 1 1V45h3.07V32.75z"/><path fill="#915e3a" d="M10.73 32.75v2.31h8.14v-2.31h-8.14z"/><path class="cls-5" d="M10.73 32.75V45h3.07v-8.78a1 1 0 0 1 1-1 1 1 0 0 1 1 1V45h3.07V32.75z"/><path class="cls-8" d="M14.44 44.4a.5.5 0 0 1-.44.6h-3.39a.5.5 0 0 1-.49-.6v-.21a2.16 2.16 0 0 1 2.12-1.74 2.14 2.14 0 0 1 2.11 1.74z"/><path class="cls-8" d="M19 45h-3.33a.49.49 0 0 1-.49-.6v-.21a2.15 2.15 0 0 1 2.11-1.74 2.16 2.16 0 0 1 2.12 1.74v.21a.5.5 0 0 1-.41.6z"/><path class="cls-2" d="M24.21 30.71a7.27 7.27 0 0 1-2.32-2.93h-2.83a8.8 8.8 0 0 0 3.38 5.27 1.47 1.47 0 1 0 1.77-2.34z"/><path class="cls-2" d="M8.07 27.78v5.55a1.38 1.38 0 0 0 1.33 1.42 1.38 1.38 0 0 0 1.33-1.42v-5.55z"/><g><path class="cls-9" d="M21.27 25c0-2.16-2-3.4-4.15-3.4h-4.9c-2.15 0-4.15 1.24-4.15 3.4v2.79h2.66v5h8.14v-5h3a7.39 7.39 0 0 1-.6-2.79z"/></g><path d="M12.22 23.59h5.4a4.34 4.34 0 0 1 3.67 1.73v-.33c0-2.16-2-3.4-4.15-3.4h-4.9c-2.15 0-4.15 1.24-4.15 3.4v2c-.02-2.15 1.98-3.4 4.13-3.4z" fill="#4acfff"/><g><path class="cls-5" d="M21.27 25c0-2.16-2-3.4-4.15-3.4h-4.9c-2.15 0-4.15 1.24-4.15 3.4v2.79h2.66v5h8.14v-5h3a7.39 7.39 0 0 1-.6-2.79z"/></g><path class="cls-5" d="M10.73 27.78v-2.16"/><path class="cls-5" d="M18.87 27.78v-2.16"/><path class="cls-2" d="M14.8 23.62a2 2 0 0 0 2-2h-4.03a2 2 0 0 0 2.03 2z"/><circle class="cls-2" cx="33.2" cy="15.1" r="4.66"/><path class="cls-3" d="M33.2 9.15a29.57 29.57 0 0 0-4.92.45l1.26 1.32a4.64 4.64 0 0 0-1 2.89v1.51a3.86 3.86 0 0 0 1.92-2.63.65.65 0 0 1 .25-.41 5.63 5.63 0 0 0 5 0 .65.65 0 0 1 .25.41 3.86 3.86 0 0 0 1.92 2.63v-1.51a4.66 4.66 0 0 0-4.68-4.66z"/><g><path class="cls-4" d="M33.2 9.15a29.57 29.57 0 0 0-4.92.45l1.26 1.32-.14.18a28.3 28.3 0 0 1 3.8-.28 4.67 4.67 0 0 1 4.66 4.5v-1.51a4.66 4.66 0 0 0-4.66-4.66z"/></g><path class="cls-5" d="M37.86 13.81a4.66 4.66 0 0 0-4.66-4.66 29.57 29.57 0 0 0-4.92.45l1.26 1.32a4.64 4.64 0 0 0-1 2.89v1.51a3.86 3.86 0 0 0 1.92-2.63.65.65 0 0 1 .25-.41 5.63 5.63 0 0 0 5 0 .65.65 0 0 1 .25.41 3.86 3.86 0 0 0 1.92 2.63z"/><circle class="cls-6" cx="31.36" cy="15.79" r=".66"/><circle class="cls-6" cx="35.04" cy="15.79" r=".66"/><path class="cls-9" d="M37.27 32.75V45H34.2v-8.78a1 1 0 0 0-1-1 1 1 0 0 0-1 1V45h-3.07V32.75z"/><path fill="#009fd9" d="M37.27 32.75v2.31h-8.14v-2.31h8.14z"/><path class="cls-5" d="M37.27 32.75V45H34.2v-8.78a1 1 0 0 0-1-1 1 1 0 0 0-1 1V45h-3.07V32.75z"/><path class="cls-8" d="M33.56 44.4a.5.5 0 0 0 .49.6h3.34a.5.5 0 0 0 .49-.6v-.21a2.16 2.16 0 0 0-2.12-1.74 2.14 2.14 0 0 0-2.11 1.74z"/><path class="cls-8" d="M29 45h3.33a.49.49 0 0 0 .49-.6v-.21a2.15 2.15 0 0 0-2.11-1.74 2.16 2.16 0 0 0-2.12 1.74v.21a.5.5 0 0 0 .41.6z"/><path class="cls-2" d="M23.79 30.71a7.27 7.27 0 0 0 2.32-2.93h2.83a8.8 8.8 0 0 1-3.38 5.27 1.47 1.47 0 1 1-1.77-2.34z"/><path class="cls-2" d="M39.93 27.78v5.55a1.38 1.38 0 0 1-1.33 1.42 1.38 1.38 0 0 1-1.33-1.42v-5.55z"/><g><path d="M26.73 25c0-2.16 2-3.4 4.15-3.4h4.9c2.15 0 4.15 1.24 4.15 3.4v2.79h-2.66v5h-8.14v-5h-3a7.39 7.39 0 0 0 .6-2.79z" fill="#ff8a14"/></g><path d="M35.78 23.59h-5.4a4.34 4.34 0 0 0-3.67 1.73v-.33c0-2.16 2-3.4 4.15-3.4h4.9c2.15 0 4.15 1.24 4.15 3.4v2c.02-2.15-1.98-3.4-4.13-3.4z" fill="#ffaa54"/><g><path class="cls-5" d="M26.73 25c0-2.16 2-3.4 4.15-3.4h4.9c2.15 0 4.15 1.24 4.15 3.4v2.79h-2.66v5h-8.14v-5h-3a7.39 7.39 0 0 0 .6-2.79z"/></g><path class="cls-5" d="M37.27 27.78v-2.16"/><path class="cls-5" d="M29.13 27.78v-2.16"/><path class="cls-2" d="M33.2 23.62a2 2 0 0 1-2-2h4.06a2 2 0 0 1-2.06 2z"/></svg>