<svg xmlns="http://www.w3.org/2000/svg" viewBox="0 0 48 48"><defs><style>.cls-9{fill:#45413c}.cls-2,.cls-3{fill:#ffcebf}.cls-2,.cls-5,.cls-6{stroke:#45413c;stroke-linecap:round;stroke-linejoin:round}.cls-4{fill:#ffb59e}.cls-5{fill:none}.cls-6{fill:#656769}.cls-7{fill:#a86c4d}.cls-8{fill:#de926a}</style></defs><ellipse cx="24" cy="45.5" rx="16.5" ry="1.5" opacity=".15" fill="#45413c"/><path class="cls-2" d="M10.94 24.68a31.77 31.77 0 0 0-1.12 8.37 1.33 1.33 0 1 0 2.65 0v-8.37z"/><path class="cls-3" d="M12.95 31.75h3.09V45h-3.09z"/><path class="cls-4" d="M12.95 31.75h3.09v7.6h-3.09z"/><path class="cls-5" d="M12.95 31.75h3.09V45h-3.09z"/><path class="cls-3" d="M16.04 31.75h3.09V45h-3.09z"/><path class="cls-4" d="M16.04 31.75h3.09v7.6h-3.09z"/><path class="cls-5" d="M16.04 31.75h3.09V45h-3.09z"/><path class="cls-6" d="M19.7 44.19a2.16 2.16 0 0 0-2.12-1.74 2.11 2.11 0 0 0-1.58.65 2.16 2.16 0 0 0-3.66 1.09c-.12.58.11.81.45.81h6.42c.38 0 .6-.23.49-.81z"/><path class="cls-7" d="M21.17 21.39a1 1 0 0 1-1 1H12a1 1 0 0 1-1-1v-7.25a5.1 5.1 0 0 1 10.2 0z"/><path class="cls-8" d="M16.07 9.05A5.09 5.09 0 0 0 11 14.14v1.76a5.1 5.1 0 0 1 10.2 0v-1.76a5.1 5.1 0 0 0-5.13-5.09z"/><path class="cls-5" d="M21.17 21.39a1 1 0 0 1-1 1H12a1 1 0 0 1-1-1v-7.25a5.1 5.1 0 0 1 10.2 0z"/><path class="cls-2" d="M18.19 10.8l-.73.85A9.87 9.87 0 0 1 11.34 15a4.73 4.73 0 1 0 9.46 0 4.52 4.52 0 0 0-.06-.53 2.62 2.62 0 0 1-2.18-2z"/><circle class="cls-9" cx="14.23" cy="15.74" r=".66"/><circle class="cls-9" cx="17.91" cy="15.74" r=".66"/><path class="cls-2" d="M21.14 24.68v.44a7.29 7.29 0 0 0 3.06 5.51A1.47 1.47 0 1 1 22.5 33a8.83 8.83 0 0 1-3.73-7z"/><path d="M12.48 31.24v-2.71a5.36 5.36 0 0 0-1.54-3.85A5.13 5.13 0 0 1 16 21.43a5.13 5.13 0 0 1 5.1 3.25 5.36 5.36 0 0 0-1.54 3.85v2.71c0 1.74.63 3.11.83 5a1 1 0 0 1-1 1.1h-6.74a1 1 0 0 1-1-1.1c.2-1.89.83-3.24.83-5z" fill="#ff6242"/><path d="M16 23.6a5.25 5.25 0 0 0-4.38 2 4.45 4.45 0 0 0-.72-.9 5.13 5.13 0 0 1 5.1-3.27 5.13 5.13 0 0 1 5.1 3.25 4.45 4.45 0 0 0-.72.9A5.25 5.25 0 0 0 16 23.6z" fill="#ff866e"/><path class="cls-5" d="M12.48 31.24v-2.71a5.36 5.36 0 0 0-1.54-3.85A5.13 5.13 0 0 1 16 21.43a5.13 5.13 0 0 1 5.1 3.25 5.36 5.36 0 0 0-1.54 3.85v2.71c0 1.74.63 3.11.83 5a1 1 0 0 1-1 1.1h-6.74a1 1 0 0 1-1-1.1c.2-1.89.83-3.24.83-5z"/><path fill="#e04122" stroke="#45413c" stroke-linecap="round" stroke-linejoin="round" d="M12.47 29.15h7.13v2.17h-7.13z"/><path class="cls-5" d="M16.04 43.1V45"/><path class="cls-5" d="M17.83 37.38l-.25-2.34"/><path class="cls-5" d="M14.24 37.38l.25-2.34"/><path class="cls-2" d="M16 21.43a6.72 6.72 0 0 1 1.82.24A2.13 2.13 0 0 1 16 23.85a2.12 2.12 0 0 1-1.82-2.18 6.62 6.62 0 0 1 1.82-.24z"/><path class="cls-2" d="M37.06 24.68a31.77 31.77 0 0 1 1.12 8.37 1.33 1.33 0 1 1-2.65 0v-8.37z"/><path class="cls-3" transform="rotate(-180 33.505 38.375)" d="M31.96 31.75h3.09V45h-3.09z"/><path class="cls-4" transform="rotate(-180 33.505 35.55)" d="M31.96 31.75h3.09v7.6h-3.09z"/><path class="cls-5" transform="rotate(-180 33.505 38.375)" d="M31.96 31.75h3.09V45h-3.09z"/><path class="cls-3" transform="rotate(-180 30.42 38.375)" d="M28.87 31.75h3.09V45h-3.09z"/><path class="cls-4" transform="rotate(-180 30.42 35.55)" d="M28.87 31.75h3.09v7.6h-3.09z"/><path class="cls-5" transform="rotate(-180 30.42 38.375)" d="M28.87 31.75h3.09V45h-3.09z"/><path class="cls-6" d="M35.62 44.19A2.16 2.16 0 0 0 32 43.1a2.11 2.11 0 0 0-1.54-.65 2.16 2.16 0 0 0-2.12 1.74c-.11.58.11.81.45.81h6.42c.3 0 .53-.23.41-.81z"/><path class="cls-7" d="M37 21.39a1 1 0 0 1-1 1h-8.2a1 1 0 0 1-1-1v-7.25a5.1 5.1 0 0 1 10.2 0z"/><path class="cls-8" d="M31.93 9.05a5.1 5.1 0 0 0-5.1 5.09v1.76a5.1 5.1 0 0 1 10.2 0v-1.76a5.09 5.09 0 0 0-5.1-5.09z"/><path class="cls-5" d="M37 21.39a1 1 0 0 1-1 1h-8.2a1 1 0 0 1-1-1v-7.25a5.1 5.1 0 0 1 10.2 0z"/><path class="cls-2" d="M34.05 10.8l-.73.85A9.85 9.85 0 0 1 27.2 15a4.73 4.73 0 1 0 9.46 0 4.52 4.52 0 0 0-.06-.53 2.62 2.62 0 0 1-2.18-2z"/><circle class="cls-9" cx="30.09" cy="15.74" r=".66"/><circle class="cls-9" cx="33.77" cy="15.74" r=".66"/><path class="cls-2" d="M26.86 24.68v.44a7.29 7.29 0 0 1-3.06 5.51A1.47 1.47 0 1 0 25.5 33a8.83 8.83 0 0 0 3.73-7z"/><path d="M35.52 31.24v-2.71a5.36 5.36 0 0 1 1.54-3.85A5.13 5.13 0 0 0 32 21.43a5.13 5.13 0 0 0-5.1 3.25 5.36 5.36 0 0 1 1.54 3.85v2.71c0 1.74-.63 3.11-.83 5a1 1 0 0 0 1 1.1h6.78a1 1 0 0 0 1-1.1c-.24-1.89-.87-3.24-.87-5z" fill="#ff87af"/><path d="M32 23.6a5.25 5.25 0 0 1 4.38 2 4.45 4.45 0 0 1 .72-.9 5.13 5.13 0 0 0-5.1-3.27 5.13 5.13 0 0 0-5.1 3.25 4.45 4.45 0 0 1 .72.9A5.25 5.25 0 0 1 32 23.6z" fill="#ffb0ca"/><path class="cls-5" d="M35.52 31.24v-2.71a5.36 5.36 0 0 1 1.54-3.85A5.13 5.13 0 0 0 32 21.43a5.13 5.13 0 0 0-5.1 3.25 5.36 5.36 0 0 1 1.54 3.85v2.71c0 1.74-.63 3.11-.83 5a1 1 0 0 0 1 1.1h6.78a1 1 0 0 0 1-1.1c-.24-1.89-.87-3.24-.87-5z"/><path transform="rotate(-180 31.96 30.235)" fill="#ff6242" stroke="#45413c" stroke-linecap="round" stroke-linejoin="round" d="M28.4 29.15h7.13v2.17H28.4z"/><path class="cls-5" d="M31.96 43.1V45"/><path class="cls-5" d="M30.17 37.38l.25-2.34"/><path class="cls-5" d="M33.76 37.38l-.25-2.34"/><path class="cls-2" d="M32 21.43a6.72 6.72 0 0 0-1.82.24A2.13 2.13 0 0 0 32 23.85a2.12 2.12 0 0 0 1.82-2.18 6.62 6.62 0 0 0-1.82-.24z"/></svg>