<svg xmlns="http://www.w3.org/2000/svg" viewBox="0 0 48 48"><defs><style>.cls-1{fill:#a86c4d}.cls-2{fill:#de926a}.cls-3{fill:none}.cls-3,.cls-6,.cls-7{stroke:#45413c;stroke-linecap:round;stroke-linejoin:round}.cls-13,.cls-6{fill:#ffcebf}.cls-7{fill:#45413c}.cls-8{fill:#ff6242}.cls-9{fill:#ffa694}.cls-10{fill:#ffb59e}</style></defs><path class="cls-1" d="M35.75 1a10.76 10.76 0 0 1 10.76 10.76v14a1.2 1.2 0 0 1-.76 1.12 26.81 26.81 0 0 1-20 0A1.2 1.2 0 0 1 25 25.8v-14A10.76 10.76 0 0 1 35.75 1z"/><path class="cls-2" d="M35.75 1A10.76 10.76 0 0 0 25 11.76v3.17A10.76 10.76 0 0 1 35.75 4.17a10.76 10.76 0 0 1 10.76 10.76v-3.17A10.76 10.76 0 0 0 35.75 1z"/><path class="cls-3" d="M35.75 1a10.76 10.76 0 0 1 10.76 10.76v14a1.2 1.2 0 0 1-.76 1.12 26.81 26.81 0 0 1-20 0A1.2 1.2 0 0 1 25 25.8v-14A10.76 10.76 0 0 1 35.75 1z"/><path d="M35.75 25.63A11.75 11.75 0 0 1 47.5 37.38v10.27H24V37.38a11.75 11.75 0 0 1 11.75-11.75z" fill="#ff87af"/><path d="M35.75 25.63A11.75 11.75 0 0 0 24 37.38V41a11.75 11.75 0 0 1 23.5 0v-3.62a11.75 11.75 0 0 0-11.75-11.75z" fill="#ff6196"/><path class="cls-3" d="M35.75 25.63A11.75 11.75 0 0 1 47.5 37.38v10.27H24V37.38a11.75 11.75 0 0 1 11.75-11.75z"/><rect class="cls-6" x="33.23" y="21.63" width="5.03" height="7.85" rx="2.52" ry="2.52"/><g><path class="cls-6" d="M44.72 14a8.67 8.67 0 0 1-5.62-5l-.61-1.47a15.71 15.71 0 0 1-9.84 6.11l-1.87.36a1.8 1.8 0 0 0 0 3.59h.11a9 9 0 0 0 17.72 0h.11a1.8 1.8 0 0 0 0-3.59z"/></g><path class="cls-7" d="M30.37 15.44a.77.77 0 0 0 .77.76.76.76 0 0 0 .76-.76.77.77 0 0 0-.76-.77.78.78 0 0 0-.77.77z"/><path class="cls-7" d="M41.13 15.44a.77.77 0 0 1-.77.76.76.76 0 0 1-.76-.76.77.77 0 0 1 .76-.77.78.78 0 0 1 .77.77z"/><g><g><path class="cls-8" d="M32.94 20.08a.48.48 0 0 0-.33.15.45.45 0 0 0-.1.35 3.29 3.29 0 0 0 6.48 0 .45.45 0 0 0-.1-.35.48.48 0 0 0-.33-.15z"/></g><path class="cls-9" d="M35.75 23.32a3.26 3.26 0 0 0 2.3-.93 3.34 3.34 0 0 0-4.6 0 3.26 3.26 0 0 0 2.3.93z"/></g><g><path class="cls-3" d="M32.94 20.08a.48.48 0 0 0-.33.15.45.45 0 0 0-.1.35 3.29 3.29 0 0 0 6.48 0 .45.45 0 0 0-.1-.35.48.48 0 0 0-.33-.15z"/></g><path class="cls-3" d="M42.62 47.65V36.88"/><ellipse class="cls-10" cx="29.87" cy="18.69" rx=".99" ry=".59"/><ellipse class="cls-10" cx="41.63" cy="18.69" rx=".99" ry=".59"/><path class="cls-1" d="M12.25 1.59a9.72 9.72 0 0 0-2.42.3C8 2.31 5.61 3 3.44 2.59a4.13 4.13 0 0 0 .83 3.18 9.61 9.61 0 0 0-1.74 5.53v5.09H22V11.3a9.72 9.72 0 0 0-9.75-9.71z"/><g><path class="cls-2" d="M12.25 1.59a9.72 9.72 0 0 0-2.42.3C8 2.31 5.61 3 3.44 2.59a4.4 4.4 0 0 0 .67 3 18.93 18.93 0 0 0 5.72-.79A9.74 9.74 0 0 1 22 14.19V11.3a9.72 9.72 0 0 0-9.75-9.71z"/></g><path class="cls-3" d="M12.25 1.59a9.72 9.72 0 0 0-2.42.3C8 2.31 5.61 3 3.44 2.59a4.13 4.13 0 0 0 .83 3.18 9.61 9.61 0 0 0-1.74 5.53v5.09H22V11.3a9.72 9.72 0 0 0-9.75-9.71z"/><path d="M12.25 25.63A11.75 11.75 0 0 1 24 37.38v10.27H.5V37.38a11.75 11.75 0 0 1 11.75-11.75z" fill="#00b8f0"/><path d="M12.25 25.63A11.75 11.75 0 0 0 .5 37.38V41A11.75 11.75 0 0 1 24 41v-3.62a11.75 11.75 0 0 0-11.75-11.75z" fill="#009fd9"/><path class="cls-3" d="M12.25 25.63A11.75 11.75 0 0 1 24 37.38v10.27H.5V37.38a11.75 11.75 0 0 1 11.75-11.75z"/><rect class="cls-13" x="9.73" y="21.63" width="5.03" height="7.85" rx="2.52" ry="2.52"/><rect class="cls-10" x="9.73" y="21.63" width="5.03" height="5.82" rx="2.52" ry="2.52"/><rect class="cls-3" x="9.73" y="21.63" width="5.03" height="7.85" rx="2.52" ry="2.52"/><path class="cls-6" d="M23 15.5a1.86 1.86 0 0 0-1.87-1.5 1.58 1.58 0 0 1-1.58-1.58V10a1.85 1.85 0 0 0-1.38-1.78 15.21 15.21 0 0 1-5.92 1.07 15.21 15.21 0 0 1-5.92-1.11A1.85 1.85 0 0 0 5 10v2.47A1.58 1.58 0 0 1 3.37 14a1.86 1.86 0 0 0-1.86 1.5 1.8 1.8 0 0 0 1.77 2.1h.11a9 9 0 0 0 17.72 0h.11A1.8 1.8 0 0 0 23 15.5z"/><path class="cls-7" d="M6.87 15.44a.77.77 0 0 0 .77.76.76.76 0 0 0 .76-.76.77.77 0 0 0-.76-.77.78.78 0 0 0-.77.77z"/><path class="cls-7" d="M17.63 15.44a.77.77 0 0 1-.77.76.76.76 0 0 1-.76-.76.77.77 0 0 1 .76-.77.78.78 0 0 1 .77.77z"/><g><g><path class="cls-8" d="M9.44 20.08a.48.48 0 0 0-.33.15.45.45 0 0 0-.1.35 3.29 3.29 0 0 0 6.48 0 .45.45 0 0 0-.1-.35.48.48 0 0 0-.33-.15z"/></g><path class="cls-9" d="M12.25 23.32a3.26 3.26 0 0 0 2.3-.93 3.34 3.34 0 0 0-4.6 0 3.26 3.26 0 0 0 2.3.93z"/></g><g><path class="cls-3" d="M9.44 20.08a.48.48 0 0 0-.33.15.45.45 0 0 0-.1.35 3.29 3.29 0 0 0 6.48 0 .45.45 0 0 0-.1-.35.48.48 0 0 0-.33-.15z"/></g><path class="cls-3" d="M5.38 47.65V36.88"/><ellipse class="cls-10" cx="6.37" cy="18.69" rx=".99" ry=".59"/><ellipse class="cls-10" cx="18.13" cy="18.69" rx=".99" ry=".59"/><path d="M32.81 47.65a9.42 9.42 0 0 0-17.62 0z" fill="#00f5bc"/><path d="M24 44.32a9.4 9.4 0 0 1 7.19 3.33h1.62a9.42 9.42 0 0 0-17.62 0h1.62A9.4 9.4 0 0 1 24 44.32z" fill="#00dba8"/><path class="cls-3" d="M32.81 47.65a9.42 9.42 0 0 0-17.62 0z"/><rect class="cls-13" x="22.14" y="38.37" width="3.72" height="6.4" rx="1.86" ry="1.86"/><rect class="cls-10" x="22.14" y="38.37" width="3.72" height="4.64" rx="1.86" ry="1.86"/><rect class="cls-3" x="22.14" y="38.37" width="3.72" height="6.4" rx="1.86" ry="1.86"/><path class="cls-1" d="M24 23.92a7.58 7.58 0 0 0-1.8.22 11.93 11.93 0 0 1-4.78.52A3.09 3.09 0 0 0 18 27a7.19 7.19 0 0 0-1.3 4.14V35h14.56v-3.8A7.26 7.26 0 0 0 24 23.92z"/><path class="cls-2" d="M24 23.92a7.58 7.58 0 0 0-1.8.22 11.93 11.93 0 0 1-4.78.52A3.12 3.12 0 0 0 18 27a14.55 14.55 0 0 0 4.18-.6 7.58 7.58 0 0 1 1.82-.2 7.26 7.26 0 0 1 7.26 7.26v-2.28A7.26 7.26 0 0 0 24 23.92z"/><path class="cls-3" d="M24 23.92a7.58 7.58 0 0 0-1.8.22 11.93 11.93 0 0 1-4.78.52A3.09 3.09 0 0 0 18 27a7.19 7.19 0 0 0-1.3 4.14V35h14.56v-3.8A7.26 7.26 0 0 0 24 23.92z"/><path class="cls-6" d="M17 33.28a1.31 1.31 0 0 0 .3 2.6h.08a6.69 6.69 0 0 0 13.24 0h.08a1.31 1.31 0 0 0 .3-2.6c-3-.59-4.64-3.76-4.68-3.83-.05.08-2.49 3.91-9.32 3.83z"/><path class="cls-7" d="M20.48 34.8a.5.5 0 0 0 .5.5.5.5 0 0 0 .5-.5.5.5 0 0 0-.5-.5.51.51 0 0 0-.5.5z"/><path class="cls-7" d="M27.52 34.8a.5.5 0 0 1-.5.5.5.5 0 0 1-.5-.5.5.5 0 0 1 .5-.5.51.51 0 0 1 .5.5z"/><ellipse class="cls-10" cx="19.65" cy="36.93" rx=".65" ry=".39"/><ellipse class="cls-10" cx="28.35" cy="36.93" rx=".65" ry=".39"/><path class="cls-3" d="M22.31 38.78a2.34 2.34 0 0 0 1.69.54 2.34 2.34 0 0 0 1.69-.54"/></svg>