<svg xmlns="http://www.w3.org/2000/svg" viewBox="0 0 48 48"><defs><style>.cls-1{fill:#a86c4d}.cls-2{fill:#de926a}.cls-3{fill:none}.cls-3,.cls-8,.cls-9{stroke:#45413c;stroke-linecap:round;stroke-linejoin:round}.cls-6,.cls-8{fill:#ffcebf}.cls-7{fill:#ffb59e}.cls-9{fill:#45413c}.cls-10{fill:#ff6242}.cls-11{fill:#ffa694}</style></defs><path class="cls-1" d="M12.25 1.44a10.22 10.22 0 0 0-2.42.3c-1.83.42-4.22 1.12-6.39.7a4.13 4.13 0 0 0 .83 3.18 9.62 9.62 0 0 0-1.74 5.54v5.08H22v-5.08a9.72 9.72 0 0 0-9.75-9.72z"/><g><path class="cls-2" d="M12.25 1.44a10.22 10.22 0 0 0-2.42.3c-1.83.42-4.22 1.12-6.39.7a4.38 4.38 0 0 0 .67 3 18.62 18.62 0 0 0 5.72-.79 10.22 10.22 0 0 1 2.42-.3 9.72 9.72 0 0 1 9.75 9.7v-2.89a9.72 9.72 0 0 0-9.75-9.72z"/></g><path class="cls-3" d="M12.25 1.44a10.22 10.22 0 0 0-2.42.3c-1.83.42-4.22 1.12-6.39.7a4.13 4.13 0 0 0 .83 3.18 9.62 9.62 0 0 0-1.74 5.54v5.08H22v-5.08a9.72 9.72 0 0 0-9.75-9.72z"/><path d="M12.25 25.49A11.75 11.75 0 0 1 24 37.24V47.5H.5V37.24a11.75 11.75 0 0 1 11.75-11.75z" fill="#00b8f0"/><path d="M12.25 25.49A11.75 11.75 0 0 0 .5 37.24v3.59a11.75 11.75 0 0 1 23.5 0v-3.59a11.75 11.75 0 0 0-11.75-11.75z" fill="#009fd9"/><path class="cls-3" d="M12.25 25.49A11.75 11.75 0 0 1 24 37.24V47.5H.5V37.24a11.75 11.75 0 0 1 11.75-11.75z"/><rect class="cls-6" x="9.73" y="21.48" width="5.03" height="7.85" rx="2.52" ry="2.52"/><rect class="cls-7" x="9.73" y="21.48" width="5.03" height="5.82" rx="2.52" ry="2.52"/><rect class="cls-3" x="9.73" y="21.48" width="5.03" height="7.85" rx="2.52" ry="2.52"/><path class="cls-8" d="M23 15.36a1.86 1.86 0 0 0-1.86-1.5 1.58 1.58 0 0 1-1.58-1.58V9.82A1.86 1.86 0 0 0 18.17 8a15.2 15.2 0 0 1-5.92 1.08A15.2 15.2 0 0 1 6.33 8 1.86 1.86 0 0 0 5 9.82v2.46a1.58 1.58 0 0 1-1.58 1.58 1.86 1.86 0 0 0-1.86 1.5 1.79 1.79 0 0 0 1.77 2.09h.11a9 9 0 0 0 17.72 0h.11A1.79 1.79 0 0 0 23 15.36z"/><path class="cls-9" d="M6.87 15.29a.77.77 0 0 0 .77.76.76.76 0 1 0 0-1.52.77.77 0 0 0-.77.76z"/><path class="cls-9" d="M17.63 15.29a.77.77 0 0 1-.77.76.76.76 0 1 1 0-1.52.77.77 0 0 1 .77.76z"/><g><g><path class="cls-10" d="M9.44 19.93a.45.45 0 0 0-.33.16.43.43 0 0 0-.1.35 3.29 3.29 0 0 0 6.48 0 .43.43 0 0 0-.1-.35.45.45 0 0 0-.33-.16z"/></g><path class="cls-11" d="M12.25 23.18a3.3 3.3 0 0 0 2.3-.93 3.31 3.31 0 0 0-4.6 0 3.3 3.3 0 0 0 2.3.93z"/></g><g><path class="cls-3" d="M9.44 19.93a.45.45 0 0 0-.33.16.43.43 0 0 0-.1.35 3.29 3.29 0 0 0 6.48 0 .43.43 0 0 0-.1-.35.45.45 0 0 0-.33-.16z"/></g><path class="cls-3" d="M5.38 47.5V36.73"/><ellipse class="cls-7" cx="6.37" cy="18.54" rx=".99" ry=".59"/><ellipse class="cls-7" cx="18.13" cy="18.54" rx=".99" ry=".59"/><path class="cls-1" d="M45.47 11.16v5.08H26v-5.08a9.72 9.72 0 0 1 19.44 0z"/><path class="cls-2" d="M35.75 1.44A9.72 9.72 0 0 0 26 11.16v2.89a9.72 9.72 0 0 1 19.44 0v-2.89a9.72 9.72 0 0 0-9.69-9.72z"/><path class="cls-3" d="M45.47 11.16v5.08H26v-5.08a9.72 9.72 0 0 1 19.44 0z"/><path d="M24 25.49h23.5v10.26A11.75 11.75 0 0 1 35.75 47.5 11.75 11.75 0 0 1 24 35.75V25.49z" transform="rotate(180 35.75 36.495)" fill="#00dfeb"/><path d="M35.75 25.49A11.75 11.75 0 0 1 47.5 37.24v3.59a11.75 11.75 0 0 0-23.5 0v-3.59a11.75 11.75 0 0 1 11.75-11.75z" fill="#00c9d4"/><path class="cls-3" d="M24 25.49h23.5v10.26A11.75 11.75 0 0 1 35.75 47.5 11.75 11.75 0 0 1 24 35.75V25.49z" transform="rotate(180 35.75 36.495)"/><rect class="cls-6" x="33.23" y="21.48" width="5.03" height="7.85" rx="2.52" ry="2.52" transform="rotate(180 35.75 25.41)"/><rect class="cls-7" x="33.23" y="21.48" width="5.03" height="5.82" rx="2.52" ry="2.52" transform="rotate(180 35.75 24.39)"/><rect class="cls-3" x="33.23" y="21.48" width="5.03" height="7.85" rx="2.52" ry="2.52" transform="rotate(180 35.75 25.41)"/><path class="cls-8" d="M25 15.36a1.86 1.86 0 0 1 1.86-1.5 1.58 1.58 0 0 0 1.58-1.58V9.82A1.86 1.86 0 0 1 29.83 8a15.2 15.2 0 0 0 5.92 1.08A15.2 15.2 0 0 0 41.67 8a1.86 1.86 0 0 1 1.38 1.79v2.46a1.58 1.58 0 0 0 1.58 1.58 1.86 1.86 0 0 1 1.86 1.5 1.79 1.79 0 0 1-1.77 2.09h-.11a9 9 0 0 1-17.72 0h-.11A1.79 1.79 0 0 1 25 15.36z"/><path class="cls-9" d="M41.13 15.29a.77.77 0 0 1-.77.76.76.76 0 0 1 0-1.52.77.77 0 0 1 .77.76z"/><path class="cls-9" d="M30.37 15.29a.77.77 0 0 0 .77.76.76.76 0 0 0 0-1.52.77.77 0 0 0-.77.76z"/><g><g><path class="cls-10" d="M38.56 19.93a.45.45 0 0 1 .33.16.43.43 0 0 1 .1.35 3.29 3.29 0 0 1-6.48 0 .43.43 0 0 1 .1-.35.45.45 0 0 1 .33-.16z"/></g><path class="cls-11" d="M35.75 23.18a3.3 3.3 0 0 1-2.3-.93 3.31 3.31 0 0 1 4.6 0 3.3 3.3 0 0 1-2.3.93z"/></g><g><path class="cls-3" d="M38.56 19.93a.45.45 0 0 1 .33.16.43.43 0 0 1 .1.35 3.29 3.29 0 0 1-6.48 0 .43.43 0 0 1 .1-.35.45.45 0 0 1 .33-.16z"/></g><path class="cls-3" d="M42.62 47.5V36.73"/><ellipse class="cls-7" cx="41.63" cy="18.54" rx=".99" ry=".59"/><ellipse class="cls-7" cx="29.87" cy="18.54" rx=".99" ry=".59"/><path d="M32.81 47.5a9.42 9.42 0 0 0-17.62 0z" fill="#00f5bc"/><path d="M24 44.17a9.4 9.4 0 0 1 7.19 3.33h1.62a9.42 9.42 0 0 0-17.62 0h1.62A9.4 9.4 0 0 1 24 44.17z" fill="#00dba8"/><path class="cls-3" d="M32.81 47.5a9.42 9.42 0 0 0-17.62 0z"/><rect class="cls-6" x="22.14" y="38.22" width="3.72" height="6.4" rx="1.86" ry="1.86"/><rect class="cls-7" x="22.14" y="38.22" width="3.72" height="4.64" rx="1.86" ry="1.86"/><rect class="cls-3" x="22.14" y="38.22" width="3.72" height="6.4" rx="1.86" ry="1.86"/><path class="cls-1" d="M24 23.77a7.1 7.1 0 0 0-1.8.23 12.11 12.11 0 0 1-4.78.52 3.05 3.05 0 0 0 .58 2.37A7.22 7.22 0 0 0 16.74 31v3.8h14.52V31A7.26 7.26 0 0 0 24 23.77z"/><path class="cls-2" d="M24 23.77a7.1 7.1 0 0 0-1.8.23 12.11 12.11 0 0 1-4.78.52 3.11 3.11 0 0 0 .6 2.35 14.56 14.56 0 0 0 4.18-.59 7.1 7.1 0 0 1 1.8-.23 7.26 7.26 0 0 1 7.26 7.26V31A7.26 7.26 0 0 0 24 23.77z"/><path class="cls-3" d="M24 23.77a7.1 7.1 0 0 0-1.8.23 12.11 12.11 0 0 1-4.78.52 3.05 3.05 0 0 0 .58 2.37A7.22 7.22 0 0 0 16.74 31v3.8h14.52V31A7.26 7.26 0 0 0 24 23.77z"/><path class="cls-8" d="M17 33.13a1.31 1.31 0 0 0 .3 2.6h.08a6.69 6.69 0 0 0 13.24 0h.08a1.31 1.31 0 0 0 .3-2.6c-3-.59-4.64-3.76-4.68-3.83-.05.09-2.49 3.92-9.32 3.83z"/><path class="cls-9" d="M20.48 34.66a.51.51 0 0 0 .5.5.5.5 0 0 0 .5-.5.5.5 0 0 0-.5-.5.5.5 0 0 0-.5.5z"/><path class="cls-9" d="M27.52 34.66a.51.51 0 0 1-.5.5.5.5 0 0 1-.5-.5.5.5 0 0 1 .5-.5.5.5 0 0 1 .5.5z"/><ellipse class="cls-7" cx="19.65" cy="36.78" rx=".65" ry=".39"/><ellipse class="cls-7" cx="28.35" cy="36.78" rx=".65" ry=".39"/><path class="cls-3" d="M22.31 38.63a2.34 2.34 0 0 0 1.69.54 2.34 2.34 0 0 0 1.69-.54"/></svg>