<svg xmlns="http://www.w3.org/2000/svg" viewBox="0 0 48 48"><defs><style>.cls-2{fill:#ffe500}.cls-3{fill:#fff48c}.cls-4{fill:none;stroke:#45413c;stroke-linecap:round;stroke-linejoin:round}</style></defs><ellipse cx="24" cy="45.5" rx="11.5" ry="1.5" fill="#45413c" opacity=".15"/><path class="cls-2" d="M29 21.24c.24-2.88 2.61-8 4.39-11.49a2.22 2.22 0 1 0-4-2C27.66 11.42 24 19.1 24 21.24z"/><path class="cls-3" d="M24 22.66c1.18-3.61 4.37-9.47 6-12.8a2.22 2.22 0 0 1 3-1 2.15 2.15 0 0 1 .61.45 2.22 2.22 0 0 0-4.13-1.56C27.66 11.42 24 19.1 24 21.24z"/><path class="cls-4" d="M29 21.24c.24-2.88 2.61-8 4.39-11.49a2.22 2.22 0 1 0-4-2C27.66 11.42 24 19.1 24 21.24z"/><path class="cls-2" d="M26 15.11c-1.13 2.63-2 5.07-2 6.13v3.09H13.37v7.07a10.18 10.18 0 0 0 9.3 10.28 10 10 0 0 0 10.64-9.94V21.9c0-3.67-3.23-10.15-5.59-14.35A2.48 2.48 0 0 0 23.39 10c.75 1.32 1.74 3.19 2.61 5.11z"/><path class="cls-3" d="M26 15.11c-1.13 2.63-2 5.07-2 6.13v1.42a52.89 52.89 0 0 1 2.67-6.18c-.2-.48-.41-.92-.67-1.37z"/><path class="cls-3" d="M24.35 11.75a2.49 2.49 0 0 1 4.36-2.41c-.32-.59-.65-1.19-1-1.79A2.48 2.48 0 0 0 23.39 10c.29.48.96 1.75.96 1.75z"/><path class="cls-4" d="M26 15.11c-1.13 2.63-2 5.07-2 6.13v3.09H13.37v7.07a10.18 10.18 0 0 0 9.3 10.28 10 10 0 0 0 10.64-9.94V21.9c0-3.67-3.23-10.15-5.59-14.35A2.48 2.48 0 0 0 23.39 10c.75 1.32 1.74 3.19 2.61 5.11z"/><path class="cls-4" d="M26 15.11c-1.13 2.63-2 5.07-2 6.13v.84"/><path class="cls-2" d="M18.68 24.21a2.66 2.66 0 1 0-5.31 0v3.24a2.66 2.66 0 1 0 5.31 0z"/><path class="cls-3" d="M18.68 24.21a2.66 2.66 0 1 0-5.31 0v2.4A2.66 2.66 0 0 1 16 24a2.66 2.66 0 0 1 2.65 2.66z"/><path class="cls-2" d="M24 21.81a2.66 2.66 0 0 0-5.32 0v5.64a2.66 2.66 0 0 0 5.32 0z"/><path class="cls-3" d="M24 21.81a2.66 2.66 0 0 0-5.32 0v2.4a2.66 2.66 0 0 1 2.66-2.66A2.66 2.66 0 0 1 24 24.21z"/><path class="cls-4" d="M18.68 24.21a2.66 2.66 0 1 0-5.31 0v3.24a2.66 2.66 0 1 0 5.31 0z"/><path class="cls-4" d="M24 21.81a2.66 2.66 0 0 0-5.32 0v5.64a2.66 2.66 0 0 0 5.32 0z"/><path class="cls-2" d="M33.31 31.48a5.19 5.19 0 0 0-5.19-5.19H20a1.37 1.37 0 0 0-1.37 1.37 3.81 3.81 0 0 0 3.81 3.82h4.08"/><path class="cls-3" d="M20 28.37h8.08a5.17 5.17 0 0 1 4.74 3.11h.45a5.19 5.19 0 0 0-5.19-5.19H20a1.37 1.37 0 0 0-1.37 1.37 3.81 3.81 0 0 0 .28 1.34 1.37 1.37 0 0 1 1.09-.63z"/><path class="cls-4" d="M33.31 31.48a5.19 5.19 0 0 0-5.19-5.19H20a1.37 1.37 0 0 0-1.37 1.37 3.81 3.81 0 0 0 3.81 3.82h4.08"/><path class="cls-4" d="M28.56 22.39c0-1.55-1.18-4.47-2.52-7.28"/><path class="cls-4" d="M26.56 31.48a4.43 4.43 0 0 0-4.44 4.43v1.32"/></svg>