<svg xmlns="http://www.w3.org/2000/svg" viewBox="0 0 48 48"><defs><style>.cls-2{fill:#ffe8e0}.cls-3{fill:none;stroke:#45413c;stroke-linecap:round;stroke-linejoin:round}</style></defs><path d="M31.58 11.1a2.16 2.16 0 0 0-2.71 1.51l.37-1.38a2.39 2.39 0 0 0-1.67-2.93 2.33 2.33 0 0 0-2.88 1.64l-3 10.79a.44.44 0 0 1-.85 0L18.7 11.6a2.13 2.13 0 0 0-2.53-1.6 2.11 2.11 0 0 0-1.61 2.41l.56 3.49a2 2 0 0 0-2.51-1.63 2 2 0 0 0-1.36 2.12l1.24 8.86a7.67 7.67 0 0 1 .08 1.17v5.13a9.22 9.22 0 0 0 9.22 9.22 13.72 13.72 0 0 0 10-4.26L39.9 28a.88.88 0 0 0-.07-1.27 4.68 4.68 0 0 0-5.9-.16l-3.76 2.83 2.94-15.8a2.2 2.2 0 0 0-1.53-2.5z" fill="#ffdcd1"/><path class="cls-2" d="M14.92 14.64a2.36 2.36 0 0 1 4.29-1l-.48-2.06A2.13 2.13 0 0 0 16.17 10a2.11 2.11 0 0 0-1.61 2.41zM26.37 10.28a2.68 2.68 0 0 1 2.59 2l.28-1a2.39 2.39 0 0 0-1.67-2.98 2.33 2.33 0 0 0-2.88 1.64l-.35 1.27a2.67 2.67 0 0 1 2.03-.93zM13.68 16.55a2.34 2.34 0 0 1 1.66.68l-.22-1.33a2 2 0 0 0-2.51-1.63 2 2 0 0 0-1.36 2.12l.23 1.61a2.36 2.36 0 0 1 2.2-1.45zM28.87 12.61l-.26 1a2.69 2.69 0 0 1 4.35.82l.15-.79a2.2 2.2 0 0 0-1.53-2.5 2.16 2.16 0 0 0-2.71 1.47zM39.83 26.68a4.68 4.68 0 0 0-5.9-.16l-3.76 2.88h-5a4.61 4.61 0 0 0-3.69 1.85l3.95.35a12.12 12.12 0 0 0 8.48-2.45 4.67 4.67 0 0 1 5.17-.35l.8-.85a.88.88 0 0 0-.05-1.27z"/><path class="cls-3" d="M31.58 11.1a2.16 2.16 0 0 0-2.71 1.51l.37-1.38a2.39 2.39 0 0 0-1.67-2.93 2.33 2.33 0 0 0-2.88 1.64l-3 10.79a.44.44 0 0 1-.85 0L18.7 11.6a2.13 2.13 0 0 0-2.53-1.6 2.11 2.11 0 0 0-1.61 2.41l.56 3.49a2 2 0 0 0-2.51-1.63 2 2 0 0 0-1.36 2.12l1.24 8.86a7.67 7.67 0 0 1 .08 1.17v5.13a9.22 9.22 0 0 0 9.22 9.22 13.72 13.72 0 0 0 10-4.26L39.9 28a.88.88 0 0 0-.07-1.27 4.68 4.68 0 0 0-5.9-.16l-3.76 2.83 2.94-15.8a2.2 2.2 0 0 0-1.53-2.5zM16.39 23.65l-1.27-7.75M26.2 22.58l2.67-9.97"/><path class="cls-3" d="M30.17 29.4h-5a4.62 4.62 0 0 0-4 2.31"/><ellipse cx="24" cy="45.5" rx="11" ry="1.5" fill="#45413c" opacity=".15"/></svg>