<svg xmlns="http://www.w3.org/2000/svg" viewBox="0 0 48 48"><defs><style>.cls-2{fill:#ffcebf}.cls-3{fill:#ffdcd1}.cls-4{fill:none;stroke:#45413c;stroke-linecap:round;stroke-linejoin:round}</style></defs><ellipse cx="24" cy="45.5" rx="11" ry="1.5" fill="#45413c" opacity=".15"/><path class="cls-2" d="M30 22.08L31.93 9a2.5 2.5 0 1 1 5 .69C34.67 26.25 34.69 23.16 34.69 32a10 10 0 0 1-10.63 10 10.2 10.2 0 0 1-9.31-10.29v-7.17a11.57 11.57 0 0 0-.58-3.65L12 14.27a2.28 2.28 0 0 1 4.29-1.56l3.78 9.37z"/><path class="cls-3" d="M34 9.57a2.88 2.88 0 0 1 2.64 1.72c.07-.51.14-1 .21-1.6a2.5 2.5 0 1 0-5-.69l-.26 1.81A2.86 2.86 0 0 1 34 9.57zM12.61 16.1a2.45 2.45 0 0 1 4.51-1.33l-.83-2.06A2.28 2.28 0 0 0 12 14.27l.61 1.86z"/><path class="cls-4" d="M30 22.08L31.93 9a2.5 2.5 0 1 1 5 .69C34.67 26.25 34.69 23.16 34.69 32a10 10 0 0 1-10.63 10 10.2 10.2 0 0 1-9.31-10.29v-7.17a11.57 11.57 0 0 0-.58-3.65L12 14.27a2.28 2.28 0 0 1 4.29-1.56l3.78 9.37z"/><rect class="cls-2" x="20.07" y="19.43" width="5.32" height="10.96" rx="2.66" ry="2.66"/><path class="cls-3" d="M22.73 19.43a2.66 2.66 0 0 0-2.66 2.65v2.4a2.66 2.66 0 0 1 2.66-2.65 2.66 2.66 0 0 1 2.66 2.65v-2.4a2.66 2.66 0 0 0-2.66-2.65z"/><rect class="cls-4" x="20.07" y="19.43" width="5.32" height="10.96" rx="2.66" ry="2.66"/><rect class="cls-2" x="25.39" y="19.43" width="5.32" height="10.96" rx="2.66" ry="2.66"/><path class="cls-3" d="M28 19.43a2.65 2.65 0 0 0-2.65 2.65v2.4A2.65 2.65 0 0 1 28 21.83a2.66 2.66 0 0 1 2.66 2.65v-2.4A2.66 2.66 0 0 0 28 19.43z"/><rect class="cls-4" x="25.39" y="19.43" width="5.32" height="10.96" rx="2.66" ry="2.66"/><path class="cls-2" d="M34.69 31.75a5.18 5.18 0 0 0-5.19-5.18h-8.07a1.37 1.37 0 0 0-1.38 1.37 3.81 3.81 0 0 0 3.81 3.81z"/><path class="cls-3" d="M34.69 31.75a5.18 5.18 0 0 0-5.19-5.18h-8.07a1.37 1.37 0 0 0-1.38 1.37 3.71 3.71 0 0 0 .24 1.3 1.41 1.41 0 0 1 1.14-.59H30a5.18 5.18 0 0 1 4.69 3.1z"/><path class="cls-4" d="M23.5 37.5v-1.31a4.44 4.44 0 0 1 4.44-4.44h-4.08a3.81 3.81 0 0 1-3.81-3.81 1.37 1.37 0 0 1 1.38-1.37h8.07a5.18 5.18 0 0 1 5.19 5.18"/></svg>