<svg xmlns="http://www.w3.org/2000/svg" viewBox="0 0 48 48"><defs><style>.cls-2,.cls-4{stroke:#45413c;stroke-linecap:round;stroke-linejoin:round}.cls-2{fill:none}.cls-4{fill:#ffe500}.cls-6{fill:#ffdcd1}</style></defs><path d="M3.94 23.14A2.16 2.16 0 0 1 7 23.07l-3-2.89a2.48 2.48 0 0 1 3.43-3.57l.12.12a2.64 2.64 0 0 1 3.65-3.81l1.72 1.65A2.48 2.48 0 0 1 16.33 11l8.93 8.57c-1.11-1.64-.74-4.5 1-5.42a1.6 1.6 0 0 1 2.09.58l4.35 5.61a15.37 15.37 0 0 1-2 18.68 9.25 9.25 0 0 1-13.08.27L4 26.2a2.16 2.16 0 0 1-.06-3.06z" stroke="#45413c" stroke-linecap="round" stroke-linejoin="round" fill="#ffb59e"/><path class="cls-2" d="M29.75 23.87l-4.49-4.31"/><path class="cls-2" d="M7.54 16.73l9.01 8.65"/><path class="cls-2" d="M7 23.07l6.13 5.88"/><path class="cls-2" d="M12.91 14.57l7.3 7"/><ellipse cx="26" cy="45.5" rx="11.5" ry="1.5" fill="#45413c" opacity=".15"/><path class="cls-4" d="M38.22 13.66L43.54 12a.39.39 0 0 0 .25-.56l-1.37-2.31a.4.4 0 0 0-.62 0l-3.94 4a.35.35 0 0 0 .36.53z"/><path class="cls-4" d="M35.28 11.27l2.6-4.92a.39.39 0 0 0-.21-.58l-2.61-.67a.39.39 0 0 0-.46.41v5.59a.36.36 0 0 0 .68.17z"/><path class="cls-4" d="M16.21 7.58L19 2.73a.4.4 0 0 0-.2-.58l-2.59-.74a.39.39 0 0 0-.47.39l-.16 5.6a.35.35 0 0 0 .63.18z"/><path class="cls-4" d="M12.43 7.85L11 2.48a.39.39 0 0 0-.55-.27L8.05 3.5a.4.4 0 0 0-.05.62l3.82 4.08a.36.36 0 0 0 .61-.35z"/><path d="M10.38 25.28a2.16 2.16 0 0 1 3.06-.06l-3-2.89a2.48 2.48 0 1 1 3.43-3.57l.12.11a2.64 2.64 0 1 1 3.65-3.81l1.72 1.65a2.47 2.47 0 0 1 3.42-3.57l8.93 8.57c-1.11-1.64-.74-4.51 1-5.42a1.59 1.59 0 0 1 2.09.57l4.35 5.62a15.35 15.35 0 0 1-2 18.67 9.25 9.25 0 0 1-13.08.27L10.44 28.35a2.18 2.18 0 0 1-.06-3.07z" fill="#ffcebf"/><path class="cls-6" d="M32.71 19.16a1.59 1.59 0 0 1 2.09.57l4.35 5.62A15.44 15.44 0 0 1 41.36 32a15.35 15.35 0 0 0-2.21-9.47l-4.35-5.67a1.59 1.59 0 0 0-2.09-.57c-1.49.78-2 3-1.4 4.62a3 3 0 0 1 1.4-1.75zM19.28 16.08a2.48 2.48 0 0 1 3.49-.08L29 22a3.45 3.45 0 0 0 3.73.71l-10-9.59a2.47 2.47 0 0 0-3.72 3.22 1.49 1.49 0 0 1 .27-.26z"/><path class="cls-2" d="M10.38 25.28a2.16 2.16 0 0 1 3.06-.06l-3-2.89a2.48 2.48 0 1 1 3.43-3.57l.12.11a2.64 2.64 0 1 1 3.65-3.81l1.72 1.65a2.47 2.47 0 0 1 3.42-3.57l8.93 8.57c-1.11-1.64-.74-4.51 1-5.42a1.59 1.59 0 0 1 2.09.57l4.35 5.62a15.35 15.35 0 0 1-2 18.67 9.25 9.25 0 0 1-13.08.27L10.44 28.35a2.18 2.18 0 0 1-.06-3.07z"/><path class="cls-2" d="M36.19 26.01l-4.49-4.3"/><path class="cls-2" d="M13.98 18.87L23 27.53"/><path class="cls-2" d="M13.44 25.22l6.13 5.88"/><path class="cls-2" d="M19.35 16.71l7.3 7.01"/></svg>