<svg xmlns="http://www.w3.org/2000/svg" viewBox="0 0 48 48"><defs><style>.cls-1{fill:#00dfeb}.cls-1,.cls-4{stroke:#45413c;stroke-linecap:round;stroke-linejoin:round}.cls-2{fill:#ffe500}.cls-3{fill:#ebcb00}.cls-4{fill:none}.cls-5{fill:#fff48c}</style></defs><path class="cls-1" d="M27.89 5.84l2-3.07a.49.49 0 0 0-.3-.77l-2.23-.58a.5.5 0 0 0-.63.51L27 5.6a.5.5 0 0 0 .89.24z"/><path class="cls-1" d="M34.46 8.7l2.86-2.27a.5.5 0 0 0 0-.81l-1.96-1.26a.5.5 0 0 0-.76.29l-.94 3.53a.5.5 0 0 0 .8.52z"/><path class="cls-1" d="M20.11 5.84l-2-3.07a.49.49 0 0 1 .3-.77l2.23-.58a.5.5 0 0 1 .63.51L21 5.6a.5.5 0 0 1-.89.24z"/><path class="cls-1" d="M13.54 8.7l-2.86-2.27a.5.5 0 0 1 0-.81l1.92-1.26a.5.5 0 0 1 .76.29l.94 3.53a.5.5 0 0 1-.76.52z"/><path class="cls-2" d="M6.65 34.46h7.75a1 1 0 0 1 1 1v7.79H5.69v-7.83a1 1 0 0 1 .96-.96z" transform="rotate(-180 10.53 38.835)"/><path class="cls-3" d="M5.69 37.87a12.36 12.36 0 0 0 4.84 1 12.44 12.44 0 0 0 4.84-1v-3.41H5.69z"/><path class="cls-4" d="M6.65 34.46h7.75a1 1 0 0 1 1 1v7.79H5.69v-7.83a1 1 0 0 1 .96-.96z" transform="rotate(-180 10.53 38.835)"/><path class="cls-2" d="M18.59 26.51l-1.37 1.29V16.73a1.79 1.79 0 0 0-1.74-1.84 1.74 1.74 0 0 0-1.74 1.74v-1.57a1.89 1.89 0 0 0-1.86-2A1.85 1.85 0 0 0 10 15v-.11a1.71 1.71 0 0 0-1.74-1.74 1.74 1.74 0 0 0-1.74 1.74v2.93a1.53 1.53 0 1 0-3 .06v12.47a6.48 6.48 0 0 0 6.44 6.51 10.07 10.07 0 0 0 7.5-3.34l5.19-5.63a.94.94 0 0 0 0-1.32 2.88 2.88 0 0 0-4.06-.06z"/><path class="cls-5" d="M8.29 15.17A1.71 1.71 0 0 1 10 16.91V17a1.85 1.85 0 0 1 1.85-1.85 1.89 1.89 0 0 1 1.86 2v1.55a1.74 1.74 0 0 1 1.77-1.7 1.78 1.78 0 0 1 1.74 1.83v-2.1a1.79 1.79 0 0 0-1.74-1.84 1.74 1.74 0 0 0-1.74 1.74v-1.57a1.89 1.89 0 0 0-1.86-2A1.85 1.85 0 0 0 10 15v-.11a1.71 1.71 0 0 0-1.74-1.74 1.74 1.74 0 0 0-1.74 1.74v2.06a1.74 1.74 0 0 1 1.77-1.78z"/><path class="cls-5" d="M5 18.32a1.52 1.52 0 0 1 1.53 1.52v-2.06a1.53 1.53 0 1 0-3 .06v2.06A1.53 1.53 0 0 1 5 18.32z"/><path class="cls-5" d="M10.53 29.25a47 47 0 0 1 7.06-.13c1.69-1 3.64-1.78 4.75-.91l.29-.32a.94.94 0 0 0 0-1.32 2.88 2.88 0 0 0-4-.06l-1.41 1.29h-3.53a4.15 4.15 0 0 0-3.16 1.45z"/><path class="cls-4" d="M6.55 17.78v5.97"/><path class="cls-4" d="M10.03 14.96v8.79"/><path class="cls-4" d="M13.74 16.63v7.12"/><path class="cls-4" d="M17.22 27.8h-3.53a4.15 4.15 0 0 0-3.16 1.45"/><path class="cls-4" d="M18.59 26.51l-1.37 1.29V16.73a1.79 1.79 0 0 0-1.74-1.84 1.74 1.74 0 0 0-1.74 1.74v-1.57a1.89 1.89 0 0 0-1.86-2A1.85 1.85 0 0 0 10 15v-.11a1.71 1.71 0 0 0-1.74-1.74 1.74 1.74 0 0 0-1.74 1.74v2.93a1.53 1.53 0 1 0-3 .06v12.47a6.48 6.48 0 0 0 6.44 6.51 10.07 10.07 0 0 0 7.5-3.34l5.19-5.63a.94.94 0 0 0 0-1.32 2.88 2.88 0 0 0-4.06-.06z"/><path class="cls-2" d="M32.63 34.46h9.67v7.79a1 1 0 0 1-1 1h-7.71a1 1 0 0 1-1-1v-7.79h.04z"/><path class="cls-3" d="M42.31 37.87a12.68 12.68 0 0 1-9.68 0v-3.41h9.68z"/><path class="cls-4" d="M32.63 34.46h9.67v7.79a1 1 0 0 1-1 1h-7.71a1 1 0 0 1-1-1v-7.79h.04z"/><path class="cls-2" d="M29.41 26.51l1.37 1.29V16.73a1.79 1.79 0 0 1 1.74-1.84 1.74 1.74 0 0 1 1.74 1.74v-1.57a1.89 1.89 0 0 1 1.86-2A1.85 1.85 0 0 1 38 15v-.11a1.71 1.71 0 0 1 1.74-1.74 1.74 1.74 0 0 1 1.74 1.74v2.93a1.53 1.53 0 1 1 3 .06v12.47a6.48 6.48 0 0 1-6.44 6.51 10.07 10.07 0 0 1-7.5-3.34l-5.19-5.63a.94.94 0 0 1 0-1.32 2.88 2.88 0 0 1 4.06-.06z"/><path class="cls-5" d="M39.71 15.17A1.71 1.71 0 0 0 38 16.91V17a1.85 1.85 0 0 0-1.85-1.85 1.89 1.89 0 0 0-1.86 2v1.55a1.74 1.74 0 0 0-1.77-1.7 1.78 1.78 0 0 0-1.74 1.83v-2.1a1.79 1.79 0 0 1 1.74-1.84 1.74 1.74 0 0 1 1.74 1.74v-1.57a1.89 1.89 0 0 1 1.86-2A1.85 1.85 0 0 1 38 15v-.11a1.71 1.71 0 0 1 1.74-1.74 1.74 1.74 0 0 1 1.74 1.74v2.06a1.74 1.74 0 0 0-1.77-1.78z"/><path class="cls-5" d="M43 18.32a1.52 1.52 0 0 0-1.53 1.52v-2.06a1.53 1.53 0 1 1 3 .06v2.06A1.53 1.53 0 0 0 43 18.32z"/><path class="cls-5" d="M37.47 29.25a47 47 0 0 0-7.06-.13c-1.69-1-3.64-1.78-4.75-.91l-.29-.32a.94.94 0 0 1 0-1.32 2.88 2.88 0 0 1 4-.06l1.37 1.29h3.53a4.15 4.15 0 0 1 3.2 1.45z"/><path class="cls-4" d="M41.45 17.78v5.97"/><path class="cls-4" d="M37.97 14.96v8.79"/><path class="cls-4" d="M34.26 16.63v7.12"/><path class="cls-4" d="M30.78 27.8h3.53a4.15 4.15 0 0 1 3.16 1.45"/><path class="cls-4" d="M29.41 26.51l1.37 1.29V16.73a1.79 1.79 0 0 1 1.74-1.84 1.74 1.74 0 0 1 1.74 1.74v-1.57a1.89 1.89 0 0 1 1.86-2A1.85 1.85 0 0 1 38 15v-.11a1.71 1.71 0 0 1 1.74-1.74 1.74 1.74 0 0 1 1.74 1.74v2.93a1.53 1.53 0 1 1 3 .06v12.47a6.48 6.48 0 0 1-6.44 6.51 10.07 10.07 0 0 1-7.5-3.34l-5.19-5.63a.94.94 0 0 1 0-1.32 2.88 2.88 0 0 1 4.06-.06z"/><ellipse cx="24" cy="45.5" rx="11" ry="1.5" fill="#45413c" opacity=".15"/></svg>