<svg xmlns="http://www.w3.org/2000/svg" viewBox="0 0 48 48"><defs><style>.cls-6{fill:#ffe500}.cls-5{stroke:#45413c;stroke-linecap:round;stroke-linejoin:round}.cls-3{fill:#ff6196}.cls-4{fill:#ff87af}.cls-5{fill:none}.cls-7{fill:#ebcb00}</style></defs><ellipse cx="20.93" cy="42.5" rx="13.5" ry="1.5" fill="#45413c" opacity=".15"/><path d="M24.56 22.85a4.58 4.58 0 0 1-2.28 6.07L7 35.87v-6.5a1 1 0 0 1 .59-.91L22 21.89a1.92 1.92 0 0 1 2.56.96z" stroke="#45413c" stroke-linecap="round" stroke-linejoin="round" fill="#ffe500"/><path class="cls-3" d="M19.42 26.65a.75.75 0 0 1-1-.37l-1-2.28 7.54-3.43a1 1 0 0 1 1.32.5 2.24 2.24 0 0 1-1.12 3z"/><path class="cls-4" d="M24.93 22.13a1 1 0 0 1 1.32.49 1.11 1.11 0 0 1 .07.16 2.26 2.26 0 0 0-.07-1.71 1 1 0 0 0-1.32-.5L17.39 24l.61 1.29z"/><path class="cls-5" d="M19.42 26.65a.75.75 0 0 1-1-.37l-1-2.28 7.54-3.43a1 1 0 0 1 1.32.5 2.24 2.24 0 0 1-1.12 3z"/><path class="cls-6" d="M7 39.44l18.81-8.56a4.59 4.59 0 0 0 2.29-6.06 1.93 1.93 0 0 0-2.55-1L7 32.3z"/><path class="cls-7" d="M28.41 25.79a4.55 4.55 0 0 1-2.52 2.9L7 37.28v2.16l18.81-8.56a4.58 4.58 0 0 0 2.6-5.09z"/><path class="cls-5" d="M7 39.44l18.81-8.56a4.59 4.59 0 0 0 2.29-6.06 1.93 1.93 0 0 0-2.55-1L7 32.3z"/><path class="cls-3" d="M23 28.62a.76.76 0 0 1-1-.37l-1-2.28 7.54-3.43a1 1 0 0 1 1.32.49 2.25 2.25 0 0 1-1.12 3z"/><path class="cls-4" d="M28.46 24.09a1.1 1.1 0 0 1 1.39.65 2.26 2.26 0 0 0-.07-1.74 1 1 0 0 0-1.32-.49L20.92 26l.58 1.29z"/><path class="cls-5" d="M23 28.62a.76.76 0 0 1-1-.37l-1-2.28 7.54-3.43a1 1 0 0 1 1.32.49 2.25 2.25 0 0 1-1.12 3z"/><path class="cls-6" d="M7 41.63a1 1 0 0 0 1.3.95l17.53-5.44a4.59 4.59 0 0 0 3-5.73 1.93 1.93 0 0 0-2.41-1.27L7 36.18z"/><path class="cls-7" d="M26.2 35L7 40.94v.69a1 1 0 0 0 1.3.95l17.53-5.44a4.58 4.58 0 0 0 3.23-4.72A4.59 4.59 0 0 1 26.2 35z"/><path class="cls-5" d="M7 41.63a1 1 0 0 0 1.3.95l17.53-5.44a4.59 4.59 0 0 0 3-5.73 1.93 1.93 0 0 0-2.41-1.27L7 36.18z"/><path class="cls-3" d="M23.28 34.54a.76.76 0 0 1-.94-.5l-.74-2.39 7.91-2.45a1 1 0 0 1 1.26.66 2.26 2.26 0 0 1-1.49 2.82z"/><path class="cls-4" d="M29.32 30.74a1 1 0 0 1 1.25.66.94.94 0 0 1 0 .16 2.22 2.22 0 0 0 .16-1.7 1 1 0 0 0-1.26-.66l-7.87 2.45L22 33z"/><path class="cls-5" d="M23.28 34.54a.76.76 0 0 1-.94-.5l-.74-2.39 7.91-2.45a1 1 0 0 1 1.26.66 2.26 2.26 0 0 1-1.49 2.82z"/><path class="cls-3" d="M36.86 3.73h1.62a2 2 0 0 1 2 2v5.88a.5.5 0 0 1-.5.5h-4.62a.5.5 0 0 1-.5-.5V5.73a2 2 0 0 1 2-2z" transform="rotate(25.74 37.685 7.923)"/><path class="cls-4" d="M33.77 10.69l.58.28 1.74-3.62a2 2 0 0 1 2.67-.93l1.47.71a2 2 0 0 1 .68.55l.25-.51a2 2 0 0 0-.93-2.67l-1.47-.7a2 2 0 0 0-2.67.93L33.54 10a.5.5 0 0 0 .23.69z"/><path class="cls-5" d="M36.86 3.73h1.62a2 2 0 0 1 2 2v5.88a.5.5 0 0 1-.5.5h-4.62a.5.5 0 0 1-.5-.5V5.73a2 2 0 0 1 2-2z" transform="rotate(25.74 37.685 7.923)"/><path transform="rotate(25.74 33.967 15.634)" fill="#f0f0f0" stroke="#45413c" stroke-linecap="round" stroke-linejoin="round" d="M33.02 11.26h1.88v8.75h-1.88z"/><path class="cls-3" d="M33 20.53c-.64 1.45-2.18 3-5.35 2.32a9.45 9.45 0 0 0 2.65-3.63 1.5 1.5 0 1 1 2.7 1.31z"/><path d="M29 21.52a6.9 6.9 0 0 1-1.32 1.33c3.17.67 4.71-.87 5.35-2.32a1.54 1.54 0 0 0-.03-1.39 4.05 4.05 0 0 1-4 2.38z" fill="#e0366f"/><path class="cls-5" d="M33 20.53c-.64 1.45-2.18 3-5.35 2.32a9.45 9.45 0 0 0 2.65-3.63 1.5 1.5 0 1 1 2.7 1.31z"/></svg>