<svg xmlns="http://www.w3.org/2000/svg" viewBox="0 0 48 48"><defs><style>.cls-4{fill:none;stroke:#45413c;stroke-linecap:round;stroke-linejoin:round}</style></defs><g><ellipse cx="24" cy="42.14" rx="13.63" ry="1.86" fill="#45413c" opacity=".15"/><ellipse cx="24" cy="24" rx="21.83" ry="12.08" fill="#fff"/><path d="M24 17.81c10.85 0 18.1 5.12 20.73 9.13a5.7 5.7 0 0 0 1.1-2.94c0-3.71-8-12.08-21.83-12.08S2.17 20.29 2.17 24a5.7 5.7 0 0 0 1.1 2.94c2.63-4.01 9.88-9.13 20.73-9.13z" fill="#e0e0e0"/><ellipse class="cls-4" cx="24" cy="24" rx="21.83" ry="12.08"/><path d="M24 14.79c13.13 0 20.72 8.25 20.83 12a5.58 5.58 0 0 0 1-2.79c0-3.71-8-12.08-21.83-12.08S2.17 20.29 2.17 24a5.58 5.58 0 0 0 1 2.79c.11-3.79 7.7-12 20.83-12z" fill="#656769" stroke="#45413c" stroke-linecap="round" stroke-linejoin="round"/><circle cx="24" cy="24" r="8.98" fill="#b89558"/><path d="M30.23 17.53a8.05 8.05 0 1 1-12.46 0 9 9 0 1 0 12.46 0z" fill="#947746"/><circle class="cls-4" cx="24" cy="24" r="8.98"/><circle cx="24" cy="24" r="4.03" fill="#525252" stroke="#45413c" stroke-linecap="round" stroke-linejoin="round"/><circle cx="20.62" cy="19.8" r="3.07" stroke="#45413c" stroke-linecap="round" stroke-linejoin="round" fill="#fff"/></g></svg>