<svg xmlns="http://www.w3.org/2000/svg" viewBox="0 0 48 48"><defs><style>.cls-3,.cls-6{stroke:#45413c;stroke-linecap:round;stroke-linejoin:round}.cls-3{fill:none}.cls-6{fill:#a6fbff}</style></defs><g><path d="M42.13 13.72c-2.76 2.22-9.84 5.57-18.13 5.57S8.63 15.94 5.87 13.72a5 5 0 0 1-.89.89c1.74 6.85 9.59 12 19 12s17.28-5.17 19-12a5 5 0 0 1-.85-.89z" stroke="#45413c" stroke-linecap="round" stroke-linejoin="round" fill="#656769"/><ellipse cx="24" cy="45.4" rx="12.28" ry="1.6" fill="#45413c" opacity=".15"/><path class="cls-3" d="M7 10.43a5.34 5.34 0 0 1-5.34 5.33"/><path d="M33.89 17.74A33.19 33.19 0 0 1 24 19.29a33.19 33.19 0 0 1-9.89-1.55 37.07 37.07 0 0 0-2.48 13.33 7.44 7.44 0 0 0 7.44 7.43h9.86a7.44 7.44 0 0 0 7.44-7.43 37.07 37.07 0 0 0-2.48-13.33z" fill="#ff866e"/><path d="M33.89 17.74A33.51 33.51 0 0 1 24 19.29a33.51 33.51 0 0 1-9.89-1.55c-.38 1-.7 1.94-1 3.06A38.45 38.45 0 0 0 24 22.43a38.45 38.45 0 0 0 10.91-1.63c-.32-1.12-.64-2.08-1.02-3.06z" fill="#ff6242"/><path class="cls-3" d="M24 19.29v8.51"/><path class="cls-6" d="M38.06 35.12A5.24 5.24 0 0 1 42.14 39c1 3.5-2.39 5.33-4 3.37s1.7-3.87-.08-7.25z"/><path class="cls-6" d="M39.73 30.62a3.39 3.39 0 0 1 3.55-.82c2.26.69 2 3.2.41 3.34s-1.5-2.27-3.96-2.52z"/><path class="cls-6" d="M9.78 36.1a3.41 3.41 0 0 0-3.19 1.78c-1.2 2 .65 3.73 1.94 2.75s-.41-2.7 1.25-4.53z"/><path class="cls-3" d="M46.33 15.76A5.34 5.34 0 0 1 41 10.43"/><path class="cls-3" d="M33.89 17.74A33.19 33.19 0 0 1 24 19.29a33.19 33.19 0 0 1-9.89-1.55 37.07 37.07 0 0 0-2.48 13.33 7.44 7.44 0 0 0 7.44 7.43h9.86a7.44 7.44 0 0 0 7.44-7.43 37.07 37.07 0 0 0-2.48-13.33z"/></g></svg>