<svg xmlns="http://www.w3.org/2000/svg" viewBox="0 0 48 48"><defs><style>.cls-3{fill:#fff}.cls-5{stroke:#45413c;stroke-linecap:round;stroke-linejoin:round}.cls-4{fill:#f0f0f0}.cls-5{fill:none}</style></defs><g><ellipse cx="26.11" cy="43.5" rx="13.5" ry="1.5" fill="#45413c" opacity=".15"/><circle cx="1.91" cy="39.09" r="1.41" stroke="#45413c" stroke-linecap="round" stroke-linejoin="round" fill="#fff"/><path class="cls-3" d="M8.73 33.2a2.35 2.35 0 0 0 0 4.7A2.34 2.34 0 0 0 13 36.49a2.26 2.26 0 0 0-.2-.94 2.26 2.26 0 0 0 .2-.94 2.35 2.35 0 0 0-4.27-1.41z"/><path class="cls-4" d="M9.67 36.61a.65.65 0 0 0-.42-.19 2.38 2.38 0 0 1-2.1-2.61 2.36 2.36 0 0 0 1.59 4.09A2.35 2.35 0 0 0 13 36.74a2.32 2.32 0 0 1-3.33-.13z"/><path class="cls-5" d="M8.73 33.2a2.35 2.35 0 0 0 0 4.7A2.34 2.34 0 0 0 13 36.49a2.26 2.26 0 0 0-.2-.94 2.26 2.26 0 0 0 .2-.94 2.35 2.35 0 0 0-4.27-1.41z"/><path class="cls-3" d="M47.5 18.56a4.22 4.22 0 0 0-3.34-4.13 4.22 4.22 0 0 0-6.55-4.06 4.22 4.22 0 0 0-7.19-3.26 4.21 4.21 0 0 0-8.12 0 4.21 4.21 0 0 0-7.18 3.26 4.24 4.24 0 0 0-2.38-.73 4.19 4.19 0 0 0-4.17 4.79 4.22 4.22 0 0 0 .22 8.29 4.22 4.22 0 0 0 6.33 5 4.2 4.2 0 0 0 7.42 3 4.21 4.21 0 0 0 7.65 0 4.2 4.2 0 0 0 7.42-3 4.22 4.22 0 0 0 6.32-5 4.22 4.22 0 0 0 3.57-4.16z"/><path class="cls-4" d="M46.81 16.27a3 3 0 0 0-1.4 2.44A4.56 4.56 0 0 1 40.09 23a1.78 1.78 0 0 0-2 1.17A4.5 4.5 0 0 1 33.88 27a4.39 4.39 0 0 1-2.25-.62 1.68 1.68 0 0 0-2 .24 4.46 4.46 0 0 1-6.45 0 1.68 1.68 0 0 0-2-.24 4.42 4.42 0 0 1-2.25.62 4.5 4.5 0 0 1-4.21-2.9 1.79 1.79 0 0 0-2-1.17 4.56 4.56 0 0 1-5.32-4.24A3 3 0 0 0 6 16.25a4.17 4.17 0 0 0-.69 2.29 4.22 4.22 0 0 0 3.56 4.16 4.22 4.22 0 0 0 6.33 5 4.2 4.2 0 0 0 7.42 3 4.21 4.21 0 0 0 7.65 0 4.2 4.2 0 0 0 7.42-3 4.22 4.22 0 0 0 6.32-5 4.22 4.22 0 0 0 3.57-4.16 4.17 4.17 0 0 0-.77-2.27z"/><path id="_Compound_Path_2" class="cls-5" d="M47.5 18.56a4.22 4.22 0 0 0-3.34-4.13 4.22 4.22 0 0 0-6.55-4.06 4.22 4.22 0 0 0-7.19-3.26 4.21 4.21 0 0 0-8.12 0 4.21 4.21 0 0 0-7.18 3.26 4.24 4.24 0 0 0-2.38-.73 4.19 4.19 0 0 0-4.17 4.79 4.22 4.22 0 0 0 .22 8.29 4.22 4.22 0 0 0 6.33 5 4.2 4.2 0 0 0 7.42 3 4.21 4.21 0 0 0 7.65 0 4.2 4.2 0 0 0 7.42-3 4.22 4.22 0 0 0 6.32-5 4.22 4.22 0 0 0 3.57-4.16z"/></g></svg>