<svg xmlns="http://www.w3.org/2000/svg" viewBox="0 0 48 48"><defs><style>.cls-2{fill:#fff}.cls-3{fill:#f0f0f0}.cls-4{fill:none;stroke:#45413c;stroke-linecap:round;stroke-linejoin:round}</style></defs><g><ellipse cx="27.5" cy="43.5" rx="13.5" ry="1.5" fill="#45413c" opacity=".15"/><g><path class="cls-2" d="M47.5 17.69A13.69 13.69 0 0 0 21.87 11a10.75 10.75 0 1 0-6.36 19.85 10.25 10.25 0 0 0 18.78.51A13.68 13.68 0 0 0 47.5 17.69z"/><path class="cls-3" d="M34.65 27.17A10.73 10.73 0 0 1 15 26.65 11.26 11.26 0 0 1 5.46 20v.13a10.74 10.74 0 0 0 10.05 10.72 10.25 10.25 0 0 0 18.78.51A13.68 13.68 0 0 0 47.48 18.1a14.32 14.32 0 0 1-12.83 9.07z"/><path class="cls-4" d="M47.5 17.69A13.69 13.69 0 0 0 21.87 11a10.75 10.75 0 1 0-6.36 19.85 10.25 10.25 0 0 0 18.78.51A13.68 13.68 0 0 0 47.5 17.69z"/></g><circle cx="2.46" cy="41.11" r="1.96" stroke="#45413c" stroke-linecap="round" stroke-linejoin="round" fill="#fff"/><g><circle class="cls-2" cx="11.29" cy="37.58" r="3.42"/><path class="cls-3" d="M11.29 39.53a4.39 4.39 0 0 1-3.39-1.62 3.4 3.4 0 0 0 6.78 0 4.39 4.39 0 0 1-3.39 1.62z"/><circle class="cls-4" cx="11.29" cy="37.58" r="3.42"/></g></g></svg>