<svg xmlns="http://www.w3.org/2000/svg" viewBox="0 0 48 48"><defs><style>.cls-3{fill:none;stroke:#45413c;stroke-linecap:round;stroke-linejoin:round}.cls-5{fill:#00b8f0}.cls-6{fill:#4acfff}</style></defs><path d="M25.73 24.28a12.34 12.34 0 0 0 .87 4.54 7.73 7.73 0 0 0 6 4.76l6.06.94a6.5 6.5 0 0 0 3.62-.47 6.15 6.15 0 0 0 3.72-5.6v-7.59h.49a1 1 0 0 0 1-1V18a1 1 0 0 0-1-1h-1.87l-13.13.77a7.51 7.51 0 0 0-4.77 2.1 3.44 3.44 0 0 1-2.39 1h-.66a3.44 3.44 0 0 1-2.39-1 7.51 7.51 0 0 0-4.77-2.1L3.38 17H1.49a1 1 0 0 0-1 1v1.9a1 1 0 0 0 1 1H2v7.59a6.15 6.15 0 0 0 3.71 5.6 6.5 6.5 0 0 0 3.62.47l6.06-.94a7.73 7.73 0 0 0 6-4.76 12.34 12.34 0 0 0 .87-4.54.54.54 0 0 1 .55-.53h2.36a.54.54 0 0 1 .56.49z" fill="#87898c"/><path d="M46.51 17H44.62l-13.13.77a7.51 7.51 0 0 0-4.77 2.1 3.44 3.44 0 0 1-2.39 1h-.66a3.44 3.44 0 0 1-2.39-1 7.51 7.51 0 0 0-4.77-2.1L3.38 17H1.49a1 1 0 0 0-1 1v2.01a1 1 0 0 1 1-.86H3.38l13.13.76A7.51 7.51 0 0 1 21.28 22a3.4 3.4 0 0 0 2.39 1h.66a3.4 3.4 0 0 0 2.39-1 7.51 7.51 0 0 1 4.77-2.1l13.13-.76H46.51a1 1 0 0 1 1 .86v-2a1 1 0 0 0-1-1z" fill="#bdbec0"/><path class="cls-3" d="M46.51 17H44.62l-13.13.77a7.51 7.51 0 0 0-4.77 2.1 3.44 3.44 0 0 1-2.39 1h-.66a3.44 3.44 0 0 1-2.39-1 7.51 7.51 0 0 0-4.77-2.1L3.38 17H1.49a1 1 0 0 0-1 1v1.9a1 1 0 0 0 1 1H2v7.59a6.15 6.15 0 0 0 3.71 5.6 6.5 6.5 0 0 0 3.62.47l6.07-.94a7.73 7.73 0 0 0 6-4.76 12.34 12.34 0 0 0 .87-4.54.54.54 0 0 1 .55-.53h2.36a.54.54 0 0 1 .55.53 12.34 12.34 0 0 0 .87 4.54 7.73 7.73 0 0 0 6 4.76l6.07.94a6.5 6.5 0 0 0 3.62-.47A6.15 6.15 0 0 0 46 28.45v-7.59h.49a1 1 0 0 0 1-1V18a1 1 0 0 0-.98-1z"/><ellipse cx="24" cy="38.98" rx="11.38" ry="1.52" fill="#45413c" opacity=".15"/><path class="cls-5" d="M14.07 31.58l-4.68.65a4.21 4.21 0 0 1-4.77-3.85L4.29 24a3.92 3.92 0 0 1 4.15-4.2l7.94.5a3.45 3.45 0 0 1 3.23 3.63l-.08 1.7a6.33 6.33 0 0 1-5.46 5.95z"/><path class="cls-6" d="M16.38 20.26l-7.94-.5A3.92 3.92 0 0 0 4.29 24l.33 4.42a4.21 4.21 0 0 0 4.77 3.85h.34l7-11.88z"/><path class="cls-3" d="M14.07 31.58l-4.68.65a4.21 4.21 0 0 1-4.77-3.85L4.29 24a3.92 3.92 0 0 1 4.15-4.2l7.94.5a3.45 3.45 0 0 1 3.23 3.63l-.08 1.7a6.33 6.33 0 0 1-5.46 5.95z"/><path class="cls-5" d="M33.93 31.58l4.68.65a4.21 4.21 0 0 0 4.77-3.85l.33-4.38a3.92 3.92 0 0 0-4.15-4.2l-7.94.5a3.45 3.45 0 0 0-3.23 3.63l.08 1.7a6.33 6.33 0 0 0 5.46 5.95z"/><path class="cls-6" d="M40.83 19.89a3.82 3.82 0 0 0-1.27-.13l-7.94.5a3.45 3.45 0 0 0-3.23 3.63l.08 1.7a6.32 6.32 0 0 0 5.45 6z"/><path class="cls-3" d="M33.93 31.58l4.68.65a4.21 4.21 0 0 0 4.77-3.85l.33-4.38a3.92 3.92 0 0 0-4.15-4.2l-7.94.5a3.45 3.45 0 0 0-3.23 3.63l.08 1.7a6.33 6.33 0 0 0 5.46 5.95z"/></svg>