<svg xmlns="http://www.w3.org/2000/svg" viewBox="0 0 48 48"><defs><style>.cls-2{fill:#00f5bc}.cls-5{stroke:#45413c;stroke-linecap:round;stroke-linejoin:round;fill:none}</style></defs><ellipse cx="24" cy="44.98" rx="15.5" ry="2.02" fill="#45413c" opacity=".15"/><path class="cls-2" d="M41.5 34.36c-4.86-6.07-10.55-9.29-12-15.81h-11c-1.45 6.52-7.14 9.74-12 15.81a3.84 3.84 0 0 0-.71 2.2 3.66 3.66 0 0 0 5.44 3.24 4.81 4.81 0 0 0 4.73 4 4.75 4.75 0 0 0 3.45-1.48 5 5 0 0 0 9.18 0A4.75 4.75 0 0 0 32 43.81a4.81 4.81 0 0 0 4.73-4 3.66 3.66 0 0 0 5.44-3.24 3.81 3.81 0 0 0-.67-2.21z"/><path stroke="#45413c" stroke-linecap="round" stroke-linejoin="round" fill="#ffb0ca" d="M18.5 15.05h11v3.5h-11z"/><path class="cls-2" d="M30.83 9.62a9.68 9.68 0 0 0 .6-5.75l-.32-1.74a.76.76 0 0 0-.75-.63h-2.23v1.36a4.13 4.13 0 1 1-8.26 0V1.5h-2.23a.76.76 0 0 0-.75.63l-.32 1.74a9.68 9.68 0 0 0 .6 5.75 18.32 18.32 0 0 1 1.33 5.43h11a18.32 18.32 0 0 1 1.33-5.43z"/><path d="M16.49 7.32c.06-.4.32-1.84.4-2.24a.76.76 0 0 1 .75-.63h.87a1.36 1.36 0 0 1 1.36 1.37 4.13 4.13 0 0 0 8.26 0 1.36 1.36 0 0 1 1.36-1.37h.87a.76.76 0 0 1 .75.63c.08.4.34 1.84.4 2.24a10.52 10.52 0 0 0-.08-3.45l-.32-1.74a.76.76 0 0 0-.75-.63h-2.23v1.36a4.13 4.13 0 1 1-8.26 0V1.5h-2.23a.76.76 0 0 0-.75.63l-.32 1.74a10.52 10.52 0 0 0-.08 3.45z" fill="#8cffe4"/><path class="cls-5" d="M30.83 9.62a9.68 9.68 0 0 0 .6-5.75l-.32-1.74a.76.76 0 0 0-.75-.63h-2.23v1.36a4.13 4.13 0 1 1-8.26 0V1.5h-2.23a.76.76 0 0 0-.75.63l-.32 1.74a9.68 9.68 0 0 0 .6 5.75 18.32 18.32 0 0 1 1.33 5.43h11a18.32 18.32 0 0 1 1.33-5.43z"/><path d="M32.29 24.34a14.79 14.79 0 0 1-2.79-5.79h-11a14.79 14.79 0 0 1-2.79 5.79 27.59 27.59 0 0 0 16.58 0z" fill="#00dba8"/><path class="cls-5" d="M41.5 34.36c-4.86-6.07-10.55-9.29-12-15.81h-11c-1.45 6.52-7.14 9.74-12 15.81a3.84 3.84 0 0 0-.71 2.2 3.66 3.66 0 0 0 5.44 3.24 4.81 4.81 0 0 0 4.73 4 4.75 4.75 0 0 0 3.45-1.48 5 5 0 0 0 9.18 0A4.75 4.75 0 0 0 32 43.81a4.81 4.81 0 0 0 4.73-4 3.66 3.66 0 0 0 5.44-3.24 3.81 3.81 0 0 0-.67-2.21z"/><path class="cls-5" d="M12.15 37.75A13.25 13.25 0 0 1 16 31.92"/><path class="cls-5" d="M35.85 37.77a12 12 0 0 0-3.7-5.87"/><path class="cls-5" d="M19.54 40.4a20.1 20.1 0 0 1 1-5.9"/><path class="cls-5" d="M28.75 40.4a16.89 16.89 0 0 0-.75-5.9"/></svg>