<svg xmlns="http://www.w3.org/2000/svg" viewBox="0 0 48 48"><defs><style>.cls-1{fill:#daedf7}.cls-2{fill:#fff}.cls-3{fill:none;stroke:#45413c;stroke-linecap:round;stroke-linejoin:round}</style></defs><g><circle class="cls-1" cx="21.55" cy="7.6" r="2.45"/><circle class="cls-1" cx="26.45" cy="7.6" r="2.45"/><path class="cls-2" d="M21.55 7.56a2.6 2.6 0 0 1 2.23 1.06 2.46 2.46 0 1 0-4.47 0 2.61 2.61 0 0 1 2.24-1.06z"/><path class="cls-2" d="M26.45 7.56a2.61 2.61 0 0 1 2.24 1.06 2.46 2.46 0 1 0-4.47 0 2.6 2.6 0 0 1 2.23-1.06z"/><circle class="cls-3" cx="21.55" cy="7.6" r="2.45"/><circle class="cls-3" cx="26.45" cy="7.6" r="2.45"/><ellipse class="cls-1" cx="24" cy="26.58" rx="20.87" ry="16.92"/><g><path class="cls-2" d="M24 12c9.63 0 17.74 4.29 20.15 10.13C41.74 15 33.63 9.66 24 9.66S6.26 15 3.85 22.14C6.26 16.3 14.37 12 24 12z"/></g><ellipse class="cls-3" cx="24" cy="26.58" rx="20.87" ry="16.92"/><ellipse cx="24" cy="43.78" rx="21.49" ry="2.22" fill="#45413c" opacity=".15"/><path d="M46.42 36.77C46.42 43 35.21 43.5 24 43.5S1.58 43 1.58 36.77c0-12.38 10-23.53 22.42-23.53s22.42 11.15 22.42 23.53z" fill="#ff6196"/><path d="M24 18c11.27 0 20.6 9.23 22.18 20.23a4.3 4.3 0 0 0 .24-1.46c0-12.38-10-23.53-22.42-23.53S1.58 24.39 1.58 36.77a4.3 4.3 0 0 0 .24 1.46C3.4 27.23 12.73 18 24 18z" fill="#ff87af"/><path class="cls-3" d="M46.42 36.77C46.42 43 35.21 43.5 24 43.5S1.58 43 1.58 36.77c0-12.38 10-23.53 22.42-23.53s22.42 11.15 22.42 23.53z"/><path class="cls-3" d="M24 13.24v5.68"/><path class="cls-3" d="M24 13.24a18.92 18.92 0 0 0-6.36 6.55"/><path class="cls-3" d="M24 13.24a18.92 18.92 0 0 1 6.36 6.55"/></g></svg>