<svg xmlns="http://www.w3.org/2000/svg" viewBox="0 0 48 48"><defs><style>.cls-2{fill:#ebcb00}.cls-2,.cls-5,.cls-9{stroke:#45413c;stroke-linecap:round;stroke-linejoin:round}.cls-5{fill:none}.cls-6,.cls-9{fill:#ff6242}.cls-8{fill:#ff866e}</style></defs><g><ellipse cx="24" cy="43.5" rx="17" ry="1.5" fill="#45413c" opacity=".15"/><g><path class="cls-2" d="M19 24.5c-1.8-1.73-3.35-6.27-4.53-9.66a.5.5 0 0 0-.94 0C12.35 18.23 10.8 22.77 9 24.5z"/><path class="cls-2" d="M29 24.5c1.8-1.73 3.35-6.27 4.53-9.66a.5.5 0 0 1 .94 0c1.18 3.39 2.73 7.93 4.53 9.66z"/><g><path d="M23.54 11.72a.49.49 0 0 1 .92 0c1.34 3.41 5.36 12.78 9 12.78 3.17 0 6.35-4.48 7.94-7.12a.51.51 0 0 1 .93.3L41.5 32c0 3.59-7.84 6.5-17.5 6.5S6.5 35.59 6.5 32l-.87-14.32a.51.51 0 0 1 .93-.3C8.15 20 11.33 24.5 14.5 24.5c3.68 0 7.7-9.37 9.04-12.78z" fill="#ffe500"/><path d="M12.39 36.86l16.39-16.39a52.56 52.56 0 0 1-4.32-8.75.49.49 0 0 0-.92 0c-1.34 3.41-5.36 12.78-9 12.78-3.17 0-6.35-4.48-7.94-7.12a.51.51 0 0 0-.93.3L6.5 32c0 1.93 2.29 3.66 5.89 4.86z" fill="#fff48c"/><path class="cls-5" d="M23.54 11.72a.49.49 0 0 1 .92 0c1.34 3.41 5.36 12.78 9 12.78 3.17 0 6.35-4.48 7.94-7.12a.51.51 0 0 1 .93.3L41.5 32c0 3.59-7.84 6.5-17.5 6.5S6.5 35.59 6.5 32l-.87-14.32a.51.51 0 0 1 .93-.3C8.15 20 11.33 24.5 14.5 24.5c3.68 0 7.7-9.37 9.04-12.78z"/></g><g><path class="cls-6" d="M27.5 28a3.5 3.5 0 0 0-7 0v2a3.5 3.5 0 0 0 7 0z"/><path d="M24 32a3.5 3.5 0 0 1-3.5-3.5V30a3.5 3.5 0 0 0 7 0v-1.5A3.5 3.5 0 0 1 24 32z" fill="#e04122"/><path class="cls-8" d="M24 24.5a3.5 3.5 0 0 0-3.5 3.5v2a1.9 1.9 0 0 0 0 .25 3.48 3.48 0 0 1 6.94 0 1.9 1.9 0 0 0 0-.25v-2A3.5 3.5 0 0 0 24 24.5z"/><path class="cls-5" d="M27.5 28a3.5 3.5 0 0 0-7 0v2a3.5 3.5 0 0 0 7 0z"/></g><circle class="cls-9" cx="35.5" cy="29.5" r="2"/><circle class="cls-9" cx="12.5" cy="29.5" r="2"/><g><path d="M6.5 37c0 3.59 7.84 6.5 17.5 6.5s17.5-2.91 17.5-6.5v-5c0 3.59-7.84 6.5-17.5 6.5S6.5 35.59 6.5 32z" fill="#c0dceb"/><path d="M24 38.5c-9.66 0-17.5-2.91-17.5-6.5v2.5c0 3.59 7.84 6.5 17.5 6.5s17.5-2.91 17.5-6.5V32c0 3.59-7.84 6.5-17.5 6.5z" fill="#e8f4fa"/><path class="cls-5" d="M6.5 37c0 3.59 7.84 6.5 17.5 6.5s17.5-2.91 17.5-6.5v-5c0 3.59-7.84 6.5-17.5 6.5S6.5 35.59 6.5 32z"/></g><g><circle class="cls-6" cx="14" cy="12.5" r="2.5"/><path class="cls-8" d="M12.23 14.27a2.5 2.5 0 0 1 3.54-3.54z"/><circle class="cls-5" cx="14" cy="12.5" r="2.5"/></g><g><circle class="cls-6" cx="34" cy="12.5" r="2.5"/><path class="cls-8" d="M32.23 14.27a2.5 2.5 0 0 1 3.54-3.54z"/><circle class="cls-5" cx="34" cy="12.5" r="2.5"/></g><g><circle class="cls-6" cx="5.5" cy="14.5" r="3"/><path class="cls-8" d="M3.38 16.62a3 3 0 0 1 4.24-4.24z"/><circle class="cls-5" cx="5.5" cy="14.5" r="3"/></g><g><circle class="cls-6" cx="24" cy="9.5" r="3"/><path class="cls-8" d="M21.88 11.62a3 3 0 0 1 4.24-4.24z"/><circle class="cls-5" cx="24" cy="9.5" r="3"/></g><g><circle class="cls-6" cx="42.5" cy="14.5" r="3"/><path class="cls-8" d="M40.38 16.62a3 3 0 1 1 4.24-4.24z"/><circle class="cls-5" cx="42.5" cy="14.5" r="3"/></g></g></g></svg>