<svg xmlns="http://www.w3.org/2000/svg" viewBox="0 0 48 48"><defs><style>.cls-1{fill:#656769}.cls-3,.cls-6{fill:none;stroke:#45413c;stroke-linecap:round;stroke-linejoin:round}.cls-6{fill:#ffe500}</style></defs><g><path class="cls-1" d="M36.57 29.6l-4.32 2.75a15.26 15.26 0 0 1-16.5 0l-4.32-2.75a3.44 3.44 0 0 1-1.56-2.9v-6h28.26v6a3.44 3.44 0 0 1-1.56 2.9z"/><path d="M38.13 20.69H9.87v4.64l10.66 6.24a6.84 6.84 0 0 0 6.94 0l10.66-6.24z" fill="#525252"/><path class="cls-3" d="M36.57 29.6l-4.32 2.75a15.26 15.26 0 0 1-16.5 0l-4.32-2.75a3.44 3.44 0 0 1-1.56-2.9v-6h28.26v6a3.44 3.44 0 0 1-1.56 2.9z"/><ellipse cx="24" cy="45.3" rx="13" ry="1.7" fill="#45413c" opacity=".15"/><path class="cls-1" d="M5.69 19.21l14.84 8.69a6.89 6.89 0 0 0 6.94 0l14.84-8.69a4.12 4.12 0 0 0-.16-7.21L27.2 4.14a6.84 6.84 0 0 0-6.4 0L5.85 12a4.12 4.12 0 0 0-.16 7.21z"/><path d="M42.15 12L27.2 4.14a6.84 6.84 0 0 0-6.4 0L5.85 12a4.12 4.12 0 0 0-1.59 5.79 3.89 3.89 0 0 1 1.59-1.13l15-6a8.83 8.83 0 0 1 6.4 0l15 6a3.89 3.89 0 0 1 1.59 1.13A4.12 4.12 0 0 0 42.15 12z" fill="#87898c"/><path class="cls-3" d="M5.69 19.21l14.84 8.69a6.89 6.89 0 0 0 6.94 0l14.84-8.69a4.12 4.12 0 0 0-.16-7.21L27.2 4.14a6.84 6.84 0 0 0-6.4 0L5.85 12a4.12 4.12 0 0 0-.16 7.21z"/><path class="cls-3" d="M22.32 16.21l-9.98 6.46v14.4"/><path class="cls-6" d="M11.65 39.13l-1.77 5.33a1.34 1.34 0 0 0 .46 1.54 3.45 3.45 0 0 0 2 .7 3.47 3.47 0 0 0 2-.7 1.34 1.34 0 0 0 .46-1.52L13 39.13z"/><circle class="cls-6" cx="12.34" cy="39.13" r="2.06"/><path class="cls-6" d="M26.74 15.12c0 .76-1.22 1.37-2.74 1.37s-2.74-.61-2.74-1.37 1.22-1.37 2.74-1.37 2.74.61 2.74 1.37z"/></g></svg>