<svg xmlns="http://www.w3.org/2000/svg" viewBox="0 0 48 48"><defs><style>.cls-1{fill:#ffe500}.cls-1,.cls-5,.cls-7,.cls-8{stroke:#45413c;stroke-linecap:round;stroke-linejoin:round}.cls-4{fill:#fff48c}.cls-5{fill:none}.cls-7{fill:#b8ecff}.cls-8{fill:#fff}</style></defs><path class="cls-1" d="M29.78 10.45a1.25 1.25 0 0 0-.93-.4h-9.7a1.25 1.25 0 0 0-.93.4 1.27 1.27 0 0 0 0 1.73L21.57 16h4.86l3.38-3.82a1.27 1.27 0 0 0-.03-1.73z"/><ellipse cx="24" cy="43.5" rx="11.5" ry="1.5" fill="#45413c" opacity=".15"/><path d="M24 14.5A14.5 14.5 0 1 0 38.5 29 14.5 14.5 0 0 0 24 14.5zm0 25A10.5 10.5 0 1 1 34.5 29 10.5 10.5 0 0 1 24 39.5z" fill="#ffe500"/><path class="cls-4" d="M24 17a14.5 14.5 0 0 1 14.44 13.25c0-.41.06-.83.06-1.25a14.5 14.5 0 0 0-29 0c0 .42 0 .84.06 1.25A14.5 14.5 0 0 1 24 17z"/><path class="cls-4" d="M24 42a10.5 10.5 0 0 0 10.5-10.5 10.36 10.36 0 0 0-.08-1.25 10.49 10.49 0 0 1-20.84 0 10.36 10.36 0 0 0-.08 1.25A10.5 10.5 0 0 0 24 42z"/><path id="_Compound_Path_2" class="cls-5" d="M24 14.5A14.5 14.5 0 1 0 38.5 29 14.5 14.5 0 0 0 24 14.5zm0 25A10.5 10.5 0 1 1 34.5 29 10.5 10.5 0 0 1 24 39.5z"/><path d="M29.52 6.4l-1.23-1.94a1 1 0 0 0-.84-.46h-6.9a1 1 0 0 0-.84.46L18.48 6.4a1 1 0 0 0 .06 1.16l4.72 6a.91.91 0 0 0 1.48 0l4.72-5.95a1 1 0 0 0 .06-1.21z" fill="#00b8f0" stroke="#45413c" stroke-linecap="round" stroke-linejoin="round"/><path class="cls-1" d="M23.19 10.14l-1.45 2a1 1 0 0 0-.17.75l.79 4.75a1 1 0 0 0 1 .84h1.3a1 1 0 0 0 1-.84l.79-4.75a1 1 0 0 0-.17-.75l-1.45-2a1 1 0 0 0-1.64 0z"/><path class="cls-7" d="M24 7h-5.68a1 1 0 0 1 .16-.6l1.23-1.94a.92.92 0 0 1 .42-.36z"/><path class="cls-7" d="M24 7h5.68a1 1 0 0 0-.16-.6l-1.23-1.94a.92.92 0 0 0-.42-.36z"/><path class="cls-5" d="M24 7v2.72"/><path class="cls-8" d="M8.39 12.16a2.38 2.38 0 0 1 1.8-1.8l3.61-.84a.3.3 0 0 0 0-.58l-3.61-.83a2.41 2.41 0 0 1-1.8-1.8L7.56 2.7a.3.3 0 0 0-.3-.23.29.29 0 0 0-.26.23l-.86 3.61a2.41 2.41 0 0 1-1.8 1.8l-3.61.83a.3.3 0 0 0 0 .58l3.61.84a2.38 2.38 0 0 1 1.8 1.8L7 15.77a.3.3 0 0 0 .29.23.31.31 0 0 0 .3-.23z"/><path class="cls-8" d="M43.32 41.62a1.8 1.8 0 0 1 1.33-1.34l2.68-.61a.23.23 0 0 0 0-.44l-2.68-.61a1.78 1.78 0 0 1-1.33-1.34l-.62-2.67a.22.22 0 0 0-.22-.17.21.21 0 0 0-.21.17l-.62 2.67a1.78 1.78 0 0 1-1.33 1.34l-2.68.61a.23.23 0 0 0 0 .44l2.68.61a1.8 1.8 0 0 1 1.33 1.34l.62 2.67a.21.21 0 0 0 .21.18.22.22 0 0 0 .22-.18z"/></svg>