<svg xmlns="http://www.w3.org/2000/svg" viewBox="0 0 48 48"><defs><style>.cls-9{fill:#45413c}.cls-3{fill:#fff48c}.cls-4{fill:none;stroke:#45413c;stroke-linecap:round;stroke-linejoin:round}.cls-5{fill:#bf8256}.cls-6{fill:#dea47a}</style></defs><g><ellipse cx="20.55" cy="44.5" rx="18" ry="1.5" opacity=".15" fill="#45413c"/><path d="M8.74 28.82L8 27.05a1.66 1.66 0 0 0-3.17.85c.65 5-.55 6.62-3 9.42a1.57 1.57 0 0 0 1.82 2.48 8.2 8.2 0 0 0 5.09-10.98z" fill="#ffe500"/><path class="cls-3" d="M5 29.6a1.66 1.66 0 0 1 3 0l.74 1.77a8.1 8.1 0 0 1 .51 1.75 8.09 8.09 0 0 0-.55-4.31L8 27.05a1.66 1.66 0 0 0-3.17.85c.08.62.17 1.18.17 1.7zM2.14 39.61c2.12-2.49 3.23-4.14 2.86-8.33-.22 2.56-1.34 4-3.1 6a1.56 1.56 0 0 0 .27 2.29z"/><path class="cls-4" d="M8.74 28.82L8 27.05a1.66 1.66 0 0 0-3.17.85c.65 5-.55 6.62-3 9.42a1.57 1.57 0 0 0 1.82 2.48 8.2 8.2 0 0 0 5.09-10.98z"/><path class="cls-4" d="M6.08 26.08l-.73-1.73"/><path class="cls-4" d="M7.07 23.63l-3.43 1.44"/><path class="cls-5" d="M30.69 19.37A1.91 1.91 0 1 0 34 21.28a3.75 3.75 0 0 1 4.74-1.59 7.75 7.75 0 0 1 4.45 9.07 15.09 15.09 0 0 1-14.6 11.3h-8l-.7 3.94h8.78a19.05 19.05 0 0 0 18.48-14.43 11.65 11.65 0 0 0-6.27-13.33 7.87 7.87 0 0 0-10.19 3.13z"/><g><path class="cls-6" d="M43.35 27.91a8 8 0 0 1-.16.85 15.09 15.09 0 0 1-14.6 11.3h-8l-.37 2.18h8.41A15.08 15.08 0 0 0 43.19 31a7.84 7.84 0 0 0 .16-3.09zM30.69 19.37a1.94 1.94 0 0 0 .09 2.06 7.85 7.85 0 0 1 10.1-3 11.63 11.63 0 0 1 6.56 9.38 11.65 11.65 0 0 0-6.56-11.57 7.87 7.87 0 0 0-10.19 3.13z"/></g><path class="cls-4" d="M30.7 19.37a1.91 1.91 0 1 0 3.3 1.91 3.75 3.75 0 0 1 4.74-1.59 7.75 7.75 0 0 1 4.45 9.07 15.09 15.09 0 0 1-14.6 11.3h-8l-.7 3.94h8.78a19.05 19.05 0 0 0 18.48-14.43 11.65 11.65 0 0 0-6.27-13.33 7.86 7.86 0 0 0-10.18 3.13z"/><path class="cls-5" d="M31.16 30.6A17.5 17.5 0 0 0 14 16.4v12l-4.29-.76A2.14 2.14 0 1 0 9 31.81l5 .77V35a5.33 5.33 0 0 0-1.54 4l.06 1h-.79A2.72 2.72 0 0 0 9 43.23a1 1 0 0 0 1 .77h14.14a7.57 7.57 0 0 0 7.58-7.57 30.8 30.8 0 0 0-.56-5.83z"/><path d="M14 26.26a11.29 11.29 0 0 0 10.24-6.54A17.47 17.47 0 0 0 14 16.4z" fill="#915e3a"/><path class="cls-4" d="M31.16 30.6A17.5 17.5 0 0 0 14 16.4v12l-4.29-.76A2.14 2.14 0 1 0 9 31.81l5 .77V35a5.33 5.33 0 0 0-1.54 4l.06 1h-.79A2.72 2.72 0 0 0 9 43.23a1 1 0 0 0 1 .77h14.14a7.57 7.57 0 0 0 7.58-7.57 30.8 30.8 0 0 0-.56-5.83z"/><path class="cls-5" d="M22.52 9.17h-.24a8.53 8.53 0 0 0-16.62 0 1.6 1.6 0 0 0-.23 0 3.28 3.28 0 0 0-3.28 3.29v.66a3.28 3.28 0 0 0 3.28 3.28h.23a8.53 8.53 0 0 0 16.62 0h.24a3.28 3.28 0 0 0 3.28-3.28v-.66a3.28 3.28 0 0 0-3.28-3.29z"/><path class="cls-6" d="M22.52 9.17a1.6 1.6 0 0 0-.23 0 8.54 8.54 0 0 0-16.63 0 1.6 1.6 0 0 0-.23 0 3.28 3.28 0 0 0-3.28 3.29v.66a3.39 3.39 0 0 0 .17 1 3.28 3.28 0 0 1 3.11-2.28 1.6 1.6 0 0 1 .23 0 8.54 8.54 0 0 1 16.63 0 1.6 1.6 0 0 1 .23 0 3.28 3.28 0 0 1 3.11 2.28 3.39 3.39 0 0 0 .17-1v-.66a3.28 3.28 0 0 0-3.28-3.29z"/><path class="cls-4" d="M22.52 9.17h-.24a8.53 8.53 0 0 0-16.62 0 1.6 1.6 0 0 0-.23 0 3.28 3.28 0 0 0-3.28 3.29v.66a3.28 3.28 0 0 0 3.28 3.28h.23a8.53 8.53 0 0 0 16.62 0h.24a3.28 3.28 0 0 0 3.28-3.28v-.66a3.28 3.28 0 0 0-3.28-3.29z"/><path d="M18.56 15.07a5.56 5.56 0 0 1 1.72 4 5.41 5.41 0 0 1-.18 1.34 8.53 8.53 0 0 1-12.89-.73 3.93 3.93 0 0 1-.07-.6 5.57 5.57 0 0 1 1.73-4 3.95 3.95 0 0 1 2.21-7.21 3.91 3.91 0 0 1 2.63 1 3.94 3.94 0 1 1 4.85 6.18z" fill="#ffdcd1" stroke="#45413c" stroke-linecap="round" stroke-linejoin="round"/><path class="cls-9" d="M18.56 11.88a1.31 1.31 0 1 1-1.23-1.38 1.3 1.3 0 0 1 1.23 1.38z"/><path class="cls-9" d="M12 11.88a1.31 1.31 0 1 1-1.24-1.38A1.31 1.31 0 0 1 12 11.88z"/><path class="cls-4" d="M11.35 18.37A3.74 3.74 0 0 0 14 19.69a3.77 3.77 0 0 0 2.63-1.32"/><path class="cls-4" d="M13.97 28.35l3.52.62"/><path class="cls-4" d="M21.43 25L23 29.4a3.06 3.06 0 0 1-3.34 4.05L14 32.58"/><path class="cls-4" d="M22.92 39.26a5.44 5.44 0 0 0-5.69-5.77A4.87 4.87 0 0 0 14 35"/></g></svg>