<svg xmlns="http://www.w3.org/2000/svg" viewBox="0 0 48 48"><defs><style>.cls-1{fill:#ffe500}.cls-2{fill:#fff48c}.cls-3{fill:none}.cls-10,.cls-15,.cls-3{stroke:#45413c;stroke-linecap:round;stroke-linejoin:round}.cls-4{fill:#fcd}.cls-5{fill:#ffb0ca}.cls-10{fill:#45413c}.cls-15{fill:#656769}</style></defs><g><circle class="cls-1" cx="11.86" cy="9.54" r="7.14"/><path class="cls-2" d="M11.86 5.75a7.16 7.16 0 0 1 7 5.46A7.56 7.56 0 0 0 19 9.54a7.14 7.14 0 1 0-14.27 0 7 7 0 0 0 .19 1.67 7.15 7.15 0 0 1 6.94-5.46z"/><circle class="cls-3" cx="11.86" cy="9.54" r="7.14"/><circle class="cls-1" cx="36.14" cy="9.54" r="7.14"/><path class="cls-2" d="M36.14 5.75a7.15 7.15 0 0 1 6.94 5.46 7 7 0 0 0 .19-1.67 7.14 7.14 0 1 0-14.27 0 7.56 7.56 0 0 0 .19 1.67 7.16 7.16 0 0 1 6.95-5.46z"/><circle class="cls-3" cx="36.14" cy="9.54" r="7.14"/><circle class="cls-4" cx="36.14" cy="9.41" r="3.63"/><circle class="cls-4" cx="11.86" cy="9.41" r="3.63"/><path class="cls-5" d="M36.14 7.86a3.62 3.62 0 0 1 3.46 2.59 3.54 3.54 0 0 0 .17-1 3.64 3.64 0 0 0-7.27 0 3.54 3.54 0 0 0 .17 1 3.63 3.63 0 0 1 3.47-2.59z"/><path class="cls-5" d="M11.86 7.86a3.63 3.63 0 0 1 3.47 2.59 3.54 3.54 0 0 0 .17-1 3.64 3.64 0 0 0-7.27 0 3.54 3.54 0 0 0 .17 1 3.62 3.62 0 0 1 3.46-2.59z"/><circle class="cls-3" cx="36.14" cy="9.41" r="3.63"/><circle class="cls-3" cx="11.86" cy="9.41" r="3.63"/><path d="M30.42 38.68c0 2-2.87 3.57-6.42 3.57s-6.42-1.6-6.42-3.57 2.87-3.57 6.42-3.57 6.42 1.6 6.42 3.57z" fill="#fff"/><path d="M24 35.11c-3.13 0-5.73 1.24-6.3 2.89.57 1.61 3.17 2.82 6.3 2.82s5.73-1.21 6.3-2.82c-.57-1.65-3.17-2.89-6.3-2.89z" fill="#f0f0f0"/><path class="cls-3" d="M30.42 38.68c0 2-2.87 3.57-6.42 3.57s-6.42-1.6-6.42-3.57 2.87-3.57 6.42-3.57 6.42 1.6 6.42 3.57z"/><ellipse cx="24" cy="45.25" rx="13.43" ry="1.75" opacity=".15" fill="#45413c"/><path d="M32.57 25.83c-3.65 0-6.82 1.33-8.57 3.3-1.75-2-4.92-3.3-8.57-3.3-5.52 0-10 3-10 6.78s4.47 6.78 10 6.78c3.65 0 6.82-1.32 8.57-3.3 1.75 2 4.92 3.3 8.57 3.3 5.52 0 10-3 10-6.78s-4.48-6.78-10-6.78z" fill="#fff" stroke="#45413c" stroke-linecap="round" stroke-linejoin="round"/><path class="cls-1" d="M24 5.91A15.68 15.68 0 0 0 8.39 20.12l-.81 8.63.78.16A30.28 30.28 0 0 0 21 28.72l3-.72 3.57.76a30.1 30.1 0 0 0 12.85-.05l-.81-8.63A15.68 15.68 0 0 0 24 5.91z"/><path class="cls-2" d="M39.61 20.12a15.68 15.68 0 0 0-31.22 0L8 24.67c.76-8.06 8-14.22 16-14.22s15.29 6.16 16 14.22z"/><path class="cls-3" d="M24 5.91A15.68 15.68 0 0 0 8.39 20.12l-.81 8.63.78.16A30.28 30.28 0 0 0 21 28.72l3-.72 3.57.76a30.1 30.1 0 0 0 12.85-.05l-.81-8.63A15.68 15.68 0 0 0 24 5.91z"/><circle class="cls-10" cx="31.42" cy="25.01" r="1.58"/><circle class="cls-10" cx="16.58" cy="25.01" r="1.58"/><path class="cls-2" d="M39.52 33.19c0 .55-.86 1-1.92 1s-1.92-.45-1.92-1 .86-1 1.92-1 1.92.45 1.92 1z"/><path class="cls-2" d="M12.32 33.19c0 .55-.86 1-1.92 1s-1.92-.45-1.92-1 .86-1 1.92-1 1.92.45 1.92 1z"/><path d="M27.57 29.66c0 1.18-1.6 2.85-3.57 2.85s-3.57-1.67-3.57-2.85S22 27.52 24 27.52s3.57.96 3.57 2.14z" fill="#b89558"/><path d="M24 29.49a4.16 4.16 0 0 1 3.21 1.22 2.07 2.07 0 0 0 .36-1.05c0-1.18-1.6-2.14-3.57-2.14s-3.57 1-3.57 2.14a2.07 2.07 0 0 0 .36 1.05A4.16 4.16 0 0 1 24 29.49z" fill="#debb7e"/><path class="cls-3" d="M27.57 29.66c0 1.18-1.6 2.85-3.57 2.85s-3.57-1.67-3.57-2.85S22 27.52 24 27.52s3.57.96 3.57 2.14z"/><path d="M30.43 10.58a1.18 1.18 0 0 1-1.17 1.17h-2.92v2.33h2a.94.94 0 0 1 .94.94v.47a.94.94 0 0 1-.94.93h-2v1.17a2.34 2.34 0 0 1-4.67 0v-1.17h-2a.93.93 0 0 1-.93-.93V15a.94.94 0 0 1 .93-.94h2v-2.31h-2.92a1.17 1.17 0 0 1 0-2.34h2.92V6.08a16.12 16.12 0 0 1 4.67 0v3.33h2.92a1.18 1.18 0 0 1 1.17 1.17z" fill="#656769"/><path d="M18.75 11.75h10.51a1.17 1.17 0 0 0 0-2.34h-2.92V6.08a16.12 16.12 0 0 0-4.67 0v3.33h-2.92a1.17 1.17 0 0 0 0 2.34z" fill="#87898c"/><path class="cls-3" d="M30.43 10.58a1.18 1.18 0 0 1-1.17 1.17h-2.92v2.33h2a.94.94 0 0 1 .94.94v.47a.94.94 0 0 1-.94.93h-2v1.17a2.34 2.34 0 0 1-4.67 0v-1.17h-2a.93.93 0 0 1-.93-.93V15a.94.94 0 0 1 .93-.94h2v-2.31h-2.92a1.17 1.17 0 0 1 0-2.34h2.92V6.08a16.12 16.12 0 0 1 4.67 0v3.33h2.92a1.18 1.18 0 0 1 1.17 1.17z"/><g><path class="cls-15" d="M8.29 21.09h2.86a1.17 1.17 0 1 0 0-2.33H8.57c-.07.42-.14.86-.18 1.3z"/><path class="cls-15" d="M11.15 25.18A1.17 1.17 0 0 0 10 24H8l-.2 2.35H10a1.17 1.17 0 0 0 1.15-1.17z"/></g><g><path class="cls-15" d="M40 24h-2a1.17 1.17 0 1 0 0 2.34h2.2z"/><path class="cls-15" d="M36.85 21.09h2.86l-.1-1c0-.44-.11-.88-.18-1.3h-2.58a1.17 1.17 0 1 0 0 2.33z"/></g></g></svg>