<svg xmlns="http://www.w3.org/2000/svg" viewBox="0 0 48 48"><defs><style>.cls-4,.cls-5{fill:none;stroke:#45413c;stroke-linecap:round;stroke-linejoin:round}.cls-5{fill:#fff}.cls-6{fill:#656769}.cls-7{fill:#87898c}</style></defs><ellipse cx="26.51" cy="44.29" rx="16.51" ry="1.71" opacity=".15" fill="#45413c"/><path d="M43.94 34.74c-1.73.22-.55 2.69-1.92 2.62s-1.55-2.4-1.47-5.87-.34-5.76-1.48-7.16-4.47-3.73-10.78-2.62-8.23.36-11-.41a30 30 0 0 0-4.57-.85c-.91-.18-1.12-.77-1.82-1.28 0-.05.25-1.7-1-1.92s-1.8 1.19-1.82 1.25a4.12 4.12 0 0 0-1 .22 6.47 6.47 0 0 0-3 2.65c-.22.52.18 1.22-.52 2S2.21 25 2.64 25.73c.81 1.39 1.5 2.32 2.19 2.47s2.66-1.08 4.17-.39 1.61 4.82 5.06 6.31a24.15 24.15 0 0 0 .84 2.28c1 2.28 1.25 4.54.7 5.35-.42.61-1 .78-1.22 1.44a.6.6 0 0 0 .56.81H18a.59.59 0 0 0 .4-.15 3.46 3.46 0 0 0 1-2.14c.15-1.3-.45-4.3-.26-6.51a14.12 14.12 0 0 0 6.75-1.2 29.52 29.52 0 0 1 4.53-1.67 17.35 17.35 0 0 0 3.54 5c2.07 1.77 2.66 2.9 2.61 3.88s-1.18.71-1.46 2.12a.59.59 0 0 0 .58.69h2.61a.58.58 0 0 0 .46-.22 4.64 4.64 0 0 0 .76-2.49 5 5 0 0 0-.41-3 3.66 3.66 0 0 0 2 1.5c2.51.74 3.32-1 4-2.22s.57-3.08-1.17-2.85z" fill="#ffaa54"/><g><path d="M3.23 26.69l.33-.38c.7-.82.3-1.52.52-2a6.43 6.43 0 0 1 3-2.66c.47-.14.55-1.11.92-1.13a2.15 2.15 0 0 1 1.88-.34 1.56 1.56 0 0 1 1.41 1.27 2.86 2.86 0 0 0 1.91 1.69 38 38 0 0 1 4.06 1.09c2.81.78 4.73 1.52 11 .41s9.64 1.22 10.78 2.62c.92 1.13 1.36 2.83 1.46 5.27v-1c.07-3.47-.34-5.76-1.48-7.16s-4.42-3.77-10.73-2.66-8.23.36-11-.41a30 30 0 0 0-4.57-.85c-.91-.18-1.12-.77-1.82-1.28 0-.05.25-1.7-1-1.92s-1.8 1.19-1.82 1.25a4.21 4.21 0 0 0-1 .22 6.47 6.47 0 0 0-3 2.65c-.22.52.18 1.22-.52 2S2.21 25 2.64 25.73c.2.35.36.67.59.96z" fill="#fc9"/></g><path class="cls-4" d="M43.94 34.74c-1.73.22-.55 2.69-1.92 2.62s-1.55-2.4-1.47-5.87-.34-5.76-1.48-7.16-4.47-3.73-10.78-2.62-8.23.36-11-.41a30 30 0 0 0-4.57-.85c-.91-.18-1.12-.77-1.82-1.28 0-.05.25-1.7-1-1.92s-1.8 1.19-1.82 1.25a4.12 4.12 0 0 0-1 .22 6.47 6.47 0 0 0-3 2.65c-.22.52.18 1.22-.52 2S2.21 25 2.64 25.73c.81 1.39 1.5 2.32 2.19 2.47s2.66-1.08 4.17-.39 1.61 4.82 5.06 6.31a24.15 24.15 0 0 0 .84 2.28c1 2.28 1.25 4.54.7 5.35-.42.61-1 .78-1.22 1.44a.6.6 0 0 0 .56.81H18a.59.59 0 0 0 .4-.15 3.46 3.46 0 0 0 1-2.14c.15-1.3-.45-4.3-.26-6.51a14.12 14.12 0 0 0 6.75-1.2 29.52 29.52 0 0 1 4.53-1.67 17.35 17.35 0 0 0 3.54 5c2.07 1.77 2.66 2.9 2.61 3.88s-1.18.71-1.46 2.12a.59.59 0 0 0 .58.69h2.61a.58.58 0 0 0 .46-.22 4.64 4.64 0 0 0 .76-2.49 5 5 0 0 0-.41-3 3.66 3.66 0 0 0 2 1.5c2.51.74 3.32-1 4-2.22s.57-3.08-1.17-2.85z"/><path class="cls-4" d="M37.34 27.2c.51.48.51 1 .51 5s.78 6.9 3.29 7.64"/><path class="cls-4" d="M19.78 32.33a9.35 9.35 0 0 0 .1-2.5"/><g><path class="cls-5" d="M12.31 29.79c-.85-.89-.52-2.84-.52-4.62s-.88-2.8-2.8-2.58-2.81 2.58-4.1 2.41a2.76 2.76 0 0 0-2.25.78c.81 1.39 1.5 2.32 2.19 2.47s2.66-1.13 4.17-.44 1.61 4.82 5.06 6.31c-.64-1.85-1.16-3.71-1.75-4.33z"/></g><path class="cls-5" d="M24.56 31.34a19.77 19.77 0 0 1-4.78 1s-.15.74-.38 1.56a6 6 0 0 0-.26 1.31A14.12 14.12 0 0 0 25.89 34a30.22 30.22 0 0 1 4.53-1.67c-1.24-2.2-3.25-1.86-5.86-.99z"/><path class="cls-6" d="M17.25 21.3a19.28 19.28 0 0 0-2.35-.54 8.49 8.49 0 0 1 1.19 2.84 21.17 21.17 0 0 1 .42 2.4.58.58 0 0 0 1 .29 7.61 7.61 0 0 0 1.38-4.53z"/><path class="cls-6" d="M29.27 21.56a8.6 8.6 0 0 1 2.09 2.77 18.94 18.94 0 0 1 .93 2.25.59.59 0 0 0 1.1.06 7.69 7.69 0 0 0 .33-4.81l-.06-.25a15.58 15.58 0 0 0-4.39-.02z"/><path class="cls-6" d="M26.32 22.93a5.63 5.63 0 0 0-.15-.9 23.7 23.7 0 0 1-4 .23 10.89 10.89 0 0 1 1.45 3.13c.34 1.23.54 2.11.65 2.75a.59.59 0 0 0 1.1.19 9.86 9.86 0 0 0 .95-5.4z"/><path class="cls-7" d="M31.35 24.32a13.5 13.5 0 0 1 2.57.21 9.43 9.43 0 0 0-.2-2.7l-.06-.25a15.58 15.58 0 0 0-4.39 0 8.4 8.4 0 0 1 2.08 2.74zM26.33 24.91a14.61 14.61 0 0 0 0-2 5.63 5.63 0 0 0-.15-.9 23.7 23.7 0 0 1-4 .23 10.9 10.9 0 0 1 1.38 2.9c.83-.01 1.73-.09 2.77-.23zM16.16 23.89l1.09.31 1.23.34a8.9 8.9 0 0 0 .46-2.78l-1.69-.46a19.28 19.28 0 0 0-2.35-.54 8.49 8.49 0 0 1 1.19 2.84c.02.1.05.19.07.29z"/><path class="cls-4" d="M17.25 21.3a19.28 19.28 0 0 0-2.35-.54 8.49 8.49 0 0 1 1.19 2.84 21.17 21.17 0 0 1 .42 2.4.58.58 0 0 0 1 .29 7.61 7.61 0 0 0 1.38-4.53z"/><path class="cls-4" d="M29.27 21.56a8.6 8.6 0 0 1 2.09 2.77 18.94 18.94 0 0 1 .93 2.25.59.59 0 0 0 1.1.06 7.69 7.69 0 0 0 .33-4.81l-.06-.25a15.58 15.58 0 0 0-4.39-.02z"/><path class="cls-4" d="M26.32 22.93a5.63 5.63 0 0 0-.15-.9 23.7 23.7 0 0 1-4 .23 10.89 10.89 0 0 1 1.45 3.13c.34 1.23.54 2.11.65 2.75a.59.59 0 0 0 1.1.19 9.86 9.86 0 0 0 .95-5.4z"/><circle cx="6.63" cy="21.92" r=".59" fill="#45413c"/></svg>