<svg xmlns="http://www.w3.org/2000/svg" viewBox="0 0 48 48"><defs><style>.cls-3{fill:none;stroke:#45413c;stroke-linecap:round;stroke-linejoin:round}</style></defs><path d="M8.72 18.86L3.1 12.67a.87.87 0 0 1-.14-1H3a.86.86 0 0 1 1-.38l8.62 3.05z" fill="#fffacf"/><path d="M3.34 12.94a.89.89 0 0 1 .68 0l7.55 2.68 1.07-1.23L4 11.29a.86.86 0 0 0-1 .42.87.87 0 0 0 .14 1z" fill="#fffce5"/><path class="cls-3" d="M8.72 18.86L3.1 12.67a.87.87 0 0 1-.14-1H3a.86.86 0 0 1 1-.38l8.62 3.05z"/><path d="M17.47 10.75l25.45 15a26.42 26.42 0 0 0 .35-4.29c0-.76 0-1.52-.11-2.27a3.67 3.67 0 0 0-2.86-3.29 4.89 4.89 0 0 0-.53-.09 7.82 7.82 0 0 0-.63-1.15 6.54 6.54 0 0 0-5.43-3.07 8.52 8.52 0 0 0-1-1.54 6.46 6.46 0 0 0-5.28-2.4c-.11-.12-.2-.23-.32-.35a6.58 6.58 0 0 0-5.93-1.89 8.55 8.55 0 0 0-8.22-.51C7.13 7.49 9 15.79 13.83 15.43c2.82-.2 4.9-3.15 3.64-4.68z" fill="#fcd"/><path d="M21.14 8.33a6.53 6.53 0 0 1 5.93 1.89c.12.11.21.22.32.34A6.48 6.48 0 0 1 32.67 13a8.52 8.52 0 0 1 1 1.54 6.54 6.54 0 0 1 5.43 3.07 7.82 7.82 0 0 1 .63 1.15 6.51 6.51 0 0 1 3.45 1.53v-.9A3.83 3.83 0 0 0 40 15.84h-.24a7.82 7.82 0 0 0-.63-1.15 6.54 6.54 0 0 0-5.43-3.07 8.52 8.52 0 0 0-1-1.54 6.45 6.45 0 0 0-5.28-2.4c-.11-.12-.2-.23-.32-.35a6.58 6.58 0 0 0-5.93-1.89 8.55 8.55 0 0 0-8.22-.51 5.91 5.91 0 0 0-3.45 6.89 5.83 5.83 0 0 1 3.42-4 8.52 8.52 0 0 1 8.22.51z" fill="#ffe5ee"/><path class="cls-3" d="M17.47 10.75l25.45 15a26.42 26.42 0 0 0 .35-4.29c0-.76 0-1.52-.11-2.27a3.67 3.67 0 0 0-2.86-3.29 4.89 4.89 0 0 0-.53-.09 7.82 7.82 0 0 0-.63-1.15 6.54 6.54 0 0 0-5.43-3.07 8.52 8.52 0 0 0-1-1.54 6.46 6.46 0 0 0-5.28-2.4c-.11-.12-.2-.23-.32-.35a6.58 6.58 0 0 0-5.93-1.89 8.55 8.55 0 0 0-8.22-.51C7.13 7.49 9 15.79 13.83 15.43c2.82-.2 4.9-3.15 3.64-4.68z"/><path class="cls-3" d="M29.9 12.18a13.37 13.37 0 0 0-2.5-4.53"/><path d="M16.3 32.67l2.66-3 2.41-.3a33.08 33.08 0 0 0 5 12.66 4.21 4.21 0 0 0 6 1A26.91 26.91 0 0 0 43 25.57L29.49 15A31.27 31.27 0 0 0 25 12.12a11.85 11.85 0 0 0-6.7-1.49A11.24 11.24 0 0 0 9 17.57L4.79 27.83A5.59 5.59 0 0 0 10 35.5a8.48 8.48 0 0 0 6.3-2.83z" fill="#e5f8ff"/><path d="M9 22.15a11.24 11.24 0 0 1 9.36-6.94 11.94 11.94 0 0 1 6.7 1.5 29.63 29.63 0 0 1 4.46 2.9l12.57 9.84a26.34 26.34 0 0 0 .91-3.88L29.49 15A31.27 31.27 0 0 0 25 12.12a11.85 11.85 0 0 0-6.7-1.49A11.24 11.24 0 0 0 9 17.57L4.79 27.83a5.49 5.49 0 0 0 .09 4.36z" fill="#fff"/><ellipse cx="24" cy="45.5" rx="11.5" ry="1.5" opacity=".15" fill="#45413c"/><path class="cls-3" d="M35 14.92a15.3 15.3 0 0 0-1.31-3.33"/><path class="cls-3" d="M40.81 19.34a13.74 13.74 0 0 0-1-3.53"/><path d="M17.15 19.76a.9.9 0 1 1-.9-.9.9.9 0 0 1 .9.9z" fill="#45413c" stroke="#45413c" stroke-linecap="round" stroke-linejoin="round"/><path d="M19.87 23.38c0 .55.67 1 1.5 1s1.5-.45 1.5-1-.67-1-1.5-1-1.5.44-1.5 1z" fill="#ffb0ca"/><path class="cls-3" d="M7.52 31.51a1.18 1.18 0 0 1 .6-1.51"/><path class="cls-3" d="M21.37 29.4a6 6 0 0 0 3.9-2.09 5.93 5.93 0 0 0 1.35-4.2l-.13-1.84"/><path class="cls-3" d="M16.3 32.67l2.66-3 2.41-.3a33.08 33.08 0 0 0 5 12.66 4.21 4.21 0 0 0 6 1A26.91 26.91 0 0 0 43 25.57L29.49 15A31.27 31.27 0 0 0 25 12.12a11.85 11.85 0 0 0-6.7-1.49A11.24 11.24 0 0 0 9 17.57L4.79 27.83A5.59 5.59 0 0 0 10 35.5a8.48 8.48 0 0 0 6.3-2.83z"/><path d="M9.53 12a4.23 4.23 0 0 0 4.3 3.48c3.15-.23 4.21-4.32 2.1-5.6-1.86-1.13-3.76.65-2.71 1.53" fill="#fcd" stroke="#45413c" stroke-linecap="round" stroke-linejoin="round"/><path d="M21.4 13.14a3.32 3.32 0 0 0-.23-4.71l-1.12-1.09a1.27 1.27 0 0 0-1.61-.06.79.79 0 0 0-.31.69l.56 5.17" fill="#fff" stroke="#45413c" stroke-linecap="round" stroke-linejoin="round"/></svg>