<svg xmlns="http://www.w3.org/2000/svg" viewBox="0 0 48 48"><defs><style>.cls-4{fill:none;stroke:#45413c;stroke-linecap:round;stroke-linejoin:round}.cls-6{fill:#fffacf}</style></defs><ellipse cx="26.66" cy="44.25" rx="18.67" ry="1.75" opacity=".15" fill="#45413c"/><path d="M9.89 18.25c1.62 3.88 1.8 7.55 5.61 11.21a11.32 11.32 0 0 1 3.4 9.68c-.24 1.46-2 2.09-2.28 2.91a4.66 4.66 0 0 0-.1 2h4.69a5.84 5.84 0 0 0 1.27-2.53c.45-1.76-.44-7.73.71-10.6s1.7 1.41 6.31 1.41 5.82-.85 5.87-.89c1.12 3 4.28 5 4.78 6.09s0 3.55-1.45 3.94S37.58 44 37.58 44h5.64s1.85-8.56 1-9.63-1.65-2.62-.87-5.35 3.11-8.46.58-11.28-6.81-3-10.8-2.14-5.35.1-8.85-.58-4.08 1.07-6.8.1S14 9.47 11.27 9c-3.94-.63-4.62 3-5.88 3.4s-3 .64-3.26 1.61-.28 4 2.19 3.7c2.68-.28 3.45.75 5.57.54z" fill="#87898c"/><g><path d="M5.39 15.92c1.26-.39 1.94-4 5.88-3.41 2.77.44 3.45 5.11 6.18 6.08s3.3-.78 6.8-.09 4.87 1.45 8.85.58 8.27-.68 10.8 2.14a4.39 4.39 0 0 1 1 2c.33-2.06.24-4.11-1-5.47-2.53-2.82-6.81-3-10.8-2.14s-5.35.1-8.85-.58-4.08 1.07-6.8.1S14 9.47 11.27 9c-3.94-.63-4.62 3-5.88 3.4s-3 .64-3.26 1.61A4 4 0 0 0 2.49 17a8.9 8.9 0 0 1 2.9-1.08z" fill="#bdbec0"/></g><path class="cls-4" d="M9.89 18.25c1.62 3.88 1.8 7.55 5.61 11.21a11.32 11.32 0 0 1 3.4 9.68c-.24 1.46-2 2.09-2.28 2.91a4.66 4.66 0 0 0-.1 2h4.69a5.84 5.84 0 0 0 1.27-2.53c.45-1.76-.44-7.73.71-10.6s1.7 1.41 6.31 1.41 5.82-.85 5.87-.89c1.12 3 4.28 5 4.78 6.09s0 3.55-1.45 3.94S37.58 44 37.58 44h5.64s1.85-8.56 1-9.63-1.65-2.62-.87-5.35 3.11-8.46.58-11.28-6.81-3-10.8-2.14-5.35.1-8.85-.58-4.08 1.07-6.8.1S14 9.47 11.27 9c-3.94-.63-4.62 3-5.88 3.4s-3 .64-3.26 1.61-.28 4 2.19 3.7c2.68-.28 3.45.75 5.57.54z"/><path class="cls-4" d="M35.37 31.39a4.56 4.56 0 0 1-.18-.52 12.75 12.75 0 0 1 .1-6.52"/><path class="cls-4" d="M23.19 30.87a4.88 4.88 0 0 1 2.64-2.63"/><path d="M11.18 10.8c0-1.93 3.46-1.29 5.31-2.14s2.15-1.93.76-3.17c2.79 0 3.75 2 2.42 3.8a9.18 9.18 0 0 1-5.88 3.08c-2.11.33-2.61-.49-2.61-1.57z" fill="#fffce5"/><g><path class="cls-6" d="M17.86 6.18a1.14 1.14 0 0 0 .25-.63 5.71 5.71 0 0 0-.86-.06 2.91 2.91 0 0 1 .61.69z"/><path class="cls-6" d="M19.67 7.79a9.09 9.09 0 0 1-5.88 3.08c-1.48.23-2.17-.1-2.44-.69a1.19 1.19 0 0 0-.17.62c0 1.08.5 1.9 2.61 1.57a9.18 9.18 0 0 0 5.88-3.08A2.41 2.41 0 0 0 20.12 7a3 3 0 0 1-.45.79z"/></g><path class="cls-4" d="M11.18 10.8c0-1.93 3.46-1.29 5.31-2.14s2.15-1.93.76-3.17c2.79 0 3.75 2 2.42 3.8a9.18 9.18 0 0 1-5.88 3.08c-2.11.33-2.61-.49-2.61-1.57z"/><path d="M14.28 12.3c2.74.11 2.89 3.51 2.89 3.51a4.81 4.81 0 0 1-2.89-.92" stroke="#45413c" stroke-linecap="round" stroke-linejoin="round" fill="#bdbec0"/><circle cx="8.86" cy="12.88" r=".88" fill="#45413c"/></svg>