<svg xmlns="http://www.w3.org/2000/svg" viewBox="0 0 48 48"><defs><style>.cls-4{fill:none;stroke:#45413c;stroke-linecap:round;stroke-linejoin:round}</style></defs><g><ellipse cx="22.95" cy="44.5" rx="18.5" ry="1.5" opacity=".15" fill="#45413c"/><path d="M41.86 23.75c-1.62-3.63-5-6.69-17.25-6.69-9.18 0-12.12 2.13-15.25 3.75s-4.25 4.13-5.25 5.57A3.49 3.49 0 0 1 2 27.7a1 1 0 0 0-.77 1l.57 4.74s.4.58 3.71.9c2.36.22 3.39 1.34 7.18 2.51a35.3 35.3 0 0 1 .9 4.67 13.17 13.17 0 0 1-.05 1.89.49.49 0 0 0 .46.59h2.58a.5.5 0 0 0 .5-.46 14 14 0 0 1 .85-3.73 17.26 17.26 0 0 0 .62-1.81c5.06.47 11 .17 15.73-1.59.94 1.66 2.17 2.9 2.21 3.88a16.8 16.8 0 0 1-.27 3.17.49.49 0 0 0 .49.58h2.88a.5.5 0 0 0 .5-.46 44.33 44.33 0 0 1 1.27-8.1c.94-2.92 2.13-8.1.5-11.73z" fill="#ffdcd1"/><path d="M42.31 25a7.2 7.2 0 0 0-.45-1.28c-1.62-3.63-5-6.69-17.25-6.69-9.18 0-12.12 2.13-15.25 3.75A11.31 11.31 0 0 0 5 25.07a47.72 47.72 0 0 1 5.3-3.23c3.7-1.9 9.7-2.53 15.11-2.53 5.01 0 12.59.11 16.9 5.69z" fill="#ffe8e0"/><path class="cls-4" d="M41.86 23.75c-1.62-3.63-5-6.69-17.25-6.69-9.18 0-12.12 2.13-15.25 3.75s-4.25 4.13-5.25 5.57A3.49 3.49 0 0 1 2 27.7a1 1 0 0 0-.77 1l.57 4.74s.4.58 3.71.9c2.36.22 3.39 1.34 7.18 2.51a35.3 35.3 0 0 1 .9 4.67 13.17 13.17 0 0 1-.05 1.89.49.49 0 0 0 .46.59h2.58a.5.5 0 0 0 .5-.46 14 14 0 0 1 .85-3.73 17.26 17.26 0 0 0 .62-1.81c5.06.47 11 .17 15.73-1.59.94 1.66 2.17 2.9 2.21 3.88a16.8 16.8 0 0 1-.27 3.17.49.49 0 0 0 .49.58h2.88a.5.5 0 0 0 .5-.46 44.33 44.33 0 0 1 1.27-8.1c.94-2.92 2.13-8.1.5-11.73z"/><path d="M12.55 20.71A3.09 3.09 0 0 0 10.61 19a18.43 18.43 0 0 1-2.31-.88 1 1 0 0 0-1.45.58c-.47 1.43.08 3 2.64 4.43" stroke="#45413c" stroke-linecap="round" stroke-linejoin="round" fill="#ffdcd1"/><path class="cls-4" d="M34.28 36.37a7.13 7.13 0 0 1-1-3.81"/><path class="cls-4" d="M18.55 38a9.14 9.14 0 0 0 .26-3.15"/><path d="M7.62 26.19a.92.92 0 1 1-.92-.92.92.92 0 0 1 .92.92z" fill="#45413c"/><path class="cls-4" d="M41.49 23a2.35 2.35 0 0 0 2.25-2.29c.14-2.25-1.58-3.22-2.3-2.3-1.14 1.45 2.64 5.32 5.06 2.3"/></g></svg>