<svg xmlns="http://www.w3.org/2000/svg" viewBox="0 0 48 48"><defs><style>.cls-4{fill:#f0c2a1}.cls-5{stroke:#45413c;stroke-linecap:round;stroke-linejoin:round}.cls-3{fill:#dea47a}.cls-5{fill:none}</style></defs><g><path d="M22.1 7.12s4.06-4.81 6.12-4.71.42 3.59.42 3.59" stroke="#45413c" stroke-linecap="round" stroke-linejoin="round" fill="#f0c2a1"/><ellipse cx="24.93" cy="44.15" rx="13.6" ry="1.85" opacity=".15" fill="#45413c"/><path class="cls-3" d="M20.08 8.08C12.59 12.2 14 16.32 9.15 18s-6.39.52-7 1.86S3 29.1 4.62 30.23s5.87-.72 5.87-.72-1.38 3 .55 4.12 3.47-1.13 5.84-.92a33.45 33.45 0 0 0 9.28.1c4.32-.62 7.42.93 10.92 3.71.22.17.42.35.62.52a4.07 4.07 0 0 0 6.62-1.49A29.61 29.61 0 0 0 46 26.42c.31-10-1.44-12.67-4.53-14.73s-11.3-9.18-21.39-3.61z"/><g><path class="cls-4" d="M9.15 21.58c4.85-1.65 3.44-5.77 10.93-9.89 10.09-5.57 18.34 1.54 21.43 3.6 2.65 1.77 4.31 4 4.54 10.91.27-9.81-1.47-12.47-4.54-14.51S30.17 2.51 20.08 8.08C12.59 12.2 14 16.32 9.15 18s-6.39.52-7 1.86a8.58 8.58 0 0 0 .06 3.49c.66-1.18 2.25-.17 6.94-1.77z"/><path class="cls-4" d="M10.49 33.12z"/></g><path class="cls-5" d="M20.08 8.08C12.59 12.2 14 16.32 9.15 18s-6.39.52-7 1.86S3 29.1 4.62 30.23s5.87-.72 5.87-.72-1.38 3 .55 4.12 3.47-1.13 5.84-.92a33.45 33.45 0 0 0 9.28.1c4.32-.62 7.42.93 10.92 3.71.22.17.42.35.62.52a4.07 4.07 0 0 0 6.62-1.49A29.61 29.61 0 0 0 46 26.42c.31-10-1.44-12.67-4.53-14.73s-11.3-9.18-21.39-3.61z"/><path class="cls-3" d="M24.31 10.19a15.78 15.78 0 0 1 5.93-4.84c3.91-1.86 4.94-1.75 5.35-.52s-1 5.46-1.54 7-3.05 1.66-4.05 3"/><path class="cls-4" d="M28.45 8.19c4.22-1.4 6.09-1.68 7-1.21a4.9 4.9 0 0 0 .13-2.15c-.41-1.23-1.44-1.34-5.35.52a16.14 16.14 0 0 0-5.67 4.49 25.56 25.56 0 0 1 3.89-1.65z"/><path class="cls-5" d="M24.31 10.19a15.78 15.78 0 0 1 5.93-4.84c3.91-1.86 4.94-1.75 5.35-.52s-1 5.46-1.54 7-3.05 1.66-4.05 3"/><path d="M18.08 28.38c-1.4 1-4.25-.35-5-3.94a10.19 10.19 0 0 1-.24-3.18.62.62 0 0 1 1.16-.16c.57 1.36 1.58 3 3.18 3.34 2.82.56 1.75 3.32.9 3.94z" fill="#fff"/><path d="M18.08 26.46c-1.4 1-4.25-.35-5-3.94a10.64 10.64 0 0 1-.21-1.35v.09a10.19 10.19 0 0 0 .24 3.18c.77 3.59 3.62 5 5 3.94a2.62 2.62 0 0 0 .7-2.94 2.5 2.5 0 0 1-.73 1.02z" fill="#e0e0e0"/><path class="cls-5" d="M18.08 28.38c-1.4 1-4.25-.35-5-3.94a10.19 10.19 0 0 1-.24-3.18.62.62 0 0 1 1.16-.16c.57 1.36 1.58 3 3.18 3.34 2.82.56 1.75 3.32.9 3.94z"/><path class="cls-5" d="M10.49 29.51c2.57-1 5-.66 6.74-.82"/><path d="M20.23 17.56A1.24 1.24 0 1 1 19 16.32a1.24 1.24 0 0 1 1.23 1.24z" fill="#45413c" stroke="#45413c" stroke-linecap="round" stroke-linejoin="round"/><path d="M28.17 20.6a6.44 6.44 0 0 1 5.56 3 .62.62 0 0 1-.47.94 4.45 4.45 0 0 0-2.67 1.13 5.53 5.53 0 0 1 2.88 2 .63.63 0 0 1-.5 1 4.48 4.48 0 0 0-2.77 1.14 4.35 4.35 0 0 1 1.54 3.66.61.61 0 0 1-.92.4 7.63 7.63 0 0 0-4.66-1" fill="#dea47a" stroke="#45413c" stroke-linecap="round" stroke-linejoin="round"/></g></svg>