<svg xmlns="http://www.w3.org/2000/svg" viewBox="0 0 48 48"><defs><style>.cls-2,.cls-5{fill:#bdbec0;stroke:#45413c;stroke-linecap:round;stroke-linejoin:round}.cls-5{fill:none}.cls-8{fill:#fff}</style></defs><g><ellipse cx="29" cy="45.37" rx="14.69" ry="1.63" opacity=".15" fill="#45413c"/><path class="cls-2" d="M17.33 40.05h4.35v2.77A2.18 2.18 0 0 1 19.51 45h-1.09a1.09 1.09 0 0 1-1.09-1.09v-3.86z"/><path class="cls-2" d="M37.46 40.05h4.35v2.77A2.18 2.18 0 0 1 39.64 45h-1.09a1.09 1.09 0 0 1-1.09-1.09v-3.86z"/><path d="M10.26 8.83S2.65 11.55 2.1 15.9s1.16 6 3.27 6 5.44-1.15 8.16-.54 3.8-8.71 3.8-8.71-1.08-6.75-7.07-3.82z" fill="#bdbec0"/><path d="M2.71 18.72c.55-4.35 8.16-7.07 8.16-7.07 3.67-1.79 5.5 0 6.36 1.73.07-.46.1-.75.1-.75s-1.08-6.73-7.07-3.8c0 0-7.61 2.72-8.16 7.07a7.28 7.28 0 0 0 .51 4.4 13 13 0 0 1 .1-1.58z" fill="#e0e0e0"/><path class="cls-5" d="M10.26 8.83S2.65 11.55 2.1 15.9s1.16 6 3.27 6 5.44-1.15 8.16-.54 3.8-8.71 3.8-8.71-1.08-6.75-7.07-3.82z"/><circle cx="9.24" cy="12.63" r="1.04" fill="#45413c"/><path d="M43.44 19.71c-3.19-4.22-7.38-6.4-19-4.9.4-3.4-.34-6.66-2.72-8.7C18.29 3.19 14.14 3.86 10.26 5c-3.39 1-3.6 4.35-.54 4.89s3.81 0 3.81 0L13 14.27a3.47 3.47 0 0 0-3.26 2.17c-.72 2.08.1 4.22 3.26 4.9-1.15 2.38-1 7.48.55 11.42a12.19 12.19 0 0 0 .52 1.24c0 4.45 2.47 8 5.44 8a4.56 4.56 0 0 0 3.54-2c.59.12 1.23.23 1.9.33A30.32 30.32 0 0 0 35.47 40a5.33 5.33 0 0 0 4.71 2c3.63-.6 5.46-7.59 5.56-14.28a12.6 12.6 0 0 0-2.3-8.01z" fill="#e5feff"/><g><path class="cls-8" d="M8.4 9.39a4.54 4.54 0 0 1 1.86-1c3.88-1.16 8-1.83 11.43 1.09a8.91 8.91 0 0 1 2.82 7 1.46 1.46 0 0 0 1.59 1.48C36.47 16.87 40.41 19 43.44 23a12 12 0 0 1 2.22 5.86 13 13 0 0 0-2.22-9.18c-3.19-4.22-7.38-6.4-19-4.9.4-3.4-.34-6.66-2.72-8.7C18.29 3.19 14.14 3.86 10.26 5c-2.78.85-3.42 3.25-1.86 4.39z"/><path class="cls-8" d="M13 14.27a3.47 3.47 0 0 0-3.26 2.17 3.52 3.52 0 0 0 .18 3 3.24 3.24 0 0 1 2.08-1.7 1.31 1.31 0 0 0 1-1.27z"/><path class="cls-5" d="M43.44 19.71c-3.19-4.22-7.38-6.4-19-4.9.4-3.4-.34-6.66-2.72-8.7C18.29 3.19 14.14 3.86 10.26 5c-3.39 1-3.6 4.35-.54 4.89s3.81 0 3.81 0L13 14.27a3.47 3.47 0 0 0-3.26 2.17c-.72 2.08.1 4.22 3.26 4.9-1.15 2.38-1 7.48.55 11.42a12.19 12.19 0 0 0 .52 1.24c0 4.45 2.47 8 5.44 8a4.56 4.56 0 0 0 3.54-2c.59.12 1.23.23 1.9.33A30.32 30.32 0 0 0 35.47 40a5.33 5.33 0 0 0 4.71 2c3.63-.6 5.46-7.59 5.56-14.28a12.6 12.6 0 0 0-2.3-8.01z"/></g><path d="M15.41 5.9s1.81-4.9 8.16-3.27C28.62 3.9 29 11.76 24.66 13c-3.76 1-4.35-2.18-4.35-2.18s3.08 0 2.72-2.17-3.36-1.45-3.81 0c-2.85.92-3.81-2.75-3.81-2.75z" fill="#fffacf"/><g><path d="M23.57 4.35a5.58 5.58 0 0 1 4 4.87c.36-2.66-1-5.83-4-6.59-6.35-1.63-8.16 3.26-8.16 3.26a5.82 5.82 0 0 0 .39 1c.81-1.31 3.02-3.73 7.77-2.54z" fill="#fffce5"/></g><path class="cls-5" d="M15.41 5.89S17.22 1 23.57 2.63C28.62 3.9 29 11.75 24.66 13c-3.76 1-4.35-2.17-4.35-2.17s3.08 0 2.72-2.18-3.36-1.45-3.81 0c-2.85.91-3.81-2.76-3.81-2.76z"/><path class="cls-5" d="M17.77 3.2l2.47 4.32"/><path class="cls-5" d="M23.38 2.59l-1.2 4.8"/><path class="cls-5" d="M27.63 7.67l-4.67.66"/><path class="cls-5" d="M24.95 12.63l-2.18-2.17"/><path class="cls-5" d="M25 33.85a10.26 10.26 0 0 1-1.9 6.2"/><path class="cls-5" d="M35.47 40.05a9.49 9.49 0 0 1-2.36-4.57"/></g></svg>