<svg xmlns="http://www.w3.org/2000/svg" viewBox="0 0 48 48"><defs><style>.cls-1{fill:#bdbec0}.cls-1,.cls-2,.cls-5{stroke:#45413c;stroke-linecap:round;stroke-linejoin:round}.cls-11,.cls-2{fill:#fcd}.cls-3{fill:#e5feff}.cls-5{fill:none}.cls-10{fill:#45413c}.cls-12{fill:#fffacf}.cls-13{fill:#fffce5}</style></defs><path class="cls-1" d="M14.86 18.58a54.33 54.33 0 0 0-6 8.69c-1.75 3.11-2.07 5 1.06 6.8 4.44 2.55 4.85-2.73 5.51-7.95s-.57-7.54-.57-7.54z"/><path class="cls-2" d="M13.94 24.08s-3.81 4.49-3.49 6a2.58 2.58 0 0 0 3 2c1.38-.12 2-4 2-4z"/><path class="cls-1" d="M33.14 18.58a54.33 54.33 0 0 1 6 8.69c1.75 3.11 2.07 5-1.06 6.8-4.44 2.55-4.85-2.73-5.51-7.95s.57-7.54.57-7.54z"/><path class="cls-2" d="M34.06 24.08s3.81 4.49 3.49 6a2.58 2.58 0 0 1-3 2c-1.38-.12-2-4-2-4z"/><path class="cls-3" d="M7.68 20.2a4.29 4.29 0 0 0-.19 1.19 4.23 4.23 0 1 0 8.41-.5 5.86 5.86 0 0 0 2.1-3.75 5.06 5.06 0 0 0 3.75-2.09 6.18 6.18 0 0 0 4.48 0A5.06 5.06 0 0 0 30 17.14a5.86 5.86 0 0 0 2.11 3.75 4.22 4.22 0 1 0 8.41.5 4.29 4.29 0 0 0-.19-1.19 5.93 5.93 0 0 0-4.46-9.82 5.52 5.52 0 0 0-.71 0A5.06 5.06 0 0 0 30.35 7H30a6.35 6.35 0 0 0-12 0h-.36a5.06 5.06 0 0 0-4.8 3.43 5.52 5.52 0 0 0-.71 0 5.93 5.93 0 0 0-4.45 9.77z"/><path d="M12.14 13.59a5.53 5.53 0 0 1 .71 0 5.06 5.06 0 0 1 4.8-3.43h.36a6.34 6.34 0 0 1 12 0h.36a5.06 5.06 0 0 1 4.8 3.43 5.53 5.53 0 0 1 .71 0 5.92 5.92 0 0 1 5.69 4.28 5.71 5.71 0 0 0 .23-1.56 5.93 5.93 0 0 0-5.92-5.93 5.52 5.52 0 0 0-.71 0A5.06 5.06 0 0 0 30.35 7H30a6.35 6.35 0 0 0-12 0h-.36a5.06 5.06 0 0 0-4.8 3.43 5.52 5.52 0 0 0-.71 0 5.93 5.93 0 0 0-5.92 5.93 5.71 5.71 0 0 0 .23 1.56 5.92 5.92 0 0 1 5.7-4.33z" fill="#fff"/><path class="cls-5" d="M7.68 20.2a4.29 4.29 0 0 0-.19 1.19 4.23 4.23 0 1 0 8.41-.5 5.86 5.86 0 0 0 2.1-3.75 5.06 5.06 0 0 0 3.75-2.09 6.18 6.18 0 0 0 4.48 0A5.06 5.06 0 0 0 30 17.14a5.86 5.86 0 0 0 2.11 3.75 4.22 4.22 0 1 0 8.41.5 4.29 4.29 0 0 0-.19-1.19 5.93 5.93 0 0 0-4.46-9.82 5.52 5.52 0 0 0-.71 0A5.06 5.06 0 0 0 30.35 7H30a6.35 6.35 0 0 0-12 0h-.36a5.06 5.06 0 0 0-4.8 3.43 5.52 5.52 0 0 0-.71 0 5.93 5.93 0 0 0-4.45 9.77z"/><ellipse cx="24" cy="45.4" rx="12.27" ry="1.6" opacity=".15" fill="#45413c"/><path d="M34.88 25.18c0 9-5.17 16.32-10.88 16.32s-10.88-7.31-10.88-16.32 5.17-12 10.88-12 10.88 2.98 10.88 12z" fill="#bdbec0"/><path d="M24 13.21c-5.48 0-10.47 2.73-10.86 10.93a5.29 5.29 0 0 0 .56.05 5.72 5.72 0 0 0 4.3-1.87 6.06 6.06 0 0 0 6 4.34 6.06 6.06 0 0 0 6-4.34 5.72 5.72 0 0 0 4.28 1.87 5.29 5.29 0 0 0 .56-.05c-.37-8.2-5.36-10.93-10.84-10.93z" fill="#87898c"/><path class="cls-5" d="M34.88 25.18c0 9-5.17 16.32-10.88 16.32s-10.88-7.31-10.88-16.32 5.17-12 10.88-12 10.88 2.98 10.88 12z"/><path d="M27.26 36A3.55 3.55 0 0 1 24 38.67 3.55 3.55 0 0 1 20.74 36c0-.9 1.46 0 3.26 0s3.26-.95 3.26 0z" fill="#87898c" stroke="#45413c" stroke-linecap="round" stroke-linejoin="round"/><path class="cls-3" d="M31.67 13.3a4.27 4.27 0 0 0-1.89.43L27 10.51h-6l-2.78 3.22a4.27 4.27 0 0 0-1.89-.43 4.35 4.35 0 1 0 3 7.5 4.93 4.93 0 0 0 9.36 0 4.35 4.35 0 1 0 3-7.5z"/><path class="cls-5" d="M29.78 13.73a4.27 4.27 0 0 1 1.89-.43 4.35 4.35 0 1 1-3 7.5 4.93 4.93 0 0 1-9.36 0 4.35 4.35 0 1 1-3-7.5 4.27 4.27 0 0 1 1.89.43"/><path class="cls-10" d="M30.5 28.68a1.5 1.5 0 1 1-1.5-1.5 1.5 1.5 0 0 1 1.5 1.5z"/><path class="cls-10" d="M20.5 28.68a1.5 1.5 0 1 1-1.5-1.5 1.5 1.5 0 0 1 1.5 1.5z"/><path class="cls-11" d="M18 33.17c0 .28-.44.5-1 .5s-1-.22-1-.5.44-.5 1-.5 1 .23 1 .5z"/><path class="cls-11" d="M30 33.17c0 .28.44.5 1 .5s1-.22 1-.5-.44-.5-1-.5-1 .23-1 .5z"/><path class="cls-5" d="M24 38.67v2.83"/><path class="cls-12" d="M16.33 13.3a4.27 4.27 0 0 1 1.89.43 6.6 6.6 0 0 0-7.18-4c-5.79.83-5.45 6.89-4.54 8.77a4.37 4.37 0 0 0 3 2.22s-1.91-3.54 1.3-4.59a1.57 1.57 0 0 1 1.36.14 4.35 4.35 0 0 1 4.17-2.97z"/><path class="cls-13" d="M11 11.76a6.36 6.36 0 0 1 5.4 1.54 4.4 4.4 0 0 1 1.78.43 6.6 6.6 0 0 0-7.18-4c-4.54.65-5.31 4.53-5 7.07a5.47 5.47 0 0 1 5-5.04z"/><path class="cls-5" d="M16.33 13.3a4.27 4.27 0 0 1 1.89.43 6.6 6.6 0 0 0-7.18-4c-5.79.83-5.45 6.89-4.54 8.77a4.37 4.37 0 0 0 3 2.22s-1.91-3.54 1.3-4.59a1.57 1.57 0 0 1 1.36.14 4.35 4.35 0 0 1 4.17-2.97z"/><path class="cls-5" d="M14.54 10.08s-1.28-.39-3 1.11c-2 1.75-1 5-1 5v.06"/><path class="cls-5" d="M6.62 12.75l-.08.44a3.77 3.77 0 0 0 .5 2.5 3.11 3.11 0 0 0 2 1.49h.29"/><path class="cls-12" d="M31.67 13.3a4.27 4.27 0 0 0-1.89.43 6.6 6.6 0 0 1 7.18-4c5.79.83 5.45 6.89 4.54 8.77a4.37 4.37 0 0 1-3 2.22s1.91-3.54-1.3-4.59a1.57 1.57 0 0 0-1.36.14 4.35 4.35 0 0 0-4.17-2.97z"/><path class="cls-13" d="M37 11.76a6.36 6.36 0 0 0-5.4 1.54 4.4 4.4 0 0 0-1.78.43 6.6 6.6 0 0 1 7.18-4c4.54.65 5.31 4.53 5 7.07a5.47 5.47 0 0 0-5-5.04z"/><path class="cls-5" d="M31.67 13.3a4.27 4.27 0 0 0-1.89.43 6.6 6.6 0 0 1 7.18-4c5.79.83 5.45 6.89 4.54 8.77a4.37 4.37 0 0 1-3 2.22s1.91-3.54-1.3-4.59a1.57 1.57 0 0 0-1.36.14 4.35 4.35 0 0 0-4.17-2.97z"/><path class="cls-5" d="M33.46 10.08s1.28-.39 3 1.11c2 1.75 1 5 1 5v.06"/><path class="cls-5" d="M41.38 12.75l.08.44a3.77 3.77 0 0 1-.5 2.5 3.11 3.11 0 0 1-2 1.49h-.29"/></svg>