<svg xmlns="http://www.w3.org/2000/svg" viewBox="0 0 48 48"><defs><style>.cls-1{fill:#e0e0e0}.cls-1,.cls-5{stroke:#45413c;stroke-linecap:round;stroke-linejoin:round}.cls-4{fill:#fff}.cls-5{fill:none}</style></defs><g><path class="cls-1" d="M36.4 22.21A12.08 12.08 0 0 0 38.53 18c.23-1 .36-1.74.43-2.25a.53.53 0 0 1 .88-.32 5.48 5.48 0 0 1 1.88 5.22c-.8 3.64-5.32 1.56-5.32 1.56z"/><path class="cls-1" d="M5.59 19.81s-.76 3.18.53 4.78S8 25.3 8.78 23s-3.19-3.19-3.19-3.19z"/><path d="M17.92 6.89a6.61 6.61 0 0 1 3.34-4 7.5 7.5 0 0 1 4-.9.53.53 0 0 1 .23 1 7.1 7.1 0 0 0-2.72 2.53c-1.22 2.2-2 7.17-2 7.17z" fill="#f0d5a8" stroke="#45413c" stroke-linecap="round" stroke-linejoin="round"/><path d="M33.59 20.08h-6.11a5 5 0 0 1-5.31-5.31v-1.84c0-4.74-.73-6.2-2.13-7.2a34 34 0 0 0-5.26-2.43.52.52 0 0 0-.71.42A5 5 0 0 0 14.81 7l-4.33.83c-5.12 1.46-8 4.93-8 9s3.33 4.78 7.44 4.78h2.69c2.25 0 4.22 3.47 4.22 7.44v11.76a3.19 3.19 0 0 0 6.38 0v-6.32a32.75 32.75 0 0 0 10.88.35A5.27 5.27 0 0 0 36.52 36v4.78a3.19 3.19 0 0 0 6.38 0V29.39a9.31 9.31 0 0 0-9.31-9.31z" fill="#f0f0f0"/><path class="cls-4" d="M16.85 8.92l-6.38 1.94c-4.43 1.26-7.16 4-7.81 7.43a5.42 5.42 0 0 1-.16-1.39c0-4.12 2.86-7.58 8-9l4.3-.9a5.67 5.67 0 0 0 2.05 1.92z"/><path class="cls-4" d="M20 5.73a34 34 0 0 0-5.22-2.43.52.52 0 0 0-.71.42 5.12 5.12 0 0 0 .29 2.41 38.39 38.39 0 0 1 5.78 2.6c1.1.79 1.79 1.87 2 4.64v-.44c.03-4.74-.7-6.2-2.14-7.2zM33.59 20.08h-6.11a4.92 4.92 0 0 1-5.22-4.18v1.87a5 5 0 0 0 5.32 5.31h6a9.31 9.31 0 0 1 9.31 9.31v-3a9.31 9.31 0 0 0-9.3-9.31z"/><path class="cls-5" d="M33.59 20.08h-6.11a5 5 0 0 1-5.31-5.31v-1.84c0-4.74-.73-6.2-2.13-7.2a34 34 0 0 0-5.26-2.43.52.52 0 0 0-.71.42A5 5 0 0 0 14.81 7l-4.33.83c-5.12 1.46-8 4.93-8 9s3.33 4.78 7.44 4.78h2.69c2.25 0 4.22 3.47 4.22 7.44v11.76a3.19 3.19 0 0 0 6.38 0v-6.32a32.75 32.75 0 0 0 10.88.35A5.27 5.27 0 0 0 36.52 36v4.78a3.19 3.19 0 0 0 6.38 0V29.39a9.31 9.31 0 0 0-9.31-9.31z"/><ellipse cx="30.15" cy="44.41" rx="14.35" ry="1.59" opacity=".15" fill="#45413c"/><path class="cls-5" d="M32.27 30.82a5.29 5.29 0 0 0 1.84 4"/><path class="cls-5" d="M14.8 7a5.93 5.93 0 0 0 2.05 1.89"/><path d="M13.66 13.23a1.06 1.06 0 1 1-1-1.12 1.08 1.08 0 0 1 1 1.12z" fill="#45413c" stroke="#45413c" stroke-linecap="round" stroke-linejoin="round"/><path d="M17.38 16.42a1.06 1.06 0 1 1-1-1.12 1.06 1.06 0 0 1 1 1.12z" fill="#ffaa54"/></g></svg>