<svg xmlns="http://www.w3.org/2000/svg" viewBox="0 0 48 48"><defs><style>.cls-1{fill:#bdbec0}.cls-2{fill:#e0e0e0}.cls-3,.cls-8{fill:none;stroke:#45413c;stroke-linecap:round;stroke-linejoin:round}.cls-8{fill:#45413c}.cls-9{fill:#fcd}</style></defs><g><path class="cls-1" d="M13.19 4.65c4.35.69 6.92 5.3 5.89 9.48a8 8 0 0 1-9.49 6.06l-1.12-2s-1.39 2.89-2.42 2-1.36-4.78-1.36-4.78-1.37 3.59-2.21 1.7-.42-5.58.84-7.8a9 9 0 0 1 9.87-4.66z"/><path class="cls-2" d="M13.19 7.76a9 9 0 0 0-9.87 4.67A10.53 10.53 0 0 0 2.18 16a11.13 11.13 0 0 1 1.14-6.7 9 9 0 0 1 9.87-4.66c4.24.67 6.77 5.06 6 9.14a7.39 7.39 0 0 0-6-6.02z"/><path class="cls-3" d="M13.19 4.65c4.35.69 6.92 5.3 5.89 9.48a8 8 0 0 1-9.49 6.06l-1.12-2s-1.39 2.89-2.42 2-1.36-4.78-1.36-4.78-1.37 3.59-2.21 1.7-.42-5.58.84-7.8a9 9 0 0 1 9.87-4.66z"/><path class="cls-3" d="M15 9.6a6.33 6.33 0 0 0-6.71.25"/><path d="M17.74 38.54a6.25 6.25 0 0 0-1.46 5.3 6.24 6.24 0 0 0 5-2.33 6.25 6.25 0 0 0 1.47-5.3 6.24 6.24 0 0 0-5.01 2.33z" fill="#6dd627"/><path d="M22.72 36.21a6.24 6.24 0 0 0-5 2.33 6.88 6.88 0 0 0-.83 1.24 7.3 7.3 0 0 0 4.16 1.92l.18-.19a6.25 6.25 0 0 0 1.49-5.3z" fill="#46b000"/><path class="cls-3" d="M17.74 38.54a6.25 6.25 0 0 0-1.46 5.3 6.24 6.24 0 0 0 5-2.33 6.25 6.25 0 0 0 1.47-5.3 6.24 6.24 0 0 0-5.01 2.33z"/><path class="cls-1" d="M34.81 4.65c-4.35.69-6.92 5.3-5.89 9.48a8 8 0 0 0 9.49 6.06l1.12-2s1.39 2.89 2.42 2 1.36-4.78 1.36-4.78 1.37 3.65 2.21 1.72.42-5.58-.84-7.8a9 9 0 0 0-9.87-4.68z"/><path class="cls-2" d="M34.81 7.76a9 9 0 0 1 9.87 4.67A10.53 10.53 0 0 1 45.82 16a11.13 11.13 0 0 0-1.14-6.7 9 9 0 0 0-9.87-4.66c-4.24.67-6.77 5.06-6 9.14a7.39 7.39 0 0 1 6-6.02z"/><path class="cls-3" d="M34.81 4.65c-4.35.69-6.92 5.3-5.89 9.48a8 8 0 0 0 9.49 6.06l1.12-2s1.39 2.89 2.42 2 1.36-4.78 1.36-4.78 1.37 3.65 2.21 1.72.42-5.58-.84-7.8a9 9 0 0 0-9.87-4.68z"/><ellipse cx="24" cy="45.33" rx="12.83" ry="1.67" opacity=".15" fill="#45413c"/><path class="cls-1" d="M38.38 22.55v-2.88c0-7.12-6.44-12.89-14.38-12.89S9.62 12.55 9.62 19.67v2.88a8.39 8.39 0 0 0-1.8 5.17c0 5 4 9.13 9.59 9.13h.28a4.52 4.52 0 0 1 2.34.71 7.72 7.72 0 0 0 4 1 7.72 7.72 0 0 0 4-1 4.52 4.52 0 0 1 2.34-.71h.28c5.63 0 9.59-4.09 9.59-9.13a8.39 8.39 0 0 0-1.86-5.17z"/><path class="cls-2" d="M38.38 22.55v-2.88c0-7.12-6.44-12.89-14.38-12.89S9.62 12.55 9.62 19.67v2.88c0-7.12 6.44-12.14 14.38-12.14s14.38 5.02 14.38 12.14z"/><path class="cls-3" d="M38.38 22.55v-2.88c0-7.12-6.44-12.89-14.38-12.89S9.62 12.55 9.62 19.67v2.88a8.39 8.39 0 0 0-1.8 5.17c0 5 4 9.13 9.59 9.13h.28a4.52 4.52 0 0 1 2.34.71 7.72 7.72 0 0 0 4 1 7.72 7.72 0 0 0 4-1 4.52 4.52 0 0 1 2.34-.71h.28c5.63 0 9.59-4.09 9.59-9.13a8.39 8.39 0 0 0-1.86-5.17z"/><path d="M27.91 28.65c0 3.41-1.75 4.35-3.91 4.35s-3.91-.94-3.91-4.35 1.75-6.81 3.91-6.81 3.91 3.39 3.91 6.81z" fill="#656769" stroke="#45413c" stroke-linecap="round" stroke-linejoin="round"/><circle class="cls-8" cx="31.81" cy="21.84" r="1.67"/><circle class="cls-8" cx="16.19" cy="21.84" r="1.67"/><path class="cls-9" d="M38 29.3c0 .55-.91 1-2 1s-2-.45-2-1 .91-1 2-1 2 .45 2 1z"/><path class="cls-9" d="M14.11 29.3c0 .55-.91 1-2 1s-2-.45-2-1 .91-1 2-1 2 .45 2 1z"/><path class="cls-3" d="M30.59 36.85a19.31 19.31 0 0 1-3.29-.65"/><path class="cls-3" d="M17.41 36.85a19.31 19.31 0 0 0 3.29-.65"/><path class="cls-3" d="M33 9.6a6.33 6.33 0 0 1 6.71.25"/></g></svg>