<svg xmlns="http://www.w3.org/2000/svg" viewBox="0 0 48 48"><defs><style>.cls-10{fill:#45413c}.cls-2,.cls-9{fill:#656769}.cls-3{fill:#87898c}.cls-4{fill:none}.cls-10,.cls-4,.cls-9{stroke:#45413c;stroke-linecap:round;stroke-linejoin:round}.cls-5{fill:#e0e0e0}.cls-6{fill:#bdbec0}.cls-11{fill:#ffa694}</style></defs><g><ellipse cx="24" cy="45.34" rx="15.53" ry="1.66" opacity=".15" fill="#45413c"/><path class="cls-2" d="M42.3 16.64c-3.21 4.49-9 5.82-13 3s-4.62-8.8-1.41-13.28 9-5.82 13-3 4.62 8.8 1.41 13.28z"/><path class="cls-3" d="M27.86 8.55c3.2-4.49 9-5.82 13-3a8.35 8.35 0 0 1 3.39 5.94 8.69 8.69 0 0 0-3.39-8.16c-4-2.85-9.82-1.52-13 3a10.56 10.56 0 0 0-2 7.34 10.81 10.81 0 0 1 2-5.12z"/><path class="cls-4" d="M42.3 16.64c-3.21 4.49-9 5.82-13 3s-4.62-8.8-1.41-13.28 9-5.82 13-3 4.62 8.8 1.41 13.28z"/><path class="cls-5" d="M39.87 15c-2.19 3.07-6.18 4-8.91 2S27.8 11 30 8s6.18-4 8.91-2 3.15 5.94.96 9z"/><path class="cls-6" d="M30 10.46c2.19-3.07 6.18-4 8.91-2A5.67 5.67 0 0 1 41.12 12a6 6 0 0 0-2.22-6.07C36.17 4 32.18 4.89 30 8a7.18 7.18 0 0 0-1.25 5.49A7.44 7.44 0 0 1 30 10.46z"/><path class="cls-4" d="M39.87 15c-2.19 3.07-6.18 4-8.91 2S27.8 11 30 8s6.18-4 8.91-2 3.15 5.94.96 9z"/><path class="cls-2" d="M5.7 16.64c3.21 4.49 9 5.82 13 3s4.62-8.8 1.41-13.28-9-5.82-13-3-4.62 8.8-1.41 13.28z"/><path class="cls-3" d="M20.14 8.55c-3.2-4.49-9-5.82-13-3a8.35 8.35 0 0 0-3.39 5.94 8.69 8.69 0 0 1 3.37-8.13c4-2.85 9.82-1.52 13 3a10.56 10.56 0 0 1 2 7.34 10.81 10.81 0 0 0-1.98-5.15z"/><path class="cls-4" d="M5.7 16.64c3.21 4.49 9 5.82 13 3s4.62-8.8 1.41-13.28-9-5.82-13-3-4.62 8.8-1.41 13.28z"/><path class="cls-5" d="M8.13 15c2.19 3.07 6.18 4 8.91 2s3.16-6 .96-9-6.18-4-8.91-2-3.15 5.94-.96 9z"/><path class="cls-6" d="M18 10.46c-2.19-3.07-6.18-4-8.91-2A5.67 5.67 0 0 0 6.88 12 6 6 0 0 1 9.1 5.93C11.83 4 15.82 4.89 18 8a7.18 7.18 0 0 1 1.25 5.49A7.44 7.44 0 0 0 18 10.46z"/><path class="cls-4" d="M8.13 15c2.19 3.07 6.18 4 8.91 2s3.16-6 .96-9-6.18-4-8.91-2-3.15 5.94-.96 9z"/><path d="M44.8 25.87C43 14.45 34.24 6.13 24 6.13S5 14.45 3.2 25.87c-1.22 7.8 4.07 15 11.07 15h2A11.8 11.8 0 0 0 24 43.5a11.8 11.8 0 0 0 7.77-2.67h2c6.96 0 12.23-7.16 11.03-14.96z" fill="#f0f0f0"/><path d="M3.2 30.31C5 18.89 13.76 10.57 24 10.57s19 8.32 20.8 19.74a14.43 14.43 0 0 0 0-4.45C43 14.45 34.24 6.13 24 6.13S5 14.45 3.2 25.87a14.43 14.43 0 0 0 0 4.45z" fill="#fff"/><path class="cls-4" d="M44.8 25.87C43 14.45 34.24 6.13 24 6.13S5 14.45 3.2 25.87c-1.22 7.8 4.07 15 11.07 15h2A11.8 11.8 0 0 0 24 43.5a11.8 11.8 0 0 0 7.77-2.67h2c6.96 0 12.23-7.16 11.03-14.96z"/><path class="cls-9" d="M27.88 33.13c0 1.13-1.74 3-3.88 3s-3.88-1.83-3.88-3 1.74-2.05 3.88-2.05 3.88.92 3.88 2.05z"/><path class="cls-9" d="M28.08 20.77c-.85 5.11 3.12 7.66 6.13 8.85s4.82-1 4.77-4.08-2-7.26-5.45-8.17a4.63 4.63 0 0 0-5.45 3.4z"/><circle class="cls-10" cx="31.77" cy="22.76" r="1.66"/><path class="cls-11" d="M43.42 30.33a2 2 0 1 1-2-2 2 2 0 0 1 2 2z"/><path class="cls-9" d="M19.92 20.77c.85 5.11-3.12 7.66-6.13 8.85S9 28.62 9 25.54s2-7.26 5.45-8.17a4.63 4.63 0 0 1 5.47 3.4z"/><circle class="cls-10" cx="16.23" cy="22.76" r="1.66"/><path class="cls-11" d="M4.58 30.33a2 2 0 1 0 2-2 2 2 0 0 0-2 2z"/><path class="cls-4" d="M24 36.09v2.22"/></g></svg>