<svg xmlns="http://www.w3.org/2000/svg" viewBox="0 0 48 48"><defs><style>.cls-1{fill:#ff866e}.cls-3{fill:none;stroke:#45413c;stroke-linecap:round;stroke-linejoin:round}</style></defs><g><path class="cls-1" d="M38.35 5.49a4.62 4.62 0 0 0-5-.38 4.59 4.59 0 0 0-3.9-2.81 4.66 4.66 0 0 0-3.92 1.35 4.57 4.57 0 0 0-5-.92c-2.52 1-3.89 3.51-2.61 6.78s5.41 7.87 7.92 6.89a2 2 0 0 0 .56-.34 2.53 2.53 0 0 0 1.5.83 2.34 2.34 0 0 0 1.29-.29 2.2 2.2 0 0 0 .7.88c2.21 1.56 7.33-1.91 9.35-4.78s1.32-5.7-.89-7.21z"/><path d="M20.54 5.67a4.57 4.57 0 0 1 5 .92 4.66 4.66 0 0 1 3.92-1.35 4.57 4.57 0 0 1 3.9 2.81 4.62 4.62 0 0 1 5 .38 4.9 4.9 0 0 1 1.85 2.39 4.61 4.61 0 0 0-1.85-5.33 4.62 4.62 0 0 0-5-.38 4.59 4.59 0 0 0-3.9-2.81 4.66 4.66 0 0 0-3.92 1.35 4.57 4.57 0 0 0-5-.92 4.7 4.7 0 0 0-2.89 5.91 4.66 4.66 0 0 1 2.89-2.97z" fill="#ffa694"/><path class="cls-3" d="M38.35 5.49a4.62 4.62 0 0 0-5-.38 4.59 4.59 0 0 0-3.9-2.81 4.66 4.66 0 0 0-3.92 1.35 4.57 4.57 0 0 0-5-.92c-2.52 1-3.89 3.51-2.61 6.78s5.41 7.87 7.92 6.89a2 2 0 0 0 .56-.34 2.53 2.53 0 0 0 1.5.83 2.34 2.34 0 0 0 1.29-.29 2.2 2.2 0 0 0 .7.88c2.21 1.56 7.33-1.91 9.35-4.78s1.32-5.7-.89-7.21z"/><ellipse cx="26.03" cy="45.46" rx="11.84" ry="1.54" opacity=".15" fill="#45413c"/><circle cx="26.54" cy="25.59" r="15.96" fill="#f0f0f0"/><path d="M26.54 14a15.94 15.94 0 0 1 15.79 13.78 16 16 0 1 0-31.58 0A15.94 15.94 0 0 1 26.54 14z" fill="#fff"/><circle class="cls-3" cx="26.54" cy="25.59" r="15.96"/><path class="cls-1" d="M17.27 38.56c0 3-1.84 4.53-4.11 4.53S9 41.52 9 38.56s1.84-7.82 4.12-7.82 4.15 4.87 4.15 7.82z"/><path d="M9.25 36.61a11.41 11.41 0 0 0 4.33.55 6.4 6.4 0 0 0 3.36-1.11c-.63-2.6-2.09-5.31-3.78-5.31s-3.36 3.11-3.91 5.87z" fill="#ff6242"/><path class="cls-3" d="M17.27 38.56c0 3-1.84 4.53-4.11 4.53S9 41.52 9 38.56s1.84-7.82 4.12-7.82 4.15 4.87 4.15 7.82z"/><path d="M3.89 30.22s3.11 3.93 7.72 3.61 4.12-5.15 4.12-5.15z" fill="#ebcb00" stroke="#45413c" stroke-linecap="round" stroke-linejoin="round"/><path d="M11.61 20A7.49 7.49 0 0 0 7 22.07a14.57 14.57 0 0 0-4 7.36 1 1 0 0 0 .69 1.2c2.81.88 7.18.48 10 .19 3.09-.32 3-2.06 2.06-3.6S11 24.84 11.61 20z" fill="#ffe500"/><path d="M3.67 30.62a14.06 14.06 0 0 1 4.22-5.46A10.81 10.81 0 0 1 12 23.3a5.9 5.9 0 0 1-.39-3.3A7.49 7.49 0 0 0 7 22.07a14.53 14.53 0 0 0-4 7.36 1 1 0 0 0 .67 1.19z" fill="#fff48c"/><path class="cls-3" d="M11.61 20A7.49 7.49 0 0 0 7 22.07a14.57 14.57 0 0 0-4 7.36 1 1 0 0 0 .69 1.2c2.81.88 7.18.48 10 .19 3.09-.32 3-2.06 2.06-3.6S11 24.84 11.61 20z"/><circle cx="20.21" cy="20.81" r="1.4" fill="#45413c" stroke="#45413c" stroke-linecap="round" stroke-linejoin="round"/><path d="M26.54 26.62c0 .55-.69 1-1.54 1s-1.55-.45-1.55-1 .69-1 1.55-1 1.54.45 1.54 1z" fill="#fcd"/></g></svg>