<svg xmlns="http://www.w3.org/2000/svg" viewBox="0 0 48 48"><defs><style>.cls-9{fill:#45413c}.cls-2{fill:#ffaa54}.cls-2,.cls-5,.cls-9{stroke:#45413c;stroke-linecap:round;stroke-linejoin:round}.cls-3{fill:#ffe500}.cls-4{fill:#fff48c}.cls-5{fill:none}.cls-10{fill:#ffb0ca}</style></defs><g><ellipse cx="24" cy="45.5" rx="11.5" ry="1.5" opacity=".15" fill="#45413c"/><path class="cls-2" d="M32.75 42.16l-2.05-.48-1.07-5.56-2.95.56 1.08 5.57-1.76 1.2a1.13 1.13 0 0 0 1.27 1.86L29.22 44a1 1 0 0 1 .77-.15l2.27.49a1.12 1.12 0 0 0 .49-2.19z"/><path class="cls-2" d="M15.25 42.16l2.05-.48 1.07-5.56 2.95.56-1.08 5.57 1.76 1.2a1.13 1.13 0 0 1-1.27 1.86L18.78 44a1 1 0 0 0-.77-.15l-2.27.49a1.12 1.12 0 0 1-.49-2.19z"/><path class="cls-3" d="M29.08 22.93s7.08-4.25 8.5-3.5-.58 8.17-5 10-3.5-6.5-3.5-6.5z"/><path class="cls-3" d="M18.92 22.93s-7.08-4.25-8.5-3.5.58 8.17 5 10 3.5-6.5 3.5-6.5z"/><path class="cls-4" d="M29.08 25.43s7.08-4.25 8.5-3.5a.76.76 0 0 1 .25.28c.32-1.4.25-2.51-.25-2.78-1.42-.75-8.5 3.5-8.5 3.5a17.51 17.51 0 0 0 0 2.9c-.02-.25 0-.4 0-.4z"/><path class="cls-4" d="M10.42 21.93c1.42-.75 8.5 3.5 8.5 3.5v.4a17.51 17.51 0 0 0 0-2.9s-7.08-4.25-8.5-3.5c-.5.27-.57 1.38-.25 2.78a.76.76 0 0 1 .25-.28z"/><path class="cls-5" d="M29.08 22.93s7.08-4.25 8.5-3.5-.58 8.17-5 10-3.5-6.5-3.5-6.5z"/><path class="cls-5" d="M18.92 22.93s-7.08-4.25-8.5-3.5.58 8.17 5 10 3.5-6.5 3.5-6.5z"/><ellipse class="cls-3" cx="24" cy="30.35" rx="11.5" ry="11.01"/><path d="M24 27.52a12.58 12.58 0 0 0 9.22-3.73 11.78 11.78 0 0 0-18.44 0A12.58 12.58 0 0 0 24 27.52z" fill="#ebcb00"/><ellipse class="cls-5" cx="24" cy="30.35" rx="11.5" ry="11.01"/><circle class="cls-3" cx="24" cy="13.84" r="10.5"/><path class="cls-4" d="M24 6.3a10.48 10.48 0 0 1 10.38 9 10.31 10.31 0 0 0 .12-1.48 10.5 10.5 0 0 0-21 0 10.31 10.31 0 0 0 .12 1.48A10.48 10.48 0 0 1 24 6.3z"/><circle class="cls-5" cx="24" cy="13.84" r="10.5"/><path d="M22.83 16l-2 1.53a1 1 0 0 0-.21 1.39l1.38 1.9a2.49 2.49 0 0 0 4 0l1.41-1.94a1 1 0 0 0-.21-1.39l-2-1.53a2 2 0 0 0-2.37.04z" fill="#ff8a14"/><path d="M20.7 19.05a.34.34 0 0 1 .09-.08l2-1.16a2.43 2.43 0 0 1 2.34 0l2 1.16a.34.34 0 0 1 .09.08l.12-.17a1 1 0 0 0-.21-1.39l-2-1.53a2 2 0 0 0-2.34 0l-2 1.53a1 1 0 0 0-.21 1.39z" fill="#ffaa54"/><path class="cls-5" d="M22.83 16l-2 1.53a1 1 0 0 0-.21 1.39l1.38 1.9a2.49 2.49 0 0 0 4 0l1.41-1.94a1 1 0 0 0-.21-1.39l-2-1.53a2 2 0 0 0-2.37.04z"/><path class="cls-5" d="M20.5 18.34a17 17 0 0 0 3.5 1 17 17 0 0 0 3.5-1"/><circle class="cls-9" cx="29.35" cy="12.49" r="1.36"/><circle class="cls-9" cx="18.65" cy="12.49" r="1.36"/><path class="cls-10" d="M32.78 16.48c0 .56-.73 1-1.64 1s-1.64-.44-1.64-1 .74-1 1.64-1 1.64.45 1.64 1z"/><path class="cls-10" d="M18.5 16.48c0 .56-.74 1-1.64 1s-1.64-.44-1.64-1 .73-1 1.64-1 1.64.45 1.64 1z"/></g></svg>