<svg xmlns="http://www.w3.org/2000/svg" viewBox="0 0 48 48"><defs><style>.cls-3{fill:none;stroke:#45413c;stroke-linecap:round;stroke-linejoin:round}</style></defs><g><circle cx="25.76" cy="22.36" r="18.99" fill="#656769"/><path d="M25.76 7.16a19 19 0 0 1 18.89 17.1 17.15 17.15 0 0 0 .1-1.9 19 19 0 0 0-38 0c0 .64 0 1.27.1 1.9a19 19 0 0 1 18.91-17.1z" fill="#87898c"/><circle class="cls-3" cx="25.76" cy="22.36" r="18.99"/><path d="M23.59 12.59a14.62 14.62 0 0 0-13.32 20.74A18.77 18.77 0 0 0 28 41.2a14.65 14.65 0 0 0-4.44-28.61z" fill="#fff" stroke="#45413c" stroke-linecap="round" stroke-linejoin="round"/><ellipse cx="25.76" cy="45.37" rx="12.48" ry="1.63" opacity=".15" fill="#45413c"/><circle cx="22.5" cy="21.82" r="1.63" fill="#45413c" stroke="#45413c" stroke-linecap="round" stroke-linejoin="round"/><path d="M29 28.13c0 .55-.88 1-2 1s-2-.45-2-1 .88-1 2-1 2 .45 2 1z" fill="#ffaa54"/><path d="M13 29.4a6.69 6.69 0 0 0-3.44-2.13l-2.25-.57-3.56 4a2.89 2.89 0 0 0 2 4.83l6.48.44L13.38 34a3.94 3.94 0 0 0-.38-4.6z" fill="#ffe500"/><path d="M3.31 33.9a2.85 2.85 0 0 0 1.78 1.48l-.2-.19c-1-1.07-.65-2.36.8-3.24l6.05-3.71a7 7 0 0 0-2.15-1l-2.28-.54-3.56 4a2.89 2.89 0 0 0-.44 3.2z" fill="#fff48c"/><path class="cls-3" d="M13 29.4a6.69 6.69 0 0 0-3.44-2.13l-2.25-.57-3.56 4a2.89 2.89 0 0 0 2 4.83l6.48.44L13.38 34a3.94 3.94 0 0 0-.38-4.6z"/><path class="cls-3" d="M3.31 33.9a21.26 21.26 0 0 0 5.62-.69 8.76 8.76 0 0 0 4.35-2.71l.26-.33"/></g></svg>