<svg xmlns="http://www.w3.org/2000/svg" viewBox="0 0 48 48"><defs><style>.cls-9{fill:#45413c}.cls-4{fill:none}.cls-4,.cls-6,.cls-9{stroke:#45413c;stroke-linecap:round;stroke-linejoin:round}.cls-5{fill:#c8ffa1}.cls-6,.cls-7{fill:#fff}.cls-8{fill:#f0f0f0}</style></defs><ellipse cx="24" cy="44.5" rx="11.5" ry="1.5" opacity=".15" fill="#45413c"/><path d="M37.3 21.87V15.8A7.22 7.22 0 0 0 24 12.17a7.22 7.22 0 0 0-13.28 3.63v6.07c-3.21 1.87-5.2 4.41-5.2 7.22C5.5 34.84 13.78 39.5 24 39.5s18.5-4.66 18.5-10.41c0-2.81-1.99-5.35-5.2-7.22z" fill="#6dd627"/><path d="M17.93 11.75a7.16 7.16 0 0 1 4.94 2 1.64 1.64 0 0 0 2.26 0 7.21 7.21 0 0 1 12.15 5V15.8A7.22 7.22 0 0 0 24 12.17a7.22 7.22 0 0 0-13.28 3.63v2.89a7.22 7.22 0 0 1 7.21-6.94z" fill="#9ceb60"/><path class="cls-4" d="M37.3 21.87V15.8A7.22 7.22 0 0 0 24 12.17a7.22 7.22 0 0 0-13.28 3.63v6.07c-3.21 1.87-5.2 4.41-5.2 7.22C5.5 34.84 13.78 39.5 24 39.5s18.5-4.66 18.5-10.41c0-2.81-1.99-5.35-5.2-7.22z"/><path class="cls-4" d="M11.28 30.83S13 34.88 24 34.88s12.72-4.05 12.72-4.05"/><path class="cls-5" d="M38.5 26.61a1.82 1.82 0 1 1-1.82-1.82 1.81 1.81 0 0 1 1.82 1.82z"/><path class="cls-5" d="M13.14 26.61a1.82 1.82 0 1 1-1.82-1.82 1.82 1.82 0 0 1 1.82 1.82z"/><path class="cls-6" d="M20.53 26.78a3.37 3.37 0 0 1 2.31 2.31"/><path class="cls-6" d="M27.47 26.78a3.37 3.37 0 0 0-2.31 2.31"/><path class="cls-7" d="M18 11.75a4.34 4.34 0 0 0-4.34 4.34v2.31a4.34 4.34 0 0 0 8.68 0v-2.31A4.34 4.34 0 0 0 18 11.75z"/><path class="cls-8" d="M18 11.75a4.34 4.34 0 0 0-4.34 4.34v1.68a4.34 4.34 0 0 1 8.68 0v-1.68A4.34 4.34 0 0 0 18 11.75z"/><circle class="cls-9" cx="18" cy="17.93" r="1.5"/><path class="cls-4" d="M18 11.75a4.34 4.34 0 0 0-4.34 4.34v2.31a4.34 4.34 0 0 0 8.68 0v-2.31A4.34 4.34 0 0 0 18 11.75z"/><path class="cls-7" d="M30 11.75a4.34 4.34 0 0 1 4.34 4.34v2.31a4.34 4.34 0 0 1-8.68 0v-2.31A4.34 4.34 0 0 1 30 11.75z"/><path class="cls-8" d="M30 11.75a4.34 4.34 0 0 1 4.34 4.34v1.68a4.34 4.34 0 0 0-8.68 0v-1.68A4.34 4.34 0 0 1 30 11.75z"/><circle class="cls-9" cx="30" cy="17.93" r="1.5"/><path class="cls-4" d="M30 11.75a4.34 4.34 0 0 1 4.34 4.34v2.31a4.34 4.34 0 0 1-8.68 0v-2.31A4.34 4.34 0 0 1 30 11.75z"/></svg>