<svg xmlns="http://www.w3.org/2000/svg" viewBox="0 0 48 48"><defs><style>.cls-1{fill:#fff48c}.cls-2{fill:#fffacf}.cls-3{fill:none;stroke:#45413c;stroke-linecap:round;stroke-linejoin:round}.cls-6{fill:#f0d5a8}</style></defs><g><path class="cls-1" d="M34.41 6.65c1.28 1.57.64 4.21-1.43 5.9s-4.78 1.77-6.06.2-.64-4.21 1.43-5.89 4.79-1.78 6.06-.21z"/><path class="cls-2" d="M28.35 8.4c2.07-1.68 4.79-1.78 6.06-.2A2.82 2.82 0 0 1 35 9.39a3.21 3.21 0 0 0-.58-2.74c-1.27-1.57-4-1.48-6.06.21a5 5 0 0 0-2 4.7 5.65 5.65 0 0 1 1.99-3.16z"/><path class="cls-3" d="M34.41 6.65c1.28 1.57.64 4.21-1.43 5.9s-4.78 1.77-6.06.2-.64-4.21 1.43-5.89 4.79-1.78 6.06-.21z"/><path class="cls-1" d="M47.5 21.73c0 4.33-2 7.85-4.5 7.85s-9.5-3.52-9.5-7.85 7-7.86 9.5-7.86 4.5 3.52 4.5 7.86z"/><path class="cls-2" d="M43 16.56c2.22 0 4.07 2.81 4.43 6.51a11.9 11.9 0 0 0 .07-1.34c0-4.34-2-7.86-4.5-7.86s-9.5 3.52-9.5 7.86a4.42 4.42 0 0 0 .22 1.34c1.21-3.7 7.06-6.51 9.28-6.51z"/><path class="cls-3" d="M47.5 21.73c0 4.33-2 7.85-4.5 7.85s-9.5-3.52-9.5-7.85 7-7.86 9.5-7.86 4.5 3.52 4.5 7.86z"/><ellipse cx="22.78" cy="45.5" rx="16.5" ry="1.5" opacity=".15" fill="#45413c"/><path d="M36.64 17.72c0-4.56-6.26-9.87-15.87-10C11.79 7.51 4 14.46 3.92 23.44c-.16 11.4 11.61 20.11 23.63 14.45a14.09 14.09 0 0 0 8.32-11.71c.18-2.44-.47-4.75.48-7a3.68 3.68 0 0 0 .29-1.46z" fill="#debb7e"/><g><path class="cls-6" d="M20.77 10.49c8.55.15 14.45 4.37 15.64 8.52a3.69 3.69 0 0 0 .23-1.29c0-4.56-6.26-9.87-15.87-10C11.79 7.51 4 14.46 3.92 23.44A14.89 14.89 0 0 0 4 25.08c.73-8.41 8.18-14.75 16.77-14.59z"/><path class="cls-6" d="M35.85 26.37a1.37 1.37 0 0 0 0-.19 18.77 18.77 0 0 0 0-2.25 18 18 0 0 0 0 2.44z"/></g><path class="cls-3" d="M36.64 17.72c0-4.56-6.26-9.87-15.87-10C11.79 7.51 4 14.46 3.92 23.44c-.16 11.4 11.61 20.11 23.63 14.45a14.09 14.09 0 0 0 8.32-11.71c.18-2.44-.47-4.75.48-7a3.68 3.68 0 0 0 .29-1.46z"/><circle cx="11.96" cy="15.46" r="1.12" fill="#45413c" stroke="#45413c" stroke-linecap="round" stroke-linejoin="round"/><path d="M35.87 26.18c.13-1.69-.53-3.45 0-5-6.47-1.74-12.43-1.23-17.35-.54-3.1-2.73-8.42-1.64-9.66 2.6-2.78.5-3.54 2.13-4.64 3.55C6.13 36.45 16.74 43 27.55 37.89a14.08 14.08 0 0 0 8.32-11.71z" fill="#fff5e3" stroke="#45413c" stroke-linecap="round" stroke-linejoin="round"/><path d="M3.29 27.47a2.12 2.12 0 0 1 0-4.23 2.12 2.12 0 0 1 0-4.23h1.34a4.23 4.23 0 1 1 0 8.46z" fill="#f0c2a1"/><g><path d="M3.29 20.92h1.34a4.23 4.23 0 0 1 4.12 3.27 3.69 3.69 0 0 0 .11-1A4.23 4.23 0 0 0 4.63 19H3.29a2.1 2.1 0 0 0-2.11 2.11 2.18 2.18 0 0 0 .22 1 2.12 2.12 0 0 1 1.89-1.19z" fill="#ffe3cf"/></g><path class="cls-3" d="M3.29 27.47a2.12 2.12 0 0 1 0-4.23 2.12 2.12 0 0 1 0-4.23h1.34a4.23 4.23 0 1 1 0 8.46z"/><path class="cls-3" d="M3.29 23.24h2.43"/><path d="M18.92 20.73c0 1.54 3.15 2.79 3.69 2.79s1.54-1.25 1.54-2.79-1-2.79-1.54-2.79-3.69 1.25-3.69 2.79z" stroke="#45413c" stroke-linecap="round" stroke-linejoin="round" fill="#fff48c"/><path class="cls-3" d="M6.31 32.08l-1.29 1.33"/><path class="cls-3" d="M12.42 37.8l-.88 1.86"/><path class="cls-3" d="M22.78 39.41l.26 2"/><path class="cls-3" d="M31.87 34.86l1.63 1.49"/><path class="cls-3" d="M34.84 30.5l2.11.79"/><path class="cls-3" d="M7.84 13.34l-1.53-1.18"/><path class="cls-3" d="M16.62 8.11l-.33-2.07"/><path class="cls-3" d="M24.79 8.05l.38-2.01"/><path class="cls-3" d="M35.98 20.37L43 19.14"/><path class="cls-3" d="M36.49 22.74l6.13 1.67"/><path d="M13.08 22.33a1.19 1.19 0 0 0 2.38 0 1.19 1.19 0 0 0-2.38 0z" fill="#fcd"/><path class="cls-3" d="M30.42 9.93l1.93-1.82"/><path class="cls-3" d="M18.92 20.73h2.61"/></g></svg>