<svg xmlns="http://www.w3.org/2000/svg" viewBox="0 0 48 48"><defs><style>.cls-4{fill:#fff}.cls-5{stroke:#45413c;stroke-linecap:round;stroke-linejoin:round}.cls-3{fill:#daedf7}.cls-5{fill:none}</style></defs><ellipse cx="24.04" cy="45.12" rx="20.02" ry="1.88" fill="#45413c" opacity=".15"/><path d="M5.36 10.82S2.29 8.6 4 6c1.6-2.44 3.09.44 3.09.44z" stroke="#45413c" stroke-linecap="round" stroke-linejoin="round" fill="#fff"/><path class="cls-3" d="M7.58 16.58S4.3 17.07 4 13c-.21-3.7 3.13-6.6 3.13-6.6S11 4.82 12.88 7.73s-5.3 8.85-5.3 8.85z"/><path class="cls-4" d="M4.18 14a8.68 8.68 0 0 1 1.35-3 4.84 4.84 0 0 1 5-2.18 3.69 3.69 0 0 1 2.33 1.58 2.72 2.72 0 0 0 0-2.64C11 4.82 7.13 6.4 7.13 6.4S3.79 9.3 4 13a5 5 0 0 0 .18 1z"/><path class="cls-5" d="M7.58 16.58S4.3 17.07 4 13c-.21-3.7 3.13-6.6 3.13-6.6S11 4.82 12.88 7.73s-5.3 8.85-5.3 8.85z"/><path class="cls-3" d="M8.9 25.82s-2-.61-3.09-4S5.64 15 8.9 11.67s4-4 4-4a6 6 0 0 1 5.31 1.76c2.42 2.46-9.31 16.39-9.31 16.39z"/><path class="cls-4" d="M8.9 15.34l2.1-2.17a5 5 0 0 1 6.76-.4l.07.06c.68-1.55.91-2.79.33-3.37a6 6 0 0 0-5.31-1.77s-.71.6-4 4c-3 3.09-4 6.18-3.31 9.31a12.13 12.13 0 0 1 3.36-5.66z"/><path class="cls-5" d="M8.9 25.82s-2-.61-3.09-4S5.64 15 8.9 11.67s4-4 4-4a6 6 0 0 1 5.31 1.77c2.42 2.45-9.31 16.38-9.31 16.38z"/><path class="cls-3" d="M36 43.88S22.89 48.69 14.21 40c-6.36-6.36-7.8-15-1.77-22.12s5.75-8.41 5.75-8.41S23.72 9.7 27 13s3.1 5.75 3.1 5.75l11.1 11.08z"/><path class="cls-4" d="M12.44 22.83c1.3-1.54 2.31-2.81 3.09-3.85A7.66 7.66 0 0 1 27 18c3.32 3.32 3.1 5.75 3.1 5.75l9.72 9.72 1.34-3.6-11.02-11.1S30.36 16.34 27 13s-8.85-3.54-8.85-3.54.16 1.42-5.75 8.41a14.76 14.76 0 0 0-3.6 12.35 15.65 15.65 0 0 1 3.64-7.39z"/><path class="cls-5" d="M36 43.88S22.89 48.69 14.21 40c-6.36-6.36-7.8-15-1.77-22.12s5.75-8.41 5.75-8.41S23.72 9.7 27 13s3.1 5.75 3.1 5.75l11.1 11.08z"/><path class="cls-3" d="M30.14 18.77s4-1.12 10 3.52c6.79 5.25 7.51 14.27 1.77 19.47-4.16 3.76-10.34 2.93-14.16-.89-3.65-3.65-4.25-9.9.45-14.6 4.18-4.2 1.94-7.5 1.94-7.5z"/><path class="cls-4" d="M30.39 23c.9-.15 4.36-.36 9.48 3.6a15.53 15.53 0 0 1 5.79 8 13.55 13.55 0 0 0-5.54-12.3c-6-4.64-10-3.52-10-3.52a4.85 4.85 0 0 1 .27 4.22z"/><path class="cls-5" d="M30.14 18.77s4-1.12 10 3.52c6.79 5.25 7.51 14.27 1.77 19.47-4.16 3.76-10.34 2.93-14.16-.89-3.65-3.65-4.25-9.9.45-14.6 4.18-4.2 1.94-7.5 1.94-7.5z"/><path d="M34.09 22c1.62 4.75-3.75 7-3.75 12.52 0 4.48 4.38 6.78 6.88 6.25 3.44-.73 5.63-3.12 5.63-8.13 0-6.32-8.76-10.64-8.76-10.64z" fill="#c0dceb"/><path d="M32.3 38.59c-1.54-4.76-.11-7.75 3.09-9.55a6.6 6.6 0 0 1 7 1c-1.89-4.87-8.3-8.04-8.3-8.04 1.62 4.75-3.75 7-3.75 12.52a6.14 6.14 0 0 0 2.28 4.82 6.11 6.11 0 0 1-.32-.75z" fill="#adc4d9"/><path class="cls-5" d="M34.09 22c1.62 4.75-3.75 7-3.75 12.52 0 4.48 4.38 6.78 6.88 6.25 3.44-.73 5.63-3.12 5.63-8.13 0-6.32-8.76-10.64-8.76-10.64z"/><path d="M34.09 22c-.86-2.06-4-3.22-4-3.22" fill="#fffce5" stroke="#45413c" stroke-linecap="round" stroke-linejoin="round"/></svg>