<svg xmlns="http://www.w3.org/2000/svg" viewBox="0 0 48 48"><defs><style>.cls-13{fill:#dea47a}.cls-4{stroke:#45413c;stroke-linecap:round;stroke-linejoin:round}.cls-2{fill:#87898c}.cls-3{fill:#bdbec0}.cls-4{fill:none}.cls-6{fill:#9ceb60}.cls-7{fill:#c8ffa1}.cls-8{fill:#6dd627}.cls-14{fill:#f0c2a1}</style></defs><g><path d="M47.21 24.54c-.44 1.41-1.44 2.35-2.23 2.1s-1.07-1.6-.63-3 1.45-2.35 2.24-2.1 1.07 1.59.62 3z" stroke="#45413c" stroke-linecap="round" stroke-linejoin="round" fill="#dea47a"/><path class="cls-2" d="M14.58 6.12A9.15 9.15 0 0 1 22 .65C26.88.2 28 3 26.57 4.66c-1.82 2.06-5-3.15-9.93 1.73-2.11 2.11-2.06-.27-2.06-.27z"/><path class="cls-2" d="M15.64 6.12A9.15 9.15 0 0 0 8.26.65C3.34.2 2.18 3 3.65 4.66c1.82 2.06 5-3.15 9.93 1.73 2.11 2.11 2.06-.27 2.06-.27z"/><path class="cls-3" d="M15 7.21a8.93 8.93 0 0 1 7-4.6c2.79-.26 4.37.53 4.95 1.56C27.79 2.5 26.43.24 22 .65a9.15 9.15 0 0 0-7.38 5.47s-.06.88.38 1.09z"/><path class="cls-3" d="M8.26 2.61a8.93 8.93 0 0 1 6.94 4.6c.46-.23.44-1.09.44-1.09A9.15 9.15 0 0 0 8.26.65C3.79.24 2.43 2.5 3.31 4.17c.58-1.03 2.16-1.82 4.95-1.56z"/><path class="cls-4" d="M14.58 6.12A9.15 9.15 0 0 1 22 .65C26.88.2 28 3 26.57 4.66c-1.82 2.06-5-3.15-9.93 1.73-2.11 2.11-2.06-.27-2.06-.27z"/><path class="cls-4" d="M15.64 6.12A9.15 9.15 0 0 0 8.26.65C3.34.2 2.18 3 3.65 4.66c1.82 2.06 5-3.15 9.93 1.73 2.11 2.11 2.06-.27 2.06-.27z"/><ellipse cx="24" cy="45.5" rx="19" ry="1.5" opacity=".15" fill="#45413c"/><circle class="cls-6" cx="41.89" cy="28.75" r="4.75"/><path class="cls-7" d="M41.89 26.28a4.75 4.75 0 0 1 4.6 3.61 4.75 4.75 0 1 0-9.2 0 4.75 4.75 0 0 1 4.6-3.61z"/><circle class="cls-4" cx="41.89" cy="28.75" r="4.75"/><circle class="cls-6" cx="36.39" cy="32.75" r="6.75"/><path class="cls-7" d="M36.39 28.14a6.75 6.75 0 0 1 6.66 5.68 7.47 7.47 0 0 0 .09-1.07 6.75 6.75 0 0 0-13.5 0 7.47 7.47 0 0 0 .09 1.07 6.75 6.75 0 0 1 6.66-5.68z"/><circle class="cls-4" cx="36.39" cy="32.75" r="6.75"/><circle class="cls-6" cx="28.14" cy="33.5" r="8.5"/><path class="cls-7" d="M28.14 27.5a8.5 8.5 0 0 1 8.4 7.25 8.5 8.5 0 1 0-16.8 0 8.5 8.5 0 0 1 8.4-7.25z"/><circle class="cls-4" cx="28.14" cy="33.5" r="8.5"/><circle class="cls-6" cx="20.14" cy="33.5" r="8.5"/><path class="cls-8" d="M11.64 33.5a8.51 8.51 0 0 0 .27 2.1 8.49 8.49 0 0 0 14-6.43 8.65 8.65 0 0 0-.27-2.11 8.49 8.49 0 0 0-14 6.44z"/><circle class="cls-4" cx="20.14" cy="33.5" r="8.5"/><circle class="cls-6" cx="16.14" cy="26" r="8.5"/><path class="cls-8" d="M7.66 25.57a8.49 8.49 0 0 0 16.09-3.35 8.49 8.49 0 0 0-16.09 3.35z"/><circle class="cls-4" cx="16.14" cy="26" r="8.5"/><circle class="cls-6" cx="14.14" cy="16" r="10.5"/><path class="cls-7" d="M14.14 9a10.49 10.49 0 0 1 10.34 8.75 10.08 10.08 0 0 0 .16-1.75 10.5 10.5 0 0 0-21 0 10.08 10.08 0 0 0 .16 1.75A10.49 10.49 0 0 1 14.14 9z"/><circle class="cls-4" cx="14.14" cy="16" r="10.5"/><path class="cls-2" d="M13.88 29.36c1.15 1.72 1 3.86-.4 4.79s-3.43.28-4.58-1.44-1-3.86.4-4.79 3.43-.28 4.58 1.44z"/><path class="cls-3" d="M9.3 29.92c1.37-.92 3.43-.28 4.58 1.44a4.6 4.6 0 0 1 .62 1.36 4.07 4.07 0 0 0-.62-3.36c-1.15-1.72-3.21-2.36-4.58-1.44a3.06 3.06 0 0 0-1 3.43 2.55 2.55 0 0 1 1-1.43z"/><path class="cls-4" d="M13.88 29.36c1.15 1.72 1 3.86-.4 4.79s-3.43.28-4.58-1.44-1-3.86.4-4.79 3.43-.28 4.58 1.44z"/><path class="cls-2" d="M18.86 37.23c2 .62 3.17 2.41 2.67 4S19 43.57 17.05 43s-3.17-2.42-2.67-4 2.51-2.4 4.48-1.77z"/><path class="cls-3" d="M18.86 39.24a4.05 4.05 0 0 1 2.57 2.23 1.86 1.86 0 0 0 .1-.25c.5-1.58-.7-3.37-2.67-4s-4 .14-4.48 1.72a2.57 2.57 0 0 0 .09 1.77c.62-1.4 2.53-2.06 4.39-1.47z"/><path class="cls-4" d="M18.86 37.23c2 .62 3.17 2.41 2.67 4S19 43.57 17.05 43s-3.17-2.42-2.67-4 2.51-2.4 4.48-1.77z"/><path class="cls-2" d="M31.12 37.2c2-.56 4 .27 4.43 1.87s-.8 3.34-2.79 3.9-4-.27-4.43-1.86.8-3.34 2.79-3.91z"/><path class="cls-3" d="M28.45 41.43a4 4 0 0 1 2.67-2.23c1.86-.52 3.71.17 4.31 1.55a2.5 2.5 0 0 0 .12-1.68c-.45-1.6-2.43-2.43-4.43-1.87s-3.24 2.32-2.79 3.91a1.75 1.75 0 0 0 .12.32z"/><path class="cls-4" d="M31.12 37.2c2-.56 4 .27 4.43 1.87s-.8 3.34-2.79 3.9-4-.27-4.43-1.86.8-3.34 2.79-3.91z"/><path d="M12.61 13.34a1.76 1.76 0 1 1-1.31-2.12 1.77 1.77 0 0 1 1.31 2.12z" fill="#45413c"/><path d="M15.63 18.46a2.1 2.1 0 0 1-2.13.75c-.95-.13-1.53-.67-1.31-1.21s1.17-.87 2.12-.74 1.54.66 1.32 1.2z" fill="#46b000"/><path d="M4.14 13.5a4.68 4.68 0 0 0-2.5 5c.5 3.25 4 3.5 4 3.5s2.25-.14 2.5-3c.31-3.5-4-5.5-4-5.5z" fill="#ffaa54"/><path d="M1.68 18.66v-.07a2.93 2.93 0 0 1 5-1.27A5.25 5.25 0 0 1 8 19.67a4.46 4.46 0 0 0 .14-.67c.31-3.5-4-5.5-4-5.5a4.68 4.68 0 0 0-2.5 5c.01.06.03.1.04.16z" fill="#fc9"/><path class="cls-4" d="M4.14 13.5a4.68 4.68 0 0 0-2.5 5c.5 3.25 4 3.5 4 3.5s2.25-.14 2.5-3c.31-3.5-4-5.5-4-5.5z"/><path class="cls-4" d="M1.64 18.5a8.24 8.24 0 0 0 6.5 0"/><path class="cls-13" d="M11.13 30.9c-1.21-1.89-2.26-.33-4.05.36s-1.81 2.31 1 3c3.1.74 4.36-1.26 3.05-3.36z"/><path class="cls-14" d="M7.08 32.87c1.79-.69 2.84-2.25 4.05-.36a3.72 3.72 0 0 1 .35.73 2.51 2.51 0 0 0-.35-2.34c-1.21-1.89-2.26-.33-4.05.36-1.31.5-1.67 1.39-.88 2.13a2.8 2.8 0 0 1 .88-.52z"/><path class="cls-4" d="M11.13 30.9c-1.21-1.89-2.26-.33-4.05.36s-1.81 2.31 1 3c3.1.74 4.36-1.26 3.05-3.36z"/><path class="cls-13" d="M17.13 39.93c-2.24 0-1.46 1.76-1.8 3.64s1 2.75 3.08.71c2.26-2.28 1.16-4.39-1.28-4.35z"/><path class="cls-14" d="M16.44 42c1.42 0 2.38.68 2.51 1.71 1.51-2 .4-3.78-1.82-3.74-1.66 0-1.66 1-1.69 2.24a2.19 2.19 0 0 1 1-.21z"/><path class="cls-4" d="M17.13 39.93c-2.24 0-1.46 1.76-1.8 3.64s1 2.75 3.08.71c2.26-2.28 1.16-4.39-1.28-4.35z"/><path class="cls-13" d="M31.38 41c-1.35 1.79.48 2.22 1.75 3.66s2.8.88 2.46-2c-.38-3.13-2.74-3.58-4.21-1.66z"/><path class="cls-14" d="M31.37 42.75c1.46-1.93 3.78-1.51 4.2 1.55a5.22 5.22 0 0 0 0-1.6c-.38-3.17-2.74-3.62-4.22-1.67-.65.87-.55 1.42-.14 1.92z"/><path class="cls-4" d="M31.38 41c-1.35 1.79.48 2.22 1.75 3.66s2.8.88 2.46-2c-.38-3.13-2.74-3.58-4.21-1.66z"/><path class="cls-2" d="M39.54 35.52c1.37-.94 3.08-.81 3.82.29a2.75 2.75 0 0 1-1.12 3.66 2.75 2.75 0 0 1-3.82-.29 2.75 2.75 0 0 1 1.12-3.66z"/><path class="cls-3" d="M39.54 37.16c1.37-.93 3.08-.8 3.82.29a2.09 2.09 0 0 1 .19.36 2.19 2.19 0 0 0-.19-2c-.74-1.1-2.45-1.23-3.82-.29a2.87 2.87 0 0 0-1.31 3.3 3.46 3.46 0 0 1 1.31-1.66z"/><path class="cls-4" d="M39.54 35.52c1.37-.94 3.08-.81 3.82.29a2.75 2.75 0 0 1-1.12 3.66 2.75 2.75 0 0 1-3.82-.29 2.75 2.75 0 0 1 1.12-3.66z"/><path class="cls-13" d="M40.32 38.27c-.75 1.62.75 1.66 2 2.56s2.34.22 1.58-2c-.84-2.36-2.76-2.32-3.58-.56z"/><path class="cls-14" d="M40.32 39.57c.82-1.77 2.74-1.81 3.56.59a6 6 0 0 1 .17.58 2.92 2.92 0 0 0-.17-1.87c-.82-2.4-2.74-2.36-3.56-.6-.29.63-.24 1 0 1.31z"/><path class="cls-4" d="M40.32 38.27c-.75 1.62.75 1.66 2 2.56s2.34.22 1.58-2c-.84-2.36-2.76-2.32-3.58-.56z"/></g></svg>