<svg xmlns="http://www.w3.org/2000/svg" viewBox="0 0 48 48"><defs><style>.cls-4{fill:none}.cls-4,.cls-7{stroke:#45413c;stroke-linecap:round;stroke-linejoin:round}.cls-5,.cls-7{fill:#87898c}.cls-9{fill:#fff}</style></defs><g><ellipse cx="24" cy="44.36" rx="12.6" ry="1.64" fill="#45413c" opacity=".15"/><path d="M38.24 24.31c0 8.13-6.37 15.19-14.24 15.19S9.76 32.44 9.76 24.31A14.07 14.07 0 0 1 24 10.07a14.07 14.07 0 0 1 14.24 14.24z" fill="#ff6242"/><path d="M24 37c-7.46 0-13.58-6.36-14.19-14 0 .41-.05.82-.05 1.24 0 8.2 6.37 15.26 14.24 15.26s14.24-7.06 14.24-15.19c0-.42 0-.83-.05-1.24C37.58 30.66 31.46 37 24 37z" fill="#e04122"/><path class="cls-4" d="M38.24 24.31c0 8.13-6.37 15.19-14.24 15.19S9.76 32.44 9.76 24.31A14.07 14.07 0 0 1 24 10.07a14.07 14.07 0 0 1 14.24 14.24z"/><path class="cls-5" d="M31.6 11.73c0 2.29-3.4 2.13-7.6 2.13s-7.6.16-7.6-2.13c0-3 3.4-6.41 7.6-6.41s7.6 3.39 7.6 6.41z"/><path d="M24 7c3.74 0 6.84 2.69 7.47 5.41a1.73 1.73 0 0 0 .13-.66c0-3-3.4-6.41-7.6-6.41s-7.6 3.39-7.6 6.41a1.73 1.73 0 0 0 .13.66C17.16 9.67 20.26 7 24 7z" fill="#bdbec0"/><path class="cls-4" d="M31.6 11.73c0 2.29-3.4 2.13-7.6 2.13s-7.6.16-7.6-2.13c0-3 3.4-6.41 7.6-6.41s7.6 3.39 7.6 6.41z"/><path class="cls-7" d="M28.75 25.26A4.75 4.75 0 1 1 24 20.51a4.75 4.75 0 0 1 4.75 4.75z"/><path class="cls-7" d="M34 17.66a2.38 2.38 0 1 1-2.37-2.37A2.38 2.38 0 0 1 34 17.66z"/><path class="cls-7" d="M18.78 17.66a2.38 2.38 0 1 1-2.38-2.37 2.38 2.38 0 0 1 2.38 2.37z"/><path class="cls-7" d="M33.49 31.9A1.9 1.9 0 1 1 31.6 30a1.9 1.9 0 0 1 1.89 1.9z"/><path class="cls-7" d="M18.3 31.9a1.9 1.9 0 1 1-1.9-1.9 1.9 1.9 0 0 1 1.9 1.9z"/><path class="cls-5" d="M24 39.5a13 13 0 0 0 4.66-.88 4.74 4.74 0 0 0-9.32 0 13 13 0 0 0 4.66.88z"/><path d="M20.33 36.49a4.86 4.86 0 0 0-1 2.13 12.78 12.78 0 0 0 9.32 0 4.86 4.86 0 0 0-1-2.13 13 13 0 0 1-7.34 0z" fill="#656769"/><path class="cls-4" d="M24 39.5a13 13 0 0 0 4.66-.88 4.74 4.74 0 0 0-9.32 0 13 13 0 0 0 4.66.88z"/><path class="cls-7" d="M12.13 24.78a5.67 5.67 0 0 0-1.89-4.23 14.46 14.46 0 0 0-.48 3.76 15.52 15.52 0 0 0 .67 4.53 5.67 5.67 0 0 0 1.7-4.06zM35.87 24.78a5.67 5.67 0 0 1 1.89-4.23 14.46 14.46 0 0 1 .48 3.76 15.52 15.52 0 0 1-.67 4.53 5.67 5.67 0 0 1-1.7-4.06z"/><path class="cls-4" d="M24 13.86V39.5"/><path class="cls-4" d="M21.16 5.85a5.85 5.85 0 0 0-2.86-4.33"/><path class="cls-4" d="M26.84 5.85a5.85 5.85 0 0 1 2.86-4.33"/><path class="cls-9" d="M28.27 9.12a.95.95 0 1 1-.95-.95.95.95 0 0 1 .95.95z"/><path class="cls-9" d="M21.63 9.12a.95.95 0 1 1-1.9 0 .95.95 0 0 1 1.9 0z"/><path class="cls-4" d="M14.14 13.94l-2.8-1.87a2.17 2.17 0 0 1-.83-2.6 9.07 9.07 0 0 0 .67-4.63"/><path class="cls-4" d="M9.87 22.44a2.1 2.1 0 0 0-2.56 1.29 8.22 8.22 0 0 1-4.67 4.85"/><path class="cls-4" d="M12 32.38a1.86 1.86 0 0 0-1.7 1.77 7.2 7.2 0 0 1-2.44 5.35"/><path class="cls-4" d="M33.86 13.94l2.8-1.87a2.17 2.17 0 0 0 .83-2.6 9.07 9.07 0 0 1-.67-4.63"/><path class="cls-4" d="M38.13 22.44a2.1 2.1 0 0 1 2.56 1.29 8.22 8.22 0 0 0 4.67 4.85"/><path class="cls-4" d="M36 32.38a1.86 1.86 0 0 1 1.7 1.77 7.2 7.2 0 0 0 2.44 5.35"/></g></svg>