<svg xmlns="http://www.w3.org/2000/svg" viewBox="0 0 48 48"><defs><style>.cls-2,.cls-9{fill:#6dd627}.cls-3{fill:#46b000}.cls-4{fill:none}.cls-10,.cls-4,.cls-9{stroke:#45413c;stroke-linecap:round;stroke-linejoin:round}.cls-5{fill:#ff6242}.cls-6{fill:#ff866e}.cls-10{fill:#fff}</style></defs><ellipse cx="24" cy="45.5" rx="10" ry="1.5" fill="#45413c" opacity=".15"/><path class="cls-2" d="M22.52 44.33a1.49 1.49 0 0 0 3 0v-5.22a7.06 7.06 0 0 1 4.45-6.35L24 28.83l-5.19 3.93a6.61 6.61 0 0 1 3.7 5.78v5.79z"/><path class="cls-3" d="M18.82 32.76A6.69 6.69 0 0 1 22.5 38a13.31 13.31 0 0 0 3.09 0 7.21 7.21 0 0 1 4.35-5.23L24 28.83z"/><path class="cls-4" d="M22.52 44.33a1.49 1.49 0 0 0 3 0v-5.22a7.06 7.06 0 0 1 4.45-6.35L24 28.83l-5.19 3.93a6.61 6.61 0 0 1 3.7 5.78v5.79z"/><path class="cls-2" d="M24.7 31.16a15.94 15.94 0 0 1 4.52-6.85 11.22 11.22 0 0 1 7.05-2 .85.85 0 0 1 .85.84c0 1.75-.31 5.94-3.94 8.37-4.9 3.26-8.48-.36-8.48-.36z"/><path class="cls-3" d="M35.29 22.51c0 1.75-.31 5.95-3.94 8.38a6.91 6.91 0 0 1-5.22 1.26 5.88 5.88 0 0 1-1.43-1 15.94 15.94 0 0 1 4.52-6.85 10.6 10.6 0 0 1 6.05-2 1.5 1.5 0 0 1 .02.21z"/><path class="cls-4" d="M24.7 31.16a15.94 15.94 0 0 1 4.52-6.85 11.22 11.22 0 0 1 7.05-2 .85.85 0 0 1 .85.84c0 1.75-.31 5.94-3.94 8.37-4.9 3.26-8.48-.36-8.48-.36z"/><path class="cls-5" d="M16.26 5.94s-2-4.13.58-4.58C20.27.74 24 3.65 25.52 7.24z"/><path class="cls-6" d="M16.84 3c2.83-.5 5.86 1.38 7.68 4.07l1 .14C24 3.65 20.27.74 16.84 1.36c-1.36.24-1.42 1.54-1.19 2.69A1.41 1.41 0 0 1 16.84 3z"/><path class="cls-4" d="M16.26 5.94s-2-4.13.58-4.58C20.27.74 24 3.65 25.52 7.24z"/><path class="cls-5" d="M29.92 5.94s1.82-4.13-.54-4.58c-3.21-.62-6.69 2.29-8.11 5.88z"/><path class="cls-6" d="M29.38 3a1.36 1.36 0 0 1 1.12 1c.21-1.15.15-2.45-1.12-2.69-3.21-.62-6.69 2.29-8.11 5.88l.93-.14c1.71-2.64 4.54-4.52 7.18-4.05z"/><path class="cls-4" d="M29.92 5.94s1.82-4.13-.54-4.58c-3.21-.62-6.69 2.29-8.11 5.88z"/><circle cx="24.05" cy="18.37" r="12.43" fill="#e04122" stroke="#45413c" stroke-linecap="round" stroke-linejoin="round"/><path class="cls-5" d="M31.9 8.55c1.23-2.49 2.17-6.09-2-4.58-5.12 1.88-8.51 9.82-8.51 9.82l1.5 4.75h11.22z"/><path class="cls-6" d="M29.94 6.77c1.45-.53 2.27-.43 2.68 0 .67-2.09.53-4-2.68-2.83-5.12 1.88-8.51 9.82-8.51 9.82l.57 1.71c1.1-2.25 4-7.26 7.94-8.7z"/><path class="cls-4" d="M31.9 8.55c1.23-2.49 2.17-6.09-2-4.58-5.12 1.88-8.51 9.82-8.51 9.82l1.5 4.75h11.22z"/><path class="cls-6" d="M28.63 28.42v1.49l.46-.2c-.17-.43-.33-.86-.46-1.29z"/><path class="cls-5" d="M28.63 29.91a12.42 12.42 0 0 0 7.85-11.54c0-5.75-2-6.62-2-10A4.81 4.81 0 0 1 35.7 5a.65.65 0 0 0-.59-1.08c-2.1.37-4.57 2.89-6.48 6.59a19.42 19.42 0 0 0 0 17.67z"/><path class="cls-6" d="M28.63 14.39C30.36 11 32.56 8.63 34.53 8a4.67 4.67 0 0 1 1.17-3 .65.65 0 0 0-.59-1.08c-2.1.37-4.57 2.89-6.48 6.59a19.77 19.77 0 0 0-2 10.86 19.52 19.52 0 0 1 2-6.98z"/><path class="cls-4" d="M28.63 29.91a12.42 12.42 0 0 0 7.85-11.54c0-5.75-2-6.62-2-10A4.81 4.81 0 0 1 35.7 5a.65.65 0 0 0-.59-1.08c-2.1.37-4.57 2.89-6.48 6.59a19.42 19.42 0 0 0 0 17.67z"/><path class="cls-5" d="M24.05 30.8a12.38 12.38 0 0 0 4.84-1c.78-1.11 1.69-3.26 1.05-6.87-.72-4-3-8.13-7.2-13.74C20 5.62 17.31 3.84 12.68 4.36a.67.67 0 0 0-.41 1.13 4.38 4.38 0 0 1 1.31 3.3c0 3.26-2 4.09-2 9.58A12.43 12.43 0 0 0 24.05 30.8z"/><path class="cls-6" d="M29.94 23c-.72-4-3-8.13-7.2-13.74-2.74-3.64-5.43-5.42-10.06-4.9a.67.67 0 0 0-.41 1.13 4.2 4.2 0 0 1 1.22 2.31c4.14-.23 6.7 1.55 9.25 4.92 4.25 5.61 6.48 9.7 7.2 13.73 0 .18 0 .34.08.51a11.9 11.9 0 0 0-.08-3.96z"/><path class="cls-4" d="M24.05 30.8a12.38 12.38 0 0 0 4.84-1c.78-1.11 1.69-3.26 1.05-6.87-.72-4-3-8.13-7.2-13.74C20 5.62 17.31 3.84 12.68 4.36a.67.67 0 0 0-.41 1.13 4.38 4.38 0 0 1 1.31 3.3c0 3.26-2 4.09-2 9.58A12.43 12.43 0 0 0 24.05 30.8z"/><path class="cls-2" d="M25.36 31.1a15.79 15.79 0 0 0-5.24-6.85c-2.82-1.94-6.68-2.06-8.31-2a.87.87 0 0 0-.83.85 9.24 9.24 0 0 0 4.56 8.36c5.67 3.26 9.82-.36 9.82-.36z"/><path d="M11.81 24.62c1.63-.05 5.49.07 8.31 2a14.81 14.81 0 0 1 4.39 5.05 5.18 5.18 0 0 0 .85-.58 15.79 15.79 0 0 0-5.24-6.85c-2.82-1.94-6.68-2.06-8.31-2a.87.87 0 0 0-.83.85 10.15 10.15 0 0 0 .14 1.91.87.87 0 0 1 .69-.38z" fill="#9ceb60"/><path class="cls-4" d="M25.36 31.1a15.79 15.79 0 0 0-5.24-6.85c-2.82-1.94-6.68-2.06-8.31-2a.87.87 0 0 0-.83.85 9.24 9.24 0 0 0 4.56 8.36c5.67 3.26 9.82-.36 9.82-.36z"/><path class="cls-9" d="M22.52 40.5l-1.59.5a.43.43 0 0 0-.05.8l1.64.8z"/><path class="cls-9" d="M25.49 42.17l1.59.53a.43.43 0 0 1 .05.8l-1.64.8z"/><path class="cls-10" d="M8.79 38.25a2.08 2.08 0 0 1 1.55-1.55l3.1-.71a.27.27 0 0 0 .2-.26.26.26 0 0 0-.2-.25l-3.1-.71a2.08 2.08 0 0 1-1.55-1.55l-.72-3.11a.26.26 0 0 0-.5 0l-.72 3.11a2.08 2.08 0 0 1-1.55 1.55l-3.1.71a.26.26 0 0 0-.2.25.27.27 0 0 0 .2.26l3.1.71a2.08 2.08 0 0 1 1.55 1.55l.72 3.11a.26.26 0 0 0 .5 0z"/><path class="cls-10" d="M42.5 9.61a1.55 1.55 0 0 1 1.15-1.15L46 7.93a.18.18 0 0 0 .15-.18.19.19 0 0 0-.15-.19L43.65 7a1.53 1.53 0 0 1-1.15-1.12l-.5-2.3a.19.19 0 0 0-.19-.15.18.18 0 0 0-.18.15l-.54 2.3A1.52 1.52 0 0 1 39.92 7l-2.3.53a.19.19 0 0 0-.15.19.18.18 0 0 0 .15.18l2.3.53a1.54 1.54 0 0 1 1.14 1.15l.54 2.3a.18.18 0 0 0 .18.15.19.19 0 0 0 .19-.15z"/></svg>