<svg xmlns="http://www.w3.org/2000/svg" viewBox="0 0 48 48"><defs><style>.cls-1{fill:#6dd627}.cls-2{fill:#46b000}.cls-3{fill:none}.cls-3,.cls-9{stroke:#45413c;stroke-linecap:round;stroke-linejoin:round}.cls-6{fill:#ff87af}.cls-7{fill:#ffb0ca}.cls-8{fill:#ff6196}.cls-9{fill:#ffe500}</style></defs><g><path class="cls-1" d="M15.89 38.94a14.41 14.41 0 0 1-12.29.69 1.22 1.22 0 0 1-.74-1.31 14.42 14.42 0 0 1 7-10.15 14.41 14.41 0 0 1 12.29-.69 1.24 1.24 0 0 1 .74 1.31 14.42 14.42 0 0 1-7 10.15z"/><path class="cls-2" d="M22.86 28.78a14.47 14.47 0 0 1-7 10.16 13.4 13.4 0 0 1-2.09.94 20.71 20.71 0 0 1-8.09-8.12 13.39 13.39 0 0 1 4.1-3.59 14.43 14.43 0 0 1 12.3-.7 1.24 1.24 0 0 1 .78 1.31z"/><path class="cls-3" d="M15.89 38.94a14.41 14.41 0 0 1-12.29.69 1.22 1.22 0 0 1-.74-1.31 14.42 14.42 0 0 1 7-10.15 14.41 14.41 0 0 1 12.29-.69 1.24 1.24 0 0 1 .74 1.31 14.42 14.42 0 0 1-7 10.15z"/><path class="cls-1" d="M32.12 38.94a14.41 14.41 0 0 0 12.29.69 1.21 1.21 0 0 0 .74-1.31 14.44 14.44 0 0 0-7-10.15 14.43 14.43 0 0 0-12.3-.69 1.22 1.22 0 0 0-.73 1.31 14.41 14.41 0 0 0 7 10.15z"/><path class="cls-2" d="M25.16 28.78a14.43 14.43 0 0 0 7 10.16 13.4 13.4 0 0 0 2.09.94 20.71 20.71 0 0 0 8.09-8.12 13.28 13.28 0 0 0-4.1-3.59 14.41 14.41 0 0 0-12.29-.7 1.22 1.22 0 0 0-.79 1.31z"/><path class="cls-3" d="M32.12 38.94a14.41 14.41 0 0 0 12.29.69 1.21 1.21 0 0 0 .74-1.31 14.44 14.44 0 0 0-7-10.15 14.43 14.43 0 0 0-12.3-.69 1.22 1.22 0 0 0-.73 1.31 14.41 14.41 0 0 0 7 10.15z"/><path fill="#e0366f" stroke="#45413c" stroke-linecap="round" stroke-linejoin="round" d="M21.36 25.3l-1.63-5.02 4.27-3.1 4.27 3.1-1.63 5.02h-5.28z"/><ellipse cx="24.01" cy="45.41" rx="12.16" ry="1.59" fill="#45413c" opacity=".15"/><path class="cls-6" d="M19.85 20.32l-6.13-2A6.35 6.35 0 0 1 12 7.16l2-1.44a6.35 6.35 0 0 1 10 5.14v6.44a3.18 3.18 0 0 1-4.15 3.02z"/><path class="cls-7" d="M13.93 5.72L12 7.16a6.27 6.27 0 0 0-2.5 6.32A6.24 6.24 0 0 1 12 9.56l2-1.44a6.35 6.35 0 0 1 10 5.14v-2.4a6.34 6.34 0 0 0-10.07-5.14z"/><path class="cls-3" d="M19.85 20.32l-6.13-2A6.35 6.35 0 0 1 12 7.16l2-1.44a6.35 6.35 0 0 1 10 5.14v6.44a3.18 3.18 0 0 1-4.15 3.02z"/><path class="cls-6" d="M28.16 20.32l6.13-2a6.35 6.35 0 0 0 1.77-11.16l-2-1.44A6.34 6.34 0 0 0 24 10.86v6.44a3.17 3.17 0 0 0 4.16 3.02z"/><path class="cls-7" d="M34.08 5.72l2 1.44a6.27 6.27 0 0 1 2.5 6.32 6.24 6.24 0 0 0-2.5-3.92l-2-1.44A6.35 6.35 0 0 0 24 13.26v-2.4a6.34 6.34 0 0 1 10.08-5.14z"/><path class="cls-3" d="M28.16 20.32l6.13-2a6.35 6.35 0 0 0 1.77-11.16l-2-1.44A6.34 6.34 0 0 0 24 10.86v6.44a3.17 3.17 0 0 0 4.16 3.02z"/><path class="cls-6" d="M26.57 25.2l3.79 5.22a6.35 6.35 0 0 1-5.13 10.08h-2.45a6.35 6.35 0 0 1-5.13-10.08l3.79-5.22a3.17 3.17 0 0 1 5.13 0z"/><path class="cls-8" d="M26.57 25.2a3.18 3.18 0 0 0-5.13 0l-1.46 2a7.56 7.56 0 0 1 8.05 0z"/><path class="cls-3" d="M26.57 25.2l3.79 5.22a6.35 6.35 0 0 1-5.13 10.08h-2.45a6.35 6.35 0 0 1-5.13-10.08l3.79-5.22a3.17 3.17 0 0 1 5.13 0z"/><path class="cls-6" d="M6.48 28.65l-.76-2.32a6.35 6.35 0 0 1 8-8l6.13 2a3.17 3.17 0 0 1 1.59 4.88l-3.79 5.22a6.35 6.35 0 0 1-11.17-1.78z"/><path class="cls-8" d="M13.72 21.09l6.13 2a3.14 3.14 0 0 1 1.88 1.64 3.18 3.18 0 0 0-1.88-4.4l-6.13-2a6.34 6.34 0 0 0-8.16 7.39 6.35 6.35 0 0 1 8.16-4.63z"/><path class="cls-3" d="M6.48 28.65l-.76-2.32a6.35 6.35 0 0 1 8-8l6.13 2a3.17 3.17 0 0 1 1.59 4.88l-3.79 5.22a6.35 6.35 0 0 1-11.17-1.78z"/><path class="cls-6" d="M41.53 28.65l.76-2.32a6.35 6.35 0 0 0-8-8l-6.13 2a3.18 3.18 0 0 0-1.59 4.88l3.79 5.22a6.35 6.35 0 0 0 11.17-1.78z"/><path class="cls-8" d="M34.29 21.09l-6.13 2a3.17 3.17 0 0 0-1.88 1.64 3.18 3.18 0 0 1 1.88-4.4l6.13-2a6.34 6.34 0 0 1 8.16 7.39 6.35 6.35 0 0 0-8.16-4.63z"/><path class="cls-3" d="M41.53 28.65l.76-2.32a6.35 6.35 0 0 0-8-8l-6.13 2a3.18 3.18 0 0 0-1.59 4.88l3.79 5.22a6.35 6.35 0 0 0 11.17-1.78z"/><path class="cls-3" d="M24 21.67a22.46 22.46 0 0 0-4.81-8.46"/><g><path class="cls-9" d="M18.17 8.51A2.21 2.21 0 1 1 16 6.3a2.21 2.21 0 0 1 2.17 2.21z"/><path class="cls-9" d="M22.07 10.94a2.34 2.34 0 1 1-2.33-2.34 2.33 2.33 0 0 1 2.33 2.34z"/><path class="cls-9" d="M15.64 12.07a2.21 2.21 0 1 1-2.21-2.21 2.21 2.21 0 0 1 2.21 2.21z"/><path class="cls-9" d="M19.61 14.54a2.34 2.34 0 1 1-2.34-2.34 2.34 2.34 0 0 1 2.34 2.34z"/></g></g></svg>