<svg xmlns="http://www.w3.org/2000/svg" viewBox="0 0 48 48"><defs><style>.cls-3{fill:#46b000}.cls-4{fill:none;stroke:#45413c;stroke-linecap:round;stroke-linejoin:round}.cls-5{fill:#ffe500}.cls-6{fill:#ebcb00}.cls-7{fill:#fff48c}.cls-8{fill:#fffacf}</style></defs><g><ellipse cx="24" cy="45.5" rx="14.5" ry="1.5" fill="#45413c" opacity=".15"/><path d="M29.93 37.79a8 8 0 0 0-4.39 4.31v-7.86h-3.08v7.86a8.06 8.06 0 0 0-12.37-3.2 8.06 8.06 0 0 0 12.37 5.65h3.08a8.06 8.06 0 0 0 12.37-5.65 8 8 0 0 0-7.98-1.11z" fill="#6dd627"/><g><path class="cls-3" d="M25.54 42.1a20 20 0 0 1 4.39-2.31 8.05 8.05 0 0 1 7.56.8 8 8 0 0 0 .42-1.69 8.06 8.06 0 0 0-12.37 3.2z"/><path class="cls-3" d="M22.46 34.24h3.08v5.16h-3.08z"/><path class="cls-3" d="M18.07 39.79a21.8 21.8 0 0 1 4.39 2.31 8.06 8.06 0 0 0-12.37-3.2 8 8 0 0 0 .42 1.69 8.05 8.05 0 0 1 7.56-.8z"/></g><path class="cls-4" d="M29.93 37.79a8 8 0 0 0-4.39 4.31v-7.86h-3.08v7.86a8.06 8.06 0 0 0-12.37-3.2 8.06 8.06 0 0 0 12.37 5.65h3.08a8.06 8.06 0 0 0 12.37-5.65 8 8 0 0 0-7.98-1.11z"/><path class="cls-5" d="M18.54 6.41c2.55 2.55 5.64 8.92 3.62 11s-8.39-1.07-10.95-3.63-2.31-5.64-.29-7.67 5.08-2.25 7.62.3z"/><path class="cls-5" d="M36.79 24.66C34.23 22.11 27.86 19 25.84 21s1.07 8.43 3.62 11 5.6 2.32 7.62.3 2.26-5.09-.29-7.64z"/><path class="cls-6" d="M38.28 26.85a6.57 6.57 0 0 0-1.49-2.19c-2.15-2.15-7-4.67-9.69-4.22a2.28 2.28 0 0 0-.5 1.36c0 2.86 6.69 5.18 10.3 5.18a7.52 7.52 0 0 0 1.38-.13z"/><path class="cls-5" d="M11.21 24.66c2.56-2.55 8.93-5.65 11-3.62S21.09 29.43 18.54 32s-5.6 2.32-7.62.3-2.26-5.09.29-7.64z"/><path class="cls-6" d="M11.1 27c3.61 0 10.3-2.32 10.3-5.18a2.28 2.28 0 0 0-.5-1.36c-2.69-.45-7.54 2.07-9.69 4.22a6.57 6.57 0 0 0-1.49 2.19 7.52 7.52 0 0 0 1.38.13z"/><path class="cls-4" d="M36.79 24.66C34.23 22.11 27.86 19 25.84 21s1.07 8.43 3.62 11 5.6 2.32 7.62.3 2.26-5.09-.29-7.64z"/><path class="cls-4" d="M11.21 24.66c2.56-2.55 8.93-5.65 11-3.62S21.09 29.43 18.54 32s-5.6 2.32-7.62.3-2.26-5.09.29-7.64z"/><path class="cls-5" d="M29.46 6.41c-2.55 2.55-5.64 8.92-3.62 11s8.39-1.07 11-3.63 2.31-5.59.29-7.62-5.13-2.3-7.67.25z"/><path class="cls-7" d="M10.92 8.86c2-2 5.06-2.26 7.62.29a17.65 17.65 0 0 1 4.08 7.47c.94-2.54-1.79-7.92-4.08-10.21-2.56-2.55-5.6-2.32-7.62-.3a4.92 4.92 0 0 0-1.36 5 5.23 5.23 0 0 1 1.36-2.25z"/><path class="cls-7" d="M29.46 9.15c2.56-2.55 5.6-2.32 7.62-.29a5.23 5.23 0 0 1 1.36 2.22 4.92 4.92 0 0 0-1.36-5c-2-2-5.06-2.25-7.62.3-2.29 2.29-5 7.67-4.08 10.21a17.65 17.65 0 0 1 4.08-7.44z"/><path class="cls-4" d="M18.54 6.41c2.55 2.55 5.64 8.92 3.62 11s-8.39-1.07-10.95-3.63-2.31-5.64-.29-7.67 5.08-2.25 7.62.3z"/><path class="cls-4" d="M29.46 6.41c-2.55 2.55-5.64 8.92-3.62 11s8.39-1.07 11-3.63 2.31-5.59.29-7.62-5.13-2.3-7.67.25z"/><path class="cls-7" d="M29.18 6.29c0 3.61-2.32 10.3-5.18 10.3s-5.18-6.69-5.18-10.3S21.14.7 24 .7s5.18 1.98 5.18 5.59z"/><path class="cls-8" d="M24 3.33a4.94 4.94 0 0 1 5.08 4.37 12.12 12.12 0 0 0 .1-1.41C29.18 2.68 26.86.7 24 .7s-5.18 2-5.18 5.59a12.12 12.12 0 0 0 .1 1.41A4.94 4.94 0 0 1 24 3.33z"/><path class="cls-4" d="M29.18 6.29c0 3.61-2.32 10.3-5.18 10.3s-5.18-6.69-5.18-10.3S21.14.7 24 .7s5.18 1.98 5.18 5.59z"/><path class="cls-7" d="M29.18 32.1c0-3.61-2.32-10.3-5.18-10.3s-5.18 6.69-5.18 10.3 2.32 5.6 5.18 5.6 5.18-1.99 5.18-5.6z"/><path class="cls-5" d="M24 28a6.16 6.16 0 0 0 4-1.49c-1-2.54-2.4-4.71-4-4.71s-3.08 2.2-4 4.71A6.16 6.16 0 0 0 24 28z"/><path class="cls-4" d="M29.18 32.1c0-3.61-2.32-10.3-5.18-10.3s-5.18 6.69-5.18 10.3 2.32 5.6 5.18 5.6 5.18-1.99 5.18-5.6z"/><path class="cls-7" d="M11.1 14c3.61 0 10.3 2.32 10.3 5.18s-6.69 5.17-10.3 5.17-5.6-2.29-5.6-5.15S7.49 14 11.1 14z"/><path class="cls-7" d="M36.9 14c-3.61 0-10.3 2.32-10.3 5.18s6.69 5.17 10.3 5.17 5.6-2.31 5.6-5.17S40.51 14 36.9 14z"/><path class="cls-8" d="M11.1 16.3c3.11 0 8.52 1.73 10 4a2.23 2.23 0 0 0 .35-1.14c0-2.86-6.69-5.18-10.3-5.18S5.5 16.34 5.5 19.2a6.12 6.12 0 0 0 .11 1.14C6.08 18 8 16.3 11.1 16.3z"/><path class="cls-8" d="M36.9 16.3c3.12 0 5 1.73 5.49 4a6.12 6.12 0 0 0 .11-1.14c0-2.86-2-5.18-5.6-5.18s-10.3 2.36-10.3 5.22a2.23 2.23 0 0 0 .4 1.14c1.38-2.34 6.79-4.04 9.9-4.04z"/><path class="cls-4" d="M11.1 14c3.61 0 10.3 2.32 10.3 5.18s-6.69 5.17-10.3 5.17-5.6-2.29-5.6-5.15S7.49 14 11.1 14z"/><path class="cls-4" d="M36.9 14c-3.61 0-10.3 2.32-10.3 5.18s6.69 5.17 10.3 5.17 5.6-2.31 5.6-5.17S40.51 14 36.9 14z"/><circle cx="24" cy="19.2" r="6.21" fill="#ff8a14"/><path d="M24 15.59a6.21 6.21 0 0 1 6.07 4.91 6.21 6.21 0 1 0-12.14 0A6.21 6.21 0 0 1 24 15.59z" fill="#ffaa54"/><circle class="cls-4" cx="24" cy="19.2" r="6.21"/><path class="cls-4" d="M28.83 42.35l4-1.75"/><path class="cls-4" d="M19.17 42.35l-4-1.75"/><path class="cls-4" d="M24 12.99V8.65"/><path class="cls-4" d="M24 29.75V25.4"/><path class="cls-4" d="M19.61 14.81l-3.07-3.07"/><path class="cls-4" d="M31.46 26.66l-3.07-3.08"/><path class="cls-4" d="M17.79 19.2h-4.34"/><path class="cls-4" d="M34.55 19.2h-4.34"/><path class="cls-4" d="M19.61 23.58l-3.07 3.08"/><path class="cls-4" d="M31.46 11.74l-3.07 3.07"/></g></svg>