<svg xmlns="http://www.w3.org/2000/svg" viewBox="0 0 48 48"><defs><style>.cls-1,.cls-2{fill:#ff87af;stroke:#45413c;stroke-linecap:round;stroke-linejoin:round}.cls-2{fill:none}.cls-4{fill:#6dd627}.cls-5{fill:#9ceb60}</style></defs><g><path class="cls-1" d="M20.82 2.47a1.81 1.81 0 0 1 1.81 1.82v3.63h-2.27L19.14 5a1.82 1.82 0 0 1 1.68-2.53z"/><path class="cls-1" d="M27.18 2.47A1.82 1.82 0 0 1 28.86 5l-1.23 2.92h-2.27V4.29a1.82 1.82 0 0 1 1.82-1.82z"/><path class="cls-1" d="M24 2a2.32 2.32 0 0 1 2.28 2.7l-.46 2.77h-3.64l-.46-2.77A2.31 2.31 0 0 1 24 2z"/><path class="cls-2" d="M23.14 2.18L22.63.65"/><path class="cls-2" d="M24.85 2.18l.51-1.53"/><ellipse cx="24" cy="45.51" rx="14.54" ry="1.5" fill="#45413c" opacity=".15"/><path class="cls-4" d="M39.07 23.83a3.26 3.26 0 0 1 3.1 4.26l-1.09 3.42a7.28 7.28 0 0 1-6.93 5.05h-3.79l-.91-6.82h4.35a1.83 1.83 0 0 0 1.8-1.54l.25-1.6a3.26 3.26 0 0 1 3.22-2.77z"/><path class="cls-5" d="M33.8 32a1.82 1.82 0 0 0 1.8-1.54l.25-1.6a3.26 3.26 0 0 1 6.28-.63v-.15a3.26 3.26 0 1 0-6.32-1.49l-.25 1.6a1.83 1.83 0 0 1-1.8 1.54h-4.31l.31 2.27z"/><path class="cls-2" d="M39.07 23.83a3.26 3.26 0 0 1 3.1 4.26l-1.09 3.42a7.28 7.28 0 0 1-6.93 5.05h-3.79l-.91-6.82h4.35a1.83 1.83 0 0 0 1.8-1.54l.25-1.6a3.26 3.26 0 0 1 3.22-2.77z"/><path class="cls-4" d="M8.77 20.65a3.25 3.25 0 0 0-3.12 4.15l1.08 3.77a7.28 7.28 0 0 0 7 5.26h3.62l.9-6.82H14a1.81 1.81 0 0 1-1.81-1.64L12 23.59a3.25 3.25 0 0 0-3.23-2.94z"/><path class="cls-5" d="M5.73 25.08a3.24 3.24 0 0 1 6.28.78l.17 1.78A1.81 1.81 0 0 0 14 29.28h4l.3-2.27H14a1.81 1.81 0 0 1-1.81-1.64L12 23.59a3.25 3.25 0 1 0-6.35 1.21z"/><path class="cls-2" d="M8.77 20.65a3.25 3.25 0 0 0-3.12 4.15l1.08 3.77a7.28 7.28 0 0 0 7 5.26h3.62l.9-6.82H14a1.81 1.81 0 0 1-1.81-1.64L12 23.59a3.25 3.25 0 0 0-3.23-2.94z"/><path class="cls-4" d="M24 7a9.61 9.61 0 0 0-9.6 10l.8 20a8.81 8.81 0 0 0 17.6 0l.8-20A9.61 9.61 0 0 0 24 7z"/><path class="cls-5" d="M24 10.65A9.6 9.6 0 0 1 33.52 19l.08-2a9.61 9.61 0 1 0-19.2 0l.08 2A9.6 9.6 0 0 1 24 10.65z"/><path class="cls-2" d="M24 7a9.61 9.61 0 0 0-9.6 10l.8 20a8.81 8.81 0 0 0 17.6 0l.8-20A9.61 9.61 0 0 0 24 7z"/><path class="cls-2" d="M17.71 9.36l-.98-.98"/><path class="cls-2" d="M14.76 13.98l-1.21-.6"/><path class="cls-2" d="M30.76 9.8l.97-.97"/><path class="cls-2" d="M33.34 14.35l1.57-.52"/><path class="cls-2" d="M33.38 22.47h1.53"/><path class="cls-2" d="M14.55 20.68l-1.46-.49"/><path class="cls-2" d="M9 20.65l.46-1.36"/><path class="cls-2" d="M5.82 22.47l-.91-.46"/><path class="cls-2" d="M6.68 28.38H4.91"/><path class="cls-2" d="M10.25 32.95l-1.7.43"/><path class="cls-2" d="M15.28 37.92l-.91-.45"/><path class="cls-2" d="M32.36 39.47l2.55-.64"/><path class="cls-2" d="M38.39 35.19h1.52"/><path class="cls-2" d="M41.35 30.65h1.74"/><path class="cls-2" d="M42.05 25.77l1.04-1.03"/><path class="cls-2" d="M38.16 23.96l-.52-1.04"/><path class="cls-2" d="M20.36 14.74l-.91-1.36"/><path class="cls-2" d="M27.18 16.1l.91-.45"/><path class="cls-2" d="M19.45 22.01l-1.36-.91"/><path class="cls-2" d="M24 25.19l.91-.9"/><path class="cls-2" d="M29.91 21.1l.91-1.36"/><path class="cls-2" d="M19 30.65l-.91-.91"/><path class="cls-2" d="M26.27 31.1l1.37-1.82"/><path class="cls-2" d="M22.18 37.92l-1.36-1.36"/><path class="cls-2" d="M29 37.01l.45-1.82"/><path class="cls-2" d="M37.64 29.74l.9-1.36"/><path class="cls-2" d="M35.36 33.38l1.37-.46"/><path class="cls-2" d="M9.91 27.47L9 26.56"/></g></svg>