<svg xmlns="http://www.w3.org/2000/svg" viewBox="0 0 48 48"><defs><style>.cls-1{fill:#ff87af}.cls-1,.cls-4,.cls-7{stroke:#45413c;stroke-linecap:round;stroke-linejoin:round}.cls-2{fill:#6dd627}.cls-3{fill:#9ceb60}.cls-4{fill:none}.cls-7{fill:#45413c}.cls-8{fill:#c8ffa1}</style></defs><path class="cls-1" d="M20.85 5.58a1.81 1.81 0 0 1 1.8 1.8V11H20.4l-1.22-2.93a1.8 1.8 0 0 1 1.67-2.49z"/><path class="cls-1" d="M27.15 5.58a1.8 1.8 0 0 1 1.67 2.49L27.6 11h-2.25V7.38a1.81 1.81 0 0 1 1.8-1.8z"/><path class="cls-1" d="M24 5.13a2.3 2.3 0 0 1 2.26 2.67l-.46 2.74h-3.6l-.46-2.74A2.3 2.3 0 0 1 24 5.13z"/><path class="cls-2" d="M12.22 26.37a4.32 4.32 0 0 0 0-1.64 4.51 4.51 0 0 0-8.81 1.89 9.16 9.16 0 0 0 7.11 7c8.78 2.14 8.1.91 8.1.91z"/><g><path class="cls-3" d="M3.52 27.19A5.16 5.16 0 0 1 7.37 24a5.17 5.17 0 0 1 4.91 1.44 5 5 0 0 0-.09-.66 4.51 4.51 0 0 0-8.81 1.89c.04.14.09.33.14.52z"/></g><path class="cls-4" d="M12.22 26.37a4.32 4.32 0 0 0 0-1.64 4.51 4.51 0 0 0-8.81 1.89 9.16 9.16 0 0 0 7.11 7c8.78 2.14 8.1.91 8.1.91z"/><path class="cls-2" d="M41.13 17.76a4.69 4.69 0 0 0-5 4.33v.36l-3.06 7s1.87 1.74 5.71 1.15c4.28-.64 6.53-4.95 6.75-7.83a4.69 4.69 0 0 0-4.4-5.01z"/><path class="cls-3" d="M40.53 20.45a5.66 5.66 0 0 1 4.83 3.15c0-.28.09-.55.11-.81a4.7 4.7 0 0 0-9.35-.93 5.93 5.93 0 0 1 4.41-1.41z"/><path class="cls-4" d="M41.13 17.76a4.69 4.69 0 0 0-5 4.33v.36l-3.06 7s1.87 1.74 5.71 1.15c4.28-.64 6.53-4.95 6.75-7.83a4.69 4.69 0 0 0-4.4-5.01z"/><ellipse cx="24" cy="45.5" rx="11.5" ry="1.5" opacity=".15" fill="#45413c"/><path class="cls-2" d="M24 9.63a13.18 13.18 0 0 0-13.06 13.52c0 5.06 2.22 11.64 3.69 15.42a10 10 0 0 0 18.74 0c1.47-3.78 3.69-10.36 3.69-15.42A13.18 13.18 0 0 0 24 9.63z"/><path class="cls-3" d="M24 14.25a13.12 13.12 0 0 1 12.91 11.39 21.57 21.57 0 0 0 .15-2.49A13.21 13.21 0 0 0 24 9.63a13.18 13.18 0 0 0-13.06 13.52 21.57 21.57 0 0 0 .15 2.49A13.07 13.07 0 0 1 24 14.25z"/><path class="cls-4" d="M24 9.63a13.18 13.18 0 0 0-13.06 13.52c0 5.06 2.22 11.64 3.69 15.42a10 10 0 0 0 18.74 0c1.47-3.78 3.69-10.36 3.69-15.42A13.18 13.18 0 0 0 24 9.63z"/><path d="M24 32.16a2 2 0 0 1-2-1.79l-.21-2.68a.45.45 0 0 1 .45-.49h3.52a.45.45 0 0 1 .45.49L26 30.37a2 2 0 0 1-2 1.79z" fill="#ff866e" stroke="#45413c" stroke-linecap="round" stroke-linejoin="round"/><circle class="cls-7" cx="18.27" cy="22.25" r="1.35"/><circle class="cls-7" cx="29.73" cy="22.25" r="1.35"/><path class="cls-8" d="M18.27 27c0 .54-.74 1-1.64 1S15 27.55 15 27s.73-1 1.64-1 1.63.48 1.63 1z"/><path class="cls-8" d="M29.73 27c0 .54.74 1 1.64 1S33 27.55 33 27s-.73-1-1.64-1-1.63.48-1.63 1z"/><path class="cls-4" d="M23.15 5.29l-.5-1.51"/><path class="cls-4" d="M24.85 5.29l.5-1.51"/><path class="cls-4" d="M15.98 12.42l-1.44-1.43"/><path class="cls-4" d="M12.2 17.27l-1.71-.43"/><path class="cls-4" d="M31.74 12.22l1.27-1.68"/><path class="cls-4" d="M35.14 16.03l1.47-.99"/><path class="cls-4" d="M41.97 17.9l.5-1.51"/><path class="cls-4" d="M45.48 22.45l1.95-.65"/><path class="cls-4" d="M43.66 27.49l1.51 1.52"/><path class="cls-4" d="M37.79 30.72l.63 1.89"/><path class="cls-4" d="M7.4 21.18l-.52-2.09"/><path class="cls-4" d="M3.41 24.59l-1.48-.99"/><path class="cls-4" d="M5.98 31.26l-1.35 1.35"/><path class="cls-4" d="M10.89 33.7l-.4 1.61"/><path class="cls-4" d="M14.58 38.45l-1.39.47"/><path class="cls-4" d="M34.26 36.15l1.45.96"/><path class="cls-4" d="M40.22 22.7l.9-1.35"/><path class="cls-4" d="M39.77 26.3l1.35-.45"/><path class="cls-4" d="M9.13 28.1l-1.8-.9"/><path class="cls-4" d="M28.5 15.49l.46-1.8"/><path class="cls-4" d="M20.4 15.04l-.45-1.35"/><path class="cls-4" d="M31.21 35.31l1.35-.9"/><path class="cls-4" d="M17.69 34.86l-1.35-.9"/><path class="cls-4" d="M27.6 37.11l.45-1.35"/></svg>