<svg xmlns="http://www.w3.org/2000/svg" viewBox="0 0 48 48"><defs><style>.cls-1{fill:none;stroke:#45413c;stroke-linecap:round;stroke-linejoin:round}.cls-2{fill:#9f5ae5}.cls-3{fill:#803ec2}.cls-6{fill:#bf8df2}.cls-7{fill:#6dd627}.cls-8{fill:#9ceb60}</style></defs><g><path class="cls-1" d="M17.17 18.08c-2.88-.59-6.79-.57-8.24 2-1.86 3.29 1.1 4.89 2.92 3.2s-1.63-6-8-3.85"/><path class="cls-2" d="M38.93 36a5.12 5.12 0 1 1-7.1-1.4 5.12 5.12 0 0 1 7.1 1.4z"/><path class="cls-3" d="M39.44 37a4.44 4.44 0 0 1-.59.46 6.29 6.29 0 0 1-3.58 1.06 6.14 6.14 0 0 1-2.66 4.15 4.86 4.86 0 0 1-.77.43 4.82 4.82 0 0 1-1.41-1.4 5.11 5.11 0 0 1 0-5.66 5.25 5.25 0 0 1 1.42-1.44 5 5 0 0 1 2.32-.84A5.12 5.12 0 0 1 38.93 36a4.3 4.3 0 0 1 .51 1z"/><path class="cls-1" d="M38.93 36a5.12 5.12 0 1 1-7.1-1.4 5.12 5.12 0 0 1 7.1 1.4z"/><path d="M31.94 15.31a5.68 5.68 0 1 1-7.88-1.56 5.69 5.69 0 0 1 7.88 1.56z" fill="#803ec2" stroke="#45413c" stroke-linecap="round" stroke-linejoin="round"/><ellipse cx="26.75" cy="44.29" rx="13.08" ry="1.71" fill="#45413c" opacity=".15"/><path class="cls-2" d="M23.44 21a5.68 5.68 0 1 1-7.89-1.56A5.67 5.67 0 0 1 23.44 21z"/><path class="cls-6" d="M15.55 22.42A5.69 5.69 0 0 1 23.44 24a5.57 5.57 0 0 1 .76 1.67 5.68 5.68 0 1 0-11 0 5.72 5.72 0 0 1 2.35-3.25z"/><path class="cls-1" d="M23.44 21a5.68 5.68 0 1 1-7.89-1.56A5.67 5.67 0 0 1 23.44 21z"/><path class="cls-2" d="M22.67 29.05a5.69 5.69 0 1 1-7.89-1.56 5.69 5.69 0 0 1 7.89 1.56z"/><path class="cls-6" d="M14.78 30.77a5.69 5.69 0 0 1 7.89 1.56 5.86 5.86 0 0 1 .72 1.52 5.69 5.69 0 1 0-10.89 0 5.71 5.71 0 0 1 2.28-3.08z"/><path class="cls-1" d="M22.67 29.05a5.69 5.69 0 1 1-7.89-1.56 5.69 5.69 0 0 1 7.89 1.56z"/><path class="cls-2" d="M38.41 17.82a5.68 5.68 0 1 1-7.88-1.56 5.69 5.69 0 0 1 7.88 1.56z"/><path class="cls-6" d="M30.53 19.44A5.69 5.69 0 0 1 38.41 21a5.61 5.61 0 0 1 .74 1.57 5.69 5.69 0 1 0-10.92 0 5.68 5.68 0 0 1 2.3-3.13z"/><path class="cls-1" d="M38.41 17.82a5.68 5.68 0 1 1-7.88-1.56 5.69 5.69 0 0 1 7.88 1.56z"/><path class="cls-2" d="M39.54 26.65a5.68 5.68 0 1 1-7.89-1.56 5.67 5.67 0 0 1 7.89 1.56z"/><path class="cls-6" d="M31.65 27.49A5.68 5.68 0 0 1 40.37 31a5.68 5.68 0 1 0-11.11 0 5.62 5.62 0 0 1 2.39-3.51z"/><path class="cls-1" d="M39.54 26.65a5.68 5.68 0 1 1-7.89-1.56 5.67 5.67 0 0 1 7.89 1.56z"/><path class="cls-2" d="M31.2 33.6a5.69 5.69 0 1 1-7.89-1.6 5.7 5.7 0 0 1 7.89 1.6z"/><path class="cls-3" d="M32 35.27a6.83 6.83 0 0 1-1.13.93c-3 2-6.92 1.48-8.73-1.23a4.62 4.62 0 0 1-.54-1 5.67 5.67 0 0 1 9.65-.34 5.54 5.54 0 0 1 .75 1.64z"/><path class="cls-1" d="M31.2 33.6a5.69 5.69 0 1 1-7.89-1.6 5.7 5.7 0 0 1 7.89 1.6z"/><path class="cls-7" d="M25.59 22.29a19.49 19.49 0 0 0-6.8-7.08 17.2 17.2 0 0 0-7.17-2.75 1.13 1.13 0 0 0-1.2.69l-.59 1.44a1.13 1.13 0 0 0 1 1.57 14.62 14.62 0 0 1 6.59 2c5.48 3.34 7 6.3 7 6.3z"/><path class="cls-8" d="M18.13 16.69a20.4 20.4 0 0 1 6.93 6.53l.53-.93a19.49 19.49 0 0 0-6.8-7.08 17.2 17.2 0 0 0-7.17-2.75 1.13 1.13 0 0 0-1.2.69l-.42.95a18.5 18.5 0 0 1 8.13 2.59z"/><path class="cls-1" d="M25.59 22.29a19.49 19.49 0 0 0-6.8-7.08 17.2 17.2 0 0 0-7.17-2.75 1.13 1.13 0 0 0-1.2.69l-.59 1.44a1.13 1.13 0 0 0 1 1.57 14.62 14.62 0 0 1 6.59 2c5.48 3.34 7 6.3 7 6.3z"/><path class="cls-2" d="M33.22 23.35a6.82 6.82 0 1 1-9.46-1.87 6.81 6.81 0 0 1 9.46 1.87z"/><path class="cls-6" d="M23.76 25.41a6.83 6.83 0 0 1 10.33 3.7 6.82 6.82 0 1 0-13.07 0 6.8 6.8 0 0 1 2.74-3.7z"/><path class="cls-1" d="M33.22 23.35a6.82 6.82 0 1 1-9.46-1.87 6.81 6.81 0 0 1 9.46 1.87z"/><path class="cls-7" d="M16.41 5.31a.66.66 0 0 1 1.08-.37l2.11 1.77a.65.65 0 0 0 1-.17l.14-.23A6.12 6.12 0 0 1 24 3.65l1-.34a.69.69 0 0 1 .84.4l.39.87a7.3 7.3 0 0 1 .61 3.69v.27a.75.75 0 0 0 .73.85l2.18-.08a.76.76 0 0 1 .66 1.09l-.32.71a7.94 7.94 0 0 1-6.19 4.73l-3.62.46-2.28-3a9.41 9.41 0 0 1-1.59-7.99z"/><path class="cls-8" d="M16.41 7.57a.66.66 0 0 1 1.08-.37L19.6 9a.67.67 0 0 0 1-.17l.13-.23A6.12 6.12 0 0 1 24 5.91l1-.35a.71.71 0 0 1 .84.4l.39.88a7.3 7.3 0 0 1 .61 3.69v.27a.74.74 0 0 0 .73.84l2.18-.08h.09l.25-.47.32-.72a.76.76 0 0 0-.66-1.09l-2.18.08a.75.75 0 0 1-.73-.85v-.27a7.3 7.3 0 0 0-.61-3.69l-.39-.87a.69.69 0 0 0-.84-.4l-1 .34a6.12 6.12 0 0 0-3.28 2.66l-.13.23a.66.66 0 0 1-1 .17l-2.1-1.74a.66.66 0 0 0-1.08.37 9.46 9.46 0 0 0-.22 3.43 9.62 9.62 0 0 1 .22-1.17z"/><path class="cls-1" d="M16.41 5.31a.66.66 0 0 1 1.08-.37l2.11 1.77a.65.65 0 0 0 1-.17l.14-.23A6.12 6.12 0 0 1 24 3.65l1-.34a.69.69 0 0 1 .84.4l.39.87a7.3 7.3 0 0 1 .61 3.69v.27a.75.75 0 0 0 .73.85l2.18-.08a.76.76 0 0 1 .66 1.09l-.32.71a7.94 7.94 0 0 1-6.19 4.73l-3.62.46-2.28-3a9.41 9.41 0 0 1-1.59-7.99z"/><path class="cls-1" d="M20.3 16.3c-.09-2 .93-4.94 2.86-7.53"/></g></svg>