<svg xmlns="http://www.w3.org/2000/svg" viewBox="0 0 48 48"><defs><style>.cls-4{fill:none;stroke:#45413c;stroke-linecap:round;stroke-linejoin:round}</style></defs><g><ellipse cx="24" cy="44.11" rx="13.9" ry="1.9" fill="#45413c" opacity=".15"/><path d="M46.17 21.33a22.17 22.17 0 0 1-44.34 0z" fill="#9ceb60"/><path d="M24 40.18A22.14 22.14 0 0 1 2.11 21.33h-.28a22.17 22.17 0 0 0 44.34 0h-.28A22.14 22.14 0 0 1 24 40.18z" fill="#6dd627"/><path class="cls-4" d="M46.17 21.33a22.17 22.17 0 0 1-44.34 0z"/><ellipse cx="24" cy="21.33" rx="22.17" ry="9.37" fill="#ffaa54"/><path d="M24 15.33c10.88 0 19.91 3.32 21.79 7.69a4.2 4.2 0 0 0 .38-1.69C46.17 16.16 36.24 12 24 12S1.83 16.16 1.83 21.33A4.2 4.2 0 0 0 2.21 23c1.88-4.35 10.91-7.67 21.79-7.67z" fill="#fc9"/><ellipse class="cls-4" cx="24" cy="21.33" rx="22.17" ry="9.37"/><ellipse cx="24" cy="21.33" rx="10.63" ry="4.5" fill="#ff8a14"/><path d="M24 23c-4.71 0-8.7-1.3-10.1-3.09a2.29 2.29 0 0 0-.53 1.4c0 2.49 4.76 4.5 10.63 4.5s10.63-2 10.63-4.5a2.29 2.29 0 0 0-.53-1.4C32.7 21.72 28.71 23 24 23z" fill="#eb6d00"/><ellipse class="cls-4" cx="24" cy="21.33" rx="10.63" ry="4.5"/></g></svg>