<svg xmlns="http://www.w3.org/2000/svg" viewBox="0 0 48 48"><defs><style>.cls-5{fill:none;stroke:#45413c;stroke-linecap:round;stroke-linejoin:round}.cls-7{fill:#fff}.cls-10{fill:#ff6196}.cls-13{fill:#ffe5ee}</style></defs><g><ellipse cx="24" cy="44.5" rx="13.5" ry="1.5" fill="#45413c" opacity=".15"/><g><g><path d="M44.86 21.89a1.68 1.68 0 0 1 1.68 1.8 22.61 22.61 0 0 1-45.08 0 1.68 1.68 0 0 1 1.68-1.8z" fill="#9ceb60"/><path d="M24 42.48A24.75 24.75 0 0 1 3.78 32a22.61 22.61 0 0 0 40.44 0A24.75 24.75 0 0 1 24 42.48z" fill="#6dd627"/><path d="M3.14 26.07h41.72a1.68 1.68 0 0 1 1.25.56 23.65 23.65 0 0 0 .43-2.94 1.68 1.68 0 0 0-1.68-1.8H3.14a1.68 1.68 0 0 0-1.68 1.8 23.65 23.65 0 0 0 .43 2.94 1.68 1.68 0 0 1 1.25-.56z" fill="#c8ffa1"/><path class="cls-5" d="M44.86 21.89a1.68 1.68 0 0 1 1.68 1.8 22.61 22.61 0 0 1-45.08 0 1.68 1.68 0 0 1 1.68-1.8z"/></g><g><path d="M43.68 21.89a19.68 19.68 0 0 1-39.36 0z" fill="#fffacf"/><path class="cls-7" d="M43.23 26.07a19.9 19.9 0 0 0 .45-4.18H4.32a19.9 19.9 0 0 0 .45 4.18z"/><path class="cls-5" d="M43.68 21.89a19.68 19.68 0 0 1-39.36 0z"/></g><g><path d="M41.17 21.89a17.17 17.17 0 0 1-34.34 0z" fill="#ff87af"/><path d="M40.63 26.07a17 17 0 0 0 .54-4.18H6.83a17 17 0 0 0 .54 4.18z" fill="#ffb0ca"/><path class="cls-5" d="M41.17 21.89a17.17 17.17 0 0 1-34.34 0z"/></g><path class="cls-10" d="M16.93 28.6c0 .39.48.71 1.06.71s1.06-.32 1.06-.71-.47-.71-1.06-.71-1.06.32-1.06.71z"/><g stroke="#45413c" stroke-linecap="round" stroke-linejoin="round"><path d="M26.73 30.37a.71.71 0 0 1 .69.88 3.53 3.53 0 0 1-6.84 0 .71.71 0 0 1 .69-.88z" fill="#fcd"/><path d="M24 33.9a3.53 3.53 0 0 0 2.78-1.37 5.53 5.53 0 0 0-5.56 0A3.53 3.53 0 0 0 24 33.9z" fill="#ff6196"/></g><path class="cls-5" d="M17.64 27.19a1.06 1.06 0 1 1 2.12 0"/><path class="cls-10" d="M31.07 28.6c0 .39-.48.71-1.06.71S29 29 29 28.6s.47-.71 1.06-.71 1.01.32 1.01.71z"/><path class="cls-5" d="M30.36 27.19a1.06 1.06 0 1 0-2.12 0"/></g><g><g><path class="cls-7" d="M25.31 5.92A1.55 1.55 0 0 0 24 4.22a1.55 1.55 0 0 0-1.31 1.7 19.9 19.9 0 0 0 1.07 3.76.25.25 0 0 0 .48 0 19.9 19.9 0 0 0 1.07-3.76z"/><path class="cls-13" d="M24 5.35a1.38 1.38 0 0 0-1.23 1.13 3 3 0 0 1-.08-.56A1.55 1.55 0 0 1 24 4.22a1.55 1.55 0 0 1 1.31 1.7 3 3 0 0 1-.08.56A1.38 1.38 0 0 0 24 5.35z"/><path class="cls-5" d="M25.31 5.92A1.55 1.55 0 0 0 24 4.22a1.55 1.55 0 0 0-1.31 1.7 19.9 19.9 0 0 0 1.07 3.76.25.25 0 0 0 .48 0 19.9 19.9 0 0 0 1.07-3.76z"/></g><g><path class="cls-7" d="M33.48 8.1a1.54 1.54 0 0 0-.56-2.1 1.54 1.54 0 0 0-1.86 1.1 19.19 19.19 0 0 0-.45 3.9.24.24 0 0 0 .44.18 19.54 19.54 0 0 0 2.43-3.08z"/><path class="cls-13" d="M32.49 7.08a1.37 1.37 0 0 0-1.57.57 3.08 3.08 0 0 1 .14-.55A1.54 1.54 0 0 1 32.92 6a1.54 1.54 0 0 1 .56 2.06 2.79 2.79 0 0 1-.29.49 1.38 1.38 0 0 0-.7-1.47z"/><path class="cls-5" d="M33.48 8.1a1.54 1.54 0 0 0-.56-2.1 1.54 1.54 0 0 0-1.86 1.1 19.19 19.19 0 0 0-.45 3.9.24.24 0 0 0 .44.18 19.54 19.54 0 0 0 2.43-3.08z"/></g><g><path class="cls-7" d="M40.19 13.25a1.55 1.55 0 0 0 .27-2.13 1.54 1.54 0 0 0-2.13.28 19.72 19.72 0 0 0-1.9 3.42c-.12.25.09.45.34.33a20.1 20.1 0 0 0 3.42-1.9z"/><path class="cls-13" d="M39.66 11.92a1.37 1.37 0 0 0-1.66-.07 2.93 2.93 0 0 1 .33-.45 1.54 1.54 0 0 1 2.13-.28 1.55 1.55 0 0 1-.27 2.13 3 3 0 0 1-.46.34 1.37 1.37 0 0 0-.07-1.67z"/><path class="cls-5" d="M40.19 13.25a1.55 1.55 0 0 0 .27-2.13 1.54 1.54 0 0 0-2.13.28 19.72 19.72 0 0 0-1.9 3.42c-.12.25.09.45.34.33a20.1 20.1 0 0 0 3.42-1.9z"/></g><g><path class="cls-7" d="M14.52 8.1a1.54 1.54 0 0 1 .56-2.1 1.54 1.54 0 0 1 1.86 1.1 19.19 19.19 0 0 1 .45 3.9.24.24 0 0 1-.44.18 19.54 19.54 0 0 1-2.43-3.08z"/><path class="cls-13" d="M15.51 7.08a1.37 1.37 0 0 1 1.57.57 3.08 3.08 0 0 0-.14-.55A1.54 1.54 0 0 0 15.08 6a1.54 1.54 0 0 0-.56 2.06 2.79 2.79 0 0 0 .29.49 1.38 1.38 0 0 1 .7-1.47z"/><path class="cls-5" d="M14.52 8.1a1.54 1.54 0 0 1 .56-2.1 1.54 1.54 0 0 1 1.86 1.1 19.19 19.19 0 0 1 .45 3.9.24.24 0 0 1-.44.18 19.54 19.54 0 0 1-2.43-3.08z"/></g><g><path class="cls-7" d="M7.81 13.25a1.55 1.55 0 0 1-.27-2.13 1.54 1.54 0 0 1 2.13.28 19.72 19.72 0 0 1 1.9 3.42c.12.25-.09.45-.34.33a20.1 20.1 0 0 1-3.42-1.9z"/><path class="cls-13" d="M8.34 11.92a1.37 1.37 0 0 1 1.66-.07 2.93 2.93 0 0 0-.33-.45 1.54 1.54 0 0 0-2.13-.28 1.55 1.55 0 0 0 .27 2.13 3 3 0 0 0 .46.34 1.37 1.37 0 0 1 .07-1.67z"/><path class="cls-5" d="M7.81 13.25a1.55 1.55 0 0 1-.27-2.13 1.54 1.54 0 0 1 2.13.28 19.72 19.72 0 0 1 1.9 3.42c.12.25-.09.45-.34.33a20.1 20.1 0 0 1-3.42-1.9z"/></g></g></g></svg>