<svg xmlns="http://www.w3.org/2000/svg" viewBox="0 0 48 48"><defs><style>.cls-1{fill:#9ceb60}.cls-2{fill:#c8ffa1}.cls-3{fill:none;stroke:#45413c;stroke-linecap:round;stroke-linejoin:round}.cls-6{fill:#ffa694}</style></defs><path class="cls-1" d="M19.58 7.86a7.46 7.46 0 0 0 4.9 5A7.49 7.49 0 0 0 21.7 1.31a1 1 0 0 0-1.31.4 7.48 7.48 0 0 0-.81 6.15z"/><path class="cls-2" d="M20.39 4.21a1 1 0 0 1 1.31-.4 7.51 7.51 0 0 1 4.1 4.66 7.32 7.32 0 0 1 .21.9 7.45 7.45 0 0 0-4.31-8.06 1 1 0 0 0-1.31.4 7.52 7.52 0 0 0-1 5.23 7.79 7.79 0 0 1 1-2.73z"/><path class="cls-3" d="M19.58 7.86a7.46 7.46 0 0 0 4.9 5A7.49 7.49 0 0 0 21.7 1.31a1 1 0 0 0-1.31.4 7.48 7.48 0 0 0-.81 6.15z"/><path class="cls-1" d="M31.36 11.66a7.47 7.47 0 0 1-6.88 1.16 7.49 7.49 0 0 1 9-7.71 1 1 0 0 1 .82 1.09 7.48 7.48 0 0 1-2.94 5.46z"/><path class="cls-2" d="M27.42 9a7.53 7.53 0 0 1 6-1.38 1 1 0 0 1 .58.28 7.72 7.72 0 0 0 .32-1.7 1 1 0 0 0-.83-1.09 7.49 7.49 0 0 0-9 7.71c.1 0 .19 0 .29.08A7.46 7.46 0 0 1 27.42 9z"/><path class="cls-3" d="M31.36 11.66a7.47 7.47 0 0 1-6.88 1.16 7.49 7.49 0 0 1 9-7.71 1 1 0 0 1 .82 1.09 7.48 7.48 0 0 1-2.94 5.46z"/><ellipse cx="24" cy="45.5" rx="11.5" ry="1.5" fill="#45413c" opacity=".15"/><path d="M33.52 11.39a13.54 13.54 0 0 0-9 1.43 13.43 13.43 0 0 0-7.57-1.62c-8 .62-13.59 8.35-12.18 16.28 2 11.2 15.38 16.76 18.57 17.94a2 2 0 0 0 1.36 0c3.54-1.29 19.66-7.86 19.82-20.58a13.35 13.35 0 0 0-11-13.45z" fill="#ff866e"/><path class="cls-6" d="M32.1 25.2v-.01.01zM33.52 11.39a13.54 13.54 0 0 0-9 1.43 13.43 13.43 0 0 0-7.57-1.62C9 11.81 3.52 19.28 4.66 27.05a13.48 13.48 0 0 1 19.82-9.73C26.63 18.55 29 20 32.1 25.19c0-.5-.06-1-.12-1.53a14 14 0 0 0-3.44-7.78 13.11 13.11 0 0 1 2.46-.23A13.5 13.5 0 0 1 44.29 27a14.12 14.12 0 0 0 .19-2.17 13.35 13.35 0 0 0-10.96-13.44z"/><path class="cls-3" d="M33.52 11.39a13.54 13.54 0 0 0-9 1.43 13.43 13.43 0 0 0-7.57-1.62c-8 .62-13.59 8.35-12.18 16.28 2 11.2 15.38 16.76 18.57 17.94a2 2 0 0 0 1.36 0c3.54-1.29 19.66-7.86 19.82-20.58a13.35 13.35 0 0 0-11-13.45z"/><path class="cls-3" d="M29 36.8a22.17 22.17 0 0 1-1.5 2.36"/><path class="cls-3" d="M24.48 12.82A13.61 13.61 0 0 1 32 23.66a21 21 0 0 1-1.93 11"/></svg>