<svg xmlns="http://www.w3.org/2000/svg" viewBox="0 0 48 48"><defs><style>.cls-2{fill:#ff6242}.cls-3{fill:#ff866e}.cls-4,.cls-5{fill:none;stroke:#45413c;stroke-linejoin:round}.cls-5{stroke-linecap:round}</style></defs><g><ellipse cx="24.17" cy="45.4" rx="14.9" ry="1.6" fill="#45413c" opacity=".15"/><path class="cls-2" d="M26.58 31a9.49 9.49 0 0 1-11.52 7.68 9.49 9.49 0 0 1-7.68-11.53c1.11-5.55 7.23-8.94 11.17-5.94 4.31-1.13 9.14 4.23 8.03 9.79z"/><path class="cls-3" d="M7.38 30c1.11-5.54 7.22-7.3 11.17-5.93s7.33 2.43 8.07 6.68c.91-5.45-3.82-10.63-8.07-9.52-3.94-3-10.06.39-11.17 5.94a10.54 10.54 0 0 0-.1 3.53c.03-.25.06-.48.1-.7z"/><path class="cls-4" d="M26.58 31a9.49 9.49 0 0 1-11.52 7.68 9.49 9.49 0 0 1-7.68-11.53c1.11-5.55 7.23-8.94 11.17-5.94 4.31-1.13 9.14 4.23 8.03 9.79z"/><path class="cls-2" d="M38.27 35.06a9.49 9.49 0 0 1-9.78 9.79 9.49 9.49 0 0 1-9.79-9.79c0-5.65 5.34-10.18 9.79-8 4-1.95 9.78 2.35 9.78 8z"/><path class="cls-3" d="M28.49 30c3.26 0 8.82 1.69 9.66 6.64a12.22 12.22 0 0 0 .12-1.62c0-5.65-5.78-10-9.78-8-4.45-2.17-9.79 2.36-9.79 8a10.12 10.12 0 0 0 .12 1.58c.79-4.92 6.4-6.6 9.67-6.6z"/><path class="cls-4" d="M38.27 35.06a9.49 9.49 0 0 1-9.78 9.79 9.49 9.49 0 0 1-9.79-9.79c0-5.65 5.34-10.18 9.79-8 4-1.95 9.78 2.35 9.78 8z"/><path class="cls-5" d="M18.55 21.21s2-4.09 9.49-8.06a18.94 18.94 0 0 1 12-1.78"/><path class="cls-5" d="M28.49 27.05s.74-11 11.56-15.68"/><path d="M33.8 3.31a14 14 0 0 0-10-1.69A1 1 0 0 0 23.05 3a14 14 0 0 0 6.53 7.74 13.76 13.76 0 0 0 10.55 1.53.49.49 0 0 0 .35-.62 13.74 13.74 0 0 0-6.68-8.34z" fill="#6dd627"/><path d="M23.75 4.67h.07a13.91 13.91 0 0 1 10 1.69 14.33 14.33 0 0 1 5.83 6c.17 0 .34-.07.5-.12a.49.49 0 0 0 .35-.62 13.74 13.74 0 0 0-6.7-8.31 14 14 0 0 0-10-1.69A1 1 0 0 0 23.05 3a11.72 11.72 0 0 0 .7 1.67z" fill="#9ceb60"/><path class="cls-5" d="M33.8 3.31a14 14 0 0 0-10-1.69A1 1 0 0 0 23.05 3a14 14 0 0 0 6.53 7.74 13.76 13.76 0 0 0 10.55 1.53.49.49 0 0 0 .35-.62 13.74 13.74 0 0 0-6.68-8.34z"/></g></svg>