<svg xmlns="http://www.w3.org/2000/svg" viewBox="0 0 48 48"><defs><style>.cls-5{stroke:#45413c;stroke-linecap:round;stroke-linejoin:round}.cls-3{fill:#ffe500}.cls-4{fill:#fff48c}.cls-5{fill:none}</style></defs><g><ellipse cx="24" cy="45.26" rx="16.26" ry="1.74" fill="#45413c" opacity=".15"/><path d="M24 3.77C13.4 3.77 4.87 9.27 5.12 16l3.24 27a2.32 2.32 0 0 0 2.31 2h26.66a2.32 2.32 0 0 0 2.31-2l3.24-27C43.13 9.27 34.6 3.77 24 3.77z" stroke="#45413c" stroke-linecap="round" stroke-linejoin="round" fill="#e04122"/><path class="cls-3" d="M15.1 30.56l-3.44.59a.58.58 0 0 1-.67-.47L6.54 4.79a.58.58 0 0 1 .34-.62l3.29-1.45a.57.57 0 0 1 .8.43l4.6 26.74a.58.58 0 0 1-.47.67z"/><path class="cls-4" d="M7 7.53l4.44-1.63L11 3.15a.57.57 0 0 0-.8-.43L6.88 4.17a.57.57 0 0 0-.34.62z"/><path class="cls-5" d="M15.1 30.56l-3.44.59a.58.58 0 0 1-.67-.47L6.54 4.79a.58.58 0 0 1 .34-.62l3.29-1.45a.57.57 0 0 1 .8.43l4.6 26.74a.58.58 0 0 1-.47.67z"/><path class="cls-3" d="M16.16 2.61h3.49a.58.58 0 0 1 .58.58L20 29.48a.57.57 0 0 1-.44.56l-3.49.85a.59.59 0 0 1-.72-.57l.22-27.14a.57.57 0 0 1 .59-.57z"/><path class="cls-4" d="M20.2 6.56V3.22a.58.58 0 0 0-.58-.58h-3.49a.57.57 0 0 0-.58.57v3.34z"/><path class="cls-5" d="M16.16 2.61h3.49a.58.58 0 0 1 .58.58L20 29.48a.57.57 0 0 1-.44.56l-3.49.85a.59.59 0 0 1-.72-.57l.22-27.14a.57.57 0 0 1 .59-.57z"/><path class="cls-3" d="M22.61 6.72l3.47.28a.58.58 0 0 1 .53.63L24.46 33.8a.58.58 0 0 1-.49.53l-3.54.58a.58.58 0 0 1-.67-.62L22 7.25a.58.58 0 0 1 .61-.53z"/><path class="cls-4" d="M26.61 7.63a.58.58 0 0 0-.53-.63l-3.47-.28a.58.58 0 0 0-.63.53l-.25 3.07 4.63.38z"/><path class="cls-5" d="M22.61 6.72l3.47.28a.58.58 0 0 1 .53.63L24.46 33.8a.58.58 0 0 1-.49.53l-3.54.58a.58.58 0 0 1-.67-.62L22 7.25a.58.58 0 0 1 .61-.53z"/><path class="cls-3" d="M36.94 35.31l-3.44-.52a.58.58 0 0 1-.49-.66l3.89-26a.57.57 0 0 1 .52-.49L41 7.32a.59.59 0 0 1 .63.67l-4 26.83a.58.58 0 0 1-.69.49z"/><path class="cls-4" d="M40.42 10.39a.79.79 0 0 1 .78.43L41.63 8a.59.59 0 0 0-.63-.68l-3.58.35a.57.57 0 0 0-.52.49l-.36 2.41z"/><path class="cls-5" d="M36.94 35.31l-3.44-.52a.58.58 0 0 1-.49-.66l3.89-26a.57.57 0 0 1 .52-.49L41 7.32a.59.59 0 0 1 .63.67l-4 26.83a.58.58 0 0 1-.69.49z"/><path class="cls-3" d="M31.59 30.36l3.48-.26a.58.58 0 0 0 .53-.63l-2-26.18a.58.58 0 0 0-.48-.53l-3.54-.61a.58.58 0 0 0-.68.61l2 27.06a.58.58 0 0 0 .69.54z"/><path class="cls-4" d="M29.69 6.2l4.2.53-.25-3.44a.58.58 0 0 0-.48-.53l-3.54-.61a.58.58 0 0 0-.68.61l.26 3.54a.82.82 0 0 1 .49-.1z"/><path class="cls-5" d="M31.59 30.36l3.48-.26a.58.58 0 0 0 .53-.63l-2-26.18a.58.58 0 0 0-.48-.53l-3.54-.61a.58.58 0 0 0-.68.61l2 27.06a.58.58 0 0 0 .69.54z"/><path class="cls-3" d="M34.6 37.72l-3.44.59a.59.59 0 0 1-.67-.48L26 12a.6.6 0 0 1 .34-.63l3.29-1.45a.58.58 0 0 1 .8.44l4.6 26.74a.59.59 0 0 1-.43.62z"/><path class="cls-4" d="M31.13 14.13l-.66-3.82a.58.58 0 0 0-.8-.44l-3.29 1.45A.6.6 0 0 0 26 12l.66 3.81z"/><path class="cls-5" d="M34.6 37.72l-3.44.59a.59.59 0 0 1-.67-.48L26 12a.6.6 0 0 1 .34-.63l3.29-1.45a.58.58 0 0 1 .8.44l4.6 26.74a.59.59 0 0 1-.43.62z"/><path class="cls-3" d="M12.32 39.46l3.47.27a.58.58 0 0 0 .62-.54l2-26.18a.57.57 0 0 0-.4-.59l-3.4-1.14a.59.59 0 0 0-.77.5l-2.1 27.05a.6.6 0 0 0 .58.63z"/><path class="cls-4" d="M18.24 15.7l.21-2.7a.57.57 0 0 0-.4-.59l-3.4-1.14a.59.59 0 0 0-.77.5l-.21 2.71z"/><path class="cls-5" d="M12.32 39.46l3.47.27a.58.58 0 0 0 .62-.54l2-26.18a.57.57 0 0 0-.4-.59l-3.4-1.14a.59.59 0 0 0-.77.5l-2.1 27.05a.6.6 0 0 0 .58.63z"/><path class="cls-3" d="M21.49 44.42l-3.49.09a.57.57 0 0 1-.59-.56l-.66-26.26a.59.59 0 0 1 .43-.57l3.46-1a.58.58 0 0 1 .73.55l.68 27.12a.57.57 0 0 1-.56.63z"/><path class="cls-4" d="M17.33 20.7l4.12-.88-.08-3.11a.58.58 0 0 0-.73-.55l-3.46 1a.59.59 0 0 0-.43.57l.09 3.27a.71.71 0 0 1 .49-.3z"/><path class="cls-5" d="M21.49 44.42l-3.49.09a.57.57 0 0 1-.59-.56l-.66-26.26a.59.59 0 0 1 .43-.57l3.46-1a.58.58 0 0 1 .73.55l.68 27.12a.57.57 0 0 1-.56.63z"/><path class="cls-3" d="M25.48 14.29l3.46.41a.58.58 0 0 1 .51.64l-3.09 26.08a.57.57 0 0 1-.51.51l-3.56.45a.58.58 0 0 1-.65-.64l3.2-26.94a.57.57 0 0 1 .64-.51z"/><path class="cls-4" d="M28.75 18.26a.76.76 0 0 1 .34.11l.36-3a.58.58 0 0 0-.51-.64l-3.46-.41a.57.57 0 0 0-.64.51l-.35 2.95z"/><path class="cls-5" d="M25.48 14.29l3.46.41a.58.58 0 0 1 .51.64l-3.09 26.08a.57.57 0 0 1-.51.51l-3.56.45a.58.58 0 0 1-.65-.64l3.2-26.94a.57.57 0 0 1 .64-.51z"/><path d="M39.23 16a1.16 1.16 0 0 0-1.11.78c-1.5 4.88-7.25 8.51-14.12 8.51s-12.62-3.67-14.12-8.55A1.16 1.16 0 0 0 8.77 16H5.12l3.24 27a2.32 2.32 0 0 0 2.31 2h26.66a2.32 2.32 0 0 0 2.31-2l3.24-27z" fill="#ff6242"/><path d="M7.5 21.19a1.16 1.16 0 0 1 1.11.68c1.5 4.3 8.52 7.5 15.39 7.5s13.89-3.2 15.39-7.5a1.16 1.16 0 0 1 1.11-.68h1.75l.63-5.19h-3.65a1.16 1.16 0 0 0-1.11.78c-1.5 4.88-7.25 8.51-14.12 8.51s-12.62-3.67-14.12-8.55A1.16 1.16 0 0 0 8.77 16H5.12l.63 5.23z" fill="#ff866e"/><path class="cls-5" d="M39.23 16a1.16 1.16 0 0 0-1.11.78c-1.5 4.88-7.25 8.51-14.12 8.51s-12.62-3.67-14.12-8.55A1.16 1.16 0 0 0 8.77 16H5.12l3.24 27a2.32 2.32 0 0 0 2.31 2h26.66a2.32 2.32 0 0 0 2.31-2l3.24-27z"/><ellipse cx="24" cy="35.13" rx="6.39" ry="4.07" fill="#ffe500" stroke="#45413c" stroke-linecap="round" stroke-linejoin="round"/></g></svg>