<svg xmlns="http://www.w3.org/2000/svg" viewBox="0 0 48 48"><defs><style>.cls-6,.cls-9{stroke:#45413c;stroke-linecap:round;stroke-linejoin:round}.cls-6{fill:none}.cls-8{fill:#ebcb00}.cls-9{fill:#ff6242}</style></defs><ellipse cx="24" cy="42.5" rx="13.5" ry="1.5" fill="#45413c" opacity=".15"/><path d="M40.21 26.6l.28 1.4s-11 3.86-16.25 5c-6 1.27-15.56 2.13-18.72 2.57a3.88 3.88 0 0 1-3.93-2l-.49-.87 38.84-7.58z" stroke="#45413c" stroke-linecap="round" stroke-linejoin="round" fill="#debb7e"/><path d="M40.21 26.6l-.46-2.43c-.7-3.72-9-8.13-19-7.11 0 0-1.9-3.42 1-4.6s23.92-5.17 24.7 10.83a2.44 2.44 0 0 1-2 2.49z" fill="#f0d5a8"/><path d="M21.81 12.46c-1.91.77-1.76 2.49-1.43 3.59a2.69 2.69 0 0 1 1.16-.83c2.83-1.15 22.7-4.94 24.58 9.47a2.34 2.34 0 0 0 .39-1.4c-.78-16-21.78-12.01-24.7-10.83z" fill="#f7e5c6"/><path d="M40.21 26.6l4.29-.82a2.44 2.44 0 0 0 2-2.49 14.47 14.47 0 0 0-.73-4 5 5 0 0 0-2.58-.16c-2.35.44-4 2.3-3.62 4.14z" fill="#debb7e"/><path class="cls-6" d="M40.21 26.6l4.29-.82a2.44 2.44 0 0 0 2-2.49 14.47 14.47 0 0 0-.73-4 5 5 0 0 0-2.58-.16c-2.35.44-4 2.3-3.62 4.14z"/><path class="cls-6" d="M40.21 26.6l-.46-2.43c-.7-3.72-9-8.13-19-7.11 0 0-1.9-3.42 1-4.6s23.92-5.17 24.7 10.83a2.44 2.44 0 0 1-2 2.49z"/><path d="M20.79 17.06l-19.27 14A1.25 1.25 0 0 0 1 32.3l.08.44.46 2.43a1.24 1.24 0 0 0 1.45 1 1.22 1.22 0 0 0 1-1.44l-.23-1.22 3.65-.69.34 1.83a1.86 1.86 0 0 0 3.65-.69l-.35-1.83 17-3.22.23 1.22a1.24 1.24 0 0 0 1.45 1 1.22 1.22 0 0 0 1-1.44l-.23-1.22 6.08-1.15.34 1.83a1.86 1.86 0 0 0 3.65-.69l-.81-4.25c-.71-3.76-8.99-8.21-18.97-7.15z" fill="#ffe500"/><path class="cls-8" d="M36.57 27.28l.34 1.83a1.86 1.86 0 0 0 3.65-.69l-.81-4.25c-.7-3.72-9-8.13-19-7.11l-1.09.79c8.22.25 14.58 4 15.19 7.23l.46 2.43z"/><path class="cls-8" d="M6.34 31a.51.51 0 0 1-.49-.41.5.5 0 0 1 .4-.58l30.37-5.75a.5.5 0 1 1 .19 1L6.43 31z"/><path id="_Line_" data-name="&lt;Line&gt;" class="cls-6" d="M30.49 28.43l-.23-1.21"/><path id="_Line_2" data-name="&lt;Line&gt;" class="cls-6" d="M36.57 27.28l-.46-2.43"/><path class="cls-6" d="M20.79 17.06l-19.27 14A1.25 1.25 0 0 0 1 32.3l.54 2.87a1.24 1.24 0 0 0 1.45 1 1.22 1.22 0 0 0 1-1.44l-.23-1.22 3.65-.69.34 1.83a1.86 1.86 0 0 0 3.65-.69l-.35-1.83 17-3.22.23 1.22a1.24 1.24 0 0 0 1.45 1 1.22 1.22 0 0 0 1-1.44l-.23-1.22 6.08-1.15.34 1.83a1.86 1.86 0 0 0 3.65-.69l-.81-4.25c-.71-3.76-8.99-8.21-18.97-7.15z"/><path id="_Line_3" data-name="&lt;Line&gt;" class="cls-6" d="M7.41 32.8l-.23-1.21"/><path class="cls-9" d="M18.18 23.21c2.35-.44 4.05-1.89 3.79-3.23-.18-1-1.33-1.6-2.83-1.73l-5.4 3.93c.68.95 2.47 1.41 4.44 1.03z"/><path class="cls-9" d="M34.3 25.2a1.74 1.74 0 0 0 .36-1.33c-.25-1.34-2.36-2.07-4.71-1.63s-4 1.9-3.79 3.24a1.76 1.76 0 0 0 .82 1.1z"/><path class="cls-9" d="M10 29.79a1.74 1.74 0 0 0 .35-1.32c-.18-1-1.36-1.63-2.89-1.73l-5.35 3.89a2 2 0 0 0 .58.55z"/><path class="cls-9" d="M23.86 27.17c-.71-1.3-2.87-2-5.22-1.53s-4.11 1.86-4.3 3.36z"/></svg>