<svg xmlns="http://www.w3.org/2000/svg" viewBox="0 0 48 48"><defs><style>.cls-2{fill:#ff866e}.cls-3{fill:#ffa694}.cls-4{fill:none;stroke:#45413c;stroke-linecap:round;stroke-linejoin:round}.cls-6{fill:#fff48c}</style></defs><g><ellipse cx="26.25" cy="45.5" rx="17" ry="1.5" fill="#45413c" opacity=".15"/><path class="cls-2" d="M13.92 35.56l-4.53-.9-1.15 1.77 4.55 3.13 1.13-4z"/><path class="cls-3" d="M13.52 36.98l.4-1.42-4.53-.9-.66 1.01 4.79 1.31z"/><path class="cls-4" d="M13.92 35.56l-4.53-.9-1.15 1.77 4.55 3.13 1.13-4z"/><path class="cls-2" d="M9.39 34.65S6.79 29 5.75 27.32s-4.14-1.72-4.14 1.24c0 4.28 6.63 7.87 6.63 7.87z"/><path class="cls-3" d="M5.75 29.32c.74 1.19 2.28 4.42 3.1 6.17l.54-.83S6.79 29 5.75 27.32s-4.14-1.72-4.14 1.24a4.48 4.48 0 0 0 .14 1c.61-1.92 3.1-1.69 4-.24z"/><path class="cls-4" d="M9.39 34.65S6.79 29 5.75 27.32s-4.14-1.72-4.14 1.24c0 4.28 6.63 7.87 6.63 7.87z"/><path class="cls-2" d="M9.39 34.65a57.68 57.68 0 0 0-.11-7.6c-.35-1.92-3.22-3.13-4.31-.37-1.57 4 3.27 9.75 3.27 9.75z"/><path class="cls-3" d="M5 28.51c1.09-2.76 4-1.55 4.31.37a18.74 18.74 0 0 1 .18 2.83 31.47 31.47 0 0 0-.18-4.66c-.35-1.92-3.22-3.13-4.31-.37a5.3 5.3 0 0 0-.23 2.69 4.37 4.37 0 0 1 .23-.86z"/><path class="cls-4" d="M9.39 34.65a57.68 57.68 0 0 0-.11-7.6c-.35-1.92-3.22-3.13-4.31-.37-1.57 4 3.27 9.75 3.27 9.75z"/><path class="cls-2" d="M14.88 34.73a3.18 3.18 0 0 0-.41 6.17l2.78.87L19 34z"/><path class="cls-3" d="M14.58 37.5l3.72-.41L19 34l-4.11.73a3.18 3.18 0 0 0-2.56 2.47 3.22 3.22 0 0 0 .1 1.69 2.75 2.75 0 0 1 2.15-1.39z"/><path class="cls-4" d="M14.88 34.73a3.18 3.18 0 0 0-.41 6.17l2.78.87L19 34z"/><path d="M42.85 16.77a7.66 7.66 0 0 0 .65-3.11A7.74 7.74 0 0 0 37 6a6.5 6.5 0 0 0-12.4-.44 4.42 4.42 0 0 0-1.85-.4 4.5 4.5 0 0 0-2.83 8 6.76 6.76 0 0 0-.17 1.5 6.5 6.5 0 0 0 6.68 6.5 8.5 8.5 0 0 0 .77 6 14.5 14.5 0 0 0-1.05 4.14 6.72 6.72 0 0 0-.9.28 4.1 4.1 0 0 0-1.35-.86 4.23 4.23 0 0 0-5.54 5.39A5.49 5.49 0 0 0 20 45.33a5.48 5.48 0 0 0 5.2-.64 7 7 0 0 0 8.65-3.25c3.59-.29 7.26-3.26 9-7.76a14 14 0 0 0 1-6.13 6.49 6.49 0 0 0-1-10.78z" fill="#ffe500"/><g><path class="cls-6" d="M43.5 18.11a7.65 7.65 0 0 1-.65 3.1 6.48 6.48 0 0 1 3 3.52 6.5 6.5 0 0 0-2.46-7.61 8 8 0 0 1 .11.99z"/><path class="cls-6" d="M22.75 9.61a4.42 4.42 0 0 1 1.85.4 6.5 6.5 0 0 1 12.4.46 7.77 7.77 0 0 1 6.14 5.41A7.76 7.76 0 0 0 37 6a6.5 6.5 0 0 0-12.4-.44 4.42 4.42 0 0 0-1.85-.4 4.5 4.5 0 0 0-4.5 4.5 4.45 4.45 0 0 0 .59 2.23 4.49 4.49 0 0 1 3.91-2.28z"/></g><path class="cls-4" d="M42.85 16.77a7.66 7.66 0 0 0 .65-3.11A7.74 7.74 0 0 0 37 6a6.5 6.5 0 0 0-12.4-.44 4.42 4.42 0 0 0-1.85-.4 4.5 4.5 0 0 0-2.83 8 6.76 6.76 0 0 0-.17 1.5 6.5 6.5 0 0 0 6.68 6.5 8.5 8.5 0 0 0 .77 6 14.5 14.5 0 0 0-1.05 4.14 6.72 6.72 0 0 0-.9.28 4.1 4.1 0 0 0-1.35-.86 4.23 4.23 0 0 0-5.54 5.39A5.49 5.49 0 0 0 20 45.33a5.48 5.48 0 0 0 5.2-.64 7 7 0 0 0 8.65-3.25c3.59-.29 7.26-3.26 9-7.76a14 14 0 0 0 1-6.13 6.49 6.49 0 0 0-1-10.78z"/><path class="cls-4" d="M26.25 11.16a4.79 4.79 0 0 1 5.5-2c3.58 1.17 3 5 3 5"/><path class="cls-4" d="M33.59 35.16a2.94 2.94 0 0 0 3.36-3 5.21 5.21 0 0 0 3.27-3.91 4.94 4.94 0 0 0-3.59-6"/></g></svg>