<svg xmlns="http://www.w3.org/2000/svg" viewBox="0 0 48 48"><defs><style>.cls-2{fill:#fffef2}.cls-4{fill:none;stroke:#45413c;stroke-linecap:round;stroke-linejoin:round}.cls-5{fill:#fff48c}.cls-9{fill:#ff87af}.cls-8{fill:#ff6196}</style></defs><g><ellipse cx="24" cy="45.5" rx="14.5" ry="1.5" fill="#45413c" opacity=".15"/><g><g><g><path class="cls-2" d="M35.9 18.73a4.23 4.23 0 0 0 .61-2.57 4.3 4.3 0 0 0-4.33-3.8h-1a3.78 3.78 0 0 0-2.26-6.83c-2 0-8.11.74-6.92-3.4a.76.76 0 0 0-.89-1 8.25 8.25 0 0 0-5.85 8.17 3.77 3.77 0 0 0 1.54 3h-1a4.3 4.3 0 0 0-4.33 3.8 4.23 4.23 0 0 0 .61 2.57A7.22 7.22 0 0 0 6.93 26a7.39 7.39 0 0 0 7.46 6.84h19.22A7.39 7.39 0 0 0 41.07 26a7.22 7.22 0 0 0-5.17-7.27z"/><path d="M11.1 28.14a7.22 7.22 0 0 1 5.18-7.29 4.09 4.09 0 0 1-.61-2.57 4.29 4.29 0 0 1 4.33-3.8h1a3.8 3.8 0 0 1-1.53-3 8.52 8.52 0 0 1 3.14-6.77A2.21 2.21 0 0 1 22 2.13a.76.76 0 0 0-.89-1 8.25 8.25 0 0 0-5.85 8.17 3.77 3.77 0 0 0 1.54 3h-1a4.3 4.3 0 0 0-4.33 3.8 4.23 4.23 0 0 0 .61 2.57A7.22 7.22 0 0 0 6.93 26a7.34 7.34 0 0 0 6.27 6.74 7.05 7.05 0 0 1-2.1-4.6z" fill="#fff"/><path class="cls-4" d="M35.9 18.73a4.23 4.23 0 0 0 .61-2.57 4.3 4.3 0 0 0-4.33-3.8h-1a3.78 3.78 0 0 0-2.26-6.83c-2 0-8.11.74-6.92-3.4a.76.76 0 0 0-.89-1 8.25 8.25 0 0 0-5.85 8.17 3.77 3.77 0 0 0 1.54 3h-1a4.3 4.3 0 0 0-4.33 3.8 4.23 4.23 0 0 0 .61 2.57A7.22 7.22 0 0 0 6.93 26a7.39 7.39 0 0 0 7.46 6.84h19.22A7.39 7.39 0 0 0 41.07 26a7.22 7.22 0 0 0-5.17-7.27z"/></g><g><path class="cls-5" d="M16.41 21.09c0 .42.51.76 1.14.76s1.14-.34 1.14-.76-.51-.76-1.14-.76-1.14.34-1.14.76z"/><g stroke="#45413c" stroke-linecap="round" stroke-linejoin="round"><path d="M26.94 23a.77.77 0 0 1 .74 1 3.8 3.8 0 0 1-7.36 0 .77.77 0 0 1 .74-1z" fill="#ffb0ca"/><path d="M24 26.79a3.8 3.8 0 0 0 3-1.48 6 6 0 0 0-6 0 3.8 3.8 0 0 0 3 1.48z" fill="#ff87af"/></g><path class="cls-4" d="M17.17 19.58a1.14 1.14 0 0 1 2.28 0"/><path class="cls-5" d="M31.59 21.09c0 .42-.51.76-1.14.76s-1.14-.34-1.14-.76.51-.76 1.14-.76 1.14.34 1.14.76z"/><path class="cls-4" d="M30.83 19.58a1.14 1.14 0 0 0-2.28 0"/></g></g><g><g><rect class="cls-8" x="7.68" y="29.82" width="32.64" height="4.55" rx=".76" ry=".76"/><path class="cls-9" d="M40.32 31.72H7.68v-1.14a.76.76 0 0 1 .76-.76h31.12a.76.76 0 0 1 .76.76z"/><rect class="cls-4" x="7.68" y="29.82" width="32.64" height="4.55" rx=".76" ry=".76"/></g><g><path class="cls-9" d="M35.41 45H12.59a3 3 0 0 1-3-2.61l-1.14-8h31.11l-1.14 8A3 3 0 0 1 35.41 45z"/><path class="cls-8" d="M39.29 36.27l.27-1.9H8.44l.27 1.9h30.58z"/><path class="cls-4" d="M35.41 45H12.59a3 3 0 0 1-3-2.61l-1.14-8h31.11l-1.14 8A3 3 0 0 1 35.41 45z"/></g></g></g><path class="cls-4" d="M38 25.26v1.14a1.14 1.14 0 1 1-2.27 0v-2.65"/><path class="cls-4" d="M28.17 10.08V12a1.14 1.14 0 1 1-2.27 0v-.76"/><g><path class="cls-2" d="M13 29.06V31a1.14 1.14 0 1 1-2.27 0v-1.9z"/><path class="cls-4" d="M13 29.82V31a1.14 1.14 0 1 1-2.27 0v-1.9"/></g></g></svg>