<svg xmlns="http://www.w3.org/2000/svg" viewBox="0 0 48 48"><defs><style>.cls-3{fill:#fff}.cls-4{fill:none;stroke:#45413c;stroke-linecap:round;stroke-linejoin:round}</style></defs><ellipse cx="24" cy="45.5" rx="11.5" ry="1.5" fill="#45413c" opacity=".15"/><circle cx="24" cy="21" r="14" fill="#e5feff"/><path class="cls-3" d="M24 9.67a14 14 0 0 1 13.93 12.66c0-.44.07-.88.07-1.33a14 14 0 0 0-28 0c0 .45 0 .89.07 1.33A14 14 0 0 1 24 9.67z"/><circle class="cls-4" cx="24" cy="21" r="14"/><path d="M24 7a14 14 0 0 0-13.12 9.14A4.16 4.16 0 0 0 14.5 18c4.33 0 3.5-3.71 7-4.5 3.33-.75 3.58 1.5 7.5 1.5a6.19 6.19 0 0 0 5.69-3A14 14 0 0 0 24 7z" fill="#ff87af"/><path d="M11.69 17a14 14 0 0 1 21.82-3.63A6.47 6.47 0 0 0 34.69 12a14 14 0 0 0-23.81 4.17 4.85 4.85 0 0 0 .81.83z" fill="#ffb0ca"/><path class="cls-4" d="M24 7a14 14 0 0 0-13.12 9.14A4.16 4.16 0 0 0 14.5 18c4.33 0 3.5-3.71 7-4.5 3.33-.75 3.58 1.5 7.5 1.5a6.19 6.19 0 0 0 5.69-3A14 14 0 0 0 24 7z"/><path d="M39.93 6.18a5 5 0 0 0-4.65 3.22l-5.91 15.1h3L37.31 12a2.8 2.8 0 0 1 2.62-1.82 2 2 0 1 0 0-4z" fill="#daedf7"/><path class="cls-3" d="M39.93 6.18a5 5 0 0 0-4.65 3.22l-5.91 15.1h1l5.16-13.1a5 5 0 0 1 4.65-3.22 2 2 0 0 1 1.58.82c0-.1.08-.2.11-.3a2 2 0 0 0-1.94-2.52z"/><path class="cls-4" d="M39.93 6.18a5 5 0 0 0-4.65 3.22l-5.91 15.1h3L37.31 12a2.8 2.8 0 0 1 2.62-1.82 2 2 0 1 0 0-4z"/><path d="M38.69 21s-1.89 3-14.32 3-15.06-3-15.06-3a.79.79 0 0 0-.79.81 15.51 15.51 0 0 0 12.82 14.45.77.77 0 0 1 .66.74v3.2a.82.82 0 0 1-.17.5 7.05 7.05 0 0 1-3.76 2.39 1.22 1.22 0 0 0 .36 2.38H29.6a1.22 1.22 0 0 0 .4-2.35 7.05 7.05 0 0 1-3.76-2.39.82.82 0 0 1-.17-.5V37a.77.77 0 0 1 .66-.76 15.51 15.51 0 0 0 12.75-14.43.79.79 0 0 0-.79-.81z" fill="#b8ecff"/><path d="M38.69 21s-1.89 3-14.32 3-15.06-3-15.06-3a.79.79 0 0 0-.79.81v.13c2 4.36 8.33 7.56 15.84 7.56 6.64 0 12.3-2.5 14.94-6.05.08-.54.15-1.09.18-1.64a.79.79 0 0 0-.79-.81z" fill="#e5f8ff"/><path class="cls-4" d="M38.69 21s-1.89 3-14.32 3-15.06-3-15.06-3a.79.79 0 0 0-.79.81 15.51 15.51 0 0 0 12.82 14.45.77.77 0 0 1 .66.74v3.2a.82.82 0 0 1-.17.5 7.05 7.05 0 0 1-3.76 2.39 1.22 1.22 0 0 0 .33 2.39h11.2a1.22 1.22 0 0 0 .33-2.39 7.05 7.05 0 0 1-3.76-2.39.82.82 0 0 1-.17-.5V37a.77.77 0 0 1 .66-.76 15.51 15.51 0 0 0 12.82-14.43.79.79 0 0 0-.79-.81z"/><circle cx="25.37" cy="6" r="2.5" fill="#ff6242"/><path d="M25.37 5a2.5 2.5 0 0 1 2.37 1.75 2.68 2.68 0 0 0 .13-.75 2.5 2.5 0 0 0-5 0 2.67 2.67 0 0 0 .12.75A2.5 2.5 0 0 1 25.37 5z" fill="#ff866e"/><circle class="cls-4" cx="25.37" cy="6" r="2.5"/></svg>