<svg xmlns="http://www.w3.org/2000/svg" viewBox="0 0 48 48"><defs><style>.cls-4{fill:none;stroke:#45413c;stroke-linecap:round;stroke-linejoin:round}</style></defs><g><ellipse cx="24" cy="38.87" rx="20.04" ry="1.63" fill="#45413c" opacity=".15"/><ellipse cx="24" cy="29.3" rx="21.13" ry="8.7" fill="#fff"/><path d="M24 35.11c-10.47 0-19.14-3.11-20.81-7.25a3.86 3.86 0 0 0-.32 1.44c0 4.81 9.46 8.7 21.13 8.7s21.13-3.89 21.13-8.7a3.86 3.86 0 0 0-.32-1.44C43.14 32 34.47 35.11 24 35.11z" fill="#f0f0f0"/><ellipse class="cls-4" cx="24" cy="29.3" rx="21.13" ry="8.7"/><path d="M35.38 28c0 2.47-4.5 4.48-11.38 4.48s-11.38-2-11.38-4.48c0-4.11 2.17-12.31 2.17-12.31h18.42s2.17 8.13 2.17 12.31z" fill="#fffacf"/><path d="M31.85 19.93c.75-.4 1.33-2.33 1.71-2.82-.21-.85-.35-1.38-.35-1.38H14.79s-.22.83-.52 2.1c1.67 1.28 4.86 3.66 8.59 3.76 3.09 0 2.85 2.49 3.59 3.38s2.43 1.2 3.32-1.47.8-2.71 2.08-3.57z" fill="#fff48c"/><path class="cls-4" d="M35.38 28c0 2.47-4.5 4.48-11.38 4.48s-11.38-2-11.38-4.48c0-4.11 2.17-12.31 2.17-12.31h18.42s2.17 8.13 2.17 12.31z"/><path d="M23.39 19.51c2.71 0 2.51 2.18 3.15 2.95s2.13 1.05 2.91-1.28.7-2.37 1.82-3.13 1.94-1.45 1.94-2.32c0-2.1-4.12-3.79-9.21-3.79s-9.21 1.69-9.21 3.79 3.8 3.65 8.6 3.78z" fill="#bf8256"/><path d="M24 14.33c4.1 0 7.51 1.31 8.28 3a2.23 2.23 0 0 0 .93-1.65c0-2.1-4.12-3.79-9.21-3.79s-9.21 1.69-9.21 3.79a2.23 2.23 0 0 0 .93 1.65c.77-1.69 4.18-3 8.28-3z" fill="#dea47a"/><path class="cls-4" d="M23.39 19.51c2.71 0 2.51 2.18 3.15 2.95s2.13 1.05 2.91-1.28.7-2.37 1.82-3.13 1.94-1.45 1.94-2.32c0-2.1-4.12-3.79-9.21-3.79s-9.21 1.69-9.21 3.79 3.8 3.65 8.6 3.78z"/></g></svg>