<svg xmlns="http://www.w3.org/2000/svg" viewBox="0 0 48 48"><defs><style>.cls-5{fill:none;stroke:#45413c;stroke-linecap:round;stroke-linejoin:round;stroke-width:1.01px}</style></defs><g><ellipse cx="24.66" cy="45.37" rx="12.53" ry="1.63" fill="#45413c" opacity=".15"/><path d="M19.35 44.53l-8.07-4.42c-2.79-1.52-4-4.6-2.8-6.88l8.91-16.29A7.7 7.7 0 0 1 20.31 14l16.15 8.84a7.63 7.63 0 0 1-.9 4l-8.91 16.33c-1.25 2.27-4.51 2.88-7.3 1.36z" fill="#e5f8ff"/><path d="M34.76 28.34l-8.11 14.83c-1.25 2.27-4.52 2.88-7.31 1.35l-8.06-4.41c-2.79-1.52-4-4.6-2.8-6.88l2.68-4.89z" fill="#e5fff9"/><path fill="#fff" d="M32.3 32.84l2.47-4.5H11.16l-2.46 4.5h23.6z"/><path class="cls-5" d="M34.76 28.34l-8.11 14.83c-1.25 2.27-4.52 2.88-7.31 1.35l-8.06-4.41c-2.79-1.52-4-4.6-2.8-6.88l2.68-4.89z"/><path class="cls-5" d="M19.35 44.53l-8.07-4.42c-2.79-1.52-4-4.6-2.8-6.88l8.91-16.29A7.7 7.7 0 0 1 20.31 14l16.15 8.84a7.63 7.63 0 0 1-.9 4l-8.91 16.33c-1.25 2.27-4.51 2.88-7.3 1.36z"/><rect x="19.54" y="12.25" width="20.71" height="6.54" rx="1.06" ry="1.06" transform="rotate(28.68 29.891 15.53)" fill="#4aeff7"/><path d="M20.17 13.93l.54.3a3.48 3.48 0 0 1 4.72-1.39l13.65 7.47 1-1.75a1.06 1.06 0 0 0-.42-1.45L23.31 8.2a1.06 1.06 0 0 0-1.44.42l-2.12 3.87a1.06 1.06 0 0 0 .42 1.44z" fill="#a6fbff"/><rect class="cls-5" x="19.54" y="12.25" width="20.71" height="6.54" rx="1.06" ry="1.06" transform="rotate(28.68 29.891 15.53)"/><path d="M37.68 11.3a4.46 4.46 0 0 1-.36-3.79l.23-.68a2.71 2.71 0 0 0-.86-3.73 2.72 2.72 0 0 0-3.61 1.29l-.44.61a4.51 4.51 0 0 1-3.39 1.74A5.91 5.91 0 0 0 24.77 9l13.38 7.32a6 6 0 0 0-.47-5.02z" fill="#fff48c"/><g><path d="M29.25 9.38a4.51 4.51 0 0 0 3.39-1.74l.44-.56a2.72 2.72 0 0 1 3.61-1.29 2.24 2.24 0 0 1 .91.92 2.69 2.69 0 0 0-.91-3.61 2.72 2.72 0 0 0-3.61 1.29l-.44.61a4.51 4.51 0 0 1-3.39 1.74A5.93 5.93 0 0 0 24.77 9l1.95 1.07a5.45 5.45 0 0 1 2.53-.69z" fill="#fffacf"/></g><path class="cls-5" d="M37.68 11.3a4.46 4.46 0 0 1-.36-3.79l.23-.68a2.71 2.71 0 0 0-.86-3.73 2.72 2.72 0 0 0-3.61 1.29l-.44.61a4.51 4.51 0 0 1-3.39 1.74A5.91 5.91 0 0 0 24.77 9l13.38 7.32a6 6 0 0 0-.47-5.02z"/><path class="cls-5" d="M17.45 16.85l3.77 2.07"/><path class="cls-5" d="M14.65 21.96l3.77 2.07"/><path class="cls-5" d="M11.77 27.22l3.78 2.07"/><path class="cls-5" d="M9.16 32l3.77 2.07"/></g></svg>