<svg xmlns="http://www.w3.org/2000/svg" viewBox="0 0 48 48"><defs><style>.cls-2,.cls-4{fill:#fff}.cls-2,.cls-5{stroke:#45413c;stroke-linecap:round;stroke-linejoin:round}.cls-5{fill:none}.cls-10{fill:#fcd}</style></defs><ellipse cx="24" cy="44.39" rx="14.5" ry="1.61" fill="#45413c" opacity=".15"/><path class="cls-2" d="M15.49 10.08a4.72 4.72 0 1 0-4.08 2.34h.44a2.58 2.58 0 1 0 3.65-2.34z"/><circle class="cls-2" cx="22.08" cy="3.08" r="2.58"/><path d="M40.72 34.22a5.59 5.59 0 1 0 0-11.17h-2.15v3.44h2.15a2.15 2.15 0 0 1 0 4.3h-3.86v3.43z" fill="#e5f8ff"/><path class="cls-4" d="M39.86 24.77a5.59 5.59 0 0 1 5.59 5.59 6 6 0 0 1-.23 1.64 5.59 5.59 0 0 0-4.5-8.9h-2.15v1.72z"/><path class="cls-5" d="M40.72 34.22a5.59 5.59 0 1 0 0-11.17h-2.15v3.44h2.15a2.15 2.15 0 0 1 0 4.3h-3.86v3.43z"/><path class="cls-4" d="M8.5 19.5v9a15.75 15.75 0 0 0 15.5 16 15.75 15.75 0 0 0 15.5-16v-9z"/><path d="M24 39c-6.45 0-12.08-2.79-15.11-6.94A15.62 15.62 0 0 0 24 44.5a15.62 15.62 0 0 0 15.11-12.44C36.08 36.21 30.45 39 24 39z" fill="#e8f4fa"/><path class="cls-5" d="M8.5 19.5v9a15.75 15.75 0 0 0 15.5 16 15.75 15.75 0 0 0 15.5-16v-9z"/><ellipse cx="24" cy="19.5" rx="15.5" ry="2" fill="#e8f4fa" stroke="#45413c" stroke-linecap="round" stroke-linejoin="round"/><path d="M27.32 32.94a.86.86 0 0 1 .84 1.06 4.3 4.3 0 0 1-8.32 0 .86.86 0 0 1 .84-1.07z" fill="#ffb0ca" stroke="#45413c" stroke-linecap="round" stroke-linejoin="round"/><path d="M24 37.23a4.26 4.26 0 0 0 3.38-1.67 6.26 6.26 0 0 0-3.38-.91 6.26 6.26 0 0 0-3.38.91A4.26 4.26 0 0 0 24 37.23z" fill="#ff87af" stroke="#45413c" stroke-linecap="round" stroke-linejoin="round"/><path class="cls-10" d="M15.41 30.79c0 .47.57.86 1.29.86s1.3-.39 1.3-.86-.58-.86-1.29-.86-1.3.38-1.3.86z"/><path class="cls-5" d="M16.27 29.07a1.29 1.29 0 1 1 2.57 0"/><path class="cls-10" d="M32.59 30.79c0 .47-.57.86-1.29.86s-1.3-.39-1.3-.86.58-.86 1.29-.86 1.3.38 1.3.86z"/><path class="cls-5" d="M31.73 29.07a1.29 1.29 0 1 0-2.57 0"/></svg>