<svg xmlns="http://www.w3.org/2000/svg" viewBox="0 0 48 48"><defs><style>.cls-2{fill:#00b8f0;stroke:#45413c;stroke-linecap:round;stroke-linejoin:round}.cls-6{fill:#ffe500}.cls-8{fill:#e5f8ff}</style></defs><g><ellipse cx="24" cy="45.5" rx="9" ry="1.5" fill="#45413c" opacity=".15"/><g><path class="cls-2" d="M22.42 31.62c.95 3.78.63 10.15.63 10.15a.63.63 0 0 1-.59.63c-2.6.17-4.61.79-5 1.56a.3.3 0 0 0 .14.4A14.3 14.3 0 0 0 24 45.5a14.3 14.3 0 0 0 6.41-1.14.3.3 0 0 0 .14-.4c-.4-.77-2.41-1.39-5-1.56a.63.63 0 0 1-.59-.63s-.32-6.37.63-10.15z"/><g><path d="M31.26 25c0 4-3.25 7.89-7.26 7.89S16.74 29 16.74 25L18 3.22h12z" fill="#00b8f0"/><path d="M30.63 14.12L30 3.22H18L16.74 25a7.85 7.85 0 0 0 .53 2.79 39.56 39.56 0 0 0 13.36-13.67z" fill="#4acfff"/><path d="M31.26 25c0 4-3.25 7.89-7.26 7.89S16.74 29 16.74 25L18 3.22h12z" fill="none" stroke="#45413c" stroke-linecap="round" stroke-linejoin="round"/><ellipse class="cls-2" cx="24" cy="3.22" rx="6" ry="1.26"/></g><g><path class="cls-6" d="M19.27 20.26a2.71 2.71 0 0 1 2.52-1.58 4.7 4.7 0 0 1 3.47 1.58z"/><path class="cls-6" d="M29.68 24.36c0 3.14-2.54 6.94-5.68 6.94s-5.68-3.8-5.68-6.94l.32-5.05s.63 1 2.84 1 2.84-1.9 5-1.9 2.84.95 2.84.95z"/><path d="M27.72 18.47a6.73 6.73 0 0 0-1.2-.11c-2.2 0-2.84 1.9-5 1.9s-2.84-1-2.84-1l-.32 5.05a7.18 7.18 0 0 0 .45 2.42 41.92 41.92 0 0 0 8.91-8.26z" fill="#fff48c"/></g><g><circle class="cls-8" cx="21.79" cy="7.95" r="1.26"/><circle class="cls-8" cx="19.9" cy="9.84" r=".63"/></g></g></g></svg>