<svg xmlns="http://www.w3.org/2000/svg" viewBox="0 0 48 48"><defs><style>.cls-1{fill:#e5feff}.cls-1,.cls-5,.cls-7{stroke:#45413c;stroke-linecap:round;stroke-linejoin:round}.cls-4{fill:#45413c;opacity:.15}.cls-5{fill:none}.cls-6{fill:#ebcb00}.cls-7{fill:#fff}</style></defs><g><path class="cls-1" d="M32.92 20.8v3.63h3.23a1.61 1.61 0 0 1 1.61 1.62v4.79a3.23 3.23 0 0 1-2 3L32.92 35v4.44l4.56-2a6.44 6.44 0 0 0 3.92-5.93v-6.67a4 4 0 0 0-4-4z"/><path d="M34.13 41.87h-23A4.13 4.13 0 0 0 12.34 39V17.17h20.58V39a4.17 4.17 0 0 0 1.21 2.92z" fill="#ffe500"/><path d="M22.43 17.17H12.34V39a4.13 4.13 0 0 1-1.21 2.92h11.3z" fill="#fff48c"/><ellipse class="cls-4" cx="22.63" cy="45.5" rx="14.5" ry="1.5"/><path class="cls-5" d="M34.13 41.87h-23A4.13 4.13 0 0 0 12.34 39V17.17h20.58V39a4.17 4.17 0 0 0 1.21 2.92z"/><circle class="cls-6" cx="15.98" cy="26.45" r="1.21"/><circle class="cls-6" cx="30.1" cy="23.22" r=".81"/><circle class="cls-7" cx="33.33" cy="8.52" r="1.15"/><circle class="cls-7" cx="11.74" cy="8.33" r="1.01"/><path class="cls-4" d="M12.34 19.62a3.28 3.28 0 0 0 .43 0 2.91 2.91 0 0 0 1.29-.3v2.88a1.08 1.08 0 1 0 2.15 0v-2.75a4.25 4.25 0 0 0 1.29.21 4 4 0 0 0 .86-.1v5.26a1.94 1.94 0 0 0 3.87 0v-5.16a5.52 5.52 0 0 0 3-.88 4.22 4.22 0 0 0 5.17 0 3 3 0 0 0 2.14.89 2.33 2.33 0 0 0 .38 0v-2.5H12.34z"/><g><path class="cls-5" d="M17.05 1.11V.5"/><path class="cls-5" d="M18.34 1.64l.42-.43"/><path class="cls-5" d="M18.87 2.92h.6"/><path class="cls-5" d="M18.34 4.2l.42.43"/><path class="cls-5" d="M17.05 4.74v.6"/><path class="cls-5" d="M15.77 4.2l-.43.43"/><path class="cls-5" d="M15.24 2.92h-.61"/><path class="cls-5" d="M15.77 1.64l-.43-.43"/></g><g><path class="cls-5" d="M26.66 4.98V3.37"/><path class="cls-5" d="M25.85 4.18h1.61"/></g><path class="cls-7" d="M35.55 15.14a3 3 0 0 0-3-3 3.08 3.08 0 0 0-.75.1 4.3 4.3 0 0 0-4-2.68 4.58 4.58 0 0 0-.83.08 5.58 5.58 0 0 0-9.46-.08 4.3 4.3 0 0 0-4 2.68 3.08 3.08 0 0 0-.75-.1 3 3 0 0 0 0 6 2.91 2.91 0 0 0 1.29-.3v2.88a1.08 1.08 0 0 0 2.15 0v-2.78a4.25 4.25 0 0 0 1.29.21 4 4 0 0 0 .86-.1v5.26a1.94 1.94 0 0 0 3.87 0v-5.16a5.52 5.52 0 0 0 3-.88 4.22 4.22 0 0 0 5.17 0 3 3 0 0 0 5.15-2.12z"/><circle class="cls-6" cx="28.08" cy="34.52" r="1.21"/><circle class="cls-6" cx="18.4" cy="36.94" r=".81"/><circle class="cls-6" cx="14.77" cy="30.75" r=".81"/><circle class="cls-6" cx="25.66" cy="26.85" r=".81"/><g><path class="cls-7" d="M21.85 31.3a1.61 1.61 0 1 1-3.21 0A10.45 10.45 0 0 1 20 28.22a.32.32 0 0 1 .27-.16.3.3 0 0 1 .26.16 10.19 10.19 0 0 1 1.32 3.08z"/></g><path class="cls-1" d="M35.75 43.68A1.79 1.79 0 0 1 34 45.5H11.28a1.82 1.82 0 0 1 0-3.63H34a1.79 1.79 0 0 1 1.75 1.81z"/></g></svg>