<svg xmlns="http://www.w3.org/2000/svg" viewBox="0 0 48 48"><defs><style>.cls-1{fill:#45413c;opacity:.15}.cls-2,.cls-4,.cls-9{fill:#fff}.cls-2,.cls-3,.cls-4,.cls-5,.cls-9{stroke:#45413c}.cls-2,.cls-3,.cls-5{stroke-linecap:round}.cls-2,.cls-3,.cls-4,.cls-5{stroke-linejoin:round}.cls-3{fill:none}.cls-5{fill:#e5feff}.cls-6{fill:#ffe500}.cls-7{fill:#fff48c}.cls-8{fill:#ebcb00}.cls-9{stroke-miterlimit:10}</style></defs><g><ellipse class="cls-1" cx="12.46" cy="45.5" rx="9.5" ry="1.5"/><ellipse class="cls-1" cx="37.46" cy="45.52" rx="9" ry="1.42"/><circle class="cls-2" cx="41.17" cy="5.92" r="1.01"/><circle class="cls-2" cx="3.29" cy="12.12" r=".88"/><g><path class="cls-3" d="M8.38 2.9v-.53"/><path class="cls-3" d="M9.5 3.36l.38-.37"/><path class="cls-3" d="M9.97 4.49h.53"/><path class="cls-3" d="M9.5 5.61l.38.38"/><path class="cls-3" d="M8.38 6.08v.53"/><path class="cls-3" d="M7.25 5.61l-.37.38"/><path class="cls-3" d="M6.79 4.49h-.54"/><path class="cls-3" d="M7.25 3.36l-.37-.37"/></g><g><path class="cls-3" d="M32.99 3.7V2.28"/><path class="cls-3" d="M32.28 2.99h1.42"/></g><g><path class="cls-4" d="M21.23 3.55a.26.26 0 0 1 .21.08.29.29 0 0 1 .07.22L21 7.19a.26.26 0 0 1-.23.21.25.25 0 0 1-.26-.17L19.4 4.08a.25.25 0 0 1 0-.22.28.28 0 0 1 .19-.12z"/><path class="cls-4" d="M27 5a.28.28 0 0 1 .12.18.27.27 0 0 1-.08.22l-2.48 2.29a.25.25 0 0 1-.31 0 .26.26 0 0 1-.11-.3l1-3.17a.26.26 0 0 1 .15-.16.24.24 0 0 1 .22 0z"/><path class="cls-4" d="M14.74 5.75a.25.25 0 0 0 0 .4l2.44 2.34a.26.26 0 0 0 .42-.26l-1-3.17a.22.22 0 0 0-.15-.16.25.25 0 0 0-.22 0z"/><path class="cls-4" d="M11 10.33a.25.25 0 0 0 .21.34l3.36.39a.25.25 0 0 0 .27-.16.25.25 0 0 0-.1-.3L12 8.7a.25.25 0 0 0-.37.11z"/></g></g><path class="cls-5" d="M8.1 23.86l-.6 2.44-2.17-.53a1.12 1.12 0 0 0-1.33.82l-.79 3.23A2.25 2.25 0 0 0 4 32.16l1.73 1.26-.73 3-2.71-2.07a4.47 4.47 0 0 1-1.66-4.64l1.1-4.53a2.79 2.79 0 0 1 3.38-2.05z"/><path class="cls-6" d="M19.49 41.88a2.87 2.87 0 0 1-.49-2.43l3.57-14.66-13.88-3.38-3.57 14.67A2.85 2.85 0 0 1 3.54 38z"/><path class="cls-7" d="M11.66 40l4.1-16.84 6.79 1.66L19 39.45a2.86 2.86 0 0 0 .51 2.43z"/><path class="cls-3" d="M19.49 41.88a2.87 2.87 0 0 1-.49-2.43l3.57-14.66-13.88-3.38-3.57 14.67A2.85 2.85 0 0 1 3.54 38z"/><path class="cls-8" d="M17.77 30.24a.84.84 0 1 0 1-.61.83.83 0 0 0-1 .61z"/><path class="cls-8" d="M9.06 25.82a.55.55 0 0 0 .41.67.56.56 0 0 0 .68-.41.56.56 0 0 0-1.09-.26z"/><path class="Graphic-Style-11" d="M22.15 26.44h-.3A2.2 2.2 0 0 1 21 26l-.47 1.94a.75.75 0 0 1-.9.55.75.75 0 0 1-.55-.9l.46-1.88a2.76 2.76 0 0 1-.9-.07 2.69 2.69 0 0 1-.56-.21L17.25 29a1.34 1.34 0 0 1-2.61-.63l.85-3.47a3.86 3.86 0 0 1-1.88-1.09 2.93 2.93 0 0 1-3.48-.85 2.08 2.08 0 0 1-1.59.24l-.25-.08.4-1.66 13.86 3.38z"/><path class="cls-2" d="M7.26 19.62a2.08 2.08 0 0 1 2.52-1.53 2.26 2.26 0 0 1 .49.19 3 3 0 0 1 3.11-1.15 2.38 2.38 0 0 1 .55.19 3.86 3.86 0 0 1 6.38 1.5 3 3 0 0 1 2.24 2.46 2.35 2.35 0 0 1 .52 0 2.08 2.08 0 1 1-1 4.05 2.11 2.11 0 0 1-.82-.41l-.47 1.93a.75.75 0 0 1-.9.55.75.75 0 0 1-.55-.9l.46-1.88a2.83 2.83 0 0 1-1.46-.27l-.87 3.53a1.34 1.34 0 1 1-2.6-.63l.85-3.47a3.79 3.79 0 0 1-1.88-1.09 3 3 0 0 1-1.89.17 2.92 2.92 0 0 1-1.59-1 2.13 2.13 0 0 1-1.59.25 2.09 2.09 0 0 1-1.5-2.49z"/><path class="cls-8" d="M8.29 33.69a.84.84 0 1 0 1-.62.85.85 0 0 0-1 .62z"/><path class="cls-8" d="M14.69 37a.55.55 0 0 0 .41.67.55.55 0 0 0 .67-.41.56.56 0 1 0-1.08-.26z"/><path class="cls-8" d="M18.15 33.41a.55.55 0 0 0 .41.67.55.55 0 0 0 .67-.41.56.56 0 1 0-1.08-.26z"/><path class="cls-8" d="M11.45 29a.56.56 0 1 0 .68-.41.57.57 0 0 0-.68.41z"/><g><path class="cls-9" d="M13.83 32.74a1.11 1.11 0 1 0 2.16.53 7.09 7.09 0 0 0-.4-2.3.2.2 0 0 0-.15-.14.19.19 0 0 0-.2.06 7.22 7.22 0 0 0-1.41 1.85z"/></g><path class="cls-5" d="M2.06 38.93A1.25 1.25 0 0 0 3 40.44l15.94 3.88a1.26 1.26 0 0 0 .6-2.44L3.55 38a1.25 1.25 0 0 0-1.49.93z"/><path class="cls-5" d="M39.56 14.59l.72 2.41 2.14-.64a1.11 1.11 0 0 1 1.39.75l.95 3.19a2.23 2.23 0 0 1-.76 2.37L42.37 24l.87 3 2.65-2.2a4.47 4.47 0 0 0 1.42-4.71L46 15.59a2.8 2.8 0 0 0-3.48-1.88z"/><path class="cls-6" d="M29.09 33.15a2.9 2.9 0 0 0 .39-2.44l-4.31-14.47 13.67-4.07 4.31 14.47a2.83 2.83 0 0 0 1.67 1.84z"/><path class="cls-7" d="M36.81 30.86l-4.94-16.61-6.7 2 4.31 14.47a2.89 2.89 0 0 1-.4 2.45z"/><path class="cls-3" d="M29.09 33.15a2.9 2.9 0 0 0 .39-2.44l-4.31-14.47 13.67-4.07 4.31 14.47a2.83 2.83 0 0 0 1.67 1.84z"/><path class="cls-8" d="M30.22 21.45a.84.84 0 0 1-.56 1 .84.84 0 1 1-.48-1.61.84.84 0 0 1 1.04.61z"/><path class="cls-8" d="M38.7 16.59a.56.56 0 0 1-.38.7.55.55 0 0 1-.69-.38.55.55 0 0 1 .37-.69.56.56 0 0 1 .7.37z"/><path class="cls-1" d="M25.66 17.87l.29-.06a2.1 2.1 0 0 0 .8-.45l.57 1.91a.74.74 0 1 0 1.42-.43L28.19 17a2.78 2.78 0 0 0 .9-.11 2.48 2.48 0 0 0 .55-.24l1 3.49a1.34 1.34 0 1 0 2.57-.76l-1-3.43a3.9 3.9 0 0 0 1.82-1.18 2.91 2.91 0 0 0 3.43-1 2.15 2.15 0 0 0 1.6.17l.25-.11-.49-1.63-13.65 4.04z"/><path class="cls-2" d="M40.18 10.31a2.08 2.08 0 0 0-2.59-1.4 2.58 2.58 0 0 0-.48.21 3 3 0 0 0-3.17-1 2.27 2.27 0 0 0-.53.22 3.86 3.86 0 0 0-6.3 1.81A3 3 0 0 0 25 12.73a2.43 2.43 0 0 0-.52.08 2.09 2.09 0 0 0 1.19 4 2 2 0 0 0 .8-.46l.53 1.92a.74.74 0 1 0 1.42-.43L27.89 16a2.79 2.79 0 0 0 .9-.12 2.45 2.45 0 0 0 .55-.23l1 3.49a1.34 1.34 0 0 0 2.66-.78l-1-3.42a3.85 3.85 0 0 0 1.82-1.18 2.91 2.91 0 0 0 3.44-1 2 2 0 0 0 1.59.17 2.08 2.08 0 0 0 1.33-2.62z"/><path class="cls-8" d="M39.86 24.42a.84.84 0 1 1-1-.57.84.84 0 0 1 1 .57z"/><path class="cls-8" d="M33.64 28a.56.56 0 0 1-1.08.32.57.57 0 0 1 .38-.7.56.56 0 0 1 .7.38z"/><path class="cls-8" d="M30 24.63a.56.56 0 1 1-.69-.38.55.55 0 0 1 .69.38z"/><path class="cls-8" d="M36.47 19.88a.57.57 0 0 1-.38.7.56.56 0 1 1 .38-.7z"/><g><path class="cls-9" d="M34.28 23.75a1.11 1.11 0 0 1-2.13.63 7.06 7.06 0 0 1 .28-2.31.21.21 0 0 1 .14-.15.2.2 0 0 1 .21 0 7.2 7.2 0 0 1 1.5 1.83z"/></g><path class="cls-5" d="M46.34 29.33a1.24 1.24 0 0 1-.81 1.56L29.8 35.57a1.26 1.26 0 0 1-.71-2.41l15.72-4.68a1.23 1.23 0 0 1 1.53.85z"/></svg>