<svg xmlns="http://www.w3.org/2000/svg" viewBox="0 0 48 48"><defs><style>.cls-1{fill:#45413c;opacity:.15}.cls-2,.cls-3{fill:#00b8f0}.cls-2,.cls-5{stroke:#45413c;stroke-linecap:round;stroke-linejoin:round}.cls-4{fill:#4acfff}.cls-5{fill:none}.cls-6{fill:#ffe500}.cls-7{fill:#fff48c}.cls-8{fill:#e5f8ff}</style></defs><g><ellipse class="cls-1" cx="12.5" cy="45.5" rx="9" ry="1.5"/><ellipse class="cls-1" cx="35.5" cy="45.5" rx="9" ry="1.5"/><g><path class="cls-2" d="M12.15 31.08c.12 3.92-1.54 10.1-1.54 10.1a.63.63 0 0 1-.71.49c-2.59-.38-4.7-.2-5.25.46a.31.31 0 0 0 .06.43 14.28 14.28 0 0 0 6 2.48 14.38 14.38 0 0 0 6.53.24.32.32 0 0 0 .23-.37c-.23-.83-2.07-1.86-4.59-2.59a.63.63 0 0 1-.45-.74s1-6.31 2.77-9.83z"/><g><path class="cls-3" d="M22.22 26.46c-.85 3.93-4.86 7-8.79 6.2S7.13 27.31 8 23.38l5.83-21.09L25.6 4.83z"/><path class="cls-4" d="M23.91 15.66L25.6 4.83 13.83 2.29 8 23.38a8 8 0 0 0-.08 2.85 39.78 39.78 0 0 0 15.99-10.57z"/><path class="cls-5" d="M22.22 26.46c-.85 3.93-4.86 7-8.79 6.2S7.13 27.31 8 23.38l5.83-21.09L25.6 4.83z"/><path class="cls-2" d="M25.6 4.83c-.15.68-2.9.67-6.15 0S13.69 3 13.83 2.29s2.91-.67 6.15 0 5.77 1.85 5.62 2.54z"/></g><g><path class="cls-6" d="M11.46 19.27a2.73 2.73 0 0 1 2.81-1 4.72 4.72 0 0 1 3.07 2.28z"/><path class="cls-6" d="M20.81 25.5c-.67 3.08-4 6.27-7 5.61s-4.76-4.94-4.1-8l1.29-4.9s.42 1.06 2.59 1.53S16.81 18.48 19 19s2.59 1.53 2.59 1.53z"/><path class="cls-7" d="M20.13 19.31A6.84 6.84 0 0 0 19 19c-2.17-.47-3.19 1.26-5.35.79S11 18.21 11 18.21l-1.34 4.88a7.33 7.33 0 0 0-.07 2.48 42.14 42.14 0 0 0 10.54-6.26z"/></g><g><path class="cls-8" d="M17.78 8a1.26 1.26 0 1 1-1-1.51 1.26 1.26 0 0 1 1 1.51z"/><path class="cls-8" d="M14.91 9.32a.65.65 0 0 1-.76.49.63.63 0 1 1 .76-.49z"/></g></g><g><path class="cls-2" d="M33 31.69c1.77 3.5 2.87 9.8 2.87 9.8a.64.64 0 0 1-.44.75c-2.51.75-4.34 1.8-4.56 2.64a.3.3 0 0 0 .23.36 14.39 14.39 0 0 0 6.52-.31 14.38 14.38 0 0 0 6-2.53.32.32 0 0 0 .06-.43c-.57-.66-2.67-.82-5.26-.42a.63.63 0 0 1-.72-.48S36 34.91 36.08 31z"/><g><path class="cls-3" d="M40.17 23.25c.89 3.92-1.43 8.44-5.36 9.33s-8-2.19-8.85-6.11l-3.6-21.6L34.1 2.21z"/><path class="cls-4" d="M37.14 12.75l-3-10.54-11.78 2.66L26 26.47a8.08 8.08 0 0 0 1.13 2.61 39.69 39.69 0 0 0 10.01-16.33z"/><path class="cls-5" d="M40.17 23.25c.89 3.92-1.43 8.44-5.36 9.33s-8-2.19-8.85-6.11l-3.6-21.6L34.1 2.21z"/><path class="cls-2" d="M34.1 2.21c.16.68-2.34 1.83-5.59 2.57s-6 .77-6.15.09S24.71 3 28 2.31s6-.78 6.1-.1z"/></g><g><path class="cls-6" d="M27.38 21.27a2.73 2.73 0 0 1 2.12-2.1 4.74 4.74 0 0 1 3.75.77z"/><path class="cls-6" d="M38.48 23c.7 3.07-.95 7.36-4 8.05s-6.4-2.46-7.1-5.53l-.81-5s.83.78 3 .29 2.36-2.48 4.52-3 3 .3 3 .3z"/><path class="cls-7" d="M35.26 17.65a6.52 6.52 0 0 0-1.2.16c-2.16.49-2.35 2.48-4.52 3s-3-.29-3-.29l.81 5a7.41 7.41 0 0 0 1 2.27 41.79 41.79 0 0 0 6.91-10.14z"/></g><g><path class="cls-8" d="M28.36 8.39a1.27 1.27 0 0 1-1 1.51 1.27 1.27 0 0 1-.56-2.47 1.28 1.28 0 0 1 1.56.96z"/><path class="cls-8" d="M26.31 10.8a.64.64 0 0 1-1.24.28.64.64 0 1 1 1.24-.28z"/></g></g></g></svg>