<svg xmlns="http://www.w3.org/2000/svg" viewBox="0 0 48 48"><defs><style>.cls-5{stroke:#45413c;stroke-linecap:round;stroke-linejoin:round;fill:#6dd627}</style></defs><g><ellipse cx="24" cy="45.5" rx="11.5" ry="1.5" fill="#45413c" opacity=".15"/><circle cx="24" cy="22.83" r="19.67" fill="#00b8f0"/><path d="M41.34 13.55a18.12 18.12 0 1 1-34.68 0 19.67 19.67 0 1 0 34.68 0z" fill="#009fd9"/><circle cx="24" cy="22.83" r="19.67" stroke="#45413c" stroke-linecap="round" stroke-linejoin="round" fill="none"/><path class="cls-5" d="M32.65 5.19l-3.81.68a.58.58 0 0 0-.17.06l-4.55 2.69a.48.48 0 0 1-.26.07h-3.27a.49.49 0 0 0-.28.09l-5.48 3.71a.5.5 0 0 0 0 .81l1 .77a.47.47 0 0 0 .52 0l3.71-1.8a.52.52 0 0 1 .51 0l1.45 1a.49.49 0 0 0 .66-.08l.52-.62a.5.5 0 0 1 .6-.12l2.09 1a.41.41 0 0 1 .11.07l1.27 1.12a.48.48 0 0 0 .41.11l1.29-.2a.5.5 0 0 1 .56.64l-.36 1.17a.5.5 0 0 0 .14.52l3.19 2.91a.47.47 0 0 1 .16.31l.27 2a.5.5 0 0 0 .67.4l2.59-1a.41.41 0 0 0 .22-.17l1.48-2A.49.49 0 0 0 38 19l-.24-1.29a.5.5 0 0 1 .63-.58l1.93.57a.49.49 0 0 1 .35.37l.83 3.7a.5.5 0 0 0 .88.2l1.18-1.49A19.66 19.66 0 0 0 32.65 5.19z"/><path class="cls-5" d="M25.42 4.6l-1.91-.54a.53.53 0 0 0-.37 0l-2.37 1.32a.49.49 0 0 0-.06.84l.73.53a.54.54 0 0 0 .41.08l2.09-.5h.12l1.46-.76a.51.51 0 0 0-.1-.97z"/><path class="cls-5" d="M28.1 16.76h-5.8a1.16 1.16 0 0 1-.37-.07l-2.28-.89a1 1 0 0 0-.44-.07l-3.93.3a2.22 2.22 0 0 0-1.43.66l-2.5 2.57a1 1 0 0 0-.28.7v3a1 1 0 0 0 .44.82l1.94 1.32a1 1 0 0 0 .66.16l3.89-.37a1 1 0 0 1 1 .51l2.56 4.6a1 1 0 0 1 .09.74l-.47 1.8a1 1 0 0 0 .13.81l2.34 3.53a1 1 0 0 0 1 .44l3.09-.46a1 1 0 0 0 .71-.47l2.93-4.86a1.07 1.07 0 0 0 .12-.53v-2.7a1 1 0 0 1 .35-.76l2.49-2.16a1 1 0 0 0 0-1.54L33 22.83l-3.42-2.54a1 1 0 0 1-.41-.76l-.07-1.81a1 1 0 0 0-1-.96z"/><path class="cls-5" d="M34.35 30.41l-1.66 2.42a.49.49 0 0 0-.08.39l.31 1.53a.5.5 0 0 0 .75.33l1.41-.84a.5.5 0 0 0 .22-.31l.79-3.11a.5.5 0 0 0-.48-.63h-.84a.54.54 0 0 0-.42.22z"/><path d="M31 11.71l-.53 1.64a.5.5 0 0 0 .41.65l2.24.32a.52.52 0 0 0 .46-.19l.75-1a.49.49 0 0 0-.21-.76l-2.45-1a.5.5 0 0 0-.67.34z" stroke="#45413c" stroke-linecap="round" stroke-linejoin="round" fill="#00b8f0"/></g></svg>