<svg xmlns="http://www.w3.org/2000/svg" viewBox="0 0 48 48"><defs><style>.cls-4,.cls-7{fill:none;stroke:#45413c;stroke-linecap:round;stroke-linejoin:round}.cls-7{fill:#6dd627}.cls-6{fill:#46b000}</style></defs><g><ellipse cx="24" cy="45.5" rx="11.5" ry="1.5" fill="#45413c" opacity=".15"/><circle cx="24" cy="22.83" r="19.67" fill="#00b8f0"/><path d="M41.34 13.55a18.12 18.12 0 1 1-34.68 0 19.67 19.67 0 1 0 34.68 0z" fill="#009fd9"/><circle class="cls-4" cx="24" cy="22.83" r="19.67"/><path d="M25.15 23.5l-1.06 2a.89.89 0 0 1-.24.3l-.85.71a1 1 0 0 0-.26 1.19l1.47 3.12a1 1 0 0 0 .67.55l.63.15a1 1 0 0 1 .73 1.23l-1.35 5.11a1 1 0 0 0 0 .46l.11.55a1 1 0 0 0 1.63.56l6.26-5.25a1 1 0 0 1 .46-.22l1.09-.2a1 1 0 0 0 .71-.53l2-4a1 1 0 0 0-.49-1.37l-3.21-1.43A1 1 0 0 1 33 26l-.71-1.35a1 1 0 0 0-.68-.52L26.24 23a1 1 0 0 0-1.09.5z" fill="#6dd627"/><g><path class="cls-6" d="M26.62 39.45l5-4.18a17.88 17.88 0 0 1-6.45 1.63l-.26 1a1 1 0 0 0 0 .46l.11.55a1 1 0 0 0 1.6.54z"/><path class="cls-6" d="M35.14 33.25l.12-.23c-.35.28-.71.56-1.08.81h.25a1 1 0 0 0 .71-.58z"/></g><path class="cls-4" d="M25.15 23.5l-1.06 2a.89.89 0 0 1-.24.3l-.85.71a1 1 0 0 0-.26 1.19l1.47 3.12a1 1 0 0 0 .67.55l.63.15a1 1 0 0 1 .73 1.23l-1.35 5.11a1 1 0 0 0 0 .46l.11.55a1 1 0 0 0 1.63.56l6.26-5.25a1 1 0 0 1 .46-.22l1.09-.2a1 1 0 0 0 .71-.53l2-4a1 1 0 0 0-.49-1.37l-3.21-1.43A1 1 0 0 1 33 26l-.71-1.35a1 1 0 0 0-.68-.52L26.24 23a1 1 0 0 0-1.09.5z"/><path class="cls-7" d="M22.41 9.82l-2-1.15a1 1 0 0 1-.3-1.46l.15-.21a1 1 0 0 0-.49-1.54l-2.49-.82a1 1 0 0 0-.7 0A19.63 19.63 0 0 0 11 8.07a1 1 0 0 0-.34.68l-.42 5.33a1 1 0 0 0 .19.66l3.9 5.26a1 1 0 0 0 .45.34l5.06 1.95.15.07L22.6 24a1 1 0 0 0 .84.08l1-.35-2.65-2.32a.91.91 0 0 0-.23-.15l-3.32-1.61a1 1 0 0 1-.55-.74l-.13-.74A1 1 0 0 1 18.61 17l3.3.27a1 1 0 0 0 .84-.35L26.09 13a1 1 0 0 1 .62-.34l2.47-.33a1 1 0 0 0 .86-1v-.76a1 1 0 0 0-.54-.89l-3.93-2a1 1 0 0 0-1.41.6l-.3 1a1 1 0 0 1-1.45.54z"/><path class="cls-7" d="M24 3.17a19.29 19.29 0 0 0-2.42.16l7 3a1 1 0 0 0 .42.07l3.16-.25.46-1A19.53 19.53 0 0 0 24 3.17z"/><path class="cls-7" d="M28.75 19L26 18.1a.49.49 0 0 0-.62.27l-.64 1.52a.5.5 0 0 0 .52.69l2.13-.28a.51.51 0 0 0 .3-.15z"/></g></svg>