<svg xmlns="http://www.w3.org/2000/svg" viewBox="0 0 48 48"><defs><style>.cls-3{fill:none;stroke:#45413c;stroke-linecap:round;stroke-linejoin:round}.cls-4{fill:#6dd627}.cls-5{fill:#9ceb60}.cls-14{fill:#00b8f0}.cls-15{fill:#4acfff}</style></defs><g><path fill="#debb7e" d="M13.55 19.18h4.29V41.5h-4.29z"/><path d="M13.55 34.76a3 3 0 0 0 1.29.3 3 3 0 0 0 2.76-1.82l.24.06V19.18h-4.29z" fill="#b89558"/><path class="cls-3" d="M13.55 19.18h4.29V41.5h-4.29z"/><path class="cls-4" d="M15.16 9.4a10.43 10.43 0 0 0-10.41 9.72A6.61 6.61 0 1 0 12 29.78a10.26 10.26 0 0 0 3.2.51 10.45 10.45 0 0 0 0-20.89z"/><path class="cls-5" d="M4.75 21.9a10.43 10.43 0 0 1 20.75-.67 10.57 10.57 0 0 0 .1-1.39 10.44 10.44 0 0 0-20.85-.72 6.57 6.57 0 0 0-4.09 7.59 6.59 6.59 0 0 1 4.09-4.81z"/><path class="cls-3" d="M15.16 9.4a10.43 10.43 0 0 0-10.41 9.72A6.61 6.61 0 1 0 12 29.78a10.26 10.26 0 0 0 3.2.51 10.45 10.45 0 0 0 0-20.89z"/><path d="M40.7 24.52L29 17.7a1.73 1.73 0 0 0-1.73 0l-11.68 6.82a1.49 1.49 0 1 0 1.51 2.57l11-6.44 11.1 6.44a1.49 1.49 0 0 0 1.5-2.57z" fill="#ff6242"/><path d="M15.12 26.64a1.69 1.69 0 0 1 .47-.45l11.69-6.81a1.68 1.68 0 0 1 1.73 0l11.69 6.81a1.56 1.56 0 0 1 .47.45.76.76 0 0 0 .12-.19 1.48 1.48 0 0 0-.59-1.93L29 17.7a1.73 1.73 0 0 0-1.73 0l-11.68 6.82a1.5 1.5 0 0 0-.59 1.93 1.22 1.22 0 0 0 .12.19z" fill="#ff866e"/><path class="cls-3" d="M40.7 24.52L29 17.7a1.73 1.73 0 0 0-1.73 0l-11.68 6.82a1.49 1.49 0 1 0 1.51 2.57l11-6.44 11.1 6.44a1.49 1.49 0 0 0 1.5-2.57z"/><ellipse cx="26.43" cy="42.5" rx="21.03" ry="1.5" fill="#45413c" opacity=".15"/><path fill="#fffacf" d="M38.45 41.5H17.84V26.66l10.31-6.01 10.3 6.01V41.5z"/><path fill="#fff48c" d="M28.15 20.65l-10.31 6.01v2.4l10.31-6.01 10.3 6.01v-2.4l-10.3-6.01z"/><path class="cls-3" d="M38.45 41.5H17.84V26.66l10.31-6.01 10.3 6.01V41.5z"/><path d="M20.42 39.35h8.16a.86.86 0 0 1 .86.86v1.29h-9.88v-1.29a.86.86 0 0 1 .86-.86z" fill="#e0e0e0" stroke="#45413c" stroke-linecap="round" stroke-linejoin="round"/><path d="M21.71 29.05h5.58a.86.86 0 0 1 .86.86v9.44h-7.3v-9.44a.86.86 0 0 1 .86-.86z" fill="#bf8256"/><path d="M27.29 29.05h-5.58a.86.86 0 0 0-.86.86v1.72a.85.85 0 0 1 .86-.86h5.58a.86.86 0 0 1 .86.86v-1.72a.87.87 0 0 0-.86-.86z" fill="#915e3a"/><path class="cls-3" d="M21.71 29.05h5.58a.86.86 0 0 1 .86.86v9.44h-7.3v-9.44a.86.86 0 0 1 .86-.86z"/><rect class="cls-14" x="30.72" y="29.05" width="5.15" height="5.15" rx=".86" ry=".86"/><path class="cls-15" d="M35 29.05h-3.42a.87.87 0 0 0-.86.86v3.43a.86.86 0 0 0 .86.86h.61l3-5.11a.47.47 0 0 0-.19-.04z"/><rect class="cls-14" x="22.57" y="30.77" width="3.86" height="3.86" rx=".86" ry=".86"/><path class="cls-15" d="M25.57 30.77h-2.15a.85.85 0 0 0-.85.86v2.14a.85.85 0 0 0 .85.86h.21l2.23-3.8a.72.72 0 0 0-.29-.06z"/><rect class="cls-3" x="30.72" y="29.05" width="5.15" height="5.15" rx=".86" ry=".86"/><rect class="cls-3" x="22.57" y="30.77" width="3.86" height="3.86" rx=".86" ry=".86"/><path class="cls-4" d="M46.63 41.5a2.14 2.14 0 0 0-1.28-3.86 2.11 2.11 0 0 0-1.36.5 3.86 3.86 0 1 0-6.65 3.36z"/><path class="cls-5" d="M40.2 36.8a3.87 3.87 0 0 1 3.8 3.08 2.11 2.11 0 0 1 1.36-.51 2.15 2.15 0 0 1 2 1.27 2.21 2.21 0 0 0 .19-.86 2.14 2.14 0 0 0-2.15-2.14 2.11 2.11 0 0 0-1.36.5 3.87 3.87 0 0 0-7.65.78 3.43 3.43 0 0 0 .11.86 3.85 3.85 0 0 1 3.7-2.98z"/><path class="cls-3" d="M46.63 41.5a2.14 2.14 0 0 0-1.28-3.86 2.11 2.11 0 0 0-1.36.5 3.86 3.86 0 1 0-6.65 3.36z"/></g></svg>