<svg xmlns="http://www.w3.org/2000/svg" viewBox="0 0 48 48"><defs><style>.cls-2{fill:#fcd}.cls-3{fill:#ffb0ca}.cls-4{fill:none}.cls-10,.cls-4{stroke:#45413c;stroke-linecap:round;stroke-linejoin:round}.cls-10,.cls-6{fill:#00b8f0}.cls-7{fill:#4acfff}.cls-13{fill:#ff87af}</style></defs><g><ellipse cx="24" cy="45.5" rx="18.5" ry="1.5" fill="#45413c" opacity=".15"/><path class="cls-2" d="M24.75 13.5h16V44a.5.5 0 0 1-.5.5h-15.5v-31z"/><path class="cls-3" d="M24.75 13.5h16v1.91h-16z"/><path class="cls-4" d="M24.75 13.5h16V44a.5.5 0 0 1-.5.5h-15.5v-31z"/><path class="cls-2" d="M7.25 44.5h17.5v-23h-17a1 1 0 0 0-1 1V44a.5.5 0 0 0 .5.5z"/><path d="M7.75 21.5a1 1 0 0 0-1 1v2.29a1 1 0 0 1 1-1h17V21.5z" fill="#ffe5ee"/><path class="cls-4" d="M7.75 21.5h17v23H7.25a.5.5 0 0 1-.5-.5V22.5a1 1 0 0 1 1-1z"/><path class="cls-6" d="M29.75 37.5h6v7h-6z"/><path class="cls-7" d="M30.07 44.5h5.68v-7h-2.4l-3.28 7z"/><path class="cls-4" d="M29.75 37.5h6v7h-6z"/><path d="M32.75 33.5a4 4 0 0 0-4 4h8a4 4 0 0 0-4-4z" fill="#ff6242"/><path d="M32.75 35.5a4 4 0 0 1 3.45 2h.55a4 4 0 0 0-8 0h.55a4 4 0 0 1 3.45-2z" fill="#ff866e"/><path class="cls-4" d="M32.75 33.5a4 4 0 0 0-4 4h8a4 4 0 0 0-4-4z"/><path class="cls-6" d="M9.25 38.5h13v3h-13z"/><path class="cls-7" d="M17.13 41.5h5.12v-3h-3.71l-1.41 3z"/><path class="cls-4" d="M9.25 38.5h13v3h-13z"/><path class="cls-10" d="M9.25 32.08h2.59v3H9.25z"/><path class="cls-10" d="M14.45 32.08h2.59v3h-2.59z"/><path class="cls-10" d="M19.66 32.08h2.59v3h-2.59z"/><path class="cls-10" d="M9.25 25.75h2.59v3H9.25z"/><path class="cls-10" d="M14.45 25.75h2.59v3h-2.59z"/><path class="cls-10" d="M19.66 25.75h2.59v3h-2.59z"/><path class="cls-10" d="M28.26 28.08h2.59v3h-2.59z"/><path class="cls-10" d="M34.97 28.08h2.59v3h-2.59z"/><path class="cls-10" d="M28.26 22.29h2.59v3h-2.59z"/><path class="cls-10" d="M34.97 22.29h2.59v3h-2.59z"/><path class="cls-10" d="M28.26 16.66h2.59v3h-2.59z"/><path class="cls-10" d="M34.97 16.66h2.59v3h-2.59z"/><path d="M40.25 11.5h-15a1 1 0 0 0 0 2h15a1 1 0 0 0 0-2z" fill="#ff6242" stroke="#45413c" stroke-linecap="round" stroke-linejoin="round"/><path d="M10.75 19h10a1 1 0 0 1 1 1v1.5h-12V20a1 1 0 0 1 1-1z" fill="#ffe5ee" stroke="#45413c" stroke-linecap="round" stroke-linejoin="round"/><path class="cls-4" d="M32.75 37.5v7"/><path class="cls-13" d="M14.89 10.46a2.12 2.12 0 0 0-1.16-1.39 2.08 2.08 0 0 0-2.52.64l-.6.79-.91-.41a2.08 2.08 0 0 0-2.89 2.4A4.33 4.33 0 0 0 9 15.24L12.23 17l2.06-3.06a4.31 4.31 0 0 0 .6-3.48z"/><path class="cls-3" d="M11.21 12.2l-.6.8-.91-.42a2.07 2.07 0 0 0-2.58.73 4.47 4.47 0 0 1-.31-.82 2.08 2.08 0 0 1 2.89-2.4l.91.41.6-.79a2.08 2.08 0 0 1 2.52-.64 2.12 2.12 0 0 1 1.16 1.39 4.34 4.34 0 0 1-.08 2.29 2.07 2.07 0 0 0-3.6-.55z"/><path class="cls-4" d="M14.89 10.46a2.12 2.12 0 0 0-1.16-1.39 2.08 2.08 0 0 0-2.52.64l-.6.79-.91-.41a2.08 2.08 0 0 0-2.89 2.4A4.33 4.33 0 0 0 9 15.24L12.23 17l2.06-3.06a4.31 4.31 0 0 0 .6-3.48z"/><path class="cls-13" d="M25.6 3.37a2.6 2.6 0 0 0-3.14-.82l-1.14.5-.75-1a2.6 2.6 0 0 0-4.6.89 5.34 5.34 0 0 0 .71 4.31l2.52 3.85L23.3 9A5.4 5.4 0 0 0 26 5.58a2.61 2.61 0 0 0-.4-2.21z"/><path class="cls-3" d="M25.87 6a2.58 2.58 0 0 0-3.41-1.29l-1.14.5-.75-1a2.6 2.6 0 0 0-4.66 1.18A5.49 5.49 0 0 1 16 2.94a2.6 2.6 0 0 1 4.6-.89l.75 1 1.14-.5a2.6 2.6 0 0 1 3.57 3c-.06.18-.14.31-.19.45z"/><path class="cls-4" d="M25.6 3.37a2.6 2.6 0 0 0-3.14-.82l-1.14.5-.75-1a2.6 2.6 0 0 0-4.6.89 5.34 5.34 0 0 0 .71 4.31l2.52 3.85L23.3 9A5.4 5.4 0 0 0 26 5.58a2.61 2.61 0 0 0-.4-2.21z"/></g></svg>