<svg xmlns="http://www.w3.org/2000/svg" viewBox="0 0 48 48"><defs><style>.cls-4{fill:none;stroke:#45413c;stroke-linecap:round;stroke-linejoin:round}.cls-6{fill:#e0e0e0}.cls-7{fill:#bdbec0}.cls-8{fill:#ff6242}.cls-9{fill:#ff866e}</style></defs><path d="M46.25 45.7c0 1-10 1.3-22.25 1.3s-22.25-.31-22.25-1.3 10-1.81 22.25-1.81 22.25.81 22.25 1.81z" fill="#45413c" opacity=".15"/><rect x="3.31" y="3.31" width="41.37" height="41.37" rx="3.55" ry="3.55" fill="#fff"/><path d="M41.14 41.73H6.86a3.55 3.55 0 0 1-3.55-3.55v3a3.55 3.55 0 0 0 3.55 3.55h34.28a3.55 3.55 0 0 0 3.55-3.55v-3a3.55 3.55 0 0 1-3.55 3.55z" fill="#f0f0f0"/><rect class="cls-4" x="3.31" y="3.31" width="41.37" height="41.37" rx="3.55" ry="3.55"/><rect x="6.27" y="6.27" width="35.46" height="35.46" rx="1.18" ry="1.18" fill="#00b8f0"/><rect class="cls-4" x="6.27" y="6.27" width="35.46" height="35.46" rx="1.18" ry="1.18"/><path class="cls-6" d="M6.27 20.93h8.24v20.8h-7.1a1.14 1.14 0 0 1-1.14-1.14V20.93z"/><path class="cls-7" d="M6.27 20.93h8.24v2.28H6.27z"/><path class="cls-4" d="M6.27 20.93h8.24v20.8h-7.1a1.14 1.14 0 0 1-1.14-1.14V20.93z"/><path class="cls-6" d="M33.49 20.93h8.24v19.66a1.14 1.14 0 0 1-1.14 1.14h-7.1v-20.8z"/><path class="cls-7" d="M33.49 20.93h8.24v2.28h-8.24z"/><path class="cls-4" d="M33.49 20.93h8.24v19.66a1.14 1.14 0 0 1-1.14 1.14h-7.1v-20.8z"/><path class="cls-6" d="M19.2 16.69h9.6v9.75h-9.6z"/><path class="cls-7" d="M19.2 16.69h9.6v2.4h-9.6z"/><path class="cls-4" d="M19.2 16.69h9.6v9.75h-9.6z"/><path class="cls-8" d="M23.53 8.79l-5.43 6.94a.59.59 0 0 0 .46 1h10.88a.59.59 0 0 0 .46-1l-5.43-6.94a.59.59 0 0 0-.94 0z"/><path class="cls-9" d="M18.56 16.69H20l2-2.59a2.48 2.48 0 0 1 3.92 0l2 2.59h1.45a.59.59 0 0 0 .46-1l-5.36-6.9a.59.59 0 0 0-.94 0l-5.43 6.94a.59.59 0 0 0 .46.96z"/><path class="cls-4" d="M23.53 8.79l-5.43 6.94a.59.59 0 0 0 .46 1h10.88a.59.59 0 0 0 .46-1l-5.43-6.94a.59.59 0 0 0-.94 0z"/><path fill="#e0e0e0" stroke="#45413c" stroke-linecap="round" stroke-linejoin="round" d="M30.89 23.84v2.6H28.8v-2.6h-3.18v2.6h-3.24v-2.6H19.2v2.6h-2.09v-2.6h-2.6v17.89h18.98V23.84h-2.6z"/><path d="M24 31.33a4.3 4.3 0 0 0-4.3 4.3v6.1h8.6v-6.1a4.3 4.3 0 0 0-4.3-4.3z" fill="#debb7e"/><path d="M24 31.33a4.3 4.3 0 0 0-4.3 4.3v2.54a4.3 4.3 0 1 1 8.6 0v-2.54a4.3 4.3 0 0 0-4.3-4.3z" fill="#b89558"/><path class="cls-4" d="M24 31.33a4.3 4.3 0 0 0-4.3 4.3v6.1h8.6v-6.1a4.3 4.3 0 0 0-4.3-4.3z"/><path class="cls-8" d="M6.27 20.93h8.22A.59.59 0 0 0 15 20l-4.1-5.08a.6.6 0 0 0-.92 0l-3.71 4.51z"/><path class="cls-9" d="M8.49 19.59a2.44 2.44 0 0 1 3.8 0l1.09 1.34h1.11A.59.59 0 0 0 15 20l-4.1-5.08a.6.6 0 0 0-.92 0l-3.71 4.51v1.5H7.4z"/><path class="cls-4" d="M6.27 20.93h8.22A.59.59 0 0 0 15 20l-4.1-5.08a.6.6 0 0 0-.92 0l-3.71 4.51z"/><path class="cls-8" d="M41.73 19.43l-3.66-4.54a.6.6 0 0 0-.92 0L33.05 20a.59.59 0 0 0 .46 1h8.22z"/><path class="cls-9" d="M39.51 19.59a2.44 2.44 0 0 0-3.8 0l-1.09 1.34h-1.11a.59.59 0 0 1-.46-1l4.1-5.08a.6.6 0 0 1 .92 0l3.66 4.54v1.5H40.6z"/><path class="cls-4" d="M41.73 19.43l-3.66-4.54a.6.6 0 0 0-.92 0L33.05 20a.59.59 0 0 0 .46 1h8.22z"/><path class="cls-4" d="M24 31.33v10.4"/></svg>