<svg xmlns="http://www.w3.org/2000/svg" viewBox="0 0 48 48"><defs><style>.cls-4{fill:none;stroke:#45413c;stroke-linecap:round;stroke-linejoin:round}</style></defs><path d="M46.25 45.7c0 1-10 1.3-22.25 1.3s-22.25-.31-22.25-1.3 10-1.81 22.25-1.81 22.25.81 22.25 1.81z" fill="#45413c" opacity=".15"/><g><rect x="3.03" y="3.03" width="41.94" height="41.94" rx="3.59" ry="3.59" fill="#fff"/><path d="M41.37 42H6.63A3.6 3.6 0 0 1 3 38.38v3A3.6 3.6 0 0 0 6.63 45h34.74a3.6 3.6 0 0 0 3.6-3.6v-3a3.6 3.6 0 0 1-3.6 3.6z" fill="#f0f0f0"/><rect class="cls-4" x="3.03" y="3.03" width="41.94" height="41.94" rx="3.59" ry="3.59"/><rect x="6.03" y="6.03" width="35.95" height="35.95" rx="1.2" ry="1.2" fill="#bf8df2"/><rect class="cls-4" x="6.03" y="6.03" width="35.95" height="35.95" rx="1.2" ry="1.2"/><path d="M6 26.41h36v14.36a1.2 1.2 0 0 1-1.2 1.2H7.23A1.2 1.2 0 0 1 6 40.77V26.41z" fill="#6dd627"/><path d="M40.77 39H7.23A1.2 1.2 0 0 1 6 37.78v3A1.19 1.19 0 0 0 7.23 42h33.54a1.19 1.19 0 0 0 1.2-1.2v-3a1.2 1.2 0 0 1-1.2 1.2z" fill="#46b000"/><path d="M35.91 17.63a3.22 3.22 0 1 1 0-6.44 3.11 3.11 0 0 1 .43 0 4.81 4.81 0 0 0-3.05-1.08 4.87 4.87 0 1 0 4.4 7 3.22 3.22 0 0 1-1.78.52z" fill="#ffe500" stroke="#45413c" stroke-linecap="round" stroke-linejoin="round"/><path class="cls-4" d="M6 26.41h36v14.36a1.2 1.2 0 0 1-1.2 1.2H7.23A1.2 1.2 0 0 1 6 40.77V26.41z"/><path d="M24 22.29L21.38 36.6l8.43-3.77a.59.59 0 0 0 .26-.86z" fill="#ffaa54" stroke="#45413c" stroke-linecap="round" stroke-linejoin="round"/><path d="M24 22.29l-10.25-2.4a.6.6 0 0 0-.72.46c-.15.76-.51 2.35-1.31 5.39a34 34 0 0 1-2.54 6.84.59.59 0 0 0 .38.84l11.82 3.18z" fill="#ff8a14"/><path d="M23.27 26.28l.73-4-10.24-2.4a.6.6 0 0 0-.73.46c-.12.61-.38 1.76-.89 3.77z" fill="#ffaa54"/><path class="cls-4" d="M24 22.29l-10.25-2.4a.6.6 0 0 0-.72.46c-.15.76-.51 2.35-1.31 5.39a34 34 0 0 1-2.54 6.84.59.59 0 0 0 .38.84l11.82 3.18z"/><path class="cls-4" d="M24 22.29l2.07 12.21"/></g></svg>