<svg xmlns="http://www.w3.org/2000/svg" viewBox="0 0 48 48"><defs><style>.cls-4{fill:none}.cls-4,.cls-9{stroke:#45413c;stroke-linecap:round;stroke-linejoin:round}.cls-7{fill:#ff6242}.cls-8{fill:#e04122}.cls-9{fill:#fff48c}.cls-10{fill:#ff866e}</style></defs><path d="M46.25 45.7c0 1-10 1.3-22.25 1.3s-22.25-.31-22.25-1.3 10-1.81 22.25-1.81 22.25.81 22.25 1.81z" fill="#45413c" opacity=".15"/><g><rect x="3.35" y="3.35" width="41.3" height="41.3" rx="3.54" ry="3.54" fill="#fff"/><path d="M41.11 41.7H6.89a3.55 3.55 0 0 1-3.54-3.54v3a3.55 3.55 0 0 0 3.54 3.54h34.22a3.55 3.55 0 0 0 3.54-3.54v-3a3.55 3.55 0 0 1-3.54 3.54z" fill="#f0f0f0"/><rect class="cls-4" x="3.35" y="3.35" width="41.3" height="41.3" rx="3.54" ry="3.54"/><rect x="6.3" y="6.3" width="35.4" height="35.4" rx="1.18" ry="1.18" fill="#00b8f0"/><path d="M40.52 38.75h-33a1.18 1.18 0 0 1-1.22-1.18v3a1.18 1.18 0 0 0 1.18 1.13h33a1.18 1.18 0 0 0 1.18-1.18v-3a1.18 1.18 0 0 1-1.14 1.23z" fill="#009fd9"/><rect class="cls-4" x="6.3" y="6.3" width="35.4" height="35.4" rx="1.18" ry="1.18"/><path class="cls-7" d="M18.73 34.62h2.43v7.08h-2.43z"/><path class="cls-8" d="M21.16 38.02l-2.43.28v-3.68h2.43v3.4z"/><path class="cls-4" d="M18.73 34.62h2.43v7.08h-2.43z"/><path class="cls-7" d="M10.69 32.87h2.43v8.83h-2.43z"/><path class="cls-8" d="M13.12 37.57l-2.43-.54v-4.16h2.43v4.7z"/><path class="cls-4" d="M10.69 32.87h2.43v8.83h-2.43z"/><path class="cls-7" d="M26.77 31.18h2.43V41.7h-2.43z"/><path class="cls-8" d="M29.2 35.8l-2.43 1.48v-6.1h2.43v4.62z"/><path class="cls-4" d="M26.8 31.18h2.43V41.7H26.8z"/><path class="cls-7" d="M34.8 22.83h2.43V41.7H34.8z"/><path class="cls-8" d="M37.24 28.53l-2.44 2.18v-7.88h2.44v5.7z"/><path class="cls-4" d="M34.8 22.83h2.43V41.7H34.8z"/><path class="cls-9" d="M26.92 21.88a1.52 1.52 0 1 1-2.16 0 1.52 1.52 0 0 1 2.16 0z"/><path class="cls-9" d="M29.11 19.76a1.52 1.52 0 1 1-2.16 0 1.52 1.52 0 0 1 2.16 0z"/><path class="cls-9" d="M33 15.93a1.52 1.52 0 1 1-2.16 0 1.52 1.52 0 0 1 2.16 0z"/><path class="cls-9" d="M35.23 13.68a1.52 1.52 0 1 1-2.15 0 1.51 1.51 0 0 1 2.15 0z"/><path class="cls-7" d="M32.91 23.51L30.5 21a1.17 1.17 0 0 0-1.66 0l-3 2.88a2.39 2.39 0 0 0-.69 1.42l-.38 3.5a1.71 1.71 0 0 0 2.89 1.41l5.19-5a1.18 1.18 0 0 0 .06-1.7z"/><path class="cls-10" d="M25.18 27.57a2.39 2.39 0 0 1 .69-1.42l.81-.78a4.19 4.19 0 0 1 5.92.09l.28-.28a1.18 1.18 0 0 0 0-1.67L30.5 21a1.17 1.17 0 0 0-1.66 0l-3 2.88a2.39 2.39 0 0 0-.69 1.42l-.38 3.5a1.64 1.64 0 0 0 .15.9z"/><path class="cls-4" d="M32.91 23.51L30.5 21a1.17 1.17 0 0 0-1.66 0l-3 2.88a2.39 2.39 0 0 0-.69 1.42l-.38 3.5a1.71 1.71 0 0 0 2.89 1.41l5.19-5a1.18 1.18 0 0 0 .06-1.7z"/><path class="cls-7" d="M32 17.81l2.81-2.75a1.18 1.18 0 0 1 1.62-.06l2.66 2.22a1.18 1.18 0 0 1 .08 1.78l-3.3 3.24a1.19 1.19 0 0 1-1.75-.1L32 19.39a1.18 1.18 0 0 1 0-1.58z"/><path class="cls-10" d="M32.46 20.05l.33-.31a4.37 4.37 0 0 1 5.86-.24l.52-.52a1.19 1.19 0 0 0-.08-1.75L36.43 15a1.18 1.18 0 0 0-1.58.06L32 17.83a1.18 1.18 0 0 0 0 1.58z"/><path class="cls-4" d="M32 17.83l2.81-2.75a1.18 1.18 0 0 1 1.62-.08l2.66 2.21a1.18 1.18 0 0 1 .08 1.79l-3.3 3.25a1.18 1.18 0 0 1-1.75-.11L32 19.41a1.18 1.18 0 0 1 0-1.58z"/><path class="cls-9" d="M39 9.66a1.52 1.52 0 1 1-2.16 0 1.52 1.52 0 0 1 2.16 0z"/><path class="cls-9" d="M41.31 7.41a1.52 1.52 0 1 1-2.16 0 1.52 1.52 0 0 1 2.16 0z"/><path class="cls-7" d="M41.7 16.11V8.45a1.18 1.18 0 0 0-.78.34l-2.8 2.75a1.17 1.17 0 0 0-.1 1.58l2.17 2.71a1.18 1.18 0 0 0 1.51.28z"/><path class="cls-10" d="M40.92 8.79l-2.8 2.75a1.17 1.17 0 0 0-.1 1.58l.6.75 2.3-2.25a1.14 1.14 0 0 1 .78-.34V8.45a1.18 1.18 0 0 0-.78.34z"/><path class="cls-4" d="M41.7 16.11V8.45a1.18 1.18 0 0 0-.78.34l-2.8 2.75a1.17 1.17 0 0 0-.1 1.58l2.17 2.71a1.18 1.18 0 0 0 1.51.28z"/><path d="M6.3 30.67a19.51 19.51 0 0 0 12.88 5.39c7.08 0 9.81-3.47 22.52-17.52V15C29 29.1 25.77 33.43 19.58 33.37a17.39 17.39 0 0 1-13.28-6.2z" fill="#c0dceb" stroke="#45413c" stroke-linecap="round" stroke-linejoin="round"/></g></svg>