<svg xmlns="http://www.w3.org/2000/svg" viewBox="0 0 48 48"><defs><style>.cls-2{fill:#daedf7}.cls-3{fill:#fff}.cls-4{fill:none;stroke:#45413c;stroke-linecap:round;stroke-linejoin:round}</style></defs><g><ellipse cx="24" cy="45.35" rx="12.64" ry="1.65" fill="#45413c" opacity=".15"/><circle class="cls-2" cx="24" cy="12.52" r="8.79"/><g><path class="cls-3" d="M24 6.48c4.68 0 8.49 2.91 8.77 6.58v-.54a8.79 8.79 0 0 0-17.58 0v.54c.32-3.67 4.13-6.58 8.81-6.58z"/></g><circle class="cls-4" cx="24" cy="12.52" r="8.79"/><circle class="cls-2" cx="24" cy="36.71" r="8.79"/><path d="M17.35 42.47h13.3a8.8 8.8 0 0 0 1.88-3.64H15.47a8.8 8.8 0 0 0 1.88 3.64z" fill="#c0dceb"/><circle class="cls-4" cx="24" cy="36.71" r="8.79"/><path fill="#6dd627" stroke="#45413c" stroke-linecap="round" stroke-linejoin="round" d="M15.21 13.07H32.8V36.7H15.21z"/><path class="cls-3" d="M15.21 13.07H32.8V36.7H15.21z"/><path fill="#e0e0e0" d="M15.21 13.07H32.8v3.64H15.21z"/><path class="cls-4" d="M15.21 13.07H32.8V36.7H15.21z"/><path class="cls-2" d="M32.79 36.71H15.21a1.65 1.65 0 1 0 0 3.29h17.58a1.65 1.65 0 1 0 0-3.29z"/><path class="cls-3" d="M15.21 38.4h17.58a1.65 1.65 0 0 1 1.41.81 1.64 1.64 0 0 0-1.41-2.5H15.21a1.64 1.64 0 0 0-1.41 2.5 1.65 1.65 0 0 1 1.41-.81z"/><path class="cls-4" d="M32.79 36.71H15.21a1.65 1.65 0 1 0 0 3.29h17.58a1.65 1.65 0 1 0 0-3.29z"/><path class="cls-2" d="M32.79 9.78H15.21a1.65 1.65 0 1 0 0 3.29h17.58a1.65 1.65 0 1 0 0-3.29z"/><path class="cls-3" d="M15.21 11.42h17.58a1.68 1.68 0 0 1 1.43.84 1.67 1.67 0 0 0 .22-.84 1.64 1.64 0 0 0-1.65-1.64H15.21a1.65 1.65 0 0 0-1.43 2.47 1.67 1.67 0 0 1 1.43-.83z"/><path class="cls-4" d="M32.79 9.78H15.21a1.65 1.65 0 1 0 0 3.29h17.58a1.65 1.65 0 1 0 0-3.29z"/><path fill="#00b8f0" d="M15.21 13.07v1.65l17.58 13.74v-7.69l-9.84-7.7h-7.74z"/><path fill="#009fd9" d="M27.6 16.71l-4.65-3.64h-7.74v1.65l2.54 1.99h9.85z"/><path class="cls-4" d="M15.21 13.07v1.65l17.58 13.74v-7.69l-9.84-7.7h-7.74z"/><path fill="#ff6242" stroke="#45413c" stroke-linecap="round" stroke-linejoin="round" d="M15.21 29.56l9.14 7.15h8.44v-1.1L15.21 21.87v7.69z"/><path stroke="#45413c" stroke-linecap="round" stroke-linejoin="round" fill="#fff" d="M15.21 14.72l17.58 13.74v7.15L15.21 21.87v-7.15z"/></g></svg>