<svg xmlns="http://www.w3.org/2000/svg" viewBox="0 0 48 48"><defs><style>.cls-2{fill:#8ca4b8}.cls-3{fill:#adc4d9}.cls-4{fill:none}.cls-10,.cls-4{stroke:#45413c;stroke-linecap:round;stroke-linejoin:round}.cls-5{fill:#ff6242}.cls-7{fill:#656769}.cls-8{fill:#87898c}.cls-9{fill:#ff866e}.cls-10,.cls-13{fill:#ffe500}.cls-14{fill:#fff48c}</style></defs><g><ellipse cx="24.5" cy="42.5" rx="19.5" ry="1.5" fill="#45413c" opacity=".15"/><path class="cls-2" d="M7.5 32.5H43v6H7.5z"/><path class="cls-3" d="M7.5 32.5H43v2.56H7.5z"/><path class="cls-4" d="M7.5 32.5H43v6H7.5z"/><path class="cls-5" d="M41.5 32.5H26V14h17.5a3.61 3.61 0 0 0-2 3.24z"/><path d="M43.5 14H26v3h15.52a3.61 3.61 0 0 1 1.98-3z" fill="#e04122"/><path class="cls-4" d="M41.5 32.5H26V14h17.5a3.61 3.61 0 0 0-2 3.24z"/><path class="cls-7" d="M17.5 20H26v12.5h-8.5z"/><path class="cls-8" d="M17.5 20H26v2.25h-8.5z"/><path class="cls-4" d="M17.5 20H26v12.5h-8.5z"/><path class="cls-5" d="M26 9h17.5a1 1 0 0 1 1 1v3.5a.5.5 0 0 1-.5.5H25.5a.5.5 0 0 1-.5-.5V10a1 1 0 0 1 1-1z"/><path class="cls-9" d="M43.5 9H26a1 1 0 0 0-1 1v2.5a1 1 0 0 1 1-1h17.5a1 1 0 0 1 1 1V10a1 1 0 0 0-1-1z"/><path class="cls-4" d="M26 9h17.5a1 1 0 0 1 1 1v3.5a.5.5 0 0 1-.5.5H25.5a.5.5 0 0 1-.5-.5V10a1 1 0 0 1 1-1z"/><path class="cls-7" d="M9 19h8a.5.5 0 0 1 .5.5v13h-9v-13A.5.5 0 0 1 9 19z"/><path class="cls-8" d="M17 19H9a.5.5 0 0 0-.5.5v2.25a.5.5 0 0 1 .5-.5h8a.5.5 0 0 1 .5.5V19.5a.5.5 0 0 0-.5-.5z"/><path class="cls-4" d="M9 19h8a.5.5 0 0 1 .5.5v13h-9v-13A.5.5 0 0 1 9 19z"/><path class="cls-10" d="M10 9.5h6a.53.53 0 0 1 .53.53v3.47h-7V10a.53.53 0 0 1 .47-.5z"/><path class="cls-7" d="M9.5 13.5l1.5 3V19h4v-2.5l1.5-3h-7z"/><path fill="#525252" d="M15.6 15.29l.9-1.79h-7l.9 1.79h5.2z"/><path class="cls-4" d="M9.5 13.5l1.5 3V19h4v-2.5l1.5-3h-7z"/><path d="M8.5 20A8.56 8.56 0 0 0 6 26.5c0 4.44 2.5 6 2.5 6z" fill="#656769" stroke="#45413c" stroke-linecap="round" stroke-linejoin="round"/><path class="cls-4" d="M9 11.5h8"/><path class="cls-7" d="M21.75 16.5A1.75 1.75 0 0 0 20 18.25V20h3.5v-1.75a1.75 1.75 0 0 0-1.75-1.75z"/><path class="cls-8" d="M21.75 16.5A1.75 1.75 0 0 0 20 18.25V20a1.75 1.75 0 0 1 3.5 0v-1.75a1.75 1.75 0 0 0-1.75-1.75z"/><path class="cls-4" d="M21.75 16.5A1.75 1.75 0 0 0 20 18.25V20h3.5v-1.75a1.75 1.75 0 0 0-1.75-1.75z"/><path class="cls-13" d="M17.5 20h2v12.5h-2z"/><path class="cls-13" d="M24 20h2v12.5h-2z"/><path class="cls-14" d="M17.5 20h2v2.25h-2z"/><path class="cls-14" d="M24 20h2v2.25h-2z"/><path class="cls-4" d="M17.5 20h2v12.5h-2z"/><path class="cls-4" d="M24 20h2v12.5h-2z"/><path d="M30.5 16.5h5a2 2 0 0 1 2 2V24a.5.5 0 0 1-.5.5h-8a.5.5 0 0 1-.5-.5v-5.5a2 2 0 0 1 2-2z" fill="#00b8f0"/><path d="M34.47 16.5h-4a2 2 0 0 0-2 2V24a.5.5 0 0 0 .5.5h2.53z" fill="#4acfff"/><path class="cls-4" d="M30.5 16.5h5a2 2 0 0 1 2 2V24a.5.5 0 0 1-.5.5h-8a.5.5 0 0 1-.5-.5v-5.5a2 2 0 0 1 2-2z"/><path class="cls-10" d="M26 27h15.5v3H26z"/><circle class="cls-5" cx="28.5" cy="38" r="4"/><circle class="cls-5" cx="36.5" cy="38" r="4"/><path class="cls-9" d="M28.5 35.43a4 4 0 0 1 3.93 3.28 4.17 4.17 0 0 0 .07-.71 4 4 0 0 0-8 0 4.17 4.17 0 0 0 .07.71 4 4 0 0 1 3.93-3.28z"/><path class="cls-9" d="M36.5 35.43a4 4 0 0 1 3.93 3.28 4.17 4.17 0 0 0 .07-.71 4 4 0 0 0-8 0 4.17 4.17 0 0 0 .07.71 4 4 0 0 1 3.93-3.28z"/><circle class="cls-4" cx="28.5" cy="38" r="4"/><circle class="cls-4" cx="36.5" cy="38" r="4"/><circle class="cls-5" cx="17" cy="39.5" r="2.5"/><circle class="cls-5" cx="12" cy="39.5" r="2.5"/><path class="cls-9" d="M17 38.5a2.49 2.49 0 0 1 2.37 1.75 2.36 2.36 0 0 0 .13-.75 2.5 2.5 0 0 0-5 0 2.36 2.36 0 0 0 .13.75A2.49 2.49 0 0 1 17 38.5z"/><path class="cls-9" d="M12 38.5a2.49 2.49 0 0 1 2.37 1.75 2.36 2.36 0 0 0 .13-.75 2.5 2.5 0 0 0-5 0 2.36 2.36 0 0 0 .13.75A2.49 2.49 0 0 1 12 38.5z"/><circle class="cls-4" cx="17" cy="39.5" r="2.5"/><circle class="cls-4" cx="12" cy="39.5" r="2.5"/><path class="cls-2" d="M43 32.5h2V37h-2z"/><path class="cls-3" d="M43 32.5h2V34h-2z"/><path class="cls-4" d="M43 32.5h2V37h-2z"/><path class="cls-5" d="M7.5 32.5v8h-5l5-8z"/><path class="cls-9" d="M2.5 40.5h1.56L7.5 35v-2.5l-5 8z"/><path class="cls-4" d="M7.5 32.5v8h-5l5-8z"/><path class="cls-4" d="M7.5 36.5l-2.5 4"/><path class="cls-4" d="M12 37v5"/><path class="cls-4" d="M9.5 39.5h5"/><path class="cls-4" d="M15.5 38l3 3"/><path class="cls-4" d="M15.5 41l3-3"/><path class="cls-2" d="M18 32.5h6.5V38a1 1 0 0 1-1 1H19a1 1 0 0 1-1-1v-5.5z"/><path class="cls-3" d="M18 32.5h6.5v2.56H18z"/><path class="cls-4" d="M18 32.5h6.5V38a1 1 0 0 1-1 1H19a1 1 0 0 1-1-1v-5.5z"/><path class="cls-4" d="M28.5 34v8"/><path class="cls-4" d="M25.04 36l6.92 4"/><path class="cls-4" d="M25.04 40l6.92-4"/><path class="cls-4" d="M36.5 42v-8"/><path class="cls-4" d="M39.96 40l-6.92-4"/><path class="cls-4" d="M39.96 36l-6.92 4"/><path class="cls-10" d="M37 38H24.5v-2H37a1 1 0 0 1 1 1 1 1 0 0 1-1 1z"/></g></svg>