<svg xmlns="http://www.w3.org/2000/svg" viewBox="0 0 48 48"><defs><style>.cls-4{fill:none}.cls-10,.cls-12,.cls-4{stroke:#45413c;stroke-linecap:round;stroke-linejoin:round}.cls-12,.cls-5{fill:#c0dceb}.cls-6{fill:#daedf7}.cls-7{fill:#656769}.cls-8{fill:#87898c}.cls-10{fill:#ff8a14}.cls-13{fill:#00b8f0}.cls-14{fill:#4acfff}</style></defs><ellipse cx="24" cy="42.33" rx="17.76" ry="1.67" fill="#45413c" opacity=".15"/><g><path d="M7.27 19.39a9.71 9.71 0 0 0-4.44 8.16v9.05h41.63V15.76a7.08 7.08 0 0 0-.61-2.87l-.65-1.45a5.09 5.09 0 0 0-4.64-3h-22.3a6.21 6.21 0 0 0-5.65 3.64z" fill="#f0f0f0"/><path d="M43.85 12.89l-.65-1.45a5.09 5.09 0 0 0-4.64-3h-22.3a6.22 6.22 0 0 0-5.65 3.64l-3.34 7.31a9.71 9.71 0 0 0-4.44 8.16v4.25a9.71 9.71 0 0 1 4.44-8.15l3.34-7.32a6.21 6.21 0 0 1 5.65-3.64h22.3a5.08 5.08 0 0 1 4.64 3l.65 1.46a7.07 7.07 0 0 1 .61 2.85v-4.24a7.08 7.08 0 0 0-.61-2.87z" fill="#fff"/><path class="cls-4" d="M7.27 19.39a9.71 9.71 0 0 0-4.44 8.16v9.05h41.63V15.76a7.08 7.08 0 0 0-.61-2.87l-.65-1.45a5.09 5.09 0 0 0-4.64-3h-22.3a6.21 6.21 0 0 0-5.65 3.64z"/><rect class="cls-5" x="2" y="32.51" width="10.27" height="4.09" rx="1.11" ry="1.11"/><rect class="cls-5" x="36.13" y="32.51" width="9.37" height="4.09" rx="1.11" ry="1.11"/><path class="cls-6" d="M11.16 32.75h-8A1.11 1.11 0 0 0 2 33.86v1.8a1.11 1.11 0 0 1 1.11-1.11h8.05a1.11 1.11 0 0 1 1.11 1.11v-1.8a1.11 1.11 0 0 0-1.11-1.11z"/><path class="cls-6" d="M44.39 32.75h-7.15a1.11 1.11 0 0 0-1.11 1.11v1.8a1.11 1.11 0 0 1 1.11-1.11h7.15a1.11 1.11 0 0 1 1.11 1.11v-1.8a1.11 1.11 0 0 0-1.11-1.11z"/><rect class="cls-4" x="2" y="32.51" width="10.27" height="4.09" rx="1.11" ry="1.11"/><rect class="cls-4" x="36.13" y="32.51" width="9.37" height="4.09" rx="1.11" ry="1.11"/><circle class="cls-7" cx="12.27" cy="36.6" r="4.9"/><circle class="cls-7" cx="36.13" cy="36.6" r="4.9"/><path class="cls-8" d="M12.27 33.74a4.9 4.9 0 0 1 4.79 3.88 4.9 4.9 0 1 0-9.59 0 4.9 4.9 0 0 1 4.8-3.88z"/><path class="cls-8" d="M36.13 33.74a4.9 4.9 0 0 1 4.8 3.88 4.91 4.91 0 1 0-9.59 0 4.9 4.9 0 0 1 4.79-3.88z"/><circle class="cls-4" cx="12.27" cy="36.6" r="4.9"/><circle class="cls-4" cx="36.13" cy="36.6" r="4.9"/><path d="M2.83 28.22v1.58h41.63V26h-32a14.7 14.7 0 0 0-4.21.62z" fill="#00dba8" stroke="#45413c" stroke-linecap="round" stroke-linejoin="round"/><path class="cls-10" d="M6.16 32.51H2.83v-4.33l2.1-.49a1 1 0 0 1 1.23 1z"/><path class="cls-10" d="M42.7 24.49h1.76v8h-3.12v-6.63a1.37 1.37 0 0 1 1.36-1.37z"/><path fill="#ffe500" stroke="#45413c" stroke-linecap="round" stroke-linejoin="round" d="M41.34 28.8h3.12v3.71h-3.12z"/><circle class="cls-12" cx="12.27" cy="36.6" r="1.8"/><circle class="cls-12" cx="36.13" cy="36.6" r="1.8"/><path class="cls-13" d="M15.35 12.09H10.6l-3.33 7.3h6.29a1.11 1.11 0 0 0 1-.74l1.79-5.09a1.11 1.11 0 0 0-1-1.47z"/><path class="cls-14" d="M15.35 12.09h-1.18l-4.7 7.3h4.09a1.11 1.11 0 0 0 1-.74l1.79-5.09a1.11 1.11 0 0 0-1-1.47z"/><path class="cls-13" d="M22.36 19.39h-3.65a1.11 1.11 0 0 1-1.05-1.46l1.71-5.09a1.1 1.1 0 0 1 1.05-.75h1.94a1.1 1.1 0 0 1 1.11 1.11v5.08a1.1 1.1 0 0 1-1.11 1.11z"/><path class="cls-14" d="M23.12 12.38l-4.51 7h3.75a1.1 1.1 0 0 0 1.11-1.11V13.2a1.17 1.17 0 0 0-.35-.82z"/><path class="cls-13" d="M39.65 19.39H27.17A1.17 1.17 0 0 1 26 18.23v-5a1.17 1.17 0 0 1 1.17-1.16H39a1.31 1.31 0 0 1 1.14.68l.39.72a2.62 2.62 0 0 1 .32 1.26v3.48a1.17 1.17 0 0 1-1.2 1.18z"/><path class="cls-14" d="M40.11 12.77a1.31 1.31 0 0 0-1.11-.68h-2.09l-4.69 7.3h7.43a1.17 1.17 0 0 0 1.17-1.16v-3.48a2.62 2.62 0 0 0-.32-1.26z"/><path class="cls-4" d="M15.35 12.09H10.6l-3.33 7.3h6.29a1.11 1.11 0 0 0 1-.74l1.79-5.09a1.11 1.11 0 0 0-1-1.47z"/><path class="cls-4" d="M22.36 19.39h-3.65a1.11 1.11 0 0 1-1.05-1.46l1.71-5.09a1.1 1.1 0 0 1 1.05-.75h1.94a1.1 1.1 0 0 1 1.11 1.11v5.08a1.1 1.1 0 0 1-1.11 1.11z"/><path class="cls-4" d="M39.65 19.39H27.17A1.17 1.17 0 0 1 26 18.23v-5a1.17 1.17 0 0 1 1.17-1.16H39a1.31 1.31 0 0 1 1.14.68l.39.72a2.62 2.62 0 0 1 .32 1.26v3.48a1.17 1.17 0 0 1-1.2 1.18z"/></g></svg>