<svg xmlns="http://www.w3.org/2000/svg" viewBox="0 0 48 48"><defs><style>.cls-2{fill:#fff}.cls-3{fill:#f0f0f0}.cls-4{fill:none}.cls-11,.cls-12,.cls-15,.cls-4{stroke:#45413c;stroke-linecap:round;stroke-linejoin:round}.cls-7{fill:#656769}.cls-8{fill:#87898c}.cls-11{fill:#ff6242}.cls-12{fill:#ffe500}.cls-15{fill:#c0dceb}</style></defs><g><ellipse cx="24" cy="44.14" rx="19.81" ry="1.86" fill="#45413c" opacity=".15"/><path class="cls-2" d="M8.68 20.9l-1 3.44a2.49 2.49 0 0 1-1.15 1.47l-1.77 1a3.37 3.37 0 0 0-1.69 2.92v4.87a1.23 1.23 0 0 0 1.24 1.23h18V16.64h-8a5.87 5.87 0 0 0-5.63 4.26z"/><path class="cls-3" d="M3.09 32.12v2.48a1.23 1.23 0 0 0 1.24 1.23h18v-2.47h-18a1.24 1.24 0 0 1-1.24-1.24z"/><path class="cls-4" d="M8.68 20.9l-1 3.44a2.49 2.49 0 0 1-1.15 1.47l-1.77 1a3.37 3.37 0 0 0-1.69 2.92v4.87a1.23 1.23 0 0 0 1.24 1.23h18V16.64h-8a5.87 5.87 0 0 0-5.63 4.26z"/><path d="M3.71 35.83h31.57v5H3.71a1.24 1.24 0 0 1-1.24-1.24v-2.52a1.24 1.24 0 0 1 1.24-1.24z" fill="#adc4d9"/><path d="M2.47 37.46v2.09a1.24 1.24 0 0 0 1.24 1.24h31.57V38.7H3.71a1.24 1.24 0 0 1-1.24-1.24z" fill="#8ca4b8"/><path class="cls-4" d="M3.71 35.83h31.57v5H3.71a1.24 1.24 0 0 1-1.24-1.24v-2.52a1.24 1.24 0 0 1 1.24-1.24z"/><rect class="cls-2" x="22.28" y="11.07" width="22.29" height="29.71" rx="2.48" ry="2.48"/><path class="cls-3" d="M42.09 35.83H24.76a2.48 2.48 0 0 1-2.48-2.47v5a2.48 2.48 0 0 0 2.48 2.48h17.33a2.48 2.48 0 0 0 2.48-2.48v-5a2.48 2.48 0 0 1-2.48 2.47z"/><rect class="cls-4" x="22.28" y="11.07" width="22.29" height="29.71" rx="2.48" ry="2.48"/><circle class="cls-7" cx="14.23" cy="39.55" r="4.95"/><path class="cls-8" d="M14.23 37.07A4.93 4.93 0 0 1 19 40.79a5.08 5.08 0 0 0 .17-1.24 4.95 4.95 0 0 0-9.9 0 4.65 4.65 0 0 0 .18 1.24 4.93 4.93 0 0 1 4.78-3.72z"/><circle class="cls-4" cx="14.23" cy="39.55" r="4.95"/><circle class="cls-7" cx="35.9" cy="39.55" r="4.95"/><path class="cls-8" d="M35.9 37.07a5 5 0 0 1 4.78 3.72 5.08 5.08 0 0 0 .17-1.24 4.95 4.95 0 0 0-9.9 0 5.08 5.08 0 0 0 .17 1.24 4.93 4.93 0 0 1 4.78-3.72z"/><circle class="cls-4" cx="35.9" cy="39.55" r="4.95"/><path d="M18 25.93h-5.32a1.24 1.24 0 0 1-1.21-1.51l.53-2.13a2.46 2.46 0 0 1 2.41-1.93H18a1.23 1.23 0 0 1 1.23 1.24v3.09A1.24 1.24 0 0 1 18 25.93z" fill="#00b8f0"/><path d="M14.36 20.36A2.46 2.46 0 0 0 12 22.29l-.48 2.13a1.23 1.23 0 0 0 1.15 1.5l4.29-5.56z" fill="#4acfff"/><path class="cls-4" d="M18 25.93h-5.32a1.24 1.24 0 0 1-1.21-1.51l.53-2.13a2.46 2.46 0 0 1 2.41-1.93H18a1.23 1.23 0 0 1 1.23 1.24v3.09A1.24 1.24 0 0 1 18 25.93z"/><path class="cls-11" d="M3.09 29.74v2.38h19.19V28.4H3.39a3.4 3.4 0 0 0-.3 1.34z"/><path class="cls-11" d="M22.28 28.4h22.29v3.71H22.28z"/><path class="cls-12" d="M3.09 29.74h1.86A1.24 1.24 0 0 1 6.18 31v1.15a1.24 1.24 0 0 1-1.24 1.24H3.09v-3.65z"/><path class="cls-11" d="M37.76 17.88h-2.48V15.4h-3.71v2.48h-2.48v3.71h2.48v2.48h3.71v-2.48h2.48v-3.71z"/><path d="M16.09 12.31a2.48 2.48 0 0 0-2.48 2.48v1.85h5v-1.85a2.48 2.48 0 0 0-2.52-2.48z" fill="#ff8a14"/><path d="M16.09 12.31a2.48 2.48 0 0 0-2.48 2.48v1.75a2.48 2.48 0 0 1 5 0v-1.75a2.48 2.48 0 0 0-2.52-2.48z" fill="#ffaa54"/><path class="cls-4" d="M16.09 12.31a2.48 2.48 0 0 0-2.48 2.48v1.85h5v-1.85a2.48 2.48 0 0 0-2.52-2.48z"/><circle class="cls-15" cx="14.23" cy="39.55" r="1.86"/><circle class="cls-15" cx="35.9" cy="39.55" r="1.86"/><path class="cls-12" d="M16.09 7.2l-1.85-4.39h3.67L16.09 7.2z"/><path class="cls-12" d="M10.71 9.05L6.3 7.26l2.59-2.59 1.82 4.38z"/><path class="cls-12" d="M8.9 14.13l-4.39 1.84v-3.66l4.39 1.82z"/><path class="cls-12" d="M21.21 9.05l4.41-1.79-2.59-2.59-1.82 4.38z"/></g></svg>