<svg xmlns="http://www.w3.org/2000/svg" viewBox="0 0 48 48"><defs><style>.cls-2{fill:#ff6242}.cls-3{fill:#ff866e}.cls-4{fill:none}.cls-11,.cls-4{stroke:#45413c;stroke-linecap:round;stroke-linejoin:round}.cls-16{fill:#daedf7}.cls-8{fill:#87898c}.cls-10{fill:#656769}.cls-11,.cls-17{fill:#c0dceb}</style></defs><g><ellipse cx="24" cy="42.5" rx="19.5" ry="1.5" fill="#45413c" opacity=".15"/><path class="cls-2" d="M18 36H2v-7.73A6 6 0 0 1 3 25l2.77-4.27a6 6 0 0 1 5-2.74H17a1 1 0 0 1 1 1z"/><path class="cls-3" d="M17 18h-6.24a6 6 0 0 0-5 2.74L3 25a6 6 0 0 0-1 3.26v2A6 6 0 0 1 3 27l2.77-4.27a6 6 0 0 1 5-2.74H17a1 1 0 0 1 1 1V19a1 1 0 0 0-1-1z"/><path class="cls-4" d="M18 36H2v-7.73A6 6 0 0 1 3 25l2.77-4.27a6 6 0 0 1 5-2.74H17a1 1 0 0 1 1 1z"/><path class="cls-2" d="M22.5 15.5h20a2 2 0 0 1 2 2v19a2 2 0 0 1-2 2h-22v-21a2 2 0 0 1 2-2z"/><path class="cls-3" d="M42.5 15.5h-20a2 2 0 0 0-2 2V20a2 2 0 0 1 2-2h20a2 2 0 0 1 2 2v-2.5a2 2 0 0 0-2-2z"/><path class="cls-4" d="M22.5 15.5h20a2 2 0 0 1 2 2v19a2 2 0 0 1-2 2h-22v-21a2 2 0 0 1 2-2z"/><path d="M2 36h18.5v2.5H2a1 1 0 0 1-1-1V37a1 1 0 0 1 1-1z" fill="#daedf7" stroke="#45413c" stroke-linecap="round" stroke-linejoin="round"/><path d="M45.56 15.5H17.94a1 1 0 0 1-.94-1V13a1 1 0 0 1 .47-.86l4.93-3a1 1 0 0 1 .47-.14h22.69a1 1 0 0 1 .94 1v4.5a1 1 0 0 1-.94 1z" fill="#adc4d9"/><path d="M45.56 9H22.87a1 1 0 0 0-.47.13l-4.93 3A1 1 0 0 0 17 13v1.5a1.06 1.06 0 0 0 .08.4 1 1 0 0 1 .39-.47l4.93-3a1 1 0 0 1 .47-.13h22.69a1 1 0 0 1 .94 1V10a1 1 0 0 0-.94-1z" fill="#8ca4b8"/><path class="cls-4" d="M45.56 15.5H17.94a1 1 0 0 1-.94-1V13a1 1 0 0 1 .47-.86l4.93-3a1 1 0 0 1 .47-.14h22.69a1 1 0 0 1 .94 1v4.5a1 1 0 0 1-.94 1z"/><path class="cls-8" d="M18 19.5h2.5V36H18z"/><path fill="#bdbec0" d="M18 19.5h2.5v2.25H18z"/><path class="cls-4" d="M18 19.5h2.5V36H18z"/><circle class="cls-10" cx="9.5" cy="38.5" r="4"/><path class="cls-8" d="M9.5 36.33a4 4 0 0 1 3.89 3.09 4 4 0 1 0-7.78 0 4 4 0 0 1 3.89-3.09z"/><circle class="cls-4" cx="9.5" cy="38.5" r="4"/><circle class="cls-10" cx="35" cy="38.5" r="4"/><path class="cls-8" d="M35 36.29a4 4 0 0 1 3.9 3.11 3.82 3.82 0 0 0 .1-.9 4 4 0 0 0-8 0 3.82 3.82 0 0 0 .1.9 4 4 0 0 1 3.9-3.11z"/><circle class="cls-4" cx="35" cy="38.5" r="4"/><circle class="cls-11" cx="9.5" cy="38.5" r="1.5"/><circle class="cls-11" cx="35" cy="38.5" r="1.5"/><path d="M14 23.5v-2a1 1 0 0 0-1-1H6.17l-.44.24L3 25a6.1 6.1 0 0 0-.69 1.49H11a3 3 0 0 0 3-2.99z" fill="#00b8f0"/><path fill="#4acfff" d="M4.59 26.5h4.88l2.97-6H7.82l-3.23 6z"/><path class="cls-4" d="M14 23.5v-2a1 1 0 0 0-1-1H6.17l-.44.24L3 25a6.1 6.1 0 0 0-.69 1.49H11a3 3 0 0 0 3-2.99z"/><path d="M2.75 33.5H2a.5.5 0 0 1-.5-.5v-2.5A.5.5 0 0 1 2 30h.75a1.75 1.75 0 0 1 1.75 1.75 1.75 1.75 0 0 1-1.75 1.75z" fill="#ffe500" stroke="#45413c" stroke-linecap="round" stroke-linejoin="round"/><path fill="#fff" stroke="#45413c" stroke-linecap="round" stroke-linejoin="round" d="M20.5 24h24v5h-24z"/><path class="cls-16" d="M23 9h2.5v6.5H23z"/><path class="cls-16" d="M29 9h2.5v6.5H29z"/><path class="cls-16" d="M35 9h2.5v6.5H35z"/><path class="cls-16" d="M41 9h2.5v6.5H41z"/><path class="cls-17" d="M23 9h2.5v2.95H23z"/><path class="cls-17" d="M29 9h2.5v2.95H29z"/><path class="cls-17" d="M35 9h2.5v2.95H35z"/><path class="cls-17" d="M41 9h2.5v2.95H41z"/><path class="cls-4" d="M23 9h2.5v6.5H23z"/><path class="cls-4" d="M29 9h2.5v6.5H29z"/><path class="cls-4" d="M35 9h2.5v6.5H35z"/><path class="cls-4" d="M41 9h2.5v6.5H41z"/><path d="M12.25 14.5a1.75 1.75 0 0 0-1.75 1.75V18H14v-1.75a1.75 1.75 0 0 0-1.75-1.75z" fill="#ffaa54" stroke="#45413c" stroke-linecap="round" stroke-linejoin="round"/></g></svg>