<svg xmlns="http://www.w3.org/2000/svg" viewBox="0 0 48 48"><defs><style>.cls-3{fill:none}.cls-18,.cls-3{stroke:#45413c;stroke-linecap:round;stroke-linejoin:round}.cls-6{fill:#87898c}.cls-9{fill:#656769}.cls-10{fill:#525252}.cls-16,.cls-18{fill:#ffe500}.cls-17{fill:#ebcb00}</style></defs><path d="M16.28 12.08a1.65 1.65 0 0 0 1.66 1.65h4.41v-3.3h-4.41a1.65 1.65 0 0 0-1.66 1.65z" fill="#00b8f0"/><path d="M17.94 10.43a1.65 1.65 0 0 0-1.66 1.65 1.7 1.7 0 0 0 .23.83 1.65 1.65 0 0 1 1.43-.83h4.41v-1.65z" fill="#4acfff"/><path class="cls-3" d="M16.28 12.08a1.65 1.65 0 0 0 1.66 1.65h4.41v-3.3h-4.41a1.65 1.65 0 0 0-1.66 1.65z"/><path d="M31.72 12.08a1.65 1.65 0 0 1-1.66 1.65h-4.41v-3.3h4.41a1.65 1.65 0 0 1 1.66 1.65z" fill="#ff6242"/><path d="M30.06 10.43a1.65 1.65 0 0 1 1.66 1.65 1.7 1.7 0 0 1-.23.83 1.65 1.65 0 0 0-1.43-.83h-4.41v-1.65z" fill="#ff866e"/><path class="cls-3" d="M31.72 12.08a1.65 1.65 0 0 1-1.66 1.65h-4.41v-3.3h4.41a1.65 1.65 0 0 1 1.66 1.65z"/><path class="cls-6" d="M22.9 9.88h2.2a.55.55 0 0 1 .55.55v3.31h-3.3v-3.31a.55.55 0 0 1 .55-.55z"/><path d="M25.1 9.88h-2.2a.54.54 0 0 0-.55.55v1.62a.55.55 0 0 1 .55-.56h2.2a.55.55 0 0 1 .55.56v-1.62a.54.54 0 0 0-.55-.55z" fill="#bdbec0"/><path class="cls-3" d="M22.9 9.88h2.2a.55.55 0 0 1 .55.55v3.31h-3.3v-3.31a.55.55 0 0 1 .55-.55z"/><ellipse cx="24" cy="43.35" rx="16.54" ry="1.65" fill="#45413c" opacity=".15"/><rect class="cls-9" x="10.22" y="35.23" width="5.51" height="8.27" rx="1.16" ry="1.16"/><rect class="cls-10" x="10.22" y="35.23" width="5.51" height="6.25" rx="1.16" ry="1.16"/><rect class="cls-3" x="10.22" y="35.23" width="5.51" height="8.27" rx="1.16" ry="1.16"/><rect class="cls-9" x="32.27" y="35.23" width="5.51" height="8.27" rx="1.16" ry="1.16"/><rect class="cls-10" x="32.27" y="35.23" width="5.51" height="6.25" rx="1.16" ry="1.16"/><rect class="cls-3" x="32.27" y="35.23" width="5.51" height="8.27" rx="1.16" ry="1.16"/><path d="M36.84 25.66l-.75-4.37a8.92 8.92 0 0 0-8.84-7.7h-6.5a8.92 8.92 0 0 0-8.84 7.7l-.75 4.37a6.16 6.16 0 0 0-2 4.58v1.54h29.72v-1.54a6.16 6.16 0 0 0-2.04-4.58z" fill="#fff"/><path d="M38.88 30.39a5.49 5.49 0 0 0 0-.58 20 20 0 0 0-9.61-2.3H18.76a20 20 0 0 0-9.61 2.3 5.49 5.49 0 0 0 0 .58v1.53h29.73z" fill="#f0f0f0"/><path class="cls-3" d="M36.84 25.67l-.75-4.37a8.91 8.91 0 0 0-8.84-7.7h-6.5a8.91 8.91 0 0 0-8.84 7.7l-.75 4.37a6.16 6.16 0 0 0-2 4.58v1.67h29.72v-1.67a6.16 6.16 0 0 0-2.04-4.58z"/><rect class="cls-6" x="8.57" y="31.92" width="30.87" height="6.61" rx="1" ry="1"/><path class="cls-9" d="M38.43 36.75H9.57a1 1 0 0 1-1-1v1.8a1 1 0 0 0 1 1h28.86a1 1 0 0 0 1-1v-1.8a1 1 0 0 1-1 1z"/><rect class="cls-3" x="8.57" y="31.92" width="30.87" height="6.61" rx="1" ry="1"/><path d="M18.76 31.92h10.48v3.31a1.1 1.1 0 0 1-1.1 1.1h-8.27a1.1 1.1 0 0 1-1.1-1.1v-3.31h-.01z" fill="#daedf7"/><path d="M28.13 34.54h-8.26a1.11 1.11 0 0 1-1.11-1.1v1.79a1.11 1.11 0 0 0 1.11 1.1h8.26a1.11 1.11 0 0 0 1.11-1.1v-1.79a1.11 1.11 0 0 1-1.11 1.1z" fill="#c0dceb"/><path class="cls-3" d="M18.76 31.92h10.48v3.31a1.1 1.1 0 0 1-1.1 1.1h-8.27a1.1 1.1 0 0 1-1.1-1.1v-3.31h-.01z"/><path d="M14.19 24.58a.54.54 0 0 0 .6.63 81.68 81.68 0 0 1 9.21-.45 81.84 81.84 0 0 1 9.21.45.54.54 0 0 0 .6-.63l-.75-3.68a5.67 5.67 0 0 0-5.64-4.41h-6.89a5.65 5.65 0 0 0-5.62 4.36z" stroke="#45413c" stroke-linecap="round" stroke-linejoin="round" fill="#00b8f0"/><circle class="cls-16" cx="13.53" cy="31.37" r="2.2"/><circle class="cls-16" cx="34.47" cy="31.37" r="2.2"/><path class="cls-17" d="M13.53 31.92a2.19 2.19 0 0 1-2-1.37 2 2 0 0 0-.17.82 2.21 2.21 0 1 0 4.25-.82 2.21 2.21 0 0 1-2.08 1.37z"/><path class="cls-17" d="M34.47 31.92a2.21 2.21 0 0 1-2-1.37 2.21 2.21 0 1 0 4.25.82 2 2 0 0 0-.17-.82 2.19 2.19 0 0 1-2.08 1.37z"/><circle class="cls-3" cx="13.53" cy="31.37" r="2.2"/><circle class="cls-3" cx="34.47" cy="31.37" r="2.2"/><ellipse class="cls-6" cx="8.57" cy="25.59" rx="2.2" ry="1.93"/><ellipse class="cls-6" cx="39.43" cy="25.59" rx="2.2" ry="1.93"/><path class="cls-9" d="M8.57 25.59a2.27 2.27 0 0 1-1.9-1 1.75 1.75 0 0 0-.31 1 2.08 2.08 0 0 0 2.21 1.92 2.08 2.08 0 0 0 2.2-1.92 1.75 1.75 0 0 0-.31-1 2.27 2.27 0 0 1-1.89 1z"/><path class="cls-9" d="M39.43 25.59a2.27 2.27 0 0 1-1.89-1 1.75 1.75 0 0 0-.31 1 2.23 2.23 0 0 0 4.41 0 1.75 1.75 0 0 0-.31-1 2.27 2.27 0 0 1-1.9 1z"/><ellipse class="cls-3" cx="8.57" cy="25.59" rx="2.2" ry="1.93"/><ellipse class="cls-3" cx="39.43" cy="25.59" rx="2.2" ry="1.93"/><path class="cls-18" d="M24.01 5.31L22.37 1.4h3.26l-1.62 3.91z"/><path class="cls-18" d="M18.63 6.73l-3.18-2.81 2.94-1.41.24 4.22z"/><path class="cls-18" d="M15.04 10.07l-4.21-.52 1.63-2.82 2.58 3.34z"/><path class="cls-18" d="M29.37 6.73l3.18-2.81-2.94-1.41-.24 4.22z"/><path class="cls-18" d="M32.96 10.07l4.21-.52-1.62-2.82-2.59 3.34z"/></svg>