<svg xmlns="http://www.w3.org/2000/svg" viewBox="0 0 48 48"><defs><style>.cls-1{fill:#ff8a14}.cls-2{fill:#ffaa54}.cls-3{fill:none}.cls-13,.cls-3{stroke:#45413c;stroke-linecap:round;stroke-linejoin:round}.cls-13{fill:#45413c}.cls-7{fill:#ffe500}.cls-8{fill:#fff48c}.cls-9{fill:#656769}.cls-10{fill:#87898c}.cls-11{fill:#c0dceb}.cls-12{fill:#adc4d9}</style></defs><g><path class="cls-1" d="M28.5 10.5h-6l1-4.68A1.16 1.16 0 0 1 24.7 5h1.6a1.16 1.16 0 0 1 1.18.82z"/><path class="cls-2" d="M24.49 6.84h2a1.81 1.81 0 0 1 1.3.48l-.33-1.5A1.16 1.16 0 0 0 26.3 5h-1.6a1.16 1.16 0 0 0-1.18.82l-.33 1.5a1.81 1.81 0 0 1 1.3-.48z"/><path class="cls-3" d="M28.5 10.5h-6l1-4.68A1.16 1.16 0 0 1 24.7 5h1.6a1.16 1.16 0 0 1 1.18.82z"/><path d="M14 22.5l3.44-6.25a7.48 7.48 0 0 1 6.34-3.87l11-.31A3.15 3.15 0 0 1 38 14.63l1.5 7.87z" fill="#00b8f0"/><path d="M26.32 12.31L19.81 22.5h9.64l5.68-10.41h-.31z" fill="#4acfff"/><ellipse cx="24" cy="42.5" rx="21" ry="1.5" opacity=".15" fill="#45413c"/><path class="cls-7" d="M2.5 33h42a1 1 0 0 1 1 1v2a2 2 0 0 1-2 2h-40a2 2 0 0 1-2-2v-2a1 1 0 0 1 1-1z"/><path class="cls-8" d="M44.5 33h-42a1 1 0 0 0-1 1v2a1 1 0 0 1 1-1h42a1 1 0 0 1 1 1v-2a1 1 0 0 0-1-1z"/><path class="cls-3" d="M2.5 33h42a1 1 0 0 1 1 1v2a2 2 0 0 1-2 2h-40a2 2 0 0 1-2-2v-2a1 1 0 0 1 1-1z"/><path class="cls-7" d="M44.37 24.08l-.87-2a1.8 1.8 0 0 0-1.44-1.05l-1.38-7.65A4.62 4.62 0 0 0 36 9.59l-13 .29a9.39 9.39 0 0 0-8.07 4.93l-4 7.5a14.7 14.7 0 0 0-2.48.82l-2.27 1a6.09 6.09 0 0 0-3.6 4.79L2 33h43v-5.95a7.27 7.27 0 0 0-.63-2.97zm-9.55-12A3.15 3.15 0 0 1 38 14.63l1.09 5.66a.71.71 0 0 1-.68.85l-7.75.2.84-9.23zm-17.38 4.17a7.48 7.48 0 0 1 6.34-3.87l5.21-.2-.84 9.23-12.15.43a.93.93 0 0 1-.86-1.38z"/><g><path class="cls-8" d="M44.37 24.08l-.87-2a1.8 1.8 0 0 0-1.44-1.05l-1.38-7.65A4.62 4.62 0 0 0 36 9.59l-13 .29a9.39 9.39 0 0 0-8.07 4.93l-4 7.5a14.7 14.7 0 0 0-2.48.82l-2.27 1a6.09 6.09 0 0 0-3.6 4.79L2 33h.36l.19-1.39a6.08 6.08 0 0 1 3.6-4.78l2.27-1A14.7 14.7 0 0 1 10.9 25l4-7.5a9.4 9.4 0 0 1 7-4.83 7.46 7.46 0 0 1 1.89-.3l5.21-.2v.27h2.5v-.29h3.32a3.17 3.17 0 0 1 1.23.23 4.61 4.61 0 0 1 4.63 3.82l1.38 7.66a1.8 1.8 0 0 1 1.44 1l.87 2a7.2 7.2 0 0 1 .63 3v-2.81a7.27 7.27 0 0 0-.63-2.97z"/></g><path id="_Compound_Path_2" class="cls-3" d="M44.37 24.08l-.87-2a1.8 1.8 0 0 0-1.44-1.05l-1.38-7.65A4.62 4.62 0 0 0 36 9.59l-13 .29a9.39 9.39 0 0 0-8.07 4.93l-4 7.5a14.7 14.7 0 0 0-2.48.82l-2.27 1a6.09 6.09 0 0 0-3.6 4.79L2 33h43v-5.95a7.27 7.27 0 0 0-.63-2.97zm-9.55-12A3.15 3.15 0 0 1 38 14.63l1.09 5.66a.71.71 0 0 1-.68.85l-7.75.2.84-9.23zm-17.38 4.17a7.48 7.48 0 0 1 6.34-3.87l5.21-.2-.84 9.23-12.15.43a.93.93 0 0 1-.86-1.38z"/><circle class="cls-9" cx="11.5" cy="37.5" r="5"/><circle class="cls-9" cx="36.5" cy="37.5" r="5"/><path class="cls-10" d="M11.5 34.5a5 5 0 0 1 4.9 4 5.47 5.47 0 0 0 .1-1 5 5 0 0 0-10 0 5.47 5.47 0 0 0 .1 1 5 5 0 0 1 4.9-4z"/><path class="cls-10" d="M36.5 34.5a5 5 0 0 1 4.9 4 5.47 5.47 0 0 0 .1-1 5 5 0 0 0-10 0 5.47 5.47 0 0 0 .1 1 5 5 0 0 1 4.9-4z"/><circle class="cls-3" cx="11.5" cy="37.5" r="5"/><circle class="cls-3" cx="36.5" cy="37.5" r="5"/><circle class="cls-11" cx="11.5" cy="37.5" r="2"/><circle class="cls-11" cx="36.5" cy="37.5" r="2"/><path class="cls-12" d="M11.5 37a2 2 0 0 1 1.85 1.25 1.86 1.86 0 0 0 .15-.75 2 2 0 0 0-4 0 1.86 1.86 0 0 0 .15.75A2 2 0 0 1 11.5 37z"/><path class="cls-12" d="M36.5 37a2 2 0 0 1 1.85 1.25 1.86 1.86 0 0 0 .15-.75 2 2 0 0 0-4 0 1.86 1.86 0 0 0 .15.75A2 2 0 0 1 36.5 37z"/><circle class="cls-3" cx="11.5" cy="37.5" r="2"/><circle class="cls-3" cx="36.5" cy="37.5" r="2"/><path class="cls-7" d="M16.56 24.75c-1.65 0-3-.56-3-2s1.35-2 3-2z"/><path class="cls-8" d="M13.56 22.75a1.75 1.75 0 0 0 .15.7c.37-.92 1.5-1.31 2.85-1.31v-1.39c-1.65 0-3 .56-3 2z"/><path class="cls-3" d="M16.56 24.75c-1.65 0-3-.56-3-2s1.35-2 3-2z"/><path class="cls-1" d="M4.63 27.45c-.49 1-.38 2.05.24 2.35s1.52-.26 2-1.25.38-2.05-.24-2.35-1.52.26-2 1.25z"/><path class="cls-2" d="M4.63 28.93c.48-1 1.38-1.55 2-1.25a.89.89 0 0 1 .41.46c.27-.86.12-1.68-.41-1.94s-1.52.26-2 1.25a2.35 2.35 0 0 0-.17 1.89c.05-.13.1-.27.17-.41z"/><path class="cls-3" d="M4.63 27.45c-.49 1-.38 2.05.24 2.35s1.52-.26 2-1.25.38-2.05-.24-2.35-1.52.26-2 1.25z"/><path class="cls-1" d="M44 27h1a7.33 7.33 0 0 0-.63-2.92L43.89 23H42.5a.7.7 0 0 0-.65.94l.81 2.15A1.39 1.39 0 0 0 44 27z"/><path class="cls-2" d="M43 24.27h1.46a1.46 1.46 0 0 0-.07-.19l-.5-1.08H42.5a.7.7 0 0 0-.65.94l.29.77a.93.93 0 0 1 .86-.44z"/><path class="cls-3" d="M44 27h1a7.33 7.33 0 0 0-.63-2.92L43.89 23H42.5a.7.7 0 0 0-.65.94l.81 2.15A1.39 1.39 0 0 0 44 27z"/><path class="cls-13" d="M14 25.5h2v2h-2z"/><path class="cls-13" d="M19 25.5h2v2h-2z"/><path class="cls-13" d="M24 25.5h2v2h-2z"/><path class="cls-13" d="M29 25.5h2v2h-2z"/><path class="cls-13" d="M34 25.5h2v2h-2z"/><path class="cls-13" d="M16.5 28h2v2h-2z"/><path class="cls-13" d="M21.5 28h2v2h-2z"/><path class="cls-13" d="M26.5 28h2v2h-2z"/><path class="cls-13" d="M31.5 28h2v2h-2z"/><path class="cls-13" d="M36.5 28h2v2h-2z"/></g></svg>