<svg xmlns="http://www.w3.org/2000/svg" viewBox="0 0 48 48"><defs><style>.cls-2{fill:#656769}.cls-3{fill:#87898c}.cls-4{fill:none;stroke:#45413c;stroke-linecap:round;stroke-linejoin:round}.cls-5{fill:#e8f4fa}.cls-6{fill:#c0dceb}.cls-9{fill:#debb7e}.cls-10{fill:#f0d5a8}</style></defs><g><ellipse cx="24.13" cy="42.23" rx="21.24" ry="1.77" fill="#45413c" opacity=".15"/><path class="cls-2" d="M18.5 33.75a8.25 8.25 0 1 1-8.25-8.25 8.25 8.25 0 0 1 8.25 8.25z"/><path class="cls-3" d="M10.25 27.86a8.26 8.26 0 0 1 8.16 7.07 9.23 9.23 0 0 0 .09-1.18 8.25 8.25 0 0 0-16.5 0 9.23 9.23 0 0 0 .09 1.18 8.26 8.26 0 0 1 8.16-7.07z"/><path class="cls-4" d="M18.5 33.75a8.25 8.25 0 1 1-8.25-8.25 8.25 8.25 0 0 1 8.25 8.25z"/><path class="cls-2" d="M46.25 33.75A8.25 8.25 0 1 1 38 25.5a8.25 8.25 0 0 1 8.25 8.25z"/><path class="cls-3" d="M38 27.86a8.26 8.26 0 0 1 8.16 7.07 9.23 9.23 0 0 0 .09-1.18 8.25 8.25 0 0 0-16.5 0 9.23 9.23 0 0 0 .09 1.18A8.26 8.26 0 0 1 38 27.86z"/><path class="cls-4" d="M46.25 33.75A8.25 8.25 0 1 1 38 25.5a8.25 8.25 0 0 1 8.25 8.25z"/><path class="cls-5" d="M43.3 33.7a5.3 5.3 0 1 1-5.3-5.3 5.3 5.3 0 0 1 5.3 5.3z"/><path class="cls-6" d="M38 30.75a5.31 5.31 0 0 1 5.16 4.13 5.08 5.08 0 0 0 .14-1.18 5.3 5.3 0 1 0-10.6 0 5.08 5.08 0 0 0 .14 1.18A5.31 5.31 0 0 1 38 30.75z"/><path class="cls-4" d="M43.3 33.7a5.3 5.3 0 1 1-5.3-5.3 5.3 5.3 0 0 1 5.3 5.3z"/><path class="cls-4" d="M32.7 33.75h10.6"/><path class="cls-4" d="M35.37 38.3l5.3-9.18"/><path class="cls-4" d="M40.63 38.3l-5.3-9.18"/><path class="cls-5" d="M15.57 33.75a5.3 5.3 0 1 1-5.3-5.3 5.3 5.3 0 0 1 5.3 5.3z"/><path class="cls-6" d="M10.27 30.75a5.31 5.31 0 0 1 5.17 4.15 5.4 5.4 0 0 0 .13-1.15 5.3 5.3 0 0 0-10.6 0 5.4 5.4 0 0 0 .13 1.15 5.31 5.31 0 0 1 5.17-4.15z"/><path class="cls-4" d="M15.57 33.75a5.3 5.3 0 1 1-5.3-5.3 5.3 5.3 0 0 1 5.3 5.3z"/><path class="cls-4" d="M4.97 33.75h10.6"/><path class="cls-4" d="M7.62 38.34l5.3-9.18"/><path class="cls-4" d="M12.92 38.34l-5.3-9.18"/><path d="M30.82 16.93v2.14H16.33c0-.29.06-.57.07-.86l.28-4.64a1.18 1.18 0 0 0-1.18-1.25H8.75a1.18 1.18 0 0 0 0 2.36h4.86a.6.6 0 0 1 .6.63l-.16 2.77a32 32 0 0 1-4.81 15.06 1.18 1.18 0 1 0 2 1.22 34.74 34.74 0 0 0 4.33-10.5.58.58 0 0 1 1-.24l8.45 10.85a1.22 1.22 0 0 0 .93.46H38a1.18 1.18 0 0 0 1.08-1.66L33.18 20v-3.07zm-1 5.33l-4.1 9.21-7.07-9.09a.59.59 0 0 1 .47-.95h10.16a.59.59 0 0 1 .54.83zm-2 10.31L32 23.16l4.18 9.41z" fill="#6dd627" stroke-linecap="round" stroke-linejoin="round" stroke="#45413c"/><path d="M29 33.7a3 3 0 1 1-3-3 3 3 0 0 1 3 3z" fill="#daedf7"/><path class="cls-5" d="M26 32.57a3 3 0 0 1 2.84 2.07 3.25 3.25 0 0 0 .16-.94 3 3 0 1 0-6 0 3.25 3.25 0 0 0 .16.94A3 3 0 0 1 26 32.57z"/><circle class="cls-4" cx="26" cy="33.7" r="3"/><path class="cls-9" d="M26.69 16.93h9.44c2.14 0 2.26-4.13 0-4.13s-5.41 1.33-7.67 1.2c-4.15-.29-3.17 2.93-1.77 2.93z"/><g><path class="cls-10" d="M28.46 15.38c2.26.07 5.41-.63 7.67-.63a1.59 1.59 0 0 1 1.57.73c.28-1.19-.21-2.68-1.57-2.68-2.26 0-5.41 1.33-7.67 1.18-2.64-.17-3.2 1.06-2.91 2 .24-.37 1.06-.67 2.91-.6z"/><path class="cls-10" d="M36.13 16.93a1.6 1.6 0 0 0 .39-.05 2.3 2.3 0 0 1-.39.05z"/></g><path d="M26.69 16.93h9.44c2.14 0 2.26-4.13 0-4.13s-5.41 1.33-7.67 1.2c-4.15-.29-3.17 2.93-1.77 2.93z" stroke-miterlimit="10" stroke="#45413c" fill="none"/><path class="cls-9" d="M9.68 11.92H7.54A4.93 4.93 0 0 0 4.92 21l.83.52a1.55 1.55 0 1 0 1.62-2.65l-.91-.54a1.89 1.89 0 0 1 1-3.5h2.22a1.18 1.18 0 0 0 1.18-1.18v-.55a1.18 1.18 0 0 0-1.18-1.18z"/><g><path class="cls-10" d="M9.68 11.92H7.54a4.94 4.94 0 0 0-4.94 4.94 5.24 5.24 0 0 0 .08.88 4.94 4.94 0 0 1 4.86-4h2.14a1.17 1.17 0 0 1 1 .59 1.16 1.16 0 0 0 .16-.59v-.64a1.18 1.18 0 0 0-1.16-1.18z"/></g><path class="cls-4" d="M9.68 11.92H7.54A4.93 4.93 0 0 0 4.92 21l.83.52a1.55 1.55 0 1 0 1.62-2.65l-.91-.54a1.89 1.89 0 0 1 1-3.5h2.22a1.18 1.18 0 0 0 1.18-1.18v-.55a1.18 1.18 0 0 0-1.18-1.18z"/></g></svg>