<svg xmlns="http://www.w3.org/2000/svg" viewBox="0 0 48 48"><defs><style>.cls-1{fill:#ff6242}.cls-3{fill:none}.cls-10,.cls-3{stroke:#45413c;stroke-linecap:round;stroke-linejoin:round}.cls-10{fill:#ffe500}</style></defs><g><path class="cls-1" d="M12.86 38.1l1.9-16.33a2.6 2.6 0 0 1 2.58-2.3h13.45a2.6 2.6 0 0 1 2.58 2.3l1.9 16.33z"/><path class="cls-1" d="M12.86 38.1l1.9-16.33a2.6 2.6 0 0 1 2.58-2.3h13.45a2.6 2.6 0 0 1 2.58 2.3l1.9 16.33z"/><path d="M16.9 22.87h14.33a2.8 2.8 0 0 1 2.43 1.36l-.29-2.46a2.6 2.6 0 0 0-2.58-2.3H17.34a2.6 2.6 0 0 0-2.58 2.3l-.29 2.46a2.79 2.79 0 0 1 2.43-1.36z" fill="#ff866e"/><path class="cls-3" d="M12.86 38.1l1.9-16.33a2.6 2.6 0 0 1 2.58-2.3h13.45a2.6 2.6 0 0 1 2.58 2.3l1.9 16.33z"/><rect x="11.37" y="38.1" width="25.13" height="3.9" rx=".87" ry=".87" fill="#c0dceb"/><path d="M35.64 38.1h-23.4a.87.87 0 0 0-.87.87v2a.87.87 0 0 1 .87-.87h23.4a.86.86 0 0 1 .86.87V39a.86.86 0 0 0-.86-.9z" fill="#daedf7"/><rect class="cls-3" x="11.37" y="38.1" width="25.13" height="3.9" rx=".87" ry=".87"/><path fill="#87898c" d="M22.27 33.33h3.47v4.77h-3.47z"/><path fill="#656769" d="M22.27 33.33h3.47v1.61h-3.47z"/><path class="cls-3" d="M22.27 33.33h3.47v4.77h-3.47z"/><path d="M24 26.4a3 3 0 0 0-3 3v3a.86.86 0 0 0 .86.86h4.34a.86.86 0 0 0 .86-.86v-3a3 3 0 0 0-3.06-3z" fill="#ffe500"/><path d="M24 26.4a3 3 0 0 0-3 3v1.95a3 3 0 1 1 6.06 0v-1.91A3 3 0 0 0 24 26.4z" fill="#fff48c"/><path class="cls-3" d="M24 26.4a3 3 0 0 0-3 3v3a.86.86 0 0 0 .86.86h4.34a.86.86 0 0 0 .86-.86v-3a3 3 0 0 0-3.06-3z"/><path class="cls-10" d="M36.34 9.12a.51.51 0 0 0-.45-.12.54.54 0 0 0-.38.28l-3.29 6.27a.52.52 0 0 0 .11.64.53.53 0 0 0 .65 0l5.78-3.93a.51.51 0 0 0 .23-.4.53.53 0 0 0-.16-.43z"/><path class="cls-10" d="M22.22 5.4a.58.58 0 0 0-.45.2.51.51 0 0 0-.1.46l1.91 6.85a.55.55 0 0 0 .54.4.56.56 0 0 0 .54-.41l1.67-6.81a.5.5 0 0 0-.1-.44.55.55 0 0 0-.43-.21z"/><path class="cls-10" d="M46.42 22.94a.53.53 0 0 1-.42.73l-7 .9a.53.53 0 0 1-.37-1l5.71-4a.52.52 0 0 1 .45-.08.53.53 0 0 1 .34.31z"/><path class="cls-10" d="M46.17 35.44a.5.5 0 0 1-.3.35.49.49 0 0 1-.47 0l-6.14-3.54a.53.53 0 0 1 .28-1l7 .23a.55.55 0 0 1 .41.21.56.56 0 0 1 .09.45z"/><path class="cls-10" d="M11.66 9.12a.51.51 0 0 1 .45-.12.54.54 0 0 1 .38.28l3.29 6.27a.52.52 0 0 1-.11.64.53.53 0 0 1-.65 0l-5.78-3.91a.51.51 0 0 1-.23-.4.53.53 0 0 1 .16-.43z"/><path class="cls-10" d="M1.58 22.94a.49.49 0 0 0 0 .47.49.49 0 0 0 .39.26l7 .9a.53.53 0 0 0 .37-1l-5.71-4a.52.52 0 0 0-.45-.08.53.53 0 0 0-.34.31z"/><path class="cls-10" d="M1.83 35.44a.5.5 0 0 0 .3.35.49.49 0 0 0 .47 0l6.14-3.54a.53.53 0 0 0-.28-1l-7 .23a.55.55 0 0 0-.41.21.56.56 0 0 0-.09.45z"/><ellipse cx="24" cy="42.5" rx="14" ry="1.5" fill="#45413c" opacity=".15"/></g></svg>