<svg xmlns="http://www.w3.org/2000/svg" viewBox="0 0 48 48"><defs><style>.cls-4{fill:none;stroke:#45413c;stroke-linecap:round;stroke-linejoin:round}.cls-5{fill:#daedf7}.cls-6{fill:#c0dceb}.cls-7{fill:#656769}.cls-8{fill:#87898c}</style></defs><ellipse cx="24" cy="42.98" rx="21.58" ry="2.02" fill="#45413c" opacity=".15"/><rect x="2.25" y="7.93" width="43.5" height="17.53" rx="1.35" ry="1.35" fill="#ffe500"/><path d="M44.4 7.93H3.6a1.34 1.34 0 0 0-1.35 1.35v3.46a1.34 1.34 0 0 1 1.35-1.35h40.8a1.34 1.34 0 0 1 1.35 1.35V9.28a1.34 1.34 0 0 0-1.35-1.35z" fill="#fff48c"/><rect class="cls-4" x="2.25" y="7.93" width="43.5" height="17.53" rx="1.35" ry="1.35"/><path class="cls-5" d="M6.72 25.47h5.4v16.18A1.35 1.35 0 0 1 10.76 43H8.07a1.35 1.35 0 0 1-1.35-1.35V25.47z"/><path class="cls-5" d="M35.89 25.47h5.4v16.18A1.35 1.35 0 0 1 39.93 43h-2.7a1.35 1.35 0 0 1-1.35-1.35V25.47h.01z"/><path class="cls-6" d="M6.72 25.47h5.4v3.26h-5.4z"/><path class="cls-6" d="M35.89 25.47h5.4v3.26h-5.4z"/><path class="cls-4" d="M6.72 25.47h5.4v16.18A1.35 1.35 0 0 1 10.76 43H8.07a1.35 1.35 0 0 1-1.35-1.35V25.47z"/><path class="cls-4" d="M35.89 25.47h5.4v16.18A1.35 1.35 0 0 1 39.93 43h-2.7a1.35 1.35 0 0 1-1.35-1.35V25.47h.01z"/><path class="cls-7" d="M8.84 7.93L3.2 25.41a1.76 1.76 0 0 0 .4.06h5.57l5.65-17.54z"/><path class="cls-7" d="M26.96 7.93h-5.98l-5.66 17.53h5.99l5.65-17.53z"/><path class="cls-7" d="M39.1 7.93h-5.98l-5.66 17.53h5.99L39.1 7.93z"/><path class="cls-7" d="M45.18 8.18L39.6 25.47h4.8a1.35 1.35 0 0 0 1.35-1.35V9.28a1.34 1.34 0 0 0-.57-1.1z"/><path class="cls-8" d="M13.71 11.38l1.11-3.45H8.84l-1.12 3.45h5.99zM25.85 11.38l1.11-3.45h-5.98l-1.12 3.45h5.99zM37.99 11.38l1.11-3.45h-5.98L32 11.38h5.99zM45.18 8.18l-1 3.2h.26a1.35 1.35 0 0 1 1.35 1.35V9.28a1.34 1.34 0 0 0-.61-1.1z"/><path class="cls-4" d="M8.84 7.93L3.2 25.41a1.76 1.76 0 0 0 .4.06h5.57l5.65-17.54z"/><path class="cls-4" d="M26.96 7.93h-5.98l-5.66 17.53h5.99l5.65-17.53z"/><path class="cls-4" d="M39.1 7.93h-5.98l-5.66 17.53h5.99L39.1 7.93z"/><path class="cls-4" d="M45.18 8.18L39.6 25.47h4.8a1.35 1.35 0 0 0 1.35-1.35V9.28a1.34 1.34 0 0 0-.57-1.1z"/></svg>