<svg xmlns="http://www.w3.org/2000/svg" viewBox="0 0 48 48"><defs><style>.cls-2{fill:#ff6242}.cls-3{fill:#ff866e}.cls-4{fill:none}.cls-4,.cls-6,.cls-9{stroke:#45413c;stroke-linecap:round;stroke-linejoin:round}.cls-6{fill:#daedf7}.cls-7{fill:#00b8f0}.cls-8{fill:#4acfff}.cls-9{fill:#fff}</style></defs><g><ellipse cx="19.78" cy="44.21" rx="15.49" ry="1.79" fill="#45413c" opacity=".15"/><path class="cls-2" d="M41.19 19.66l-25.3 3.8V15l25.3 1.16v3.5z"/><path class="cls-3" d="M15.89 15v2.14l25.3 1.16v-2.14L15.89 15z"/><path class="cls-4" d="M41.19 19.66l-25.3 3.8V15l25.3 1.16v3.5z"/><path d="M17.08 12.67h7.32a1.19 1.19 0 0 1 1.19 1.19v4.2h-9.7v-4.2a1.19 1.19 0 0 1 1.19-1.19z" stroke="#45413c" stroke-linecap="round" stroke-linejoin="round" fill="#ff866e"/><path class="cls-2" d="M31.57 23.77c0 7.45-7.51 14.32-14.32 14.32A11.16 11.16 0 0 1 5.72 26.74c0-6.27 5.53-11.35 12.34-11.35 7.94 0 13.51 3.14 13.51 8.38z"/><path class="cls-3" d="M18.06 18.07c7.3 0 12.62 2.67 13.41 7.19a12.29 12.29 0 0 0 .1-1.49c0-5.24-5.59-8.38-13.51-8.38-6.81 0-12.34 5.08-12.34 11.35a12.81 12.81 0 0 0 .08 1.39c.7-5.66 5.92-10.06 12.26-10.06z"/><path class="cls-4" d="M31.57 23.77c0 7.45-7.51 14.32-14.32 14.32A11.16 11.16 0 0 1 5.72 26.74c0-6.27 5.53-11.35 12.34-11.35 7.94 0 13.51 3.14 13.51 8.38z"/><path class="cls-6" d="M46 18.07a4.81 4.81 0 1 1-4.81-4.82A4.81 4.81 0 0 1 46 18.07z"/><path class="cls-6" d="M19.46 9.57h2.25v3.1h-2.25z"/><path class="cls-4" d="M2.7 9.57h35.77"/><path class="cls-6" d="M19.38 7.86h2.41a.93.93 0 0 1 .93.93v.78h-4.27v-.78a.93.93 0 0 1 .93-.93z"/><path class="cls-4" d="M12.22 37.04l-3.7 6.46"/><path class="cls-4" d="M24.03 36l1.56 7.5"/><path class="cls-4" d="M31.16 43.5H5.32C2.06 43.5 2 41.17 2 41.17"/><path class="cls-7" d="M15.8 15.58c-5.74 1-10.08 5.6-10.08 11.16a11.9 11.9 0 0 0 .51 3.45h12.22a19.73 19.73 0 0 0 .2-7.14c-.55-2.75-1.49-7.05-2.85-7.47z"/><path class="cls-8" d="M14.32 30.19l4.16-8C17.91 19.52 17 16 15.8 15.58c-.31.05-.61.12-.91.19L7.28 30.19z"/><path class="cls-4" d="M15.8 15.58c-5.74 1-10.08 5.6-10.08 11.16a11.9 11.9 0 0 0 .51 3.45h12.22a19.73 19.73 0 0 0 .2-7.14c-.55-2.75-1.49-7.05-2.85-7.47z"/><path class="cls-7" d="M20.43 18.72a18.49 18.49 0 0 1 1.28 5.44 26.61 26.61 0 0 1-.38 6h3.48s1.21-1.64.78-5.73a6.36 6.36 0 0 0-5.16-5.71z"/><path class="cls-8" d="M25.59 24.46a6.69 6.69 0 0 0-1.09-3.12l-2.83 6.18a25.59 25.59 0 0 1-.34 2.67h3.48s1.19-1.64.78-5.73z"/><path class="cls-4" d="M20.43 18.72a18.49 18.49 0 0 1 1.28 5.44 26.61 26.61 0 0 1-.38 6h3.48s1.21-1.64.78-5.73a6.36 6.36 0 0 0-5.16-5.71z"/><g><path class="cls-9" d="M37.79 21.47l3.4-3.4-3.4-3.41a4.82 4.82 0 0 0 0 6.81z"/><path class="cls-9" d="M44.59 14.66l-3.4 3.41 3.4 3.4a4.82 4.82 0 0 0 0-6.81z"/></g></g></svg>