<svg xmlns="http://www.w3.org/2000/svg" viewBox="0 0 48 48"><defs><style>.cls-2,.cls-5{fill:#fff}.cls-3{fill:#e0e0e0}.cls-4{fill:none}.cls-4,.cls-5{stroke:#45413c;stroke-linecap:round;stroke-linejoin:round}</style></defs><g><ellipse cx="24" cy="45.34" rx="16.02" ry="1.66" fill="#45413c" opacity=".15"/><path class="cls-2" d="M34.07 44.5H18.62a1 1 0 0 1-1-1.1V26.55h20.44a17 17 0 0 0-3 9.69v7.16a1.05 1.05 0 0 1-.99 1.1z"/><path class="cls-3" d="M17.63 40.08a14.45 14.45 0 0 0 2.57.23 13.41 13.41 0 0 0 12-7.9 2.17 2.17 0 0 1 2-1.37h1.72a16.42 16.42 0 0 1 2.19-4.49H17.63z"/><path class="cls-4" d="M34.07 44.5H18.62a1 1 0 0 1-1-1.1V26.55h20.44a17 17 0 0 0-3 9.69v7.16a1.05 1.05 0 0 1-.99 1.1z"/><path class="cls-2" d="M28.85 26.55v18H13.51a1.1 1.1 0 0 1-.75-1.91 13.84 13.84 0 0 0 3.88-5.68 35.14 35.14 0 0 0 1.65-10.36z"/><path class="cls-3" d="M16.64 36.91a12.67 12.67 0 0 1-1.36 2.76 33.55 33.55 0 0 0 5.65.47 18.77 18.77 0 0 0 7.92-1.73V26.55H18.29a35.14 35.14 0 0 1-1.65 10.36z"/><path class="cls-4" d="M28.85 26.55v18H13.51a1.1 1.1 0 0 1-.75-1.91 13.84 13.84 0 0 0 3.88-5.68 35.14 35.14 0 0 0 1.65-10.36z"/><path class="cls-2" d="M29.87 7.22h10.58v18.23a1.1 1.1 0 0 1-1.1 1.1H31a1.1 1.1 0 0 1-1.1-1.1V7.22h-.03z"/><path class="cls-3" d="M29.87 7.22h10.59v3.24H29.87z"/><path class="cls-4" d="M29.87 7.22h10.58v18.23a1.1 1.1 0 0 1-1.1 1.1H31a1.1 1.1 0 0 1-1.1-1.1V7.22h-.03z"/><rect class="cls-5" x="28.95" y="4.46" width="12.43" height="2.76" rx="1.1" ry="1.1"/><path class="cls-2" d="M31.25 26.55c0 5.72-4.95 10.36-11 10.36-8.4 0-13.37-4.64-13.37-10.36z"/><path class="cls-3" d="M7.28 29.42h23.54a9.73 9.73 0 0 0 .43-2.87H6.83a9.42 9.42 0 0 0 .45 2.87z"/><path class="cls-4" d="M31.25 26.55c0 5.72-4.95 10.36-11 10.36-8.4 0-13.37-4.64-13.37-10.36z"/><path class="cls-5" d="M7.21 23.79a1.39 1.39 0 1 0 0 2.76h22.66v-2.76z"/><path class="cls-5" d="M28.95 9.84h.92v3.87h-.92a1.1 1.1 0 0 1-1.1-1.1v-1.66a1.1 1.1 0 0 1 1.1-1.11z"/></g></svg>