<svg xmlns="http://www.w3.org/2000/svg" viewBox="0 0 48 48"><defs><style>.cls-4{fill:none;stroke:#45413c;stroke-linecap:round;stroke-linejoin:round}.cls-5{fill:#debb7e}.cls-6{fill:#f0d5a8}</style></defs><g><ellipse cx="24" cy="45.19" rx="15.09" ry="1.81" fill="#45413c" opacity=".15"/><path d="M34.86 8.28H13.14l.35 5.72a7.26 7.26 0 0 0 3.68 5.86l1.84 1a2.83 2.83 0 0 1 0 4.93l-1.84 1a7.26 7.26 0 0 0-3.68 5.86l-.35 5.72h21.72l-.35-5.72a7.26 7.26 0 0 0-3.68-5.86l-1.84-1a2.83 2.83 0 0 1 0-4.93l1.84-1A7.26 7.26 0 0 0 34.51 14z" fill="#80ddff"/><path d="M30.83 26.84L29 25.8a2.83 2.83 0 0 1 0-4.93l1.84-1A7.26 7.26 0 0 0 34.51 14l.35-5.73h-7.54l-9.15 30.19h9.34L31 26.94z" fill="#b8ecff"/><path class="cls-4" d="M34.86 8.28H13.14l.35 5.72a7.26 7.26 0 0 0 3.68 5.86l1.84 1a2.83 2.83 0 0 1 0 4.93l-1.84 1a7.26 7.26 0 0 0-3.68 5.86l-.35 5.72h21.72l-.35-5.72a7.26 7.26 0 0 0-3.68-5.86l-1.84-1a2.83 2.83 0 0 1 0-4.93l1.84-1A7.26 7.26 0 0 0 34.51 14z"/><rect class="cls-5" x="11.32" y="2.25" width="25.35" height="6.04" rx="1.21" ry="1.21"/><path class="cls-6" d="M35.47 2.25H12.53a1.21 1.21 0 0 0-1.21 1.2V6a1.21 1.21 0 0 1 1.21-1.21h22.94A1.21 1.21 0 0 1 36.68 6V3.45a1.21 1.21 0 0 0-1.21-1.2z"/><rect class="cls-4" x="11.32" y="2.25" width="25.35" height="6.04" rx="1.21" ry="1.21"/><rect class="cls-5" x="11.32" y="38.46" width="25.35" height="6.04" rx="1.21" ry="1.21"/><path class="cls-6" d="M35.47 38.46H12.53a1.21 1.21 0 0 0-1.21 1.21v2.57A1.21 1.21 0 0 1 12.53 41h22.94a1.21 1.21 0 0 1 1.21 1.21v-2.54a1.21 1.21 0 0 0-1.21-1.21z"/><rect class="cls-4" x="11.32" y="38.46" width="25.35" height="6.04" rx="1.21" ry="1.21"/><path d="M34.44 32.13c-1-1-4-3.06-10.44-3.06s-9.52 2.38-10.49 3.41a2.28 2.28 0 0 1 0 .26l-.35 5.72h21.7l-.35-5.72c-.02-.21-.04-.41-.07-.61z" fill="#f7e5c6"/><path d="M21 29.26l-2.78 9.2h9.34l2.61-8.61a21.92 21.92 0 0 0-6.17-.78 23.4 23.4 0 0 0-3 .19z" fill="#fff5e3"/><path class="cls-4" d="M34.44 32.13c-1-1-4-3.06-10.44-3.06s-9.52 2.38-10.49 3.41a2.28 2.28 0 0 1 0 .26l-.35 5.72h21.7l-.35-5.72c-.02-.21-.04-.41-.07-.61z"/></g></svg>