<svg xmlns="http://www.w3.org/2000/svg" viewBox="0 0 48 48"><defs><style>.cls-2{fill:#debb7e}.cls-3{fill:#f0d5a8}.cls-4{fill:none;stroke:#45413c;stroke-linecap:round;stroke-linejoin:round}</style></defs><g><ellipse cx="24" cy="45.19" rx="15.09" ry="1.81" fill="#45413c" opacity=".15"/><rect class="cls-2" x="11.32" y="2.25" width="25.35" height="6.04" rx="1.21" ry="1.21"/><path class="cls-3" d="M35.47 2.25H12.53a1.21 1.21 0 0 0-1.21 1.2V6a1.21 1.21 0 0 1 1.21-1.21h22.94A1.21 1.21 0 0 1 36.68 6V3.45a1.21 1.21 0 0 0-1.21-1.2z"/><rect class="cls-4" x="11.32" y="2.25" width="25.35" height="6.04" rx="1.21" ry="1.21"/><rect class="cls-2" x="11.32" y="38.46" width="25.35" height="6.04" rx="1.21" ry="1.21"/><path class="cls-3" d="M35.47 38.46H12.53a1.21 1.21 0 0 0-1.21 1.21v2.57A1.21 1.21 0 0 1 12.53 41h22.94a1.21 1.21 0 0 1 1.21 1.21v-2.54a1.21 1.21 0 0 0-1.21-1.21z"/><rect class="cls-4" x="11.32" y="38.46" width="25.35" height="6.04" rx="1.21" ry="1.21"/><path d="M34.86 8.28H13.14l.35 5.72a7.26 7.26 0 0 0 3.68 5.86l1.84 1a2.83 2.83 0 0 1 0 4.93l-1.84 1a7.26 7.26 0 0 0-3.68 5.86l-.35 5.72h21.72l-.35-5.72a7.26 7.26 0 0 0-3.68-5.86l-1.84-1a2.83 2.83 0 0 1 0-4.93l1.84-1A7.26 7.26 0 0 0 34.51 14z" fill="#80ddff"/><path d="M29 25.84a2.83 2.83 0 0 1 0-4.93l1.84-1a7.51 7.51 0 0 0 1.05-.72l2.9-9.57.08-1.3h-9l-9.2 30.14H26l3.71-12.2z" fill="#b8ecff"/><path class="cls-4" d="M34.86 8.28H13.14l.35 5.72a7.26 7.26 0 0 0 3.68 5.86l1.84 1a2.83 2.83 0 0 1 0 4.93l-1.84 1a7.26 7.26 0 0 0-3.68 5.86l-.35 5.72h21.72l-.35-5.72a7.26 7.26 0 0 0-3.68-5.86l-1.84-1a2.83 2.83 0 0 1 0-4.93l1.84-1A7.26 7.26 0 0 0 34.51 14z"/><path class="cls-4" d="M24 22.32v16.14"/><path d="M13.49 14a7.26 7.26 0 0 0 3.68 5.86l2.2 1.24a9.46 9.46 0 0 0 9.26 0l2.2-1.24A7.26 7.26 0 0 0 34.51 14z" fill="#f7e5c6"/><path d="M24.08 14l-2.43 8a9.23 9.23 0 0 0 2.35.3 9.49 9.49 0 0 0 4.63-1.21l2.2-1.24a7.51 7.51 0 0 0 1.05-.72L33.44 14z" fill="#fff5e3"/><path class="cls-4" d="M13.49 14a7.26 7.26 0 0 0 3.68 5.86l2.2 1.24a9.46 9.46 0 0 0 9.26 0l2.2-1.24A7.26 7.26 0 0 0 34.51 14z"/></g></svg>