<svg xmlns="http://www.w3.org/2000/svg" viewBox="0 0 48 48"><defs><style>.cls-3{fill:#fff48c}.cls-4{fill:none;stroke-linecap:round;stroke-linejoin:round;stroke:#45413c}</style></defs><ellipse cx="24" cy="46.5" rx="11.5" ry="1.5" opacity=".15" fill="#45413c"/><path d="M40.75 29A22 22 0 0 0 20.17 1.5a1 1 0 0 0-.76 1.71A21 21 0 0 1 25.2 21c-.88 3.59-6.15 2.66-8 4.41s4.22 5.09 4.22 5.09a23.3 23.3 0 0 1-14.09 9.32A1 1 0 0 0 7 41.63 22 22 0 0 0 40.75 29z" fill="#ffe500"/><path class="cls-3" d="M18.1 28.18c2.34-.73 5.72-.77 6.41-3.58a20.77 20.77 0 0 0 .23-2.6c-1.58 2.36-5.9 1.81-7.57 3.36-.83.78-.12 1.85.93 2.82z"/><path class="cls-3" d="M28.21 3.31a22.15 22.15 0 0 0-8-1.81 1 1 0 0 0-.76 1.71 22.1 22.1 0 0 1 1.72 2 21.93 21.93 0 0 1 19.49 24.2c0-.15.09-.29.13-.44A22.09 22.09 0 0 0 28.21 3.31z"/><path class="cls-4" d="M21.39 30.47c1.91 1.06 3.36 1.36 3.84-.42"/><path d="M31.35 24.38a1.08 1.08 0 0 1-1.37.69 1.07 1.07 0 0 1-.69-1.36 1.08 1.08 0 1 1 2.06.67z" stroke-miterlimit="10" stroke="#45413c" fill="#45413c"/><path d="M33.38 34.59a1.31 1.31 0 1 1-.84-1.66 1.31 1.31 0 0 1 .84 1.66z" fill="#fffacf"/><path class="cls-4" d="M26.91 34.48a2.51 2.51 0 0 0-.72 2.2 2.31 2.31 0 0 0 1.87 1.73"/><path class="cls-3" d="M19.49 32.81a23 23 0 0 1-12.16 7A1 1 0 0 0 7 41.63a21.34 21.34 0 0 0 2 1.22c3.92-1.62 7.37-4.79 9.5-6.62 1.58-1.37 1.4-2.63.99-3.42z"/><path class="cls-4" d="M40.75 29A22 22 0 0 0 20.17 1.5a1 1 0 0 0-.76 1.71A21 21 0 0 1 25.2 21c-.88 3.59-6.15 2.66-8 4.41s4.22 5.09 4.22 5.09a23.36 23.36 0 0 1-14.08 9.32A1 1 0 0 0 7 41.63 22 22 0 0 0 40.75 29z"/><path class="cls-4" d="M17.86 34.42a9 9 0 0 0 8.33 2.26"/></svg>