<svg xmlns="http://www.w3.org/2000/svg" viewBox="0 0 48 48"><defs><style>.cls-5{fill:#45413c}.cls-3{fill:#ebcb00}.cls-6{fill:none}.cls-5,.cls-6{stroke:#45413c;stroke-linecap:round}.cls-5{stroke-linejoin:round}.cls-6{stroke-miterlimit:10}</style></defs><ellipse cx="24" cy="46.5" rx="14.5" ry="1.5" opacity=".15" fill="#45413c"/><circle cx="24" cy="24" r="20" fill="#ffe500"/><path class="cls-3" d="M24 4a20 20 0 1 0 20 20A20 20 0 0 0 24 4zm0 37a18.25 18.25 0 1 1 18.25-18.25A18.25 18.25 0 0 1 24 41z"/><circle cx="24" cy="24" r="20" stroke-linejoin="round" stroke="#45413c" stroke-linecap="round" fill="none"/><path class="cls-5" d="M15 24a1 1 0 1 1-1-1 1 1 0 0 1 1 1z"/><path class="cls-5" d="M33 24a1 1 0 1 0 1-1 1 1 0 0 0-1 1z"/><path class="cls-3" d="M38.5 30.75c0 .83-1.12 1.5-2.5 1.5s-2.5-.67-2.5-1.5 1.12-1.5 2.5-1.5 2.5.67 2.5 1.5z"/><path class="cls-3" d="M9.5 30.75c0 .83 1.12 1.5 2.5 1.5s2.5-.67 2.5-1.5-1.12-1.5-2.5-1.5-2.5.67-2.5 1.5z"/><path class="cls-6" d="M18.64 31.6A2.61 2.61 0 0 1 16 34.21"/><path class="cls-6" d="M30 33.3a10.75 10.75 0 0 1-6 1.82 10.75 10.75 0 0 1-6-1.82"/><path class="cls-6" d="M29.36 31.6A2.61 2.61 0 0 0 32 34.21"/><g><path class="cls-3" d="M31.73 11.44c1.11-.82 2.94-.21 4.08 1.35a4.82 4.82 0 0 1 .69 1.38 3.76 3.76 0 0 0-.69-3.44c-1.14-1.56-3-2.17-4.08-1.36a2.6 2.6 0 0 0-.65 2.93 1.87 1.87 0 0 1 .65-.86z"/><path class="cls-3" d="M9.48 16.55c.44-1.16 1.43-1.86 2.2-1.57a1.24 1.24 0 0 1 .7.82c.28-1.05 0-2-.7-2.31s-1.76.41-2.2 1.57a2.69 2.69 0 0 0-.1 1.82 2.07 2.07 0 0 1 .1-.33z"/><path class="cls-3" d="M19.44 38.31a3 3 0 0 1 2 1.43 1.75 1.75 0 0 0 .11-.24c.23-.88-.7-1.88-2.07-2.24s-2.67.07-2.9 1a1.18 1.18 0 0 0 .1.82 2.47 2.47 0 0 1 2.76-.77z"/><path class="cls-3" d="M40.19 21.93a1.76 1.76 0 0 1 .71 1.82 1.9 1.9 0 0 0 .48-.46 1.75 1.75 0 1 0-2.88-2 1.8 1.8 0 0 0-.27.62 1.75 1.75 0 0 1 1.96.02z"/><path class="cls-3" d="M8.25 24.49a1.75 1.75 0 0 1 2-.06 1.57 1.57 0 0 0-.27-.57 1.75 1.75 0 1 0-2.35 2.5 1.73 1.73 0 0 1 .62-1.87z"/><path class="cls-3" d="M23.85 26.64a2.47 2.47 0 0 1 2.35 1.41 2.06 2.06 0 0 0 .15-.82 2.49 2.49 0 0 0-5 .12 2.19 2.19 0 0 0 .19.81 2.48 2.48 0 0 1 2.31-1.52z"/><path class="cls-3" d="M19 8.92A3 3 0 0 1 21.86 11a2.94 2.94 0 0 0 .14-1 3 3 0 0 0-6 0 3 3 0 0 0 .17.94A3 3 0 0 1 19 8.92z"/><path class="cls-3" d="M27.5 14.39a2.49 2.49 0 0 1 2.37 1.75 2.36 2.36 0 0 0 .13-.75 2.5 2.5 0 0 0-5 0 2.36 2.36 0 0 0 .13.75 2.49 2.49 0 0 1 2.37-1.75z"/></g></svg>