<svg xmlns="http://www.w3.org/2000/svg" viewBox="0 0 48 48"><defs><style>.cls-4{fill:none;stroke:#45413c;stroke-linecap:round;stroke-linejoin:round}</style></defs><g><ellipse cx="24" cy="43.09" rx="14.63" ry="1.91" fill="#45413c" opacity=".15"/><path d="M43.27 27.41a6.09 6.09 0 0 0-3.65-5.58 6.7 6.7 0 0 0 .23-1.74A6.83 6.83 0 0 0 33 13.26a6.67 6.67 0 0 0-2.58.51 10.18 10.18 0 0 0-20.21 1.71v.7a9 9 0 0 0 3.53 17.32h23.47a6.09 6.09 0 0 0 6.06-6.09z" fill="#fff"/><path d="M37.21 29.21H13.74A9 9 0 0 1 5 22.34a9 9 0 0 0 8.74 11.16h23.47a6.09 6.09 0 0 0 5.67-8.24 6.1 6.1 0 0 1-5.67 3.95z" fill="#f0f0f0"/><path class="cls-4" d="M43.27 27.41a6.09 6.09 0 0 0-3.65-5.58 6.7 6.7 0 0 0 .23-1.74A6.83 6.83 0 0 0 33 13.26a6.67 6.67 0 0 0-2.58.51 10.18 10.18 0 0 0-20.21 1.71v.7a9 9 0 0 0 3.53 17.32h23.47a6.09 6.09 0 0 0 6.06-6.09z"/><path class="cls-4" d="M30.45 13.77a7.63 7.63 0 0 0-4.12 6.49"/></g></svg>