<svg xmlns="http://www.w3.org/2000/svg" viewBox="0 0 48 48"><defs><style>.cls-4{fill:none;stroke:#45413c;stroke-linecap:round;stroke-linejoin:round}.cls-5{fill:#ffb0ca}</style></defs><g><ellipse cx="24" cy="44.46" rx="13.84" ry="1.54" fill="#45413c" opacity=".15"/><g><g><g><path d="M47.5 24a4.69 4.69 0 0 0-3.72-4.59 4.66 4.66 0 0 0-4.64-5.33 4.73 4.73 0 0 0-2.64.81 4.69 4.69 0 0 0-8-3.62 4.67 4.67 0 0 0-9 0 4.69 4.69 0 0 0-8 3.62 4.73 4.73 0 0 0-2.64-.81 4.67 4.67 0 0 0-4.64 5.33 4.69 4.69 0 0 0 .25 9.22 4.68 4.68 0 0 0 7 5.52 4.67 4.67 0 0 0 8.25 3.31 4.67 4.67 0 0 0 8.5 0 4.67 4.67 0 0 0 8.25-3.31 4.68 4.68 0 0 0 7-5.52A4.7 4.7 0 0 0 47.5 24z" fill="#fff"/><path d="M46.73 21.45a3.38 3.38 0 0 0-1.57 2.72 5 5 0 0 1-5 4.77 5.14 5.14 0 0 1-.88-.07A2 2 0 0 0 37 30.15a5 5 0 0 1-4.68 3.25 4.92 4.92 0 0 1-2.45-.65 2 2 0 0 0-2.4.32 5 5 0 0 1-7 0 2 2 0 0 0-2.4-.32 4.92 4.92 0 0 1-2.45.65A5 5 0 0 1 11 30.15a2 2 0 0 0-2.23-1.28 5.14 5.14 0 0 1-.88.07 5 5 0 0 1-5-4.77 3.38 3.38 0 0 0-1.57-2.72 4.66 4.66 0 0 0 3.2 7.18 4.68 4.68 0 0 0 7 5.52 4.67 4.67 0 0 0 8.25 3.31 4.67 4.67 0 0 0 8.5 0 4.67 4.67 0 0 0 8.25-3.31 4.68 4.68 0 0 0 7-5.52 4.66 4.66 0 0 0 3.2-7.18z" fill="#f0f0f0"/><path id="_Compound_Path_2" class="cls-4" d="M47.5 24a4.69 4.69 0 0 0-3.72-4.59 4.66 4.66 0 0 0-4.64-5.33 4.73 4.73 0 0 0-2.64.81 4.69 4.69 0 0 0-8-3.62 4.67 4.67 0 0 0-9 0 4.69 4.69 0 0 0-8 3.62 4.73 4.73 0 0 0-2.64-.81 4.67 4.67 0 0 0-4.64 5.33 4.69 4.69 0 0 0 .25 9.22 4.68 4.68 0 0 0 7 5.52 4.67 4.67 0 0 0 8.25 3.31 4.67 4.67 0 0 0 8.5 0 4.67 4.67 0 0 0 8.25-3.31 4.68 4.68 0 0 0 7-5.52A4.7 4.7 0 0 0 47.5 24z"/></g></g><g><path class="cls-5" d="M15.7 26.08c0 .45.56.83 1.24.83s1.25-.38 1.25-.83-.56-.83-1.25-.83-1.24.37-1.24.83z"/><g stroke="#45413c" stroke-linecap="round" stroke-linejoin="round"><path d="M27.21 28.15a.83.83 0 0 1 .81 1 4.15 4.15 0 0 1-8 0 .83.83 0 0 1 .81-1z" fill="#ffb0ca"/><path d="M24 32.3a4.13 4.13 0 0 0 3.27-1.61 6.52 6.52 0 0 0-6.54 0A4.13 4.13 0 0 0 24 32.3z" fill="#ff87af"/></g><path class="cls-4" d="M16.53 24.42a1.25 1.25 0 1 1 2.49 0"/><path class="cls-5" d="M32.3 26.08c0 .45-.56.83-1.24.83s-1.25-.38-1.25-.83.56-.83 1.25-.83 1.24.37 1.24.83z"/><path class="cls-4" d="M31.47 24.42a1.25 1.25 0 1 0-2.49 0"/></g></g></g></svg>