<svg xmlns="http://www.w3.org/2000/svg" viewBox="0 0 48 48"><defs><style>.cls-6{fill:#ffe500}.cls-4{fill:none}.cls-4,.cls-6,.cls-8{stroke:#45413c;stroke-linecap:round;stroke-linejoin:round}.cls-7{fill:#ffaa54}.cls-11,.cls-8{fill:#ffb0ca}</style></defs><ellipse cx="24" cy="44.5" rx="13.5" ry="1.5" fill="#45413c" opacity=".15"/><g><g><path d="M21.68 13.09a8.2 8.2 0 1 1-10-5.84 8.2 8.2 0 0 1 10 5.84z" fill="#ffe500"/><path d="M12.43 7.09a7.62 7.62 0 1 1-1.5.4 8.17 8.17 0 1 0 1.5-.4z" fill="#ebcb00"/><path class="cls-4" d="M21.68 13.09a8.2 8.2 0 1 1-10-5.84 8.2 8.2 0 0 1 10 5.84z"/><path d="M14.48 8.39c.09.33-.9.87-2.19 1.21s-2.42.36-2.51 0 .9-.86 2.2-1.2 2.42-.33 2.5-.01z" fill="#fff48c"/></g><g><path class="cls-6" d="M11.39 2.62a.91.91 0 0 0-1.76.46l.46 1.76a.91.91 0 1 0 1.76-.46z"/><path class="cls-6" d="M3.2 8a.91.91 0 1 0-.92 1.57l1.57.92a.91.91 0 0 0 1.25-.33.9.9 0 0 0-.33-1.24z"/><path class="cls-6" d="M1.19 17.55a.91.91 0 1 0 .47 1.76l1.76-.47a.91.91 0 0 0 .65-1.11.92.92 0 0 0-1.07-.65z"/><path class="cls-6" d="M6.55 25.74A.9.9 0 0 0 6.87 27a.91.91 0 0 0 1.25-.32l.88-1.6a.91.91 0 0 0-1.58-.92z"/><path class="cls-6" d="M16.12 27.74a.91.91 0 0 0 1.77-.46l-.47-1.76a.91.91 0 1 0-1.76.46z"/><path class="cls-6" d="M24.32 22.39a.91.91 0 0 0 .91-1.57l-1.57-.92a.91.91 0 1 0-.92 1.57z"/><path class="cls-6" d="M26.32 12.81a.91.91 0 0 0-.46-1.76l-1.76.46a.91.91 0 0 0 .46 1.77z"/><path class="cls-6" d="M21 4.62a.91.91 0 0 0-1.58-.92l-.91 1.58a.91.91 0 1 0 1.57.91z"/></g><g><path class="cls-7" d="M7.88 16.73c.09.32.55.48 1 .35s.81-.49.73-.82-.55-.48-1-.35-.81.49-.73.82z"/><g><path class="cls-8" d="M16.41 16.05a.61.61 0 0 1 .77.58 3 3 0 0 1-5.69 1.5.61.61 0 0 1 .38-.88z"/></g><path class="cls-4" d="M8.16 15.4a.91.91 0 1 1 1.76-.47"/><path class="cls-7" d="M19.63 13.63c.08.33-.24.69-.73.82s-.95 0-1-.35.24-.69.72-.82.92.03 1.01.35z"/><path class="cls-4" d="M18.73 12.61a.91.91 0 1 0-1.76.47"/></g></g><g><g><g><path d="M47.5 26.41a3.44 3.44 0 0 0-2.72-3.36 3.43 3.43 0 0 0-5.32-3.3 3.43 3.43 0 0 0-5.85-2.65 3.42 3.42 0 0 0-6.6 0 3.43 3.43 0 0 0-5.85 2.65 3.43 3.43 0 0 0-5.32 3.3A3.43 3.43 0 0 0 16 29.8a3.43 3.43 0 0 0 3.21 4.64 3.37 3.37 0 0 0 1.93-.6 3.42 3.42 0 0 0 6 2.42 3.42 3.42 0 0 0 6.22 0 3.42 3.42 0 0 0 6-2.42 3.37 3.37 0 0 0 1.93.6 3.43 3.43 0 0 0 3.31-4.64 3.43 3.43 0 0 0 2.9-3.39z" fill="#fff"/><path d="M46.94 24.55a2.45 2.45 0 0 0-1.15 2A3.66 3.66 0 0 1 42.13 30a3.42 3.42 0 0 1-1-.13 1 1 0 0 0-1.22.71 3.66 3.66 0 0 1-3.53 2.68 3.56 3.56 0 0 1-2-.63 1 1 0 0 0-1.32.18 3.63 3.63 0 0 1-5.52 0 1 1 0 0 0-1.32-.18 3.56 3.56 0 0 1-2 .63 3.65 3.65 0 0 1-3.53-2.68 1 1 0 0 0-1.22-.71 3.42 3.42 0 0 1-1 .13 3.66 3.66 0 0 1-3.66-3.49 2.45 2.45 0 0 0-1.15-2 3.39 3.39 0 0 0-.56 1.86A3.43 3.43 0 0 0 16 29.8a3.43 3.43 0 0 0 3.21 4.64 3.37 3.37 0 0 0 1.93-.6 3.42 3.42 0 0 0 6 2.42 3.42 3.42 0 0 0 6.22 0 3.42 3.42 0 0 0 6-2.42 3.37 3.37 0 0 0 1.93.6 3.43 3.43 0 0 0 3.31-4.64 3.43 3.43 0 0 0 2.9-3.39 3.39 3.39 0 0 0-.56-1.86z" fill="#f0f0f0"/><path id="_Compound_Path_2" class="cls-4" d="M47.5 26.41a3.44 3.44 0 0 0-2.72-3.36 3.43 3.43 0 0 0-5.32-3.3 3.43 3.43 0 0 0-5.85-2.65 3.42 3.42 0 0 0-6.6 0 3.43 3.43 0 0 0-5.85 2.65 3.43 3.43 0 0 0-5.32 3.3A3.43 3.43 0 0 0 16 29.8a3.43 3.43 0 0 0 3.21 4.64 3.37 3.37 0 0 0 1.93-.6 3.42 3.42 0 0 0 6 2.42 3.42 3.42 0 0 0 6.22 0 3.42 3.42 0 0 0 6-2.42 3.37 3.37 0 0 0 1.93.6 3.43 3.43 0 0 0 3.31-4.64 3.43 3.43 0 0 0 2.9-3.39z"/></g></g><g><ellipse class="cls-11" cx="25.15" cy="27.93" rx=".91" ry=".61"/><path class="cls-8" d="M32.66 29.45a.61.61 0 0 1 .59.76 3 3 0 0 1-5.88 0 .61.61 0 0 1 .59-.76z"/><path class="cls-4" d="M24.84 26.72a.92.92 0 0 1 1.83 0"/><path class="cls-11" d="M36.38 27.93c0 .34-.4.61-.91.61s-.91-.27-.91-.61.41-.6.91-.6.91.27.91.6z"/><path class="cls-4" d="M35.78 26.72a.92.92 0 0 0-1.83 0"/></g></g></svg>