<svg xmlns="http://www.w3.org/2000/svg" viewBox="0 0 48 48"><defs><style>.cls-2{fill:#627b8c}.cls-3,.cls-4{fill:none;stroke:#45413c;stroke-linecap:round;stroke-linejoin:round}.cls-4{fill:#ffb0ca}.cls-6{fill:#c0dceb}.cls-7{fill:#e8f4fa}</style></defs><g><g><g><path d="M47.5 17.69a4.71 4.71 0 0 0-3.72-4.6 4.66 4.66 0 0 0-4.64-5.32 4.73 4.73 0 0 0-2.64.81 4.69 4.69 0 0 0-8-3.62 4.67 4.67 0 0 0-9 0 4.69 4.69 0 0 0-8 3.62 4.73 4.73 0 0 0-2.64-.81 4.67 4.67 0 0 0-4.64 5.32 4.69 4.69 0 0 0 .25 9.22 4.69 4.69 0 0 0 4.39 6.35 4.74 4.74 0 0 0 2.64-.82 4.67 4.67 0 0 0 8.25 3.31 4.67 4.67 0 0 0 8.5 0 4.67 4.67 0 0 0 8.25-3.31 4.74 4.74 0 0 0 2.64.82 4.68 4.68 0 0 0 4.39-6.35 4.68 4.68 0 0 0 3.97-4.62z" fill="#8ca4b8"/><path class="cls-2" d="M46.73 15.14a3.38 3.38 0 0 0-1.57 2.72 5 5 0 0 1-5 4.77 4.3 4.3 0 0 1-.88-.08A2 2 0 0 0 37 23.84a5 5 0 0 1-4.68 3.25 4.92 4.92 0 0 1-2.45-.65 2 2 0 0 0-2.4.31 5 5 0 0 1-7 0 2 2 0 0 0-2.4-.31 4.92 4.92 0 0 1-2.45.65A5 5 0 0 1 11 23.84a2 2 0 0 0-2.23-1.29 4.3 4.3 0 0 1-.88.08 5 5 0 0 1-5-4.77 3.38 3.38 0 0 0-1.57-2.72 4.62 4.62 0 0 0-.82 2.55 4.68 4.68 0 0 0 4 4.62 4.69 4.69 0 0 0 4.39 6.35 4.74 4.74 0 0 0 2.64-.82 4.67 4.67 0 0 0 8.25 3.31 4.67 4.67 0 0 0 8.5 0 4.67 4.67 0 0 0 8.25-3.31 4.74 4.74 0 0 0 2.64.82 4.68 4.68 0 0 0 4.39-6.35 4.68 4.68 0 0 0 4-4.62 4.62 4.62 0 0 0-.83-2.55z"/><path id="_Compound_Path_2" class="cls-3" d="M47.5 17.69a4.71 4.71 0 0 0-3.72-4.6 4.66 4.66 0 0 0-4.64-5.32 4.73 4.73 0 0 0-2.64.81 4.69 4.69 0 0 0-8-3.62 4.67 4.67 0 0 0-9 0 4.69 4.69 0 0 0-8 3.62 4.73 4.73 0 0 0-2.64-.81 4.67 4.67 0 0 0-4.64 5.32 4.69 4.69 0 0 0 .25 9.22 4.69 4.69 0 0 0 4.39 6.35 4.74 4.74 0 0 0 2.64-.82 4.67 4.67 0 0 0 8.25 3.31 4.67 4.67 0 0 0 8.5 0 4.67 4.67 0 0 0 8.25-3.31 4.74 4.74 0 0 0 2.64.82 4.68 4.68 0 0 0 4.39-6.35 4.68 4.68 0 0 0 3.97-4.62z"/></g></g><path class="cls-2" d="M15.25 18.56c0 .49.59.88 1.31.88s1.31-.39 1.31-.88-.58-.87-1.31-.87-1.31.39-1.31.87z"/><g><path class="cls-4" d="M20.62 24.69a.9.9 0 0 1-.7-.34.88.88 0 0 1-.16-.76 4.45 4.45 0 0 1 1.56-2.36 4.36 4.36 0 0 1 5.36 0 4.45 4.45 0 0 1 1.56 2.36.88.88 0 0 1-.16.76.9.9 0 0 1-.7.34 20.69 20.69 0 0 0-3.38-.44 20.69 20.69 0 0 0-3.38.44z"/></g><path class="cls-3" d="M19.5 15.07a2.19 2.19 0 0 1-2.81 1.3"/><path class="cls-2" d="M32.75 18.56c0 .49-.59.88-1.31.88s-1.31-.39-1.31-.88.58-.87 1.31-.87 1.31.39 1.31.87z"/><path class="cls-3" d="M28.5 15.07a2.19 2.19 0 0 0 2.81 1.3"/><g><path class="cls-4" d="M20.62 24.69a.9.9 0 0 1-.7-.34.88.88 0 0 1-.16-.76 4.45 4.45 0 0 1 1.56-2.36 4.36 4.36 0 0 1 5.36 0 4.45 4.45 0 0 1 1.56 2.36.88.88 0 0 1-.16.76.9.9 0 0 1-.7.34 20.69 20.69 0 0 0-3.38-.44 20.69 20.69 0 0 0-3.38.44z"/></g></g><g><ellipse cx="24" cy="46.5" rx="13.5" ry="1.5" fill="#45413c" opacity=".15"/><g><path class="cls-6" d="M31.77 45a1.56 1.56 0 1 1-3.11 0 15.34 15.34 0 0 1 1.27-3.45.31.31 0 0 1 .56 0A15 15 0 0 1 31.77 45z"/><path class="cls-7" d="M30.21 45.55a1.54 1.54 0 0 1-1.45-1 2.13 2.13 0 0 0-.1.51 1.56 1.56 0 1 0 3.11 0 2.13 2.13 0 0 0-.1-.51 1.54 1.54 0 0 1-1.46 1z"/><path class="cls-3" d="M31.77 45a1.56 1.56 0 1 1-3.11 0 15.34 15.34 0 0 1 1.27-3.45.31.31 0 0 1 .56 0A15 15 0 0 1 31.77 45z"/></g><g><path class="cls-6" d="M36.74 38.2a1.56 1.56 0 0 1-3.11 0 14.62 14.62 0 0 1 1.28-3.45.31.31 0 0 1 .56 0 15 15 0 0 1 1.27 3.45z"/><path class="cls-7" d="M35.19 38.72a1.54 1.54 0 0 1-1.46-1 2.11 2.11 0 0 0-.1.52 1.56 1.56 0 0 0 3.11 0 2.11 2.11 0 0 0-.1-.52 1.53 1.53 0 0 1-1.45 1z"/><path class="cls-3" d="M36.74 38.2a1.56 1.56 0 0 1-3.11 0 14.62 14.62 0 0 1 1.28-3.45.31.31 0 0 1 .56 0 15 15 0 0 1 1.27 3.45z"/></g><g><path class="cls-6" d="M16.23 45a1.56 1.56 0 1 0 3.11 0 15.34 15.34 0 0 0-1.27-3.45.31.31 0 0 0-.56 0A15 15 0 0 0 16.23 45z"/><path class="cls-7" d="M17.79 45.55a1.54 1.54 0 0 0 1.45-1 2.13 2.13 0 0 1 .1.51 1.56 1.56 0 1 1-3.11 0 2.13 2.13 0 0 1 .1-.51 1.54 1.54 0 0 0 1.46 1z"/><path class="cls-3" d="M16.23 45a1.56 1.56 0 1 0 3.11 0 15.34 15.34 0 0 0-1.27-3.45.31.31 0 0 0-.56 0A15 15 0 0 0 16.23 45z"/></g><g><path class="cls-6" d="M11.26 38.2a1.56 1.56 0 0 0 3.11 0 14.62 14.62 0 0 0-1.28-3.45.31.31 0 0 0-.56 0 15 15 0 0 0-1.27 3.45z"/><path class="cls-7" d="M12.81 38.72a1.54 1.54 0 0 0 1.46-1 2.11 2.11 0 0 1 .1.52 1.56 1.56 0 0 1-3.11 0 2.11 2.11 0 0 1 .1-.52 1.53 1.53 0 0 0 1.45 1z"/><path class="cls-3" d="M11.26 38.2a1.56 1.56 0 0 0 3.11 0 14.62 14.62 0 0 0-1.28-3.45.31.31 0 0 0-.56 0 15 15 0 0 0-1.27 3.45z"/></g><g><path class="cls-6" d="M25.55 41.62a1.55 1.55 0 0 1-3.1 0 14.54 14.54 0 0 1 1.27-3.45.31.31 0 0 1 .56 0 14.54 14.54 0 0 1 1.27 3.45z"/><path class="cls-7" d="M24 42.14a1.56 1.56 0 0 1-1.46-1 2.57 2.57 0 0 0-.09.52 1.55 1.55 0 0 0 3.1 0 2.57 2.57 0 0 0-.09-.52 1.56 1.56 0 0 1-1.46 1z"/><path class="cls-3" d="M25.55 41.62a1.55 1.55 0 0 1-3.1 0 14.54 14.54 0 0 1 1.27-3.45.31.31 0 0 1 .56 0 14.54 14.54 0 0 1 1.27 3.45z"/></g></g></svg>