<svg xmlns="http://www.w3.org/2000/svg" viewBox="0 0 48 48"><defs><style>.cls-3{fill:none;stroke:#45413c;stroke-linecap:round;stroke-linejoin:round}</style></defs><ellipse cx="24" cy="45.3" rx="20.92" ry="1.7" fill="#45413c" opacity=".15"/><rect x="4.21" y="4.21" width="39.57" height="39.57" rx="3.39" ry="3.39" fill="#fff"/><rect class="cls-3" x="4.21" y="4.21" width="39.57" height="39.57" rx="3.39" ry="3.39"/><rect x="7.04" y="7.04" width="33.92" height="33.92" rx="1.13" ry="1.13" fill="#00b8f0"/><rect class="cls-3" x="7.04" y="7.04" width="33.92" height="33.92" rx="1.13" ry="1.13"/><path d="M41 9.4v30.43A1.13 1.13 0 0 1 39.83 41H9.4A31.56 31.56 0 0 1 41 9.4z" fill="#ff6242" stroke="#45413c" stroke-linecap="round" stroke-linejoin="round"/><path d="M41 14.13v25.7A1.13 1.13 0 0 1 39.83 41h-25.7A26.83 26.83 0 0 1 41 14.13z" fill="#ffe500" stroke="#45413c" stroke-linecap="round" stroke-linejoin="round"/><path d="M41 19v20.83A1.13 1.13 0 0 1 39.83 41H19a22 22 0 0 1 22-22z" fill="#00dba8" stroke="#45413c" stroke-linecap="round" stroke-linejoin="round"/><path d="M41 23.73v16.1A1.13 1.13 0 0 1 39.83 41h-16.1A17.23 17.23 0 0 1 41 23.73z" fill="#bf8df2" stroke="#45413c" stroke-linecap="round" stroke-linejoin="round"/><path d="M41 28.25v11.58A1.13 1.13 0 0 1 39.83 41H28.25A12.71 12.71 0 0 1 41 28.25z" fill="#00b8f0" stroke="#45413c" stroke-linecap="round" stroke-linejoin="round"/></svg>