<svg xmlns="http://www.w3.org/2000/svg" viewBox="0 0 48 48"><defs><style>.cls-1{fill:#87898c;stroke:#45413c;stroke-linecap:round;stroke-linejoin:round}</style></defs><g><path class="cls-1" d="M7.42 9.5A1.77 1.77 0 0 1 9.93 7l.68.68a1.25 1.25 0 1 0 1.77-1.77l-.68-.68a4.28 4.28 0 0 0-6 6L15.37 21l1.77-1.78zM40.12 42.2l-2.66-2.65-1.77 1.77L38.35 44a1.26 1.26 0 1 0 1.77-1.78z"/><ellipse cx="26" cy="45.12" rx="14.4" ry="1.88" fill="#45413c" opacity=".15"/><path d="M37.7 39.29L22.26 11.64a.35.35 0 0 0-.65.19 5.78 5.78 0 0 1-6.11 6.11l-1.12-.06a.34.34 0 0 0-.36.36l.06 1.12A5.77 5.77 0 0 1 8 25.47a.34.34 0 0 0-.19.64l27.62 15.45a1.67 1.67 0 0 0 2.27-2.27z" fill="#ff87af"/><path d="M19.62 16.55l17 25.17a1.67 1.67 0 0 0 1-2.43L22.26 11.64a.35.35 0 0 0-.65.19 5.78 5.78 0 0 1-1.99 4.72z" fill="#ffb0ca"/><path d="M37.7 39.29L22.26 11.64a.35.35 0 0 0-.65.19 5.78 5.78 0 0 1-6.11 6.11l-1.12-.06a.34.34 0 0 0-.36.36l.06 1.12A5.77 5.77 0 0 1 8 25.47a.34.34 0 0 0-.19.64l27.62 15.45a1.67 1.67 0 0 0 2.27-2.27z" fill="none" stroke="#45413c" stroke-linecap="round" stroke-linejoin="round"/></g></svg>