<svg xmlns="http://www.w3.org/2000/svg" viewBox="0 0 48 48"><defs><style>.cls-4,.cls-9{fill:none;stroke:#45413c}.cls-4{stroke-linecap:round;stroke-linejoin:round}.cls-7{fill:#4aeff7}.cls-8{fill:#00dfeb}.cls-9{stroke-miterlimit:10}</style></defs><g><ellipse cx="24" cy="45.42" rx="12.12" ry="1.58" fill="#45413c" opacity=".15"/><path d="M24 3.5a1.27 1.27 0 0 0-1.27 1.27v36a1.51 1.51 0 0 1-3 0v-1.11a1.27 1.27 0 0 0-2.54 0v1.07a4 4 0 1 0 8.09 0v-36A1.27 1.27 0 0 0 24 3.5z" fill="#debb7e"/><path fill="#b89558" d="M22.73 19.62h2.54v9.48h-2.54z"/><path class="cls-4" d="M22.73 4.77v36a1.5 1.5 0 0 1-1.51 1.5 1.5 1.5 0 0 1-1.5-1.5v-1.11a1.27 1.27 0 0 0-1.27-1.27 1.27 1.27 0 0 0-1.27 1.27v1.07a4.05 4.05 0 0 0 4.05 4.05 4.05 4.05 0 0 0 4-4.05v-36A1.27 1.27 0 0 0 24 3.5a1.27 1.27 0 0 0-1.27 1.27z"/><path d="M9 22.66a6 6 0 0 1 3.23.93 1 1 0 0 0 1.06 0 6.07 6.07 0 0 1 6.46 0 1 1 0 0 0 1.06 0 6.07 6.07 0 0 1 6.46 0 1 1 0 0 0 1.06 0 6.07 6.07 0 0 1 6.46 0 1 1 0 0 0 1.06 0 6 6 0 0 1 3.15-.93 5.83 5.83 0 0 1 1.68.24A1 1 0 0 0 42 21.68a18.37 18.37 0 0 0-36 0 1 1 0 0 0 1.28 1.22A5.83 5.83 0 0 1 9 22.66z" fill="#bf8df2"/><path d="M24 11a19.59 19.59 0 0 1 18 11.2 1 1 0 0 0 0-.53 18.37 18.37 0 0 0-36 0 1 1 0 0 0 0 .53A19.59 19.59 0 0 1 24 11z" fill="#dabff5"/><path class="cls-4" d="M9 22.66a6 6 0 0 1 3.23.93 1 1 0 0 0 1.06 0 6.07 6.07 0 0 1 6.46 0 1 1 0 0 0 1.06 0 6.07 6.07 0 0 1 6.46 0 1 1 0 0 0 1.06 0 6.07 6.07 0 0 1 6.46 0 1 1 0 0 0 1.06 0 6 6 0 0 1 3.15-.93 5.83 5.83 0 0 1 1.68.24A1 1 0 0 0 42 21.68a18.37 18.37 0 0 0-36 0 1 1 0 0 0 1.28 1.22A5.83 5.83 0 0 1 9 22.66z"/></g><path class="cls-7" d="M12.42 9.64l-2.21-5.25a.49.49 0 0 0-.47-.31.5.5 0 0 0-.47.31l-2.2 5.25a2.9 2.9 0 1 0 5.35 0z"/><path class="cls-8" d="M9.74 11.48a2.88 2.88 0 0 1-2.68-1.81 2.9 2.9 0 1 0 5.37 0 2.89 2.89 0 0 1-2.69 1.81z"/><path class="cls-9" d="M12.42 9.64l-2.21-5.25a.49.49 0 0 0-.47-.31.5.5 0 0 0-.47.31l-2.2 5.25a2.9 2.9 0 1 0 5.35 0z"/><path class="cls-7" d="M21.09 15.21L18.89 10a.5.5 0 0 0-.47-.31.48.48 0 0 0-.42.31l-2.21 5.25a2.9 2.9 0 1 0 5.35 0z"/><path class="cls-8" d="M18.42 17.05a2.88 2.88 0 0 1-2.69-1.81 2.9 2.9 0 1 0 5.37 0 2.88 2.88 0 0 1-2.68 1.81z"/><path class="cls-9" d="M21.09 15.21L18.89 10a.5.5 0 0 0-.47-.31.48.48 0 0 0-.42.31l-2.21 5.25a2.9 2.9 0 1 0 5.35 0z"/><path class="cls-7" d="M32.48 6.79l-2.2-5.25a.51.51 0 0 0-.94 0l-2.2 5.25a2.9 2.9 0 1 0 5.34 0z"/><path class="cls-8" d="M29.81 8.63a2.9 2.9 0 0 1-2.69-1.81 2.9 2.9 0 1 0 5.38 0 2.9 2.9 0 0 1-2.69 1.81z"/><path class="cls-9" d="M32.48 6.79l-2.2-5.25a.51.51 0 0 0-.94 0l-2.2 5.25a2.9 2.9 0 1 0 5.34 0z"/><path class="cls-7" d="M40.9 13.59l-2.2-5.24a.51.51 0 0 0-.47-.35.5.5 0 0 0-.47.32l-2.21 5.24a2.9 2.9 0 1 0 5.35 0z"/><path class="cls-8" d="M38.23 15.44a2.91 2.91 0 0 1-2.69-1.81 2.9 2.9 0 1 0 5.37 0 2.89 2.89 0 0 1-2.68 1.81z"/><path class="cls-9" d="M40.9 13.59l-2.2-5.24a.51.51 0 0 0-.47-.35.5.5 0 0 0-.47.32l-2.21 5.24a2.9 2.9 0 1 0 5.35 0z"/></svg>