<svg xmlns="http://www.w3.org/2000/svg" viewBox="0 0 48 48"><defs><style>.cls-3{fill:#fff48c}</style></defs><g><ellipse cx="24" cy="45.29" rx="13.1" ry="1.71" fill="#45413c" opacity=".15"/><path d="M33.72 18.24H26l1.71-14a.57.57 0 0 0-1-.39l-13.32 19a1.14 1.14 0 0 0 .93 1.79H22l-1.69 13.72a.57.57 0 0 0 1 .4L34.65 20a1.14 1.14 0 0 0-.93-1.76z" fill="#ffe500"/><g><path class="cls-3" d="M26.56 22h6.69l1.4-2a1.14 1.14 0 0 0-.93-1.8H27z"/><path class="cls-3" d="M15.31 24.59l11.93-17 .06-.07.4-3.31a.57.57 0 0 0-1-.39l-13.32 19a1.14 1.14 0 0 0 .93 1.79z"/></g><path d="M33.72 18.24H26l1.71-14a.57.57 0 0 0-1-.39l-13.32 19a1.14 1.14 0 0 0 .93 1.79H22l-1.69 13.72a.57.57 0 0 0 1 .4L34.65 20a1.14 1.14 0 0 0-.93-1.76z" fill="none" stroke="#45413c" stroke-linecap="round" stroke-linejoin="round"/></g></svg>