<svg xmlns="http://www.w3.org/2000/svg" viewBox="0 0 48 48"><defs><style>.cls-9{fill:#45413c}.cls-4{fill:none}.cls-4,.cls-7,.cls-9{stroke:#45413c;stroke-linecap:round;stroke-linejoin:round}.cls-7{fill:#ffe500}.cls-10{fill:#ffcebf}</style></defs><ellipse cx="24" cy="45.5" rx="12" ry="1.5" opacity=".15" fill="#45413c"/><path d="M30.48 44.17a.83.83 0 0 1-.66 1.33H18.07a.83.83 0 0 1-.66-1.33 11.14 11.14 0 0 0 2.23-6.69v-3.82h8.61v3.82a11.14 11.14 0 0 0 2.23 6.69z" fill="#dea47a"/><path d="M28.88 41.16a10.91 10.91 0 0 1-.63-3.68v-3.82h-8.61v3.82a11.16 11.16 0 0 1-.64 3.68z" fill="#bf8256"/><path class="cls-4" d="M30.48 44.17a.83.83 0 0 1-.66 1.33H18.07a.83.83 0 0 1-.66-1.33 11.14 11.14 0 0 0 2.23-6.69v-3.82h8.61v3.82a11.14 11.14 0 0 0 2.23 6.69z"/><path d="M38.17 34.32l-3.85-4.58a.89.89 0 0 1 .68-1.46h.59a1.49 1.49 0 0 0 1.08-2.51l-4-4.29a1.07 1.07 0 0 1 .78-1.81 1.49 1.49 0 0 0 1.1-2.5l-9-9.78a2.17 2.17 0 0 0-3.17 0l-9 9.78a1.49 1.49 0 0 0 1.09 2.5 1.08 1.08 0 0 1 .79 1.81l-4 4.29a1.49 1.49 0 0 0 1.09 2.51h.59a.89.89 0 0 1 .68 1.46l-3.9 4.58A2.22 2.22 0 0 0 11.41 38h25.06a2.22 2.22 0 0 0 1.7-3.68z" fill="#6dd627"/><path d="M14.28 19.66l8.08-8.76a2.17 2.17 0 0 1 3.17 0l8.08 8.76a1.48 1.48 0 0 0 .94-2.49l-9-9.78a2.17 2.17 0 0 0-3.17 0l-9 9.78a1.48 1.48 0 0 0 .9 2.49z" fill="#9ceb60"/><path class="cls-4" d="M38.17 34.32l-3.85-4.58a.89.89 0 0 1 .68-1.46h.59a1.49 1.49 0 0 0 1.08-2.51l-4-4.29a1.07 1.07 0 0 1 .78-1.81 1.49 1.49 0 0 0 1.1-2.5l-9-9.78a2.17 2.17 0 0 0-3.17 0l-9 9.78a1.49 1.49 0 0 0 1.09 2.5 1.08 1.08 0 0 1 .79 1.81l-4 4.29a1.49 1.49 0 0 0 1.09 2.51h.59a.89.89 0 0 1 .68 1.46l-3.9 4.58A2.22 2.22 0 0 0 11.41 38h25.06a2.22 2.22 0 0 0 1.7-3.68z"/><path class="cls-7" d="M23.94 6.69l-1.13.6a.88.88 0 0 1-1.28-.94l.21-1.26-.91-.89a.88.88 0 0 1 .49-1.51l1.26-.19.57-1.14a.89.89 0 0 1 1.59 0l.57 1.14 1.26.19a.88.88 0 0 1 .49 1.51l-.91.89.21 1.26a.88.88 0 0 1-1.28.94z"/><path d="M25.68 28.33h-3.47a.44.44 0 0 0-.44.47l.23 2.64a2 2 0 0 0 3.93 0l.21-2.64a.44.44 0 0 0-.46-.47z" fill="#ff866e" stroke="#45413c" stroke-linecap="round" stroke-linejoin="round"/><circle class="cls-9" cx="29.71" cy="23.45" r="1.33"/><circle class="cls-9" cx="18.18" cy="23.45" r="1.33"/><path class="cls-10" d="M32.93 28.11c0 .53-.72 1-1.61 1s-1.61-.44-1.61-1 .72-1 1.61-1 1.61.47 1.61 1z"/><path class="cls-10" d="M18.18 28.18c0 .54-.72 1-1.61 1s-1.61-.43-1.61-1 .72-1 1.61-1 1.61.47 1.61 1z"/><circle class="cls-7" cx="27.93" cy="15.47" r="1.33"/><circle cx="31.04" cy="13.26" r="1.33" fill="#ff6242" stroke="#45413c" stroke-linecap="round" stroke-linejoin="round"/><circle cx="23.94" cy="15.92" r="1.33" fill="#ff6196" stroke="#45413c" stroke-linecap="round" stroke-linejoin="round"/><circle cx="19.96" cy="15.47" r="1.33" fill="#00dfeb" stroke="#45413c" stroke-linecap="round" stroke-linejoin="round"/><circle class="cls-7" cx="16.85" cy="13.26" r="1.33"/></svg>