<svg xmlns="http://www.w3.org/2000/svg" viewBox="0 0 48 48"><defs><style>.cls-2{fill:#ff866e}.cls-4,.cls-9{fill:none}.cls-12,.cls-13,.cls-4,.cls-8{stroke:#45413c}.cls-12,.cls-13,.cls-4,.cls-8,.cls-9{stroke-linecap:round;stroke-linejoin:round}.cls-10,.cls-8{fill:#eddbff}.cls-9{stroke:#bf8df2}.cls-11,.cls-12{fill:#dabff5}.cls-13{fill:#bf8df2}</style></defs><g><ellipse cx="24" cy="44.5" rx="17.5" ry="1.5" fill="#45413c" opacity=".15"/><g><g><path class="cls-2" d="M22.68 26.78L5 20.59v16.79a1 1 0 0 0 .67.94l17 6a4.11 4.11 0 0 0 2.64 0l17-6a1 1 0 0 0 .67-.94V20.59l-17.66 6.19a4 4 0 0 1-2.64 0z"/><path d="M25.32 26.78a4 4 0 0 1-2.64 0L5 20.59v5l17.68 6.19a4 4 0 0 0 2.64 0L43 25.59v-5z" fill="#ff6242"/><path class="cls-4" d="M22.68 26.78L5 20.59v16.79a1 1 0 0 0 .67.94l17 6a4.11 4.11 0 0 0 2.64 0l17-6a1 1 0 0 0 .67-.94V20.59l-17.66 6.19a4 4 0 0 1-2.64 0z"/><path id="_Line_" data-name="&lt;Line&gt;" stroke="#e04122" stroke-linecap="round" stroke-linejoin="round" fill="none" d="M24 42.74v-13.5"/></g><g><path class="cls-2" d="M22.68 19.78L4 13.24v6.29a1 1 0 0 0 .67.94l18 6.31a4 4 0 0 0 2.64 0l18-6.31a1 1 0 0 0 .67-.94v-6.29l-18.66 6.54a4 4 0 0 1-2.64 0z"/><path d="M25.32 19.78a4 4 0 0 1-2.64 0L4 13.24v3l18.68 6.54a4 4 0 0 0 2.64 0L44 16.24v-3z" fill="#ffa694"/><path class="cls-4" d="M22.68 19.78L4 13.24v6.29a1 1 0 0 0 .67.94l18 6.31a4 4 0 0 0 2.64 0l18-6.31a1 1 0 0 0 .67-.94v-6.29l-18.66 6.54a4 4 0 0 1-2.64 0z"/><path d="M4 13.24L22.68 6.7a4 4 0 0 1 2.64 0L44 13.24l-18.68 6.54a4 4 0 0 1-2.64 0z" stroke-linecap="round" stroke-linejoin="round" stroke="#45413c" fill="#ff866e"/></g><g><path class="cls-8" d="M28.16 7.7L8 14.64v7l9 3.15v-7l20.16-6.94-9-3.15z"/><path class="cls-9" d="M10.67 15.58l4.55 1.59"/><path class="cls-10" d="M9 21.99v17.5l9 3.15v-17.5l-9-3.15z"/><path class="cls-11" d="M9 21.99v5l9 3.15v-5l-9-3.15z"/><path class="cls-4" d="M9 21.99v17.5l9 3.15v-17.5l-9-3.15z"/></g><g><path class="cls-8" d="M19.84 7.7L40 14.64v7l-9 3.15v-7l-20.16-6.94 9-3.15z"/><path class="cls-9" d="M37.33 15.58l-4.55 1.59"/><path class="cls-10" d="M39 21.99v17.5l-9 3.15v-17.5l9-3.15z"/><path class="cls-11" d="M39 21.99v5l-9 3.15v-5l9-3.15z"/><path class="cls-4" d="M39 21.99v17.5l-9 3.15v-17.5l9-3.15z"/></g><g><g><path class="cls-12" d="M21 14.29l1.5-2.5s-6.19-8.08-13-6.11a3 3 0 0 0-2.16 3.06l.2 3.26z"/><path class="cls-13" d="M21 14.29s-5.58 2.29-12.9-1.42A1 1 0 0 1 8.26 11 12.8 12.8 0 0 1 21 14.29z"/></g><g><path class="cls-12" d="M27.05 14.29l-1.5-2.5s6.19-8.08 13-6.11a3 3 0 0 1 2.12 3.06L40.46 12z"/><path class="cls-13" d="M27.05 14.29s5.53 2.29 12.85-1.42a1 1 0 0 0-.16-1.87 12.8 12.8 0 0 0-12.69 3.29z"/></g><path class="cls-13" d="M26.38 13.41s7.28 2.24 8.86 7.6l-3.59-.62L30.53 24s-3.39-8.16-6.53-9.33z"/><path class="cls-13" d="M21.62 13.41s-7.28 2.24-8.86 7.6l3.59-.62L17.47 24s3.39-8.19 6.53-9.36z"/><g><ellipse cx="24" cy="12.17" rx="4.5" ry="3.5" fill="#bf8df2"/><path class="cls-11" d="M24 10.67a4.47 4.47 0 0 1 4.29 2.5 2.84 2.84 0 0 0 .21-1c0-1.94-2-3.5-4.5-3.5s-4.5 1.56-4.5 3.5a2.84 2.84 0 0 0 .21 1 4.47 4.47 0 0 1 4.29-2.5z"/><ellipse class="cls-4" cx="24" cy="12.17" rx="4.5" ry="3.5"/></g></g></g></g></svg>