<svg xmlns="http://www.w3.org/2000/svg" viewBox="0 0 48 48"><defs><style>.cls-4{fill:none;stroke:#45413c;stroke-linecap:round;stroke-linejoin:round}</style></defs><g><ellipse cx="24" cy="44.95" rx="15.69" ry="2.05" fill="#45413c" opacity=".15"/><circle cx="24" cy="24" r="20.8" fill="#ff8a14"/><path d="M41.81 13.29a18.67 18.67 0 0 1 1.06 6.19 18.87 18.87 0 0 1-37.74 0 18.67 18.67 0 0 1 1.06-6.19A20.79 20.79 0 1 0 44.8 24a20.65 20.65 0 0 0-2.99-10.71z" fill="#eb6d00"/><circle class="cls-4" cx="24" cy="24" r="20.8"/><path class="cls-4" d="M44.76 22.61c-3.63-5.46-17-7.54-32.07-4.37-4.25.9-7.92 3.33-9.49 5.37"/><path class="cls-4" d="M18 4.07c-2.76 4.56-4.17 11.61-3.42 19.35 1 10.32 5.49 18.71 10.85 21.33"/><path class="cls-4" d="M4.88 32.2a11.38 11.38 0 0 1 9.72-8.78C25 21.64 32.05 31.69 40.28 37"/><path class="cls-4" d="M31 4.42c-4.78 3.78-10.26 7.82-16 9-4.54 1-6.31-.88-7-2.74"/></g></svg>