<svg xmlns="http://www.w3.org/2000/svg" viewBox="0 0 48 48"><defs><style>.cls-4{fill:none}.cls-4,.cls-7{stroke:#45413c;stroke-linecap:round;stroke-linejoin:round}.cls-7,.cls-8{fill:#f0f0f0}.cls-9{fill:#fff}</style></defs><g><ellipse cx="24" cy="44.96" rx="19.7" ry="2.04" fill="#45413c" opacity=".15"/><path d="M44 5.75A2.61 2.61 0 0 0 42.25 4C31.18.63 19.18 2.88 11 11S.62 31.18 4 42.26A2.58 2.58 0 0 0 5.74 44c11.08 3.38 23.07 1.13 31.26-7s10.37-20.18 7-31.25z" fill="#bf8256"/><path d="M11 18.16c8.15-8.15 20.15-10.4 31.22-7a2.58 2.58 0 0 1 1.7 1.7 34.54 34.54 0 0 1 1.34 6.43A33.8 33.8 0 0 0 44 5.75 2.6 2.6 0 0 0 42.26 4C31.19.63 19.19 2.88 11 11a30 30 0 0 0-8.33 24.8A29.24 29.24 0 0 1 11 18.16z" fill="#dea47a"/><path class="cls-4" d="M44 5.75A2.61 2.61 0 0 0 42.25 4C31.18.63 19.18 2.88 11 11S.62 31.18 4 42.26A2.58 2.58 0 0 0 5.74 44c11.08 3.38 23.07 1.13 31.26-7s10.37-20.18 7-31.25z"/><path d="M44 5.92v-.17A2.6 2.6 0 0 0 42.26 4h-.17L4 42.08v.18A2.58 2.58 0 0 0 5.75 44h.17z" fill="#915e3a" stroke="#45413c" stroke-linecap="round" stroke-linejoin="round"/><rect x="21.97" y="13.13" width="4.08" height="21.74" rx="1.36" ry="1.36" transform="rotate(45 23.999 24)" fill="#e0e0e0" stroke="#45413c" stroke-linecap="round" stroke-linejoin="round"/><path class="cls-7" d="M21.12 21.12a1.36 1.36 0 0 1 1.92 0L26.89 25A1.36 1.36 0 1 1 25 26.88L21.12 23a1.36 1.36 0 0 1 0-1.88z"/><path class="cls-7" d="M22.56 31.21a1.36 1.36 0 0 1-1.92 0l-3.84-3.85a1.36 1.36 0 1 1 1.92-1.92l3.84 3.85a1.36 1.36 0 0 1 0 1.92z"/><path class="cls-7" d="M31.21 22.56a1.36 1.36 0 0 1-1.92 0l-3.84-3.84a1.36 1.36 0 1 1 1.92-1.92l3.84 3.84a1.36 1.36 0 0 1 0 1.92z"/><path class="cls-7" d="M45.49 15.7l-5.63-5.63-4.81 4.8 9.32 9.33a31.49 31.49 0 0 0 1.12-8.5z"/><path class="cls-7" d="M14.88 35.05l-4.81 4.8 5.64 5.64a31.42 31.42 0 0 0 8.49-1.12z"/><path class="cls-8" d="M2.52 32.3l5.63 5.63 4.85-4.8-9.36-9.32a31.37 31.37 0 0 0-1.12 8.49z"/><path class="cls-9" d="M5.61 25.77A28.83 28.83 0 0 0 3.18 33l-.65-.65a30.48 30.48 0 0 1 1.11-8.5z"/><path class="cls-8" d="M37.93 8.15L33.14 13 23.8 3.63a31.64 31.64 0 0 1 8.48-1.13z"/><path class="cls-8" d="M37.93 8.15L33.14 13 23.8 3.63a31.64 31.64 0 0 1 8.48-1.13z"/><path class="cls-9" d="M37.93 8.15l-1.72 1.73a35.11 35.11 0 0 0-6.31-.17l-6.1-6.08a31.78 31.78 0 0 1 8.48-1.13z"/><path class="cls-4" d="M37.93 8.15L33.14 13 23.8 3.63a31.64 31.64 0 0 1 8.48-1.13z"/><path class="cls-4" d="M2.52 32.3l5.63 5.63 4.85-4.8-9.36-9.32a31.37 31.37 0 0 0-1.12 8.49z"/></g></svg>