<svg xmlns="http://www.w3.org/2000/svg" viewBox="0 0 48 48"><defs><style>.cls-4{fill:none;stroke:#45413c;stroke-linecap:round;stroke-linejoin:round;stroke-width:1.01px}.cls-5{fill:#87898c}.cls-6{fill:#bdbec0}</style></defs><ellipse cx="24" cy="46.44" rx="13.53" ry="1.56" fill="#45413c" opacity=".15"/><path d="M39.58 20.51c4-6.35 2.71-14.26-2.77-17.66s-13.12-1-17.07 5.35a15.11 15.11 0 0 0-2.27 8.8c.1 5.35 2.05 10.21-.43 14.21L15.27 34l3.18 2 1.76-2.85c2.48-4 7.71-4.41 12.54-6.69a15.06 15.06 0 0 0 6.83-5.95zm-19.84 9.84a20.86 20.86 0 0 0 .62-6.29 11.77 11.77 0 0 0 2.16 1.8A12.09 12.09 0 0 0 25.1 27a21.22 21.22 0 0 0-5.36 3.35zM24 23.48c-4.16-2.58-5-8.76-1.88-13.8s9-7 13.21-4.45S40.33 14 37.2 19s-9.04 7.07-13.2 4.48z" fill="#ff8a14"/><path d="M19.86 10.94c3.94-6.36 11.58-8.75 17.06-5.35a10.89 10.89 0 0 1 4.94 7.86 11.38 11.38 0 0 0-5-10.6c-5.48-3.4-13.12-1-17.07 5.35a15.11 15.11 0 0 0-2.32 8.8q0 .87.09 1.71a15.21 15.21 0 0 1 2.3-7.77z" fill="#ffaa54"/><path class="cls-4" d="M39.58 20.51c4-6.35 2.71-14.26-2.77-17.66s-13.12-1-17.07 5.35a15.11 15.11 0 0 0-2.27 8.8c.1 5.35 2.05 10.21-.43 14.21L15.27 34l3.18 2 1.76-2.85c2.48-4 7.71-4.41 12.54-6.69a15.06 15.06 0 0 0 6.83-5.95zm-19.84 9.84a20.86 20.86 0 0 0 .62-6.29 11.77 11.77 0 0 0 2.16 1.8A12.09 12.09 0 0 0 25.1 27a21.22 21.22 0 0 0-5.36 3.35zM24 23.48c-4.16-2.58-5-8.76-1.88-13.8s9-7 13.21-4.45S40.33 14 37.2 19s-9.04 7.07-13.2 4.48z"/><path class="cls-5" d="M13.61 31.19h2.8a.93.93 0 0 1 .93.93v12.62h-4.66V32.13a.93.93 0 0 1 .93-.94z" transform="rotate(31.82 15.017 37.976)"/><path class="cls-6" d="M18.59 32.22l-1.2-.75a.93.93 0 0 0-1.28.3L9.46 42.49l2 1.24z"/><path class="cls-4" d="M13.61 31.19h2.8a.93.93 0 0 1 .93.93v12.62h-4.66V32.13a.93.93 0 0 1 .93-.94z" transform="rotate(31.82 15.017 37.976)"/><rect class="cls-5" x="8.76" y="42.35" width="5.6" height="2.34" rx=".93" ry=".93" transform="rotate(31.82 11.573 43.529)"/><path class="cls-6" d="M11.07 43.83l.43-.71a1.05 1.05 0 0 1 .86-.48l-1.77-1.1a.93.93 0 0 0-1.28.31l-.25.39a.94.94 0 0 0 .3 1.29l1.57 1a1 1 0 0 1 .14-.7z"/><rect class="cls-4" x="8.76" y="42.35" width="5.6" height="2.34" rx=".93" ry=".93" transform="rotate(31.82 11.573 43.529)"/><path class="cls-4" d="M35.33 5.23L24 23.48"/><path class="cls-4" d="M31.08 4.1L21.1 20.18"/><path class="cls-4" d="M38.23 8.53l-9.98 16.08"/><path class="cls-4" d="M22.38 9.28l15.07 9.36"/><path class="cls-4" d="M26.19 5.6l12.86 7.99"/><path class="cls-4" d="M20.28 15.12l12.86 7.99"/><path d="M39 34.62a3.74 3.74 0 1 1-4.69-2.42A3.74 3.74 0 0 1 39 34.62z" fill="#9ceb60"/><path d="M34.26 34.26A3.74 3.74 0 0 1 39 36.68a.44.44 0 0 1 0 .1 3.73 3.73 0 1 0-7.18 0 3.71 3.71 0 0 1 2.44-2.52z" fill="#c8ffa1"/><path class="cls-4" d="M39 34.62a3.74 3.74 0 1 1-4.69-2.42A3.74 3.74 0 0 1 39 34.62z"/><path class="cls-4" d="M36.79 32.29a5.81 5.81 0 0 0-.06 3 5.87 5.87 0 0 0 1.81 2.45"/><path class="cls-4" d="M32.25 33.74a6 6 0 0 1 1.81 2.44 5.81 5.81 0 0 1-.07 3"/></svg>