<svg xmlns="http://www.w3.org/2000/svg" viewBox="0 0 48 48"><defs><style>.cls-4{fill:none;stroke:#45413c;stroke-linecap:round;stroke-linejoin:round}</style></defs><g><ellipse cx="24" cy="45.24" rx="13.53" ry="1.76" fill="#45413c" opacity=".15"/><circle cx="24" cy="24" r="20" fill="#656769"/><path d="M24 39.66A20 20 0 0 1 4.12 21.83C4.05 22.54 4 23.27 4 24a20 20 0 0 0 40 0c0-.73 0-1.46-.12-2.17A20 20 0 0 1 24 39.66z" fill="#525252"/><circle class="cls-4" cx="24" cy="24" r="20"/><circle cx="24" cy="24" r="8.82" fill="#fff" stroke="#45413c" stroke-linecap="round" stroke-linejoin="round"/><ellipse class="cls-4" cx="24" cy="21.57" rx="2.5" ry="1.91"/><ellipse class="cls-4" cx="24" cy="25.91" rx="3.06" ry="2.43"/><path d="M29 7.63c0 1.08-2.24 2-5 2s-5-.88-5-2 2.24-2 5-2 5 .91 5 2z" fill="#87898c"/></g></svg>