<svg xmlns="http://www.w3.org/2000/svg" viewBox="0 0 48 48"><defs><style>.cls-3,.cls-4{fill:none;stroke:#45413c;stroke-linecap:round;stroke-linejoin:round}.cls-4{fill:#fff}.cls-7{fill:#00b8f0}</style></defs><g><circle cx="24" cy="24" r="18.61" fill="#ff6242"/><path d="M24 9.18A18.62 18.62 0 0 1 42.52 25.9c.06-.63.09-1.26.09-1.9a18.61 18.61 0 0 0-37.22 0c0 .64 0 1.27.09 1.9A18.62 18.62 0 0 1 24 9.18z" fill="#ff866e"/><circle class="cls-3" cx="24" cy="24" r="18.61"/><circle class="cls-4" cx="24" cy="24" r="14.1"/><circle cx="24" cy="24" r="9.59" stroke="#45413c" stroke-linecap="round" stroke-linejoin="round" fill="#ff6242"/><circle class="cls-4" cx="24" cy="24" r="4.51"/><path d="M38.24 38a1.12 1.12 0 0 1-1.59 0L23.49 24.8a1.13 1.13 0 0 1 0-1.6 1.12 1.12 0 0 1 1.59 0l13.16 13.16a1.13 1.13 0 0 1 0 1.64z" fill="#00b8f0" stroke="#45413c" stroke-linecap="round" stroke-linejoin="round"/><path class="cls-7" d="M30.27 28.38s6.65-1.76 10.37.8c3.54 2.45 1.72 5.76-.8 6.38-2.08.52-4-1.59-4-1.59z"/><path d="M40.64 32a5 5 0 0 1 1.61 1.73c.69-1.32.49-3.07-1.61-4.52-3.72-2.56-10.37-.8-10.37-.8l2.36 2.36c2.27-.31 5.71-.39 8.01 1.23z" fill="#4acfff"/><path class="cls-3" d="M30.27 28.38s6.65-1.76 10.37.8c3.54 2.45 1.72 5.76-.8 6.38-2.08.52-4-1.59-4-1.59z"/><path class="cls-7" d="M28.68 30s-1.76 6.65.8 10.37c2.44 3.54 5.76 1.72 6.38-.8.52-2.09-1.59-4-1.59-4z"/><path d="M35.53 40.44a3.81 3.81 0 0 0 .33-.87c.52-2.09-1.59-4-1.59-4L28.68 30a21.92 21.92 0 0 0-.51 3.09z" fill="#009fd9"/><path class="cls-3" d="M28.68 30s-1.76 6.65.8 10.37c2.44 3.54 5.76 1.72 6.38-.8.52-2.09-1.59-4-1.59-4z"/><ellipse cx="24" cy="45.31" rx="12.97" ry="1.69" fill="#45413c" opacity=".15"/></g></svg>