<svg xmlns="http://www.w3.org/2000/svg" viewBox="0 0 48 48"><defs><style>.cls-4{fill:none}.cls-10,.cls-11,.cls-4{stroke:#45413c;stroke-linecap:round;stroke-linejoin:round}.cls-10,.cls-5{fill:#656769}.cls-11,.cls-7{fill:#87898c}</style></defs><g><ellipse cx="22.68" cy="46.5" rx="13" ry="1.5" fill="#45413c" opacity=".15"/><rect x="10.88" y="4.51" width="28" height="40" rx="2.64" ry="2.64" transform="rotate(11.5 24.488 24.62)" fill="#fff"/><path d="M32.71 43.57l-24-5.12a2.65 2.65 0 0 1-1-.45l-.12.57a2.63 2.63 0 0 0 2 3.13l22.22 4.74a2.63 2.63 0 0 0 3.13-2l.36-1.69a2.72 2.72 0 0 1-2.59.82z" fill="#e0e0e0"/><rect class="cls-4" x="10.88" y="4.51" width="28" height="40" rx="2.64" ry="2.64" transform="rotate(12.03 24.895 24.533)"/><path class="cls-5" d="M31.42 34.6s-.24-4.66-7.37-6.18S14.31 31 14.31 31a27.32 27.32 0 0 1 4.08.13c-.61 2.85.67 4 .67 4s2.12-2.62 4.05-2.2 2.8 3.66 2.8 3.66a4.39 4.39 0 0 0 2.22-3.31 19.35 19.35 0 0 1 3.29 1.32z"/><path d="M18.28 28.44A8.06 8.06 0 0 0 29.49 31a11.14 11.14 0 0 0-5.37-2.54 12.28 12.28 0 0 0-5.84-.02z" fill="#525252"/><path class="cls-4" d="M31.42 34.6s-.24-4.66-7.37-6.18S14.31 31 14.31 31a27.32 27.32 0 0 1 4.08.13c-.61 2.85.67 4 .67 4s2.12-2.62 4.05-2.2 2.8 3.66 2.8 3.66a4.39 4.39 0 0 0 2.22-3.31 19.35 19.35 0 0 1 3.29 1.32z"/><path class="cls-5" d="M33.62 16.63a4.88 4.88 0 0 0-3.76.28 6.26 6.26 0 0 1 0-1.09c.14-2.45 1.48-2.77 1.48-2.77a7.36 7.36 0 0 0-5.38-.59A5.18 5.18 0 0 0 23 15.08a4.75 4.75 0 0 0-2.88-1.33c-2.06-.19-3.07 1.94-3.07 1.94a3 3 0 0 1 1.85.9c.66.8 1 2.25.08 6.62l11.82 2.52c.93-4.38 2.2-5.93 3.12-6.39a2.66 2.66 0 0 1 1.82-.18 3.13 3.13 0 0 0-2.12-2.53z"/><g><path class="cls-7" d="M20.12 15.92A4.75 4.75 0 0 1 23 17.25a5.18 5.18 0 0 1 2.92-2.62 6.63 6.63 0 0 1 4.09.06c.4-1.41 1.29-1.64 1.29-1.64a7.36 7.36 0 0 0-5.38-.59A5.18 5.18 0 0 0 23 15.08a4.75 4.75 0 0 0-2.88-1.33c-2.06-.19-3.07 1.94-3.07 1.94a3.2 3.2 0 0 1 1.51.58 2.6 2.6 0 0 1 1.56-.35z"/><path class="cls-7" d="M29.82 18a6.3 6.3 0 0 0 0 1.09 4.88 4.88 0 0 1 3.76-.28 3.49 3.49 0 0 1 .75.37 2.74 2.74 0 0 1 1.37 0 3.13 3.13 0 0 0-2.12-2.53 4.79 4.79 0 0 0-3.6.21 4.87 4.87 0 0 0-.16 1.14z"/><path class="cls-7" d="M19.48 20.19a27.94 27.94 0 0 1-.5 3l.38.09a10.78 10.78 0 0 0 .12-3.09z"/></g><path id="_Compound_Path_2" class="cls-4" d="M33.62 16.63a4.88 4.88 0 0 0-3.76.28 6.26 6.26 0 0 1 0-1.09c.14-2.45 1.48-2.77 1.48-2.77a7.36 7.36 0 0 0-5.38-.59A5.18 5.18 0 0 0 23 15.08a4.75 4.75 0 0 0-2.88-1.33c-2.06-.19-3.07 1.94-3.07 1.94a3 3 0 0 1 1.85.9c.66.8 1 2.25.08 6.62l11.82 2.52c.93-4.38 2.2-5.93 3.12-6.39a2.66 2.66 0 0 1 1.82-.18 3.13 3.13 0 0 0-2.12-2.53z"/><path d="M29.7 20.83a5 5 0 0 1-4.18.69A5 5 0 0 1 22 19.18a6 6 0 1 0 7.72 1.65z" fill="#ffdcd1"/><path d="M21 21.24a6.46 6.46 0 0 0 4.26 2.49 6.5 6.5 0 0 0 4.9-.53 6.25 6.25 0 0 1 .81 1.12 6 6 0 0 0-1.22-3.49 5 5 0 0 1-4.18.69A5 5 0 0 1 22 19.18a6 6 0 0 0-2.73 3.16 6.63 6.63 0 0 1 1.73-1.1z" fill="#ffcebf"/><path class="cls-4" d="M29.7 20.83a5 5 0 0 1-4.18.69A5 5 0 0 1 22 19.18a6 6 0 1 0 7.72 1.65z"/><path class="cls-10" d="M27.81 25.14a.5.5 0 1 1-1-.21.5.5 0 1 1 1 .21z"/><path class="cls-10" d="M22.92 24.1a.5.5 0 1 1-1-.21.5.5 0 1 1 1 .21z"/><path class="cls-11" d="M16.84 16.66a1 1 0 1 1-.77-1.18 1 1 0 0 1 .77 1.18z"/><path class="cls-11" d="M37.59 20.06a1 1 0 1 1-.77-1.18 1 1 0 0 1 .77 1.18z"/><path class="cls-11" d="M33.36 13.54a1 1 0 1 1-.77-1.19 1 1 0 0 1 .77 1.19z"/><path class="cls-10" d="M22.68 27.62a2.53 2.53 0 0 0 2.94.63"/></g></svg>