<svg xmlns="http://www.w3.org/2000/svg" viewBox="0 0 48 48"><defs><style>.cls-2{fill:#87898c}.cls-3{fill:#bdbec0}.cls-4{fill:none;stroke:#45413c;stroke-linecap:round;stroke-linejoin:round}</style></defs><ellipse cx="24" cy="45.5" rx="13.5" ry="1.5" fill="#45413c" opacity=".15"/><path class="cls-2" d="M35.82 2.3h-1.25a1 1 0 0 0-1 1v11a4 4 0 0 0-3.24-.2 4.1 4.1 0 0 0 2.05 7.9 4.2 4.2 0 0 0 3.44-4.21V6.82c4.64 0 8.47 2 9.17 5.27a8.22 8.22 0 0 0 .13-1.41c0-4.9-4.12-8.38-9.3-8.38z"/><g><path class="cls-3" d="M34.57 4.39h1.25c4.76 0 8.67 3 9.22 7.31a6.9 6.9 0 0 0 .08-1c0-4.9-4.16-8.38-9.3-8.38h-1.25a1 1 0 0 0-1 1v2.07a1 1 0 0 1 1-1z"/><path class="cls-3" d="M27.76 19a4.16 4.16 0 0 1 2.57-2.81 4.1 4.1 0 0 1 1.54-.25 1.63 1.63 0 0 0 1.7-1.63 4 4 0 0 0-3.24-.2A4.07 4.07 0 0 0 27.76 19z"/></g><path class="cls-4" d="M35.82 2.3h-1.25a1 1 0 0 0-1 1v11a4 4 0 0 0-3.24-.2 4.1 4.1 0 0 0 2.05 7.9 4.2 4.2 0 0 0 3.44-4.21V6.82c4.64 0 8.47 2 9.17 5.27a8.22 8.22 0 0 0 .13-1.41c0-4.9-4.12-8.38-9.3-8.38z"/><path class="cls-2" d="M24.1 24.55h-1.26a1 1 0 0 0-1 1v11a3.94 3.94 0 0 0-3.23-.2 4.1 4.1 0 0 0 2.05 7.9A4.2 4.2 0 0 0 24.1 40V29.07c4.63 0 8.46 2 9.17 5.27a8.22 8.22 0 0 0 .13-1.41c0-4.93-4.16-8.38-9.3-8.38z"/><g><path class="cls-3" d="M21.84 27.64a1 1 0 0 1 1-1h1.26c4.75 0 8.66 3 9.22 7.31a8.59 8.59 0 0 0 .08-1c0-4.9-4.16-8.38-9.3-8.38h-1.26a1 1 0 0 0-1 1z"/><path class="cls-3" d="M16 41.21a4.13 4.13 0 0 1 2.57-2.81 4 4 0 0 1 1.56-.25 1.6 1.6 0 0 0 1.67-1.6 3.94 3.94 0 0 0-3.23-.2A4.11 4.11 0 0 0 16 39.41a4 4 0 0 0 0 1.8z"/></g><path class="cls-4" d="M24.1 24.55h-1.26a1 1 0 0 0-1 1v11a3.94 3.94 0 0 0-3.23-.2 4.1 4.1 0 0 0 2.05 7.9A4.2 4.2 0 0 0 24.1 40V29.07c4.63 0 8.46 2 9.17 5.27a8.22 8.22 0 0 0 .13-1.41c0-4.93-4.16-8.38-9.3-8.38z"/><path class="cls-2" d="M13.1 4.84h-1.26a1 1 0 0 0-1 1v11a3.9 3.9 0 0 0-3.23-.21 4.1 4.1 0 0 0 2.05 7.9 4.2 4.2 0 0 0 3.44-4.21V9.35c4.63 0 8.46 2 9.17 5.27a8.1 8.1 0 0 0 .13-1.4c0-4.91-4.16-8.38-9.3-8.38z"/><g><path class="cls-3" d="M11.84 6.92h1.26c4.75 0 8.66 3 9.22 7.31a8.42 8.42 0 0 0 .08-1c0-4.91-4.16-8.38-9.3-8.38h-1.26a1 1 0 0 0-1 1v2.07a1 1 0 0 1 1-1z"/><path class="cls-3" d="M5 21.49a4.13 4.13 0 0 1 2.57-2.81 4.31 4.31 0 0 1 1.54-.25 1.62 1.62 0 0 0 1.69-1.62 3.9 3.9 0 0 0-3.23-.21A4.11 4.11 0 0 0 5 19.69a4 4 0 0 0 0 1.8z"/></g><path class="cls-4" d="M13.1 4.84h-1.26a1 1 0 0 0-1 1v11a3.9 3.9 0 0 0-3.23-.21 4.1 4.1 0 0 0 2.05 7.9 4.2 4.2 0 0 0 3.44-4.21V9.35c4.63 0 8.46 2 9.17 5.27a8.1 8.1 0 0 0 .13-1.4c0-4.91-4.16-8.38-9.3-8.38z"/></svg>