<svg xmlns="http://www.w3.org/2000/svg" viewBox="0 0 48 48"><defs><style>.cls-1{fill:#bdbec0}.cls-3{fill:none;stroke:#45413c;stroke-linecap:round;stroke-linejoin:round}</style></defs><g><path class="cls-1" d="M8.7 35.44h5v3.5a1 1 0 0 1-1 1h-3a1 1 0 0 1-1-1v-3.5z" transform="rotate(45 11.199 37.689)"/><path d="M12.71 36l-3.18 3.2-1-1a1 1 0 0 1 0-1.41L11 34.33z" fill="#e0e0e0"/><path class="cls-3" d="M8.7 35.44h5v3.5a1 1 0 0 1-1 1h-3a1 1 0 0 1-1-1v-3.5z" transform="rotate(45 11.199 37.689)"/><path d="M8.87 38.54l-2.8 2.81a1 1 0 0 0 1.41 1.41l2.8-2.8z" fill="#87898c" stroke="#45413c" stroke-linecap="round" stroke-linejoin="round"/><ellipse cx="20" cy="43.5" rx="12" ry="1.5" fill="#45413c" opacity=".15"/><path d="M14.61 38L11 34.31a1 1 0 0 1-.09-1.31l15.67-18.32a1 1 0 0 1 1.47-.06l6.25 6.25a1 1 0 0 1-.06 1.47L16 38a1 1 0 0 1-1.39 0z" fill="#c0dceb"/><path d="M30 16.54l-1.92-1.92a1 1 0 0 0-1.47.06L10.91 33a1 1 0 0 0 .09 1.31L12.69 36z" fill="#daedf7"/><path class="cls-3" d="M14.61 38L11 34.31a1 1 0 0 1-.09-1.31l15.67-18.32a1 1 0 0 1 1.47-.06l6.25 6.25a1 1 0 0 1-.06 1.47L16 38a1 1 0 0 1-1.39 0z"/><circle cx="34" cy="14.83" r="8.5" fill="#87898c"/><path class="cls-1" d="M28 12.82a8.5 8.5 0 0 1 12 0 8.39 8.39 0 0 1 2.24 4 8.49 8.49 0 1 0-16.5 0 8.39 8.39 0 0 1 2.26-4z"/><circle class="cls-3" cx="34" cy="14.83" r="8.5"/><path d="M40.36 19.78L29.05 8.47a1 1 0 0 0-1.41 0 1 1 0 0 0 0 1.41L39 21.19a1 1 0 0 0 1.41-1.41z" fill="#daedf7" stroke="#45413c" stroke-linecap="round" stroke-linejoin="round"/><path transform="rotate(45 23.57 25.253)" fill="#8ca4b8" stroke="#45413c" stroke-linecap="round" stroke-linejoin="round" d="M22.57 22.51h2v5.5h-2z"/><path transform="rotate(45 24.634 24.204)" fill="#e8f4fa" stroke="#45413c" stroke-linecap="round" stroke-linejoin="round" d="M23.63 22.95h2v2.5h-2z"/></g></svg>