<svg xmlns="http://www.w3.org/2000/svg" viewBox="0 0 48 48"><defs><style>.cls-3{fill:#f0d5a8}.cls-4{fill:none}.cls-11,.cls-4{stroke:#45413c;stroke-linecap:round;stroke-linejoin:round}.cls-11,.cls-5{fill:#daedf7}.cls-6{fill:#e8f4fa}.cls-9{fill:#f7e5c6}</style></defs><g><ellipse cx="24" cy="43.33" rx="17.8" ry="1.67" fill="#45413c" opacity=".15"/><rect x="4.53" y="14.13" width="38.94" height="28.37" rx="4.45" ry="4.45" fill="#debb7e"/><path class="cls-3" d="M39 14.13H9a4.45 4.45 0 0 0-4.45 4.45v2.78A4.45 4.45 0 0 1 9 16.91h30a4.45 4.45 0 0 1 4.45 4.45v-2.78A4.45 4.45 0 0 0 39 14.13z"/><rect class="cls-4" x="4.53" y="14.13" width="38.94" height="28.37" rx="4.45" ry="4.45"/><path class="cls-5" d="M2.86 19.69h1.67v5.56H2.86a1.11 1.11 0 0 1-1.11-1.11V20.8a1.11 1.11 0 0 1 1.11-1.11z"/><path class="cls-5" d="M43.47 19.69h1.67a1.11 1.11 0 0 1 1.11 1.11v3.34a1.11 1.11 0 0 1-1.11 1.11h-1.67v-5.56z"/><path class="cls-6" d="M2.86 19.69a1.11 1.11 0 0 0-1.11 1.11v1.81a1.11 1.11 0 0 1 1.11-1.11h1.67v-1.81z"/><path class="cls-6" d="M45.14 19.69h-1.67v1.81h1.67a1.11 1.11 0 0 1 1.11 1.11V20.8a1.11 1.11 0 0 0-1.11-1.11z"/><path class="cls-4" d="M2.86 19.69h1.67v5.56H2.86a1.11 1.11 0 0 1-1.11-1.11V20.8a1.11 1.11 0 0 1 1.11-1.11z"/><path class="cls-4" d="M43.47 19.69h1.67a1.11 1.11 0 0 1 1.11 1.11v3.34a1.11 1.11 0 0 1-1.11 1.11h-1.67v-5.56z"/><path d="M9.54 16.91h28.92a2.22 2.22 0 0 1 2.22 2.22v6.67H7.31v-6.67a2.22 2.22 0 0 1 2.23-2.22z" fill="#bdbec0"/><path d="M38.46 16.91H9.54a2.23 2.23 0 0 0-2.23 2.22v2.23a2.23 2.23 0 0 1 2.23-2.23h28.92a2.23 2.23 0 0 1 2.23 2.23v-2.23a2.23 2.23 0 0 0-2.23-2.22z" fill="#87898c"/><path class="cls-4" d="M9.54 16.91h28.92a2.22 2.22 0 0 1 2.22 2.22v6.67H7.31v-6.67a2.22 2.22 0 0 1 2.23-2.22z"/><path class="cls-9" d="M7.31 25.81h33.38v11.68a2.22 2.22 0 0 1-2.22 2.22H9.54a2.22 2.22 0 0 1-2.22-2.22V25.81h-.01z"/><path class="cls-3" d="M7.31 25.81h33.37v2.5H7.31z"/><path class="cls-4" d="M7.31 25.81h33.38v11.68a2.22 2.22 0 0 1-2.22 2.22H9.54a2.22 2.22 0 0 1-2.22-2.22V25.81h-.01z"/><circle class="cls-3" cx="11.76" cy="21.36" r="2.22"/><circle class="cls-3" cx="36.24" cy="21.36" r="2.22"/><path class="cls-9" d="M11.76 20.8a2.22 2.22 0 0 1 2.06 1.39 2.09 2.09 0 0 0 .17-.83 2.23 2.23 0 1 0-4.45 0 2.27 2.27 0 0 0 .16.83 2.23 2.23 0 0 1 2.06-1.39z"/><path class="cls-9" d="M36.24 20.8a2.23 2.23 0 0 1 2.06 1.39 2.27 2.27 0 0 0 .16-.83 2.23 2.23 0 1 0-4.45 0 2.09 2.09 0 0 0 .17.83 2.22 2.22 0 0 1 2.06-1.39z"/><circle class="cls-4" cx="11.76" cy="21.36" r="2.22"/><circle class="cls-4" cx="36.24" cy="21.36" r="2.22"/><rect x="16.21" y="19.13" width="15.57" height="4.45" rx="1.11" ry="1.11" fill="#e8f4fa" stroke="#45413c" stroke-linecap="round" stroke-linejoin="round"/><path class="cls-4" d="M22.33 23.58V20.8"/><path class="cls-4" d="M16.21 21.36h15.58"/><path class="cls-11" d="M12.75 13l-.43-2.18 21.3-4.25a1.12 1.12 0 0 1 .44 2.19z"/><path class="cls-4" d="M34.93 7.49l5.76-1.15"/><path class="cls-11" d="M12.32 10.79a1.67 1.67 0 0 0-1.67 1.67v1.67H14v-1.67a1.67 1.67 0 0 0-1.68-1.67z"/><path class="cls-4" d="M10.09 28.59h27.82"/><path class="cls-4" d="M10.09 31.37h27.82"/><path class="cls-4" d="M10.09 34.15h27.82"/><path class="cls-4" d="M10.09 36.93h27.82"/></g></svg>