<svg xmlns="http://www.w3.org/2000/svg" viewBox="0 0 48 48"><defs><style>.cls-10,.cls-2{fill:#525252}.cls-2,.cls-5,.cls-9{stroke:#45413c;stroke-linecap:round;stroke-linejoin:round}.cls-3{fill:#656769}.cls-5{fill:none}.cls-6{fill:#fff}.cls-9{fill:#bdbec0}.cls-8{fill:#e0e0e0}</style></defs><g><ellipse cx="24" cy="44.7" rx="21.49" ry="2.3" fill="#45413c" opacity=".15"/><path class="cls-2" d="M5.58 11.5h36.84v3.84H5.58z"/><path class="cls-3" d="M8.65 3.06h30.7a3.07 3.07 0 0 1 3.07 3.07v5.37H5.58V6.13a3.07 3.07 0 0 1 3.07-3.07z"/><path d="M39.35 3.06H8.65a3.07 3.07 0 0 0-3.07 3.07V10a3.08 3.08 0 0 1 3.07-3.11h30.7A3.08 3.08 0 0 1 42.42 10V6.13a3.07 3.07 0 0 0-3.07-3.07z" fill="#87898c"/><path class="cls-5" d="M8.65 3.06h30.7a3.07 3.07 0 0 1 3.07 3.07v5.37H5.58V6.13a3.07 3.07 0 0 1 3.07-3.07z"/><path class="cls-6" d="M5.58 15.34h9.21v25.33H5.58z"/><path class="cls-6" d="M14.79 15.34H24v25.33h-9.21z"/><path class="cls-6" d="M24 15.34h9.21v25.33H24z"/><path class="cls-6" d="M33.21 15.34h9.21v25.33h-9.21z"/><path fill="#bdbec0" d="M5.58 15.34h9.21v5.08H5.58z"/><path class="cls-8" d="M14.79 15.34H24v5.08h-9.21z"/><path class="cls-8" d="M24 15.34h9.21v5.08H24z"/><path class="cls-8" d="M33.21 15.34h9.21v5.08h-9.21z"/><path class="cls-5" d="M5.58 15.34h9.21v25.33H5.58z"/><path class="cls-5" d="M14.79 15.34H24v25.33h-9.21z"/><path class="cls-5" d="M24 15.34h9.21v25.33H24z"/><path class="cls-5" d="M33.21 15.34h9.21v25.33h-9.21z"/><path class="cls-9" d="M5.58 40.66h9.21v3.84H8.65a3.07 3.07 0 0 1-3.07-3.07v-.77z"/><path class="cls-9" d="M14.79 40.66H24v3.84h-9.21z"/><path class="cls-9" d="M24 40.66h9.21v3.84H24z"/><path class="cls-9" d="M33.21 40.66h9.21v.77a3.07 3.07 0 0 1-3.07 3.07h-6.14v-3.84z"/><path class="cls-3" d="M12.61 14.57H17a.89.89 0 0 1 .89.89v12.92h-6.17V15.45a.89.89 0 0 1 .89-.88z"/><path class="cls-3" d="M21.82 14.57h4.37a.89.89 0 0 1 .89.89v12.92h-6.15V15.45a.89.89 0 0 1 .89-.88z"/><path class="cls-3" d="M31 14.57h4.37a.89.89 0 0 1 .89.89v12.92h-6.12V15.45a.89.89 0 0 1 .86-.88z"/><path class="cls-10" d="M17 14.57h-4.39a.88.88 0 0 0-.89.88v2.88a.88.88 0 0 1 .89-.88H17a.88.88 0 0 1 .89.88v-2.88a.88.88 0 0 0-.89-.88z"/><path class="cls-10" d="M26.18 14.57h-4.36a.88.88 0 0 0-.89.88v2.88a.88.88 0 0 1 .89-.88h4.36a.88.88 0 0 1 .89.88v-2.88a.88.88 0 0 0-.89-.88z"/><path class="cls-10" d="M35.39 14.57H31a.88.88 0 0 0-.89.88v2.88a.88.88 0 0 1 .89-.88h4.36a.88.88 0 0 1 .89.88v-2.88a.88.88 0 0 0-.86-.88z"/><path class="cls-5" d="M12.61 14.57H17a.89.89 0 0 1 .89.89v12.92h-6.17V15.45a.89.89 0 0 1 .89-.88z"/><path class="cls-5" d="M21.82 14.57h4.37a.89.89 0 0 1 .89.89v12.92h-6.15V15.45a.89.89 0 0 1 .89-.88z"/><path class="cls-5" d="M31 14.57h4.37a.89.89 0 0 1 .89.89v12.92h-6.12V15.45a.89.89 0 0 1 .86-.88z"/><path class="cls-2" d="M11.72 28.38h6.14v3.07h-6.14z"/><path class="cls-2" d="M20.93 28.38h6.14v3.07h-6.14z"/><path class="cls-2" d="M30.14 28.38h6.14v3.07h-6.14z"/></g></svg>