<svg xmlns="http://www.w3.org/2000/svg" viewBox="0 0 48 48"><defs><style>.cls-2,.cls-6{fill:#ffe500}.cls-3{fill:#fff48c}.cls-4{fill:none}.cls-4,.cls-6{stroke:#45413c;stroke-linecap:round;stroke-linejoin:round}.cls-5{fill:#ebcb00}</style></defs><ellipse cx="24.55" cy="37.5" rx="15.5" ry="1.5" fill="#45413c" opacity=".15"/><path class="cls-2" d="M23.12 20.73A5 5 0 0 0 20 26.61a5 5 0 0 0 5.89 3.17l5.37-1.61-1.5-2.94-4.29 1.27a1.48 1.48 0 0 1-.85-2.83l19-5.68-.93-3.11z"/><g><path class="cls-3" d="M23.12 22.47l6.51-1.95 2.54-.77 10.47-3.13.46 1.52.47-.15-.93-3.11L32.17 18l-2.54.76-6.51 1.95a5 5 0 0 0-3.25 5.54 4.94 4.94 0 0 1 3.25-3.78z"/><path class="cls-3" d="M25.47 26.5a1.47 1.47 0 0 1-1.62-.5 1.47 1.47 0 0 0-.22 1.29 1.48 1.48 0 0 0 1.84 1L29.71 27l.73 1.43.77-.23-1.5-2.94z"/></g><path class="cls-4" d="M23.12 20.73A5 5 0 0 0 20 26.61a5 5 0 0 0 5.89 3.17l5.37-1.61-1.5-2.94-4.29 1.27a1.48 1.48 0 0 1-.85-2.83l19-5.68-.93-3.11z"/><path class="cls-2" d="M40.86 15h2.36v4.13h-2.36A1.18 1.18 0 0 1 39.68 18v-1.8a1.18 1.18 0 0 1 1.18-1.2z" transform="rotate(-16.68 41.463 17.088)"/><path class="cls-3" d="M40.29 15.28a1.18 1.18 0 0 0-.79 1.47l.5 1.69a1.18 1.18 0 0 1 .8-1.44l2.27-.67-.51-1.7z"/><path class="cls-4" d="M40.86 15h2.36v4.13h-2.36A1.18 1.18 0 0 1 39.68 18v-1.8a1.18 1.18 0 0 1 1.18-1.2z" transform="rotate(-16.68 41.463 17.088)"/><path class="cls-2" d="M45.84 17.31L45 14.49a1.19 1.19 0 0 0-1.47-.8 1.18 1.18 0 0 0-.79 1.47l.83 2.84a1.18 1.18 0 1 0 2.27-.68z"/><path class="cls-3" d="M43.52 13.69a1.18 1.18 0 0 0-.79 1.47l.54 1.84a1.18 1.18 0 0 1 2.26-.68L45 14.49a1.19 1.19 0 0 0-1.48-.8z"/><path class="cls-4" d="M45.84 17.31L45 14.49a1.19 1.19 0 0 0-1.47-.8 1.18 1.18 0 0 0-.79 1.47l.83 2.84a1.18 1.18 0 1 0 2.27-.68z"/><path class="cls-2" d="M30.48 29.25L27 17.57a.72.72 0 0 0-.92-.43l-1.47.44a.74.74 0 0 0-.54.87l3.5 11.68a1.54 1.54 0 0 0 2.93-.88z"/><path class="cls-2" d="M33.42 28.43l-3.49-11.69a.74.74 0 0 0-.93-.43l-1.46.44a.72.72 0 0 0-.54.87l3.5 11.69a1.53 1.53 0 0 0 2.92-.88z"/><path class="cls-5" d="M28.12 26.72a1.45 1.45 0 0 1-1.85-.86l1.28 4.27a1.54 1.54 0 0 0 2.93-.88L29.2 25a1.46 1.46 0 0 1-1.08 1.72z"/><path class="cls-5" d="M31.07 25.89a1.44 1.44 0 0 1-1.85-.89l1.28 4.28a1.53 1.53 0 0 0 2.92-.88l-1.27-4.28a1.46 1.46 0 0 1-1.08 1.77z"/><path class="cls-4" d="M30.48 29.25L27 17.57a.72.72 0 0 0-.92-.43l-1.47.44a.74.74 0 0 0-.54.87l3.5 11.68a1.54 1.54 0 0 0 2.93-.88z"/><path class="cls-4" d="M33.42 28.43l-3.49-11.69a.74.74 0 0 0-.93-.43l-1.46.44a.72.72 0 0 0-.54.87l3.5 11.69a1.53 1.53 0 0 0 2.92-.88z"/><path class="cls-2" d="M32.17 18l-11 3.3c-6.5 1.95-17.82-3.9-17.82-3.9l6 20.08s6.23-11.11 12.74-13.06l10.45-3.12a1.48 1.48 0 0 1 .85 2.83l-1.15.35.93 3.11 1.72-.52a5 5 0 0 0 3.17-5.88A5 5 0 0 0 32.17 18z"/><g><path class="cls-3" d="M21.14 23l11-3.31a5 5 0 0 1 5.89 3.17c0 .13.07.25.09.38a4.27 4.27 0 0 0-.09-2A5 5 0 0 0 32.17 18l-11 3.3c-6.5 1.95-17.82-3.9-17.82-3.9l.59 1.95c2.37 1.18 11.58 5.33 17.2 3.65z"/></g><path class="cls-4" d="M32.17 18l-11 3.3c-6.5 1.95-17.82-3.9-17.82-3.9l6 20.08s6.23-11.11 12.74-13.06l10.45-3.12a1.48 1.48 0 0 1 .85 2.83l-1.15.35.93 3.11 1.72-.52a5 5 0 0 0 3.17-5.88A5 5 0 0 0 32.17 18z"/><path class="cls-6" d="M24.52 14.77l.78 2.6"/><path class="cls-6" d="M27.45 13.89l.77 2.6"/><path class="cls-6" d="M23.94 14.94l1.21-.37"/><path class="cls-6" d="M26.83 14.06l1.22-.36"/><path class="cls-2" d="M8.7 26.75c1.67 5.54 2 10.36.64 10.75S5.62 33.72 4 28.17s-2-10.36-.68-10.75S7 21.2 8.7 26.75z"/><path class="cls-5" d="M3.28 22.66c2-.58 4.91 3.43 6.58 9a39.58 39.58 0 0 0-1.16-4.91C7 21.2 4.63 17 3.32 17.42c-.87.26-1 2.47-.56 5.55a1.47 1.47 0 0 1 .52-.31z"/><path class="cls-4" d="M8.7 26.75c1.67 5.54 2 10.36.64 10.75S5.62 33.72 4 28.17s-2-10.36-.68-10.75S7 21.2 8.7 26.75z"/></svg>