<svg xmlns="http://www.w3.org/2000/svg" viewBox="0 0 48 48"><defs><style>.cls-4{fill:none;stroke:#45413c;stroke-linecap:round;stroke-linejoin:round}.cls-5{fill:#daedf7}.cls-7{fill:#fff}</style></defs><g><ellipse cx="24" cy="43.5" rx="14.5" ry="1.5" fill="#45413c" opacity=".15"/><path d="M38.55 9.45c-4.14-4.15-9.39-5.63-11.71-3.3L6.73 26.26c-1.93 1.93-.82 7.54 3.33 11.68s9.75 5.26 11.68 3.33l20.11-20.11c2.33-2.32.85-7.57-3.3-11.71z" fill="#6dd627"/><path d="M8.06 31.68l20.76-20.76c2.4-2.4 7.71-1 11.85 3.16a18.15 18.15 0 0 1 2.11 2.53 15.07 15.07 0 0 0-4.23-7.16c-4.14-4.15-9.39-5.63-11.71-3.3L6.73 26.26c-1.34 1.34-1.21 4.46.39 7.64a3.69 3.69 0 0 1 .94-2.22z" fill="#9ceb60"/><path class="cls-4" d="M38.55 9.45c-4.14-4.15-9.39-5.63-11.71-3.3L6.73 26.26c-1.93 1.93-.82 7.54 3.33 11.68s9.75 5.26 11.68 3.33l20.11-20.11c2.33-2.32.85-7.57-3.3-11.71z"/><path class="cls-5" d="M39.89 19.2c-1.54 1.55-5.27.31-8.34-2.75s-4.3-6.8-2.75-8.34 5.27-.31 8.34 2.75 4.29 6.8 2.75 8.34z"/><path d="M28.8 10.36c1.54-1.54 5.27-.31 8.34 2.75a12.07 12.07 0 0 1 3.25 5.27c.63-1.82-.64-4.91-3.25-7.52-3.07-3.06-6.8-4.29-8.34-2.75a3.15 3.15 0 0 0-.5 3.07 2.16 2.16 0 0 1 .5-.82z" fill="#c0dceb"/><path class="cls-4" d="M39.89 19.2c-1.54 1.55-5.27.31-8.34-2.75s-4.3-6.8-2.75-8.34 5.27-.31 8.34 2.75 4.29 6.8 2.75 8.34z"/><path class="cls-5" d="M33.67 9l-1.77 1.8c-.73.73-.14 2.51 1.33 4s3.24 2.06 4 1.33l1.77-1.8z"/><path class="cls-7" d="M33.19 12.72L35 11l3.69 3.69.32-.32L33.67 9l-1.77 1.8c-.71.71-.16 2.42 1.23 3.87a1.82 1.82 0 0 1 .06-1.95z"/><path class="cls-4" d="M33.67 9l-1.77 1.8c-.73.73-.14 2.51 1.33 4s3.24 2.06 4 1.33l1.77-1.8z"/><path class="cls-5" d="M39 14.33c-.74.73-2.51.14-4-1.32s-2.05-3.24-1.32-4 2.51-.13 4 1.33S39.7 13.6 39 14.33z"/><path class="cls-7" d="M34.66 11c.73-.74 2.51-.14 4 1.32a8.85 8.85 0 0 1 .59.67 5.55 5.55 0 0 0-1.58-2.64C36.18 8.9 34.4 8.3 33.67 9s-.28 2 .73 3.3a1.41 1.41 0 0 1 .26-1.3z"/><path class="cls-4" d="M39 14.33c-.74.73-2.51.14-4-1.32s-2.05-3.24-1.32-4 2.51-.13 4 1.33S39.7 13.6 39 14.33z"/><path class="cls-4" d="M29.92 18.08l-2.61 2.61"/><path class="cls-4" d="M27.4 18a10.78 10.78 0 0 0 1.21 1.4A10.78 10.78 0 0 0 30 20.6"/><path class="cls-4" d="M11.4 34a9.19 9.19 0 0 0 1.21 1.4A9.19 9.19 0 0 0 14 36.6"/></g></svg>