<svg xmlns="http://www.w3.org/2000/svg" viewBox="0 0 48 48"><defs><style>.cls-4{fill:none;stroke:#45413c;stroke-linecap:round;stroke-linejoin:round}.cls-5{fill:#e8f4fa}.cls-8{fill:#fff}</style></defs><path d="M45.5 45.18C45.5 46.29 35.87 47 24 47s-21.5-.71-21.5-1.82 9.63-2 21.5-2 21.5.89 21.5 2z" fill="#45413c" opacity=".15"/><rect x="3.84" y="3.84" width="40.31" height="40.31" rx="2.69" ry="2.69" fill="#656769"/><path d="M41.47 3.84H6.53a2.7 2.7 0 0 0-2.69 2.69v3.86a2.69 2.69 0 0 1 2.69-2.68h34.94a2.69 2.69 0 0 1 2.69 2.68V6.53a2.7 2.7 0 0 0-2.69-2.69z" fill="#87898c"/><rect class="cls-4" x="3.84" y="3.84" width="40.31" height="40.31" rx="2.69" ry="2.69"/><circle class="cls-5" cx="24" cy="24" r="15.45"/><path d="M24 12.07a15.45 15.45 0 0 1 15.35 13.69 14.6 14.6 0 0 0 .1-1.76 15.45 15.45 0 0 0-30.9 0 14.6 14.6 0 0 0 .1 1.76A15.45 15.45 0 0 1 24 12.07z" fill="#daedf7"/><circle class="cls-4" cx="24" cy="24" r="15.45"/><path d="M34.08 19.3h10.08v9.4H34.08a1.34 1.34 0 0 1-1.34-1.34v-6.72a1.34 1.34 0 0 1 1.34-1.34z" fill="#f0f0f0"/><path class="cls-8" d="M34.08 19.3a1.35 1.35 0 0 0-1.35 1.34v3.44a1.35 1.35 0 0 1 1.35-1.34h10.08V19.3z"/><path class="cls-4" d="M34.08 19.3h10.08v9.4H34.08a1.34 1.34 0 0 1-1.34-1.34v-6.72a1.34 1.34 0 0 1 1.34-1.34z"/><g><path class="cls-8" d="M24 24l-12.78 8.69A15.5 15.5 0 0 0 17.4 38z"/><path class="cls-8" d="M36.78 15.3a15.6 15.6 0 0 0-6.17-5.3L24 24z"/><path class="cls-5" d="M34.9 16.58l1.88-1.28a15.6 15.6 0 0 0-6.17-5.3l-1.4 3a15.33 15.33 0 0 1 5.69 3.58z"/></g><g><path class="cls-4" d="M11.22 32.69A15.5 15.5 0 0 0 17.4 38L24 24z"/><path class="cls-4" d="M36.78 15.3a15.6 15.6 0 0 0-6.17-5.3L24 24z"/></g><circle cx="24" cy="24" r="5.37" fill="#c0dceb" stroke="#45413c" stroke-linecap="round" stroke-linejoin="round"/><circle cx="24" cy="24" r="2.02" stroke="#45413c" stroke-linecap="round" stroke-linejoin="round" fill="#87898c"/></svg>