<svg xmlns="http://www.w3.org/2000/svg" viewBox="0 0 48 48"><defs><style>.cls-4{fill:none}.cls-12,.cls-4{stroke:#45413c;stroke-linecap:round;stroke-linejoin:round}.cls-5{fill:#f0f0f0}.cls-11{fill:#fff}.cls-12{fill:#915e3a}</style></defs><g><ellipse cx="24" cy="44.85" rx="16.5" ry="2.15" fill="#45413c" opacity=".15"/><path d="M10.14 3.41h27.72a5.28 5.28 0 0 1 5.28 5.28V36.9a4.8 4.8 0 0 1-4.8 4.8H9.65a4.8 4.8 0 0 1-4.8-4.8V8.69a5.28 5.28 0 0 1 5.28-5.28z" fill="#bf8256"/><path d="M37.86 3.41H10.14a5.28 5.28 0 0 0-5.29 5.28v4.62A5.28 5.28 0 0 1 10.14 8h27.72a5.28 5.28 0 0 1 5.29 5.28V8.69a5.28 5.28 0 0 0-5.29-5.28z" fill="#dea47a"/><path class="cls-4" d="M10.14 3.41h27.72a5.28 5.28 0 0 1 5.28 5.28V36.9a4.8 4.8 0 0 1-4.8 4.8H9.65a4.8 4.8 0 0 1-4.8-4.8V8.69a5.28 5.28 0 0 1 5.28-5.28z"/><rect class="cls-5" x="8.15" y="6.71" width="31.69" height="26.41" rx="2.71" ry="2.71"/><path d="M37.14 6.71H10.86a2.71 2.71 0 0 0-2.71 2.71v4a2.71 2.71 0 0 1 2.71-2.71h26.28a2.71 2.71 0 0 1 2.71 2.71v-4a2.71 2.71 0 0 0-2.71-2.71z" fill="#bdbec0"/><rect class="cls-4" x="8.15" y="6.71" width="31.69" height="26.41" rx="2.71" ry="2.71"/><path d="M34.61 30a62.48 62.48 0 0 1-21.22 0 2.88 2.88 0 0 1-2.33-2.26 39.39 39.39 0 0 1 0-15.6 2.89 2.89 0 0 1 2.33-2.26 62.48 62.48 0 0 1 21.22 0 2.89 2.89 0 0 1 2.33 2.26 39.39 39.39 0 0 1 0 15.6A2.88 2.88 0 0 1 34.61 30z" fill="#00b8f0"/><path d="M11.06 12.11a39.39 39.39 0 0 0 0 15.6A2.88 2.88 0 0 0 13.39 30c.92.16 1.85.3 2.77.41l19.53-20.1a2.81 2.81 0 0 0-1.08-.46 62.48 62.48 0 0 0-21.22 0 2.89 2.89 0 0 0-2.33 2.26z" fill="#4acfff"/><path class="cls-4" d="M36.94 27.71a39.39 39.39 0 0 0 0-15.6 2.89 2.89 0 0 0-2.33-2.26 62.48 62.48 0 0 0-21.22 0 2.89 2.89 0 0 0-2.33 2.26 39.39 39.39 0 0 0 0 15.6A2.88 2.88 0 0 0 13.39 30a62.48 62.48 0 0 0 21.22 0 2.88 2.88 0 0 0 2.33-2.29z"/><path d="M29 37.08H19a2.64 2.64 0 0 0-2.62 2.26l-.33 2.36h15.87l-.33-2.36A2.64 2.64 0 0 0 29 37.08z" fill="#debb7e"/><path d="M31.59 39.34A2.64 2.64 0 0 0 29 37.08H19a2.64 2.64 0 0 0-2.62 2.26L16.19 41A2.86 2.86 0 0 1 19 38.73h10A2.88 2.88 0 0 1 31.82 41z" fill="#b89558"/><path class="cls-4" d="M29 37.08H19a2.64 2.64 0 0 0-2.62 2.26l-.33 2.36h15.87l-.33-2.36A2.64 2.64 0 0 0 29 37.08z"/><circle class="cls-5" cx="11.79" cy="37.41" r="2.31"/><circle class="cls-5" cx="36.22" cy="37.41" r="2.31"/><path class="cls-11" d="M11.79 36.76a2.3 2.3 0 0 1 2.15 1.48 2.31 2.31 0 1 0-4.3 0 2.3 2.3 0 0 1 2.15-1.48z"/><path class="cls-11" d="M36.22 36.76a2.31 2.31 0 0 1 2.15 1.48 2.31 2.31 0 1 0-4.3 0 2.3 2.3 0 0 1 2.15-1.48z"/><circle class="cls-4" cx="11.79" cy="37.41" r="2.31"/><circle class="cls-4" cx="36.22" cy="37.41" r="2.31"/><path class="cls-12" d="M13 45h-1.78a1.33 1.33 0 0 1-1.3-1.06l-.44-2.24h5.28l-.45 2.24A1.32 1.32 0 0 1 13 45z"/><path class="cls-12" d="M36.78 45H35a1.32 1.32 0 0 1-1.3-1.06l-.45-2.24h5.28l-.44 2.24A1.33 1.33 0 0 1 36.78 45z"/><path class="cls-4" d="M16.41 39.34h15.18"/></g></svg>