<svg xmlns="http://www.w3.org/2000/svg" viewBox="0 0 48 48"><defs><style>.cls-4,.cls-9{stroke:#45413c;stroke-linecap:round;stroke-linejoin:round}.cls-2{fill:#c0dceb}.cls-3{fill:#daedf7}.cls-4{fill:none}.cls-5{fill:#fff}.cls-6{fill:#f0f0f0}.cls-8{fill:#e0e0e0}.cls-9{fill:#87898c}</style></defs><g><path transform="rotate(28.67 28.447 8.3)" stroke="#45413c" stroke-linecap="round" stroke-linejoin="round" fill="#adc4d9" d="M26.46 6.07h3.96v4.47h-3.96z"/><circle class="cls-2" cx="25.94" cy="12.89" r="5.22"/><path class="cls-3" d="M28.44 8.31a5.22 5.22 0 0 0-7.08 2.07 5.44 5.44 0 0 0-.48 1.33 5.19 5.19 0 0 1 9.46 3.93 1.84 1.84 0 0 0 .17-.25 5.21 5.21 0 0 0-2.07-7.08z"/><circle class="cls-4" cx="25.94" cy="12.89" r="5.22"/><path class="cls-5" d="M22.4 37.28c-3.1 1-7.73-.64-8.77-3.75a3.4 3.4 0 0 0-.25 4.9 9.61 9.61 0 0 0 10.14 2.19z"/><path class="cls-6" d="M20.2 37.58a7.71 7.71 0 0 1-6-3 10.62 10.62 0 0 1-1.2-.34A3.39 3.39 0 0 0 13 38a10 10 0 0 0 7.2-.42z"/><path class="cls-4" d="M22.4 37.28c-3.1 1-7.73-.64-8.77-3.75a3.4 3.4 0 0 0-.25 4.9 9.61 9.61 0 0 0 10.14 2.19z"/><ellipse cx="24" cy="45.15" rx="14.18" ry="1.85" fill="#45413c" opacity=".15"/><path class="cls-5" d="M24.89 20.22a7.71 7.71 0 0 1 0 15.42v5.47a13.18 13.18 0 0 0 0-26.36z"/><path class="cls-8" d="M36.68 22.06a13.18 13.18 0 0 0-10.13-7.2A6.24 6.24 0 0 0 25 19a6.39 6.39 0 0 0 .12 1.25 7.71 7.71 0 0 1 7 4.94 6.22 6.22 0 0 0 4.56-3.13z"/><path class="cls-4" d="M24.89 20.22a7.71 7.71 0 0 1 0 15.42v5.47a13.18 13.18 0 0 0 0-26.36z"/><rect class="cls-5" x="17.26" y="10.77" width="11.87" height="14.26" rx="1.23" ry="1.23" transform="rotate(28.67 23.187 17.899)"/><path class="cls-8" d="M26.89 23.51a1.25 1.25 0 0 1-1.68.49L17 19.48a1.23 1.23 0 0 1-.5-1.64l-1.3 2.39a1.22 1.22 0 0 0 .49 1.67l8.25 4.51a1.22 1.22 0 0 0 1.67-.49l5.66-10.34z"/><rect class="cls-4" x="17.26" y="10.77" width="11.87" height="14.26" rx="1.23" ry="1.23" transform="rotate(28.67 23.187 17.899)"/><path class="cls-2" d="M18.3 41.11a6.59 6.59 0 0 1 13.18 0z"/><path class="cls-3" d="M24.89 36.8a6.58 6.58 0 0 1 6.16 4.31h.43a6.59 6.59 0 0 0-13.18 0h.43a6.57 6.57 0 0 1 6.16-4.31z"/><path class="cls-4" d="M18.3 41.11a6.59 6.59 0 0 1 13.18 0z"/><rect class="cls-5" x="12.94" y="41.11" width="22.12" height="3.39" rx="1.23" ry="1.23"/><path class="cls-6" d="M33.83 42.89H14.17A1.21 1.21 0 0 1 13 42a1.28 1.28 0 0 0-.07.34v.93a1.23 1.23 0 0 0 1.23 1.23h19.67a1.23 1.23 0 0 0 1.23-1.23v-.93A1.28 1.28 0 0 0 35 42a1.21 1.21 0 0 1-1.17.89z"/><rect class="cls-4" x="12.94" y="41.11" width="22.12" height="3.39" rx="1.23" ry="1.23"/><rect class="cls-9" x="9.77" y="32.56" width="8.8" height="2.54" rx=".62" ry=".62" transform="rotate(27.82 14.166 33.84)"/><path class="cls-9" transform="rotate(28.67 19.214 25.188)" d="M14.87 24.01h8.68v2.36h-8.68z"/><rect class="cls-9" x="27.15" y="3.84" width="6.01" height="2.67" rx=".62" ry=".62" transform="rotate(28.67 30.15 5.177)"/><path d="M18.57 28.83l-2.08-1.14a1.21 1.21 0 0 1-.56-.64l-1.1-2.9 7.62 4.16-3 .64a1.25 1.25 0 0 1-.88-.12z" fill="#656769" stroke="#45413c" stroke-linecap="round" stroke-linejoin="round"/><circle cx="31.15" cy="18.98" r="4.24" fill="#87898c"/><path d="M31.15 16.51a4.25 4.25 0 0 1 4.15 3.35 4.17 4.17 0 0 0 .09-.88 4.24 4.24 0 0 0-8.47 0 4.17 4.17 0 0 0 .09.88 4.25 4.25 0 0 1 4.14-3.35z" fill="#bdbec0"/><circle class="cls-4" cx="31.15" cy="18.98" r="4.24"/><circle cx="31.15" cy="18.98" r="1.54" fill="#fff" stroke="#45413c" stroke-linecap="round" stroke-linejoin="round"/></g></svg>