<svg xmlns="http://www.w3.org/2000/svg" viewBox="0 0 48 48"><defs><style>.cls-1{fill:#e8f4fa}.cls-2{fill:#fff}.cls-3{fill:none;stroke:#45413c;stroke-linecap:round;stroke-linejoin:round}.cls-5{fill:#656769}.cls-6{fill:#87898c}.cls-9{fill:#c0dceb}</style></defs><path class="cls-1" d="M28.63 26.16L43.27 32c.5.21 1.38-.7 2-2s.68-2.61.19-2.83l-14.17-7z"/><path class="cls-2" d="M45.38 29.6c.47-1.21.5-2.29 0-2.49l-14.09-6.94-1 2.3z"/><path class="cls-3" d="M28.63 26.16L43.27 32c.5.21 1.38-.7 2-2s.68-2.61.19-2.83l-14.17-7z"/><path class="cls-1" d="M3.11 16.79l25.18 10.15c.76.33 2.13-1.08 3.05-3.16s1.05-4 .29-4.38L7.2 7.56z"/><path class="cls-2" d="M31.59 23.16c.69-1.84.73-3.46 0-3.76L7.2 7.56l-1.48 3.35z"/><path class="cls-3" d="M3.11 16.79l25.18 10.15c.76.33 2.13-1.08 3.05-3.16s1.05-4 .29-4.38L7.2 7.56z"/><ellipse cx="25.65" cy="42.65" rx="17.27" ry="1.85" fill="#45413c" opacity=".15"/><path class="cls-5" d="M13.61 10.67L7.2 7.56l-4.09 9.23 6.61 2.66c.89.4 2.48-1.25 3.55-3.68s1.23-4.71.34-5.1z"/><path class="cls-6" d="M13.88 14.06c.48-1.74.41-3.15-.27-3.45L7.2 7.5l-1.27 2.87z"/><path class="cls-3" d="M13.61 10.67L7.2 7.56l-4.09 9.23 6.61 2.66c.89.4 2.48-1.25 3.55-3.68s1.23-4.71.34-5.1z"/><ellipse cx="5.15" cy="12.18" rx="5.05" ry="1.85" transform="rotate(-66.1 5.156 12.182)" fill="#00b8f0"/><path d="M3.46 14.3c1.13-2.54 2.8-4.3 3.74-3.86a.84.84 0 0 1 .38.37c.42-1.65.28-2.95-.38-3.25-.94-.41-2.61 1.32-3.74 3.87-.94 2.12-1.21 4.14-.73 5a13.38 13.38 0 0 1 .73-2.13z" fill="#4acfff"/><ellipse class="cls-3" cx="5.15" cy="12.18" rx="5.05" ry="1.85" transform="rotate(-66.1 5.156 12.182)"/><path class="cls-5" d="M31.63 19.4l-2.69-1.3c.78.34.65 2.35-.29 4.49s-2.35 3.58-3.13 3.23l2.77 1.12c.76.33 2.13-1.08 3.05-3.16s1.05-4.04.29-4.38z"/><path class="cls-6" d="M29.22 21l2.69 1.21c.36-1.41.28-2.53-.28-2.78l-2.69-1.3c.58.22.66 1.39.28 2.87z"/><path class="cls-3" d="M31.63 19.4l-2.69-1.3c.78.34.65 2.35-.29 4.49s-2.35 3.58-3.13 3.23l2.77 1.12c.76.33 2.13-1.08 3.05-3.16s1.05-4.04.29-4.38z"/><path class="cls-5" d="M45.43 27.11L43.16 26c.51.23.42 1.54-.19 2.93s-1.53 2.34-2 2.11c0 0 2.35.93 2.35.94.5.21 1.38-.7 2-2s.6-2.65.11-2.87z"/><path class="cls-6" d="M43.33 27.93l2.26 1c.25-.93.21-1.68-.16-1.85L43.16 26c.38.17.43 1 .17 1.93z"/><path class="cls-3" d="M45.43 27.11L43.16 26c.51.23.42 1.54-.19 2.93s-1.53 2.34-2 2.11c0 0 2.35.93 2.35.94.5.21 1.38-.7 2-2s.6-2.65.11-2.87z"/><path class="cls-1" d="M21.51 26.32h2.62v4.11h-2.62z"/><path class="cls-9" d="M21.51 26.32h2.62v1.83h-2.62z"/><path class="cls-3" d="M21.51 26.32h2.62v4.11h-2.62z"/><path class="cls-1" d="M17.87 42.8a1.23 1.23 0 0 0 1.18-.91l3-11.46h-1.66a1.23 1.23 0 0 0-1.2.93l-2.51 9.92a1.23 1.23 0 0 0 1.19 1.52z"/><path class="cls-9" d="M19.19 31.36L18.28 35h2.59l1.19-4.53h-1.67a1.23 1.23 0 0 0-1.2.89z"/><path class="cls-3" d="M17.87 42.8a1.23 1.23 0 0 0 1.18-.91l3-11.46h-1.66a1.23 1.23 0 0 0-1.2.93l-2.51 9.92a1.23 1.23 0 0 0 1.19 1.52z"/><path class="cls-1" d="M27.77 42.8a1.22 1.22 0 0 1-1.18-.91l-3-11.46h1.67a1.22 1.22 0 0 1 1.19.93L29 41.28a1.22 1.22 0 0 1-1.23 1.52z"/><path class="cls-9" d="M26.44 31.36l.91 3.6h-2.58l-1.19-4.53h1.67a1.22 1.22 0 0 1 1.19.93z"/><path class="cls-3" d="M27.77 42.8a1.22 1.22 0 0 1-1.18-.91l-3-11.46h1.67a1.22 1.22 0 0 1 1.19.93L29 41.28a1.22 1.22 0 0 1-1.23 1.52z"/><path d="M26.85 33h-8.07l.41-1.61a1.23 1.23 0 0 1 1.2-.93h4.86a1.23 1.23 0 0 1 1.19.93z" fill="#656769" stroke="#45413c" stroke-linecap="round" stroke-linejoin="round"/><path class="cls-5" d="M28.74 21.15a1.35 1.35 0 0 0-1.93.06 6.83 6.83 0 0 1-5 2.19h-3.24v1.33a1.59 1.59 0 0 0 1.59 1.59h1.35A9.74 9.74 0 0 0 28.82 23a1.35 1.35 0 0 0-.08-1.85z"/><path class="cls-6" d="M28.74 21.15a1.35 1.35 0 0 0-1.93.06 7.5 7.5 0 0 1-.71.67 1.5 1.5 0 0 1 .33.23 1.35 1.35 0 0 1 .08 1.89 9.64 9.64 0 0 1-2.43 2 9.68 9.68 0 0 0 4.74-3 1.35 1.35 0 0 0-.08-1.85z"/><path class="cls-3" d="M28.74 21.15a1.35 1.35 0 0 0-1.93.06 6.83 6.83 0 0 1-5 2.19h-3.24v1.33a1.59 1.59 0 0 0 1.59 1.59h1.35A9.74 9.74 0 0 0 28.82 23a1.35 1.35 0 0 0-.08-1.85z"/></svg>