<svg xmlns="http://www.w3.org/2000/svg" viewBox="0 0 48 48"><defs><style>.cls-2{fill:#fff5e3}.cls-3{fill:#f7e5c6}.cls-4{fill:none;stroke:#45413c;stroke-linecap:round;stroke-linejoin:round}</style></defs><g><ellipse cx="24" cy="45.15" rx="14.19" ry="1.85" fill="#45413c" opacity=".15"/><path class="cls-2" d="M10.45 7.49v29.09c0 1.65-.41 3-2.06 3h27.55c1.65 0 2.06-1.33 2.06-3V7.49z"/><g><path class="cls-3" d="M10.45 7.49H38v5.4H10.45z"/></g><path class="cls-4" d="M38 36.58c0 1.65-.41 3-2.06 3H8.39c1.65 0 2.06-1.33 2.06-3V7.49H38z"/><path d="M33.58 36.58v-.81H6v.81c0 1.65.72 3 2.37 3h27.57c-1.64-.02-2.36-1.35-2.36-3z" stroke="#45413c" stroke-linecap="round" stroke-linejoin="round" fill="#f7e5c6"/><path class="cls-3" d="M9.42 5.13c-.85 0-1.55 1.06-1.55 2.36s.7 2.37 1.55 2.37h27V5.13z"/><path class="cls-2" d="M9.42 5.13c-.85 0-1.55 1.06-1.55 2.36a3.29 3.29 0 0 0 .18 1.07c.25-.77.77-1.3 1.37-1.3h27V5.13z"/><path class="cls-4" d="M9.42 5.13c-.85 0-1.55 1.06-1.55 2.36s.7 2.37 1.55 2.37h27V5.13z"/><ellipse cx="36.46" cy="7.49" rx="1.54" ry="2.36" fill="#f0d5a8"/><path d="M36.46 7c.64 0 1.18.59 1.42 1.44a3.48 3.48 0 0 0 .12-.95c0-1.3-.69-2.36-1.54-2.36s-1.54 1.06-1.54 2.36a3.48 3.48 0 0 0 .12.93c.23-.85.78-1.42 1.42-1.42z" fill="#debb7e"/><ellipse class="cls-4" cx="36.46" cy="7.49" rx="1.54" ry="2.36"/><path class="cls-4" d="M14.28 14.1h13.8"/><path class="cls-4" d="M14.28 27.59h13.8"/><path class="cls-4" d="M14.28 31.22h16.03"/><path class="cls-4" d="M14.28 17.49h18.89"/><path class="cls-4" d="M14.28 21.04h18.89"/></g></svg>