<svg xmlns="http://www.w3.org/2000/svg" viewBox="0 0 48 48"><defs><style>.cls-2{fill:#bdbec0}.cls-2,.cls-5,.cls-6{stroke:#45413c;stroke-linecap:round;stroke-linejoin:round}.cls-5{fill:none}.cls-6{fill:#87898c}</style></defs><g><ellipse cx="24" cy="45.22" rx="23.13" ry="1.78" fill="#45413c" opacity=".15"/><path class="cls-2" d="M45 12.57a1.18 1.18 0 0 0-1.19-1.18H10.62V44H42a3 3 0 0 0 3-3z"/><path d="M39.67 41.63A2.37 2.37 0 0 0 42 44H5.87a2.37 2.37 0 0 1-2.37-2.37V6.05a1.18 1.18 0 0 1 1.19-1.18h33.79a1.18 1.18 0 0 1 1.19 1.18z" fill="#f0f0f0"/><path d="M42 44a2.37 2.37 0 0 1-2.37-2.37v-.89H5.87a2.37 2.37 0 0 1-2.37-2.37v3.26A2.37 2.37 0 0 0 5.87 44z" fill="#e0e0e0"/><path class="cls-5" d="M39.67 41.63A2.37 2.37 0 0 0 42 44H5.87a2.37 2.37 0 0 1-2.37-2.37V6.05a1.18 1.18 0 0 1 1.19-1.18h33.79a1.18 1.18 0 0 1 1.19 1.18z"/><rect class="cls-6" x="7.06" y="9.02" width="28.46" height="6.52" rx=".63" ry=".63"/><rect class="cls-6" x="7.65" y="19.1" width="15.42" height="15.42" rx="1.35" ry="1.35"/><path class="cls-5" d="M26.63 27.14h8.89"/><path class="cls-5" d="M26.63 23.46h8.89"/><path class="cls-5" d="M26.63 19.77h8.89"/><path class="cls-5" d="M26.63 30.83h8.89"/><path class="cls-5" d="M26.63 34.51h8.89"/><path class="cls-5" d="M7.65 39.26h27.87"/><path class="cls-2" d="M18.82 28a13.43 13.43 0 0 1-1.27-4 .59.59 0 0 0-.59-.56h-2.9a.57.57 0 0 0-.58.49 18.34 18.34 0 0 1-1.23 3.74A13.34 13.34 0 0 1 7.65 33v.18A1.34 1.34 0 0 0 9 34.51h12.72a1.35 1.35 0 0 0 1.35-1.35v-1A9.31 9.31 0 0 1 18.82 28z"/></g></svg>