<svg xmlns="http://www.w3.org/2000/svg" viewBox="0 0 48 48"><defs><style>.cls-4{fill:none;stroke:#45413c;stroke-linecap:round;stroke-linejoin:round}</style></defs><g><ellipse cx="24.87" cy="43.44" rx="18.21" ry="1.56" fill="#45413c" opacity=".15"/><rect x="4.75" y="13.15" width="38.5" height="24.45" rx="2.08" ry="2.08" transform="rotate(-22.67 23.996 25.385)" fill="#ffe500"/><path d="M35.13 7.48L3.45 20.72a2.08 2.08 0 0 0-1.12 2.72l1.3 3.12a2.08 2.08 0 0 1 1.12-2.72L36.43 10.6a2.1 2.1 0 0 1 2.73 1.12L37.85 8.6a2.08 2.08 0 0 0-2.72-1.12z" fill="#fff48c"/><rect class="cls-4" x="4.75" y="13.15" width="38.5" height="24.45" rx="2.08" ry="2.08" transform="rotate(-22.67 23.996 25.385)"/><path transform="rotate(-22.67 22.192 21.054)" fill="#656769" stroke="#45413c" stroke-linecap="round" stroke-linejoin="round" d="M2.95 18.72h38.5v4.68H2.95z"/><rect x="12.06" y="24.7" width="29.13" height="3.12" rx="1.04" ry="1.04" transform="rotate(-22.67 26.625 26.25)" fill="#fff" stroke="#45413c" stroke-linecap="round" stroke-linejoin="round"/><rect x="35.77" y="25.15" width="6.76" height="4.16" rx="1.04" ry="1.04" transform="rotate(-22.67 39.142 27.228)" fill="#daedf7" stroke="#45413c" stroke-linecap="round" stroke-linejoin="round"/><path class="cls-4" d="M15.46 35.99l8.17-3.41"/><path class="cls-4" d="M26.99 31.18l3.84-1.6"/></g></svg>