<svg xmlns="http://www.w3.org/2000/svg" viewBox="0 0 48 48"><defs><style>.cls-2{fill:#fff}.cls-4{fill:none;stroke:#45413c;stroke-linecap:round;stroke-linejoin:round}</style></defs><ellipse cx="23.81" cy="38.19" rx="22.63" ry="1.66" fill="#45413c" opacity=".15"/><rect class="cls-2" x="2.48" y="10.94" width="42.67" height="26.12" rx="1.1" ry="1.1"/><path d="M44 34.37H3.58a1.1 1.1 0 0 1-1.1-1.1V36a1.1 1.1 0 0 0 1.1 1.1H44a1.1 1.1 0 0 0 1.1-1.1v-2.73a1.1 1.1 0 0 1-1.1 1.1z" fill="#f0f0f0"/><rect class="cls-4" x="2.48" y="10.94" width="42.67" height="26.12" rx="1.1" ry="1.1"/><path class="cls-4" d="M2.79 11.27l21.02 15.58 21.02-15.58"/><path class="cls-4" d="M27.7 23.97l17.13 12.7"/><path class="cls-4" d="M2.79 36.67l17.13-12.7"/><circle cx="24" cy="23.75" r="9.84" fill="#00b8f0"/><path d="M24 16.33A9.84 9.84 0 0 1 33.77 25a12.09 12.09 0 0 0 .07-1.21 9.84 9.84 0 0 0-19.68 0 12.09 12.09 0 0 0 .07 1.21A9.84 9.84 0 0 1 24 16.33z" fill="#4acfff"/><circle class="cls-4" cx="24" cy="23.75" r="9.84"/><path class="cls-2" d="M23.83 16.9a7.42 7.42 0 0 1 2.56.45 7.32 7.32 0 0 1 2.2 1.25 6.35 6.35 0 0 1 1.52 1.9 5 5 0 0 1 .58 2.38 4.06 4.06 0 0 1-.57 2.19 4.81 4.81 0 0 1-1.4 1.47 6.69 6.69 0 0 1-1.61.8 4.52 4.52 0 0 1-1.2.24c-.86 0-1.29-.3-1.29-.91a2.38 2.38 0 0 1-.86.66 2.45 2.45 0 0 1-1.09.25 2.29 2.29 0 0 1-1.09-.27 3 3 0 0 1-.88-.74 3.68 3.68 0 0 1-.58-1.05 3.46 3.46 0 0 1-.21-1.18 4.83 4.83 0 0 1 .26-1.54 4.27 4.27 0 0 1 .74-1.34 3.42 3.42 0 0 1 1.09-.92 3.2 3.2 0 0 1 1.48-.35 2.43 2.43 0 0 1 2.18 1.12v-.23c0-.59.34-.89 1-.89a1.25 1.25 0 0 1 .61.14.42.42 0 0 1 .24.38 3.15 3.15 0 0 1-.07.6l-.74 3.38a2.64 2.64 0 0 0-.08.62c0 .26.15.39.43.39a1.37 1.37 0 0 0 .76-.31 2.56 2.56 0 0 0 .78-1 3.39 3.39 0 0 0 .41-1.52 3.79 3.79 0 0 0-.41-1.78 4.07 4.07 0 0 0-1.15-1.37 5.57 5.57 0 0 0-1.66-.86 6.54 6.54 0 0 0-2-.29 5.05 5.05 0 0 0-2 .4 5.12 5.12 0 0 0-1.66 1.1 5.49 5.49 0 0 0-1.11 1.66 5.14 5.14 0 0 0-.41 2 5.25 5.25 0 0 0 .4 2 5.25 5.25 0 0 0 2.78 2.78 5.2 5.2 0 0 0 2 .4 8.14 8.14 0 0 0 3.88-.88 6 6 0 0 0 .56-.43 1.38 1.38 0 0 1 .68-.37.61.61 0 0 1 .69.69 1 1 0 0 1-.12.46 3.46 3.46 0 0 1-.38.55 5.66 5.66 0 0 1-2.35 1.29 11.22 11.22 0 0 1-3 .36 6.7 6.7 0 0 1-3.43-.92 6.86 6.86 0 0 1-2.49-2.5 6.85 6.85 0 0 1 2.49-9.36 6.61 6.61 0 0 1 3.52-.9zm-.76 8.78a1.68 1.68 0 0 0 .93-.28 1.91 1.91 0 0 0 .67-.74 2.07 2.07 0 0 0 .24-1 1.72 1.72 0 0 0-.37-1.12 1.29 1.29 0 0 0-1-.46 1.44 1.44 0 0 0-.88.3 2.15 2.15 0 0 0-.64.76 2.06 2.06 0 0 0-.23.93 1.87 1.87 0 0 0 .35 1.12 1.11 1.11 0 0 0 .93.49z"/></svg>