<svg xmlns="http://www.w3.org/2000/svg" viewBox="0 0 48 48"><defs><style>.cls-3{fill:#e8f4fa}.cls-4{fill:none;stroke:#45413c;stroke-linecap:round;stroke-linejoin:round}.cls-8{fill:#bdbec0}</style></defs><g><ellipse cx="24" cy="45.27" rx="9.78" ry="1.73" opacity=".15" fill="#45413c"/><path d="M23.51 27.44h5.75a.58.58 0 0 1 .58.58v6.9h-6.9V28a.58.58 0 0 1 .57-.56z" transform="rotate(157.22 26.389 31.175)" fill="#c0dceb"/><g><path class="cls-3" d="M21.76 29.06l2.67 6.37-2.67-6.37z"/><path class="cls-3" d="M30.8 32.76l-2.68-6.37-2 .83 2.71 6.44a.5.5 0 0 1-.26.64l1.88-.79a.58.58 0 0 0 .35-.75z"/></g><path class="cls-4" d="M23.51 27.44h5.75a.58.58 0 0 1 .58.58v6.9h-6.9V28a.58.58 0 0 1 .57-.56z" transform="rotate(157.22 26.389 31.175)"/><path class="cls-3" d="M33.22 40.29a6.85 6.85 0 0 0-.7 4.22l-.91.38a6.78 6.78 0 0 0-3.25-2.35A2 2 0 0 1 27 41.43a9.46 9.46 0 0 1-.52-1.66l-.87-4.19 4.55-1.91 2.39 3.55a9.82 9.82 0 0 1 .8 1.5 1.85 1.85 0 0 1-.13 1.57z"/><path d="M33.3 38.72a9.82 9.82 0 0 0-.8-1.5l-2.39-3.55-1.83.77 2.34 3.49a8.34 8.34 0 0 1 .81 1.5 1.89 1.89 0 0 1-.09 1.57 7.29 7.29 0 0 0-.77 2.79 6.41 6.41 0 0 1 1 1.1l.91-.38a6.85 6.85 0 0 1 .7-4.22 1.85 1.85 0 0 0 .12-1.57z" fill="#fff"/><path class="cls-4" d="M33.22 40.29a6.85 6.85 0 0 0-.7 4.22l-.91.38a6.78 6.78 0 0 0-3.25-2.35A2 2 0 0 1 27 41.43a9.46 9.46 0 0 1-.52-1.66l-.87-4.19 4.55-1.91 2.39 3.55a9.82 9.82 0 0 1 .8 1.5 1.85 1.85 0 0 1-.13 1.57z"/><path class="cls-4" d="M32.07 44.7l-2.23-5.3"/><path d="M28.78 39.84a1.15 1.15 0 1 1 1.51.62 1.15 1.15 0 0 1-1.51-.62z" fill="#45413c"/><path d="M28.74 24.88l-7.8-18.56a4.6 4.6 0 1 0-8.48 3.57l7.79 18.56a1.15 1.15 0 0 0 1.51.61l6.36-2.67a1.16 1.16 0 0 0 .62-1.51z" fill="#87898c"/><g><path class="cls-8" d="M12.46 9.88l7.79 18.57-7.79-18.57z"/><path class="cls-8" d="M28.74 24.88l-7.8-18.56a4.6 4.6 0 0 0-6-2.46 4.49 4.49 0 0 0-.53.29 3.4 3.4 0 0 1 3.87 2l8.38 20a.85.85 0 0 1-.46 1.11l-3.07 1.3 5-2.11a1.16 1.16 0 0 0 .61-1.57z"/></g><path class="cls-4" d="M28.74 24.88l-7.8-18.56a4.6 4.6 0 1 0-8.48 3.57l7.79 18.56a1.15 1.15 0 0 0 1.51.61l6.36-2.67a1.16 1.16 0 0 0 .62-1.51z"/><path class="cls-4" d="M30.66 30.94l-7.43 3.12"/><path d="M16.53 10.67a1.15 1.15 0 1 1 2.12-.89l4 9.55a1.15 1.15 0 0 1-2.12.89z" fill="#daedf7" stroke="#45413c" stroke-linecap="round" stroke-linejoin="round"/></g></svg>