<svg xmlns="http://www.w3.org/2000/svg" viewBox="0 0 48 48"><defs><style>.cls-2{fill:#bf8256}.cls-4{fill:none}.cls-4,.cls-6{stroke:#45413c;stroke-linecap:round;stroke-linejoin:round}.cls-5{fill:#dea47a}.cls-6{fill:#daedf7}</style></defs><g><ellipse cx="24" cy="43.11" rx="22.67" ry="1.89" fill="#45413c" opacity=".15"/><rect class="cls-2" x="3.85" y="21.22" width="40.3" height="20.78" rx="1.26" ry="1.26"/><path d="M42.89 21.22H5.11a1.27 1.27 0 0 0-1.26 1.26v6a1 1 0 0 0 .3.13l12.76 3.48a1.24 1.24 0 0 0 .33 0h13.52a1.24 1.24 0 0 0 .33 0l12.76-3.48a1 1 0 0 0 .3-.13v-6a1.27 1.27 0 0 0-1.26-1.26z" fill="#915e3a"/><rect class="cls-4" x="3.85" y="21.22" width="40.3" height="20.78" rx="1.26" ry="1.26"/><path class="cls-2" d="M3.22 15.56V24a1.25 1.25 0 0 0 .93 1.21l12.76 3.48a1.26 1.26 0 0 0 .33.05h13.52a1.26 1.26 0 0 0 .33-.05l12.76-3.48a1.25 1.25 0 0 0 .93-1.21v-8.44a1.26 1.26 0 0 0-1.26-1.26h-39a1.26 1.26 0 0 0-1.3 1.26z"/><path class="cls-5" d="M43.52 14.3h-39a1.26 1.26 0 0 0-1.26 1.26v4.25a1.26 1.26 0 0 1 1.26-1.26h39a1.26 1.26 0 0 1 1.26 1.26v-4.25a1.26 1.26 0 0 0-1.26-1.26z"/><path class="cls-4" d="M3.22 15.56V24a1.25 1.25 0 0 0 .93 1.21l12.76 3.48a1.26 1.26 0 0 0 .33.05h13.52a1.26 1.26 0 0 0 .33-.05l12.76-3.48a1.25 1.25 0 0 0 .93-1.21v-8.44a1.26 1.26 0 0 0-1.26-1.26h-39a1.26 1.26 0 0 0-1.3 1.26z"/><rect class="cls-6" x="17.07" y="26.89" width="13.85" height="3.78" rx="1.26" ry="1.26"/><path class="cls-6" d="M20.22 30.67h7.56v2.52a1.26 1.26 0 0 1-1.26 1.26h-5a1.26 1.26 0 0 1-1.26-1.26v-2.52z"/><path d="M24 24.37a3.78 3.78 0 0 0-3.78 3.78h7.56A3.78 3.78 0 0 0 24 24.37z" stroke="#45413c" stroke-linecap="round" stroke-linejoin="round" fill="#bf8256"/><path class="cls-2" d="M17.07 11.78v2.52h2.52v-2.52a1.26 1.26 0 0 1 1.26-1.26h6.3a1.26 1.26 0 0 1 1.26 1.26v2.52h2.52v-2.52A3.78 3.78 0 0 0 27.15 8h-6.3a3.78 3.78 0 0 0-3.78 3.78z"/><path class="cls-5" d="M27.15 8h-6.3a3.78 3.78 0 0 0-3.78 3.78v1.73a3.78 3.78 0 0 1 3.78-3.78h6.3a3.78 3.78 0 0 1 3.78 3.78v-1.73A3.78 3.78 0 0 0 27.15 8z"/><path class="cls-4" d="M17.07 11.78v2.52h2.52v-2.52a1.26 1.26 0 0 1 1.26-1.26h6.3a1.26 1.26 0 0 1 1.26 1.26v2.52h2.52v-2.52A3.78 3.78 0 0 0 27.15 8h-6.3a3.78 3.78 0 0 0-3.78 3.78z"/></g></svg>