<svg xmlns="http://www.w3.org/2000/svg" viewBox="0 0 48 48"><defs><style>.cls-1{fill:#adc4d9}.cls-2{fill:#c0dceb}.cls-3{fill:none;stroke:#45413c;stroke-linecap:round;stroke-linejoin:round}</style></defs><path class="cls-1" d="M35.26 30.55l2.45-.55V8.26a1.38 1.38 0 0 0-1.64-1.36L14.49 11V9a1.38 1.38 0 0 0-1.64-1.35L7.1 8.7A1.37 1.37 0 0 0 6 10.05V35.1a2.76 2.76 0 0 0 1.25 2.31L9.69 39l30.08-5.86z"/><g><path class="cls-2" d="M7.1 13l5.75-1a1.38 1.38 0 0 1 1.64 1.35v2l21.58-4.06a1.39 1.39 0 0 1 1.64 1.36V8.26a1.38 1.38 0 0 0-1.64-1.36L14.49 11V9a1.38 1.38 0 0 0-1.64-1.35L7.1 8.7A1.37 1.37 0 0 0 6 10.05v4.35A1.37 1.37 0 0 1 7.1 13z"/></g><path class="cls-3" d="M35.26 30.55l2.45-.55V8.26a1.38 1.38 0 0 0-1.64-1.36L14.49 11V9a1.38 1.38 0 0 0-1.64-1.35L7.1 8.7A1.37 1.37 0 0 0 6 10.05V35.1a2.76 2.76 0 0 0 1.25 2.31L9.69 39l30.08-5.86z"/><ellipse cx="23.5" cy="43.93" rx="15.86" ry="2.07" fill="#45413c" opacity=".15"/><path class="cls-2" d="M9.69 39l3.05-22.54a1.38 1.38 0 0 1 1.12-1.18l28.49-5.23A1.38 1.38 0 0 1 44 11.68l-4.23 21.47z"/><path class="cls-1" d="M10.3 34.5l-.61 4.51 30.08-5.86.89-4.56L10.3 34.5z"/><path class="cls-3" d="M9.69 39l3.05-22.54a1.38 1.38 0 0 1 1.12-1.18l28.49-5.23A1.38 1.38 0 0 1 44 11.68l-4.23 21.47z"/></svg>