<svg xmlns="http://www.w3.org/2000/svg" viewBox="0 0 48 48"><ellipse cx="28.36" cy="45.2" rx="13.78" ry="1.8" fill="#45413c" opacity=".15"/><path d="M29.51 41.42l-25.2-25.2A7.28 7.28 0 0 1 14.6 5.92l20.9 20.85a4.89 4.89 0 0 1-6.91 6.92L13.11 18.21a1.19 1.19 0 0 1 0-1.69 1.2 1.2 0 0 1 1.7 0L30.28 32a2.56 2.56 0 0 0 3.53 0 2.49 2.49 0 0 0 0-3.52L12.91 7.62A4.88 4.88 0 0 0 6 14.52l25.2 25.2a7.17 7.17 0 1 0 10.14-10.13L18.26 6.51a1.2 1.2 0 0 1 0-1.7 1.19 1.19 0 0 1 1.69 0L43 27.89a9.56 9.56 0 0 1-13.49 13.53z" fill="#e8f4fa" stroke="#45413c" stroke-linecap="round" stroke-linejoin="round"/></svg>