<svg xmlns="http://www.w3.org/2000/svg" viewBox="0 0 48 48"><defs><style>.cls-7{fill:#e8f4fa}.cls-6{stroke:#45413c;stroke-linecap:round;stroke-linejoin:round}.cls-4{fill:#87898c}.cls-5{fill:#656769}.cls-6{fill:none}.cls-9{fill:#bdbec0}.cls-10{fill:#e0e0e0}</style></defs><ellipse cx="28.23" cy="45.47" rx="15.55" ry="1.5" fill="#45413c" opacity=".15"/><path d="M33.35 10.74l-.75-2.89a.92.92 0 0 0-.6-.66l-3.1-.92a.94.94 0 0 0-1.17.63l-.6 2z" stroke="#45413c" stroke-linecap="round" stroke-linejoin="round" fill="#e8f4fa"/><path fill="#c0dceb" stroke="#45413c" stroke-linecap="round" stroke-linejoin="round" d="M26.65 20.36l-1.61 5.42.91.27 3.59-3.85-2.89-1.84z"/><path class="cls-4" d="M22.53 17.66l-.91 3.07a5.31 5.31 0 0 0 1.11 5 5.4 5.4 0 0 0 2.46 1.57l2.73.8a2.74 2.74 0 0 0 2.85-.83l4.29-4.91zm7.09 7.86a1.86 1.86 0 0 1-1.91.56l-1.81-.54a3.45 3.45 0 0 1-1.64-1.05 3.49 3.49 0 0 1-.74-3.33l.6-2 8.36 3.12z"/><path class="cls-5" d="M23.38 22.23a3.25 3.25 0 0 1 .14-1.07l.6-2 8.36 3.12-2.86 3.28a2.18 2.18 0 0 1-.4.35L31 27l4-4.63-12.53-4.7-.91 3.07c0 .12-.05.24-.08.36z"/><path id="_Compound_Path_2" class="cls-6" d="M22.53 17.66l-.91 3.07a5.31 5.31 0 0 0 1.11 5 5.4 5.4 0 0 0 2.46 1.57l2.73.8a2.74 2.74 0 0 0 2.85-.83l4.29-4.91zm7.09 7.86a1.86 1.86 0 0 1-1.91.56l-1.81-.54a3.45 3.45 0 0 1-1.64-1.05 3.49 3.49 0 0 1-.74-3.33l.6-2 8.36 3.12z"/><path class="cls-7" d="M3.18 6.8h28.33v6.6H3.18a.88.88 0 0 1-.88-.88V7.69a.88.88 0 0 1 .88-.88z" transform="rotate(16.49 16.893 10.094)"/><path d="M4.68 3a.88.88 0 0 0-1.09.6l-.67 2.3A.89.89 0 0 1 4 5.3l27.17 8 .67-2.25z" fill="#fff"/><path class="cls-6" d="M3.18 6.8h28.33v6.6H3.18a.88.88 0 0 1-.88-.88V7.69a.88.88 0 0 1 .88-.88z" transform="rotate(16.49 16.893 10.094)"/><path class="cls-9" d="M45.5 14.05a11.86 11.86 0 0 0-6.28 5l-.58.95-2.55-4.68L38 14.15a9.32 9.32 0 0 1 7.53-1 .46.46 0 0 1-.03.9z"/><path class="cls-10" d="M45.48 13.16a9.32 9.32 0 0 0-7.53 1l-1.86 1.14.57 1 .63-.39a9.36 9.36 0 0 1 6.61-1.21 11.3 11.3 0 0 1 1.6-.68.46.46 0 0 0-.02-.86z"/><path class="cls-6" d="M45.5 14.05a11.86 11.86 0 0 0-6.28 5l-.58.95-2.55-4.68L38 14.15a9.32 9.32 0 0 1 7.53-1 .46.46 0 0 1-.03.9z"/><path d="M44 42.67l.54-7a14.38 14.38 0 0 0-3.71-11.16 3.21 3.21 0 0 1-.71-3.05l.55-1.84a1.85 1.85 0 0 0-.35-1.72l-4.69-5.77a7.82 7.82 0 0 0-3.84-2.56L26.38 8a1 1 0 0 0-1.18.64L22.13 19l11.46 6.65a3 3 0 0 1 1.23 3.87L30.8 39a2.82 2.82 0 0 0 1.81 3.79l7.72 2.29A2.83 2.83 0 0 0 44 42.67z" fill="#daedf7"/><path class="cls-7" d="M40.07 21.47l.55-1.84a1.85 1.85 0 0 0-.35-1.72l-4.69-5.77a7.82 7.82 0 0 0-3.84-2.56L26.38 8a1 1 0 0 0-1.18.64l-.65 2.2a.94.94 0 0 1 1.17-.63l5.36 1.59a7.78 7.78 0 0 1 3.85 2.56l4.69 5.76a1.93 1.93 0 0 1 .38 1.72z"/><path class="cls-6" d="M44 42.67l.54-7a14.38 14.38 0 0 0-3.71-11.16 3.21 3.21 0 0 1-.71-3.05l.55-1.84a1.85 1.85 0 0 0-.35-1.72l-4.69-5.77a7.82 7.82 0 0 0-3.84-2.56L26.38 8a1 1 0 0 0-1.18.64L22.13 19l11.46 6.65a3 3 0 0 1 1.23 3.87L30.8 39a2.82 2.82 0 0 0 1.81 3.79l7.72 2.29A2.83 2.83 0 0 0 44 42.67z"/><path d="M7.61 1.45l-1.3-.38a.94.94 0 0 0-1.17.64l-.4 1.35 4.07 1.21-.56-2.15a.94.94 0 0 0-.64-.67z" fill="#fff" stroke="#45413c" stroke-linecap="round" stroke-linejoin="round"/><path d="M2.43 12.39h20.73v3.3H3.37a.94.94 0 0 1-.94-.94v-2.36z" transform="rotate(16.49 12.78 14.037)" fill="#c0dceb"/><path transform="rotate(-73.51 13.056 13.14)" fill="#adc4d9" d="M12.35 2.77h1.41V23.5h-1.41z"/><path class="cls-6" d="M2.43 12.39h20.73v3.3H3.37a.94.94 0 0 1-.94-.94v-2.36z" transform="rotate(16.49 12.78 14.037)"/><path class="cls-5" d="M44.49 35.68a14.37 14.37 0 0 0-3.69-11.14 3.12 3.12 0 0 1-.74-3l.31-1-2-.61a1 1 0 0 0-1.09.38l-.77 1.1A1.47 1.47 0 0 1 35 22l-.88-.15a2.84 2.84 0 0 0-2.92 1.4l-.45.81 2.81 1.63a3 3 0 0 1 1.23 3.87L30.8 39a2.82 2.82 0 0 0 1.81 3.79l7.72 2.29A2.83 2.83 0 0 0 44 42.67z"/><path class="cls-4" d="M44 42.67l.54-7a14.37 14.37 0 0 0-3.74-11.13 3.12 3.12 0 0 1-.74-3l.31-1-2-.61a1 1 0 0 0-1.09.38l-.16.24.46.14a.94.94 0 0 1 .64 1.17V22a3.13 3.13 0 0 0 .74 3 14.37 14.37 0 0 1 3.62 11.1l-.54 7a2.82 2.82 0 0 1-1.28 2.09A2.82 2.82 0 0 0 44 42.67z"/><path class="cls-6" d="M44.49 35.68a14.37 14.37 0 0 0-3.69-11.14 3.12 3.12 0 0 1-.74-3l.31-1-2-.61a1 1 0 0 0-1.09.38l-.77 1.1A1.47 1.47 0 0 1 35 22l-.88-.15a2.84 2.84 0 0 0-2.92 1.4l-.45.81 2.81 1.63a3 3 0 0 1 1.23 3.87L30.8 39a2.82 2.82 0 0 0 1.81 3.79l7.72 2.29A2.83 2.83 0 0 0 44 42.67z"/><path class="cls-6" d="M38.34 19.88l-5.81-1.71"/><path class="cls-9" d="M24.27 12.62h6.13a2.83 2.83 0 0 1 2.83 2.83v.47a2.83 2.83 0 0 1-2.83 2.83h-6.13a.94.94 0 0 1-.94-.94v-4.25a.94.94 0 0 1 .94-.94z" transform="rotate(16.49 28.27 15.668)"/><path class="cls-10" d="M31.18 13.34l-5.87-1.73a.93.93 0 0 0-1.17.63l-.54 1.81a1 1 0 0 1 1.17-.64l5.87 1.74a2.82 2.82 0 0 1 2 2.81 2.93 2.93 0 0 0 .29-.65l.14-.45a2.84 2.84 0 0 0-1.89-3.52z"/><path class="cls-6" d="M24.27 12.62h6.13a2.83 2.83 0 0 1 2.83 2.83v.47a2.83 2.83 0 0 1-2.83 2.83h-6.13a.94.94 0 0 1-.94-.94v-4.25a.94.94 0 0 1 .94-.94z" transform="rotate(16.49 28.27 15.668)"/><path class="cls-6" d="M23.87 13.15l5.87 1.73"/><path class="cls-6" d="M23.2 15.4l5.87 1.74"/></svg>