<svg xmlns="http://www.w3.org/2000/svg" viewBox="0 0 48 48"><defs><style>.cls-6{fill:none;stroke:#45413c;stroke-linecap:round;stroke-linejoin:round}</style></defs><g><ellipse cx="24" cy="41.77" rx="15.5" ry="2.02" fill="#45413c" opacity=".15"/><path d="M8.09 38.88a9.75 9.75 0 0 1 0-13.79l18-18a9.75 9.75 0 0 1 13.82 13.76l-18 18a9.75 9.75 0 0 1-13.82.03z" fill="#ff6242"/><path d="M12.33 29.34l18-18A9.78 9.78 0 0 1 41.7 9.52a9.86 9.86 0 0 0-1.79-2.46 9.75 9.75 0 0 0-13.79 0l-18 18a9.75 9.75 0 0 0 0 13.79 9.86 9.86 0 0 0 2.46 1.79 9.75 9.75 0 0 1 1.75-11.3z" fill="#ff866e"/><path d="M26.12 7.06l-9 9 13.77 13.81 9-9A9.75 9.75 0 1 0 26.12 7.06z" fill="#00b8f0"/><path d="M41.7 9.52a9.86 9.86 0 0 0-1.79-2.46 9.75 9.75 0 0 0-13.79 0l-9 9 4.24 4.24 9-9A9.78 9.78 0 0 1 41.7 9.52z" fill="#4acfff"/><path class="cls-6" d="M39.91 7.06a9.75 9.75 0 0 1 0 13.79l-18 18A9.75 9.75 0 0 1 8.09 25.09l18-18a9.75 9.75 0 0 1 13.82-.03z"/><path class="cls-6" d="M26.12 7.06l-9 9 13.77 13.81 9-9A9.75 9.75 0 1 0 26.12 7.06z"/></g></svg>