<svg xmlns="http://www.w3.org/2000/svg" viewBox="0 0 48 48"><defs><style>.cls-9{fill:#f0f0f0}.cls-4{fill:none}.cls-4,.cls-9{stroke:#45413c;stroke-linecap:round;stroke-linejoin:round}</style></defs><g><ellipse cx="27.6" cy="44.28" rx="15.52" ry="1.72" fill="#45413c" opacity=".15"/><path transform="rotate(13.87 22.192 33.26)" fill="#f0f0f0" d="M12.11 29.24h20.12v8.05H12.11z"/><path transform="rotate(13.87 22.811 30.806)" fill="#fff" d="M12.73 29.31h20.12v2.95H12.73z"/><path class="cls-4" transform="rotate(13.87 22.192 33.26)" d="M12.11 29.24h20.12v8.05H12.11z"/><path d="M31.75 33.23h12.07A1.15 1.15 0 0 1 45 34.38v5.75a1.15 1.15 0 0 1-1.15 1.15h-12.1v-8-.05z" transform="rotate(13.87 38.363 37.258)" fill="#f0d5a8"/><path d="M32.36 33.31h12.07a1.15 1.15 0 0 1 1.15 1.15v1.1a.7.7 0 0 1-.7.7H32.36v-2.95z" transform="rotate(13.87 38.982 34.805)" fill="#f7e5c6"/><path class="cls-4" d="M31.75 33.23h12.07A1.15 1.15 0 0 1 45 34.38v5.75a1.15 1.15 0 0 1-1.15 1.15h-12.1v-8-.05z" transform="rotate(13.87 38.363 37.258)"/><path d="M6.47 33.28l-.72-1.81a.57.57 0 0 1 .33-.75l.92-.34a.57.57 0 0 0 .36-.65l-.26-1.25a.5.5 0 0 0-.13-.26l-.9-1a.57.57 0 0 1 0-.74l.68-.82a.58.58 0 0 1 .58-.2l4.43 1.1-1.99 7.78-2.9-.72a.57.57 0 0 1-.4-.34z" fill="#bdbec0" stroke="#45413c" stroke-linecap="round" stroke-linejoin="round"/><path d="M13.37 26.94l-2.1-.52a.57.57 0 0 0-.26 0l-1.12.25-.55 2.23 1 .84-.87 1.37a.64.64 0 0 0-.08.36l.1 1.26a.56.56 0 0 1-.28.54l-1.09.66 3.35.82z" fill="#ff6242" stroke="#45413c" stroke-linecap="round" stroke-linejoin="round"/><circle class="cls-9" cx="6.94" cy="12.22" r="2.38"/><path class="cls-9" d="M10.47 19.36a1.77 1.77 0 1 1-1.77-1.77 1.77 1.77 0 0 1 1.77 1.77z"/><path class="cls-9" d="M15.72 7.12a3.64 3.64 0 1 0-5.24.94 3.58 3.58 0 0 0 1.9.71 1.94 1.94 0 0 0 .76 1.29 2 2 0 0 0 2.77-.39 2 2 0 0 0-.19-2.55z"/></g></svg>