<svg xmlns="http://www.w3.org/2000/svg" viewBox="0 0 48 48"><defs><style>.cls-4{fill:none;stroke:#45413c;stroke-linecap:round;stroke-linejoin:round}.cls-5{fill:#fff}.cls-6{fill:#e0e0e0}</style></defs><ellipse cx="24" cy="45.28" rx="13.17" ry="1.72" fill="#45413c" opacity=".15"/><rect x="5.86" y="5.86" width="36.29" height="36.29" rx="5.72" ry="5.72" fill="#00b8f0"/><path d="M42.14 11.58a5.72 5.72 0 0 0-5.72-5.72H11.58a5.72 5.72 0 0 0-5.72 5.72v3.73a5.72 5.72 0 0 1 5.72-5.72h24.84a5.72 5.72 0 0 1 5.72 5.72z" fill="#4acfff"/><rect class="cls-4" x="5.86" y="5.86" width="36.29" height="36.29" rx="5.72" ry="5.72"/><path class="cls-5" d="M12 21.64h19.56v4.72H12a1.14 1.14 0 0 1-1.14-1.14v-2.44A1.14 1.14 0 0 1 12 21.64z"/><path class="cls-5" d="M34.09 21.64h1.14a1.14 1.14 0 0 1 1.14 1.14v2.43a1.14 1.14 0 0 1-1.14 1.14h-1.14v-4.71z"/><path class="cls-6" d="M12.05 21.64a1.15 1.15 0 0 0-1.15 1.14v1.75a1.15 1.15 0 0 1 1.15-1.14h19.51v-1.75z"/><path class="cls-6" d="M35.23 21.64h-1.14v1.75h1.14a1.14 1.14 0 0 1 1.15 1.14v-1.75a1.14 1.14 0 0 0-1.15-1.14z"/><path class="cls-4" d="M12 21.64h19.56v4.72H12a1.14 1.14 0 0 1-1.14-1.14v-2.44A1.14 1.14 0 0 1 12 21.64z"/><path class="cls-4" d="M34.09 21.64h1.14a1.14 1.14 0 0 1 1.14 1.14v2.43a1.14 1.14 0 0 1-1.14 1.14h-1.14v-4.71z"/><path d="M9.6 9.6a2.37 2.37 0 0 0 0 3.34L35.06 38.4a2.36 2.36 0 1 0 3.34-3.34L12.94 9.6a2.37 2.37 0 0 0-3.34 0z" fill="#ff6242"/><path d="M9.36 11.69a2.35 2.35 0 0 1 3.34 0l25.45 25.45a2.44 2.44 0 0 1 .56.88 2.38 2.38 0 0 0-.31-3L12.94 9.6a2.36 2.36 0 0 0-3.89 2.47 1.91 1.91 0 0 1 .31-.38z" fill="#e04122"/><path class="cls-4" d="M9.6 9.6a2.37 2.37 0 0 0 0 3.34L35.06 38.4a2.36 2.36 0 1 0 3.34-3.34L12.94 9.6a2.37 2.37 0 0 0-3.34 0z"/><circle cx="36.88" cy="18.23" r="1.29" fill="#fff" stroke="#45413c" stroke-linecap="round" stroke-linejoin="round"/><path class="cls-5" d="M32.23 13.81a1.09 1.09 0 0 0 2.17.19 2 2 0 0 0 .75.14 2.27 2.27 0 1 0-2.08-1.36 1.08 1.08 0 0 0-.84 1.03z"/><g><path class="cls-6" d="M35.15 11.26a2.26 2.26 0 0 1 2.1 1.43 2.32 2.32 0 0 0 .16-.84 2.27 2.27 0 0 0-4.53 0 2.09 2.09 0 0 0 .17.83 2.25 2.25 0 0 1 2.1-1.42z"/><path class="cls-6" d="M32.65 14.65a1.06 1.06 0 0 1 .42-.22 2.28 2.28 0 0 1-.19-.91 2.3 2.3 0 0 1 .13-.74 1.1 1.1 0 0 0-.78 1 1.08 1.08 0 0 0 .42.87z"/></g><path class="cls-4" d="M32.23 13.81a1.09 1.09 0 0 0 2.17.19 2 2 0 0 0 .75.14 2.27 2.27 0 1 0-2.08-1.36 1.08 1.08 0 0 0-.84 1.03z"/></svg>