<svg xmlns="http://www.w3.org/2000/svg" viewBox="0 0 48 48"><defs><style>.cls-4{fill:none;stroke:#45413c;stroke-linecap:round;stroke-linejoin:round}</style></defs><g><ellipse cx="24" cy="45.5" rx="11.5" ry="1.5" fill="#45413c" opacity=".15"/><circle cx="24" cy="24" r="14.93" fill="#656769"/><path d="M24 11.82a14.93 14.93 0 0 1 14.86 13.55c0-.45.07-.91.07-1.37a14.93 14.93 0 0 0-29.86 0c0 .46 0 .92.07 1.37A14.93 14.93 0 0 1 24 11.82z" fill="#525252"/><circle class="cls-4" cx="24" cy="24" r="14.93"/><path d="M28.29 13.41h-8.58a1.87 1.87 0 0 0-1.86 1.87v17.44a1.87 1.87 0 0 0 1.86 1.87h8.58a1.87 1.87 0 0 0 1.86-1.87V15.28a1.87 1.87 0 0 0-1.86-1.87zm-5.58 1h2.58a.37.37 0 0 1 .37.37.36.36 0 0 1-.37.37h-2.58a.36.36 0 0 1-.37-.37.37.37 0 0 1 .37-.38zM24 33.53a1 1 0 1 1 1-1 1 1 0 0 1-1 1zm4.61-3.64a.7.7 0 0 1-.7.71h-7.82a.7.7 0 0 1-.7-.71v-13a.7.7 0 0 1 .7-.7h7.82a.7.7 0 0 1 .7.7z" fill="#fff"/><path d="M24 5a19 19 0 1 0 19 19A19 19 0 0 0 24 5zm0 4.07a14.89 14.89 0 0 1 14.52 18.36l-27-11.65A14.91 14.91 0 0 1 24 9.07zm0 29.86A14.89 14.89 0 0 1 9.48 20.57l27 11.65A14.91 14.91 0 0 1 24 38.93z" fill="#ff6242"/><g><path d="M24 7.4a19 19 0 0 1 18.94 17.8c0-.4.06-.8.06-1.2a19 19 0 0 0-38 0c0 .4 0 .8.06 1.2A19 19 0 0 1 24 7.4z" fill="#ff866e"/></g><path id="_Compound_Path_2" class="cls-4" d="M24 5a19 19 0 1 0 19 19A19 19 0 0 0 24 5zm0 4.07a14.89 14.89 0 0 1 14.52 18.36l-27-11.65A14.91 14.91 0 0 1 24 9.07zm0 29.86A14.89 14.89 0 0 1 9.48 20.57l27 11.65A14.91 14.91 0 0 1 24 38.93z"/></g></svg>