<svg xmlns="http://www.w3.org/2000/svg" viewBox="0 0 48 48"><defs><style>.cls-3{fill:#fff}.cls-5{fill:none;stroke:#45413c;stroke-linecap:round;stroke-linejoin:round}</style></defs><g><circle cx="24" cy="24" r="14.93" fill="#656769"/><path d="M24 11.82a14.93 14.93 0 0 1 14.86 13.55c0-.45.07-.91.07-1.37a14.93 14.93 0 0 0-29.86 0c0 .46 0 .92.07 1.37A14.93 14.93 0 0 1 24 11.82z" fill="#525252"/><g><path class="cls-3" d="M16.68 31.78V19.51h-1.44A1.53 1.53 0 0 1 14 19a1.78 1.78 0 0 1-.42-1.19 1.72 1.72 0 0 1 .42-1.17 1.53 1.53 0 0 1 1.21-.51h3.47a1.54 1.54 0 0 1 1.2.48 1.8 1.8 0 0 1 .44 1.25v13.92a1.87 1.87 0 0 1-.51 1.4 2 2 0 0 1-2.64 0 1.88 1.88 0 0 1-.49-1.4zM29 33.83a6.63 6.63 0 0 1-3-.71 5.44 5.44 0 0 1-2.18-2 5.35 5.35 0 0 1-.8-2.87 4.63 4.63 0 0 1 .33-1.76 4.57 4.57 0 0 1 .93-1.44 5.42 5.42 0 0 1 1.35-1 4.12 4.12 0 0 1-1.86-3.5 4.48 4.48 0 0 1 .41-1.91 4.44 4.44 0 0 1 1.13-1.5 5.16 5.16 0 0 1 1.69-.98 6.34 6.34 0 0 1 2-.33 6.44 6.44 0 0 1 2 .32 5.25 5.25 0 0 1 1.7 1 4.34 4.34 0 0 1 1.57 3.42 4.2 4.2 0 0 1-.49 2A3.79 3.79 0 0 1 32.46 24a4.56 4.56 0 0 1 2.62 4.24 5.22 5.22 0 0 1-.82 2.9 5.42 5.42 0 0 1-2.19 2 6.56 6.56 0 0 1-3.07.69zm0-8.27a2 2 0 0 0-1.64.69 2.59 2.59 0 0 0-.6 1.76 2.65 2.65 0 0 0 .58 1.72 2.22 2.22 0 0 0 3.27 0 2.88 2.88 0 0 0 0-3.53 2.1 2.1 0 0 0-1.56-.64zm0-6.51a1.67 1.67 0 0 0-1.3.52 2.16 2.16 0 0 0 0 2.69 1.64 1.64 0 0 0 1.3.52 1.67 1.67 0 0 0 1.3-.52 1.89 1.89 0 0 0 .48-1.35 1.92 1.92 0 0 0-.47-1.34 1.71 1.71 0 0 0-1.31-.52z"/></g><ellipse cx="24" cy="45.5" rx="11.5" ry="1.5" fill="#45413c" opacity=".15"/><circle class="cls-5" cx="24" cy="24" r="14.93"/><path d="M24 5a19 19 0 1 0 19 19A19 19 0 0 0 24 5zm0 4.07a14.89 14.89 0 0 1 14.52 18.36l-27-11.65A14.91 14.91 0 0 1 24 9.07zm0 29.86A14.89 14.89 0 0 1 9.48 20.57l27 11.65A14.91 14.91 0 0 1 24 38.93z" fill="#ff6242"/><g><path d="M24 7.4a19 19 0 0 1 18.94 17.8c0-.4.06-.8.06-1.2a19 19 0 0 0-38 0c0 .4 0 .8.06 1.2A19 19 0 0 1 24 7.4z" fill="#ff866e"/></g><path id="_Compound_Path_2" class="cls-5" d="M24 5a19 19 0 1 0 19 19A19 19 0 0 0 24 5zm0 4.07a14.89 14.89 0 0 1 14.52 18.36l-27-11.65A14.91 14.91 0 0 1 24 9.07zm0 29.86A14.89 14.89 0 0 1 9.48 20.57l27 11.65A14.91 14.91 0 0 1 24 38.93z"/></g></svg>