<svg xmlns="http://www.w3.org/2000/svg" viewBox="0 0 48 48"><defs><style>.cls-6{fill:none;stroke:#4f4b45;stroke-linejoin:round}</style></defs><g><ellipse cx="24" cy="45.23" rx="13.58" ry="1.77" fill="#45413c" opacity=".15"/><path d="M12.74 3.22A1 1 0 0 0 11 4v23.88A4.15 4.15 0 0 0 12.42 31l10.21 9a2 2 0 0 0 1.37.5V13.13z" fill="#ffe500"/><path d="M35.26 3.22L24 13.13V40.5a2 2 0 0 0 1.37-.5l10.21-9A4.15 4.15 0 0 0 37 27.88V4a1 1 0 0 0-1.74-.78z" fill="#6dd627"/><path d="M12.42 26.37A4.12 4.12 0 0 1 11 23.25v4.63A4.15 4.15 0 0 0 12.42 31l10.21 9a2 2 0 0 0 1.37.5v-4.63a2.08 2.08 0 0 1-1.37-.51z" fill="#ebcb00"/><path d="M35.58 26.37l-10.21 9a2.08 2.08 0 0 1-1.37.51v4.62a2 2 0 0 0 1.37-.5l10.21-9A4.15 4.15 0 0 0 37 27.88v-4.63a4.12 4.12 0 0 1-1.42 3.12z" fill="#46b000"/><path class="cls-6" d="M12.74 3.22A1 1 0 0 0 11 4v23.88A4.15 4.15 0 0 0 12.42 31l10.21 9a2 2 0 0 0 1.37.5V13.13z"/><path class="cls-6" d="M35.26 3.22L24 13.13V40.5a2 2 0 0 0 1.37-.5l10.21-9A4.15 4.15 0 0 0 37 27.88V4a1 1 0 0 0-1.74-.78z"/></g></svg>