<svg xmlns="http://www.w3.org/2000/svg" viewBox="0 0 48 48"><defs><style>.cls-2{fill:#ff6242}.cls-3{fill:#ff866e}.cls-4{fill:none;stroke:#45413c;stroke-linecap:round;stroke-linejoin:round}</style></defs><ellipse cx="24" cy="44.18" rx="8.48" ry="1.82" fill="#45413c" opacity=".15"/><path class="cls-2" d="M25.4 2.5h-2.8c-1.86 0-3.34 1.18-3.23 2.57L21 26.32c.09 1.18 1.4 2.11 3 2.11s2.88-.93 3-2.11l1.63-21.25c.11-1.39-1.37-2.57-3.23-2.57z"/><path class="cls-3" d="M19.56 7.48a3.31 3.31 0 0 1 3-1.6h2.8a3.31 3.31 0 0 1 3 1.6l.19-2.41c.11-1.39-1.37-2.57-3.23-2.57H22.6c-1.86 0-3.34 1.18-3.23 2.57z"/><path class="cls-4" d="M25.4 2.5h-2.8c-1.86 0-3.34 1.18-3.23 2.57L21 26.32c.09 1.18 1.4 2.11 3 2.11s2.88-.93 3-2.11l1.63-21.25c.11-1.39-1.37-2.57-3.23-2.57z"/><circle class="cls-2" cx="24" cy="35.24" r="3.65"/><path class="cls-3" d="M24 33.93A3.58 3.58 0 0 1 27.57 36a3.94 3.94 0 0 0 .08-.77 3.65 3.65 0 1 0-7.3 0 3.94 3.94 0 0 0 .08.77A3.58 3.58 0 0 1 24 33.93z"/><circle class="cls-4" cx="24" cy="35.24" r="3.65"/></svg>