<svg xmlns="http://www.w3.org/2000/svg" viewBox="0 0 48 48"><defs><style>.cls-2{fill:#fff}.cls-3{fill:#e04122}</style></defs><g><path d="M45 12.25h-6.32A45.89 45.89 0 0 1 24 9.88 45.73 45.73 0 0 0 9.37 7.5H3c-.58 0-1 .35-1 .79v26a.94.94 0 0 0 1 .79h6.37A46 46 0 0 1 24 37.46a45.62 45.62 0 0 0 14.65 2.38H45a.93.93 0 0 0 1-.79V13a.94.94 0 0 0-1-.75z" stroke="#45413c" stroke-linecap="round" stroke-linejoin="round" fill="#009fd9"/><path class="cls-2" d="M14.13 12.33l1.56 2.76L24 10.38v-.5c-1.2-.41-2.43-.76-3.67-1.07z"/><path class="cls-3" d="M21.5 9.11l-7 3.94.75 1.32 8.23-4.65c-.62-.22-1.3-.42-1.98-.61z"/><path class="cls-2" d="M2 21.33h1.97l7.31-4.79-1.64-2.9L2 18.53v2.8z"/><path class="cls-3" d="M2 21.33h.21L10.47 16l-.79-1.39L2 19.52v1.81z"/><path class="cls-2" d="M24 21.27l-7.5-6.44-2 2.44 6.44 5.52c1.05.28 2.1.58 3.12.92z"/><path class="cls-3" d="M24 22.35l-8.31-7-1 1.17 8.08 6.87 1.2.37z"/><path class="cls-2" d="M2 9.32l7.08 5L11 11.73 5 7.5H3c-.58 0-1 .35-1 .79z"/><path class="cls-3" d="M3 7.5a1 1 0 0 0-1 .78l7.57 5.4.9-1.26-6.9-4.92z"/><path class="cls-2" d="M24 14.27a45.52 45.52 0 0 0-8.43-1.95v-4.4a47 47 0 0 0-5.17-.4v4.4H1.97v5h8.43v4.4a47 47 0 0 1 5.17.4v-4.4a44.75 44.75 0 0 1 8.43 2z"/><path class="cls-3" d="M24 15.08A44.44 44.44 0 0 0 14.8 13V7.82c-1.18-.14-2.37-.24-3.57-.28v5.21c-1.23-.05-1.14 0-9.23 0v3.42h9.23v5.21c1.2 0 2.39.14 3.57.28v-5.21a44.45 44.45 0 0 1 9.2 2.06z"/><path d="M24 9.88A45.73 45.73 0 0 0 9.37 7.5H3c-.58 0-1 .35-1 .79v26a.94.94 0 0 0 1 .79h6.37A46 46 0 0 1 24 37.46a45.62 45.62 0 0 0 14.65 2.38H45a.93.93 0 0 0 1-.79V13a.94.94 0 0 0-1-.79h-6.32A45.89 45.89 0 0 1 24 9.88z" fill="none" stroke="#45413c" stroke-linecap="round" stroke-linejoin="round"/><path class="cls-2" d="M15.34 31.56l-1.86 1.72.19-2.52-2.5-.38 2.09-1.43L12 26.76l2.41.74.93-2.35.93 2.35 2.41-.74-1.26 2.19 2.08 1.43-2.49.38.18 2.52-1.85-1.72z"/><path class="cls-2" d="M37.46 33.82l-.92.86.09-1.26-1.25-.19 1.04-.72-.63-1.09 1.21.37.46-1.18.47 1.18 1.2-.37-.62 1.09 1.04.72-1.25.19.09 1.26-.93-.86z"/><path class="cls-2" d="M41.01 26l-.93.85.09-1.26-1.25-.18 1.04-.72-.63-1.09 1.21.37.47-1.18.46 1.18 1.21-.37-.63 1.09 1.04.72-1.25.18.09 1.26-.92-.85z"/><path class="cls-2" d="M32.01 21.71l-.71.65.07-.95-.95-.15.79-.54-.48-.83.92.28.36-.9.35.9.91-.28-.47.83.79.54-.95.15.07.95-.7-.65z"/><path class="cls-2" d="M38.32 17.27l-.71.65.07-.96-.95-.14.8-.54-.48-.83.92.28.35-.89.35.89.92-.28-.48.83.79.54-.95.14.07.96-.7-.65z"/></g><ellipse cx="24" cy="45.5" rx="11.5" ry="1.5" fill="#45413c" opacity=".15"/></svg>