<svg xmlns="http://www.w3.org/2000/svg" viewBox="0 0 48 48"><defs><style>.cls-4{fill:#fff}</style></defs><g><path d="M45 12.25h-6.32A45.89 45.89 0 0 1 24 9.88 45.73 45.73 0 0 0 9.37 7.5H3c-.58 0-1 .35-1 .79v26a.94.94 0 0 0 1 .79h6.37A46 46 0 0 1 24 37.46a45.62 45.62 0 0 0 14.65 2.38H45a.93.93 0 0 0 1-.79V13a.94.94 0 0 0-1-.75z" stroke="#45413c" stroke-linecap="round" stroke-linejoin="round" fill="#46b000"/><path d="M24 34.47s-3.55-2.77-7.59-6.11c-3.7-3.06-8-6.33-8-6.33S12 19.53 16.34 17 24 12.87 24 12.87s3.42 2.68 7.58 6c4.44 3.56 8 6.42 8 6.42s-3.8 2.71-8.05 5.19S24 34.47 24 34.47z" fill="#ffe500" stroke="#45413c" stroke-linecap="round" stroke-linejoin="round"/><ellipse cx="24.03" cy="23.67" rx="5.92" ry="6.99" transform="rotate(-15.22 24.035 23.666)" fill="#009fd9"/><path class="cls-4" d="M18.22 21.38a7.86 7.86 0 0 0-.22 1.71v.59a21.14 21.14 0 0 1 7.57.77 15.62 15.62 0 0 1 4.13 1.85 7.58 7.58 0 0 0 .3-2.05v-.05a14.82 14.82 0 0 0-4.4-2 21.33 21.33 0 0 0-7.38-.82z"/><ellipse class="cls-4" cx="21.32" cy="26.16" rx=".58" ry=".54"/><ellipse class="cls-4" cx="24.33" cy="28.77" rx=".44" ry=".41"/><ellipse class="cls-4" cx="23.89" cy="27.11" rx=".44" ry=".41"/><ellipse class="cls-4" cx="27.64" cy="21.33" rx=".44" ry=".41"/><ellipse cx="24.03" cy="23.67" rx="5.92" ry="6.99" transform="rotate(-15.22 24.035 23.666)" fill="none" stroke="#45413c" stroke-linecap="round" stroke-linejoin="round"/></g><ellipse cx="24" cy="45.5" rx="11.5" ry="1.5" fill="#45413c" opacity=".15"/></svg>