<svg xmlns="http://www.w3.org/2000/svg" viewBox="0 0 48 48"><defs><style>.cls-2,.cls-3{stroke:#45413c;stroke-linecap:round;stroke-linejoin:round}.cls-2{fill:#fff}.cls-3{fill:#e04122}</style></defs><g><path d="M45 12.25h-6.32A45.89 45.89 0 0 1 24 9.88 45.73 45.73 0 0 0 9.37 7.5H3c-.58 0-1 .35-1 .79v26a.94.94 0 0 0 1 .79h6.37A46 46 0 0 1 24 37.46a45.62 45.62 0 0 0 14.65 2.38H45a.93.93 0 0 0 1-.79V13a.94.94 0 0 0-1-.75z" stroke="#45413c" stroke-linecap="round" stroke-linejoin="round" fill="#ffe500"/><path class="cls-2" d="M13 26.35c.89.07 1.77.16 2.65.28a1.8 1.8 0 0 0 2-1.79v-4.39a47.67 47.67 0 0 0-6.34-.71v4.81a1.8 1.8 0 0 0 1.69 1.8z"/><path class="cls-3" d="M46.05 33.33h-7.37A45.61 45.61 0 0 1 24 31a45.73 45.73 0 0 0-14.63-2.42H2v5.72a.94.94 0 0 0 1 .79h6.37A46 46 0 0 1 24 37.46a45.62 45.62 0 0 0 14.65 2.38H45a.93.93 0 0 0 1-.79z"/><path class="cls-3" d="M46.05 13a.94.94 0 0 0-1-.79h-6.37A45.89 45.89 0 0 1 24 9.88 45.73 45.73 0 0 0 9.37 7.5H3c-.58 0-1 .35-1 .79V14h7.37A46 46 0 0 1 24 16.38a45.62 45.62 0 0 0 14.65 2.38h7.37z"/><path class="cls-2" d="M8.25 19.68h1.51v5.96H8.25z"/><path class="cls-2" d="M20.77 27.04l-1.5-.39v-5.96l1.5.39v5.96z"/><path class="cls-3" d="M15.63 26.63a1.8 1.8 0 0 0 2-1.79v-1.33c-1-.18-2.07-.33-3.11-.45v3.44z"/><path class="cls-3" d="M14.57 20c-1.07-.12-2.15-.2-3.23-.25v3.05c1.08 0 2.16.13 3.23.25z"/><path class="cls-3" d="M13.05 18.3a23.86 23.86 0 0 1 3.18.39s1.31-.43.85-1.36c-.67-1.33-2.49-.55-2.49-.55s-1.41-1.09-2.28-.26.74 1.78.74 1.78z"/><path class="cls-3" d="M17.68 22.78a3.44 3.44 0 0 1 3.09.4v2a3.44 3.44 0 0 0-3.09-.4z"/><path class="cls-3" d="M8.25 21.74a3.44 3.44 0 0 1 3.09.4v2a3.44 3.44 0 0 0-3.09-.4z"/></g><ellipse cx="24" cy="45.5" rx="11.5" ry="1.5" fill="#45413c" opacity=".15"/></svg>