<svg xmlns="http://www.w3.org/2000/svg" viewBox="0 0 48 48"><defs><style>.cls-4{stroke-linecap:round;stroke-linejoin:round;fill:none;stroke:#009fd9}</style></defs><g><path d="M45 12.25h-6.32A45.89 45.89 0 0 1 24 9.88 45.73 45.73 0 0 0 9.37 7.5H3c-.58 0-1 .35-1 .79v26a.94.94 0 0 0 1 .79h6.37A46 46 0 0 1 24 37.46a45.62 45.62 0 0 0 14.65 2.38H45a.93.93 0 0 0 1-.79V13a.94.94 0 0 0-1-.75z" stroke-linecap="round" stroke-linejoin="round" stroke="#45413c" fill="#fff"/><path d="M2 15.21h7.37A45.73 45.73 0 0 1 24 17.59 45.62 45.62 0 0 0 38.68 20h7.37v-7a.94.94 0 0 0-1-.79h-6.37A45.89 45.89 0 0 1 24 9.88 45.73 45.73 0 0 0 9.37 7.5H3c-.58 0-1 .35-1 .79z" fill="#ff8a14" stroke-linecap="round" stroke-linejoin="round" stroke="#45413c"/><path d="M2 34.3a.94.94 0 0 0 1 .79h6.37A46 46 0 0 1 24 37.46a45.62 45.62 0 0 0 14.65 2.38H45c.58 0 1-.35 1-.79v-6.92h-7.32A45.62 45.62 0 0 1 24 29.75a45.72 45.72 0 0 0-14.63-2.37H2z" fill="#46b000" stroke-linecap="round" stroke-linejoin="round" stroke="#45413c"/><ellipse class="cls-4" cx="24.03" cy="23.67" rx="4.26" ry="4.77" transform="rotate(-24.59 24.016 23.666)"/><ellipse cx="24.03" cy="23.67" rx="2.08" ry="2.33" transform="rotate(-24.59 24.016 23.666)" fill="#009fd9"/><path class="cls-4" d="M24.03 19v9.34"/><path class="cls-4" d="M19.67 23.28l8.71.78"/><path class="cls-4" d="M27 20.53l-5.91 6.31"/><path class="cls-4" d="M20.92 20.11L27 27.12"/></g><ellipse cx="24" cy="45.5" rx="11.5" ry="1.5" fill="#45413c" opacity=".15"/></svg>