<svg xmlns="http://www.w3.org/2000/svg" viewBox="0 0 48 48"><defs><style>.cls-4{stroke-linecap:round;stroke-linejoin:round;fill:none;stroke:#46b000}</style></defs><g><path d="M45 12.25h-6.32A45.89 45.89 0 0 1 24 9.88 45.73 45.73 0 0 0 9.37 7.5H3c-.58 0-1 .35-1 .79v26a.94.94 0 0 0 1 .79h6.37A46 46 0 0 1 24 37.46a45.62 45.62 0 0 0 14.65 2.38H45a.93.93 0 0 0 1-.79V13a.94.94 0 0 0-1-.75z" stroke-linecap="round" stroke-linejoin="round" stroke="#45413c" fill="#fff"/><path d="M2 16.52h7.37A46 46 0 0 1 24 18.89a45.62 45.62 0 0 0 14.65 2.38h7.37V13a.94.94 0 0 0-1-.79h-6.34A45.89 45.89 0 0 1 24 9.88 45.73 45.73 0 0 0 9.37 7.5H3c-.58 0-1 .35-1 .79z" fill="#e04122" stroke-linecap="round" stroke-linejoin="round" stroke="#45413c"/><path d="M2 34.3a.94.94 0 0 0 1 .79h6.37A46 46 0 0 1 24 37.46a45.62 45.62 0 0 0 14.65 2.38H45a.93.93 0 0 0 1-.79v-8.41h-7.32A45.89 45.89 0 0 1 24 28.27a45.73 45.73 0 0 0-14.63-2.38H2z" fill="#525252" stroke-linecap="round" stroke-linejoin="round" stroke="#45413c"/><path class="cls-4" d="M13.75 23.81a23.08 23.08 0 0 1 6.51 1.27V23.3a1.07 1.07 0 0 0-.67-1.16c-.36-.13-.79 0-.79.49v.56a14.67 14.67 0 0 0-2.71-.54l3.23-2.86"/><path class="cls-4" d="M21.89 20.39v4.81a4.73 4.73 0 0 1 1.38.47"/><path class="cls-4" d="M14.8 23.89V22.7"/><path class="cls-4" d="M28.92 22.31v5.18a15.23 15.23 0 0 1-3.37-1.07c0-1 .75-1.06 1.06-.75v-1"/><path class="cls-4" d="M27.73 23.59v3.59"/><path class="cls-4" d="M30.47 22.6v5.22a6.31 6.31 0 0 0 1.63.34"/><path class="cls-4" d="M25.99 22.31v-.8"/></g><ellipse cx="24" cy="45.5" rx="11.5" ry="1.5" fill="#45413c" opacity=".15"/></svg>