<svg xmlns="http://www.w3.org/2000/svg" viewBox="0 0 48 48"><g stroke="#45413c" stroke-linecap="round" stroke-linejoin="round"><path d="M45 12.25h-6.32A45.89 45.89 0 0 1 24 9.88 45.73 45.73 0 0 0 9.37 7.5H3c-.58 0-1 .35-1 .79v26a.94.94 0 0 0 1 .79h6.37A46 46 0 0 1 24 37.46a45.62 45.62 0 0 0 14.65 2.38H45a.93.93 0 0 0 1-.79V13a.94.94 0 0 0-1-.75z" fill="#fff"/><ellipse cx="24.03" cy="23.67" rx="8.11" ry="9.26" transform="rotate(-19.69 24.029 23.67)" fill="#e04122"/></g><ellipse cx="24" cy="45.5" rx="11.5" ry="1.5" fill="#45413c" opacity=".15"/></svg>