<svg xmlns="http://www.w3.org/2000/svg" viewBox="0 0 48 48"><defs><style>.cls-4{stroke:#45413c;stroke-linejoin:round;fill:none}</style></defs><g><path d="M45 12.25h-6.32A45.89 45.89 0 0 1 24 9.88 45.73 45.73 0 0 0 9.37 7.5H3c-.58 0-1 .35-1 .79v26a.94.94 0 0 0 1 .79h6.37A46 46 0 0 1 24 37.46a45.62 45.62 0 0 0 14.65 2.38H45a.93.93 0 0 0 1-.79V13a.94.94 0 0 0-1-.75z" stroke-linecap="round" stroke="#45413c" stroke-linejoin="round" fill="#fff"/><ellipse cx="23.51" cy="23.67" rx="7.92" ry="9.6" transform="rotate(-12.88 23.524 23.695)" fill="#ff6242" stroke-linecap="round" stroke="#45413c" stroke-linejoin="round"/><path d="M31.4 26a5 5 0 0 0-3.11-3.2c-3.74-1.19-5.23 4.64-9.37 3.38a5.23 5.23 0 0 1-3.41-3.11c.09 5.16 3.63 9.65 8 10.09 3.98.39 7.27-2.72 7.89-7.16z" fill="#009fd9" stroke-linecap="round" stroke="#45413c" stroke-linejoin="round"/><path class="cls-4" d="M8.81 14.86l3.62-4.91"/><path class="cls-4" d="M10.17 15.87l3.63-4.91"/><path class="cls-4" d="M11.54 16.88l3.63-4.91"/><path class="cls-4" d="M11.67 25.8l2.17 5.7"/><path class="cls-4" d="M10.08 26.4l.89 2.34"/><path class="cls-4" d="M11.37 29.77l.88 2.34"/><path class="cls-4" d="M8.5 27.01l2.17 5.7"/><path class="cls-4" d="M36.96 14.47l.87 2.44"/><path class="cls-4" d="M38.13 17.77l.88 2.45"/><path class="cls-4" d="M35.36 15.04l2.05 5.75"/><path class="cls-4" d="M33.76 15.61l.87 2.44"/><path class="cls-4" d="M34.94 18.92l.87 2.44"/><path class="cls-4" d="M31.52 34.12l1.64-2"/><path class="cls-4" d="M33.75 31.41l1.64-2.01"/><path class="cls-4" d="M32.83 35.2l1.65-2.01"/><path class="cls-4" d="M34.14 36.28l1.65-2.01"/><path class="cls-4" d="M35.06 32.49l1.64-2.01"/><path class="cls-4" d="M36.37 33.56l1.65-2"/></g><ellipse cx="24" cy="45.5" rx="11.5" ry="1.5" fill="#45413c" opacity=".15"/></svg>