<svg xmlns="http://www.w3.org/2000/svg" viewBox="0 0 48 48"><g stroke="#45413c" stroke-linecap="round" stroke-linejoin="round"><path d="M45 11.75h-6.32A45.89 45.89 0 0 1 24 9.38 45.73 45.73 0 0 0 9.37 7H3c-.58 0-1 .35-1 .79v26a.94.94 0 0 0 1 .79h6.37A46 46 0 0 1 24 37a45.62 45.62 0 0 0 14.65 2.38H45a.93.93 0 0 0 1-.79v-26a.94.94 0 0 0-1-.84z" fill="#ff6242"/><path d="M38.68 16A45.89 45.89 0 0 1 24 13.64a45.73 45.73 0 0 0-14.63-2.38H2v19.07h7.37A46 46 0 0 1 24 32.7a45.62 45.62 0 0 0 14.65 2.38h7.37V16z" fill="#fff"/><path d="M38.68 21.19A45.89 45.89 0 0 1 24 18.82a45.73 45.73 0 0 0-14.63-2.38H2v8.71h7.37A46 46 0 0 1 24 27.52a45.62 45.62 0 0 0 14.68 2.38h7.37v-8.71z" fill="#009fd9"/></g><ellipse cx="24" cy="45.5" rx="11.5" ry="1.5" fill="#45413c" opacity=".15"/></svg>