<svg xmlns="http://www.w3.org/2000/svg" viewBox="0 0 48 48"><defs><style>.cls-7{fill:#45413c;stroke:#45413c;stroke-linecap:round;stroke-linejoin:round}.cls-6{fill:#ffaa54}</style></defs><g><circle cx="24" cy="21.5" r="20" fill="#ffe500"/><path d="M24 1.5a20 20 0 1 0 20 20 20 20 0 0 0-20-20zm0 37a18.25 18.25 0 1 1 18.25-18.25A18.25 18.25 0 0 1 24 38.5z" fill="#ebcb00"/><ellipse cx="24" cy="5.5" rx="6" ry="1.5" fill="#fff48c"/><ellipse cx="24" cy="45.5" rx="16" ry="1.5" opacity=".15" fill="#45413c"/><circle cx="24" cy="21.5" r="20" stroke="#45413c" stroke-linecap="round" stroke-linejoin="round" fill="none"/><path class="cls-6" d="M38.5 26.5c0 .83-1.12 1.5-2.5 1.5s-2.5-.67-2.5-1.5S34.62 25 36 25s2.5.67 2.5 1.5z"/><path class="cls-6" d="M9.5 26.5c0 .83 1.12 1.5 2.5 1.5s2.5-.67 2.5-1.5S13.38 25 12 25s-2.5.67-2.5 1.5z"/><path class="cls-7" d="M14.5 20.5a1 1 0 1 1-1-1 1 1 0 0 1 1 1z"/><path class="cls-7" d="M33.5 20.5a1 1 0 1 0 1-1 1 1 0 0 0-1 1z"/><path d="M24 38.5a10.9 10.9 0 0 0 11-9.17 1 1 0 0 0-.31-.84 1.12 1.12 0 0 0-.91-.27 61.58 61.58 0 0 1-19.54 0 1.12 1.12 0 0 0-.91.27 1 1 0 0 0-.31.84A10.9 10.9 0 0 0 24 38.5z" fill="#ffb0ca" stroke="#45413c" stroke-linecap="round" stroke-linejoin="round"/><path d="M24 33.5a17.83 17.83 0 0 0-8.07 1.69 11.49 11.49 0 0 0 16.14 0A17.83 17.83 0 0 0 24 33.5z" fill="#ff87af" stroke="#45413c" stroke-linecap="round" stroke-linejoin="round"/></g></svg>