<svg xmlns="http://www.w3.org/2000/svg" viewBox="0 0 48 48"><defs><style>.cls-5{fill:none;stroke:#45413c;stroke-linecap:round;stroke-linejoin:round}.cls-6{fill:#ffaa54}</style></defs><g><circle cx="24" cy="21.5" r="20" fill="#ffe500"/><path d="M24 1.5a20 20 0 1 0 20 20 20 20 0 0 0-20-20zm0 37a18.25 18.25 0 1 1 18.25-18.25A18.25 18.25 0 0 1 24 38.5z" fill="#ebcb00"/><ellipse cx="24" cy="5.5" rx="6" ry="1.5" fill="#fff48c"/><ellipse cx="24" cy="45.5" rx="16" ry="1.5" fill="#45413c" opacity=".15"/><circle class="cls-5" cx="24" cy="21.5" r="20"/><path class="cls-6" d="M38.5 26.5c0 .83-1.12 1.5-2.5 1.5s-2.5-.67-2.5-1.5S34.62 25 36 25s2.5.67 2.5 1.5z"/><path class="cls-6" d="M9.5 26.5c0 .83 1.12 1.5 2.5 1.5s2.5-.67 2.5-1.5S13.38 25 12 25s-2.5.67-2.5 1.5z"/><g stroke="#45413c" stroke-linecap="round" stroke-linejoin="round"><path d="M17.94 29.5a.94.94 0 0 0-.71.33 1 1 0 0 0-.22.76 7.09 7.09 0 0 0 14 0 1 1 0 0 0-.22-.76.94.94 0 0 0-.71-.33z" fill="#ffb0ca"/><path d="M29.57 33.84A11.37 11.37 0 0 0 24 32.53a11.37 11.37 0 0 0-5.57 1.31 7.16 7.16 0 0 0 11.14 0z" fill="#ff87af"/></g><path class="cls-5" d="M10 22.75a1.75 1.75 0 0 1 3.5 0"/><path class="cls-5" d="M34.5 22.75a1.75 1.75 0 0 1 3.5 0"/></g></svg>