<svg xmlns="http://www.w3.org/2000/svg" viewBox="0 0 48 48"><defs><style>.cls-5{fill:none}.cls-5,.cls-9{stroke:#45413c}.cls-5{stroke-linecap:round}.cls-5,.cls-9{stroke-linejoin:round}.cls-7{fill:#ffaa54}.cls-9{fill:#fff}</style></defs><g><circle cx="19.42" cy="20.38" r="18.88" fill="#ffe500"/><path d="M19.42 1.5A18.88 18.88 0 1 0 38.3 20.38 18.88 18.88 0 0 0 19.42 1.5zm0 34.92A17.23 17.23 0 1 1 36.64 19.2a17.23 17.23 0 0 1-17.22 17.22z" fill="#ebcb00"/><ellipse cx="19.42" cy="5.28" rx="5.66" ry="1.42" fill="#fff48c"/><ellipse cx="19.42" cy="44.58" rx="15.1" ry="1.42" opacity=".15" fill="#45413c"/><circle class="cls-5" cx="19.42" cy="20.38" r="18.88"/><path d="M24.14 27.91a8.5 8.5 0 0 1-9.44 0" stroke-miterlimit="10" stroke-linecap="round" stroke="#45413c" fill="none"/><path class="cls-7" d="M33.11 25.1c0 .78-1.06 1.41-2.36 1.41s-2.36-.63-2.36-1.41 1.05-1.42 2.36-1.42 2.36.63 2.36 1.42z"/><path class="cls-7" d="M5.73 25.1c0 .78 1.06 1.41 2.36 1.41s2.36-.63 2.36-1.41-1-1.42-2.36-1.42-2.36.63-2.36 1.42z"/><path class="cls-5" d="M29.8 18.96l-1.89 2.36 4.25-.94"/><path d="M9.51 20.38a.95.95 0 0 1-1.89 0 .95.95 0 1 1 1.89 0z" stroke-linejoin="round" stroke-linecap="round" stroke="#45413c" fill="#45413c"/><g><path class="cls-9" d="M47.24 20.81a.59.59 0 0 1-.27.43.55.55 0 0 1-.5 0l-4.89-1.91a.56.56 0 0 1 .14-1.09l5.14-.61a.57.57 0 0 1 .47.16.6.6 0 0 1 .17.46z"/><path class="cls-9" d="M46.59 10.55a.55.55 0 0 0-.35-.36.58.58 0 0 0-.51.06l-4.36 2.91a.57.57 0 0 0 .37 1l5.15-.51a.57.57 0 0 0 .43-.25.61.61 0 0 0 .06-.49z"/><path class="cls-9" d="M40.78 4a.56.56 0 0 0-.5-.07.57.57 0 0 0-.36.35l-1.72 5a.57.57 0 0 0 .23.66.56.56 0 0 0 .7-.06l3.79-3.52a.53.53 0 0 0 .18-.46.54.54 0 0 0-.24-.42z"/></g></g></svg>