<svg xmlns="http://www.w3.org/2000/svg" viewBox="0 0 48 48"><defs><style>.cls-4,.cls-6{fill:#fff;stroke:#45413c;stroke-linecap:round;stroke-linejoin:round}.cls-6{fill:none}.cls-8{fill:#ffaa54}.cls-9{fill:#656769}.cls-10{fill:#87898c}</style></defs><g><circle cx="26.5" cy="20.66" r="18.66" fill="#ffe500"/><path d="M26.5 2a18.66 18.66 0 1 0 18.66 18.66A18.65 18.65 0 0 0 26.5 2zm0 34.52a17 17 0 1 1 17-17 17 17 0 0 1-17 17z" fill="#ebcb00"/><ellipse cx="26.5" cy="5.73" rx="5.6" ry="1.4" fill="#fff48c"/><path class="cls-4" d="M7.86 39.41a2.24 2.24 0 0 1 1.68-1.67l3.37-.74a.28.28 0 0 0 .21-.27.29.29 0 0 0-.21-.28l-3.37-.77A2.25 2.25 0 0 1 7.86 34l-.78-3.37a.28.28 0 0 0-.54 0L5.76 34a2.25 2.25 0 0 1-1.68 1.68l-3.36.77a.29.29 0 0 0-.22.28.28.28 0 0 0 .22.27l3.36.78a2.22 2.22 0 0 1 1.68 1.67l.78 3.37a.28.28 0 0 0 .54 0z"/><path class="cls-4" d="M44.7 6l2.63-.88a.25.25 0 0 0 .17-.23.26.26 0 0 0-.17-.24L45.16 4a1 1 0 0 1-.62-.63l-.72-2.16a.26.26 0 0 0-.24-.21.25.25 0 0 0-.23.17l-.72 2.16A1 1 0 0 1 42 4l-2.17.72a.26.26 0 0 0-.17.24.25.25 0 0 0 .17.23l2.17.68a1 1 0 0 1 .63.63l.72 2.17a.25.25 0 0 0 .23.17.26.26 0 0 0 .24-.17z"/><ellipse cx="26.09" cy="44.51" rx="14.93" ry="1.5" fill="#45413c" opacity=".15"/><circle class="cls-6" cx="26.5" cy="20.66" r="18.66"/><path d="M31.17 28.11a8.42 8.42 0 0 1-9.33 0" stroke-miterlimit="10" fill="none" stroke="#45413c" stroke-linecap="round"/><path class="cls-8" d="M40 25.32c0 .78-1.05 1.4-2.33 1.4s-2.34-.62-2.34-1.4 1-1.4 2.34-1.4 2.33.63 2.33 1.4z"/><path class="cls-8" d="M13 25.32c0 .78 1 1.4 2.33 1.4s2.34-.62 2.34-1.4-1.05-1.4-2.34-1.4-2.33.63-2.33 1.4z"/><g><path class="cls-9" d="M39.87 23.92h-5.43a5.38 5.38 0 0 1-5.32-4.5l-.75-4.49A2.69 2.69 0 0 1 31 11.8h12a2.69 2.69 0 0 1 2.68 3l-.48 4.34a5.4 5.4 0 0 1-5.33 4.78z"/><path class="cls-10" d="M29.12 19.42A5.36 5.36 0 0 0 31.46 23l11.21-11.2H31a2.69 2.69 0 0 0-2.66 3.13z"/><path class="cls-6" d="M39.87 23.92h-5.43a5.38 5.38 0 0 1-5.32-4.5l-.75-4.49A2.69 2.69 0 0 1 31 11.8h12a2.69 2.69 0 0 1 2.68 3l-.48 4.34a5.4 5.4 0 0 1-5.33 4.78z"/><path class="cls-9" d="M13.13 23.92h5.43a5.38 5.38 0 0 0 5.32-4.5l.75-4.49A2.69 2.69 0 0 0 22 11.8H10a2.7 2.7 0 0 0-2.68 3l.49 4.34a5.38 5.38 0 0 0 5.32 4.78z"/><path class="cls-10" d="M7.77 19.13a5.39 5.39 0 0 0 2.86 4.16l11.48-11.48H10a2.7 2.7 0 0 0-2.68 3z"/><path class="cls-6" d="M13.13 23.92h5.43a5.38 5.38 0 0 0 5.32-4.5l.75-4.49A2.69 2.69 0 0 0 22 11.8H10a2.7 2.7 0 0 0-2.68 3l.49 4.34a5.38 5.38 0 0 0 5.32 4.78z"/><path class="cls-6" d="M29.28 12.46a6.18 6.18 0 0 0-5.56 0"/></g></g></svg>