<svg xmlns="http://www.w3.org/2000/svg" viewBox="0 0 48 48"><defs><style>.cls-2{fill:#ebcb00}.cls-5{fill:none;stroke:#45413c;stroke-linecap:round;stroke-linejoin:round}</style></defs><g><circle cx="24" cy="21.5" r="20" fill="#ffe500"/><path class="cls-2" d="M24 1.5a20 20 0 1 0 20 20 20 20 0 0 0-20-20zm0 37a18.25 18.25 0 1 1 18.25-18.25A18.25 18.25 0 0 1 24 38.5z"/><ellipse cx="24" cy="5.5" rx="6" ry="1.5" fill="#fff48c"/><path class="cls-2" d="M41.89 30.44A20 20 0 0 1 33.7 39l-1.12-2.62-.58-1.31a7.39 7.39 0 0 1 .16-5.86 5.71 5.71 0 0 1 3.9-3.32 4.46 4.46 0 0 1 4.62 1.69 4.89 4.89 0 0 1 .77 1.49z"/><ellipse cx="24" cy="45.5" rx="16" ry="1.5" opacity=".15" fill="#45413c"/><circle class="cls-5" cx="24" cy="21.5" r="20"/><g><path d="M48.47 29.88a4.64 4.64 0 0 1 .09 4.12 6 6 0 0 1-3.45 3.22L36.86 40l-3.41-8a6 6 0 0 1 .12-4.72 4.65 4.65 0 0 1 3.15-2.68 3.65 3.65 0 0 1 4.34 2.57l.64 2.06 2-.89a3.65 3.65 0 0 1 4.77 1.54z" fill="#ff6242"/><path d="M35 28.41A3.64 3.64 0 0 1 39.35 31l.65 2 2-.89a3.64 3.64 0 0 1 4.8 1.55 4.3 4.3 0 0 1 .52 2.15A6.27 6.27 0 0 0 48.56 34a4.64 4.64 0 0 0-.09-4.13 3.65 3.65 0 0 0-4.8-1.55l-2 .89-.64-2.06a3.65 3.65 0 0 0-4.34-2.57 4.65 4.65 0 0 0-3.15 2.68 6 6 0 0 0-.52 2.19A4.22 4.22 0 0 1 35 28.41z" fill="#ff866e"/><path class="cls-5" d="M48.47 29.88a4.64 4.64 0 0 1 .09 4.12 6 6 0 0 1-3.45 3.22L36.86 40l-3.41-8a6 6 0 0 1 .12-4.72 4.65 4.65 0 0 1 3.15-2.68 3.65 3.65 0 0 1 4.34 2.57l.64 2.06 2-.89a3.65 3.65 0 0 1 4.77 1.54z"/></g><path d="M9.5 26.5c0 .83 1.12 1.5 2.5 1.5s2.5-.67 2.5-1.5S13.38 25 12 25s-2.5.67-2.5 1.5z" fill="#ffaa54"/><path class="cls-5" d="M32.5 21.75a1.75 1.75 0 0 1 3.5 0"/><path d="M12 20.5a1 1 0 1 0 1-1 1 1 0 0 0-1 1z" stroke="#45413c" stroke-linecap="round" stroke-linejoin="round" fill="#45413c"/><g><g><path class="cls-5" d="M24 28.27a2 2 0 0 1 1-.27 2 2 0 1 1 0 4 2 2 0 1 1 0 4 2 2 0 0 1-1-.27"/></g></g></g></svg>