<svg xmlns="http://www.w3.org/2000/svg" viewBox="0 0 48 48"><defs><style>.cls-7{fill:#45413c}.cls-10,.cls-11,.cls-5,.cls-8,.cls-9{fill:none}.cls-5,.cls-7{stroke:#45413c}.cls-10,.cls-11,.cls-5,.cls-7,.cls-8,.cls-9{stroke-linecap:round;stroke-linejoin:round}.cls-6{fill:#ffaa54}.cls-8{stroke:#48cf3e}.cls-9{stroke:#ff4064}.cls-10{stroke:#ffb700}.cls-11{stroke:#00aed9}</style></defs><g><circle cx="16.83" cy="24.83" r="15.33" fill="#ffe500"/><path d="M16.83 9.5a15.33 15.33 0 1 0 15.33 15.33A15.33 15.33 0 0 0 16.83 9.5zm0 28.36a14 14 0 1 1 14-14 14 14 0 0 1-14 14z" fill="#ebcb00"/><ellipse cx="16.83" cy="12.57" rx="4.6" ry="1.15" fill="#fff48c"/><ellipse cx="16.83" cy="45.5" rx="12.26" ry="1.5" opacity=".15" fill="#45413c"/><circle class="cls-5" cx="16.83" cy="24.83" r="15.33"/><g><path class="cls-5" d="M16.83 29.63a1.53 1.53 0 1 1 .77 2.86 1.54 1.54 0 0 1 0 3.07 1.57 1.57 0 0 1-.78-.21"/></g><path class="cls-6" d="M5.72 28.66c0 .64.85 1.15 1.91 1.15s1.92-.51 1.92-1.15-.86-1.15-1.92-1.15-1.91.49-1.91 1.15z"/><path class="cls-6" d="M27.94 28.66c0 .64-.86 1.15-1.91 1.15s-1.92-.51-1.92-1.15.89-1.15 1.89-1.15 1.94.49 1.94 1.15z"/><path class="cls-7" d="M9.55 24.45a.77.77 0 1 1-.77-.77.77.77 0 0 1 .77.77z"/><path class="cls-7" d="M24.11 24.45a.77.77 0 1 0 .77-.77.76.76 0 0 0-.77.77z"/><g><path class="cls-8" d="M37.88 17a1.65 1.65 0 1 1-1.64-1.64A1.65 1.65 0 0 1 37.88 17z"/><path class="cls-8" d="M46.09 15.31a1.65 1.65 0 1 1-1.64-1.65 1.65 1.65 0 0 1 1.64 1.65z"/><path class="cls-8" d="M37.88 16.95V9.56l8.21-3.29v9.03"/></g><g><path class="cls-9" d="M36.11 40.55a1.62 1.62 0 1 1-1.61-1.61 1.62 1.62 0 0 1 1.61 1.61z"/><path class="cls-9" d="M36.11 40.55v-7.27l2.42 1.62"/></g><g><path class="cls-10" d="M27.1 7.36a1 1 0 1 1-1.05-1 1 1 0 0 1 1.05 1z"/><path class="cls-10" d="M27.1 7.36v-4.7l1.57 1.04"/></g><g><path class="cls-11" d="M38.81 23.83v-.58"/><path class="cls-11" d="M40.03 24.33l.4-.4"/><path class="cls-11" d="M40.53 25.55h.58"/><path class="cls-11" d="M40.03 26.77l.4.41"/><path class="cls-11" d="M38.81 27.28v.57"/><path class="cls-11" d="M37.59 26.77l-.41.41"/><path class="cls-11" d="M37.08 25.55h-.57"/><path class="cls-11" d="M37.59 24.33l-.41-.4"/></g><g><path class="cls-11" d="M44.47 32v-3.06"/><path class="cls-11" d="M42.94 30.47h3.07"/></g><g><path class="cls-11" d="M41.11 4.19V2.66"/><path class="cls-11" d="M40.34 3.43h1.53"/></g><g><path class="cls-11" d="M42.15 39.26v-1.54"/><path class="cls-11" d="M41.38 38.49h1.53"/></g><g><path class="cls-11" d="M31.23 9.37V7.83"/><path class="cls-11" d="M30.46 8.6h1.53"/></g></g></svg>