<svg xmlns="http://www.w3.org/2000/svg" viewBox="0 0 48 48"><defs><style>.cls-3{fill:#ebcb00}.cls-4{fill:#fff48c}.cls-5{fill:none}.cls-5,.cls-8{stroke:#45413c;stroke-linecap:round;stroke-linejoin:round}.cls-6{fill:#ffaa54}.cls-7{fill:#fffacf}.cls-8{fill:#fff}</style></defs><g><ellipse cx="24" cy="45.5" rx="16" ry="1.5" fill="#45413c" opacity=".15"/><circle cx="24" cy="21.5" r="20" fill="#ffe500"/><path class="cls-3" d="M24 1.5a20 20 0 1 0 20 20 20 20 0 0 0-20-20zm0 37a18.25 18.25 0 1 1 18.25-18.25A18.25 18.25 0 0 1 24 38.5z"/><ellipse class="cls-4" cx="24" cy="5.5" rx="6" ry="1.5"/><circle class="cls-5" cx="24" cy="21.5" r="20"/><path class="cls-6" d="M38.5 26.5c0 .83-1.12 1.5-2.5 1.5s-2.5-.67-2.5-1.5S34.62 25 36 25s2.5.67 2.5 1.5z"/><path class="cls-6" d="M9.5 26.5c0 .83 1.12 1.5 2.5 1.5s2.5-.67 2.5-1.5S13.38 25 12 25s-2.5.67-2.5 1.5z"/><path class="cls-3" d="M32.13 21.79l-3 1.59a1 1 0 0 1-1.45-1.05l.55-3.33a1 1 0 0 0-.29-.89l-2.45-2.38a1 1 0 0 1 .56-1.73l3.38-.49a1 1 0 0 0 .75-.55l1.52-3.09a1 1 0 0 1 1.79 0L35 12.94a1 1 0 0 0 .75.55l3.38.49a1 1 0 0 1 .56 1.71l-2.45 2.38A1 1 0 0 0 37 19l.58 3.37a1 1 0 0 1-1.45 1.05l-3-1.59a1 1 0 0 0-1-.04z"/><path class="cls-7" d="M33.69 19.35l-3 1.59a1 1 0 0 1-1.45-1.05l.57-3.37a1 1 0 0 0-.28-.89l-2.45-2.38a1 1 0 0 1 .55-1.71l3.37-.49a1 1 0 0 0 .75-.55l1.51-3.07a1 1 0 0 1 1.8 0l1.51 3.07a1 1 0 0 0 .75.55l3.39.49a1 1 0 0 1 .55 1.71l-2.45 2.38a1 1 0 0 0-.29.89l.58 3.37a1 1 0 0 1-1.45 1.05l-3-1.59a1 1 0 0 0-.96 0z"/><g><path class="cls-4" d="M38.81 18.2l-3.06-1.61a1.38 1.38 0 0 0-1.31 0l-4.25 2.23a1.35 1.35 0 0 1-.82.16l-.16.91a1 1 0 0 0 1.46 1.05l3-1.59a1 1 0 0 1 .93 0l3 1.59a1 1 0 0 0 1.45-1.05z"/></g><path class="cls-5" d="M33.69 19.35l-3 1.59a1 1 0 0 1-1.45-1.05l.57-3.37a1 1 0 0 0-.28-.89l-2.45-2.38a1 1 0 0 1 .55-1.71l3.37-.49a1 1 0 0 0 .75-.55l1.51-3.07a1 1 0 0 1 1.8 0l1.51 3.07a1 1 0 0 0 .75.55l3.39.49a1 1 0 0 1 .55 1.71l-2.45 2.38a1 1 0 0 0-.29.89l.58 3.37a1 1 0 0 1-1.45 1.05l-3-1.59a1 1 0 0 0-.96 0z"/><path class="cls-3" d="M15.87 21.79l3 1.59a1 1 0 0 0 1.45-1.05L19.77 19a1 1 0 0 1 .29-.89l2.45-2.38A1 1 0 0 0 22 14l-3.38-.49a1 1 0 0 1-.75-.55L16.3 9.87a1 1 0 0 0-1.79 0L13 12.94a1 1 0 0 1-.75.55L8.86 14a1 1 0 0 0-.56 1.71l2.45 2.38A1 1 0 0 1 11 19l-.58 3.37a1 1 0 0 0 1.45 1.05l3-1.59a1 1 0 0 1 1-.04z"/><path class="cls-7" d="M14.31 19.35l3 1.59a1 1 0 0 0 1.45-1.05l-.57-3.37a1 1 0 0 1 .28-.89l2.45-2.38a1 1 0 0 0-.55-1.71L17 11.05a1 1 0 0 1-.75-.55l-1.51-3.07a1 1 0 0 0-1.8 0l-1.51 3.07a1 1 0 0 1-.75.55l-3.39.49a1 1 0 0 0-.55 1.71l2.45 2.38a1 1 0 0 1 .29.89l-.58 3.37a1 1 0 0 0 1.45 1.05l3-1.59a1 1 0 0 1 .96 0z"/><g><path class="cls-4" d="M9.19 18.2l3.06-1.61a1.38 1.38 0 0 1 1.31 0l4.25 2.23a1.35 1.35 0 0 0 .82.16l.16.91a1 1 0 0 1-1.46 1.05l-3-1.59a1 1 0 0 0-.93 0l-3 1.59a1 1 0 0 1-1.5-1.05z"/></g><path class="cls-5" d="M14.31 19.35l3 1.59a1 1 0 0 0 1.45-1.05l-.57-3.37a1 1 0 0 1 .28-.89l2.45-2.38a1 1 0 0 0-.55-1.71L17 11.05a1 1 0 0 1-.75-.55l-1.51-3.07a1 1 0 0 0-1.8 0l-1.51 3.07a1 1 0 0 1-.75.55l-3.39.49a1 1 0 0 0-.55 1.71l2.45 2.38a1 1 0 0 1 .29.89l-.58 3.37a1 1 0 0 0 1.45 1.05l3-1.59a1 1 0 0 1 .96 0z"/><path class="cls-8" d="M24 38.5a10.9 10.9 0 0 0 11-9.17 1 1 0 0 0-.31-.84 1.12 1.12 0 0 0-.91-.27 61.58 61.58 0 0 1-19.54 0 1.12 1.12 0 0 0-.91.27 1 1 0 0 0-.31.84A10.9 10.9 0 0 0 24 38.5z"/><path class="cls-8" d="M34 32.5A30.16 30.16 0 0 1 24 34a30.23 30.23 0 0 1-10-1.5"/><path class="cls-5" d="M24 29v9.5"/><path class="cls-5" d="M17.5 28.66c0 .6-.05 5.75 1.06 8.49"/><path class="cls-5" d="M30.5 28.66c0 .6.05 5.75-1.06 8.49"/></g></svg>