<svg xmlns="http://www.w3.org/2000/svg" viewBox="0 0 48 48"><defs><style>.cls-7{stroke:#45413c;stroke-linecap:round;stroke-linejoin:round;fill:#fff}</style></defs><g><circle cx="24" cy="21.5" r="20" fill="#ffe500"/><path d="M24 1.5a20 20 0 1 0 20 20 20 20 0 0 0-20-20zm0 37a18.25 18.25 0 1 1 18.25-18.25A18.25 18.25 0 0 1 24 38.5z" fill="#ebcb00"/><circle cx="24" cy="21.5" r="20" stroke="#45413c" stroke-linecap="round" stroke-linejoin="round" fill="none"/><ellipse cx="24" cy="5.5" rx="6" ry="1.5" fill="#fff48c"/><g stroke="#45413c" stroke-linecap="round" stroke-linejoin="round"><path d="M17.94 29.21a.94.94 0 0 0-.71.33 1 1 0 0 0-.22.76 7.07 7.07 0 0 0 14 0 1 1 0 0 0-.22-.76.94.94 0 0 0-.71-.33z" fill="#ffb0ca"/><path d="M29.57 33.56A11.26 11.26 0 0 0 24 32.24a11.26 11.26 0 0 0-5.57 1.32 7 7 0 0 0 11.14 0z" fill="#ff87af"/></g><path class="cls-7" d="M20.75 23.42a.32.32 0 0 0 0-.63c-5-1.43-5.4-1.84-6.83-6.82a.32.32 0 0 0-.63 0c-1.43 5-1.85 5.4-6.82 6.82a.32.32 0 0 0 0 .63c5 1.43 5.4 1.85 6.82 6.83a.32.32 0 0 0 .63 0c1.43-4.98 1.84-5.4 6.83-6.83z"/><path class="cls-7" d="M27.25 23.42a.32.32 0 0 1 0-.63c5-1.43 5.4-1.84 6.82-6.82a.41.41 0 0 1 .32-.26.38.38 0 0 1 .32.26c1.43 5 1.85 5.4 6.82 6.82a.32.32 0 0 1 0 .63c-5 1.43-5.4 1.85-6.82 6.83a.35.35 0 0 1-.32.25.38.38 0 0 1-.32-.25c-1.42-4.98-1.83-5.4-6.82-6.83z"/><ellipse cx="24" cy="45.5" rx="16" ry="1.5" fill="#45413c" opacity=".15"/></g></svg>