<svg xmlns="http://www.w3.org/2000/svg" viewBox="0 0 48 48"><defs><style>.cls-7{fill:#45413c}.cls-5{fill:none}.cls-5,.cls-7{stroke:#45413c;stroke-linecap:round;stroke-linejoin:round}.cls-6{fill:#ffaa54}</style></defs><g><ellipse cx="24" cy="45.5" rx="16" ry="1.5" opacity=".15" fill="#45413c"/><circle cx="24" cy="21.5" r="20" fill="#ffe500"/><path d="M24 1.5a20 20 0 1 0 20 20 20 20 0 0 0-20-20zm0 37a18.25 18.25 0 1 1 18.25-18.25A18.25 18.25 0 0 1 24 38.5z" fill="#ebcb00"/><ellipse cx="24" cy="5.5" rx="6" ry="1.5" fill="#fff48c"/><circle class="cls-5" cx="24" cy="21.5" r="20"/><path class="cls-6" d="M38.5 26.5c0 .83-1.12 1.5-2.5 1.5s-2.5-.67-2.5-1.5S34.62 25 36 25s2.5.67 2.5 1.5z"/><path class="cls-6" d="M9.5 26.5c0 .83 1.12 1.5 2.5 1.5s2.5-.67 2.5-1.5S13.38 25 12 25s-2.5.67-2.5 1.5z"/><path class="cls-7" d="M14.5 20.5a1 1 0 1 1-1-1 1 1 0 0 1 1 1z"/><path class="cls-7" d="M33.5 19.5c0 .83.45 1.5 1 1.5s1-.67 1-1.5-.45-1.5-1-1.5-1 .67-1 1.5z"/><path class="cls-5" d="M18.5 27.5h11"/><path class="cls-5" d="M31.83 14.5a3.14 3.14 0 0 1 2.67-2 3.14 3.14 0 0 1 2.67 2"/><path class="cls-5" d="M10.57 17.08a6.23 6.23 0 0 0 2.89.92 6.31 6.31 0 0 0 3.05-.07"/></g></svg>