<svg xmlns="http://www.w3.org/2000/svg" viewBox="0 0 48 48"><defs><style>.cls-3{fill:none}.cls-3,.cls-6,.cls-8{stroke:#45413c;stroke-linecap:round;stroke-linejoin:round}.cls-6{fill:#45413c}.cls-7{fill:#ffaa54}.cls-8{fill:#fff}</style></defs><g><g><circle cx="24" cy="21.5" r="20" fill="#ffe500"/><path d="M24 1.5a20 20 0 1 0 20 20 20 20 0 0 0-20-20zm0 37a18.25 18.25 0 1 1 18.25-18.25A18.25 18.25 0 0 1 24 38.5z" fill="#ebcb00"/><circle class="cls-3" cx="24" cy="21.5" r="20"/><ellipse cx="24" cy="5.5" rx="6" ry="1.5" fill="#fff48c"/><ellipse cx="24" cy="45.5" rx="16" ry="1.5" opacity=".15" fill="#45413c"/><path class="cls-6" d="M15 21.5a1 1 0 1 1-1-1 1 1 0 0 1 1 1z"/><path class="cls-6" d="M34.5 21.5a1 1 0 1 1-1-1 1 1 0 0 1 1 1z"/><path class="cls-7" d="M38.5 26.5c0 .83-1.12 1.5-2.5 1.5s-2.5-.67-2.5-1.5S34.62 25 36 25s2.5.67 2.5 1.5z"/><path class="cls-7" d="M9.5 26.5c0 .83 1.12 1.5 2.5 1.5s2.5-.67 2.5-1.5S13.38 25 12 25s-2.5.67-2.5 1.5z"/><path id="_Line_" data-name="&lt;Line&gt;" class="cls-3" d="M35 32H13"/><path class="cls-8" d="M16.5 33.5a1 1 0 0 1-2 0v-3a1 1 0 0 1 2 0z"/><path class="cls-8" d="M21 33.5a1 1 0 0 1-2 0v-3a1 1 0 0 1 2 0z"/><path class="cls-8" d="M25.5 33.5a1 1 0 0 1-2 0v-3a1 1 0 0 1 2 0z"/><path class="cls-8" d="M30 33.5a1 1 0 0 1-2 0v-3a1 1 0 0 1 2 0z"/><path id="_Compound_Path_2" class="cls-8" d="M32.81 32.3a2.38 2.38 0 0 0-.34 3.21l2.87 3.86a2.79 2.79 0 1 0 4.17-3.67L36 32.37a2.39 2.39 0 0 0-3.19-.07z"/><path d="M37.42 36.54a1 1 0 1 0 1 1 1 1 0 0 0-1-1z" fill="#45413c"/></g></g></svg>