<svg xmlns="http://www.w3.org/2000/svg" viewBox="0 0 48 48"><defs><style>.cls-6{stroke:#45413c;stroke-linecap:round;stroke-linejoin:round;fill:#fff}.cls-8{fill:#ffaa54}</style></defs><g><circle cx="24" cy="21.5" r="20" fill="#ffe500"/><path d="M24 1.5a20 20 0 1 0 20 20 20 20 0 0 0-20-20zm0 37a18.25 18.25 0 1 1 18.25-18.25A18.25 18.25 0 0 1 24 38.5z" fill="#ebcb00"/><ellipse cx="24" cy="5.5" rx="6" ry="1.5" fill="#fff48c"/><ellipse cx="24" cy="45.5" rx="16" ry="1.5" fill="#45413c" opacity=".15"/><circle cx="24" cy="21.5" r="20" stroke="#45413c" stroke-linecap="round" stroke-linejoin="round" fill="none"/><path class="cls-6" d="M18.5 20a3.5 3.5 0 1 1-3.5-3.5 3.5 3.5 0 0 1 3.5 3.5z"/><path class="cls-6" d="M36.5 20a3.5 3.5 0 1 1-3.5-3.5 3.5 3.5 0 0 1 3.5 3.5z"/><path d="M25.5 32.5A1.5 1.5 0 1 1 24 31a1.5 1.5 0 0 1 1.5 1.5z" fill="#ffb0ca" stroke="#45413c" stroke-linecap="round" stroke-linejoin="round"/><path class="cls-8" d="M39 26.5c0 .83-1.12 1.5-2.5 1.5s-2.5-.67-2.5-1.5 1.12-1.5 2.5-1.5 2.5.67 2.5 1.5z"/><path class="cls-8" d="M10 26.5c0 .83 1.12 1.5 2.5 1.5s2.5-.67 2.5-1.5-1.12-1.5-2.5-1.5-2.5.67-2.5 1.5z"/></g></svg>