<svg xmlns="http://www.w3.org/2000/svg" viewBox="0 0 48 48"><defs><style>.cls-5{fill:none;stroke:#45413c;stroke-linejoin:round;stroke-linecap:round}</style></defs><g><circle cx="24" cy="21.5" r="20" fill="#ffe500"/><path d="M24 1.5a20 20 0 1 0 20 20 20 20 0 0 0-20-20zm0 37a18.25 18.25 0 1 1 18.25-18.25A18.25 18.25 0 0 1 24 38.5z" fill="#ebcb00"/><ellipse cx="24" cy="5.5" rx="6" ry="1.5" fill="#fff48c"/><ellipse cx="24" cy="45.5" rx="16" ry="1.5" fill="#45413c" opacity=".15"/><circle class="cls-5" cx="24" cy="21.5" r="20"/><path d="M9.5 26.5c0 .83 1.12 1.5 2.5 1.5s2.5-.67 2.5-1.5S13.38 25 12 25s-2.5.67-2.5 1.5z" fill="#ffaa54"/><path class="cls-5" d="M38 20.5a1.75 1.75 0 0 1-3.5 0"/><path class="cls-5" d="M13.5 20.5a1.75 1.75 0 0 1-3.5 0"/><path d="M29.48 26.42a.5.5 0 0 1 .26-.92h2.76A11.5 11.5 0 0 1 44 37a4 4 0 0 1-8 0 11.72 11.72 0 0 0-5.51-9.94z" fill="#00b8f0"/><path d="M44 37a11.5 11.5 0 0 0-11.5-11.5h-2.76a.5.5 0 0 0-.26.92l.92.58h.6a11.5 11.5 0 0 1 11.5 11.5 3.84 3.84 0 0 1-.54 2A4 4 0 0 0 44 37z" fill="#4acfff"/><path d="M29.48 26.42a.5.5 0 0 1 .26-.92h2.76A11.5 11.5 0 0 1 44 37a4 4 0 0 1-8 0 11.72 11.72 0 0 0-5.51-9.94z" stroke="#45413c" stroke-linejoin="round" fill="none"/><g><path d="M16.74 35.36a2.5 2.5 0 0 1-.19-3.53 10 10 0 0 1 14.9 0 2.5 2.5 0 1 1-3.72 3.34 5 5 0 0 0-7.46 0 2.5 2.5 0 0 1-3.53.19z" fill="#ffb0ca" stroke-linecap="round" stroke="#45413c" stroke-linejoin="round"/></g><path class="cls-5" d="M31 13.5a11.66 11.66 0 0 1 6.25 3.16"/><path class="cls-5" d="M17 13.5a11.66 11.66 0 0 0-6.25 3.16"/><path d="M30.61 31a10 10 0 0 0-13.22 0z" fill="#fff" stroke-linecap="round" stroke="#45413c" stroke-linejoin="round"/></g></svg>