<svg xmlns="http://www.w3.org/2000/svg" viewBox="0 0 48 48"><defs><style>.cls-4{fill:none;stroke:#45413c;stroke-linecap:round;stroke-linejoin:round}.cls-6{fill:#ffaa54}</style></defs><g><circle cx="24" cy="21.5" r="20" fill="#ffe500"/><path d="M24 1.5a20 20 0 1 0 20 20 20 20 0 0 0-20-20zm0 37a18.25 18.25 0 1 1 18.25-18.25A18.25 18.25 0 0 1 24 38.5z" fill="#ebcb00"/><ellipse cx="24" cy="5.5" rx="6" ry="1.5" fill="#fff48c"/><circle class="cls-4" cx="24" cy="21.5" r="20"/><ellipse cx="24" cy="45.5" rx="16" ry="1.5" fill="#45413c" opacity=".15"/><path class="cls-4" d="M34.75 16.16A11.65 11.65 0 0 1 28.5 13"/><path class="cls-4" d="M13.25 16.16A11.65 11.65 0 0 0 19.5 13"/><path class="cls-6" d="M38.5 26.5c0 .83-1.12 1.5-2.5 1.5s-2.5-.67-2.5-1.5S34.62 25 36 25s2.5.67 2.5 1.5z"/><path class="cls-6" d="M9.5 26.5c0 .83 1.12 1.5 2.5 1.5s2.5-.67 2.5-1.5S13.38 25 12 25s-2.5.67-2.5 1.5z"/><path class="cls-4" d="M36.26 18l-3.21 1.61a1 1 0 0 0 0 1.78L36.26 23"/><path class="cls-4" d="M11.74 18L15 19.61a1 1 0 0 1 0 1.78L11.74 23"/><g><g><g><path d="M31.79 36a1.21 1.21 0 0 0 .92-.42 1.24 1.24 0 0 0 .28-1 9.12 9.12 0 0 0-18 0 1.24 1.24 0 0 0 .28 1 1.21 1.21 0 0 0 .92.42 30.92 30.92 0 0 1 15.6 0z" fill="#ffb0ca" stroke="#45413c" stroke-linecap="round" stroke-linejoin="round"/></g></g><path d="M24 27a9.11 9.11 0 0 0-6.3 2.5h12.6A9.11 9.11 0 0 0 24 27z" fill="#fff" stroke="#45413c" stroke-linecap="round" stroke-linejoin="round"/></g></g></svg>