<svg xmlns="http://www.w3.org/2000/svg" viewBox="0 0 48 48"><defs><style>.cls-7{fill:#45413c}.cls-5{fill:none}.cls-5,.cls-7{stroke:#45413c;stroke-linecap:round;stroke-linejoin:round}.cls-6{fill:#ffaa54}</style></defs><g><ellipse cx="24" cy="45.5" rx="16" ry="1.5" opacity=".15" fill="#45413c"/><circle cx="24" cy="21.5" r="20" fill="#ffe500"/><path d="M24 1.5a20 20 0 1 0 20 20 20 20 0 0 0-20-20zm0 37a18.25 18.25 0 1 1 18.25-18.25A18.25 18.25 0 0 1 24 38.5z" fill="#ebcb00"/><ellipse cx="24" cy="5.5" rx="6" ry="1.5" fill="#fff48c"/><circle class="cls-5" cx="24" cy="21.5" r="20"/><path class="cls-6" d="M38.5 26.5c0 .83-1.12 1.5-2.5 1.5s-2.5-.67-2.5-1.5S34.62 25 36 25s2.5.67 2.5 1.5z"/><path class="cls-6" d="M9.5 26.5c0 .83 1.12 1.5 2.5 1.5s2.5-.67 2.5-1.5S13.38 25 12 25s-2.5.67-2.5 1.5z"/><path class="cls-7" d="M14.5 20.5a1 1 0 1 1-1-1 1 1 0 0 1 1 1z"/><path class="cls-7" d="M33.5 20.5a1 1 0 1 0 1-1 1 1 0 0 0-1 1z"/><g><g><g><path d="M30.06 35a.91.91 0 0 0 .71-.34 1 1 0 0 0 .22-.78c-.53-2.8-3.45-4.38-7-4.38s-6.42 1.5-7 4.38a1 1 0 0 0 .22.78.91.91 0 0 0 .71.34 23.28 23.28 0 0 1 12.14 0z" fill="#ff866e" stroke="#45413c" stroke-linecap="round" stroke-linejoin="round"/></g></g></g><path d="M30.29 35l-1.68 6.79a3.87 3.87 0 0 0 .39 2.88 1.41 1.41 0 0 0 2.54 0 3.87 3.87 0 0 0 .46-2.88z" fill="#e5feff" stroke="#45413c" stroke-linecap="round" stroke-linejoin="round"/><path class="cls-5" d="M9.5 15a6 6 0 0 1 4-1.5 5.06 5.06 0 0 1 3.5 1"/><path class="cls-5" d="M38.5 17.5a6 6 0 0 0-4-1.5 5.06 5.06 0 0 0-3.5 1"/></g></svg>