<svg xmlns="http://www.w3.org/2000/svg" viewBox="0 0 48 48"><defs><style>.cls-4{fill:none;stroke:#45413c;stroke-linecap:round;stroke-linejoin:round}.cls-6{fill:#ffaa54}</style></defs><g><circle cx="24" cy="21.5" r="20" fill="#ffe500"/><path d="M24 1.5a20 20 0 1 0 20 20 20 20 0 0 0-20-20zm0 37a18.25 18.25 0 1 1 18.25-18.25A18.25 18.25 0 0 1 24 38.5z" fill="#ebcb00"/><ellipse cx="24" cy="5.5" rx="6" ry="1.5" fill="#fff48c"/><circle class="cls-4" cx="24" cy="21.5" r="20"/><ellipse cx="24" cy="45" rx="16" ry="1.5" fill="#45413c" opacity=".15"/><path class="cls-4" d="M13 16.16a11.43 11.43 0 0 0 3.37-1.1A11.18 11.18 0 0 0 19.25 13"/><path class="cls-4" d="M35 16.16a11.43 11.43 0 0 1-3.37-1.1A11.18 11.18 0 0 1 28.75 13"/><path class="cls-6" d="M38.5 26.5c0 .83-1.12 1.5-2.5 1.5s-2.5-.67-2.5-1.5S34.62 25 36 25s2.5.67 2.5 1.5z"/><path class="cls-6" d="M9.5 26.5c0 .83 1.12 1.5 2.5 1.5s2.5-.67 2.5-1.5S13.38 25 12 25s-2.5.67-2.5 1.5z"/><path class="cls-4" d="M38 20.5a1.75 1.75 0 0 1-3.5 0"/><path class="cls-4" d="M13.5 20.5a1.75 1.75 0 0 1-3.5 0"/><path id="_Line_" data-name="&lt;Line&gt;" class="cls-4" d="M19 31h10"/></g></svg>