<svg xmlns="http://www.w3.org/2000/svg" viewBox="0 0 48 48"><defs><style>.cls-4{fill:none;stroke:#45413c;stroke-linecap:round;stroke-linejoin:round}.cls-10{fill:#45413c}.cls-6{fill:#ffaa54}</style></defs><g><circle cx="24" cy="20.5" r="20" fill="#ffe500"/><path d="M24 .5a20 20 0 1 0 20 20 20 20 0 0 0-20-20zm0 37a18.25 18.25 0 1 1 18.25-18.25A18.25 18.25 0 0 1 24 37.5z" fill="#ebcb00"/><ellipse cx="23.77" cy="7.29" rx="6" ry="1.5" fill="#fff48c"/><circle class="cls-4" cx="24" cy="20.5" r="20"/><ellipse cx="24" cy="44.79" rx="16" ry="1.5" opacity=".15" fill="#45413c"/><path class="cls-6" d="M40 25.5c0 .83-1.12 1.5-2.5 1.5s-2.5-.67-2.5-1.5 1.12-1.5 2.5-1.5 2.5.67 2.5 1.5z"/><path class="cls-6" d="M8 25.5c0 .83 1.12 1.5 2.5 1.5s2.5-.67 2.5-1.5-1.12-1.5-2.5-1.5-2.5.67-2.5 1.5z"/><g><path d="M16.47 26.93c.5 8 5.09 11 6.85 12a1.37 1.37 0 0 0 1.36 0c1.76-1 6.35-3.92 6.85-12a1.37 1.37 0 0 0-1.38-1.45h-12.3a1.37 1.37 0 0 0-1.38 1.45z" fill="#ffb0ca" stroke="#45413c" stroke-linecap="round" stroke-linejoin="round"/></g><g><path d="M24 32.8c0-1.88 5.65-1.33 5.65.63v8.16a5.65 5.65 0 0 1-11.3 0v-8.16c0-1.96 5.65-2.51 5.65-.63z" fill="#6dd627"/><path d="M24 32.8c0-1.88-5.65-1.33-5.65.63v2.51c0-2 11.3-2 11.3 0v-2.51c0-1.96-5.65-2.51-5.65-.63z" fill="#46b000"/><path class="cls-4" d="M24 32.8c0-1.88 5.65-1.33 5.65.63v8.16a5.65 5.65 0 0 1-11.3 0v-8.16c0-1.96 5.65-2.51 5.65-.63z"/></g><path class="cls-10" d="M13.66 20.79V19l-.76-.25a3.21 3.21 0 0 1-.79-.37 1.68 1.68 0 0 1-.53-.59 1.83 1.83 0 0 1-.2-.89 2.23 2.23 0 0 1 .31-1.17 2.25 2.25 0 0 1 .82-.83 2.7 2.7 0 0 1 1.15-.38v-.33-.28a.28.28 0 0 1 .08-.15.26.26 0 0 1 .2-.07q.2 0 .24.12a1.07 1.07 0 0 1 .05.38v.33a3.38 3.38 0 0 1 1.25.27.83.83 0 0 1 .6.77.76.76 0 0 1-.2.55.62.62 0 0 1-.51.23 1.67 1.67 0 0 1-.55-.13 3.58 3.58 0 0 0-.59-.16v1.42a8.23 8.23 0 0 1 1.21.43 2.1 2.1 0 0 1 .84.68 2 2 0 0 1 .36 1.26 2.44 2.44 0 0 1-.19.95 2.07 2.07 0 0 1-.52.75 2.45 2.45 0 0 1-.78.51 2.88 2.88 0 0 1-.92.22v.34a1.61 1.61 0 0 1 0 .26.24.24 0 0 1-.07.17.26.26 0 0 1-.2.07c-.13 0-.21 0-.24-.13a1.13 1.13 0 0 1-.05-.37v-.31a6.14 6.14 0 0 1-1-.12 2.16 2.16 0 0 1-.9-.37.79.79 0 0 1-.38-.67.77.77 0 0 1 .2-.54.67.67 0 0 1 .51-.22 2.85 2.85 0 0 1 .77.19 5 5 0 0 0 .79.22zm0-3.49v-1.21a.84.84 0 0 0-.4.23.6.6 0 0 0-.16.41.45.45 0 0 0 .14.33 1.55 1.55 0 0 0 .42.24zm.58 1.89v1.55a.84.84 0 0 0 .5-.31.87.87 0 0 0 .19-.54c0-.31-.23-.54-.69-.7z"/><path class="cls-10" d="M34.66 20.79V19l-.76-.25a3.39 3.39 0 0 1-.79-.37 1.68 1.68 0 0 1-.53-.59 1.83 1.83 0 0 1-.2-.89 2.32 2.32 0 0 1 .31-1.17 2.25 2.25 0 0 1 .82-.83 2.7 2.7 0 0 1 1.15-.38v-.33a1.91 1.91 0 0 1 0-.28.21.21 0 0 1 .07-.15.26.26 0 0 1 .2-.07q.19 0 .24.12a1.07 1.07 0 0 1 .05.38v.33a3.38 3.38 0 0 1 1.25.27.83.83 0 0 1 .6.77.8.8 0 0 1-.19.55.65.65 0 0 1-.52.23 1.67 1.67 0 0 1-.55-.13 3.58 3.58 0 0 0-.59-.16v1.42a8.85 8.85 0 0 1 1.22.43 2.07 2.07 0 0 1 .83.68 2 2 0 0 1 .36 1.26 2.44 2.44 0 0 1-.19.95 2.07 2.07 0 0 1-.52.75 2.52 2.52 0 0 1-.77.51 3 3 0 0 1-.93.22V22.87a.3.3 0 0 1-.08.17.26.26 0 0 1-.2.07.23.23 0 0 1-.24-.13 1.13 1.13 0 0 1-.05-.37v-.31a6.27 6.27 0 0 1-1-.12 2.22 2.22 0 0 1-.9-.37.79.79 0 0 1-.38-.67.77.77 0 0 1 .2-.54.67.67 0 0 1 .51-.22 2.77 2.77 0 0 1 .77.19 5 5 0 0 0 .81.22zm0-3.49v-1.21a.84.84 0 0 0-.4.23.6.6 0 0 0-.16.41.45.45 0 0 0 .14.33 1.55 1.55 0 0 0 .42.24zm.58 1.89v1.55a.84.84 0 0 0 .5-.31.81.81 0 0 0 .19-.54c0-.31-.23-.54-.69-.7z"/><circle cx="24" cy="39.63" r="3.04" fill="#c8ffa1"/><path class="cls-10" d="M23.71 41.65v-1.54L23 39.9a3.31 3.31 0 0 1-.68-.32 1.41 1.41 0 0 1-.46-.51 1.55 1.55 0 0 1-.17-.78 1.94 1.94 0 0 1 .26-1 2 2 0 0 1 .72-.72 2.41 2.41 0 0 1 1-.33v-.29a1.63 1.63 0 0 1 0-.24.27.27 0 0 1 .07-.14.25.25 0 0 1 .17 0c.11 0 .18 0 .21.1a1.22 1.22 0 0 1 0 .33v.29a3 3 0 0 1 1.09.24.73.73 0 0 1 .52.66.77.77 0 0 1-.17.49.59.59 0 0 1-.45.2 1.49 1.49 0 0 1-.48-.12 2.5 2.5 0 0 0-.51-.14v1.23a8.08 8.08 0 0 1 1.05.38 1.79 1.79 0 0 1 .73.59 1.74 1.74 0 0 1 .31 1.09 2 2 0 0 1-.61 1.49 2.38 2.38 0 0 1-.68.43 2.41 2.41 0 0 1-.8.2v.52a.26.26 0 0 1-.07.15.24.24 0 0 1-.17.06.21.21 0 0 1-.21-.11 1 1 0 0 1 0-.33V43a5.53 5.53 0 0 1-.9-.11 2.08 2.08 0 0 1-.79-.32.7.7 0 0 1-.28-.57.63.63 0 0 1 .17-.46.55.55 0 0 1 .45-.19 2.15 2.15 0 0 1 .66.16 3.42 3.42 0 0 0 .73.14zm0-3v-1.09a.73.73 0 0 0-.35.21.51.51 0 0 0-.14.36.38.38 0 0 0 .12.28 1.34 1.34 0 0 0 .37.21zm.5 1.64v1.35a.7.7 0 0 0 .43-.27.71.71 0 0 0 .17-.47c0-.3-.2-.5-.6-.64z"/></g></svg>