<svg xmlns="http://www.w3.org/2000/svg" viewBox="0 0 48 48"><defs><style>.cls-4,.cls-7{fill:none;stroke:#45413c;stroke-linecap:round;stroke-linejoin:round}.cls-7{fill:#45413c}.cls-8{fill:#ffaa54}.cls-9{fill:#00b8f0}.cls-10{fill:#4acfff}</style></defs><g><circle cx="24" cy="21.5" r="20" fill="#ffe500"/><path d="M24 1.5a20 20 0 1 0 20 20 20 20 0 0 0-20-20zm0 37a18.25 18.25 0 1 1 18.25-18.25A18.25 18.25 0 0 1 24 38.5z" fill="#ebcb00"/><ellipse cx="24" cy="5.5" rx="6" ry="1.5" fill="#fff48c"/><circle class="cls-4" cx="24" cy="21.5" r="20"/><path d="M19 31.5a9 9 0 0 1 10 0" stroke-miterlimit="10" stroke="#45413c" stroke-linecap="round" fill="none"/><ellipse cx="24" cy="45.5" rx="16" ry="1.5" opacity=".15" fill="#45413c"/><path class="cls-7" d="M15 21.5a1 1 0 1 1-1-1 1 1 0 0 1 1 1z"/><path class="cls-7" d="M33 21.5a1 1 0 1 0 1-1 1 1 0 0 0-1 1z"/><path class="cls-8" d="M38.5 26.5c0 .83-1.12 1.5-2.5 1.5s-2.5-.67-2.5-1.5S34.62 25 36 25s2.5.67 2.5 1.5z"/><path class="cls-8" d="M9.5 26.5c0 .83 1.12 1.5 2.5 1.5s2.5-.67 2.5-1.5S13.38 25 12 25s-2.5.67-2.5 1.5z"/><path class="cls-4" d="M8.7 20.93a7 7 0 0 1 5.39-5.23 6.92 6.92 0 0 1 3 0"/><path class="cls-4" d="M39.3 20.93a7 7 0 0 0-5.39-5.23 6.92 6.92 0 0 0-3 0"/><g><path class="cls-9" d="M37.89 40.28c-3.65-1.6.85-5.6.35-8.35 4.14 2.58 3.29 9.94-.35 8.35z"/><path class="cls-10" d="M38.24 31.93a1.2 1.2 0 0 1 0 .2c2.68 3.06 1.7 8.62-1.46 7.36a2.61 2.61 0 0 0 1.08.79c3.67 1.59 4.52-5.77.38-8.35z"/><path class="cls-4" d="M37.89 40.28c-3.65-1.6.85-5.6.35-8.35 4.14 2.58 3.29 9.94-.35 8.35z"/></g><g><path class="cls-9" d="M37.71 29.81c-2.75-.58-.22-4-1-5.81 3.29 1.19 3.74 6.39 1 5.81z"/><path class="cls-10" d="M36.76 24v.14c2.29 1.72 2.41 5.7.05 5.28a1.81 1.81 0 0 0 .86.39c2.78.58 2.33-4.62-.91-5.81z"/><path class="cls-4" d="M37.71 29.81c-2.75-.58-.22-4-1-5.81 3.29 1.19 3.74 6.39 1 5.81z"/></g><g><path class="cls-9" d="M10.29 29.81c2.75-.58.22-4 1-5.81-3.29 1.19-3.74 6.39-1 5.81z"/><path class="cls-10" d="M11.24 24v.14c-2.29 1.72-2.41 5.7 0 5.28a1.81 1.81 0 0 1-.86.39c-2.83.58-2.38-4.62.86-5.81z"/><path class="cls-4" d="M10.29 29.81c2.75-.58.22-4 1-5.81-3.29 1.19-3.74 6.39-1 5.81z"/></g></g></svg>