<svg xmlns="http://www.w3.org/2000/svg" viewBox="0 0 48 48"><defs><style>.cls-5,.cls-8{fill:none;stroke:#45413c;stroke-linecap:round;stroke-linejoin:round}.cls-8{fill:#4aeff7}</style></defs><g><ellipse cx="24" cy="45.5" rx="16" ry="1.5" fill="#45413c" opacity=".15"/><circle cx="24" cy="21.5" r="20" fill="#ffe500"/><path d="M24 1.5a20 20 0 1 0 20 20 20 20 0 0 0-20-20zm0 37a18.25 18.25 0 1 1 18.25-18.25A18.25 18.25 0 0 1 24 38.5z" fill="#ebcb00"/><ellipse cx="24" cy="5.5" rx="6" ry="1.5" fill="#fff48c"/><path id="_Line_" data-name="&lt;Line&gt;" class="cls-5" d="M17 21.5H8.5"/><path id="_Line_2" data-name="&lt;Line&gt;" class="cls-5" d="M31 21.5h8.5"/><g stroke="#45413c" stroke-linecap="round" stroke-linejoin="round"><path d="M17.94 29.5a.94.94 0 0 0-.71.33 1 1 0 0 0-.22.76 7.09 7.09 0 0 0 14 0 1 1 0 0 0-.22-.76.94.94 0 0 0-.71-.33z" fill="#ffb0ca"/><path d="M29.57 33.84A11.37 11.37 0 0 0 24 32.53a11.37 11.37 0 0 0-5.57 1.31 7.16 7.16 0 0 0 11.14 0z" fill="#ff87af"/></g><path class="cls-8" d="M10.5 36.26a20 20 0 0 0 5 3.35V21.5h-5zM37.5 36.26a20 20 0 0 1-5 3.35V21.5h5z"/><circle class="cls-5" cx="24" cy="21.5" r="20"/></g></svg>