<svg xmlns="http://www.w3.org/2000/svg" viewBox="0 0 48 48"><defs><style>.cls-5,.cls-6{fill:none;stroke:#45413c;stroke-linecap:round;stroke-linejoin:round}.cls-6{fill:#fff}.cls-7{fill:#ffaa54}</style></defs><g><circle cx="24" cy="24.46" r="18.96" fill="#ffe500"/><path d="M24 5.5a19 19 0 1 0 19 19 19 19 0 0 0-19-19zm0 35.07a17.3 17.3 0 1 1 17.3-17.3A17.3 17.3 0 0 1 24 40.57z" fill="#ebcb00"/><ellipse cx="24" cy="9.29" rx="5.69" ry="1.42" fill="#fff48c"/><ellipse cx="24" cy="45.5" rx="15.17" ry="1.5" fill="#45413c" opacity=".15"/><circle class="cls-5" cx="24" cy="24.46" r="18.96"/><path class="cls-6" d="M18.79 23a3.32 3.32 0 1 1-3.32-3.32A3.32 3.32 0 0 1 18.79 23z"/><path class="cls-7" d="M37.74 29.2c0 .78-1.06 1.42-2.37 1.42S33 30 33 29.2s1.07-1.42 2.37-1.42 2.37.63 2.37 1.42z"/><path class="cls-7" d="M10.26 29.2c0 .78 1.06 1.42 2.37 1.42S15 30 15 29.2s-1.07-1.42-2.37-1.42-2.37.63-2.37 1.42z"/><path id="_Line_" data-name="&lt;Line&gt;" class="cls-5" d="M28.27.5v17.06"/><path id="_Line_2" data-name="&lt;Line&gt;" class="cls-5" d="M32.53 2.18v15.64"/><path id="_Line_3" data-name="&lt;Line&gt;" class="cls-5" d="M36.8 5.03v14.69"/><path class="cls-6" d="M35.85 23a3.32 3.32 0 1 1-3.32-3.32A3.32 3.32 0 0 1 35.85 23z"/><path d="M24 36.6a14.27 14.27 0 0 1 5.77 1.22c1.94.87 4.18.31 4.66-2.26.66-3.56-4.27-8.73-10.43-8.73S12.91 32 13.57 35.56c.48 2.57 2.72 3.13 4.66 2.26A14.27 14.27 0 0 1 24 36.6z" fill="#ffb0ca" stroke="#45413c" stroke-linecap="round" stroke-linejoin="round"/><path d="M24 36.6a14.27 14.27 0 0 1 5.77 1.22 3.37 3.37 0 0 0 3.56-.26 11.81 11.81 0 0 0-18.66 0 3.37 3.37 0 0 0 3.56.26A14.27 14.27 0 0 1 24 36.6z" fill="#ff87af" stroke="#45413c" stroke-linecap="round" stroke-linejoin="round"/></g></svg>