<svg xmlns="http://www.w3.org/2000/svg" viewBox="0 0 48 48"><defs><style>.cls-4{fill:none}.cls-4,.cls-7{stroke:#45413c;stroke-linecap:round;stroke-linejoin:round}.cls-6{fill:#ffaa54}.cls-7{fill:#fff}</style><linearGradient id="linear-gradient" x1="24" y1="41.5" x2="24" y2="1.5" gradientUnits="userSpaceOnUse"><stop offset="0" stop-color="#ffe500"/><stop offset=".28" stop-color="#fde502"/><stop offset=".39" stop-color="#f6e308"/><stop offset=".46" stop-color="#ebe113"/><stop offset=".52" stop-color="#dade23"/><stop offset=".57" stop-color="#c4db38"/><stop offset=".62" stop-color="#a8d652"/><stop offset=".66" stop-color="#88d070"/><stop offset=".69" stop-color="#62c994"/><stop offset=".73" stop-color="#37c2bc"/><stop offset=".76" stop-color="#09bae7"/><stop offset=".76" stop-color="#00b8f0"/></linearGradient><linearGradient id="linear-gradient-2" x1="24" y1="41.5" x2="24" y2="1.5" gradientUnits="userSpaceOnUse"><stop offset="0" stop-color="#ebcb00"/><stop offset=".29" stop-color="#e9cb02"/><stop offset=".39" stop-color="#e3ca09"/><stop offset=".47" stop-color="#d7c914"/><stop offset=".53" stop-color="#c6c825"/><stop offset=".58" stop-color="#b1c63b"/><stop offset=".62" stop-color="#96c457"/><stop offset=".66" stop-color="#76c277"/><stop offset=".7" stop-color="#51bf9d"/><stop offset=".74" stop-color="#29bbc6"/><stop offset=".76" stop-color="#00b8f0"/></linearGradient></defs><g><circle cx="24" cy="21.5" r="20" fill="url(#linear-gradient)"/><path d="M24 1.5a20 20 0 1 0 20 20 20 20 0 0 0-20-20zm0 37a18.25 18.25 0 1 1 18.25-18.25A18.25 18.25 0 0 1 24 38.5z" fill="url(#linear-gradient-2)"/><ellipse cx="24" cy="5.5" rx="6" ry="1.5" fill="#4acfff"/><circle class="cls-4" cx="24" cy="21.5" r="20"/><ellipse cx="24" cy="45.5" rx="16" ry="1.5" fill="#45413c" opacity=".15"/><path class="cls-6" d="M38.5 26.5c0 .83-1.12 1.5-2.5 1.5s-2.5-.67-2.5-1.5S34.62 25 36 25s2.5.67 2.5 1.5z"/><path class="cls-6" d="M9.5 26.5c0 .83 1.12 1.5 2.5 1.5s2.5-.67 2.5-1.5S13.38 25 12 25s-2.5.67-2.5 1.5z"/><path class="cls-4" d="M31 12.5a11.66 11.66 0 0 1 6.25 3.16"/><path class="cls-4" d="M17 12.5a11.66 11.66 0 0 0-6.25 3.16"/><path class="cls-7" d="M18 20.5a3.5 3.5 0 1 1-3.5-3.5 3.5 3.5 0 0 1 3.5 3.5z"/><path class="cls-7" d="M30 20.5a3.5 3.5 0 1 0 3.5-3.5 3.5 3.5 0 0 0-3.5 3.5z"/><g><g><path d="M30.06 36a.94.94 0 0 0 .71-.33 1 1 0 0 0 .22-.76 7.09 7.09 0 0 0-14 0 1 1 0 0 0 .22.76.94.94 0 0 0 .71.33z" fill="#ffb0ca" stroke="#45413c" stroke-linecap="round" stroke-linejoin="round"/></g></g><path class="cls-7" d="M29.44 31.5a7.17 7.17 0 0 0-10.88 0z"/></g></svg>