<svg xmlns="http://www.w3.org/2000/svg" viewBox="0 0 48 48"><defs><style>.cls-4,.cls-6{fill:none;stroke:#45413c;stroke-linecap:round;stroke-linejoin:round}.cls-6{fill:#45413c}.cls-7{fill:#ffaa54}</style></defs><g><circle cx="24" cy="21.5" r="20" fill="#ffe500"/><path d="M24 1.5a20 20 0 1 0 20 20 20 20 0 0 0-20-20zm0 37a18.25 18.25 0 1 1 18.25-18.25A18.25 18.25 0 0 1 24 38.5z" fill="#ebcb00"/><ellipse cx="24" cy="5.5" rx="6" ry="1.5" fill="#fff48c"/><circle class="cls-4" cx="24" cy="21.5" r="20"/><ellipse cx="24" cy="45.5" rx="16" ry="1.5" opacity=".15" fill="#45413c"/><path class="cls-6" d="M15 21.5a1 1 0 1 1-1-1 1 1 0 0 1 1 1z"/><path class="cls-4" d="M13 17.16a11.43 11.43 0 0 0 3.37-1.1A11.18 11.18 0 0 0 19.25 14"/><path class="cls-6" d="M33 21.5a1 1 0 1 0 1-1 1 1 0 0 0-1 1z"/><path class="cls-4" d="M35 17.16a11.43 11.43 0 0 1-3.37-1.1A11.18 11.18 0 0 1 28.75 14"/><path class="cls-7" d="M38.5 26.5c0 .83-1.12 1.5-2.5 1.5s-2.5-.67-2.5-1.5S34.62 25 36 25s2.5.67 2.5 1.5z"/><path class="cls-7" d="M9.5 26.5c0 .83 1.12 1.5 2.5 1.5s2.5-.67 2.5-1.5S13.38 25 12 25s-2.5.67-2.5 1.5z"/><g><g><path d="M30.06 36a.94.94 0 0 0 .71-.33 1 1 0 0 0 .22-.76 7.09 7.09 0 0 0-14 0 1 1 0 0 0 .22.76.94.94 0 0 0 .71.33z" fill="#ffb0ca" stroke="#45413c" stroke-linecap="round" stroke-linejoin="round"/></g></g><path d="M18.57 31.5h10.86a7.15 7.15 0 0 0-10.86 0z" fill="#fff" stroke="#45413c" stroke-linecap="round" stroke-linejoin="round"/></g></svg>