<svg xmlns="http://www.w3.org/2000/svg" viewBox="0 0 48 48"><defs><style>.cls-6{fill:#45413c}.cls-4{fill:none}.cls-4,.cls-6,.cls-8{stroke:#45413c;stroke-linecap:round;stroke-linejoin:round}.cls-5{fill:#ffaa54}.cls-8{fill:#f0f0f0}</style></defs><g><ellipse cx="24" cy="45" rx="9.5" ry="1.5" opacity=".15" fill="#45413c"/><path d="M32.75 22.45a.86.86 0 0 1 0 .27c0 1.39-3.94 2.52-8.8 2.52s-8.8-1.13-8.8-2.52a.86.86 0 0 1 .05-.27 11.73 11.73 0 1 0 17.5 0z" fill="#ffe500"/><path d="M32.75 22.45a.86.86 0 0 1 0 .27.92.92 0 0 1-.16.49 10.71 10.71 0 1 1-17.28 0 .92.92 0 0 1-.16-.49.86.86 0 0 1 .05-.27 11.73 11.73 0 1 0 17.5 0z" fill="#ebcb00"/><path class="cls-4" d="M32.75 22.45a.86.86 0 0 1 0 .27c0 1.39-3.94 2.52-8.8 2.52s-8.8-1.13-8.8-2.52a.86.86 0 0 1 .05-.27 11.73 11.73 0 1 0 17.5 0z"/><path class="cls-5" d="M32.51 33.2c0 .49-.66.88-1.47.88s-1.47-.39-1.47-.88.66-.88 1.47-.88 1.47.39 1.47.88z"/><ellipse class="cls-5" cx="16.96" cy="33.2" rx="1.47" ry=".88"/><path class="cls-6" d="M19.81 28.21c0 .7-.39 1.26-.88 1.26s-.88-.56-.88-1.26.39-1.26.88-1.26.88.57.88 1.26z"/><path class="cls-6" d="M28.19 28.21c0 .7.39 1.26.88 1.26s.88-.56.88-1.26-.39-1.21-.88-1.21-.88.52-.88 1.21z"/><circle cx="24" cy="35.86" r="2.64" fill="#ff87af" stroke="#45413c" stroke-linecap="round" stroke-linejoin="round"/><circle class="cls-8" cx="38.62" cy="19.1" r="1.8"/><path class="cls-8" d="M10.5 17.71a1.1 1.1 0 0 0-.91.87 2.27 2.27 0 0 0-1.15-.33 2.24 2.24 0 1 0 2.23 2.24 2.27 2.27 0 0 0-.08-.59 1.06 1.06 0 0 0 .25 0 1.13 1.13 0 0 0 .94-1.28 1.12 1.12 0 0 0-1.28-.91z"/><ellipse cx="24" cy="22.72" rx="8.8" ry="2.51" stroke="#45413c" stroke-linecap="round" stroke-linejoin="round" fill="#ebcb00"/><path d="M18.54 24.7a26.1 26.1 0 0 0 5.46.54 26.1 26.1 0 0 0 5.46-.54 11.62 11.62 0 0 1-1.05-4.45 8.8 8.8 0 0 1 .87-4.05H18.72a8.8 8.8 0 0 1 .87 4.05 11.62 11.62 0 0 1-1.05 4.45z" fill="#bdbec0" stroke="#45413c" stroke-linecap="round" stroke-linejoin="round"/><path d="M34 6.16a2.85 2.85 0 0 0 0-.29 2.94 2.94 0 0 0-2.94-2.94 2.91 2.91 0 0 0-1.18.26 7.13 7.13 0 0 0-11.88 0 2.91 2.91 0 0 0-1.18-.26 2.94 2.94 0 0 0-2.94 2.94 2.85 2.85 0 0 0 0 .29c-2.35 1.12-3.8 2.64-3.8 4.32s1.34 3.06 3.51 4.17a5 5 0 0 0 8.66 2.06 2.46 2.46 0 0 0 1.75.79 2.46 2.46 0 0 0 1.66-.79 5 5 0 0 0 8.66-2.06c2.17-1.11 3.51-2.57 3.51-4.17S36.38 7.28 34 6.16z" fill="#f0f0f0"/><path d="M14 9.51a2.85 2.85 0 0 1 0-.29 2.94 2.94 0 0 1 2.94-2.93 2.9 2.9 0 0 1 1.18.25 7.13 7.13 0 0 1 11.88 0 2.9 2.9 0 0 1 1.18-.25 2.94 2.94 0 0 1 2.94 2.93 2.85 2.85 0 0 1 0 .29 7.63 7.63 0 0 1 3.29 2.65 3.2 3.2 0 0 0 .51-1.68c0-1.68-1.45-3.2-3.8-4.32a2.85 2.85 0 0 0 0-.29 2.94 2.94 0 0 0-2.94-2.94 2.91 2.91 0 0 0-1.18.26 7.13 7.13 0 0 0-11.88 0 2.91 2.91 0 0 0-1.18-.26A2.94 2.94 0 0 0 14 5.87a2.85 2.85 0 0 0 0 .29c-2.35 1.12-3.8 2.64-3.8 4.32a3.2 3.2 0 0 0 .51 1.68A7.63 7.63 0 0 1 14 9.51z" fill="#fff"/><path class="cls-4" d="M34 6.16a2.85 2.85 0 0 0 0-.29 2.94 2.94 0 0 0-2.94-2.94 2.91 2.91 0 0 0-1.18.26 7.13 7.13 0 0 0-11.88 0 2.91 2.91 0 0 0-1.18-.26 2.94 2.94 0 0 0-2.94 2.94 2.85 2.85 0 0 0 0 .29c-2.35 1.12-3.8 2.64-3.8 4.32s1.34 3.06 3.51 4.17a5 5 0 0 0 8.66 2.06 2.46 2.46 0 0 0 1.75.79 2.46 2.46 0 0 0 1.66-.79 5 5 0 0 0 8.66-2.06c2.17-1.11 3.51-2.57 3.51-4.17S36.38 7.28 34 6.16z"/><path class="cls-8" d="M21.36 25.12a15.33 15.33 0 0 0 1-4.49"/><path class="cls-8" d="M26.1 25.18s-.42-.61-.42-2.88"/><path class="cls-4" d="M25.66 16.71v2.66"/></g></svg>