<svg xmlns="http://www.w3.org/2000/svg" viewBox="0 0 48 48"><defs><style>.cls-8{fill:#45413c}.cls-5{fill:none}.cls-5,.cls-8{stroke:#45413c;stroke-linecap:round;stroke-linejoin:round}.cls-6{fill:#ffaa54}</style></defs><g><circle cx="24" cy="21.5" r="20" fill="#ffe500"/><path d="M24 1.5a20 20 0 1 0 20 20 20 20 0 0 0-20-20zm0 37a18.25 18.25 0 1 1 18.25-18.25A18.25 18.25 0 0 1 24 38.5z" fill="#ebcb00"/><ellipse cx="24" cy="5.5" rx="6" ry="1.5" fill="#fff48c"/><ellipse cx="24" cy="45.5" rx="16" ry="1.5" opacity=".15" fill="#45413c"/><circle class="cls-5" cx="24" cy="21.5" r="20"/><path class="cls-6" d="M38.5 26.5c0 .83-1.12 1.5-2.5 1.5s-2.5-.67-2.5-1.5S34.62 25 36 25s2.5.67 2.5 1.5z"/><path class="cls-6" d="M9.5 26.5c0 .83 1.12 1.5 2.5 1.5s2.5-.67 2.5-1.5S13.38 25 12 25s-2.5.67-2.5 1.5z"/><g><path d="M24 36.55c9.2 0 10.43-3.84 9.89-7a3.41 3.41 0 0 0-4.56-2.36 16.42 16.42 0 0 1-5.33.84 16.42 16.42 0 0 1-5.33-.84 3.41 3.41 0 0 0-4.56 2.36c-.54 3.16.69 7 9.89 7z" fill="#fff" stroke="#45413c" stroke-linecap="round" stroke-linejoin="round"/><g><path class="cls-5" d="M34 30.28a17.08 17.08 0 0 1-4.6 1.36 32.3 32.3 0 0 1-5.38.41 32.3 32.3 0 0 1-5.38-.41A17.08 17.08 0 0 1 14 30.28"/><path class="cls-5" d="M19.27 27.39l-.65 4.25-.63 4.09"/><path class="cls-5" d="M24 36.55v-8.5"/><path class="cls-5" d="M28.73 27.39l.65 4.25.63 4.09"/></g></g><path class="cls-8" d="M14.5 20.5a1 1 0 1 1-1-1 1 1 0 0 1 1 1z"/><path class="cls-8" d="M33.5 20.5a1 1 0 1 0 1-1 1 1 0 0 0-1 1z"/></g></svg>