<svg xmlns="http://www.w3.org/2000/svg" viewBox="0 0 48 48"><defs><style>.cls-8,.cls-9{stroke:#45413c;stroke-linecap:round;stroke-linejoin:round}.cls-6{fill:#ffaa54}.cls-8{fill:#fff}.cls-9{fill:#ffe500}</style><linearGradient id="linear-gradient" x1="24" y1="41.5" x2="24" y2="1.5" gradientUnits="userSpaceOnUse"><stop offset="0" stop-color="#ffe500"/><stop offset=".28" stop-color="#fde502"/><stop offset=".39" stop-color="#f6e308"/><stop offset=".46" stop-color="#ebe113"/><stop offset=".52" stop-color="#dade23"/><stop offset=".57" stop-color="#c4db38"/><stop offset=".62" stop-color="#a8d652"/><stop offset=".66" stop-color="#88d070"/><stop offset=".69" stop-color="#62c994"/><stop offset=".73" stop-color="#37c2bc"/><stop offset=".76" stop-color="#09bae7"/><stop offset=".76" stop-color="#00b8f0"/></linearGradient><linearGradient id="linear-gradient-2" x1="24" y1="41.5" x2="24" y2="1.5" gradientUnits="userSpaceOnUse"><stop offset="0" stop-color="#ebcb00"/><stop offset=".29" stop-color="#e9cb02"/><stop offset=".39" stop-color="#e3ca09"/><stop offset=".47" stop-color="#d7c914"/><stop offset=".53" stop-color="#c6c825"/><stop offset=".58" stop-color="#b1c63b"/><stop offset=".62" stop-color="#96c457"/><stop offset=".66" stop-color="#76c277"/><stop offset=".7" stop-color="#51bf9d"/><stop offset=".74" stop-color="#29bbc6"/><stop offset=".76" stop-color="#00b8f0"/></linearGradient></defs><g><circle cx="24" cy="21.5" r="20" fill="url(#linear-gradient)"/><path d="M24 1.5a20 20 0 1 0 20 20 20 20 0 0 0-20-20zm0 37a18.25 18.25 0 1 1 18.25-18.25A18.25 18.25 0 0 1 24 38.5z" fill="url(#linear-gradient-2)"/><ellipse cx="24" cy="5.5" rx="6" ry="1.5" fill="#4acfff"/><ellipse cx="24" cy="45.5" rx="16" ry="1.5" fill="#45413c" opacity=".15"/><circle cx="24" cy="21.5" r="20" stroke="#45413c" stroke-linecap="round" stroke-linejoin="round" fill="none"/><path class="cls-6" d="M38.5 26.5c0 .83-1.12 1.5-2.5 1.5s-2.5-.67-2.5-1.5S34.62 25 36 25s2.5.67 2.5 1.5z"/><ellipse class="cls-6" cx="12" cy="26.5" rx="2.5" ry="1.5"/><ellipse cx="24" cy="31.5" rx="5" ry="8" fill="#ffb0ca" stroke="#45413c" stroke-linecap="round" stroke-linejoin="round"/><path class="cls-8" d="M37.41 16.54c1.54 2.48 1.32 5.39-.48 6.51s-4.5 0-6-2.47-1.32-5.38.48-6.5 4.47-.02 6 2.46z"/><path class="cls-8" d="M10.59 16.54c-1.54 2.48-1.32 5.39.48 6.51s4.5 0 6-2.47 1.32-5.38-.48-6.5-4.47-.02-6 2.46z"/><path class="cls-9" d="M14.76 45.15a1 1 0 0 1-1 .85H8a1 1 0 0 1-.8-.4 1 1 0 0 1-.16-.88c1.32-4.63-.33-12-3-16.6-1.5-2.62 1.73-2.56 3-1.82 8.96 6.07 8.17 15.92 7.72 18.85z"/><path class="cls-9" d="M33.24 45.15a1 1 0 0 0 1 .85H40a1 1 0 0 0 .8-.4 1 1 0 0 0 .16-.88c-1.32-4.63.33-12 3-16.6 1.5-2.62-1.73-2.56-3-1.82-8.96 6.07-8.17 15.92-7.72 18.85z"/><path d="M24 39.5c1.79 0 3.35-1.5 4.24-3.75C27.35 33.5 25.79 32 24 32s-3.35 1.5-4.24 3.75C20.65 38 22.21 39.5 24 39.5z" fill="#ff866e" stroke="#45413c" stroke-linecap="round" stroke-linejoin="round"/></g></svg>