<svg xmlns="http://www.w3.org/2000/svg" viewBox="0 0 48 48"><defs><style>.cls-5{fill:none;stroke:#45413c;stroke-linecap:round;stroke-linejoin:round}.cls-6{fill:#ffaa54}</style></defs><g><circle cx="24" cy="21.5" r="20" fill="#ffe500"/><path d="M24 1.5a20 20 0 1 0 20 20 20 20 0 0 0-20-20zm0 37a18.25 18.25 0 1 1 18.25-18.25A18.25 18.25 0 0 1 24 38.5z" fill="#ebcb00"/><ellipse cx="24" cy="5.5" rx="6" ry="1.5" fill="#fff48c"/><ellipse cx="24" cy="45.5" rx="16" ry="1.5" fill="#45413c" opacity=".15"/><circle class="cls-5" cx="24" cy="21.5" r="20"/><path class="cls-6" d="M38.5 26.5c0 .83-1.12 1.5-2.5 1.5s-2.5-.67-2.5-1.5S34.62 25 36 25s2.5.67 2.5 1.5z"/><path class="cls-6" d="M9.5 26.5c0 .83 1.12 1.5 2.5 1.5s2.5-.67 2.5-1.5S13.38 25 12 25s-2.5.67-2.5 1.5z"/><g><path id="_Line_" data-name="&lt;Line&gt;" class="cls-5" d="M12 19l3.5 3.5"/><path id="_Line_2" data-name="&lt;Line&gt;" class="cls-5" d="M15.5 19L12 22.5"/></g><g><path id="_Line_3" data-name="&lt;Line&gt;" class="cls-5" d="M36 19l-3.5 3.5"/><path id="_Line_4" data-name="&lt;Line&gt;" class="cls-5" d="M32.5 19l3.5 3.5"/></g><path class="cls-5" d="M10.67 16a4.46 4.46 0 0 1 2.83-1 4.51 4.51 0 0 1 2.83 1"/><path class="cls-5" d="M37.33 16a4.46 4.46 0 0 0-2.83-1 4.51 4.51 0 0 0-2.83 1"/><g stroke="#45413c" stroke-linecap="round" stroke-linejoin="round"><circle cx="24" cy="31.5" r="7.5" fill="#ffb0ca"/><ellipse cx="24" cy="35.48" rx="6.35" ry="3.52" fill="#ff866e"/></g></g></svg>