<svg xmlns="http://www.w3.org/2000/svg" viewBox="0 0 48 48"><defs><style>.cls-1{fill:#ff6242}.cls-2{fill:#e04122}.cls-6{fill:#45413c}.cls-5{fill:none}.cls-5,.cls-6{stroke:#45413c;stroke-linecap:round;stroke-linejoin:round}</style></defs><g><circle class="cls-1" cx="24" cy="21.5" r="20"/><path class="cls-2" d="M24 1.5a20 20 0 1 0 20 20 20 20 0 0 0-20-20zm0 37a18.25 18.25 0 1 1 18.25-18.25A18.25 18.25 0 0 1 24 38.5z"/><ellipse cx="24" cy="5.5" rx="6" ry="1.5" fill="#ff866e"/><ellipse cx="24" cy="45.26" rx="15" ry="1.5" opacity=".15" fill="#45413c"/><circle class="cls-5" cx="24" cy="21.5" r="20"/><path class="cls-2" d="M39.5 24.5c0 .83-1.12 1.5-2.5 1.5s-2.5-.67-2.5-1.5S35.62 23 37 23s2.5.67 2.5 1.5z"/><path class="cls-2" d="M8.5 24.5c0 .83 1.12 1.5 2.5 1.5s2.5-.67 2.5-1.5S12.38 23 11 23s-2.5.67-2.5 1.5z"/><path class="cls-6" d="M14.5 20.5a1 1 0 1 1-1-1 1 1 0 0 1 1 1z"/><path class="cls-6" d="M33.5 20.5a1 1 0 1 0 1-1 1 1 0 0 0-1 1z"/><path class="cls-5" d="M31.5 18.5s2.29-4 6-2"/><path class="cls-5" d="M16.5 18.5s-2.29-4-6-2"/><rect x="7.5" y="27" width="33" height="11.5" rx="1" ry="1" fill="#fff" stroke="#45413c" stroke-linecap="round" stroke-linejoin="round"/><g><path id="_Compound_Path_2" class="cls-1" d="M13.79 32.24l1 1.12a5.49 5.49 0 0 1 .74-.78.57.57 0 0 1 .74.07.69.69 0 0 1 0 .84 4.76 4.76 0 0 1-.64.77l.66.74a.61.61 0 0 1 0 .92.67.67 0 0 1-1 0l-.67-.68a3.12 3.12 0 0 1-2.1.91A2.1 2.1 0 0 1 10.23 34a2.44 2.44 0 0 1 1.45-2 1.81 1.81 0 0 1-.68-1.33c0-1 1-1.61 2-1.61s2 .54 2 1.51a2 2 0 0 1-1.21 1.67zm0 2L12.4 32.7c-.69.43-.82.81-.82 1.17a.9.9 0 0 0 1 .93 1.58 1.58 0 0 0 1.24-.51zm-.13-3.58a.61.61 0 0 0-1.21-.08 1.24 1.24 0 0 0 .51.82c.5-.17.73-.4.73-.69z"/><path id="_Compound_Path_3" class="cls-1" d="M19 34.73v-1.6l-.69-.22A1.66 1.66 0 0 1 17 31.24a2.17 2.17 0 0 1 2-2.16v-.3c0-.26 0-.45.26-.45s.26 0 .26.45v.3a3 3 0 0 1 1.13.25.74.74 0 0 1 .54.69.66.66 0 0 1-.64.71c-.25 0-.73-.23-1-.26v1.28c1.28.37 2.17.77 2.17 2.14a2.09 2.09 0 0 1-1.34 2 2.35 2.35 0 0 1-.83.2v.31c0 .25 0 .45-.26.45s-.26 0-.26-.45v-.3a3.28 3.28 0 0 1-1.75-.44.69.69 0 0 1 .3-1.29c.3-.01 1.05.31 1.42.36zm0-3.16v-1.09a.63.63 0 0 0-.51.58c.02.28.27.41.51.51zm.52 1.72v1.39a.77.77 0 0 0 .62-.77c.02-.27-.14-.48-.6-.62z"/><path id="_Compound_Path_4" class="cls-1" d="M23.5 36.12a.75.75 0 1 1 .75-.75.76.76 0 0 1-.75.75zm-.69-2.71v-3.69a.69.69 0 0 1 1.37 0v3.69a.69.69 0 0 1-1.37 0z"/><path id="_Compound_Path_5" class="cls-1" d="M26.51 33.14l.16-1.1h-.82a.43.43 0 0 1-.47-.46.44.44 0 0 1 .47-.46h.95l.2-1.54c0-.31.15-.46.47-.46s.47.28.42.61l-.19 1.39h.92l.21-1.54c0-.31.16-.46.48-.46s.47.27.42.61l-.19 1.39h.82a.44.44 0 0 1 .47.46.43.43 0 0 1-.47.46h-.95l-.15 1.1h.82a.46.46 0 0 1 0 .92h-1l-.21 1.54c0 .31-.16.46-.48.46s-.39-.26-.39-.62l.19-1.38h-.89l-.21 1.54c0 .31-.16.46-.48.46s-.46-.29-.42-.62l.19-1.38h-.82a.43.43 0 0 1-.46-.46.43.43 0 0 1 .46-.46zM27.6 32l-.15 1.1h.9l.16-1.1z"/><path id="_Compound_Path_6" class="cls-1" d="M32.62 32.16a1.55 1.55 0 1 1 1.48-1.55 1.5 1.5 0 0 1-1.48 1.55zm0-1a.57.57 0 0 0 0-1.14.51.51 0 0 0-.5.57.51.51 0 0 0 .5.59zm-.34 4.11l3.17-6a.48.48 0 0 1 .71-.24.54.54 0 0 1 .22.76l-3.22 6c-.21.31-.45.48-.8.16a.55.55 0 0 1-.08-.66zm3.72.83a1.55 1.55 0 1 1 1.47-1.55A1.5 1.5 0 0 1 36 36.12zm0-1a.57.57 0 1 0-.5-.57.51.51 0 0 0 .5.61z"/></g></g></svg>