<svg xmlns="http://www.w3.org/2000/svg" viewBox="0 0 48 48"><defs><style>.cls-7{fill:#45413c}.cls-5{fill:none}.cls-5,.cls-7{stroke:#45413c;stroke-linecap:round;stroke-linejoin:round}.cls-6{fill:#ffaa54}.cls-9{fill:#f0f0f0}.cls-10{fill:#fff}.cls-11{fill:#e0e0e0}</style></defs><g><circle cx="24" cy="21.5" r="20" fill="#ffe500"/><ellipse cx="24" cy="5.5" rx="6" ry="1.5" fill="#fff48c"/><path d="M24 1.5a20 20 0 1 0 20 20 20 20 0 0 0-20-20zm0 37a18.25 18.25 0 1 1 18.25-18.25A18.25 18.25 0 0 1 24 38.5z" fill="#ebcb00"/><ellipse cx="24" cy="45.5" rx="16" ry="1.5" opacity=".15" fill="#45413c"/><circle class="cls-5" cx="24" cy="21.5" r="20"/><path class="cls-6" d="M38.5 26.5c0 .83-1.12 1.5-2.5 1.5s-2.5-.67-2.5-1.5S34.62 25 36 25s2.5.67 2.5 1.5z"/><path class="cls-6" d="M9.5 26.5c0 .83 1.12 1.5 2.5 1.5s2.5-.67 2.5-1.5S13.38 25 12 25s-2.5.67-2.5 1.5z"/><path class="cls-7" d="M14.5 21.5a1 1 0 1 1-1-1 1 1 0 0 1 1 1z"/><path class="cls-7" d="M33.5 21.5a1 1 0 1 0 1-1 1 1 0 0 0-1 1z"/><path class="cls-5" d="M34.88 17.16a11.34 11.34 0 0 1-3.37-1.1A11.41 11.41 0 0 1 28.62 14"/><path d="M19 34a9 9 0 0 1 10 0" stroke-miterlimit="10" stroke="#45413c" stroke-linecap="round" fill="none"/><path class="cls-9" d="M3 22a1 1 0 0 0 1.4.91L38.21 8.06a1 1 0 0 0 .58-.75 1 1 0 0 0-.3-.9 26.19 26.19 0 0 0-4.24-3.27 1 1 0 0 0-.9-.05L4 15.94a1 1 0 0 0-.58.69A26.81 26.81 0 0 0 3 22z"/><path class="cls-10" d="M26.39 8L33 5.08a1 1 0 0 1 .9 0A25.06 25.06 0 0 1 37.73 8h.58a1 1 0 0 0 .48-.69 1 1 0 0 0-.3-.9 26.19 26.19 0 0 0-4.24-3.27 1 1 0 0 0-.9-.05L22.15 8z"/><path class="cls-11" d="M18.94 16.5l4.57-2H7.3L4 15.94a1 1 0 0 0-.51.56z"/><path class="cls-11" d="M4 16.39a.78.78 0 0 0-.18.11"/><path class="cls-5" d="M3 22a1 1 0 0 0 1.4.91L38.21 8.06a1 1 0 0 0 .58-.75 1 1 0 0 0-.3-.9 26.19 26.19 0 0 0-4.24-3.27 1 1 0 0 0-.9-.05L4 15.94a1 1 0 0 0-.58.69A26.81 26.81 0 0 0 3 22z"/><path class="cls-5" d="M38.8 7.32a1 1 0 0 1-.59.74L24 14.29l-4.46 1.94-15.16 6.65a1 1 0 0 1-.95-.08A1 1 0 0 1 3 22a25.43 25.43 0 0 1 .47-5.33 1 1 0 0 1 .36-.58A.49.49 0 0 1 4 16l4.21-1.9 25.13-11a1 1 0 0 1 .91.05 26.77 26.77 0 0 1 4.24 3.27 1.06 1.06 0 0 1 .31.9z"/><path class="cls-9" d="M4.61 13.1a1 1 0 0 0 .92 1.4h36.94a1 1 0 0 0 .92-1.4 26.16 26.16 0 0 0-2.57-4.69A1 1 0 0 0 40 8H8a1 1 0 0 0-.81.41 26.16 26.16 0 0 0-2.58 4.69z"/><path class="cls-10" d="M42.12 10.5a18 18 0 0 0-1.3-2.09A1 1 0 0 0 40 8H8a1 1 0 0 0-.81.41 18 18 0 0 0-1.3 2.09z"/><path class="cls-5" d="M4.61 13.1a1 1 0 0 0 .92 1.4h36.94a1 1 0 0 0 .92-1.4 26.16 26.16 0 0 0-2.57-4.69A1 1 0 0 0 40 8H8a1 1 0 0 0-.81.41 26.16 26.16 0 0 0-2.58 4.69z"/></g></svg>