<svg xmlns="http://www.w3.org/2000/svg" viewBox="0 0 48 48"><defs><style>.cls-5,.cls-7,.cls-8{fill:none;stroke-linecap:round}.cls-5,.cls-7{stroke:#45413c}.cls-5,.cls-8{stroke-linejoin:round}.cls-6{fill:#fff48c}.cls-7{stroke-miterlimit:10}.cls-8{stroke:#00aed9}</style></defs><ellipse cx="24" cy="45.5" rx="14.27" ry="1.5" fill="#45413c" opacity=".15"/><circle cx="24" cy="24.52" r="17.84" fill="#6dd627"/><path d="M24 6.68a17.85 17.85 0 1 0 17.84 17.84A17.84 17.84 0 0 0 24 6.68zm0 33a16.28 16.28 0 1 1 16.28-16.27A16.28 16.28 0 0 1 24 39.69z" fill="#46b000"/><ellipse cx="24" cy="9.81" rx="5.35" ry="1.34" fill="#9ceb60"/><circle class="cls-5" cx="24" cy="24.52" r="17.84"/><path class="cls-5" d="M14.19 19.76a10.37 10.37 0 0 0 5.57-2.82"/><path class="cls-5" d="M33.81 19.76a10.37 10.37 0 0 1-5.57-2.82"/><path class="cls-6" d="M36.93 29c0 .74-1 1.34-2.23 1.34s-2.23-.6-2.23-1.34 1-1.33 2.23-1.33 2.23.58 2.23 1.33z"/><path class="cls-6" d="M11.07 29c0 .74 1 1.34 2.23 1.34s2.23-.6 2.23-1.34-1-1.33-2.23-1.33-2.23.58-2.23 1.33z"/><g><path id="_Line_" data-name="&lt;Line&gt;" class="cls-5" d="M12.85 23.63h3.57"/><path id="_Line_2" data-name="&lt;Line&gt;" class="cls-5" d="M14.63 21.85v3.57"/></g><g><path id="_Line_3" data-name="&lt;Line&gt;" class="cls-5" d="M35.15 23.63h-3.57"/><path id="_Line_4" data-name="&lt;Line&gt;" class="cls-5" d="M33.37 21.85v3.57"/></g><path class="cls-7" d="M19.54 32.57a8 8 0 0 1 8.92 0"/><path class="cls-7" d="M27.69 34.43a2.68 2.68 0 0 1 2.68-2.68"/><path class="cls-7" d="M20.31 34.43a2.68 2.68 0 0 0-2.68-2.68"/><g><path class="cls-8" d="M38.36 3.34v-.67"/><path class="cls-8" d="M39.78 3.93l.48-.48"/><path class="cls-8" d="M40.37 5.35h.67"/><path class="cls-8" d="M39.78 6.77l.48.47"/><path class="cls-8" d="M38.36 7.35v.67"/><path class="cls-8" d="M36.94 6.77l-.47.47"/><path class="cls-8" d="M36.36 5.35h-.67"/><path class="cls-8" d="M36.94 3.93l-.47-.48"/></g><g><path class="cls-8" d="M29.44 3.28V1.5"/><path class="cls-8" d="M28.55 2.39h1.79"/></g></svg>