<svg xmlns="http://www.w3.org/2000/svg" viewBox="0 0 48 48"><defs><style>.cls-5{fill:none}.cls-10,.cls-5{stroke:#45413c;stroke-linecap:round;stroke-linejoin:round}.cls-6{fill:#ffaa54}.cls-10{fill:#6dd627}</style></defs><g><ellipse cx="24" cy="45.5" rx="17.73" ry="1.5" fill="#45413c" opacity=".15"/><circle cx="24" cy="19.68" r="18.18" fill="#ffe500"/><path d="M24 1.5a18.19 18.19 0 1 0 18.18 18.18A18.18 18.18 0 0 0 24 1.5zm0 33.64a16.6 16.6 0 1 1 16.59-16.59A16.59 16.59 0 0 1 24 35.14z" fill="#ebcb00"/><ellipse cx="24" cy="5.14" rx="5.45" ry="1.36" fill="#fff48c"/><circle class="cls-5" cx="24" cy="19.68" r="18.18"/><path class="cls-6" d="M37.18 24.23c0 .75-1 1.36-2.27 1.36s-2.27-.61-2.27-1.36 1-1.37 2.27-1.37 2.27.62 2.27 1.37z"/><path class="cls-6" d="M10.82 24.23c0 .75 1 1.36 2.27 1.36s2.27-.61 2.27-1.36-1-1.37-2.27-1.37-2.27.62-2.27 1.37z"/><ellipse cx="24" cy="30.14" rx="10" ry="5.45" fill="#ffb0ca" stroke="#45413c" stroke-linecap="round" stroke-linejoin="round"/><path class="cls-5" d="M33.78 14.83A10.75 10.75 0 0 1 28.09 12"/><path class="cls-5" d="M14.22 14.83A10.75 10.75 0 0 0 19.91 12"/><path class="cls-5" d="M35.15 16.5L32.23 18a.91.91 0 0 0 0 1.63l2.92 1.46"/><path class="cls-5" d="M12.85 16.5l2.92 1.5a.91.91 0 0 1 0 1.63l-2.92 1.46"/><path d="M33 38.83a3.13 3.13 0 0 1 1.51.31 2 2 0 0 1 1.13 1.34c2.08.93 2.62 2 2.5 3.2s-1 1.82-4.54 1.82H14.46c-3.53 0-4.44-.61-4.55-1.82s.54-2.5 3.24-3.49a2.4 2.4 0 0 1 1.31-3.78c1.74-.29 1.81-1.82 1.81-4.09v-5.64a14.35 14.35 0 0 1 7.73-2 14.35 14.35 0 0 1 7.73 2v6.55c0 1.63.19 4.08 1.27 5.6z" fill="#6dd627"/><path d="M31.73 30.18v-3.5a14.35 14.35 0 0 0-7.73-2 14.35 14.35 0 0 0-7.73 2v3.5a14.35 14.35 0 0 1 7.73-2 14.35 14.35 0 0 1 7.73 2z" fill="#46b000"/><path class="cls-5" d="M33 38.83a3.13 3.13 0 0 1 1.51.31 2 2 0 0 1 1.13 1.34c2.08.93 2.62 2 2.5 3.2s-1 1.82-4.54 1.82H14.46c-3.53 0-4.44-.61-4.55-1.82s.54-2.5 3.24-3.49a2.4 2.4 0 0 1 1.31-3.78c1.74-.29 1.81-1.82 1.81-4.09v-5.64a14.35 14.35 0 0 1 7.73-2 14.35 14.35 0 0 1 7.73 2v6.55c0 1.63.19 4.08 1.27 5.6z"/><path class="cls-5" d="M28.09 30.5c0 3.52.66 7.61 2.28 8.18s2.61-.25 4.09.46a2 2 0 0 1 0 3.63"/><path class="cls-5" d="M16.27 32.32c0 2.27-.07 3.8-1.81 4.09s-2.53 3.16-.91 4.09a4.56 4.56 0 0 0 4.31-.1"/><path class="cls-5" d="M19.46 33.23s-.21 5.82-2.28 8.18c-1.32 1.51-1.44 4.09 0 4.09"/><path class="cls-5" d="M25.36 35.5s.8 5 1.82 5.91 2.45.45 3.64.91 1.4 3.18-.45 3.18"/><path class="cls-5" d="M22.18 45.5a2.17 2.17 0 0 1-.91-2.73"/><path class="cls-10" d="M39.33 36.5s.4-1.68.88-3.21A1.41 1.41 0 0 1 43 33.2c.63 1.63-1.33 3.2-3.67 3.3z"/><path class="cls-10" d="M39.42 40.17a8.91 8.91 0 0 0 1.79-1.4c.88-1 2.77.55 1.4 1.8s-3.19-.4-3.19-.4z"/><path class="cls-10" d="M7.84 40.39a12.46 12.46 0 0 1-.74-3.06c-.1-1.83-3.47-1.8-3.1.73s3.84 2.33 3.84 2.33z"/></g></svg>