<svg xmlns="http://www.w3.org/2000/svg" viewBox="0 0 48 48"><defs><style>.cls-5{fill:none;stroke:#45413c;stroke-linejoin:round;stroke-linecap:round}.cls-6{fill:#ffaa54}.cls-7{fill:#00b8f0}.cls-8{fill:#4acfff}</style></defs><g><circle cx="24" cy="21.5" r="20" fill="#ffe500"/><path d="M24 1.5a20 20 0 1 0 20 20 20 20 0 0 0-20-20zm0 37a18.25 18.25 0 1 1 18.25-18.25A18.25 18.25 0 0 1 24 38.5z" fill="#ebcb00"/><ellipse cx="24" cy="5.5" rx="6" ry="1.5" fill="#fff48c"/><ellipse cx="24" cy="45.5" rx="16" ry="1.5" fill="#45413c" opacity=".15"/><circle class="cls-5" cx="24" cy="21.5" r="20"/><path class="cls-6" d="M38.5 26.5c0 .83-1.12 1.5-2.5 1.5s-2.5-.67-2.5-1.5S34.62 25 36 25s2.5.67 2.5 1.5z"/><path class="cls-6" d="M9.5 26.5c0 .83 1.12 1.5 2.5 1.5s2.5-.67 2.5-1.5S13.38 25 12 25s-2.5.67-2.5 1.5z"/><path class="cls-5" d="M36.26 18l-3.21 1.61a1 1 0 0 0 0 1.78L36.26 23"/><path class="cls-5" d="M11.74 18L15 19.61a1 1 0 0 1 0 1.78L11.74 23"/><g><path class="cls-7" d="M38.82 44c-3.87-.91-.16-5.65-1.13-8.27 4.52 1.77 5 9.16 1.13 8.27z"/><path class="cls-8" d="M37.69 35.7l.06.19c3.18 2.53 3.21 8.18-.13 7.5a2.54 2.54 0 0 0 1.2.58c3.87.92 3.39-6.47-1.13-8.27z"/><path class="cls-5" d="M38.82 44c-3.87-.91-.16-5.65-1.13-8.27 4.52 1.77 5 9.16 1.13 8.27z"/></g><g><path class="cls-7" d="M34.11 40.39c-2.81.13-1.2-3.8-2.37-5.39 3.42.35 5.17 5.27 2.37 5.39z"/><path class="cls-8" d="M31.74 35l.08.12c2.65 1.1 3.75 4.92 1.36 5.11a1.83 1.83 0 0 0 .93.16c2.8-.12 1.05-5.04-2.37-5.39z"/><path class="cls-5" d="M34.11 40.39c-2.81.13-1.2-3.8-2.37-5.39 3.42.35 5.17 5.27 2.37 5.39z"/></g><path class="cls-5" d="M32.5 33.41l-1.79-1.79a1 1 0 0 0-1.42 0l-1.58 1.59a1 1 0 0 1-1.42 0l-1.58-1.59a1 1 0 0 0-1.42 0l-1.58 1.59a1 1 0 0 1-1.42 0l-1.58-1.59a1 1 0 0 0-1.42 0l-1.79 1.79"/><g><path d="M22.39 27.08a2.51 2.51 0 0 0-3.66-2.21C13.91 27.38 11.51 31.78 5 35.49a2 2 0 0 0 1.13 3.73 1.31 1.31 0 0 1 1 .4 1.59 1.59 0 0 1 .25 1.61 2 2 0 0 0 3.15 2 1.37 1.37 0 0 1 1.47-.1 1.4 1.4 0 0 1 .73 1.28A1.94 1.94 0 0 0 16 46c5.5-5 6.49-14.4 6.39-18.92z" fill="#e8f4fa"/><g><path d="M4.6 38.68a2 2 0 0 1 .91-1.13c6.53-3.71 8.92-8.11 13.74-10.62a2.49 2.49 0 0 1 3.15.74v-.59a2.51 2.51 0 0 0-3.66-2.21C13.91 27.38 11.51 31.78 5 35.49a2 2 0 0 0-.93 2.32 2.11 2.11 0 0 0 .53.87z" fill="#fff"/></g><path d="M22.39 27.08a2.51 2.51 0 0 0-3.66-2.21C13.91 27.38 11.51 31.78 5 35.49a2 2 0 0 0 1.13 3.73 1.31 1.31 0 0 1 1 .4 1.33 1.33 0 0 1 .35 1c0 .18-.06.38-.1.57a2 2 0 0 0 3.15 2 1.37 1.37 0 0 1 1.47-.06 1.4 1.4 0 0 1 .73 1.28A1.94 1.94 0 0 0 16 46c5.5-5 6.49-14.4 6.39-18.92z" fill="none" stroke="#45413c" stroke-linejoin="round"/><path class="cls-5" d="M7.14 39.62a24.37 24.37 0 0 0 8.36-8"/><path class="cls-5" d="M12 43.13s5.15-5.16 6-9.69"/></g></g></svg>