<svg xmlns="http://www.w3.org/2000/svg" viewBox="0 0 48 48"><defs><style>.cls-8{fill:#ffe500}.cls-7{fill:#45413c}.cls-7,.cls-8{stroke:#45413c;stroke-linecap:round;stroke-linejoin:round}</style></defs><g><circle cx="24" cy="21.5" r="20" fill="#ffe500"/><path d="M24 1.5a20 20 0 1 0 20 20 20 20 0 0 0-20-20zm0 37a18.25 18.25 0 1 1 18.25-18.25A18.25 18.25 0 0 1 24 38.5z" fill="#ebcb00"/><ellipse cx="24" cy="5.5" rx="6" ry="1.5" fill="#fff48c"/><ellipse cx="24" cy="45.5" rx="16" ry="1.5" opacity=".15" fill="#45413c"/><circle cx="24" cy="21.5" r="20" stroke="#45413c" stroke-linecap="round" stroke-linejoin="round" fill="none"/><path d="M9.5 26.5c0 .83 1.12 1.5 2.5 1.5s2.5-.67 2.5-1.5S13.38 25 12 25s-2.5.67-2.5 1.5z" fill="#ffaa54"/><path class="cls-7" d="M15.5 19.5a1 1 0 1 1-1-1 1 1 0 0 1 1 1z"/><path class="cls-7" d="M32.5 19.5a1 1 0 1 0 1-1 1 1 0 0 0-1 1z"/><path class="cls-8" d="M19.5 34.5a14.09 14.09 0 0 1 4.5-1 14.09 14.09 0 0 1 4.5 1"/><path class="cls-8" d="M25.5 25H45a2 2 0 0 1 0 4H25.5"/></g></svg>