<svg xmlns="http://www.w3.org/2000/svg" viewBox="0 0 48 48"><defs><style>.cls-1{fill:#ffe500}.cls-2{fill:#ebcb00}.cls-5{fill:none;stroke:#45413c;stroke-linecap:round;stroke-linejoin:round}.cls-6{fill:#ffaa54}</style></defs><g><circle class="cls-1" cx="24" cy="21.5" r="20"/><path class="cls-2" d="M24 1.5a20 20 0 1 0 20 20 20 20 0 0 0-20-20zm0 37a18.25 18.25 0 1 1 18.25-18.25A18.25 18.25 0 0 1 24 38.5z"/><ellipse cx="24" cy="5.5" rx="6" ry="1.5" fill="#fff48c"/><ellipse cx="24" cy="45.5" rx="16" ry="1.5" fill="#45413c" opacity=".15"/><circle class="cls-5" cx="24" cy="21.5" r="20"/><path class="cls-6" d="M38.5 26.5c0 .83-1.12 1.5-2.5 1.5s-2.5-.67-2.5-1.5S34.62 25 36 25s2.5.67 2.5 1.5z"/><path class="cls-6" d="M9.5 26.5c0 .83 1.12 1.5 2.5 1.5s2.5-.67 2.5-1.5S13.38 25 12 25s-2.5.67-2.5 1.5z"/><path class="cls-1" d="M15.63 42.78a7.59 7.59 0 0 0 10.73 0l6.13-6.13A1.75 1.75 0 0 0 30 34.18l2.12-2.12a1.75 1.75 0 1 0-2.47-2.48l.71-.71a1.75 1.75 0 1 0-2.48-2.47l-1.41 1.41A1.75 1.75 0 1 0 24 25.34l-5.83 5.83-.45-3.67a1.63 1.63 0 0 0-3 .25l-1.48 4.45a10.16 10.16 0 0 0 2.39 10.58z"/><path class="cls-2" d="M32.18 33.93l-5.82 5.81a7.57 7.57 0 0 1-10.73 0 10.18 10.18 0 0 1-2.86-5.66 10.14 10.14 0 0 0 2.86 8.7 7.59 7.59 0 0 0 10.73 0l6.13-6.13a1.75 1.75 0 0 0 0-2.47 1.79 1.79 0 0 0-.31-.25z"/><path class="cls-5" d="M26.65 27.64l-4.24 4.24"/><path class="cls-5" d="M29.84 29.4l-4.95 4.95"/><path class="cls-5" d="M30.19 34l-2.83 2.83"/><path class="cls-5" d="M32.5 19.5s.17-2 2-2 2 2 2 2"/><path class="cls-5" d="M11.5 19.5s.17-2 2-2 2 2 2 2"/><path class="cls-5" d="M15.63 42.78a7.59 7.59 0 0 0 10.73 0l6.13-6.13A1.75 1.75 0 0 0 30 34.18l2.12-2.12a1.75 1.75 0 1 0-2.47-2.48l.71-.71a1.75 1.75 0 1 0-2.48-2.47l-1.41 1.41A1.75 1.75 0 1 0 24 25.34l-5.83 5.83-.45-3.67a1.63 1.63 0 0 0-3 .25l-1.48 4.45a10.16 10.16 0 0 0 2.39 10.58z"/></g></svg>