<svg xmlns="http://www.w3.org/2000/svg" viewBox="0 0 48 48"><defs><style>.cls-5{fill:none}.cls-10,.cls-5,.cls-6,.cls-7{stroke:#45413c;stroke-linecap:round;stroke-linejoin:round}.cls-6{fill:#fff}.cls-7{fill:#b89558}.cls-8{fill:#00b8f0}.cls-9{fill:#4acfff}.cls-10{fill:#ff6242}</style></defs><g><circle cx="24" cy="21.5" r="20" fill="#ffe500"/><path d="M24 1.5a20 20 0 1 0 20 20 20 20 0 0 0-20-20zm0 37a18.25 18.25 0 1 1 18.25-18.25A18.25 18.25 0 0 1 24 38.5z" fill="#ebcb00"/><ellipse cx="24" cy="5.5" rx="6" ry="1.5" fill="#fff48c"/><ellipse cx="24" cy="45.5" rx="16" ry="1.5" fill="#45413c" opacity=".15"/><circle class="cls-5" cx="24" cy="21.5" r="20"/><path class="cls-5" d="M16.5 29s2.31 2 7.5 2 7.5-2 7.5-2"/><g><path class="cls-6" d="M20.21 32.34a1.79 1.79 0 0 0 1.48 1.33l1.52.22a.69.69 0 0 0 .79-.69V31a16.81 16.81 0 0 1-4.26-.52z"/></g><g><path class="cls-6" d="M24 31v2.2a.69.69 0 0 0 .79.69l1.52-.22a1.79 1.79 0 0 0 1.48-1.33l.47-1.86A16.81 16.81 0 0 1 24 31z"/></g><circle class="cls-7" cx="15" cy="20" r="7.5"/><circle class="cls-8" cx="15" cy="20" r="5.5"/><path class="cls-9" d="M15 14.5a5.5 5.5 0 0 0-3.81 9.5L19 16.19a5.47 5.47 0 0 0-4-1.69z"/><circle class="cls-5" cx="15" cy="20" r="5.5"/><circle class="cls-7" cx="33" cy="20" r="7.5"/><circle class="cls-8" cx="33" cy="20" r="5.5"/><path class="cls-9" d="M33 14.5a5.5 5.5 0 0 0-3.81 9.5L37 16.19a5.47 5.47 0 0 0-4-1.69z"/><circle class="cls-5" cx="33" cy="20" r="5.5"/><path id="_Line_" data-name="&lt;Line&gt;" class="cls-5" d="M40.5 20H45"/><path id="_Line_2" data-name="&lt;Line&gt;" class="cls-5" d="M7.5 20H3"/><path id="_Line_3" data-name="&lt;Line&gt;" class="cls-5" d="M25.5 20h-3"/><g><path class="cls-10" d="M24 40.61a24.7 24.7 0 0 1 5.53-2.09 1 1 0 0 1 1.2.74 13.8 13.8 0 0 1 0 5.33 1.08 1.08 0 0 1-1.5.82A39.92 39.92 0 0 1 24 42.75z"/><path class="cls-10" d="M24 40.61a24.7 24.7 0 0 0-5.53-2.09 1 1 0 0 0-1.2.74 13.8 13.8 0 0 0 0 5.33 1.08 1.08 0 0 0 1.5.82A39.92 39.92 0 0 0 24 42.75z"/><path id="_Line_4" data-name="&lt;Line&gt;" class="cls-5" d="M20.25 42h7.5"/><rect class="cls-10" x="23" y="40" width="2" height="4" rx=".5" ry=".5"/></g></g></svg>