<svg xmlns="http://www.w3.org/2000/svg" viewBox="0 0 48 48"><defs><style>.cls-4{fill:none}.cls-10,.cls-4,.cls-7,.cls-8,.cls-9{stroke:#45413c;stroke-linecap:round;stroke-linejoin:round}.cls-7{fill:#adc4d9}.cls-8{fill:#ff6242}.cls-9{fill:#00dfeb}.cls-10{fill:#627b8c}</style></defs><g><ellipse cx="24" cy="45.5" rx="19.5" ry="1.5" fill="#45413c" opacity=".15"/><path d="M42 40.5a4 4 0 0 1-4 4H10a4 4 0 0 1-4-4V27a18 18 0 0 1 36 0z" fill="#daedf7"/><path d="M24 9A18 18 0 0 0 6 27v5a18 18 0 0 1 36 0v-5A18 18 0 0 0 24 9z" fill="#fff"/><path class="cls-4" d="M42 40.5a4 4 0 0 1-4 4H10a4 4 0 0 1-4-4V27a18 18 0 0 1 36 0z"/><rect x="17.5" y="34" width="13" height="12" rx="2" ry="2" fill="#c0dceb"/><path fill="#adc4d9" d="M17.5 38.5h13v2h-13z"/><path class="cls-7" d="M45.5 35.92a1 1 0 0 1-.5.87l-3 1.71V26l3 1.71a1 1 0 0 1 .5.87z"/><path class="cls-7" d="M2.5 35.92a1 1 0 0 0 .5.87l3 1.71V26l-3 1.71a1 1 0 0 0-.5.87z"/><path class="cls-4" d="M24 9a9 9 0 0 1 10.5-6.73"/><circle class="cls-8" cx="36" cy="3.5" r="2.5"/><rect class="cls-4" x="17.5" y="34" width="13" height="12" rx="2" ry="2"/><path class="cls-8" d="M19.5 34h9a2 2 0 0 1 2 2v2.5h-13V36a2 2 0 0 1 2-2z"/><path class="cls-4" d="M33.5 11.71a18 18 0 0 0-19 0V24h19z"/><circle class="cls-9" cx="32.5" cy="25" r="5"/><circle class="cls-10" cx="32.5" cy="25" r="2"/><circle class="cls-9" cx="15.5" cy="25" r="5"/><circle class="cls-10" cx="15.5" cy="25" r="2"/></g></svg>