<svg xmlns="http://www.w3.org/2000/svg" viewBox="0 0 48 48"><defs><style>.cls-1{fill:#ff8a14}.cls-5,.cls-7,.cls-8{stroke:#45413c;stroke-linecap:round;stroke-linejoin:round}.cls-5{fill:none}.cls-13{fill:#45413c}.cls-7{fill:#fff}.cls-8{fill:#ff6242}.cls-10{fill:#ffaa54}</style></defs><path class="cls-1" d="M2.34 39a4.06 4.06 0 0 1-1.18-5.6l7.47 4.86A4.05 4.05 0 0 1 3 39.45z"/><path d="M33.5 17h-9l.58-2.38a1.46 1.46 0 0 1 1.42-1.12h5a1.47 1.47 0 0 1 1.42 1.11z" stroke="#45413c" stroke-linecap="round" stroke-linejoin="round" fill="#adc4d9"/><path d="M29 16a14.5 14.5 0 0 0-14.5 14.5V41a3.5 3.5 0 0 0 3.5 3.5h22a3.5 3.5 0 0 0 3.5-3.5V30.5A14.5 14.5 0 0 0 29 16z" fill="#ffe500"/><path d="M29 16a14.5 14.5 0 0 0-14.5 14.5v4a14.5 14.5 0 0 1 29 0v-4A14.5 14.5 0 0 0 29 16z" fill="#fff48c"/><path class="cls-5" d="M29 16a14.5 14.5 0 0 0-14.5 14.5V41a3.5 3.5 0 0 0 3.5 3.5h22a3.5 3.5 0 0 0 3.5-3.5V30.5A14.5 14.5 0 0 0 29 16z"/><ellipse cx="29" cy="46.5" rx="16.5" ry="1.5" opacity=".15" fill="#45413c"/><circle class="cls-7" cx="35.89" cy="29.08" r="4.46"/><circle class="cls-8" cx="35.89" cy="29.08" r="1.62"/><circle class="cls-7" cx="22.11" cy="29.08" r="4.05"/><circle cx="22.11" cy="29.08" r="1.62" fill="#6dd627" stroke="#45413c" stroke-linecap="round" stroke-linejoin="round"/><path id="_Line_" data-name="&lt;Line&gt;" class="cls-5" d="M29 16v22"/><path id="_Line_2" data-name="&lt;Line&gt;" class="cls-5" d="M35.89 26.25v-1.63"/><path id="_Line_3" data-name="&lt;Line&gt;" class="cls-5" d="M37.9 27.08l1.14-1.15"/><path id="_Line_4" data-name="&lt;Line&gt;" class="cls-5" d="M38.73 29.08h1.62"/><path id="_Line_5" data-name="&lt;Line&gt;" class="cls-5" d="M37.9 31.09l1.14 1.15"/><path id="_Line_6" data-name="&lt;Line&gt;" class="cls-5" d="M35.89 31.92v1.62"/><path id="_Line_7" data-name="&lt;Line&gt;" class="cls-5" d="M33.88 31.09l-1.14 1.15"/><path id="_Line_8" data-name="&lt;Line&gt;" class="cls-5" d="M33.05 29.08h-1.62"/><path id="_Line_9" data-name="&lt;Line&gt;" class="cls-5" d="M33.88 27.08l-1.14-1.15"/><path class="cls-5" d="M29 13.5v-2l4.5-1.5L28 5l8 2 2.03-4.47"/><circle class="cls-8" cx="38.03" cy="2.53" r="2.03"/><path class="cls-5" d="M14.5 36.38s-.5-5.27-2.93-4.87c-2.88.49-2 7.71.41 7.3 2-.34-1.62-6.89-4.46-6.08-1.59.46-2.42 2.52-2.52 3.19"/><path class="cls-10" d="M1.08 33.55a4.76 4.76 0 0 0 2.26 4l.77.5a4.81 4.81 0 0 0 4.26.57 2 2 0 0 0 .26-.32l-7.47-4.9a1.09 1.09 0 0 0-.08.15z"/><path class="cls-5" d="M2.34 39a4.06 4.06 0 0 1-1.18-5.6l7.47 4.86A4.05 4.05 0 0 1 3 39.45z"/><path class="cls-1" d="M47.5 35.5a4 4 0 0 1-4 4v-9a4 4 0 0 1 4 4z"/><path class="cls-10" d="M43.5 30.5v2a4 4 0 0 1 4 3.5 4.07 4.07 0 0 0 0-.5v-1a4 4 0 0 0-4-4z"/><path class="cls-5" d="M47.5 35.5a4 4 0 0 1-4 4v-9a4 4 0 0 1 4 4z"/><rect x="18.5" y="38" width="21" height="8" rx="1.5" ry="1.5" fill="#c0dceb"/><path d="M38 38H20a1.5 1.5 0 0 0-1.5 1.5v2A1.5 1.5 0 0 1 20 40h18a1.5 1.5 0 0 1 1.5 1.5v-2A1.5 1.5 0 0 0 38 38z" fill="#daedf7"/><rect class="cls-5" x="18.5" y="38" width="21" height="8" rx="1.5" ry="1.5"/><path class="cls-13" d="M20.5 39.5a.5.5 0 1 0 .5.5.5.5 0 0 0-.5-.5zM37.5 39.5a.5.5 0 1 0 .5.5.5.5 0 0 0-.5-.5z"/></svg>