<svg xmlns="http://www.w3.org/2000/svg" viewBox="0 0 48 48"><defs><style>.cls-1{fill:#adc4d9}.cls-2{fill:#c0dceb}.cls-4{fill:none}.cls-12,.cls-4,.cls-6{stroke:#45413c;stroke-linecap:round;stroke-linejoin:round}.cls-9{fill:#45413c}.cls-6{fill:#fff}.cls-12{fill:#ffe500}</style></defs><g><rect class="cls-1" x="9.38" y="16.85" width="29.25" height="27.62" rx="4.87" ry="4.87"/><path class="cls-2" d="M33.75 16.85h-19.5a4.88 4.88 0 0 0-4.87 4.88v2.44a4.87 4.87 0 0 1 4.87-4.88h19.5a4.87 4.87 0 0 1 4.87 4.88v-2.44a4.88 4.88 0 0 0-4.87-4.88z"/><path d="M38.62 32.7H27.25A3.26 3.26 0 0 1 24 29.45v-12.6h9.75a4.88 4.88 0 0 1 4.87 4.88z" fill="#8ca4b8"/><path class="cls-1" d="M38.41 20.28a4.88 4.88 0 0 0-4.66-3.43H24v2.44h9.75a4.87 4.87 0 0 1 4.87 4.88v-2.44a4.94 4.94 0 0 0-.21-1.45z"/><rect class="cls-4" x="9.38" y="16.85" width="29.25" height="27.62" rx="4.87" ry="4.87"/><ellipse cx="24" cy="45.5" rx="15.5" ry="1.5" opacity=".15" fill="#45413c"/><circle class="cls-6" cx="16.28" cy="24.98" r="4.06"/><circle cx="16.28" cy="24.98" r="2.03" fill="#00dba8" stroke="#45413c" stroke-linecap="round" stroke-linejoin="round"/><circle class="cls-6" cx="31.72" cy="24.98" r="4.06"/><circle cx="31.72" cy="24.98" r="1.62" fill="#00b8f0" stroke="#45413c" stroke-linecap="round" stroke-linejoin="round"/><path class="cls-9" d="M36.62 29.76a.5.5 0 0 0 0 1 .5.5 0 0 0 0-1zM26 29.76a.5.5 0 1 0 .5.5.5.5 0 0 0-.5-.5zM26 18.35a.5.5 0 0 0-.5.5.5.5 0 0 0 1 0 .5.5 0 0 0-.5-.5z"/><path class="cls-4" d="M24 14v-2.44l4.47-1.22-5.28-4.87 7.72 2.03 1.29-2.58"/><circle cx="32.94" cy="3.03" r="2.03" fill="#ff6242" stroke="#45413c" stroke-linecap="round" stroke-linejoin="round"/><path class="cls-4" d="M38.62 32.7H27.25A3.26 3.26 0 0 1 24 29.45v-12.6h9.75a4.88 4.88 0 0 1 4.87 4.88z"/><path id="_Line_" data-name="&lt;Line&gt;" class="cls-4" d="M31.72 22.13v1.22"/><path id="_Line_2" data-name="&lt;Line&gt;" class="cls-4" d="M34.56 24.98h-1.22"/><path id="_Line_3" data-name="&lt;Line&gt;" class="cls-4" d="M31.72 27.82V26.6"/><path id="_Line_4" data-name="&lt;Line&gt;" class="cls-4" d="M28.87 24.98h1.22"/><path d="M29.69 16.85H18.31A2.85 2.85 0 0 1 21.16 14h5.68a2.85 2.85 0 0 1 2.85 2.85z" stroke="#45413c" stroke-linecap="round" stroke-linejoin="round" fill="#adc4d9"/><path class="cls-12" d="M38.62 24.17h.81a2.44 2.44 0 0 1 2.44 2.44v8.12a2.44 2.44 0 0 1-2.44 2.44h-.81v-13z"/><path class="cls-12" d="M6.13 24.17h.81a2.44 2.44 0 0 1 2.44 2.43v8.12a2.44 2.44 0 0 1-2.44 2.44h-.81v-13 .01z" transform="rotate(180 7.75 30.665)"/><rect class="cls-2" x="14" y="37" width="20" height="8.5" rx="1.5" ry="1.5"/><path d="M32.5 37h-17a1.5 1.5 0 0 0-1.5 1.5v2a1.5 1.5 0 0 1 1.5-1.5h17a1.5 1.5 0 0 1 1.5 1.5v-2a1.5 1.5 0 0 0-1.5-1.5z" fill="#daedf7"/><rect class="cls-4" x="14" y="37" width="20" height="8.5" rx="1.5" ry="1.5"/><path class="cls-9" d="M16 38.5a.5.5 0 1 0 .5.5.5.5 0 0 0-.5-.5zM32 38.5a.5.5 0 1 0 .5.5.5.5 0 0 0-.5-.5z"/></g></svg>