<svg xmlns="http://www.w3.org/2000/svg" viewBox="0 0 48 48"><defs><style>.cls-1{fill:#ffe500}.cls-2{fill:#ffa694}.cls-3{fill:#fff48c}.cls-4,.cls-7{fill:none;stroke:#45413c;stroke-linecap:round}.cls-4{stroke-linejoin:round}.cls-5{fill:#ff866e}.cls-7{stroke-miterlimit:10}</style></defs><path class="cls-1" d="M27.12 8.68s8.43-5.74 11.57-3.15-1.21 13.21-1.21 13.21z"/><path class="cls-2" d="M28.49 10.87s6-4.35 8.14-2.6-1.12 9.41-1.12 9.41z"/><path class="cls-1" d="M20.88 8.68S12.45 2.94 9.31 5.53s1.21 13.21 1.21 13.21z"/><path class="cls-3" d="M38.69 7.72a3.51 3.51 0 0 1 1.09 2.38c.18-2 0-3.71-1.09-4.57-3.14-2.59-11.57 3.15-11.57 3.15L28.49 10c2.51-1.48 7.85-4.22 10.2-2.28z"/><path class="cls-3" d="M9.31 7.72c2.35-1.94 7.68.8 10.2 2.29l1.37-1.33S12.45 2.94 9.31 5.53C8.26 6.39 8 8.14 8.22 10.1a3.51 3.51 0 0 1 1.09-2.38z"/><path class="cls-4" d="M27.12 8.68s8.43-5.74 11.57-3.15-1.21 13.21-1.21 13.21z"/><path class="cls-4" d="M20.88 8.68S12.45 2.94 9.31 5.53s1.21 13.21 1.21 13.21z"/><path class="cls-2" d="M19.51 10.87s-6-4.35-8.14-2.6 1.12 9.41 1.12 9.41z"/><path class="cls-5" d="M36.63 10.52a2 2 0 0 1 .63 1.17c.2-1.48.11-2.81-.63-3.42-2.13-1.75-8.14 2.6-8.14 2.6l1.38 1.34c1.9-1.21 5.27-2.92 6.76-1.69z"/><path class="cls-5" d="M11.37 10.52c1.49-1.23 4.86.52 6.76 1.69l1.38-1.34s-6-4.35-8.14-2.6c-.74.61-.83 1.94-.63 3.42a2 2 0 0 1 .63-1.17z"/><path class="cls-4" d="M28.49 10.87s6-4.35 8.14-2.6-1.12 9.41-1.12 9.41z"/><path class="cls-4" d="M19.51 10.87s-6-4.35-8.14-2.6 1.12 9.41 1.12 9.41z"/><ellipse cx="24" cy="43.5" rx="11" ry="1.5" fill="#45413c" opacity=".15"/><path class="cls-1" d="M39.33 28.91l-.94-8.71A14.26 14.26 0 0 0 24 7.75 14.26 14.26 0 0 0 9.61 20.2l-.94 8.71a8.09 8.09 0 0 0 8.25 8.77h.46c1.25 1.55 3.74 2.61 6.62 2.61s5.37-1.06 6.62-2.61h.46a8.09 8.09 0 0 0 8.25-8.77z"/><path class="cls-3" d="M9.61 23.88A14.26 14.26 0 0 1 24 11.44a14.26 14.26 0 0 1 14.39 12.44l.81 7.49a7.74 7.74 0 0 0 .13-2.46l-.94-8.71A14.27 14.27 0 0 0 24 7.75 14.27 14.27 0 0 0 9.61 20.2l-.94 8.71a7.74 7.74 0 0 0 .13 2.46z"/><path class="cls-4" d="M39.33 28.91l-.94-8.71A14.26 14.26 0 0 0 24 7.75 14.26 14.26 0 0 0 9.61 20.2l-.94 8.71a8.09 8.09 0 0 0 8.25 8.77h.46c1.25 1.55 3.74 2.61 6.62 2.61s5.37-1.06 6.62-2.61h.46a8.09 8.09 0 0 0 8.25-8.77z"/><path class="cls-4" d="M32 30.09l3.43-.82"/><path class="cls-4" d="M32 32.55l3.43.75"/><g><path class="cls-7" d="M24.22 33.12a1.39 1.39 0 0 1 .72-.2 1.44 1.44 0 0 1 0 2.88"/><path class="cls-7" d="M24.94 35.8a1.44 1.44 0 1 1 0 2.87 1.46 1.46 0 0 1-.72-.19"/></g><g><path d="M43.57 32.38a3 3 0 0 0-4-1.29l-1.64.75-.53-1.73A3.05 3.05 0 0 0 33.77 28a3.83 3.83 0 0 0-2.62 2.23 4.92 4.92 0 0 0-.1 3.94l2.84 6.68 6.88-2.31a5 5 0 0 0 2.88-2.69 3.87 3.87 0 0 0-.08-3.47z" fill="#ff6242"/><path class="cls-5" d="M32.35 31.16A3 3 0 0 1 36 33.29l.5 1.71 1.65-.74a3 3 0 0 1 4 1.29 3.58 3.58 0 0 1 .43 1.8 5.33 5.33 0 0 0 1.07-1.53 3.87 3.87 0 0 0-.08-3.45 3 3 0 0 0-4-1.29l-1.64.75-.53-1.73a3.05 3.05 0 0 0-3.63-2.1 3.83 3.83 0 0 0-2.62 2.23 5.16 5.16 0 0 0-.44 1.77 3.54 3.54 0 0 1 1.64-.84z"/><path class="cls-4" d="M43.57 32.38a3 3 0 0 0-4-1.29l-1.64.75-.53-1.73A3.05 3.05 0 0 0 33.77 28a3.83 3.83 0 0 0-2.62 2.23 4.92 4.92 0 0 0-.1 3.94l2.84 6.68 6.88-2.31a5 5 0 0 0 2.88-2.69 3.87 3.87 0 0 0-.08-3.47z"/></g><path class="cls-4" d="M32.37 24.48a1.75 1.75 0 1 1-3.5 0"/><path class="cls-4" d="M19.13 24.48a1.75 1.75 0 0 1-3.5 0"/><path class="cls-4" d="M16.89 30.18l-5.42-.83"/><path class="cls-4" d="M16.89 32.64l-5.42.75"/><path class="cls-5" d="M26.68 30.88A3 3 0 0 1 24 33.1a3 3 0 0 1-2.68-2.22c0-.69 1.2-1.24 2.68-1.24s2.68.55 2.68 1.24z"/><path class="cls-2" d="M24 31.14a4 4 0 0 1 2.32.61 1.69 1.69 0 0 0 .36-.87c0-.69-1.2-1.24-2.68-1.24s-2.68.55-2.68 1.24a1.69 1.69 0 0 0 .36.87 4 4 0 0 1 2.32-.61z"/><path class="cls-4" d="M26.68 30.88A3 3 0 0 1 24 33.1a3 3 0 0 1-2.68-2.22c0-.69 1.2-1.24 2.68-1.24s2.68.55 2.68 1.24z"/></svg>