<svg xmlns="http://www.w3.org/2000/svg" viewBox="0 0 48 48"><defs><style>.cls-1{fill:#ffe500}.cls-2{fill:#ffa694}.cls-3{fill:#fff48c}.cls-4{fill:none}.cls-4,.cls-7{stroke:#45413c;stroke-linecap:round;stroke-linejoin:round}.cls-5{fill:#ff866e}.cls-7{fill:#45413c}.cls-9{fill:#00b8f0}.cls-10{fill:#4acfff}</style></defs><path class="cls-1" d="M27.12 8.68s8.43-5.74 11.57-3.15-1.21 13.21-1.21 13.21z"/><path class="cls-2" d="M28.49 10.87s6-4.35 8.14-2.6-1.12 9.41-1.12 9.41z"/><path class="cls-1" d="M20.88 8.68S12.45 2.94 9.31 5.53s1.21 13.21 1.21 13.21z"/><path class="cls-3" d="M38.69 7.72a3.51 3.51 0 0 1 1.09 2.38c.18-2 0-3.71-1.09-4.57-3.14-2.59-11.57 3.15-11.57 3.15L28.49 10c2.51-1.48 7.85-4.22 10.2-2.28z"/><path class="cls-3" d="M9.31 7.72c2.35-1.94 7.68.8 10.2 2.29l1.37-1.33S12.45 2.94 9.31 5.53C8.26 6.39 8 8.14 8.22 10.1a3.51 3.51 0 0 1 1.09-2.38z"/><path class="cls-4" d="M27.12 8.68s8.43-5.74 11.57-3.15-1.21 13.21-1.21 13.21z"/><path class="cls-4" d="M20.88 8.68S12.45 2.94 9.31 5.53s1.21 13.21 1.21 13.21z"/><path class="cls-2" d="M19.51 10.87s-6-4.35-8.14-2.6 1.12 9.41 1.12 9.41z"/><path class="cls-5" d="M36.63 10.52a2 2 0 0 1 .63 1.17c.2-1.48.11-2.81-.63-3.42-2.13-1.75-8.14 2.6-8.14 2.6l1.38 1.34c1.9-1.21 5.27-2.92 6.76-1.69z"/><path class="cls-5" d="M11.37 10.52c1.49-1.23 4.86.52 6.76 1.69l1.38-1.34s-6-4.35-8.14-2.6c-.74.61-.83 1.94-.63 3.42a2 2 0 0 1 .63-1.17z"/><path class="cls-4" d="M28.49 10.87s6-4.35 8.14-2.6-1.12 9.41-1.12 9.41z"/><path class="cls-4" d="M19.51 10.87s-6-4.35-8.14-2.6 1.12 9.41 1.12 9.41z"/><ellipse cx="24" cy="43.5" rx="11" ry="1.5" opacity=".15" fill="#45413c"/><path class="cls-1" d="M39.33 28.91l-.94-8.71A14.26 14.26 0 0 0 24 7.75 14.26 14.26 0 0 0 9.61 20.2l-.94 8.71a8.09 8.09 0 0 0 8.25 8.77h.46c1.25 1.55 3.74 2.61 6.62 2.61s5.37-1.06 6.62-2.61h.46a8.09 8.09 0 0 0 8.25-8.77z"/><path class="cls-3" d="M9.61 23.88A14.25 14.25 0 0 1 24 11.44a14.26 14.26 0 0 1 14.39 12.44l.81 7.49a7.74 7.74 0 0 0 .13-2.46l-.94-8.71A14.27 14.27 0 0 0 24 7.75 14.26 14.26 0 0 0 9.61 20.2l-.94 8.71a7.74 7.74 0 0 0 .13 2.46z"/><path class="cls-4" d="M39.33 28.91l-.94-8.71A14.26 14.26 0 0 0 24 7.75 14.26 14.26 0 0 0 9.61 20.2l-.94 8.71a8.09 8.09 0 0 0 8.25 8.77h.46c1.25 1.55 3.74 2.61 6.62 2.61s5.37-1.06 6.62-2.61h.46a8.09 8.09 0 0 0 8.25-8.77z"/><path class="cls-5" d="M26.68 30.88A3 3 0 0 1 24 33.1a3 3 0 0 1-2.68-2.22c0-.69 1.2-1.24 2.68-1.24s2.68.55 2.68 1.24z"/><path class="cls-2" d="M24 31.14a4 4 0 0 1 2.32.61 1.69 1.69 0 0 0 .36-.87c0-.69-1.2-1.24-2.68-1.24s-2.68.55-2.68 1.24a1.69 1.69 0 0 0 .36.87 4 4 0 0 1 2.32-.61z"/><path class="cls-4" d="M26.68 30.88A3 3 0 0 1 24 33.1a3 3 0 0 1-2.68-2.22c0-.69 1.2-1.24 2.68-1.24s2.68.55 2.68 1.24z"/><path class="cls-4" d="M16 30.09l-3.43-.82"/><path class="cls-7" d="M15.92 24.87a1.15 1.15 0 1 0 1.15-1.14 1.14 1.14 0 0 0-1.15 1.14z"/><path class="cls-7" d="M32.08 24.87a1.15 1.15 0 1 1-1.15-1.14 1.14 1.14 0 0 1 1.15 1.14z"/><path d="M20.88 36a5.65 5.65 0 0 1 6.24 0" stroke-miterlimit="10" stroke="#45413c" stroke-linecap="round" fill="none"/><path class="cls-4" d="M31.11 29.93l5.42-.83"/><path class="cls-4" d="M31.11 32.39l5.42.75"/><path class="cls-4" d="M16.89 32.39l-5.42.75"/><g><path class="cls-9" d="M34.16 43.56c-3.65-1.6.86-5.6.36-8.35 4.13 2.59 3.29 9.94-.36 8.35z"/><path class="cls-10" d="M34.52 35.21a1.36 1.36 0 0 1 0 .2c2.69 3.06 1.71 8.62-1.45 7.36a2.64 2.64 0 0 0 1.07.79c3.67 1.59 4.51-5.76.38-8.35z"/><path class="cls-4" d="M34.16 43.56c-3.65-1.6.86-5.6.36-8.35 4.13 2.59 3.29 9.94-.36 8.35z"/></g><g><path class="cls-9" d="M32.49 33.09c-2.75-.57-.22-4-1-5.81 3.27 1.19 3.74 6.39 1 5.81z"/><path class="cls-10" d="M31.54 27.28a.57.57 0 0 1 0 .14c2.29 1.72 2.42 5.7.05 5.28a1.81 1.81 0 0 0 .86.39c2.78.58 2.31-4.62-.91-5.81z"/><path class="cls-4" d="M32.49 33.09c-2.75-.57-.22-4-1-5.81 3.27 1.19 3.74 6.39 1 5.81z"/></g><g><path class="cls-9" d="M15.32 33.09c2.74-.57.21-4 .95-5.81-3.22 1.19-3.7 6.39-.95 5.81z"/><path class="cls-10" d="M16.27 27.28s0 .09-.05.14c-2.29 1.72-2.41 5.7 0 5.28a1.77 1.77 0 0 1-.85.39c-2.8.58-2.32-4.62.9-5.81z"/><path class="cls-4" d="M15.32 33.09c2.74-.57.21-4 .95-5.81-3.22 1.19-3.7 6.39-.95 5.81z"/></g></svg>