<svg xmlns="http://www.w3.org/2000/svg" viewBox="0 0 48 48"><defs><style>.cls-1{fill:#b89558}.cls-1,.cls-10,.cls-11,.cls-2,.cls-6{stroke:#45413c;stroke-linecap:round;stroke-linejoin:round}.cls-2{fill:#ffb0ca}.cls-11{fill:#debb7e}.cls-6{fill:none}.cls-10{fill:#fff5e3}</style></defs><g><circle class="cls-1" cx="37" cy="18.5" r="6.5"/><circle class="cls-2" cx="37" cy="18.5" r="4"/><circle class="cls-1" cx="11" cy="18.5" r="6.5"/><circle class="cls-2" cx="11" cy="18.5" r="4"/><path d="M38.5 22.9V16a14.5 14.5 0 0 0-29 0v6.9C6.69 24.82 5 27.29 5 30c0 6.08 8.5 11 19 11s19-4.92 19-11c0-2.71-1.7-5.18-4.5-7.1z" fill="#b89558"/><path d="M34.27 39.24A13.44 13.44 0 0 0 35 22.69V14a5.5 5.5 0 0 0-11 0 5.5 5.5 0 0 0-11 0v8.69a13.46 13.46 0 0 0 .72 16.55A29.55 29.55 0 0 0 24 41a29.54 29.54 0 0 0 10.27-1.76z" fill="#f7e5c6"/><g><path d="M24 5a14.5 14.5 0 0 1 14.5 14.5V16a14.5 14.5 0 0 0-29 0v3.5A14.5 14.5 0 0 1 24 5z" fill="#debb7e"/></g><path class="cls-6" d="M38.5 22.9V16a14.5 14.5 0 0 0-29 0v6.9C6.69 24.82 5 27.29 5 30c0 6.08 8.5 11 19 11s19-4.92 19-11c0-2.71-1.7-5.18-4.5-7.1z"/><ellipse cx="24" cy="45.5" rx="16" ry="1.5" fill="#45413c" opacity=".15"/><path class="cls-6" d="M34.27 39.24A13.44 13.44 0 0 0 35 22.69V14a5.5 5.5 0 0 0-11 0 5.5 5.5 0 0 0-11 0v8.69a13.46 13.46 0 0 0 .72 16.55A29.55 29.55 0 0 0 24 41a29.54 29.54 0 0 0 10.27-1.76z"/><path d="M27.68 27.15c0 1-1.65 2.56-3.68 2.56s-3.69-1.56-3.69-2.56S22 25.33 24 25.33s3.68.81 3.68 1.82z" stroke-miterlimit="10" fill="#947746" stroke="#45413c"/><path d="M30.5 34.55c0 .73-2.92 2.58-6.5 2.58s-6.5-1.85-6.5-2.58 2.91-.34 6.5-.34 6.5-.4 6.5.34z" fill="#ff866e" stroke-miterlimit="10" stroke="#45413c"/><g><path class="cls-10" d="M40 20.87l-1.55 3.58 5.31 8.23a4.7 4.7 0 0 1-7.91 5.09l-4.46-7c-3.61-2.2-6.1-6.17-8.43-10.68a1.32 1.32 0 0 1 2-1.65l4 3.91-3.5-5.35A1.52 1.52 0 1 1 28 15.34l3.49 5.41-2.74-6.65a1.6 1.6 0 0 1 2.88-1.38L36 20.6l.81-1.38A1.81 1.81 0 0 1 40 20.87z"/><path class="cls-11" d="M31.93 31.71l3.69.8v-3.53l3.57 1.32.81-3.48 3.78 5.86a4.7 4.7 0 0 1-7.89 5.1z"/></g><g><path class="cls-10" d="M8 20.87l1.55 3.58-5.31 8.23a4.7 4.7 0 1 0 7.91 5.09l4.46-7c3.61-2.2 6.1-6.17 8.43-10.68a1.32 1.32 0 0 0-2-1.65L19 22.4l3.54-5.4a1.55 1.55 0 0 0-.17-1.87 1.53 1.53 0 0 0-2.4.22l-3.49 5.41 2.76-6.65a1.6 1.6 0 0 0-2.88-1.38L12 20.6l-.81-1.38A1.81 1.81 0 0 0 8 20.87z"/><path class="cls-11" d="M16.06 31.71l-3.69.8v-3.53L8.78 30.3 8 26.82l-3.76 5.86a4.7 4.7 0 0 0 7.89 5.1z"/></g></g></svg>