<svg xmlns="http://www.w3.org/2000/svg" viewBox="0 0 48 48"><defs><style>.cls-1{fill:#b89558}.cls-1,.cls-11,.cls-12,.cls-2,.cls-6,.cls-8{stroke:#45413c;stroke-linecap:round;stroke-linejoin:round}.cls-2{fill:#ffb0ca}.cls-12{fill:#debb7e}.cls-6{fill:none}.cls-8{fill:#45413c}.cls-11{fill:#fff5e3}</style></defs><g><circle class="cls-1" cx="35.71" cy="17.81" r="5.85"/><circle class="cls-2" cx="36.09" cy="18.48" r="3.72"/><circle class="cls-1" cx="12.29" cy="17.81" r="5.85"/><circle class="cls-2" cx="11.91" cy="18.48" r="3.72"/><path d="M37.06 21.78v-6.22a13.06 13.06 0 0 0-26.12 0v6.22c-2.52 1.72-4 3.95-4 6.39 0 5.47 7.66 9.91 17.11 9.91s17.11-4.44 17.11-9.91c-.05-2.44-1.58-4.67-4.1-6.39z" fill="#b89558"/><path d="M33.25 36.5a12.12 12.12 0 0 0 .66-14.91v-7.83a5 5 0 1 0-9.91 0 5 5 0 1 0-9.91 0v7.83a12.12 12.12 0 0 0 .66 14.91A26.78 26.78 0 0 0 24 38.08a26.78 26.78 0 0 0 9.25-1.58z" fill="#f7e5c6"/><g><path d="M24 5.65a13.06 13.06 0 0 1 13.06 13.06v-3.15a13.06 13.06 0 0 0-26.12 0v3.15A13.06 13.06 0 0 1 24 5.65z" fill="#debb7e"/></g><path class="cls-6" d="M37.06 21.78v-6.22a13.06 13.06 0 0 0-26.12 0v6.22c-2.52 1.72-4 3.95-4 6.39 0 5.47 7.66 9.91 17.11 9.91s17.11-4.44 17.11-9.91c-.05-2.44-1.58-4.67-4.1-6.39z"/><ellipse cx="24" cy="45.5" rx="16" ry="1.5" opacity=".15" fill="#45413c"/><path class="cls-6" d="M33.25 36.5a12.12 12.12 0 0 0 .66-14.91v-7.83a5 5 0 1 0-9.91 0 5 5 0 1 0-9.91 0v7.83a12.12 12.12 0 0 0 .66 14.91A26.78 26.78 0 0 0 24 38.08a26.78 26.78 0 0 0 9.25-1.58z"/><path class="cls-8" d="M18.6 17.81a.9.9 0 1 0 .9-.9.9.9 0 0 0-.9.9z"/><path class="cls-8" d="M29.4 17.81a.9.9 0 1 1-.9-.9.9.9 0 0 1 .9.9z"/><path d="M27.32 25.07c0 .91-1.49 2.31-3.32 2.31s-3.32-1.4-3.32-2.31 1.49-1.63 3.32-1.63 3.32.73 3.32 1.63z" stroke-miterlimit="10" fill="#947746" stroke="#45413c"/><path d="M29.85 31.74c0 .66-2.62 2.33-5.85 2.33s-5.85-1.67-5.85-2.33 2.62-.3 5.85-.3 5.85-.36 5.85.3z" fill="#ff866e" stroke-miterlimit="10" stroke="#45413c"/><path class="cls-11" d="M44.77 28.68l.42-2.09a16.38 16.38 0 0 0 .07-6.24 16.39 16.39 0 0 0-2.86-6.75l-3.64-5a1.74 1.74 0 0 0-1.71-.69 2.12 2.12 0 0 0-1.5 3.05l2.55 5a19.42 19.42 0 0 0-.1 7.14l1.19 6.58z"/><path class="cls-12" d="M40.89 40.76a2.88 2.88 0 0 1-2.71-3l.57-10.1 2.8 1.29a1.11 1.11 0 0 0 .86 0L45 28l-1.09 10.18a2.88 2.88 0 0 1-3.02 2.58z"/><path class="cls-11" d="M3.23 28.68l-.42-2.09a16.38 16.38 0 0 1-.07-6.24A16.39 16.39 0 0 1 5.6 13.6l3.64-5A1.74 1.74 0 0 1 11 7.86a2.12 2.12 0 0 1 1.5 3.05l-2.55 5A19.42 19.42 0 0 1 10 23.1l-1.23 6.58z"/><path class="cls-12" d="M7.11 40.76a2.88 2.88 0 0 0 2.71-3l-.57-10.1-2.8 1.29a1.11 1.11 0 0 1-.86 0L3 28l1 10.21a2.88 2.88 0 0 0 3.11 2.55z"/></g></svg>