<svg xmlns="http://www.w3.org/2000/svg" viewBox="0 0 48 48"><defs><style>.cls-1{fill:#b89558}.cls-1,.cls-10,.cls-11,.cls-2,.cls-7,.cls-9{stroke:#45413c;stroke-linecap:round;stroke-linejoin:round}.cls-2{fill:#ffb0ca}.cls-10{fill:#debb7e}.cls-7{fill:none}.cls-11{fill:#45413c}.cls-9{fill:#fff5e3}</style></defs><g><circle class="cls-1" cx="37" cy="18.5" r="6.5"/><circle class="cls-2" cx="37" cy="18.5" r="4"/><circle class="cls-1" cx="11" cy="18.5" r="6.5"/><circle class="cls-2" cx="11" cy="18.5" r="4"/><path d="M38.5 22.9V16a14.5 14.5 0 0 0-29 0v6.9C6.7 24.82 5 27.29 5 30c0 6.08 8.51 11 19 11s19-4.92 19-11c0-2.71-1.7-5.18-4.5-7.1z" fill="#b89558"/><path d="M34.27 39.24A13.44 13.44 0 0 0 35 22.69V14a5.5 5.5 0 0 0-11 0 5.5 5.5 0 0 0-11 0v8.69a13.44 13.44 0 0 0 .73 16.55A29.49 29.49 0 0 0 24 41a29.49 29.49 0 0 0 10.27-1.76z" fill="#f7e5c6"/><path d="M34.27 39.24a13.54 13.54 0 0 0 2.39-4.05A27.81 27.81 0 0 1 24 38a27.81 27.81 0 0 1-12.66-2.81 13.54 13.54 0 0 0 2.39 4.05A29.86 29.86 0 0 0 24 41a29.86 29.86 0 0 0 10.27-1.76z" stroke-miterlimit="10" stroke="#45413c" fill="#b89558"/><g><path d="M24 5a14.5 14.5 0 0 1 14.5 14.5V16a14.5 14.5 0 0 0-29 0v3.5A14.5 14.5 0 0 1 24 5z" fill="#debb7e"/></g><path class="cls-7" d="M38.5 22.9V16a14.5 14.5 0 0 0-29 0v6.9C6.7 24.82 5 27.29 5 30c0 6.08 8.51 11 19 11s19-4.92 19-11c0-2.71-1.7-5.18-4.5-7.1z"/><ellipse cx="24" cy="45.5" rx="16" ry="1.5" opacity=".15" fill="#45413c"/><path class="cls-7" d="M34.27 39.24A13.44 13.44 0 0 0 35 22.69V14a5.5 5.5 0 0 0-11 0 5.5 5.5 0 0 0-11 0v8.69a13.44 13.44 0 0 0 .73 16.55A29.49 29.49 0 0 0 24 41a29.49 29.49 0 0 0 10.27-1.76z"/><g><path class="cls-9" d="M36 28.05l-1 3.76 6.4 7.41a4.7 4.7 0 1 1-7.12 6.14l-5.47-6.26c-3.87-1.67-6.9-5.26-9.83-9.4a1.34 1.34 0 0 1-.14-1.54 1.33 1.33 0 0 1 1.93-.38l4.47 3.32L21 26.23a1.52 1.52 0 1 1 2.31-2l4.2 4.87-3.65-6.2a1.6 1.6 0 0 1 2.66-1.77l5.38 7.21.61-1.48a1.81 1.81 0 0 1 2.37-1A1.79 1.79 0 0 1 36 28.05z"/><path class="cls-10" d="M29.48 39.91l3.77.27-.47-3.49 3.72.81.26-3.5 4.56 5.28a4.69 4.69 0 1 1-7.1 6.14z"/></g><g><path class="cls-9" d="M12 28.05l1 3.76-6.4 7.41a4.7 4.7 0 1 0 7.12 6.14l5.39-6.26c3.87-1.67 6.9-5.26 9.83-9.4a1.34 1.34 0 0 0 .14-1.54 1.33 1.33 0 0 0-1.93-.38l-4.39 3.32L27 26.23a1.52 1.52 0 1 0-2.31-2l-4.2 4.87 3.65-6.2a1.6 1.6 0 0 0-2.66-1.77l-5.38 7.21-.61-1.48a1.81 1.81 0 0 0-2.37-1A1.79 1.79 0 0 0 12 28.05z"/><path class="cls-10" d="M18.52 39.91l-3.77.27.47-3.49-3.72.81-.26-3.5-4.56 5.23a4.69 4.69 0 0 0 7.1 6.14z"/></g><path class="cls-11" d="M18 18.5a1 1 0 1 0 1-1 1 1 0 0 0-1 1z"/><path class="cls-11" d="M30 18.5a1 1 0 1 1-1-1 1 1 0 0 1 1 1z"/></g></svg>