<svg xmlns="http://www.w3.org/2000/svg" viewBox="0 0 48 48"><defs><style>.cls-6{fill:#45413c}.cls-4{fill:none}.cls-4,.cls-6{stroke:#45413c;stroke-linecap:round;stroke-linejoin:round}.cls-9{fill:#ffaa54}</style></defs><ellipse cx="24" cy="44.5" rx="12.5" ry="1.5" opacity=".15" fill="#45413c"/><path d="M24 4.51a14.5 14.5 0 0 0-3.63.49c-2.76.62-6.35 1.67-9.6 1A6.19 6.19 0 0 0 12 10.78a14.53 14.53 0 0 0-2.6 8.32v7.64h29.19V19.1A14.59 14.59 0 0 0 24 4.51z" fill="#724f3d"/><g><path d="M24 4.51a14.5 14.5 0 0 0-3.63.49c-2.76.62-6.35 1.67-9.6 1a6.55 6.55 0 0 0 1 4.47c3 .28 6.12-.61 8.6-1.17a14.59 14.59 0 0 1 18.22 14.14V19.1A14.59 14.59 0 0 0 24 4.51z" fill="#a86c4d"/></g><path class="cls-4" d="M24 4.51a14.5 14.5 0 0 0-3.63.49c-2.76.62-6.35 1.67-9.6 1A6.19 6.19 0 0 0 12 10.78a14.53 14.53 0 0 0-2.6 8.32v7.64h29.19V19.1A14.59 14.59 0 0 0 24 4.51z"/><path d="M40.15 25.63a2.7 2.7 0 0 0-2.07-2.29l-.87-.25A3 3 0 0 1 35 20.16v-3.07a2.77 2.77 0 0 0-2.08-2.68A23 23 0 0 1 24 16a23 23 0 0 1-8.9-1.61 2.77 2.77 0 0 0-2.1 2.7v3.07a3 3 0 0 1-2.23 2.93l-.87.25a2.63 2.63 0 0 0 .61 5.21h.17a13.45 13.45 0 0 0 26.6 0h.17a2.69 2.69 0 0 0 2.7-2.92z" fill="#ffe500" stroke="#45413c" stroke-linecap="round" stroke-linejoin="round"/><path class="cls-6" d="M15.93 25.31a1.15 1.15 0 1 0 1.14-1.15 1.15 1.15 0 0 0-1.14 1.15z"/><path class="cls-6" d="M32.07 25.31a1.15 1.15 0 1 1-1.14-1.15 1.15 1.15 0 0 1 1.14 1.15z"/><g><g><path d="M20.31 32.59a.61.61 0 0 0-.44.2.57.57 0 0 0-.13.47 4.32 4.32 0 0 0 8.52 0 .57.57 0 0 0-.13-.47.61.61 0 0 0-.44-.2z" fill="#ff6242"/><path d="M24 34.37a5.3 5.3 0 0 0-3.29 1 4.38 4.38 0 0 0 6.58 0 5.3 5.3 0 0 0-3.29-1z" fill="#ffa694"/></g></g><g><path class="cls-4" d="M20.31 32.59a.61.61 0 0 0-.44.2.57.57 0 0 0-.13.47 4.32 4.32 0 0 0 8.52 0 .57.57 0 0 0-.13-.47.61.61 0 0 0-.44-.2z"/></g><ellipse class="cls-9" cx="15.18" cy="30.19" rx="1.49" ry=".89"/><ellipse class="cls-9" cx="32.82" cy="30.19" rx="1.49" ry=".89"/></svg>