<svg xmlns="http://www.w3.org/2000/svg" viewBox="0 0 48 48"><defs><style>.cls-6{fill:#45413c}.cls-4{fill:none}.cls-4,.cls-6{stroke:#45413c;stroke-linecap:round;stroke-linejoin:round}.cls-9{fill:#ffaa54}</style></defs><ellipse cx="24" cy="44.5" rx="12.5" ry="1.5" opacity=".15" fill="#45413c"/><path d="M24 1.5a16.16 16.16 0 0 1 16.16 16.16v21.08A1.81 1.81 0 0 1 39 40.43a40.31 40.31 0 0 1-30 0 1.81 1.81 0 0 1-1.14-1.69V17.66A16.16 16.16 0 0 1 24 1.5z" fill="#724f3d"/><path d="M24 1.5A16.16 16.16 0 0 0 7.84 17.66v4.47a16.16 16.16 0 0 1 32.32 0v-4.47A16.16 16.16 0 0 0 24 1.5z" fill="#a86c4d"/><path class="cls-4" d="M24 1.5a16.16 16.16 0 0 1 16.16 16.16v21.08A1.81 1.81 0 0 1 39 40.43a40.31 40.31 0 0 1-30 0 1.81 1.81 0 0 1-1.14-1.69V17.66A16.16 16.16 0 0 1 24 1.5z"/><g><path d="M37.47 21A13 13 0 0 1 29 13.57l-.93-2.21a23.56 23.56 0 0 1-14.78 9.17l-2.8.51a2.7 2.7 0 0 0 0 5.39h.17a13.45 13.45 0 0 0 26.6 0h.17a2.7 2.7 0 0 0 0-5.39z" fill="#ffe500" stroke="#45413c" stroke-linecap="round" stroke-linejoin="round"/></g><g><path class="cls-6" d="M15.93 23.18A1.15 1.15 0 1 0 17.07 22a1.14 1.14 0 0 0-1.14 1.18z"/><path class="cls-6" d="M32.07 23.18A1.15 1.15 0 1 1 30.93 22a1.14 1.14 0 0 1 1.14 1.18z"/><g><g><path d="M20.31 30.47a.57.57 0 0 0-.44.2.54.54 0 0 0-.13.46 4.32 4.32 0 0 0 8.52 0 .54.54 0 0 0-.13-.46.57.57 0 0 0-.44-.2z" fill="#ff6242"/><path d="M24 32.24a5.37 5.37 0 0 0-3.29 1 4.36 4.36 0 0 0 6.58 0 5.37 5.37 0 0 0-3.29-1z" fill="#ffa694"/></g></g><g><path class="cls-4" d="M20.31 30.47a.57.57 0 0 0-.44.2.54.54 0 0 0-.13.46 4.32 4.32 0 0 0 8.52 0 .54.54 0 0 0-.13-.46.57.57 0 0 0-.44-.2z"/></g><ellipse class="cls-9" cx="15.18" cy="28.06" rx="1.49" ry=".89"/><ellipse class="cls-9" cx="32.82" cy="28.06" rx="1.49" ry=".89"/></g></svg>