<svg xmlns="http://www.w3.org/2000/svg" viewBox="0 0 48 48"><defs><style>.cls-5{fill:#45413c}.cls-4{fill:none}.cls-4,.cls-5{stroke:#45413c;stroke-linecap:round;stroke-linejoin:round}.cls-8{fill:#ffb59e}.cls-9{fill:#e0e0e0}.cls-10{fill:#fff}</style></defs><ellipse cx="24.06" cy="44.5" rx="13.5" ry="1.5" opacity=".15" fill="#45413c"/><path d="M40.88 24.25a3.27 3.27 0 0 0-2.8-3.25C36.71 13.87 30.93 8.51 24 8.51S11.29 13.87 9.92 21a3.27 3.27 0 0 0 0 6.47C11.29 34.63 17.07 40 24 40s12.71-5.37 14.08-12.51a3.28 3.28 0 0 0 2.8-3.24z" fill="#ffcebf"/><path d="M9.08 24.52a1.77 1.77 0 0 0 1.07-1.16 14.35 14.35 0 0 1 27.7 0 1.77 1.77 0 0 0 1.07 1.16 3.18 3.18 0 0 1 1.55 1.31 3.23 3.23 0 0 0 .41-1.58 3.27 3.27 0 0 0-2.8-3.25C36.71 13.87 30.93 8.51 24 8.51S11.29 13.87 9.92 21a3.27 3.27 0 0 0-2.8 3.23 3.23 3.23 0 0 0 .41 1.58 3.18 3.18 0 0 1 1.55-1.29z" fill="#ffdcd1"/><path class="cls-4" d="M40.88 24.25a3.27 3.27 0 0 0-2.8-3.25C36.71 13.87 30.93 8.51 24 8.51S11.29 13.87 9.92 21a3.27 3.27 0 0 0 0 6.47C11.29 34.63 17.07 40 24 40s12.71-5.37 14.08-12.51a3.28 3.28 0 0 0 2.8-3.24z"/><path class="cls-5" d="M15.55 23.4a1.2 1.2 0 1 0 1.2-1.2 1.2 1.2 0 0 0-1.2 1.2z"/><path class="cls-5" d="M32.45 23.4a1.2 1.2 0 1 1-1.2-1.2 1.2 1.2 0 0 1 1.2 1.2z"/><g><g><path d="M20.72 32a.51.51 0 0 0-.38.18.5.5 0 0 0-.12.41 3.83 3.83 0 0 0 7.56 0 .5.5 0 0 0-.12-.41.51.51 0 0 0-.38-.18z" fill="#ff6242"/><path d="M24 33.59a4.69 4.69 0 0 0-2.91.89 3.87 3.87 0 0 0 5.82 0 4.69 4.69 0 0 0-2.91-.89z" fill="#ffa694"/></g></g><g><path class="cls-4" d="M20.72 32a.51.51 0 0 0-.38.18.5.5 0 0 0-.12.41 3.83 3.83 0 0 0 7.56 0 .5.5 0 0 0-.12-.41.51.51 0 0 0-.38-.18z"/></g><ellipse class="cls-8" cx="14.76" cy="28.51" rx="1.55" ry=".93"/><ellipse class="cls-8" cx="33.24" cy="28.51" rx="1.55" ry=".93"/><path class="cls-9" d="M29.12 32H18.88a.4.4 0 0 1-.39-.49l.08-.32a3.07 3.07 0 0 1 3-2.38h4.86a3.07 3.07 0 0 1 3 2.38l.08.32a.4.4 0 0 1-.39.49z"/><path class="cls-10" d="M18.88 32a3.06 3.06 0 0 1 2.69-1.59h4.86A3.06 3.06 0 0 1 29.12 32a.4.4 0 0 0 .39-.49l-.08-.32a3.07 3.07 0 0 0-3-2.38h-4.86a3.07 3.07 0 0 0-3 2.38l-.08.32a.4.4 0 0 0 .39.49z"/><path class="cls-4" d="M29.12 32H18.88a.4.4 0 0 1-.39-.49l.08-.32a3.07 3.07 0 0 1 3-2.38h4.86a3.07 3.07 0 0 1 3 2.38l.08.32a.4.4 0 0 1-.39.49z"/><path class="cls-9" d="M38.08 21a10 10 0 0 0 0-5.6c-1-2.43-3.74-4.63-5.63-3.91s0 4.35 2.34 5.66A8.59 8.59 0 0 1 38.08 21z"/><path class="cls-9" d="M9.92 21a10 10 0 0 1 0-5.6c.95-2.43 3.74-4.63 5.63-3.91s0 4.35-2.34 5.66A8.59 8.59 0 0 0 9.92 21z"/><path class="cls-10" d="M32.45 13.9c1.89-.72 4.67 1.47 5.63 3.91a6.74 6.74 0 0 1 .35 1.39 8.33 8.33 0 0 0-.35-3.78c-1-2.43-3.74-4.63-5.63-3.91-1 .37-.94 1.47-.4 2.65a1.11 1.11 0 0 1 .4-.26z"/><path class="cls-10" d="M9.92 17.81c.95-2.44 3.74-4.63 5.63-3.91a1.11 1.11 0 0 1 .4.26c.54-1.18.55-2.28-.4-2.65-1.89-.72-4.68 1.48-5.63 3.91a8.19 8.19 0 0 0-.35 3.78 6.74 6.74 0 0 1 .35-1.39z"/><path class="cls-4" d="M38.08 21a10 10 0 0 0 0-5.6c-1-2.43-3.74-4.63-5.63-3.91s0 4.35 2.34 5.66A8.59 8.59 0 0 1 38.08 21z"/><path class="cls-4" d="M9.92 21a10 10 0 0 1 0-5.6c.95-2.43 3.74-4.63 5.63-3.91s0 4.35-2.34 5.66A8.59 8.59 0 0 0 9.92 21z"/><path class="cls-4" d="M19.63 18.26a14.87 14.87 0 0 1 4.37-.55 14.87 14.87 0 0 1 4.37.55"/><path class="cls-4" d="M20.21 16a15.62 15.62 0 0 1 3.79-.4 15.62 15.62 0 0 1 3.79.39"/></svg>