<svg xmlns="http://www.w3.org/2000/svg" viewBox="0 0 48 48"><defs><style>.cls-12{fill:#45413c}.cls-4{fill:none}.cls-11,.cls-12,.cls-15,.cls-4{stroke:#45413c;stroke-linecap:round;stroke-linejoin:round}.cls-11,.cls-7{fill:#ffcebf}.cls-8{fill:#ffb59e}.cls-15{fill:#87898c}.cls-16{fill:#ffdcd1}</style></defs><ellipse cx="24" cy="45.5" rx="15" ry="1.5" opacity=".15" fill="#45413c"/><path d="M24 31.22A11.88 11.88 0 0 1 35.88 43.1V45H12.12v-1.9A11.88 11.88 0 0 1 24 31.22z" fill="#fff"/><path d="M24 31.22A11.88 11.88 0 0 0 12.12 43.1V45h.05A11.87 11.87 0 0 1 24 34a11.88 11.88 0 0 1 11.84 11v-1.9A11.88 11.88 0 0 0 24 31.22z" fill="#e0e0e0"/><path class="cls-4" d="M24 31.22A11.88 11.88 0 0 1 35.88 43.1V45H12.12v-1.9A11.88 11.88 0 0 1 24 31.22z"/><path d="M20.25 45l-2-5.29 1.21-1.6-1.11-.53a13.06 13.06 0 0 1 .06-3.75C18.6 32.34 19.29 30 24 30s5.41 2.3 5.63 3.79a13 13 0 0 1 .06 3.75l-1.11.53 1.21 1.6-2 5.29z" fill="#f0f0f0" stroke="#45413c" stroke-linecap="round" stroke-linejoin="round"/><path d="M26.54 31.5a11.66 11.66 0 0 0-5.08 0v1.07c0 7.84.16 12.43.16 12.43h4.76s.16-4.59.16-12.43z" fill="#00dfeb" stroke="#45413c" stroke-linecap="round" stroke-linejoin="round"/><path class="cls-7" d="M24 35.86c-1.41 0-2.54-1.89-2.54-3.29v-2.85A2.54 2.54 0 0 1 24 27.17a2.54 2.54 0 0 1 2.54 2.55v2.85c0 1.43-1.13 3.29-2.54 3.29z"/><path class="cls-8" d="M24 27.69a2.54 2.54 0 0 0-2.54 2.55v.59a2.54 2.54 0 1 0 5.08 0v-.59A2.54 2.54 0 0 0 24 27.69z"/><path class="cls-4" d="M24 35.86c-1.41 0-2.54-1.89-2.54-3.29v-2.85A2.54 2.54 0 0 1 24 27.17a2.54 2.54 0 0 1 2.54 2.55v2.85c0 1.43-1.13 3.29-2.54 3.29z"/><path class="cls-4" d="M17.06 45v-2.41"/><path class="cls-4" d="M30.94 45v-2.41"/><path d="M24 6.91a9.83 9.83 0 0 0-2.44.31c-1.86.42-4.28 1.12-6.47.7a4.2 4.2 0 0 0 .84 3.21 9.81 9.81 0 0 0-1.75 5.6v5.14h19.64v-5.14A9.82 9.82 0 0 0 24 6.91z" fill="#a86c4d"/><g><path d="M24 6.91a9.83 9.83 0 0 0-2.44.31c-1.86.42-4.28 1.12-6.47.7a4.47 4.47 0 0 0 .68 3 19.4 19.4 0 0 0 5.79-.79 9.81 9.81 0 0 1 12.26 9.51v-2.91A9.82 9.82 0 0 0 24 6.91z" fill="#de926a"/></g><path class="cls-4" d="M24 6.91a9.83 9.83 0 0 0-2.44.31c-1.86.42-4.28 1.12-6.47.7a4.2 4.2 0 0 0 .84 3.21 9.81 9.81 0 0 0-1.75 5.6v5.14h19.64v-5.14A9.82 9.82 0 0 0 24 6.91z"/><path class="cls-11" d="M34.87 21.12a1.83 1.83 0 0 0-1.39-1.54l-.59-.16a2.06 2.06 0 0 1-1.5-2v-2.04A1.88 1.88 0 0 0 30 13.57a15.34 15.34 0 0 1-6 1.09 15.34 15.34 0 0 1-6-1.09 1.88 1.88 0 0 0-1.4 1.81v2.06a2.06 2.06 0 0 1-1.5 2l-.59.16a1.83 1.83 0 0 0-1.39 1.54 1.81 1.81 0 0 0 1.81 2h.11a9 9 0 0 0 17.9 0h.12a1.81 1.81 0 0 0 1.81-2.02z"/><path class="cls-12" d="M18.57 20.91a.77.77 0 1 0 .77-.77.76.76 0 0 0-.77.77z"/><path class="cls-12" d="M29.43 20.91a.77.77 0 1 1-.77-.77.76.76 0 0 1 .77.77z"/><g><g><g><g><g><g><g><path d="M21.16 25.6a.44.44 0 0 0-.33.16.42.42 0 0 0-.1.35 3.32 3.32 0 0 0 6.54 0 .42.42 0 0 0-.1-.35.42.42 0 0 0-.33-.16z" fill="#ff6242"/><path d="M24 27a4 4 0 0 0-2.52.77 3.36 3.36 0 0 0 5 0A4 4 0 0 0 24 27z" fill="#ffa694"/></g></g></g></g></g></g></g><g><path class="cls-4" d="M21.16 25.6a.44.44 0 0 0-.33.16.42.42 0 0 0-.1.35 3.32 3.32 0 0 0 6.54 0 .42.42 0 0 0-.1-.35.42.42 0 0 0-.33-.16z"/></g><ellipse class="cls-8" cx="18.06" cy="24.19" rx="1" ry=".6"/><ellipse class="cls-8" cx="29.94" cy="24.19" rx="1" ry=".6"/><path class="cls-4" d="M34.69 22.07c1.43 0 1.88 1.1.6 7.59-1.58 8-4.73 8.67-11.29 8.67s-9.71-.65-11.29-8.67c-1.28-6.49-.83-7.59.6-7.59"/><path class="cls-15" d="M13.18 21.09h1.84v1.96h-1.84z"/><path class="cls-15" transform="rotate(-180 33.905 22.07)" d="M32.99 21.09h1.84v1.96h-1.84z"/><path class="cls-15" d="M26.31 37.39h-4.62a.5.5 0 0 0-.5.5v.88a.5.5 0 0 0 .5.5h1.39V45h1.84v-5.73h1.39a.5.5 0 0 0 .5-.5v-.88a.5.5 0 0 0-.5-.5z"/><path class="cls-7" d="M37.34 38.08a1.54 1.54 0 0 0-1.53-1.35.79.79 0 0 0-.79.79v5.14A2.34 2.34 0 0 0 37.36 45h1.69v-6.92z"/><path class="cls-16" d="M35.81 36.73a.79.79 0 0 0-.79.79v1.92a.79.79 0 0 1 .79-.79 1.55 1.55 0 0 1 1.55 1.54v-1.92a1.55 1.55 0 0 0-1.55-1.54z"/><path class="cls-4" d="M37.34 38.08a1.54 1.54 0 0 0-1.53-1.35.79.79 0 0 0-.79.79v5.14A2.34 2.34 0 0 0 37.36 45h1.69v-6.92z"/><rect class="cls-7" x="36.88" y="38.08" width="4.33" height="2.31" rx="1.15" ry="1.15"/><path class="cls-16" d="M38 39.24h2a1.12 1.12 0 0 1 1 .57 1.13 1.13 0 0 0 .18-.57 1.16 1.16 0 0 0-1.16-1.16H38a1.16 1.16 0 0 0-1.16 1.16 1.13 1.13 0 0 0 .18.57 1.12 1.12 0 0 1 .98-.57z"/><rect class="cls-4" x="36.88" y="38.08" width="4.33" height="2.31" rx="1.15" ry="1.15"/><rect class="cls-11" x="36.88" y="40.39" width="4.33" height="2.31" rx="1.15" ry="1.15"/><rect class="cls-11" x="36.88" y="42.69" width="4.33" height="2.31" rx="1.15" ry="1.15"/><circle cx="38.32" cy="35" r="2.87" fill="#c0dceb" stroke="#45413c" stroke-linecap="round" stroke-linejoin="round"/><circle cx="38.32" cy="35" r="1.44" fill="#e8f4fa"/></svg>