<svg xmlns="http://www.w3.org/2000/svg" viewBox="0 0 48 48"><defs><style>.cls-3{fill:none}.cls-11,.cls-12,.cls-18,.cls-3,.cls-7{stroke:#45413c;stroke-linecap:round;stroke-linejoin:round}.cls-12{fill:#45413c}.cls-7{fill:#f0f0f0}.cls-11,.cls-9{fill:#ffcebf}.cls-10{fill:#ffb59e}.cls-15{fill:#ffdcd1}.cls-18{fill:#ff6196}</style></defs><path d="M16.38 6.32a10.88 10.88 0 0 1 10.88 10.87v14.19a1.24 1.24 0 0 1-.77 1.14 27.09 27.09 0 0 1-20.22 0 1.23 1.23 0 0 1-.77-1.14V17.19A10.88 10.88 0 0 1 16.38 6.32z" fill="#a86c4d"/><path d="M16.38 6.32A10.88 10.88 0 0 0 5.5 17.19v3a10.88 10.88 0 0 1 21.76 0v-3A10.88 10.88 0 0 0 16.38 6.32z" fill="#de926a"/><path class="cls-3" d="M16.38 6.32a10.88 10.88 0 0 1 10.88 10.87v14.19a1.24 1.24 0 0 1-.77 1.14 27.09 27.09 0 0 1-20.22 0 1.23 1.23 0 0 1-.77-1.14V17.19A10.88 10.88 0 0 1 16.38 6.32z"/><ellipse cx="16.38" cy="45.5" rx="15" ry="1.5" opacity=".15" fill="#45413c"/><path d="M16.38 31.22A11.88 11.88 0 0 1 28.26 43.1V45H4.5v-1.9a11.88 11.88 0 0 1 11.88-11.88z" fill="#fff"/><path d="M16.38 31.22A11.88 11.88 0 0 0 4.5 43.1V45a11.88 11.88 0 0 1 11.88-11 11.87 11.87 0 0 1 11.83 11h.05v-1.9a11.88 11.88 0 0 0-11.88-11.88z" fill="#e0e0e0"/><path class="cls-3" d="M16.38 31.22A11.88 11.88 0 0 1 28.26 43.1V45H4.5v-1.9a11.88 11.88 0 0 1 11.88-11.88z"/><path class="cls-7" d="M12.63 45l-2-5.29 1.2-1.6-1.1-.53a13.25 13.25 0 0 1 .05-3.75c.22-1.49.89-3.83 5.6-3.83s5.41 2.3 5.63 3.79a13 13 0 0 1 .06 3.75l-1.07.57 1.21 1.6-2 5.29z"/><path d="M18.92 31.5a11.71 11.71 0 0 0-5.09 0v1.07A46.11 46.11 0 0 0 15.25 45h2.25a46.11 46.11 0 0 0 1.42-12.43z" fill="#00dfeb" stroke="#45413c" stroke-linecap="round" stroke-linejoin="round"/><path class="cls-9" d="M16.38 35.86c-1.41 0-2.55-1.89-2.55-3.29v-2.85a2.55 2.55 0 0 1 2.55-2.55 2.55 2.55 0 0 1 2.54 2.55v2.85c0 1.43-1.14 3.29-2.54 3.29z"/><path class="cls-10" d="M16.38 27.69a2.55 2.55 0 0 0-2.55 2.55v.59a2.55 2.55 0 1 0 5.09 0v-.59a2.55 2.55 0 0 0-2.54-2.55z"/><path class="cls-3" d="M16.38 35.86c-1.41 0-2.55-1.89-2.55-3.29v-2.85a2.55 2.55 0 0 1 2.55-2.55 2.55 2.55 0 0 1 2.54 2.55v2.85c0 1.43-1.14 3.29-2.54 3.29z"/><path class="cls-3" d="M9.44 45v-2.41"/><path class="cls-3" d="M23.32 45v-2.41"/><g><path class="cls-11" d="M25.44 19.47a8.77 8.77 0 0 1-5.67-5L19.15 13a15.92 15.92 0 0 1-9.95 6.13l-1.89.34a1.81 1.81 0 0 0 0 3.62h.11a9.05 9.05 0 0 0 17.91 0h.11a1.81 1.81 0 1 0 0-3.62z"/></g><path class="cls-12" d="M10.94 20.91a.78.78 0 1 0 .78-.77.77.77 0 0 0-.78.77z"/><path class="cls-12" d="M21.81 20.91a.77.77 0 1 1-.77-.77.76.76 0 0 1 .77.77z"/><g><g><g><g><g><g><g><path d="M13.54 25.6a.42.42 0 0 0-.33.16.46.46 0 0 0-.11.35 3.32 3.32 0 0 0 6.55 0 .45.45 0 0 0-.1-.35.44.44 0 0 0-.34-.16z" fill="#ff6242"/><path d="M16.38 27a4 4 0 0 0-2.52.77 3.36 3.36 0 0 0 5 0 4 4 0 0 0-2.48-.77z" fill="#ffa694"/></g></g></g></g></g></g></g><g><path class="cls-3" d="M13.54 25.6a.42.42 0 0 0-.33.16.46.46 0 0 0-.11.35 3.32 3.32 0 0 0 6.55 0 .45.45 0 0 0-.1-.35.44.44 0 0 0-.34-.16z"/></g><ellipse class="cls-10" cx="10.44" cy="24.19" rx="1" ry=".6"/><ellipse class="cls-10" cx="22.32" cy="24.19" rx="1" ry=".6"/><path class="cls-9" d="M24.42 36.26l-.36 3.67a3.93 3.93 0 0 0 2.31 4l1.8.83a3.08 3.08 0 0 0 4.23-1.86l1.23-3-6.7-2.68-.47 1.19.08-1.09A1.45 1.45 0 0 0 25 35.67a.66.66 0 0 0-.58.59z"/><g><path class="cls-15" d="M24.42 37.67a.64.64 0 0 1 .62-.58 1.43 1.43 0 0 1 1.43 1l.07-.87A1.45 1.45 0 0 0 25 35.67a.66.66 0 0 0-.62.59l-.36 3.67a3.66 3.66 0 0 0 .05 1z"/></g><path class="cls-3" d="M24.42 36.26l-.36 3.67a3.93 3.93 0 0 0 2.31 4l1.8.83a3.08 3.08 0 0 0 4.23-1.86l1.23-3-6.7-2.68-.47 1.19.08-1.09A1.45 1.45 0 0 0 25 35.67a.66.66 0 0 0-.58.59z"/><g><path transform="rotate(21.77 31.746 33.288)" fill="#80ddff" d="M30.18 28.44h3.13v9.68h-3.13z"/><path fill="#ff6196" d="M30.77 31.52L28.5 37.2l2.91 1.16 2.73-6.84h-3.37z"/><path class="cls-3" transform="rotate(21.77 31.746 33.288)" d="M30.18 28.44h3.13v9.68h-3.13z"/><path class="cls-7" transform="rotate(21.77 34.1 27.443)" d="M33.16 25.97H35v2.92h-1.84z"/><path class="cls-3" d="M34.63 26.07l1.43-3.59"/><path class="cls-7" transform="rotate(21.77 29.164 39.77)" d="M28.24 37.62h1.84v4.27h-1.84z"/><path class="cls-3" d="M26.92 36.57l6.07 2.42"/><path class="cls-3" d="M26.67 41.06l3.4 1.36"/></g><path class="cls-9" d="M27.68 35a1.13 1.13 0 0 1 1.13 1.13V38a1.12 1.12 0 0 1-1.12 1.12A1.12 1.12 0 0 1 26.55 38v-1.85A1.12 1.12 0 0 1 27.68 35z" transform="rotate(8.75 27.684 37.06)"/><path class="cls-15" d="M26.71 37.52a1.12 1.12 0 0 1 1.29-.94 1.1 1.1 0 0 1 .81.6l.13-.85a1.12 1.12 0 0 0-2.23-.33l-.28 1.85a1.07 1.07 0 0 0 .13.68z"/><path class="cls-3" d="M27.68 35a1.13 1.13 0 0 1 1.13 1.13V38a1.12 1.12 0 0 1-1.12 1.12A1.12 1.12 0 0 1 26.55 38v-1.85A1.12 1.12 0 0 1 27.68 35z" transform="rotate(8.75 27.684 37.06)"/><rect class="cls-11" x="30.88" y="35.63" width="2.13" height="4.16" rx="1.06" ry="1.06" transform="rotate(49.6 31.948 37.71)"/><rect class="cls-11" x="31.7" y="37.73" width="2.13" height="4.16" rx="1.06" ry="1.06" transform="rotate(49.6 32.763 39.816)"/><path class="cls-18" d="M38.84 18.81a4.44 4.44 0 0 1 2.43-2.24c1.73-.47 3.07 1.16 1.79 2.14-1.51 1.16-2.31-.63-4.22.1z"/><path class="cls-18" d="M36.33 20a3.73 3.73 0 0 0 .67-2.71c-.38-1.46-2.13-1.77-2.32-.41-.25 1.59 1.39 1.42 1.65 3.12z"/></svg>