<svg xmlns="http://www.w3.org/2000/svg" viewBox="0 0 48 48"><defs><style>.cls-5{fill:#656769}.cls-11,.cls-2{stroke:#45413c;stroke-linecap:round;stroke-linejoin:round}.cls-2{fill:none}.cls-6{fill:#525252}.cls-8{fill:#ffb59e}.cls-11{fill:#45413c}</style></defs><path d="M23.55 17.33l-15-7.64a.5.5 0 0 1 0-.89l15-7.69a1 1 0 0 1 .92 0l15 7.69a.5.5 0 0 1 0 .89l-15 7.64a1 1 0 0 1-.92 0z" stroke="#45413c" stroke-linecap="round" stroke-linejoin="round" fill="#656769"/><path class="cls-2" d="M8.31 9.24v7.95"/><path d="M9.27 17.18a1 1 0 0 0-1-1.07 1 1 0 0 0-1 1.07l-.19 3.69h2.38z" fill="#ffe500" stroke="#45413c" stroke-linecap="round" stroke-linejoin="round"/><path d="M24 14.81c-5 0-9.65 1-10.88 2.38v14.19a1.24 1.24 0 0 0 .77 1.14 27.09 27.09 0 0 0 20.22 0 1.24 1.24 0 0 0 .77-1.14V17.19C33.65 15.86 29 14.81 24 14.81z" fill="#a86c4d" stroke="#45413c" stroke-linecap="round" stroke-linejoin="round"/><path class="cls-5" d="M31.54 34.09L24 31.22l-7.54 2.87a6.76 6.76 0 0 0-4.35 6.31V45h23.78v-4.6a6.76 6.76 0 0 0-4.35-6.31z"/><path class="cls-6" d="M31.54 34.09L24 31.22l-7.54 2.87a6.76 6.76 0 0 0-4.35 6.31v3a6.76 6.76 0 0 1 4.35-6.31L24 34.21l7.54 2.87a6.76 6.76 0 0 1 4.35 6.31v-3a6.76 6.76 0 0 0-4.35-6.3z"/><path class="cls-2" d="M31.54 34.09L24 31.22l-7.54 2.87a6.76 6.76 0 0 0-4.35 6.31V45h23.78v-4.6a6.76 6.76 0 0 0-4.35-6.31z"/><path d="M24 35.11s-2.54-1.11-2.54-2.54v-2.85A2.54 2.54 0 0 1 24 27.17a2.54 2.54 0 0 1 2.54 2.55v2.85c0 1.43-2.54 2.54-2.54 2.54z" fill="#ffcebf"/><path class="cls-8" d="M24 27.17a2.54 2.54 0 0 0-2.54 2.54v.6a2.54 2.54 0 0 0 5.08 0v-.59A2.54 2.54 0 0 0 24 27.17z"/><path class="cls-2" d="M24 35.11s-2.54-1.11-2.54-2.54v-2.85A2.54 2.54 0 0 1 24 27.17a2.54 2.54 0 0 1 2.54 2.55v2.85c0 1.43-2.54 2.54-2.54 2.54z"/><path class="cls-2" d="M13.45 36.35L17.06 45"/><path class="cls-2" d="M34.55 36.35L30.94 45"/><path class="cls-2" d="M20.54 40.48l.73 4.52"/><path class="cls-2" d="M27.46 40.48L26.73 45"/><ellipse cx="24" cy="45.5" rx="15" ry="1.5" opacity=".15" fill="#45413c"/><g><path d="M33.07 19.47a8.77 8.77 0 0 1-5.68-5L26.77 13a15.92 15.92 0 0 1-9.95 6.18l-1.88.34a1.81 1.81 0 1 0 0 3.62h.11a9 9 0 0 0 17.9 0h.12a1.81 1.81 0 1 0 0-3.62z" fill="#ffcebf" stroke="#45413c" stroke-linecap="round" stroke-linejoin="round"/></g><path class="cls-11" d="M18.57 20.91a.77.77 0 1 0 .77-.77.76.76 0 0 0-.77.77z"/><path class="cls-11" d="M29.43 20.91a.77.77 0 1 1-.77-.77.76.76 0 0 1 .77.77z"/><g><g><g><path d="M21.16 25.6a.44.44 0 0 0-.33.16.42.42 0 0 0-.1.35 3.32 3.32 0 0 0 6.54 0 .42.42 0 0 0-.1-.35.42.42 0 0 0-.33-.16z" fill="#ff6242"/><path d="M24 27a4 4 0 0 0-2.52.77 3.36 3.36 0 0 0 5 0A4 4 0 0 0 24 27z" fill="#ffa694"/></g></g></g><g><path class="cls-2" d="M21.16 25.6a.44.44 0 0 0-.33.16.42.42 0 0 0-.1.35 3.32 3.32 0 0 0 6.54 0 .42.42 0 0 0-.1-.35.42.42 0 0 0-.33-.16z"/></g><ellipse class="cls-8" cx="18.06" cy="24.19" rx="1" ry=".6"/><ellipse class="cls-8" cx="29.94" cy="24.19" rx="1" ry=".6"/><path class="cls-5" d="M33.85 9c-.27-1.29-4.12-2.2-9.85-2.2s-9.58.91-9.85 2.2a74.6 74.6 0 0 0-1 8.16c1.2-1.3 5.85-2.35 10.85-2.35s9.65 1 10.88 2.38A74.6 74.6 0 0 0 33.85 9z"/><path class="cls-6" d="M24 9.52a30.74 30.74 0 0 1 10.2 1.61L33.85 9c-.27-1.29-4.12-2.2-9.85-2.2s-9.58.91-9.85 2.2c0 0-.16.88-.35 2.1A30.74 30.74 0 0 1 24 9.52z"/><path class="cls-2" d="M33.85 9c-.27-1.29-4.12-2.2-9.85-2.2s-9.58.91-9.85 2.2a74.6 74.6 0 0 0-1 8.16c1.2-1.3 5.85-2.35 10.85-2.35s9.65 1 10.88 2.38A74.6 74.6 0 0 0 33.85 9z"/></svg>