<svg xmlns="http://www.w3.org/2000/svg" viewBox="0 0 48 48"><defs><style>.cls-12{fill:#45413c}.cls-4{fill:none}.cls-12,.cls-4{stroke:#45413c;stroke-linecap:round;stroke-linejoin:round}.cls-6{fill:#009fd9}.cls-8{fill:#ffe500}.cls-15{fill:#ffaa54}.cls-16{fill:#debb7e}.cls-17{fill:#f0d5a8}.cls-20{fill:#fff48c}</style></defs><ellipse cx="24" cy="45.5" rx="15" ry="1.5" opacity=".15" fill="#45413c"/><path d="M24 31.22A11.88 11.88 0 0 1 35.88 43.1V45H12.12v-1.9A11.88 11.88 0 0 1 24 31.22z" fill="#6dd627"/><path d="M24 31.22A11.88 11.88 0 0 0 12.12 43.1V45h.15a11.87 11.87 0 0 1 23.46 0h.15v-1.9A11.88 11.88 0 0 0 24 31.22z" fill="#46b000"/><path class="cls-4" d="M24 31.22A11.88 11.88 0 0 1 35.88 43.1V45H12.12v-1.9A11.88 11.88 0 0 1 24 31.22z"/><path d="M29.94 32.81v6.36a1 1 0 0 1-1 1h-9.88a1 1 0 0 1-1-1v-6.36a12.41 12.41 0 0 0-2.19 1.62V45h16.26V34.43a12.41 12.41 0 0 0-2.19-1.62z" fill="#00b8f0"/><path class="cls-6" d="M29.94 36.52a12 12 0 0 1 2.19 1.63v-3.72a12.41 12.41 0 0 0-2.19-1.62zM18.06 36.52v-3.71a12.41 12.41 0 0 0-2.19 1.62v3.72a12 12 0 0 1 2.19-1.63z"/><path class="cls-4" d="M29.94 32.81v6.36a1 1 0 0 1-1 1h-9.88a1 1 0 0 1-1-1v-6.36a12.41 12.41 0 0 0-2.19 1.62V45h16.26V34.43a12.41 12.41 0 0 0-2.19-1.62z"/><path d="M24 30s-5-.06-5 2.79a10 10 0 0 0 2.16 5.77L24 36.13l2.89 2.43a10 10 0 0 0 2.16-5.77C29.05 29.94 24 30 24 30z" stroke="#45413c" stroke-linecap="round" stroke-linejoin="round" fill="#46b000"/><path class="cls-8" d="M24 36.13l-2.25-2.25a1 1 0 0 1-.29-.71v-3A2.54 2.54 0 0 1 24 27.63a2.54 2.54 0 0 1 2.54 2.55v3a1 1 0 0 1-.29.71z"/><path d="M24 27.63a2.54 2.54 0 0 0-2.54 2.55v.59a2.54 2.54 0 0 0 5.08 0v-.59A2.54 2.54 0 0 0 24 27.63z" fill="#ebcb00"/><path class="cls-4" d="M24 36.13l-2.25-2.25a1 1 0 0 1-.29-.71v-3A2.54 2.54 0 0 1 24 27.63a2.54 2.54 0 0 1 2.54 2.55v3a1 1 0 0 1-.29.71z"/><path class="cls-4" d="M24 36.13v4.04"/><path d="M24 6.91a9.82 9.82 0 0 1 9.82 9.82v5.14H14.18v-5.14A9.82 9.82 0 0 1 24 6.91z" fill="#724f3d" stroke="#45413c" stroke-linecap="round" stroke-linejoin="round"/><path d="M34.87 21.12a1.83 1.83 0 0 0-1.39-1.54l-.59-.16a2.06 2.06 0 0 1-1.5-2v-2.04A1.88 1.88 0 0 0 30 13.57a15.34 15.34 0 0 1-6 1.09 15.34 15.34 0 0 1-6-1.09 1.88 1.88 0 0 0-1.4 1.81v2.06a2.06 2.06 0 0 1-1.5 2l-.59.16a1.83 1.83 0 0 0-1.39 1.54 1.81 1.81 0 0 0 1.81 2h.11a9 9 0 0 0 17.9 0h.11a1.81 1.81 0 0 0 1.82-2.02z" fill="#ffe500" stroke="#45413c" stroke-linecap="round" stroke-linejoin="round"/><path class="cls-12" d="M18.57 20.91a.77.77 0 1 0 .77-.77.76.76 0 0 0-.77.77z"/><path class="cls-12" d="M29.43 20.91a.77.77 0 1 1-.77-.77.76.76 0 0 1 .77.77z"/><g><g><g><g><g><g><g><path d="M21.16 25.6a.42.42 0 0 0-.33.16.42.42 0 0 0-.1.35 3.32 3.32 0 0 0 6.54 0 .42.42 0 0 0-.1-.35.44.44 0 0 0-.33-.16z" fill="#ff6242"/><path d="M24 27a4 4 0 0 0-2.52.77 3.36 3.36 0 0 0 5 0A4 4 0 0 0 24 27z" fill="#ffa694"/></g></g></g></g></g></g></g><g><path class="cls-4" d="M21.16 25.6a.42.42 0 0 0-.33.16.42.42 0 0 0-.1.35 3.32 3.32 0 0 0 6.54 0 .42.42 0 0 0-.1-.35.44.44 0 0 0-.33-.16z"/></g><ellipse class="cls-15" cx="18.06" cy="24.19" rx="1" ry=".6"/><ellipse class="cls-15" cx="29.94" cy="24.19" rx="1" ry=".6"/><path class="cls-16" d="M24 4.36a9.82 9.82 0 0 1 9.82 9.82v.19H14.18v-.19A9.82 9.82 0 0 1 24 4.36z"/><path class="cls-17" d="M24 4.36a9.83 9.83 0 0 0-9.82 9.83v.18h.3A9.81 9.81 0 0 1 24 6.91a9.81 9.81 0 0 1 9.52 7.46h.3v-.18A9.83 9.83 0 0 0 24 4.36z"/><path class="cls-4" d="M24 4.36a9.82 9.82 0 0 1 9.82 9.82v.19H14.18v-.19A9.82 9.82 0 0 1 24 4.36z"/><path class="cls-16" d="M24 9.37c-10 0-18.13 3.14-18.13 7 0 2.33 2.94 4.38 7.43 5.66a1.77 1.77 0 0 1 .88-2.39v-1.52c0-1.91 4.4-3.46 9.82-3.46s9.82 1.55 9.82 3.46v1.61a1.75 1.75 0 0 1 1 1.39 1.8 1.8 0 0 1-.17.93c4.49-1.28 7.43-3.33 7.43-5.66C42.13 12.51 34 9.37 24 9.37z"/><path class="cls-17" d="M24 9.37c-10 0-18.13 3.14-18.13 7 0 1.89 1.93 3.59 5.05 4.85a3.4 3.4 0 0 1-1.63-2.6c0-3.15 6.59-5.7 14.71-5.7s14.71 2.55 14.71 5.7a3.4 3.4 0 0 1-1.63 2.6c3.12-1.26 5.05-3 5.05-4.85 0-3.86-8.13-7-18.13-7z"/><path class="cls-4" d="M24 9.37c-10 0-18.13 3.14-18.13 7 0 2.33 2.94 4.38 7.43 5.66a1.77 1.77 0 0 1 .88-2.39v-1.52c0-1.91 4.4-3.46 9.82-3.46s9.82 1.55 9.82 3.46v1.61a1.75 1.75 0 0 1 1 1.39 1.8 1.8 0 0 1-.17.93c4.49-1.28 7.43-3.33 7.43-5.66C42.13 12.51 34 9.37 24 9.37z"/><path fill="#bf8256" stroke="#45413c" stroke-linecap="round" stroke-linejoin="round" d="M38.09 34.21h2.33V45h-2.33z"/><path d="M43.93 18.37a.93.93 0 0 0-.93.93v7.82a1.82 1.82 0 0 1-1.81 1.82h-1V19.3a.93.93 0 1 0-1.86 0v9.64h-1a1.82 1.82 0 0 1-1.81-1.82V19.3a.93.93 0 0 0-.93-.93.93.93 0 0 0-.93.93v7.5a4 4 0 0 0 4 4h.69v3.41h1.86V30.8h.67a4 4 0 0 0 4-4v-7.5a.93.93 0 0 0-.95-.93z" fill="#adc4d9" stroke="#45413c" stroke-linecap="round" stroke-linejoin="round"/><path class="cls-8" d="M36.55 36.73a1.54 1.54 0 0 1 1.54 1.54V45a2.34 2.34 0 0 1-2.34-2.34v-5.14a.79.79 0 0 1 .79-.79z"/><path class="cls-20" d="M36.55 36.73a.79.79 0 0 0-.79.79v1.92a.79.79 0 0 1 .79-.79 1.54 1.54 0 0 1 1.54 1.54v-1.92a1.54 1.54 0 0 0-1.54-1.54z"/><path class="cls-4" d="M36.55 36.73a1.54 1.54 0 0 1 1.54 1.54V45a2.34 2.34 0 0 1-2.34-2.34v-5.14a.79.79 0 0 1 .79-.79z"/><path class="cls-8" d="M40.68 38.11h-2a1.15 1.15 0 0 0-.06 2.29 1.15 1.15 0 0 0 .06 2.29 1.16 1.16 0 0 0 0 2.31h2a2.19 2.19 0 0 0 2.19-2.19V40.3a2.19 2.19 0 0 0-2.19-2.19z"/><g><path class="cls-20" d="M40.68 38.11h-2a1.15 1.15 0 0 0-1.15 1.15 1.13 1.13 0 0 0 .18.57 1.13 1.13 0 0 1 1-.58h2a2.19 2.19 0 0 1 2.19 2.19V40.3a2.19 2.19 0 0 0-2.22-2.19z"/></g><path class="cls-4" d="M40.68 38.11h-2a1.15 1.15 0 0 0-.06 2.29 1.15 1.15 0 0 0 .06 2.29 1.16 1.16 0 0 0 0 2.31h2a2.19 2.19 0 0 0 2.19-2.19V40.3a2.19 2.19 0 0 0-2.19-2.19z"/><path class="cls-4" d="M38.62 40.4h1.58"/><path class="cls-4" d="M38.68 42.69h1.52"/></svg>