<svg xmlns="http://www.w3.org/2000/svg" viewBox="0 0 48 48"><defs><style>.cls-3{fill:none}.cls-14,.cls-3{stroke:#45413c;stroke-linecap:round;stroke-linejoin:round}.cls-14{fill:#45413c}.cls-8{fill:#009fd9}.cls-10{fill:#ffcebf}.cls-11{fill:#ffb59e}.cls-17{fill:#debb7e}.cls-18{fill:#f0d5a8}.cls-21{fill:#ffdcd1}</style></defs><path d="M18.52 26.41c4.56-.65 3.95 3.27 2.24 5.88A6.62 6.62 0 0 1 13.49 35c-.4-.1-.48-.55-.2-.93.78-1.07.71-3.07 1.64-4.8a6.26 6.26 0 0 1 3.59-2.86z" fill="#a86c4d"/><path d="M15.92 31.48a6.21 6.21 0 0 1 3.59-2.86 3.94 3.94 0 0 1 2.49.28c.1-1.63-.77-2.88-3.5-2.49a6.26 6.26 0 0 0-3.59 2.86C14 31 14.07 33 13.29 34.11c-.28.38-.2.83.2.93a8.25 8.25 0 0 0 1.28.19 18.39 18.39 0 0 1 1.15-3.75z" fill="#de926a"/><path class="cls-3" d="M18.52 26.41c4.56-.65 3.95 3.27 2.24 5.88A6.62 6.62 0 0 1 13.49 35c-.4-.1-.48-.55-.2-.93.78-1.07.71-3.07 1.64-4.8a6.26 6.26 0 0 1 3.59-2.86z"/><ellipse cx="24" cy="45.5" rx="15" ry="1.5" opacity=".15" fill="#45413c"/><path d="M24 30.95a11.88 11.88 0 0 1 11.88 11.87v1.9H12.12v-1.9A11.88 11.88 0 0 1 24 30.95z" fill="#6dd627"/><path d="M24 31a11.87 11.87 0 0 0-11.88 11.82v1.91h.15a11.87 11.87 0 0 1 23.46 0h.15v-1.91A11.87 11.87 0 0 0 24 31z" fill="#46b000"/><path class="cls-3" d="M24 30.95a11.88 11.88 0 0 1 11.88 11.87v1.9H12.12v-1.9A11.88 11.88 0 0 1 24 30.95z"/><path d="M29.94 32.54v6.35a1 1 0 0 1-1 1h-9.88a1 1 0 0 1-1-1v-6.35a11.93 11.93 0 0 0-2.19 1.62v10.57h16.26V34.16a11.93 11.93 0 0 0-2.19-1.62z" fill="#00b8f0"/><path class="cls-8" d="M29.94 36.24a12.46 12.46 0 0 1 2.19 1.63v-3.71a11.93 11.93 0 0 0-2.19-1.62zM18.06 36.24v-3.7a11.93 11.93 0 0 0-2.19 1.62v3.71a12.46 12.46 0 0 1 2.19-1.63z"/><path class="cls-3" d="M29.94 32.54v6.35a1 1 0 0 1-1 1h-9.88a1 1 0 0 1-1-1v-6.35a11.93 11.93 0 0 0-2.19 1.62v10.57h16.26V34.16a11.93 11.93 0 0 0-2.19-1.62z"/><path d="M24 29.7s-5-.04-5 2.82a10 10 0 0 0 2.16 5.77L24 35.86l2.89 2.43a10 10 0 0 0 2.16-5.77c0-2.86-5.05-2.82-5.05-2.82z" fill="#46b000" stroke="#45413c" stroke-linecap="round" stroke-linejoin="round"/><path class="cls-10" d="M24 35.86l-2.25-2.25a1 1 0 0 1-.29-.71v-3A2.54 2.54 0 0 1 24 27.36a2.54 2.54 0 0 1 2.54 2.55v3a1 1 0 0 1-.29.71z"/><path class="cls-11" d="M24 27.36a2.54 2.54 0 0 0-2.54 2.55v.59a2.54 2.54 0 0 0 5.08 0v-.59A2.54 2.54 0 0 0 24 27.36z"/><path class="cls-3" d="M24 35.86l-2.25-2.25a1 1 0 0 1-.29-.71v-3A2.54 2.54 0 0 1 24 27.36a2.54 2.54 0 0 1 2.54 2.55v3a1 1 0 0 1-.29.71z"/><path class="cls-3" d="M24 35.86v4.03"/><path d="M24 6.32a9.82 9.82 0 0 1 9.82 9.82v5.14H14.18v-5.14A9.82 9.82 0 0 1 24 6.32z" stroke="#45413c" stroke-linecap="round" stroke-linejoin="round" fill="#a86c4d"/><g><path d="M33.06 19.47a8.77 8.77 0 0 1-5.67-5L26.77 13a15.92 15.92 0 0 1-9.95 6.18l-1.89.34a1.81 1.81 0 0 0 0 3.62h.12a9 9 0 0 0 17.9 0h.11a1.81 1.81 0 1 0 0-3.62z" fill="#ffcebf" stroke="#45413c" stroke-linecap="round" stroke-linejoin="round"/></g><path class="cls-14" d="M18.57 20.91a.77.77 0 1 0 .77-.77.76.76 0 0 0-.77.77z"/><path class="cls-14" d="M29.43 20.91a.77.77 0 1 1-.77-.77.76.76 0 0 1 .77.77z"/><g><g><g><g><g><g><path d="M21.16 25.6a.44.44 0 0 0-.33.16.42.42 0 0 0-.1.35 3.32 3.32 0 0 0 6.54 0 .42.42 0 0 0-.1-.35.42.42 0 0 0-.33-.16z" fill="#ff6242"/><path d="M24 27a4 4 0 0 0-2.52.77 3.36 3.36 0 0 0 5 0A4 4 0 0 0 24 27z" fill="#ffa694"/></g></g></g></g></g></g><g><path class="cls-3" d="M21.16 25.6a.44.44 0 0 0-.33.16.42.42 0 0 0-.1.35 3.32 3.32 0 0 0 6.54 0 .42.42 0 0 0-.1-.35.42.42 0 0 0-.33-.16z"/></g><ellipse class="cls-11" cx="18.06" cy="24.19" rx="1" ry=".6"/><ellipse class="cls-11" cx="29.94" cy="24.19" rx="1" ry=".6"/><path class="cls-17" d="M24 4.36a9.82 9.82 0 0 1 9.82 9.82v.19H14.18v-.19A9.82 9.82 0 0 1 24 4.36z"/><path class="cls-18" d="M24 4.36a9.82 9.82 0 0 0-9.82 9.82v.18h.2A9.82 9.82 0 0 1 24 6.52a9.82 9.82 0 0 1 9.62 7.84h.2v-.18A9.82 9.82 0 0 0 24 4.36z"/><path class="cls-3" d="M24 4.36a9.82 9.82 0 0 1 9.82 9.82v.19H14.18v-.19A9.82 9.82 0 0 1 24 4.36z"/><path class="cls-17" d="M24 9.36c-10 0-18.13 3.14-18.13 7 0 2.33 2.93 4.38 7.42 5.66a1.76 1.76 0 0 1-.17-.76 1.81 1.81 0 0 1 1.06-1.65v-1.5c0-1.91 4.4-3.46 9.82-3.46s9.82 1.55 9.82 3.46v1.52a1.81 1.81 0 0 1 1.06 1.65 1.76 1.76 0 0 1-.17.76c4.49-1.28 7.42-3.33 7.42-5.66C42.13 12.5 34 9.36 24 9.36z"/><path class="cls-18" d="M24 9.36c-10 0-18.13 3.14-18.13 7 0 1.89 1.93 3.59 5.05 4.85a3.4 3.4 0 0 1-1.63-2.6c0-3.15 6.59-5.7 14.71-5.7s14.71 2.55 14.71 5.7a3.4 3.4 0 0 1-1.63 2.6c3.12-1.26 5.05-3 5.05-4.85 0-3.86-8.13-7-18.13-7z"/><path class="cls-3" d="M24 9.36c-10 0-18.13 3.14-18.13 7 0 2.33 2.93 4.38 7.42 5.66a1.76 1.76 0 0 1-.17-.76 1.81 1.81 0 0 1 1.06-1.65v-1.5c0-1.91 4.4-3.46 9.82-3.46s9.82 1.55 9.82 3.46v1.52a1.81 1.81 0 0 1 1.06 1.65 1.76 1.76 0 0 1-.17.76c4.49-1.28 7.42-3.33 7.42-5.66C42.13 12.5 34 9.36 24 9.36z"/><path fill="#bf8256" stroke="#45413c" stroke-linecap="round" stroke-linejoin="round" d="M38.09 34.21h2.33V45h-2.33z"/><path d="M43.93 18.37a.93.93 0 0 0-.93.93v7.82a1.82 1.82 0 0 1-1.81 1.82h-1V19.3a.93.93 0 1 0-1.86 0v9.64h-1a1.82 1.82 0 0 1-1.81-1.82V19.3a.93.93 0 0 0-.93-.93.93.93 0 0 0-.93.93v7.5a4 4 0 0 0 4 4h.69v3.41h1.86V30.8h.67a4 4 0 0 0 4-4v-7.5a.93.93 0 0 0-.95-.93z" fill="#adc4d9" stroke="#45413c" stroke-linecap="round" stroke-linejoin="round"/><path class="cls-10" d="M36.55 36.73a1.54 1.54 0 0 1 1.54 1.54V45a2.34 2.34 0 0 1-2.34-2.34v-5.14a.79.79 0 0 1 .8-.79z"/><path class="cls-21" d="M36.55 36.73a.79.79 0 0 0-.79.79v1.92a.79.79 0 0 1 .79-.79 1.54 1.54 0 0 1 1.54 1.54v-1.92a1.54 1.54 0 0 0-1.54-1.54z"/><path class="cls-3" d="M36.55 36.73a1.54 1.54 0 0 1 1.54 1.54V45a2.34 2.34 0 0 1-2.34-2.34v-5.14a.79.79 0 0 1 .8-.79z"/><path class="cls-10" d="M40.68 38.11h-2a1.15 1.15 0 0 0-.06 2.29 1.15 1.15 0 0 0 .06 2.29 1.16 1.16 0 0 0 0 2.31h2a2.19 2.19 0 0 0 2.19-2.19V40.3a2.19 2.19 0 0 0-2.19-2.19z"/><g><path class="cls-21" d="M40.68 38.11h-2a1.15 1.15 0 0 0-1.15 1.15 1.13 1.13 0 0 0 .18.57 1.13 1.13 0 0 1 1-.58h2a2.19 2.19 0 0 1 2.19 2.19V40.3a2.19 2.19 0 0 0-2.22-2.19z"/></g><path class="cls-3" d="M40.68 38.11h-2a1.15 1.15 0 0 0-.06 2.29 1.15 1.15 0 0 0 .06 2.29 1.16 1.16 0 0 0 0 2.31h2a2.19 2.19 0 0 0 2.19-2.19V40.3a2.19 2.19 0 0 0-2.19-2.19z"/><path class="cls-3" d="M38.62 40.4h1.58"/><path class="cls-3" d="M38.68 42.69h1.52"/></svg>