<svg xmlns="http://www.w3.org/2000/svg" viewBox="0 0 48 48"><defs><style>.cls-16{fill:#45413c}.cls-2{fill:#00b8f0}.cls-3{fill:#009fd9}.cls-4{fill:none}.cls-10,.cls-16,.cls-18,.cls-4{stroke:#45413c;stroke-linecap:round;stroke-linejoin:round}.cls-10,.cls-7{fill:#ffe500}.cls-11{fill:#ff6242}.cls-13{fill:#ffaa54}.cls-18{fill:#daedf7}.cls-19{fill:#fff48c}</style></defs><ellipse cx="24" cy="45.54" rx="13.5" ry="1.5" opacity=".15" fill="#45413c"/><path class="cls-2" d="M24 31.22A11.88 11.88 0 0 1 35.88 43.1V45H12.12v-1.9A11.88 11.88 0 0 1 24 31.22z"/><path class="cls-3" d="M24 31.22A11.88 11.88 0 0 0 12.12 43.1V45h.07A11.88 11.88 0 0 1 24 34.43 11.88 11.88 0 0 1 35.81 45h.07v-1.9A11.88 11.88 0 0 0 24 31.22z"/><path class="cls-4" d="M24 31.22A11.88 11.88 0 0 1 35.88 43.1V45H12.12v-1.9A11.88 11.88 0 0 1 24 31.22z"/><path d="M24 39.54l4.38-2.76-.1-2 1.38-1.47S29.5 30 24 30s-5.66 3.31-5.66 3.31l1.38 1.47-.1 2z" stroke="#45413c" stroke-linecap="round" stroke-linejoin="round" fill="#009fd9"/><path d="M21.46 32.57c0 3.34 2.54 7 2.54 7s2.54-3.47 2.54-7z" fill="#fff" stroke="#45413c" stroke-linecap="round" stroke-linejoin="round"/><path class="cls-7" d="M24 27.17a2.54 2.54 0 0 0-2.54 2.55v2.85a2.54 2.54 0 1 0 5.08 0v-2.85A2.54 2.54 0 0 0 24 27.17z"/><path d="M24 27.17a2.54 2.54 0 0 0-2.54 2.54v.6a2.54 2.54 0 0 0 5.08 0v-.59A2.54 2.54 0 0 0 24 27.17z" fill="#ebcb00"/><path class="cls-4" d="M24 27.17a2.54 2.54 0 0 0-2.54 2.55v2.85a2.54 2.54 0 1 0 5.08 0v-2.85A2.54 2.54 0 0 0 24 27.17z"/><path class="cls-4" d="M17.06 45v-2.41"/><path class="cls-4" d="M30.94 45v-2.41"/><path d="M24 6.91a9.82 9.82 0 0 1 9.82 9.82v5.14H14.18v-5.14A9.82 9.82 0 0 1 24 6.91z" fill="#724f3d" stroke="#45413c" stroke-linecap="round" stroke-linejoin="round"/><path class="cls-10" d="M34.87 21.12a1.83 1.83 0 0 0-1.39-1.54l-.59-.16a2.06 2.06 0 0 1-1.5-2v-2.04A1.88 1.88 0 0 0 30 13.57a15.34 15.34 0 0 1-6 1.09 15.34 15.34 0 0 1-6-1.09 1.88 1.88 0 0 0-1.4 1.81v2.06a2.06 2.06 0 0 1-1.5 2l-.59.16a1.83 1.83 0 0 0-1.39 1.54 1.81 1.81 0 0 0 1.81 2h.11a9 9 0 0 0 17.9 0h.11a1.81 1.81 0 0 0 1.82-2.02z"/><g><g><g><g><g><g><g><g><path class="cls-11" d="M21.16 25.6a.42.42 0 0 0-.33.16.42.42 0 0 0-.1.35 3.32 3.32 0 0 0 6.54 0 .42.42 0 0 0-.1-.35.44.44 0 0 0-.33-.16z"/><path d="M24 27a4 4 0 0 0-2.52.77 3.36 3.36 0 0 0 5 0A4 4 0 0 0 24 27z" fill="#ffa694"/></g></g></g></g></g></g></g><g><path class="cls-4" d="M21.16 25.6a.44.44 0 0 0-.33.16.42.42 0 0 0-.1.35 3.32 3.32 0 0 0 6.54 0 .42.42 0 0 0-.1-.35.44.44 0 0 0-.33-.16z"/></g></g><ellipse class="cls-13" cx="18.06" cy="24.61" rx="1" ry=".6"/><ellipse class="cls-13" cx="29.94" cy="24.61" rx="1" ry=".6"/><path d="M16.08 16.44l.39 5.56a1.69 1.69 0 0 0 1.69 1.57h3.38a1.93 1.93 0 0 0 1.71-1.05.78.78 0 0 1 1.5 0 1.93 1.93 0 0 0 1.71 1.05h3.38A1.69 1.69 0 0 0 31.53 22l.39-5.58z" fill="#80ddff"/><path d="M24 22a.89.89 0 0 1 .75.56 1.93 1.93 0 0 0 1.71 1.05h3.38A1.69 1.69 0 0 0 31.53 22l.39-5.58h-6.35l-5.05 7.15h1a1.93 1.93 0 0 0 1.71-1.05A.89.89 0 0 1 24 22z" fill="#b8ecff"/><path class="cls-4" d="M16.08 16.44l.39 5.56a1.69 1.69 0 0 0 1.69 1.57h3.38a1.93 1.93 0 0 0 1.71-1.05.78.78 0 0 1 1.5 0 1.93 1.93 0 0 0 1.71 1.05h3.38A1.69 1.69 0 0 0 31.53 22l.39-5.58z"/><path class="cls-16" d="M19.07 20.91a.77.77 0 1 0 .77-.77.76.76 0 0 0-.77.77z"/><path class="cls-16" d="M28.93 20.91a.77.77 0 1 1-.77-.77.76.76 0 0 1 .77.77z"/><path class="cls-3" d="M24 14.7c4.6 0 8.49.61 9.79 1.45V15a9.79 9.79 0 0 0-19.58 0v1.14c1.3-.83 5.19-1.44 9.79-1.44z"/><path class="cls-2" d="M24 5.22A9.79 9.79 0 0 0 14.21 15v1.14l.09-.06a9.8 9.8 0 0 1 19.4 0l.09.06V15A9.79 9.79 0 0 0 24 5.22z"/><path class="cls-4" d="M24 14.7c4.6 0 8.49.61 9.79 1.45V15a9.79 9.79 0 0 0-19.58 0v1.14c1.3-.83 5.19-1.44 9.79-1.44z"/><path class="cls-3" d="M26.79 5.33a1 1 0 0 0-.78-1 9.29 9.29 0 0 0-4 0 1 1 0 0 0-.78 1v9.33h5.58z"/><path class="cls-2" d="M24 4.13a9.52 9.52 0 0 0-2 .22 1 1 0 0 0-.78 1v1.4a9.27 9.27 0 0 1 5.58 0V5.33a1 1 0 0 0-.78-1 9.52 9.52 0 0 0-2.02-.2z"/><path class="cls-4" d="M26.79 5.33a1 1 0 0 0-.78-1 9.29 9.29 0 0 0-4 0 1 1 0 0 0-.78 1v9.33h5.58z"/><path class="cls-3" d="M33.85 17.7a.71.71 0 0 0 .64-.68 2.47 2.47 0 0 0-.23-1C33.66 14.77 29.67 14 24 14s-9.66.8-10.26 2.06a2.47 2.47 0 0 0-.23 1 .71.71 0 0 0 .64.68 88 88 0 0 0 9.85.64 88 88 0 0 0 9.85-.68z"/><path class="cls-2" d="M33.85 17.7a.71.71 0 0 0 .64-.68 2.47 2.47 0 0 0-.23-1 1.19 1.19 0 0 0-.09-.15 90.38 90.38 0 0 1-10.17.69 90.38 90.38 0 0 1-10.17-.68 1.19 1.19 0 0 0-.09.15 2.47 2.47 0 0 0-.23 1 .71.71 0 0 0 .64.68 88 88 0 0 0 9.85.64 88 88 0 0 0 9.85-.65z"/><path class="cls-4" d="M33.85 17.7a.71.71 0 0 0 .64-.68 2.47 2.47 0 0 0-.23-1C33.66 14.77 29.67 14 24 14s-9.66.8-10.26 2.06a2.47 2.47 0 0 0-.23 1 .71.71 0 0 0 .64.68 88 88 0 0 0 9.85.64 88 88 0 0 0 9.85-.68z"/><path class="cls-4" d="M24 39.54V45"/><path class="cls-11" d="M36.52 32.5h3.58V45h-3.58z"/><path fill="#e04122" d="M36.52 32.5h3.58v1.99h-3.58z"/><path class="cls-4" d="M36.52 32.5h3.58V45h-3.58z"/><path class="cls-18" d="M39.31 32.5h-2v-6.82a1 1 0 0 1 .2-.6L41.35 20l1.59 1.2-3.63 4.8z"/><path class="cls-4" d="M40.6 19.42l3.09 2.32"/><rect class="cls-18" x="35.63" y="30.55" width="5.37" height="1.95" rx=".97" ry=".97"/><rect class="cls-7" x="39.06" y="38.08" width="4.33" height="2.31" rx="1.15" ry="1.15"/><path class="cls-19" d="M40.22 39.24h2a1.14 1.14 0 0 1 1 .57 1.13 1.13 0 0 0 .18-.57 1.16 1.16 0 0 0-1.16-1.16h-2a1.16 1.16 0 0 0-1.16 1.16 1.13 1.13 0 0 0 .18.57 1.14 1.14 0 0 1 .96-.57z"/><rect class="cls-4" x="39.06" y="38.08" width="4.33" height="2.31" rx="1.15" ry="1.15"/><rect class="cls-10" x="39.06" y="40.39" width="4.33" height="2.31" rx="1.15" ry="1.15"/><rect class="cls-10" x="39.06" y="42.7" width="4.33" height="2.31" rx="1.15" ry="1.15"/><path class="cls-7" d="M35 36.73a1.54 1.54 0 0 1 1.54 1.54V45a2.34 2.34 0 0 1-2.34-2.34v-5.14a.79.79 0 0 1 .8-.79z"/><path class="cls-19" d="M35 36.73a.8.8 0 0 0-.8.79v1.92a.79.79 0 0 1 .8-.79 1.54 1.54 0 0 1 1.54 1.54v-1.92A1.54 1.54 0 0 0 35 36.73z"/><path class="cls-4" d="M35 36.73a1.54 1.54 0 0 1 1.54 1.54V45a2.34 2.34 0 0 1-2.34-2.34v-5.14a.79.79 0 0 1 .8-.79z"/><path d="M45.57 19.15A1.72 1.72 0 0 1 42.92 17c.61-.73 3.56-3.1 4.29-2.49s-1.03 3.91-1.64 4.64z" fill="#ff8a14"/><path class="cls-19" d="M44.68 18.41a.57.57 0 0 1-.79.07.55.55 0 0 1-.07-.78c.19-.24 1.69-1.65 1.92-1.46s-.87 1.93-1.06 2.17z"/></svg>