<svg xmlns="http://www.w3.org/2000/svg" viewBox="0 0 48 48"><defs><style>.cls-12{fill:#45413c}.cls-20,.cls-21,.cls-22,.cls-4{fill:none}.cls-12,.cls-4,.cls-7{stroke:#45413c}.cls-12,.cls-20,.cls-21,.cls-22,.cls-4,.cls-7{stroke-linecap:round;stroke-linejoin:round}.cls-7{fill:#525252}.cls-15{fill:#ffaa54}.cls-20{stroke:#48cf3e}.cls-21{stroke:#ff4064}.cls-22{stroke:#ffb700}</style></defs><ellipse cx="23.98" cy="45.5" rx="13.5" ry="1.5" opacity=".15" fill="#45413c"/><path d="M24 27.17a2.54 2.54 0 0 0-2.54 2.55v2.85c0 1.4 2.54 3.59 2.54 3.59s2.54-2.19 2.54-3.59v-2.85A2.54 2.54 0 0 0 24 27.17z" fill="#ffe500"/><path d="M24 27.17a2.54 2.54 0 0 0-2.54 2.54v.6a2.54 2.54 0 0 0 5.08 0v-.59A2.54 2.54 0 0 0 24 27.17z" fill="#ebcb00"/><path class="cls-4" d="M24 27.17a2.54 2.54 0 0 0-2.54 2.55v2.85c0 1.4 2.54 3.59 2.54 3.59s2.54-2.19 2.54-3.59v-2.85A2.54 2.54 0 0 0 24 27.17z"/><path d="M31.54 32.84L24 30l-7.54 2.87a6.76 6.76 0 0 0-4.35 6.31V45h23.78v-5.85a6.76 6.76 0 0 0-4.35-6.31z" fill="#656769"/><path d="M31.54 32.84L24 30l-7.54 2.87a6.76 6.76 0 0 0-4.35 6.31v3a6.76 6.76 0 0 1 4.35-6.31L24 33l7.54 2.87a6.76 6.76 0 0 1 4.35 6.31v-3a6.76 6.76 0 0 0-4.35-6.34z" fill="#525252"/><path class="cls-4" d="M31.54 32.84L24 30l-7.54 2.87a6.76 6.76 0 0 0-4.35 6.31V45h23.78v-5.85a6.76 6.76 0 0 0-4.35-6.31z"/><path class="cls-7" d="M17.43 32.47l-1.9 4.37 2.43.94-1.5 1.31 2.5 5.91h2.32l-2.65-12.99-1.2.46zM30.57 32.47l1.9 4.37-2.43.94 1.5 1.31-2.5 5.91h-2.32l2.65-12.99 1.2.46z"/><path fill="#fff" stroke-linecap="round" stroke-linejoin="round" stroke="#45413c" d="M24 29.97l-5.37 2.04L21.28 45h5.44l2.65-12.99L24 29.97z"/><path d="M24 6.91a9.83 9.83 0 0 0-2.44.31c-1.86.42-4.28 1.12-6.47.7a4.2 4.2 0 0 0 .84 3.21 9.81 9.81 0 0 0-1.75 5.6v5.14h19.64v-5.14A9.82 9.82 0 0 0 24 6.91z" fill="#724f3d"/><g><path d="M24 6.91a9.83 9.83 0 0 0-2.44.31c-1.86.42-4.28 1.12-6.47.7a4.47 4.47 0 0 0 .68 3 19.4 19.4 0 0 0 5.79-.79 9.81 9.81 0 0 1 12.26 9.51v-2.91A9.82 9.82 0 0 0 24 6.91z" fill="#a86c4d"/></g><path class="cls-4" d="M24 6.91a9.83 9.83 0 0 0-2.44.31c-1.86.42-4.28 1.12-6.47.7a4.2 4.2 0 0 0 .84 3.21 9.81 9.81 0 0 0-1.75 5.6v5.14h19.64v-5.14A9.82 9.82 0 0 0 24 6.91z"/><path d="M34.87 21.12a1.83 1.83 0 0 0-1.39-1.54l-.59-.16a2.06 2.06 0 0 1-1.5-2v-2.04A1.88 1.88 0 0 0 30 13.57a15.34 15.34 0 0 1-6 1.09 15.34 15.34 0 0 1-6-1.09 1.88 1.88 0 0 0-1.4 1.81v2.06a2.06 2.06 0 0 1-1.5 2l-.59.16a1.83 1.83 0 0 0-1.39 1.54 1.81 1.81 0 0 0 1.81 2h.11a9 9 0 0 0 17.9 0h.11a1.81 1.81 0 0 0 1.82-2.02z" stroke-linecap="round" stroke-linejoin="round" stroke="#45413c" fill="#ffe500"/><path class="cls-12" d="M18.57 20.91a.77.77 0 1 0 .77-.77.76.76 0 0 0-.77.77z"/><path class="cls-12" d="M29.43 20.91a.77.77 0 1 1-.77-.77.76.76 0 0 1 .77.77z"/><g><g><g><g><g><g><g><path d="M21.16 25.6a.42.42 0 0 0-.33.16.42.42 0 0 0-.1.35 3.32 3.32 0 0 0 6.54 0 .42.42 0 0 0-.1-.35.44.44 0 0 0-.33-.16z" fill="#ff6242"/><path d="M24 27a4 4 0 0 0-2.52.77 3.36 3.36 0 0 0 5 0A4 4 0 0 0 24 27z" fill="#ffa694"/></g></g></g></g></g></g></g><g><path class="cls-4" d="M21.16 25.6a.42.42 0 0 0-.33.16.42.42 0 0 0-.1.35 3.32 3.32 0 0 0 6.54 0 .42.42 0 0 0-.1-.35.44.44 0 0 0-.33-.16z"/></g><ellipse class="cls-15" cx="18.06" cy="24.19" rx="1" ry=".6"/><ellipse class="cls-15" cx="29.94" cy="24.19" rx="1" ry=".6"/><rect x="21.09" y="30.45" width="5.81" height="8.13" rx="1.7" ry="1.7" fill="#daedf7"/><path d="M25.2 30.45h-2.4a1.71 1.71 0 0 0-1.71 1.7v1.72a1.71 1.71 0 0 1 1.71-1.7h2.4a1.71 1.71 0 0 1 1.71 1.7v-1.72a1.71 1.71 0 0 0-1.71-1.7z" fill="#e8f4fa"/><rect class="cls-4" x="21.09" y="30.45" width="5.81" height="8.13" rx="1.7" ry="1.7"/><path class="cls-4" d="M25.32 32.64h1.59"/><path class="cls-4" d="M25.32 34.51h1.59"/><path class="cls-4" d="M25.32 36.39h1.59"/><path class="cls-4" d="M21.09 32.64h1.59"/><path class="cls-4" d="M21.09 34.51h1.59"/><path class="cls-4" d="M21.09 36.39h1.59"/><path d="M22.17 38.57h3.67v1.1a.68.68 0 0 1-.68.68h-2.31a.68.68 0 0 1-.68-.68v-1.1z" fill="#c0dceb" stroke-linecap="round" stroke-linejoin="round" stroke="#45413c"/><path fill="#87898c" stroke-linecap="round" stroke-linejoin="round" stroke="#45413c" d="M23.07 40.36h1.86V45h-1.86z"/><g><path class="cls-20" d="M38.14 30.34a1.3 1.3 0 1 1-1.3-1.28 1.3 1.3 0 0 1 1.3 1.28z"/><path class="cls-20" d="M44.61 29A1.3 1.3 0 0 1 42 29a1.3 1.3 0 0 1 1.29-1.31A1.29 1.29 0 0 1 44.61 29z"/><path class="cls-20" d="M38.14 30.34l-.04-5.83 6.46-2.65.06 7.14"/></g><g><path class="cls-21" d="M6.17 23.94a1.64 1.64 0 1 1-1.65-1.62 1.63 1.63 0 0 1 1.65 1.62z"/><path class="cls-21" d="M6.17 23.94l-.06-7.37 2.47 1.62"/></g><g><path class="cls-22" d="M37.18 9.32a1.28 1.28 0 0 1-1.27 1.29 1.3 1.3 0 0 1-1.29-1.27 1.28 1.28 0 0 1 2.56 0z"/><path class="cls-22" d="M37.18 9.32l-.04-5.76 1.93 1.26"/></g></svg>