<svg xmlns="http://www.w3.org/2000/svg" viewBox="0 0 48 48"><defs><style>.cls-8{fill:#45413c}.cls-12,.cls-13,.cls-14,.cls-4{fill:none}.cls-4,.cls-8{stroke:#45413c}.cls-12,.cls-13,.cls-14,.cls-4,.cls-8{stroke-linecap:round;stroke-linejoin:round}.cls-11{fill:#ffaa54}.cls-12{stroke:#48cf3e}.cls-13{stroke:#ff4064}.cls-14{stroke:#ffb700}.cls-16{fill:#9f5ae5}</style></defs><ellipse cx="24" cy="45.5" rx="13.5" ry="1.5" opacity=".15" fill="#45413c"/><path d="M24 6.32a10.88 10.88 0 0 1 10.88 10.87v14.19a1.24 1.24 0 0 1-.77 1.14 27.09 27.09 0 0 1-20.22 0 1.24 1.24 0 0 1-.77-1.14V17.19A10.88 10.88 0 0 1 24 6.32z" fill="#724f3d"/><path d="M24 6.32a10.88 10.88 0 0 0-10.88 10.87v3a10.88 10.88 0 0 1 21.76 0v-3A10.88 10.88 0 0 0 24 6.32z" fill="#a86c4d"/><path class="cls-4" d="M24 6.32a10.88 10.88 0 0 1 10.88 10.87v14.19a1.24 1.24 0 0 1-.77 1.14 27.09 27.09 0 0 1-20.22 0 1.24 1.24 0 0 1-.77-1.14V17.19A10.88 10.88 0 0 1 24 6.32z"/><path d="M26.54 31.49v-1.77a2.54 2.54 0 1 0-5.08 0v1.77a11.89 11.89 0 0 0-9.34 11.61V45h23.76v-1.9a11.89 11.89 0 0 0-9.34-11.61z" fill="#ffe500"/><path d="M26.54 31.49v-1.77a2.54 2.54 0 1 0-5.08 0v1.77a11.89 11.89 0 0 0-9.34 11.61V45a11.89 11.89 0 0 1 9.33-11v-1.83a2.54 2.54 0 1 1 5.08 0V34a11.89 11.89 0 0 1 9.33 11v-1.9a11.89 11.89 0 0 0-9.32-11.61z" fill="#ebcb00"/><path class="cls-4" d="M26.54 31.49v-1.77a2.54 2.54 0 1 0-5.08 0v1.77a11.89 11.89 0 0 0-9.34 11.61V45h23.76v-1.9a11.89 11.89 0 0 0-9.34-11.61z"/><g><path d="M33.06 19.47a8.77 8.77 0 0 1-5.67-5L26.77 13a15.92 15.92 0 0 1-9.95 6.18l-1.89.34a1.81 1.81 0 0 0 0 3.62h.12a9 9 0 0 0 17.9 0h.11a1.81 1.81 0 1 0 0-3.62z" fill="#ffe500" stroke-linecap="round" stroke-linejoin="round" stroke="#45413c"/></g><path class="cls-8" d="M18.57 20.91a.77.77 0 1 0 .77-.77.76.76 0 0 0-.77.77z"/><path class="cls-8" d="M29.43 20.91a.77.77 0 1 1-.77-.77.76.76 0 0 1 .77.77z"/><g><g><g><g><g><g><g><path d="M21.16 25.6a.44.44 0 0 0-.33.16.42.42 0 0 0-.1.35 3.32 3.32 0 0 0 6.54 0 .42.42 0 0 0-.1-.35.42.42 0 0 0-.33-.16z" fill="#ff6242"/><path d="M24 27a4 4 0 0 0-2.52.77 3.36 3.36 0 0 0 5 0A4 4 0 0 0 24 27z" fill="#ffa694"/></g></g></g></g></g></g></g><g><path class="cls-4" d="M21.16 25.6a.44.44 0 0 0-.33.16.42.42 0 0 0-.1.35 3.32 3.32 0 0 0 6.54 0 .42.42 0 0 0-.1-.35.42.42 0 0 0-.33-.16z"/></g><ellipse class="cls-11" cx="18.06" cy="24.19" rx="1" ry=".6"/><ellipse class="cls-11" cx="29.94" cy="24.19" rx="1" ry=".6"/><g><path class="cls-12" d="M39.6 28.61a1.3 1.3 0 1 1-1.31-1.29 1.31 1.31 0 0 1 1.31 1.29z"/><path class="cls-12" d="M46.07 27.26A1.3 1.3 0 1 1 44.76 26a1.3 1.3 0 0 1 1.31 1.26z"/><path class="cls-12" d="M39.59 28.61l-.04-5.84 6.46-2.64.06 7.13"/></g><g><path class="cls-13" d="M7.62 22.21A1.64 1.64 0 1 1 6 20.58a1.64 1.64 0 0 1 1.62 1.63z"/><path class="cls-13" d="M7.62 22.21l-.05-7.37 2.47 1.62"/></g><g><path class="cls-14" d="M38.64 7.58a1.28 1.28 0 1 1-1.29-1.27 1.3 1.3 0 0 1 1.29 1.27z"/><path class="cls-14" d="M38.64 7.58l-.05-5.76 1.93 1.27"/></g><path d="M30.61 33.23c-1.31 3.48-3.13 4.25-6.61 6-3.44-1.73-5.29-2.53-6.61-6a11.77 11.77 0 0 0-3.2 3.17 8.75 8.75 0 0 1 2.87 6.19V45h13.88v-2.41a8.75 8.75 0 0 1 2.87-6.19 11.77 11.77 0 0 0-3.2-3.17z" fill="#bf8df2"/><path class="cls-16" d="M30.61 33.23a10.52 10.52 0 0 1-.92 1.9 11.91 11.91 0 0 1 3.09 2.42 11.64 11.64 0 0 1 1-1.15 11.77 11.77 0 0 0-3.17-3.17zM18.32 35.12a10.09 10.09 0 0 1-.93-1.89 11.77 11.77 0 0 0-3.2 3.17 11.64 11.64 0 0 1 1 1.15 12.21 12.21 0 0 1 3.13-2.43z"/><path class="cls-4" d="M30.61 33.23c-1.31 3.48-3.13 4.25-6.61 6-3.44-1.73-5.29-2.53-6.61-6a11.77 11.77 0 0 0-3.2 3.17 8.75 8.75 0 0 1 2.87 6.19V45h13.88v-2.41a8.75 8.75 0 0 1 2.87-6.19 11.77 11.77 0 0 0-3.2-3.17z"/><rect x="21.09" y="28.81" width="5.81" height="8.12" rx="1.7" ry="1.7" fill="#daedf7"/><path d="M25.2 28.81h-2.4a1.71 1.71 0 0 0-1.71 1.7v1.72a1.71 1.71 0 0 1 1.71-1.7h2.4a1.71 1.71 0 0 1 1.71 1.7v-1.72a1.71 1.71 0 0 0-1.71-1.7z" fill="#e8f4fa"/><rect class="cls-4" x="21.09" y="28.81" width="5.81" height="8.12" rx="1.7" ry="1.7"/><path class="cls-4" d="M25.32 31h1.59"/><path class="cls-4" d="M25.32 32.87h1.59"/><path class="cls-4" d="M25.32 34.75h1.59"/><path class="cls-4" d="M21.09 31h1.59"/><path class="cls-4" d="M21.09 32.87h1.59"/><path class="cls-4" d="M21.09 34.75h1.59"/><path d="M22.17 36.94h3.67V38a.68.68 0 0 1-.68.68h-2.31a.68.68 0 0 1-.68-.68v-1.1.04z" fill="#c0dceb" stroke-linecap="round" stroke-linejoin="round" stroke="#45413c"/><path fill="#87898c" stroke-linecap="round" stroke-linejoin="round" stroke="#45413c" d="M23.07 38.72h1.86V45h-1.86z"/></svg>