<svg xmlns="http://www.w3.org/2000/svg" viewBox="0 0 48 48"><defs><style>.cls-12{fill:#45413c}.cls-4{fill:none}.cls-11,.cls-12,.cls-22,.cls-4,.cls-9{stroke:#45413c;stroke-linecap:round;stroke-linejoin:round}.cls-9{fill:#00dba8}.cls-11,.cls-7{fill:#ffe500}.cls-22{fill:#ff6242}.cls-15{fill:#ffaa54}.cls-16{fill:#8ca4b8}.cls-17{fill:#627b8c}.cls-26{fill:#fff48c}</style></defs><ellipse cx="23.34" cy="45.5" rx="17" ry="1.5" opacity=".15" fill="#45413c"/><path d="M24 31.22A11.88 11.88 0 0 1 35.88 43.1V45H12.12v-1.9A11.88 11.88 0 0 1 24 31.22z" fill="#fff"/><path d="M24 31.22A11.88 11.88 0 0 0 12.12 43.1V45h.11a11.88 11.88 0 0 1 23.54 0h.11v-1.9A11.88 11.88 0 0 0 24 31.22z" fill="#f0f0f0"/><path class="cls-4" d="M24 31.22A11.88 11.88 0 0 1 35.88 43.1V45H12.12v-1.9A11.88 11.88 0 0 1 24 31.22z"/><ellipse cx="24" cy="33.65" rx="4.71" ry="3.54" fill="#00dba8"/><path d="M24 30.11a4.75 4.75 0 0 0-4.5 2.49 4.74 4.74 0 0 0 4.5 2.5 4.74 4.74 0 0 0 4.5-2.5 4.75 4.75 0 0 0-4.5-2.49z" fill="#00ad85"/><ellipse class="cls-4" cx="24" cy="33.65" rx="4.71" ry="3.54"/><path class="cls-7" d="M24 27.16a2.54 2.54 0 0 0-2.54 2.55v2.84a2.54 2.54 0 1 0 5.08 0v-2.84A2.54 2.54 0 0 0 24 27.16z"/><path d="M24 27.16a2.54 2.54 0 0 0-2.54 2.54v.6a2.54 2.54 0 0 0 5.08 0v-.59A2.54 2.54 0 0 0 24 27.16z" fill="#ebcb00"/><path class="cls-4" d="M24 27.16a2.54 2.54 0 0 0-2.54 2.55v2.84a2.54 2.54 0 1 0 5.08 0v-2.84A2.54 2.54 0 0 0 24 27.16z"/><path class="cls-4" d="M17.06 45v-2.41"/><path class="cls-4" d="M30.94 45v-2.42"/><path class="cls-9" d="M26.1 37.08a4 4 0 0 0 2 1.44c1.3.36 2.14-.18 2.7.17-.82-2.26-2.76-3.43-4-2.86s-.7 1.25-.7 1.25z"/><path class="cls-9" d="M25 37.12a4.71 4.71 0 0 0-.39 2.88c.36 1.53 1.37 2.09 1.33 2.86 1.86-2.1 2-4.74.7-5.7S25 37.12 25 37.12z"/><path class="cls-9" d="M24 35.1a1.78 1.78 0 0 1 .81.83 4 4 0 0 1 .19 1.19 2.29 2.29 0 0 0 1.85 0 1.78 1.78 0 0 0 .47-2.56c-.68-.88-2.15-1.08-3.32.54z"/><path d="M24 6.91a9.83 9.83 0 0 0-2.44.31c-1.86.42-4.28 1.12-6.47.7a4.2 4.2 0 0 0 .84 3.21 9.81 9.81 0 0 0-1.75 5.6v5.14h19.64v-5.14A9.82 9.82 0 0 0 24 6.91z" fill="#724f3d" stroke="#45413c" stroke-linecap="round" stroke-linejoin="round"/><path class="cls-11" d="M34.87 21.12a1.83 1.83 0 0 0-1.39-1.54l-.59-.16a2.06 2.06 0 0 1-1.5-2v-2.04A1.88 1.88 0 0 0 30 13.57a15.34 15.34 0 0 1-6 1.09 15.34 15.34 0 0 1-6-1.09 1.88 1.88 0 0 0-1.4 1.81v2.06a2.06 2.06 0 0 1-1.5 2l-.59.16a1.83 1.83 0 0 0-1.39 1.54 1.81 1.81 0 0 0 1.81 2h.11a9 9 0 0 0 17.9 0h.11a1.81 1.81 0 0 0 1.82-2.02z"/><path class="cls-12" d="M18.57 20.91a.77.77 0 1 0 .77-.77.76.76 0 0 0-.77.77z"/><path class="cls-12" d="M29.43 20.91a.77.77 0 1 1-.77-.77.76.76 0 0 1 .77.77z"/><g><g><g><g><g><g><g><path d="M21.16 25.6a.44.44 0 0 0-.33.16.42.42 0 0 0-.1.35 3.32 3.32 0 0 0 6.54 0 .42.42 0 0 0-.1-.35.44.44 0 0 0-.33-.16z" fill="#ff6242"/><path d="M24 27a4 4 0 0 0-2.52.77 3.36 3.36 0 0 0 5 0A4 4 0 0 0 24 27z" fill="#ffa694"/></g></g></g></g></g></g></g><g><path class="cls-4" d="M21.16 25.6a.44.44 0 0 0-.33.16.42.42 0 0 0-.1.35 3.32 3.32 0 0 0 6.54 0 .42.42 0 0 0-.1-.35.44.44 0 0 0-.33-.16z"/></g><ellipse class="cls-15" cx="18.06" cy="24.19" rx="1" ry=".6"/><ellipse class="cls-15" cx="29.94" cy="24.19" rx="1" ry=".6"/><path class="cls-16" d="M13.67 17.66c0-1.06 4.62-1.92 10.33-1.92s10.33.86 10.33 1.92L34 13.82c0-1.06-4.48-1.91-10-1.91s-10 .85-10 1.91z"/><g><path class="cls-17" d="M13.67 17.6z"/><path class="cls-17" d="M24 11.91c-5.52 0-10 .85-10 1.91l-.33 3.78c.17-1 4.73-1.86 10.33-1.86h1.61A19.35 19.35 0 0 0 31 12.46a39.78 39.78 0 0 0-7-.55z"/></g><path class="cls-4" d="M13.67 17.66c0-1.06 4.62-1.92 10.33-1.92s10.33.86 10.33 1.92L34 13.82c0-1.06-4.48-1.91-10-1.91s-10 .85-10 1.91z"/><path class="cls-16" d="M35.29 9C33.17 5.6 27.81 4.72 24 5a27.13 27.13 0 0 0-12.42 4.74c-1.74 1.26-2.35 2.6-1.84 3.39 1.07 2 6.75 2.47 15.45-1.21 5 .11 8.81.92 8.81 1.9 0 0 3.17-1.91 1.29-4.82z"/><path d="M10.12 13.61a7 7 0 0 1 1.46-1.4A27.13 27.13 0 0 1 24 7.5c3.81-.31 9.17.57 11.29 3.92a3.5 3.5 0 0 1 .32.6A3 3 0 0 0 35.29 9C33.17 5.6 27.81 4.72 24 5a27.13 27.13 0 0 0-12.42 4.74c-1.74 1.26-2.35 2.6-1.84 3.39a2.11 2.11 0 0 0 .38.48z" fill="#adc4d9"/><path class="cls-4" d="M35.29 9C33.17 5.6 27.81 4.72 24 5a27.13 27.13 0 0 0-12.42 4.74c-1.74 1.26-2.35 2.6-1.84 3.39 1.07 2 6.75 2.47 15.45-1.21 5 .11 8.81.92 8.81 1.9 0 0 3.17-1.91 1.29-4.82z"/><path class="cls-4" d="M25.19 11.92c1.34-.57 2.76-1.24 4.24-2"/><ellipse cx="24" cy="5.03" rx="1.66" ry="1.09" transform="rotate(-6.83 24 5.048)" fill="#627b8c" stroke="#45413c" stroke-linecap="round" stroke-linejoin="round"/><path d="M7.25 45s-6.65-7.58-.92-8.45c6.21-.93 13 8.45 13 8.45z" fill="#debb7e"/><path d="M6.33 39.4c3.92-.59 8.05 2.92 10.57 5.6h2.39s-6.75-9.38-13-8.45c-2.54.39-2.65 2.08-2 3.86a2.73 2.73 0 0 1 2.04-1.01z" fill="#f0d5a8"/><path class="cls-4" d="M7.25 45s-6.65-7.58-.92-8.45c6.21-.93 13 8.45 13 8.45z"/><ellipse class="cls-22" cx="9" cy="39.33" rx=".89" ry="1.71" transform="rotate(-55.03 9.005 39.336)"/><ellipse class="cls-11" cx="13.61" cy="41.78" rx=".89" ry="1.71" transform="rotate(-55.03 13.617 41.775)"/><path fill="#daedf7" stroke="#45413c" stroke-linecap="round" stroke-linejoin="round" d="M39.04 36.34l-2.1-.52 1.45-6.94 2.59.64-1.94 6.82z"/><path transform="rotate(13.81 37.029 40.09)" fill="#bf8256" stroke="#45413c" stroke-linecap="round" stroke-linejoin="round" d="M35.92 35.96h2.17v8.25h-2.17z"/><path d="M38.39 28.88c-.65-1.24.18-2.76 1.13-3.54a3.58 3.58 0 0 0 1.26-1.84 3.71 3.71 0 0 1 1.52 3.77 3.38 3.38 0 0 1-1.3 2.25z" fill="#fff5e3" stroke="#45413c" stroke-linecap="round" stroke-linejoin="round"/><path class="cls-22" d="M38.73 26.21a6.17 6.17 0 0 0 1.64.65 6.25 6.25 0 0 0 2 .17 3.75 3.75 0 0 0-1.57-3.53 3.58 3.58 0 0 1-1.26 1.84 3.91 3.91 0 0 0-.81.87z"/><path class="cls-7" d="M34.22 36.24a1.54 1.54 0 0 1 1.54 1.54v6.73a2.34 2.34 0 0 1-2.34-2.34V37a.79.79 0 0 1 .8-.76z" transform="rotate(13.81 34.593 40.385)"/><path class="cls-26" d="M35.22 36.27a.78.78 0 0 0-1 .58l-.46 1.86a.79.79 0 0 1 1-.58A1.53 1.53 0 0 1 35.89 40l.46-1.86a1.54 1.54 0 0 0-1.13-1.87z"/><path class="cls-4" d="M34.22 36.24a1.54 1.54 0 0 1 1.54 1.54v6.73a2.34 2.34 0 0 1-2.34-2.34V37a.79.79 0 0 1 .8-.76z" transform="rotate(13.81 34.593 40.385)"/><path class="cls-7" d="M38.9 38.59l-1.9-.48a1.15 1.15 0 0 0-.6 2.22 1.15 1.15 0 0 0-.49 2.24 1.15 1.15 0 1 0-.55 2.24l1.93.47a2.19 2.19 0 0 0 2.65-1.6l.6-2.44a2.19 2.19 0 0 0-1.6-2.65z"/><g><path class="cls-26" d="M38.9 38.59l-1.9-.48a1.15 1.15 0 0 0-1.39.85 1.07 1.07 0 0 0 0 .59 1.15 1.15 0 0 1 1.09-.33l1.94.48a2.18 2.18 0 0 1 1.6 2.64l.27-1.1a2.19 2.19 0 0 0-1.61-2.65z"/></g><path class="cls-4" d="M38.9 38.59l-1.9-.48a1.15 1.15 0 0 0-.6 2.22 1.15 1.15 0 0 0-.49 2.24 1.15 1.15 0 1 0-.55 2.24l1.93.47a2.19 2.19 0 0 0 2.65-1.6l.6-2.44a2.19 2.19 0 0 0-1.6-2.65z"/></svg>