<svg xmlns="http://www.w3.org/2000/svg" viewBox="0 0 48 48"><defs><style>.cls-11,.cls-5,.cls-6,.cls-7,.cls-8{stroke:#45413c;stroke-linecap:round;stroke-linejoin:round}.cls-11{fill:#45413c}.cls-3,.cls-7{fill:#656769}.cls-4{fill:#525252}.cls-5{fill:none}.cls-6{fill:#fff}.cls-8{fill:#ffe500}.cls-14{fill:#ffaa54}</style></defs><path d="M24 7.23A10.17 10.17 0 0 1 34.17 17.4v13.26a1.17 1.17 0 0 1-.72 1.07 25.41 25.41 0 0 1-18.9 0 1.17 1.17 0 0 1-.72-1.07V17.4A10.17 10.17 0 0 1 24 7.23z" stroke="#45413c" stroke-linecap="round" stroke-linejoin="round" fill="#724f3d"/><ellipse cx="24" cy="45.5" rx="13.5" ry="1.5" opacity=".15" fill="#45413c"/><path class="cls-3" d="M31.54 32.84L24 30l-7.54 2.87a6.76 6.76 0 0 0-4.35 6.31V45h23.78v-5.85a6.76 6.76 0 0 0-4.35-6.31z"/><path class="cls-4" d="M15.64 35.3l1.55-2.74-.73.28a6.76 6.76 0 0 0-4.35 6.31v3a6.73 6.73 0 0 1 4.35-6.3l.56-.22zM31.54 32.84l-.73-.28 1.55 2.74-1.36.34.56.22a6.73 6.73 0 0 1 4.35 6.3v-3a6.76 6.76 0 0 0-4.37-6.32z"/><path class="cls-5" d="M31.54 32.84L24 30l-7.54 2.87a6.76 6.76 0 0 0-4.35 6.31V45h23.78v-5.85a6.76 6.76 0 0 0-4.35-6.31z"/><path class="cls-5" d="M30.23 35.83l2.13-.53-1.55-2.74L24 29.97l-6.81 2.59-1.55 2.74 2.13.53-.72 2.22L21.92 45h4.16l4.87-6.95-.72-2.22z"/><path class="cls-6" d="M24 36.16l-2.89 2.43.81 6.41h4.16l.81-6.41L24 36.16z"/><path class="cls-6" d="M24 30s-5 0-5 2.82a9.94 9.94 0 0 0 2.16 5.77L24 36.16l2.89 2.43a9.94 9.94 0 0 0 2.16-5.77C29.05 30 24 30 24 30z"/><path class="cls-7" d="M24 36.16l-1.81 1.52 1.01 1.81h1.6l1.01-1.81L24 36.16zM24.8 39.49h-1.6L21.92 45h4.16l-1.28-5.51z"/><path class="cls-8" d="M34.15 40.79h-5.84l.42 1.3a.71.71 0 0 0 .66.53h3.69a.7.7 0 0 0 .65-.53z"/><circle class="cls-8" cx="31.23" cy="41.71" r=".91"/><path d="M24 27.17a2.54 2.54 0 0 0-2.54 2.55v2.85c0 1.4 2.54 3.59 2.54 3.59s2.54-2.19 2.54-3.59v-2.85A2.54 2.54 0 0 0 24 27.17z" fill="#ffe500"/><path d="M24 27.17a2.54 2.54 0 0 0-2.54 2.54v.6a2.54 2.54 0 0 0 5.08 0v-.59A2.54 2.54 0 0 0 24 27.17z" fill="#ebcb00"/><path class="cls-5" d="M24 27.17a2.54 2.54 0 0 0-2.54 2.55v2.85c0 1.4 2.54 3.59 2.54 3.59s2.54-2.19 2.54-3.59v-2.85A2.54 2.54 0 0 0 24 27.17z"/><g><path class="cls-8" d="M33.06 19.46a8.72 8.72 0 0 1-5.67-5L26.77 13a15.9 15.9 0 0 1-9.95 6.17l-1.89.34a1.82 1.82 0 0 0 0 3.63h.12a9 9 0 0 0 17.9 0h.11a1.82 1.82 0 1 0 0-3.63z"/></g><path class="cls-11" d="M18.57 20.91a.77.77 0 0 0 1.54 0 .77.77 0 1 0-1.54 0z"/><path class="cls-11" d="M29.43 20.91a.77.77 0 0 1-1.54 0 .77.77 0 1 1 1.54 0z"/><g><g><g><g><g><g><g><path d="M21.16 25.6a.46.46 0 0 0-.33.15.43.43 0 0 0-.1.36 3.32 3.32 0 0 0 6.54 0 .43.43 0 0 0-.1-.36.46.46 0 0 0-.33-.15z" fill="#ff6242"/><path d="M24 27a4.11 4.11 0 0 0-2.52.77 3.34 3.34 0 0 0 5 0A4.11 4.11 0 0 0 24 27z" fill="#ffa694"/></g></g></g></g></g></g></g><g><path class="cls-5" d="M21.16 25.6a.46.46 0 0 0-.33.15.43.43 0 0 0-.1.36 3.32 3.32 0 0 0 6.54 0 .43.43 0 0 0-.1-.36.45.45 0 0 0-.33-.15z"/></g><ellipse class="cls-14" cx="18.06" cy="24.19" rx="1" ry=".6"/><ellipse class="cls-14" cx="29.94" cy="24.19" rx="1" ry=".6"/><path class="cls-7" d="M24 15.12a38.32 38.32 0 0 0-8.72.81c1.61 1.35.9 3 8.72 3s7.11-1.68 8.72-3a38.32 38.32 0 0 0-8.72-.81z"/><path class="cls-3" d="M24 3.68c-6.21 0-11.88 4.91-11.88 7.84A3.63 3.63 0 0 0 14 14.36c.95-.77 5.07-1.35 10-1.35s9.07.58 10 1.35a3.63 3.63 0 0 0 1.86-2.84c.02-2.93-5.65-7.84-11.86-7.84z"/><path d="M24 6.13c5.37 0 10.34 3.68 11.58 6.57a2.52 2.52 0 0 0 .3-1.18c0-2.93-5.67-7.84-11.88-7.84s-11.88 4.91-11.88 7.84a2.52 2.52 0 0 0 .3 1.18C13.66 9.81 18.63 6.13 24 6.13z" fill="#87898c"/><path class="cls-5" d="M24 3.68c-6.21 0-11.88 4.91-11.88 7.84A3.63 3.63 0 0 0 14 14.36c.95-.77 5.07-1.35 10-1.35s9.07.58 10 1.35a3.63 3.63 0 0 0 1.86-2.84c.02-2.93-5.65-7.84-11.86-7.84z"/><path class="cls-8" d="M13.78 16.81c0-.93 4.57-1.69 10.22-1.69s10.22.76 10.22 1.69V14.7c0-.93-4.57-1.7-10.22-1.7s-10.22.76-10.22 1.69z"/><path d="M24 13c4.43 0 8.21.47 9.62 1.12-.32-2.42-4.5-4.35-9.62-4.35s-9.3 1.93-9.62 4.36C15.79 13.48 19.57 13 24 13z" fill="#525252" stroke="#45413c" stroke-linecap="round" stroke-linejoin="round"/><path class="cls-8" d="M27.64 8.86h-7.28l.52 1.29a.87.87 0 0 0 .81.53h4.62a.87.87 0 0 0 .81-.53z"/><path class="cls-8" d="M28.66 7.05h-9.32L20 8.34a1.17 1.17 0 0 0 1 .52h6a1.17 1.17 0 0 0 1-.52z"/><path class="cls-8" d="M25.51 9.17a1.51 1.51 0 0 1-1.9 1.46 1.55 1.55 0 0 1-1.12-1.52v-.55A1.51 1.51 0 0 1 24 7.05a1.51 1.51 0 0 1 1.51 1.51z"/></svg>