<svg xmlns="http://www.w3.org/2000/svg" viewBox="0 0 48 48"><defs><style>.cls-3{fill:none}.cls-10,.cls-14,.cls-3{stroke:#45413c;stroke-linecap:round;stroke-linejoin:round}.cls-14{fill:#45413c}.cls-5{fill:#fff}.cls-6{fill:#e0e0e0}.cls-10{fill:#ffe500}.cls-13{fill:#bdbec0}.cls-17{fill:#ffaa54}</style></defs><path d="M30.59 6.32a10.87 10.87 0 0 1 10.87 10.87v14.19a1.23 1.23 0 0 1-.77 1.14 27.06 27.06 0 0 1-20.21 0 1.23 1.23 0 0 1-.77-1.14V17.19A10.88 10.88 0 0 1 30.59 6.32z" fill="#724f3d"/><path d="M30.59 6.32a10.88 10.88 0 0 0-10.88 10.87v3a10.88 10.88 0 1 1 21.75 0v-3A10.87 10.87 0 0 0 30.59 6.32z" fill="#a86c4d"/><path class="cls-3" d="M30.59 6.32a10.87 10.87 0 0 1 10.87 10.87v14.19a1.23 1.23 0 0 1-.77 1.14 27.06 27.06 0 0 1-20.21 0 1.23 1.23 0 0 1-.77-1.14V17.19A10.88 10.88 0 0 1 30.59 6.32z"/><ellipse cx="30.57" cy="45.5" rx="15" ry="1.5" opacity=".15" fill="#45413c"/><path class="cls-5" d="M39.32 32.84L30.59 30l-8.74 2.87a6.87 6.87 0 0 0-5.05 6.31V45h27.57v-5.85a6.87 6.87 0 0 0-5.05-6.31z"/><path class="cls-6" d="M39.32 32.84L30.59 30l-8.74 2.87a6.87 6.87 0 0 0-5.05 6.31v3a6.87 6.87 0 0 1 5.05-6.31L30.59 33l8.73 2.87a6.87 6.87 0 0 1 5 6.31v-3a6.87 6.87 0 0 0-5-6.34z"/><path class="cls-3" d="M39.32 32.84L30.59 30l-8.74 2.87a6.87 6.87 0 0 0-5.05 6.31V45h27.57v-5.85a6.87 6.87 0 0 0-5.05-6.31z"/><path class="cls-3" d="M38.8 45V33.7"/><path class="cls-3" d="M22.38 45V33.7"/><path fill="#ff6242" stroke="#45413c" stroke-linecap="round" stroke-linejoin="round" d="M24.4 39.41h4.55v2.5H24.4z"/><circle cx="35.51" cy="40.66" r="1.25" fill="#009fd9" stroke="#45413c" stroke-linecap="round" stroke-linejoin="round"/><ellipse class="cls-5" cx="30.59" cy="32.04" rx="9.1" ry="3.83"/><path class="cls-6" d="M30.59 28.21c-4.4 0-8.07 1.31-8.92 3.06.85 1.74 4.52 3.06 8.92 3.06s8.06-1.33 8.91-3.06c-.85-1.75-4.5-3.06-8.91-3.06z"/><ellipse class="cls-3" cx="30.59" cy="32.04" rx="9.1" ry="3.83"/><ellipse cx="30.59" cy="31.49" rx="6.29" ry="1.47" fill="#656769" stroke="#45413c" stroke-linecap="round" stroke-linejoin="round"/><path class="cls-10" d="M28 32.83a25 25 0 0 0 5.09 0v-3.25H28z"/><path class="cls-6" d="M18.68 27.79v6.73a1.54 1.54 0 0 1-1.54 1.54.79.79 0 0 1-.79-.79v-5.14a2.34 2.34 0 0 1 2.34-2.34z" transform="rotate(159.27 17.506 31.927)"/><path class="cls-3" d="M18.68 27.79v6.73a1.54 1.54 0 0 1-1.54 1.54.79.79 0 0 1-.79-.79v-5.14a2.34 2.34 0 0 1 2.34-2.34z" transform="rotate(159.27 17.506 31.927)"/><path class="cls-6" d="M6.54 42.59a.77.77 0 0 0 .77.77H8A10 10 0 0 0 8.5 45h20.12a10 10 0 0 0 .5-1.64h.69a.77.77 0 0 0 .78-.77v-3.05a.77.77 0 0 0-.78-.77h-.69a10.8 10.8 0 0 0-21.12 0h-.69a.77.77 0 0 0-.77.77z"/><path class="cls-5" d="M29.81 38.77h-.69a10.8 10.8 0 0 0-21.12 0h-.69a.77.77 0 0 0-.77.77v2.17a.78.78 0 0 1 .77-.78.88.88 0 0 0 .85-.64 10.81 10.81 0 0 1 20.8 0 .89.89 0 0 0 .85.64.78.78 0 0 1 .78.78v-2.17a.77.77 0 0 0-.78-.77z"/><path class="cls-3" d="M6.54 42.59a.77.77 0 0 0 .77.77H8A10 10 0 0 0 8.5 45h20.12a10 10 0 0 0 .5-1.64h.69a.77.77 0 0 0 .78-.77v-3.05a.77.77 0 0 0-.78-.77h-.69a10.8 10.8 0 0 0-21.12 0h-.69a.77.77 0 0 0-.77.77z"/><path d="M26.26 45a8.65 8.65 0 1 0-16.35-3.93 8.55 8.55 0 0 0 1 3.93z" fill="#00b8f0"/><path d="M18.56 36.72c4.3 0 7.86 2.48 8.53 5.71a8.64 8.64 0 1 0-17.18-1.36 7.65 7.65 0 0 0 .09 1.36c.7-3.23 4.26-5.71 8.56-5.71z" fill="#4acfff"/><path class="cls-3" d="M26.26 45a8.65 8.65 0 1 0-16.35-3.93 8.55 8.55 0 0 0 1 3.93z"/><rect class="cls-13" x="12.63" y="30.43" width="4.33" height="2.31" rx="1.15" ry="1.15" transform="rotate(-123.29 14.799 31.584)"/><path class="cls-6" d="M13.61 29.78a1.15 1.15 0 0 0-.33 1.59l.83 1.26a1.15 1.15 0 0 1 .33-1.63 1.16 1.16 0 0 1 1.6.33l-.84-1.26a1.14 1.14 0 0 0-1.59-.29z"/><rect class="cls-3" x="12.63" y="30.43" width="4.33" height="2.31" rx="1.15" ry="1.15" transform="rotate(-123.29 14.799 31.584)"/><rect class="cls-13" x="10.69" y="31.67" width="4.33" height="2.31" rx="1.15" ry="1.15" transform="rotate(-123.29 12.855 32.827)"/><path class="cls-6" d="M11.66 31a1.16 1.16 0 0 0-.33 1.6l.83 1.26a1.15 1.15 0 0 1 1.93-1.26l-.83-1.26a1.16 1.16 0 0 0-1.6-.34z"/><rect class="cls-3" x="10.69" y="31.67" width="4.33" height="2.31" rx="1.15" ry="1.15" transform="rotate(-123.29 12.855 32.827)"/><rect class="cls-13" x="8.91" y="33.17" width="4.33" height="2.31" rx="1.15" ry="1.15" transform="rotate(-123.29 11.081 34.326)"/><path class="cls-6" d="M9.89 32.52a1.15 1.15 0 0 0-.33 1.59l.83 1.27a1.16 1.16 0 1 1 1.93-1.27l-.83-1.26a1.15 1.15 0 0 0-1.6-.33z"/><rect class="cls-3" x="8.91" y="33.17" width="4.33" height="2.31" rx="1.15" ry="1.15" transform="rotate(-123.29 11.081 34.326)"/><g><path class="cls-10" d="M39.65 19.47a8.75 8.75 0 0 1-5.67-5L33.35 13a15.87 15.87 0 0 1-9.94 6.18l-1.89.34a1.81 1.81 0 0 0 0 3.62h.11a9.05 9.05 0 0 0 17.91 0h.11a1.81 1.81 0 0 0 0-3.62z"/></g><path class="cls-14" d="M25.15 20.91a.78.78 0 1 0 .77-.77.77.77 0 0 0-.77.77z"/><path class="cls-14" d="M36 20.91a.77.77 0 1 1-.77-.77.76.76 0 0 1 .77.77z"/><g><g><g><g><g><g><g><path d="M27.75 25.6a.46.46 0 0 0-.44.51 3.32 3.32 0 0 0 6.55 0 .45.45 0 0 0-.44-.51z" fill="#ff6242"/><path d="M30.59 27a4.08 4.08 0 0 0-2.53.77 3.37 3.37 0 0 0 5.05 0 4 4 0 0 0-2.52-.77z" fill="#ffa694"/></g></g></g></g></g></g></g><g><path class="cls-3" d="M27.75 25.6a.46.46 0 0 0-.44.51 3.32 3.32 0 0 0 6.55 0 .45.45 0 0 0-.44-.51z"/></g><ellipse class="cls-17" cx="24.65" cy="24.19" rx="1" ry=".6"/><ellipse class="cls-17" cx="36.53" cy="24.19" rx="1" ry=".6"/></svg>