<svg xmlns="http://www.w3.org/2000/svg" viewBox="0 0 48 48"><defs><style>.cls-7{fill:#45413c}.cls-2{fill:#fff}.cls-3{fill:#e0e0e0}.cls-4{fill:none}.cls-4,.cls-7{stroke:#45413c;stroke-linecap:round;stroke-linejoin:round}.cls-10{fill:#ffaa54}</style></defs><ellipse cx="24" cy="45.5" rx="15" ry="1.5" opacity=".15" fill="#45413c"/><path class="cls-2" d="M32.74 32.84L24 30l-8.74 2.87a6.86 6.86 0 0 0-5 6.31V45h27.52v-5.85a6.86 6.86 0 0 0-5.04-6.31z"/><path class="cls-3" d="M32.74 32.84L24 30l-8.74 2.87a6.86 6.86 0 0 0-5 6.31v3a6.86 6.86 0 0 1 5-6.31L24 33l8.74 2.87a6.86 6.86 0 0 1 5 6.31v-3a6.86 6.86 0 0 0-5-6.34z"/><path class="cls-4" d="M32.74 32.84L24 30l-8.74 2.87a6.86 6.86 0 0 0-5 6.31V45h27.52v-5.85a6.86 6.86 0 0 0-5.04-6.31z"/><ellipse class="cls-2" cx="24" cy="32.04" rx="9.1" ry="4.16"/><path class="cls-3" d="M24 27.88c-4.48 0-8.2 1.48-8.95 3.43.75 1.95 4.47 3.43 9 3.43s8.2-1.48 9-3.43c-.85-1.95-4.57-3.43-9.05-3.43z"/><ellipse class="cls-4" cx="24" cy="32.04" rx="9.1" ry="4.16"/><path class="cls-4" d="M32.21 45V33.84"/><path class="cls-4" d="M15.79 45V33.84"/><path class="cls-3" d="M38.49 16.24h-.89a13.92 13.92 0 0 0-27.2 0h-.89a1 1 0 0 0-1 1v3.92a1 1 0 0 0 1 1h.89a13.92 13.92 0 0 0 27.2 0h.89a1 1 0 0 0 1-1v-3.92a1 1 0 0 0-1-1z"/><path class="cls-2" d="M38.49 16.24h-.89a13.92 13.92 0 0 0-27.2 0h-.89a1 1 0 0 0-1 1v2.32a1 1 0 0 1 1-1 1.12 1.12 0 0 0 1.08-.82 13.92 13.92 0 0 1 26.8 0 1.12 1.12 0 0 0 1.08.82 1 1 0 0 1 1 1v-2.32a1 1 0 0 0-.98-1z"/><path class="cls-4" d="M38.49 16.24h-.89a13.92 13.92 0 0 0-27.2 0h-.89a1 1 0 0 0-1 1v3.92a1 1 0 0 0 1 1h.89a13.92 13.92 0 0 0 27.2 0h.89a1 1 0 0 0 1-1v-3.92a1 1 0 0 0-1-1z"/><circle cx="24" cy="19.2" r="11.6" fill="#656769" stroke="#45413c" stroke-linecap="round" stroke-linejoin="round"/><path d="M26.13 14.74h-4.26a7 7 0 0 0-7 7 8.74 8.74 0 0 0 .13 1.34 9.09 9.09 0 0 0 18 0 8.74 8.74 0 0 0 .11-1.37 7 7 0 0 0-6.98-6.97z" fill="#ffe500" stroke="#45413c" stroke-linecap="round" stroke-linejoin="round"/><path class="cls-7" d="M18.57 20.91a.77.77 0 1 0 .77-.77.76.76 0 0 0-.77.77z"/><path class="cls-7" d="M29.43 20.91a.77.77 0 1 1-.77-.77.76.76 0 0 1 .77.77z"/><g><g><g><g><g><g><g><path d="M21.16 25.6a.44.44 0 0 0-.33.16.41.41 0 0 0-.1.35 3.32 3.32 0 0 0 6.54 0 .41.41 0 0 0-.1-.35.44.44 0 0 0-.33-.16z" fill="#ff6242"/><path d="M24 27a4 4 0 0 0-2.52.77 3.36 3.36 0 0 0 5 0A4 4 0 0 0 24 27z" fill="#ffa694"/></g></g></g></g></g></g></g><g><path class="cls-4" d="M21.16 25.6a.44.44 0 0 0-.33.16.41.41 0 0 0-.1.35 3.32 3.32 0 0 0 6.54 0 .41.41 0 0 0-.1-.35.44.44 0 0 0-.33-.16z"/></g><ellipse class="cls-10" cx="18.06" cy="24.19" rx="1" ry=".6"/><ellipse class="cls-10" cx="29.94" cy="24.19" rx="1" ry=".6"/><path d="M24 7.6a11.61 11.61 0 0 0-11.36 9.23A29.46 29.46 0 0 1 24 14.74a29.46 29.46 0 0 1 11.36 2.09A11.61 11.61 0 0 0 24 7.6z" fill="#00b8f0"/><path d="M24 10.5c5.69 0 10.42 2.7 11.34 6.24a11.6 11.6 0 0 0-22.68 0c.92-3.54 5.65-6.24 11.34-6.24z" fill="#4acfff"/><path class="cls-4" d="M24 7.6a11.61 11.61 0 0 0-11.36 9.23A29.46 29.46 0 0 1 24 14.74a29.46 29.46 0 0 1 11.36 2.09A11.61 11.61 0 0 0 24 7.6z"/><path fill="#ff6242" stroke="#45413c" stroke-linecap="round" stroke-linejoin="round" d="M17.82 39.41h4.55v2.5h-4.55z"/><circle cx="28.92" cy="40.66" r="1.25" fill="#009fd9" stroke="#45413c" stroke-linecap="round" stroke-linejoin="round"/></svg>