<svg xmlns="http://www.w3.org/2000/svg" viewBox="0 0 48 48"><defs><style>.cls-3,.cls-6{fill:#45413c;stroke:#45413c;stroke-linecap:round;stroke-linejoin:round}.cls-6{fill:none}.cls-7{fill:#ffb59e}</style></defs><ellipse cx="24" cy="45.5" rx="12.5" ry="1.5" opacity=".15" fill="#45413c"/><g><path d="M39.17 32a2.56 2.56 0 0 0-1.94-2.15l-.82-.23a2.86 2.86 0 0 1-2.1-2.76V24a2.61 2.61 0 0 0-2-2.52A21.6 21.6 0 0 1 24 23a21.6 21.6 0 0 1-8.36-1.52 2.61 2.61 0 0 0-2 2.52v2.88a2.86 2.86 0 0 1-2.1 2.76l-.82.23a2.48 2.48 0 0 0 .58 4.9h.15a12.64 12.64 0 0 0 25 0h.15A2.53 2.53 0 0 0 39.17 32z" stroke="#45413c" stroke-linecap="round" stroke-linejoin="round" fill="#ffcebf"/><path class="cls-3" d="M16.65 32.4a1.08 1.08 0 1 0 1.08-1.07 1.08 1.08 0 0 0-1.08 1.07z"/><path class="cls-3" d="M31.35 32.4a1.08 1.08 0 1 1-1.08-1.07 1.08 1.08 0 0 1 1.08 1.07z"/><g><g><path d="M21 38.32a.48.48 0 0 0-.36.16.5.5 0 0 0-.11.39 3.56 3.56 0 0 0 7 0 .5.5 0 0 0-.11-.39.48.48 0 0 0-.36-.16z" fill="#ff6242"/><path d="M24 39.78a4.39 4.39 0 0 0-2.71.83 3.6 3.6 0 0 0 5.42 0 4.39 4.39 0 0 0-2.71-.83z" fill="#ffa694"/></g></g><g><path class="cls-6" d="M21 38.32a.48.48 0 0 0-.36.16.5.5 0 0 0-.11.39 3.56 3.56 0 0 0 7 0 .5.5 0 0 0-.11-.39.48.48 0 0 0-.36-.16z"/></g><ellipse class="cls-7" cx="16.18" cy="36.29" rx="1.4" ry=".84"/><ellipse class="cls-7" cx="31.82" cy="36.29" rx="1.4" ry=".84"/></g><path d="M34.2 2.32A37.17 37.17 0 0 0 24 1a37.17 37.17 0 0 0-10.2 1.32A5.91 5.91 0 0 0 9.5 8v20.5a1 1 0 0 0 1 1h27a1 1 0 0 0 1-1V8a5.91 5.91 0 0 0-4.3-5.68z" fill="#525252"/><path d="M34.2 2.32A37.17 37.17 0 0 0 24 1a37.17 37.17 0 0 0-10.2 1.32A5.91 5.91 0 0 0 9.5 8v4a5.91 5.91 0 0 1 4.3-5.68A37.17 37.17 0 0 1 24 5a37.17 37.17 0 0 1 10.2 1.32A5.91 5.91 0 0 1 38.5 12V8a5.91 5.91 0 0 0-4.3-5.68z" fill="#656769"/><path class="cls-6" d="M34.2 2.32A37.17 37.17 0 0 0 24 1a37.17 37.17 0 0 0-10.2 1.32A5.91 5.91 0 0 0 9.5 8v20.5a1 1 0 0 0 1 1h27a1 1 0 0 0 1-1V8a5.91 5.91 0 0 0-4.3-5.68z"/><path d="M34.69 29.5V33a10.69 10.69 0 0 1-21.38 0v-3.5h-2v3.38a12.64 12.64 0 0 0 25.28 0V29.5z" fill="#debb7e" stroke="#45413c" stroke-linecap="round" stroke-linejoin="round"/></svg>