<svg xmlns="http://www.w3.org/2000/svg" viewBox="0 0 48 48"><defs><style>.cls-5{fill:#45413c}.cls-3{fill:none}.cls-3,.cls-4,.cls-5{stroke:#45413c;stroke-linecap:round;stroke-linejoin:round}.cls-4{fill:#ffe500}.cls-8{fill:#ffb59e;stroke:#ffaa54;stroke-miterlimit:10}</style></defs><ellipse cx="24" cy="45.5" rx="18.5" ry="1.5" opacity=".15" fill="#45413c"/><g><path d="M28.88 41.47A10.06 10.06 0 0 0 37 45.35c3.83 0 5.51-1.85 6.18-3a.5.5 0 0 0-.45-.76 2.22 2.22 0 0 1-2.56-2.43v-17A16.21 16.21 0 0 0 24 5.93a16.21 16.21 0 0 0-16.2 16.2v17.05a2.22 2.22 0 0 1-2.56 2.43.5.5 0 0 0-.45.76c.67 1.13 2.35 3 6.18 3a10.06 10.06 0 0 0 8.15-3.88z" fill="#724f3d"/><path class="cls-3" d="M28.88 41.47A10.06 10.06 0 0 0 37 45.35c3.83 0 5.51-1.85 6.18-3a.5.5 0 0 0-.45-.76 2.22 2.22 0 0 1-2.56-2.43v-17A16.21 16.21 0 0 0 24 5.93a16.21 16.21 0 0 0-16.2 16.2v17.05a2.22 2.22 0 0 1-2.56 2.43.5.5 0 0 0-.45.76c.67 1.13 2.35 3 6.18 3a10.06 10.06 0 0 0 8.15-3.88z"/><g><path class="cls-4" d="M37.5 25.51A13 13 0 0 1 29.05 18l-.93-2.22A23.67 23.67 0 0 1 13.31 25l-2.81.5a2.7 2.7 0 0 0 0 5.4h.17a13.48 13.48 0 0 0 26.66 0h.17a2.7 2.7 0 1 0 0-5.4z"/></g><path class="cls-5" d="M15.91 27.66a1.15 1.15 0 1 0 2.3 0 1.15 1.15 0 0 0-2.3 0z"/><path class="cls-5" d="M32.09 27.66a1.15 1.15 0 1 1-2.3 0 1.15 1.15 0 0 1 2.3 0z"/><g><path d="M19.78 34.65a.67.67 0 0 0-.5.23.64.64 0 0 0-.15.53 4.94 4.94 0 0 0 9.74 0 .66.66 0 0 0-.65-.76z" fill="#ff6242"/><path d="M24 36.68a6.06 6.06 0 0 0-3.76 1.15 5 5 0 0 0 7.52 0A6.06 6.06 0 0 0 24 36.68z" fill="#ffa694"/></g><g><path class="cls-3" d="M19.78 34.65a.67.67 0 0 0-.5.23.64.64 0 0 0-.15.53 4.94 4.94 0 0 0 9.74 0 .66.66 0 0 0-.65-.76z"/></g><ellipse class="cls-8" cx="15.16" cy="32.55" rx="1.49" ry=".89"/><ellipse class="cls-8" cx="32.84" cy="32.55" rx="1.49" ry=".89"/></g><path class="cls-4" d="M39.25 11a1.73 1.73 0 0 1-3.14-.44L34.57 4.5l-3 5.49a2.09 2.09 0 0 1-3.81-.21L24 .88l-3.75 8.9a2.09 2.09 0 0 1-3.81.21l-3-5.49-1.54 6.08a1.73 1.73 0 0 1-3.15.42L7.38 8.77l.54 6.11a1.64 1.64 0 0 0 .86 1.24C11.05 14.85 17 14 24 14s13 .9 15.22 2.17a1.64 1.64 0 0 0 .86-1.24l.54-6.11z"/><path d="M24 14c-8.93 0-16.2 1.48-16.2 3.31v3.31c0-1.83 7.27-3.31 16.2-3.31s16.2 1.48 16.2 3.31v-3.36C40.2 15.43 32.93 14 24 14z" fill="#ffe500"/><path d="M24 14c-8.93 0-16.2 1.48-16.2 3.31v1.39c0-1.83 7.27-3.32 16.2-3.32s16.2 1.49 16.2 3.32v-1.44C40.2 15.43 32.93 14 24 14z" fill="#fff48c"/><path class="cls-3" d="M24 14c-8.93 0-16.2 1.48-16.2 3.31v3.31c0-1.83 7.27-3.31 16.2-3.31s16.2 1.48 16.2 3.31v-3.36C40.2 15.43 32.93 14 24 14z"/><ellipse cx="24" cy="10.29" rx="1.36" ry="1.89" fill="#ff87af"/><path d="M24 9.9a1.43 1.43 0 0 1 1.25 1.1 2.56 2.56 0 0 0 .11-.75c0-1-.61-1.89-1.36-1.89s-1.36.85-1.36 1.89a2.56 2.56 0 0 0 .11.75A1.43 1.43 0 0 1 24 9.9z" fill="#ffb0ca"/><ellipse class="cls-3" cx="24" cy="10.29" rx="1.36" ry="1.89"/></svg>