<svg xmlns="http://www.w3.org/2000/svg" viewBox="0 0 48 48"><defs><style>.cls-3{fill:none}.cls-10,.cls-14,.cls-3,.cls-6{stroke:#45413c;stroke-linecap:round;stroke-linejoin:round}.cls-14,.cls-9{fill:#45413c}.cls-6{fill:#fff}.cls-8{fill:#ffb59e}.cls-10{fill:#009fd9}</style></defs><path d="M31.54 32.84L24 30l-7.54 2.87a6.76 6.76 0 0 0-4.35 6.31V45h23.78v-5.85a6.76 6.76 0 0 0-4.35-6.31z" fill="#656769"/><path d="M31.54 32.84L24 30l-7.54 2.87a6.76 6.76 0 0 0-4.35 6.31v3a6.76 6.76 0 0 1 4.35-6.31L24 33l7.54 2.87a6.76 6.76 0 0 1 4.35 6.31v-3a6.76 6.76 0 0 0-4.35-6.34z" fill="#525252"/><path class="cls-3" d="M31.54 32.84L24 30l-7.54 2.87a6.76 6.76 0 0 0-4.35 6.31V45h23.78v-5.85a6.76 6.76 0 0 0-4.35-6.31z"/><path stroke="#45413c" stroke-linecap="round" stroke-linejoin="round" fill="#656769" d="M30.23 35.83l2.13-.53-1.54-2.74L24 29.97l-6.82 2.59-1.54 2.74 2.13.53-.73 2.22L21.92 45h4.16l4.88-6.95-.73-2.22z"/><ellipse cx="24" cy="45.5" rx="13.5" ry="1.5" opacity=".15" fill="#45413c"/><path class="cls-6" d="M24 30s-5 0-5 2.81a10 10 0 0 0 2.16 5.78L24 36.15l2.89 2.44a10 10 0 0 0 2.16-5.78C29.05 30 24 30 24 30z"/><path d="M24 36.15l-2.25-2.25a1 1 0 0 1-.29-.7v-3A2.54 2.54 0 0 1 24 27.66a2.54 2.54 0 0 1 2.54 2.54v3a1 1 0 0 1-.29.7z" fill="#ffcebf"/><path class="cls-8" d="M24 27.66a2.54 2.54 0 0 0-2.54 2.54v.59a2.54 2.54 0 1 0 5.08 0v-.59A2.54 2.54 0 0 0 24 27.66z"/><path class="cls-3" d="M24 36.15l-2.25-2.25a1 1 0 0 1-.29-.7v-3A2.54 2.54 0 0 1 24 27.66a2.54 2.54 0 0 1 2.54 2.54v3a1 1 0 0 1-.29.7z"/><path class="cls-6" d="M26.89 38.59L26.05 45h-4.13l-.81-6.41L24 36.15l2.89 2.44z"/><circle class="cls-9" cx="24" cy="40.65" r=".5"/><circle class="cls-9" cx="24" cy="42.9" r=".5"/><path class="cls-10" d="M24 37.35l-3-1.81a1.2 1.2 0 0 0-1.82 1v1.51a1.2 1.2 0 0 0 1.81 1z"/><path class="cls-3" d="M21.44 37.35H24"/><path class="cls-10" d="M24 37.35l3-1.81a1.2 1.2 0 0 1 1.82 1v1.51a1.2 1.2 0 0 1-1.8 1z"/><path class="cls-3" d="M26.56 37.35H24"/><circle class="cls-10" cx="24" cy="37.35" r="1.39"/><path d="M24 6.91a9.82 9.82 0 0 0-2.44.3c-1.86.42-4.28 1.13-6.47.71a4.22 4.22 0 0 0 .84 3.21 9.81 9.81 0 0 0-1.75 5.6v5.14h19.64v-5.14A9.82 9.82 0 0 0 24 6.91z" fill="#a86c4d"/><g><path d="M24 6.91a9.82 9.82 0 0 0-2.44.3c-1.86.42-4.28 1.13-6.47.71a4.44 4.44 0 0 0 .68 3 18.77 18.77 0 0 0 5.79-.79 9.85 9.85 0 0 1 12.26 9.52v-2.92A9.82 9.82 0 0 0 24 6.91z" fill="#de926a"/></g><path class="cls-3" d="M24 6.91a9.82 9.82 0 0 0-2.44.3c-1.86.42-4.28 1.13-6.47.71a4.22 4.22 0 0 0 .84 3.21 9.81 9.81 0 0 0-1.75 5.6v5.14h19.64v-5.14A9.82 9.82 0 0 0 24 6.91z"/><path d="M34.87 21.12a1.83 1.83 0 0 0-1.39-1.54l-.59-.17a2 2 0 0 1-1.5-2v-2.04a1.86 1.86 0 0 0-1.4-1.8 15.52 15.52 0 0 1-6 1.09 15.52 15.52 0 0 1-6-1.09 1.86 1.86 0 0 0-1.4 1.8v2.07a2 2 0 0 1-1.5 2l-.59.17a1.83 1.83 0 0 0-1.39 1.54 1.81 1.81 0 0 0 1.81 2h.11a9 9 0 0 0 17.9 0h.11a1.81 1.81 0 0 0 1.83-2.03z" fill="#ffcebf" stroke="#45413c" stroke-linecap="round" stroke-linejoin="round"/><path class="cls-14" d="M18.57 20.91a.77.77 0 0 0 1.54 0 .77.77 0 1 0-1.54 0z"/><path class="cls-14" d="M29.43 20.91a.77.77 0 0 1-1.54 0 .77.77 0 1 1 1.54 0z"/><g><g><g><g><g><g><g><path d="M21.16 25.6a.46.46 0 0 0-.33.15.43.43 0 0 0-.1.36 3.32 3.32 0 0 0 6.54 0 .43.43 0 0 0-.1-.36.45.45 0 0 0-.33-.15z" fill="#ff6242"/><path d="M24 27a4.11 4.11 0 0 0-2.52.77 3.34 3.34 0 0 0 5 0A4.11 4.11 0 0 0 24 27z" fill="#ffa694"/></g></g></g></g></g></g></g><g><path class="cls-3" d="M21.16 25.6a.46.46 0 0 0-.33.15.43.43 0 0 0-.1.36 3.32 3.32 0 0 0 6.54 0 .43.43 0 0 0-.1-.36.45.45 0 0 0-.33-.15z"/></g><ellipse class="cls-8" cx="18.06" cy="24.19" rx="1" ry=".6"/><ellipse class="cls-8" cx="29.94" cy="24.19" rx="1" ry=".6"/></svg>