<svg xmlns="http://www.w3.org/2000/svg" viewBox="0 0 48 48"><defs><style>.cls-2{fill:#fff}.cls-3{fill:none}.cls-12,.cls-3{stroke:#45413c;stroke-linecap:round;stroke-linejoin:round}.cls-12{fill:#45413c}.cls-8{fill:#ffb59e}.cls-9{fill:#f0f0f0}</style></defs><path d="M7.89 45V27.86a18.51 18.51 0 0 1 2.38-9.08A10.29 10.29 0 0 1 20.55 8.49h6.9a10.29 10.29 0 0 1 10.28 10.29 18.51 18.51 0 0 1 2.38 9.08V45z" fill="#e0e0e0"/><path class="cls-2" d="M37.73 18.78A10.29 10.29 0 0 0 27.45 8.49h-6.9a10.29 10.29 0 0 0-10.28 10.29 18.51 18.51 0 0 0-2.38 9.08V45h1.69V31.91c0-5.39 1.34-7.84 3.38-9.08 0-5.68 4.12-10.29 9.2-10.29h3.68c5.08 0 9.2 4.61 9.2 10.29 2.21 1.24 3.38 2.94 3.38 9.08V45h1.69V27.86a18.51 18.51 0 0 0-2.38-9.08z"/><path class="cls-3" d="M7.89 45V27.86a18.51 18.51 0 0 1 2.38-9.08A10.29 10.29 0 0 1 20.55 8.49h6.9a10.29 10.29 0 0 1 10.28 10.29 18.51 18.51 0 0 1 2.38 9.08V45z"/><ellipse cx="24" cy="45.5" rx="18" ry="1.5" opacity=".15" fill="#45413c"/><path d="M24 6.32a10.88 10.88 0 0 1 10.89 10.87v21a1.22 1.22 0 0 1-.77 1.14 27.09 27.09 0 0 1-20.22 0 1.22 1.22 0 0 1-.77-1.14v-21A10.88 10.88 0 0 1 24 6.32z" fill="#a86c4d"/><path d="M24 6.32a10.88 10.88 0 0 0-10.87 10.87v3a10.88 10.88 0 0 1 21.76 0v-3A10.88 10.88 0 0 0 24 6.32z" fill="#de926a"/><path class="cls-3" d="M24 6.32a10.88 10.88 0 0 1 10.89 10.87v21a1.22 1.22 0 0 1-.77 1.14 27.09 27.09 0 0 1-20.22 0 1.22 1.22 0 0 1-.77-1.14v-21A10.88 10.88 0 0 1 24 6.32z"/><path d="M26.54 31.5v-1.78a2.54 2.54 0 1 0-5.08 0v1.78a11.87 11.87 0 0 0-9.34 11.6V45h23.76v-1.9a11.87 11.87 0 0 0-9.34-11.6z" fill="#ffcebf"/><path class="cls-8" d="M24 33a12 12 0 0 1 11.88 10.29v-.19a11.87 11.87 0 0 0-9.34-11.6v-1.78a2.54 2.54 0 1 0-5.08 0v1.78a11.87 11.87 0 0 0-9.34 11.6v.19A12 12 0 0 1 24 33z"/><path class="cls-3" d="M26.54 31.5v-1.78a2.54 2.54 0 1 0-5.08 0v1.78a11.87 11.87 0 0 0-9.34 11.6V45h23.76v-1.9a11.87 11.87 0 0 0-9.34-11.6z"/><path class="cls-2" d="M36.08 39.67a13.47 13.47 0 0 0-1.21-3.19 9 9 0 0 0-1.23-1.76 1 1 0 0 0-1.15-.21 7.42 7.42 0 0 0-2 1.45A5 5 0 0 0 29.13 38s-1.25-.75-5.13-.75-5.13.75-5.13.75a5 5 0 0 0-1.32-2 7.42 7.42 0 0 0-2-1.45 1 1 0 0 0-1.15.21 9 9 0 0 0-1.23 1.76 13.47 13.47 0 0 0-1.21 3.19 1 1 0 0 0 .84 1.24 10.79 10.79 0 0 1 4.31 1.68V45h13.82v-2.41a10.79 10.79 0 0 1 4.31-1.68 1 1 0 0 0 .84-1.24z"/><path class="cls-9" d="M13.22 41a11.54 11.54 0 0 1 4-5.31 7.9 7.9 0 0 0-1.75-1.17 1 1 0 0 0-1.15.21 9 9 0 0 0-1.23 1.76 13.47 13.47 0 0 0-1.21 3.19 1 1 0 0 0 .84 1.24zM36.08 39.67a13.47 13.47 0 0 0-1.21-3.19 9 9 0 0 0-1.23-1.76 1 1 0 0 0-1.15-.21 7.9 7.9 0 0 0-1.75 1.17 11.54 11.54 0 0 1 4 5.31l.46-.08a1 1 0 0 0 .88-1.24z"/><path class="cls-3" d="M36.08 39.67a13.47 13.47 0 0 0-1.21-3.19 9 9 0 0 0-1.23-1.76 1 1 0 0 0-1.15-.21 7.42 7.42 0 0 0-2 1.45A5 5 0 0 0 29.13 38s-1.25-.75-5.13-.75-5.13.75-5.13.75a5 5 0 0 0-1.32-2 7.42 7.42 0 0 0-2-1.45 1 1 0 0 0-1.15.21 9 9 0 0 0-1.23 1.76 13.47 13.47 0 0 0-1.21 3.19 1 1 0 0 0 .84 1.24 10.79 10.79 0 0 1 4.31 1.68V45h13.82v-2.41a10.79 10.79 0 0 1 4.31-1.68 1 1 0 0 0 .84-1.24z"/><path class="cls-3" d="M20.11 31.88L24 33.87l3.89-1.99"/><circle cx="24" cy="34.85" r=".98" fill="#ffe500" stroke="#45413c" stroke-linecap="round" stroke-linejoin="round"/><g><path d="M33.07 19.47a8.77 8.77 0 0 1-5.67-5L26.78 13a15.92 15.92 0 0 1-10 6.18l-1.89.34a1.81 1.81 0 1 0 0 3.62h.12a9 9 0 0 0 17.9 0h.11a1.81 1.81 0 1 0 0-3.62z" fill="#ffcebf" stroke="#45413c" stroke-linecap="round" stroke-linejoin="round"/></g><path class="cls-12" d="M18.58 20.91a.77.77 0 1 0 .77-.77.76.76 0 0 0-.77.77z"/><path class="cls-12" d="M29.44 20.91a.77.77 0 1 1-.77-.77.76.76 0 0 1 .77.77z"/><g><g><g><g><g><g><g><path d="M21.17 25.6a.42.42 0 0 0-.33.16.42.42 0 0 0-.1.35 3.32 3.32 0 0 0 6.54 0 .42.42 0 0 0-.1-.35.44.44 0 0 0-.33-.16z" fill="#ff6242"/><path d="M24 27a4 4 0 0 0-2.52.77 3.36 3.36 0 0 0 5 0A4 4 0 0 0 24 27z" fill="#ffa694"/></g></g></g></g></g></g></g><g><path class="cls-3" d="M21.17 25.6a.42.42 0 0 0-.33.16.42.42 0 0 0-.1.35 3.32 3.32 0 0 0 6.54 0 .42.42 0 0 0-.1-.35.44.44 0 0 0-.33-.16z"/></g><ellipse class="cls-8" cx="18.07" cy="24.19" rx="1" ry=".6"/><ellipse class="cls-8" cx="29.95" cy="24.19" rx="1" ry=".6"/><path d="M15 11.09a10.17 10.17 0 0 0-1.13 2.17A31.62 31.62 0 0 0 24 14.68a31.66 31.66 0 0 0 10.13-1.42A10.64 10.64 0 0 0 33 11.09a30.58 30.58 0 0 1-9 1.22 30.58 30.58 0 0 1-9-1.22z" stroke="#45413c" stroke-linecap="round" stroke-linejoin="round" fill="#fff"/></svg>