<svg xmlns="http://www.w3.org/2000/svg" viewBox="0 0 48 48"><defs><style>.cls-1{fill:#9f5ae5}.cls-2{fill:#bf8df2}.cls-3{fill:none;stroke:#45413c;stroke-linecap:round;stroke-linejoin:round}.cls-4{fill:#ffcebf}.cls-5{fill:#ffdcd1}</style></defs><path class="cls-1" d="M29.45 23.82a2.5 2.5 0 0 0-2.5-2.5h-1.2A7 7 0 0 0 21.14 23a8.41 8.41 0 0 0-2.71 4.69 1 1 0 0 1-.83.79 9.09 9.09 0 0 0-7.7 9.8 9.28 9.28 0 0 0 9.34 8.26h9.36a1 1 0 0 0 1-1v-4.96a13.75 13.75 0 0 0-.16-2.09c-.77-4.86.01-9.75.01-14.67z"/><g><path class="cls-2" d="M10 38.86a9.07 9.07 0 0 1 7.61-7.54 1 1 0 0 0 .83-.79 8.44 8.44 0 0 1 2.71-4.7 7 7 0 0 1 4.61-1.68H27a2.52 2.52 0 0 1 2.45 2c0-.78.05-1.55.05-2.33a2.5 2.5 0 0 0-2.5-2.5h-1.2A7 7 0 0 0 21.14 23a8.41 8.41 0 0 0-2.71 4.69 1 1 0 0 1-.83.79 9.09 9.09 0 0 0-7.7 9.8c.02.17.1.38.1.58z"/></g><path class="cls-3" d="M29.45 23.82a2.5 2.5 0 0 0-2.5-2.5h-1.2A7 7 0 0 0 21.14 23a8.41 8.41 0 0 0-2.71 4.69 1 1 0 0 1-.83.79 9.09 9.09 0 0 0-7.7 9.8 9.28 9.28 0 0 0 9.34 8.26h9.36a1 1 0 0 0 1-1v-4.96a13.75 13.75 0 0 0-.16-2.09c-.77-4.86.01-9.75.01-14.67z"/><path class="cls-4" d="M13.7 28.26h2.15a1.2 1.2 0 0 1 1.2 1.2v.12a2.18 2.18 0 0 1-2.18 2.18h-.19a2.18 2.18 0 0 1-2.18-2.18v-.12a1.2 1.2 0 0 1 1.2-1.2z" transform="rotate(-28.98 14.782 30.012)"/><path class="cls-5" d="M12.58 30.73a3.17 3.17 0 0 0 .29.4L13 31l2.58-1.43a1.24 1.24 0 0 1 1.21 0 2.18 2.18 0 0 0-.27-1.07l-.06-.1a1.19 1.19 0 0 0-1.59-.4L13 29a1.2 1.2 0 0 0-.47 1.63z"/><path class="cls-3" d="M13.7 28.26h2.15a1.2 1.2 0 0 1 1.2 1.2v.12a2.18 2.18 0 0 1-2.18 2.18h-.19a2.18 2.18 0 0 1-2.18-2.18v-.12a1.2 1.2 0 0 1 1.2-1.2z" transform="rotate(-28.98 14.782 30.012)"/><path class="cls-4" d="M23.6 27.21l-.54 1.33a9.89 9.89 0 0 1-6.93 5.92 2 2 0 0 0-1.48 2.36A2 2 0 0 0 17 38.29 13.81 13.81 0 0 0 26.71 30l.54-1.33z"/><path class="cls-5" d="M14.65 36.82a1.93 1.93 0 0 0 .19.47A2.32 2.32 0 0 1 16.41 36a11.73 11.73 0 0 0 8.23-7l.48-1.18-1.52-.61-.54 1.33a9.89 9.89 0 0 1-6.93 5.92 2 2 0 0 0-1.48 2.36z"/><path class="cls-3" d="M23.6 27.21l-.54 1.33a9.89 9.89 0 0 1-6.93 5.92 2 2 0 0 0-1.48 2.36A2 2 0 0 0 17 38.29 13.81 13.81 0 0 0 26.71 30l.54-1.33z"/><path class="cls-1" d="M26.6 21.85a2.41 2.41 0 0 1 2.4 2.41v4.34h-4.81v-4.34a2.41 2.41 0 0 1 2.41-2.41z" transform="rotate(22.1 26.617 25.236)"/><path class="cls-2" d="M27.87 22.1a2.41 2.41 0 0 0-3.14 1.32l-.73 1.7a2.41 2.41 0 0 1 4.46 1.81l.69-1.7a2.4 2.4 0 0 0-1.28-3.13z"/><path class="cls-3" d="M26.6 21.85a2.41 2.41 0 0 1 2.4 2.41v4.34h-4.81v-4.34a2.41 2.41 0 0 1 2.41-2.41z" transform="rotate(22.1 26.617 25.236)"/><ellipse cx="25.05" cy="12.12" rx="7.27" ry="6.92" transform="rotate(-81.72 25.049 12.118)" fill="#ffcebf" stroke="#45413c" stroke-linecap="round" stroke-linejoin="round"/><path d="M17.6 9.44a9.93 9.93 0 0 0 4 1.87c3 .88 4 .22 4 .22a2.22 2.22 0 0 1 2.59.07 2 2 0 0 1-1.45 3.4 13.11 13.11 0 0 1-1.34 6.37.51.51 0 0 0 .41.78c3.75.34 7.13-1.48 7.87-2.34s.8-8.49-.69-12.87c-.91-2.69-4.85-4.69-8.65-4-4.93.89-6.74 4.45-6.74 6.5z" fill="#a86c4d"/><g><path d="M24.34 5.65C28.14 5 32.08 7 33 9.65a28.41 28.41 0 0 1 1.19 7.46A31.42 31.42 0 0 0 33 6.94c-.91-2.69-4.85-4.69-8.65-4-4.93.89-6.74 4.45-6.74 6.5a4.27 4.27 0 0 0 .59.43 8.13 8.13 0 0 1 6.14-4.22z" fill="#de926a"/></g><path class="cls-3" d="M17.6 9.44a9.93 9.93 0 0 0 4 1.87c3 .88 4 .22 4 .22a2.22 2.22 0 0 1 2.59.07 2 2 0 0 1-1.45 3.4 13.11 13.11 0 0 1-1.34 6.37.51.51 0 0 0 .41.78c3.75.34 7.13-1.48 7.87-2.34s.8-8.49-.69-12.87c-.91-2.69-4.85-4.69-8.65-4-4.93.89-6.74 4.45-6.74 6.5z"/></svg>