<svg xmlns="http://www.w3.org/2000/svg" viewBox="0 0 48 48"><defs><style>.cls-1{fill:#fff}.cls-2{fill:#e5feff}.cls-3{fill:none}.cls-3,.cls-4,.cls-8{stroke:#45413c;stroke-linecap:round;stroke-linejoin:round}.cls-4{fill:#ffcebf}.cls-6{fill:#ffb59e}.cls-8{fill:#45413c}</style></defs><path class="cls-1" d="M3.07 32.35h8.71a5.47 5.47 0 1 1 0 10.93H8.13a1.83 1.83 0 0 1 0-3.65H5.39a1.82 1.82 0 1 1 0-3.64H3.07a1.82 1.82 0 0 1 0-3.64z"/><g><path class="cls-2" d="M8.13 41.31h3.65a5.46 5.46 0 0 0 5.37-4.48 5.25 5.25 0 0 1 .1 1 5.47 5.47 0 0 1-5.47 5.47H8.13a1.83 1.83 0 0 1-1.82-1.82 1.85 1.85 0 0 1 .29-1 1.8 1.8 0 0 0 1.53.83z"/></g><path class="cls-3" d="M3.07 32.35h8.71a5.47 5.47 0 1 1 0 10.93H8.13a1.83 1.83 0 0 1 0-3.65H5.39a1.82 1.82 0 1 1 0-3.64H3.07a1.82 1.82 0 0 1 0-3.64z"/><path class="cls-3" d="M9.54 35.99H5.39"/><path class="cls-3" d="M8.13 39.63h3.12"/><path class="cls-1" d="M44.93 32.35h-8.71a5.47 5.47 0 1 0 0 10.93h3.65a1.83 1.83 0 0 0 0-3.65h2.74a1.82 1.82 0 0 0 0-3.64h2.32a1.82 1.82 0 1 0 0-3.64z"/><g><path class="cls-2" d="M39.87 41.31h-3.65a5.46 5.46 0 0 1-5.37-4.48 5.25 5.25 0 0 0-.1 1 5.47 5.47 0 0 0 5.47 5.47h3.65a1.83 1.83 0 0 0 1.82-1.82 1.85 1.85 0 0 0-.29-1 1.8 1.8 0 0 1-1.53.83z"/></g><path class="cls-3" d="M44.93 32.35h-8.71a5.47 5.47 0 1 0 0 10.93h3.65a1.83 1.83 0 0 0 0-3.65h2.74a1.82 1.82 0 0 0 0-3.64h2.32a1.82 1.82 0 1 0 0-3.64z"/><path class="cls-3" d="M38.46 35.99h4.15"/><path class="cls-3" d="M39.87 39.63h-3.12"/><ellipse class="cls-4" cx="8.93" cy="25.93" rx="2.94" ry="3.25"/><ellipse class="cls-4" cx="39.07" cy="25.93" rx="2.94" ry="3.25"/><circle cx="24" cy="25.93" r="15.07" fill="#ffcebf"/><path class="cls-6" d="M24 10.87a15.07 15.07 0 1 0 15.07 15.06A15.07 15.07 0 0 0 24 10.87zm0 27.87A13.75 13.75 0 1 1 37.75 25 13.75 13.75 0 0 1 24 38.74z"/><ellipse cx="24" cy="45.5" rx="16" ry="1.5" opacity=".15" fill="#45413c"/><circle class="cls-3" cx="24" cy="25.93" r="15.07"/><path class="cls-8" d="M16.84 25.86a.75.75 0 1 1-.75-.76.75.75 0 0 1 .75.76z"/><path class="cls-8" d="M31.16 25.86a.75.75 0 1 0 .75-.76.75.75 0 0 0-.75.76z"/><path class="cls-6" d="M34.92 30.38c0 .62-.84 1.13-1.88 1.13s-1.88-.51-1.88-1.13.84-1.13 1.84-1.13 1.92.5 1.92 1.13z"/><path class="cls-6" d="M13.08 30.38c0 .62.84 1.13 1.88 1.13s1.88-.51 1.88-1.13S16 29.25 15 29.25s-1.92.5-1.92 1.13z"/><path d="M39.75 22.43S39.25 7.62 24 7.62C9.38 7.62 8.19 20.56 8.13 22.25a3.77 3.77 0 0 1 .58 0 6 6 0 0 0 5.11-1.61l.25 1.69 5.25-2.69a11.22 11.22 0 0 0 6.18 3 16 16 0 0 0 5.66 0l.47-2.64 1.88 1.29a7.83 7.83 0 0 0 6.24 1.14z" fill="#a86c4d"/><path d="M24 10.57c11 0 14.3 7.64 15.31 12 .15 0 .3-.05.44-.09S39.25 7.62 24 7.62C9.38 7.62 8.19 20.56 8.13 22.25a3.11 3.11 0 0 1 .43 0C9.58 17.94 13 10.57 24 10.57z" fill="#de926a"/><path class="cls-3" d="M39.75 22.43S39.25 7.62 24 7.62C9.38 7.62 8.19 20.56 8.13 22.25a3.77 3.77 0 0 1 .58 0 6 6 0 0 0 5.11-1.61l.25 1.69 5.25-2.69a11.22 11.22 0 0 0 6.18 3 16 16 0 0 0 5.66 0l.47-2.64 1.88 1.29a7.83 7.83 0 0 0 6.24 1.14z"/><path id="_Compound_Path_2" d="M24 2.5c-8.53 0-15.44 2.71-15.44 6.06s6.91 6.07 15.44 6.07 15.44-2.72 15.44-6.07S32.53 2.5 24 2.5zm0 9.07c-6 0-10.92-1.35-10.92-3s4.89-3 10.92-3 10.92 1.35 10.92 3-4.92 3-10.92 3z" fill="#ffe500"/><g><path d="M24 4.38c7.71 0 14.09 2.22 15.24 5.12a2.56 2.56 0 0 0 .2-.94c0-3.35-6.91-6.06-15.44-6.06S8.56 5.21 8.56 8.56a2.56 2.56 0 0 0 .2.94C9.91 6.6 16.29 4.38 24 4.38z" fill="#fff48c"/></g><path id="_Compound_Path_3" class="cls-3" d="M24 2.5c-8.53 0-15.44 2.71-15.44 6.06s6.91 6.07 15.44 6.07 15.44-2.72 15.44-6.07S32.53 2.5 24 2.5zm0 9.07c-6 0-10.92-1.35-10.92-3s4.89-3 10.92-3 10.92 1.35 10.92 3-4.92 3-10.92 3z"/><path class="cls-3" d="M19.85 33.5A5.12 5.12 0 0 0 24 35.25a5.12 5.12 0 0 0 4.15-1.75"/></svg>