<svg xmlns="http://www.w3.org/2000/svg" viewBox="0 0 48 48"><defs><style>.cls-1{fill:#ffcebf}.cls-1,.cls-4,.cls-5{stroke:#45413c;stroke-linecap:round;stroke-linejoin:round}.cls-4{fill:none}.cls-5{fill:#45413c}.cls-8{fill:#ffb59e}</style></defs><path class="cls-1" d="M10.75 12.3a11.76 11.76 0 0 1 7.78-3.78A1.39 1.39 0 0 1 20 10a1.37 1.37 0 0 1-.49 1l-4.7 3.93z"/><path class="cls-1" d="M37.25 12.3a11.76 11.76 0 0 0-7.78-3.78A1.39 1.39 0 0 0 28 10a1.37 1.37 0 0 0 .49 1l4.7 3.93z"/><path d="M24 9.82a10.88 10.88 0 0 1 10.88 10.87v14.19a1.24 1.24 0 0 1-.77 1.12 27.09 27.09 0 0 1-20.22 0 1.24 1.24 0 0 1-.77-1.14V20.69A10.88 10.88 0 0 1 24 9.82z" fill="#a86c4d"/><path d="M24 9.82a10.88 10.88 0 0 0-10.88 10.87v3a10.88 10.88 0 0 1 21.76 0v-3A10.88 10.88 0 0 0 24 9.82z" fill="#de926a"/><path class="cls-4" d="M24 9.82a10.88 10.88 0 0 1 10.88 10.87v14.19a1.24 1.24 0 0 1-.77 1.12 27.09 27.09 0 0 1-20.22 0 1.24 1.24 0 0 1-.77-1.14V20.69A10.88 10.88 0 0 1 24 9.82z"/><g><path class="cls-1" d="M33.06 23a8.77 8.77 0 0 1-5.67-5l-.62-1.49a15.92 15.92 0 0 1-9.95 6.18l-1.89.31a1.81 1.81 0 0 0 0 3.62h.12a9 9 0 0 0 17.9 0h.11a1.81 1.81 0 1 0 0-3.62z"/></g><path class="cls-5" d="M18.57 24.41a.77.77 0 1 0 .77-.77.76.76 0 0 0-.77.77z"/><path class="cls-5" d="M29.43 24.41a.77.77 0 1 1-.77-.77.76.76 0 0 1 .77.77z"/><g><g><g><g><g><g><g><path d="M21.16 29.1a.44.44 0 0 0-.33.16.42.42 0 0 0-.1.35 3.32 3.32 0 0 0 6.54 0 .42.42 0 0 0-.1-.35.42.42 0 0 0-.33-.16z" fill="#ff6242"/><path d="M24 30.47a4 4 0 0 0-2.52.77 3.36 3.36 0 0 0 5 0 4 4 0 0 0-2.48-.77z" fill="#ffa694"/></g></g></g></g></g></g></g><g><path class="cls-4" d="M21.16 29.1a.44.44 0 0 0-.33.16.42.42 0 0 0-.1.35 3.32 3.32 0 0 0 6.54 0 .42.42 0 0 0-.1-.35.44.44 0 0 0-.33-.16z"/></g><ellipse class="cls-8" cx="18.06" cy="27.69" rx="1" ry=".6"/><ellipse class="cls-8" cx="29.94" cy="27.69" rx="1" ry=".6"/><ellipse cx="24" cy="45.5" rx="15" ry="1.5" opacity=".15" fill="#45413c"/><path d="M36.92 12.52l-3.71 2.39s2.29 3.23 1.67 10.16a19.38 19.38 0 0 1-3.31 9.23 3 3 0 0 1-3.48 1.14 12 12 0 0 0-8.18 0 3 3 0 0 1-3.48-1.14 19.38 19.38 0 0 1-3.31-9.23c-.62-6.93 1.67-10.16 1.67-10.16l-3.71-2.39a1 1 0 0 0-1.39.32 26.63 26.63 0 0 0-4.3 16.51C6 41.57 13.37 45 13.37 45h21.26s7.34-3.43 8-15.65a26.63 26.63 0 0 0-4.3-16.51 1 1 0 0 0-1.41-.32z" fill="#ff87af"/><g><path d="M13.08 24.53a24.08 24.08 0 0 0 0 4 19.33 19.33 0 0 0 3.31 9.22 3 3 0 0 0 3.48 1.14 12 12 0 0 1 8.18 0 3 3 0 0 0 3.48-1.14 19.33 19.33 0 0 0 3.31-9.22 24.08 24.08 0 0 0 0-4v.54a19.42 19.42 0 0 1-3.31 9.23 3 3 0 0 1-3.48 1.14 12 12 0 0 0-8.18 0 3 3 0 0 1-3.48-1.14 19.38 19.38 0 0 1-3.31-9.23c.03-.18.01-.36 0-.54z" fill="#ff6196"/></g><path class="cls-4" d="M36.92 12.52l-3.71 2.39s2.29 3.23 1.67 10.16a19.38 19.38 0 0 1-3.31 9.23 3 3 0 0 1-3.48 1.14 12 12 0 0 0-8.18 0 3 3 0 0 1-3.48-1.14 19.38 19.38 0 0 1-3.31-9.23c-.62-6.93 1.67-10.16 1.67-10.16l-3.71-2.39a1 1 0 0 0-1.39.32 26.63 26.63 0 0 0-4.3 16.51C6 41.57 13.37 45 13.37 45h21.26s7.34-3.43 8-15.65a26.63 26.63 0 0 0-4.3-16.51 1 1 0 0 0-1.41-.32z"/><path d="M24 34.3a8.86 8.86 0 0 1-2.54-.37v2.14a2.54 2.54 0 1 0 5.08 0v-2.14a8.86 8.86 0 0 1-2.54.37z" fill="#ffcebf"/><path class="cls-8" d="M24 34.3a8.86 8.86 0 0 1-2.54-.37 2.54 2.54 0 1 0 5.08 0 8.86 8.86 0 0 1-2.54.37z"/><path class="cls-4" d="M24 34.3a8.86 8.86 0 0 1-2.54-.37v2.14a2.54 2.54 0 1 0 5.08 0v-2.14a8.86 8.86 0 0 1-2.54.37z"/></svg>