<svg xmlns="http://www.w3.org/2000/svg" viewBox="0 0 48 48"><defs><style>.cls-11{fill:#45413c}.cls-4{fill:none}.cls-11,.cls-4,.cls-8{stroke:#45413c;stroke-linecap:round;stroke-linejoin:round}.cls-8{fill:#ffe500}.cls-14{fill:#ffaa54}</style></defs><ellipse cx="24" cy="45.5" rx="15" ry="1.5" opacity=".15" fill="#45413c"/><path d="M35.88 45H12.12v-1.9a11.88 11.88 0 1 1 23.76 0z" fill="#00b8f0"/><path d="M24 31.22A11.88 11.88 0 0 0 12.12 43.1V45h.17a11.88 11.88 0 0 1 23.42 0h.17v-1.9A11.88 11.88 0 0 0 24 31.22z" fill="#009fd9"/><path class="cls-4" d="M35.88 45H12.12v-1.9a11.88 11.88 0 1 1 23.76 0z"/><path d="M24 27.17a2.54 2.54 0 0 0-2.54 2.55v2.85a2.54 2.54 0 1 0 5.08 0v-2.85A2.54 2.54 0 0 0 24 27.17z" fill="#ffe500"/><path d="M24 27.17a2.54 2.54 0 0 0-2.54 2.55v.67a2.54 2.54 0 0 0 5.08 0v-.67A2.54 2.54 0 0 0 24 27.17z" fill="#ebcb00"/><path class="cls-4" d="M24 27.17a2.54 2.54 0 0 0-2.54 2.55v2.85a2.54 2.54 0 1 0 5.08 0v-2.85A2.54 2.54 0 0 0 24 27.17z"/><path class="cls-4" d="M17.06 45v-2.41"/><path stroke="#45413c" stroke-linecap="round" stroke-linejoin="round" fill="#00b8f0" d="M37.75 45h-6l1.04-15.32h4.96V45z"/><path class="cls-8" d="M35.73 28.46l3.27-.35a.88.88 0 0 0 .78-1 .88.88 0 0 0-1-.78l-4.37.47z"/><path class="cls-8" d="M42 27.79l-4.15.44a4 4 0 0 0-3.46-1.4 1.87 1.87 0 0 0-1.66 2.05 1.87 1.87 0 0 0 2.06 1.66l7.42-.8a1 1 0 1 0-.21-1.95z"/><path d="M24 6.88a9.83 9.83 0 0 0-2.44.31c-1.86.42-4.28 1.12-6.47.7a4.17 4.17 0 0 0 .84 3.21 9.81 9.81 0 0 0-1.75 5.6v5.15h19.64V16.7A9.82 9.82 0 0 0 24 6.88z" fill="#724f3d"/><g><path d="M24 6.88a9.83 9.83 0 0 0-2.44.31c-1.86.42-4.28 1.12-6.47.7a4.47 4.47 0 0 0 .68 3 18.77 18.77 0 0 0 5.79-.79 9.81 9.81 0 0 1 12.26 9.52V16.7A9.82 9.82 0 0 0 24 6.88z" fill="#a86c4d"/></g><path class="cls-4" d="M24 6.88a9.83 9.83 0 0 0-2.44.31c-1.86.42-4.28 1.12-6.47.7a4.17 4.17 0 0 0 .84 3.21 9.81 9.81 0 0 0-1.75 5.6v5.15h19.64V16.7A9.82 9.82 0 0 0 24 6.88z"/><path class="cls-8" d="M34.87 21.1a1.84 1.84 0 0 0-1.39-1.55l-.59-.16a2 2 0 0 1-1.5-2v-2.04a1.86 1.86 0 0 0-1.4-1.8 15.53 15.53 0 0 1-6 1.08 15.53 15.53 0 0 1-6-1.08 1.86 1.86 0 0 0-1.4 1.8v2.06a2 2 0 0 1-1.5 2l-.59.16a1.84 1.84 0 0 0-1.39 1.55 1.8 1.8 0 0 0 1.81 2h.11a9 9 0 0 0 17.9 0h.11a1.8 1.8 0 0 0 1.83-2.02z"/><path class="cls-11" d="M18.57 20.88a.77.77 0 0 0 1.54 0 .77.77 0 0 0-1.54 0z"/><path class="cls-11" d="M29.43 20.88a.77.77 0 0 1-1.54 0 .77.77 0 0 1 1.54 0z"/><g><g><g><g><g><g><g><path d="M21.16 25.58a.41.41 0 0 0-.33.15.42.42 0 0 0-.1.35 3.32 3.32 0 0 0 6.54 0 .42.42 0 0 0-.1-.35.43.43 0 0 0-.33-.15z" fill="#ff6242"/><path d="M24 26.94a4 4 0 0 0-2.52.77 3.36 3.36 0 0 0 5 0 4 4 0 0 0-2.48-.77z" fill="#ffa694"/></g></g></g></g></g></g></g><g><path class="cls-4" d="M21.16 25.58a.41.41 0 0 0-.33.15.42.42 0 0 0-.1.35 3.32 3.32 0 0 0 6.54 0 .42.42 0 0 0-.1-.35.43.43 0 0 0-.33-.15z"/></g><ellipse class="cls-14" cx="18.06" cy="24.17" rx="1" ry=".6"/><ellipse class="cls-14" cx="29.94" cy="24.17" rx="1" ry=".6"/></svg>