<svg xmlns="http://www.w3.org/2000/svg" viewBox="0 0 48 48"><defs><style>.cls-3{fill:none}.cls-11,.cls-3,.cls-8{stroke:#45413c;stroke-linecap:round;stroke-linejoin:round}.cls-11{fill:#45413c}.cls-8{fill:#ffcebf}.cls-10{fill:#ffb59e}</style></defs><path d="M34.88 31.21a1 1 0 0 1-1 1H14.12a1 1 0 0 1-1-1v-14a10.88 10.88 0 0 1 21.76 0z" fill="#a86c4d"/><path d="M24 6.32a10.88 10.88 0 0 0-10.88 10.87v2.9a10.88 10.88 0 0 1 21.76 0v-2.9A10.88 10.88 0 0 0 24 6.32z" fill="#de926a"/><path class="cls-3" d="M34.88 31.21a1 1 0 0 1-1 1H14.12a1 1 0 0 1-1-1v-14a10.88 10.88 0 0 1 21.76 0z"/><ellipse cx="24" cy="45.5" rx="15" ry="1.5" opacity=".15" fill="#45413c"/><path d="M35.88 45H12.12v-1.9a11.88 11.88 0 1 1 23.76 0z" fill="#ff87af"/><path d="M24 31.22A11.88 11.88 0 0 0 12.12 43.1V45h.17a11.88 11.88 0 0 1 23.42 0h.17v-1.9A11.88 11.88 0 0 0 24 31.22z" fill="#ff6196"/><path class="cls-3" d="M35.88 45H12.12v-1.9a11.88 11.88 0 1 1 23.76 0z"/><path class="cls-3" d="M17.06 45v-2.41"/><path fill="#ff87af" stroke="#45413c" stroke-linecap="round" stroke-linejoin="round" d="M37.75 45h-6l1.04-15.32h4.96V45z"/><path class="cls-8" d="M35.73 28.46l3.27-.35a.88.88 0 0 0 .78-1 .88.88 0 0 0-1-.78l-4.37.47z"/><path class="cls-8" d="M42 27.79l-4.15.44a4 4 0 0 0-3.46-1.4 1.87 1.87 0 0 0-1.66 2.05 1.87 1.87 0 0 0 2.06 1.66l7.42-.8a1 1 0 1 0-.21-1.95z"/><path d="M24 27.17a2.54 2.54 0 0 0-2.54 2.55v2.85a2.54 2.54 0 1 0 5.08 0v-2.85A2.54 2.54 0 0 0 24 27.17z" fill="#ffcebf"/><path class="cls-10" d="M24 27.17a2.54 2.54 0 0 0-2.54 2.55v.67a2.54 2.54 0 0 0 5.08 0v-.67A2.54 2.54 0 0 0 24 27.17z"/><path class="cls-3" d="M24 27.17a2.54 2.54 0 0 0-2.54 2.55v2.85a2.54 2.54 0 1 0 5.08 0v-2.85A2.54 2.54 0 0 0 24 27.17z"/><g><path class="cls-8" d="M33.06 19.47a8.77 8.77 0 0 1-5.67-5L26.77 13a15.92 15.92 0 0 1-9.95 6.18l-1.89.34a1.81 1.81 0 0 0 0 3.62h.12a9 9 0 0 0 17.9 0h.11a1.81 1.81 0 1 0 0-3.62z"/></g><path class="cls-11" d="M18.57 20.91a.77.77 0 1 0 .77-.77.76.76 0 0 0-.77.77z"/><path class="cls-11" d="M29.43 20.91a.77.77 0 1 1-.77-.77.76.76 0 0 1 .77.77z"/><g><path d="M21.16 25.6a.44.44 0 0 0-.33.16.42.42 0 0 0-.1.35 3.32 3.32 0 0 0 6.54 0 .42.42 0 0 0-.1-.35.42.42 0 0 0-.33-.16z" fill="#ff6242"/><path d="M24 27a4 4 0 0 0-2.52.77 3.36 3.36 0 0 0 5 0A4 4 0 0 0 24 27z" fill="#ffa694"/></g><g><path class="cls-3" d="M21.16 25.6a.44.44 0 0 0-.33.16.42.42 0 0 0-.1.35 3.32 3.32 0 0 0 6.54 0 .42.42 0 0 0-.1-.35.42.42 0 0 0-.33-.16z"/></g><ellipse class="cls-10" cx="18.06" cy="24.19" rx="1" ry=".6"/><ellipse class="cls-10" cx="29.94" cy="24.19" rx="1" ry=".6"/></svg>