<svg xmlns="http://www.w3.org/2000/svg" viewBox="0 0 48 48"><defs><style>.cls-3{fill:none}.cls-3,.cls-5{stroke:#45413c;stroke-linecap:round;stroke-linejoin:round}.cls-9{fill:#ffcebf}.cls-5{fill:#45413c}.cls-8{fill:#ffb59e}</style></defs><path d="M24 6.38a10.88 10.88 0 0 1 10.88 10.87v14.19a1.24 1.24 0 0 1-.77 1.14 27.09 27.09 0 0 1-20.22 0 1.24 1.24 0 0 1-.77-1.14V17.25A10.88 10.88 0 0 1 24 6.38z" fill="#a86c4d"/><path d="M24 6.38a10.88 10.88 0 0 0-10.88 10.87v3a10.88 10.88 0 0 1 21.76 0v-3A10.88 10.88 0 0 0 24 6.38z" fill="#de926a"/><path class="cls-3" d="M24 6.38a10.88 10.88 0 0 1 10.88 10.87v14.19a1.24 1.24 0 0 1-.77 1.14 27.09 27.09 0 0 1-20.22 0 1.24 1.24 0 0 1-.77-1.14V17.25A10.88 10.88 0 0 1 24 6.38z"/><g><path d="M33.06 19.53a8.77 8.77 0 0 1-5.67-5L26.77 13a15.92 15.92 0 0 1-9.95 6.18l-1.89.34a1.81 1.81 0 0 0 0 3.62h.12a9 9 0 0 0 17.9 0h.11a1.81 1.81 0 1 0 0-3.62z" fill="#ffcebf" stroke="#45413c" stroke-linecap="round" stroke-linejoin="round"/></g><path class="cls-5" d="M18.57 21a.77.77 0 1 0 .77-.77.76.76 0 0 0-.77.77z"/><path class="cls-5" d="M29.43 21a.77.77 0 1 1-.77-.77.76.76 0 0 1 .77.77z"/><g><path d="M21.16 25.66a.44.44 0 0 0-.33.16.42.42 0 0 0-.1.35 3.32 3.32 0 0 0 6.54 0 .42.42 0 0 0-.1-.35.44.44 0 0 0-.33-.16z" fill="#ff6242"/><path d="M24 27a4 4 0 0 0-2.52.77 3.36 3.36 0 0 0 5 0A4 4 0 0 0 24 27z" fill="#ffa694"/></g><g><path class="cls-3" d="M21.16 25.66a.44.44 0 0 0-.33.16.42.42 0 0 0-.1.35 3.32 3.32 0 0 0 6.54 0 .42.42 0 0 0-.1-.35.44.44 0 0 0-.33-.16z"/></g><ellipse class="cls-8" cx="18.06" cy="24.25" rx="1" ry=".6"/><ellipse class="cls-8" cx="29.94" cy="24.25" rx="1" ry=".6"/><path class="cls-9" d="M16.67 10.7a1.1 1.1 0 0 0-.66-2h-.79a.28.28 0 0 1-.29-.31l.23-2.31a1.75 1.75 0 0 0-2.69-1.69 2.12 2.12 0 0 1-1.47.44 1.26 1.26 0 0 0-1.37 1 35.55 35.55 0 0 0-.73 8.66l4.86.35.12-2.07z"/><path d="M10.55 6.75a2.48 2.48 0 0 0 1.68-.43 2 2 0 0 1 2.84.68l.09-.89a1.75 1.75 0 0 0-2.69-1.69 2.12 2.12 0 0 1-1.47.41 1.26 1.26 0 0 0-1.37 1c-.08.43-.14.85-.21 1.27a1.43 1.43 0 0 1 1.13-.35z" fill="#ffdcd1"/><path class="cls-3" d="M16.67 10.7a1.1 1.1 0 0 0-.66-2h-.79a.28.28 0 0 1-.29-.31l.23-2.31a1.75 1.75 0 0 0-2.69-1.69 2.12 2.12 0 0 1-1.47.44 1.26 1.26 0 0 0-1.37 1 35.55 35.55 0 0 0-.73 8.66l4.86.35.12-2.07z"/><ellipse cx="24" cy="45.5" rx="15" ry="1.5" opacity=".15" fill="#45413c"/><path d="M24.15 31.22a11.8 11.8 0 0 0-4.18.7 3.49 3.49 0 0 1-4.58-2.19 37 37 0 0 1-1.17-15.61H8.16a97.42 97.42 0 0 0 0 13.8 53.2 53.2 0 0 0 4 17.08h23.72v-1.51a12.14 12.14 0 0 0-11.73-12.27z" fill="#ff87af"/><g><path d="M24.15 31.22a11.8 11.8 0 0 0-4.18.7 3.49 3.49 0 0 1-4.58-2.19 33.64 33.64 0 0 1-1.49-8.79A35.75 35.75 0 0 0 15.39 33 3.49 3.49 0 0 0 20 35.19a11.8 11.8 0 0 1 4.18-.7A12.07 12.07 0 0 1 35.75 45h.13v-1.51a12.14 12.14 0 0 0-11.73-12.27z" fill="#ff6196"/></g><path class="cls-3" d="M24.15 31.22a11.8 11.8 0 0 0-4.18.7 3.49 3.49 0 0 1-4.58-2.19 37 37 0 0 1-1.17-15.61H8.16a97.42 97.42 0 0 0 0 13.8 53.2 53.2 0 0 0 4 17.08h23.72v-1.51a12.14 12.14 0 0 0-11.73-12.27z"/><path class="cls-9" d="M24 30.86a8.86 8.86 0 0 1-2.54-.37v2.14a2.54 2.54 0 1 0 5.08 0v-2.14a8.86 8.86 0 0 1-2.54.37z"/><path class="cls-8" d="M24 30.86a8.86 8.86 0 0 1-2.54-.37 2.54 2.54 0 0 0 5.08 0 8.86 8.86 0 0 1-2.54.37z"/><path class="cls-3" d="M24 30.86a8.86 8.86 0 0 1-2.54-.37v2.14a2.54 2.54 0 1 0 5.08 0v-2.14a8.86 8.86 0 0 1-2.54.37z"/></svg>