<svg xmlns="http://www.w3.org/2000/svg" viewBox="0 0 48 48"><defs><style>.cls-2{fill:#00b8f0}.cls-4,.cls-8{fill:none;stroke:#45413c;stroke-linecap:round;stroke-linejoin:round}.cls-8{fill:#ffe500}</style></defs><ellipse cx="24" cy="45.5" rx="13.5" ry="1.5" fill="#45413c" opacity=".15"/><path class="cls-2" d="M24 31.22A11.88 11.88 0 0 1 35.88 43.1V45H12.12v-1.9A11.88 11.88 0 0 1 24 31.22z"/><path d="M24 31.22A11.88 11.88 0 0 0 12.12 43.1V45h.07A11.88 11.88 0 0 1 24 34.43 11.88 11.88 0 0 1 35.81 45h.07v-1.9A11.88 11.88 0 0 0 24 31.22z" fill="#009fd9"/><path class="cls-4" d="M24 31.22A11.88 11.88 0 0 1 35.88 43.1V45H12.12v-1.9A11.88 11.88 0 0 1 24 31.22z"/><path class="cls-4" d="M17.06 45v-2.41"/><path class="cls-4" d="M30.94 45v-2.41"/><rect x="21.46" y="27.17" width="5.09" height="7.94" rx="2.54" ry="2.54" fill="#ebcb00" stroke="#45413c" stroke-linecap="round" stroke-linejoin="round"/><path d="M24 6.91a9.83 9.83 0 0 0-2.44.31c-1.86.42-4.28 1.12-6.47.7a4.2 4.2 0 0 0 .84 3.21 9.81 9.81 0 0 0-1.75 5.6v5.14h19.64v-5.14A9.82 9.82 0 0 0 24 6.91z" fill="#724f3d"/><g><path d="M24 6.91a9.83 9.83 0 0 0-2.44.31c-1.86.42-4.28 1.12-6.47.7a4.47 4.47 0 0 0 .68 3 19.4 19.4 0 0 0 5.79-.79 9.81 9.81 0 0 1 12.26 9.51v-2.91A9.82 9.82 0 0 0 24 6.91z" fill="#a86c4d"/></g><path class="cls-4" d="M24 6.91a9.83 9.83 0 0 0-2.44.31c-1.86.42-4.28 1.12-6.47.7a4.2 4.2 0 0 0 .84 3.21 9.81 9.81 0 0 0-1.75 5.6v5.14h19.64v-5.14A9.82 9.82 0 0 0 24 6.91z"/><path class="cls-8" d="M34.87 21.12a1.83 1.83 0 0 0-1.39-1.54l-.59-.16a2.06 2.06 0 0 1-1.5-2v-2.04A1.88 1.88 0 0 0 30 13.57a15.34 15.34 0 0 1-6 1.09 15.34 15.34 0 0 1-6-1.09 1.88 1.88 0 0 0-1.4 1.81v2.06a2.06 2.06 0 0 1-1.5 2l-.59.16a1.83 1.83 0 0 0-1.39 1.54 1.81 1.81 0 0 0 1.81 2h.11a9 9 0 0 0 17.9 0h.11a1.81 1.81 0 0 0 1.82-2.02z"/><ellipse cx="18.06" cy="24.19" rx="1" ry=".6" fill="#ffaa54"/><path class="cls-8" d="M30 28a5.69 5.69 0 0 0 .33-1.61c0-.79-.33-2.74.29-3.78a11.06 11.06 0 0 1 .64-1 .52.52 0 0 0-.11-.73 1.34 1.34 0 0 0-1.68.06 2.69 2.69 0 0 0-.85 1.45l-.12.61-1.77-5.44a.85.85 0 0 0-1-.57.85.85 0 0 0-.65 1.07l1.11 3.81-1.94-4.18a.91.91 0 0 0-1.25-.4.91.91 0 0 0-.42 1.14l1.63 4.28-1.85-3.42a.8.8 0 0 0-1.1-.32.81.81 0 0 0-.33 1.03l1.69 3.38-1.29-1.89a.86.86 0 0 0-1.33-.12.87.87 0 0 0-.2 1 61.55 61.55 0 0 0 3.38 6.48c.85 1 1.22 1.18 1.92 1.27 1.11.14 4.35-1.25 4.9-2.12z"/><path class="cls-2" d="M28.86 45l-4.75-13.3a1 1 0 0 1 .52-1.24l4.85-2.3a1 1 0 0 1 1.34.49L38.13 45z"/><path d="M24.73 33.43l3.87-1.84a1 1 0 0 1 1.35.5L35.72 45h2.41l-7.31-16.35a1 1 0 0 0-1.34-.49l-4.85 2.3a1 1 0 0 0-.52 1.24z" fill="#4acfff"/><path class="cls-4" d="M28.86 45l-4.75-13.3a1 1 0 0 1 .52-1.24l4.85-2.3a1 1 0 0 1 1.34.49L38.13 45z"/></svg>