<svg xmlns="http://www.w3.org/2000/svg" viewBox="0 0 48 48"><defs><style>.cls-3{fill:none}.cls-3,.cls-8{stroke:#45413c;stroke-linecap:round;stroke-linejoin:round}.cls-5{fill:#ff87af}.cls-8{fill:#ffe500}</style></defs><path d="M24 6.32a10.88 10.88 0 0 1 10.88 10.87v14.19a1.24 1.24 0 0 1-.77 1.14 27.09 27.09 0 0 1-20.22 0 1.24 1.24 0 0 1-.77-1.14V17.19A10.88 10.88 0 0 1 24 6.32z" fill="#724f3d"/><path d="M24 6.32a10.88 10.88 0 0 0-10.88 10.87v3a10.88 10.88 0 0 1 21.76 0v-3A10.88 10.88 0 0 0 24 6.32z" fill="#a86c4d"/><path class="cls-3" d="M24 6.32a10.88 10.88 0 0 1 10.88 10.87v14.19a1.24 1.24 0 0 1-.77 1.14 27.09 27.09 0 0 1-20.22 0 1.24 1.24 0 0 1-.77-1.14V17.19A10.88 10.88 0 0 1 24 6.32z"/><ellipse cx="24" cy="45.5" rx="13.5" ry="1.5" fill="#45413c" opacity=".15"/><path class="cls-5" d="M24 31.22A11.88 11.88 0 0 1 35.88 43.1V45H12.12v-1.9A11.88 11.88 0 0 1 24 31.22z"/><path d="M24 31.22A11.88 11.88 0 0 0 12.12 43.1V45h.07A11.88 11.88 0 0 1 24 34.43 11.88 11.88 0 0 1 35.81 45h.07v-1.9A11.88 11.88 0 0 0 24 31.22z" fill="#ff6196"/><path class="cls-3" d="M24 31.22A11.88 11.88 0 0 1 35.88 43.1V45H12.12v-1.9A11.88 11.88 0 0 1 24 31.22z"/><path class="cls-3" d="M17.06 45v-2.41"/><path class="cls-3" d="M30.94 45v-2.41"/><rect x="21.46" y="27.17" width="5.09" height="7.94" rx="2.54" ry="2.54" fill="#ebcb00" stroke="#45413c" stroke-linecap="round" stroke-linejoin="round"/><g><path class="cls-8" d="M33.07 19.47a8.77 8.77 0 0 1-5.68-5L26.77 13a15.92 15.92 0 0 1-9.95 6.18l-1.89.34a1.81 1.81 0 0 0 0 3.62h.12a9 9 0 0 0 17.9 0h.12a1.81 1.81 0 1 0 0-3.62z"/><ellipse cx="18.06" cy="24.19" rx="1" ry=".6" fill="#ffaa54"/></g><path class="cls-8" d="M30 28a5.69 5.69 0 0 0 .33-1.61c0-.79-.33-2.74.29-3.78a11.06 11.06 0 0 1 .64-1 .52.52 0 0 0-.11-.73 1.34 1.34 0 0 0-1.68.06 2.69 2.69 0 0 0-.85 1.45l-.12.61-1.77-5.44a.85.85 0 0 0-1-.57.85.85 0 0 0-.65 1.07l1.11 3.81-1.94-4.18a.91.91 0 0 0-1.25-.4.91.91 0 0 0-.42 1.14l1.63 4.28-1.85-3.42a.8.8 0 0 0-1.1-.32.81.81 0 0 0-.33 1.03l1.69 3.38-1.29-1.89a.86.86 0 0 0-1.33-.12.87.87 0 0 0-.2 1 61.55 61.55 0 0 0 3.38 6.48c.85 1 1.22 1.18 1.92 1.27 1.11.14 4.35-1.25 4.9-2.12z"/><path class="cls-5" d="M28.86 45l-4.75-13.3a1 1 0 0 1 .52-1.24l4.85-2.3a1 1 0 0 1 1.34.49L38.13 45z"/><path d="M24.73 33.43l3.87-1.84a1 1 0 0 1 1.35.5L35.72 45h2.41l-7.31-16.35a1 1 0 0 0-1.34-.49l-4.85 2.3a1 1 0 0 0-.52 1.24z" fill="#ffb0ca"/><path class="cls-3" d="M28.86 45l-4.75-13.3a1 1 0 0 1 .52-1.24l4.85-2.3a1 1 0 0 1 1.34.49L38.13 45z"/></svg>