<svg xmlns="http://www.w3.org/2000/svg" viewBox="0 0 48 48"><defs><style>.cls-3{fill:none}.cls-10,.cls-3,.cls-9{stroke:#45413c;stroke-linecap:round;stroke-linejoin:round}.cls-10{fill:#45413c}.cls-6{fill:#ff6196}.cls-9{fill:#ffe500}.cls-11{fill:#ffaa54}</style></defs><path d="M24 6.32a10.88 10.88 0 0 1 10.88 10.87v14.19a1.24 1.24 0 0 1-.77 1.14 27.09 27.09 0 0 1-20.22 0 1.24 1.24 0 0 1-.77-1.14V17.19A10.88 10.88 0 0 1 24 6.32z" fill="#724f3d"/><path d="M24 6.32a10.88 10.88 0 0 0-10.88 10.87v3a10.88 10.88 0 0 1 21.76 0v-3A10.88 10.88 0 0 0 24 6.32z" fill="#a86c4d"/><path class="cls-3" d="M24 6.32a10.88 10.88 0 0 1 10.88 10.87v14.19a1.24 1.24 0 0 1-.77 1.14 27.09 27.09 0 0 1-20.22 0 1.24 1.24 0 0 1-.77-1.14V17.19A10.88 10.88 0 0 1 24 6.32z"/><ellipse cx="24" cy="45.5" rx="18" ry="1.5" opacity=".15" fill="#45413c"/><path d="M36 29.83l-1.38 8a11.87 11.87 0 0 0-21.26 0l-1.38-8-4.93.52 1.17 11.14a3.92 3.92 0 0 0 3.9 3.51h23.76a3.92 3.92 0 0 0 3.9-3.51l1.16-11.14z" fill="#ff87af"/><path class="cls-6" d="M7.06 30.35l.25 2.4 5.1-.53-.42-2.39-4.93.52zM36.01 29.83l-.42 2.39 5.1.53.25-2.4-4.93-.52zM24 31.22a11.88 11.88 0 0 0-10.63 6.59l.34 1.8a11.86 11.86 0 0 1 20.58 0l.34-1.8A11.88 11.88 0 0 0 24 31.22z"/><path class="cls-3" d="M36 29.83l-1.38 8a11.87 11.87 0 0 0-21.26 0l-1.38-8-4.93.52 1.17 11.14a3.92 3.92 0 0 0 3.9 3.51h23.76a3.92 3.92 0 0 0 3.9-3.51l1.16-11.14z"/><rect x="21.46" y="27.17" width="5.09" height="7.94" rx="2.54" ry="2.54" fill="#ffe500"/><path d="M24 27.17a2.54 2.54 0 0 0-2.54 2.54v.6a2.54 2.54 0 0 0 5.08 0v-.59A2.54 2.54 0 0 0 24 27.17z" fill="#ebcb00"/><rect class="cls-3" x="21.46" y="27.17" width="5.09" height="7.94" rx="2.54" ry="2.54"/><path class="cls-9" d="M9.5 29.12l-3.18-.61a.89.89 0 0 1-.7-1 .89.89 0 0 1 1-.7l4.38.79z"/><path class="cls-9" d="M3.3 27.93l4.1.79A4 4 0 0 1 11 27.6a1.88 1.88 0 0 1 1.48 2.19 1.88 1.88 0 0 1-2.19 1.48l-7.36-1.41a1 1 0 0 1-.78-1.15 1 1 0 0 1 1.15-.78z"/><path class="cls-9" d="M38.5 29.12l3.18-.61a.89.89 0 0 0 .7-1 .89.89 0 0 0-1-.7L37 27.6z"/><path class="cls-9" d="M44.7 27.93l-4.1.79A4 4 0 0 0 37 27.6a1.88 1.88 0 0 0-1.48 2.19 1.88 1.88 0 0 0 2.19 1.48l7.33-1.41a1 1 0 0 0 .78-1.15 1 1 0 0 0-1.12-.78z"/><path class="cls-3" d="M13.37 37.81l.78 4.07"/><path class="cls-3" d="M34.63 37.81l-.78 4.07"/><g><path class="cls-9" d="M33.06 19.47a8.77 8.77 0 0 1-5.67-5L26.77 13a15.92 15.92 0 0 1-9.95 6.18l-1.89.34a1.81 1.81 0 0 0 0 3.62h.12a9 9 0 0 0 17.9 0h.11a1.81 1.81 0 1 0 0-3.62z"/></g><path class="cls-10" d="M18.57 20.91a.77.77 0 1 0 .77-.77.76.76 0 0 0-.77.77z"/><path class="cls-10" d="M29.43 20.91a.77.77 0 1 1-.77-.77.76.76 0 0 1 .77.77z"/><ellipse class="cls-11" cx="18.06" cy="24.19" rx="1" ry=".6"/><ellipse class="cls-11" cx="29.94" cy="24.19" rx="1" ry=".6"/><path d="M26.54 27.83c0 .86-1.13 1.05-2.54 1.05s-2.54-.19-2.54-1.05a2.6 2.6 0 0 1 5.08 0z" fill="#ff6242"/><path d="M26.21 28.46a2.73 2.73 0 0 0-4.42 0 4 4 0 0 0 2.21.42 4 4 0 0 0 2.21-.42z" fill="#ffa694"/><path class="cls-3" d="M26.54 27.83c0 .86-1.13 1.05-2.54 1.05s-2.54-.19-2.54-1.05a2.6 2.6 0 0 1 5.08 0z"/></svg>