<svg xmlns="http://www.w3.org/2000/svg" viewBox="0 0 48 48"><defs><style>.cls-4{fill:none;stroke:#45413c;stroke-linecap:round;stroke-linejoin:round}.cls-7{fill:#ffe500}.cls-10{fill:#ffaa54}.cls-11{fill:#fff48c}</style></defs><ellipse cx="24" cy="45.5" rx="15" ry="1.5" fill="#45413c" opacity=".15"/><path d="M34.88 31.38a1.24 1.24 0 0 1-.77 1.14 27.09 27.09 0 0 1-20.22 0 1.24 1.24 0 0 1-.77-1.14V17.19a10.88 10.88 0 0 1 21.76 0z" fill="#724f3d"/><path d="M24 6.32a10.88 10.88 0 0 0-10.88 10.87v2.9a10.88 10.88 0 0 1 21.76 0v-2.9A10.88 10.88 0 0 0 24 6.32z" fill="#a86c4d"/><path class="cls-4" d="M34.88 31.38a1.24 1.24 0 0 1-.77 1.14 27.09 27.09 0 0 1-20.22 0 1.24 1.24 0 0 1-.77-1.14V17.19a10.88 10.88 0 0 1 21.76 0z"/><path d="M35.88 45H12.12v-1.9a11.88 11.88 0 1 1 23.76 0z" fill="#ff87af"/><path d="M24 31.22A11.88 11.88 0 0 0 12.12 43.1V45h.17a11.88 11.88 0 0 1 23.42 0h.17v-1.9A11.88 11.88 0 0 0 24 31.22z" fill="#ff6196"/><path class="cls-4" d="M35.88 45H12.12v-1.9a11.88 11.88 0 1 1 23.76 0z"/><path class="cls-7" d="M24 27.17a2.54 2.54 0 0 0-2.54 2.55v2.85a2.54 2.54 0 1 0 5.08 0v-2.85A2.54 2.54 0 0 0 24 27.17z"/><path d="M24 27.17a2.54 2.54 0 0 0-2.54 2.54v.6a2.54 2.54 0 0 0 5.08 0v-.59A2.54 2.54 0 0 0 24 27.17z" fill="#ebcb00"/><path class="cls-4" d="M24 27.17a2.54 2.54 0 0 0-2.54 2.55v2.85a2.54 2.54 0 1 0 5.08 0v-2.85A2.54 2.54 0 0 0 24 27.17z"/><g><path d="M33.06 19.47a8.77 8.77 0 0 1-5.67-5L26.77 13a15.92 15.92 0 0 1-9.95 6.18l-1.89.34a1.81 1.81 0 0 0 0 3.62h.12a9 9 0 0 0 17.9 0h.11a1.81 1.81 0 1 0 0-3.62z" fill="#ffe500" stroke="#45413c" stroke-linecap="round" stroke-linejoin="round"/></g><path class="cls-4" d="M18.57 20.91a.77.77 0 0 0 1.54 0"/><path class="cls-4" d="M29.43 20.91a.77.77 0 0 1-1.54 0"/><path class="cls-4" d="M21.81 27.17a2.78 2.78 0 0 0 4.38 0"/><path class="cls-4" d="M17.06 45v-2.41"/><path class="cls-4" d="M30.94 45v-2.41"/><ellipse class="cls-10" cx="18.06" cy="24.19" rx="1" ry=".6"/><ellipse class="cls-10" cx="29.94" cy="24.19" rx="1" ry=".6"/><path class="cls-7" d="M19.14 12.24a5.55 5.55 0 0 1-3-4.93V3.64h-3.96v4.9c0 1.18-.88 6-.76 5.23a8.11 8.11 0 0 0 .13 3.29l1.51 6.09c.29 1.15 2.13.73 2.13-.6V16a1.68 1.68 0 0 1 2.18-1.61l1.26.39c1.63.51 2.93-1.35 2-1.84z"/><path class="cls-11" d="M16.12 9.37a5.48 5.48 0 0 0 1.27 3.53A6.67 6.67 0 0 0 20 14.72c.88-.4 1.31-1.4.64-1.74l-1.45-.74a5.55 5.55 0 0 1-3-4.93z"/><path class="cls-4" d="M19.14 12.24a5.55 5.55 0 0 1-3-4.93V3.64h-3.96v4.9c0 1.18-.88 6-.76 5.23a8.11 8.11 0 0 0 .13 3.29l1.51 6.09c.29 1.15 2.13.73 2.13-.6V16a1.68 1.68 0 0 1 2.18-1.61l1.26.39c1.63.51 2.93-1.35 2-1.84z"/><path class="cls-7" d="M28.86 12.24a5.55 5.55 0 0 0 3-4.93V3.64h3.94v4.9c0 1.18.88 6 .76 5.23a8.11 8.11 0 0 1-.13 3.29l-1.51 6.09c-.29 1.15-2.13.73-2.13-.6V16a1.68 1.68 0 0 0-2.18-1.61l-1.26.39c-1.63.51-2.93-1.35-2-1.84z"/><path class="cls-11" d="M31.88 9.37a5.48 5.48 0 0 1-1.27 3.53 6.67 6.67 0 0 1-2.56 1.82c-.88-.4-1.31-1.4-.64-1.74l1.45-.74a5.55 5.55 0 0 0 3-4.93z"/><path class="cls-4" d="M28.86 12.24a5.55 5.55 0 0 0 3-4.93V3.64h3.94v4.9c0 1.18.88 6 .76 5.23a8.11 8.11 0 0 1-.13 3.29l-1.51 6.09c-.29 1.15-2.13.73-2.13-.6V16a1.68 1.68 0 0 0-2.18-1.61l-1.26.39c-1.63.51-2.93-1.35-2-1.84z"/></svg>