<svg xmlns="http://www.w3.org/2000/svg" viewBox="0 0 48 48"><defs><style>.cls-1{fill:#daedf7}.cls-1,.cls-11,.cls-14,.cls-4{stroke:#45413c;stroke-linecap:round;stroke-linejoin:round}.cls-4{fill:none}.cls-11{fill:#45413c}.cls-9{fill:#ffb59e}.cls-14{fill:#ff6242}</style></defs><path class="cls-1" d="M28.05 14.27A2.81 2.81 0 0 0 25 16.79l10.61 1.05a3.85 3.85 0 0 0 2.72-.76l.17-1.77z"/><path d="M10.27 32.52a27.09 27.09 0 0 0 20.22 0 19.38 19.38 0 0 0 8.22-6.87.5.5 0 0 0-.51-.77 5.5 5.5 0 0 1-6.94-5.48v-1.85A11.11 11.11 0 0 0 20.58 6.32 10.88 10.88 0 0 0 9.5 17.19v14.19a1.23 1.23 0 0 0 .77 1.14z" fill="#a86c4d"/><path d="M20.58 9.2a11.12 11.12 0 0 1 10.68 11.24v1.85a5.43 5.43 0 0 0 5.63 5.63 20.55 20.55 0 0 0 1.82-2.27.5.5 0 0 0-.51-.77 5.5 5.5 0 0 1-6.94-5.48v-1.85A11.11 11.11 0 0 0 20.58 6.32 10.88 10.88 0 0 0 9.5 17.19v2.89A10.88 10.88 0 0 1 20.58 9.2z" fill="#de926a"/><path class="cls-4" d="M10.27 32.52a27.09 27.09 0 0 0 20.22 0 19.38 19.38 0 0 0 8.22-6.87.5.5 0 0 0-.51-.77 5.5 5.5 0 0 1-6.94-5.48v-1.85A11.11 11.11 0 0 0 20.58 6.32 10.88 10.88 0 0 0 9.5 17.19v14.19a1.23 1.23 0 0 0 .77 1.14z"/><ellipse cx="20.38" cy="45.5" rx="15" ry="1.5" opacity=".15" fill="#45413c"/><path d="M32.26 45H8.5v-1.9a11.88 11.88 0 1 1 23.76 0z" fill="#ff87af"/><path d="M20.38 31.22A11.88 11.88 0 0 0 8.5 43.1V45h.17a11.88 11.88 0 0 1 23.42 0h.17v-1.9a11.88 11.88 0 0 0-11.88-11.88z" fill="#ff6196"/><path class="cls-4" d="M32.26 45H8.5v-1.9a11.88 11.88 0 1 1 23.76 0z"/><path d="M20.38 27.17a2.55 2.55 0 0 0-2.55 2.55v2.85a2.55 2.55 0 0 0 5.09 0v-2.85a2.55 2.55 0 0 0-2.54-2.55z" fill="#ffcebf"/><path class="cls-9" d="M20.38 27.17a2.55 2.55 0 0 0-2.55 2.54v.6a2.55 2.55 0 0 0 5.09 0v-.59a2.55 2.55 0 0 0-2.54-2.55z"/><path class="cls-4" d="M20.38 27.17a2.55 2.55 0 0 0-2.55 2.55v2.85a2.55 2.55 0 0 0 5.09 0v-2.85a2.55 2.55 0 0 0-2.54-2.55z"/><g><path d="M29.44 19.47a8.77 8.77 0 0 1-5.67-5L23.15 13a15.92 15.92 0 0 1-9.95 6.18l-1.89.34a1.81 1.81 0 0 0 0 3.62h.11a9.05 9.05 0 0 0 17.91 0h.11a1.81 1.81 0 1 0 0-3.62z" fill="#ffcebf" stroke="#45413c" stroke-linecap="round" stroke-linejoin="round"/><path class="cls-11" d="M14.94 20.91a.78.78 0 1 0 .78-.77.77.77 0 0 0-.78.77z"/><path class="cls-11" d="M25.81 20.91a.77.77 0 1 1-.77-.77.76.76 0 0 1 .77.77z"/><g><g><g><g><g><g><g><path d="M17.54 25.6a.42.42 0 0 0-.33.16.46.46 0 0 0-.11.35 3.32 3.32 0 0 0 6.55 0 .45.45 0 0 0-.1-.35.44.44 0 0 0-.34-.16z" fill="#ff6242"/><path d="M20.38 27a4 4 0 0 0-2.52.77 3.36 3.36 0 0 0 5 0 4 4 0 0 0-2.48-.77z" fill="#ffa694"/></g></g></g></g></g></g></g><g><path class="cls-4" d="M17.54 25.6a.42.42 0 0 0-.33.16.46.46 0 0 0-.11.35 3.32 3.32 0 0 0 6.55 0 .45.45 0 0 0-.1-.35.44.44 0 0 0-.34-.16z"/></g><ellipse class="cls-9" cx="14.44" cy="24.19" rx="1" ry=".6"/><ellipse class="cls-9" cx="26.32" cy="24.19" rx="1" ry=".6"/></g><path class="cls-4" d="M13.44 45v-2.41"/><path class="cls-4" d="M27.32 45v-2.41"/><path class="cls-14" d="M43.7 13.79a2.9 2.9 0 0 0-3 1.75l-2.26-.23-.17 1.77 2.25.23a2.92 2.92 0 1 0 3.14-3.52zm-.24 1.9a1 1 0 1 1-1.1.9 1 1 0 0 1 1.1-.9z"/><path class="cls-1" d="M37.17 14.33a3.87 3.87 0 0 0-1.72 2.24l-3 10.24A2.81 2.81 0 0 0 36 24.89l2.92-10.07z"/><path id="_Compound_Path_2" class="cls-14" d="M40.24 6.92a2.92 2.92 0 0 0-2.44 5.23l-.63 2.18 1.71.49.63-2.17a2.92 2.92 0 0 0 .73-5.73zm-1.11 3.82a1 1 0 0 1 .56-1.93 1 1 0 1 1-.56 1.93z"/></svg>