<svg xmlns="http://www.w3.org/2000/svg" viewBox="0 0 48 48"><defs><style>.cls-1{fill:#00b8f0}.cls-2{fill:#009fd9}.cls-3{fill:none}.cls-3,.cls-7{stroke:#45413c;stroke-linecap:round;stroke-linejoin:round}.cls-6{fill:#ff6242}.cls-7{fill:#656769}</style></defs><path class="cls-1" d="M20.2 29.53l-1 1.61a14 14 0 0 0-2.11 7.39V42h4.77v-3.86a9 9 0 0 1 1.46-4.91l2.41-3.7z"/><path class="cls-2" d="M19.2 31.14a14 14 0 0 0-1.2 2.52h5.09c.08-.15.17-.29.26-.43l2.41-3.7H20.2z"/><path class="cls-3" d="M20.2 29.53l-1 1.61a14 14 0 0 0-2.11 7.39V42h4.77v-3.86a9 9 0 0 1 1.46-4.91l2.41-3.7z"/><path class="cls-1" d="M22.39 29.53l.2 1.45a14 14 0 0 0 6.76 10.16l.81.48 2.55-4.37-1.06-.61a9 9 0 0 1-4.39-6.44l-.1-.67z"/><path class="cls-2" d="M27.26 30.2l-.1-.67h-4.77l.2 1.45a13.42 13.42 0 0 0 .64 2.68h5.33a9 9 0 0 1-1.3-3.46z"/><path class="cls-3" d="M22.39 29.53l.2 1.45a14 14 0 0 0 6.76 10.16l.81.48 2.55-4.37-1.06-.61a9 9 0 0 1-4.39-6.44l-.1-.67z"/><ellipse cx="24.67" cy="45.6" rx="11.5" ry="1.5" fill="#45413c" opacity=".15"/><circle cx="23.53" cy="11.38" r="5.02" fill="#ffe500" stroke="#45413c" stroke-linecap="round" stroke-linejoin="round"/><g><path class="cls-6" d="M27.16 29.53h-7c-.24-1-.57-1.73.14-5.65.57-3.11 1.65-5.65 3.38-5.65a2.15 2.15 0 0 1 2.18 1.69z"/><path class="cls-3" d="M27.16 29.53h-7c-.24-1-.57-1.73.14-5.65.57-3.11 1.65-5.65 3.38-5.65a2.15 2.15 0 0 1 2.18 1.69z"/></g><path class="cls-7" d="M18.3 42h3.56v2a1 1 0 0 1-1 1h-5.52a3 3 0 0 1 2.96-3z"/><path class="cls-7" d="M32.05 39.33h3.56v2a1 1 0 0 1-1 1h-5.52a3 3 0 0 1 2.96-3z" transform="rotate(-59.72 32.348 40.816)"/><g><path class="cls-6" d="M24 18.22a2 2 0 0 1 2 2v4.2h-4V20.2a2 2 0 0 1 2-2z" transform="rotate(-7.16 24.019 21.32)"/><path d="M23.61 18.24a2 2 0 0 0-1.72 2.22l.27 2.12a2 2 0 1 1 3.94-.5L25.83 20a2 2 0 0 0-2.22-1.76z" fill="#ff866e"/><path class="cls-3" d="M24 18.22a2 2 0 0 1 2 2v4.2h-4V20.2a2 2 0 0 1 2-2z" transform="rotate(-7.16 24.019 21.32)"/></g><path d="M25.85 6a6.3 6.3 0 0 0-4.56-.15 2.45 2.45 0 0 1-2.78-.5s-1.85 3.18.31 4.34a7.57 7.57 0 0 0 5-.17l-.25 1.73s1.14-.65 1.76.05.3 2.66-1 2.47a2.67 2.67 0 0 0 .94 2.38 5 5 0 0 0 3.25-4c.38-2.79-.2-4.76-2.67-6.15z" fill="#724f3d"/><g><path d="M18.22 8a.48.48 0 0 1 .31-.28.49.49 0 0 1 .41 0 2.7 2.7 0 0 0 2.35.14 6.29 6.29 0 0 1 4.56.16 5 5 0 0 1 2.7 3.69c.3-2.57-.33-4.44-2.7-5.82a6.3 6.3 0 0 0-4.56-.15 2.45 2.45 0 0 1-2.78-.5s-1.18 2-.55 3.44c.04-.21.18-.46.26-.68z" fill="#a86c4d"/></g><path class="cls-3" d="M25.85 6a6.3 6.3 0 0 0-4.56-.15 2.45 2.45 0 0 1-2.78-.5s-1.85 3.18.31 4.34a7.57 7.57 0 0 0 5-.17l-.25 1.73s1.14-.65 1.76.05.3 2.66-1 2.47a2.67 2.67 0 0 0 .94 2.38 5 5 0 0 0 3.25-4c.38-2.79-.2-4.76-2.67-6.15z"/><g><path d="M22.63 24.6l.12 1a6.15 6.15 0 0 1-.22 2.52l-.85 2.73a1.65 1.65 0 0 0 1 2 1.65 1.65 0 0 0 2.15-1.06l.85-2.79a10 10 0 0 0 .32-4.18v-.64z" fill="#ffe500"/><path d="M22.75 25.56a5.1 5.1 0 0 1 0 .78l3.33-.42a10 10 0 0 0-.08-1.1v-.64l-3.33.42z" fill="#ebcb00"/><path class="cls-3" d="M22.63 24.6l.12 1a6.15 6.15 0 0 1-.22 2.52l-.85 2.73a1.65 1.65 0 0 0 1 2 1.65 1.65 0 0 0 2.15-1.06l.85-2.79a10 10 0 0 0 .32-4.18v-.64z"/></g></svg>