<svg xmlns="http://www.w3.org/2000/svg" viewBox="0 0 48 48"><defs><style>.cls-1{fill:#656769}.cls-1,.cls-4{stroke:#45413c;stroke-linecap:round;stroke-linejoin:round}.cls-2{fill:#00b8f0}.cls-3{fill:#009fd9}.cls-4{fill:none}.cls-7{fill:#ff6242}.cls-8{fill:#ff866e}.cls-9{fill:#ffe500}.cls-10{fill:#ebcb00}</style></defs><path class="cls-1" d="M36.48 37H40v2a1 1 0 0 1-1 1h-5.49a3 3 0 0 1 3-3z" transform="rotate(-78.92 36.774 38.525)"/><path class="cls-2" d="M24.32 30.38a2.37 2.37 0 0 0-.38 3.32l1.36 1.71a10 10 0 0 0 6 3.62l3.73.69L36 35l-3.27-.62a7 7 0 0 1-4.26-2.63l-.75-1a2.37 2.37 0 0 0-3.35-.42z"/><path class="cls-3" d="M28.42 31.79l-.75-1a2.36 2.36 0 1 0-3.73 2.9l1.36 1.71a9.93 9.93 0 0 0 1.76 1.73 26.33 26.33 0 0 1 3.51-3.49 7 7 0 0 1-2.15-1.85z"/><path class="cls-4" d="M24.32 30.38a2.37 2.37 0 0 0-.38 3.32l1.36 1.71a10 10 0 0 0 6 3.62l3.73.69L36 35l-3.27-.62a7 7 0 0 1-4.26-2.63l-.75-1a2.37 2.37 0 0 0-3.35-.42z"/><path class="cls-1" d="M16.68 41.2h3.56v2a1 1 0 0 1-1 1h-5.53a3 3 0 0 1 2.97-3z" transform="rotate(22.68 16.963 42.684)"/><path class="cls-2" d="M24.75 29.75l-2.7 1.95a14 14 0 0 0-4.39 5.58l-1.51 3.45 4.41 1.84 1.36-3.26a9 9 0 0 1 2.87-3.71l2.84-2.05a2.38 2.38 0 0 0 .46-3.34 2.38 2.38 0 0 0-3.34-.46z"/><path class="cls-3" d="M28.09 30.21a2.38 2.38 0 0 0-3.34-.46l-2.7 1.95a13.76 13.76 0 0 0-2.16 2 56.09 56.09 0 0 0 8-.38 2.38 2.38 0 0 0 .2-3.11z"/><path class="cls-4" d="M24.75 29.75l-2.7 1.95a14 14 0 0 0-4.39 5.58l-1.51 3.45 4.41 1.84 1.36-3.26a9 9 0 0 1 2.87-3.71l2.84-2.05a2.38 2.38 0 0 0 .46-3.34 2.38 2.38 0 0 0-3.34-.46z"/><path d="M19.5 21h.42a1.57 1.57 0 0 1 1.57 1.57v4h-3.55v-4A1.57 1.57 0 0 1 19.5 21z" transform="rotate(41.25 19.712 23.763)" fill="#e04122" stroke="#45413c" stroke-linecap="round" stroke-linejoin="round"/><ellipse cx="24.06" cy="46.31" rx="11.5" ry="1.5" fill="#45413c" opacity=".15"/><g><g><path class="cls-7" d="M28.07 28.52L23.28 31a1 1 0 0 1-1.35-.43 14.76 14.76 0 0 1-1.81-4.3c-.93-3-1.14-5.78.39-6.57a2.16 2.16 0 0 1 2.72.49L28.41 27a1 1 0 0 1-.34 1.52z"/></g><path class="cls-8" d="M22.12 30.84c-.22-.57-.47-1.27-.73-2.12-.93-3-1.14-5.78.39-6.57a2.17 2.17 0 0 1 2.72.49L28.55 28a1 1 0 0 0-.14-.95l-5.18-6.85a2.16 2.16 0 0 0-2.72-.49c-1.53.79-1.32 3.55-.39 6.57a14.76 14.76 0 0 0 1.81 4.3 1 1 0 0 0 .19.26z"/><g><path class="cls-4" d="M28.07 28.52L23.28 31a1 1 0 0 1-1.35-.43 14.76 14.76 0 0 1-1.81-4.3c-.93-3-1.14-5.78.39-6.57a2.16 2.16 0 0 1 2.72.49L28.41 27a1 1 0 0 1-.34 1.52z"/></g></g><path class="cls-9" d="M11 23.8a1.55 1.55 0 0 0 0 2.2l1.2 1.13a4.69 4.69 0 0 0 6.8-.31l-2.3-2.06a1.66 1.66 0 0 1-2.41.1l-1.13-1.09a1.54 1.54 0 0 0-2.16.03z"/><path class="cls-10" d="M16 28.36a4.6 4.6 0 0 0 3-1.54l-2.3-2.06a1.65 1.65 0 0 1-1.23.56z"/><path class="cls-4" d="M11 23.8a1.55 1.55 0 0 0 0 2.2l1.2 1.13a4.69 4.69 0 0 0 6.8-.31l-2.3-2.06a1.66 1.66 0 0 1-2.41.1l-1.13-1.09a1.54 1.54 0 0 0-2.16.03z"/><path class="cls-7" d="M23.75 18.46a1.89 1.89 0 0 1 1.89 1.89v4h-3.78v-4a1.89 1.89 0 0 1 1.89-1.89z" transform="matrix(.55 -.83 .83 .55 -7.22 29.34)"/><path class="cls-8" d="M23.08 21a1.89 1.89 0 0 1 2.62-.53l1.51 1-3.32-2.21a1.89 1.89 0 1 0-2.09 3.14l1.44 1a1.88 1.88 0 0 1-.16-2.4z"/><path class="cls-4" d="M23.75 18.46a1.89 1.89 0 0 1 1.89 1.89v4h-3.78v-4a1.89 1.89 0 0 1 1.89-1.89z" transform="matrix(.55 -.83 .83 .55 -7.22 29.34)"/><path class="cls-9" d="M28 30.8a1.53 1.53 0 0 1-1.32-1.72l.32-2.15a2 2 0 0 0-.8-1.88l-.89-.65L27 21.75l.54.39A6 6 0 0 1 30 27.9l-.25 1.61A1.53 1.53 0 0 1 28 30.8z"/><path class="cls-10" d="M27.55 22.14l-.55-.39-1.71 2.65.89.65a2 2 0 0 1 .56.67L28 22.53a5.58 5.58 0 0 0-.45-.39z"/><path class="cls-4" d="M28 30.8a1.53 1.53 0 0 1-1.32-1.72l.32-2.15a2 2 0 0 0-.8-1.88l-.89-.65L27 21.75l.54.39A6 6 0 0 1 30 27.9l-.25 1.61A1.53 1.53 0 0 1 28 30.8z"/><circle cx="16.78" cy="14.1" r="5.02" fill="#ffe500" stroke="#45413c" stroke-linecap="round" stroke-linejoin="round"/><path d="M19.1 8.67a6.32 6.32 0 0 0-4.57-.16A2.42 2.42 0 0 1 11.76 8s-1.85 3.19.31 4.34a7.6 7.6 0 0 0 5-.16l-.26 1.73s1.15-.65 1.77.05.3 2.66-1 2.47a2.71 2.71 0 0 0 .94 2.38 5.06 5.06 0 0 0 3.26-4c.37-2.74-.21-4.7-2.68-6.14z" fill="#724f3d"/><g><path d="M11.47 10.73a.54.54 0 0 1 .31-.28.5.5 0 0 1 .41.05 2.7 2.7 0 0 0 2.34.14 6.32 6.32 0 0 1 4.57.16 4.94 4.94 0 0 1 2.69 3.69c.31-2.58-.33-4.44-2.69-5.82a6.32 6.32 0 0 0-4.57-.16A2.42 2.42 0 0 1 11.76 8s-1.19 2-.55 3.45a6.76 6.76 0 0 1 .26-.72z" fill="#a86c4d"/></g><path class="cls-4" d="M19.1 8.67a6.32 6.32 0 0 0-4.57-.16A2.42 2.42 0 0 1 11.76 8s-1.85 3.19.31 4.34a7.6 7.6 0 0 0 5-.16l-.26 1.73s1.15-.65 1.77.05.3 2.66-1 2.47a2.71 2.71 0 0 0 .94 2.38 5.06 5.06 0 0 0 3.26-4c.37-2.74-.21-4.7-2.68-6.14z"/></svg>