<svg xmlns="http://www.w3.org/2000/svg" viewBox="0 0 48 48"><defs><style>.cls-1{fill:#ffe500}.cls-2{fill:#ebcb00}.cls-3,.cls-4{fill:none;stroke:#45413c;stroke-linecap:round;stroke-linejoin:round}.cls-4{fill:#656769}.cls-5{fill:#c0dceb}.cls-6{fill:#adc4d9}.cls-8{fill:#bf8df2}.cls-9{fill:#dabff5}.cls-10{fill:#724f3d}.cls-11{fill:#a86c4d}</style></defs><path class="cls-1" d="M17.71 22.62l-1.16 1.31a1.66 1.66 0 0 1-2.41.1L13 22.94a1.54 1.54 0 0 0-2.17 0 1.54 1.54 0 0 0 0 2.19l1.2 1.13a4.7 4.7 0 0 0 6.77-.3l1.06-1.21z"/><path class="cls-2" d="M16.55 23.93a1.69 1.69 0 0 1-1.23.57l.61 3.05A4.66 4.66 0 0 0 18.85 26l1.06-1.21-2.2-2.17z"/><path class="cls-3" d="M17.71 22.62l-1.16 1.31a1.66 1.66 0 0 1-2.41.1L13 22.94a1.54 1.54 0 0 0-2.17 0 1.54 1.54 0 0 0 0 2.19l1.2 1.13a4.7 4.7 0 0 0 6.77-.3l1.06-1.21z"/><path class="cls-4" d="M35.07 37h3.56v2a1 1 0 0 1-1 1h-5.52a3 3 0 0 1 2.96-3z" transform="rotate(-78.92 35.366 38.527)"/><path class="cls-5" d="M22.91 30.38a2.37 2.37 0 0 0-.38 3.32l1.36 1.71a10 10 0 0 0 6 3.61l3.73.7.92-4.72-3.27-.62A7 7 0 0 1 27 31.79l-.75-1a2.37 2.37 0 0 0-3.35-.42z"/><path class="cls-6" d="M27 31.79l-.75-1a2.36 2.36 0 1 0-3.73 2.9l1.36 1.71a10 10 0 0 0 1.77 1.73 25.19 25.19 0 0 1 3.51-3.49A7.13 7.13 0 0 1 27 31.79z"/><path class="cls-3" d="M22.91 30.38a2.37 2.37 0 0 0-.38 3.32l1.36 1.71a10 10 0 0 0 6 3.61l3.73.7.92-4.72-3.27-.62A7 7 0 0 1 27 31.79l-.75-1a2.37 2.37 0 0 0-3.35-.42z"/><path class="cls-4" d="M15.27 41.2h3.56v2a1 1 0 0 1-1 1h-5.52a3 3 0 0 1 3-3z" transform="rotate(22.68 15.562 42.68)"/><path class="cls-5" d="M23.34 29.75l-2.7 1.95a14 14 0 0 0-4.39 5.58l-1.5 3.45 4.4 1.84 1.36-3.26a9 9 0 0 1 2.87-3.71l2.84-2.05a2.39 2.39 0 0 0 .47-3.34 2.39 2.39 0 0 0-3.35-.46z"/><path class="cls-6" d="M26.52 33.29a2.39 2.39 0 0 0-3.18-3.54l-2.7 1.95a14.42 14.42 0 0 0-2.14 2 47.64 47.64 0 0 0 8.02-.41z"/><path class="cls-3" d="M23.34 29.75l-2.7 1.95a14 14 0 0 0-4.39 5.58l-1.5 3.45 4.4 1.84 1.36-3.26a9 9 0 0 1 2.87-3.71l2.84-2.05a2.39 2.39 0 0 0 .47-3.34 2.39 2.39 0 0 0-3.35-.46z"/><ellipse cx="22.65" cy="46.31" rx="11.5" ry="1.5" fill="#45413c" opacity=".15"/><g><g><path class="cls-8" d="M21.81 20a2.16 2.16 0 0 0-2.72-.52 2.9 2.9 0 0 0-.29.19 5.45 5.45 0 0 0-2 4.23c-.07 2.41 1.88 2.15 1.88 2.15a15 15 0 0 0 1.78 4.32 1 1 0 0 0 1.34.43l4.81-2.45a1 1 0 0 0 .35-1.49z"/><g><path class="cls-9" d="M17.77 25.88a5.43 5.43 0 0 1 2-4.23 1.81 1.81 0 0 1 .29-.19 2.16 2.16 0 0 1 2.74.54l4.3 5.76a1 1 0 0 0-.16-.83L21.81 20a2.16 2.16 0 0 0-2.72-.52 2.9 2.9 0 0 0-.29.19 5.45 5.45 0 0 0-2 4.23c0 1.28.49 1.8 1 2z"/></g><path class="cls-3" d="M21.81 20a2.16 2.16 0 0 0-2.72-.52 2.9 2.9 0 0 0-.29.19 5.45 5.45 0 0 0-2 4.23c-.07 2.41 1.88 2.15 1.88 2.15a15 15 0 0 0 1.78 4.32 1 1 0 0 0 1.34.43l4.81-2.45a1 1 0 0 0 .35-1.49z"/></g></g><path class="cls-8" d="M22.34 18.46a1.89 1.89 0 0 1 1.89 1.89v4h-3.78v-4a1.89 1.89 0 0 1 1.89-1.89z" transform="rotate(-56.4 22.343 21.405)"/><path class="cls-9" d="M19.89 19.78a1.88 1.88 0 0 0 .53 2.61l1.81 1.21a1.89 1.89 0 0 1 2.09-3.15l-1.81-1.2a1.89 1.89 0 0 0-2.62.53z"/><path class="cls-3" d="M22.34 18.46a1.89 1.89 0 0 1 1.89 1.89v4h-3.78v-4a1.89 1.89 0 0 1 1.89-1.89z" transform="rotate(-56.4 22.343 21.405)"/><path class="cls-1" d="M26.14 22.14l-.51-.37-1.75 2.63.89.65a2 2 0 0 1 .8 1.88l-.28 2.15a1.53 1.53 0 0 0 3 .43l.25-1.61a6 6 0 0 0-2.4-5.76z"/><path class="cls-2" d="M26.14 22.14l-.51-.37-1.75 2.63.89.65a1.88 1.88 0 0 1 .57.65l1.27-3.19c-.15-.13-.31-.25-.47-.37z"/><path class="cls-3" d="M26.14 22.14l-.51-.37-1.75 2.63.89.65a2 2 0 0 1 .8 1.88l-.28 2.15a1.53 1.53 0 0 0 3 .43l.25-1.61a6 6 0 0 0-2.4-5.76z"/><path class="cls-10" d="M20.71 11.78s1.47-2.07 3.29-1.46c2.15.71 3.12 5 4.35 6.19A4.07 4.07 0 0 0 31 17.78a3.67 3.67 0 0 1-2.88 1.15c-2.49-.05-4.3-3.58-5.1-4.8s-1.66-.74-1.66-.74z"/><g><path class="cls-11" d="M25 12.11a3.48 3.48 0 0 1 1.6 1.36c-.6-1.39-1.46-2.77-2.6-3.15-1.82-.61-3.29 1.46-3.29 1.46l.61 1.61a1 1 0 0 1 .63-.06c.47-.54 1.67-1.69 3.05-1.22z"/></g><path class="cls-3" d="M20.71 11.78s1.47-2.07 3.29-1.46c2.15.71 3.12 5 4.35 6.19A4.07 4.07 0 0 0 31 17.78a3.67 3.67 0 0 1-2.88 1.15c-2.49-.05-4.3-3.58-5.1-4.8s-1.66-.74-1.66-.74z"/><circle cx="16.33" cy="12.99" r="5.02" stroke="#45413c" stroke-linecap="round" stroke-linejoin="round" fill="#ffe500"/><path class="cls-10" d="M11.13 9.67c-.62 1.65 1.53 1.59 2.37 1.18a4.12 4.12 0 0 0 2.85 2 1.29 1.29 0 0 1 1.76 0 1.46 1.46 0 0 1-.27 2.31 2.43 2.43 0 0 1-.74.16 2.17 2.17 0 0 0 .9 2.39 5 5 0 0 0 4.1-4.37 6 6 0 0 0-3-6.18c-2.19-1.16-6.72-.83-7.97 2.51z"/><g><path class="cls-11" d="M11.56 11c1.63-2.54 5.55-2.76 7.59-1.67a5.93 5.93 0 0 1 3 4.18v-.13a6 6 0 0 0-3-6.18c-2.24-1.2-6.78-.83-8 2.51-.29.68-.04 1.07.41 1.29z"/></g><path class="cls-3" d="M11.13 9.67c-.62 1.65 1.53 1.59 2.37 1.18a4.12 4.12 0 0 0 2.85 2 1.29 1.29 0 0 1 1.76 0 1.46 1.46 0 0 1-.27 2.31 2.43 2.43 0 0 1-.74.16 2.17 2.17 0 0 0 .9 2.39 5 5 0 0 0 4.1-4.37 6 6 0 0 0-3-6.18c-2.19-1.16-6.72-.83-7.97 2.51z"/></svg>