<svg xmlns="http://www.w3.org/2000/svg" viewBox="0 0 48 48"><defs><style>.cls-8{fill:#45413c}.cls-2,.cls-4{fill:#656769}.cls-2,.cls-3,.cls-6{stroke:#45413c;stroke-linecap:round;stroke-linejoin:round}.cls-3{fill:#ffcebf}.cls-5{fill:#87898c}.cls-6{fill:none}.cls-7{fill:#525252}.cls-9{fill:#a86c4d}.cls-10{fill:#de926a}</style></defs><ellipse cx="24.38" cy="45" rx="18" ry="1.5" opacity=".15" fill="#45413c"/><ellipse class="cls-2" cx="20.84" cy="41.02" rx="1.89" ry="3.01" transform="rotate(-36.75 20.853 41.022)"/><path class="cls-3" d="M9.15 23.21L6.33 26.1a4 4 0 0 0-.67 4.66l.42.78a1.45 1.45 0 1 0 2.56-1.37L8.55 30a2 2 0 0 1 .33-2.35l2.36-2.42z"/><path class="cls-3" d="M18.85 23.21l2.82 2.89a4 4 0 0 1 .67 4.66l-.41.78a1.46 1.46 0 1 1-2.57-1.37l.09-.16a2 2 0 0 0-.33-2.35l-2.35-2.42z"/><path class="cls-3" d="M10.42 31.75h3.55V45h-3.55z"/><path class="cls-2" d="M13.86 45h-3.34a.5.5 0 0 1-.49-.6l.05-.21a2.14 2.14 0 0 1 2.11-1.74 2.16 2.16 0 0 1 2.12 1.74v.21a.5.5 0 0 1-.45.6z"/><path class="cls-3" d="M13.13 32.59a34.91 34.91 0 0 0 3.69 6.21 27 27 0 0 0 2.07 2.54A1.75 1.75 0 0 0 21.44 39c-.52-.56-1.21-1.36-2.07-2.48a21.75 21.75 0 0 1-3.21-6.28z"/><path class="cls-4" d="M10.42 28.33v8.85H14v-2a1.24 1.24 0 0 0 .45-.11c.27.48.59 1 .95 1.57l2.87-1.87a8.54 8.54 0 0 1-.66-2.71v-3.73a11.69 11.69 0 0 1 1.27-5.12H9.15a11.6 11.6 0 0 1 1.27 5.12z"/><path class="cls-5" d="M9.89 25h8.22c.24-.72.52-1.32.74-1.83h-9.7c.21.53.49 1.13.74 1.83z"/><path class="cls-6" d="M10.42 28.33v8.85H14v-2a1.24 1.24 0 0 0 .45-.11c.27.48.59 1 .95 1.57l2.87-1.87a8.54 8.54 0 0 1-.66-2.71v-3.73a11.69 11.69 0 0 1 1.27-5.12H9.15a11.6 11.6 0 0 1 1.27 5.12z"/><path class="cls-3" d="M14 25.71a2.5 2.5 0 0 0 2.5-2.5h-5a2.5 2.5 0 0 0 2.5 2.5z"/><circle class="cls-3" cx="14" cy="16.63" r="4.73"/><ellipse class="cls-4" cx="10.97" cy="10.08" rx="1.46" ry="4.38" transform="rotate(-9.61 10.953 10.086)"/><ellipse class="cls-4" cx="17.03" cy="10.08" rx="4.37" ry="1.46" transform="rotate(-80.39 17.032 10.08)"/><path class="cls-7" d="M10.24 7.94C11 7.8 12 9.62 12.41 12c.05.27.08.54.11.81a10.28 10.28 0 0 0-.11-3C12 7.46 11 5.64 10.24 5.77s-1 1.73-.82 3.74c.12-.9.4-1.51.82-1.57z"/><path class="cls-7" d="M15.59 12C16 9.62 17 7.8 17.76 7.94c.42.07.7.67.82 1.57.21-2-.12-3.62-.82-3.74S16 7.46 15.59 9.84a10.64 10.64 0 0 0-.11 3c.03-.29.07-.56.11-.84z"/><ellipse class="cls-6" cx="10.97" cy="10.08" rx="1.46" ry="4.38" transform="rotate(-9.61 10.953 10.086)"/><ellipse class="cls-6" cx="17.03" cy="10.08" rx="4.37" ry="1.46" transform="rotate(-80.39 17.032 10.08)"/><circle class="cls-8" cx="12.16" cy="17.46" r=".66"/><circle class="cls-8" cx="15.84" cy="17.46" r=".66"/><path class="cls-9" d="M18.43 14.4a4.66 4.66 0 0 1 .06 3.72A7.17 7.17 0 0 1 16.8 15a5.09 5.09 0 0 1-2.8.7 5.09 5.09 0 0 1-2.8-.7 7.19 7.19 0 0 1-1.68 3.16A4.64 4.64 0 0 1 9.36 15c.64-2 1.88-3.2 4.64-3.2 3.24 0 4.2.37 5.22 0a2.84 2.84 0 0 1-.79 2.6z"/><g><path class="cls-10" d="M9.36 16.54c.61-2 1.88-3.21 4.64-3.21 3.12 0 4.12.34 5.1 0a2.75 2.75 0 0 0 .12-1.57c-1 .37-2 0-5.22 0-2.76.04-4 1.24-4.64 3.24a4.57 4.57 0 0 0-.13 2.1 3.9 3.9 0 0 1 .13-.56z"/></g><path class="cls-6" d="M18.43 14.4a4.66 4.66 0 0 1 .06 3.72A7.17 7.17 0 0 1 16.8 15a5.09 5.09 0 0 1-2.8.7 5.09 5.09 0 0 1-2.8-.7 7.19 7.19 0 0 1-1.68 3.16A4.64 4.64 0 0 1 9.36 15c.64-2 1.88-3.2 4.64-3.2 3.24 0 4.2.37 5.22 0a2.84 2.84 0 0 1-.79 2.6z"/><ellipse class="cls-2" cx="40.45" cy="41.04" rx="1.89" ry="3.01" transform="rotate(-36.75 40.45 41.047)"/><path class="cls-3" d="M28.75 23.23l-2.81 2.89a4 4 0 0 0-.67 4.66l.41.78a1.45 1.45 0 1 0 2.56-1.36l-.08-.2a2 2 0 0 1 .32-2.34l2.36-2.42z"/><path class="cls-3" d="M38.46 23.23l2.81 2.89a4 4 0 0 1 .73 4.66l-.42.78A1.45 1.45 0 1 1 39 30.2l.09-.17a2 2 0 0 0-.33-2.34l-2.36-2.42z"/><path class="cls-3" d="M30.02 31.77h3.55v13.25h-3.55z"/><path class="cls-2" d="M33.47 45h-3.34a.5.5 0 0 1-.49-.59v-.22a2.16 2.16 0 0 1 2.12-1.74 2.14 2.14 0 0 1 2.11 1.74l.05.22a.5.5 0 0 1-.45.59z"/><path class="cls-3" d="M32.73 32.61a34.89 34.89 0 0 0 3.7 6.22 28.08 28.08 0 0 0 2.07 2.54A1.75 1.75 0 0 0 41.05 39c-.52-.55-1.21-1.35-2.08-2.47a22 22 0 0 1-3.21-6.29z"/><path class="cls-4" d="M30 28.35v8.85h3.55v-2a1.14 1.14 0 0 0 .45-.1l1 1.6 2.87-1.88a8.76 8.76 0 0 1-.65-2.71v-3.76a11.63 11.63 0 0 1 1.27-5.12h-9.74A11.64 11.64 0 0 1 30 28.35z"/><path class="cls-5" d="M29.49 25.06h8.23c.24-.72.52-1.32.74-1.83h-9.71a18.06 18.06 0 0 1 .74 1.83z"/><path class="cls-6" d="M30 28.35v8.85h3.55v-2a1.14 1.14 0 0 0 .45-.1l1 1.6 2.87-1.88a8.76 8.76 0 0 1-.65-2.71v-3.76a11.63 11.63 0 0 1 1.27-5.12h-9.74A11.64 11.64 0 0 1 30 28.35z"/><path class="cls-3" d="M33.61 25.73a2.5 2.5 0 0 0 2.5-2.5h-5a2.5 2.5 0 0 0 2.5 2.5z"/><circle class="cls-3" cx="33.61" cy="16.65" r="4.73"/><ellipse class="cls-4" cx="30.58" cy="10.11" rx="1.46" ry="4.38" transform="rotate(-9.61 30.598 10.12)"/><ellipse class="cls-4" cx="36.64" cy="10.11" rx="4.37" ry="1.46" transform="rotate(-80.39 36.633 10.109)"/><path class="cls-7" d="M29.85 8c.79-.17 1.76 1.65 2.15 4 0 .28.08.55.11.81a10.64 10.64 0 0 0-.11-3c-.41-2.38-1.38-4.2-2.17-4.07s-1 1.73-.82 3.75c.14-.85.42-1.49.84-1.49z"/><path class="cls-7" d="M35.2 12c.4-2.38 1.37-4.2 2.17-4.07.41.07.69.68.81 1.58.21-2-.11-3.63-.81-3.75s-1.77 1.72-2.17 4.1a10.28 10.28 0 0 0-.11 3c.03-.28.06-.55.11-.86z"/><ellipse class="cls-6" cx="30.58" cy="10.11" rx="1.46" ry="4.38" transform="rotate(-9.61 30.598 10.12)"/><ellipse class="cls-6" cx="36.64" cy="10.11" rx="4.37" ry="1.46" transform="rotate(-80.39 36.633 10.109)"/><circle class="cls-8" cx="31.76" cy="17.49" r=".66"/><circle class="cls-8" cx="35.45" cy="17.49" r=".66"/><path class="cls-9" d="M38 14.43a4.61 4.61 0 0 1 .05 3.71A7.2 7.2 0 0 1 36.41 15a5.13 5.13 0 0 1-2.8.7 5.09 5.09 0 0 1-2.8-.7 7.17 7.17 0 0 1-1.69 3.15A4.63 4.63 0 0 1 29 15c.6-2 1.87-3.21 4.64-3.21 3.24 0 4.19.37 5.21 0a2.83 2.83 0 0 1-.85 2.64z"/><g><path class="cls-10" d="M29 16.57c.6-2 1.87-3.21 4.64-3.21 3.11 0 4.11.33 5.09 0a2.72 2.72 0 0 0 .12-1.56c-1 .37-2 0-5.21 0-2.77 0-4 1.23-4.64 3.21a4.53 4.53 0 0 0-.13 2.09 4.09 4.09 0 0 1 .13-.53z"/></g><path class="cls-6" d="M38 14.43a4.61 4.61 0 0 1 .05 3.71A7.2 7.2 0 0 1 36.41 15a5.13 5.13 0 0 1-2.8.7 5.09 5.09 0 0 1-2.8-.7 7.17 7.17 0 0 1-1.69 3.15A4.63 4.63 0 0 1 29 15c.6-2 1.87-3.21 4.64-3.21 3.24 0 4.19.37 5.21 0a2.83 2.83 0 0 1-.85 2.64z"/></svg>