<svg xmlns="http://www.w3.org/2000/svg" viewBox="0 0 48 48"><defs><style>.cls-10{fill:#45413c}.cls-2,.cls-5{fill:#656769}.cls-3{fill:#525252}.cls-4{fill:none}.cls-4,.cls-5,.cls-8{stroke:#45413c;stroke-linecap:round;stroke-linejoin:round}.cls-6{fill:#bf8256}.cls-7{fill:#dea47a}.cls-8{fill:#ffcebf}.cls-9{fill:#87898c}</style></defs><ellipse cx="24.38" cy="44.98" rx="18" ry="1.5" opacity=".15" fill="#45413c"/><ellipse class="cls-2" cx="10.97" cy="10.06" rx="1.46" ry="4.38" transform="rotate(-9.61 10.953 10.086)"/><ellipse class="cls-2" cx="17.03" cy="10.06" rx="4.38" ry="1.46" transform="rotate(-80.39 17.03 10.058)"/><path class="cls-3" d="M10.24 7.91C11 7.78 12 9.6 12.41 12c.05.28.08.55.11.82a10.27 10.27 0 0 0-.11-3C12 7.43 11 5.61 10.24 5.75s-1 1.72-.82 3.74c.12-.9.4-1.49.82-1.58z"/><path class="cls-3" d="M15.59 12C16 9.6 17 7.78 17.76 7.91c.42.07.7.68.82 1.58.21-2-.12-3.63-.82-3.74S16 7.43 15.59 9.82a10.63 10.63 0 0 0-.11 3c.03-.29.07-.56.11-.82z"/><ellipse class="cls-4" cx="10.97" cy="10.06" rx="1.46" ry="4.38" transform="rotate(-9.61 10.953 10.086)"/><ellipse class="cls-4" cx="17.03" cy="10.06" rx="4.38" ry="1.46" transform="rotate(-80.39 17.03 10.058)"/><ellipse class="cls-5" cx="20.84" cy="40.99" rx="1.89" ry="3.01" transform="rotate(-36.75 20.843 41.002)"/><path class="cls-6" d="M19.1 24.73H8.9v-8.24a5.1 5.1 0 0 1 10.2 0z"/><path class="cls-7" d="M14 11.39a5.1 5.1 0 0 0-5.1 5.1v1.88a5.1 5.1 0 0 1 10.2 0v-1.88a5.1 5.1 0 0 0-5.1-5.1z"/><path class="cls-4" d="M19.1 24.73H8.9v-8.24a5.1 5.1 0 0 1 10.2 0z"/><path class="cls-8" d="M16.14 12.41a10.49 10.49 0 0 1-6.87 4.2 4.73 4.73 0 0 0 9.46 0 4.69 4.69 0 0 0-.06-.54 2.62 2.62 0 0 1-2.18-2z"/><path class="cls-8" d="M9.15 23.18l-2.82 2.89a4 4 0 0 0-.67 4.66l.42.79a1.45 1.45 0 1 0 2.56-1.37L8.55 30a2 2 0 0 1 .33-2.34l2.36-2.42z"/><path class="cls-8" d="M18.85 23.18l2.82 2.89a4 4 0 0 1 .67 4.66l-.41.79a1.46 1.46 0 1 1-2.57-1.37l.09-.17a2 2 0 0 0-.33-2.34l-2.35-2.42z"/><path class="cls-8" d="M10.42 31.73h3.55v13.25h-3.55z"/><path class="cls-5" d="M13.86 45h-3.34a.5.5 0 0 1-.49-.6l.05-.21a2.14 2.14 0 0 1 2.11-1.75 2.16 2.16 0 0 1 2.12 1.75v.21a.5.5 0 0 1-.45.6z"/><path class="cls-8" d="M13.13 32.57a35.32 35.32 0 0 0 3.69 6.21 29.92 29.92 0 0 0 2.07 2.54 1.75 1.75 0 0 0 2.55-2.4 32.06 32.06 0 0 1-2.07-2.47 21.74 21.74 0 0 1-3.21-6.29z"/><path class="cls-2" d="M9.15 23.18a11.74 11.74 0 0 1 1.27 5.13v3.76a1 1 0 0 0 .36.77L13.37 35a1 1 0 0 0 1.26 0l2.59-2.12a1 1 0 0 0 .36-.77v-3.8a11.78 11.78 0 0 1 1.27-5.13z"/><path class="cls-9" d="M9.89 25h8.22a19.52 19.52 0 0 1 .74-1.83h-9.7A19.52 19.52 0 0 1 9.89 25z"/><path class="cls-4" d="M9.15 23.18a11.74 11.74 0 0 1 1.27 5.13v3.76a1 1 0 0 0 .36.77L13.37 35a1 1 0 0 0 1.26 0l2.59-2.12a1 1 0 0 0 .36-.77v-3.8a11.78 11.78 0 0 1 1.27-5.13z"/><path class="cls-8" d="M14 25.68a2.49 2.49 0 0 0 2.5-2.5h-5a2.49 2.49 0 0 0 2.5 2.5z"/><circle class="cls-10" cx="12.16" cy="17.34" r=".66"/><circle class="cls-10" cx="15.84" cy="17.34" r=".66"/><ellipse class="cls-2" cx="30.58" cy="10.08" rx="1.46" ry="4.38" transform="rotate(-9.61 30.603 10.06)"/><ellipse class="cls-2" cx="36.64" cy="10.08" rx="4.38" ry="1.46" transform="rotate(-80.39 36.636 10.081)"/><path class="cls-3" d="M29.85 7.94C30.64 7.8 31.61 9.62 32 12c0 .27.08.54.11.81a10.64 10.64 0 0 0-.11-3c-.41-2.38-1.38-4.2-2.17-4.07s-1 1.73-.82 3.74c.14-.87.42-1.48.84-1.54z"/><path class="cls-3" d="M35.2 12c.4-2.39 1.37-4.21 2.17-4.07.41.07.69.67.81 1.57.21-2-.11-3.62-.81-3.74s-1.77 1.7-2.17 4.08a10.28 10.28 0 0 0-.11 3c.03-.29.06-.56.11-.84z"/><ellipse class="cls-4" cx="30.58" cy="10.08" rx="1.46" ry="4.38" transform="rotate(-9.61 30.603 10.06)"/><ellipse class="cls-4" cx="36.64" cy="10.08" rx="4.38" ry="1.46" transform="rotate(-80.39 36.636 10.081)"/><ellipse class="cls-5" cx="40.45" cy="41.02" rx="1.89" ry="3.01" transform="rotate(-36.75 40.46 41.017)"/><path class="cls-6" d="M38.71 24.76h-10.2v-8.25a5.1 5.1 0 0 1 10.2 0z"/><path class="cls-7" d="M33.61 11.42a5.09 5.09 0 0 0-5.1 5.09v1.88a5.1 5.1 0 0 1 10.2 0v-1.88a5.1 5.1 0 0 0-5.1-5.09z"/><path class="cls-4" d="M38.71 24.76h-10.2v-8.25a5.1 5.1 0 0 1 10.2 0z"/><path class="cls-8" d="M35.74 12.43a10.4 10.4 0 0 1-6.86 4.2 4.73 4.73 0 1 0 9.45 0 4.53 4.53 0 0 0 0-.53 2.62 2.62 0 0 1-2.18-2z"/><path class="cls-8" d="M28.75 23.21l-2.81 2.89a4 4 0 0 0-.67 4.66l.41.78a1.45 1.45 0 1 0 2.56-1.37l-.08-.17a2 2 0 0 1 .32-2.35l2.36-2.42z"/><path class="cls-8" d="M38.46 23.21l2.81 2.89a4 4 0 0 1 .73 4.66l-.42.78A1.45 1.45 0 1 1 39 30.17l.09-.16a2 2 0 0 0-.33-2.35l-2.36-2.42z"/><path class="cls-8" d="M30.02 31.75h3.55V45h-3.55z"/><path class="cls-5" d="M33.47 45h-3.34a.5.5 0 0 1-.49-.6v-.21a2.16 2.16 0 0 1 2.12-1.74 2.14 2.14 0 0 1 2.11 1.74l.05.21a.5.5 0 0 1-.45.6z"/><path class="cls-8" d="M32.73 32.59a34.64 34.64 0 0 0 3.7 6.21 25.47 25.47 0 0 0 2.07 2.54A1.75 1.75 0 0 0 41.05 39c-.52-.56-1.21-1.36-2.08-2.48a22 22 0 0 1-3.21-6.28z"/><path class="cls-2" d="M28.75 23.21A11.51 11.51 0 0 1 30 28.33v3.76a1 1 0 0 0 .37.77L33 35a1 1 0 0 0 1.27 0l2.58-2.12a1 1 0 0 0 .37-.77v-3.78a11.55 11.55 0 0 1 1.27-5.12z"/><path class="cls-9" d="M29.49 25h8.23a19.52 19.52 0 0 1 .74-1.83h-9.71a19.52 19.52 0 0 1 .74 1.83z"/><path class="cls-4" d="M28.75 23.21A11.51 11.51 0 0 1 30 28.33v3.76a1 1 0 0 0 .37.77L33 35a1 1 0 0 0 1.27 0l2.58-2.12a1 1 0 0 0 .37-.77v-3.78a11.55 11.55 0 0 1 1.27-5.12z"/><path class="cls-8" d="M33.61 25.71a2.5 2.5 0 0 0 2.5-2.5h-5a2.5 2.5 0 0 0 2.5 2.5z"/><circle class="cls-10" cx="31.76" cy="17.36" r=".66"/><circle class="cls-10" cx="35.45" cy="17.36" r=".66"/></svg>