<svg xmlns="http://www.w3.org/2000/svg" viewBox="0 0 48 48"><defs><style>.cls-2{fill:#ffe500;stroke:#45413c;stroke-linecap:round;stroke-linejoin:round}.cls-4{fill:#adc4d9}</style></defs><ellipse cx="24" cy="41.5" rx="11.5" ry="1.5" fill="#45413c" opacity=".15"/><path class="cls-2" d="M40.29 27.4l3.14-4.48a.4.4 0 0 1 .61-.07l1.74 2a.38.38 0 0 1-.15.59l-4.89 2.5a.35.35 0 0 1-.45-.54z"/><path class="cls-2" d="M41 30.42l5.52-.79A.4.4 0 0 1 47 30l-.23 2.63a.41.41 0 0 1-.55.3l-5.29-1.83a.35.35 0 0 1 .07-.68z"/><path class="cls-2" d="M41 34.4l4.54 2a.36.36 0 0 1 .14.55L44.06 39a.36.36 0 0 1-.57 0l-2.9-4a.36.36 0 0 1 .41-.6z"/><path d="M27.36 41H16.23a17.67 17.67 0 0 0 1.69-4.88A8.88 8.88 0 0 0 16 30.19a10.69 10.69 0 0 1 6.57-17.87c6.46-1.07 10.59 1.56 12.15-.63.35 2.32-.13 4.2-1.73 5.5a7.52 7.52 0 0 1 .59 3.63 2.94 2.94 0 0 0 .79 2.24L36 24.73a1 1 0 0 1-.14 1.5l-1 .7a.6.6 0 0 0-.21.72l.25.65a1 1 0 0 1-.42 1.23l-2.74 1.62a.79.79 0 0 0 0 1.35L34.1 34a1 1 0 0 1 .45 1c-.31 1-.62 2.35-2.25 2.29l-3.71-.14c-1.92.91-1.23 3.85-1.23 3.85z" fill="#8ca4b8"/><g><path class="cls-4" d="M22.58 15.6c6.07-1 10.08 1.25 11.84-.29a6.7 6.7 0 0 0 .31-3.62c-1.56 2.19-5.69-.44-12.15.63a10.72 10.72 0 0 0-9.33 9.3 11.17 11.17 0 0 0 0 2.95 10.75 10.75 0 0 1 9.33-8.97z"/><path class="cls-4" d="M33.59 20.82a7.25 7.25 0 0 0 0-.93c-.76 2.25-.33 5.29.78 6.45l.55.56.93-.67a1 1 0 0 0 .14-1.5l-1.62-1.67a2.94 2.94 0 0 1-.78-2.24z"/></g><path d="M27.36 41H16.23a17.67 17.67 0 0 0 1.69-4.88A8.88 8.88 0 0 0 16 30.19a10.69 10.69 0 0 1 6.57-17.87c6.46-1.07 10.59 1.56 12.15-.63.35 2.32-.13 4.2-1.73 5.5a7.52 7.52 0 0 1 .59 3.63 2.94 2.94 0 0 0 .79 2.24L36 24.73a1 1 0 0 1-.14 1.5l-1 .7a.6.6 0 0 0-.21.72l.25.65a1 1 0 0 1-.42 1.23l-2.74 1.62a.79.79 0 0 0 0 1.35L34.1 34a1 1 0 0 1 .45 1c-.31 1-.62 2.35-2.25 2.29l-3.71-.14c-1.92.91-1.23 3.85-1.23 3.85z" fill="none" stroke="#45413c" stroke-linecap="round" stroke-linejoin="round"/></svg>