<svg xmlns="http://www.w3.org/2000/svg" viewBox="0 0 48 48"><defs><style>.cls-6{fill:#45413c}.cls-12,.cls-2{fill:#ffcebf}.cls-2,.cls-5,.cls-9{stroke:#45413c;stroke-linecap:round;stroke-linejoin:round}.cls-3{fill:#a86c4d}.cls-4{fill:#de926a}.cls-5{fill:none}.cls-9{fill:#656769}.cls-13{fill:#ffb59e}</style></defs><ellipse cx="23.4" cy="45.27" rx="16" ry="1.5" opacity=".15" fill="#45413c"/><circle class="cls-2" cx="14.9" cy="15.1" r="4.66"/><path class="cls-3" d="M14.9 9.15a29.57 29.57 0 0 0-4.9.45l1.25 1.32a4.71 4.71 0 0 0-1 2.89v1.51a3.86 3.86 0 0 0 1.92-2.63.75.75 0 0 1 .25-.41 5.16 5.16 0 0 0 2.5.58 5.15 5.15 0 0 0 2.49-.58.7.7 0 0 1 .25.41 3.86 3.86 0 0 0 1.92 2.63v-1.51a4.66 4.66 0 0 0-4.68-4.66z"/><g><path class="cls-4" d="M14.9 9.15a29.57 29.57 0 0 0-4.9.45l1.25 1.32-.13.18a28.3 28.3 0 0 1 3.8-.28 4.65 4.65 0 0 1 4.65 4.5v-1.51a4.66 4.66 0 0 0-4.67-4.66z"/></g><path class="cls-5" d="M19.56 13.81a4.66 4.66 0 0 0-4.66-4.66 29.57 29.57 0 0 0-4.9.45l1.25 1.32a4.71 4.71 0 0 0-1 2.89v1.51a3.86 3.86 0 0 0 1.92-2.63.75.75 0 0 1 .25-.41 5.16 5.16 0 0 0 2.5.58 5.15 5.15 0 0 0 2.49-.58.7.7 0 0 1 .25.41 3.86 3.86 0 0 0 1.92 2.63z"/><circle class="cls-6" cx="13.05" cy="15.79" r=".66"/><circle class="cls-6" cx="16.74" cy="15.79" r=".66"/><path d="M10.82 32.75V45h3.08v-8.78a1 1 0 0 1 1-1 1 1 0 0 1 1 1V45H19V32.75z" fill="#724f3d"/><path fill="#915e3a" d="M10.82 32.75v2.31h8.15v-2.31h-8.15z"/><path class="cls-5" d="M10.82 32.75V45h3.08v-8.78a1 1 0 0 1 1-1 1 1 0 0 1 1 1V45H19V32.75z"/><path class="cls-9" d="M10.71 45c-.34 0-.57-.23-.45-.81a2.15 2.15 0 0 1 2.11-1.74 2.16 2.16 0 0 1 2.12 1.74c.11.58-.11.81-.45.81z"/><path class="cls-9" d="M15.76 45c-.34 0-.56-.23-.45-.81a2.16 2.16 0 0 1 2.12-1.74 2.16 2.16 0 0 1 2.12 1.74c.11.58-.11.81-.45.81z"/><path class="cls-2" d="M24.31 30.71A7.38 7.38 0 0 1 22 27.78h-2.84a8.75 8.75 0 0 0 3.38 5.27 1.47 1.47 0 1 0 1.77-2.34z"/><path class="cls-2" d="M8.17 27.78v5.55a1.38 1.38 0 0 0 1.33 1.42 1.37 1.37 0 0 0 1.32-1.42v-5.55z"/><g><path d="M21.37 25c0-2.16-2-3.4-4.15-3.4h-4.91c-2.15 0-4.14 1.24-4.14 3.4v2.79h2.65v5H19v-5h3a7.2 7.2 0 0 1-.63-2.79z" fill="#00b8f0"/></g><path d="M12.31 23.59h5.41a4.32 4.32 0 0 1 3.66 1.73v-.33c0-2.16-2-3.4-4.15-3.4h-4.92c-2.15 0-4.14 1.24-4.14 3.4v2c0-2.15 1.99-3.4 4.14-3.4z" fill="#4acfff"/><g><path class="cls-5" d="M21.37 25c0-2.16-2-3.4-4.15-3.4h-4.91c-2.15 0-4.14 1.24-4.14 3.4v2.79h2.65v5H19v-5h3a7.2 7.2 0 0 1-.63-2.79z"/></g><path class="cls-5" d="M10.82 27.78v-2.16"/><path class="cls-5" d="M18.97 27.78v-2.16"/><path class="cls-2" d="M14.9 23.62a2 2 0 0 0 2-2h-4.03a2 2 0 0 0 2.03 2z"/><path class="cls-2" d="M37.22 24.7a31.77 31.77 0 0 1 1.12 8.37 1.33 1.33 0 1 1-2.65 0V24.7z"/><path class="cls-12" transform="rotate(-180 33.665 38.395)" d="M32.12 31.77h3.09v13.25h-3.09z"/><path class="cls-13" transform="rotate(-180 33.665 35.575)" d="M32.12 31.77h3.09v7.6h-3.09z"/><path class="cls-5" transform="rotate(-180 33.665 38.395)" d="M32.12 31.77h3.09v13.25h-3.09z"/><path class="cls-12" transform="rotate(-180 30.575 38.395)" d="M29.03 31.77h3.09v13.25h-3.09z"/><path class="cls-13" transform="rotate(-180 30.575 35.575)" d="M29.03 31.77h3.09v7.6h-3.09z"/><path class="cls-5" transform="rotate(-180 30.575 38.395)" d="M29.03 31.77h3.09v13.25h-3.09z"/><path class="cls-9" d="M35.78 44.21a2.15 2.15 0 0 0-2.11-1.74 2.19 2.19 0 0 0-1.55.65 2.16 2.16 0 0 0-3.66 1.09c-.11.58.11.81.45.81h6.42c.34-.02.57-.23.45-.81z"/><path class="cls-3" d="M37.19 21.41a1 1 0 0 1-1 1H28a1 1 0 0 1-1-1v-7.25a5.1 5.1 0 0 1 10.2 0z"/><path class="cls-4" d="M32.09 9.07A5.09 5.09 0 0 0 27 14.16v1.76a5.1 5.1 0 1 1 10.2 0v-1.76a5.09 5.09 0 0 0-5.11-5.09z"/><path class="cls-5" d="M37.19 21.41a1 1 0 0 1-1 1H28a1 1 0 0 1-1-1v-7.25a5.1 5.1 0 0 1 10.2 0z"/><path class="cls-2" d="M34.21 10.82l-.73.85A9.87 9.87 0 0 1 27.36 15a4.73 4.73 0 1 0 9.46 0 4.52 4.52 0 0 0-.06-.53 2.62 2.62 0 0 1-2.18-2z"/><circle class="cls-6" cx="30.25" cy="15.76" r=".66"/><circle class="cls-6" cx="33.93" cy="15.76" r=".66"/><path class="cls-2" d="M27 24.7v.44a7.27 7.27 0 0 1-3.06 5.51A1.47 1.47 0 1 0 25.66 33a8.83 8.83 0 0 0 3.73-7z"/><path d="M35.68 31.26v-2.71a5.32 5.32 0 0 1 1.54-3.85 5.13 5.13 0 0 0-5.1-3.25A5.13 5.13 0 0 0 27 24.7a5.36 5.36 0 0 1 1.54 3.85v2.71c0 1.74-.63 3.11-.83 5a1 1 0 0 0 1 1.1h6.78a1 1 0 0 0 1-1.1c-.18-1.89-.81-3.26-.81-5z" fill="#ff87af"/><path d="M32.12 23.62a5.25 5.25 0 0 1 4.38 2 4.45 4.45 0 0 1 .72-.9 5.13 5.13 0 0 0-5.1-3.25A5.13 5.13 0 0 0 27 24.7a4.45 4.45 0 0 1 .72.9 5.25 5.25 0 0 1 4.4-1.98z" fill="#ffb0ca"/><path class="cls-5" d="M35.68 31.26v-2.71a5.32 5.32 0 0 1 1.54-3.85 5.13 5.13 0 0 0-5.1-3.25A5.13 5.13 0 0 0 27 24.7a5.36 5.36 0 0 1 1.54 3.85v2.71c0 1.74-.63 3.11-.83 5a1 1 0 0 0 1 1.1h6.78a1 1 0 0 0 1-1.1c-.18-1.89-.81-3.26-.81-5z"/><path transform="rotate(-180 32.12 30.255)" fill="#ff6242" stroke="#45413c" stroke-linecap="round" stroke-linejoin="round" d="M28.56 29.17h7.13v2.17h-7.13z"/><path class="cls-5" d="M32.12 43.12v1.9"/><path class="cls-5" d="M30.33 37.4l.25-2.34"/><path class="cls-5" d="M33.92 37.4l-.25-2.34"/><path class="cls-2" d="M32.12 21.45a6.72 6.72 0 0 0-1.82.24c.1 1.23.87 2.18 1.82 2.18a2.11 2.11 0 0 0 1.82-2.18 6.62 6.62 0 0 0-1.82-.24z"/></svg>