<svg xmlns="http://www.w3.org/2000/svg" viewBox="0 0 48 48"><defs><style>.cls-1{fill:#00b8f0}.cls-2{fill:#009fd9}.cls-3{fill:none}.cls-3,.cls-8,.cls-9{stroke:#45413c;stroke-linecap:round;stroke-linejoin:round}.cls-4,.cls-8{fill:#ffe500}.cls-5{fill:#ebcb00}.cls-6{fill:#724f3d}.cls-7{fill:#a86c4d}.cls-9{fill:#45413c}.cls-10{fill:#ffaa54}.cls-11{fill:#ff6242}.cls-12{fill:#ffa694}</style></defs><path class="cls-1" d="M44.5 31a12.23 12.23 0 0 0-2.59-.28A11.88 11.88 0 0 0 30 42.6v1.9h14.5z"/><path class="cls-2" d="M41.91 30.72A11.88 11.88 0 0 0 30 42.6v1.9h.12a11.89 11.89 0 0 1 11.79-10.16 11.62 11.62 0 0 1 2.59.29V31a12.23 12.23 0 0 0-2.59-.28z"/><path class="cls-3" d="M44.5 31a12.23 12.23 0 0 0-2.59-.28A11.88 11.88 0 0 0 30 42.6v1.9h14.5z"/><rect class="cls-4" x="39.41" y="26.67" width="5.09" height="7.94" rx="2.54" ry="2.54"/><path class="cls-5" d="M42 26.67a2.55 2.55 0 0 0-2.55 2.54v.6a2.55 2.55 0 0 0 5.09 0v-.59A2.55 2.55 0 0 0 42 26.67z"/><rect class="cls-3" x="39.41" y="26.67" width="5.09" height="7.94" rx="2.54" ry="2.54"/><path class="cls-6" d="M44.5 6.76a9.69 9.69 0 0 0-2.59-.35 9.91 9.91 0 0 0-2.45.31c-1.85.42-4.27 1.12-6.46.7a4.15 4.15 0 0 0 .84 3.21 9.75 9.75 0 0 0-1.76 5.6v5.14H44.5z"/><g><path class="cls-7" d="M41.91 6.41a9.91 9.91 0 0 0-2.45.31c-1.85.42-4.27 1.12-6.46.7a4.55 4.55 0 0 0 .46 2.65 17.81 17.81 0 0 0 6-.77 9.91 9.91 0 0 1 2.45-.3 9.69 9.69 0 0 1 2.59.35V6.76a9.69 9.69 0 0 0-2.59-.35z"/></g><path class="cls-3" d="M44.5 6.76a9.69 9.69 0 0 0-2.59-.35 9.91 9.91 0 0 0-2.45.31c-1.85.42-4.27 1.12-6.46.7a4.15 4.15 0 0 0 .84 3.21 9.75 9.75 0 0 0-1.76 5.6v5.14H44.5z"/><path class="cls-8" d="M44.5 14a18 18 0 0 1-2.59.18 15.34 15.34 0 0 1-6-1.09 1.87 1.87 0 0 0-1.39 1.81v2.49a1.61 1.61 0 0 1-1.6 1.6 1.88 1.88 0 0 0-1.88 1.51 1.81 1.81 0 0 0 1.79 2.11H33a9.07 9.07 0 0 0 9 7.72 9.22 9.22 0 0 0 2.59-.38z"/><path class="cls-9" d="M36.47 20.41a.78.78 0 1 0 .77-.77.77.77 0 0 0-.77.77z"/><path class="cls-3" d="M34.97 44.5v-2.41"/><ellipse class="cls-10" cx="35.97" cy="23.69" rx="1" ry=".6"/><path class="cls-11" d="M44.5 25.1h-5.43a.46.46 0 0 0-.44.51 3.33 3.33 0 0 0 5.87 1.54z"/><path class="cls-12" d="M41.91 26.54a3.32 3.32 0 0 0-2.31.92 3.36 3.36 0 0 0 4.62 0 3.34 3.34 0 0 0-2.31-.92z"/><path class="cls-3" d="M44.5 25.1h-5.43a.46.46 0 0 0-.44.51 3.33 3.33 0 0 0 5.87 1.54z"/><path class="cls-1" d="M3.5 31a12.23 12.23 0 0 1 2.59-.28A11.88 11.88 0 0 1 18 42.6v1.9H3.5z"/><path class="cls-2" d="M6.09 30.72A11.88 11.88 0 0 1 18 42.6v1.9h-.12A11.89 11.89 0 0 0 6.09 34.34a11.62 11.62 0 0 0-2.59.29V31a12.23 12.23 0 0 1 2.59-.28z"/><path class="cls-3" d="M3.5 31a12.23 12.23 0 0 1 2.59-.28A11.88 11.88 0 0 1 18 42.6v1.9H3.5z"/><rect class="cls-4" x="3.5" y="26.67" width="5.09" height="7.94" rx="2.54" ry="2.54" transform="rotate(-180 6.045 30.64)"/><path class="cls-5" d="M6 26.67a2.55 2.55 0 0 1 2.55 2.54v.6a2.55 2.55 0 0 1-5.09 0v-.59A2.55 2.55 0 0 1 6 26.67z"/><rect class="cls-3" x="3.5" y="26.67" width="5.09" height="7.94" rx="2.54" ry="2.54" transform="rotate(-180 6.045 30.64)"/><path class="cls-6" d="M3.5 6.76a9.69 9.69 0 0 1 2.59-.35 9.91 9.91 0 0 1 2.45.31c1.85.42 4.27 1.12 6.46.7a4.15 4.15 0 0 1-.84 3.21 9.75 9.75 0 0 1 1.76 5.6v5.14H3.5z"/><g><path class="cls-7" d="M6.09 6.41a9.91 9.91 0 0 1 2.45.31c1.85.42 4.27 1.12 6.46.7a4.55 4.55 0 0 1-.46 2.65 17.81 17.81 0 0 1-6-.77A9.91 9.91 0 0 0 6.09 9a9.69 9.69 0 0 0-2.59.35V6.76a9.69 9.69 0 0 1 2.59-.35z"/></g><path class="cls-3" d="M3.5 6.76a9.69 9.69 0 0 1 2.59-.35 9.91 9.91 0 0 1 2.45.31c1.85.42 4.27 1.12 6.46.7a4.15 4.15 0 0 1-.84 3.21 9.75 9.75 0 0 1 1.76 5.6v5.14H3.5z"/><path class="cls-8" d="M3.5 14a18 18 0 0 0 2.59.18 15.34 15.34 0 0 0 6-1.09 1.87 1.87 0 0 1 1.39 1.81v2.49a1.61 1.61 0 0 0 1.6 1.6A1.88 1.88 0 0 1 17 20.48a1.81 1.81 0 0 1-1.79 2.11h-.11a9.07 9.07 0 0 1-9 7.72 9.22 9.22 0 0 1-2.59-.38z"/><path class="cls-9" d="M11.53 20.41a.78.78 0 1 1-.77-.77.77.77 0 0 1 .77.77z"/><path class="cls-3" d="M13.03 44.5v-2.41"/><ellipse class="cls-10" cx="12.03" cy="23.69" rx="1" ry=".6"/><path class="cls-11" d="M3.5 25.1h5.43a.46.46 0 0 1 .44.51 3.33 3.33 0 0 1-5.87 1.54z"/><path class="cls-12" d="M6.09 26.54a3.32 3.32 0 0 1 2.31.92 3.36 3.36 0 0 1-4.62 0 3.34 3.34 0 0 1 2.31-.92z"/><path class="cls-3" d="M3.5 25.1h5.43a.46.46 0 0 1 .44.51 3.33 3.33 0 0 1-5.87 1.54z"/><g><path d="M33.16 2.68a5.17 5.17 0 0 0-7.1.78L24 5.75l-2.06-2.29a5.17 5.17 0 0 0-7.1-.78A6.53 6.53 0 0 0 12.33 8a8.39 8.39 0 0 0 2.6 6.17L24 22.5l9.07-8.36A8.39 8.39 0 0 0 35.67 8a6.53 6.53 0 0 0-2.51-5.32z" fill="#ff6196"/><path d="M14.84 8.57a5.17 5.17 0 0 1 7.1.78l1.2 1.33a1.16 1.16 0 0 0 1.72 0l1.2-1.33a5.17 5.17 0 0 1 7.1-.78 6 6 0 0 1 2 2.5A8.92 8.92 0 0 0 35.67 8a6.53 6.53 0 0 0-2.51-5.29 5.17 5.17 0 0 0-7.1.78L24 5.75l-2.06-2.29a5.17 5.17 0 0 0-7.1-.78A6.53 6.53 0 0 0 12.33 8a8.92 8.92 0 0 0 .56 3.1 6 6 0 0 1 1.95-2.53z" fill="#ff87af"/><path class="cls-3" d="M33.16 2.68a5.17 5.17 0 0 0-7.1.78L24 5.75l-2.06-2.29a5.17 5.17 0 0 0-7.1-.78A6.53 6.53 0 0 0 12.33 8a8.39 8.39 0 0 0 2.6 6.17L24 22.5l9.07-8.36A8.39 8.39 0 0 0 35.67 8a6.53 6.53 0 0 0-2.51-5.32z"/></g></svg>