<svg xmlns="http://www.w3.org/2000/svg" viewBox="0 0 48 48"><defs><style>.cls-1,.cls-17{fill:#724f3d}.cls-2{fill:#a86c4d}.cls-3{fill:none}.cls-17,.cls-3,.cls-6,.cls-7{stroke:#45413c;stroke-linecap:round;stroke-linejoin:round}.cls-13,.cls-6{fill:#ffe500}.cls-7{fill:#45413c}.cls-8{fill:#ff6242}.cls-9{fill:#ffa694}.cls-10{fill:#ffaa54}.cls-14{fill:#ebcb00}</style></defs><path class="cls-1" d="M35.75.85a10.76 10.76 0 0 1 10.76 10.76v14a1.23 1.23 0 0 1-.76 1.13 26.9 26.9 0 0 1-20 0 1.23 1.23 0 0 1-.75-1.09v-14A10.76 10.76 0 0 1 35.75.85z"/><path class="cls-2" d="M35.75.85A10.76 10.76 0 0 0 25 11.61v3.17A10.76 10.76 0 0 1 35.75 4a10.76 10.76 0 0 1 10.76 10.78v-3.17A10.76 10.76 0 0 0 35.75.85z"/><path class="cls-3" d="M35.75.85a10.76 10.76 0 0 1 10.76 10.76v14a1.23 1.23 0 0 1-.76 1.13 26.9 26.9 0 0 1-20 0 1.23 1.23 0 0 1-.75-1.09v-14A10.76 10.76 0 0 1 35.75.85z"/><path d="M35.75 25.49A11.75 11.75 0 0 1 47.5 37.24V47.5H24V37.24a11.75 11.75 0 0 1 11.75-11.75z" fill="#ff87af"/><path d="M35.75 25.49A11.75 11.75 0 0 0 24 37.24v3.59a11.75 11.75 0 0 1 23.5 0v-3.59a11.75 11.75 0 0 0-11.75-11.75z" fill="#ff6196"/><path class="cls-3" d="M35.75 25.49A11.75 11.75 0 0 1 47.5 37.24V47.5H24V37.24a11.75 11.75 0 0 1 11.75-11.75z"/><rect class="cls-6" x="33.23" y="21.48" width="5.03" height="7.85" rx="2.52" ry="2.52"/><g><path class="cls-6" d="M44.72 13.86a8.68 8.68 0 0 1-5.62-5l-.61-1.47a15.75 15.75 0 0 1-9.84 6.11l-1.87.33a1.8 1.8 0 0 0 0 3.59h.11a9 9 0 0 0 17.72 0h.11a1.8 1.8 0 0 0 0-3.59z"/></g><path class="cls-7" d="M30.37 15.29a.77.77 0 0 0 .77.76.76.76 0 0 0 0-1.52.77.77 0 0 0-.77.76z"/><path class="cls-7" d="M41.13 15.29a.77.77 0 0 1-.77.76.76.76 0 0 1 0-1.52.77.77 0 0 1 .77.76z"/><g><g><path class="cls-8" d="M32.94 19.93a.45.45 0 0 0-.33.16.43.43 0 0 0-.1.35 3.29 3.29 0 0 0 6.48 0 .43.43 0 0 0-.1-.35.45.45 0 0 0-.33-.16z"/></g><path class="cls-9" d="M35.75 23.18a3.3 3.3 0 0 0 2.3-.93 3.31 3.31 0 0 0-4.6 0 3.3 3.3 0 0 0 2.3.93z"/></g><g><path class="cls-3" d="M32.94 19.93a.45.45 0 0 0-.33.16.43.43 0 0 0-.1.35 3.29 3.29 0 0 0 6.48 0 .43.43 0 0 0-.1-.35.45.45 0 0 0-.33-.16z"/></g><path class="cls-3" d="M42.62 47.5V36.73"/><ellipse class="cls-10" cx="29.87" cy="18.54" rx=".99" ry=".59"/><ellipse class="cls-10" cx="41.63" cy="18.54" rx=".99" ry=".59"/><path class="cls-1" d="M12.25 1.44a10.22 10.22 0 0 0-2.42.3c-1.83.42-4.22 1.12-6.39.7a4.13 4.13 0 0 0 .83 3.18 9.62 9.62 0 0 0-1.74 5.54v5.08H22v-5.08a9.72 9.72 0 0 0-9.75-9.72z"/><g><path class="cls-2" d="M12.25 1.44a10.22 10.22 0 0 0-2.42.3c-1.83.42-4.22 1.12-6.39.7a4.38 4.38 0 0 0 .67 3 18.62 18.62 0 0 0 5.72-.79 10.22 10.22 0 0 1 2.42-.3 9.72 9.72 0 0 1 9.75 9.7v-2.89a9.72 9.72 0 0 0-9.75-9.72z"/></g><path class="cls-3" d="M12.25 1.44a10.22 10.22 0 0 0-2.42.3c-1.83.42-4.22 1.12-6.39.7a4.13 4.13 0 0 0 .83 3.18 9.62 9.62 0 0 0-1.74 5.54v5.08H22v-5.08a9.72 9.72 0 0 0-9.75-9.72z"/><path d="M12.25 25.49A11.75 11.75 0 0 1 24 37.24V47.5H.5V37.24a11.75 11.75 0 0 1 11.75-11.75z" fill="#00b8f0"/><path d="M12.25 25.49A11.75 11.75 0 0 0 .5 37.24v3.59a11.75 11.75 0 0 1 23.5 0v-3.59a11.75 11.75 0 0 0-11.75-11.75z" fill="#009fd9"/><path class="cls-3" d="M12.25 25.49A11.75 11.75 0 0 1 24 37.24V47.5H.5V37.24a11.75 11.75 0 0 1 11.75-11.75z"/><rect class="cls-13" x="9.73" y="21.48" width="5.03" height="7.85" rx="2.52" ry="2.52"/><rect class="cls-14" x="9.73" y="21.48" width="5.03" height="5.82" rx="2.52" ry="2.52"/><rect class="cls-3" x="9.73" y="21.48" width="5.03" height="7.85" rx="2.52" ry="2.52"/><path class="cls-6" d="M23 15.36a1.86 1.86 0 0 0-1.86-1.5 1.58 1.58 0 0 1-1.58-1.58V9.82A1.86 1.86 0 0 0 18.17 8a15.2 15.2 0 0 1-5.92 1.08A15.2 15.2 0 0 1 6.33 8 1.86 1.86 0 0 0 5 9.82v2.46a1.58 1.58 0 0 1-1.58 1.58 1.86 1.86 0 0 0-1.86 1.5 1.79 1.79 0 0 0 1.77 2.09h.11a9 9 0 0 0 17.72 0h.11A1.79 1.79 0 0 0 23 15.36z"/><path class="cls-7" d="M6.87 15.29a.77.77 0 0 0 .77.76.76.76 0 1 0 0-1.52.77.77 0 0 0-.77.76z"/><path class="cls-7" d="M17.63 15.29a.77.77 0 0 1-.77.76.76.76 0 1 1 0-1.52.77.77 0 0 1 .77.76z"/><g><g><path class="cls-8" d="M9.44 19.93a.45.45 0 0 0-.33.16.43.43 0 0 0-.1.35 3.29 3.29 0 0 0 6.48 0 .43.43 0 0 0-.1-.35.45.45 0 0 0-.33-.16z"/></g><path class="cls-9" d="M12.25 23.18a3.3 3.3 0 0 0 2.3-.93 3.31 3.31 0 0 0-4.6 0 3.3 3.3 0 0 0 2.3.93z"/></g><g><path class="cls-3" d="M9.44 19.93a.45.45 0 0 0-.33.16.43.43 0 0 0-.1.35 3.29 3.29 0 0 0 6.48 0 .43.43 0 0 0-.1-.35.45.45 0 0 0-.33-.16z"/></g><path class="cls-3" d="M5.38 47.5V36.73"/><ellipse class="cls-10" cx="6.37" cy="18.54" rx=".99" ry=".59"/><ellipse class="cls-10" cx="18.13" cy="18.54" rx=".99" ry=".59"/><g><path class="cls-1" d="M15.19 23.74a8 8 0 0 0-8 8v10.99a.77.77 0 0 0 .54.74 24.18 24.18 0 0 0 15 0 .77.77 0 0 0 .54-.74V31.78a8 8 0 0 0-8.08-8.04z"/><path class="cls-2" d="M15.19 23.74a8 8 0 0 0-8 8v2.29a8 8 0 0 1 16.08 0v-2.25a8 8 0 0 0-8.08-8.04z"/><path class="cls-3" d="M15.19 23.74a8 8 0 0 0-8 8v10.99a.77.77 0 0 0 .54.74 24.18 24.18 0 0 0 15 0 .77.77 0 0 0 .54-.74V31.78a8 8 0 0 0-8.08-8.04z"/><path d="M24 47.5a9.42 9.42 0 0 0-17.62 0z" fill="#9ceb60"/><path d="M15.19 44.17a9.36 9.36 0 0 1 7.18 3.33H24a9.42 9.42 0 0 0-17.62 0H8a9.4 9.4 0 0 1 7.19-3.33z" fill="#6dd627"/><path class="cls-3" d="M24 47.5a9.42 9.42 0 0 0-17.62 0z"/><rect class="cls-13" x="13.33" y="38.22" width="3.72" height="6.4" rx="1.86" ry="1.86"/><rect class="cls-14" x="13.33" y="38.22" width="3.72" height="4.64" rx="1.86" ry="1.86"/><rect class="cls-3" x="13.33" y="38.22" width="3.72" height="6.4" rx="1.86" ry="1.86"/><path class="cls-6" d="M23.22 34.27a1.35 1.35 0 0 0-1-1.14 7.64 7.64 0 0 1-7-3.83 7.65 7.65 0 0 1-7 3.83 1.38 1.38 0 0 0-1 1.14 1.35 1.35 0 0 0 1.34 1.46h.08a6.69 6.69 0 0 0 13.24 0h.08a1.34 1.34 0 0 0 1.26-1.46z"/><path class="cls-7" d="M11.67 34.66a.5.5 0 0 0 1 0 .5.5 0 0 0-1 0z"/><path class="cls-7" d="M18.71 34.66a.51.51 0 0 1-.5.5.5.5 0 0 1-.5-.5.5.5 0 0 1 .5-.5.5.5 0 0 1 .5.5z"/><ellipse class="cls-10" cx="10.84" cy="36.78" rx=".65" ry=".39"/><ellipse class="cls-10" cx="19.53" cy="36.78" rx=".65" ry=".39"/><path class="cls-3" d="M13.5 38.76a2.34 2.34 0 0 0 1.69.54 2.34 2.34 0 0 0 1.69-.54"/></g><path class="cls-17" d="M22.94 41.17a8.22 8.22 0 0 0 1.61-2c.8-1.38 2.69-1.69 3.47-.46.67 1.06.27 2.35-1.5 3a3.81 3.81 0 0 1-3.58-.54z"/><path class="cls-17" d="M42.69 41.17a8.12 8.12 0 0 1-1.62-2c-.8-1.38-2.69-1.69-3.46-.46-.67 1.06-.28 2.35 1.49 3a3.84 3.84 0 0 0 3.59-.54z"/><path d="M41.62 47.5a9.42 9.42 0 0 0-17.62 0z" fill="#bf8df2"/><path d="M32.81 44.17A9.4 9.4 0 0 1 40 47.5h1.62a9.42 9.42 0 0 0-17.62 0h1.63a9.36 9.36 0 0 1 7.18-3.33z" fill="#9f5ae5"/><path class="cls-3" d="M41.62 47.5a9.42 9.42 0 0 0-17.62 0z"/><rect class="cls-13" x="30.95" y="38.22" width="3.72" height="6.4" rx="1.86" ry="1.86"/><rect class="cls-14" x="30.95" y="38.22" width="3.72" height="4.64" rx="1.86" ry="1.86"/><rect class="cls-3" x="30.95" y="38.22" width="3.72" height="6.4" rx="1.86" ry="1.86"/><path class="cls-1" d="M32.81 23.77A7.26 7.26 0 0 1 40.07 31v3.8H25.55V31a7.26 7.26 0 0 1 7.26-7.23z"/><path class="cls-2" d="M32.81 23.77A7.26 7.26 0 0 0 25.55 31v2.28a7.26 7.26 0 1 1 14.52 0V31a7.26 7.26 0 0 0-7.26-7.23z"/><path class="cls-3" d="M32.81 23.77A7.26 7.26 0 0 0 25.55 31v3.8h14.52V31a7.26 7.26 0 0 0-7.26-7.23z"/><path class="cls-6" d="M40.85 34.27a1.38 1.38 0 0 0-1-1.14 7.65 7.65 0 0 1-7-3.83 7.64 7.64 0 0 1-7 3.83 1.31 1.31 0 0 0 .3 2.6h.08a6.69 6.69 0 0 0 13.24 0h.08a1.35 1.35 0 0 0 1.3-1.46z"/><path class="cls-7" d="M29.29 34.66a.51.51 0 0 0 .5.5.5.5 0 0 0 .5-.5.5.5 0 0 0-.5-.5.5.5 0 0 0-.5.5z"/><path class="cls-7" d="M36.33 34.66a.5.5 0 0 1-1 0 .5.5 0 0 1 1 0z"/><ellipse class="cls-10" cx="28.47" cy="36.78" rx=".65" ry=".39"/><ellipse class="cls-10" cx="37.16" cy="36.78" rx=".65" ry=".39"/><path class="cls-3" d="M31.12 38.76a2.34 2.34 0 0 0 1.69.54 2.34 2.34 0 0 0 1.69-.54"/></svg>