<svg xmlns="http://www.w3.org/2000/svg" viewBox="0 0 48 48"><defs><style>.cls-1,.cls-16{fill:#724f3d}.cls-2{fill:#a86c4d}.cls-3{fill:none}.cls-16,.cls-3,.cls-8,.cls-9{stroke:#45413c;stroke-linecap:round;stroke-linejoin:round}.cls-6,.cls-8{fill:#ffe500}.cls-7{fill:#ebcb00}.cls-9{fill:#45413c}.cls-10{fill:#ff6242}.cls-11{fill:#ffa694}.cls-12{fill:#ffaa54}</style></defs><path class="cls-1" d="M35.75.85a10.76 10.76 0 0 1 10.76 10.76v14a1.23 1.23 0 0 1-.76 1.13 26.9 26.9 0 0 1-20 0 1.23 1.23 0 0 1-.75-1.09v-14A10.76 10.76 0 0 1 35.75.85z"/><path class="cls-2" d="M35.75.85A10.76 10.76 0 0 0 25 11.61v3.17A10.76 10.76 0 0 1 35.75 4a10.76 10.76 0 0 1 10.76 10.78v-3.17A10.76 10.76 0 0 0 35.75.85z"/><path class="cls-3" d="M35.75.85a10.76 10.76 0 0 1 10.76 10.76v14a1.23 1.23 0 0 1-.76 1.13 26.9 26.9 0 0 1-20 0 1.23 1.23 0 0 1-.75-1.09v-14A10.76 10.76 0 0 1 35.75.85z"/><path d="M35.75 25.49A11.75 11.75 0 0 1 47.5 37.24V47.5H24V37.24a11.75 11.75 0 0 1 11.75-11.75z" fill="#ff87af"/><path d="M35.75 25.49A11.75 11.75 0 0 0 24 37.24v3.59a11.75 11.75 0 0 1 23.5 0v-3.59a11.75 11.75 0 0 0-11.75-11.75z" fill="#ff6196"/><path class="cls-3" d="M35.75 25.49A11.75 11.75 0 0 1 47.5 37.24V47.5H24V37.24a11.75 11.75 0 0 1 11.75-11.75z"/><rect class="cls-6" x="33.23" y="21.48" width="5.03" height="7.85" rx="2.52" ry="2.52"/><rect class="cls-7" x="33.23" y="21.48" width="5.03" height="5.82" rx="2.52" ry="2.52"/><rect class="cls-3" x="33.23" y="21.48" width="5.03" height="7.85" rx="2.52" ry="2.52"/><g><path class="cls-8" d="M44.72 13.86a8.68 8.68 0 0 1-5.62-5l-.61-1.47a15.75 15.75 0 0 1-9.84 6.11l-1.87.33a1.8 1.8 0 0 0 0 3.59h.11a9 9 0 0 0 17.72 0h.11a1.8 1.8 0 0 0 0-3.59z"/></g><path class="cls-9" d="M30.37 15.29a.77.77 0 0 0 .77.76.76.76 0 0 0 0-1.52.77.77 0 0 0-.77.76z"/><path class="cls-9" d="M41.13 15.29a.77.77 0 0 1-.77.76.76.76 0 0 1 0-1.52.77.77 0 0 1 .77.76z"/><g><g><path class="cls-10" d="M32.94 19.93a.45.45 0 0 0-.33.16.43.43 0 0 0-.1.35 3.29 3.29 0 0 0 6.48 0 .43.43 0 0 0-.1-.35.45.45 0 0 0-.33-.16z"/></g><path class="cls-11" d="M35.75 23.18a3.3 3.3 0 0 0 2.3-.93 3.31 3.31 0 0 0-4.6 0 3.3 3.3 0 0 0 2.3.93z"/></g><g><path class="cls-3" d="M32.94 19.93a.45.45 0 0 0-.33.16.43.43 0 0 0-.1.35 3.29 3.29 0 0 0 6.48 0 .43.43 0 0 0-.1-.35.45.45 0 0 0-.33-.16z"/></g><path class="cls-3" d="M42.62 47.5V36.73"/><ellipse class="cls-12" cx="29.87" cy="18.54" rx=".99" ry=".59"/><ellipse class="cls-12" cx="41.63" cy="18.54" rx=".99" ry=".59"/><path class="cls-1" d="M12.27.85A10.78 10.78 0 0 0 1.49 11.63v6.61a8.19 8.19 0 0 0 1.87 5.12s-2.21.71-1.87 3.64c.42 3.72 5.14 3.72 10.76 3.72S22.59 30.76 23 27c.34-3-1.87-3.68-1.87-3.68A8.19 8.19 0 0 0 23 18.24v-6.61A10.78 10.78 0 0 0 12.27.85z"/><g><path class="cls-2" d="M12.27 4A10.77 10.77 0 0 1 23 14.2v-2.57a10.78 10.78 0 0 0-21.56 0v3.12A10.77 10.77 0 0 1 12.27 4z"/></g><path class="cls-3" d="M12.27.85A10.78 10.78 0 0 0 1.49 11.63v6.61a8.19 8.19 0 0 0 1.87 5.12s-2.21.71-1.87 3.64c.42 3.72 5.14 3.72 10.76 3.72S22.59 30.76 23 27c.34-3-1.87-3.68-1.87-3.68A8.19 8.19 0 0 0 23 18.24v-6.61A10.78 10.78 0 0 0 12.27.85z"/><path d="M12.25 25.49A11.75 11.75 0 0 1 24 37.24V47.5H.5V37.24a11.75 11.75 0 0 1 11.75-11.75z" fill="#ff866e"/><path class="cls-10" d="M12.25 25.49A11.75 11.75 0 0 0 .5 37.24v3.57a11.75 11.75 0 0 1 11.75-11.75A11.75 11.75 0 0 1 24 40.81v-3.57a11.75 11.75 0 0 0-11.75-11.75z"/><path class="cls-3" d="M12.25 25.49A11.75 11.75 0 0 1 24 37.24V47.5H.5V37.24a11.75 11.75 0 0 1 11.75-11.75z"/><rect class="cls-6" x="9.73" y="21.48" width="5.03" height="7.85" rx="2.52" ry="2.52"/><rect class="cls-7" x="9.73" y="21.48" width="5.03" height="5.82" rx="2.52" ry="2.52"/><rect class="cls-3" x="9.73" y="21.48" width="5.03" height="7.85" rx="2.52" ry="2.52"/><g><path class="cls-8" d="M21.22 13.86a8.68 8.68 0 0 1-5.62-5L15 7.42a15.75 15.75 0 0 1-9.84 6.11l-1.87.33a1.8 1.8 0 0 0 0 3.59h.11a9 9 0 0 0 17.72 0h.11a1.8 1.8 0 0 0 0-3.59z"/></g><path class="cls-9" d="M6.87 15.29a.77.77 0 0 0 .77.76.76.76 0 1 0 0-1.52.77.77 0 0 0-.77.76z"/><path class="cls-9" d="M17.63 15.29a.77.77 0 0 1-.77.76.76.76 0 1 1 0-1.52.77.77 0 0 1 .77.76z"/><g><g><path class="cls-10" d="M9.44 19.93a.45.45 0 0 0-.33.16.43.43 0 0 0-.1.35 3.29 3.29 0 0 0 6.48 0 .43.43 0 0 0-.1-.35.45.45 0 0 0-.33-.16z"/></g><path class="cls-11" d="M12.25 23.18a3.3 3.3 0 0 0 2.3-.93 3.31 3.31 0 0 0-4.6 0 3.3 3.3 0 0 0 2.3.93z"/></g><g><path class="cls-3" d="M9.44 19.93a.45.45 0 0 0-.33.16.43.43 0 0 0-.1.35 3.29 3.29 0 0 0 6.48 0 .43.43 0 0 0-.1-.35.45.45 0 0 0-.33-.16z"/></g><ellipse class="cls-12" cx="6.37" cy="18.54" rx=".99" ry=".59"/><ellipse class="cls-12" cx="18.13" cy="18.54" rx=".99" ry=".59"/><path class="cls-3" d="M5.38 47.5V36.73"/><path d="M24 47.5a9.42 9.42 0 0 0-17.62 0z" fill="#00f5bc"/><path d="M15.19 44.17a9.36 9.36 0 0 1 7.18 3.33H24a9.42 9.42 0 0 0-17.62 0H8a9.4 9.4 0 0 1 7.19-3.33z" fill="#00dba8"/><path class="cls-3" d="M24 47.5a9.42 9.42 0 0 0-17.62 0z"/><rect class="cls-6" x="13.33" y="38.22" width="3.72" height="6.4" rx="1.86" ry="1.86"/><rect class="cls-7" x="13.33" y="38.22" width="3.72" height="4.64" rx="1.86" ry="1.86"/><rect class="cls-3" x="13.33" y="38.22" width="3.72" height="6.4" rx="1.86" ry="1.86"/><path class="cls-1" d="M15.19 23.77a7.24 7.24 0 0 0-1.81.23 12.06 12.06 0 0 1-4.77.52 3.12 3.12 0 0 0 .61 2.37A7.28 7.28 0 0 0 7.93 31v3.8h14.52V31a7.26 7.26 0 0 0-7.26-7.23z"/><path class="cls-2" d="M15.19 23.77a7.24 7.24 0 0 0-1.81.23 12.06 12.06 0 0 1-4.77.52 3.11 3.11 0 0 0 .6 2.35 14.44 14.44 0 0 0 4.17-.59 7.26 7.26 0 0 1 9.07 7V31a7.26 7.26 0 0 0-7.26-7.23z"/><path class="cls-3" d="M15.19 23.77a7.24 7.24 0 0 0-1.81.23 12.06 12.06 0 0 1-4.77.52 3.12 3.12 0 0 0 .61 2.37A7.28 7.28 0 0 0 7.93 31v3.8h14.52V31a7.26 7.26 0 0 0-7.26-7.23z"/><path class="cls-8" d="M8.18 33.13a1.38 1.38 0 0 0-1 1.14 1.35 1.35 0 0 0 1.34 1.46h.08a6.69 6.69 0 0 0 13.24 0h.08a1.31 1.31 0 0 0 .3-2.6c-3-.59-4.64-3.76-4.68-3.83-.08.09-2.54 3.92-9.36 3.83z"/><path class="cls-9" d="M11.67 34.66a.5.5 0 0 0 1 0 .5.5 0 0 0-1 0z"/><path class="cls-9" d="M18.71 34.66a.51.51 0 0 1-.5.5.5.5 0 0 1-.5-.5.5.5 0 0 1 .5-.5.5.5 0 0 1 .5.5z"/><ellipse class="cls-12" cx="10.84" cy="36.78" rx=".65" ry=".39"/><ellipse class="cls-12" cx="19.53" cy="36.78" rx=".65" ry=".39"/><path class="cls-3" d="M13.5 38.63a2.34 2.34 0 0 0 1.69.54 2.34 2.34 0 0 0 1.69-.54"/><path class="cls-16" d="M22.94 41.17a8.22 8.22 0 0 0 1.61-2c.8-1.38 2.69-1.69 3.47-.46.67 1.06.27 2.35-1.5 3a3.81 3.81 0 0 1-3.58-.54z"/><path class="cls-16" d="M42.69 41.17a8.12 8.12 0 0 1-1.62-2c-.8-1.38-2.69-1.69-3.46-.46-.67 1.06-.28 2.35 1.49 3a3.84 3.84 0 0 0 3.59-.54z"/><path d="M41.62 47.5a9.42 9.42 0 0 0-17.62 0z" fill="#bf8df2"/><path d="M32.81 44.17A9.4 9.4 0 0 1 40 47.5h1.62a9.42 9.42 0 0 0-17.62 0h1.63a9.36 9.36 0 0 1 7.18-3.33z" fill="#9f5ae5"/><path class="cls-3" d="M41.62 47.5a9.42 9.42 0 0 0-17.62 0z"/><rect class="cls-6" x="30.95" y="38.22" width="3.72" height="6.4" rx="1.86" ry="1.86"/><rect class="cls-7" x="30.95" y="38.22" width="3.72" height="4.64" rx="1.86" ry="1.86"/><rect class="cls-3" x="30.95" y="38.22" width="3.72" height="6.4" rx="1.86" ry="1.86"/><path class="cls-1" d="M32.81 23.77A7.26 7.26 0 0 1 40.07 31v3.8H25.55V31a7.26 7.26 0 0 1 7.26-7.23z"/><path class="cls-2" d="M32.81 23.77A7.26 7.26 0 0 0 25.55 31v2.28a7.26 7.26 0 1 1 14.52 0V31a7.26 7.26 0 0 0-7.26-7.23z"/><path class="cls-3" d="M32.81 23.77A7.26 7.26 0 0 0 25.55 31v3.8h14.52V31a7.26 7.26 0 0 0-7.26-7.23z"/><path class="cls-8" d="M40.85 34.27a1.38 1.38 0 0 0-1-1.14 7.65 7.65 0 0 1-7-3.83 7.64 7.64 0 0 1-7 3.83 1.31 1.31 0 0 0 .3 2.6h.08a6.69 6.69 0 0 0 13.24 0h.08a1.35 1.35 0 0 0 1.3-1.46z"/><path class="cls-9" d="M29.29 34.66a.51.51 0 0 0 .5.5.5.5 0 0 0 .5-.5.5.5 0 0 0-.5-.5.5.5 0 0 0-.5.5z"/><path class="cls-9" d="M36.33 34.66a.5.5 0 0 1-1 0 .5.5 0 0 1 1 0z"/><ellipse class="cls-12" cx="28.47" cy="36.78" rx=".65" ry=".39"/><ellipse class="cls-12" cx="37.16" cy="36.78" rx=".65" ry=".39"/><path class="cls-3" d="M31.12 38.76a2.34 2.34 0 0 0 1.69.54 2.34 2.34 0 0 0 1.69-.54"/></svg>