<svg xmlns="http://www.w3.org/2000/svg" viewBox="0 0 48 48"><defs><style>.cls-1{fill:#724f3d}.cls-2{fill:#a86c4d}.cls-3{fill:none}.cls-3,.cls-8,.cls-9{stroke:#45413c;stroke-linecap:round;stroke-linejoin:round}.cls-6,.cls-8{fill:#ffe500}.cls-7{fill:#ebcb00}.cls-9{fill:#45413c}.cls-12{fill:#ffaa54}</style></defs><path class="cls-1" d="M24 1.44a10.22 10.22 0 0 0-2.42.3c-1.83.42-4.22 1.12-6.39.7A4.13 4.13 0 0 0 16 5.62a9.62 9.62 0 0 0-1.74 5.54v5.08h19.46v-5.08A9.72 9.72 0 0 0 24 1.44z"/><g><path class="cls-2" d="M24 1.44a10.22 10.22 0 0 0-2.42.3c-1.83.42-4.22 1.12-6.39.7a4.38 4.38 0 0 0 .67 3 18.62 18.62 0 0 0 5.72-.79A10.22 10.22 0 0 1 24 4.33a9.72 9.72 0 0 1 9.72 9.72v-2.89A9.72 9.72 0 0 0 24 1.44z"/></g><path class="cls-3" d="M24 1.44a10.22 10.22 0 0 0-2.42.3c-1.83.42-4.22 1.12-6.39.7A4.13 4.13 0 0 0 16 5.62a9.62 9.62 0 0 0-1.74 5.54v5.08h19.46v-5.08A9.72 9.72 0 0 0 24 1.44z"/><path d="M24 25.49a11.75 11.75 0 0 1 11.75 11.75V47.5h-23.5V37.24A11.75 11.75 0 0 1 24 25.49z" fill="#00b8f0"/><path d="M24 25.49a11.75 11.75 0 0 0-11.75 11.75v3.59a11.75 11.75 0 0 1 23.5 0v-3.59A11.75 11.75 0 0 0 24 25.49z" fill="#009fd9"/><path class="cls-3" d="M24 25.49a11.75 11.75 0 0 1 11.75 11.75V47.5h-23.5V37.24A11.75 11.75 0 0 1 24 25.49z"/><rect class="cls-6" x="21.48" y="21.48" width="5.03" height="7.85" rx="2.52" ry="2.52"/><rect class="cls-7" x="21.48" y="21.48" width="5.03" height="5.82" rx="2.52" ry="2.52"/><rect class="cls-3" x="21.48" y="21.48" width="5.03" height="7.85" rx="2.52" ry="2.52"/><path class="cls-8" d="M34.74 15.36a1.86 1.86 0 0 0-1.86-1.5 1.58 1.58 0 0 1-1.58-1.58V9.82A1.86 1.86 0 0 0 29.92 8 15.2 15.2 0 0 1 24 9.11 15.2 15.2 0 0 1 18.08 8a1.86 1.86 0 0 0-1.38 1.82v2.46a1.58 1.58 0 0 1-1.58 1.58 1.86 1.86 0 0 0-1.86 1.5A1.79 1.79 0 0 0 15 17.45h.11a9 9 0 0 0 17.72 0H33a1.79 1.79 0 0 0 1.74-2.09z"/><path class="cls-9" d="M18.62 15.29a.77.77 0 0 0 .77.76.76.76 0 0 0 0-1.52.77.77 0 0 0-.77.76z"/><path class="cls-9" d="M29.38 15.29a.77.77 0 0 1-.77.76.76.76 0 0 1 0-1.52.77.77 0 0 1 .77.76z"/><g><g><path d="M21.19 19.93a.45.45 0 0 0-.33.16.43.43 0 0 0-.1.35 3.29 3.29 0 0 0 6.48 0 .43.43 0 0 0-.1-.35.45.45 0 0 0-.33-.16z" fill="#ff6242"/></g><path d="M24 23.18a3.3 3.3 0 0 0 2.3-.93 3.31 3.31 0 0 0-4.6 0 3.3 3.3 0 0 0 2.3.93z" fill="#ffa694"/></g><g><path class="cls-3" d="M21.19 19.93a.45.45 0 0 0-.33.16.43.43 0 0 0-.1.35 3.29 3.29 0 0 0 6.48 0 .43.43 0 0 0-.1-.35.45.45 0 0 0-.33-.16z"/></g><ellipse class="cls-12" cx="18.12" cy="18.54" rx=".99" ry=".59"/><ellipse class="cls-12" cx="29.88" cy="18.54" rx=".99" ry=".59"/><path d="M20.12 47.5a9.42 9.42 0 0 0-17.62 0z" fill="#00f5bc"/><path d="M11.31 44.17a9.4 9.4 0 0 1 7.19 3.33h1.62a9.42 9.42 0 0 0-17.62 0h1.63a9.36 9.36 0 0 1 7.18-3.33z" fill="#00dba8"/><path class="cls-3" d="M20.12 47.5a9.42 9.42 0 0 0-17.62 0z"/><rect class="cls-6" x="9.45" y="38.22" width="3.72" height="6.4" rx="1.86" ry="1.86"/><rect class="cls-7" x="9.45" y="38.22" width="3.72" height="4.64" rx="1.86" ry="1.86"/><rect class="cls-3" x="9.45" y="38.22" width="3.72" height="6.4" rx="1.86" ry="1.86"/><path class="cls-1" d="M11.31 23.77a7.1 7.1 0 0 0-1.8.23 12.11 12.11 0 0 1-4.78.52 3.05 3.05 0 0 0 .62 2.37A7.22 7.22 0 0 0 4.05 31v3.8h14.52V31a7.26 7.26 0 0 0-7.26-7.23z"/><path class="cls-2" d="M11.31 23.77a7.1 7.1 0 0 0-1.8.23 12.11 12.11 0 0 1-4.78.52 3.11 3.11 0 0 0 .6 2.35 14.56 14.56 0 0 0 4.18-.59 7.1 7.1 0 0 1 1.8-.23 7.26 7.26 0 0 1 7.26 7.26V31a7.26 7.26 0 0 0-7.26-7.23z"/><path class="cls-3" d="M11.31 23.77a7.1 7.1 0 0 0-1.8.23 12.11 12.11 0 0 1-4.78.52 3.05 3.05 0 0 0 .62 2.37A7.22 7.22 0 0 0 4.05 31v3.8h14.52V31a7.26 7.26 0 0 0-7.26-7.23z"/><path class="cls-8" d="M4.31 33.13a1.31 1.31 0 0 0 .3 2.6h.08a6.69 6.69 0 0 0 13.24 0H18a1.35 1.35 0 0 0 1.34-1.46 1.38 1.38 0 0 0-1-1.14c-3-.59-4.65-3.76-4.69-3.83-.06.09-2.5 3.92-9.34 3.83z"/><path class="cls-9" d="M7.79 34.66a.51.51 0 0 0 .5.5.5.5 0 0 0 .5-.5.5.5 0 0 0-.5-.5.5.5 0 0 0-.5.5z"/><path class="cls-9" d="M14.83 34.66a.5.5 0 0 1-1 0 .5.5 0 0 1 1 0z"/><ellipse class="cls-12" cx="6.97" cy="36.78" rx=".65" ry=".39"/><ellipse class="cls-12" cx="15.66" cy="36.78" rx=".65" ry=".39"/><path class="cls-3" d="M9.62 38.63a2.34 2.34 0 0 0 1.69.54 2.34 2.34 0 0 0 1.69-.54"/><g><path class="cls-1" d="M36.69 23.77A7.26 7.26 0 0 0 29.43 31v3.79H44V31a7.26 7.26 0 0 0-7.31-7.23z"/><path class="cls-2" d="M36.69 23.77A7.26 7.26 0 0 0 29.43 31v2.3a7.26 7.26 0 0 1 14.57 0V31a7.26 7.26 0 0 0-7.31-7.23z"/><path class="cls-12" d="M45.5 47.5a9.42 9.42 0 0 0-17.62 0z"/><path d="M36.69 44.17a9.36 9.36 0 0 1 7.18 3.33h1.63a9.42 9.42 0 0 0-17.62 0h1.62a9.4 9.4 0 0 1 7.19-3.33z" fill="#ff8a14"/><path class="cls-3" d="M45.5 47.5a9.42 9.42 0 0 0-17.62 0z"/><rect class="cls-6" x="34.83" y="38.22" width="3.72" height="6.4" rx="1.86" ry="1.86"/><rect class="cls-7" x="34.83" y="38.22" width="3.72" height="4.64" rx="1.86" ry="1.86"/><rect class="cls-3" x="34.83" y="38.22" width="3.72" height="6.4" rx="1.86" ry="1.86"/><path class="cls-3" d="M36.69 23.77A7.26 7.26 0 0 0 29.43 31v3.79H44V31a7.26 7.26 0 0 0-7.31-7.23z"/><path class="cls-8" d="M29.68 33.13a1.38 1.38 0 0 0-1 1.14A1.35 1.35 0 0 0 30 35.73h.08a6.69 6.69 0 0 0 13.24 0h.08a1.31 1.31 0 0 0 .3-2.6c-3-.59-4.64-3.76-4.68-3.83-.02.09-2.5 3.92-9.34 3.83z"/><path class="cls-9" d="M33.17 34.66a.5.5 0 0 0 1 0 .5.5 0 0 0-1 0z"/><path class="cls-9" d="M40.21 34.66a.51.51 0 0 1-.5.5.5.5 0 0 1-.5-.5.5.5 0 0 1 .5-.5.5.5 0 0 1 .5.5z"/><ellipse class="cls-12" cx="32.34" cy="36.78" rx=".65" ry=".39"/><ellipse class="cls-12" cx="41.03" cy="36.78" rx=".65" ry=".39"/><path class="cls-3" d="M35 38.63a2.34 2.34 0 0 0 1.69.54 2.34 2.34 0 0 0 1.69-.54"/></g></svg>