<svg xmlns="http://www.w3.org/2000/svg" viewBox="0 0 48 48"><defs><style>.cls-1,.cls-12{fill:#a86c4d}.cls-2{fill:#de926a}.cls-3{fill:none}.cls-12,.cls-3,.cls-8,.cls-9{stroke:#45413c;stroke-linecap:round;stroke-linejoin:round}.cls-6,.cls-8{fill:#ffcebf}.cls-7{fill:#ffb59e}.cls-9{fill:#45413c}</style></defs><path class="cls-1" d="M24 1.44a10.22 10.22 0 0 0-2.42.3c-1.83.42-4.22 1.12-6.39.7A4.13 4.13 0 0 0 16 5.62a9.62 9.62 0 0 0-1.74 5.54v5.08h19.46v-5.08A9.72 9.72 0 0 0 24 1.44z"/><g><path class="cls-2" d="M24 1.44a10.22 10.22 0 0 0-2.42.3c-1.83.42-4.22 1.12-6.39.7a4.38 4.38 0 0 0 .67 3 18.62 18.62 0 0 0 5.72-.79A10.22 10.22 0 0 1 24 4.33a9.72 9.72 0 0 1 9.72 9.72v-2.89A9.72 9.72 0 0 0 24 1.44z"/></g><path class="cls-3" d="M24 1.44a10.22 10.22 0 0 0-2.42.3c-1.83.42-4.22 1.12-6.39.7A4.13 4.13 0 0 0 16 5.62a9.62 9.62 0 0 0-1.74 5.54v5.08h19.46v-5.08A9.72 9.72 0 0 0 24 1.44z"/><path d="M24 25.49a11.75 11.75 0 0 1 11.75 11.75V47.5h-23.5V37.24A11.75 11.75 0 0 1 24 25.49z" fill="#00b8f0"/><path d="M24 25.49a11.75 11.75 0 0 0-11.75 11.75v3.59a11.75 11.75 0 0 1 23.5 0v-3.59A11.75 11.75 0 0 0 24 25.49z" fill="#009fd9"/><path class="cls-3" d="M24 25.49a11.75 11.75 0 0 1 11.75 11.75V47.5h-23.5V37.24A11.75 11.75 0 0 1 24 25.49z"/><rect class="cls-6" x="21.48" y="21.48" width="5.03" height="7.85" rx="2.52" ry="2.52"/><rect class="cls-7" x="21.48" y="21.48" width="5.03" height="5.82" rx="2.52" ry="2.52"/><rect class="cls-3" x="21.48" y="21.48" width="5.03" height="7.85" rx="2.52" ry="2.52"/><path class="cls-8" d="M34.74 15.36a1.86 1.86 0 0 0-1.86-1.5 1.58 1.58 0 0 1-1.58-1.58V9.82A1.86 1.86 0 0 0 29.92 8 15.2 15.2 0 0 1 24 9.11 15.2 15.2 0 0 1 18.08 8a1.86 1.86 0 0 0-1.38 1.82v2.46a1.58 1.58 0 0 1-1.58 1.58 1.86 1.86 0 0 0-1.86 1.5A1.79 1.79 0 0 0 15 17.45h.11a9 9 0 0 0 17.72 0H33a1.79 1.79 0 0 0 1.74-2.09z"/><path class="cls-9" d="M18.62 15.29a.77.77 0 0 0 .77.76.76.76 0 0 0 0-1.52.77.77 0 0 0-.77.76z"/><path class="cls-9" d="M29.38 15.29a.77.77 0 0 1-.77.76.76.76 0 0 1 0-1.52.77.77 0 0 1 .77.76z"/><g><g><path d="M21.19 19.93a.45.45 0 0 0-.33.16.43.43 0 0 0-.1.35 3.29 3.29 0 0 0 6.48 0 .43.43 0 0 0-.1-.35.45.45 0 0 0-.33-.16z" fill="#ff6242"/></g><path d="M24 23.18a3.3 3.3 0 0 0 2.3-.93 3.31 3.31 0 0 0-4.6 0 3.3 3.3 0 0 0 2.3.93z" fill="#ffa694"/></g><g><path class="cls-3" d="M21.19 19.93a.45.45 0 0 0-.33.16.43.43 0 0 0-.1.35 3.29 3.29 0 0 0 6.48 0 .43.43 0 0 0-.1-.35.45.45 0 0 0-.33-.16z"/></g><ellipse class="cls-7" cx="18.12" cy="18.54" rx=".99" ry=".59"/><ellipse class="cls-7" cx="29.88" cy="18.54" rx=".99" ry=".59"/><path class="cls-12" d="M26.81 41.17a8.12 8.12 0 0 0 1.62-2c.8-1.38 2.69-1.69 3.46-.46.67 1.06.28 2.35-1.49 3a3.84 3.84 0 0 1-3.59-.54z"/><path class="cls-12" d="M46.56 41.17a8.22 8.22 0 0 1-1.61-2c-.8-1.38-2.69-1.69-3.47-.46-.67 1.06-.27 2.35 1.5 3a3.81 3.81 0 0 0 3.58-.54z"/><path d="M45.5 47.5a9.42 9.42 0 0 0-17.62 0z" fill="#bf8df2"/><path d="M36.69 44.17a9.36 9.36 0 0 1 7.18 3.33h1.63a9.42 9.42 0 0 0-17.62 0h1.62a9.4 9.4 0 0 1 7.19-3.33z" fill="#9f5ae5"/><path class="cls-3" d="M45.5 47.5a9.42 9.42 0 0 0-17.62 0z"/><rect class="cls-6" x="34.83" y="38.22" width="3.72" height="6.4" rx="1.86" ry="1.86"/><rect class="cls-7" x="34.83" y="38.22" width="3.72" height="4.64" rx="1.86" ry="1.86"/><rect class="cls-3" x="34.83" y="38.22" width="3.72" height="6.4" rx="1.86" ry="1.86"/><path class="cls-1" d="M36.69 23.77A7.26 7.26 0 0 1 43.95 31v3.8H29.43V31a7.26 7.26 0 0 1 7.26-7.23z"/><path class="cls-2" d="M36.69 23.77A7.26 7.26 0 0 0 29.43 31v2.28a7.26 7.26 0 0 1 14.52 0V31a7.26 7.26 0 0 0-7.26-7.23z"/><path class="cls-3" d="M36.69 23.77A7.26 7.26 0 0 0 29.43 31v3.8H44V31a7.26 7.26 0 0 0-7.31-7.23z"/><path class="cls-8" d="M44.72 34.27a1.35 1.35 0 0 0-1-1.14 7.64 7.64 0 0 1-7-3.83 7.65 7.65 0 0 1-7 3.83 1.38 1.38 0 0 0-1 1.14A1.35 1.35 0 0 0 30 35.73h.08a6.69 6.69 0 0 0 13.24 0h.08a1.34 1.34 0 0 0 1.32-1.46z"/><path class="cls-9" d="M33.17 34.66a.5.5 0 0 0 1 0 .5.5 0 0 0-1 0z"/><path class="cls-9" d="M40.21 34.66a.51.51 0 0 1-.5.5.5.5 0 0 1-.5-.5.5.5 0 0 1 .5-.5.5.5 0 0 1 .5.5z"/><ellipse class="cls-7" cx="32.34" cy="36.78" rx=".65" ry=".39"/><ellipse class="cls-7" cx="41.03" cy="36.78" rx=".65" ry=".39"/><path class="cls-3" d="M35 38.76a2.34 2.34 0 0 0 1.69.54 2.34 2.34 0 0 0 1.69-.54"/><g><path class="cls-1" d="M11.31 23.74a8 8 0 0 0-8 8v10.99a.77.77 0 0 0 .54.74 24.18 24.18 0 0 0 15 0 .77.77 0 0 0 .54-.74V31.78a8 8 0 0 0-8.08-8.04z"/><path class="cls-2" d="M11.31 23.74a8 8 0 0 0-8 8v2.29a8 8 0 0 1 16.08 0v-2.25a8 8 0 0 0-8.08-8.04z"/><path class="cls-3" d="M11.31 23.74a8 8 0 0 0-8 8v10.99a.77.77 0 0 0 .54.74 24.18 24.18 0 0 0 15 0 .77.77 0 0 0 .54-.74V31.78a8 8 0 0 0-8.08-8.04z"/><path d="M20.12 47.5a9.42 9.42 0 0 0-17.62 0z" fill="#9ceb60"/><path d="M11.31 44.17a9.4 9.4 0 0 1 7.19 3.33h1.62a9.42 9.42 0 0 0-17.62 0h1.63a9.36 9.36 0 0 1 7.18-3.33z" fill="#6dd627"/><path class="cls-3" d="M20.12 47.5a9.42 9.42 0 0 0-17.62 0z"/><rect class="cls-6" x="9.45" y="38.22" width="3.72" height="6.4" rx="1.86" ry="1.86"/><rect class="cls-7" x="9.45" y="38.22" width="3.72" height="4.64" rx="1.86" ry="1.86"/><rect class="cls-3" x="9.45" y="38.22" width="3.72" height="6.4" rx="1.86" ry="1.86"/><path class="cls-8" d="M19.35 34.27a1.38 1.38 0 0 0-1-1.14 7.65 7.65 0 0 1-7-3.83 7.64 7.64 0 0 1-7 3.83 1.31 1.31 0 0 0 .3 2.6h.08a6.69 6.69 0 0 0 13.24 0H18a1.35 1.35 0 0 0 1.35-1.46z"/><path class="cls-9" d="M7.79 34.66a.51.51 0 0 0 .5.5.5.5 0 0 0 .5-.5.5.5 0 0 0-.5-.5.5.5 0 0 0-.5.5z"/><path class="cls-9" d="M14.83 34.66a.5.5 0 0 1-1 0 .5.5 0 0 1 1 0z"/><ellipse class="cls-7" cx="6.97" cy="36.78" rx=".65" ry=".39"/><ellipse class="cls-7" cx="15.66" cy="36.78" rx=".65" ry=".39"/><path class="cls-3" d="M9.62 38.76a2.34 2.34 0 0 0 1.69.54 2.34 2.34 0 0 0 1.69-.54"/></g></svg>