<svg xmlns="http://www.w3.org/2000/svg" viewBox="0 0 48 48"><defs><style>.cls-1{fill:#00b8f0}.cls-3{fill:none}.cls-3,.cls-9{stroke:#45413c;stroke-linecap:round;stroke-linejoin:round}.cls-5,.cls-9{fill:#ffe500}.cls-6{fill:#fff48c}</style></defs><path class="cls-1" d="M29.86 26.77a21.08 21.08 0 0 1-18.73 11.34A20.87 20.87 0 0 1 .5 35.21V45.6a30.63 30.63 0 0 0 10.63 1.9 30.47 30.47 0 0 0 27.05-16.37z"/><path d="M24.39 33.44a17.1 17.1 0 0 0 7.77 5.66 30.75 30.75 0 0 0 6-8l-3.42-1.79-5.37-1.73a21.16 21.16 0 0 1-4.98 5.86z" fill="#009fd9"/><path class="cls-3" d="M29.86 26.77a21.08 21.08 0 0 1-18.73 11.34A20.87 20.87 0 0 1 .5 35.21V45.6a30.63 30.63 0 0 0 10.63 1.9 30.47 30.47 0 0 0 27.05-16.37z"/><path d="M39.1 3.17h2.43a2 2 0 0 1 2 2v20.55H39.1V3.17z" fill="#adc4d9" stroke="#45413c" stroke-linecap="round" stroke-linejoin="round"/><path class="cls-5" d="M33.89 18.47l-1.81-3.17a3.42 3.42 0 0 0-4.42-1.39 1.16 1.16 0 0 0-.57 1.46l.84 2.14a10.57 10.57 0 0 1 .63 5.37l-.24 1.75a7.59 7.59 0 0 0 .82 4.65 4.74 4.74 0 0 0 2.16 2l4 1.86a3.17 3.17 0 0 0 3.11-.24 14.24 14.24 0 0 0 4.86-5.47L44.5 25z"/><g><path class="cls-6" d="M27.51 16.45a3.39 3.39 0 0 1 4.57 1.3l1.81 3.16 9.67 6L44.5 25l-10.61-6.53-1.81-3.17a3.42 3.42 0 0 0-4.42-1.39 1.16 1.16 0 0 0-.57 1.46z"/></g><path class="cls-3" d="M33.89 18.47l-1.81-3.17a3.42 3.42 0 0 0-4.42-1.39 1.16 1.16 0 0 0-.57 1.46l.84 2.14a10.57 10.57 0 0 1 .63 5.37l-.24 1.75a7.59 7.59 0 0 0 .82 4.65 4.74 4.74 0 0 0 2.16 2l4 1.86a3.17 3.17 0 0 0 3.11-.24 14.24 14.24 0 0 0 4.86-5.47L44.5 25z"/><rect x="30.61" y="3.17" width="10.43" height="22.54" rx="1" ry="1" fill="#c0dceb" stroke="#45413c" stroke-linecap="round" stroke-linejoin="round"/><path class="cls-1" d="M30.61 5.77h10.43v14.34H30.61z"/><path fill="#4acfff" d="M41.04 7.14L30.61 17.85v2.26h10.43V7.14z"/><path class="cls-3" d="M30.61 5.77h10.43v14.34H30.61z"/><rect class="cls-5" x="38.14" y="13.54" width="6.36" height="3.28" rx="1.4" ry="1.4"/><path class="cls-6" d="M43.1 13.54h-3.56a1.4 1.4 0 0 0-1.4 1.4v.49a1.36 1.36 0 0 0 .13.57 1.41 1.41 0 0 1 1.27-.82h3.56a1.4 1.4 0 0 1 1.27.82 1.22 1.22 0 0 0 .13-.57v-.49a1.4 1.4 0 0 0-1.4-1.4z"/><rect class="cls-3" x="38.14" y="13.54" width="6.36" height="3.28" rx="1.4" ry="1.4"/><rect class="cls-9" x="37.58" y="16.82" width="6.92" height="3.28" rx="1.4" ry="1.4"/><rect class="cls-9" x="38.14" y="20.11" width="6.36" height="3.28" rx="1.4" ry="1.4"/><rect class="cls-9" x="39.39" y="23.39" width="5.11" height="3.28" rx="1.4" ry="1.4"/><path class="cls-9" d="M25.29 5.41l-2.71-3.85a.33.33 0 0 0-.51-.06l-1.51 1.7a.34.34 0 0 0 .13.51l4.21 2.14a.3.3 0 0 0 .39-.44z"/><path class="cls-9" d="M24.68 8l-4.75-.68a.34.34 0 0 0-.41.33l.2 2.27a.34.34 0 0 0 .47.25l4.54-1.59a.29.29 0 0 0-.05-.58z"/><path class="cls-9" d="M24.66 11.43l-3.91 1.7a.3.3 0 0 0-.11.47l1.41 1.78a.3.3 0 0 0 .49 0L25 11.89a.31.31 0 0 0-.34-.46z"/><circle cx="35.83" cy="22.83" r="1.14" fill="#45413c"/></svg>