<svg xmlns="http://www.w3.org/2000/svg" viewBox="0 0 48 48"><defs><style>.cls-3{fill:#fff48c}.cls-4{fill:none;stroke:#45413c;stroke-linecap:round;stroke-linejoin:round}</style></defs><ellipse cx="24" cy="45.5" rx="15" ry="1.5" fill="#45413c" opacity=".15"/><path d="M38.42 24.26l-1.86-1.2A10.71 10.71 0 0 0 23 24.61l-4.18 4.32 1.39-10.26a12.12 12.12 0 0 0 5.7-.38l3.89-1.21a2 2 0 0 0 1.37-2.34 2 2 0 0 0-.51-1l.55-2.74a3.72 3.72 0 0 0-2.34-4.21l-3.38-1.24a6.41 6.41 0 0 0-6.26 1l-3.72 3a7.73 7.73 0 0 0-2.43 3.35L7.92 26.71a10.5 10.5 0 0 0 1.21 9.65 10.17 10.17 0 0 0 7.43 4.34l21.68 2a1 1 0 0 0 1.09-1V25.94a2 2 0 0 0-.91-1.68z" fill="#ffe500"/><path class="cls-3" d="M12.15 15.36c.74-1.47 1.72-2 7.08-6.32a6.41 6.41 0 0 1 6.26-1l3.38 1.27a3.68 3.68 0 0 1 2.22 2.31l.12-.6a3.72 3.72 0 0 0-2.34-4.21l-3.38-1.26a6.41 6.41 0 0 0-6.26 1l-3.72 3a7.73 7.73 0 0 0-2.43 3.35z"/><path class="cls-3" d="M38.42 24.26l-1.86-1.2a10.76 10.76 0 0 0-6.88-1.68A10.69 10.69 0 0 0 23 24.61l-4.18 4.32L17 30.72l5.17-2.62c2.91-1.33 5-4 7.51-4.22a10.76 10.76 0 0 1 6.88 1.68l1.86 1.2a2 2 0 0 1 .91 1.68v-2.5a2 2 0 0 0-.91-1.68z"/><path class="cls-4" d="M38.42 24.26l-1.86-1.2A10.71 10.71 0 0 0 23 24.61l-4.18 4.32 1.39-10.26a12.12 12.12 0 0 0 5.7-.38l3.89-1.21a2 2 0 0 0 1.37-2.34 2 2 0 0 0-.51-1l.55-2.74a3.72 3.72 0 0 0-2.34-4.21l-3.38-1.24a6.41 6.41 0 0 0-6.26 1l-3.72 3a7.73 7.73 0 0 0-2.43 3.35L7.92 26.71a10.5 10.5 0 0 0 1.21 9.65 10.17 10.17 0 0 0 7.43 4.34l21.68 2a1 1 0 0 0 1.09-1V25.94a2 2 0 0 0-.91-1.68z"/><path class="cls-4" d="M18.83 28.93L17 30.72"/><path class="cls-4" d="M18.25 18.17a12.27 12.27 0 0 0 7.67.12l3.89-1.21a2 2 0 0 0 1.37-2.34A2 2 0 0 0 29 13.15l-3.3.37a2.71 2.71 0 0 1-1.35-.26 1.83 1.83 0 0 1-.28-3.26A1.83 1.83 0 0 1 26 10l1.29.76"/><path class="cls-4" d="M24.08 35.1s6.42 2.25 10.5-1.58"/></svg>