<svg xmlns="http://www.w3.org/2000/svg" viewBox="0 0 48 48"><defs><style>.cls-2{fill:#ffdcd1}.cls-3{fill:none;stroke:#45413c;stroke-linecap:round;stroke-linejoin:round}</style></defs><path d="M18.9 36.22a2.6 2.6 0 0 1 2.6-2.61h-2.6a2.78 2.78 0 1 1 0-5.56 2.78 2.78 0 1 1 0-5.56H6.49a2.42 2.42 0 0 1 0-4.84H25a8.2 8.2 0 0 1-4.77-1.54 4 4 0 0 1-1.32-5 1.57 1.57 0 0 1 2.09-.7l4 2.2A26.76 26.76 0 0 0 30.89 15 12.27 12.27 0 0 1 38 20.34a12.54 12.54 0 0 1 2 6.75v4.13a7.6 7.6 0 0 1-7.6 7.6H21.5a2.59 2.59 0 0 1-2.6-2.6z" fill="#ffcebf"/><path class="cls-2" d="M19.94 19.54H6.49A2.43 2.43 0 0 0 4.26 21a2.48 2.48 0 0 1-.19-.95 2.42 2.42 0 0 1 2.42-2.42h18.3c-1.25 1.55-2.24 1.91-4.85 1.91z"/><path class="cls-2" d="M30.89 16.92A27.22 27.22 0 0 1 25 14.51l-4-2.21a1.57 1.57 0 0 0-2.17.66 4.35 4.35 0 0 0-.3.83 4 4 0 0 1 .3-2.72 1.57 1.57 0 0 1 2.17-.66l4 2.2A26.76 26.76 0 0 0 30.89 15 12.27 12.27 0 0 1 38 20.34a12.54 12.54 0 0 1 2 6.75V29a12.56 12.56 0 0 0-2-6.75 12.27 12.27 0 0 0-7.11-5.33z"/><path class="cls-3" d="M18.9 36.22a2.6 2.6 0 0 1 2.6-2.61h-2.6a2.78 2.78 0 1 1 0-5.56 2.78 2.78 0 1 1 0-5.56H6.49a2.42 2.42 0 0 1 0-4.84H25a8.2 8.2 0 0 1-4.77-1.54 4 4 0 0 1-1.32-5 1.57 1.57 0 0 1 2.09-.7l4 2.2A26.76 26.76 0 0 0 30.89 15 12.27 12.27 0 0 1 38 20.34a12.54 12.54 0 0 1 2 6.75v4.13a7.6 7.6 0 0 1-7.6 7.6H21.5a2.59 2.59 0 0 1-2.6-2.6z"/><path class="cls-3" d="M18.9 28.05h2.09"/><path class="cls-3" d="M18.9 22.49h2.09"/><path class="cls-3" d="M24.95 17.65h1.86"/><ellipse cx="24" cy="45.5" rx="15" ry="1.5" fill="#45413c" opacity=".15"/></svg>