<svg xmlns="http://www.w3.org/2000/svg" viewBox="0 0 48 48"><defs><style>.cls-2{fill:#ffdcd1}.cls-3{fill:none;stroke:#45413c;stroke-linecap:round;stroke-linejoin:round}</style></defs><path d="M26.73 36.22a2.6 2.6 0 0 0-2.6-2.61h2.6a2.78 2.78 0 1 0 0-5.56 2.78 2.78 0 0 0 0-5.56h12.41a2.42 2.42 0 1 0 0-4.84H20.68a8.15 8.15 0 0 0 4.76-1.54 3.93 3.93 0 0 0 1.32-5 1.56 1.56 0 0 0-2.16-.66l-4 2.2A26.64 26.64 0 0 1 14.73 15a12.28 12.28 0 0 0-7.12 5.31 12.54 12.54 0 0 0-2 6.75v4.13a7.6 7.6 0 0 0 7.6 7.6h10.92a2.59 2.59 0 0 0 2.6-2.57z" fill="#ffcebf"/><path class="cls-2" d="M25.69 19.54h13.45A2.4 2.4 0 0 1 41.36 21a2.31 2.31 0 0 0 .2-.95 2.43 2.43 0 0 0-2.42-2.42h-18.3c1.25 1.55 2.24 1.91 4.85 1.91z"/><path class="cls-2" d="M14.73 16.92a27.09 27.09 0 0 0 5.9-2.41l4-2.21a1.58 1.58 0 0 1 2.17.66 4.35 4.35 0 0 1 .3.83 4 4 0 0 0-.3-2.72 1.58 1.58 0 0 0-2.17-.66l-4 2.2a26.64 26.64 0 0 1-5.9 2.39 12.28 12.28 0 0 0-7.12 5.31 12.54 12.54 0 0 0-2 6.75V29a12.56 12.56 0 0 1 2-6.75 12.28 12.28 0 0 1 7.12-5.33z"/><path class="cls-3" d="M26.73 36.22a2.6 2.6 0 0 0-2.6-2.61h2.6a2.78 2.78 0 1 0 0-5.56 2.78 2.78 0 0 0 0-5.56h12.41a2.42 2.42 0 1 0 0-4.84H20.68a8.15 8.15 0 0 0 4.76-1.54 3.93 3.93 0 0 0 1.32-5 1.56 1.56 0 0 0-2.16-.66l-4 2.2A26.64 26.64 0 0 1 14.73 15a12.28 12.28 0 0 0-7.12 5.31 12.54 12.54 0 0 0-2 6.75v4.13a7.6 7.6 0 0 0 7.6 7.6h10.92a2.59 2.59 0 0 0 2.6-2.57z"/><path class="cls-3" d="M26.73 28.05h-2.09"/><path class="cls-3" d="M26.73 22.49h-2.09"/><path class="cls-3" d="M20.68 17.65h-1.86"/><ellipse cx="24" cy="45.5" rx="15" ry="1.5" fill="#45413c" opacity=".15"/></svg>