<svg xmlns="http://www.w3.org/2000/svg" viewBox="0 0 48 48"><defs><style>.cls-5{fill:#ffcebf}.cls-3{fill:#ffdcd1}.cls-4{fill:none}.cls-4,.cls-5{stroke:#45413c;stroke-linecap:round;stroke-linejoin:round}</style></defs><ellipse cx="24" cy="45.5" rx="11" ry="1.5" fill="#45413c" opacity=".15"/><path d="M34.13 26.33V9a2.3 2.3 0 0 0-4.6 0v10.89a2.71 2.71 0 0 0-5.42 0 2.68 2.68 0 0 0-5.36 0v3.26a2.52 2.52 0 0 0-5 0v8.09a9.22 9.22 0 0 0 9.22 9.22h1.28a11.06 11.06 0 0 0 11.02-11.09 4.59 4.59 0 0 0-1.14-3.04z" fill="#ffcebf"/><g><path class="cls-3" d="M31.83 9.22a2.3 2.3 0 0 1 2.3 2.3V9a2.3 2.3 0 0 0-4.6 0v2.5a2.3 2.3 0 0 1 2.3-2.28z"/><path class="cls-3" d="M16.23 23.1a2.52 2.52 0 0 1 2.52 2.52v-2.5a2.52 2.52 0 0 0-5 0v2.5a2.52 2.52 0 0 1 2.48-2.52z"/><path class="cls-3" d="M21.43 19.68a2.68 2.68 0 0 1 2.68 2.68 2.71 2.71 0 0 1 5.42 0v-2.5a2.71 2.71 0 0 0-5.42 0 2.68 2.68 0 0 0-5.36 0v2.5a2.68 2.68 0 0 1 2.68-2.68z"/></g><path class="cls-4" d="M34.13 26.33V9a2.3 2.3 0 0 0-4.6 0v10.89a2.71 2.71 0 0 0-5.42 0 2.68 2.68 0 0 0-5.36 0v3.26a2.52 2.52 0 0 0-5 0v8.09a9.22 9.22 0 0 0 9.22 9.22h1.28a11.06 11.06 0 0 0 11.02-11.09 4.59 4.59 0 0 0-1.14-3.04z"/><rect class="cls-4" x="13.71" y="20.6" width="5.04" height="8.33" rx="2.52" ry="2.52"/><path class="cls-3" d="M35.27 29.37a4.6 4.6 0 0 0-4.6-4.6H20A1.23 1.23 0 0 0 18.75 26a4.38 4.38 0 0 0 .25 1.3 1.21 1.21 0 0 1 1-.56h11.1a4.55 4.55 0 0 1 4.17 2.63z"/><path class="cls-4" d="M35.27 29.37a4.6 4.6 0 0 0-4.6-4.6H20A1.23 1.23 0 0 0 18.75 26 4.22 4.22 0 0 0 23 30.22h5.24"/><path class="cls-5" d="M24.11 19.89v4.88"/><path class="cls-5" d="M29.53 19.89v4.88"/><path class="cls-4" d="M28.15 30.22a4.44 4.44 0 0 0-4.44 4.44V36"/></svg>