<svg xmlns="http://www.w3.org/2000/svg" viewBox="0 0 48 48"><defs><style>.cls-3{fill:none;stroke:#45413c;stroke-linecap:round;stroke-linejoin:round}</style></defs><path d="M13.85 26.24a2.6 2.6 0 0 0 2.61-2.6v2.6a2.78 2.78 0 1 0 5.56 0 2.78 2.78 0 1 0 5.56 0v12.41a2.42 2.42 0 1 0 4.84 0V20.19A8.15 8.15 0 0 0 34 25a3.94 3.94 0 0 0 5 1.33 1.58 1.58 0 0 0 .66-2.17l-2.2-4A26.76 26.76 0 0 1 35 14.25a12.27 12.27 0 0 0-5.31-7.13 12.54 12.54 0 0 0-6.75-2h-4.09a7.6 7.6 0 0 0-7.6 7.6v10.92a2.59 2.59 0 0 0 2.6 2.6z" fill="#ffe500"/><path d="M39 26.28a1.58 1.58 0 0 0 .66-2.17l-2.2-4A26.76 26.76 0 0 1 35 14.25a12.27 12.27 0 0 0-5.31-7.13 12.54 12.54 0 0 0-6.75-2h-4.09a7.6 7.6 0 0 0-7.6 7.6v3.89A7.6 7.6 0 0 1 18.85 9H23a12.54 12.54 0 0 1 6.75 2c5.5 3.47 3.5 6.26 9.25 15.28z" fill="#fff48c"/><path class="cls-3" d="M13.85 26.24a2.6 2.6 0 0 0 2.61-2.6v2.6a2.78 2.78 0 1 0 5.56 0 2.78 2.78 0 1 0 5.56 0v12.41a2.42 2.42 0 1 0 4.84 0V20.19A8.15 8.15 0 0 0 34 25a3.94 3.94 0 0 0 5 1.33 1.58 1.58 0 0 0 .66-2.17l-2.2-4A26.76 26.76 0 0 1 35 14.25a12.27 12.27 0 0 0-5.31-7.13 12.54 12.54 0 0 0-6.75-2h-4.09a7.6 7.6 0 0 0-7.6 7.6v10.92a2.59 2.59 0 0 0 2.6 2.6z"/><path class="cls-3" d="M22.02 26.24v-2.09"/><path class="cls-3" d="M27.58 26.24v-2.09"/><path class="cls-3" d="M32.42 20.19v-1.86"/><ellipse cx="24" cy="45.5" rx="11" ry="1.5" fill="#45413c" opacity=".15"/></svg>