<svg xmlns="http://www.w3.org/2000/svg" viewBox="0 0 48 48"><defs><style>.cls-2{fill:#ffcebf}.cls-3{fill:#ffdcd1}.cls-4{fill:none;stroke:#45413c;stroke-linecap:round;stroke-linejoin:round}</style></defs><ellipse cx="24" cy="45.5" rx="11" ry="1.5" fill="#45413c" opacity=".15"/><path class="cls-2" d="M34.13 7a2.5 2.5 0 0 0-2.82 2.13l-2 13.67-2-13.63a2.5 2.5 0 1 0-4.95.69l1.45 10.34a2.65 2.65 0 0 0-4.39 2v2.4a2.66 2.66 0 0 0-5.31 0v7.21a10.19 10.19 0 0 0 9.3 10.29 10 10 0 0 0 10.66-10.2c0-8.53 0-5.68 2.19-22.06A2.5 2.5 0 0 0 34.13 7z"/><path class="cls-3" d="M22.73 12.38a2.6 2.6 0 0 1 4.94-.85l-.34-2.34a2.5 2.5 0 1 0-4.95.69zM34.13 7a2.5 2.5 0 0 0-2.82 2.13L31 11.27a2.61 2.61 0 0 1 5 .87c.1-.72.2-1.48.31-2.3A2.5 2.5 0 0 0 34.13 7z"/><path class="cls-4" d="M27.32 31.9a4.44 4.44 0 0 0-4.44 4.44v1.31"/><path class="cls-4" d="M34.13 7a2.5 2.5 0 0 0-2.82 2.13l-2 13.67-2-13.63a2.5 2.5 0 1 0-4.95.69l1.45 10.34a2.65 2.65 0 0 0-4.39 2v2.4a2.66 2.66 0 0 0-5.31 0v7.21a10.19 10.19 0 0 0 9.3 10.29 10 10 0 0 0 10.66-10.2c0-8.53 0-5.68 2.19-22.06A2.5 2.5 0 0 0 34.13 7z"/><rect class="cls-2" x="14.13" y="21.98" width="5.32" height="8.56" rx="2.66" ry="2.66"/><rect class="cls-2" x="19.44" y="19.57" width="5.32" height="10.96" rx="2.66" ry="2.66"/><path class="cls-3" d="M16.79 22a2.66 2.66 0 0 0-2.66 2.65V27a2.66 2.66 0 0 1 2.66-2.65A2.65 2.65 0 0 1 19.44 27v-2.4a2.65 2.65 0 0 0-2.65-2.6z"/><path class="cls-3" d="M22.1 19.57a2.67 2.67 0 0 0-2.66 2.66v2.4A2.66 2.66 0 0 1 22.1 22a2.66 2.66 0 0 1 2.66 2.65v-2.4a2.67 2.67 0 0 0-2.66-2.68z"/><rect class="cls-4" x="14.13" y="21.98" width="5.32" height="8.56" rx="2.66" ry="2.66"/><rect class="cls-4" x="19.44" y="19.57" width="5.32" height="10.96" rx="2.66" ry="2.66"/><path class="cls-2" d="M34.07 31.9a5.2 5.2 0 0 0-5.19-5.19H20.8a1.37 1.37 0 0 0-1.37 1.38 3.81 3.81 0 0 0 3.81 3.81h4.08"/><path class="cls-3" d="M34.07 31.9a5.2 5.2 0 0 0-5.19-5.19H20.8a1.37 1.37 0 0 0-1.37 1.38 3.75 3.75 0 0 0 .24 1.3 1.37 1.37 0 0 1 1.13-.59h8.52a5.21 5.21 0 0 1 4.75 3.1z"/><path class="cls-4" d="M34.07 31.9a5.2 5.2 0 0 0-5.19-5.19H20.8a1.37 1.37 0 0 0-1.37 1.38 3.81 3.81 0 0 0 3.81 3.81h4.08"/></svg>