<svg xmlns="http://www.w3.org/2000/svg" viewBox="0 0 48 48"><defs><style>.cls-2{fill:#ffdcd1}.cls-3{fill:none;stroke:#45413c;stroke-linecap:round;stroke-linejoin:round}</style></defs><path d="M41 26.68a4.68 4.68 0 0 0-5.9-.16l-3.78 2.88 2.93-15.8a2.18 2.18 0 0 0-1.52-2.5A2.16 2.16 0 0 0 30 12.61l-2.68 10V11a2.47 2.47 0 1 0-4.93 0v11.4l-2.53-10.86a2.13 2.13 0 0 0-4.16.87c.61 3.67 1.83 11.24 1.83 11.24l-4-7.63a2.08 2.08 0 0 0-3.72 1.87l2.77 5.7a10.81 10.81 0 0 1 1.1 4.74v3.18A9.25 9.25 0 0 0 23 40.77a13.68 13.68 0 0 0 9.92-4.26L41 28a.87.87 0 0 0 0-1.32z" fill="#ffcebf"/><path class="cls-2" d="M41 26.68a4.68 4.68 0 0 0-5.9-.16l-3.78 2.88h-5a4.64 4.64 0 0 0-3.7 1.85l4 .35a12.19 12.19 0 0 0 8.48-2.45 4.65 4.65 0 0 1 5.16-.35L41 28a.87.87 0 0 0 0-1.32zM31.63 13.32a2.68 2.68 0 0 1 2.4 1.5l.22-1.22a2.18 2.18 0 0 0-1.52-2.5A2.16 2.16 0 0 0 30 12.61l-.46 1.7a2.66 2.66 0 0 1 2.09-.99zM24.87 11.15a2.66 2.66 0 0 1 2.47 1.67V11a2.47 2.47 0 1 0-4.93 0v1.83a2.64 2.64 0 0 1 2.46-1.68zM12.81 16.82a2.36 2.36 0 0 1 1.41.46L13.57 16a2.08 2.08 0 0 0-3.72 1.87l.56 1.13a2.42 2.42 0 0 1 2.4-2.18zM16 13.93a2.43 2.43 0 0 1 2.3-1.67 2.39 2.39 0 0 1 2 1.13l-.43-1.85A2.08 2.08 0 0 0 17.36 10h-.05a2.12 2.12 0 0 0-1.61 2.41c.08.46.16.97.3 1.52z"/><path class="cls-3" d="M41 26.68a4.68 4.68 0 0 0-5.9-.16l-3.78 2.88 2.93-15.8a2.18 2.18 0 0 0-1.52-2.5A2.16 2.16 0 0 0 30 12.61l-2.68 10V11a2.47 2.47 0 1 0-4.93 0v11.4l-2.53-10.86a2.13 2.13 0 0 0-4.16.87c.61 3.67 1.83 11.24 1.83 11.24l-4-7.63a2.08 2.08 0 0 0-3.72 1.87l2.77 5.7a10.81 10.81 0 0 1 1.1 4.74v3.18A9.25 9.25 0 0 0 23 40.77a13.68 13.68 0 0 0 9.92-4.26L41 28a.87.87 0 0 0 0-1.32z"/><path class="cls-3" d="M22.34 31.71a4.62 4.62 0 0 1 4-2.31h5"/><ellipse cx="24" cy="45.5" rx="11" ry="1.5" fill="#45413c" opacity=".15"/></svg>