<svg xmlns="http://www.w3.org/2000/svg" viewBox="0 0 48 48"><defs><style>.cls-3{fill:#fff48c}.cls-4{fill:none;stroke:#45413c;stroke-linecap:round;stroke-linejoin:round}</style></defs><ellipse cx="24" cy="45.5" rx="11" ry="1.5" fill="#45413c" opacity=".15"/><path d="M34.93 27.77l-1.86 1.75v-15A2.41 2.41 0 0 0 30.71 12a2.36 2.36 0 0 0-2.36 2.36v-2.11a2.58 2.58 0 0 0-2.51-2.66 2.52 2.52 0 0 0-2.52 2.52V12A2.32 2.32 0 0 0 21 9.59 2.36 2.36 0 0 0 18.6 12v4a2.07 2.07 0 1 0-4.13.08V33a8.79 8.79 0 0 0 8.73 8.8 13.71 13.71 0 0 0 10.18-4.52l7-7.64a1.28 1.28 0 0 0 0-1.79 3.93 3.93 0 0 0-5.45-.08z" fill="#ffe500"/><path class="cls-3" d="M21 12.39a2.32 2.32 0 0 1 2.36 2.37v.15a2.52 2.52 0 0 1 2.52-2.52A2.57 2.57 0 0 1 28.35 15v2.13a2.36 2.36 0 0 1 2.36-2.35 2.41 2.41 0 0 1 2.36 2.48V14.5a2.41 2.41 0 0 0-2.36-2.5 2.36 2.36 0 0 0-2.36 2.36v-2.11a2.58 2.58 0 0 0-2.51-2.66 2.52 2.52 0 0 0-2.52 2.52V12A2.32 2.32 0 0 0 21 9.59 2.36 2.36 0 0 0 18.6 12v2.8a2.36 2.36 0 0 1 2.4-2.41zM16.54 16.66a2.07 2.07 0 0 1 2.06 2.07v-2.8a2.07 2.07 0 1 0-4.13.08v2.8a2.08 2.08 0 0 1 2.07-2.15z"/><path class="cls-3" d="M24 31.48a64 64 0 0 1 9.58-.17c2.28-1.31 4.94-2.42 6.42-1.24l.39-.43a1.28 1.28 0 0 0 0-1.79 3.93 3.93 0 0 0-5.45-.08l-1.86 1.75h-4.79A5.67 5.67 0 0 0 24 31.48z"/><path class="cls-4" d="M18.6 15.93v8.09"/><path class="cls-4" d="M23.32 12.11v11.91"/><path class="cls-4" d="M28.35 14.38v9.64"/><path class="cls-4" d="M33.07 29.52h-4.78a5.67 5.67 0 0 0-4.29 2"/><path class="cls-4" d="M34.93 27.77l-1.86 1.75v-15A2.41 2.41 0 0 0 30.71 12a2.36 2.36 0 0 0-2.36 2.36v-2.11a2.58 2.58 0 0 0-2.51-2.66 2.52 2.52 0 0 0-2.52 2.52V12A2.32 2.32 0 0 0 21 9.59 2.36 2.36 0 0 0 18.6 12v4a2.07 2.07 0 1 0-4.13.08V33a8.79 8.79 0 0 0 8.73 8.8 13.71 13.71 0 0 0 10.18-4.52l7-7.64a1.28 1.28 0 0 0 0-1.79 3.93 3.93 0 0 0-5.45-.08z"/></svg>