<svg xmlns="http://www.w3.org/2000/svg" viewBox="0 0 48 48"><defs><style>.cls-2{fill:#ffcebf}.cls-3{fill:#ffdcd1}.cls-4{fill:none;stroke:#45413c;stroke-linecap:round;stroke-linejoin:round}</style></defs><ellipse cx="24" cy="45.5" rx="11" ry="1.5" fill="#45413c" opacity=".15"/><path class="cls-2" d="M37.17 30.42h.18a2.54 2.54 0 1 0 0-5.08h-2.54a2.55 2.55 0 0 0 0-5.09h-6.12c.58-1.44 1.32-3.71 2-5.87a4.18 4.18 0 0 0-2.77-5.2 1.08 1.08 0 0 0-1.36.72c-.86 2.94-1.5 6.65-6 10a18.23 18.23 0 0 0-4 4.34 4 4 0 0 1-3.2 1.7H9.79a1 1 0 0 0-1 1v11.12a1 1 0 0 0 1 1h2.49c3.28.08 4.7 1.31 8.79 1.31h13.47a2.25 2.25 0 0 0 0-4.5h2.63a2.73 2.73 0 0 0 0-5.45z"/><path class="cls-3" d="M14.34 28.63a3.93 3.93 0 0 0 3.19-1.7 18 18 0 0 1 4-4.34c4.5-3.32 5.15-7 6-10a1.08 1.08 0 0 1 1.35-.72 4.09 4.09 0 0 1 1.91 1.23 4.19 4.19 0 0 0-2.95-4 1.08 1.08 0 0 0-1.36.72c-.86 2.94-1.5 6.65-6 10a18.23 18.23 0 0 0-4 4.34 4 4 0 0 1-3.2 1.7H9.79a1 1 0 0 0-1 1v1.72z"/><path class="cls-4" d="M28.37 26.07l-.06.12a11.41 11.41 0 0 1-8.68 6.22"/><rect class="cls-2" x="25.39" y="35.87" width="11.4" height="4.5" rx="2.25" ry="2.25"/><rect class="cls-2" x="24.71" y="30.42" width="15.18" height="5.45" rx="2.72" ry="2.72"/><rect class="cls-2" x="24.71" y="25.34" width="15.18" height="5.09" rx="2.54" ry="2.54"/><rect class="cls-2" x="25.39" y="20.25" width="11.96" height="5.09" rx="2.54" ry="2.54"/><path class="cls-3" d="M27.93 22.34h6.88a2.56 2.56 0 0 1 2.32 1.5 2.6 2.6 0 0 0 .22-1.05 2.54 2.54 0 0 0-2.54-2.54h-6.88a2.54 2.54 0 0 0-2.54 2.54 2.6 2.6 0 0 0 .22 1.05 2.56 2.56 0 0 1 2.32-1.5z"/><rect class="cls-4" x="25.39" y="35.87" width="11.4" height="4.5" rx="2.25" ry="2.25"/><rect class="cls-4" x="24.71" y="30.42" width="15.18" height="5.45" rx="2.72" ry="2.72"/><rect class="cls-4" x="24.71" y="25.34" width="15.18" height="5.09" rx="2.54" ry="2.54"/><rect class="cls-4" x="25.39" y="20.25" width="11.96" height="5.09" rx="2.54" ry="2.54"/><path class="cls-4" d="M37.17 30.42h.18a2.54 2.54 0 1 0 0-5.08h-2.54a2.55 2.55 0 0 0 0-5.09h-6.12c.58-1.44 1.32-3.71 2-5.87a4.18 4.18 0 0 0-2.77-5.2 1.08 1.08 0 0 0-1.36.72c-.86 2.94-1.5 6.65-6 10a18.23 18.23 0 0 0-4 4.34 4 4 0 0 1-3.2 1.7H9.79a1 1 0 0 0-1 1v11.12a1 1 0 0 0 1 1h2.49c3.28.08 4.7 1.31 8.79 1.31h13.47a2.25 2.25 0 0 0 0-4.5h2.63a2.73 2.73 0 0 0 0-5.45z"/></svg>