<svg xmlns="http://www.w3.org/2000/svg" viewBox="0 0 48 48"><defs><style>.cls-2{fill:#bf8256}.cls-2,.cls-3,.cls-6{stroke:#45413c;stroke-linecap:round;stroke-linejoin:round}.cls-3{fill:#00b8f0}.cls-6{fill:none}</style></defs><g><ellipse cx="25" cy="45.5" rx="9.5" ry="1.5" fill="#45413c" opacity=".15"/><g><g><path class="cls-2" transform="rotate(-44.28 39.2 10.85)" d="M34.25 9.19h9.92v3.31h-9.92z"/><path class="cls-3" d="M41.15 3.93a.83.83 0 0 0-1.4-.53l-2.52 2.45a3.66 3.66 0 0 0-.36 5l4.74-4.65a11.44 11.44 0 0 1-.46-2.27z"/><path class="cls-3" d="M46.17 9.08a.83.83 0 0 1 .5 1.42L44.15 13a3.63 3.63 0 0 1-5 .23l4.73-4.61a12 12 0 0 0 2.29.46z"/></g><g><path d="M21.19 18a8.25 8.25 0 0 0-9.8-6.36C5.74 12.81 4.51 19 5.45 23.43 8 35.19 20.74 40.39 25 41.81a2.45 2.45 0 0 0 2.44-.52c3.29-3 12.87-13 10.37-24.73-.96-4.46-4.59-9.56-10.25-8.39A8.28 8.28 0 0 0 21.19 18z" fill="#ff6242"/><path d="M28.83 12.13a8.68 8.68 0 0 0-6.69 6.69.82.82 0 0 1-1.46.31 8.69 8.69 0 0 0-8.83-3.4c-4 .86-5.93 4.13-6.42 7.6-.91-4.45.34-10.53 6-11.72A8.25 8.25 0 0 1 21.19 18a8.28 8.28 0 0 1 6.37-9.8c5.62-1.2 9.23 3.8 10.21 8.27-1.85-2.98-4.9-5.2-8.94-4.34z" fill="#ff866e"/><path class="cls-6" d="M21.19 18a8.25 8.25 0 0 0-9.8-6.36C5.74 12.81 4.51 19 5.45 23.43 8 35.19 20.74 40.39 25 41.81a2.45 2.45 0 0 0 2.44-.52c3.29-3 12.87-13 10.37-24.73-.96-4.46-4.59-9.56-10.25-8.39A8.28 8.28 0 0 0 21.19 18z"/></g><g><path d="M8.37 41.84l4.34-1.39a1.23 1.23 0 0 0 .51-2l-1.82-1.9a1.23 1.23 0 0 0-2.05.45l-1.5 4.31a.42.42 0 0 0 .52.53z" fill="#c0dceb" stroke="#45413c" stroke-linecap="round" stroke-linejoin="round"/><path class="cls-2" d="M21.7 28.15a4.62 4.62 0 0 1-2-.22l-8.57 8.36 2.31 2.37 8.77-8.56a3.93 3.93 0 0 1-.51-1.95z"/></g><path class="cls-6" d="M18.39 26.57c0 1 1.55 1.74 3.31 1.58 0 2.12 2.24 4.48 3.51 3.73"/><path class="cls-6" d="M6.45 10.37a6.62 6.62 0 0 0-5.14 7.82"/><path class="cls-6" d="M7.22 7.51a3.72 3.72 0 0 0-4.84 2.07"/></g></g></svg>