<svg xmlns="http://www.w3.org/2000/svg" viewBox="0 0 48 48"><defs><style>.cls-1{fill:#fcd;stroke:#ffb0ca;stroke-linecap:round;stroke-linejoin:round}</style></defs><g><path class="cls-1" d="M37.91 13.32a4.08 4.08 0 0 0-4.84-3.12 1.13 1.13 0 1 1-.48-2.2 6.31 6.31 0 0 1 7.52 4.84 1.13 1.13 0 1 1-2.2.48z"/><path class="cls-1" d="M42.54 11.92a8.3 8.3 0 0 0-9.87-6.35 1.13 1.13 0 1 1-.47-2.21 10.57 10.57 0 0 1 12.55 8.09 1.13 1.13 0 1 1-2.21.47z"/><path class="cls-1" d="M10.09 13.32a4.08 4.08 0 0 1 4.84-3.12 1.13 1.13 0 0 0 .48-2.2 6.31 6.31 0 0 0-7.52 4.84 1.13 1.13 0 0 0 2.2.48z"/><path class="cls-1" d="M5.46 11.92a8.3 8.3 0 0 1 9.87-6.35 1.13 1.13 0 1 0 .47-2.21 10.57 10.57 0 0 0-12.55 8.09 1.13 1.13 0 0 0 2.21.47z"/><ellipse cx="24" cy="44.5" rx="11.5" ry="1.5" fill="#ffe5ee" opacity=".7"/><g><path d="M23.21 39a1.29 1.29 0 0 0 1.58 0c2.55-1.89 10.43-8.1 11.73-13.49 1.55-6.45-2.41-10.42-6.26-10.42a7.86 7.86 0 0 0-5.75 3.06.66.66 0 0 1-1 0 7.86 7.86 0 0 0-5.75-3.06c-3.85 0-7.81 4-6.26 10.42 1.28 5.39 9.16 11.6 11.71 13.49z" fill="#ff6196"/><path d="M30.26 15.09a7.86 7.86 0 0 0-5.75 3.06.66.66 0 0 1-1 0 7.86 7.86 0 0 0-5.75-3.06c-3.85 0-7.81 4-6.26 10.42A12 12 0 0 0 13.06 29c-.08-.22-.18-.44-.24-.66-1.38-5.18 2.16-8.36 5.59-8.36A8.06 8.06 0 0 1 24 22.32a8.06 8.06 0 0 1 5.59-2.39c3.43 0 7 3.18 5.59 8.36-.06.22-.16.44-.24.66a12.1 12.1 0 0 0 1.58-3.44c1.55-6.46-2.41-10.42-6.26-10.42z" fill="#ff87af"/><path d="M23.21 39a1.29 1.29 0 0 0 1.58 0c2.55-1.89 10.43-8.1 11.73-13.49 1.55-6.45-2.41-10.42-6.26-10.42a7.86 7.86 0 0 0-5.75 3.06.66.66 0 0 1-1 0 7.86 7.86 0 0 0-5.75-3.06c-3.85 0-7.81 4-6.26 10.42 1.28 5.39 9.16 11.6 11.71 13.49z" fill="none" stroke="#45413c" stroke-linecap="round" stroke-linejoin="round"/></g></g></svg>