<svg xmlns="http://www.w3.org/2000/svg" viewBox="0 0 48 48"><defs><style>.cls-5{stroke:#45413c;stroke-linecap:round;stroke-linejoin:round;fill:#ffe500}</style></defs><g><ellipse cx="24" cy="45.4" rx="12.24" ry="1.6" fill="#45413c" opacity=".15"/><g><path d="M24 14.07a8.42 8.42 0 0 1 8.43-8.42c5.89 0 8.42 5.88 8.42 10.53 0 12.26-11.65 20.16-15.58 22.47a2.51 2.51 0 0 1-2.54 0C18.8 36.34 7.15 28.44 7.15 16.18c0-4.65 2.53-10.53 8.42-10.53A8.42 8.42 0 0 1 24 14.07z" fill="#ff6196"/><path d="M15.15 9.86a8.85 8.85 0 0 1 8.09 5.26.84.84 0 0 0 1.52 0 8.85 8.85 0 0 1 8.09-5.26c4.21 0 6.79 2.86 8 6.22 0-4.64-2.57-10.43-8.42-10.43A8.42 8.42 0 0 0 24 14.07a8.42 8.42 0 0 0-8.43-8.42c-5.85 0-8.39 5.79-8.42 10.43 1.21-3.36 3.79-6.22 8-6.22z" fill="#ff87af"/><path d="M24 14.07a8.42 8.42 0 0 1 8.43-8.42c5.89 0 8.42 5.88 8.42 10.53 0 12.26-11.65 20.16-15.58 22.47a2.51 2.51 0 0 1-2.54 0C18.8 36.34 7.15 28.44 7.15 16.18c0-4.65 2.53-10.53 8.42-10.53A8.42 8.42 0 0 1 24 14.07z" stroke="#45413c" stroke-linecap="round" stroke-linejoin="round" fill="none"/></g><path class="cls-5" d="M11.92 31.63c.27-1 1.2-2.64 2.38-2.87l4.78-.93a.33.33 0 0 0 0-.65l-4.78-.93c-1.18-.23-2.11-1.87-2.38-2.87l-1.11-7a.39.39 0 0 0-.38-.26.39.39 0 0 0-.39.26l-1.1 7c-.27 1-1.2 2.64-2.38 2.87l-4.78.93a.33.33 0 0 0 0 .65l4.78.93c1.18.23 2.11 1.87 2.38 2.87L10 38.71a.39.39 0 0 0 .39.26.39.39 0 0 0 .38-.26z"/><path class="cls-5" d="M39.6 11.13c.18-.67.82-1.78 1.63-1.93l3.28-.63a.23.23 0 0 0 .21-.22.25.25 0 0 0-.21-.22l-3.28-.63c-.81-.15-1.45-1.25-1.63-1.93L38.84.82a.27.27 0 0 0-.27-.17.27.27 0 0 0-.26.17l-.76 4.75c-.19.68-.82 1.78-1.63 1.94l-3.28.62a.24.24 0 0 0-.21.22.23.23 0 0 0 .21.22l3.28.63c.81.15 1.44 1.26 1.63 1.93l.76 4.78a.27.27 0 0 0 .26.17.27.27 0 0 0 .27-.17z"/></g></svg>