<svg xmlns="http://www.w3.org/2000/svg" viewBox="0 0 48 48"><g><path d="M22.74 41.59a2.1 2.1 0 0 0 2.52 0c4-3 16.48-12.81 18.54-21.34C46.26 10 40 3.77 33.9 3.77c-4.44 0-7.67 3.13-9.09 4.83a1 1 0 0 1-1.62 0c-1.42-1.7-4.65-4.83-9.09-4.83C8 3.77 1.74 10 4.2 20.25c2.06 8.53 14.51 18.35 18.54 21.34z" stroke-linecap="round" stroke-linejoin="round" fill="#fcd" stroke="#ffb0ca"/><path d="M23.09 36.48a1.5 1.5 0 0 0 1.82 0c2.93-2.17 12-9.31 13.48-15.51 1.78-7.42-2.77-12-7.2-12-3.22 0-5.57 2.27-6.6 3.51a.77.77 0 0 1-1.18 0C22.38 11.27 20 9 16.81 9c-4.43 0-9 4.55-7.2 12 1.5 6.17 10.55 13.31 13.48 15.48z" fill="#ffb0ca" stroke="#ff87af" stroke-linecap="round" stroke-linejoin="round"/><ellipse cx="24" cy="45.5" rx="11.5" ry="1.5" fill="#ffe5ee" opacity=".7"/><g><path d="M23.41 31.67a1 1 0 0 0 1.18 0c1.89-1.41 7.73-6 8.7-10 1.15-4.79-1.79-7.73-4.65-7.73a5.84 5.84 0 0 0-4.26 2.27.49.49 0 0 1-.76 0 5.84 5.84 0 0 0-4.26-2.27c-2.86 0-5.8 2.94-4.65 7.73.97 3.98 6.81 8.59 8.7 10z" fill="#ff6196"/><path d="M28.64 13.92a5.84 5.84 0 0 0-4.26 2.27.49.49 0 0 1-.76 0 5.84 5.84 0 0 0-4.26-2.27c-2.86 0-5.8 2.94-4.65 7.73a8.82 8.82 0 0 0 1.17 2.56 4.91 4.91 0 0 1-.17-.5c-1-3.84 1.59-6.2 4.14-6.2A6 6 0 0 1 24 19.29a6 6 0 0 1 4.15-1.78c2.55 0 5.18 2.36 4.14 6.2a4 4 0 0 1-.17.49 8.65 8.65 0 0 0 1.17-2.55c1.15-4.79-1.79-7.73-4.65-7.73z" fill="#ff87af"/><path d="M23.41 31.67a1 1 0 0 0 1.18 0c1.89-1.41 7.73-6 8.7-10 1.15-4.79-1.79-7.73-4.65-7.73a5.84 5.84 0 0 0-4.26 2.27.49.49 0 0 1-.76 0 5.84 5.84 0 0 0-4.26-2.27c-2.86 0-5.8 2.94-4.65 7.73.97 3.98 6.81 8.59 8.7 10z" fill="none" stroke="#45413c" stroke-linecap="round" stroke-linejoin="round"/></g></g></svg>