<svg xmlns="http://www.w3.org/2000/svg" viewBox="0 0 48 48"><defs><style>.cls-4{fill:none}.cls-4,.cls-8{stroke:#45413c;stroke-linecap:round;stroke-linejoin:round}.cls-6{fill:#ffe500}.cls-7,.cls-8{fill:#ebcb00}.cls-9{fill:#fff48c}</style></defs><g><ellipse cx="24" cy="44.31" rx="12.97" ry="1.69" fill="#45413c" opacity=".15"/><path d="M24 11.1a8.93 8.93 0 0 1 8.93-8.93c6.25 0 8.93 6.23 8.93 11.17 0 13-12.35 21.36-16.51 23.81a2.66 2.66 0 0 1-2.7 0C18.49 34.7 6.14 26.33 6.14 13.34c0-4.94 2.68-11.17 8.93-11.17A8.93 8.93 0 0 1 24 11.1z" fill="#ff6196"/><path d="M14.62 6.64a9.39 9.39 0 0 1 8.58 5.57.88.88 0 0 0 1.6 0 9.39 9.39 0 0 1 8.58-5.57c4.46 0 7.19 3 8.48 6.59 0-4.91-2.72-11.06-8.93-11.06A8.93 8.93 0 0 0 24 11.1a8.93 8.93 0 0 0-8.93-8.93c-6.21 0-8.89 6.15-8.93 11.06 1.29-3.56 4.02-6.59 8.48-6.59z" fill="#ff87af"/><path class="cls-4" d="M24 11.1a8.93 8.93 0 0 1 8.93-8.93c6.25 0 8.93 6.23 8.93 11.17 0 13-12.35 21.36-16.51 23.81a2.66 2.66 0 0 1-2.7 0C18.49 34.7 6.14 26.33 6.14 13.34c0-4.94 2.68-11.17 8.93-11.17A8.93 8.93 0 0 1 24 11.1z"/><path d="M7.18 19.75a24.73 24.73 0 0 0 3.31 6.5 102.88 102.88 0 0 0 13.7.85 105 105 0 0 0 13.28-.79 24.71 24.71 0 0 0 3.33-6.49 95.46 95.46 0 0 1-16.61 1.31 94.48 94.48 0 0 1-17.01-1.38z" fill="#ffe500" stroke="#45413c" stroke-linecap="round" stroke-linejoin="round"/><g><g><path class="cls-6" d="M12 25.36s-3.87 1.42-4.12 7.11c0 .66.71 1 1.07.52a3.26 3.26 0 0 1 1.75-1.29 13 13 0 0 0 2.13 3.3.56.56 0 0 0 1-.46 17.44 17.44 0 0 1 1.79-8.17z"/><path class="cls-7" d="M12 25.36a5.45 5.45 0 0 0-1.7 1.14 5.59 5.59 0 0 0 4.58 1.6 17.22 17.22 0 0 1 .72-1.71z"/><path class="cls-4" d="M12 25.36s-3.87 1.42-4.12 7.11c0 .66.71 1 1.07.52a3.26 3.26 0 0 1 1.75-1.29 13 13 0 0 0 2.13 3.3.56.56 0 0 0 1-.46 17.44 17.44 0 0 1 1.79-8.17z"/></g><g><path class="cls-6" d="M18.16 23.63s4.05-.8 7.22 3.93c.36.55-.09 1.24-.65 1a3.3 3.3 0 0 0-2.18-.19 13 13 0 0 1-.09 3.94.56.56 0 0 1-1.09.12 17.28 17.28 0 0 0-5.77-6z"/><path class="cls-7" d="M18.16 23.63a5.39 5.39 0 0 1 2 .09 5.6 5.6 0 0 1-3.08 3.76 15.83 15.83 0 0 0-1.51-1.09z"/><path class="cls-4" d="M18.16 23.63s4.05-.8 7.22 3.93c.36.55-.09 1.24-.65 1a3.3 3.3 0 0 0-2.18-.19 13 13 0 0 1-.09 3.94.56.56 0 0 1-1.09.12 17.28 17.28 0 0 0-5.77-6z"/></g><path class="cls-8" d="M25.82 18.92c-.73 3.79-9.08 5.08-9.08 5.08l-1.55-1.88 8.34-7.72z"/><g><path class="cls-6" d="M15.19 22.15s2.36-8.63 7-8.49a1.57 1.57 0 0 1 1.32.77l2.29 4.49C21.52 17.3 16.74 24 16.74 24z"/><path class="cls-9" d="M23.29 15.66c-4-.11-6.28 6.13-6.87 8l-1.23-1.49s2.36-8.63 7-8.49a1.57 1.57 0 0 1 1.32.77l.9 1.75a1.66 1.66 0 0 0-1.12-.54z"/><path class="cls-4" d="M15.19 22.15s2.36-8.63 7-8.49a1.57 1.57 0 0 1 1.32.77l2.29 4.49C21.52 17.3 16.74 24 16.74 24z"/></g><path class="cls-8" d="M3 25.31C5.59 28.17 13.41 25 13.41 25l.35-2.41-11.15-2.3z"/><g><path class="cls-6" d="M13.76 22.55s-6.5-6.14-10.42-3.61a1.6 1.6 0 0 0-.73 1.35l.38 5C5.83 21.7 13.41 25 13.41 25z"/><path class="cls-9" d="M3.46 21.22c3.34-2.16 8.55 2 10 3.25l.28-1.92s-6.5-6.14-10.42-3.61a1.6 1.6 0 0 0-.73 1.35l.15 2a1.63 1.63 0 0 1 .72-1.07z"/><path class="cls-4" d="M13.76 22.55s-6.5-6.14-10.42-3.61a1.6 1.6 0 0 0-.73 1.35l.38 5C5.83 21.7 13.41 25 13.41 25z"/></g><g><ellipse class="cls-6" cx="14.67" cy="23.07" rx="4.2" ry="3.7" transform="rotate(-15.65 14.66 23.07)"/><path class="cls-9" d="M14.14 21.16a7.44 7.44 0 0 1 4.24 0 4.12 4.12 0 0 0-4.71-1.65 4.13 4.13 0 0 0-3.16 3.86 7.45 7.45 0 0 1 3.63-2.21z"/><ellipse class="cls-4" cx="14.67" cy="23.07" rx="4.2" ry="3.7" transform="rotate(-15.65 14.66 23.07)"/></g></g></g></svg>