<svg xmlns="http://www.w3.org/2000/svg" viewBox="0 0 48 48"><defs><style>.cls-2{fill:#4aeff7}.cls-3{fill:#00dfeb}.cls-4{fill:none;stroke:#45413c;stroke-linecap:round;stroke-linejoin:round}.cls-5{fill:#a6fbff}</style></defs><g><ellipse cx="24" cy="45.13" rx="14.36" ry="1.87" fill="#45413c" opacity=".15"/><path class="cls-2" d="M28.27 23.17s8.56-1.43 12.07 2.26.08 8.68-3.79 8.39S31 29 30.31 26.79a11 11 0 0 0-2.04-3.62z"/><path class="cls-3" d="M36.55 30.91c-3.87-.28-5.52-4.86-6.24-7A9.39 9.39 0 0 0 30 23c-1 .08-1.7.19-1.7.19a11 11 0 0 1 2 3.62c.72 2.18 2.37 6.75 6.24 7a5 5 0 0 0 5-6.42 5.1 5.1 0 0 1-4.99 3.52z"/><path class="cls-4" d="M28.27 23.17s8.56-1.43 12.07 2.26.08 8.68-3.79 8.39S31 29 30.31 26.79a11 11 0 0 0-2.04-3.62z"/><path class="cls-2" d="M8 21.14S20.37 22.51 23.77 29s-3.28 12-8.5 10.09-5.7-8.85-5.85-12.13A15.73 15.73 0 0 0 8 21.14z"/><g><path class="cls-3" d="M24.44 30.62a7.53 7.53 0 0 1-9.61 5.25c-2.91-1.06-4.42-3.63-5.21-6.3.4 3.48 1.6 8 5.65 9.49C20 40.79 26 36.33 24.44 30.62z"/></g><path class="cls-4" d="M8 21.14S20.37 22.51 23.77 29s-3.28 12-8.5 10.09-5.7-8.85-5.85-12.13A15.73 15.73 0 0 0 8 21.14z"/><path class="cls-2" d="M6.2 11.28s8.13-7.75 17.35-6.83c7.23.73 9 8.06 4.29 11.91-4.28 3.49-10.91.56-13.66-1.2a66.21 66.21 0 0 0-7.98-3.88z"/><path class="cls-3" d="M27.84 13.08c-4.28 3.49-10.91.56-13.66-1.2a47.34 47.34 0 0 0-5.32-2.73 25.44 25.44 0 0 0-2.66 2.13 66.21 66.21 0 0 1 8 3.88c2.75 1.76 9.38 4.69 13.66 1.2a6.63 6.63 0 0 0 2.4-6.9 7 7 0 0 1-2.42 3.62z"/><path class="cls-4" d="M6.2 11.28s8.13-7.75 17.35-6.83c7.23.73 9 8.06 4.29 11.91-4.28 3.49-10.91.56-13.66-1.2a66.21 66.21 0 0 0-7.98-3.88z"/><ellipse class="cls-5" cx="23.06" cy="7.27" rx="1.17" ry="3.28" transform="rotate(-85.86 23.06 7.275)"/><ellipse class="cls-5" cx="37.03" cy="25.44" rx=".77" ry="2.15" transform="rotate(-66.68 37.04 25.435)"/><ellipse class="cls-5" cx="18.33" cy="26.54" rx="1.08" ry="3.03" transform="rotate(-60.3 18.325 26.543)"/></g></svg>