<svg xmlns="http://www.w3.org/2000/svg" viewBox="0 0 48 48"><defs><style>.cls-2{fill:#e8f4fa}.cls-2,.cls-5{stroke:#45413c;stroke-linecap:round;stroke-linejoin:round}.cls-3{fill:#87898c}.cls-4{fill:#bdbec0}.cls-5{fill:none}.cls-6{fill:#00b8f0}.cls-7{fill:#4acfff}</style></defs><g><ellipse cx="24" cy="43.5" rx="11.22" ry="1.5" fill="#45413c" opacity=".15"/><path class="cls-2" d="M24 21.82c-1 0-1.4.51-2 1.21l.07 1.74A2.61 2.61 0 0 1 24 23.7a2.61 2.61 0 0 1 2 1.07V23c-.6-.67-1-1.18-2-1.18z"/><path class="cls-3" d="M1 22.74L7.89 9.9A6.31 6.31 0 0 1 11.2 7l2.6-1a1 1 0 0 1 1.34 1.13 4.49 4.49 0 0 1-3.9 3.58 2.28 2.28 0 0 0-1.8 1.25L3 24.82z"/><path class="cls-3" d="M47 22.74L40.11 9.9A6.31 6.31 0 0 0 36.8 7l-2.6-1a1 1 0 0 0-1.34 1.13 4.49 4.49 0 0 0 3.9 3.58 2.28 2.28 0 0 1 1.8 1.25L45 24.82z"/><path class="cls-4" d="M7.89 12a6.35 6.35 0 0 1 3.31-3l2.6-1a1 1 0 0 1 1 .14 4.37 4.37 0 0 0 .37-1.07A1 1 0 0 0 13.8 6l-2.6 1a6.35 6.35 0 0 0-3.31 2.9L1 22.74l.71.74z"/><path class="cls-4" d="M33.23 8.18a1 1 0 0 1 1-.14l2.6 1A6.35 6.35 0 0 1 40.11 12l6.18 11.52.71-.74L40.11 9.9A6.35 6.35 0 0 0 36.8 7l-2.6-1a1 1 0 0 0-1.34 1.13 4.37 4.37 0 0 0 .37 1.05z"/><path class="cls-5" d="M1 22.74L7.89 9.9A6.31 6.31 0 0 1 11.2 7l2.6-1a1 1 0 0 1 1.34 1.13 4.49 4.49 0 0 1-3.9 3.58 2.28 2.28 0 0 0-1.8 1.25L3 24.82z"/><path class="cls-5" d="M47 22.74L40.11 9.9A6.31 6.31 0 0 0 36.8 7l-2.6-1a1 1 0 0 0-1.34 1.13 4.49 4.49 0 0 0 3.9 3.58 2.28 2.28 0 0 1 1.8 1.25L45 24.82z"/><path class="cls-2" d="M1.91 21.82H4.5v3.5H1.91a.91.91 0 0 1-.91-.91v-1.67a.91.91 0 0 1 .91-.92z"/><path class="cls-2" d="M44.41 21.82H47v3.5h-2.59a.91.91 0 0 1-.91-.91v-1.67a.91.91 0 0 1 .91-.92z" transform="rotate(180 45.25 23.575)"/><path class="cls-3" d="M4 24.82s-1 .07-1-1.5 1.12-3 10-3 9.5 2.07 9.5 3.5-1 1-1 1z"/><path class="cls-3" d="M44 24.82s1 .07 1-1.5-1.12-3-10-3-9.5 2.07-9.5 3.5 1 1 1 1z"/><path class="cls-4" d="M13 22c7 0 8.88 1.3 9.34 2.55a1.47 1.47 0 0 0 .16-.77c0-1.43-.62-3.5-9.5-3.5s-10 1.44-10 3a2.27 2.27 0 0 0 .15.89C3.67 23 5.74 22 13 22z"/><path class="cls-4" d="M35 22c7.26 0 9.33 1 9.85 2.17a2.27 2.27 0 0 0 .15-.89c0-1.56-1.12-3-10-3s-9.5 2.07-9.5 3.5a1.47 1.47 0 0 0 .16.77C26.12 23.34 28 22 35 22z"/><path class="cls-5" d="M4 24.82s-1 .07-1-1.5 1.12-3 10-3 9.5 2.07 9.5 3.5-1 1-1 1z"/><path class="cls-5" d="M44 24.82s1 .07 1-1.5-1.12-3-10-3-9.5 2.07-9.5 3.5 1 1 1 1z"/><path class="cls-6" d="M4 24.82a29.48 29.48 0 0 1 8.5-1 36 36 0 0 1 9 1s.33 9.84-2.5 11.5-10.5 2-13-1-2-10.5-2-10.5z"/><path class="cls-7" d="M18.92 24.3a42.16 42.16 0 0 0-6.42-.48 29.48 29.48 0 0 0-8.5 1s-.5 7.5 2 10.5c1 1.26 3 1.93 5.13 2.16z"/><path class="cls-5" d="M4 24.82a29.48 29.48 0 0 1 8.5-1 36 36 0 0 1 9 1s.33 9.84-2.5 11.5-10.5 2-13-1-2-10.5-2-10.5z"/><path class="cls-6" d="M44 24.82a29.48 29.48 0 0 0-8.5-1 36 36 0 0 0-9 1s-.33 9.84 2.5 11.5 10.5 2 13-1 2-10.5 2-10.5z"/><path class="cls-7" d="M40.76 24.16a39.72 39.72 0 0 0-5.26-.34 36 36 0 0 0-9 1s-.33 9.84 2.5 11.5a10.51 10.51 0 0 0 3.9 1.13z"/><path class="cls-5" d="M44 24.82a29.48 29.48 0 0 0-8.5-1 36 36 0 0 0-9 1s-.33 9.84 2.5 11.5 10.5 2 13-1 2-10.5 2-10.5z"/></g></svg>