<svg xmlns="http://www.w3.org/2000/svg" viewBox="0 0 48 48"><defs><style>.cls-2{fill:#80ddff}.cls-3{fill:#b8ecff}.cls-4{fill:none;stroke:#45413c;stroke-linecap:round;stroke-linejoin:round}.cls-5{fill:#fff48c}.cls-6{fill:#ebcb00}</style></defs><g><ellipse cx="24" cy="44.92" rx="18.75" ry="2.08" fill="#45413c" opacity=".15"/><rect class="cls-2" x="5.25" y="9.28" width="37.5" height="34.72" rx="5.56" ry="5.56"/><path class="cls-3" d="M37.19 9.28H10.81a5.55 5.55 0 0 0-5.56 5.55v4.46a5.56 5.56 0 0 1 5.56-5.56h26.38a5.56 5.56 0 0 1 5.56 5.56v-4.46a5.55 5.55 0 0 0-5.56-5.55z"/><rect class="cls-4" x="5.25" y="9.28" width="37.5" height="34.72" rx="5.56" ry="5.56"/><path class="cls-5" d="M26.39 17.61h-4.78a1.39 1.39 0 0 1-1.35-1.05l-1.82-7.28h11.12l-1.82 7.28a1.39 1.39 0 0 1-1.35 1.05z"/><path class="cls-6" d="M20.14 16.06l3.26-2.38a1 1 0 0 1 1.2 0l3.26 2.38 1.7-6.78H18.44z"/><path class="cls-4" d="M26.39 17.61h-4.78a1.39 1.39 0 0 1-1.35-1.05l-1.82-7.28h11.12l-1.82 7.28a1.39 1.39 0 0 1-1.35 1.05z"/><path class="cls-5" d="M29.55 44H18.44l2.78-26.39h5.56L29.55 44z"/><path class="cls-6" d="M27.05 20.21l-.27-2.6h-5.56l-.27 2.6h6.1z"/><path class="cls-4" d="M29.55 44H18.44l2.78-26.39h5.56L29.55 44z"/><path class="cls-2" d="M30.25 4.42L24 10.67l6.92 5a.7.7 0 0 0 1-.31l2.45-6.11z"/><path class="cls-2" d="M17.75 4.42L24 10.67l-6.92 5a.7.7 0 0 1-1-.31l-2.5-6.08z"/><path class="cls-3" d="M32.08 6.55l-1.83-2.13L24 10.67l2.09 1.52 5.99-5.64z"/><path class="cls-3" d="M21.91 12.19L24 10.67l-6.25-6.25-1.83 2.13 5.99 5.64z"/><path class="cls-4" d="M30.25 4.42L24 10.67l6.92 5a.7.7 0 0 0 1-.31l2.45-6.11z"/><path class="cls-4" d="M17.75 4.42L24 10.67l-6.92 5a.7.7 0 0 1-1-.31l-2.5-6.08z"/><path fill="#4acfff" d="M17.75 4.42L24 10.67l6.25-6.25h-12.5z"/><path fill="#00b8f0" d="M27.67 7h-7.34L24 10.67 27.67 7z"/><path class="cls-4" d="M17.75 4.42L24 10.67l6.25-6.25h-12.5z"/><path d="M39.2 29.8l-2.77 1.39a1.44 1.44 0 0 1-1.25 0l-2.77-1.39a1.39 1.39 0 0 1-.77-1.24v-4.7H40v4.7a1.39 1.39 0 0 1-.8 1.24z" fill="#4acfff" stroke="#45413c" stroke-linecap="round" stroke-linejoin="round"/><path d="M33 21.08h5.56A1.39 1.39 0 0 1 40 22.47v1.39h-8.36v-1.39A1.39 1.39 0 0 1 33 21.08z" stroke="#45413c" stroke-linecap="round" stroke-linejoin="round" fill="#b8ecff"/></g></svg>