<svg xmlns="http://www.w3.org/2000/svg" viewBox="0 0 48 48"><defs><style>.cls-2{fill:#00b8f0}.cls-3{fill:#4acfff}.cls-4{fill:none;stroke:#45413c;stroke-linecap:round;stroke-linejoin:round}</style></defs><g><ellipse cx="24" cy="45.18" rx="16.4" ry="1.82" fill="#45413c" opacity=".15"/><path class="cls-2" d="M13.07 44.5a2.43 2.43 0 0 1-2.43-2.43v-22.8a.62.62 0 0 0-.91-.55c-.73.41-1.44.85-2.13 1.28a2.37 2.37 0 0 1-3.6-.89l-1.88-3.89A2.46 2.46 0 0 1 3 12.09a38.61 38.61 0 0 1 42 0 2.44 2.44 0 0 1 .87 3.13L44 19.11a2.37 2.37 0 0 1-3.6.89c-.69-.46-1.4-.9-2.14-1.31a.62.62 0 0 0-.9.55v22.8a2.43 2.43 0 0 1-2.43 2.43z"/><path class="cls-3" d="M14.89 7.15l.27-.25A38.51 38.51 0 0 0 3 12.09a2.46 2.46 0 0 0-.88 3.13L3 16.94a38.32 38.32 0 0 1 13.37-5.46zM45 12.09A38.51 38.51 0 0 0 32.84 6.9l.27.25-1.48 4.32A38.32 38.32 0 0 1 45 16.93l.84-1.72a2.44 2.44 0 0 0-.84-3.12z"/><path class="cls-4" d="M13.07 44.5a2.43 2.43 0 0 1-2.43-2.43v-22.8a.62.62 0 0 0-.91-.55c-.73.41-1.44.85-2.13 1.28a2.37 2.37 0 0 1-3.6-.89l-1.88-3.89A2.46 2.46 0 0 1 3 12.09a38.61 38.61 0 0 1 42 0 2.44 2.44 0 0 1 .87 3.13L44 19.11a2.37 2.37 0 0 1-3.6.89c-.69-.46-1.4-.9-2.14-1.31a.62.62 0 0 0-.9.55v22.8a2.43 2.43 0 0 1-2.43 2.43z"/><path class="cls-2" d="M29.47 3.81L24 9.27l6.05 4.4a.61.61 0 0 0 .92-.26l2.14-6.26z"/><path class="cls-2" d="M18.53 3.81L24 9.27l-6 4.4a.61.61 0 0 1-.92-.26l-2.19-6.26z"/><path class="cls-3" d="M31.26 5.45l-1.79-1.64L24 9.27l1.99 1.45 5.27-5.27z"/><path class="cls-3" d="M22.01 10.72L24 9.27l-5.47-5.46-1.79 1.64 5.27 5.27z"/><path class="cls-4" d="M29.47 3.81L24 9.27l6.05 4.4a.61.61 0 0 0 .92-.26l2.14-6.26z"/><path class="cls-4" d="M18.53 3.81L24 9.27l-6 4.4a.61.61 0 0 1-.92-.26l-2.19-6.26z"/><path fill="#009fd9" d="M18.53 3.81L24 9.27l5.47-5.46H18.53z"/><path class="cls-2" d="M27.21 6.07h-6.42l-2.26-2.26h10.94l-2.26 2.26z"/><path class="cls-4" d="M18.53 3.81L24 9.27l5.47-5.46H18.53z"/><path class="cls-4" d="M24 9.27v5.47"/></g></svg>