<svg xmlns="http://www.w3.org/2000/svg" viewBox="0 0 48 48"><defs><style>.cls-2{fill:#00b8f0}.cls-3{fill:#4acfff}.cls-4{fill:none}.cls-4,.cls-6{stroke:#45413c;stroke-linecap:round;stroke-linejoin:round}.cls-5{fill:#80ddff}.cls-6,.cls-7{fill:#009fd9}</style></defs><g><ellipse cx="24" cy="45.04" rx="17.63" ry="1.96" fill="#45413c" opacity=".15"/><path class="cls-2" d="M37.38 4.18H10.62a.66.66 0 0 0-.66.65V42h11.76V20.82a2.28 2.28 0 0 1 4.56 0V42H38V4.83a.66.66 0 0 0-.62-.65z"/><path class="cls-3" d="M37.38 4.18H10.62a.66.66 0 0 0-.66.65v6.53a.66.66 0 0 1 .66-.65h26.76a.66.66 0 0 1 .66.65V4.83a.66.66 0 0 0-.66-.65z"/><path class="cls-4" d="M37.38 4.18H10.62a.66.66 0 0 0-.66.65V42h11.76V20.82a2.28 2.28 0 0 1 4.56 0V42H38V4.83a.66.66 0 0 0-.62-.65z"/><rect class="cls-3" x="9.31" y="38.78" width="13.06" height="5.22" rx="1.31" ry="1.31"/><rect class="cls-3" x="25.63" y="38.78" width="13.06" height="5.22" rx="1.31" ry="1.31"/><path class="cls-5" d="M21.06 38.78H10.62a1.31 1.31 0 0 0-1.31 1.3v2.12a1.31 1.31 0 0 1 1.31-1.3h10.44a1.31 1.31 0 0 1 1.31 1.3v-2.12a1.31 1.31 0 0 0-1.31-1.3z"/><path class="cls-5" d="M37.38 38.78H26.94a1.31 1.31 0 0 0-1.31 1.3v2.12a1.31 1.31 0 0 1 1.31-1.3h10.44a1.31 1.31 0 0 1 1.31 1.3v-2.12a1.31 1.31 0 0 0-1.31-1.3z"/><rect class="cls-4" x="9.31" y="38.78" width="13.06" height="5.22" rx="1.31" ry="1.31"/><rect class="cls-4" x="25.63" y="38.78" width="13.06" height="5.22" rx="1.31" ry="1.31"/><path class="cls-3" d="M21.72 4.18v8.07A1.72 1.72 0 0 0 23.44 14h2.19V4.18z"/><path class="cls-5" d="M21.72 4.18h3.92v4.9h-3.92z"/><path class="cls-4" d="M21.72 4.18v8.07A1.72 1.72 0 0 0 23.44 14h2.19V4.18z"/><path class="cls-6" d="M33.47 4.18h3.92a.65.65 0 0 1 .65.65v8.49h-2.18a2.4 2.4 0 0 1-2.4-2.4V4.18h.01z"/><path class="cls-6" d="M12.36 4.18h2.17v8.49a.65.65 0 0 1-.65.65H10V6.58a2.4 2.4 0 0 1 2.36-2.4z" transform="rotate(-180 12.25 8.745)"/><path class="cls-7" d="M33.47 4.18h3.92a.65.65 0 0 1 .65.65v8.49h-2.18a2.4 2.4 0 0 1-2.4-2.4V4.18h.01z"/><path class="cls-7" d="M12.36 4.18h2.17v8.49a.65.65 0 0 1-.65.65H10V6.58a2.4 2.4 0 0 1 2.36-2.4z" transform="rotate(-180 12.25 8.745)"/><path class="cls-2" d="M37.38 4.18h-3.91v3.26h3.91a.66.66 0 0 1 .66.65V4.83a.66.66 0 0 0-.66-.65z"/><path class="cls-2" d="M10.62 4.18a.66.66 0 0 0-.66.65v3.26a.66.66 0 0 1 .66-.65h3.91V4.18z"/><path class="cls-4" d="M33.47 4.18h3.92a.65.65 0 0 1 .65.65v8.49h-2.18a2.4 2.4 0 0 1-2.4-2.4V4.18h.01z"/><path class="cls-4" d="M12.36 4.18h2.17v8.49a.65.65 0 0 1-.65.65H10V6.58a2.4 2.4 0 0 1 2.36-2.4z" transform="rotate(-180 12.25 8.745)"/><path class="cls-4" d="M14.53 7.44h7.19"/><path class="cls-4" d="M25.63 7.44h7.84"/></g></svg>