<svg xmlns="http://www.w3.org/2000/svg" viewBox="0 0 48 48"><defs><style>.cls-4,.cls-7{fill:none;stroke:#45413c;stroke-linecap:round;stroke-linejoin:round}.cls-7{fill:#ffe500}</style></defs><g><path d="M42.93 8.32c-.82 0-3.94.58-5.74.58s-6.88-4.59-6.88-4.59l-6.31 2-6.31-2S12.6 8.9 10.81 8.9s-5-.58-5.74-.58-1.72 1.41-1.72 5.17.28 17 .45 18.27a1.12 1.12 0 0 0 1 1l7.92.93a1.16 1.16 0 0 0 1.1-.48l1.62-14.93v1a171.76 171.76 0 0 0 1.72 21.23A19 19 0 0 0 24 41.59a19 19 0 0 0 6.88-1.14 171.76 171.76 0 0 0 1.72-21.23v-1l1.62 14.93a1.16 1.16 0 0 0 1.1.48l7.92-.93a1.12 1.12 0 0 0 1-1c.17-1.3.45-14.53.45-18.27s-.92-5.11-1.76-5.11z" fill="#ff8a14"/><path d="M5.07 11.91c.77 0 3.94.57 5.74.57.89 0 2.61-1.15 4.11-2.29a7.11 7.11 0 0 1 6.5-1.11 8.57 8.57 0 0 0 5.16 0 7.11 7.11 0 0 1 6.5 1.11c1.5 1.14 3.22 2.29 4.11 2.29 1.8 0 4.92-.57 5.74-.57s1.56 1.15 1.7 4.18v-2.6c0-3.76-.88-5.17-1.72-5.17s-3.91.58-5.72.58-6.88-4.59-6.88-4.59l-6.31 2-6.31-2S12.6 8.9 10.81 8.9s-5-.58-5.74-.58-1.72 1.41-1.72 5.17v2.6c.16-3.03.96-4.18 1.72-4.18z" fill="#ffaa54"/><path d="M24 20.85c-3 0-6 .12-8.58.35.05 2.2.17 4.44.33 6.59 2.46.21 5.37.32 8.25.32s5.79-.11 8.25-.32c.16-2.15.28-4.39.33-6.59C30 21 27 20.85 24 20.85z" fill="#eb6d00"/><path class="cls-4" d="M42.93 8.32c-.82 0-3.94.58-5.74.58s-6.88-4.59-6.88-4.59l-6.31 2-6.31-2S12.6 8.9 10.81 8.9s-5-.58-5.74-.58-1.72 1.41-1.72 5.17.28 17 .45 18.27a1.12 1.12 0 0 0 1 1l7.92.93a1.16 1.16 0 0 0 1.1-.48l1.62-14.93v1a171.76 171.76 0 0 0 1.72 21.23A19 19 0 0 0 24 41.59a19 19 0 0 0 6.88-1.14 171.76 171.76 0 0 0 1.72-21.23v-1l1.62 14.93a1.16 1.16 0 0 0 1.1.48l7.92-.93a1.12 1.12 0 0 0 1-1c.17-1.3.45-14.53.45-18.27s-.92-5.11-1.76-5.11z"/><ellipse cx="24" cy="45.28" rx="13.19" ry="1.72" fill="#45413c" opacity=".15"/><path d="M14.82 25.53a23.75 23.75 0 0 1-.57-5.16 16 16 0 0 1 .57-4.59h18.36a16 16 0 0 1 .57 4.59 23.75 23.75 0 0 1-.57 5.16 57.66 57.66 0 0 1-9.18.58 57.66 57.66 0 0 1-9.18-.58z" fill="#627b8c" stroke="#45413c" stroke-linecap="round" stroke-linejoin="round"/><path class="cls-7" d="M14.25 20.37a23.94 23.94 0 0 0 .18 2.87c2.17.14 5.39.28 9.57.28s7.4-.14 9.57-.28a23.94 23.94 0 0 0 .18-2.87 19.83 19.83 0 0 0-.1-2h-19.3a19.83 19.83 0 0 0-.1 2z"/><path class="cls-7" d="M19.41 2c.87-.16 3.11 1.36 5.68 5a18.64 18.64 0 0 0-2 2.68 19.11 19.11 0 0 0-5.42-5.42S18.41 2.2 19.41 2z"/><path class="cls-7" d="M30.31 4.31S29.59 2.2 28.59 2s-3.83 1.88-6.88 6.9-3.45 6.88-3.45 6.88h2.87s4.54-8.89 9.18-11.47z"/><path d="M32 13.49c-.51-.43-4.73-.23-8 .57-3.3-.8-7.52-1-8-.57-.86.71-.57 2.29-.57 2.29H32.6s.29-1.58-.6-2.29z" fill="#fff" stroke="#45413c" stroke-linecap="round" stroke-linejoin="round"/><path class="cls-4" d="M14.25 20.37a59.53 59.53 0 0 0 9.75.57 59.53 59.53 0 0 0 9.75-.57"/><path class="cls-4" d="M22.91 22.09L24 20.94l1.09 1.15"/></g></svg>