<svg xmlns="http://www.w3.org/2000/svg" viewBox="0 0 48 48"><defs><style>.cls-5{fill:#e0366f}.cls-3,.cls-6,.cls-8{stroke:#45413c;stroke-linecap:round;stroke-linejoin:round}.cls-3{fill:#ff87af}.cls-4{fill:#ff6196}.cls-6{fill:none}.cls-8{fill:#e8f4fa}</style></defs><g><ellipse cx="22.54" cy="43.28" rx="19.04" ry="1.79" fill="#45413c" opacity=".15"/><path d="M24.4 2.1V16l1.79 2h3V5.8a3.79 3.79 0 0 0-4.79-3.7z" stroke="#45413c" stroke-linecap="round" stroke-linejoin="round" fill="#e0366f"/><path class="cls-3" d="M23.38 2.39c-3.47 1.29-5.28 6.83-5.28 6.83l3 3.29.3-2.09S25.36 3 29.23 5.8c0-2.59-2.38-4.7-5.85-3.41z"/><path class="cls-4" d="M31 7.66c4.35-.22 9.5 1.82 9.5 15.44 0 10.62-.71 13.31-6.22 15.61l1.17 3.13c7.61-1.56 9.52-5.73 9.52-18C45 9.08 41.63 6.75 35.48 6.75a12.06 12.06 0 0 0-4.48.91z"/><path class="cls-5" d="M39.23 13.51C42.63 14.62 44.6 18 45 27.12v-3.23c0-14.81-3.37-17.14-9.52-17.14a12.06 12.06 0 0 0-4.48.91c3-.15 6.42.78 8.23 5.85z"/><path class="cls-6" d="M31 7.66c4.35-.22 9.5 1.82 9.5 15.44 0 10.62-.71 13.31-6.22 15.61l1.17 3.13c7.61-1.56 9.52-5.73 9.52-18C45 9.08 41.63 6.75 35.48 6.75a12.06 12.06 0 0 0-4.48.91z"/><path class="cls-3" d="M43.81 12.59c-1.47-4.84-4.31-5.84-8.33-5.84-6.15 0-11.08 5.48-11.08 5.48l.6 1.71 4 .16c5.64-4.67 12.79-6.49 14.81-1.51z"/><path class="cls-4" d="M22.27 44.62a3.87 3.87 0 0 0 1.11.29V26.47L3.89 18.39v17.82a1.19 1.19 0 0 0 .73 1.1z"/><path class="cls-5" d="M22.27 42.56c.35.15 1.11 0 1.11-.49V24.41L3.89 16.33v17.82a1.2 1.2 0 0 0 .73 1.1z"/><path class="cls-6" d="M22.27 44.62a3.87 3.87 0 0 0 1.11.29V26.47L3.89 18.39v17.82a1.19 1.19 0 0 0 .73 1.1z"/><path class="cls-4" d="M34 15.39c-3-1.27-12.82-5.26-18.58-7s-11.53 1.72-11.53 10V30.6a3.57 3.57 0 0 0 2.2 3.3l14 5.8a2.38 2.38 0 0 0 3.29-2.2v-11z"/><path d="M15.44 13.4c4.28 1.33 10.79 3.88 15.09 5.62L34 15.39c-3-1.27-12.82-5.26-18.58-7s-11.53 1.72-11.53 10v5.07c0-8.29 5.8-11.84 11.55-10.06z" fill="#ff87af"/><path class="cls-6" d="M34 15.39c-3-1.27-12.82-5.26-18.58-7s-11.53 1.72-11.53 10V30.6a3.57 3.57 0 0 0 2.2 3.3l14 5.8a2.38 2.38 0 0 0 3.29-2.2v-11z"/><path class="cls-8" d="M9.32 29.37c0 1.09-.64 2-1.42 2s-1.41-.88-1.41-2 .63-2 1.41-2 1.42.91 1.42 2z"/><path class="cls-8" d="M20.37 34c0 1.09-.64 2-1.42 2s-1.41-.88-1.41-2 .63-2 1.41-2 1.42.89 1.42 2z"/><path class="cls-4" d="M30.32 15c-4.56.89-6.94 4.81-6.94 11.48v18.43a3.89 3.89 0 0 0 1.18 0L36.26 43a1.19 1.19 0 0 0 1-1.18V24.24c0-6.87-2.38-10.15-6.94-9.24z"/><path class="cls-5" d="M30.32 15c-4.56.89-6.94 4.81-6.94 11.48v3.12c0-6.67 2.38-10.59 6.94-11.48s6.94 2.38 6.94 9.25v-3.13c0-6.87-2.38-10.15-6.94-9.24z"/><path class="cls-6" d="M30.32 15c-4.56.89-6.94 4.81-6.94 11.48v18.43a3.89 3.89 0 0 0 1.18 0L36.26 43a1.19 1.19 0 0 0 1-1.18V24.24c0-6.87-2.38-10.15-6.94-9.24z"/><path d="M23.38 27.19v4.63l7.9-1.35a1.19 1.19 0 0 0 1-1.17v-2a1.19 1.19 0 0 0-1.36-1.18z" fill="#ff6196" stroke="#45413c" stroke-linecap="round" stroke-linejoin="round"/><path class="cls-8" d="M31.44 32.87l-.87-2.73a1.11 1.11 0 0 0-2.17.39l.14 2.86a1.11 1.11 0 0 0 1.3 1l.74-.13a1.11 1.11 0 0 0 .86-1.39z"/></g></svg>