<svg xmlns="http://www.w3.org/2000/svg" viewBox="0 0 48 48"><defs><style>.cls-1{fill:#bf8256}.cls-3{fill:#dea47a}.cls-4,.cls-5{fill:none;stroke:#45413c;stroke-linecap:round;stroke-linejoin:round}.cls-5{fill:#656769}</style></defs><path class="cls-1" d="M14.07 7.3a5.51 5.51 0 0 0 8.74 1.52l.06-.05a3 3 0 0 1 4.56.52l7.62 11.49c1.76 2.66 5.75 5.77 8.15 7.87 2.35 2 3.79 5.56 2.66 8.46-.72 1.82-3.4 2.49-5.23 1.77l-15.27-5.94a26.23 26.23 0 0 1-7.21-4.26L5 23.54a1.34 1.34 0 0 1-.76-1.74l4.9-12.49z"/><ellipse cx="26.45" cy="42.47" rx="18.8" ry="2.01" fill="#45413c" opacity=".15"/><path class="cls-3" d="M12.75 11.4a5.53 5.53 0 0 0 8.75 1.52l.05-.06a3 3 0 0 1 4.57.52l7.61 11.49c1.76 2.66 5.76 5.78 8.16 7.87a8.92 8.92 0 0 1 3 5.59 2.86 2.86 0 0 0 1-1.22c1.13-2.9-.31-6.43-2.66-8.46-2.4-2.1-6.39-5.21-8.15-7.87l-7.65-11.5a3 3 0 0 0-4.56-.51l-.06.05a5.51 5.51 0 0 1-8.74-1.52zM4.26 21.8a1.39 1.39 0 0 0 0 .85"/><path class="cls-4" d="M14.07 7.3a5.51 5.51 0 0 0 8.74 1.52l.06-.05a3 3 0 0 1 4.56.52l7.62 11.49c1.76 2.66 5.75 5.77 8.15 7.87 2.35 2 3.79 5.56 2.66 8.46-.72 1.82-3.4 2.49-5.23 1.77l-15.27-5.94a26.23 26.23 0 0 1-7.21-4.26L5 23.54a1.34 1.34 0 0 1-.76-1.74l4.9-12.49z"/><path class="cls-1" d="M31.93 21.58l-7.19-9.88a3.87 3.87 0 0 0-3.69-1.55l-1.5.22a3.05 3.05 0 0 1-2.63-.88l-2.65-2.67A2.75 2.75 0 0 0 12.06 6a2.72 2.72 0 0 0-2.31 1.76l-5.49 14A1.34 1.34 0 0 0 5 23.54l13.13 5.14c4-1.41 7.46-1 10.42 1a1 1 0 0 0 1.12 0l1-.7a5.26 5.26 0 0 0 1.26-7.4z"/><path class="cls-3" d="M31.93 21.58l-7.19-9.88a3.87 3.87 0 0 0-3.69-1.55l-1.5.22a3.05 3.05 0 0 1-2.63-.88l-2.65-2.67A2.75 2.75 0 0 0 12.06 6a2.72 2.72 0 0 0-2.31 1.76l-1 2.65a11.69 11.69 0 0 1 7.92 3.45 3.05 3.05 0 0 0 2.63.88l1.5-.22a3.88 3.88 0 0 1 3.69 1.55L31.64 26a5.91 5.91 0 0 1 .67 1.23 5.27 5.27 0 0 0-.38-5.65z"/><path class="cls-4" d="M31.93 21.58l-7.19-9.88a3.87 3.87 0 0 0-3.69-1.55l-1.5.22a3.05 3.05 0 0 1-2.63-.88l-2.65-2.67A2.75 2.75 0 0 0 12.06 6a2.72 2.72 0 0 0-2.31 1.76l-5.49 14A1.34 1.34 0 0 0 5 23.54l13.13 5.14c4-1.41 7.46-1 10.42 1a1 1 0 0 0 1.12 0l1-.7a5.26 5.26 0 0 0 1.26-7.4z"/><path class="cls-5" d="M25.16 32.86A25.86 25.86 0 0 1 18 28.63L3.77 23.06l-1.22 3.12a.66.66 0 0 0 .37.87l10.54 4.12 1.72-.77.67.43a59.68 59.68 0 0 0 10.62 5.42l15.52 6a.67.67 0 0 0 .86-.38l.74-1.87zM29.3 21.94a1.35 1.35 0 0 0 1.85.42l3.41-2.15a1.34 1.34 0 1 0-1.43-2.27l-3.41 2.15a1.34 1.34 0 0 0-.42 1.85zM31.52 13.28a1.35 1.35 0 0 0-1.86-.42L26.26 15a1.35 1.35 0 0 0 1.43 2.28l3.41-2.15a1.35 1.35 0 0 0 .42-1.85z"/></svg>