<svg xmlns="http://www.w3.org/2000/svg" viewBox="0 0 48 48"><defs><style>.cls-2{fill:#4acfff}.cls-3{fill:#80ddff}.cls-4,.cls-8{fill:none;stroke:#45413c;stroke-linecap:round;stroke-linejoin:round}.cls-8{fill:#fff}</style></defs><ellipse cx="26.03" cy="42.83" rx="17.7" ry="1.66" fill="#45413c" opacity=".15"/><path class="cls-2" d="M31.29 23.25L26.81 9.68A2.63 2.63 0 0 0 24 7.89l-1.85.2a1.09 1.09 0 0 0-.94.78l-3.46 11.48z"/><path class="cls-3" d="M26.81 9.68A2.65 2.65 0 0 0 24 7.88l-1.85.21a1.09 1.09 0 0 0-.94.78l-.68 2.24c.13-.42 1.18-.7 1.62-.75l1.85-.2c1.24-.13 3.15.62 3.54 1.8z"/><path class="cls-4" d="M31.29 23.25L26.81 9.68A2.63 2.63 0 0 0 24 7.89l-1.85.2a1.09 1.09 0 0 0-.94.78l-3.46 11.48z"/><path d="M44 40L3 25 9.06 8.4a1.37 1.37 0 0 1 2.29-.47A12.86 12.86 0 0 0 22 11.66a3.76 3.76 0 0 1 3.16 1.15l10.6 11.24a20.59 20.59 0 0 0 5.84 4.34 7.06 7.06 0 0 1 3.49 8.75z" fill="#f0f0f0"/><path d="M8.61 11.57a14.45 14.45 0 0 0 11.3 4 4.25 4.25 0 0 1 3.36 1.23l11.42 11.51A22.76 22.76 0 0 0 41 32.8a7.59 7.59 0 0 1 4 4.68l.13-.34a7.06 7.06 0 0 0-3.49-8.75 20.59 20.59 0 0 1-5.84-4.34L25.14 12.81A3.76 3.76 0 0 0 22 11.66a12.86 12.86 0 0 1-10.65-3.73 1.37 1.37 0 0 0-2.29.47L8 11.2a1.64 1.64 0 0 1 .61.37z" fill="#fff"/><path class="cls-4" d="M44 40L3 25 9.06 8.4a1.37 1.37 0 0 1 2.29-.47A12.86 12.86 0 0 0 22 11.66a3.76 3.76 0 0 1 3.16 1.15l10.6 11.24a20.59 20.59 0 0 0 5.84 4.34 7.06 7.06 0 0 1 3.49 8.75z"/><path d="M39.25 41.24L23.4 35.43a24.86 24.86 0 0 1-4.24-2l-3-1.76a2.11 2.11 0 0 0-1.7-.19 3.22 3.22 0 0 1-2.1-.05L5 28.7c-1.69-.7-2.75-1.65-2.45-2.52L3 25l41 15-.36 1c-.5 1.16-2.26 1-4.39.24z" fill="#bdbec0" stroke-width="1.01" stroke="#45413c" stroke-linecap="round" stroke-linejoin="round"/><path class="cls-2" d="M45.5 34.72a7.31 7.31 0 0 1-.43 2.42L44 40l-11.45-4.2c1-3 2.4-4.37 4.71-4.81a5.16 5.16 0 0 0 3.87-2.87l.44.23a7.08 7.08 0 0 1 3.93 6.37z"/><path class="cls-3" d="M45.5 34.72a7.31 7.31 0 0 1-.43 2.42l-.12.34a7.61 7.61 0 0 0-4-4.68 22.1 22.1 0 0 1-3.17-1.89 5 5 0 0 0 3.36-2.75 7.43 7.43 0 0 1 2.43 1.71 7 7 0 0 1 1.93 4.85z"/><path class="cls-4" d="M45.5 34.72a7.31 7.31 0 0 1-.43 2.42L44 40l-11.45-4.2c1-3 2.4-4.37 4.71-4.81a5.16 5.16 0 0 0 3.87-2.87l.44.23a7.08 7.08 0 0 1 3.93 6.37z"/><path class="cls-2" d="M16.46 30c2.86-7.79 2.92-9.83.56-12.81-1.54-2-1.51-3.87-.69-6.09a12 12 0 0 1-5-3.12 1.37 1.37 0 0 0-2.29.47L3 25z"/><path class="cls-3" d="M11.35 7.93a1.37 1.37 0 0 0-2.29.47L8 11.2a1.64 1.64 0 0 1 .58.37A14 14 0 0 0 16 15.36a6.31 6.31 0 0 1 .3-4.31 12 12 0 0 1-4.95-3.12z"/><path class="cls-4" d="M16.46 30c2.86-7.79 2.92-9.83.56-12.81-1.54-2-1.51-3.87-.69-6.09a12 12 0 0 1-5-3.12 1.37 1.37 0 0 0-2.29.47L3 25z"/><path class="cls-8" d="M34.05 20a1.11 1.11 0 0 0-1.56-.12l-2.29 1.94a1.1 1.1 0 1 0 1.43 1.68l2.29-1.95a1.11 1.11 0 0 0 .13-1.55zM30 15.55a1.11 1.11 0 0 0-1.56-.12l-2.29 1.95a1.11 1.11 0 1 0 1.43 1.69l2.3-2a1.11 1.11 0 0 0 .12-1.52zM38.06 24a1.1 1.1 0 0 0-1.55-.12l-1.86 1.58a1.11 1.11 0 0 0 1.43 1.69l1.86-1.59a1.11 1.11 0 0 0 .12-1.56z"/></svg>