<svg xmlns="http://www.w3.org/2000/svg" viewBox="0 0 48 48"><defs><style>.cls-4{fill:none;stroke:#45413c;stroke-linecap:round;stroke-linejoin:round}.cls-7{fill:#ff6242}.cls-8{fill:#ff866e}</style></defs><g><ellipse cx="24" cy="44.36" rx="12.56" ry="1.64" fill="#45413c" opacity=".15"/><path d="M18.11 22.11h13.71a.73.73 0 0 1 .73.73v17.88a1.38 1.38 0 0 1-1.38 1.38H18.76a1.38 1.38 0 0 1-1.38-1.38V22.83a.73.73 0 0 1 .73-.73z" transform="rotate(-16.45 24.952 32.105)" fill="#87898c"/><path d="M34.67 38.22l-5.06-17.15a.73.73 0 0 0-.9-.5l-2.32.69 5.66 19.17 1.69-.5a1.37 1.37 0 0 0 .93-1.71z" fill="#bdbec0"/><path class="cls-4" d="M18.11 22.11h13.71a.73.73 0 0 1 .73.73v17.88a1.38 1.38 0 0 1-1.38 1.38H18.76a1.38 1.38 0 0 1-1.38-1.38V22.83a.73.73 0 0 1 .73-.73z" transform="rotate(-16.45 24.952 32.105)"/><path d="M28.74 20.56l-13.22 3.91-.26-2.94a.68.68 0 0 1 .49-.72l10.82-3.2a.69.69 0 0 1 .8.34z" fill="#daedf7"/><path d="M23.62 18.49L25 21.68l3.76-1.12L27.37 18a.69.69 0 0 0-.8-.34l-2.95.87z" fill="#e8f4fa"/><path class="cls-4" d="M28.74 20.56l-13.22 3.91-.26-2.94a.68.68 0 0 1 .49-.72l10.82-3.2a.69.69 0 0 1 .8.34z"/><path class="cls-7" d="M25.79 17.84l-9.26 2.74-4.86-16.46a1.39 1.39 0 0 1 1.84-1.67l6.9 2.75a4.14 4.14 0 0 1 2.43 2.67z"/><path class="cls-8" d="M12.23 6l6 2.39a4.14 4.14 0 0 1 2.43 2.67l2.25 7.61 2.87-.85-2.95-10a4.14 4.14 0 0 0-2.42-2.62l-6.9-2.75a1.39 1.39 0 0 0-1.84 1.67z"/><path class="cls-4" d="M25.79 17.84l-9.26 2.74-4.86-16.46a1.39 1.39 0 0 1 1.84-1.67l6.9 2.75a4.14 4.14 0 0 1 2.43 2.67z"/><path class="cls-7" transform="rotate(-16.45 25.738 34.726)" d="M18.16 33.02h15.16v3.45H18.16z"/><path class="cls-8" d="M33.5 34.26l-3.01.88-.97-3.3 3.01-.89.97 3.31z"/><path class="cls-4" transform="rotate(-16.45 25.738 34.726)" d="M18.16 33.02h15.16v3.45H18.16z"/></g></svg>