<svg xmlns="http://www.w3.org/2000/svg" viewBox="0 0 48 48"><defs><style>.cls-2{fill:#8ca4b8}.cls-3{fill:#adc4d9}.cls-4{fill:none;stroke:#45413c;stroke-linecap:round;stroke-linejoin:round}</style></defs><ellipse cx="24" cy="46.5" rx="11.19" ry="1.5" opacity=".15" fill="#45413c"/><path class="cls-2" d="M45.56 29.43c-.14-1.31-.18-2.56-1.49-2.59-1.78 0-4.23-.79-7.22-3.43C31 18.2 30.06 7.64 21.07 6.73c-6.15-.62-10.9 4.24-12.27 10a3.22 3.22 0 0 1-1.09 1.72c-3.18 2.79-5.22 5.5-5.3 6.82s3.92 5 8.06 4.65c1.44-.13 2.13-.59 4.5-1.6a1.5 1.5 0 0 1 2 1.21c.28 6.88 3.32 13.28 5.94 15 11.27 7.57 23.33-8.9 22.65-15.1z"/><path class="cls-3" d="M45.56 29.43c-.14-1.31-.18-2.56-1.49-2.59-1.78 0-4.23-.79-7.22-3.43C31 18.2 30.06 7.64 21.07 6.73c-6.15-.62-10.9 4.24-12.27 10a3.22 3.22 0 0 1-1.09 1.72c-3.18 2.79-5.22 5.5-5.3 6.82a2.36 2.36 0 0 0 .69 1.39 24.55 24.55 0 0 1 4.61-5.13 3.18 3.18 0 0 0 1.1-1.72c1.37-5.76 6.12-10.62 12.27-10 9 .91 9.87 11.46 15.78 16.67 3 2.64 5.44 3.4 7.22 3.43.92 0 1.21.64 1.35 1.46a6.39 6.39 0 0 0 .13-1.94z"/><path class="cls-4" d="M45.56 29.43c-.14-1.31-.18-2.56-1.49-2.59-1.78 0-4.23-.79-7.22-3.43C31 18.2 30.06 7.64 21.07 6.73c-6.15-.62-10.9 4.24-12.27 10a3.22 3.22 0 0 1-1.09 1.72c-3.18 2.79-5.22 5.5-5.3 6.82s3.92 5 8.06 4.65c1.44-.13 2.13-.59 4.5-1.6a1.5 1.5 0 0 1 2 1.21c.28 6.88 3.32 13.28 5.94 15 11.27 7.57 23.33-8.9 22.65-15.1z"/><path class="cls-2" d="M17.79 10.3S18.56.87 19.66.71 24 3 24.87 12"/><path class="cls-3" d="M19.92 4a4.89 4.89 0 0 1 3.72 1.69c-1.32-3.93-3.21-5.12-4-5-.45.07-.84 1.66-1.15 3.53A5.06 5.06 0 0 1 19.92 4z"/><path class="cls-4" d="M17.79 10.3S18.56.87 19.66.71 24 3 24.87 12"/><path d="M14.56 15.94a.83.83 0 0 1-.83.83.84.84 0 0 1-.84-.83.85.85 0 0 1 .84-.84.84.84 0 0 1 .83.84z" stroke="#45413c" stroke-linecap="round" stroke-linejoin="round" fill="#45413c"/><path d="M3 26.47a9.34 9.34 0 0 0 7.52 3.45c1.44-.13 2.13-.59 4.5-1.6a1.5 1.5 0 0 1 2 1.21c-.43 6 2.92 15.31 8.85 17 .59-3.85-.46-8.57-1-10.71a.31.31 0 0 1 .52-.29l.6.6a.31.31 0 0 0 .52-.16 14.06 14.06 0 0 0-.17-5.97 9.79 9.79 0 0 0-2.55-4.17.61.61 0 0 1 .1-1 4.84 4.84 0 0 1 2.23-.76.31.31 0 0 0 .24-.49 7.62 7.62 0 0 0-2.69-2.27.62.62 0 0 1-.11-1 4.55 4.55 0 0 1 1.12-.63.31.31 0 0 0 0-.58 15.1 15.1 0 0 0-6.4-.58A19.65 19.65 0 0 0 8 22.24a53.33 53.33 0 0 0-5 4.23z" fill="#fff" stroke="#45413c" stroke-linecap="round" stroke-linejoin="round"/><path d="M17 21.93a.93.93 0 1 0 1-.93.93.93 0 0 0-1 .93z" fill="#fcd"/><path d="M3.71 23.23c.36.37.43 2.87-.11 3.33s-1.52 0-1.88-.32-.13-.95.21-1.52 1.42-1.85 1.78-1.49z" fill="#656769"/><path d="M2.32 26c.36-.59 1.24-1.63 1.67-1.54a2.59 2.59 0 0 0-.28-1.27c-.36-.36-1.38.83-1.78 1.49s-.57 1.15-.21 1.52a1.86 1.86 0 0 0 .36.25z" fill="#87898c"/><path class="cls-4" d="M3.71 23.23c.36.37.43 2.87-.11 3.33s-1.52 0-1.88-.32-.13-.95.21-1.52 1.42-1.85 1.78-1.49z"/><path d="M19.81 10.18a.31.31 0 0 1-.26-.34c.11-1.08.5-4.69.9-5.28s2.08 3 2.17 6.15a.31.31 0 0 1-.49.26 5.72 5.72 0 0 0-2.32-.79z" fill="#ffa694"/><path d="M20.45 4.56c-.4.59-.79 4.2-.9 5.28a14.73 14.73 0 0 1 .69-3.45c.37-.54 1.58 1.91 2 4.59a.3.3 0 0 0 .37-.3c-.08-3.15-1.73-6.77-2.16-6.12z" fill="#ff866e"/><path class="cls-4" d="M19.81 10.18a.31.31 0 0 1-.26-.34c.11-1.08.5-4.69.9-5.28s2.08 3 2.17 6.15a.31.31 0 0 1-.49.26 5.72 5.72 0 0 0-2.32-.79z"/></svg>