<svg xmlns="http://www.w3.org/2000/svg" viewBox="0 0 48 48"><defs><style>.cls-1{fill:#ffe500}.cls-2{fill:#ffa694}.cls-3{fill:#fff48c}.cls-4{fill:none}.cls-4,.cls-7{stroke:#45413c;stroke-linecap:round;stroke-linejoin:round}.cls-5{fill:#ff866e}.cls-7{fill:#45413c}</style></defs><path class="cls-1" d="M27.12 8.89s8.43-5.74 11.57-3.15S37.48 19 37.48 19z"/><path class="cls-2" d="M28.49 11.07s6-4.35 8.14-2.59-1.12 9.41-1.12 9.41z"/><path class="cls-1" d="M20.88 8.89S12.45 3.15 9.31 5.74 10.52 19 10.52 19z"/><path class="cls-3" d="M38.69 7.92a3.54 3.54 0 0 1 1.09 2.39c.18-2 0-3.71-1.09-4.57-3.14-2.59-11.57 3.15-11.57 3.15l1.37 1.33C31 8.73 36.34 6 38.69 7.92z"/><path class="cls-3" d="M9.31 7.92c2.35-1.93 7.68.81 10.2 2.3l1.37-1.33S12.45 3.15 9.31 5.74C8.26 6.6 8 8.35 8.22 10.31a3.54 3.54 0 0 1 1.09-2.39z"/><path class="cls-4" d="M27.12 8.89s8.43-5.74 11.57-3.15S37.48 19 37.48 19z"/><path class="cls-4" d="M20.88 8.89S12.45 3.15 9.31 5.74 10.52 19 10.52 19z"/><path class="cls-2" d="M19.51 11.07s-6-4.35-8.14-2.59 1.12 9.41 1.12 9.41z"/><path class="cls-5" d="M36.63 10.72a2.08 2.08 0 0 1 .63 1.18c.2-1.48.11-2.81-.63-3.42-2.13-1.76-8.14 2.59-8.14 2.59l1.38 1.34c1.9-1.16 5.27-2.91 6.76-1.69z"/><path class="cls-5" d="M11.37 10.72c1.49-1.22 4.86.53 6.76 1.69l1.38-1.34s-6-4.35-8.14-2.59c-.74.61-.83 1.94-.63 3.42a2.08 2.08 0 0 1 .63-1.18z"/><path class="cls-4" d="M28.49 11.07s6-4.35 8.14-2.59-1.12 9.41-1.12 9.41z"/><path class="cls-4" d="M19.51 11.07s-6-4.35-8.14-2.59 1.12 9.41 1.12 9.41z"/><ellipse cx="24" cy="44.5" rx="11" ry="1.5" opacity=".15" fill="#45413c"/><path class="cls-1" d="M39.33 29.12l-.94-8.72A14.25 14.25 0 0 0 24 8 14.25 14.25 0 0 0 9.61 20.4l-.94 8.72a8.09 8.09 0 0 0 8.25 8.77h.46c1.25 1.55 3.74 2.61 6.62 2.61s5.37-1.06 6.62-2.61h.46a8.09 8.09 0 0 0 8.25-8.77z"/><path class="cls-3" d="M9.61 24.09A14.25 14.25 0 0 1 24 11.65a14.26 14.26 0 0 1 14.39 12.44l.81 7.49a7.76 7.76 0 0 0 .13-2.46l-.94-8.72A14.26 14.26 0 0 0 24 8 14.25 14.25 0 0 0 9.61 20.4l-.94 8.72a7.76 7.76 0 0 0 .13 2.46z"/><path class="cls-4" d="M39.33 29.12l-.94-8.72A14.25 14.25 0 0 0 24 8 14.25 14.25 0 0 0 9.61 20.4l-.94 8.72a8.09 8.09 0 0 0 8.25 8.77h.46c1.25 1.55 3.74 2.61 6.62 2.61s5.37-1.06 6.62-2.61h.46a8.09 8.09 0 0 0 8.25-8.77z"/><path class="cls-5" d="M26.68 31.83A3 3 0 0 1 24 34.05a3 3 0 0 1-2.68-2.22c0-.68 1.2-1.24 2.68-1.24s2.68.56 2.68 1.24z"/><path class="cls-2" d="M24 32.09a3.94 3.94 0 0 1 2.32.62 1.72 1.72 0 0 0 .36-.88c0-.68-1.2-1.24-2.68-1.24s-2.68.56-2.68 1.24a1.72 1.72 0 0 0 .36.88 3.94 3.94 0 0 1 2.32-.62z"/><path class="cls-4" d="M26.68 31.83A3 3 0 0 1 24 34.05a3 3 0 0 1-2.68-2.22c0-.68 1.2-1.24 2.68-1.24s2.68.56 2.68 1.24z"/><path class="cls-4" d="M28.26 35.91A3.09 3.09 0 0 1 24 34.05a3.09 3.09 0 0 1-4.26 1.86"/><path class="cls-4" d="M31.11 30.3l5.42-.83"/><path class="cls-4" d="M31.11 32.76l5.42.75"/><path class="cls-4" d="M16.89 30.3l-5.42-.83"/><path class="cls-4" d="M16.89 32.76l-5.42.75"/><path class="cls-7" d="M15.92 25.08a1.15 1.15 0 1 0 1.15-1.15 1.14 1.14 0 0 0-1.15 1.15z"/><path class="cls-7" d="M32.08 25.08a1.15 1.15 0 1 1-1.15-1.15 1.14 1.14 0 0 1 1.15 1.15z"/></svg>