<svg xmlns="http://www.w3.org/2000/svg" viewBox="0 0 48 48"><defs><style>.cls-1{fill:#fff48c}.cls-2{fill:#fffacf}.cls-3{fill:none}.cls-10,.cls-3,.cls-9{stroke:#45413c;stroke-linecap:round;stroke-linejoin:round}.cls-4{fill:#f0f0f0}.cls-5{fill:#fff}.cls-10{fill:#45413c}.cls-7{fill:#fcd}.cls-9{fill:#ff87af}</style></defs><g><path class="cls-1" d="M18.72 8.68a9.61 9.61 0 0 1-4.23-2.12 18.37 18.37 0 0 1-2.7-3.19 1.06 1.06 0 0 0-1.86.24A11.77 11.77 0 0 0 9.2 9.2a9.33 9.33 0 0 0 3.17 5.29z"/><path class="cls-2" d="M9.28 9.63a12.42 12.42 0 0 1 .65-2.41A1.05 1.05 0 0 1 11.79 7a18.82 18.82 0 0 0 2.7 3.19 9 9 0 0 0 1.46 1l2.77-2.53a9.61 9.61 0 0 1-4.23-2.12 18.82 18.82 0 0 1-2.7-3.19 1.06 1.06 0 0 0-1.86.24A11.77 11.77 0 0 0 9.2 9.2c.02.15.05.29.08.43z"/><path class="cls-3" d="M18.72 8.68a9.61 9.61 0 0 1-4.23-2.12 18.37 18.37 0 0 1-2.7-3.19 1.06 1.06 0 0 0-1.86.24A11.77 11.77 0 0 0 9.2 9.2a9.33 9.33 0 0 0 3.17 5.29z"/><path class="cls-1" d="M29.28 8.68a9.61 9.61 0 0 0 4.23-2.12 18.37 18.37 0 0 0 2.7-3.19 1.06 1.06 0 0 1 1.86.24 11.77 11.77 0 0 1 .73 5.59 9.33 9.33 0 0 1-3.17 5.29z"/><path class="cls-2" d="M38.72 9.63a12.42 12.42 0 0 0-.65-2.41A1.05 1.05 0 0 0 36.21 7a18.82 18.82 0 0 1-2.7 3.19 9 9 0 0 1-1.46 1l-2.77-2.51a9.61 9.61 0 0 0 4.23-2.12 18.82 18.82 0 0 0 2.7-3.19 1.06 1.06 0 0 1 1.86.24 11.77 11.77 0 0 1 .73 5.59c-.02.15-.05.29-.08.43z"/><path class="cls-3" d="M29.28 8.68a9.61 9.61 0 0 0 4.23-2.12 18.37 18.37 0 0 0 2.7-3.19 1.06 1.06 0 0 1 1.86.24 11.77 11.77 0 0 1 .73 5.59 9.33 9.33 0 0 1-3.17 5.29z"/><path class="cls-4" d="M12.75 12.34s-7 .94-10 9c-1.94 5.11 10 2.64 10 2.64z"/><path class="cls-5" d="M2.71 21.33a1.87 1.87 0 0 0 .46 2.37 13.43 13.43 0 0 1 9.58-7.92v-3.44s-6.99.94-10.04 8.99z"/><path class="cls-3" d="M12.75 12.34s-7 .94-10 9c-1.94 5.11 10 2.64 10 2.64z"/><path class="cls-4" d="M35.25 12.34s7 .94 10 9c1.94 5.11-10 2.64-10 2.64z"/><path class="cls-5" d="M45.29 21.33a1.87 1.87 0 0 1-.46 2.37 13.43 13.43 0 0 0-9.58-7.92v-3.44s6.99.94 10.04 8.99z"/><path class="cls-3" d="M35.25 12.34s7 .94 10 9c1.94 5.11-10 2.64-10 2.64z"/><ellipse cx="24" cy="45.41" rx="12.16" ry="1.59" opacity=".15" fill="#45413c"/><path class="cls-4" d="M20.33 8.15h7.35a9.54 9.54 0 0 1 9.54 9.54v14.77H10.79V17.69a9.54 9.54 0 0 1 9.54-9.54z"/><path class="cls-5" d="M27.67 8.15h-7.34a9.54 9.54 0 0 0-9.54 9.54v3.83A9.54 9.54 0 0 1 20.33 12h7.34a9.54 9.54 0 0 1 9.54 9.54v-3.85a9.54 9.54 0 0 0-9.54-9.54z"/><path class="cls-3" d="M20.33 8.15h7.35a9.54 9.54 0 0 1 9.54 9.54v14.77H10.79V17.69a9.54 9.54 0 0 1 9.54-9.54z"/><ellipse class="cls-7" cx="24" cy="32.46" rx="15.33" ry="10.04"/><path d="M24 26.12c11.66 0 14.63 3.4 15.21 8a12.2 12.2 0 0 0 .12-1.61c0-5.55-1.94-10-15.33-10S8.67 27 8.67 32.51a12.2 12.2 0 0 0 .12 1.61c.58-4.6 3.55-8 15.21-8z" fill="#ffe5ee"/><ellipse class="cls-3" cx="24" cy="32.46" rx="15.33" ry="10.04"/><circle class="cls-9" cx="17.66" cy="33.52" r="1.59"/><circle class="cls-9" cx="30.34" cy="33.52" r="1.59"/><circle class="cls-10" cx="30.72" cy="18.56" r="1.43"/><circle class="cls-10" cx="17.28" cy="18.56" r="1.43"/><path class="cls-7" d="M36.16 21.36c0 .55-.71 1-1.59 1s-1.59-.45-1.59-1 .71-1 1.59-1 1.59.45 1.59 1z"/><path class="cls-7" d="M15 21.36c0 .55-.71 1-1.59 1s-1.59-.45-1.59-1 .71-1 1.59-1 1.59.45 1.59 1z"/></g></svg>