<svg xmlns="http://www.w3.org/2000/svg" viewBox="0 0 48 48"><defs><style>.cls-1{fill:#ffb0ca}.cls-2{fill:#fcd}.cls-3{fill:none}.cls-3,.cls-7,.cls-9{stroke:#45413c;stroke-linecap:round;stroke-linejoin:round}.cls-7{fill:#45413c}.cls-8{fill:#ff6196}.cls-9{fill:#ff87af}</style></defs><path class="cls-1" d="M6.9 11.84c-2.77 4.11-2.07 6.7 1 8.8 4.52 3.1 5-3 7.19-6.06s4.68-5.24 2.59-6.74-7.55-.84-10.78 4z"/><path class="cls-2" d="M6.9 14.88c3.23-4.8 8.69-5.49 10.78-4l.11.07c.81-1.27 1.05-2.29-.11-3.12-2.09-1.49-7.55-.81-10.78 4-1.66 2.46-2.07 4.38-1.48 6a11.5 11.5 0 0 1 1.48-2.95z"/><path class="cls-3" d="M6.9 11.84c-2.77 4.11-2.07 6.7 1 8.8 4.52 3.1 5-3 7.19-6.06s4.68-5.24 2.59-6.74-7.55-.84-10.78 4z"/><path class="cls-1" d="M41.1 11.84c2.77 4.11 2.07 6.7-1 8.8-4.52 3.1-5-3-7.19-6.06s-4.68-5.24-2.59-6.74 7.55-.84 10.78 4z"/><path class="cls-2" d="M41.1 14.88c-3.23-4.8-8.69-5.49-10.78-4l-.11.07c-.81-1.27-1.05-2.29.11-3.12 2.09-1.49 7.55-.81 10.78 4 1.66 2.46 2.07 4.38 1.48 6a11.5 11.5 0 0 0-1.48-2.95z"/><path class="cls-3" d="M41.1 11.84c2.77 4.11 2.07 6.7-1 8.8-4.52 3.1-5-3-7.19-6.06s-4.68-5.24-2.59-6.74 7.55-.84 10.78 4z"/><ellipse cx="24" cy="44.49" rx="11.5" ry="1.5" opacity=".15" fill="#45413c"/><path class="cls-1" d="M29.49 8.52a22.42 22.42 0 0 0-11 0C12.86 10 9 14.34 9 19.32v4.35a2.09 2.09 0 0 1-.42 1.22 7.44 7.44 0 0 0-1.08 4.63c0 6.06 7.11 11 16.5 11s16.5-4.92 16.5-11a7.44 7.44 0 0 0-1.08-4.63 2.09 2.09 0 0 1-.42-1.22v-4.35c0-4.98-3.86-9.32-9.51-10.8z"/><path class="cls-2" d="M18.51 11.87a22.42 22.42 0 0 1 11 0C35.14 13.3 39 17.68 39 22.66v-3.34c0-5-3.86-9.37-9.51-10.8a22.42 22.42 0 0 0-11 0C12.86 10 9 14.34 9 19.32v3.34c0-4.98 3.86-9.36 9.51-10.79z"/><path class="cls-3" d="M29.49 8.52a22.42 22.42 0 0 0-11 0C12.86 10 9 14.34 9 19.32v4.35a2.09 2.09 0 0 1-.42 1.22 7.44 7.44 0 0 0-1.08 4.63c0 6.06 7.11 11 16.5 11s16.5-4.92 16.5-11a7.44 7.44 0 0 0-1.08-4.63 2.09 2.09 0 0 1-.42-1.22v-4.35c0-4.98-3.86-9.32-9.51-10.8z"/><path d="M30 29.94c0 2-2.69 3.56-6 3.56s-6-1.59-6-3.56 2.69-4.44 6-4.44 6 2.5 6 4.44z" fill="#ffe5ee"/><path d="M24 27.5a6.4 6.4 0 0 1 5.77 3.41 2.2 2.2 0 0 0 .23-1c0-2-2.69-4.44-6-4.44s-6 2.53-6 4.47a2.2 2.2 0 0 0 .23 1A6.4 6.4 0 0 1 24 27.5z" fill="#fff"/><path class="cls-3" d="M30 29.94c0 2-2.69 3.56-6 3.56s-6-1.59-6-3.56 2.69-4.44 6-4.44 6 2.5 6 4.44z"/><circle class="cls-7" cx="32" cy="22" r="1.5"/><circle class="cls-7" cx="16" cy="22" r="1.5"/><path class="cls-8" d="M38.64 28.18c0 .55-.82 1-1.82 1s-1.82-.45-1.82-1 .81-1 1.82-1 1.82.45 1.82 1z"/><path class="cls-8" d="M13 28.18c0 .55-.81 1-1.82 1s-1.82-.45-1.82-1 .82-1 1.82-1 1.82.45 1.82 1z"/><ellipse class="cls-9" cx="21.5" cy="29.75" rx="1" ry="1.25"/><ellipse class="cls-9" cx="26.5" cy="29.75" rx="1" ry="1.25"/></svg>