<svg xmlns="http://www.w3.org/2000/svg" viewBox="0 0 48 48"><defs><style>.cls-4{fill:none;stroke:#45413c;stroke-linecap:round;stroke-linejoin:round}.cls-5{fill:#ff6196}.cls-6{fill:#e0366f}</style></defs><g><ellipse cx="24" cy="44.17" rx="17.7" ry="1.83" fill="#45413c" opacity=".15"/><ellipse cx="24" cy="20.74" rx="21.67" ry="15.26" fill="#ff87af"/><path d="M24 9.15c15.43 0 20.88 5.85 21.58 13.45q.09-.92.09-1.86c0-8.43-5-15.26-21.67-15.26S2.33 12.31 2.33 20.74q0 .95.09 1.86C3.12 15 8.57 9.15 24 9.15z" fill="#ffb0ca"/><ellipse class="cls-4" cx="24" cy="20.74" rx="21.67" ry="15.26"/><ellipse class="cls-5" cx="33.04" cy="20.74" rx="4.81" ry="6.55"/><ellipse class="cls-5" cx="14.96" cy="20.74" rx="4.81" ry="6.55"/><path class="cls-6" d="M33 17.54c2.23 0 4.11 2.07 4.65 4.88a9.2 9.2 0 0 0 .16-1.68c0-3.62-2.15-6.55-4.81-6.55s-4.8 2.93-4.8 6.55a8.4 8.4 0 0 0 .16 1.68c.58-2.81 2.45-4.88 4.64-4.88z"/><path class="cls-6" d="M15 17.54c2.23 0 4.1 2.07 4.64 4.88a8.4 8.4 0 0 0 .16-1.68c0-3.62-2.15-6.55-4.8-6.55s-4.81 2.93-4.81 6.55a9.2 9.2 0 0 0 .16 1.68c.5-2.81 2.38-4.88 4.65-4.88z"/><ellipse class="cls-4" cx="33.04" cy="20.74" rx="4.81" ry="6.55"/><ellipse class="cls-4" cx="14.96" cy="20.74" rx="4.81" ry="6.55"/></g></svg>