<svg xmlns="http://www.w3.org/2000/svg" viewBox="0 0 48 48"><defs><style>.cls-1,.cls-14{fill:#fffacf}.cls-2{fill:#fffce5}.cls-3{fill:none}.cls-14,.cls-3,.cls-8,.cls-9{stroke:#45413c;stroke-linecap:round;stroke-linejoin:round}.cls-4,.cls-8{fill:#bdbec0}.cls-5{fill:#87898c}.cls-6{fill:#e5feff}.cls-7{fill:#fff}.cls-13,.cls-9{fill:#fcd}.cls-12{fill:#45413c}</style></defs><path class="cls-1" d="M28.84 6.57c0-.22 1.55-5.17 6.64-4.44s4.83 6.1 4 7.77a3.88 3.88 0 0 1-2.69 2s1.7-3.14-1.15-4.07c-1.61-.53-2.3 1.65-2.3 1.65z"/><g><path class="cls-2" d="M35.48 3.57a5.73 5.73 0 0 0-6.18 3.29l-.46-.29c0-.22 1.55-5.17 6.64-4.44 3.92.56 4.67 3.83 4.45 6.08a4.88 4.88 0 0 0-4.45-4.64z"/></g><path class="cls-3" d="M28.84 6.57c0-.22 1.55-5.17 6.64-4.44s4.83 6.1 4 7.77a3.88 3.88 0 0 1-2.69 2s1.7-3.14-1.15-4.07c-1.61-.53-2.3 1.65-2.3 1.65z"/><path class="cls-3" d="M31.59 2.85c1-.4 1.87-.81 3.45.57a4.39 4.39 0 0 1 .87 4.47"/><path class="cls-3" d="M39.39 4.81a3.33 3.33 0 0 1-.39 2.6 2.77 2.77 0 0 1-2 1.35"/><ellipse class="cls-4" cx="15.49" cy="37.55" rx="3.78" ry="9.45"/><path class="cls-5" d="M19.27 37.55c0-5.22-1.69-9.45-3.78-9.45s-3.78 4.23-3.78 9.45a21.47 21.47 0 0 0 .34 3.88 7.65 7.65 0 0 0 4.12-.31 8.93 8.93 0 0 0 2.39 1.93 20.11 20.11 0 0 0 .71-5.5z"/><ellipse class="cls-4" cx="32.51" cy="37.55" rx="3.78" ry="9.45"/><path class="cls-5" d="M28.73 37.55c0-5.22 1.69-9.45 3.78-9.45s3.78 4.23 3.78 9.45a21.47 21.47 0 0 1-.29 3.88 7.65 7.65 0 0 1-4.12-.31 8.93 8.93 0 0 1-2.39 1.93 20.11 20.11 0 0 1-.76-5.5z"/><ellipse class="cls-3" cx="15.49" cy="37.55" rx="3.78" ry="9.45"/><ellipse class="cls-3" cx="32.51" cy="37.55" rx="3.78" ry="9.45"/><path class="cls-6" d="M24 24.57a7.2 7.2 0 0 0-2.46.44 5.29 5.29 0 0 0-3.92-2.19 6.19 6.19 0 0 0-2.2-3.92 4.36 4.36 0 0 0 .05-.52 4.43 4.43 0 1 0-8.85 0 4.24 4.24 0 0 0 .2 1.24 6.17 6.17 0 0 0 0 8.1 7.56 7.56 0 0 0 9.26 11.08A10.2 10.2 0 0 0 24 42.24a10.2 10.2 0 0 0 7.92-3.44 7.56 7.56 0 0 0 9.29-11.08 6.17 6.17 0 0 0 0-8.1 4.24 4.24 0 0 0 .2-1.24 4.43 4.43 0 1 0-8.85 0 4.36 4.36 0 0 0 0 .52 6.19 6.19 0 0 0-2.2 3.92 5.29 5.29 0 0 0-3.9 2.18 7.2 7.2 0 0 0-2.46-.43z"/><g><path class="cls-7" d="M5.84 26.17a5.82 5.82 0 0 1 1-1.58 4.3 4.3 0 0 1-.2-1.25 4.43 4.43 0 1 1 8.85 0 4.36 4.36 0 0 1-.05.52 6.19 6.19 0 0 1 2.2 3.92 5.29 5.29 0 0 1 3.9 2.22 7.25 7.25 0 0 1 4.92 0 5.29 5.29 0 0 1 3.92-2.19 6.19 6.19 0 0 1 2.2-3.92 4.36 4.36 0 0 1 0-.52 4.43 4.43 0 1 1 8.85 0 4.3 4.3 0 0 1-.2 1.25 5.82 5.82 0 0 1 1 1.58 6.08 6.08 0 0 0 .55-2.48 6.17 6.17 0 0 0-1.53-4.07 4.24 4.24 0 0 0 .2-1.24 4.43 4.43 0 1 0-8.85 0 4.36 4.36 0 0 0 0 .52 6.19 6.19 0 0 0-2.2 3.92A5.29 5.29 0 0 0 26.46 25a7.1 7.1 0 0 0-4.92 0 5.29 5.29 0 0 0-3.92-2.19 6.19 6.19 0 0 0-2.2-3.92 4.36 4.36 0 0 0 .05-.52 4.43 4.43 0 1 0-8.85 0 4.24 4.24 0 0 0 .2 1.24 6.17 6.17 0 0 0-1.53 4.07 6.08 6.08 0 0 0 .55 2.49z"/></g><path class="cls-3" d="M24 24.57a7.2 7.2 0 0 0-2.46.44 5.29 5.29 0 0 0-3.92-2.19 6.19 6.19 0 0 0-2.2-3.92 4.36 4.36 0 0 0 .05-.52 4.43 4.43 0 1 0-8.85 0 4.24 4.24 0 0 0 .2 1.24 6.17 6.17 0 0 0 0 8.1 7.56 7.56 0 0 0 9.26 11.08A10.2 10.2 0 0 0 24 42.24a10.2 10.2 0 0 0 7.92-3.44 7.56 7.56 0 0 0 9.29-11.08 6.17 6.17 0 0 0 0-8.1 4.24 4.24 0 0 0 .2-1.24 4.43 4.43 0 1 0-8.85 0 4.36 4.36 0 0 0 0 .52 6.19 6.19 0 0 0-2.2 3.92 5.29 5.29 0 0 0-3.9 2.18 7.2 7.2 0 0 0-2.46-.43z"/><path class="cls-1" d="M19.16 6.57c0-.22-1.55-5.17-6.64-4.44s-4.83 6.1-4 7.77a3.88 3.88 0 0 0 2.69 2s-1.72-3.17 1.13-4.1c1.61-.53 2.3 1.65 2.3 1.65z"/><g><path class="cls-2" d="M12.52 3.57a5.73 5.73 0 0 1 6.18 3.29l.46-.29c0-.22-1.55-5.17-6.64-4.44C8.6 2.69 7.85 6 8.07 8.21a4.88 4.88 0 0 1 4.45-4.64z"/></g><path class="cls-3" d="M19.16 6.57c0-.22-1.55-5.17-6.64-4.44s-4.83 6.1-4 7.77a3.88 3.88 0 0 0 2.69 2s-1.72-3.17 1.13-4.1c1.61-.53 2.3 1.65 2.3 1.65z"/><path class="cls-8" d="M16 9.62a48.49 48.49 0 0 0-5.29 7.69c-1.55 2.77-1.84 4.44.94 6 3.94 2.26 4.3-2.42 4.88-7S16 9.62 16 9.62z"/><path class="cls-9" d="M15.15 14.49s-3.38 4-3.1 5.31a2.3 2.3 0 0 0 2.66 1.77c1.21-.11 1.77-3.54 1.77-3.54z"/><path class="cls-8" d="M32 9.62a48.49 48.49 0 0 1 5.29 7.69c1.55 2.77 1.84 4.44-.94 6-3.94 2.26-4.3-2.42-4.88-7S32 9.62 32 9.62z"/><path class="cls-9" d="M32.85 14.49s3.38 4 3.1 5.31a2.3 2.3 0 0 1-2.66 1.77c-1.21-.11-1.77-3.57-1.77-3.57z"/><ellipse cx="24" cy="46.5" rx="14.18" ry="1.5" opacity=".15" fill="#45413c"/><path class="cls-4" d="M33.64 15.82c0 8-4.58 14.45-9.64 14.45s-9.64-6.47-9.64-14.45S18.94 5.21 24 5.21s9.64 2.62 9.64 10.61z"/><path class="cls-5" d="M24 5.21c-4.86 0-9.27 2.42-9.62 9.68a5.29 5.29 0 0 0 .56 0 5 5 0 0 0 3.79-1.66A5.29 5.29 0 0 0 24 17.12a5.29 5.29 0 0 0 5.27-3.84 5 5 0 0 0 3.79 1.66 5.29 5.29 0 0 0 .56 0c-.35-7.31-4.76-9.73-9.62-9.73z"/><path class="cls-3" d="M33.64 15.82c0 8-4.58 14.45-9.64 14.45s-9.64-6.47-9.64-14.45S18.94 5.21 24 5.21s9.64 2.62 9.64 10.61z"/><path d="M26.89 25.36A3.15 3.15 0 0 1 24 27.77a3.15 3.15 0 0 1-2.89-2.41c0-.8 1.29 0 2.89 0s2.89-.8 2.89 0z" fill="#87898c" stroke="#45413c" stroke-linecap="round" stroke-linejoin="round"/><path class="cls-6" d="M24 1.92a5.31 5.31 0 0 0-5.14 4 3.74 3.74 0 0 0-2.09-.64 3.86 3.86 0 1 0 3 6.25 4.33 4.33 0 0 0 8.46 0 3.85 3.85 0 1 0 3-6.25 3.74 3.74 0 0 0-2.09.64 5.31 5.31 0 0 0-5.14-4z"/><path class="cls-7" d="M16.77 8a3.81 3.81 0 0 1 2.09.63 5.3 5.3 0 0 1 10.28 0 3.82 3.82 0 0 1 5.68 1.85 3.71 3.71 0 0 0 .26-1.37 3.85 3.85 0 0 0-3.85-3.86 3.74 3.74 0 0 0-2.09.64 5.3 5.3 0 0 0-10.28 0 3.74 3.74 0 0 0-2.09-.64 3.85 3.85 0 0 0-3.85 3.86 3.71 3.71 0 0 0 .26 1.37A3.84 3.84 0 0 1 16.77 8z"/><path class="cls-3" d="M24 1.92a5.31 5.31 0 0 0-5.14 4 3.74 3.74 0 0 0-2.09-.64 3.86 3.86 0 1 0 3 6.25 4.33 4.33 0 0 0 8.46 0 3.85 3.85 0 1 0 3-6.25 3.74 3.74 0 0 0-2.09.64 5.31 5.31 0 0 0-5.14-4z"/><path class="cls-12" d="M29.75 18.91a1.33 1.33 0 1 1-1.32-1.32 1.32 1.32 0 0 1 1.32 1.32z"/><path class="cls-12" d="M20.9 18.91a1.33 1.33 0 1 1-1.33-1.32 1.32 1.32 0 0 1 1.33 1.32z"/><path class="cls-13" d="M31.08 22.9c0 .27-.39.5-.88.5s-.89-.23-.89-.5.4-.5.89-.5.88.22.88.5z"/><path class="cls-13" d="M18.69 22.9c0 .27-.4.5-.89.5s-.88-.23-.88-.5.39-.5.88-.5.89.22.89.5z"/><path class="cls-3" d="M24 27.77v2.5"/><path class="cls-3" d="M16.41 2.85c-1-.4-1.87-.81-3.45.57a4.39 4.39 0 0 0-.87 4.47"/><path class="cls-3" d="M8.61 4.81A3.33 3.33 0 0 0 9 7.41a2.77 2.77 0 0 0 2 1.35"/><path class="cls-14" d="M15.49 43.69c-1.05 0-2-.09-2.68.51.68 1.73 1.63 2.8 2.68 2.8s2-1.07 2.69-2.8c-.69-.6-1.64-.51-2.69-.51z"/><path class="cls-3" d="M15.49 43.69V47"/><path class="cls-14" d="M32.51 43.69c-1 0-2-.09-2.69.51.69 1.73 1.64 2.8 2.69 2.8s2-1.07 2.68-2.8c-.68-.6-1.63-.51-2.68-.51z"/><path class="cls-3" d="M32.51 43.69V47"/></svg>