<svg xmlns="http://www.w3.org/2000/svg" viewBox="0 0 48 48"><defs><style>.cls-3{fill:#c0dceb}.cls-6{stroke:#4f4b45;stroke-linecap:round;stroke-linejoin:round;fill:none}</style></defs><ellipse cx="24.53" cy="36.31" rx="15.82" ry="1.69" opacity=".15" fill="#45413c"/><path d="M27.64 34c-.93.42-1.79.93-1.95 1.55-.21.84.18 1.41 3 1.41 2 0 2.75-.44 3.17-1.16a6.38 6.38 0 0 1-4.22-1.8z" stroke="#4f4b45" stroke-linecap="round" stroke-linejoin="round" fill="#c0dceb"/><path class="cls-3" d="M41.41 25.54c0-4.61-2.37-9.08-9.5-11.34s-11.3.4-14.34 0-5-3.68-9.39-3.24c-3.53.35-3.95 1.41-5.44 1.55S1.11 14 2.25 15.73c1 1.49 3.73 3.77 6.42 3.75a39.57 39.57 0 0 0 5.17 6.91c2.15 2.55 1.12 7 .88 7.44s-1.06.63-.78 1.73c.21.8 2.62.82 3.67.67.89-.13 2-2.37 2.54-5.35 4.34 1.95 6.4 1.5 6.41 1.5 1.87 4.11 7.62 4 9.58 2.13 3.77-1.16 5.27-4.94 5.27-8.97z"/><path d="M26.56 32.38a6.46 6.46 0 0 1-.5-1.71c-2 .77-4.82-.08-5.87-.27v.48c4.3 1.95 6.36 1.5 6.37 1.5z" fill="#adc4d9"/><path d="M32.11 17c4.94 2.3 6.85 2.64 9.22 7.1-.46-4.08-3-7.88-9.42-9.9-7.14-2.26-11.3.4-14.34 0a5.56 5.56 0 0 1-1.78-.54c.67 1.42 1.59 2.08 3.77 2 2.88-.1 6.92-1.28 12.55 1.34z" fill="#daedf7"/><path class="cls-6" d="M41.41 25.54c0-4.61-2.37-9.08-9.5-11.34s-11.3.4-14.34 0-5-3.68-9.39-3.24c-3.53.35-3.95 1.41-5.44 1.55S1.11 14 2.25 15.73c1 1.49 3.73 3.77 6.42 3.75a39.57 39.57 0 0 0 5.17 6.91c2.15 2.55 1.12 7 .88 7.44s-1.06.63-.78 1.73c.21.8 2.62.82 3.67.67.89-.13 2-2.37 2.54-5.35 4.34 1.95 6.4 1.5 6.41 1.5 1.87 4.11 7.62 4 9.58 2.13 3.77-1.16 5.27-4.94 5.27-8.97z"/><path class="cls-3" d="M11 11.52s3-3.91 6.64-2.83 1.21 6.07-1.94 6.87-4-1-4-1"/><path d="M16.48 10.34c1.95.57 2.16 2.26 1.46 3.84 1.75-1.81 2.35-4.7-.33-5.49C14 7.61 11 11.52 11 11.52l.1.39c1.17-1.03 3.15-2.23 5.38-1.57z" fill="#e8f4fa"/><path class="cls-6" d="M11 11.52s3-3.91 6.64-2.83 1.21 6.07-1.94 6.87-4-1-4-1"/><path class="cls-6" d="M40.36 30.76c2.91 0 5.64 1.31 5.64 4.34 0 4.47-7.79 5.62-19.18 6.2S12.63 44.06 11 45.22"/><path class="cls-6" d="M26.56 32.38c-1.43-3.26.12-6.37 1.06-6.89"/><path d="M15.24 11.12a6.33 6.33 0 0 0-3.75 2.5l.22.91c.38.82 1.7 1.6 4 1a4.07 4.07 0 0 0 1.83-1.05c2.11-1.97.63-4.1-2.3-3.36z" fill="#ffa694" stroke="#4f4b45" stroke-linecap="round" stroke-linejoin="round"/><path d="M9 13.84a.92.92 0 1 1-.92-.91.92.92 0 0 1 .92.91z" fill="#45413c"/></svg>