<svg xmlns="http://www.w3.org/2000/svg" viewBox="0 0 48 48"><defs><style>.cls-9{fill:#45413c}.cls-2{fill:#bdbec0}.cls-3{fill:#e0e0e0}.cls-4{fill:none}.cls-4,.cls-9{stroke:#45413c;stroke-linecap:round;stroke-linejoin:round}.cls-5{fill:#ffe5ee}.cls-6{fill:#fcd}.cls-7{fill:#fff}.cls-8{fill:#f0f0f0}</style></defs><ellipse cx="24" cy="45.5" rx="11.5" ry="1.5" opacity=".15" fill="#45413c"/><path class="cls-2" d="M28.83 11.85c-.49 4.21-.06 10.94 1.83 14.12 2.57-2.67 4.61-6.42 5.37-13.28a18.46 18.46 0 0 0-1.7-10.2.94.94 0 0 0-1.52-.18 18.31 18.31 0 0 0-3.98 9.54z"/><path class="cls-2" d="M19.17 11.85c.49 4.21.06 10.94-1.83 14.12-2.57-2.67-4.61-6.42-5.34-13.28a18.46 18.46 0 0 1 1.7-10.2.94.94 0 0 1 1.52-.18 18.31 18.31 0 0 1 3.95 9.54z"/><path class="cls-3" d="M28.83 14.44a18.31 18.31 0 0 1 4-9.54.94.94 0 0 1 1.52.17 17.86 17.86 0 0 1 1.76 6.73 18.27 18.27 0 0 0-1.76-9.31.94.94 0 0 0-1.52-.18 18.31 18.31 0 0 0-4 9.54 33.49 33.49 0 0 0-.16 4.82c.03-.79.08-1.54.16-2.23z"/><path class="cls-3" d="M13.67 5.07a.94.94 0 0 1 1.52-.17 18.31 18.31 0 0 1 4 9.54c.08.69.13 1.44.16 2.23a33.49 33.49 0 0 0-.16-4.82 18.31 18.31 0 0 0-4-9.54.94.94 0 0 0-1.52.18 18.27 18.27 0 0 0-1.76 9.31 17.86 17.86 0 0 1 1.76-6.73z"/><path class="cls-4" d="M28.83 11.85c-.49 4.21-.06 10.94 1.83 14.12 2.57-2.67 4.61-6.42 5.37-13.28a18.46 18.46 0 0 0-1.7-10.2.94.94 0 0 0-1.52-.18 18.31 18.31 0 0 0-3.98 9.54z"/><path class="cls-4" d="M19.17 11.85c.49 4.21.06 10.94-1.83 14.12-2.57-2.67-4.61-6.42-5.34-13.28a18.46 18.46 0 0 1 1.7-10.2.94.94 0 0 1 1.52-.18 18.31 18.31 0 0 1 3.95 9.54z"/><path class="cls-5" d="M30.66 18.53a22.17 22.17 0 0 1 .39-7.45 16.91 16.91 0 0 1 1.88-5.19.39.39 0 0 1 .72.09 21 21 0 0 1 .54 7.45 13.57 13.57 0 0 1-2 6.27z"/><path class="cls-5" d="M17.34 18.53a22.17 22.17 0 0 0-.34-7.45 16.91 16.91 0 0 0-1.88-5.19.39.39 0 0 0-.72.09 21 21 0 0 0-.54 7.45 13.57 13.57 0 0 0 2 6.27z"/><path class="cls-6" d="M31.05 14.45a17 17 0 0 1 1.88-5.19.4.4 0 0 1 .72.09 19.87 19.87 0 0 1 .58 3.52A20.92 20.92 0 0 0 33.65 6a.39.39 0 0 0-.72-.09 16.91 16.91 0 0 0-1.88 5.19 23.42 23.42 0 0 0-.47 6.71 24.25 24.25 0 0 1 .47-3.36z"/><path class="cls-6" d="M14.35 9.35a.4.4 0 0 1 .72-.09A17 17 0 0 1 17 14.45a24.25 24.25 0 0 1 .47 3.34 23.42 23.42 0 0 0-.47-6.71 16.91 16.91 0 0 0-1.88-5.19.39.39 0 0 0-.72.09 20.92 20.92 0 0 0-.58 6.89 19.87 19.87 0 0 1 .53-3.52z"/><path class="cls-4" d="M30.66 18.53a22.17 22.17 0 0 1 .39-7.45 16.91 16.91 0 0 1 1.88-5.19.39.39 0 0 1 .72.09 21 21 0 0 1 .54 7.45 13.57 13.57 0 0 1-2 6.27z"/><path class="cls-4" d="M17.34 18.53a22.17 22.17 0 0 0-.34-7.45 16.91 16.91 0 0 0-1.88-5.19.39.39 0 0 0-.72.09 21 21 0 0 0-.54 7.45 13.57 13.57 0 0 0 2 6.27z"/><path class="cls-7" d="M25.87 44.5h-3.74a.78.78 0 0 1-.78-.7l-.57-5.21h6.44l-.57 5.21a.78.78 0 0 1-.78.7z"/><path class="cls-8" d="M26.75 42.94l.47-4.35h-6.44l.47 4.35h5.5z"/><path class="cls-4" d="M25.87 44.5h-3.74a.78.78 0 0 1-.78-.7l-.57-5.21h6.44l-.57 5.21a.78.78 0 0 1-.78.7z"/><path class="cls-4" d="M24 40.19v4.31"/><path class="cls-2" d="M34.78 25.11a1 1 0 0 1-.52-.69l-.55-2.94c-.57-4-4.75-7-9.71-7s-9.14 3-9.71 7l-.55 2.94a1 1 0 0 1-.52.69A7.16 7.16 0 0 0 9.5 31.3v.55a7.53 7.53 0 0 0 7.76 7.26h2.93a3.8 3.8 0 0 0 3.81-3 3.8 3.8 0 0 0 3.81 3h2.93a7.53 7.53 0 0 0 7.76-7.26v-.55a7.16 7.16 0 0 0-3.72-6.19z"/><path class="cls-3" d="M34.78 25.11a1 1 0 0 1-.52-.69l-.55-2.94c-.57-4-4.75-7-9.71-7s-9.14 3-9.71 7l-.55 2.94a1 1 0 0 1-.52.69A7.16 7.16 0 0 0 9.5 31.3v.55a6.72 6.72 0 0 0 .14 1.35 7.28 7.28 0 0 1 3.58-4.9 1 1 0 0 0 .52-.69l.55-2.93c.57-4 4.75-7 9.71-7s9.14 3 9.71 7l.55 2.93a1 1 0 0 0 .52.69 7.28 7.28 0 0 1 3.58 4.9 6.72 6.72 0 0 0 .14-1.35v-.55a7.16 7.16 0 0 0-3.72-6.19z"/><path class="cls-4" d="M34.78 25.11a1 1 0 0 1-.52-.69l-.55-2.94c-.57-4-4.75-7-9.71-7s-9.14 3-9.71 7l-.55 2.94a1 1 0 0 1-.52.69A7.16 7.16 0 0 0 9.5 31.3v.55a7.53 7.53 0 0 0 7.76 7.26h2.93a3.8 3.8 0 0 0 3.81-3 3.8 3.8 0 0 0 3.81 3h2.93a7.53 7.53 0 0 0 7.76-7.26v-.55a7.16 7.16 0 0 0-3.72-6.19z"/><circle class="cls-9" cx="29.75" cy="27.86" r="1.36"/><circle class="cls-9" cx="18.25" cy="27.86" r="1.36"/><path class="cls-8" d="M36.64 31.26c0 .48-.73.87-1.64.87s-1.64-.39-1.64-.87.73-.87 1.64-.87 1.64.39 1.64.87z"/><path class="cls-8" d="M14.64 31.52c0 .48-.73.87-1.64.87s-1.64-.39-1.64-.87.73-.86 1.64-.86 1.64.39 1.64.86z"/><path class="cls-8" d="M26.32 30.18a1.81 1.81 0 0 1-1.32-.89 1.13 1.13 0 0 0-2 0 1.81 1.81 0 0 1-1.33.89c-4.4.69-7.68 3.25-7.68 6.32C14 40.09 18.54 43 24 41c5.5 1.88 10-.91 10-4.5 0-3.07-3.28-5.63-7.68-6.32z"/><path class="cls-7" d="M21.68 32.39a1.82 1.82 0 0 0 1.33-.9 1.13 1.13 0 0 1 2 0 1.82 1.82 0 0 0 1.33.9c3.86.6 6.86 2.64 7.54 5.21a4.48 4.48 0 0 0 .12-1.1c0-3.07-3.28-5.63-7.68-6.32a1.81 1.81 0 0 1-1.32-.89 1.13 1.13 0 0 0-2 0 1.81 1.81 0 0 1-1.33.89c-4.4.69-7.68 3.25-7.68 6.32a4.54 4.54 0 0 0 .14 1.1c.69-2.6 3.69-4.6 7.55-5.21z"/><path class="cls-4" d="M26.32 30.18a1.81 1.81 0 0 1-1.32-.89 1.13 1.13 0 0 0-2 0 1.81 1.81 0 0 1-1.33.89c-4.4.69-7.68 3.25-7.68 6.32C14 40.09 18.54 43 24 41c5.5 1.88 10-.91 10-4.5 0-3.07-3.28-5.63-7.68-6.32z"/><path d="M26.69 34.61a2.76 2.76 0 0 1-5.38 0c0-.89 1.21-1.61 2.69-1.61s2.69.72 2.69 1.61z" fill="#ff87af" stroke="#45413c" stroke-linecap="round" stroke-linejoin="round"/></svg>