<svg xmlns="http://www.w3.org/2000/svg" viewBox="0 0 48 48"><defs><style>.cls-1{fill:#debb7e}.cls-2{fill:#f0d5a8}.cls-3,.cls-9{fill:none;stroke:#45413c;stroke-linecap:round;stroke-linejoin:round}.cls-9{fill:#45413c}.cls-7{fill:#fff5e3}</style></defs><g><circle class="cls-1" cx="34.38" cy="11.09" r="6.72"/><circle class="cls-1" cx="13.62" cy="11.09" r="6.72"/><path class="cls-2" d="M34.38 7A6.72 6.72 0 0 1 41 12.42a6.52 6.52 0 0 0 .13-1.33 6.72 6.72 0 1 0-13.43 0 6.53 6.53 0 0 0 .14 1.33A6.72 6.72 0 0 1 34.38 7z"/><path class="cls-2" d="M13.62 7a6.72 6.72 0 0 1 6.58 5.38 6.53 6.53 0 0 0 .14-1.33 6.72 6.72 0 1 0-13.43 0A6.52 6.52 0 0 0 7 12.42 6.72 6.72 0 0 1 13.62 7z"/><circle class="cls-3" cx="34.38" cy="11.09" r="6.72"/><circle class="cls-3" cx="13.62" cy="11.09" r="6.72"/><ellipse cx="24" cy="45.17" rx="14.04" ry="1.83" opacity=".15" fill="#45413c"/><path class="cls-1" d="M37.91 19.63v-1.24C37.91 11.79 32.26 7 25.28 7h-2.56c-7 0-12.63 4.75-12.63 11.35v1.23a10.72 10.72 0 0 0-3.79 8.19C6.3 33.39 11.11 38 17.05 38H31c5.94 0 10.75-4.56 10.75-10.18a10.72 10.72 0 0 0-3.84-8.19z"/><path class="cls-2" d="M37.91 19.63v-1.24C37.91 11.79 32.26 7 25.28 7h-2.56c-7 0-12.63 4.75-12.63 11.35v1.23a10.72 10.72 0 0 0-3.79 8.19 9.5 9.5 0 0 0 .2 1.93 10.81 10.81 0 0 1 2.79-5.48 2.85 2.85 0 0 0 .8-2c0-6.61 5.65-11.35 12.63-11.35h2.56c7 0 12.63 4.74 12.63 11.35a2.85 2.85 0 0 0 .8 2 10.81 10.81 0 0 1 2.79 5.48 9.5 9.5 0 0 0 .2-1.93 10.72 10.72 0 0 0-3.79-8.14z"/><path class="cls-3" d="M37.91 19.63v-1.24C37.91 11.79 32.26 7 25.28 7h-2.56c-7 0-12.63 4.75-12.63 11.35v1.23a10.72 10.72 0 0 0-3.79 8.19C6.3 33.39 11.11 38 17.05 38H31c5.94 0 10.75-4.56 10.75-10.18a10.72 10.72 0 0 0-3.84-8.19z"/><ellipse cx="24" cy="37.95" rx="4.88" ry="3.05" stroke="#45413c" stroke-linecap="round" stroke-linejoin="round" fill="#f0d5a8"/><path d="M25.83 28.18h-3.66a6.11 6.11 0 0 0-6.11 6.1A4.26 4.26 0 0 0 24 36.45a4.26 4.26 0 0 0 7.94-2.17 6.11 6.11 0 0 0-6.11-6.1z" fill="#f7e5c6"/><path class="cls-7" d="M22.17 31.46h3.66a6.1 6.1 0 0 1 5.82 4.34 4.24 4.24 0 0 0 .29-1.52 6.11 6.11 0 0 0-6.11-6.1h-3.66a6.11 6.11 0 0 0-6.11 6.1 4.24 4.24 0 0 0 .29 1.52 6.1 6.1 0 0 1 5.82-4.34z"/><path class="cls-3" d="M25.83 28.18h-3.66a6.11 6.11 0 0 0-6.11 6.1A4.26 4.26 0 0 0 24 36.45a4.26 4.26 0 0 0 7.94-2.17 6.11 6.11 0 0 0-6.11-6.1z"/><path d="M27.05 30A3.13 3.13 0 0 1 21 30c0-1 1.36-1.83 3.05-1.83s3 .83 3 1.83z" fill="#87898c" stroke="#45413c" stroke-linecap="round" stroke-linejoin="round"/><circle class="cls-9" cx="31.94" cy="24.52" r="1.83"/><circle class="cls-9" cx="16.06" cy="24.52" r="1.83"/><path class="cls-7" d="M38.65 30.4c0 .55-1 1-2.22 1s-2.22-.45-2.22-1 1-1 2.22-1 2.22.45 2.22 1z"/><path class="cls-7" d="M13.79 30.4c0 .55-1 1-2.22 1s-2.22-.45-2.22-1 1-1 2.22-1 2.22.45 2.22 1z"/></g></svg>