<svg xmlns="http://www.w3.org/2000/svg" viewBox="0 0 48 48"><defs><style>.cls-1{fill:#e04122;stroke:#45413c;stroke-linecap:round;stroke-linejoin:round}</style></defs><g><g><path class="cls-1" d="M13.29 23.68a3 3 0 0 1 2.43-2.31 3.41 3.41 0 0 1 3.28.72 2.79 2.79 0 0 0 2.38.57 2.5 2.5 0 0 0 1.74-3.1 2.48 2.48 0 0 0-.5-.95l-3.16-3.72c-2-1.9-3.62-2.78-6.13-2.08s-3.58 2.5-4.17 5l-.77 4.84a2.67 2.67 0 0 0 .06 1.05 2.53 2.53 0 0 0 3.1 1.75 2.58 2.58 0 0 0 1.74-1.77z"/><ellipse class="cls-1" cx="8.58" cy="8.84" rx="2.36" ry="2.84" transform="rotate(-22.38 8.573 8.84)"/><ellipse class="cls-1" cx="4.51" cy="15.2" rx="2.36" ry="2.84" transform="rotate(-31.8 4.567 15.198)"/><ellipse class="cls-1" cx="15.33" cy="6.95" rx="2.36" ry="2.84" transform="rotate(-8.1 15.867 6.991)"/><ellipse class="cls-1" cx="22.11" cy="10.28" rx="2.84" ry="2.36" transform="rotate(-89.22 22.106 10.276)"/></g><g><path class="cls-1" d="M41.9 40.46l-2-4.46c-1.22-2.21-2.73-3.65-5.34-3.65s-4.17 1.44-5.4 3.65l-2 4.46a2.36 2.36 0 0 0-.23 1A2.52 2.52 0 0 0 29.41 44a2.58 2.58 0 0 0 2.14-1.19 3 3 0 0 1 3-1.58 3 3 0 0 1 3 1.58A2.58 2.58 0 0 0 39.61 44a2.51 2.51 0 0 0 2.51-2.51 2.35 2.35 0 0 0-.22-1.03z"/><ellipse class="cls-1" cx="31.01" cy="27.24" rx="2.36" ry="2.84" transform="rotate(-6.75 31.062 27.27)"/><ellipse class="cls-1" cx="25.37" cy="32.27" rx="2.36" ry="2.84" transform="rotate(-16.4 25.384 32.276)"/><ellipse class="cls-1" cx="38.01" cy="27.24" rx="2.84" ry="2.36" transform="rotate(-83.25 38.012 27.243)"/><ellipse class="cls-1" cx="43.65" cy="32.27" rx="2.84" ry="2.36" transform="rotate(-73.6 43.649 32.268)"/></g></g></svg>