<svg xmlns="http://www.w3.org/2000/svg" viewBox="0 0 48 48"><defs><style>.cls-1{fill:#ffe500}.cls-2{fill:#fff48c}.cls-3{fill:none}.cls-10,.cls-3{stroke:#45413c;stroke-linecap:round;stroke-linejoin:round}.cls-10{fill:#45413c}.cls-5{fill:#ebcb00}</style></defs><g><path class="cls-1" d="M18.92 22.09s-7.08-4.25-8.5-3.5.58 8.17 5 10 3.5-6.5 3.5-6.5z"/><path class="cls-2" d="M10.92 21.08c1.2-.64 6.51 2.34 8.07 3.25a17.64 17.64 0 0 0-.07-2.24s-7.08-4.25-8.5-3.5c-.63.33-.59 2 .05 3.88-.02-.71.13-1.22.45-1.39z"/><path class="cls-3" d="M18.92 22.09s-7.08-4.25-8.5-3.5.58 8.17 5 10 3.5-6.5 3.5-6.5z"/><path class="cls-1" d="M29.08 22.09s7.08-4.25 8.5-3.5-.59 8.17-5 10-3.5-6.5-3.5-6.5z"/><path class="cls-2" d="M37.08 21.08c-1.21-.64-6.52 2.34-8.07 3.25a17.64 17.64 0 0 1 .07-2.24s7.08-4.25 8.5-3.5c.63.33.58 2-.06 3.88.02-.71-.12-1.22-.44-1.39z"/><path class="cls-3" d="M29.08 22.09s7.08-4.25 8.5-3.5-.59 8.17-5 10-3.5-6.5-3.5-6.5z"/><ellipse cx="24" cy="45.5" rx="11.5" ry="1.5" opacity=".15" fill="#45413c"/><ellipse class="cls-1" cx="24" cy="31" rx="10.5" ry="12.5"/><path class="cls-5" d="M32.24 23.27a10.47 10.47 0 0 1-16.48 0A9.93 9.93 0 0 1 24 18.5a9.93 9.93 0 0 1 8.24 4.77z"/><ellipse class="cls-3" cx="24" cy="31" rx="10.5" ry="12.5"/><circle class="cls-1" cx="24" cy="13" r="10.5"/><path class="cls-2" d="M24 5.46a10.49 10.49 0 0 1 10.38 9A10.49 10.49 0 1 0 13.5 13a12.13 12.13 0 0 0 .11 1.48A10.49 10.49 0 0 1 24 5.46z"/><circle class="cls-3" cx="24" cy="13" r="10.5"/><path d="M39.07 28.57l-3.3 3.3a.86.86 0 0 1-1.21 0l-4.37-4.37a.86.86 0 0 0-1.22 0l-4.37 4.37a.86.86 0 0 1-1.21 0L19 27.5a.85.85 0 0 0-1.21 0l-4.37 4.37a.86.86 0 0 1-1.21 0l-3.31-3.3a.43.43 0 0 0-.73.32C8.9 40 15.7 45.5 24 45.5S39.1 40 39.81 28.89a.43.43 0 0 0-.74-.32z" fill="#f0f0f0"/><path d="M8.92 31.71l3.31 2.87a1 1 0 0 0 1.21 0l4.37-3.8a1 1 0 0 1 1.21 0l4.37 3.8a1 1 0 0 0 1.21 0l4.4-3.8a1 1 0 0 1 1.22 0l4.37 3.8a1 1 0 0 0 1.21 0l3.3-2.87a.46.46 0 0 1 .4-.09c.15-.87.27-1.77.34-2.73a.43.43 0 0 0-.74-.32l-3.3 3.3a.86.86 0 0 1-1.21 0l-4.4-4.37a.86.86 0 0 0-1.22 0l-4.37 4.37a.86.86 0 0 1-1.21 0L19 27.5a.85.85 0 0 0-1.21 0l-4.37 4.37a.86.86 0 0 1-1.21 0l-3.31-3.3a.43.43 0 0 0-.73.32 25.18 25.18 0 0 0 .33 2.73.45.45 0 0 1 .42.09z" fill="#fff"/><path class="cls-3" d="M39.07 28.57l-3.3 3.3a.86.86 0 0 1-1.21 0l-4.37-4.37a.86.86 0 0 0-1.22 0l-4.37 4.37a.86.86 0 0 1-1.21 0L19 27.5a.85.85 0 0 0-1.21 0l-4.37 4.37a.86.86 0 0 1-1.21 0l-3.31-3.3a.43.43 0 0 0-.73.32C8.9 40 15.7 45.5 24 45.5S39.1 40 39.81 28.89a.43.43 0 0 0-.74-.32z"/><path d="M22.83 15.12l-2 1.53a1 1 0 0 0-.25 1.35L22 20a2.49 2.49 0 0 0 4 0l1.42-2a1 1 0 0 0-.21-1.39l-2-1.53a2 2 0 0 0-2.38.04z" fill="#ff8a14"/><path d="M20.7 18.21c.21-.16 1.9-1.11 2.13-1.24a2.43 2.43 0 0 1 2.34 0c.23.13 1.92 1.08 2.13 1.24l.12-.17a1 1 0 0 0-.21-1.39l-2-1.53a2 2 0 0 0-2.34 0l-2 1.53a1 1 0 0 0-.29 1.35z" fill="#ffaa54"/><path class="cls-3" d="M22.83 15.12l-2 1.53a1 1 0 0 0-.25 1.35L22 20a2.49 2.49 0 0 0 4 0l1.42-2a1 1 0 0 0-.21-1.39l-2-1.53a2 2 0 0 0-2.38.04z"/><path class="cls-3" d="M20.39 17.46h.11a17 17 0 0 0 3.5 1 17.14 17.14 0 0 0 3.5-1h.11"/><circle class="cls-10" cx="29.35" cy="11.64" r="1.35"/><circle class="cls-10" cx="18.64" cy="11.64" r="1.35"/><path class="cls-5" d="M32.78 15.64c0 .55-.73 1-1.64 1s-1.64-.45-1.64-1 .73-1 1.64-1 1.64.45 1.64 1z"/><path class="cls-5" d="M18.5 15.64c0 .55-.74 1-1.65 1s-1.64-.45-1.64-1 .74-1 1.64-1 1.65.45 1.65 1z"/></g></svg>