<svg xmlns="http://www.w3.org/2000/svg" viewBox="0 0 48 48"><defs><style>.cls-4{fill:none;stroke:#45413c;stroke-linecap:round;stroke-linejoin:round}</style></defs><ellipse cx="26.17" cy="45.17" rx="14.04" ry="1.83" opacity=".15" fill="#45413c"/><ellipse cx="27.55" cy="21.37" rx="18.31" ry="17.93" transform="rotate(-76.8 27.547 21.371)" fill="#4aeff7"/><path d="M10.1 22a17.87 17.87 0 0 1 35.24 1.6A18.08 18.08 0 0 0 31.73 3.55 18.11 18.11 0 0 0 10.1 17.28a18.84 18.84 0 0 0-.34 6.58c.09-.6.24-1.21.34-1.86z" fill="#a6fbff"/><ellipse class="cls-4" cx="27.55" cy="21.37" rx="18.31" ry="17.93" transform="rotate(-76.8 27.547 21.371)"/><path d="M3.91 25.49s0 6.37 8 6.24c2.93-.19 4.47-7 4.47-7z" fill="#ffe500" stroke="#45413c" stroke-linecap="round" stroke-linejoin="round"/><path d="M9.82 18.47s-1.87-.19-5 2.59A6.93 6.93 0 0 0 2.19 27s6.58 1.23 9.89.27 4.25-2.52 4.25-2.52-.6-4.42-6.51-6.28z" fill="#fff48c"/><path d="M7.06 22.87c3.75-2.94 6.13-2.56 6.13-2.56l.44.16a11.29 11.29 0 0 0-3.81-2s-1.87-.19-5 2.59A6.93 6.93 0 0 0 2.19 27s.82.15 2 .31a7.32 7.32 0 0 1 2.87-4.44z" fill="#fffacf"/><path class="cls-4" d="M9.82 18.47s-1.87-.19-5 2.59A6.93 6.93 0 0 0 2.19 27s6.58 1.23 9.89.27 4.25-2.52 4.25-2.52-.6-4.42-6.51-6.28z"/><path d="M24.37 10.59c-1.4-.29-4.4 0-6.15 4.83s-1.06 7.17 1.3 7.83 11.45-.88 12.23-4c.99-4.03-2.41-7.59-7.38-8.66z" fill="#fff" stroke="#45413c" stroke-linecap="round" stroke-linejoin="round"/><path d="M25.06 17.66a1.83 1.83 0 1 1-1.37-2.21 1.83 1.83 0 0 1 1.37 2.21z" stroke="#45413c" stroke-linecap="round" stroke-linejoin="round" fill="#45413c"/><path d="M35.66 26.41c-.28.66-1.47 1.07-2.67.91s-1.93-.81-1.65-1.47 1.47-1.06 2.67-.91 1.93.82 1.65 1.47z" fill="#d9fdff"/></svg>