<svg xmlns="http://www.w3.org/2000/svg" viewBox="0 0 48 48"><defs><style>.cls-2{fill:#ffe500}.cls-2,.cls-5{stroke:#45413c;stroke-linecap:round;stroke-linejoin:round}.cls-4{fill:#4aeff7}.cls-5{fill:none}</style></defs><ellipse cx="30" cy="45.5" rx="11.5" ry="1.5" opacity=".15" fill="#45413c"/><path class="cls-2" d="M21.68 43l2-.58.8-5.61 3 .42-.8 5.61.8.56a1.13 1.13 0 0 1-1.18 1.92l-1-.65a1 1 0 0 0-.78-.11l-2.24.61a1.13 1.13 0 0 1-.6-2.17z"/><path class="cls-2" d="M30.53 44l1.79-1.11-.79-5.61 3-.42.79 5.61.92.32A1.12 1.12 0 0 1 37 44.2a1.13 1.13 0 0 1-1.36.73l-1.13-.35a1 1 0 0 0-.78.11l-2 1.2a1.13 1.13 0 0 1-1.2-1.89z"/><path d="M44.22 12.85a1 1 0 0 0-1.58.47 15.25 15.25 0 0 1-2.41 4.76A12 12 0 0 1 31 22.41a3.81 3.81 0 0 1-3.71-5.24 11.19 11.19 0 1 0-13 7 1 1 0 0 1 .74 1.05A14 14 0 1 0 43 26a9 9 0 0 0 3.52-4.95 7.14 7.14 0 0 0-2.3-8.2z" fill="#00dfeb"/><path class="cls-4" d="M27.29 21.42A3.81 3.81 0 0 0 31 26.66a12 12 0 0 0 9.23-4.33 15.25 15.25 0 0 0 2.41-4.76 1 1 0 0 1 1.58-.47 7.19 7.19 0 0 1 2.41 3.46 7.06 7.06 0 0 0-2.41-7.71 1 1 0 0 0-1.58.47 15.25 15.25 0 0 1-2.41 4.76A12 12 0 0 1 31 22.41a3.68 3.68 0 0 1-3.44-1.85c-.09.29-.17.58-.27.86z"/><path class="cls-4" d="M18.11 6.38a11.23 11.23 0 0 1 9.68 8.94 11.18 11.18 0 1 0-22.16-2.08 10.79 10.79 0 0 0 .21 2.14 11.17 11.17 0 0 1 12.27-9z"/><path class="cls-5" d="M44.22 12.85a1 1 0 0 0-1.58.47 15.25 15.25 0 0 1-2.41 4.76A12 12 0 0 1 31 22.41a3.81 3.81 0 0 1-3.71-5.24 11.19 11.19 0 1 0-13 7 1 1 0 0 1 .74 1.05A14 14 0 1 0 43 26a9 9 0 0 0 3.52-4.95 7.14 7.14 0 0 0-2.3-8.2z"/><path d="M8.57 16.19s-.05 2.25-1.18 2.94-4.22.93-4.71-1.77S7.15 14 8.57 16.19z" fill="#ebcb00" stroke="#45413c" stroke-linecap="round" stroke-linejoin="round"/><path d="M5.63 12.65a3.09 3.09 0 0 0-2.95 1.18C1.36 15.25 1.5 18 1.5 18a14.58 14.58 0 0 0 4.72-.59 15.22 15.22 0 0 0 2.35-1.17s-1.08-2.85-2.94-3.59z" fill="#ffe500"/><path d="M7.61 14.42a4.7 4.7 0 0 0-2-1.77 3.09 3.09 0 0 0-2.95 1.18 6.22 6.22 0 0 0-1.18 3.9c.9-1.82 3.28-3.16 6.13-3.31z" fill="#fff48c"/><path class="cls-5" d="M5.63 12.65a3.09 3.09 0 0 0-2.95 1.18C1.36 15.25 1.5 18 1.5 18a14.58 14.58 0 0 0 4.72-.59 15.22 15.22 0 0 0 2.35-1.17s-1.08-2.85-2.94-3.59z"/><path class="cls-5" d="M21.5 28.05s1 9 8 10c4.81.68 5.77-3.63 6-5.58a1 1 0 0 0-.76-1.06A6.24 6.24 0 0 1 32 30.05"/><path d="M16.18 11.88a1.77 1.77 0 1 1-1.32-2.13 1.78 1.78 0 0 1 1.32 2.13z" fill="#45413c"/><path d="M20.89 15.1c-.22.53-1.17.87-2.12.74s-1.54-.66-1.32-1.2 1.17-.87 2.12-.74 1.54.66 1.32 1.2z" fill="#d9fdff"/></svg>