<svg xmlns="http://www.w3.org/2000/svg" viewBox="0 0 48 48"><defs><style>.cls-3,.cls-6{fill:none;stroke:#45413c;stroke-linecap:round;stroke-linejoin:round}.cls-6{fill:#45413c}.cls-7{fill:#ffaa54}</style></defs><g><circle cx="24" cy="22.01" r="18.49" fill="#656769"/><path d="M24 7.22a18.5 18.5 0 0 1 18.4 16.64c.06-.61.09-1.23.09-1.85a18.49 18.49 0 0 0-37 0c0 .62 0 1.24.09 1.85A18.5 18.5 0 0 1 24 7.22z" fill="#87898c"/><circle class="cls-3" cx="24" cy="22.01" r="18.49"/><path d="M39 32.78a18.49 18.49 0 0 1-30 0 22.06 22.06 0 0 1-.83-6c0-7.59 3.66-13.21 8.19-13.21 3.52 0 6.47 1.46 7.66 5.81 1.19-4.29 4.15-5.81 7.66-5.81 4.52 0 8.18 5.62 8.18 13.21a21.62 21.62 0 0 1-.86 6z" fill="#fff" stroke="#45413c" stroke-linecap="round" stroke-linejoin="round"/><ellipse cx="24" cy="45.42" rx="12.15" ry="1.58" opacity=".15" fill="#45413c"/><circle class="cls-6" cx="32.45" cy="21.48" r="1.58"/><circle class="cls-6" cx="15.55" cy="21.48" r="1.58"/><path class="cls-7" d="M38.41 27.1c0 .55-.86 1-1.92 1s-1.92-.45-1.92-1 .86-1 1.92-1 1.92.45 1.92 1z"/><path class="cls-7" d="M13.43 27.1c0 .55-.86 1-1.92 1s-1.92-.45-1.92-1 .86-1 1.92-1 1.92.45 1.92 1z"/><path d="M28.23 30.36a4.23 4.23 0 1 1-8.46 0 6.48 6.48 0 0 1 8.46 0z" fill="#ebcb00" stroke="#45413c" stroke-linecap="round" stroke-linejoin="round"/><path d="M28.37 30.3a1.05 1.05 0 0 0 .37-.85c-.2-3-2.25-5.33-4.74-5.33s-4.54 2.35-4.74 5.33a1.05 1.05 0 0 0 .37.85A6.86 6.86 0 0 0 24 32.05a6.86 6.86 0 0 0 4.37-1.75z" fill="#ffe500"/><path d="M19.64 30.31A4.83 4.83 0 0 1 24 26.77a4.83 4.83 0 0 1 4.36 3.54 1.05 1.05 0 0 0 .37-.85c-.2-3-2.25-5.33-4.74-5.33s-4.54 2.35-4.74 5.33a1.05 1.05 0 0 0 .37.85z" fill="#fff48c"/><path class="cls-3" d="M28.37 30.3a1.05 1.05 0 0 0 .37-.85c-.2-3-2.25-5.33-4.74-5.33s-4.54 2.35-4.74 5.33a1.05 1.05 0 0 0 .37.85A6.86 6.86 0 0 0 24 32.05a6.86 6.86 0 0 0 4.37-1.75z"/></g></svg>