<svg xmlns="http://www.w3.org/2000/svg" viewBox="0 0 48 48"><defs><style>.cls-3{fill:#c8ffa1}.cls-5{stroke:#45413c;stroke-linecap:round;stroke-linejoin:round}.cls-4{fill:#e4ffd1}.cls-5{fill:none}</style></defs><path d="M42 33s2.94.69 4.5 0a4.59 4.59 0 0 1-5 3.5c-2.25-.13.5-3.5.5-3.5z" stroke="#45413c" stroke-linecap="round" stroke-linejoin="round" fill="#c8ffa1"/><ellipse cx="26" cy="42.5" rx="19" ry="1.5" opacity=".15" fill="#45413c"/><path class="cls-3" d="M17.5 23.5A7.5 7.5 0 0 0 10 16c-4.14 0-8.5 4.36-8.5 8.5S5.86 31 10 31h.5a7 7 0 0 0 7 7z"/><path class="cls-4" d="M10.08 18.82a7.51 7.51 0 0 1 7.42 6.38v-1.7A7.5 7.5 0 0 0 10 16c-4.14 0-8.5 4.36-8.5 8.5a5.58 5.58 0 0 0 .22 1.55c.76-3.72 4.65-7.23 8.36-7.23z"/><path class="cls-5" d="M17.5 23.5A7.5 7.5 0 0 0 10 16c-4.14 0-8.5 4.36-8.5 8.5S5.86 31 10 31h.5a7 7 0 0 0 7 7z"/><path d="M41.58 37.31a17.59 17.59 0 0 0 .42-4.85c-.44-7.53-5.87-13.63-12.41-13.95C22.13 18.15 16 25 16 33.5a17.58 17.58 0 0 0 .42 3.81 1.1 1.1 0 0 0 .79.84c14.44 3.49 24.58-.24 23.58 0a1.1 1.1 0 0 0 .79-.84z" fill="#ebcb00" stroke="#45413c" stroke-linecap="round" stroke-linejoin="round"/><path d="M42 34.1v-1.64c-.44-7.53-5.87-13.63-12.41-13.95C22.13 18.15 16 25 16 33.5v.15c2.16 1.18 6.43 2.85 13.43 2.85A29.16 29.16 0 0 0 42 34.1z" fill="#46b000"/><path d="M16.32 33.82c1.35-6.89 6.8-12 13.24-11.68 6 .29 11 5.43 12.18 12.07l.26-.11v-1.64c-.44-7.53-5.87-13.63-12.41-13.95C22.13 18.15 16 25 16 33.5v.15z" fill="#6dd627"/><path class="cls-5" d="M42 34.1v-1.64c-.44-7.53-5.87-13.63-12.41-13.95C22.13 18.15 16 25 16 33.5v.15c2.16 1.18 6.43 2.85 13.43 2.85A29.16 29.16 0 0 0 42 34.1z"/><path class="cls-3" d="M19 31.5a4 4 0 0 0-4 4l-.42 5.42a1 1 0 0 0 1 1.08h6a1 1 0 0 0 1-.92L23 35.5a4 4 0 0 0-4-4z"/><path class="cls-4" d="M18.79 34.61a4.13 4.13 0 0 1 4 3.23L23 35.5a4 4 0 0 0-8 0l-.16 2a4.13 4.13 0 0 1 3.95-2.89z"/><path class="cls-3" d="M43.42 40.92L43 35.5a4 4 0 0 0-8 0l.43 5.58a1 1 0 0 0 1 .92h6a1 1 0 0 0 .99-1.08z"/><path class="cls-4" d="M39.21 34.61a4.13 4.13 0 0 0-4 3.23L35 35.5a4 4 0 0 1 8 0l.16 2a4.13 4.13 0 0 0-3.95-2.89z"/><path class="cls-5" d="M19 31.5a4 4 0 0 0-4 4l-.42 5.42a1 1 0 0 0 1 1.08h6a1 1 0 0 0 1-.92L23 35.5a4 4 0 0 0-4-4zM43.42 40.92L43 35.5a4 4 0 0 0-8 0l.43 5.58a1 1 0 0 0 1 .92h6a1 1 0 0 0 .99-1.08z"/><circle cx="9.58" cy="21.42" r="1.08" fill="#45413c" stroke="#45413c" stroke-linecap="round" stroke-linejoin="round"/><path d="M14.5 25.31A1.32 1.32 0 1 1 13.19 24a1.32 1.32 0 0 1 1.31 1.31z" fill="#9ceb60"/><path class="cls-5" d="M3.83 29s4 .59 5.17-2.53"/><path class="cls-5" d="M20.93 21.74s2.32 3.82 3.57 3.88 2.69-1.94 4.5-1.94 3.75 3 4.88 2.82 4.44-3.41 4.44-3.41"/><path class="cls-5" d="M29 23.68v-5.17"/><path class="cls-5" d="M24.5 25.62A16.9 16.9 0 0 0 22.11 33"/><path class="cls-5" d="M33.88 26.5a19.32 19.32 0 0 1 1.88 6.66"/><path class="cls-5" d="M22.66 33.88a37.94 37.94 0 0 0 12.6.2"/></svg>