<svg xmlns="http://www.w3.org/2000/svg" viewBox="0 0 48 48"><defs><style>.cls-3{fill:#80ddff}.cls-4{fill:none;stroke:#45413c;stroke-linecap:round;stroke-linejoin:round}.cls-7{fill:#4aeff7}.cls-8{fill:#a6fbff}</style></defs><g><ellipse cx="24" cy="45.32" rx="15.12" ry="1.68" opacity=".15" fill="#45413c"/><path d="M45 18.71a.52.52 0 0 0-.55-.28 7.38 7.38 0 0 0-5.26 3.94 7.18 7.18 0 0 0-.56 1.5 7.94 7.94 0 0 0-.85-.78 7.35 7.35 0 0 0-6.45-1.27.51.51 0 0 0-.37.48 7.39 7.39 0 0 0 7.15 7.44c-.14 1.2-.94 2.73-4 2.94-4 .28-4.23-4.48-5.86-7.85a12 12 0 0 0-10.41-7.36c-6.62-.36-12.74 4.68-13.1 11.3s2.7 12 10.79 14c11.46 2.88 21.12.35 24.78-5.12 2.92-4.36 1.41-7.73.76-8.83a7.36 7.36 0 0 0 4-10.1z" fill="#4acfff"/><g><path class="cls-3" d="M39.16 25.31a7.38 7.38 0 0 1 5.29-4 .5.5 0 0 1 .54.28 7.22 7.22 0 0 1 .61 1.8 7.33 7.33 0 0 0-.6-4.69.52.52 0 0 0-.55-.28 7.35 7.35 0 0 0-5.26 3.94 7.18 7.18 0 0 0-.56 1.5 7.94 7.94 0 0 0-.85-.78 7.35 7.35 0 0 0-6.45-1.27.51.51 0 0 0-.37.48 7.32 7.32 0 0 0 .38 2.41 7.28 7.28 0 0 1 6.13 1.06 1.15 1.15 0 0 0 1.69-.45z"/><path class="cls-3" d="M17.81 20.36a12 12 0 0 1 10.41 7.36c1.63 3.38 2.3 6.5 6.34 6.22 3.09-.21 3.41-3 3.55-4.2-.14 1.2-.94 2.73-4 2.94-4 .28-4.23-4.48-5.86-7.85a12 12 0 0 0-10.41-7.36c-6.62-.36-12.74 4.68-13.1 11.3a20.07 20.07 0 0 0 0 2.46c.6-6.4 6.59-11.23 13.07-10.87z"/></g><path class="cls-4" d="M45 18.71a.52.52 0 0 0-.55-.28 7.38 7.38 0 0 0-5.26 3.94 7.18 7.18 0 0 0-.56 1.5 7.94 7.94 0 0 0-.85-.78 7.35 7.35 0 0 0-6.45-1.27.51.51 0 0 0-.37.48 7.39 7.39 0 0 0 7.15 7.44c-.14 1.2-.94 2.73-4 2.94-4 .28-4.23-4.48-5.86-7.85a12 12 0 0 0-10.41-7.36c-6.62-.36-12.74 4.68-13.1 11.3s2.7 12 10.79 14c11.46 2.88 21.12.35 24.78-5.12 2.92-4.36 1.41-7.73.76-8.83a7.36 7.36 0 0 0 4-10.1z"/><path d="M13.59 26.94a1.38 1.38 0 1 1-1.3-1.45 1.38 1.38 0 0 1 1.3 1.45z" stroke="#45413c" stroke-linecap="round" stroke-linejoin="round" fill="#45413c"/><path d="M20 30.71c-.05.55-.84 1-1.76.94s-1.64-.5-1.59-1 .84-1 1.77-1 1.66.51 1.58 1.06z" fill="#ffaa54"/><path class="cls-7" d="M17.93 15.16s-1.24-4.07-4.82-4.88-5.32 1.48-7.78-1.35 1.57-7 6.29-5.2c3.85 1.48 6.66 4.9 6.31 11.43z"/><path class="cls-7" d="M19.84 10s.05-5 2.52-6.84 5.79-.31 5.8 1.93-2.31 2.28-4.43 2.41c-2.33.14-3.89 2.5-3.89 2.5z"/><path class="cls-8" d="M11.62 3.73C7.37 2.09 3.67 5.32 4.78 8.05c.91-1.85 3.66-3.19 6.71-2 3.25 1.25 5.76 3.9 6.25 8.63.13.31.19.5.19.5.35-6.55-2.46-9.97-6.31-11.45z"/><path class="cls-8" d="M20 9.75a7.11 7.11 0 0 1 2.22-4.31 3.77 3.77 0 0 1 5.55.91 2.08 2.08 0 0 0 .38-1.29c0-2.24-3.33-3.76-5.8-1.93S19.84 10 19.84 10z"/><path class="cls-4" d="M17.93 15.16s-1.24-4.07-4.82-4.88-5.32 1.48-7.78-1.35 1.57-7 6.29-5.2c3.85 1.48 6.66 4.9 6.31 11.43z"/><path class="cls-4" d="M19.84 10s.05-5 2.52-6.84 5.79-.31 5.8 1.93-2.31 2.28-4.43 2.41c-2.33.14-3.89 2.5-3.89 2.5z"/><path d="M39.41 38.76c-7.53 3.65-15.79-.67-22.15-2.83-1.58-.54-3.17-1-4.69-1.47a11.5 11.5 0 0 1-6.64 1.31c1.55 3.26 4.62 5.75 9.57 7 10.65 2.67 19.74.67 23.91-4.01z" fill="#fff" stroke="#45413c" stroke-linecap="round" stroke-linejoin="round"/><path class="cls-4" d="M9.52 35.58c1.52 2.23 6.22 3.88 8.88 4.61a74.78 74.78 0 0 0 16 2"/><path d="M20.5 35.88a7.16 7.16 0 0 0 1 6.32c1.62 2.49 4.77 3.29 6.33 3.54a.8.8 0 0 0 .94-.78c0-2.13-.21-7.47-2-9.27" stroke="#45413c" stroke-linecap="round" stroke-linejoin="round" fill="#4acfff"/><path class="cls-4" d="M14.53 31a1.8 1.8 0 0 0 2 2.59"/><path class="cls-4" d="M12.57 34.46a9.76 9.76 0 0 0 2.08-1.59"/></g></svg>