<svg xmlns="http://www.w3.org/2000/svg" viewBox="0 0 48 48"><defs><style>.cls-3{fill:#4acfff}.cls-4,.cls-5{fill:none;stroke:#45413c;stroke-linecap:round;stroke-linejoin:round}.cls-5{fill:#fff}.cls-9{fill:#00dfeb}.cls-10{fill:#4aeff7}</style></defs><g><ellipse cx="22" cy="45.5" rx="11.5" ry="1.5" opacity=".15" fill="#45413c"/><path d="M36.94 19.27A16.27 16.27 0 0 0 30.32 8.1c1.37-4.81 3.9-5.34 1.46-6.42-2.08-.93-6.27 2-8.32 3.55-.31-.05-.62-.11-.93-.14A17 17 0 0 0 20.79 5C13.62 5 8.51 9.23 7.2 14c-2.81 1.25-6.12 4.46-4.9 6.42s3.8 1.47 6.92 1.29c2.07 1.21 4 .83 8.57 1.28 6.53.64 7.48 4.2 7.7 6a8.18 8.18 0 0 1-1.56 5.62c-.63-.92-2-2.63-4-2.56h-3.57a.5.5 0 0 0-.47.68c.6 1.59 2.32 5.35 5.1 5.27-.69 4 3.83 6.33 5.56 7a.49.49 0 0 0 .69-.42c0-.65.15-1.81.4-3.6.34-2.51-.61-3.76-1.58-4.39a16.26 16.26 0 0 0 10.88-17.32z" fill="#00b8f0"/><path class="cls-3" d="M37 20c0-.24 0-.48-.05-.72A16.27 16.27 0 0 0 30.32 8.1a14.13 14.13 0 0 1 0 4.09c1.79.61 6.1 4.38 6.68 7.81z"/><g><path class="cls-3" d="M8 16.91c1.31-4.76 6.42-9 13.59-9a17 17 0 0 1 1.69.09c.31 0 .62.09.93.14 1.86-1.43 5.49-3.95 7.7-3.71.93-1.58 1.46-2.06-.13-2.76-2.08-.93-6.27 2-8.32 3.55-.31-.05-.62-.11-.93-.14A17 17 0 0 0 20.79 5C13.62 5 8.51 9.23 7.2 14c-2.81 1.25-6.12 4.46-4.9 6.42a2.59 2.59 0 0 0 .79.79A10.53 10.53 0 0 1 8 16.91z"/></g><path class="cls-4" d="M36.94 19.27A16.27 16.27 0 0 0 30.32 8.1c1.37-4.81 3.9-5.34 1.46-6.42-2.08-.93-6.27 2-8.32 3.55-.31-.05-.62-.11-.93-.14A17 17 0 0 0 20.79 5C13.62 5 8.51 9.23 7.2 14c-2.81 1.25-6.12 4.46-4.9 6.42s3.8 1.47 6.92 1.29c2.07 1.21 4 .83 8.57 1.28 6.53.64 7.48 4.2 7.7 6a8.18 8.18 0 0 1-1.56 5.62c-.63-.92-2-2.63-4-2.56h-3.57a.5.5 0 0 0-.47.68c.6 1.59 2.32 5.35 5.1 5.27-.69 4 3.83 6.33 5.56 7a.49.49 0 0 0 .69-.42c0-.65.15-1.81.4-3.6.34-2.51-.61-3.76-1.58-4.39a16.26 16.26 0 0 0 10.88-17.32z"/><path class="cls-5" d="M23.3 21.5c-4.67-1.42-10.08 0-13.5-2.5-2.31 1.23-5.79.88-7.72.64a1.43 1.43 0 0 0 .22.77c1.14 1.85 3.8 1.47 6.92 1.29 2.07 1.21 4 .83 8.57 1.28 6.53.64 7.48 4.2 7.7 6a8.18 8.18 0 0 1-1.56 5.62c-.63-.92-2-2.63-4-2.56h-3.57a.5.5 0 0 0-.47.68c.6 1.59 2.32 5.35 5.1 5.27-.69 4 3.83 6.33 5.56 7a.49.49 0 0 0 .69-.42c0-.65.15-1.81.4-3.6.34-2.51-.61-3.76-1.58-4.39a16.43 16.43 0 0 0 1.83-.77A9.55 9.55 0 0 0 29.8 32c1.12-4.86-1.8-9.08-6.5-10.5z"/><path d="M20.8 18.5a6.09 6.09 0 0 0-2.5 6 7.16 7.16 0 0 0 3.1 4.69 1.28 1.28 0 0 0 1.9-.9 4.73 4.73 0 0 1 1-2.29c1.44-1.75 1.5-6 1.5-6" stroke="#45413c" stroke-linecap="round" stroke-linejoin="round" fill="#00b8f0"/><path d="M14.29 14.06a1 1 0 1 1-.94-1.06 1 1 0 0 1 .94 1.06z" stroke="#45413c" stroke-linecap="round" stroke-linejoin="round" fill="#45413c"/><path d="M16.3 17.55a1 1 0 1 1-1-1.05 1 1 0 0 1 1 1.05z" fill="#b8ecff"/><path class="cls-5" d="M23.93 34.6a13 13 0 0 1-1.34 1.86"/><path class="cls-9" d="M34.8 37.94s1.86-5.5 5.65-8.62 6.88-.09 5.63 2.56-6.57.24-11.28 6.06z"/><path class="cls-10" d="M37.39 35.52A15.73 15.73 0 0 1 40.45 32c2.55-2 4.7-1.4 5.55 0 0-.05.06-.08.09-.14 1.25-2.65-1.84-5.67-5.63-2.56s-5.65 8.62-5.65 8.62a12 12 0 0 1 2.58-2.4z"/><path class="cls-4" d="M34.8 37.94s1.86-5.5 5.65-8.62 6.88-.09 5.63 2.56-6.57.24-11.28 6.06z"/><path class="cls-9" d="M16.3 44s-2.25-6.58-6.5-8c-3.68-1.23-6.19 2-4 4.5 2.75 3.08 7.33-.17 10.5 3.5z"/><path class="cls-10" d="M9.8 38.59a9.37 9.37 0 0 1 4.47 3.95 5.05 5.05 0 0 1 2 1.46s-2.25-6.58-6.5-8c-3.36-1.12-5.72 1.51-4.46 3.84.74-1.21 2.43-1.93 4.49-1.25z"/><path class="cls-4" d="M16.3 44s-2.25-6.58-6.5-8c-3.68-1.23-6.19 2-4 4.5 2.75 3.08 7.33-.17 10.5 3.5z"/><path class="cls-9" d="M34.3 43s1.75-3.67 4.5-3.5 2 3.46-.5 3a10 10 0 0 0-4 .5z"/><path class="cls-10" d="M38.8 41a1.88 1.88 0 0 1 1.53.74c.51-.86.13-2.11-1.53-2.21-2.75-.17-4.5 3.5-4.5 3.5a11.82 11.82 0 0 1 1.2-.32A4.19 4.19 0 0 1 38.8 41z"/><path class="cls-4" d="M34.3 43s1.75-3.67 4.5-3.5 2 3.46-.5 3a10 10 0 0 0-4 .5z"/></g></svg>