<svg xmlns="http://www.w3.org/2000/svg" viewBox="0 0 48 48"><defs><style>.cls-3{fill:#a6fbff}.cls-4{fill:none}.cls-11,.cls-4{stroke:#45413c;stroke-linecap:round;stroke-linejoin:round}.cls-11,.cls-7{fill:#ffe500}.cls-8{fill:#fff48c}</style></defs><g><ellipse cx="24" cy="45.5" rx="11.5" ry="1.5" opacity=".15" fill="#45413c"/><path d="M35 28.83c-.33-3.41 4-5.5 4-5.5v-5s-6.8-2.19-7-7c-.17-4.08 6.08-5.75 11.22-7a.5.5 0 0 0-.13-1C37.7 3.39 28.39 4 21 6.83A20.94 20.94 0 0 0 10.14 16a11.24 11.24 0 0 1-5.81 5l-1.68.61a1 1 0 0 0-.65.94v1a1 1 0 0 0 .79 1l1.52.32a12.46 12.46 0 0 1 7.25 4.67A15.15 15.15 0 0 0 22 35.33a42.49 42.49 0 0 0 16.14-1.57.49.49 0 0 0 .08-.92A5.24 5.24 0 0 1 35 28.83z" fill="#4aeff7"/><g><path class="cls-3" d="M2.79 24.5l1.52.32.36.09a11.18 11.18 0 0 0 5.47-4.8A20.93 20.93 0 0 1 21 10.92 54.32 54.32 0 0 1 33.66 8c2.18-1.83 6.12-2.87 9.56-3.74a.5.5 0 0 0-.13-1C37.7 3.39 28.39 4 21 6.83A20.94 20.94 0 0 0 10.14 16a11.28 11.28 0 0 1-5.81 5l-1.68.61a1 1 0 0 0-.65.94v1a1 1 0 0 0 .79.95z"/><path class="cls-3" d="M32.53 13.37a3.6 3.6 0 0 0-.53 2.05c.2 4.8 7 7 7 7v-4.09s-4.85-1.57-6.47-4.96z"/></g><path class="cls-4" d="M35 28.83c-.33-3.41 4-5.5 4-5.5v-5s-6.8-2.19-7-7c-.17-4.08 6.08-5.75 11.22-7a.5.5 0 0 0-.13-1C37.7 3.39 28.39 4 21 6.83A20.94 20.94 0 0 0 10.14 16a11.24 11.24 0 0 1-5.81 5l-1.68.61a1 1 0 0 0-.65.94v1a1 1 0 0 0 .79 1l1.52.32a12.46 12.46 0 0 1 7.25 4.67A15.15 15.15 0 0 0 22 35.33a42.49 42.49 0 0 0 16.14-1.57.49.49 0 0 0 .08-.92A5.24 5.24 0 0 1 35 28.83z"/><path d="M30.9 35.25a36.64 36.64 0 0 1-2.4-13.92 55.73 55.73 0 0 1 2.6-17c-1.43.23-2.88.5-4.31.82a61 61 0 0 0-2.29 16.18 49.57 49.57 0 0 0 2.14 14.23 40.61 40.61 0 0 0 4.26-.31z" fill="#f0f0f0"/><g><path d="M31.1 4.29c-.36 1.09-.78 2.54-1.17 4.28-1.4.24-2.8.53-4.19.88.36-1.76.73-3.23 1-4.34 1.48-.33 2.93-.6 4.36-.82z" fill="#fff"/></g><path class="cls-4" d="M30.9 35.25a36.64 36.64 0 0 1-2.4-13.92 55.73 55.73 0 0 1 2.6-17c-1.43.23-2.88.5-4.31.82a61 61 0 0 0-2.29 16.18 49.57 49.57 0 0 0 2.14 14.23 40.61 40.61 0 0 0 4.26-.31z"/><path class="cls-7" d="M21.5 34.33a42.72 42.72 0 0 1-1-15c.32-4.5.86-9.45 2.53-13.18-.69.22-1.37.43-2 .68a21.65 21.65 0 0 0-5.15 2.82 53.18 53.18 0 0 0-1.38 12.18c0 10 2 15.16 6 18a13.32 13.32 0 0 0 5.85 2.49.5.5 0 0 0 .33-.92 11.09 11.09 0 0 1-5.18-7.07z"/><g><path class="cls-8" d="M23 6.13a23.26 23.26 0 0 0-1.4 4.57l-.6.22a21.44 21.44 0 0 0-6 3.47 46.94 46.94 0 0 1 .87-4.76A21.19 21.19 0 0 1 21 6.84c.66-.25 1.34-.49 2-.71z"/></g><path class="cls-4" d="M21.5 34.33a42.72 42.72 0 0 1-1-15c.32-4.5.86-9.45 2.53-13.18-.69.22-1.37.43-2 .68a21.65 21.65 0 0 0-5.15 2.82 53.18 53.18 0 0 0-1.38 12.18c0 10 2 15.16 6 18a13.32 13.32 0 0 0 5.85 2.49.5.5 0 0 0 .33-.92 11.09 11.09 0 0 1-5.18-7.07z"/><path class="cls-7" d="M39 18.33c1.92.42 3.83-3.58 5-4s2 2.34 2 6c0 2.75-.25 6.09-1.5 6-1.52-.1-2.67-4.33-5.5-3z"/><path class="cls-8" d="M45.3 16.44a1.08 1.08 0 0 1 .3 0c-.35-1.47-.92-2.31-1.6-2.07-1.17.42-3.08 4.42-5 4v2.11c2.42.37 4.83-3.63 6.3-4.04z"/><path class="cls-4" d="M39 18.33c1.92.42 3.83-3.58 5-4s2 2.34 2 6c0 2.75-.25 6.09-1.5 6-1.52-.1-2.67-4.33-5.5-3z"/><circle cx="12.08" cy="20.25" r="1.08" fill="#45413c"/><path d="M18.25 24.24a1.32 1.32 0 1 1-1.31-1.32 1.31 1.31 0 0 1 1.31 1.32z" fill="#fffacf"/><path class="cls-11" d="M42 19.33A7.38 7.38 0 0 0 45.88 18"/><path class="cls-11" d="M42 21.33s2.85 0 3.92 1.43"/></g></svg>