<svg xmlns="http://www.w3.org/2000/svg" viewBox="0 0 48 48"><defs><style>.cls-1{fill:#fff}.cls-1,.cls-4,.cls-6,.cls-8{stroke:#45413c;stroke-linecap:round;stroke-linejoin:round}.cls-2{fill:#ffaa54}.cls-3{fill:#fc9}.cls-4{fill:none}.cls-7{fill:#eb6d00}.cls-6{fill:#45413c}.cls-8{fill:#ff8a14}</style></defs><g><circle class="cls-1" cx="39.85" cy="2.44" r="1.94"/><circle class="cls-1" cx="9.33" cy="7.67" r="1.94"/><circle class="cls-1" cx="42.9" cy="10.61" r="1.11"/><circle class="cls-1" cx="7.39" cy="17.41" r="1.11"/><path class="cls-2" d="M31.4 32.17s3.13 1.11 5.53 0a6 6 0 0 0 3.32-5c.19-1.62 2.49-2.31 3.32 0a8.3 8.3 0 0 1-3.32 9.41 13.17 13.17 0 0 1-12.17.55c-2.95-1.5 3.32-4.96 3.32-4.96z"/><path class="cls-2" d="M16.6 32.17s-3.13 1.11-5.53 0a6 6 0 0 1-3.32-5c-.19-1.62-2.49-2.31-3.32 0a8.3 8.3 0 0 0 3.32 9.43 13.17 13.17 0 0 0 12.17.55c2.95-1.52-3.32-4.98-3.32-4.98z"/><path class="cls-3" d="M28.08 37.15l.4.19a17.31 17.31 0 0 1 2.92-2.06s3.13 1.1 5.53 0a6 6 0 0 0 3.32-5c.19-1.62 2.49-2.31 3.32 0a5.49 5.49 0 0 1 .24.89 7.94 7.94 0 0 0-.24-4c-.83-2.31-3.13-1.62-3.32 0a6 6 0 0 1-3.32 5c-2.4 1.11-5.53 0-5.53 0s-6.27 3.46-3.32 4.98z"/><path class="cls-3" d="M4.43 30.3c.83-2.31 3.13-1.62 3.32 0a6 6 0 0 0 3.32 5c2.4 1.1 5.53 0 5.53 0a17.31 17.31 0 0 1 2.92 2.06l.4-.19c2.95-1.52-3.32-5-3.32-5s-3.13 1.11-5.53 0a6 6 0 0 1-3.32-5c-.19-1.62-2.49-2.31-3.32 0a7.94 7.94 0 0 0-.24 4 5.49 5.49 0 0 1 .24-.87z"/><path class="cls-4" d="M31.4 32.17s3.13 1.11 5.53 0a6 6 0 0 0 3.32-5c.19-1.62 2.49-2.31 3.32 0a8.3 8.3 0 0 1-3.32 9.41 13.17 13.17 0 0 1-12.17.55c-2.95-1.5 3.32-4.96 3.32-4.96z"/><path class="cls-4" d="M16.6 32.17s-3.13 1.11-5.53 0a6 6 0 0 1-3.32-5c-.19-1.62-2.49-2.31-3.32 0a8.3 8.3 0 0 0 3.32 9.43 13.17 13.17 0 0 0 12.17.55c2.95-1.52-3.32-4.98-3.32-4.98z"/><path class="cls-2" d="M36.73 26.81a12.73 12.73 0 0 1-25.46 0C11.27 18.1 17 13 24 13s12.73 5.1 12.73 13.81z"/><path class="cls-3" d="M24 17.41c6.35 0 11.59 4.18 12.56 11.41a13.29 13.29 0 0 0 .17-2C36.73 18.1 31 13 24 13s-12.73 5.1-12.73 13.81a13.29 13.29 0 0 0 .17 2c.97-7.22 6.21-11.4 12.56-11.4z"/><path class="cls-4" d="M36.73 26.81a12.73 12.73 0 0 1-25.46 0C11.27 18.1 17 13 24 13s12.73 5.1 12.73 13.81z"/><path d="M30.64 33.46c-2-.24-3.18 2.21-6.64 2.21s-4.61-2.45-6.64-2.21a4.11 4.11 0 0 0-2.72 2 12.73 12.73 0 0 0 18.72 0 4.11 4.11 0 0 0-2.72-2z" fill="#eb6d00" stroke="#45413c" stroke-linecap="round" stroke-linejoin="round"/><path class="cls-2" d="M22.43 39.17s-.95 4.25-7.21 4.25-8.74-4.11-8.92-6.37 2.38-3.93 4.24-1.7c2.69 3.22 4.89 2.83 6.37.85s5.52 2.97 5.52 2.97z"/><path class="cls-3" d="M6.33 37.29l.33.17c5.43 3.22 9.85 2.83 12.85.85a3.24 3.24 0 0 1 1.72-.45c-1.31-1.31-3.35-3-4.32-1.66-1.48 2-3.68 2.37-6.37-.85-1.86-2.23-4.42-.57-4.24 1.7a2.24 2.24 0 0 0 .03.24z"/><path class="cls-4" d="M22.43 39.17s-.95 4.25-7.21 4.25-8.74-4.11-8.92-6.37 2.38-3.93 4.24-1.7c2.69 3.22 4.89 2.83 6.37.85s5.52 2.97 5.52 2.97z"/><path class="cls-2" d="M25.57 39.17s.95 4.25 7.21 4.25 8.74-4.11 8.92-6.37-2.38-3.93-4.24-1.7c-2.69 3.22-4.89 2.83-6.37.85s-5.52 2.97-5.52 2.97z"/><path class="cls-3" d="M41.67 37.29l-.33.17c-5.43 3.22-9.85 2.83-12.85.85a3.24 3.24 0 0 0-1.72-.45c1.31-1.31 3.35-3 4.32-1.66 1.48 2 3.68 2.37 6.37-.85 1.86-2.23 4.42-.57 4.24 1.7a2.24 2.24 0 0 1-.03.24z"/><path class="cls-4" d="M25.57 39.17s.95 4.25 7.21 4.25 8.74-4.11 8.92-6.37-2.38-3.93-4.24-1.7c-2.69 3.22-4.89 2.83-6.37.85s-5.52 2.97-5.52 2.97z"/><circle class="cls-6" cx="20.13" cy="27.92" r="1.11"/><circle class="cls-6" cx="27.87" cy="27.92" r="1.11"/><ellipse class="cls-7" cx="32.3" cy="30.69" rx="1.66" ry="1"/><ellipse class="cls-7" cx="15.7" cy="30.69" rx="1.66" ry="1"/><circle class="cls-8" cx="20.4" cy="18.79" r="1.94"/><circle class="cls-8" cx="26.21" cy="16.3" r="1.11"/><circle class="cls-8" cx="30.64" cy="19.07" r="1.11"/><circle class="cls-1" cx="39.02" cy="15.89" r="1.11"/><ellipse cx="24" cy="44.34" rx="12.73" ry="1.66" opacity=".15" fill="#45413c"/></g></svg>