<svg xmlns="http://www.w3.org/2000/svg" viewBox="0 0 48 48"><defs><style>.cls-1{fill:#e5feff}.cls-2{fill:#fff}.cls-3{fill:none;stroke:#45413c;stroke-linecap:round;stroke-linejoin:round}.cls-8{fill:#656769}.cls-6{fill:#ffe500}.cls-9{fill:#87898c}</style></defs><path class="cls-1" d="M30.33 25.45a1.49 1.49 0 0 1-1.28-1.32l-.73-10.51c-.16-2.37 2.16-4.19 4.76-3.73s4.16 3 3.19 5.14L32 24.65a1.51 1.51 0 0 1-1.67.8z"/><path class="cls-2" d="M28.46 15.61a4 4 0 0 1 4.62-2.52 4.24 4.24 0 0 1 3.08 2.18l.11-.24c1-2.18-.58-4.67-3.19-5.14s-4.92 1.36-4.76 3.73z"/><path class="cls-3" d="M30.33 25.45a1.49 1.49 0 0 1-1.28-1.32l-.73-10.51c-.16-2.37 2.16-4.19 4.76-3.73s4.16 3 3.19 5.14L32 24.65a1.51 1.51 0 0 1-1.67.8z"/><path class="cls-3" d="M13 11.1s-1.41-6.43-7.5-5.76"/><path d="M38.05 35l1.67 4a.43.43 0 0 1-.45.6l-4.35-.43z" fill="#656769" stroke="#45413c" stroke-linecap="round" stroke-linejoin="round"/><ellipse cx="24" cy="45.5" rx="11.5" ry="1.5" fill="#45413c" opacity=".15"/><ellipse class="cls-6" cx="27.66" cy="30.86" rx="8.36" ry="11.64" transform="rotate(-53.37 27.654 30.86)"/><path d="M18.31 27.78c2.76-3.7 9.18-3.6 14.34.24A13.85 13.85 0 0 1 38 35.7c1-3.64-1.1-8.38-5.37-11.56-5.16-3.83-11.58-3.94-14.34-.23a7.12 7.12 0 0 0-1 6 6.23 6.23 0 0 1 1.02-2.13z" fill="#fff48c"/><ellipse class="cls-3" cx="27.66" cy="30.86" rx="8.36" ry="11.64" transform="rotate(-53.37 27.654 30.86)"/><path class="cls-8" d="M25.42 18.94a9.65 9.65 0 1 1-7.15-11.63 9.65 9.65 0 0 1 7.15 11.63z"/><path class="cls-9" d="M6.64 18.05a9.65 9.65 0 0 1 18.87.43 9.65 9.65 0 1 0-19 0c.08-.12.1-.28.13-.43z"/><path class="cls-3" d="M25.42 18.94a9.65 9.65 0 1 1-7.15-11.63 9.65 9.65 0 0 1 7.15 11.63z"/><path class="cls-8" d="M25.94 21.3a22.65 22.65 0 0 1-3.25 6 22.45 22.45 0 0 1-4.64 4.7 14.11 14.11 0 0 0 2.88 4 21.84 21.84 0 0 0 6-5.61 21.58 21.58 0 0 0 3.72-7.61 14 14 0 0 0-4.71-1.48z"/><path class="cls-9" d="M29.46 26.17a19.29 19.29 0 0 0 1.16-3.31 14 14 0 0 0-4.68-1.56 21.48 21.48 0 0 1-1.75 3.77 13 13 0 0 1 5.27 1.1z"/><path class="cls-3" d="M25.94 21.3a22.65 22.65 0 0 1-3.25 6 22.45 22.45 0 0 1-4.64 4.7 14.11 14.11 0 0 0 2.88 4 21.84 21.84 0 0 0 6-5.61 21.58 21.58 0 0 0 3.72-7.61 14 14 0 0 0-4.71-1.48z"/><path class="cls-8" d="M33.81 25.09a21.36 21.36 0 0 1-3.75 7.72A21.39 21.39 0 0 1 24 38.46a14 14 0 0 0 5.87 2 23.12 23.12 0 0 0 4.4-4.46 22.57 22.57 0 0 0 3.18-5.86 14.18 14.18 0 0 0-3.64-5.05z"/><path class="cls-9" d="M36.55 32.22a20.21 20.21 0 0 0 .9-2.13 14.18 14.18 0 0 0-3.64-5 18.11 18.11 0 0 1-1 3 15.18 15.18 0 0 1 3.74 4.13z"/><path class="cls-3" d="M33.81 25.09a21.36 21.36 0 0 1-3.75 7.72A21.39 21.39 0 0 1 24 38.46a14 14 0 0 0 5.87 2 23.12 23.12 0 0 0 4.4-4.46 22.57 22.57 0 0 0 3.18-5.86 14.18 14.18 0 0 0-3.64-5.05z"/><circle cx="15.01" cy="14.34" r="1.5" stroke="#45413c" stroke-linecap="round" stroke-linejoin="round" fill="#fff"/><path class="cls-6" d="M22.14 19c0 .56-.82 1-1.82 1s-1.82-.44-1.82-1 .81-1 1.82-1 1.82.47 1.82 1z"/><path class="cls-3" d="M15.59 9.68S17 3.26 11.2 1.34"/><path class="cls-1" d="M39.48 12.71c2.16 1.54 2.49 4.46.68 6l-8 6.85a1.57 1.57 0 0 1-2.43-1.73L33.59 14c.87-2.18 3.74-2.82 5.89-1.29z"/><path class="cls-2" d="M30.32 25.58l3.26-8.25c.87-2.22 3.74-2.86 5.9-1.32a4.48 4.48 0 0 1 1.46 1.74 4 4 0 0 0-1.46-5c-2.15-1.53-5-.89-5.89 1.32l-3.87 9.81a1.51 1.51 0 0 0 .6 1.7z"/><path class="cls-3" d="M39.48 12.71c2.16 1.54 2.49 4.46.68 6l-8 6.85a1.57 1.57 0 0 1-2.43-1.73L33.59 14c.87-2.18 3.74-2.82 5.89-1.29z"/><path class="cls-3" d="M19.05 33.81c-.45 0-3.63-.14-5.21 4.39"/><path class="cls-3" d="M20.86 36a6.26 6.26 0 0 0-2.64 5.7"/><path class="cls-3" d="M26.41 39.64a7.61 7.61 0 0 0-.79 6.46"/><path class="cls-3" d="M28 40.15a5.59 5.59 0 0 0 1.7 5.35"/></svg>