<svg xmlns="http://www.w3.org/2000/svg" viewBox="0 0 48 48"><defs><style>.cls-1{fill:#fcd}.cls-2{fill:#ffe5ee}.cls-3{fill:none}.cls-13,.cls-14,.cls-3,.cls-6,.cls-8{stroke:#45413c;stroke-linecap:round;stroke-linejoin:round}.cls-18,.cls-6{fill:#6dd627}.cls-8,.cls-9{fill:#ff6242}.cls-10{fill:#ff866e}.cls-11,.cls-13{fill:#ffe500}.cls-12{fill:#fff48c}.cls-14{fill:#ff87af}.cls-19{fill:#9ceb60}</style></defs><path class="cls-1" d="M35.76 33.8s.51-7.21 4.68-5.3-1.62 6.11-1.62 6.11z"/><path class="cls-2" d="M39.61 30.58c1.08.5 1.51 1.13 1.55 1.81 1-1.3 1.48-2.88-.72-3.89-2.63-1.21-3.8 1.22-4.31 3.17a2.48 2.48 0 0 1 3.48-1.09z"/><path class="cls-3" d="M35.76 33.8s.51-7.21 4.68-5.3-1.62 6.11-1.62 6.11z"/><path d="M38.57 34.54l-.2-1.38a5.13 5.13 0 0 1 .35-2.48" fill="#ebcb00" stroke="#45413c" stroke-linecap="round" stroke-linejoin="round"/><path d="M38.37 34.57a9.08 9.08 0 0 1 3.89-1.06 10.58 10.58 0 0 1 4.24 1.42l-1.06 3.18a9.38 9.38 0 0 0-3.18-2.48 4.86 4.86 0 0 0-3.54 0z" stroke="#45413c" stroke-linecap="round" stroke-linejoin="round" fill="#fcd"/><path class="cls-6" d="M21.44 18.3l1.56 1a7.13 7.13 0 0 1 2.42 2.72 43.87 43.87 0 0 0 4.51 7.55 147 147 0 0 0 11.3 12l1.41-1.42a150.93 150.93 0 0 1-10.59-11.24 39.54 39.54 0 0 1-3.86-6.13 7.1 7.1 0 0 1-.53-5.86z"/><ellipse cx="26.78" cy="44.5" rx="15.5" ry="1.5" fill="#45413c" opacity=".15"/><g><path class="cls-6" d="M10.79 16.19l.71.2a8.65 8.65 0 0 1 3.85 2.24l25.14 25.13 1.41-1.41-24.27-24.28A9 9 0 0 1 15 11.94z"/><path class="cls-8" d="M10.37 13.77a5.74 5.74 0 0 1-5.93-5.52L4.33 5l2.79 2.58a10.56 10.56 0 0 1 3.25 6.19z"/><path class="cls-9" d="M12.33 12.3a5.72 5.72 0 0 0-4.57-6.69L4.33 5 6.7 8.15a10.62 10.62 0 0 0 5.63 4.15z"/><path class="cls-10" d="M7.83 7.59a5.73 5.73 0 0 1 4.54 4.46 5.73 5.73 0 0 0-4.61-6.44L4.33 5 6 7.26z"/><path class="cls-3" d="M12.33 12.3a5.72 5.72 0 0 0-4.57-6.69L4.33 5 6.7 8.15a10.62 10.62 0 0 0 5.63 4.15z"/><path class="cls-9" d="M13.33 16.54a7 7 0 0 0 0-9.9L10.5 3.81v4.67a12.91 12.91 0 0 0 2.83 8.06z"/><path class="cls-10" d="M12.58 8.47a7 7 0 0 1 1.84 6.66 7 7 0 0 0-1.09-8.49L10.5 3.81V6.4z"/><path class="cls-3" d="M13.33 16.54a7 7 0 0 0 0-9.9L10.5 3.81v4.67a12.91 12.91 0 0 0 2.83 8.06z"/><path class="cls-8" d="M10.9 11.65a12.92 12.92 0 0 0-3.22-.41H3l2.83 2.83a7 7 0 0 0 7 1.75 12.69 12.69 0 0 1-1.93-4.17z"/></g><g><path class="cls-11" d="M25.8 15.5a5.73 5.73 0 0 0-1.88-7.88L21.14 5.9 22 9.62a10.51 10.51 0 0 0 3.8 5.88z"/><path class="cls-12" d="M23.34 9.29a5.72 5.72 0 0 1 2.66 5.9 5.73 5.73 0 0 0-2-7.57L21.14 5.9l.56 2.38z"/><path class="cls-3" d="M25.8 15.5a5.73 5.73 0 0 0-1.88-7.88L21.14 5.9 22 9.62a10.51 10.51 0 0 0 3.8 5.88z"/><path class="cls-13" d="M23.55 16.42A5.73 5.73 0 0 1 20 9.14l1.14-3.24 1.59 3.57a10.63 10.63 0 0 1 .82 7z"/><path class="cls-13" d="M26.78 19.33a7 7 0 0 1-8.61-4.89l-1.06-3.86 4.05 2.31a12.91 12.91 0 0 1 5.62 6.44z"/><g><path class="cls-11" d="M23.71 14.79a12.77 12.77 0 0 1 1.22-2.94l2.3-4.06 1.06 3.86a7 7 0 0 1-1.87 6.88 12.85 12.85 0 0 0-2.71-3.74z"/><path class="cls-12" d="M27.29 13a7 7 0 0 1-.69 5.37 7 7 0 0 0 1.69-6.7l-1.06-3.88-.92 1.62z"/><path class="cls-3" d="M23.71 14.79a12.77 12.77 0 0 1 1.22-2.94l2.3-4.06 1.06 3.86a7 7 0 0 1-1.87 6.88 12.85 12.85 0 0 0-2.71-3.74z"/></g></g><path class="cls-6" d="M14.65 21.52l1 1.55a7 7 0 0 0 2.72 2.42A44.28 44.28 0 0 1 26 30c4.9 3.85 13.78 13.09 13.78 13.09l-1.44 1.41S30.08 36 25.26 32.13a39.73 39.73 0 0 0-6.13-3.87 7.13 7.13 0 0 0-5.86-.53z"/><g><path class="cls-14" d="M11.79 25.87A5.73 5.73 0 0 1 3.91 24L2.2 21.21l3.71.88a10.58 10.58 0 0 1 5.88 3.78z"/><path d="M12.77 23.62a5.73 5.73 0 0 0-7.27-3.56l-3.3 1.15 3.63 1.59a10.47 10.47 0 0 0 6.94.82z" fill="#ff6196" stroke="#45413c" stroke-linecap="round" stroke-linejoin="round"/><path d="M15.68 26.85a7 7 0 0 0-4.89-8.6l-3.85-1.07 2.3 4.06a12.88 12.88 0 0 0 6.44 5.61z" fill="#ff87af"/><path d="M10.63 19.83a7 7 0 0 1 5.14 6.68 7 7 0 0 0-5-8.26l-3.83-1.07L8 19.11z" fill="#ff6196"/><path class="cls-3" d="M15.68 26.85a7 7 0 0 0-4.89-8.6l-3.85-1.07 2.3 4.06a12.88 12.88 0 0 0 6.44 5.61z"/><g><path class="cls-14" d="M11.14 23.79A12.74 12.74 0 0 0 8.2 25l-4 2.3L8 28.37a7 7 0 0 0 6.88-1.87 13.22 13.22 0 0 1-3.74-2.71z"/></g></g><path class="cls-18" d="M38 41.43s-7.48-7.36-8.48-14.14 6-13.79 6-13.79-3.18 5.3-1.06 13.08a28.48 28.48 0 0 0 6.41 12z"/><path class="cls-19" d="M33.13 16.41a18.56 18.56 0 0 0-.59 12.11 32.35 32.35 0 0 0 6.51 11.89l1.84-1.82a28.48 28.48 0 0 1-6.41-12c-2.12-7.79 1.06-13.09 1.06-13.09a25.87 25.87 0 0 0-2.41 2.91z"/><path class="cls-3" d="M38 41.43s-7.48-7.36-8.48-14.14 6-13.79 6-13.79-3.18 5.3-1.06 13.08a28.48 28.48 0 0 0 6.41 12z"/><path class="cls-18" d="M40.89 38.45s-4.11-6.05-14.12-9.82-18.45 4.88-18.45 4.88a17.45 17.45 0 0 1 16.53.27 52.79 52.79 0 0 1 11.75 8.93z"/><path class="cls-19" d="M25.77 31.25a32.83 32.83 0 0 1 13.4 8.91l1.72-1.71s-4.11-6.05-14.12-9.82-18.45 4.88-18.45 4.88a17 17 0 0 1 5.7-1.8 15.55 15.55 0 0 1 11.75-.46z"/><path class="cls-3" d="M40.89 38.45s-4.11-6.05-14.12-9.82-18.45 4.88-18.45 4.88a17.45 17.45 0 0 1 16.53.27 52.79 52.79 0 0 1 11.75 8.93z"/><path class="cls-1" d="M39.43 35.7l-5.3 5.3-4.25-2.83 6.72-6.72 2.83 4.25z"/><path class="cls-2" d="M39.43 35.7l-1.53 1.53-2.82-4.26 1.52-1.52 2.83 4.25z"/><path class="cls-3" d="M39.43 35.7l-5.3 5.3-4.25-2.83 6.72-6.72 2.83 4.25z"/></svg>