<svg xmlns="http://www.w3.org/2000/svg" viewBox="0 0 48 48"><defs><style>.cls-2{fill:#6dd627}.cls-2,.cls-5{stroke:#45413c;stroke-linecap:round;stroke-linejoin:round}.cls-3{fill:#ffe500}.cls-4{fill:#ebcb00}.cls-5{fill:none}</style></defs><g><ellipse cx="24" cy="46.5" rx="10" ry="1.5" fill="#45413c" opacity=".15"/><g><path class="cls-2" d="M32.24 38.11s-2.43 5.51-3.66 6.48a2.83 2.83 0 0 1-3.5-4.46c1.24-.97 7.16-2.02 7.16-2.02z"/><path class="cls-2" d="M15.76 36.49S18.19 42 19.42 43a2.83 2.83 0 1 0 3.5-4.46c-1.24-.99-7.16-2.05-7.16-2.05z"/><path class="cls-2" d="M22.79 29.01h2.43V46.5h-2.43z"/><g><g><path class="cls-3" d="M22.9 8.84A2.83 2.83 0 1 1 17.67 11c-.6-1.44-.33-8.18-.33-8.18s4.96 4.57 5.56 6.02z"/><path class="cls-3" d="M16.11 12.56a2.83 2.83 0 1 1-2.17 5.23c-1.44-.6-6-5.56-6-5.56s6.73-.23 8.17.33z"/><path class="cls-3" d="M13.94 20a2.83 2.83 0 1 1 2.17 5.23c-1.44.6-8.18.33-8.18.33s4.57-4.97 6.01-5.56z"/><path class="cls-3" d="M17.67 26.78A2.83 2.83 0 1 1 22.9 29c-.6 1.44-5.56 6-5.56 6s-.27-6.78.33-8.22z"/><path class="cls-3" d="M25.1 29a2.83 2.83 0 0 1 5.23-2.17c.6 1.44.33 8.18.33 8.18S25.7 30.39 25.1 29z"/><path class="cls-3" d="M31.89 25.22A2.83 2.83 0 1 1 34.06 20c1.44.6 6 5.56 6 5.56s-6.73.26-8.17-.34z"/><path class="cls-3" d="M34.06 17.79a2.83 2.83 0 1 1-2.17-5.23c1.44-.6 8.18-.33 8.18-.33s-4.57 4.96-6.01 5.56z"/><path class="cls-3" d="M30.33 11a2.83 2.83 0 1 1-5.23-2.16c.6-1.45 5.56-6 5.56-6s.27 6.72-.33 8.16z"/><g><path class="cls-4" d="M21.37 12.54a2.84 2.84 0 0 0 1.53-3.7A10 10 0 0 0 17.67 11a2.84 2.84 0 0 0 3.7 1.54z"/><path class="cls-4" d="M17.65 16.26a2.84 2.84 0 0 0-1.53-3.7A10 10 0 0 0 14 17.79a2.84 2.84 0 0 0 3.65-1.53z"/><path class="cls-4" d="M17.65 21.52A2.84 2.84 0 0 0 14 20a10 10 0 0 0 2.17 5.23 2.84 2.84 0 0 0 1.48-3.71z"/><path class="cls-4" d="M21.37 25.25a2.83 2.83 0 0 0-3.7 1.52 10 10 0 0 0 5.23 2.17 2.82 2.82 0 0 0-1.53-3.69z"/><path class="cls-4" d="M26.63 25.25a2.82 2.82 0 0 0-1.53 3.69 10 10 0 0 0 5.23-2.17 2.83 2.83 0 0 0-3.7-1.52z"/><path class="cls-4" d="M30.35 21.52a2.84 2.84 0 0 0 1.53 3.7A10 10 0 0 0 34.05 20a2.84 2.84 0 0 0-3.7 1.52z"/><path class="cls-4" d="M30.35 16.26a2.84 2.84 0 0 0 3.7 1.53 10 10 0 0 0-2.17-5.23 2.84 2.84 0 0 0-1.53 3.7z"/><path class="cls-4" d="M26.63 12.54a2.84 2.84 0 0 0 3.7-1.54 10 10 0 0 0-5.23-2.16 2.84 2.84 0 0 0 1.53 3.7z"/></g><path class="cls-5" d="M22.9 8.84A2.83 2.83 0 1 1 17.67 11c-.6-1.44-.33-8.18-.33-8.18s4.96 4.57 5.56 6.02z"/><path class="cls-5" d="M16.11 12.56a2.83 2.83 0 1 1-2.17 5.23c-1.44-.6-6-5.56-6-5.56s6.73-.23 8.17.33z"/><path class="cls-5" d="M13.94 20a2.83 2.83 0 1 1 2.17 5.23c-1.44.6-8.18.33-8.18.33s4.57-4.97 6.01-5.56z"/><path class="cls-5" d="M17.67 26.78A2.83 2.83 0 1 1 22.9 29c-.6 1.44-5.56 6-5.56 6s-.27-6.78.33-8.22z"/><path class="cls-5" d="M25.1 29a2.83 2.83 0 0 1 5.23-2.17c.6 1.44.33 8.18.33 8.18S25.7 30.39 25.1 29z"/><path class="cls-5" d="M31.89 25.22A2.83 2.83 0 1 1 34.06 20c1.44.6 6 5.56 6 5.56s-6.73.26-8.17-.34z"/><path class="cls-5" d="M34.06 17.79a2.83 2.83 0 1 1-2.17-5.23c1.44-.6 8.18-.33 8.18-.33s-4.57 4.96-6.01 5.56z"/><path class="cls-5" d="M30.33 11a2.83 2.83 0 1 1-5.23-2.16c.6-1.45 5.56-6 5.56-6s.27 6.72-.33 8.16z"/></g><g><path class="cls-3" d="M26.83 9.18a2.83 2.83 0 1 1-5.66 0c0-1.56 2.83-7.69 2.83-7.69s2.83 6.13 2.83 7.69z"/><path class="cls-3" d="M19.14 10a2.84 2.84 0 0 1-4 4C14 12.92 11.7 6.59 11.7 6.59S18 8.92 19.14 10z"/><path class="cls-3" d="M14.29 16.06a2.83 2.83 0 0 1 0 5.66c-1.56 0-7.69-2.83-7.69-2.83s6.13-2.83 7.69-2.83z"/><path class="cls-3" d="M15.13 23.75a2.84 2.84 0 0 1 4 4c-1.13 1.12-7.43 3.44-7.43 3.44s2.3-6.33 3.43-7.44z"/><path class="cls-3" d="M21.17 28.6a2.83 2.83 0 1 1 5.66 0c0 1.57-2.83 7.69-2.83 7.69s-2.83-6.12-2.83-7.69z"/><path class="cls-3" d="M28.86 27.76a2.84 2.84 0 0 1 4-4c1.11 1.11 3.43 7.44 3.43 7.44s-6.29-2.33-7.43-3.44z"/><path class="cls-3" d="M33.71 21.72a2.83 2.83 0 0 1 0-5.66c1.56 0 7.69 2.83 7.69 2.83s-6.13 2.83-7.69 2.83z"/><path class="cls-3" d="M32.87 14a2.84 2.84 0 0 1-4-4C30 8.92 36.3 6.59 36.3 6.59S34 12.92 32.87 14z"/><path class="cls-4" d="M24 12a2.83 2.83 0 0 0 2.83-2.82 10 10 0 0 0-5.66 0A2.83 2.83 0 0 0 24 12z"/><path class="cls-4" d="M19.14 14a2.85 2.85 0 0 0 0-4 10.18 10.18 0 0 0-4 4 2.85 2.85 0 0 0 4 0z"/><path class="cls-4" d="M17.12 18.89a2.83 2.83 0 0 0-2.83-2.83 10 10 0 0 0 0 5.66 2.83 2.83 0 0 0 2.83-2.83z"/><path class="cls-4" d="M19.14 23.75a2.85 2.85 0 0 0-4 0 10.18 10.18 0 0 0 4 4 2.85 2.85 0 0 0 0-4z"/><path class="cls-4" d="M24 25.77a2.83 2.83 0 0 0-2.83 2.83 10 10 0 0 0 5.66 0A2.83 2.83 0 0 0 24 25.77z"/><path class="cls-4" d="M32.87 23.75a2.84 2.84 0 0 0-4 4 10.18 10.18 0 0 0 4-4z"/><path class="cls-4" d="M30.88 18.89a2.83 2.83 0 0 0 2.83 2.83 10 10 0 0 0 0-5.66 2.83 2.83 0 0 0-2.83 2.83z"/><path class="cls-4" d="M28.86 14a2.85 2.85 0 0 0 4 0 10.18 10.18 0 0 0-4-4 2.85 2.85 0 0 0 0 4z"/><path class="cls-5" d="M26.83 9.18a2.83 2.83 0 1 1-5.66 0c0-1.56 2.83-7.69 2.83-7.69s2.83 6.13 2.83 7.69z"/><path class="cls-5" d="M19.14 10a2.84 2.84 0 0 1-4 4C14 12.92 11.7 6.59 11.7 6.59S18 8.92 19.14 10z"/><path class="cls-5" d="M14.29 16.06a2.83 2.83 0 0 1 0 5.66c-1.56 0-7.69-2.83-7.69-2.83s6.13-2.83 7.69-2.83z"/><path class="cls-5" d="M15.13 23.75a2.84 2.84 0 0 1 4 4c-1.13 1.12-7.43 3.44-7.43 3.44s2.3-6.33 3.43-7.44z"/><path class="cls-5" d="M21.17 28.6a2.83 2.83 0 1 1 5.66 0c0 1.57-2.83 7.69-2.83 7.69s-2.83-6.12-2.83-7.69z"/><path class="cls-5" d="M28.86 27.76a2.84 2.84 0 0 1 4-4c1.11 1.11 3.43 7.44 3.43 7.44s-6.29-2.33-7.43-3.44z"/><path class="cls-5" d="M33.71 21.72a2.83 2.83 0 0 1 0-5.66c1.56 0 7.69 2.83 7.69 2.83s-6.13 2.83-7.69 2.83z"/><path class="cls-5" d="M32.87 14a2.84 2.84 0 0 1-4-4C30 8.92 36.3 6.59 36.3 6.59S34 12.92 32.87 14z"/></g></g><g><circle cx="24" cy="18.89" r="8.5" fill="#ffaa54"/><path d="M24 10.39a8.5 8.5 0 1 0 8.5 8.5 8.51 8.51 0 0 0-8.5-8.5zm0 15.78a7.69 7.69 0 1 1 7.69-7.68A7.68 7.68 0 0 1 24 26.17z" fill="#ff8a14"/><circle class="cls-5" cx="24" cy="18.89" r="8.5"/></g></g></g></svg>