<svg xmlns="http://www.w3.org/2000/svg" viewBox="0 0 48 48"><defs><style>.cls-2{fill:#ffe500}.cls-3{fill:#ebcb00}.cls-4{fill:none;stroke:#45413c;stroke-linecap:round;stroke-linejoin:round}.cls-6{fill:#ff8a14}</style></defs><ellipse cx="24" cy="46" fill="#45413c" opacity=".1" rx="10" ry="1.5"/><path d="M22.6 11a3.7 3.7 0 1 1-6.8 2.8c-.6-1.5-.6-7.3-.5-9.7a.5.5 0 0 1 .8-.3c1.7 1.6 5.9 5.7 6.5 7.2zM13.8 15.8a3.7 3.7 0 1 1-2.8 6.8C9.5 22 5.4 17.8 3.7 16a.5.5 0 0 1 .4-.8c2.4 0 8.2-.1 9.7.5zM11 25.4a3.7 3.7 0 1 1 2.8 6.8c-1.5.6-7.3.6-9.7.5a.5.5 0 0 1-.3-.8c1.6-1.7 5.7-5.9 7.2-6.5zM15.8 34.2a3.7 3.7 0 1 1 6.8 2.8c-.6 1.5-4.8 5.6-6.5 7.2a.5.5 0 0 1-.8-.3c0-2.4-.1-8.2.5-9.7zM25.4 37a3.7 3.7 0 1 1 6.8-2.8c.6 1.5.6 7.3.5 9.7a.5.5 0 0 1-.8.3c-1.7-1.6-5.9-5.7-6.5-7.2zM34.2 32.2a3.7 3.7 0 1 1 2.8-6.8c1.5.6 5.6 4.8 7.2 6.5a.5.5 0 0 1-.3.8c-2.4 0-8.2.1-9.7-.5zM37 22.6a3.7 3.7 0 1 1-2.8-6.8c1.5-.6 7.3-.6 9.7-.5a.5.5 0 0 1 .3.8c-1.6 1.7-5.7 5.9-7.2 6.5zM32.2 13.8a3.7 3.7 0 1 1-6.8-2.8c.6-1.5 4.8-5.6 6.5-7.3a.5.5 0 0 1 .8.4c0 2.4.1 8.2-.5 9.7z" class="cls-2"/><path d="M20.6 15.8a3.7 3.7 0 0 0 2-4.8 6.6 6.6 0 0 0-1-1.5 14.5 14.5 0 0 0-6.2 2.6 6.7 6.7 0 0 0 .4 1.7 3.7 3.7 0 0 0 4.8 2zM15.8 20.6a3.7 3.7 0 0 0-2-4.8 6.7 6.7 0 0 0-1.7-.3 14.5 14.5 0 0 0-2.6 6.1 6.6 6.6 0 0 0 1.4 1 3.7 3.7 0 0 0 4.9-2zM15.8 27.4a3.7 3.7 0 0 0-4.8-2 6.6 6.6 0 0 0-1.5 1 14.5 14.5 0 0 0 2.6 6.2 6.7 6.7 0 0 0 1.7-.4 3.7 3.7 0 0 0 2-4.8zM20.6 32.2a3.7 3.7 0 0 0-4.8 2 6.7 6.7 0 0 0-.3 1.7 14.5 14.5 0 0 0 6.1 2.6 6.6 6.6 0 0 0 1-1.5 3.7 3.7 0 0 0-2-4.8zM27.4 32.2a3.7 3.7 0 0 0-2 4.8 6.6 6.6 0 0 0 1 1.5 14.5 14.5 0 0 0 6.2-2.6 6.7 6.7 0 0 0-.4-1.7 3.7 3.7 0 0 0-4.8-2zM37 25.4a3.7 3.7 0 1 0-2.8 6.8 6.7 6.7 0 0 0 1.7.3 14.5 14.5 0 0 0 2.5-6.1 6.6 6.6 0 0 0-1.4-1zM32.2 20.6a3.7 3.7 0 0 0 4.8 2 6.6 6.6 0 0 0 1.5-1 14.5 14.5 0 0 0-2.6-6.2 6.7 6.7 0 0 0-1.7.4 3.7 3.7 0 0 0-2 4.8zM27.4 15.8a3.7 3.7 0 0 0 4.8-2 6.7 6.7 0 0 0 .3-1.7 14.5 14.5 0 0 0-6.1-2.6 6.6 6.6 0 0 0-1 1.4 3.7 3.7 0 0 0 2 4.9z" class="cls-3"/><path d="M22.6 11a3.7 3.7 0 1 1-6.8 2.8c-.6-1.5-.6-7.3-.5-9.7a.5.5 0 0 1 .8-.3c1.7 1.6 5.9 5.7 6.5 7.2zM13.8 15.8a3.7 3.7 0 1 1-2.8 6.8C9.5 22 5.4 17.8 3.7 16a.5.5 0 0 1 .4-.8c2.4 0 8.2-.1 9.7.5zM11 25.4a3.7 3.7 0 1 1 2.8 6.8c-1.5.6-7.3.6-9.7.5a.5.5 0 0 1-.3-.8c1.6-1.7 5.7-5.9 7.2-6.5zM15.8 34.2a3.7 3.7 0 1 1 6.8 2.8c-.6 1.5-4.8 5.6-6.5 7.2a.5.5 0 0 1-.8-.3c0-2.4-.1-8.2.5-9.7zM25.4 37a3.7 3.7 0 1 1 6.8-2.8c.6 1.5.6 7.3.5 9.7a.5.5 0 0 1-.8.3c-1.7-1.6-5.9-5.7-6.5-7.2zM34.2 32.2a3.7 3.7 0 1 1 2.8-6.8c1.5.6 5.6 4.8 7.2 6.5a.5.5 0 0 1-.3.8c-2.4 0-8.2.1-9.7-.5zM37 22.6a3.7 3.7 0 1 1-2.8-6.8c1.5-.6 7.3-.6 9.7-.5a.5.5 0 0 1 .3.8c-1.6 1.7-5.7 5.9-7.2 6.5zM32.2 13.8a3.7 3.7 0 1 1-6.8-2.8c.6-1.5 4.8-5.6 6.5-7.3a.5.5 0 0 1 .8.4c0 2.4.1 8.2-.5 9.7z" class="cls-4"/><g><path d="M17.7 12.5a3.7 3.7 0 0 1-5.2 5.2 43.8 43.8 0 0 1-4.2-8.8.5.5 0 0 1 .6-.6c2.2.9 7.7 3 8.8 4.2zM11.4 20.3a3.7 3.7 0 0 1 0 7.4c-1.6 0-7-2.3-9.2-3.3a.5.5 0 0 1 0-.8c2.2-1 7.6-3.3 9.2-3.3zM12.5 30.3a3.7 3.7 0 0 1 5.2 5.2 43.8 43.8 0 0 1-8.8 4.2.5.5 0 0 1-.6-.6c.9-2.3 3-7.7 4.2-8.8zM20.3 36.6a3.7 3.7 0 0 1 7.4 0c0 1.6-2.3 7-3.3 9.2a.5.5 0 0 1-.8 0c-1-2.2-3.3-7.6-3.3-9.2zM30.3 35.5a3.7 3.7 0 0 1 5.2-5.2c1.1 1.1 3.3 6.5 4.2 8.8a.5.5 0 0 1-.6.6c-2.3-.9-7.7-3-8.8-4.2zM36.6 27.7a3.7 3.7 0 0 1 0-7.4c1.6 0 7 2.3 9.2 3.3a.5.5 0 0 1 0 .8c-2.2 1-7.6 3.3-9.2 3.3zM35.5 17.7a3.7 3.7 0 0 1-5.2-5.2c1.1-1.1 6.5-3.3 8.8-4.2a.5.5 0 0 1 .6.6c-.9 2.2-3 7.7-4.2 8.8zM27.7 11.4a3.7 3.7 0 0 1-7.4 0c0-1.6 2.3-7 3.3-9.2a.5.5 0 0 1 .8 0c1 2.2 3.3 7.6 3.3 9.2z" class="cls-2"/><path d="M17.7 17.7a3.7 3.7 0 0 0 0-5.2 6.6 6.6 0 0 0-1.4-1 14.8 14.8 0 0 0-4.8 4.8 6.6 6.6 0 0 0 1 1.4 3.7 3.7 0 0 0 5.2 0zM15 24a3.7 3.7 0 0 0-3.6-3.7 7 7 0 0 0-1.7.4 14.4 14.4 0 0 0 0 6.6 7 7 0 0 0 1.7.4 3.7 3.7 0 0 0 3.7-3.7zM17.7 30.3a3.7 3.7 0 0 0-5.2 0 6.6 6.6 0 0 0-1 1.4 14.8 14.8 0 0 0 4.8 4.8 6.6 6.6 0 0 0 1.4-1 3.7 3.7 0 0 0 0-5.2zM24 33a3.7 3.7 0 0 0-3.7 3.6 7 7 0 0 0 .4 1.7 14.4 14.4 0 0 0 6.6 0 7 7 0 0 0 .4-1.7 3.7 3.7 0 0 0-3.7-3.7zM30.3 30.3a3.7 3.7 0 0 0 0 5.2 6.6 6.6 0 0 0 1.4 1 14.8 14.8 0 0 0 4.8-4.7 6.6 6.6 0 0 0-1-1.4 3.7 3.7 0 0 0-5.2 0zM38.3 20.7a7 7 0 0 0-1.7-.4 3.7 3.7 0 0 0 0 7.4 7 7 0 0 0 1.7-.4 14.4 14.4 0 0 0 0-6.6zM30.3 17.7a3.7 3.7 0 0 0 5.2 0 6.6 6.6 0 0 0 1-1.4 14.8 14.8 0 0 0-4.7-4.8 6.6 6.6 0 0 0-1.4 1 3.7 3.7 0 0 0 0 5.2zM24 15a3.7 3.7 0 0 0 3.7-3.6 7 7 0 0 0-.4-1.7 14.4 14.4 0 0 0-6.6 0 7 7 0 0 0-.4 1.7 3.7 3.7 0 0 0 3.7 3.7z" class="cls-3"/><path d="M17.7 12.5a3.7 3.7 0 0 1-5.2 5.2 43.8 43.8 0 0 1-4.2-8.8.5.5 0 0 1 .6-.6c2.2.9 7.7 3 8.8 4.2zM11.4 20.3a3.7 3.7 0 0 1 0 7.4c-1.6 0-7-2.3-9.2-3.3a.5.5 0 0 1 0-.8c2.2-1 7.6-3.3 9.2-3.3zM12.5 30.3a3.7 3.7 0 0 1 5.2 5.2 43.8 43.8 0 0 1-8.8 4.2.5.5 0 0 1-.6-.6c.9-2.3 3-7.7 4.2-8.8zM20.3 36.6a3.7 3.7 0 0 1 7.4 0c0 1.6-2.3 7-3.3 9.2a.5.5 0 0 1-.8 0c-1-2.2-3.3-7.6-3.3-9.2zM30.3 35.5a3.7 3.7 0 0 1 5.2-5.2c1.1 1.1 3.3 6.5 4.2 8.8a.5.5 0 0 1-.6.6c-2.3-.9-7.7-3-8.8-4.2zM36.6 27.7a3.7 3.7 0 0 1 0-7.4c1.6 0 7 2.3 9.2 3.3a.5.5 0 0 1 0 .8c-2.2 1-7.6 3.3-9.2 3.3zM35.5 17.7a3.7 3.7 0 0 1-5.2-5.2c1.1-1.1 6.5-3.3 8.8-4.2a.5.5 0 0 1 .6.6c-.9 2.2-3 7.7-4.2 8.8zM27.7 11.4a3.7 3.7 0 0 1-7.4 0c0-1.6 2.3-7 3.3-9.2a.5.5 0 0 1 .8 0c1 2.2 3.3 7.6 3.3 9.2z" class="cls-4"/></g><g><circle cx="24" cy="24" r="12.8" fill="#ffaa54"/><path d="M25.2 11.3a11.6 11.6 0 1 1-2.4 0 12.8 12.8 0 1 0 2.4 0z" class="cls-6"/><circle cx="24" cy="24" r="12.8" class="cls-4"/></g><g><path d="M16.3 26.3c0 .4.5.8 1.1.8s1.2-.4 1.2-.8-.5-.8-1.2-.8-1.1.4-1.1.8z" class="cls-6"/><g stroke="#45413c" stroke-linecap="round" stroke-linejoin="round"><path fill="#ffb0ca" d="M27 28.3a.8.8 0 0 1 .8 1 3.9 3.9 0 0 1-7.5 0 .8.8 0 0 1 .7-1z"/><path fill="#ff87af" d="M24 32.1a3.8 3.8 0 0 0 3-1.5 6 6 0 0 0-6 0 3.8 3.8 0 0 0 3 1.5z"/></g><path d="M17 24.8a1.2 1.2 0 1 1 2.4 0" class="cls-4"/><path d="M31.7 26.3c0 .4-.5.8-1.1.8s-1.2-.4-1.2-.8.5-.8 1.2-.8 1.1.4 1.1.8z" class="cls-6"/><path d="M31 24.8a1.2 1.2 0 1 0-2.3 0" class="cls-4"/><ellipse cx="24" cy="15.9" fill="#fc9" rx="3.1" ry=".8"/></g></svg>