<svg xmlns="http://www.w3.org/2000/svg" viewBox="0 0 48 48"><defs><style>.cls-2{fill:#6dd627}.cls-6{fill:none;stroke:#45413c}.cls-5{fill:#9ceb60}.cls-6{stroke-linecap:round;stroke-linejoin:round}</style></defs><g><ellipse cx="24.26" cy="45.82" rx="9.43" ry="1.18" fill="#45413c" opacity=".15"/><path class="cls-2" d="M31.63 44.14a1.18 1.18 0 0 1-.93 1.49 9.9 9.9 0 0 1-2 .09 9.61 9.61 0 0 1-7.62-4.24c-4.14-6.52-.38-14.69-.22-15a1.18 1.18 0 0 1 2.14 1c0 .08-3.37 7.36.07 12.77a7.37 7.37 0 0 0 7.27 3.09 1.19 1.19 0 0 1 1.32.84z"/><path d="M23 27.44a18.47 18.47 0 0 0-1.48 7 13.94 13.94 0 0 0 .15 2h-2.42a19.76 19.76 0 0 1 1.58-10 1.18 1.18 0 0 1 2.14 1z" fill="#46b000"/><path d="M23 27.44c0 .08-3.37 7.36.07 12.77a7.37 7.37 0 0 0 7.27 3.09 1.18 1.18 0 0 1 .39 2.33 9.9 9.9 0 0 1-2 .09 9.61 9.61 0 0 1-7.62-4.24c-4.14-6.52-.38-14.69-.22-15a1.18 1.18 0 0 1 2.14 1z" stroke-miterlimit="10" fill="none" stroke="#45413c"/><path class="cls-2" d="M30.53 29.44a4.94 4.94 0 0 0-.72-2.3 4.91 4.91 0 0 0 1.71 1.71c3.65 2.16 7.77-2.2 5.72-5.91l-.88-1.58a.62.62 0 0 1 .2-.81l1.51-1c3.55-2.33 1.93-8.1-2.31-7.89a4.9 4.9 0 0 0-2.31.72 4.91 4.91 0 0 0 1.71-1.71C37.32 7 33 2.91 29.26 5l-1.58.88a.62.62 0 0 1-.81-.21l-1-1.5C23.55.58 17.78 2.2 18 6.44a4.83 4.83 0 0 0 .72 2.3A5.08 5.08 0 0 0 17 7c-3.65-2.16-7.77 2.2-5.72 5.91l.88 1.58a.62.62 0 0 1-.21.81l-1.5 1c-3.55 2.33-1.93 8.1 2.31 7.89a4.94 4.94 0 0 0 2.3-.72 4.88 4.88 0 0 0-1.71 1.7c-2.16 3.66 2.19 7.78 5.91 5.73l1.58-.9a.62.62 0 0 1 .81.2l1 1.51c2.35 3.59 8.09 1.97 7.88-2.27z"/><g><path class="cls-5" d="M18.71 8.74A5.08 5.08 0 0 0 17 7c-3.65-2.16-7.77 2.2-5.72 5.91l.88 1.58c-1.37-5.73 5.12-8.11 7.84-3.6z"/></g><g><path class="cls-5" d="M25.88 7.77l1 1.51a.62.62 0 0 0 .81.2l1.58-.88a4.41 4.41 0 0 1 6 1.86C37.14 6.87 32.9 3 29.26 5l-1.58.88a.62.62 0 0 1-.81-.21l-1-1.5C23.55.58 17.78 2.2 18 6.44a4.85 4.85 0 0 0 .4 1.67 4.39 4.39 0 0 1 7.48-.34z"/><path class="cls-5" d="M10.45 20L12 19a.62.62 0 0 0 .21-.81l-.88-1.58A5.78 5.78 0 0 1 11 16l-.55.37a4.36 4.36 0 0 0-1.56 5.46A4.22 4.22 0 0 1 10.45 20z"/></g><path class="cls-6" d="M30.53 29.44a4.94 4.94 0 0 0-.72-2.3 4.91 4.91 0 0 0 1.71 1.71c3.65 2.16 7.77-2.2 5.72-5.91l-.88-1.58a.62.62 0 0 1 .2-.81l1.51-1c3.55-2.33 1.93-8.1-2.31-7.89a4.9 4.9 0 0 0-2.31.72 4.91 4.91 0 0 0 1.71-1.71C37.32 7 33 2.91 29.26 5l-1.58.88a.62.62 0 0 1-.81-.21l-1-1.5C23.55.58 17.78 2.2 18 6.44a4.83 4.83 0 0 0 .72 2.3A5.08 5.08 0 0 0 17 7c-3.65-2.16-7.77 2.2-5.72 5.91l.88 1.58a.62.62 0 0 1-.21.81l-1.5 1c-3.55 2.33-1.93 8.1 2.31 7.89a4.94 4.94 0 0 0 2.3-.72 4.88 4.88 0 0 0-1.71 1.7c-2.16 3.66 2.19 7.78 5.91 5.73l1.58-.9a.62.62 0 0 1 .81.2l1 1.51c2.35 3.59 8.09 1.97 7.88-2.27z"/><path class="cls-6" d="M18.71 8.74l2.69 4.46"/><path class="cls-6" d="M27.12 22.68l2.69 4.46"/><path class="cls-6" d="M29 15.08l4.45-2.69"/><path class="cls-6" d="M15.06 23.49l4.46-2.69"/></g></svg>