<svg xmlns="http://www.w3.org/2000/svg" viewBox="0 0 48 48"><defs><style>.cls-3{fill:#fc9}.cls-4{fill:none;stroke:#45413c;stroke-linecap:round;stroke-linejoin:round}</style></defs><g><ellipse cx="24" cy="45.5" rx="11.5" ry="1.5" fill="#45413c" opacity=".15"/><path d="M41.44 35.09a.5.5 0 0 0-.13-.82 15.43 15.43 0 0 0-8.77-1.14l-.71.14a30.19 30.19 0 0 0 4-3.46 27.66 27.66 0 0 0 6.68-11.2.51.51 0 0 0-.64-.61 27.66 27.66 0 0 0-10.91 7.14 29.67 29.67 0 0 0-2.64 3.16 31.1 31.1 0 0 0 1.06-8 29.76 29.76 0 0 0-4.96-16.69.51.51 0 0 0-.84 0 29.76 29.76 0 0 0-4.92 16.64 31.1 31.1 0 0 0 1.06 8.05 29.67 29.67 0 0 0-2.64-3.16A27.66 27.66 0 0 0 6.17 18a.51.51 0 0 0-.64.61 27.66 27.66 0 0 0 6.68 11.2 30.19 30.19 0 0 0 4 3.46l-.71-.14a15.48 15.48 0 0 0-8.78 1.14.5.5 0 0 0-.12.82 15.8 15.8 0 0 0 16.37 2.8 7.65 7.65 0 0 1-.97 2.87.49.49 0 0 0 .43.74h3.16a.49.49 0 0 0 .43-.74 7.65 7.65 0 0 1-.94-2.87 15.8 15.8 0 0 0 16.37-2.8z" fill="#ffaa54"/><g><path class="cls-3" d="M28.83 27.57a.54.54 0 0 0 .27.59.53.53 0 0 0 .65-.1q.55-.57 1.17-1.14a28.25 28.25 0 0 1 10.85-6.27c.27-.68.5-1.36.7-2a.51.51 0 0 0-.64-.61 27.66 27.66 0 0 0-10.91 7.14 29.27 29.27 0 0 0-2.09 2.39z"/><path class="cls-3" d="M23.58 7.94a.55.55 0 0 1 .84 0 24.06 24.06 0 0 1 4.9 13.56v-1.25a29.76 29.76 0 0 0-4.9-16.64.51.51 0 0 0-.84 0 29.76 29.76 0 0 0-4.92 16.64v1.25a24.06 24.06 0 0 1 4.92-13.56z"/><path class="cls-3" d="M14.3 33.86a.47.47 0 0 0 .47-.3.47.47 0 0 0-.16-.54 15.3 15.3 0 0 0-7.92 1.25.49.49 0 0 0-.15.8.38.38 0 0 1 .15-.07 16.91 16.91 0 0 1 7.61-1.14z"/><path class="cls-3" d="M41.46 35.07a.5.5 0 0 0-.14-.8A15.35 15.35 0 0 0 33.39 33a.47.47 0 0 0-.16.54.47.47 0 0 0 .47.3A17 17 0 0 1 41.32 35a.42.42 0 0 1 .14.07z"/><path class="cls-3" d="M6.23 20.65a28.25 28.25 0 0 1 10.85 6.27q.62.57 1.17 1.14a.53.53 0 0 0 .65.1.54.54 0 0 0 .27-.59 29.27 29.27 0 0 0-2.09-2.43A27.66 27.66 0 0 0 6.17 18a.51.51 0 0 0-.64.61c.2.68.47 1.39.7 2.04z"/></g><path class="cls-4" d="M41.44 35.09a.5.5 0 0 0-.13-.82 15.43 15.43 0 0 0-8.77-1.14l-.71.14a30.19 30.19 0 0 0 4-3.46 27.66 27.66 0 0 0 6.68-11.2.51.51 0 0 0-.64-.61 27.66 27.66 0 0 0-10.91 7.14 29.67 29.67 0 0 0-2.64 3.16 31.1 31.1 0 0 0 1.06-8 29.76 29.76 0 0 0-4.96-16.69.51.51 0 0 0-.84 0 29.76 29.76 0 0 0-4.92 16.64 31.1 31.1 0 0 0 1.06 8.05 29.67 29.67 0 0 0-2.64-3.16A27.66 27.66 0 0 0 6.17 18a.51.51 0 0 0-.64.61 27.66 27.66 0 0 0 6.68 11.2 30.19 30.19 0 0 0 4 3.46l-.71-.14a15.48 15.48 0 0 0-8.78 1.14.5.5 0 0 0-.12.82 15.8 15.8 0 0 0 16.37 2.8 7.65 7.65 0 0 1-.97 2.87.49.49 0 0 0 .43.74h3.16a.49.49 0 0 0 .43-.74 7.65 7.65 0 0 1-.94-2.87 15.8 15.8 0 0 0 16.37-2.8z"/><path class="cls-4" d="M24 34.39v-20"/><path class="cls-4" d="M26.5 34.39l5-5.5"/><path class="cls-4" d="M28 36.39l3.5-.5"/><path class="cls-4" d="M21.5 34.39l-5-5.5"/><path class="cls-4" d="M20 36.39l-3.5-.5"/></g></svg>