<svg xmlns="http://www.w3.org/2000/svg" viewBox="0 0 48 48"><defs><style>.cls-2{fill:#6dd627}.cls-3{fill:#9ceb60}.cls-4{fill:none;stroke:#45413c;stroke-linecap:round;stroke-linejoin:round}</style></defs><g><ellipse cx="28.84" cy="44.49" rx="12" ry="1.5" fill="#45413c" opacity=".15"/><path class="cls-2" d="M1 7.41a1 1 0 0 1 .57-1c2.87-1.32 15.19-6.26 26.22.82 8.21 5.24 12.67 7.07 14.83 7.71a1 1 0 0 1 .38 1.65C39.68 20 29.65 28.4 16.4 24.47S1.29 10.19 1 7.41z"/><path class="cls-3" d="M27.79 11.24c6.57 4.21 10.76 6.22 13.28 7.17.8-.68 1.46-1.31 2-1.82a1 1 0 0 0-.42-1.65c-2.19-.64-6.65-2.47-14.86-7.71C16.76.15 4.44 5.09 1.58 6.41a1 1 0 0 0-.57 1 16.79 16.79 0 0 0 .59 3c2.9-1.34 15.18-6.24 26.19.83z"/><path class="cls-4" d="M1 7.41a1 1 0 0 1 .57-1c2.87-1.32 15.19-6.26 26.22.82 8.21 5.24 12.67 7.07 14.83 7.71a1 1 0 0 1 .38 1.65C39.68 20 29.65 28.4 16.4 24.47S1.29 10.19 1 7.41z"/><path class="cls-2" d="M33.38 32.09A16.19 16.19 0 0 0 26 42.32a1 1 0 0 0 .71 1.16 16.16 16.16 0 0 0 19.84-12.06 1 1 0 0 0-.7-1.16 16.15 16.15 0 0 0-12.47 1.83z"/><path class="cls-3" d="M26.73 43.48h.13A16.12 16.12 0 0 1 45.72 34a16.73 16.73 0 0 0 .83-2.57 1 1 0 0 0-.7-1.16A16.15 16.15 0 0 0 26 42.32a1 1 0 0 0 .73 1.16z"/><path class="cls-4" d="M33.38 32.09A16.19 16.19 0 0 0 26 42.32a1 1 0 0 0 .71 1.16 16.16 16.16 0 0 0 19.84-12.06 1 1 0 0 0-.7-1.16 16.15 16.15 0 0 0-12.47 1.83z"/><path class="cls-4" d="M46.49 30.79a15.39 15.39 0 0 0-11.11 5.38"/><path class="cls-4" d="M1.05 7c5.84-.18 13.58 1.21 19 4.49"/></g></svg>