<svg xmlns="http://www.w3.org/2000/svg" viewBox="0 0 48 48"><defs><style>.cls-4{fill:none;stroke:#45413c;stroke-linecap:round;stroke-linejoin:round}.cls-5{fill:#6dd627}.cls-6{fill:#9ceb60}</style></defs><g><ellipse cx="24" cy="45.43" rx="12.02" ry="1.57" fill="#45413c" opacity=".15"/><circle cx="24" cy="28.27" r="16.73" fill="#ffaa54"/><path d="M24 15.72a16.74 16.74 0 0 1 16.59 14.64 18 18 0 0 0 .14-2.09 16.73 16.73 0 0 0-33.46 0 18 18 0 0 0 .14 2.09A16.74 16.74 0 0 1 24 15.72z" fill="#fc9"/><circle class="cls-4" cx="24" cy="28.27" r="16.73"/><path class="cls-5" d="M15.57 14.15s-2.66-3.27-.9-6.85 1.66-5.55 1.66-5.55 4.65 1.3 4.44 6-5.2 6.4-5.2 6.4z"/><path class="cls-6" d="M16.27 8.93A16.31 16.31 0 0 0 18.64 3a7.24 7.24 0 0 0-2.31-1.25s.1 2-1.66 5.55.9 6.85.9 6.85l.14-.05a6 6 0 0 1 .56-5.17z"/><path class="cls-4" d="M15.57 14.15s-2.66-3.27-.9-6.85 1.66-5.55 1.66-5.55 4.65 1.3 4.44 6-5.2 6.4-5.2 6.4z"/><path class="cls-4" d="M14 17.6s.48.26 2.09-.53a2.43 2.43 0 0 0 1.6-2.07"/><path class="cls-4" d="M15.57 14.15S15 10 16.42 8"/><path class="cls-5" d="M17 16.47a3.07 3.07 0 0 1-.88.6 8.8 8.8 0 0 1-1 .41 7 7 0 0 0-3.26-2.9c-2.52-.94-3.13 2.21-3.53-1.11s1.96-3.91 5.15-1.47A11.63 11.63 0 0 1 17 16.47z"/><path class="cls-6" d="M17 16.47a3.65 3.65 0 0 1-.78.55 11.3 11.3 0 0 0-2.7-3c-2.63-2-4.66-2-5.09 0 0-.16 0-.33-.07-.51C8 10.14 10.29 9.56 13.48 12A11.63 11.63 0 0 1 17 16.47z"/><path class="cls-4" d="M17 16.47a3.07 3.07 0 0 1-.88.6 8.8 8.8 0 0 1-1 .41 7 7 0 0 0-3.26-2.9c-2.52-.94-3.13 2.21-3.53-1.11s1.96-3.91 5.15-1.47A11.63 11.63 0 0 1 17 16.47z"/></g></svg>