<svg xmlns="http://www.w3.org/2000/svg" viewBox="0 0 48 48"><defs><style>.cls-3{fill:#6dd627}.cls-4{fill:none;stroke:#45413c;stroke-linecap:round;stroke-linejoin:round}</style></defs><g><ellipse cx="24" cy="45.22" rx="13.62" ry="1.78" fill="#45413c" opacity=".15"/><path d="M35.7 25.12a6.53 6.53 0 0 1-.2-5.12 8.22 8.22 0 0 0 .6-2.39 8 8 0 0 0-15.54-3.51 7.29 7.29 0 0 1-3.66 4 13.82 13.82 0 0 0-7.41 9.07A13.89 13.89 0 0 0 36 35.49a13.8 13.8 0 0 0-.3-10.37z" fill="#9ceb60"/><g><path class="cls-3" d="M36 31.3a13.87 13.87 0 0 1-26.77-2.84 13.89 13.89 0 0 0 26.72 7 13.82 13.82 0 0 0 .72-6.93A13.51 13.51 0 0 1 36 31.3z"/></g><path class="cls-4" d="M35.5 20a8.22 8.22 0 0 0 .6-2.39 8 8 0 0 0-15.54-3.51 7.29 7.29 0 0 1-3.66 4 13.82 13.82 0 0 0-7.41 9.07A13.89 13.89 0 0 0 36 35.49a13.8 13.8 0 0 0-.25-10.37A6.53 6.53 0 0 1 35.5 20z"/><path d="M29.47 10.5a13.45 13.45 0 0 1 2-3.82 5.2 5.2 0 0 1 2.44-1.94s1.44-.32 2 .75a3.29 3.29 0 0 1 .43 1.88 6.48 6.48 0 0 0-2.74 1.25 15.82 15.82 0 0 0-2.31 3.13 2 2 0 0 1-1.82-1.25z" fill="#b89558"/><path d="M30.24 11.44a13.3 13.3 0 0 1 1.61-2.79 5.21 5.21 0 0 1 2.44-1.93 1.94 1.94 0 0 1 2 .67h.11a3.29 3.29 0 0 0-.43-1.88c-.57-1.07-2-.75-2-.75a5.2 5.2 0 0 0-2.44 1.94 13.32 13.32 0 0 0-2 3.82 2 2 0 0 0 .71.92z" fill="#debb7e"/><path class="cls-4" d="M29.47 10.5a13.32 13.32 0 0 1 2-3.82 5.2 5.2 0 0 1 2.44-1.94s1.44-.32 2 .75a3.29 3.29 0 0 1 .43 1.88 6.34 6.34 0 0 0-2.74 1.25 15.82 15.82 0 0 0-2.31 3.13 2 2 0 0 1-1.82-1.25z"/><path class="cls-3" d="M29.77 8.27s.83-3.07-2.82-5c-3.15-1.59-4.95-.78-7.18-.7a.73.73 0 0 0-.65 1c1.6 3.43 5 7.73 10.65 4.7z"/><path d="M20 2.55h-.24a.73.73 0 0 0-.65 1c1.6 3.36 5 7.7 10.65 4.67a4 4 0 0 0-.31-2.52C24.87 8 21.8 5.41 20 2.55z" fill="#46b000"/><path class="cls-4" d="M29.77 8.27s.83-3.07-2.82-5c-3.15-1.59-4.95-.78-7.18-.7a.73.73 0 0 0-.65 1c1.6 3.43 5 7.73 10.65 4.7z"/></g></svg>