<svg xmlns="http://www.w3.org/2000/svg" viewBox="0 0 48 48"><defs><style>.cls-3{fill:none}.cls-3,.cls-7,.cls-9{stroke:#45413c;stroke-linecap:round;stroke-linejoin:round}.cls-9{fill:#45413c}.cls-10,.cls-7{fill:#e04122}</style></defs><path d="M34.94 7l-2.16-.29a.86.86 0 0 1-.71-1.13A1.43 1.43 0 0 0 30 3.88l-2.37 1.43a.87.87 0 0 1-1.24-.38l-1.09-2.4a1.43 1.43 0 0 0-2.6 0l-1.09 2.4a.87.87 0 0 1-1.24.38L18 3.88a1.43 1.43 0 0 0-2.11 1.67.86.86 0 0 1-.71 1.13L13.06 7a1.43 1.43 0 0 0-.58 2.63l2.41 1.53h18.22l2.41-1.56a1.43 1.43 0 0 0-.58-2.6z" fill="#6dd627"/><path d="M34.94 7l-2.16-.29a.86.86 0 0 1-.71-1.13A1.43 1.43 0 0 0 30 3.88l-2.37 1.43a.87.87 0 0 1-1.24-.38l-1.09-2.4a1.43 1.43 0 0 0-2.6 0l-1.09 2.4a.87.87 0 0 1-1.24.38L18 3.88a1.43 1.43 0 0 0-2.11 1.67.86.86 0 0 1-.71 1.13L13.06 7a1.44 1.44 0 0 0-1.12 2 1.38 1.38 0 0 1 1.12-.68l2.16-.21c.54-.06.88-.47.71-.86-.42-1 1-1.82 2.11-1.28L20.37 7a1 1 0 0 0 1.24-.29l1.09-1.79a1.64 1.64 0 0 1 2.6 0l1.09 1.83a1 1 0 0 0 1.24.25L30 6c1.14-.54 2.53.31 2.11 1.28-.17.39.17.8.71.86l2.16.21a1.38 1.38 0 0 1 1.08.65 1.44 1.44 0 0 0-1.12-2z" fill="#9ceb60"/><path class="cls-3" d="M34.94 7l-2.16-.29a.86.86 0 0 1-.71-1.13A1.43 1.43 0 0 0 30 3.88l-2.37 1.43a.87.87 0 0 1-1.24-.38l-1.09-2.4a1.43 1.43 0 0 0-2.6 0l-1.09 2.4a.87.87 0 0 1-1.24.38L18 3.88a1.43 1.43 0 0 0-2.11 1.67.86.86 0 0 1-.71 1.13L13.06 7a1.43 1.43 0 0 0-.58 2.63l2.41 1.53h18.22l2.41-1.56a1.43 1.43 0 0 0-.58-2.6z"/><ellipse cx="24" cy="45.5" rx="11.5" ry="1.5" opacity=".15" fill="#45413c"/><path d="M26.11 7.55h-4.22C9.67 7.55 2.09 20.49 9 30l8.78 11.68a7.67 7.67 0 0 0 6.21 3 7.67 7.67 0 0 0 6.21-3L39 30c6.91-9.51-.67-22.45-12.89-22.45z" fill="#ff6242"/><path d="M21.89 13h4.22a15.3 15.3 0 0 1 15.22 11.84c1.82-8.44-5.11-17.29-15.22-17.29h-4.22c-10.11 0-17 8.85-15.22 17.29A15.3 15.3 0 0 1 21.89 13z" fill="#ff866e"/><path class="cls-3" d="M26.11 7.55h-4.22C9.67 7.55 2.09 20.49 9 30l8.78 11.68a7.67 7.67 0 0 0 6.21 3 7.67 7.67 0 0 0 6.21-3L39 30c6.91-9.51-.67-22.45-12.89-22.45z"/><ellipse class="cls-7" cx="24" cy="12.53" rx="1" ry="1.75"/><ellipse class="cls-7" cx="14" cy="14.78" rx="1" ry="1.75"/><ellipse class="cls-7" cx="34" cy="14.78" rx="1" ry="1.75"/><path d="M24 34.69a2.23 2.23 0 0 1-2.22-2l-.24-3a.5.5 0 0 1 .5-.54H26a.5.5 0 0 1 .5.54l-.24 3a2.22 2.22 0 0 1-2.26 2z" fill="#ff866e" stroke="#45413c" stroke-linecap="round" stroke-linejoin="round"/><circle class="cls-9" cx="31.5" cy="21.69" r="1.5"/><circle class="cls-9" cx="16.5" cy="21.69" r="1.5"/><path class="cls-10" d="M36.5 27.87c0 .56-.81 1-1.82 1s-1.82-.44-1.82-1 .82-1 1.82-1 1.82.45 1.82 1z"/><path class="cls-10" d="M15.14 27.87c0 .56-.82 1-1.82 1s-1.82-.44-1.82-1 .81-1 1.82-1 1.82.45 1.82 1z"/></svg>