<svg xmlns="http://www.w3.org/2000/svg" viewBox="0 0 48 48"><g><ellipse cx="24" cy="44.66" rx="17.91" ry="2.34" fill="#45413c" opacity=".15"/><path d="M44.48 22.39C46.77 32 39.29 41.24 28 43.93S5.87 41.76 3.58 32.14C.33 18.53 15 12.87 18.06 5a.76.76 0 0 1 1.21-.29c6.31 5.64 21.99 4.19 25.21 17.68z" fill="#bf8256"/><path d="M5.9 24.59a23.38 23.38 0 0 1 30.78-7.34 15.07 15.07 0 0 1 7.8 10.07c.08.35.12.69.18 1a15 15 0 0 0-.18-6c-3.22-13.49-18.9-12-25.21-17.73a.76.76 0 0 0-1.21.41c-3 7.67-16.83 13.23-14.73 26a16.19 16.19 0 0 1 2.57-6.41z" fill="#dea47a"/><path d="M44.48 22.39C46.77 32 39.29 41.24 28 43.93S5.87 41.76 3.58 32.14C.33 18.53 15 12.87 18.06 5a.76.76 0 0 1 1.21-.29c6.31 5.64 21.99 4.19 25.21 17.68z" stroke="#45413c" stroke-linecap="round" stroke-linejoin="round" fill="none"/><path d="M40.8 33.55a11.4 11.4 0 0 1-9.42 1.35 11.37 11.37 0 0 0-10.48 2.49 11.3 11.3 0 0 1-9.32 2.74l-3.72-.58C12.55 44 20.16 45.8 28 43.93c7.51-1.79 13.31-6.48 15.69-12.24z" fill="#f7e5c6" stroke="#45413c" stroke-linecap="round" stroke-linejoin="round"/></g></svg>