<svg xmlns="http://www.w3.org/2000/svg" viewBox="0 0 48 48"><defs><style>.cls-4{fill:none;stroke:#45413c;stroke-linecap:round;stroke-linejoin:round}</style></defs><g><ellipse cx="24" cy="45.11" rx="20.12" ry="1.89" fill="#45413c" opacity=".15"/><path d="M23.37 7.15c-9.53 0-16 2.83-19.49 6.92L16.46 31l7.54-.34V45.5l16.92-4a2.52 2.52 0 0 0 1.94-2.45V25.9a8.92 8.92 0 0 1 1.38-4.58 8.05 8.05 0 0 0 1.13-4.48c-.37-7.66-14.02-9.69-22-9.69z" fill="#b89558"/><path d="M43.87 22c.11-.22.24-.45.37-.67a8.05 8.05 0 0 0 1.13-4.48c-.35-7.66-14-9.69-22-9.69-9.53 0-16 2.83-19.49 6.92l8.73 11.77h1s9-8.49 18.65-9.85c6.68-1 11.93-.36 11.61 6z" fill="#debb7e"/><path class="cls-4" d="M23.37 7.15c-9.53 0-16 2.83-19.49 6.92L16.46 31l7.54-.34V45.5l16.92-4a2.52 2.52 0 0 0 1.94-2.45V25.9a8.92 8.92 0 0 1 1.38-4.58 8.05 8.05 0 0 0 1.13-4.48c-.37-7.66-14.02-9.69-22-9.69z"/><path d="M26.51 22.85A8.08 8.08 0 0 0 20.28 15L8.8 12.31a4.86 4.86 0 0 0-6.17 4.53 8.05 8.05 0 0 0 1.13 4.48 8.92 8.92 0 0 1 1.38 4.58v13.2a2.51 2.51 0 0 0 1.94 2.45L24 45.5V30a5.94 5.94 0 0 1 1.31-3.88 5 5 0 0 0 1.2-3.27z" fill="#f7e5c6"/><g><path d="M3.47 19.35a4.58 4.58 0 0 1 5.73-4.52l10.68 2.68a8 8 0 0 1 5.8 7.86 2.3 2.3 0 0 1 0 .26 4.87 4.87 0 0 0 .86-2.78A8.08 8.08 0 0 0 20.28 15L8.8 12.31a4.86 4.86 0 0 0-6.17 4.53 8 8 0 0 0 .94 4.09 8.23 8.23 0 0 1-.1-1.58z" fill="#fff5e3"/></g><path class="cls-4" d="M26.51 22.85A8.08 8.08 0 0 0 20.28 15L8.8 12.31a4.86 4.86 0 0 0-6.17 4.53 8.05 8.05 0 0 0 1.13 4.48 8.92 8.92 0 0 1 1.38 4.58v13.2a2.51 2.51 0 0 0 1.94 2.45L24 45.5V30a5.94 5.94 0 0 1 1.31-3.88 5 5 0 0 0 1.2-3.27z"/></g></svg>