<svg xmlns="http://www.w3.org/2000/svg" viewBox="0 0 48 48"><defs><style>.cls-10,.cls-2{fill:#debb7e}.cls-4{fill:none}.cls-10,.cls-4{stroke:#45413c;stroke-linecap:round;stroke-linejoin:round}</style></defs><g><ellipse cx="24" cy="44.34" rx="20.46" ry="1.66" fill="#45413c" opacity=".15"/><g><path class="cls-2" d="M43.35 31.34v5c0 4-8.66 7.19-19.35 7.19S4.65 40.28 4.65 36.31v-5z"/><g><path d="M4.65 33.55c0 4 8.66 7.19 19.35 7.19s19.35-3.22 19.35-7.19v-2.21H4.65z" fill="#b89558"/></g><path class="cls-4" d="M43.35 31.34v5c0 4-8.66 7.19-19.35 7.19S4.65 40.28 4.65 36.31v-5z"/></g><g><path d="M24 38c23.84 0 23.22-7.74 20.46-12.16-2.77-3.9-9.16-7.22-20.46-7.22S6.31 21.94 3.54 25.81C.78 30.23.16 38 24 38z" fill="#bf8256" stroke="#45413c" stroke-linecap="round" stroke-linejoin="round"/></g><path d="M43.35 23.6s3.32 1.1 3.32 4.42-4.43.55-6.08 1.66-.42 3.64-2.77 4.42c-3.32 1.11-5-2.09-7.19-1.66C27.87 33 29 35.76 24 35.76s-3.87-2.76-6.63-3.32c-2.17-.44-3.87 2.77-7.19 1.66-2.35-.78-1.11-3.32-2.77-4.42S1.33 31.34 1.33 28s3.32-4.4 3.32-4.4z" fill="#6dd627" stroke="#45413c" stroke-linecap="round" stroke-linejoin="round"/><path d="M6.86 25.81s-1.84 3.82 2.21 5c3.87 1.11 7.74-2.21 11.06-2.21s6.42 4.89 10.5 3.87c4.43-1.1 2.22-3.31 5-4.42s12.16 2.76 6.63-3.87z" fill="#ff6242" stroke="#45413c" stroke-linecap="round" stroke-linejoin="round"/><path d="M25.11 29.13h-9.4v2.76a2.21 2.21 0 0 0 2.21 2.21H19v2.49a1.94 1.94 0 0 0 3.87 0v-4.15a2.21 2.21 0 0 0 2.22-2.21z" fill="#ffe500" stroke="#45413c" stroke-linecap="round" stroke-linejoin="round"/><g><g><path d="M43.35 23c0 4-8.66 7.19-19.35 7.19S4.65 27 4.65 23c0 0 1.11-12.71 19.35-12.71S43.35 23 43.35 23z" fill="#f0d5a8"/><path class="cls-2" d="M24 26.36c-9.13 0-16.79-2.35-18.82-5.51A10.37 10.37 0 0 0 4.65 23c0 4 8.66 7.19 19.35 7.19S43.35 27 43.35 23a10.37 10.37 0 0 0-.53-2.19C40.79 24 33.13 26.36 24 26.36z"/><path class="cls-4" d="M43.35 23c0 4-8.66 7.19-19.35 7.19S4.65 27 4.65 23c0 0 1.11-12.71 19.35-12.71S43.35 23 43.35 23z"/></g><path class="cls-10" d="M12.66 16.18a1.11 1.11 0 0 0-.78 1.36 1.09 1.09 0 0 0 1.35.78L14.3 18a1.1 1.1 0 1 0-.58-2.13z"/><path class="cls-10" d="M19.12 19.17a1.11 1.11 0 1 0 2 .92l.45-1a1.09 1.09 0 0 0-.54-1.46 1.11 1.11 0 0 0-1.47.54z"/><path class="cls-10" d="M35.34 16.18a1.11 1.11 0 0 1 .78 1.36 1.09 1.09 0 0 1-1.35.78L33.7 18a1.1 1.1 0 1 1 .58-2.13z"/><path class="cls-10" d="M28.88 19.17a1.11 1.11 0 0 1-2 .92l-.45-1a1.09 1.09 0 0 1 .57-1.47 1.11 1.11 0 0 1 1.47.54z"/></g></g></svg>