<svg xmlns="http://www.w3.org/2000/svg" viewBox="0 0 48 48"><defs><style>.cls-10,.cls-2{fill:#debb7e}.cls-4{fill:none}.cls-10,.cls-4,.cls-5,.cls-6,.cls-7{stroke:#45413c;stroke-linecap:round;stroke-linejoin:round}.cls-5{fill:#bf8256}.cls-6{fill:#6dd627}.cls-7{fill:#ffe500}</style></defs><g><ellipse cx="24" cy="44.36" rx="20.23" ry="1.64" fill="#45413c" opacity=".15"/><g><path class="cls-2" d="M43.14 31.47v4.92c0 3.93-8.57 7.11-19.14 7.11S4.86 40.32 4.86 36.39v-4.92z"/><g><path d="M4.86 33.66c0 3.92 8.57 7.11 19.14 7.11s19.14-3.19 19.14-7.11v-2.19H4.86z" fill="#b89558"/></g><path class="cls-4" d="M43.14 31.47v4.92c0 3.93-8.57 7.11-19.14 7.11S4.86 40.32 4.86 36.39v-4.92z"/></g><g><path class="cls-5" d="M24 38c23.58 0 23-7.65 20.23-12-2.73-3.82-9.06-7.1-20.23-7.1S6.5 22.18 3.77 26C1 30.38.42 38 24 38z"/></g><path class="cls-6" d="M43.14 23.82s3.28 1.09 3.28 4.37-4.38.55-6 1.64-.41 3.6-2.73 4.38c-3.28 1.09-5-2.07-7.11-1.64-2.73.54-1.64 3.28-6.56 3.28s-3.83-2.74-6.56-3.28c-2.15-.43-3.83 2.73-7.11 1.64-2.35-.78-1.11-3.28-2.75-4.38s-6 1.64-6-1.64 3.28-4.37 3.28-4.37z"/><path class="cls-7" d="M42.59 27.14h-9.3v3.24a2.19 2.19 0 0 0 2.19 2.19h1.09V35a1.92 1.92 0 0 0 3.83 0v-4.1a2.19 2.19 0 0 0 2.19-2.19z"/><g><g><path class="cls-5" d="M24 30.38c23.58 0 23-7.66 20.23-12-2.73-3.86-9.06-7.14-20.23-7.14S6.5 14.52 3.77 18.35C1 22.72.42 30.38 24 30.38z"/></g><path class="cls-6" d="M43.14 16.16s3.28 1.1 3.28 4.38-4.38.54-6 1.64-.41 3.6-2.73 4.37c-3.28 1.09-5-2.07-7.11-1.64-2.73.55-1.64 3.28-6.56 3.28s-3.83-2.73-6.56-3.28c-2.15-.43-3.83 2.73-7.11 1.64-2.35-.77-1.11-3.28-2.75-4.37s-6 1.64-6-1.64 3.28-4.38 3.28-4.38z"/><path d="M7.05 18.35s-1.82 3.78 2.19 4.92c3.83 1.09 7.65-2.19 10.93-2.19s6.35 4.84 10.39 3.83c4.37-1.09 2.19-3.28 4.92-4.37s12 2.73 6.56-3.83z" fill="#ff6242" stroke="#45413c" stroke-linecap="round" stroke-linejoin="round"/><path class="cls-7" d="M26.73 21.63h-9.29v2.73a2.19 2.19 0 0 0 2.19 2.19h1.09V29a1.92 1.92 0 1 0 3.83 0v-4.1a2.19 2.19 0 0 0 2.18-2.19z"/><g><g><path d="M43.14 15.62c0 3.92-8.57 7.1-19.14 7.1s-19.14-3.18-19.14-7.1C4.86 15.62 6 3 24 3s19.14 12.62 19.14 12.62z" fill="#f0d5a8"/><path class="cls-2" d="M24 18.9c-9 0-16.61-2.33-18.61-5.46a10.23 10.23 0 0 0-.53 2.18c0 3.92 8.57 7.1 19.14 7.1s19.14-3.18 19.14-7.1a10.23 10.23 0 0 0-.53-2.18C40.61 16.57 33 18.9 24 18.9z"/><path class="cls-4" d="M43.14 15.62c0 3.92-8.57 7.1-19.14 7.1s-19.14-3.18-19.14-7.1C4.86 15.62 6 3 24 3s19.14 12.62 19.14 12.62z"/></g><path class="cls-10" d="M12.78 8.83a1.09 1.09 0 1 0 .57 2.11l1.06-.28a1.09 1.09 0 1 0-.57-2.11z"/><path class="cls-10" d="M19.18 11.79a1.09 1.09 0 0 0 2 .9l.45-1a1.09 1.09 0 0 0-2-.91z"/><path class="cls-10" d="M35.22 8.83a1.09 1.09 0 1 1-.57 2.11l-1.06-.28a1.09 1.09 0 1 1 .57-2.11z"/><path class="cls-10" d="M28.82 11.79a1.09 1.09 0 0 1-2 .9l-.45-1a1.09 1.09 0 1 1 2-.91z"/></g></g></g></svg>