<svg xmlns="http://www.w3.org/2000/svg" viewBox="0 0 48 48"><defs><style>.cls-4,.cls-7{fill:#ff6242;stroke:#45413c;stroke-linecap:round;stroke-linejoin:round}.cls-7{fill:none}</style></defs><g><ellipse cx="24" cy="45.5" rx="11.5" ry="1.5" fill="#45413c" opacity=".15"/><g><path d="M40.63 11.39a37.49 37.49 0 0 0-33.26 0L9.63 16a18 18 0 0 1 1.87 8v4.44a2.07 2.07 0 0 0 1.66 2.08 2 2 0 0 0 2.34-2v-.68l7.61 15.36a1 1 0 0 0 1.78 0l2.61-5.27V40a1.5 1.5 0 0 0 3 0v-5.8a9.88 9.88 0 0 1 1-4.43c1.26-2.56 2.61-5.27 4-8v2.73a1.5 1.5 0 0 0 3 0V18a10.05 10.05 0 0 1 1-4.44z" fill="#ffe500"/><path d="M24 10.75a37.31 37.31 0 0 1 15.35 3.3c.06-.15.12-.31.19-.45l1.09-2.21a37.49 37.49 0 0 0-33.26 0L8.68 14A37.32 37.32 0 0 1 24 10.75z" fill="#ebcb00"/><path class="cls-4" d="M30.5 22.5a4.5 4.5 0 0 0 0 9h.19c1.11-2.23 2.29-4.62 3.49-7.06a4.47 4.47 0 0 0-3.68-1.94z"/><path class="cls-4" d="M23.5 33a4.49 4.49 0 0 0-4.5-4.5 4.44 4.44 0 0 0-2.71.93l3.91 7.89A4.49 4.49 0 0 0 23.5 33z"/><circle class="cls-4" cx="30.5" cy="14.5" r="4.5"/><path d="M24 7.5a37.27 37.27 0 0 1 16.63 3.89s2.47.31 2.87-1.89c1-5.5-15.33-7-19.5-7S3.5 4 4.5 9.5c.4 2.2 2.87 1.89 2.87 1.89A37.27 37.27 0 0 1 24 7.5z" fill="#f0d5a8"/><path d="M4.54 9.66C8.18 6.07 20.4 5 24 5s15.82 1.07 19.46 4.66V9.5c1-5.5-15.33-7-19.5-7S3.5 4 4.5 9.5c.01.06.03.1.04.16z" fill="#f7e5c6"/><path class="cls-7" d="M24 7.5a37.27 37.27 0 0 1 16.63 3.89s2.47.31 2.87-1.89c1-5.5-15.33-7-19.5-7S3.5 4 4.5 9.5c.4 2.2 2.87 1.89 2.87 1.89A37.27 37.27 0 0 1 24 7.5z"/><circle class="cls-4" cx="17" cy="17" r="4.5"/><path id="_Line_" data-name="&lt;Line&gt;" class="cls-7" d="M15.5 27.82V25.5"/><path class="cls-7" d="M40.63 11.39a37.49 37.49 0 0 0-33.26 0L9.63 16a18 18 0 0 1 1.87 8v4.44a2.07 2.07 0 0 0 1.66 2.08 2 2 0 0 0 2.34-2v-.68l7.61 15.36a1 1 0 0 0 1.78 0l2.61-5.27V40a1.5 1.5 0 0 0 3 0v-5.8a9.88 9.88 0 0 1 1-4.43c1.26-2.56 2.61-5.27 4-8v2.73a1.5 1.5 0 0 0 3 0V18a10.05 10.05 0 0 1 1-4.44z"/><path id="_Line_2" data-name="&lt;Line&gt;" class="cls-7" d="M27.5 35.5v2.43"/><path id="_Line_3" data-name="&lt;Line&gt;" class="cls-7" d="M35.5 20v1.76"/></g></g></svg>