<svg xmlns="http://www.w3.org/2000/svg" viewBox="0 0 48 48"><defs><style>.cls-4{fill:none;stroke:#45413c;stroke-linecap:round;stroke-linejoin:round}</style></defs><g><ellipse cx="20.48" cy="45.32" rx="12.92" ry="1.68" fill="#45413c" opacity=".15"/><path d="M36.4 9.22L32 13.65A17.41 17.41 0 1 0 34.35 16l4.43-4.43z" fill="#87898c"/><path d="M34.81 10.81L32 13.65A17.4 17.4 0 0 0 3.56 28.39a17.4 17.4 0 0 1 26.8-13.33 2.5 2.5 0 0 0 3.12-.32l2.63-2.63z" fill="#bdbec0"/><path class="cls-4" d="M36.4 9.22L32 13.65A17.41 17.41 0 1 0 34.35 16l4.43-4.43z"/><path d="M43.94 4.06a2.8 2.8 0 0 0-4 0l-5.13 5.16a1.12 1.12 0 0 0 0 1.59l2.38 2.38a1.12 1.12 0 0 0 1.59 0L43.94 8a2.8 2.8 0 0 0 0-3.94z" fill="#ffe500"/><path d="M43.94 4.06a2.8 2.8 0 0 0-4 0l-5.13 5.16a1.12 1.12 0 0 0 0 1.59l.85.85a.8.8 0 0 1 .13-.19L41 6.3a2.8 2.8 0 0 1 3.8-.14 2.75 2.75 0 0 0-.86-2.1z" fill="#fff48c"/><path class="cls-4" d="M43.94 4.06a2.8 2.8 0 0 1 0 4l-5.16 5.16a1.12 1.12 0 0 1-1.59 0l-2.38-2.38a1.12 1.12 0 0 1 0-1.59L40 4.06a2.8 2.8 0 0 1 3.94 0z"/><circle cx="20.91" cy="27.09" r="14.04" fill="#656769"/><path d="M11 20.53a14 14 0 0 1 23.86 8.24 14 14 0 1 0-27.86 0 14 14 0 0 1 4-8.24z" fill="#525252"/><circle class="cls-4" cx="20.91" cy="27.09" r="14.04"/><path d="M26.55 25.42a1.67 1.67 0 0 1-1.67-1.67 4.74 4.74 0 0 0-5.57-4.91 8.43 8.43 0 1 0 9.94 9.71 2.7 2.7 0 0 0-2.7-3.13z" fill="#f0f0f0"/><path d="M12.67 28.63A8.44 8.44 0 0 1 19.31 22a4.74 4.74 0 0 1 5.57 4.91 1.68 1.68 0 0 0 1.67 1.68 2.78 2.78 0 0 1 2.35 1.3 8.38 8.38 0 0 0 .35-1.33 2.7 2.7 0 0 0-2.7-3.13 1.67 1.67 0 0 1-1.67-1.67 4.74 4.74 0 0 0-5.57-4.91 8.42 8.42 0 0 0-6.64 6.63 8.82 8.82 0 0 0 0 3.2z" fill="#fff"/><path class="cls-4" d="M26.55 25.42a1.67 1.67 0 0 1-1.67-1.67 4.74 4.74 0 0 0-5.57-4.91 8.43 8.43 0 1 0 9.94 9.71 2.7 2.7 0 0 0-2.7-3.13z"/><circle cx="19.82" cy="28.23" r="3.37" fill="#ffaa54"/><path d="M19.82 26.86A3.35 3.35 0 0 1 23 29.23a3.33 3.33 0 0 0 .17-1 3.37 3.37 0 0 0-6.74 0 3.33 3.33 0 0 0 .17 1 3.36 3.36 0 0 1 3.22-2.37z" fill="#fc9"/><circle class="cls-4" cx="19.82" cy="28.23" r="3.37"/></g></svg>