<svg xmlns="http://www.w3.org/2000/svg" viewBox="0 0 48 48"><defs><style>.cls-4,.cls-7{fill:none;stroke:#4f4b45;stroke-linejoin:round}.cls-7{stroke-linecap:round}</style></defs><g><ellipse cx="24" cy="44.17" rx="21.92" ry="1.83" fill="#45413c" opacity=".15"/><path d="M45.92 33.68a5.06 5.06 0 0 0-1-3 4.74 4.74 0 0 0 0-.65 5.1 5.1 0 0 0-1.91-4v-.22a5.1 5.1 0 0 0-2.73-4.52 2 2 0 0 0 0-.35 1.8 1.8 0 0 0-.86-1.82 4.89 4.89 0 0 0 .24-1.12 4.67 4.67 0 0 0-3-4.4 1.93 1.93 0 0 0-1.56-1.83 5 5 0 0 0-3.64-4.39A2.53 2.53 0 0 0 29 5.6 5.65 5.65 0 0 0 24.28 3a5.11 5.11 0 0 0-3.06 1 5 5 0 0 0-1-.1 4.72 4.72 0 0 0-4.47 3.28 2.23 2.23 0 0 0-2 2.18 2.72 2.72 0 0 0 .05.49c-1.72.82-3.83 2.57-3.83 4.61a3.21 3.21 0 0 0 .19 1.07c-1.64.81-2.17 2.17-2.22 4.11a2 2 0 0 0-1.66 2 2.16 2.16 0 0 0 .06.51 5.39 5.39 0 0 0-2 4.54 5.11 5.11 0 0 0-1.58 6.81 5.11 5.11 0 0 0 2.68 7.35 2.55 2.55 0 0 0 2.38 1.65 2.83 2.83 0 0 0 .41 0 5 5 0 0 0 3.52 1.42 5.65 5.65 0 0 0 2.87-.39h18.76a8.09 8.09 0 0 0 4.27.59 5.64 5.64 0 0 0 4.6-4.16 2.54 2.54 0 0 0 2.1-2.5v-.06a5.09 5.09 0 0 0 1.57-3.72z" fill="#fff"/><g><path d="M44.35 33.57v.06a2.54 2.54 0 0 1-2.1 2.5 5.63 5.63 0 0 1-4.6 4.16c-1.75.33-3.63-.69-4.27-1H14.62a5.81 5.81 0 0 1-2.87.78 5 5 0 0 1-3.52-1.42 1.9 1.9 0 0 1-.41 0 2.54 2.54 0 0 1-2.38-1.66 5.12 5.12 0 0 1-3-2.9 5 5 0 0 0-.37 1.9 5.11 5.11 0 0 0 3.36 4.8 2.55 2.55 0 0 0 2.39 1.71 2.83 2.83 0 0 0 .41 0 5 5 0 0 0 3.52 1.42 5.65 5.65 0 0 0 2.87-.39h18.76a8.09 8.09 0 0 0 4.27.59 5.64 5.64 0 0 0 4.6-4.16 2.54 2.54 0 0 0 2.1-2.5v-.06a5.09 5.09 0 0 0 1.57-3.69 5 5 0 0 0-.37-1.9 5.09 5.09 0 0 1-1.2 1.76z" fill="#f0f0f0"/></g><path class="cls-4" d="M45.92 33.68a5.06 5.06 0 0 0-1-3 4.74 4.74 0 0 0 0-.65 5.1 5.1 0 0 0-1.91-4v-.22a5.1 5.1 0 0 0-2.73-4.52 2 2 0 0 0 0-.35 1.8 1.8 0 0 0-.86-1.82 4.89 4.89 0 0 0 .24-1.12 4.67 4.67 0 0 0-3-4.4 1.93 1.93 0 0 0-1.56-1.83 5 5 0 0 0-3.64-4.39A2.53 2.53 0 0 0 29 5.6 5.65 5.65 0 0 0 24.28 3a5.11 5.11 0 0 0-3.06 1 5 5 0 0 0-1-.1 4.72 4.72 0 0 0-4.47 3.28 2.23 2.23 0 0 0-2 2.18 2.72 2.72 0 0 0 .05.49c-1.72.82-3.83 2.57-3.83 4.61a3.21 3.21 0 0 0 .19 1.07c-1.64.81-2.17 2.17-2.22 4.11a2 2 0 0 0-1.66 2 2.16 2.16 0 0 0 .06.51 5.39 5.39 0 0 0-2 4.54 5.11 5.11 0 0 0-1.58 6.81 5.11 5.11 0 0 0 2.68 7.35 2.55 2.55 0 0 0 2.38 1.65 2.83 2.83 0 0 0 .41 0 5 5 0 0 0 3.52 1.42 5.65 5.65 0 0 0 2.87-.39h18.76a8.09 8.09 0 0 0 4.27.59 5.64 5.64 0 0 0 4.6-4.16 2.54 2.54 0 0 0 2.1-2.5v-.06a5.09 5.09 0 0 0 1.57-3.72z"/><path d="M15.71 26.17h16.58a1.1 1.1 0 0 1 1.1 1.1V43.5H14.62V27.27a1.1 1.1 0 0 1 1.09-1.1z" fill="#656769"/><path fill="#525252" d="M14.62 39.31h18.77v4.19H14.62z"/><path class="cls-4" d="M15.71 26.17h16.58a1.1 1.1 0 0 1 1.1 1.1V43.5H14.62V27.27a1.1 1.1 0 0 1 1.09-1.1z"/><path class="cls-7" d="M22.57 9.68A2 2 0 0 0 21 11.12a3.14 3.14 0 0 0-.81 0 2.89 2.89 0 0 0-2.4 2.3 2.11 2.11 0 0 0-.56 0 2 2 0 0 0-1.65 2.26"/><path class="cls-7" d="M36 20.78a1.6 1.6 0 0 0-1.61-1.59 2.67 2.67 0 0 0-2.67-2.66 2.73 2.73 0 0 0-1.33.36A1.45 1.45 0 0 0 29 16"/><path class="cls-7" d="M10.32 24.92a3.25 3.25 0 0 0-1.24 3.3 1.82 1.82 0 0 0-.63.3A1.76 1.76 0 0 0 8 30.75a2.13 2.13 0 0 0-.45 3"/><path class="cls-7" d="M37.91 37a3.19 3.19 0 0 0 2.55-5.11 1.66 1.66 0 0 0 .35-1 1.69 1.69 0 0 0-2-1.65 2 2 0 0 0-1.74-3.09"/></g></svg>