<svg xmlns="http://www.w3.org/2000/svg" viewBox="0 0 48 48"><defs><style>.cls-2{fill:#ff6242}.cls-2,.cls-5,.cls-8{stroke:#45413c;stroke-linecap:round;stroke-linejoin:round}.cls-5{fill:none}.cls-8{fill:#fff}</style></defs><g><ellipse cx="24" cy="44.86" rx="17.87" ry="2.14" fill="#45413c" opacity=".15"/><path class="cls-2" d="M33.49 42.91c0 1.43-4.25 2.59-9.49 2.59s-9.49-1.16-9.49-2.59v-3.45h19z"/><path d="M3.3 17.89s4.31 6 20.7 6 20.7-6 20.7-6S48.16 42.05 24 42.05 3.3 17.89 3.3 17.89z" fill="#ff866e"/><path d="M24 29.41c12.41 0 18.29-3.05 20.65-4.82a27.89 27.89 0 0 0 .05-6.7s-4.31 6-20.7 6-20.7-6-20.7-6a27.89 27.89 0 0 0 .05 6.7c2.36 1.77 8.24 4.82 20.65 4.82z" fill="#ffa694"/><path class="cls-5" d="M3.3 17.89s4.31 6 20.7 6 20.7-6 20.7-6S48.16 42.05 24 42.05 3.3 17.89 3.3 17.89z"/><ellipse class="cls-2" cx="24" cy="17.46" rx="20.7" ry="6.47"/><path d="M24 3.52c-12.82 0-17.25 12.61-17.25 12.61s3.71 4.35 17.25 4.35 17.25-4.35 17.25-4.35S36.82 3.52 24 3.52z" fill="#f0f0f0"/><path d="M6.87 16.25A20 20 0 0 1 24 6.94a20 20 0 0 1 17.13 9.31l.12-.12S36.82 3.52 24 3.52 6.75 16.13 6.75 16.13z" fill="#fff"/><path class="cls-5" d="M24 3.52c-12.82 0-17.25 12.61-17.25 12.61s3.71 4.35 17.25 4.35 17.25-4.35 17.25-4.35S36.82 3.52 24 3.52z"/><path class="cls-8" d="M17.77 10.09c.36.7-.62 1.93-2.19 2.75s-3.15.93-3.52.23.62-1.94 2.19-2.76 3.15-.92 3.52-.22z"/><path class="cls-8" d="M22 13.27c.06.79-1.32 1.54-3.1 1.67s-3.25-.39-3.31-1.18 1.33-1.54 3.1-1.67 3.25.4 3.31 1.18z"/><path class="cls-8" d="M33.42 16.62c-.06.79-1.55 1.32-3.32 1.18s-3.16-.88-3.1-1.67 1.55-1.31 3.32-1.18 3.16.88 3.1 1.67z"/><path class="cls-8" d="M30.45 8.59c-.16.77-1.7 1.1-3.44.74S24 8 24.15 7.27s1.71-1.1 3.45-.74 3.02 1.29 2.85 2.06z"/><path class="cls-8" d="M37 13.94c.07.78-1.31 1.55-3.08 1.71s-3.26-.35-3.33-1.14 1.3-1.55 3.07-1.71 3.26.35 3.34 1.14z"/></g></svg>