<svg xmlns="http://www.w3.org/2000/svg" viewBox="0 0 48 48"><defs><style>.cls-2{fill:#fff}.cls-3{fill:none;stroke:#45413c;stroke-linecap:round;stroke-linejoin:round}.cls-4{fill:#ffe500}.cls-5{fill:#ebcb00}.cls-8{fill:#fff48c}.cls-12{fill:#bf8256}.cls-13{fill:#dea47a}</style></defs><g><path d="M45.83 6.83h-4.26a9.25 9.25 0 0 0-2.16.26 8.82 8.82 0 0 1-2.16.27h-9.63a1.78 1.78 0 0 1-1.49-.8 1.78 1.78 0 0 0-1.49-.8h-7v5.33h7a1.78 1.78 0 0 0 1.49-.8 1.78 1.78 0 0 1 1.49-.8h9.63a8.82 8.82 0 0 1 2.16.27 9.25 9.25 0 0 0 2.16.26h4.26a1.6 1.6 0 1 0 0-3.19z" fill="#e8f4fa"/><path class="cls-2" d="M26.13 8a2 2 0 0 0 1.49.6h9.63a12.06 12.06 0 0 0 2.16-.2 11.89 11.89 0 0 1 2.16-.2h4.26a1.62 1.62 0 0 1 1.5.8 1.62 1.62 0 0 0 .1-.54 1.6 1.6 0 0 0-1.6-1.59h-4.26a9.19 9.19 0 0 0-2.16.26 8.82 8.82 0 0 1-2.16.27h-9.63a1.78 1.78 0 0 1-1.49-.8 1.78 1.78 0 0 0-1.49-.8h-7v1.6h7a2 2 0 0 1 1.49.6z"/><path class="cls-3" d="M45.83 6.83h-4.26a9.25 9.25 0 0 0-2.16.26 8.82 8.82 0 0 1-2.16.27h-9.63a1.78 1.78 0 0 1-1.49-.8 1.78 1.78 0 0 0-1.49-.8h-7v5.33h7a1.78 1.78 0 0 0 1.49-.8 1.78 1.78 0 0 1 1.49-.8h9.63a8.82 8.82 0 0 1 2.16.27 9.25 9.25 0 0 0 2.16.26h4.26a1.6 1.6 0 1 0 0-3.19z"/><path class="cls-4" d="M18.14 10a1.07 1.07 0 0 0-1.06 1.07v4.79a1.07 1.07 0 0 0 2.13 0v-4.77A1.07 1.07 0 0 0 18.14 10z"/><path class="cls-5" d="M18.14 10a1.07 1.07 0 0 0-1.06 1.07v3.44h2.13v-3.42A1.07 1.07 0 0 0 18.14 10z"/><path class="cls-4" d="M19.21 10.02h2.13v13.31h-2.13z"/><path class="cls-5" d="M19.21 10.02h2.13v4.29h-2.13z"/><path class="cls-3" d="M18.14 10a1.07 1.07 0 0 0-1.06 1.07v4.79a1.07 1.07 0 0 0 2.13 0v-4.77A1.07 1.07 0 0 0 18.14 10z"/><path class="cls-3" d="M19.21 10.02h2.13v13.31h-2.13z"/><ellipse cx="24" cy="45.4" rx="12.25" ry="1.6" fill="#45413c" opacity=".15"/><path d="M44.76 31.59c0 6-9.29 10.91-20.76 10.91S3.24 37.61 3.24 31.59 12.53 21.2 24 21.2s20.76 4.36 20.76 10.39z" fill="#f0f0f0"/><path class="cls-2" d="M24 24.56c10.37 0 18.94 3.57 20.49 8.71a5.68 5.68 0 0 0 .27-1.68c0-6-9.29-10.39-20.76-10.39S3.24 25.56 3.24 31.59a5.68 5.68 0 0 0 .27 1.68c1.55-5.14 10.12-8.71 20.49-8.71z"/><path class="cls-3" d="M44.76 31.59c0 6-9.29 10.91-20.76 10.91S3.24 37.61 3.24 31.59 12.53 21.2 24 21.2s20.76 4.36 20.76 10.39z"/><path class="cls-4" d="M38.38 29.3c0 4.35-6.44 7.88-14.38 7.88S9.62 33.65 9.62 29.3s6.44-9.69 14.38-9.69S38.38 25 38.38 29.3z"/><path class="cls-8" d="M24 22.29c7.12 0 13 4.3 14.16 8.32a4.5 4.5 0 0 0 .22-1.31c0-4.35-6.44-9.69-14.38-9.69S9.62 25 9.62 29.3a4.5 4.5 0 0 0 .22 1.31C11 26.59 16.88 22.29 24 22.29z"/><path class="cls-3" d="M38.38 29.3c0 4.35-6.44 7.88-14.38 7.88S9.62 33.65 9.62 29.3s6.44-9.69 14.38-9.69S38.38 25 38.38 29.3z"/><path d="M11.31 33l-.09-.62A7.63 7.63 0 0 1 15 24.93" fill="#ffe500" stroke="#45413c" stroke-linecap="round" stroke-linejoin="round"/><path class="cls-3" d="M13.37 34.6v-.09s-1.15-5.54 3.2-8c0 0-2 6 2.43 7.57"/><path class="cls-3" d="M15.48 35.58s3.37.35 4.79-3.73a8.63 8.63 0 0 0-1.06-7.45"/><path class="cls-3" d="M19.21 36.64A6.74 6.74 0 0 0 24 31.85a13.73 13.73 0 0 0-.53-8.52"/><path class="cls-3" d="M24.53 29.19a8.85 8.85 0 0 0 6.21 2.67"/><path class="cls-3" d="M36.25 33.45a6.86 6.86 0 0 0 0-4.79 5.59 5.59 0 0 0-3.73-3.2c2 3.11 1.46 10.65-3.73 11.18S24 32.38 24 32.38c2.09 2.93 6 2.36 6.92-1.06A5.47 5.47 0 0 0 29.86 26"/><path d="M24.53 18.54c-8.07 0-10.87 3.46-11.18 5.86s1.91 3.72 4.26 3.19 2.75 3.51 8 3.2 4.08-3.15 7.45-4.26c2.12-.7 4-2.67 1.07-4.79a14.09 14.09 0 0 0-9.6-3.2z" fill="#ff6242"/><path d="M24.53 20.7a14.09 14.09 0 0 1 9.59 3.2 4.64 4.64 0 0 1 1.13 1.1c.62-.91.53-2.08-1.13-3.3a14.09 14.09 0 0 0-9.59-3.2c-8.07 0-10.87 3.46-11.18 5.86a3 3 0 0 0 .17 1.45c.73-2.27 3.71-5.11 11.01-5.11z" fill="#ff866e"/><path class="cls-3" d="M24.53 18.54c-8.07 0-10.87 3.46-11.18 5.86s1.91 3.72 4.26 3.19 2.75 3.51 8 3.2 4.08-3.15 7.45-4.26c2.12-.7 4-2.67 1.07-4.79a14.09 14.09 0 0 0-9.6-3.2z"/><path class="cls-4" d="M17.61 12.15a1.06 1.06 0 0 1-1.06-1.06v-4.8a1.06 1.06 0 0 1 1.06-1.06 1.07 1.07 0 0 1 1.07 1.06v4.8a1.07 1.07 0 0 1-1.07 1.06z"/><path class="cls-4" d="M19.74 12.15a1.06 1.06 0 0 1-1.06-1.06v-4.8a1.06 1.06 0 0 1 1.06-1.06 1.07 1.07 0 0 1 1.07 1.06v4.8a1.07 1.07 0 0 1-1.07 1.06z"/><path class="cls-4" d="M21.87 12.15a1.06 1.06 0 0 1-1.06-1.06V5.76a1.05 1.05 0 0 1 1.06-1.06 1.06 1.06 0 0 1 1.07 1.06v5.33a1.07 1.07 0 0 1-1.07 1.06z"/><path class="cls-8" d="M17.61 5.23a1.06 1.06 0 0 0-1.06 1.06v2.07a1.07 1.07 0 1 1 2.13 0V6.29a1.07 1.07 0 0 0-1.07-1.06z"/><path class="cls-8" d="M19.74 5.23a1.06 1.06 0 0 0-1.06 1.06v2.07a1.07 1.07 0 1 1 2.13 0V6.29a1.07 1.07 0 0 0-1.07-1.06z"/><path class="cls-8" d="M21.87 4.7a1.05 1.05 0 0 0-1.06 1.06v2.07a1.07 1.07 0 1 1 2.13 0V5.76a1.06 1.06 0 0 0-1.07-1.06z"/><path class="cls-3" d="M17.61 12.15a1.06 1.06 0 0 1-1.06-1.06v-4.8a1.06 1.06 0 0 1 1.06-1.06 1.07 1.07 0 0 1 1.07 1.06v4.8a1.07 1.07 0 0 1-1.07 1.06z"/><path class="cls-3" d="M19.74 12.15a1.06 1.06 0 0 1-1.06-1.06v-4.8a1.06 1.06 0 0 1 1.06-1.06 1.07 1.07 0 0 1 1.07 1.06v4.8a1.07 1.07 0 0 1-1.07 1.06z"/><path class="cls-3" d="M21.87 12.15a1.06 1.06 0 0 1-1.06-1.06V5.76a1.05 1.05 0 0 1 1.06-1.06 1.06 1.06 0 0 1 1.07 1.06v5.33a1.07 1.07 0 0 1-1.07 1.06z"/><path class="cls-4" d="M15.48 5.64a1.06 1.06 0 0 0-1.06 1.07v4a1.07 1.07 0 0 0 2.13 0v-4a1.07 1.07 0 0 0-1.07-1.07z"/><path class="cls-8" d="M15.48 5.64a1.06 1.06 0 0 0-1.06 1.07v1.81a1.07 1.07 0 1 1 2.13 0V6.71a1.07 1.07 0 0 0-1.07-1.07z"/><path class="cls-3" d="M15.48 5.64a1.06 1.06 0 0 0-1.06 1.07v4a1.07 1.07 0 0 0 2.13 0v-4a1.07 1.07 0 0 0-1.07-1.07z"/><rect class="cls-12" x="18.68" y="21.74" width="3.19" height="2.66" rx=".53" ry=".53" transform="rotate(9.59 20.304 23.087)"/><path class="cls-13" d="M18.71 24l.12-.7a.53.53 0 0 1 .61-.43l2.1.35a.49.49 0 0 1 .29.16l.15-.87a.54.54 0 0 0-.44-.62l-2.1-.35a.53.53 0 0 0-.61.43l-.27 1.58a.57.57 0 0 0 .15.45z"/><rect class="cls-3" x="18.68" y="21.74" width="3.19" height="2.66" rx=".53" ry=".53" transform="rotate(9.59 20.304 23.087)"/><rect class="cls-12" x="25.83" y="24.04" width="3.19" height="2.66" rx=".53" ry=".53" transform="rotate(-23.11 27.423 25.378)"/><path class="cls-13" d="M26 26.13l1.87-.8a.53.53 0 0 1 .7.28l.26.61h.08a.54.54 0 0 0 .29-.7L28.58 24a.54.54 0 0 0-.7-.28l-2 .84a.53.53 0 0 0-.28.7z"/><rect class="cls-3" x="25.83" y="24.04" width="3.19" height="2.66" rx=".53" ry=".53" transform="rotate(-23.11 27.423 25.378)"/><rect class="cls-12" x="25.28" y="18.01" width="3.19" height="2.66" rx=".53" ry=".53" transform="rotate(52.87 26.873 19.339)"/><path class="cls-13" d="M25.62 19.88l.93-.7a.54.54 0 0 1 .75.1l.83 1.11.35-.26a.54.54 0 0 0 .1-.75l-1.28-1.69a.54.54 0 0 0-.75-.11l-1.27 1a.53.53 0 0 0-.11.74z"/><rect class="cls-3" x="25.28" y="18.01" width="3.19" height="2.66" rx=".53" ry=".53" transform="rotate(52.87 26.873 19.339)"/></g></svg>