<svg xmlns="http://www.w3.org/2000/svg" viewBox="0 0 48 48"><defs><style>.cls-2{fill:#f0d5a8}.cls-4{fill:none;stroke:#45413c;stroke-linecap:round;stroke-linejoin:round}.cls-6{fill:#fffef2}</style></defs><g><ellipse cx="24" cy="45.5" rx="9.5" ry="1.5" fill="#45413c" opacity=".15"/><g><g><g><path class="cls-2" d="M31 31.89H17a.9.9 0 0 1-.88-.69l-.91-3.63a.91.91 0 0 1 .88-1.13h15.82a.91.91 0 0 1 .88 1.13l-.91 3.63a.9.9 0 0 1-.88.69z"/><path d="M15.49 28.71h17l.28-1.14a.91.91 0 0 0-.88-1.13h-15.8a.91.91 0 0 0-.88 1.13z" fill="#f7e5c6"/><path class="cls-4" d="M31 31.89H17a.9.9 0 0 1-.88-.69l-.91-3.63a.91.91 0 0 1 .88-1.13h15.82a.91.91 0 0 1 .88 1.13l-.91 3.63a.9.9 0 0 1-.88.69z"/></g><g><path class="cls-2" d="M26.15 45.5h-4.3a2.72 2.72 0 0 1-2.7-2.36l-1.5-11.25h12.7l-1.5 11.25a2.72 2.72 0 0 1-2.7 2.36z"/><path fill="#debb7e" d="M30.05 34.16l.3-2.27h-12.7l.3 2.27h12.1z"/><path class="cls-4" d="M26.15 45.5h-4.3a2.72 2.72 0 0 1-2.7-2.36l-1.5-11.25h12.7l-1.5 11.25a2.72 2.72 0 0 1-2.7 2.36z"/></g></g><g><g><path class="cls-6" d="M33 16.79a3.13 3.13 0 0 0 .5-1.69 3.17 3.17 0 0 0-3.18-3.17h-1.13a2.71 2.71 0 0 0-2-4.54h-1.37a2.7 2.7 0 0 1-2.35-4.05 5.89 5.89 0 0 0-5.37 5.84 8.35 8.35 0 0 0 .46 2.75h-.91a3.17 3.17 0 0 0-3.18 3.17 3.13 3.13 0 0 0 .5 1.69 5 5 0 0 0 1.77 9.65h14.52A5 5 0 0 0 33 16.79z"/><path d="M14.47 23.27a5 5 0 0 1 3.22-4.66 3.16 3.16 0 0 1 2.68-4.87h.91a8.57 8.57 0 0 1-.46-2.74 5.89 5.89 0 0 1 2.68-4.94 2.63 2.63 0 0 1 0-2.75 5.89 5.89 0 0 0-5.4 5.87 8.35 8.35 0 0 0 .46 2.75h-.91a3.17 3.17 0 0 0-3.18 3.17 3.13 3.13 0 0 0 .5 1.69 5 5 0 0 0 .52 9.49 5 5 0 0 1-1.02-3.01z" fill="#fff"/><path class="cls-4" d="M33 16.79a3.13 3.13 0 0 0 .5-1.69 3.17 3.17 0 0 0-3.18-3.17h-1.13a2.71 2.71 0 0 0-2-4.54h-1.37a2.7 2.7 0 0 1-2.35-4.05 5.89 5.89 0 0 0-5.37 5.84 8.35 8.35 0 0 0 .46 2.75h-.91a3.17 3.17 0 0 0-3.18 3.17 3.13 3.13 0 0 0 .5 1.69 5 5 0 0 0 1.77 9.65h14.52A5 5 0 0 0 33 16.79z"/></g><path class="cls-4" d="M31.71 20.09v1.36a1.36 1.36 0 1 1-2.72 0v-3.17"/><path class="cls-4" d="M23.55 14.65v2.27a1.37 1.37 0 0 1-2.73 0V16"/><g><path class="cls-6" d="M19.92 25.54v2.27a1.37 1.37 0 0 1-2.73 0v-2.27z"/><path class="cls-4" d="M19.92 26.44v1.37a1.37 1.37 0 0 1-2.73 0v-2.27"/></g></g></g></g></svg>