<svg xmlns="http://www.w3.org/2000/svg" viewBox="0 0 48 48"><defs><style>.cls-4{fill:none;stroke:#45413c;stroke-linecap:round;stroke-linejoin:round}.cls-6{fill:#ffb0ca}</style></defs><g><ellipse cx="24" cy="45.41" rx="15.34" ry="1.59" fill="#45413c" opacity=".15"/><path d="M24 3.38A20.62 20.62 0 1 0 44.62 24 20.62 20.62 0 0 0 24 3.38zm0 28.55A7.93 7.93 0 1 1 31.93 24 7.93 7.93 0 0 1 24 31.93z" fill="#fffacf"/><g><path d="M24 6.55a20.6 20.6 0 0 1 20.54 19c.05-.53.08-1.05.08-1.59A20.62 20.62 0 0 0 3.38 24c0 .54 0 1.06.08 1.59A20.6 20.6 0 0 1 24 6.55z" fill="#fffce5"/></g><path id="_Compound_Path_2" class="cls-4" d="M24 3.38A20.62 20.62 0 1 0 44.62 24 20.62 20.62 0 0 0 24 3.38zm0 28.55A7.93 7.93 0 1 1 31.93 24 7.93 7.93 0 0 1 24 31.93z"/><path id="_Compound_Path_3" d="M41.65 22.13a4.11 4.11 0 0 0-1.43-5.33 4.13 4.13 0 0 1-1.87-3.25 4.12 4.12 0 0 0-3.9-3.9 4.13 4.13 0 0 1-3.25-1.87 4.11 4.11 0 0 0-5.33-1.43 4.11 4.11 0 0 1-3.74 0 4.11 4.11 0 0 0-5.33 1.43 4.13 4.13 0 0 1-3.25 1.87 4.12 4.12 0 0 0-3.9 3.9 4.13 4.13 0 0 1-1.87 3.25 4.11 4.11 0 0 0-1.43 5.33 4.11 4.11 0 0 1 0 3.74 4.11 4.11 0 0 0 1.43 5.33 4.13 4.13 0 0 1 1.87 3.25 4.12 4.12 0 0 0 3.9 3.9 4.13 4.13 0 0 1 3.25 1.87 4.11 4.11 0 0 0 5.33 1.43 4.11 4.11 0 0 1 3.74 0 4.11 4.11 0 0 0 5.33-1.43 4.13 4.13 0 0 1 3.25-1.87 4.12 4.12 0 0 0 3.9-3.9 4.13 4.13 0 0 1 1.87-3.25 4.11 4.11 0 0 0 1.43-5.33 4.11 4.11 0 0 1 0-3.74zM24 31.93A7.93 7.93 0 1 1 31.93 24 7.93 7.93 0 0 1 24 31.93z" fill="#ff87af"/><path class="cls-4" d="M10.25 21.88l2.12 1.06"/><path class="cls-4" d="M13.95 30.35l-1.06 2.11"/><path class="cls-4" d="M36.16 25.06l.53 1.58"/><path class="cls-4" d="M36.69 18.71l-1.06 1.06"/><g><path class="cls-6" d="M24 35.76a7.93 7.93 0 0 0 7.93-7.93 8.14 8.14 0 0 0-.23-1.92 7.93 7.93 0 0 1-15.4 0 8.14 8.14 0 0 0-.23 1.92A7.93 7.93 0 0 0 24 35.76z"/><path class="cls-6" d="M6.37 22.16a4.14 4.14 0 0 1 1.41-1.54 4.1 4.1 0 0 0 1.87-3.24 4.11 4.11 0 0 1 3.9-3.9 4.14 4.14 0 0 0 3.25-1.88 4.12 4.12 0 0 1 5.33-1.43 4.05 4.05 0 0 0 3.74 0 4.12 4.12 0 0 1 5.33 1.43 4.14 4.14 0 0 0 3.25 1.88 4.11 4.11 0 0 1 3.9 3.9 4.1 4.1 0 0 0 1.87 3.24 4.14 4.14 0 0 1 1.41 1.54 4.11 4.11 0 0 0-1.43-5.33 4.13 4.13 0 0 1-1.87-3.25 4.12 4.12 0 0 0-3.9-3.9 4.13 4.13 0 0 1-3.23-1.9 4.11 4.11 0 0 0-5.33-1.43 4.11 4.11 0 0 1-3.74 0 4.11 4.11 0 0 0-5.33 1.43 4.13 4.13 0 0 1-3.25 1.87 4.12 4.12 0 0 0-3.9 3.9 4.13 4.13 0 0 1-1.87 3.25 4.11 4.11 0 0 0-1.43 5.33z"/></g><path id="_Compound_Path_4" class="cls-4" d="M41.65 22.13a4.11 4.11 0 0 0-1.43-5.33 4.13 4.13 0 0 1-1.87-3.25 4.12 4.12 0 0 0-3.9-3.9 4.13 4.13 0 0 1-3.25-1.87 4.11 4.11 0 0 0-5.33-1.43 4.11 4.11 0 0 1-3.74 0 4.11 4.11 0 0 0-5.33 1.43 4.13 4.13 0 0 1-3.25 1.87 4.12 4.12 0 0 0-3.9 3.9 4.13 4.13 0 0 1-1.87 3.25 4.11 4.11 0 0 0-1.43 5.33 4.11 4.11 0 0 1 0 3.74 4.11 4.11 0 0 0 1.43 5.33 4.13 4.13 0 0 1 1.87 3.25 4.12 4.12 0 0 0 3.9 3.9 4.13 4.13 0 0 1 3.25 1.87 4.11 4.11 0 0 0 5.33 1.43 4.11 4.11 0 0 1 3.74 0 4.11 4.11 0 0 0 5.33-1.43 4.13 4.13 0 0 1 3.25-1.87 4.12 4.12 0 0 0 3.9-3.9 4.13 4.13 0 0 1 1.87-3.25 4.11 4.11 0 0 0 1.43-5.33 4.11 4.11 0 0 1 0-3.74zM24 31.93A7.93 7.93 0 1 1 31.93 24 7.93 7.93 0 0 1 24 31.93z"/><circle cx="31.93" cy="13.42" r="1.59" fill="#ffe500" stroke="#45413c" stroke-linecap="round" stroke-linejoin="round"/><circle cx="15.01" cy="15.01" r="1.59" fill="#9ceb60" stroke="#45413c" stroke-linecap="round" stroke-linejoin="round"/><path class="cls-4" d="M27.17 10.25l-1.58 1.59"/><path class="cls-4" d="M18.71 10.25l1.59-1.06"/><circle cx="32.46" cy="32.46" r="1.59" fill="#ffb0ca" stroke="#45413c" stroke-linecap="round" stroke-linejoin="round"/><path class="cls-4" d="M21.88 36.69L24 35.63"/></g></svg>