<svg xmlns="http://www.w3.org/2000/svg" viewBox="0 0 48 48"><defs><style>.cls-5{stroke:#45413c;stroke-linecap:round;stroke-linejoin:round;fill:none}</style></defs><g><ellipse cx="24" cy="41.43" rx="19.7" ry="2.57" fill="#45413c" opacity=".15"/><path d="M17 26c1.31-1.06 4-1.78 7-1.78s5.72.72 7 1.79c-1.3 1.06-4 1.79-7 1.79s-5.72-.8-7-1.8zm7-14.32c-12.19 0-22.06 6.68-22.06 14.92S11.81 41.5 24 41.5s22.06-6.68 22.06-14.93S36.19 11.65 24 11.65z" stroke="#45413c" stroke-linecap="round" stroke-linejoin="round" fill="#fffacf"/><path id="_Compound_Path_2" d="M24 11.65c-11.09 0-20.27 5.53-21.83 12.73a4 4 0 0 1 2.42 2.9 3.86 3.86 0 0 0 2.49 2.92 5.91 5.91 0 0 1 2.84 2.05l1 1.25a3.41 3.41 0 0 0 3.83 1.26 6.42 6.42 0 0 1 5.68.76 6.43 6.43 0 0 0 7.22 0 6.42 6.42 0 0 1 5.68-.76 3.41 3.41 0 0 0 3.83-1.26l1-1.25A5.91 5.91 0 0 1 41 30.2a3.86 3.86 0 0 0 2.49-2.92 3.93 3.93 0 0 1 2.42-2.88C44.27 17.19 35.09 11.65 24 11.65zm7.88 12.83c0 1.82-3.53 3.29-7.88 3.29s-7.88-1.47-7.88-3.29V24A1.66 1.66 0 0 1 18 22.23a1.46 1.46 0 0 0 1.3-.36l.77-.7a2.13 2.13 0 0 1 2.69-.2 2.14 2.14 0 0 0 2.44 0 2.13 2.13 0 0 1 2.69.2l.77.7a1.46 1.46 0 0 0 1.3.36A1.66 1.66 0 0 1 31.88 24zM24 11.65c-11.09 0-20.27 5.53-21.83 12.73a4 4 0 0 1 2.42 2.9 3.86 3.86 0 0 0 2.49 2.92 5.91 5.91 0 0 1 2.84 2.05l1 1.25a3.41 3.41 0 0 0 3.83 1.26 6.42 6.42 0 0 1 5.68.76 6.43 6.43 0 0 0 7.22 0 6.42 6.42 0 0 1 5.68-.76 3.41 3.41 0 0 0 3.83-1.26l1-1.25A5.91 5.91 0 0 1 41 30.2a3.86 3.86 0 0 0 2.49-2.92 3.93 3.93 0 0 1 2.42-2.88C44.27 17.19 35.09 11.65 24 11.65zm7.88 12.83c0 1.82-3.53 3.29-7.88 3.29s-7.88-1.47-7.88-3.29V24A1.66 1.66 0 0 1 18 22.23a1.46 1.46 0 0 0 1.3-.36l.77-.7a2.13 2.13 0 0 1 2.69-.2 2.14 2.14 0 0 0 2.44 0 2.13 2.13 0 0 1 2.69.2l.77.7a1.46 1.46 0 0 0 1.3.36A1.66 1.66 0 0 1 31.88 24z" fill="#ff87af"/><path d="M24 15.28c9.51 0 17.6 4.07 20.69 9.78a3.62 3.62 0 0 1 1.14-.66C44.27 17.19 35.09 11.65 24 11.65S3.73 17.18 2.17 24.38a3.67 3.67 0 0 1 1.14.68C6.4 19.35 14.49 15.28 24 15.28z" fill="#ffb0ca"/><path id="_Compound_Path_3" class="cls-5" d="M31.88 24.48c0 1.82-3.53 3.29-7.88 3.29s-7.88-1.47-7.88-3.29V24A1.66 1.66 0 0 1 18 22.23a1.46 1.46 0 0 0 1.3-.36l.77-.7a2.13 2.13 0 0 1 2.69-.2 2.14 2.14 0 0 0 2.44 0 2.13 2.13 0 0 1 2.69.2l.77.7a1.46 1.46 0 0 0 1.3.36A1.66 1.66 0 0 1 31.88 24zM24 11.65c-11.09 0-20.27 5.53-21.83 12.73a4 4 0 0 1 2.42 2.9 3.86 3.86 0 0 0 2.49 2.92 5.91 5.91 0 0 1 2.84 2.05l1 1.25a3.41 3.41 0 0 0 3.83 1.26 6.42 6.42 0 0 1 5.68.76 6.43 6.43 0 0 0 7.22 0 6.42 6.42 0 0 1 5.68-.76 3.41 3.41 0 0 0 3.83-1.26l1-1.25A5.91 5.91 0 0 1 41 30.2a3.86 3.86 0 0 0 2.49-2.92 3.93 3.93 0 0 1 2.42-2.88C44.27 17.19 35.09 11.65 24 11.65z"/><path class="cls-5" d="M34.75 28.36l-1.2 1.8"/><path class="cls-5" d="M22.81 30.16l1.79 1.19"/><path class="cls-5" d="M13.25 28.36l1.79-.59"/><circle cx="39.52" cy="23.59" r="1.79" fill="#9ceb60" stroke="#45413c" stroke-linecap="round" stroke-linejoin="round"/><circle cx="16.84" cy="14.63" r="1.79" fill="#ffe500" stroke="#45413c" stroke-linecap="round" stroke-linejoin="round"/><circle cx="7.88" cy="22.39" r="1.79" fill="#00f5bc" stroke="#45413c" stroke-linecap="round" stroke-linejoin="round"/><path class="cls-5" d="M26.39 14.04l1.19 1.19"/><path class="cls-5" d="M34.15 17.62l2.39-.6"/><path class="cls-5" d="M10.27 18.21l2.39.6"/></g></svg>