<svg xmlns="http://www.w3.org/2000/svg" viewBox="0 0 48 48"><defs><style>.cls-2{fill:#f0d5a8}.cls-3{fill:none;stroke:#45413c;stroke-linecap:round;stroke-linejoin:round}.cls-5{fill:#915e3a}.cls-6{fill:#bf8256}</style></defs><circle cx="24" cy="23.74" r="20.26" fill="#debb7e"/><path class="cls-2" d="M24 8.39a20.26 20.26 0 0 1 20.1 17.75 19.09 19.09 0 0 0 .16-2.4 20.26 20.26 0 0 0-40.52 0 21.93 21.93 0 0 0 .15 2.45A20.26 20.26 0 0 1 24 8.39z"/><circle class="cls-3" cx="24" cy="23.74" r="20.26"/><ellipse cx="24" cy="45.5" rx="13" ry="1.5" fill="#45413c" opacity=".15"/><circle class="cls-2" cx="27.05" cy="18.47" r="3.63"/><circle class="cls-5" cx="27.05" cy="17.33" r="2.95"/><path class="cls-6" d="M27.05 16.8a2.94 2.94 0 0 1 2.69 1.74 2.89 2.89 0 0 0 .26-1.21 2.95 2.95 0 0 0-5.9 0 3.05 3.05 0 0 0 .26 1.21 3 3 0 0 1 2.69-1.74z"/><circle class="cls-3" cx="27.05" cy="17.33" r="2.95"/><circle class="cls-2" cx="11.49" cy="20.29" r="2.73"/><circle class="cls-5" cx="11.49" cy="19.43" r="2.21"/><path class="cls-6" d="M11.49 19a2.22 2.22 0 0 1 2 1.31 2.13 2.13 0 0 0 .2-.91 2.22 2.22 0 0 0-4.43 0 2.13 2.13 0 0 0 .2.91A2.2 2.2 0 0 1 11.49 19z"/><circle class="cls-3" cx="11.49" cy="19.43" r="2.21"/><circle class="cls-2" cx="37.39" cy="26.53" r="2.73"/><circle class="cls-5" cx="37.39" cy="25.68" r="2.21"/><path class="cls-6" d="M37.39 25.28a2.18 2.18 0 0 1 2 1.31 2.16 2.16 0 0 0 .2-.91 2.22 2.22 0 0 0-4.43 0 2.16 2.16 0 0 0 .2.91 2.2 2.2 0 0 1 2.03-1.31z"/><circle class="cls-3" cx="37.39" cy="25.68" r="2.21"/><path class="cls-2" d="M28.92 33.83a2.36 2.36 0 1 1-2.36-2.35 2.36 2.36 0 0 1 2.36 2.35z"/><path class="cls-5" d="M28.48 33.1a1.92 1.92 0 1 1-1.92-1.91 1.92 1.92 0 0 1 1.92 1.91z"/><path class="cls-6" d="M26.56 32.75a1.89 1.89 0 0 1 1.74 1.13 1.86 1.86 0 0 0 .18-.78 1.92 1.92 0 0 0-3.83 0 2 2 0 0 0 .17.78 1.91 1.91 0 0 1 1.74-1.13z"/><path class="cls-3" d="M28.48 33.1a1.92 1.92 0 1 1-1.92-1.91 1.92 1.92 0 0 1 1.92 1.91z"/><path class="cls-2" d="M17.11 30.2a2.36 2.36 0 1 1-2.36-2.35 2.36 2.36 0 0 1 2.36 2.35z"/><path class="cls-5" d="M16.66 29.46a1.91 1.91 0 1 1-1.91-1.91 1.9 1.9 0 0 1 1.91 1.91z"/><path class="cls-6" d="M14.75 29.12a1.89 1.89 0 0 1 1.74 1.13 1.91 1.91 0 1 0-3.65-.79 2.07 2.07 0 0 0 .17.79 1.91 1.91 0 0 1 1.74-1.13z"/><path class="cls-3" d="M16.66 29.46a1.91 1.91 0 1 1-1.91-1.91 1.9 1.9 0 0 1 1.91 1.91z"/></svg>