<svg xmlns="http://www.w3.org/2000/svg" viewBox="0 0 48 48"><defs><style>.cls-8,.cls-9{stroke:#45413c;stroke-linecap:round;stroke-linejoin:round}.cls-8{fill:#fffef2}.cls-9{fill:#ffe500}</style></defs><g><ellipse cx="24" cy="45.5" rx="17.5" ry="1.5" fill="#45413c" opacity=".15"/><g><path d="M6.5 24c0 3.59 7.84 6.5 17.5 6.5s17.5-2.91 17.5-6.5v15c0 3.59-7.84 6.5-17.5 6.5S6.5 42.59 6.5 39z" stroke-linecap="round" stroke-linejoin="round" stroke="#45413c" fill="#bf8256"/><path d="M6.5 30c0 3.59 7.84 6.5 17.5 6.5s17.5-2.91 17.5-6.5v5c0 3.59-7.84 6.5-17.5 6.5S6.5 38.59 6.5 35z" fill="#ffe3cf" stroke-linecap="round" stroke-linejoin="round" stroke="#45413c"/><g><path d="M30.5 33.5a.5.5 0 0 1 1 0 2.5 2.5 0 0 0 5 0v-2a1.5 1.5 0 0 1 3 0 1.5 1.5 0 0 0 3 0V24c0-3.59-8.28-6.5-18.5-6.5S5.5 20.41 5.5 24v8a1.5 1.5 0 0 0 3 0 1.5 1.5 0 0 1 3 0v3a2.5 2.5 0 0 0 5 0 1.5 1.5 0 0 1 3 0v1a1.5 1.5 0 0 0 3 0v-.5a2.5 2.5 0 0 1 5 0V37a1.5 1.5 0 0 0 3 0z" fill="#ff6242"/><g><path d="M24 20c7.41 0 14 1 18.08 2.63-1.79-2.93-9.2-5.13-18.08-5.13S7.71 19.7 5.92 22.63C10 21 16.59 20 24 20z" fill="#ff866e"/></g><path d="M30.5 33.5a.5.5 0 0 1 1 0 2.5 2.5 0 0 0 5 0v-2a1.5 1.5 0 0 1 3 0 1.5 1.5 0 0 0 3 0V24c0-3.59-8.28-6.5-18.5-6.5S5.5 20.41 5.5 24v8a1.5 1.5 0 0 0 3 0 1.5 1.5 0 0 1 3 0v3a2.5 2.5 0 0 0 5 0 1.5 1.5 0 0 1 3 0v1a1.5 1.5 0 0 0 3 0v-.5a2.5 2.5 0 0 1 5 0V37a1.5 1.5 0 0 0 3 0z" fill="none" stroke-linecap="round" stroke-linejoin="round" stroke="#45413c"/><path d="M40.5 24c0 2.49-7.39 4.5-16.5 4.5S7.5 26.49 7.5 24" stroke="#e04122" fill="none" stroke-linecap="round" stroke-linejoin="round"/></g><g><path class="cls-8" d="M19.5 25.5v-8a1 1 0 0 0-1-1h-2a1 1 0 0 0-1 1v8a2.17 2.17 0 0 0 2 1 2.17 2.17 0 0 0 2-1z"/><path class="cls-9" d="M15.2 11.55a2.37 2.37 0 0 0 4.62 1.1c.41-1.73-2.23-2-2.17-4.58a5 5 0 0 0-2.45 3.48z"/></g><g><path class="cls-8" d="M13.5 22.5v-8a1 1 0 0 0-1-1h-2a1 1 0 0 0-1 1v8a2.17 2.17 0 0 0 2 1 2.17 2.17 0 0 0 2-1z"/><path class="cls-9" d="M9.2 8.55a2.37 2.37 0 0 0 4.62 1.1c.41-1.73-2.23-2-2.17-4.58A5 5 0 0 0 9.2 8.55z"/></g><g><path class="cls-8" d="M38.5 22.5v-8a1 1 0 0 0-1-1h-2a1 1 0 0 0-1 1v8a2.5 2.5 0 0 0 4 0z"/><path class="cls-9" d="M34.2 8.55a2.37 2.37 0 1 0 4.62 1.1c.41-1.73-2.23-2-2.17-4.58a5 5 0 0 0-2.45 3.48z"/></g><g><path class="cls-8" d="M32.5 25.5v-8a1 1 0 0 0-1-1h-2a1 1 0 0 0-1 1v8a2.17 2.17 0 0 0 2 1 2.17 2.17 0 0 0 2-1z"/><path class="cls-9" d="M28.2 11.55a2.37 2.37 0 0 0 4.62 1.1c.41-1.73-2.23-2-2.17-4.58a5 5 0 0 0-2.45 3.48z"/></g><g><path class="cls-8" d="M26 19.5v-8a1 1 0 0 0-1-1h-2a1 1 0 0 0-1 1v8a2.17 2.17 0 0 0 2 1 2.17 2.17 0 0 0 2-1z"/><path class="cls-9" d="M21.7 5.55a2.37 2.37 0 0 0 4.62 1.1c.41-1.73-2.23-2-2.17-4.58a5 5 0 0 0-2.45 3.48z"/></g></g></g></svg>