<svg xmlns="http://www.w3.org/2000/svg" viewBox="0 0 48 48"><defs><style>.cls-3,.cls-5{stroke:#45413c;stroke-linecap:round;stroke-linejoin:round}.cls-3{fill:#ffe3cf}.cls-5{fill:none}</style></defs><g><ellipse cx="24.11" cy="44.06" rx="20" ry="1.94" fill="#45413c" opacity=".15"/><g><g><path d="M42.5 20.58L4 24.27l1.72 18a1.29 1.29 0 0 0 1.41 1.16l36-3.45a1.28 1.28 0 0 0 1.16-1.4z" stroke-linecap="round" stroke-linejoin="round" stroke="#45413c" fill="#bf8256"/><path class="cls-3" transform="rotate(-5.48 24.27 33.309)" d="M4.94 30.12h38.7v6.45H4.94z"/></g><g><path d="M21.23 28.45a1.93 1.93 0 1 1 3.85-.37l.06.64a1.29 1.29 0 0 0 1.41 1.16 1.28 1.28 0 0 0 1.16-1.4l-.06-.64a.64.64 0 1 1 1.28-.13l.17 1.79a2.69 2.69 0 0 0 2.4 2.5 2.58 2.58 0 0 0 2.75-2.82L34 25.94a1.93 1.93 0 1 0 3.85-.37l-.06-.65a1.28 1.28 0 0 1 1.16-1.4 1.29 1.29 0 0 1 1.41 1.16l.07 1.32a3.86 3.86 0 0 0 2.31 3.18 1.28 1.28 0 0 0 1.75-1.33l-.7-7.35c-.36-3.79-8.08-8.68-18-8.93a3.78 3.78 0 0 0-2 .54L4.11 23.56A2.6 2.6 0 0 0 2.85 26l.88 9.2a.65.65 0 0 0 .83.56 3.85 3.85 0 0 0 2.73-3.94 2 2 0 0 1 1.35-2.12 1.94 1.94 0 0 1 2.5 1.66l.06.65a1.93 1.93 0 1 0 3.85-.37l-.12-1.29a.64.64 0 0 1 1.28-.12l.17 1.77a2.67 2.67 0 0 0 2.4 2.46 2.58 2.58 0 0 0 2.75-2.82z" fill="#ff6242"/><path class="cls-5" d="M21.23 28.45a1.93 1.93 0 1 1 3.85-.37l.06.64a1.29 1.29 0 0 0 1.41 1.16 1.28 1.28 0 0 0 1.16-1.4l-.06-.64a.64.64 0 1 1 1.28-.13l.17 1.79a2.69 2.69 0 0 0 2.4 2.5 2.58 2.58 0 0 0 2.75-2.82L34 25.94a1.93 1.93 0 1 0 3.85-.37l-.06-.65a1.28 1.28 0 0 1 1.16-1.4 1.29 1.29 0 0 1 1.41 1.16l.07 1.32a3.86 3.86 0 0 0 2.31 3.18 1.28 1.28 0 0 0 1.75-1.33l-.7-7.35c-.36-3.79-8.08-8.68-18-8.93a3.78 3.78 0 0 0-2 .54L4.11 23.56A2.6 2.6 0 0 0 2.85 26l.88 9.2a.65.65 0 0 0 .83.56 3.85 3.85 0 0 0 2.73-3.94 2 2 0 0 1 1.35-2.12 1.94 1.94 0 0 1 2.5 1.66l.06.65a1.93 1.93 0 1 0 3.85-.37l-.12-1.29a.64.64 0 0 1 1.28-.12l.17 1.77a2.67 2.67 0 0 0 2.4 2.46 2.58 2.58 0 0 0 2.75-2.82z"/><path stroke="#e04122" fill="none" stroke-linecap="round" stroke-linejoin="round" d="M9.11 23.78l30.83-2.96"/></g><g><path d="M35.06 10.56c-.17-3.2-3.67-8.21-6.87-8s-6.18 5.5-6 8.7 3.54 5.64 6.74 5.47 6.29-2.97 6.13-6.17z" fill="#ff6242" stroke-linecap="round" stroke-linejoin="round" stroke="#45413c"/><path id="_Line_" data-name="&lt;Line&gt;" class="cls-5" d="M24.68 9.8l.07 1.29"/><path id="_Line_2" data-name="&lt;Line&gt;" class="cls-5" d="M26.42 5.84l.06 1.29"/><path id="_Line_3" data-name="&lt;Line&gt;" class="cls-5" d="M28.55 9.61l.07 1.28"/><path id="_Line_4" data-name="&lt;Line&gt;" class="cls-5" d="M30.28 5.64l.07 1.29"/><path id="_Line_5" data-name="&lt;Line&gt;" class="cls-5" d="M32.42 9.41l.06 1.29"/></g><path class="cls-3" d="M36.69 14c.17 1.78-3.14 3.54-7.4 4s-7.84-.7-8-2.47A1.94 1.94 0 0 1 23 13.38c1.06-.1 1.95 0 2.05 1.1-.2-2.13 1.42-3.38 3.55-3.58s3.95.71 4.16 2.84c-.11-1.06.74-1.37 1.8-1.47A1.94 1.94 0 0 1 36.69 14z"/></g></g></svg>