<svg xmlns="http://www.w3.org/2000/svg" viewBox="0 0 48 48"><defs><style>.cls-2{fill:#fff48c}.cls-3{fill:#fffacf}.cls-4{fill:none;stroke:#45413c;stroke-linecap:round;stroke-linejoin:round}.cls-5{fill:#ffe500}.cls-6{fill:#ff87af}.cls-7{fill:#ffb0ca}</style></defs><ellipse cx="24" cy="36.63" rx="12.63" ry="1.65" fill="#45413c" opacity=".15"/><path class="cls-2" d="M30.58 26.73a14.77 14.77 0 0 1 8.78-5.44c5.71-1.17 7.81 2.32 7 5.2-.64 2-3.86 3.79-15.78.24z"/><path class="cls-3" d="M39.36 23.62c4.14-.85 6.38.76 7 2.81.81-2.87-1.3-6.31-7-5.14a14.77 14.77 0 0 0-8.78 5.44c.59.18 1.15.33 1.7.48a15.08 15.08 0 0 1 7.08-3.59z"/><path class="cls-4" d="M30.58 26.73a14.77 14.77 0 0 1 8.78-5.44c5.71-1.17 7.81 2.32 7 5.2-.64 2-3.86 3.79-15.78.24z"/><path class="cls-2" d="M30.58 26.73A14.78 14.78 0 0 0 35 36.09c4.14 4.1 7.81 2.32 8.66-.55.56-2.01-1.16-5.26-13.08-8.81z"/><path class="cls-5" d="M36 33.09c3.21 3.17 6.12 2.82 7.68 1.17-.43-1.85-3.07-4.31-11.31-7A15 15 0 0 0 36 33.09z"/><path class="cls-4" d="M30.58 26.73A14.78 14.78 0 0 0 35 36.09c4.14 4.1 7.81 2.32 8.66-.55.56-2.01-1.16-5.26-13.08-8.81z"/><path class="cls-6" d="M30.58 26.73s9.26-.83 13.42.41 2.36 7.87-2 6.58-11.42-6.99-11.42-6.99z"/><path class="cls-7" d="M44 29.58a3.13 3.13 0 0 1 2.14 2A3.31 3.31 0 0 0 44 27.14c-4.16-1.24-13.42-.41-13.42-.41s1.25 1 3 2.25c3.1-.14 7.78-.18 10.42.6z"/><path class="cls-4" d="M30.58 26.73s9.26-.83 13.42.41 2.36 7.87-2 6.58-11.42-6.99-11.42-6.99z"/><path class="cls-2" d="M17.42 22.81A14.74 14.74 0 0 0 13 13.46c-4.1-4.11-7.77-2.33-8.62.54-.6 2 1.12 5.27 13.04 8.81z"/><path class="cls-3" d="M13 15.91a15 15 0 0 1 4 6.77l.44.13A14.74 14.74 0 0 0 13 13.46c-4.1-4.11-7.77-2.33-8.62.54a2.54 2.54 0 0 0 .2 1.91c1.13-2.53 4.59-3.83 8.42 0z"/><path class="cls-4" d="M17.42 22.81A14.74 14.74 0 0 0 13 13.46c-4.1-4.11-7.77-2.33-8.62.54-.6 2 1.12 5.27 13.04 8.81z"/><path class="cls-2" d="M17.42 22.81a14.75 14.75 0 0 1-8.78 5.45c-5.71 1.17-7.81-2.33-7-5.2.64-2.01 3.86-3.79 15.78-.25z"/><path class="cls-5" d="M2.21 22.13c.47 2.17 2.72 4 7.05 3.08a14.94 14.94 0 0 0 6.28-2.93C6.93 20 3.47 20.72 2.21 22.13z"/><path class="cls-4" d="M17.42 22.81a14.75 14.75 0 0 1-8.78 5.45c-5.71 1.17-7.81-2.33-7-5.2.64-2.01 3.86-3.79 15.78-.25z"/><path class="cls-6" d="M17.42 22.81s-7.3-5.75-11.46-7-6.28 5.3-2 6.58 13.46.42 13.46.42z"/><path class="cls-7" d="M6 18.09c2.51.75 6.16 3.14 8.67 4.92 1.65-.09 2.79-.2 2.79-.2s-7.3-5.75-11.46-7c-3-.88-5 2.28-4.19 4.58A3.27 3.27 0 0 1 6 18.09z"/><path class="cls-4" d="M17.42 22.81s-7.3-5.75-11.46-7-6.28 5.3-2 6.58 13.46.42 13.46.42z"/><path class="cls-6" d="M34.28 27.83a10.73 10.73 0 1 1-7.22-13.34 10.72 10.72 0 0 1 7.22 13.34z"/><path class="cls-7" d="M13.72 25.44a10.72 10.72 0 0 1 20.84 1.19 10.72 10.72 0 1 0-21.12 0 10.4 10.4 0 0 1 .28-1.19z"/><path class="cls-4" d="M34.28 27.83a10.73 10.73 0 1 1-7.22-13.34 10.72 10.72 0 0 1 7.22 13.34z"/><path class="cls-2" d="M33.26 19.38a44.87 44.87 0 0 0-9.63 2.51 41.94 41.94 0 0 0-10.12 5 10.28 10.28 0 0 1 .05-4.58A33.43 33.43 0 0 1 22 17.8a47.26 47.26 0 0 1 7.68-2.13 10.48 10.48 0 0 1 3.58 3.71z"/><path class="cls-3" d="M27.06 18.22a10.78 10.78 0 0 1 3.32 1.66c1.11-.25 2.05-.39 2.89-.5a10.85 10.85 0 0 0-3.6-3.72A48.56 48.56 0 0 0 22 17.8l-1.3.5a10.74 10.74 0 0 1 6.36-.08z"/><path class="cls-4" d="M23.63 21.89a43.72 43.72 0 0 1 9.64-2.51 10.85 10.85 0 0 0-3.6-3.72A48.56 48.56 0 0 0 22 17.8a33 33 0 0 0-8.42 4.54 10.58 10.58 0 0 0-.07 4.58 41.74 41.74 0 0 1 10.12-5.03z"/><path d="M34.39 27.39a53.69 53.69 0 0 0-6.91 2.06 45.44 45.44 0 0 0-9.21 4.39 10.45 10.45 0 0 1-2.73-2.48 33.5 33.5 0 0 1 10.3-6A46.48 46.48 0 0 1 34.59 23a10.52 10.52 0 0 1-.2 4.39z" stroke="#45413c" stroke-linecap="round" stroke-linejoin="round" fill="#fff48c"/></svg>