<svg xmlns="http://www.w3.org/2000/svg" viewBox="0 0 48 48"><defs><style>.cls-5,.cls-8{stroke:#45413c;stroke-linecap:round;stroke-linejoin:round}.cls-3{fill:#e8f4fa}.cls-4,.cls-8{fill:#fff}.cls-5{fill:none}</style></defs><ellipse cx="24" cy="45.42" rx="16.85" ry="1.58" fill="#45413c" opacity=".15"/><g><path d="M7.25 39.08c0 4.11 8.38 6.42 16.75 6.42s16.75-2.31 16.75-6.42z" stroke="#45413c" stroke-linecap="round" stroke-linejoin="round" fill="#e5f8ff"/><g><ellipse class="cls-3" cx="24" cy="39.08" rx="16.75" ry="4.41"/><path class="cls-4" d="M8.33 40.62C10.71 39 16.82 37.76 24 37.76S37.29 39 39.67 40.62a2 2 0 0 0 1.08-1.54c0-2.43-7.5-4.41-16.75-4.41s-16.75 2-16.75 4.41a2 2 0 0 0 1.08 1.54z"/><ellipse class="cls-5" cx="24" cy="39.08" rx="16.75" ry="4.41"/><ellipse cx="24" cy="39.52" rx="9.7" ry="2.2" fill="#e8f4fa" stroke="#45413c" stroke-linecap="round" stroke-linejoin="round"/></g></g><g><g><path class="cls-3" d="M39.43 32.91a6.17 6.17 0 1 0 0-12.34h-2.65v3.53h2.65a2.64 2.64 0 1 1 0 5.28H35v3.53z"/><path class="cls-4" d="M38.54 21.89a6.17 6.17 0 0 1 6.17 6.17 6.1 6.1 0 0 1-.64 2.73 6.16 6.16 0 0 0-4.64-10.22h-2.65v1.32z"/><path class="cls-5" d="M39.43 32.91a6.17 6.17 0 1 0 0-12.34h-2.65v3.53h2.65a2.64 2.64 0 1 1 0 5.28H35v3.53z"/></g><g><path class="cls-4" d="M38.54 16.6c0-1.7-6.51-3.08-14.54-3.08S9.46 14.9 9.46 16.6v8.82a14.54 14.54 0 0 0 29.08 0z"/><path class="cls-3" d="M24 36.44a16.73 16.73 0 0 1-14.2-7.9 14.54 14.54 0 0 0 28.4 0 16.73 16.73 0 0 1-14.2 7.9z"/><path class="cls-5" d="M38.54 16.6c0-1.7-6.51-3.08-14.54-3.08S9.46 14.9 9.46 16.6v8.82a14.54 14.54 0 0 0 29.08 0z"/></g><g><path d="M34.81 18.8A30 30 0 0 0 24 17a30 30 0 0 0-10.81 1.8A30.27 30.27 0 0 0 24 20.57a30.27 30.27 0 0 0 10.81-1.77z" fill="#bf8256" stroke="#45413c" stroke-linecap="round" stroke-linejoin="round"/><path class="cls-5" d="M11.22 17.82c2.63 1.65 7.36 2.75 12.78 2.75s10.15-1.1 12.78-2.75"/></g></g><circle class="cls-8" cx="20.83" cy="4.26" r="1.76"/><path class="cls-8" d="M14.79 6.76a4 4 0 1 0-3.23 1.67 4 4 0 0 0 .5 0 2.63 2.63 0 0 0-.06.49 2.21 2.21 0 1 0 2.79-2.11z"/></svg>