<svg xmlns="http://www.w3.org/2000/svg" viewBox="0 0 48 48"><defs><style>.cls-10{fill:#6dd627}.cls-7{fill:#ffe500}.cls-6{fill:none}.cls-10,.cls-11,.cls-12,.cls-13,.cls-14,.cls-6,.cls-7{stroke:#45413c;stroke-linecap:round;stroke-linejoin:round}.cls-13{fill:#fff}.cls-11{fill:#ff6242}.cls-12{fill:#00b8f0}.cls-14{fill:#debb7e}</style></defs><ellipse cx="29.52" cy="45.5" rx="9" ry="1.5" fill="#45413c" opacity=".15"/><g><path d="M38.62 45.5a24.92 24.92 0 0 0 7.88-10.68l-2.12-2.12a17.18 17.18 0 0 0-7.47-4.38 17.26 17.26 0 0 1-7.48-4.38l-4.71-4.72-3.09 3.1L26.34 27a17.18 17.18 0 0 1 4.38 7.47A17.26 17.26 0 0 0 35.1 42z" fill="#46b000"/><path d="M29.43 27.34a17.26 17.26 0 0 0 7.48 4.38 17.09 17.09 0 0 1 7.47 4.38l1.06 1.06a24.73 24.73 0 0 0 1.05-2.35l-2.11-2.11a17.18 17.18 0 0 0-7.47-4.38 17.26 17.26 0 0 1-7.48-4.38l-4.71-4.72-1.72 1.7z" fill="#6dd627"/><path d="M36.91 28.32a17.26 17.26 0 0 1-7.48-4.38l-4.71-4.72-3.09 3.1L26.34 27a17.18 17.18 0 0 1 4.38 7.47v.14l5-.77a.64.64 0 0 0 .53-.52l.76-5z" fill="#ffe500"/><path d="M36.54 31.61l.5-3.25h-.13a17.26 17.26 0 0 1-7.48-4.38l-4.71-4.72L23 20.92l6.41 6.42a17.24 17.24 0 0 0 7.13 4.27z" fill="#fff48c"/><path class="cls-6" d="M36.91 28.32a17.26 17.26 0 0 1-7.48-4.38l-4.71-4.72-3.09 3.1L26.34 27a17.18 17.18 0 0 1 4.38 7.47v.14l5-.77a.64.64 0 0 0 .53-.52l.76-5z"/><path class="cls-6" d="M38.62 45.5a24.92 24.92 0 0 0 7.88-10.68l-2.12-2.12a17.18 17.18 0 0 0-7.47-4.38 17.26 17.26 0 0 1-7.48-4.38l-4.71-4.72-3.09 3.1L26.34 27a17.18 17.18 0 0 1 4.38 7.47A17.26 17.26 0 0 0 35.1 42z"/><path class="cls-7" d="M38.62 45.5a24.92 24.92 0 0 0 7.88-10.68l-.11-.11L37.11 44z"/><path d="M21.41 19.79h3.75a.62.62 0 0 1 .62.62v1.25a.31.31 0 0 1-.31.31H21.1a.31.31 0 0 1-.31-.31v-1.25a.62.62 0 0 1 .62-.62z" transform="rotate(-45 23.281 20.886)" stroke="#45413c" stroke-linecap="round" stroke-linejoin="round" fill="#46b000"/></g><g><path d="M22 28.52a.94.94 0 0 1-1.87 0 6.17 6.17 0 0 1 .87-1.79.19.19 0 0 1 .15-.09.19.19 0 0 1 .16.09 6.17 6.17 0 0 1 .69 1.79z" fill="#fff"/><path class="cls-6" d="M22 28.52a.94.94 0 0 1-1.87 0 6.17 6.17 0 0 1 .87-1.79.19.19 0 0 1 .15-.09.19.19 0 0 1 .16.09 6.17 6.17 0 0 1 .69 1.79z"/></g><path class="cls-10" d="M35.67 16.89a4.29 4.29 0 0 1-3.54 2l-1.25-2.2a4.31 4.31 0 0 0 3.53-2z"/><path class="cls-11" d="M27.05 40.68a3.49 3.49 0 0 1-2.87 1.62l-1-1.79A3.46 3.46 0 0 0 26 38.89z"/><path class="cls-7" d="M32.92 6.61a3.79 3.79 0 0 1-.44 3.54l-2.21-.28a3.8 3.8 0 0 0 .44-3.53z"/><path class="cls-7" d="M8.63 18.17a3.79 3.79 0 0 1-.43 3.54L6 21.43a3.77 3.77 0 0 0 .43-3.53z"/><path class="cls-12" d="M23.14 9.54a3.61 3.61 0 0 1-.71-3.3l2.06-.44a3.6 3.6 0 0 0 .71 3.29z"/><path class="cls-10" d="M14.84 35.54a5.34 5.34 0 0 1-1.06-4.92l3.08-.62a5.34 5.34 0 0 0 1.05 4.92z"/><path class="cls-12" d="M13.17 38.81a4.09 4.09 0 0 1 2.36 3l-1.88 1.48a4 4 0 0 0-2.36-3z"/><path class="cls-11" d="M43.33 18.79a4.58 4.58 0 0 1-4.1-1.39l.87-2.57a4.59 4.59 0 0 0 4.1 1.4z"/><path class="cls-7" d="M8.69 36.66a3.93 3.93 0 0 1-3.48-1.18L6 33.31a3.92 3.92 0 0 0 3.47 1.18z"/><path class="cls-11" d="M2.22 27.73A3.88 3.88 0 0 1 4.57 25l1.73 1.44A3.86 3.86 0 0 0 4 29.2z"/><circle class="cls-13" cx="14.89" cy="18.11" r="1.09"/><circle class="cls-13" cx="22.23" cy="13.58" r="1.11"/><g><path class="cls-14" d="M8.71 3.77L6.16 6.32C-.85 4.86 7.25-3.21 8.71 3.77z"/><path class="cls-14" d="M8.53 4l1.83 1.51a.65.65 0 0 1 .22.45.66.66 0 0 1-.18.48L8.77 8a.62.62 0 0 1-.47.18.65.65 0 0 1-.45-.18L6.34 6.14z"/></g><g><path class="cls-6" d="M17.55 14.82l-2.89-2.89"/><path class="cls-6" d="M16.42 11.61l-1.44-1.44"/><path class="cls-6" d="M14.02 9.2l-.25-.24"/><path class="cls-6" d="M13.69 10.97l-.24-.24"/><path class="cls-6" d="M12.81 8l-.24-.24"/><path class="cls-6" d="M14.22 13.82l-1.45-1.45"/><path class="cls-6" d="M11.81 11.41l-.24-.24"/><path class="cls-6" d="M10.6 10.21l-.24-.24"/><path class="cls-6" d="M12.49 9.77l-.24-.25"/></g><path class="cls-13" d="M23.64 16.69a1.8 1.8 0 0 0-2.54 0 1.48 1.48 0 0 0-.22-.29 1.44 1.44 0 1 0-2 2 1.29 1.29 0 0 0 .3.22h-.05a1.8 1.8 0 0 0 0 2.54 1.84 1.84 0 0 0 1.21.52v2.62a.78.78 0 0 0 1.56 0V21a1.79 1.79 0 0 0 1-.5 1.75 1.75 0 0 0 .5-1.07 1.64 1.64 0 0 0 .26-.2 1.8 1.8 0 0 0-.02-2.54z"/></svg>