<svg xmlns="http://www.w3.org/2000/svg" viewBox="0 0 48 48"><defs><style>.cls-3{fill:#00b8f0}.cls-5{stroke:#45413c;stroke-linecap:round;stroke-linejoin:round;fill:none}.cls-6{fill:#e04122}.cls-8{fill:#e5f8ff}</style></defs><ellipse cx="24" cy="45.5" rx="10" ry="1.5" fill="#45413c" opacity=".15"/><g><path d="M22.2 29.67c1.08 4.32.72 11.58.72 11.58a.71.71 0 0 1-.67.71c-3 .2-5.26.9-5.72 1.78a.34.34 0 0 0 .16.46c.71.36 2.95 1.3 7.31 1.3s6.6-.94 7.31-1.3a.34.34 0 0 0 .16-.46c-.46-.88-2.75-1.58-5.72-1.78a.71.71 0 0 1-.67-.71s-.36-7.26.72-11.58z" stroke="#45413c" stroke-linecap="round" stroke-linejoin="round" fill="#00b8f0"/><g><g><path class="cls-3" d="M17.16 2.94C17.88 1.86 20.22 1.5 24 1.5s6.12.36 6.84 1.44c1.59 1.83 3.59 15 3.59 17.6a10.43 10.43 0 0 1-20.86 0c0-2.62 2-15.77 3.59-17.6z"/><path d="M16.68 28c9.7-4.51 13.92-14 15.72-20.59a13.9 13.9 0 0 0-1.56-4.47C30.12 1.86 27.77 1.5 24 1.5s-6.12.36-6.84 1.44c-1.59 1.83-3.59 15-3.59 17.6A10.39 10.39 0 0 0 16.68 28z" fill="#4acfff"/><path class="cls-3" d="M24 4.38c3.77 0 6.84-.65 6.84-1.44C30.12 1.86 27.77 1.5 24 1.5s-6.12.36-6.84 1.44c0 .79 3.07 1.44 6.84 1.44z"/><path class="cls-5" d="M17.16 2.94C17.88 1.86 20.22 1.5 24 1.5s6.12.36 6.84 1.44c1.59 1.83 3.59 15 3.59 17.6a10.43 10.43 0 0 1-20.86 0c0-2.62 2-15.77 3.59-17.6z"/><path class="cls-5" d="M30.84 2.94c0 .79-3.06 1.44-6.84 1.44s-6.84-.65-6.84-1.44"/></g><g><path class="cls-6" d="M16.45 22s.71-2.88 4.67-2.88 5 2.88 5 2.88z"/><path class="cls-6" d="M32.63 20.54a8.63 8.63 0 0 1-17.26 0 14.12 14.12 0 0 0 5 1.44c2.16 0 5-2.88 7.2-2.88a14.12 14.12 0 0 1 5.06 1.44z"/><path d="M18.39 27.1A26.12 26.12 0 0 0 27 19.17c-2 .41-4.62 2.83-6.6 2.83a14.12 14.12 0 0 1-5-1.44 8.61 8.61 0 0 0 2.99 6.54z" fill="#ff6242"/></g></g><g><circle class="cls-8" cx="19.68" cy="8.31" r="1.44"/><circle class="cls-8" cx="17.52" cy="10.47" r=".72"/></g></g></svg>