<svg xmlns="http://www.w3.org/2000/svg" viewBox="0 0 48 48"><defs><style>.cls-3{fill:#00b8f0}.cls-5{stroke:#45413c;stroke-linecap:round;stroke-linejoin:round;fill:none}.cls-6{fill:#c8ffa1}.cls-11{fill:#46b000}.cls-12{fill:#6dd627}</style></defs><g><ellipse cx="24" cy="45.5" rx="10" ry="1.5" fill="#45413c" opacity=".15"/><g><path d="M33.14 43.35c-.56-1.07-3.36-1.93-7-2.18a.87.87 0 0 1-.82-.87v-15h-2.64v15a.87.87 0 0 1-.82.87c-3.64.25-6.44 1.11-7 2.18a.42.42 0 0 0 .2.56c.86.44 3.61 1.59 8.94 1.59s8.08-1.15 8.94-1.59a.42.42 0 0 0 .2-.56z" stroke="#45413c" stroke-linecap="round" stroke-linejoin="round" fill="#00b8f0"/><g><g><path class="cls-3" d="M41.17 10.73c0-2.19-7.69-4-17.17-4s-17.17 1.77-17.17 4v1.84a2.64 2.64 0 0 0 1 2l14 11.53s0 1.76 2.2 1.76 2.2-1.76 2.2-1.76l14-11.53a2.64 2.64 0 0 0 1-2z"/><path d="M33.82 7.48A62.91 62.91 0 0 0 24 6.77c-9.48 0-17.17 1.77-17.17 4v1.84a2.64 2.64 0 0 0 1 2l12.33 10.18A53.77 53.77 0 0 0 33.82 7.48z" fill="#4acfff"/><ellipse class="cls-3" cx="24" cy="10.73" rx="17.17" ry="3.96"/><path class="cls-5" d="M41.17 10.73c0-2.19-7.69-4-17.17-4s-17.17 1.77-17.17 4v1.84a2.64 2.64 0 0 0 1 2l14 11.53s0 1.76 2.2 1.76 2.2-1.76 2.2-1.76l14-11.53a2.64 2.64 0 0 0 1-2z"/></g><g><path class="cls-6" d="M35.44 16l-9.68 7.92a3.07 3.07 0 0 1-1.76.88 3.07 3.07 0 0 1-1.76-.88L12.56 16s3.08-1.75 11.44-1.75S35.44 16 35.44 16z"/><path d="M29.57 14.56a44.91 44.91 0 0 0-5.57-.31c-8.36 0-11.44 1.75-11.44 1.75l9.14 7.48a49.25 49.25 0 0 0 7.87-8.92z" fill="#e4ffd1"/><path d="M35.44 16S32.36 17.77 24 17.77 12.56 16 12.56 16s3.08-1.75 11.44-1.75S35.44 16 35.44 16z" fill="#9ceb60"/><path class="cls-6" d="M27.25 17.67c.83-1 1.6-2.07 2.32-3.11a44.91 44.91 0 0 0-5.57-.31c-8.36 0-11.44 1.75-11.44 1.75s3.08 1.77 11.44 1.77c1.19 0 2.26-.04 3.25-.1z"/></g></g><g><path d="M37.19 6.87a2.64 2.64 0 1 1-.71-3.66 2.63 2.63 0 0 1 .71 3.66z" fill="#ff6242"/><path d="M32.41 5.9a2.64 2.64 0 0 1 5.19-1z" fill="#ff866e"/><path id="_Line_" data-name="&lt;Line&gt;" class="cls-5" d="M33.53 7.58l-2.47 3.65"/><path class="cls-11" d="M32.5 15.39c-.82 1.21-2.78 1.3-4.4.22s-2.25-2.95-1.43-4.16 2.78-1.31 4.39-.22 2.26 2.95 1.44 4.16z"/><path class="cls-12" d="M26.66 14l5.85-1.13a4.35 4.35 0 0 0-1.45-1.62c-1.61-1.09-3.58-1-4.39.22a2.46 2.46 0 0 0-.01 2.53z"/><path class="cls-5" d="M32.5 15.39c-.82 1.21-2.78 1.3-4.4.22s-2.25-2.95-1.43-4.16 2.78-1.31 4.39-.22 2.26 2.95 1.44 4.16z"/><path class="cls-11" d="M29.54 19.77c-.81 1.2-2.78 1.3-4.39.21s-2.26-2.98-1.44-4.16 2.78-1.3 4.39-.21 2.26 2.95 1.44 4.16z"/><path class="cls-12" d="M23.7 18.36l5.85-1.13a4.19 4.19 0 0 0-1.45-1.62c-1.61-1.09-3.58-1-4.39.21a2.48 2.48 0 0 0-.01 2.54z"/><path class="cls-5" d="M29.54 19.77c-.81 1.2-2.78 1.3-4.39.21s-2.26-2.98-1.44-4.16 2.78-1.3 4.39-.21 2.26 2.95 1.44 4.16z"/><path id="_Line_2" data-name="&lt;Line&gt;" class="cls-5" d="M25.15 19.98l-1.48 2.19"/><path class="cls-5" d="M37.19 6.87a2.64 2.64 0 1 1-.71-3.66 2.63 2.63 0 0 1 .71 3.66z"/></g><path class="cls-5" d="M41.17 10.73c0 2.19-7.69 4-17.17 4s-17.17-1.77-17.17-4"/></g></g></svg>