<svg xmlns="http://www.w3.org/2000/svg" viewBox="0 0 48 48"><defs><style>.cls-3{fill:#00b8f0}.cls-5{stroke:#45413c;stroke-linecap:round;stroke-linejoin:round;fill:none}.cls-6{fill:#ff8a14}.cls-8{fill:#e5f8ff}</style></defs><g><ellipse cx="24" cy="46.44" rx="10.38" ry="1.56" fill="#45413c" opacity=".15"/><path d="M34.11 44.12c-.62-1.18-3.72-2.13-7.74-2.41a1 1 0 0 1-.91-1v-7.84h-2.92v7.88a1 1 0 0 1-.91 1c-4 .28-7.12 1.23-7.74 2.41a.46.46 0 0 0 .23.62c1 .49 4 1.76 9.88 1.76s8.93-1.27 9.88-1.76a.46.46 0 0 0 .23-.66z" stroke="#45413c" stroke-linecap="round" stroke-linejoin="round" fill="#00b8f0"/><g><path class="cls-3" d="M24 34.59c9.68 0 17.52-4.38 17.52-11.19 0-5.23-3-13.58-7.3-19.47C32.76 2.47 29.64 1.5 24 1.5s-8.76 1-10.22 2.43c-4.31 5.89-7.3 14.24-7.3 19.47 0 6.81 7.84 11.19 17.52 11.19z"/><path d="M10.31 30.64C22 25.48 30.94 14.71 36.2 7a34.37 34.37 0 0 0-2-3C32.76 2.47 29.64 1.5 24 1.5s-8.76 1-10.22 2.43c-4.31 5.89-7.3 14.24-7.3 19.47a9.09 9.09 0 0 0 3.83 7.24z" fill="#4acfff"/><path class="cls-3" d="M13.78 3.93c0 1.35 4.58 2.44 10.22 2.44s10.22-1.09 10.22-2.44C32.76 2.47 29.64 1.5 24 1.5s-8.76.97-10.22 2.43z"/><path class="cls-5" d="M34.22 3.93c0 1.35-4.58 2.44-10.22 2.44S13.78 5.28 13.78 3.93"/><path class="cls-5" d="M24 34.59c9.68 0 17.52-4.38 17.52-11.19 0-5.23-3-13.58-7.3-19.47C32.76 2.47 29.64 1.5 24 1.5s-8.76 1-10.22 2.43c-4.31 5.89-7.3 14.24-7.3 19.47 0 6.81 7.84 11.19 17.52 11.19z"/><g><path class="cls-6" d="M10.86 24.86s2.43-2.92 5.84-2.92 5.84 2.92 5.84 2.92z"/><path class="cls-6" d="M30.81 19.51c-4.86 0-8.27 5.35-14.6 5.35a26.76 26.76 0 0 1-7.29-1.11v.14c0 4.56 6.76 8.27 15.09 8.27s15.09-3.71 15.09-8.27a12.25 12.25 0 0 0-.31-2.68 23.42 23.42 0 0 0-7.98-1.7z"/><path d="M16.21 24.86a26.76 26.76 0 0 1-7.29-1.11v.14c0 2.13 1.49 4.07 3.91 5.54a49.85 49.85 0 0 0 8.56-5.79 12.19 12.19 0 0 1-5.18 1.22z" fill="#ffaa54"/></g></g><g><circle class="cls-8" cx="15.73" cy="11.72" r="1.95"/><circle class="cls-8" cx="12.81" cy="14.64" r=".97"/></g></g></svg>