<svg xmlns="http://www.w3.org/2000/svg" viewBox="0 0 48 48"><defs><style>.cls-5{stroke:#45413c;stroke-linecap:round;stroke-linejoin:round;fill:none}.cls-6{fill:#87898c}.cls-7{fill:#bdbec0}.cls-8{fill:#00b8f0}.cls-9{fill:#4acfff}</style></defs><g><ellipse cx="24" cy="45.15" rx="20.34" ry="1.85" fill="#45413c" opacity=".15"/><path d="M6.74 34h34.52a1.23 1.23 0 0 1 1.23 1.23v8.63a.62.62 0 0 1-.62.62H6.13a.62.62 0 0 1-.62-.62v-8.61A1.23 1.23 0 0 1 6.74 34z" stroke="#45413c" stroke-linecap="round" stroke-linejoin="round" fill="#fff"/><path fill="#fff" d="M7.36 5.67h33.28v28.35H7.36z"/><path fill="#e0e0e0" d="M7.36 5.67h33.28v2.62H7.36z"/><path class="cls-5" d="M7.36 5.67h33.28v28.35H7.36z"/><rect class="cls-6" x="6.13" y="2.59" width="35.75" height="3.08" rx="1.23" ry="1.23"/><path class="cls-7" d="M40.64 2.59H7.36a1.23 1.23 0 0 0-1.23 1.23v.62a1.18 1.18 0 0 0 .09.46 1.23 1.23 0 0 1 1.14-.77h33.28a1.23 1.23 0 0 1 1.14.77 1.18 1.18 0 0 0 .09-.46v-.62a1.23 1.23 0 0 0-1.23-1.23z"/><rect class="cls-5" x="6.13" y="2.59" width="35.75" height="3.08" rx="1.23" ry="1.23"/><path class="cls-8" d="M19.07 36.49h9.86v8.01h-9.86z"/><path class="cls-9" d="M21 44.5h4.74l3.19-8.01h-4.74L21 44.5z"/><path class="cls-5" d="M19.07 36.49h9.86v8.01h-9.86z"/><path class="cls-8" d="M10.44 37.1h3.7v4.31h-3.7z"/><path class="cls-9" d="M11.73 41.42h2.41V37.1h-.69l-1.72 4.32z"/><path class="cls-8" d="M11.06 26.63h3.7v4.31h-3.7z"/><path class="cls-9" d="M12.34 30.94h2.41v-4.31h-.69l-1.72 4.31z"/><path class="cls-8" d="M33.25 26.63h3.7v4.31h-3.7z"/><path class="cls-9" d="M34.53 30.94h2.41v-4.31h-.69l-1.72 4.31z"/><path class="cls-8" d="M25.85 26.63h3.7v4.31h-3.7z"/><path class="cls-9" d="M27.14 30.94h2.41v-4.31h-.7l-1.71 4.31z"/><path class="cls-8" d="M18.45 26.63h3.7v4.31h-3.7z"/><path class="cls-9" d="M19.74 30.94h2.41v-4.31h-.69l-1.72 4.31z"/><path class="cls-8" d="M11.06 18h3.7v4.31h-3.7z"/><path class="cls-9" d="M12.34 22.31h2.41V18h-.69l-1.72 4.31z"/><path class="cls-8" d="M33.25 18h3.7v4.31h-3.7z"/><path class="cls-9" d="M34.53 22.31h2.41V18h-.69l-1.72 4.31z"/><path class="cls-8" d="M25.85 18h3.7v4.31h-3.7z"/><path class="cls-9" d="M27.14 22.31h2.41V18h-.7l-1.71 4.31z"/><path class="cls-8" d="M18.45 18h3.7v4.31h-3.7z"/><path class="cls-9" d="M19.74 22.31h2.41V18h-.69l-1.72 4.31z"/><path class="cls-8" d="M11.06 9.37h3.7v4.31h-3.7z"/><path class="cls-9" d="M12.34 13.68h2.41V9.37h-.69l-1.72 4.31z"/><path class="cls-8" d="M33.25 9.37h3.7v4.31h-3.7z"/><path class="cls-9" d="M34.53 13.68h2.41V9.37h-.69l-1.72 4.31z"/><path class="cls-8" d="M25.85 9.37h3.7v4.31h-3.7z"/><path class="cls-9" d="M27.14 13.68h2.41V9.37h-.7l-1.71 4.31z"/><path class="cls-8" d="M18.45 9.37h3.7v4.31h-3.7z"/><path class="cls-9" d="M19.74 13.68h2.41V9.37h-.69l-1.72 4.31z"/><path class="cls-5" d="M11.06 26.63h3.7v4.31h-3.7z"/><path class="cls-5" d="M33.25 26.63h3.7v4.31h-3.7z"/><path class="cls-5" d="M25.85 26.63h3.7v4.31h-3.7z"/><path class="cls-5" d="M18.45 26.63h3.7v4.31h-3.7z"/><path class="cls-5" d="M11.06 18h3.7v4.31h-3.7z"/><path class="cls-5" d="M33.25 18h3.7v4.31h-3.7z"/><path class="cls-5" d="M25.85 18h3.7v4.31h-3.7z"/><path class="cls-5" d="M18.45 18h3.7v4.31h-3.7z"/><path class="cls-5" d="M11.06 9.37h3.7v4.31h-3.7z"/><path class="cls-5" d="M33.25 9.37h3.7v4.31h-3.7z"/><path class="cls-5" d="M25.85 9.37h3.7v4.31h-3.7z"/><path class="cls-5" d="M18.45 9.37h3.7v4.31h-3.7z"/><path class="cls-8" d="M33.86 37.1h3.7v4.31h-3.7z"/><path class="cls-9" d="M35.17 41.42h2.42V37.1h-.7l-1.72 4.32z"/><path class="cls-5" d="M10.44 37.1h3.7v4.31h-3.7z"/><path class="cls-5" d="M33.86 37.1h3.7v4.31h-3.7z"/><path class="cls-5" d="M24 36.49v8.01"/><rect class="cls-6" x="17.61" y="33.41" width="12.79" height="3.08" rx="1.23" ry="1.23"/><path class="cls-7" d="M29.16 33.41H18.84a1.23 1.23 0 0 0-1.23 1.23v.61a1.45 1.45 0 0 0 .08.47 1.25 1.25 0 0 1 1.15-.72h10.32a1.23 1.23 0 0 1 1.14.77 1.23 1.23 0 0 0 .09-.47v-.61a1.23 1.23 0 0 0-1.23-1.28z"/><rect class="cls-5" x="17.61" y="33.41" width="12.79" height="3.08" rx="1.23" ry="1.23"/></g></svg>