<svg xmlns="http://www.w3.org/2000/svg" viewBox="0 0 48 48"><defs><style>.cls-2{fill:#8ca4b8}.cls-3{fill:#adc4d9}.cls-4{fill:none;stroke:#45413c;stroke-linecap:round;stroke-linejoin:round}.cls-5{fill:#fff}.cls-6{fill:#e0e0e0}.cls-7{fill:#00b8f0}.cls-8{fill:#4acfff}</style></defs><g><ellipse cx="24" cy="45.5" rx="20.5" ry="1.5" fill="#45413c" opacity=".15"/><rect class="cls-2" x="4" y="15" width="40" height="3" rx="1" ry="1"/><path class="cls-3" d="M43 15H5a1 1 0 0 0-1 1v1a1 1 0 0 0 0 .25 1 1 0 0 1 1-.75h38a1 1 0 0 1 1 .75 1 1 0 0 0 0-.25v-1a1 1 0 0 0-1-1z"/><rect class="cls-4" x="4" y="15" width="40" height="3" rx="1" ry="1"/><path class="cls-5" d="M5 18h38v25.5a1 1 0 0 1-1 1H6a1 1 0 0 1-1-1V18z"/><path class="cls-6" d="M5 18h38v2.25H5z"/><path class="cls-4" d="M5 18h38v25.5a1 1 0 0 1-1 1H6a1 1 0 0 1-1-1V18z"/><path class="cls-5" d="M13.5 12.5h21v32h-21z"/><path class="cls-6" d="M13.5 12.5h21v1.79h-21z"/><path class="cls-4" d="M13.5 12.5h21v32h-21z"/><path class="cls-7" d="M18 33.5h12v11H18z"/><path class="cls-8" d="M20.44 44.5h5.2L30 33.93v-.43h-5.03l-4.53 11z"/><path class="cls-4" d="M18 33.5h12v11H18z"/><rect class="cls-2" x="17" y="30" width="14" height="3.5" rx="1" ry="1"/><path class="cls-3" d="M30 30H18a1 1 0 0 0-1 1v1.5a.53.53 0 0 0 0 .12 1 1 0 0 1 1-.87h12a1 1 0 0 1 1 .87.53.53 0 0 0 0-.12V31a1 1 0 0 0-1-1z"/><rect class="cls-4" x="17" y="30" width="14" height="3.5" rx="1" ry="1"/><rect class="cls-2" x="12.5" y="9.5" width="23" height="3" rx="1" ry="1"/><path class="cls-3" d="M34.5 9.5h-21a1 1 0 0 0-1 1v1a1 1 0 0 0 .05.25 1 1 0 0 1 .95-.75h21a1 1 0 0 1 1 .75 1 1 0 0 0 0-.25v-1a1 1 0 0 0-1-1z"/><rect class="cls-4" x="12.5" y="9.5" width="23" height="3" rx="1" ry="1"/><path d="M27.5 19H26a.5.5 0 0 1-.5-.5V17a.5.5 0 0 0-.5-.5h-2a.5.5 0 0 0-.5.5v1.5a.5.5 0 0 1-.5.5h-1.5a.5.5 0 0 0-.5.5v2a.5.5 0 0 0 .5.5H22a.5.5 0 0 1 .5.5V24a.5.5 0 0 0 .5.5h2a.5.5 0 0 0 .5-.5v-1.5a.5.5 0 0 1 .5-.5h1.5a.5.5 0 0 0 .5-.5v-2a.5.5 0 0 0-.5-.5z" fill="#ff6242" stroke="#45413c" stroke-linecap="round" stroke-linejoin="round"/><rect class="cls-7" x="8" y="20.5" width="2.5" height="4.5" rx=".5" ry=".5"/><path class="cls-8" d="M8.5 25H10a.5.5 0 0 0 .5-.5V21a.5.5 0 0 0-.11-.3l-2.22 4.17a.49.49 0 0 0 .33.13z"/><rect class="cls-7" x="8" y="27.5" width="2.5" height="4.5" rx=".5" ry=".5"/><path class="cls-8" d="M8.5 32H10a.5.5 0 0 0 .5-.5V28a.5.5 0 0 0-.11-.3l-2.22 4.17a.49.49 0 0 0 .33.13z"/><rect class="cls-7" x="8" y="34.5" width="2.5" height="4.5" rx=".5" ry=".5"/><path class="cls-8" d="M8.5 39H10a.5.5 0 0 0 .5-.5V35a.5.5 0 0 0-.11-.3l-2.22 4.17a.49.49 0 0 0 .33.13z"/><rect class="cls-4" x="8" y="20.5" width="2.5" height="4.5" rx=".5" ry=".5"/><rect class="cls-4" x="8" y="27.5" width="2.5" height="4.5" rx=".5" ry=".5"/><rect class="cls-4" x="8" y="34.5" width="2.5" height="4.5" rx=".5" ry=".5"/><rect class="cls-7" x="37.5" y="20.5" width="2.5" height="4.5" rx=".5" ry=".5"/><path class="cls-8" d="M38 25h1.5a.5.5 0 0 0 .5-.5V21a.5.5 0 0 0-.11-.3l-2.22 4.17A.49.49 0 0 0 38 25z"/><rect class="cls-7" x="37.5" y="27.5" width="2.5" height="4.5" rx=".5" ry=".5"/><path class="cls-8" d="M38 32h1.5a.5.5 0 0 0 .5-.5V28a.5.5 0 0 0-.11-.3l-2.22 4.17A.49.49 0 0 0 38 32z"/><rect class="cls-7" x="37.5" y="34.5" width="2.5" height="4.5" rx=".5" ry=".5"/><path class="cls-8" d="M38 39h1.5a.5.5 0 0 0 .5-.5V35a.5.5 0 0 0-.11-.3l-2.22 4.17A.49.49 0 0 0 38 39z"/><rect class="cls-4" x="37.5" y="20.5" width="2.5" height="4.5" rx=".5" ry=".5"/><rect class="cls-4" x="37.5" y="27.5" width="2.5" height="4.5" rx=".5" ry=".5"/><rect class="cls-4" x="37.5" y="34.5" width="2.5" height="4.5" rx=".5" ry=".5"/><path class="cls-4" d="M24 33.5v11"/></g></svg>