<svg xmlns="http://www.w3.org/2000/svg" viewBox="0 0 48 48"><defs><style>.cls-8{fill:#fff}.cls-4{fill:none}.cls-11,.cls-12,.cls-4,.cls-7,.cls-8{stroke:#45413c;stroke-linecap:round;stroke-linejoin:round}.cls-7{fill:#ff6242}.cls-10{fill:#debb7e}.cls-11{fill:#00dfeb}.cls-12{fill:#e0e0e0}</style></defs><path d="M46.25 45.7c0 1-10 1.3-22.25 1.3s-22.25-.31-22.25-1.3 10-1.81 22.25-1.81 22.25.81 22.25 1.81z" fill="#45413c" opacity=".15"/><rect x="2.95" y="2.95" width="42.1" height="42.1" rx="3.61" ry="3.61" fill="#fff"/><path d="M41.44 42H6.56A3.61 3.61 0 0 1 3 38.43v3a3.61 3.61 0 0 0 3.61 3.61h34.83a3.61 3.61 0 0 0 3.61-3.61v-3A3.61 3.61 0 0 1 41.44 42z" fill="#f0f0f0"/><rect class="cls-4" x="2.95" y="2.95" width="42.1" height="42.1" rx="3.61" ry="3.61"/><rect x="5.96" y="5.96" width="36.08" height="36.08" rx="1.2" ry="1.2" fill="#00b8f0"/><path d="M40.84 39H7.16A1.2 1.2 0 0 1 6 37.83v3A1.2 1.2 0 0 0 7.16 42h33.68a1.2 1.2 0 0 0 1.2-1.2v-3a1.2 1.2 0 0 1-1.2 1.2z" fill="#009fd9"/><rect class="cls-4" x="5.96" y="5.96" width="36.08" height="36.08" rx="1.2" ry="1.2"/><path class="cls-7" d="M14.36 29.99H9.58l.61-15.64h3.57l.6 15.64z"/><path class="cls-7" d="M26.39 29.99h-4.78l.6-15.64h3.58l.6 15.64z"/><path class="cls-7" d="M38.42 29.99h-4.78l.6-15.64h3.57l.61 15.64z"/><path class="cls-8" d="M9.86 22.7h4.22l-.18-4.61h-3.86l-.18 4.61z"/><path class="cls-8" d="M21.89 22.7h4.22l-.18-4.61h-3.86l-.18 4.61z"/><path class="cls-8" d="M33.92 22.7h4.22l-.18-4.61H34.1l-.18 4.61z"/><path d="M41.15 23.78L30 29.83v-5.52a.59.59 0 0 0-.88-.53L18 29.83v-5.52a.6.6 0 0 0-.89-.53L6 29.83v11A1.2 1.2 0 0 0 7.16 42h33.68a1.2 1.2 0 0 0 1.2-1.2V24.31a.6.6 0 0 0-.89-.53z" fill="#b89558"/><g><path class="cls-10" d="M18 33l11.13-6a.59.59 0 0 1 .88.52v-3.21a.59.59 0 0 0-.88-.53L18 29.83z"/><path class="cls-10" d="M18 27.5v-3.19a.6.6 0 0 0-.89-.53L6 29.83V33l11.1-6a.6.6 0 0 1 .9.5z"/><path class="cls-10" d="M41.15 23.78L30 29.83V33l11.15-6a.6.6 0 0 1 .89.52v-3.21a.6.6 0 0 0-.89-.53z"/></g><path class="cls-4" d="M41.15 23.78L30 29.83v-5.52a.59.59 0 0 0-.88-.53L18 29.83v-5.52a.6.6 0 0 0-.89-.53L6 29.83v11A1.2 1.2 0 0 0 7.16 42h33.68a1.2 1.2 0 0 0 1.2-1.2V24.31a.6.6 0 0 0-.89-.53z"/><path class="cls-11" d="M9.58 33.44h2.53v8.6H9.58z"/><path class="cls-11" d="M15.31 33.44h2.53v8.6h-2.53z"/><path class="cls-11" d="M30.16 33.44h2.53v8.6h-2.53z"/><path class="cls-11" d="M35.89 33.44h2.53v8.6h-2.53z"/><path class="cls-12" d="M11 6a4.76 4.76 0 0 0 1 2.13 2 2 0 1 0 2.87 1.64 5 5 0 0 0 .78.07A4.81 4.81 0 0 0 20.38 6z"/><path class="cls-12" d="M22.84 6a4.86 4.86 0 0 0 1.06 2.13 2 2 0 1 0 2.88 1.64 4.92 4.92 0 0 0 .78.07A4.8 4.8 0 0 0 32.27 6z"/><path class="cls-12" d="M40.84 6h-6.1a4.76 4.76 0 0 0 1.06 2.13 2 2 0 1 0 2.87 1.64 5 5 0 0 0 .78.07A4.77 4.77 0 0 0 42 9.08V7.16A1.2 1.2 0 0 0 40.84 6z"/></svg>