<svg xmlns="http://www.w3.org/2000/svg" viewBox="0 0 48 48"><defs><style>.cls-2{fill:#fff}.cls-3{fill:none;stroke:#45413c;stroke-linecap:round;stroke-linejoin:round}.cls-6{fill:#ffaa54}.cls-7{fill:#fc9}.cls-9{fill:#f0f0f0}</style></defs><path d="M46.25 45.7c0 1-10 1.3-22.25 1.3s-22.25-.31-22.25-1.3 10-1.81 22.25-1.81 22.25.81 22.25 1.81z" fill="#45413c" opacity=".15"/><g><rect class="cls-2" x="3.22" y="3.22" width="41.56" height="41.56" rx="3.56" ry="3.56"/><rect class="cls-3" x="3.22" y="3.22" width="41.56" height="41.56" rx="3.56" ry="3.56"/><rect x="6.19" y="6.19" width="35.62" height="35.62" rx="1.19" ry="1.19" fill="#00b8f0"/><path d="M6.19 37.24h35.62v3.38a1.19 1.19 0 0 1-1.19 1.19H7.38a1.19 1.19 0 0 1-1.19-1.19v-3.38z" fill="#009fd9"/><rect class="cls-3" x="6.19" y="6.19" width="35.62" height="35.62" rx="1.19" ry="1.19"/><path class="cls-6" d="M14.58 14.09s.81-1.91 4.26-2 5.35 3.85 5.72 5.44-.56 5-.56 5z"/><path class="cls-7" d="M18.84 13.54c3.45 0 5.35 3.85 5.72 5.44 0 .1 0 .19.05.29a6.22 6.22 0 0 0-.05-1.7c-.37-1.59-2.27-5.49-5.72-5.44s-4.26 2-4.26 2l.66.59a5.45 5.45 0 0 1 3.6-1.18z"/><path class="cls-3" d="M14.58 14.09s.81-1.91 4.26-2 5.35 3.85 5.72 5.44-.56 5-.56 5z"/><path fill="#ffe500" stroke="#45413c" stroke-linecap="round" stroke-linejoin="round" d="M24 6.19h2.89v35.62H24z"/><path class="cls-6" d="M30.94 23.7a3.32 3.32 0 0 1 2.81-1.08c2.07 0 3.31 1.66 3.13 4s1.52 2.42 1.52 2.42-.26 3.11-3.73 2.19S30.94 28 30.94 28z"/><path class="cls-7" d="M36.92 27.51a2.87 2.87 0 0 1 0-.85c.18-2.38-1.06-4-3.13-4a3.32 3.32 0 0 0-2.81 1.08v1.92a3.32 3.32 0 0 1 2.81-1.08 3.06 3.06 0 0 1 3.1 3z"/><path class="cls-3" d="M30.94 23.7a3.32 3.32 0 0 1 2.81-1.08c2.07 0 3.31 1.66 3.13 4s1.52 2.42 1.52 2.42-.26 3.11-3.73 2.19S30.94 28 30.94 28z"/><path class="cls-2" d="M33.15 29.3v-2.08a4.64 4.64 0 0 0-4.65-4.65H24l-.1-.34a21.5 21.5 0 0 0-3-6.27 3.67 3.67 0 0 0-3-1.55h-2.1l-1.29-2.29s-1.67 2-.71 3.49a2.73 2.73 0 0 0-.47 1.32L13 20.5a1.42 1.42 0 0 0 2.73.63l.38-1A2.41 2.41 0 0 0 18 18.28c-.11 1.22-.44 4.32-1.3 5.92a3.36 3.36 0 0 0-.34 1.72v1.41a1.54 1.54 0 0 1-1.08 1.6l-.42.14a2.33 2.33 0 0 0-1.48 1.63l-.62 2.42a.65.65 0 0 0 .43.77l1.26.38a.64.64 0 0 0 .8-.46l.37-1.48a1.19 1.19 0 0 1 .89-.87 7.91 7.91 0 0 0 2.74-1.09 5.43 5.43 0 0 0 2.23.56c4.35.2 5.19-1.78 5.19-1.78.25 1.83 2.18 2.13 3.51 2.13s1.88 1.88.6 2.17-.89 2.33-.89 2.33h2.71a1.1 1.1 0 0 0 1-.7l1.27-3.25a1.86 1.86 0 0 0-1.72-2.53z"/><g><path class="cls-9" d="M30.86 31.46c1.18-.35.63-2.15-.68-2.15s-3.26-.3-3.51-2.13c0 0-.84 2-5.19 1.79a5.43 5.43 0 0 1-2.23-.57 7.92 7.92 0 0 1-2.74 1.1 1.16 1.16 0 0 0-.89.87l-.37 1.47a.64.64 0 0 1-.8.46l-1.26-.38-.11-.05-.32 1.25a.65.65 0 0 0 .43.77l1.26.38a.64.64 0 0 0 .8-.46l.37-1.48a1.19 1.19 0 0 1 .89-.87 7.91 7.91 0 0 0 2.74-1.09 5.43 5.43 0 0 0 2.23.56c4.35.2 5.19-1.78 5.19-1.78.25 1.83 2.18 2.13 3.51 2.13a1.35 1.35 0 0 1 .68.18z"/><path class="cls-9" d="M33.62 33.11a1.1 1.1 0 0 1-1 .7h-2.43a2.79 2.79 0 0 0-.3 2h2.71a1.1 1.1 0 0 0 1-.7l1.27-3.25a1.84 1.84 0 0 0-.14-1.62z"/></g><path class="cls-3" d="M33.15 29.3v-2.08a4.64 4.64 0 0 0-4.65-4.65H24l-.1-.34a21.5 21.5 0 0 0-3-6.27 3.67 3.67 0 0 0-3-1.55h-2.1l-1.29-2.29s-1.67 2-.71 3.49a2.73 2.73 0 0 0-.47 1.32L13 20.5a1.42 1.42 0 0 0 2.73.63l.38-1A2.41 2.41 0 0 0 18 18.28c-.11 1.22-.44 4.32-1.3 5.92a3.36 3.36 0 0 0-.34 1.72v1.41a1.54 1.54 0 0 1-1.08 1.6l-.42.14a2.33 2.33 0 0 0-1.48 1.63l-.62 2.42a.65.65 0 0 0 .43.77l1.26.38a.64.64 0 0 0 .8-.46l.37-1.48a1.19 1.19 0 0 1 .89-.87 7.91 7.91 0 0 0 2.74-1.09 5.43 5.43 0 0 0 2.23.56c4.35.2 5.19-1.78 5.19-1.78.25 1.83 2.18 2.13 3.51 2.13s1.88 1.88.6 2.17-.89 2.33-.89 2.33h2.71a1.1 1.1 0 0 0 1-.7l1.27-3.25a1.86 1.86 0 0 0-1.72-2.53z"/><path d="M24 22.57h5.16a.55.55 0 0 1 .55.55v2.22a1.17 1.17 0 0 1-1.17 1.17h-3.37A1.17 1.17 0 0 1 24 25.34v-2.77z" fill="#00dfeb" stroke="#45413c" stroke-linecap="round" stroke-linejoin="round"/><path class="cls-3" d="M20.36 27.18s.42.75-.35 2.34c-.47 1-2 1.61-3.5 1.94a1.19 1.19 0 0 0-.89.87l-.37 1.48a.64.64 0 0 1-.8.46l-1.26-.38a.65.65 0 0 1-.43-.77l.62-2.42a2.33 2.33 0 0 1 1.48-1.63l.42-.14a1.54 1.54 0 0 0 1.08-1.6v-1.44"/></g></svg>