<svg xmlns="http://www.w3.org/2000/svg" viewBox="0 0 48 48"><defs><style>.cls-4{fill:none;stroke:#45413c;stroke-linecap:round;stroke-linejoin:round}.cls-7{fill:#ff6242}.cls-8{fill:#e04122}.cls-10{fill:#ff866e}</style></defs><g><path d="M46.25 45.7c0 1-10 1.3-22.25 1.3s-22.25-.31-22.25-1.3 10-1.81 22.25-1.81 22.25.81 22.25 1.81z" fill="#45413c" opacity=".15"/><rect x="2.95" y="2.95" width="42.09" height="42.09" rx="3.61" ry="3.61" fill="#fff"/><path d="M41.44 42H6.56A3.61 3.61 0 0 1 3 38.43v3a3.61 3.61 0 0 0 3.61 3.61h34.83a3.61 3.61 0 0 0 3.61-3.61v-3A3.61 3.61 0 0 1 41.44 42z" fill="#f0f0f0"/><rect class="cls-4" x="2.95" y="2.95" width="42.09" height="42.09" rx="3.61" ry="3.61"/><rect x="5.96" y="5.96" width="36.08" height="36.08" rx="1.2" ry="1.2" fill="#00b8f0"/><path d="M40.84 39H7.16A1.2 1.2 0 0 1 6 37.83v3A1.2 1.2 0 0 0 7.16 42h33.68a1.2 1.2 0 0 0 1.2-1.2v-3a1.2 1.2 0 0 1-1.2 1.2z" fill="#009fd9"/><rect class="cls-4" x="5.96" y="5.96" width="36.08" height="36.08" rx="1.2" ry="1.2"/><path class="cls-7" d="M21.59 24l-7.81 18.04h4.81L24 26.41l5.41 15.63h4.81L26.41 24h-4.82z"/><g><path class="cls-8" d="M15.08 39.03l-1.3 3.01h4.81l1.04-3.01h-4.55z"/><path class="cls-8" d="M28.37 39.03l1.04 3.01h4.81l-1.3-3.01h-4.55z"/></g><path class="cls-4" d="M21.59 23.85l-7.81 18.04h4.81L24 26.26l5.41 15.63h4.81l-7.81-18.04h-4.82z"/><path d="M24 11.37A12.63 12.63 0 1 0 36.63 24 12.64 12.64 0 0 0 24 11.37zm0 22.25A9.62 9.62 0 1 1 33.62 24 9.62 9.62 0 0 1 24 33.62z" stroke="#45413c" stroke-linecap="round" stroke-linejoin="round" fill="#fff"/><circle class="cls-7" cx="24" cy="13.18" r="3.01"/><circle class="cls-7" cx="24" cy="35.43" r="3.01"/><path class="cls-7" d="M15.87 16.13a3 3 0 1 1-4.11 1.1 3 3 0 0 1 4.11-1.1z"/><path class="cls-7" d="M35.14 27.26a3 3 0 1 1-4.14 1.1 3 3 0 0 1 4.14-1.1z"/><path class="cls-7" d="M12.86 27.26a3 3 0 1 1-1.1 4.11 3 3 0 0 1 1.1-4.11z"/><path class="cls-7" d="M32.13 16.13A3 3 0 1 1 31 20.24a3 3 0 0 1 1.13-4.11z"/><path class="cls-10" d="M24 12.27a3 3 0 0 1 2.82 2 3.05 3.05 0 0 0 .18-1.09 3 3 0 0 0-6 0 3.05 3.05 0 0 0 .19 1.05A3 3 0 0 1 24 12.27z"/><path class="cls-10" d="M24 34.52a3 3 0 0 1 2.82 2 3.05 3.05 0 0 0 .19-1 3 3 0 0 0-6 0 3.05 3.05 0 0 0 .19 1 3 3 0 0 1 2.8-2z"/><path class="cls-10" d="M11.76 19.34a3 3 0 0 1 4.11-1.1 3 3 0 0 1 1.31 1.55 3 3 0 1 0-5.63 0 4.54 4.54 0 0 1 .21-.45z"/><path class="cls-7" d="M31 30.46a3 3 0 0 1 5.42.45 3 3 0 1 0-5.63 0 3.82 3.82 0 0 1 .21-.45z"/><path class="cls-10" d="M12.86 29.36a3 3 0 0 1 4.14 1.1 3.82 3.82 0 0 1 .21.46 3 3 0 1 0-5.63 0 3 3 0 0 1 1.28-1.56z"/><path class="cls-10" d="M32.13 18.24a3 3 0 0 1 4.11 1.1 4.54 4.54 0 0 1 .21.45 3 3 0 1 0-5.63 0 3 3 0 0 1 1.31-1.55z"/><circle class="cls-7" cx="24" cy="24" r="2.41"/><path class="cls-10" d="M24 23.4a2.41 2.41 0 0 1 2.26 1.6 2.54 2.54 0 0 0 .15-.83 2.41 2.41 0 0 0-4.82 0 2.54 2.54 0 0 0 .15.83A2.41 2.41 0 0 1 24 23.4z"/><circle class="cls-4" cx="24" cy="13.18" r="3.01"/><path class="cls-4" d="M15.87 16.13a3 3 0 1 1-4.11 1.1 3 3 0 0 1 4.11-1.1z"/><path class="cls-4" d="M35.14 27.26a3 3 0 1 1-4.14 1.1 3 3 0 0 1 4.14-1.1z"/><path class="cls-4" d="M12.86 27.26a3 3 0 1 1-1.1 4.11 3 3 0 0 1 1.1-4.11z"/><path class="cls-4" d="M32.13 16.13A3 3 0 1 1 31 20.24a3 3 0 0 1 1.13-4.11z"/><circle class="cls-4" cx="24" cy="24.15" r="2.41"/><path class="cls-4" d="M24 16.18v5.41"/><path class="cls-4" d="M17.39 20.39l4.2 2.41"/><path class="cls-4" d="M26.41 22.8l4.2-2.41"/><path class="cls-4" d="M21.59 25.8l-4.2 2.41"/><path class="cls-4" d="M26.41 25.8l4.2 2.41"/><circle class="cls-4" cx="24" cy="35.43" r="3.01"/></g></svg>