<svg xmlns="http://www.w3.org/2000/svg" viewBox="0 0 48 48"><defs><style>.cls-3{fill:none}.cls-13,.cls-14,.cls-3{stroke:#45413c;stroke-linecap:round;stroke-linejoin:round}.cls-7{fill:#fff}.cls-8{fill:#e0e0e0}.cls-10{fill:#ff6242}.cls-11{fill:#9ceb60}.cls-12{fill:#6dd627}.cls-13{fill:#9f5ae5}.cls-14{fill:#bdbec0}</style></defs><rect x="2.62" y="8.78" width="42.75" height="29.72" rx="2" ry="2" fill="#656769"/><path d="M43.38 8.78H4.62a2 2 0 0 0-2 2v3.44a2 2 0 0 1 2-2h38.76a2 2 0 0 1 2 2v-3.44a2 2 0 0 0-2-2z" fill="#87898c"/><rect class="cls-3" x="2.62" y="8.78" width="42.75" height="29.72" rx="2" ry="2"/><ellipse cx="24" cy="39.5" rx="22.5" ry="1.5" fill="#45413c" opacity=".15"/><rect x="5.08" y="11.36" width="37.85" height="24.56" rx="1" ry="1" fill="#e8f4fa"/><path d="M41.92 11.36H6.08a1 1 0 0 0-1 1V15a1 1 0 0 1 1-1h35.84a1 1 0 0 1 1 1v-2.64a1 1 0 0 0-1-1z" fill="#c0dceb"/><rect class="cls-3" x="5.08" y="11.36" width="37.85" height="24.56" rx="1" ry="1"/><path class="cls-7" d="M15.92 14.24a.34.34 0 0 0-.34-.27H8.87a.34.34 0 0 0-.34.27 35.73 35.73 0 0 0 0 13.9.33.33 0 0 0 .34.28h6.71a.33.33 0 0 0 .34-.28 35.73 35.73 0 0 0 0-13.9z"/><path class="cls-8" d="M8.87 14a.34.34 0 0 0-.34.27c-.12.6-.22 1.19-.31 1.79h8c-.09-.6-.19-1.19-.31-1.79a.34.34 0 0 0-.34-.27z"/><path class="cls-3" d="M15.92 14.24a.34.34 0 0 0-.34-.27H8.87a.34.34 0 0 0-.34.27 35.73 35.73 0 0 0 0 13.9.33.33 0 0 0 .34.28h6.71a.33.33 0 0 0 .34-.28 35.73 35.73 0 0 0 0-13.9z"/><rect x="7.85" y="30.76" width="13.57" height="2.83" rx=".5" ry=".5" fill="#ff866e"/><path class="cls-10" d="M20.91 30.76H8.35a.5.5 0 0 0-.5.5v1.41a.5.5 0 0 1 .5-.5h12.56a.5.5 0 0 1 .5.5v-1.41a.5.5 0 0 0-.5-.5z"/><rect class="cls-3" x="7.85" y="30.76" width="13.57" height="2.83" rx=".5" ry=".5"/><rect class="cls-11" x="23.96" y="30.76" width="6.09" height="2.83" rx=".5" ry=".5"/><rect class="cls-11" x="32.51" y="30.76" width="7.56" height="2.83" rx=".5" ry=".5"/><path class="cls-12" d="M29.55 30.76h-5.09a.5.5 0 0 0-.5.5v1.41a.5.5 0 0 1 .5-.5h5.09a.51.51 0 0 1 .5.5v-1.41a.5.5 0 0 0-.5-.5z"/><path class="cls-12" d="M39.56 30.76H33a.5.5 0 0 0-.5.5v1.41a.5.5 0 0 1 .5-.5h6.55a.5.5 0 0 1 .5.5v-1.41a.5.5 0 0 0-.49-.5z"/><rect class="cls-3" x="23.96" y="30.76" width="6.09" height="2.83" rx=".5" ry=".5"/><rect class="cls-3" x="32.51" y="30.76" width="7.56" height="2.83" rx=".5" ry=".5"/><path class="cls-10" d="M10.75 23.59l2.12-4H10.7a.61.61 0 0 1-.47-.17.6.6 0 0 1-.16-.42.54.54 0 0 1 .63-.58h3.07a.52.52 0 0 1 .45.2.68.68 0 0 1 .16.41.57.57 0 0 1-.06.24c0 .09-.08.19-.14.32l-2.1 4.27c-.09.18-.17.32-.22.4a.57.57 0 0 1-.2.18.62.62 0 0 1-.29.06.68.68 0 0 1-.51-.2.55.55 0 0 1-.2-.4.64.64 0 0 1 .09-.31z"/><path class="cls-13" d="M9.46 14a3.27 3.27 0 0 0 2.76 1.79A3.27 3.27 0 0 0 15 14z"/><path class="cls-14" d="M9.46 28.42a3.27 3.27 0 0 1 2.76-1.79A3.27 3.27 0 0 1 15 28.42z"/><path class="cls-7" d="M39.47 14.24a.34.34 0 0 0-.34-.27h-6.71a.34.34 0 0 0-.34.27 35.73 35.73 0 0 0 0 13.9.33.33 0 0 0 .34.28h6.71a.33.33 0 0 0 .34-.28 35.73 35.73 0 0 0 0-13.9z"/><path class="cls-8" d="M32.42 14a.34.34 0 0 0-.34.27c-.12.6-.22 1.19-.31 1.79h8c-.09-.6-.19-1.19-.31-1.79a.34.34 0 0 0-.34-.27z"/><path class="cls-3" d="M39.47 14.24a.34.34 0 0 0-.34-.27h-6.71a.34.34 0 0 0-.34.27 35.73 35.73 0 0 0 0 13.9.33.33 0 0 0 .34.28h6.71a.33.33 0 0 0 .34-.28 35.73 35.73 0 0 0 0-13.9z"/><path class="cls-10" d="M34.3 23.59l2.12-4h-2.17a.61.61 0 0 1-.47-.17.6.6 0 0 1-.16-.42.54.54 0 0 1 .63-.58h3.07a.52.52 0 0 1 .45.2.67.67 0 0 1 .15.41.55.55 0 0 1-.05.24c0 .09-.08.19-.14.32l-2.1 4.27c-.1.18-.17.32-.22.4a.57.57 0 0 1-.2.18.62.62 0 0 1-.29.06.66.66 0 0 1-.51-.2.55.55 0 0 1-.2-.4.64.64 0 0 1 .09-.31z"/><path class="cls-13" d="M33 14a3 3 0 0 0 5.53 0z"/><path class="cls-14" d="M33 28.42a3 3 0 0 1 5.53 0z"/><path class="cls-7" d="M27.7 14.24a.34.34 0 0 0-.34-.27h-6.72a.34.34 0 0 0-.34.27 36.12 36.12 0 0 0 0 13.9.34.34 0 0 0 .34.28h6.72a.33.33 0 0 0 .34-.28 36.12 36.12 0 0 0 0-13.9z"/><path class="cls-8" d="M20.64 14a.34.34 0 0 0-.34.27c-.11.6-.22 1.19-.3 1.79h8c-.08-.6-.18-1.19-.3-1.79a.34.34 0 0 0-.34-.27z"/><path class="cls-3" d="M27.7 14.24a.34.34 0 0 0-.34-.27h-6.72a.34.34 0 0 0-.34.27 36.12 36.12 0 0 0 0 13.9.34.34 0 0 0 .34.28h6.72a.33.33 0 0 0 .34-.28 36.12 36.12 0 0 0 0-13.9z"/><path class="cls-10" d="M22.53 23.59l2.11-4h-2.17a.63.63 0 0 1-.47-.17.64.64 0 0 1-.15-.42.62.62 0 0 1 .15-.42.59.59 0 0 1 .47-.16h3.07a.54.54 0 0 1 .46.2.67.67 0 0 1 .15.41.74.74 0 0 1 0 .24l-.14.32-2.11 4.27a3.09 3.09 0 0 1-.22.4.54.54 0 0 1-.19.18.67.67 0 0 1-.3.06.69.69 0 0 1-.51-.2.54.54 0 0 1-.19-.4.64.64 0 0 1 .04-.31z"/><path class="cls-13" d="M21.23 14A3.28 3.28 0 0 0 24 15.76 3.28 3.28 0 0 0 26.77 14z"/><path class="cls-14" d="M21.23 28.42A3.28 3.28 0 0 1 24 26.63a3.28 3.28 0 0 1 2.77 1.79z"/></svg>