<svg xmlns="http://www.w3.org/2000/svg" viewBox="0 0 48 48"><defs><style>.cls-2{fill:#8ca4b8}.cls-3{fill:#627b8c}.cls-4{fill:none}.cls-17,.cls-4{stroke:#45413c;stroke-linecap:round;stroke-linejoin:round}.cls-17{fill:#fffacf}.cls-9{fill:#00b8f0}.cls-10{fill:#4acfff}.cls-11{fill:#c0dceb}.cls-12{fill:#daedf7}</style></defs><g><ellipse cx="24" cy="42.34" rx="20.44" ry="1.66" fill="#45413c" opacity=".15"/><circle class="cls-2" cx="13.86" cy="39.58" r="2.42"/><path class="cls-3" d="M13.86 37.17a2.41 2.41 0 0 0-2.41 2.41 2.48 2.48 0 0 0 .11.73h4.61a2.48 2.48 0 0 0 .11-.73 2.41 2.41 0 0 0-2.42-2.41z"/><circle class="cls-2" cx="34.14" cy="39.58" r="2.42"/><path class="cls-3" d="M34.14 37.17a2.41 2.41 0 0 0-2.42 2.41 2.48 2.48 0 0 0 .11.73h4.61a2.48 2.48 0 0 0 .11-.73 2.41 2.41 0 0 0-2.41-2.41z"/><circle class="cls-4" cx="13.86" cy="39.58" r="2.42"/><circle class="cls-4" cx="34.14" cy="39.58" r="2.42"/><path fill="#fffacf" d="M3.47 19.48h41.06v19.26H3.47z"/><path fill="#fffce5" d="M3.47 19.48h41.06v2.58H3.47z"/><path class="cls-4" d="M3.47 19.48h41.06v19.26H3.47z"/><path d="M44.53 19.48H3.47l.32-.87a4.41 4.41 0 0 1 4.14-2.89h32.14a4.41 4.41 0 0 1 4.14 2.89z" fill="#6dd627"/><path d="M7.93 17.6h32.14a4.4 4.4 0 0 1 3.61 1.88h.85l-.32-.87a4.41 4.41 0 0 0-4.14-2.89H7.93a4.41 4.41 0 0 0-4.14 2.89l-.32.87h.85a4.4 4.4 0 0 1 3.61-1.88z" fill="#9ceb60"/><path class="cls-4" d="M44.53 19.48H3.47l.32-.87a4.41 4.41 0 0 1 4.14-2.89h32.14a4.41 4.41 0 0 1 4.14 2.89z"/><rect class="cls-9" x="17.85" y="24.37" width="12.3" height="6.66" rx="1.1" ry="1.1"/><path class="cls-10" d="M29.05 24.37h-1.18L23 31h6.07a1.1 1.1 0 0 0 1.1-1.1v-4.42a1.11 1.11 0 0 0-1.12-1.11z"/><path class="cls-11" d="M2.94 37.17h4.31v2a1.1 1.1 0 0 1-1.1 1.1H2.94a1.1 1.1 0 0 1-1.1-1.1v-.93a1.1 1.1 0 0 1 1.1-1.07z"/><path class="cls-11" d="M40.75 37.17h4.31a1.1 1.1 0 0 1 1.1 1.1v.93a1.1 1.1 0 0 1-1.1 1.1h-3.2a1.1 1.1 0 0 1-1.1-1.1v-2l-.01-.03z"/><path class="cls-11" d="M40.75 37.17h4.31a1.1 1.1 0 0 1 1.1 1.1v.93a1.1 1.1 0 0 1-1.1 1.1h-3.2a1.1 1.1 0 0 1-1.1-1.1v-2l-.01-.03z"/><path class="cls-12" d="M2.94 37.17a1.11 1.11 0 0 0-1.11 1.1v.93a1.13 1.13 0 0 0 0 .32 1.11 1.11 0 0 1 1.06-.78h4.36v-1.57z"/><path class="cls-12" d="M45.06 37.17h-4.31v1.57h4.31a1.11 1.11 0 0 1 1.06.78 1.13 1.13 0 0 0 .05-.32v-.93a1.11 1.11 0 0 0-1.11-1.1z"/><path class="cls-4" d="M2.94 37.17h4.31v2a1.1 1.1 0 0 1-1.1 1.1H2.94a1.1 1.1 0 0 1-1.1-1.1v-.93a1.1 1.1 0 0 1 1.1-1.07z"/><path class="cls-4" d="M40.75 37.17h4.31a1.1 1.1 0 0 1 1.1 1.1v.93a1.1 1.1 0 0 1-1.1 1.1h-3.2a1.1 1.1 0 0 1-1.1-1.1v-2l-.01-.03z"/><path d="M26.58 41.32h-5.16a1.09 1.09 0 0 1-1.08-.87L20 38.74h8l-.37 1.71a1.09 1.09 0 0 1-1.05.87z" fill="#87898c" stroke="#45413c" stroke-linecap="round" stroke-linejoin="round"/><path d="M21.54 13h-5.75a3.32 3.32 0 0 0-2.88 1.67l-.62 1.09h10.36v-1.7A1.11 1.11 0 0 0 21.54 13z" fill="#9ceb60" stroke="#45413c" stroke-linecap="round" stroke-linejoin="round"/><path class="cls-4" d="M20.5 12.96l-4.29-3.47 4.29-3.47 4.3 3.47-4.3 3.47z"/><path d="M21.64 4h-2.27a1 1 0 1 0 0 2h2.27a1 1 0 1 0 0-2z" fill="#e8f4fa" stroke="#45413c" stroke-linecap="round" stroke-linejoin="round"/><path fill="#6dd627" stroke="#45413c" stroke-linecap="round" stroke-linejoin="round" d="M3.47 31.03h41.06v3.19H3.47z"/><path class="cls-17" d="M8.35 24.37H14a1.1 1.1 0 0 1 1.1 1.1v13.27H7.25V25.48a1.1 1.1 0 0 1 1.1-1.11z"/><path class="cls-17" d="M34 24.37h5.62a1.1 1.1 0 0 1 1.1 1.1v13.27h-7.79V25.48A1.1 1.1 0 0 1 34 24.37z"/><path class="cls-9" d="M7.25 27.05h7.82v9.02H7.25z"/><path class="cls-10" d="M13.86 27.05l-6.61 9.01h7.82v-9.01h-1.21z"/><path class="cls-9" d="M32.93 27.05h7.82v9.02h-7.82z"/><path class="cls-10" d="M39.55 27.05l-6.62 9.01h7.83v-9.01h-1.21z"/><rect class="cls-4" x="17.85" y="24.37" width="12.3" height="6.66" rx="1.1" ry="1.1"/><path class="cls-4" d="M7.25 27.05h7.82v9.02H7.25z"/><path class="cls-4" d="M32.93 27.05h7.82v9.02h-7.82z"/></g></svg>