<svg xmlns="http://www.w3.org/2000/svg" viewBox="0 0 48 48"><defs><style>.cls-1{fill:#00b8f0}.cls-2{fill:#4acfff}.cls-3{fill:none}.cls-11,.cls-13,.cls-3{stroke:#45413c;stroke-linecap:round;stroke-linejoin:round}.cls-7{fill:#656769}.cls-11{fill:#ff6242}.cls-12{fill:#525252}.cls-13{fill:#daedf7}</style></defs><g><path class="cls-1" d="M4.1 13.89s-.75 3.87-1 7.29a37.36 37.36 0 0 0 0 6.24h5.2V13.89z"/><path class="cls-2" d="M3 25.53c0 1.16.11 1.89.11 1.89h5.2v-10.2z"/><path class="cls-3" d="M4.1 13.89s-.75 3.87-1 7.29a37.36 37.36 0 0 0 0 6.24h5.2V13.89z"/><ellipse cx="24" cy="42.44" rx="21.32" ry="1.56" fill="#45413c" opacity=".15"/><path d="M44.92 34.18H2.54v-6.76a1 1 0 0 1 1-1h.65a1 1 0 0 0 1-.9l1.36-10a.52.52 0 0 0-.51-.59H3.65a.52.52 0 0 1-.52-.58l.22-1.75a2.08 2.08 0 0 1 2.07-1.83H41.8a3.12 3.12 0 0 1 3.12 3.12z" fill="#ffe500"/><g><path d="M41.8 10.77H5.42a2.08 2.08 0 0 0-2.07 1.83l-.22 1.75a.53.53 0 0 0 .29.53 2.08 2.08 0 0 1 2-1.51H41.8a3.12 3.12 0 0 1 3.12 3.12v-2.6a3.12 3.12 0 0 0-3.12-3.12z" fill="#fff48c"/></g><path class="cls-3" d="M44.92 34.18H2.54v-6.76a1 1 0 0 1 1-1h.65a1 1 0 0 0 1-.9l1.36-10a.52.52 0 0 0-.51-.59H3.65a.52.52 0 0 1-.52-.58l.22-1.75a2.08 2.08 0 0 1 2.07-1.83H41.8a3.12 3.12 0 0 1 3.12 3.12z"/><path class="cls-7" d="M2.54 34.18h42.38a.52.52 0 0 1 .52.52v2.6a1 1 0 0 1-1 1H3.06a1 1 0 0 1-1-1v-2.6a.52.52 0 0 1 .48-.52z"/><path d="M44.92 34.18H2.54a.52.52 0 0 0-.54.52v.52a1 1 0 0 0 1 1h41.4a1 1 0 0 0 1-1v-.52a.52.52 0 0 0-.48-.52z" fill="#87898c"/><path class="cls-3" d="M2.54 34.18h42.38a.52.52 0 0 1 .52.52v2.6a1 1 0 0 1-1 1H3.06a1 1 0 0 1-1-1v-2.6a.52.52 0 0 1 .48-.52z"/><path d="M37.12 10.77H10.86l.33-1.29a1 1 0 0 1 1-.79h23.6a1 1 0 0 1 1 .79z" fill="#fff48c" stroke="#45413c" stroke-linecap="round" stroke-linejoin="round"/><path class="cls-1" d="M14.66 26.38H9.38a.52.52 0 0 1-.52-.59l1.36-10a1 1 0 0 1 1-.9h29.54a1 1 0 0 1 1 1v6.25a1 1 0 0 1-1 1H16.94a1 1 0 0 0-1 .86l-.23 1.39a1.05 1.05 0 0 1-1.05.99z"/><path class="cls-2" d="M19.75 23.28l5.14-8.32 13.73-.03-5.15 8.33-13.72.02z"/><path class="cls-3" d="M14.66 26.38H9.38a.52.52 0 0 1-.52-.59l1.36-10a1 1 0 0 1 1-.9h29.54a1 1 0 0 1 1 1v6.25a1 1 0 0 1-1 1H16.94a1 1 0 0 0-1 .86l-.23 1.39a1.05 1.05 0 0 1-1.05.99z"/><path fill="#ff8a14" stroke="#45413c" stroke-linecap="round" stroke-linejoin="round" d="M2.54 29.5h42.38v4.68H2.54z"/><path class="cls-11" d="M2.54 29h1v3.1h-1a1 1 0 0 1-1-1V30a1 1 0 0 1 1-1z"/><path class="cls-11" d="M44.92 28.46h1a1 1 0 0 1 1 1v1.56a1 1 0 0 1-1 1h-1v-3.56z"/><circle class="cls-12" cx="9.82" cy="38.34" r="4.16"/><circle class="cls-12" cx="37.64" cy="38.34" r="4.16"/><path class="cls-7" d="M9.82 36.26a4.16 4.16 0 0 1 4 3.12 4.42 4.42 0 0 0 .14-1 4.16 4.16 0 0 0-8.32 0 4 4 0 0 0 .15 1 4.15 4.15 0 0 1 4.03-3.12z"/><path class="cls-7" d="M37.64 36.26a4.15 4.15 0 0 1 4 3.12 4 4 0 0 0 .15-1 4.16 4.16 0 1 0-8.32 0 4.42 4.42 0 0 0 .14 1 4.16 4.16 0 0 1 4.03-3.12z"/><circle class="cls-3" cx="9.82" cy="38.34" r="4.16"/><circle class="cls-3" cx="37.64" cy="38.34" r="4.16"/><circle class="cls-13" cx="9.82" cy="38.34" r="1.56"/><circle class="cls-13" cx="37.64" cy="38.34" r="1.56"/><path class="cls-3" d="M16.58 23.26v-8.33"/><path class="cls-3" d="M29.29 14.93v8.33"/><path class="cls-3" d="M22.94 14.93v8.33"/><path class="cls-3" d="M35.64 14.93v8.33"/><path class="cls-3" d="M7.22 12.85H9.3"/><path class="cls-3" d="M38.68 12.85h2.08"/></g></svg>