<svg xmlns="http://www.w3.org/2000/svg" viewBox="0 0 48 48"><defs><style>.cls-1{fill:#ffe500}.cls-2{fill:#fff48c}.cls-3{fill:none;stroke:#45413c;stroke-linecap:round;stroke-linejoin:round}.cls-9{fill:#ffaa54}.cls-10{fill:#fc9}.cls-11{fill:#87898c}.cls-12{fill:#656769}</style></defs><g><ellipse class="cls-1" cx="5.46" cy="22.19" rx="3.31" ry="2.94"/><ellipse class="cls-1" cx="42.54" cy="22.19" rx="3.31" ry="2.94"/><path class="cls-2" d="M5.46 21.4a3.31 3.31 0 0 1 3.07 1.86 2.58 2.58 0 0 0 .24-1.07 3.14 3.14 0 0 0-3.31-3 3.14 3.14 0 0 0-3.31 3 2.57 2.57 0 0 0 .23 1.07 3.33 3.33 0 0 1 3.08-1.86z"/><path class="cls-2" d="M42.54 21.4a3.33 3.33 0 0 1 3.08 1.86 2.57 2.57 0 0 0 .23-1.07 3.33 3.33 0 0 0-6.62 0 2.58 2.58 0 0 0 .24 1.07 3.31 3.31 0 0 1 3.07-1.86z"/><ellipse class="cls-3" cx="5.46" cy="22.19" rx="3.31" ry="2.94"/><ellipse class="cls-3" cx="42.54" cy="22.19" rx="3.31" ry="2.94"/><ellipse cx="24" cy="45.01" rx="21.85" ry="1.99" fill="#45413c" opacity=".15"/><path class="cls-1" d="M4.57 33.74h38.86a1.1 1.1 0 0 1 1.1 1.1v3.32a2.2 2.2 0 0 1-2.2 2.2H5.67a2.2 2.2 0 0 1-2.2-2.2v-3.32a1.1 1.1 0 0 1 1.1-1.1z"/><path class="cls-2" d="M43.43 33.74H4.57a1.1 1.1 0 0 0-1.1 1.1v2.82a1.1 1.1 0 0 1 1.1-1.1h38.86a1.1 1.1 0 0 1 1.1 1.1v-2.82a1.1 1.1 0 0 0-1.1-1.1z"/><path class="cls-3" d="M4.57 33.74h38.86a1.1 1.1 0 0 1 1.1 1.1v3.32a2.2 2.2 0 0 1-2.2 2.2H5.67a2.2 2.2 0 0 1-2.2-2.2v-3.32a1.1 1.1 0 0 1 1.1-1.1z"/><path d="M36.58 23.84H11.42l1.06-7.26C13 13 15.78 10.29 19 10.29h10c3.23 0 6 2.66 6.53 6.29z" fill="#00b8f0"/><path d="M17.17 23.84h11.5L34.09 13A6.34 6.34 0 0 0 29 10.29h-4z" fill="#4acfff"/><path class="cls-3" d="M36.58 23.84H11.42l1.06-7.26C13 13 15.78 10.29 19 10.29h10c3.23 0 6 2.66 6.53 6.29z"/><path class="cls-1" d="M43.18 27.62a6.38 6.38 0 0 0-3.46-4.87l-1.09-6.82c-.8-5-4.64-8.65-9.12-8.65h-11c-4.48 0-8.32 3.64-9.12 8.65l-1.11 6.82a6.38 6.38 0 0 0-3.46 4.87l-.69 6.15h39.74zM11.9 21.85h-.19l.77-5.29C13 13 15.78 10.29 19 10.29h10c3.23 0 6 2.66 6.53 6.29l.77 5.29h-.19A94.4 94.4 0 0 0 24 21.19a94.4 94.4 0 0 0-12.1.66z"/><g><path class="cls-2" d="M4.82 30.1a6.35 6.35 0 0 1 3.46-4.86l1.09-6.82c.8-5 4.64-8.65 9.12-8.65h11c4.48 0 8.32 3.64 9.12 8.65l1.09 6.82a6.35 6.35 0 0 1 3.46 4.86l.41 3.67h.28l-.69-6.15a6.38 6.38 0 0 0-3.46-4.87l-1.09-6.82c-.8-5-4.64-8.65-9.12-8.65h-11c-4.48 0-8.32 3.64-9.12 8.65l-1.09 6.82a6.38 6.38 0 0 0-3.46 4.87l-.69 6.15h.28z"/></g><path id="_Compound_Path_2" class="cls-3" d="M43.18 27.62a6.38 6.38 0 0 0-3.46-4.87l-1.09-6.82c-.8-5-4.64-8.65-9.12-8.65h-11c-4.48 0-8.32 3.64-9.12 8.65l-1.11 6.82a6.38 6.38 0 0 0-3.46 4.87l-.69 6.15h39.74zM11.9 21.85h-.19l.77-5.29C13 13 15.78 10.29 19 10.29h10c3.23 0 6 2.66 6.53 6.29l.77 5.29h-.19A94.4 94.4 0 0 0 24 21.19a94.4 94.4 0 0 0-12.1.66z"/><path d="M32 33.74H16.05l.2-1.63A4 4 0 0 1 20 28.39h8a4 4 0 0 1 3.72 3.72z" fill="#adc4d9"/><path d="M20 30.65h8a3.86 3.86 0 0 1 3.59 3.09H32l-.2-1.63a4 4 0 0 0-3.8-3.72h-8a4 4 0 0 0-3.72 3.72l-.2 1.63h.33A3.86 3.86 0 0 1 20 30.65z" fill="#8ca4b8"/><path class="cls-3" d="M32 33.74H16.05l.2-1.63A4 4 0 0 1 20 28.39h8a4 4 0 0 1 3.72 3.72z"/><circle class="cls-9" cx="10.75" cy="27.78" r="2.65"/><circle class="cls-9" cx="37.25" cy="27.78" r="2.65"/><path class="cls-10" d="M10.75 27.17a2.66 2.66 0 0 1 2.45 1.63 2.65 2.65 0 1 0-4.89 0 2.66 2.66 0 0 1 2.44-1.63z"/><path class="cls-10" d="M37.25 27.17a2.66 2.66 0 0 1 2.44 1.63 2.65 2.65 0 1 0-4.89 0 2.66 2.66 0 0 1 2.45-1.63z"/><circle class="cls-3" cx="10.75" cy="27.78" r="2.65"/><circle class="cls-3" cx="37.25" cy="27.78" r="2.65"/><path class="cls-11" d="M5.46 40.36h7.28v3.47A1.17 1.17 0 0 1 11.57 45H6.62a1.17 1.17 0 0 1-1.17-1.17v-3.47z"/><path class="cls-12" d="M5.46 40.36h7.28v2.32H5.46z"/><path class="cls-11" d="M35.26 40.36h7.28v3.47A1.17 1.17 0 0 1 41.38 45h-4.95a1.17 1.17 0 0 1-1.17-1.17v-3.47z"/><path class="cls-12" d="M35.26 40.36h7.28v2.32h-7.28z"/><path class="cls-3" d="M5.46 40.36h7.28v3.47A1.17 1.17 0 0 1 11.57 45H6.62a1.17 1.17 0 0 1-1.17-1.17v-3.47z"/><path class="cls-3" d="M35.26 40.36h7.28v3.47A1.17 1.17 0 0 1 41.38 45h-4.95a1.17 1.17 0 0 1-1.17-1.17v-3.47z"/><path class="cls-9" d="M27 2.65h-6a2.64 2.64 0 0 0-2.62 2.27L18 7.28h12l-.34-2.36A2.64 2.64 0 0 0 27 2.65z"/><path class="cls-10" d="M18.38 6.66A2.64 2.64 0 0 1 21 4.38h6a2.64 2.64 0 0 1 2.62 2.28l.09.62H30l-.34-2.36A2.64 2.64 0 0 0 27 2.65h-6a2.64 2.64 0 0 0-2.62 2.27L18 7.28h.25z"/><path class="cls-3" d="M27 2.65h-6a2.64 2.64 0 0 0-2.62 2.27L18 7.28h12l-.34-2.36A2.64 2.64 0 0 0 27 2.65z"/></g></svg>