<svg xmlns="http://www.w3.org/2000/svg" viewBox="0 0 48 48"><defs><style>.cls-4{fill:none}.cls-15,.cls-4{stroke:#45413c;stroke-linecap:round;stroke-linejoin:round}.cls-9{fill:#656769}.cls-10{fill:#525252}.cls-15{fill:#daedf7}</style></defs><g><ellipse cx="24.5" cy="42.05" rx="19.54" ry="1.95" fill="#45413c" opacity=".15"/><path d="M19.8 30.66H2.54v-7.19a9 9 0 0 1 1.14-4.37l4.43-7.86a4.81 4.81 0 0 1 4.2-2.46h7.49z" fill="#fffce5"/><path d="M12.31 8.78a4.81 4.81 0 0 0-4.2 2.46L3.69 19.1a8.94 8.94 0 0 0-1.15 4.37v3.29a8.88 8.88 0 0 1 1.15-4.36l4.42-7.87a4.82 4.82 0 0 1 4.2-2.45h7.49v-3.3z" fill="#fff"/><path class="cls-4" d="M19.8 30.66H2.54v-7.19a9 9 0 0 1 1.14-4.37l4.43-7.86a4.81 4.81 0 0 1 4.2-2.46h7.49z"/><rect x="1.66" y="30.66" width="44.33" height="6.62" rx="1.28" ry="1.28" fill="#ff6242"/><path d="M44.71 30.66H2.94a1.28 1.28 0 0 0-1.28 1.28v2.66a1.28 1.28 0 0 1 1.28-1.28h41.77A1.28 1.28 0 0 1 46 34.6v-2.66a1.28 1.28 0 0 0-1.29-1.28z" fill="#ff866e"/><rect class="cls-4" x="1.66" y="30.66" width="44.33" height="6.62" rx="1.28" ry="1.28"/><path d="M21.1 5.1h23a1.3 1.3 0 0 1 1.3 1.3v24.26H19.8V6.4a1.3 1.3 0 0 1 1.3-1.3z" fill="#fff48c"/><path d="M44.05 5.1H21.1a1.3 1.3 0 0 0-1.3 1.3v3.31a1.3 1.3 0 0 1 1.3-1.3h22.95a1.31 1.31 0 0 1 1.31 1.3V6.4a1.31 1.31 0 0 0-1.31-1.3z" fill="#fffacf"/><path class="cls-4" d="M21.1 5.1h23a1.3 1.3 0 0 1 1.3 1.3v24.26H19.8V6.4a1.3 1.3 0 0 1 1.3-1.3z"/><circle class="cls-9" cx="11.17" cy="37.28" r="4.72"/><circle class="cls-9" cx="35.51" cy="37.28" r="4.72"/><path class="cls-10" d="M11.17 34.43a4.73 4.73 0 0 1 4.63 3.78 4.72 4.72 0 1 0-9.26 0 4.73 4.73 0 0 1 4.63-3.78z"/><path class="cls-10" d="M35.51 34.43a4.73 4.73 0 0 1 4.63 3.78 4.72 4.72 0 1 0-9.26 0 4.73 4.73 0 0 1 4.63-3.78z"/><circle class="cls-4" cx="11.17" cy="37.28" r="4.72"/><circle class="cls-4" cx="35.51" cy="37.28" r="4.72"/><path fill="#ff6242" stroke="#45413c" stroke-linecap="round" stroke-linejoin="round" d="M2.54 23.98H19.8v6.67H2.54z"/><path d="M14.63 12.26h-7.1L3.68 19.1c-.11.2-.21.41-.31.62h9.35a1.32 1.32 0 0 0 1-.47l1.91-2.31a1.28 1.28 0 0 0 .3-.83v-2.54a1.31 1.31 0 0 0-1.3-1.31z" fill="#00b8f0"/><path d="M14.63 12.26h-3.05l-4 7.46h5.12a1.31 1.31 0 0 0 1-.47l1.91-2.31a1.28 1.28 0 0 0 .3-.83v-2.54a1.31 1.31 0 0 0-1.28-1.31z" fill="#4acfff"/><path class="cls-4" d="M14.63 12.26h-7.1L3.68 19.1c-.11.2-.21.41-.31.62h9.35a1.32 1.32 0 0 0 1-.47l1.91-2.31a1.28 1.28 0 0 0 .3-.83v-2.54a1.31 1.31 0 0 0-1.3-1.31z"/><path d="M4.82 25.14A1.81 1.81 0 0 0 3 23.33H1.93V27H3a1.81 1.81 0 0 0 1.82-1.86z" fill="#ff8a14" stroke="#45413c" stroke-linecap="round" stroke-linejoin="round"/><path class="cls-4" d="M19.8 11.37h25.56"/><path class="cls-4" d="M19.8 17.88h25.56"/><path class="cls-4" d="M19.8 24.55h25.56"/><circle class="cls-15" cx="11.17" cy="37.28" r="1.55"/><circle class="cls-15" cx="35.51" cy="37.28" r="1.55"/></g></svg>