<svg xmlns="http://www.w3.org/2000/svg" viewBox="0 0 48 48"><defs><style>.cls-1{fill:#87898c}.cls-1,.cls-5{stroke:#45413c;stroke-linecap:round;stroke-linejoin:round}.cls-4{fill:#fff}.cls-5{fill:none}.cls-8{fill:#ff6242}</style></defs><g><path class="cls-1" d="M39.63 42.33c-3.73 0-3.73-4.25-3.73-8 0-4.63-2-5.86-3.2-5.86a1.07 1.07 0 0 1 0-2.14c2 0 5.33 1.69 5.33 8 0 4.55.36 5.87 1.6 5.87s1.6-1.5 1.6-5.33V23.13a1.07 1.07 0 0 1 2.14 0v11.74c0 2.61 0 7.46-3.74 7.46z"/><path d="M38.73 12.16l1.9-1.16a1 1 0 0 1 .43-.15 9.8 9.8 0 0 0-3.71-4.23l-.92-.57v3.2a7.2 7.2 0 0 1 2.3 2.91z" fill="#daedf7" stroke="#45413c" stroke-linecap="round" stroke-linejoin="round"/><path class="cls-1" d="M34.83 19.4h5.33v2.13h-5.33z"/><rect x="6.57" y="1.8" width="29.87" height="21.33" rx="3.2" ry="3.2" fill="#daedf7"/><path class="cls-4" d="M33.23 1.8H9.77A3.2 3.2 0 0 0 6.57 5v3.2A3.2 3.2 0 0 1 9.77 5h23.46a3.2 3.2 0 0 1 3.2 3.2V5a3.2 3.2 0 0 0-3.2-3.2z"/><rect class="cls-5" x="6.57" y="1.8" width="29.87" height="21.33" rx="3.2" ry="3.2"/><ellipse cx="21.5" cy="45.4" rx="17.6" ry="1.6" fill="#45413c" opacity=".15"/><path d="M9.77 9.8h23.46v9.07a1.07 1.07 0 0 1-1.07 1.07H10.83a1.07 1.07 0 0 1-1.07-1.07V9.8h.01z" fill="#ff6242" stroke="#45413c" stroke-linecap="round" stroke-linejoin="round"/><path class="cls-8" d="M32.17 42.33H10.83l-.53-19.2h22.4l-.53 19.2z"/><path fill="#e04122" d="M32.63 25.8l.07-2.67H10.3l.07 2.67h22.26z"/><path class="cls-5" d="M32.17 42.33H10.83l-.53-19.2h22.4l-.53 19.2z"/><path class="cls-4" d="M10.83 5h21.34a1.07 1.07 0 0 1 1.07 1.07V9.8H9.77V6.07A1.07 1.07 0 0 1 10.83 5z"/><path d="M32.17 5H10.83a1.06 1.06 0 0 0-1.06 1.07v2.4a1.06 1.06 0 0 1 1.06-1.07h21.34a1.06 1.06 0 0 1 1.06 1.07v-2.4A1.06 1.06 0 0 0 32.17 5z" fill="#e0e0e0"/><path class="cls-5" d="M10.83 5h21.34a1.07 1.07 0 0 1 1.07 1.07V9.8H9.77V6.07A1.07 1.07 0 0 1 10.83 5z"/><path class="cls-1" d="M10.83 42.33h21.34a1.07 1.07 0 0 1 1.07 1.07V45H9.77v-1.6a1.07 1.07 0 0 1 1.06-1.07z"/><rect x="22.57" y="12.47" width="8" height="3.73" rx="1.07" ry="1.07" fill="#9ceb60"/><path d="M22.57 13.53v.8h8v-.8a1.06 1.06 0 0 0-1.07-1.06h-5.87a1.05 1.05 0 0 0-1.06 1.06z" fill="#6dd627"/><rect class="cls-5" x="22.57" y="12.47" width="8" height="3.73" rx="1.07" ry="1.07"/><path class="cls-8" d="M42.83 13.53l-.64-1.94a1.07 1.07 0 0 0-1.56-.59l-4.2 2.51v3.74l1.9-1.11a1.06 1.06 0 0 1 1.57.68 8.16 8.16 0 0 1 .27 2v3.2a1.05 1.05 0 0 0 1.06 1.06h1.6a1.06 1.06 0 0 0 1.07-1.06V19.4a16.58 16.58 0 0 0-1.07-5.87z"/><path d="M42.83 13.53l-.64-1.94a1.07 1.07 0 0 0-1.56-.59l-4.2 2.51v2.4l4.2-2.51a1.07 1.07 0 0 1 1.56.58l.64 1.93a16.58 16.58 0 0 1 1.07 5.89v-2.4a16.58 16.58 0 0 0-1.07-5.87z" fill="#ff866e"/><path class="cls-5" d="M42.83 13.53l-.64-1.94a1.07 1.07 0 0 0-1.56-.59l-4.2 2.51v3.74l1.9-1.11a1.06 1.06 0 0 1 1.57.68 8.16 8.16 0 0 1 .27 2v3.2a1.05 1.05 0 0 0 1.06 1.06h1.6a1.06 1.06 0 0 0 1.07-1.06V19.4a16.58 16.58 0 0 0-1.07-5.87z"/><circle cx="21.5" cy="33.27" r="6.4" fill="#f0f0f0"/><path class="cls-4" d="M21.5 28.76a6.4 6.4 0 0 1 6.32 5.45 5.86 5.86 0 0 0 .08-.94 6.4 6.4 0 1 0-12.8 0 5.86 5.86 0 0 0 .08.94 6.4 6.4 0 0 1 6.32-5.45z"/><circle class="cls-5" cx="21.5" cy="33.27" r="6.4"/><path class="cls-1" d="M23.62 33.54l-1.49-3.09a.71.71 0 0 0-1.26 0l-1.49 3.09a2.16 2.16 0 0 0 2.12 3 2.16 2.16 0 0 0 2.12-3z"/></g></svg>