<svg xmlns="http://www.w3.org/2000/svg" viewBox="0 0 48 48"><defs><style>.cls-4{fill:none}.cls-13,.cls-4{stroke:#45413c;stroke-linecap:round;stroke-linejoin:round}.cls-13{fill:#bdbec0}</style></defs><g><ellipse cx="24" cy="46.5" rx="11" ry="1.5" fill="#45413c" opacity=".15"/><path d="M24 45.5A10.47 10.47 0 0 1 13.53 35V11A10.47 10.47 0 0 1 24 .5 10.47 10.47 0 0 1 34.47 11v24A10.47 10.47 0 0 1 24 45.5z" fill="#daedf7"/><path d="M24 .5A10.47 10.47 0 0 0 13.53 11v2.61a10.47 10.47 0 0 1 20.94 0V11A10.47 10.47 0 0 0 24 .5z" fill="#fff"/><path class="cls-4" d="M24 45.5A10.47 10.47 0 0 1 13.53 35V11A10.47 10.47 0 0 1 24 .5 10.47 10.47 0 0 1 34.47 11v24A10.47 10.47 0 0 1 24 45.5z"/><path d="M24 42.88A7.85 7.85 0 0 1 16.15 35V11A7.85 7.85 0 0 1 24 3.12 7.85 7.85 0 0 1 31.85 11v24A7.85 7.85 0 0 1 24 42.88z" fill="#87898c"/><path d="M24 3.12A7.85 7.85 0 0 0 16.15 11v2.75a7.85 7.85 0 0 1 15.7 0V11A7.85 7.85 0 0 0 24 3.12z" fill="#656769"/><path class="cls-4" d="M24 42.88A7.85 7.85 0 0 1 16.15 35V11A7.85 7.85 0 0 1 24 3.12 7.85 7.85 0 0 1 31.85 11v24A7.85 7.85 0 0 1 24 42.88z"/><circle cx="24" cy="23.5" r="4.5" fill="#ffe500"/><path d="M24 19a4.49 4.49 0 0 0-1.92 8.56l5-7.31A4.49 4.49 0 0 0 24 19z" fill="#fff48c"/><circle cx="24" cy="12" r="4.5" fill="#6dd627"/><path d="M24 7.5a4.49 4.49 0 0 0-1.92 8.56l5-7.31A4.49 4.49 0 0 0 24 7.5z" fill="#9ceb60"/><circle cx="24" cy="35" r="4.5" fill="#ff6242"/><path d="M24 30.5a4.49 4.49 0 0 0-1.92 8.56l5-7.31A4.49 4.49 0 0 0 24 30.5z" fill="#ff866e"/><circle class="cls-4" cx="24" cy="23.5" r="4.5"/><circle class="cls-4" cx="24" cy="12" r="4.5"/><circle class="cls-4" cx="24" cy="35" r="4.5"/><path class="cls-13" d="M29 34.7c0 2.76-.81-2.5-5-2.5s-5 5.26-5 2.5a5 5 0 0 1 10 0z"/><path class="cls-13" d="M29 23.2c0 2.76-.81-2.5-5-2.5s-5 5.3-5 2.5a5 5 0 0 1 10 0z"/><path class="cls-13" d="M29 11.7c0 2.76-.81-2.5-5-2.5s-5 5.26-5 2.5a5 5 0 0 1 10 0z"/></g></svg>