<svg xmlns="http://www.w3.org/2000/svg" viewBox="0 0 48 48"><defs><style>.cls-2{fill:#fff}.cls-4{fill:none}.cls-12,.cls-4{stroke:#45413c;stroke-linecap:round;stroke-linejoin:round}.cls-12{fill:#00b8f0}.cls-7{fill:#e0e0e0}.cls-9{fill:#ff6242}.cls-10{fill:#e04122}</style></defs><ellipse cx="24" cy="45.29" rx="21.12" ry="1.71" fill="#45413c" opacity=".15"/><rect class="cls-2" x="4.02" y="4.02" width="39.97" height="39.97" rx="3.43" ry="3.43"/><path d="M40.56 41.13H7.44A3.43 3.43 0 0 1 4 37.7v2.86A3.42 3.42 0 0 0 7.44 44h33.12A3.42 3.42 0 0 0 44 40.56V37.7a3.43 3.43 0 0 1-3.44 3.43z" fill="#f0f0f0"/><rect class="cls-4" x="4.02" y="4.02" width="39.97" height="39.97" rx="3.43" ry="3.43"/><rect x="6.87" y="6.87" width="34.26" height="34.26" rx="1.14" ry="1.14" fill="#00b8f0"/><path d="M40 38.27H8a1.14 1.14 0 0 1-1.14-1.14V40A1.14 1.14 0 0 0 8 41.13h32A1.14 1.14 0 0 0 41.13 40v-2.87A1.14 1.14 0 0 1 40 38.27z" fill="#009fd9"/><rect class="cls-4" x="6.87" y="6.87" width="34.26" height="34.26" rx="1.14" ry="1.14"/><path class="cls-2" d="M41.13 30.49H19.08l.68-5.79a.77.77 0 0 1 .76-.68h20.61z"/><path class="cls-7" d="M24.52 29l-2.44-2.44a.74.74 0 0 0-.54-.23h-2l-.17 1.52h1.11a.86.86 0 0 1 .57.23l2.56 2.44h17.52V29z"/><path class="cls-4" d="M41.13 30.49H19.08l.68-5.79a.77.77 0 0 1 .76-.68h20.61z"/><path class="cls-2" d="M41.13 24H21.36l.3-2.37a.76.76 0 0 1 .75-.67h18.72z"/><path class="cls-7" d="M21.36 24.02h19.77v-1.29h-19.6l-.17 1.29z"/><path class="cls-4" d="M41.13 24H21.36l.3-2.37a.76.76 0 0 1 .75-.67h18.72z"/><path class="cls-2" d="M22.76 32.76l-2.56-2.43a.77.77 0 0 0-.56-.23h-8.49a13.4 13.4 0 0 0 2.12 5.9 11.86 11.86 0 0 0 9.79 5.16H40A1.16 1.16 0 0 0 41.13 40v-7.24z"/><path class="cls-7" d="M40 37.65H23.06a11.86 11.86 0 0 1-9.79-5.16A10.89 10.89 0 0 1 12 30.1h-.86a13.4 13.4 0 0 0 2.13 5.9 11.86 11.86 0 0 0 9.79 5.16H40A1.16 1.16 0 0 0 41.13 40v-3.5A1.15 1.15 0 0 1 40 37.65z"/><path class="cls-4" d="M22.76 32.76l-2.56-2.43a.77.77 0 0 0-.56-.23h-8.49a13.4 13.4 0 0 0 2.12 5.9 11.86 11.86 0 0 0 9.79 5.16H40A1.16 1.16 0 0 0 41.13 40v-7.24z"/><path d="M23.64 30.49l-2.43-2.44a.92.92 0 0 0-.54-.23h-9a.77.77 0 0 0-.75.91l.26 1.37h8.49a.77.77 0 0 1 .56.23l2.56 2.43h18.34v-2.27z" fill="#ff6242" stroke="#45413c" stroke-linecap="round" stroke-linejoin="round"/><path class="cls-9" d="M30.27 16.04h7.66v4.94h-7.66z"/><path class="cls-10" d="M30.27 18.94h7.66v1.92h-7.66z"/><path class="cls-4" d="M30.27 16.04h7.66v4.94h-7.66z"/><path d="M31.09 13h6a.83.83 0 0 1 .83.83V16h-7.65v-2.17a.83.83 0 0 1 .83-.83z" fill="#656769" stroke="#45413c" stroke-linecap="round" stroke-linejoin="round"/><path class="cls-12" d="M25.92 26.3h2.28v2.28h-2.28z"/><path class="cls-12" d="M31.25 26.3h2.28v2.28h-2.28z"/><path class="cls-12" d="M36.49 26.3h2.28v2.28h-2.28z"/><path class="cls-9" d="M13.27 36a11.86 11.86 0 0 0 9.79 5.16H40A1.16 1.16 0 0 0 41.13 40v-4z"/><path class="cls-10" d="M40 37.65H23.06A12 12 0 0 1 17 36h-3.73a11.86 11.86 0 0 0 9.79 5.16H40A1.16 1.16 0 0 0 41.13 40v-3.5A1.15 1.15 0 0 1 40 37.65z"/><path class="cls-4" d="M13.27 36a11.86 11.86 0 0 0 9.79 5.16H40A1.16 1.16 0 0 0 41.13 40v-4z"/></svg>