<svg xmlns="http://www.w3.org/2000/svg" viewBox="0 0 48 48"><defs><style>.cls-2{fill:#4acfff}.cls-3{fill:#80ddff}.cls-4{fill:#00b8f0}.cls-5,.cls-6{fill:none;stroke:#45413c;stroke-linecap:round;stroke-linejoin:round}.cls-6{fill:#c0dceb}</style></defs><ellipse cx="24" cy="44.5" rx="14.5" ry="1.5" fill="#45413c" opacity=".15"/><path class="cls-2" d="M17.79 44.89L2.47 29.58a.69.69 0 0 1 .17-1.18l.94-.4a1.33 1.33 0 0 1 .79 0L12 29.57l5.82 5.82L19.41 43a1.45 1.45 0 0 1-.07.8l-.38.93a.68.68 0 0 1-1.17.16z"/><path class="cls-3" d="M14.64 34.74l1.15-1.35L12 29.57 4.37 28a1.33 1.33 0 0 0-.79.07l-.94.37a.69.69 0 0 0-.17 1.18l1 1h.12a1.33 1.33 0 0 1 .79-.07L12 32.07z"/><path class="cls-4" d="M17.79 35.39l-.51-.51-6.22 3.3 3.2 3.19a4.94 4.94 0 0 0 1.45-.21 8.9 8.9 0 0 0 3-1.65z"/><path class="cls-5" d="M17.79 44.89L2.47 29.58a.69.69 0 0 1 .17-1.18l.94-.4a1.33 1.33 0 0 1 .79 0L12 29.57l5.82 5.82L19.41 43a1.45 1.45 0 0 1-.07.8l-.38.93a.68.68 0 0 1-1.17.16z"/><path class="cls-6" d="M36.71 26.49h2.8a1.4 1.4 0 0 1 1.4 1.4v7.71h-5.6v-7.71a1.4 1.4 0 0 1 1.4-1.4z" transform="rotate(45 38.119 31.05)"/><path class="cls-6" d="M14.92 4.7h2.8a1.4 1.4 0 0 1 1.4 1.4v7.7h-5.6V6.1a1.4 1.4 0 0 1 1.4-1.4z" transform="rotate(45 16.319 9.25)"/><path class="cls-2" d="M37.85 40.79l-9.4-12-9.9-9.91-12-9.4a1.4 1.4 0 0 1 .34-2.4l1.91-.76a2.73 2.73 0 0 1 1.62-.14L26 9.51 37.87 21.4l3.29 15.51a2.89 2.89 0 0 1-.16 1.62l-.77 1.91a1.4 1.4 0 0 1-2.38.35z"/><path class="cls-4" d="M36.97 20.5l.9.89L39 26.72l-7.72 5.69-2.82-3.59-.74-.73 9.25-7.59z"/><path class="cls-3" d="M26.61 10.13l-1.84 2.21-14.3-3a2.75 2.75 0 0 0-1.63.14l-1.55.62-.7-.55a1.4 1.4 0 0 1 .34-2.4l1.91-.77a2.92 2.92 0 0 1 1.63-.14L26 9.5z"/><path class="cls-5" d="M37.85 40.79l-9.4-12-9.9-9.91-12-9.4a1.4 1.4 0 0 1 .34-2.4l1.91-.76a2.73 2.73 0 0 1 1.62-.14L26 9.51 37.87 21.4l3.29 15.51a2.89 2.89 0 0 1-.16 1.62l-.77 1.91a1.4 1.4 0 0 1-2.38.35z"/><path d="M9 35l18.14-21.82a8.85 8.85 0 0 1 1.51-1.43c4.44-3.84 11.14-6.55 14.17-3.52a4.35 4.35 0 0 1 1.09 1.91c.46-2.24.23-4.28-1.09-5.6-3-3-9.73-.31-14.17 3.53a8.41 8.41 0 0 0-1.51 1.42L9 31.34a5.29 5.29 0 0 0-.94 5.29A5.65 5.65 0 0 1 9 35z" fill="#fff"/><path d="M39.3 18.72c3.84-4.44 6.56-11.14 3.52-14.18s-9.73-.31-14.17 3.53a8.41 8.41 0 0 0-1.51 1.42L9 31.34a5.11 5.11 0 0 0 .11 6.89 5.12 5.12 0 0 0 6.89.12l21.88-18.13a8.73 8.73 0 0 0 1.42-1.5z" fill="#e8f4fa"/><path class="cls-5" d="M39.3 18.72c3.84-4.44 6.56-11.14 3.52-14.18s-9.73-.31-14.17 3.53a8.41 8.41 0 0 0-1.51 1.42L9 31.34a5.11 5.11 0 0 0 .11 6.89 5.12 5.12 0 0 0 6.89.12l21.88-18.13a8.73 8.73 0 0 0 1.42-1.5z"/><path class="cls-4" d="M38.83 8.53a7.42 7.42 0 0 0-6.42-2l-.34 3a.7.7 0 0 0 .81.78c1-.17 2.63-.16 3.47.68s.86 2.51.68 3.48a.7.7 0 0 0 .78.81l3-.34a7.47 7.47 0 0 0-1.98-6.41z"/><path class="cls-2" d="M32.41 6.51l-.34 3a.7.7 0 0 0 .81.78 6.48 6.48 0 0 1 1.73-.05l4.12-1.85a7.45 7.45 0 0 0-6.32-1.88z"/><path class="cls-5" d="M38.83 8.53a7.42 7.42 0 0 0-6.42-2l-.34 3a.7.7 0 0 0 .81.78c1-.17 2.63-.16 3.47.68s.86 2.51.68 3.48a.7.7 0 0 0 .78.81l3-.34a7.47 7.47 0 0 0-1.98-6.41z"/><path class="cls-5" d="M39.3 18.72a7.86 7.86 0 0 0-.47-10.19 7.83 7.83 0 0 0-10.18-.46"/><path d="M9.13 38.23a1.41 1.41 0 0 1 0-2l5.45-5.45a1.4 1.4 0 1 1 2 2l-5.45 5.45a1.41 1.41 0 0 1-2 0z" stroke="#45413c" stroke-linecap="round" stroke-linejoin="round" fill="#4acfff"/></svg>