<svg xmlns="http://www.w3.org/2000/svg" viewBox="0 0 48 48"><defs><style>.cls-2,.cls-5{fill:#debb7e}.cls-3{fill:#f0d5a8}.cls-4{fill:none}.cls-4,.cls-5{stroke:#45413c;stroke-linecap:round;stroke-linejoin:round}.cls-9{fill:#b89558}</style></defs><g><ellipse cx="24" cy="45.14" rx="14.91" ry="1.86" fill="#45413c" opacity=".15"/><path class="cls-2" d="M12.2 3.51h3.73v41H12.2a1.24 1.24 0 0 1-1.2-1.25V4.75a1.24 1.24 0 0 1 1.2-1.24z"/><path class="cls-2" transform="rotate(90 24 5.99)" d="M21.52-2.08h4.97v16.15h-4.97z"/><path class="cls-3" d="M15.93 3.51h16.15v2.48H15.93z"/><path class="cls-4" transform="rotate(90 24 5.99)" d="M21.52-2.08h4.97v16.15h-4.97z"/><path class="cls-5" transform="rotate(90 24 25.87)" d="M21.52 17.79h4.97v16.15h-4.97z"/><path class="cls-5" transform="rotate(90 24 42.02)" d="M21.52 33.94h4.97v16.15h-4.97z"/><path class="cls-2" d="M32.07 3.51h3.73A1.24 1.24 0 0 1 37 4.75v38.51a1.24 1.24 0 0 1-1.2 1.24h-3.73v-41 .01z"/><path class="cls-3" d="M12.2 3.51A1.23 1.23 0 0 0 11 4.75v3.73A2.48 2.48 0 0 1 13.44 6h2.49V3.51z"/><path class="cls-3" d="M35.8 3.51h-3.73V6h2.49A2.48 2.48 0 0 1 37 8.48V4.75a1.23 1.23 0 0 0-1.2-1.24z"/><path class="cls-4" d="M12.2 3.51h3.73v41H12.2a1.24 1.24 0 0 1-1.2-1.25V4.75a1.24 1.24 0 0 1 1.2-1.24z"/><path class="cls-4" d="M32.07 3.51h3.73A1.24 1.24 0 0 1 37 4.75v38.51a1.24 1.24 0 0 1-1.2 1.24h-3.73v-41 .01z"/><path d="M34.56 21.52H37v6.83h-1.2a1.24 1.24 0 0 1-1.24-1.24v-5.59z" fill="#ffe500" stroke="#45413c" stroke-linecap="round" stroke-linejoin="round"/><circle cx="35.8" cy="22.76" r="1.86" fill="#ffe500"/><path d="M35.8 22.48a1.84 1.84 0 0 1 1.68 1.07 1.76 1.76 0 0 0 .18-.79 1.86 1.86 0 1 0-3.72 0 1.91 1.91 0 0 0 .18.79 1.87 1.87 0 0 1 1.68-1.07z" fill="#fff48c"/><circle class="cls-4" cx="35.8" cy="22.76" r="1.86"/><path class="cls-2" d="M15.93 8.48h16.15v14.91H15.93z"/><path class="cls-9" d="M15.93 8.48h16.15v2.43H15.93z"/><path class="cls-4" d="M15.93 8.48h16.15v14.91H15.93z"/><path class="cls-2" d="M15.93 28.35h16.15v11.18H15.93z"/><path class="cls-9" d="M15.93 28.35h16.15v2.43H15.93z"/><path class="cls-4" d="M15.93 28.35h16.15v11.18H15.93z"/></g></svg>