<svg xmlns="http://www.w3.org/2000/svg" viewBox="0 0 48 48"><defs><style>.cls-2{fill:#4acfff}.cls-2,.cls-5{stroke:#45413c;stroke-linecap:round;stroke-linejoin:round}.cls-3{fill:#c0dceb}.cls-5{fill:none}.cls-6{fill:#e8f4fa}.cls-7{fill:#fff}</style></defs><ellipse cx="34.21" cy="45.5" rx="11.5" ry="1.5" fill="#45413c" opacity=".15"/><path class="cls-2" d="M17.77 23.69l-3.57 1.57a1.5 1.5 0 0 0-.88 1.32 1.47 1.47 0 0 0 1.44 1.51 1.48 1.48 0 0 0 1.36-.81l1.75-3.49a.08.08 0 0 0-.1-.1z"/><path class="cls-2" d="M10.22 30.9L7 33.09a1.46 1.46 0 0 0-.63 1.45 1.47 1.47 0 0 0 1.69 1.23 1.48 1.48 0 0 0 1.19-1L10.33 31a.07.07 0 0 0-.11-.1z"/><path class="cls-2" d="M14.82 18.63l-3.82.76a1.49 1.49 0 0 0-1.14 1.1 1.48 1.48 0 0 0 1.08 1.79 1.5 1.5 0 0 0 1.5-.5l2.47-3a.08.08 0 0 0-.09-.15z"/><path class="cls-2" d="M6.24 24.36l-3.62 1.48a1.46 1.46 0 0 0-.91 1.29 1.48 1.48 0 0 0 1.4 1.55 1.47 1.47 0 0 0 1.38-.78l1.84-3.44a.07.07 0 0 0-.09-.1z"/><path class="cls-2" d="M22.34 27.7l-3.29 2.1a1.48 1.48 0 0 0-.68 1.43A1.48 1.48 0 0 0 20 32.51a1.45 1.45 0 0 0 1.21-1l1.21-3.71a.08.08 0 0 0-.08-.1z"/><path class="cls-2" d="M16.47 36.52l-2.8 2.73a1.45 1.45 0 0 0-.36 1.53 1.46 1.46 0 0 0 1.87.92 1.46 1.46 0 0 0 1-1.23l.43-3.89a.08.08 0 0 0-.14-.06z"/><path class="cls-2" d="M27.62 29.91l-2.82 2.7a1.5 1.5 0 0 0-.38 1.54 1.48 1.48 0 0 0 1.87.93 1.47 1.47 0 0 0 1-1.23l.45-3.85a.07.07 0 0 0-.12-.09z"/><path class="cls-2" d="M23.67 40l-2.39 3.09a1.47 1.47 0 0 0-.14 1.57 1.47 1.47 0 0 0 2 .65 1.48 1.48 0 0 0 .79-1.31l-.12-3.91a.08.08 0 0 0-.14-.09z"/><path class="cls-3" d="M36.31 14.46a4.34 4.34 0 0 1 1.25-3.12.72.72 0 0 0 0-1L35 7.73a.72.72 0 0 0-1 0A4.28 4.28 0 0 1 30.83 9L20 8.76 36.53 25.3z"/><path d="M35.24 9a1 1 0 0 1 .76-.3l-1-1a.72.72 0 0 0-1 0A4.28 4.28 0 0 1 30.83 9L20 8.76l2.84 2.84 8.91-.86A5.76 5.76 0 0 0 35.24 9z" fill="#daedf7"/><path class="cls-5" d="M36.31 14.46a4.34 4.34 0 0 1 1.25-3.12.72.72 0 0 0 0-1L35 7.73a.72.72 0 0 0-1 0A4.28 4.28 0 0 1 30.83 9L20 8.76 36.53 25.3z"/><rect class="cls-6" x="14.81" y="16.6" width="24.85" height="2.92" rx=".37" ry=".37" transform="rotate(45 27.226 18.067)"/><path class="cls-7" d="M24.35 13.11L19.74 8.5a.37.37 0 0 0-.52 0l-1.55 1.55a.37.37 0 0 0 0 .52l4.61 4.61z"/><rect class="cls-5" x="14.81" y="16.6" width="24.85" height="2.92" rx=".37" ry=".37" transform="rotate(45 27.226 18.067)"/><path d="M14.22 18.83h22.66v1.1a.73.73 0 0 1-.73.73H15a.73.73 0 0 1-.73-.73v-1.1h-.05z" transform="rotate(45 25.543 19.74)" fill="#adc4d9"/><path class="cls-3" d="M20.15 13.05l-2-2-.78.77a.74.74 0 0 0 0 1l1.45 1.45z"/><path class="cls-5" d="M14.22 18.83h22.66v1.1a.73.73 0 0 1-.73.73H15a.73.73 0 0 1-.73-.73v-1.1h-.05z" transform="rotate(45 25.543 19.74)"/><path class="cls-6" d="M46.57 5.68a.93.93 0 0 0 .93-.93V3.36a.93.93 0 0 0-.93-.93h-3.06a7.09 7.09 0 0 0-5 2.08l-3.39 3.36 2.3 2.3L40.7 6.9a4.14 4.14 0 0 1 2.93-1.22z"/><path class="cls-7" d="M38.48 6.08a7.13 7.13 0 0 1 5-2.08h3.06a.91.91 0 0 1 .91.84.29.29 0 0 0 0-.09V3.36a.93.93 0 0 0-.93-.93h-3.01a7.09 7.09 0 0 0-5 2.08l-3.39 3.36.79.78z"/><path class="cls-5" d="M46.57 5.68a.93.93 0 0 0 .93-.93V3.36a.93.93 0 0 0-.93-.93h-3.06a7.09 7.09 0 0 0-5 2.08l-3.39 3.36 2.3 2.3L40.7 6.9a4.14 4.14 0 0 1 2.93-1.22z"/></svg>