<svg xmlns="http://www.w3.org/2000/svg" viewBox="0 0 48 48"><defs><style>.cls-1{fill:#e8f4fa}.cls-2{fill:#fff}.cls-3{fill:none}.cls-3,.cls-8{stroke:#45413c;stroke-linecap:round;stroke-linejoin:round}.cls-6{fill:#ffe500}.cls-7{fill:#fff48c}.cls-8{fill:#4acfff}</style></defs><path class="cls-1" d="M41.89 24.3a1 1 0 0 1-1-1.05V6.65a2.34 2.34 0 0 0-3.37-2.09L35 5.8a1.05 1.05 0 1 1-.94-1.88l2.47-1.24a4.43 4.43 0 0 1 6.41 4v16.6a1 1 0 0 1-1.05 1.02z"/><path class="cls-2" d="M40.84 2.88a4.39 4.39 0 0 0-4.31-.2l-2.47 1.24a1 1 0 0 0-.47 1.41.88.88 0 0 0 .12.15 1 1 0 0 1 .35-.29L36.53 4a4.43 4.43 0 0 1 6.41 4V6.65a4.41 4.41 0 0 0-2.1-3.77z"/><path class="cls-3" d="M41.89 24.3a1 1 0 0 1-1-1.05V6.65a2.34 2.34 0 0 0-3.37-2.09L35 5.8a1.05 1.05 0 1 1-.94-1.88l2.47-1.24a4.43 4.43 0 0 1 6.41 4v16.6a1 1 0 0 1-1.05 1.02z"/><ellipse cx="24" cy="44.3" rx="20.92" ry="1.7" fill="#45413c" opacity=".15"/><path class="cls-2" d="M43.46 25.88s.2 2.83-1.57 8.41c-1.62 5.11-7 6.31-20 6.31-6.22 0-13.54-.13-15.25-7.89-1.54-7-.35-9.89-2.62-11 0 0 .59-2.11 6.3-2.11s18.95 4.7 24.74 4.7 8.4 1.58 8.4 1.58z"/><g><path d="M21.79 36.39c-5.94 0-12.8-.12-15.5-5.66.11.63.23 1.28.38 2 1.71 7.76 9 7.89 15.25 7.89 12.94 0 18.35-1.2 20-6.31.41-1.3.71-2.45.94-3.45-2.08 4.45-7.95 5.53-21.07 5.53z" fill="#f0f0f0"/></g><path class="cls-3" d="M43.46 25.88s.2 2.83-1.57 8.41c-1.62 5.11-7 6.31-20 6.31-6.22 0-13.54-.13-15.25-7.89-1.54-7-.35-9.89-2.62-11 0 0 .59-2.11 6.3-2.11s18.95 4.7 24.74 4.7 8.4 1.58 8.4 1.58z"/><path class="cls-6" d="M44.52 26.41c-6.48 0-13.32-1.41-21.24-3l-5.88-1.2C7.62 20.24 3.73 22 3.7 22a1.6 1.6 0 0 1-2.11-.72 1.58 1.58 0 0 1 .68-2.1c.47-.18 4.88-2.25 15.73-.1 2 .4 4 .81 5.9 1.2 7.75 1.59 14.44 3 20.6 3a1.58 1.58 0 0 1 0 3.16z"/><path class="cls-7" d="M1.69 21.49a1.51 1.51 0 0 1 .58-.49c.47-.25 4.88-2.3 15.75-.15 2 .4 4 .81 5.9 1.2 7.75 1.6 14.44 3 20.6 3a1.57 1.57 0 0 1 1.31.7 1.65 1.65 0 0 0 .26-.88 1.57 1.57 0 0 0-1.57-1.58c-6.16 0-12.85-1.38-20.6-3-1.89-.39-3.86-.8-5.9-1.2-10.87-2.16-15.28-.09-15.75.13a1.58 1.58 0 0 0-.68 2.1z"/><path class="cls-3" d="M44.52 26.41c-6.48 0-13.32-1.41-21.24-3l-5.88-1.2C7.62 20.24 3.73 22 3.7 22a1.6 1.6 0 0 1-2.11-.72 1.58 1.58 0 0 1 .68-2.1c.47-.18 4.88-2.25 15.73-.1 2 .4 4 .81 5.9 1.2 7.75 1.59 14.44 3 20.6 3a1.58 1.58 0 0 1 0 3.16z"/><path class="cls-6" d="M8.45 44.3H7.2a1.58 1.58 0 1 1 0-3.16h.83a1.68 1.68 0 0 0 1.77-.64c.56-.52.69-2.34.56-3.4a1.58 1.58 0 0 1 1.39-1.75 1.6 1.6 0 0 1 1.75 1.39c.08.69.38 4.25-1.54 6.06a4.48 4.48 0 0 1-3.51 1.5z"/><path class="cls-6" d="M40.23 44.3h1.25a1.58 1.58 0 0 0 0-3.16h-.84a1.66 1.66 0 0 1-1.76-.64c-.56-.52-.69-2.34-.57-3.4a1.58 1.58 0 1 0-3.13-.36c-.08.69-.39 4.25 1.54 6.06a4.48 4.48 0 0 0 3.51 1.5z"/><g><path class="cls-7" d="M10.4 38.24A1.57 1.57 0 0 1 11.75 37a1.59 1.59 0 0 1 1.75 1.4v.4a12.11 12.11 0 0 0 0-2.06 1.6 1.6 0 0 0-1.75-1.39 1.58 1.58 0 0 0-1.39 1.75 8.21 8.21 0 0 1 .04 1.14z"/><path class="cls-7" d="M7.2 42.79h.83a1.7 1.7 0 0 0 1.77-.65c.56-.52.69-2.34.56-3.39a3.12 3.12 0 0 1-.56 1.75 1.68 1.68 0 0 1-1.8.64h-.83a1.58 1.58 0 0 0-1.55 1.56 1.55 1.55 0 0 0 .24.83 1.58 1.58 0 0 1 1.34-.74z"/></g><g><path class="cls-7" d="M38.31 38.77c-.12 1 0 2.87.57 3.39a1.69 1.69 0 0 0 1.76.65h.84a1.58 1.58 0 0 1 1.33.74 1.55 1.55 0 0 0 .24-.83 1.57 1.57 0 0 0-1.57-1.58h-.84a1.66 1.66 0 0 1-1.76-.64 3.12 3.12 0 0 1-.57-1.76z"/><path class="cls-7" d="M35.18 38.4a1.57 1.57 0 0 1 3.1-.16 7 7 0 0 1 0-1.14 1.58 1.58 0 1 0-3.13-.36 11.77 11.77 0 0 0 0 2.06c.01-.17.02-.31.03-.4z"/></g><path class="cls-3" d="M8.45 44.3H7.2a1.58 1.58 0 1 1 0-3.16h.83a1.68 1.68 0 0 0 1.77-.64c.56-.52.69-2.34.56-3.4a1.58 1.58 0 0 1 1.39-1.75 1.6 1.6 0 0 1 1.75 1.39c.08.69.38 4.25-1.54 6.06a4.48 4.48 0 0 1-3.51 1.5z"/><path class="cls-3" d="M40.23 44.3h1.25a1.58 1.58 0 0 0 0-3.16h-.84a1.66 1.66 0 0 1-1.76-.64c-.56-.52-.69-2.34-.57-3.4a1.58 1.58 0 1 0-3.13-.36c-.08.69-.39 4.25 1.54 6.06a4.48 4.48 0 0 0 3.51 1.5z"/><path class="cls-1" d="M33.8 4.11h1.58a1.05 1.05 0 0 1 1.05 1.05v1.05h-3.68V5.16a1.05 1.05 0 0 1 1.05-1.05z" transform="rotate(53.36 34.587 5.165)"/><path class="cls-1" d="M32.64 4.31l-4.09-.22 5.33 7.17.96-3.99-2.2-2.96z"/><path class="cls-1" d="M25.9 7.25h8.94v1.57a.53.53 0 0 1-.53.53h-7.88a.53.53 0 0 1-.53-.53V7.25z" transform="rotate(53.36 30.365 8.296)"/><path class="cls-2" d="M33.88 6l.87-.66a1.05 1.05 0 0 1 1.2 0 1.17 1.17 0 0 0-.05-.11L35 3.9a1.05 1.05 0 0 0-1.47-.21l-.85.62z"/><path class="cls-2" d="M29.77 5.74l4.08.19-1.21-1.62-4.09-.22 1.22 1.65z"/><path class="cls-2" d="M28.42 7.44a.59.59 0 0 1 .13-.79l1.22-.91-1.23-1.65-1.26.91a.52.52 0 0 0-.11.73z"/><path class="cls-3" d="M33.8 4.11h1.58a1.05 1.05 0 0 1 1.05 1.05v1.05h-3.68V5.16a1.05 1.05 0 0 1 1.05-1.05z" transform="rotate(53.36 34.587 5.165)"/><path class="cls-3" d="M32.64 4.31l-4.09-.22 5.33 7.17.96-3.99-2.2-2.96z"/><path class="cls-3" d="M25.9 7.25h8.94v1.57a.53.53 0 0 1-.53.53h-7.88a.53.53 0 0 1-.53-.53V7.25z" transform="rotate(53.36 30.365 8.296)"/><path class="cls-8" d="M23.49 12.93a1.15 1.15 0 0 0-.59 1 1.17 1.17 0 0 0 2.26.42l1.27-3.15zM19.58 9a1.18 1.18 0 0 0 1.79 1.45L24 8.26l-3.39.06a1.21 1.21 0 0 0-1.03.68zM27.23 16.27a1.18 1.18 0 1 0 2 .92l.3-3.38z"/></svg>