<svg xmlns="http://www.w3.org/2000/svg" viewBox="0 0 48 48"><defs><style>.cls-2{fill:#00b8f0}.cls-3{fill:#4acfff}.cls-4{fill:none;stroke:#45413c;stroke-linecap:round;stroke-linejoin:round}.cls-5{fill:#bf8256}.cls-8{fill:#f0d5a8}.cls-9{fill:#fff5e3}</style></defs><g><ellipse cx="24" cy="46.22" rx="15.5" ry="1.72" fill="#45413c" opacity=".15"/><g><g><path class="cls-2" d="M24 24a11.25 11.25 0 0 1 11.25 11.23v8.31a2 2 0 0 1-2 2H14.71a2 2 0 0 1-2-2v-8.31A11.25 11.25 0 0 1 24 24z"/><path class="cls-3" d="M24 24a11.25 11.25 0 0 0-11.25 11.23v8.31L30.35 26A11.19 11.19 0 0 0 24 24z"/><path class="cls-4" d="M24 24a11.25 11.25 0 0 1 11.25 11.23v8.31a2 2 0 0 1-2 2H14.71a2 2 0 0 1-2-2v-8.31A11.25 11.25 0 0 1 24 24z"/></g><g><path class="cls-2" d="M35.25 12.74V4.42a2 2 0 0 0-2-1.95H14.71a2 2 0 0 0-2 1.95v8.32a11.25 11.25 0 0 0 22.5 0z"/><path class="cls-3" d="M32.8 2.47H14.71a2 2 0 0 0-2 1.95v8.32a11.2 11.2 0 0 0 2.6 7.18z"/><path class="cls-4" d="M35.25 12.74V4.42a2 2 0 0 0-2-1.95H14.71a2 2 0 0 0-2 1.95v8.32a11.25 11.25 0 0 0 22.5 0z"/></g><g><path class="cls-5" d="M12.75 2.47a2 2 0 0 0 0 3.91h22.5a2 2 0 0 0 0-3.91z"/><path d="M37.2 4.42a2 2 0 0 0-2-1.95H12.75a2 2 0 0 0-1.95 1.95z" fill="#dea47a"/><path class="cls-4" d="M12.75 2.47a2 2 0 0 0 0 3.91h22.5a2 2 0 0 0 0-3.91z"/></g><path class="cls-5" d="M12.75 41.59a2 2 0 0 0 0 3.91h22.5a2 2 0 0 0 0-3.91z"/><path d="M10.8 43.54a2 2 0 0 0 1.95 2h22.5a2 2 0 0 0 2-2z" fill="#915e3a"/><path class="cls-4" d="M12.75 41.59a2 2 0 0 0 0 3.91h22.5a2 2 0 0 0 0-3.91z"/><g><path class="cls-8" d="M31.42 13.2a1 1 0 0 1 1.24 1.14 8.81 8.81 0 0 1-17.32 0 1 1 0 0 1 1.24-1.14 26.89 26.89 0 0 0 7.42 1 26.89 26.89 0 0 0 7.42-1z"/><path class="cls-9" d="M17.09 18.18l4.11-4.12a25.25 25.25 0 0 1-4.62-.86 1 1 0 0 0-1.24 1.14 8.82 8.82 0 0 0 1.75 3.84z"/><path class="cls-4" d="M31.42 13.2a1 1 0 0 1 1.24 1.14 8.81 8.81 0 0 1-17.32 0 1 1 0 0 1 1.24-1.14 26.89 26.89 0 0 0 7.42 1 26.89 26.89 0 0 0 7.42-1z"/></g><path class="cls-8" d="M14.71 37.68a2 2 0 0 0 1.95 2h14.68a2 2 0 0 0 1.95-2s-1.95-3.92-9.29-3.92-9.29 3.92-9.29 3.92z"/><path class="cls-9" d="M22.47 33.83c-6.08.5-7.76 3.85-7.76 3.85a2 2 0 0 0 1.95 2z"/><path class="cls-4" d="M14.71 37.68a2 2 0 0 0 1.95 2h14.68a2 2 0 0 0 1.95-2s-1.95-3.92-9.29-3.92-9.29 3.92-9.29 3.92z"/></g></g></svg>