<svg xmlns="http://www.w3.org/2000/svg" viewBox="0 0 48 48"><defs><style>.cls-2,.cls-5{fill:#daedf7;stroke:#45413c;stroke-linecap:round;stroke-linejoin:round}.cls-5{fill:none}</style></defs><g><ellipse cx="24" cy="43" rx="11.5" ry="1.5" fill="#45413c" opacity=".15"/><rect class="cls-2" x="14.5" y="12" width="19" height="24" rx="1.06" ry="1.06"/><rect x="17" y="6" width="14" height="36" rx="1.64" ry="1.64" fill="#656769"/><path d="M29.36 6H18.64A1.63 1.63 0 0 0 17 7.64v2.5a1.63 1.63 0 0 1 1.64-1.64h10.72A1.63 1.63 0 0 1 31 10.14v-2.5A1.63 1.63 0 0 0 29.36 6z" fill="#87898c"/><rect class="cls-5" x="17" y="6" width="14" height="36" rx="1.64" ry="1.64"/><path class="cls-2" d="M35 21h2a1 1 0 0 1 1 1v4a1 1 0 0 1-1 1h-2v-6z"/><circle cx="24" cy="24" r="12" fill="#daedf7"/><path d="M24 14.62a12 12 0 0 1 11.92 10.69A11.38 11.38 0 0 0 36 24a12 12 0 0 0-24 0 11.38 11.38 0 0 0 .08 1.31A12 12 0 0 1 24 14.62z" fill="#e8f4fa"/><circle class="cls-5" cx="24" cy="24" r="12"/><circle cx="24" cy="24" r="8.5" fill="#fff"/><path d="M24 17.5a8.51 8.51 0 0 1 8.44 7.5c0-.33.06-.66.06-1a8.5 8.5 0 0 0-17 0c0 .34 0 .67.06 1A8.51 8.51 0 0 1 24 17.5z" fill="#e0e0e0"/><circle class="cls-5" cx="24" cy="24" r="8.5"/><path class="cls-5" d="M24 18.5V24l3-1.5"/><path class="cls-5" d="M24 15.5v1"/><path class="cls-5" d="M24 31.5v1"/><path class="cls-5" d="M19.75 16.64l.5.86"/><path class="cls-5" d="M27.75 30.5l.5.86"/><path class="cls-5" d="M16.64 19.75l.86.5"/><path class="cls-5" d="M30.5 27.75l.86.5"/><path class="cls-5" d="M15.5 24h1"/><path class="cls-5" d="M31.5 24h1"/><path class="cls-5" d="M16.64 28.25l.86-.5"/><path class="cls-5" d="M30.5 20.25l.86-.5"/><path class="cls-5" d="M19.75 31.36l.5-.86"/><path class="cls-5" d="M27.75 17.5l.5-.86"/></g></svg>