<svg xmlns="http://www.w3.org/2000/svg" viewBox="0 0 48 48"><g><ellipse cx="25.67" cy="45.5" rx="14.5" ry="1.5" fill="#45413c" opacity=".15"/><path d="M28.3 4.65A15.42 15.42 0 1 1 6.64 26.32a.62.62 0 0 0-1.1.52A18.84 18.84 0 1 0 28.83 3.55a.62.62 0 0 0-.53 1.1z" fill="#ffe500"/><g><path d="M41.05 14.43a19.23 19.23 0 0 1 0 5.36 18.84 18.84 0 0 1-35.2 6.35.58.58 0 0 0-.31.7 18.84 18.84 0 1 0 35.51-12.41z" fill="#ebcb00"/></g><path d="M28.3 4.65A15.42 15.42 0 1 1 6.64 26.32a.62.62 0 0 0-1.1.52A18.84 18.84 0 1 0 28.83 3.55a.62.62 0 0 0-.53 1.1z" fill="none" stroke="#45413c" stroke-linecap="round" stroke-linejoin="round"/></g></svg>