<svg xmlns="http://www.w3.org/2000/svg" viewBox="0 0 48 48"><defs><style>.cls-5{fill:#ffe500}.cls-4{fill:none}.cls-4,.cls-5{stroke:#45413c;stroke-linecap:round;stroke-linejoin:round}.cls-6{fill:#ffaa54}</style></defs><g><ellipse cx="24" cy="46.5" rx="11.5" ry="1.5" fill="#45413c" opacity=".15"/><g><circle cx="24" cy="24" r="13.5" fill="#ffe500"/><path d="M25.28 10.56a12.5 12.5 0 1 1-2.56 0 13.5 13.5 0 1 0 2.56 0z" fill="#ebcb00"/><circle class="cls-4" cx="24" cy="24" r="13.5"/><path class="cls-5" d="M25.5 3a1.5 1.5 0 0 0-3 0v3a1.5 1.5 0 0 0 3 0z"/><path class="cls-5" d="M10.21 8.09a1.5 1.5 0 0 0-2.12 2.12l2.12 2.12a1.5 1.5 0 0 0 2.12-2.12z"/><path class="cls-5" d="M3 22.5a1.5 1.5 0 0 0 0 3h3a1.5 1.5 0 0 0 0-3z"/><path class="cls-5" d="M8.09 37.79a1.5 1.5 0 0 0 2.12 2.12l2.12-2.12a1.5 1.5 0 0 0-2.12-2.12z"/><path class="cls-5" d="M22.5 45a1.5 1.5 0 0 0 3 0v-3a1.5 1.5 0 0 0-3 0z"/><path class="cls-5" d="M37.79 39.91a1.5 1.5 0 0 0 2.12-2.12l-2.12-2.12a1.5 1.5 0 0 0-2.12 2.12z"/><path class="cls-5" d="M45 25.5a1.5 1.5 0 0 0 0-3h-3a1.5 1.5 0 0 0 0 3z"/><path class="cls-5" d="M39.91 10.21a1.5 1.5 0 0 0-2.12-2.12l-2.12 2.12a1.5 1.5 0 0 0 2.12 2.12z"/><path class="cls-6" d="M14 27c0 .55.67 1 1.5 1s1.5-.45 1.5-1-.67-1-1.5-1-1.5.45-1.5 1z"/><g stroke="#45413c" stroke-linecap="round" stroke-linejoin="round"><path d="M27.87 29.5a1 1 0 0 1 1 1.25 5 5 0 0 1-9.68 0 1 1 0 0 1 1-1.25z" fill="#ffb0ca"/><path d="M24 34.5a5 5 0 0 0 3.94-1.94A7.34 7.34 0 0 0 24 31.5a7.34 7.34 0 0 0-3.94 1.06A5 5 0 0 0 24 34.5z" fill="#ff87af"/></g><path class="cls-4" d="M15 25a1.5 1.5 0 0 1 3 0"/><path class="cls-6" d="M34 27c0 .55-.67 1-1.5 1s-1.5-.45-1.5-1 .67-1 1.5-1 1.5.45 1.5 1z"/><path class="cls-4" d="M33 25a1.5 1.5 0 0 0-3 0"/><ellipse cx="24" cy="13.5" rx="4" ry="1" fill="#fff48c"/></g></g></svg>