<svg xmlns="http://www.w3.org/2000/svg" viewBox="0 0 48 48"><defs><style>.cls-4{fill:none;stroke:#45413c;stroke-linecap:round;stroke-linejoin:round}</style></defs><g><ellipse cx="24" cy="45.42" rx="12.12" ry="1.58" fill="#45413c" opacity=".15"/><path d="M24 3.5a1.27 1.27 0 0 0-1.27 1.27v36a1.51 1.51 0 0 1-3 0v-1.11a1.27 1.27 0 0 0-2.54 0v1.07a4 4 0 1 0 8.09 0v-36A1.27 1.27 0 0 0 24 3.5z" fill="#debb7e"/><path fill="#b89558" d="M22.73 19.62h2.54v9.48h-2.54z"/><path class="cls-4" d="M22.73 4.77v36a1.5 1.5 0 0 1-1.51 1.5 1.5 1.5 0 0 1-1.5-1.5v-1.11a1.27 1.27 0 0 0-1.27-1.27 1.27 1.27 0 0 0-1.27 1.27v1.07a4.05 4.05 0 0 0 4.05 4.05 4.05 4.05 0 0 0 4-4.05v-36A1.27 1.27 0 0 0 24 3.5a1.27 1.27 0 0 0-1.27 1.27z"/><path d="M9 22.66a6 6 0 0 1 3.23.93 1 1 0 0 0 1.06 0 6.07 6.07 0 0 1 6.46 0 1 1 0 0 0 1.06 0 6.07 6.07 0 0 1 6.46 0 1 1 0 0 0 1.06 0 6.07 6.07 0 0 1 6.46 0 1 1 0 0 0 1.06 0 6 6 0 0 1 3.15-.93 5.83 5.83 0 0 1 1.68.24A1 1 0 0 0 42 21.68a18.37 18.37 0 0 0-36 0 1 1 0 0 0 1.28 1.22A5.83 5.83 0 0 1 9 22.66z" fill="#bf8df2"/><path d="M24 11a19.59 19.59 0 0 1 18 11.2 1 1 0 0 0 0-.53 18.37 18.37 0 0 0-36 0 1 1 0 0 0 0 .53A19.59 19.59 0 0 1 24 11z" fill="#dabff5"/><path class="cls-4" d="M9 22.66a6 6 0 0 1 3.23.93 1 1 0 0 0 1.06 0 6.07 6.07 0 0 1 6.46 0 1 1 0 0 0 1.06 0 6.07 6.07 0 0 1 6.46 0 1 1 0 0 0 1.06 0 6.07 6.07 0 0 1 6.46 0 1 1 0 0 0 1.06 0 6 6 0 0 1 3.15-.93 5.83 5.83 0 0 1 1.68.24A1 1 0 0 0 42 21.68a18.37 18.37 0 0 0-36 0 1 1 0 0 0 1.28 1.22A5.83 5.83 0 0 1 9 22.66z"/></g></svg>