<svg xmlns="http://www.w3.org/2000/svg" viewBox="0 0 48 48"><defs><style>.cls-1{fill:#debb7e}.cls-2{fill:#f0d5a8}.cls-3{fill:none}.cls-13,.cls-3,.cls-4{stroke:#45413c;stroke-linecap:round;stroke-linejoin:round}.cls-4{fill:#fff}.cls-13{fill:#45413c}.cls-6{fill:#e5feff}.cls-9{fill:#9ceb60}.cls-10{fill:#c8ffa1}.cls-11{fill:#ff6242}.cls-12{fill:#ff866e}.cls-14{fill:#ffb0ca}</style></defs><path class="cls-1" d="M2.62 23.66a1.4 1.4 0 0 0 .73 1.83l2.44 1.05-2.06.61a1 1 0 0 0 .57 1.91l4.34-1.3L16.15 31a1.39 1.39 0 0 0 1.1-2.56l-12.8-5.5a1.4 1.4 0 0 0-1.83.72z"/><path class="cls-2" d="M4.45 24.64l12.8 5.5a1.43 1.43 0 0 1 .54.43 1.61 1.61 0 0 0 .19-.31 1.4 1.4 0 0 0-.73-1.83l-12.8-5.5a1.39 1.39 0 0 0-1.64 2.13 1.39 1.39 0 0 1 1.64-.42z"/><path class="cls-3" d="M2.62 23.66a1.4 1.4 0 0 0 .73 1.83l2.44 1.05-2.06.61a1 1 0 0 0 .57 1.91l4.34-1.3L16.15 31a1.39 1.39 0 0 0 1.1-2.56l-12.8-5.5a1.4 1.4 0 0 0-1.83.72z"/><path class="cls-1" d="M45.43 23.66a1.38 1.38 0 0 1-.73 1.83l-2.43 1.05 2.06.61a1 1 0 0 1-.57 1.91l-4.35-1.3-7.5 3.24a1.38 1.38 0 0 1-1.83-.73 1.4 1.4 0 0 1 .73-1.83l12.79-5.5a1.39 1.39 0 0 1 1.83.72z"/><path class="cls-2" d="M43.6 24.64l-12.79 5.5a1.43 1.43 0 0 0-.54.43 1.23 1.23 0 0 1-.19-.31 1.4 1.4 0 0 1 .73-1.83l12.79-5.5a1.39 1.39 0 0 1 1.83.73 1.38 1.38 0 0 1-.18 1.4 1.4 1.4 0 0 0-1.65-.42z"/><path class="cls-3" d="M45.43 23.66a1.38 1.38 0 0 1-.73 1.83l-2.43 1.05 2.06.61a1 1 0 0 1-.57 1.91l-4.35-1.3-7.5 3.24a1.38 1.38 0 0 1-1.83-.73 1.4 1.4 0 0 1 .73-1.83l12.79-5.5a1.39 1.39 0 0 1 1.83.72z"/><path class="cls-4" d="M9.26 13.24A.92.92 0 0 0 9.6 12a.93.93 0 0 0-1.26-.34l-1.53.89v-1.79a.92.92 0 0 0-1.84 0v1.78l-1.53-.89a.93.93 0 0 0-1.26.35.92.92 0 0 0 .34 1.25l1.54.89-1.54.86a.92.92 0 1 0 .92 1.59L5 15.71v1.78a.92.92 0 0 0 1.84 0v-1.78l1.53.89a.92.92 0 1 0 .89-1.6l-1.54-.88z"/><path class="cls-4" d="M46.07 40.06a.93.93 0 0 0 .34-1.26.92.92 0 0 0-1.26-.33l-1.53.88v-1.77a.92.92 0 0 0-1.84 0v1.77l-1.53-.88a.9.9 0 0 0-1.25.33.92.92 0 0 0 .33 1.26l1.54.88-1.54.89a.9.9 0 0 0-.33 1.25.92.92 0 0 0 1.25.34l1.53-.89v1.77a.92.92 0 0 0 1.84 0v-1.77l1.53.89a.93.93 0 0 0 1.26-.34.92.92 0 0 0-.34-1.25l-1.54-.89z"/><path class="cls-4" d="M43.93 6.23A.92.92 0 0 0 43 4.64l-1.54.89V3.75a.92.92 0 0 0-1.83 0v1.78l-1.53-.89a.92.92 0 1 0-.91 1.59l1.53.88-1.53.89a.92.92 0 1 0 .91 1.59l1.54-.89v1.78a.92.92 0 0 0 1.83 0V8.7l1.53.89a.92.92 0 0 0 1.25-.34.9.9 0 0 0-.32-1.25l-1.54-.89z"/><ellipse cx="24" cy="45.5" rx="12" ry="1.5" opacity=".15" fill="#45413c"/><circle class="cls-6" cx="24" cy="31.57" r="13.93" transform="rotate(-80.78 23.998 31.57)"/><path d="M37.63 28.74A16.11 16.11 0 0 1 24 36a16.15 16.15 0 0 1-13.64-7.27 13.93 13.93 0 0 1 27.28 0z" fill="#a6fbff"/><circle class="cls-3" cx="24" cy="31.57" r="13.93" transform="rotate(-80.78 23.998 31.57)"/><circle class="cls-6" cx="24.03" cy="15.31" r="10.74"/><path d="M24 7.66a10.74 10.74 0 0 1 10.63 9.2 9.93 9.93 0 0 0 .11-1.55 10.75 10.75 0 0 0-21.49 0 9.92 9.92 0 0 0 .12 1.55A10.73 10.73 0 0 1 24 7.66z" fill="#fff"/><circle class="cls-3" cx="24.03" cy="15.31" r="10.74"/><path class="cls-9" d="M34.45 18a10.75 10.75 0 0 1-20.84 0 7.58 7.58 0 0 0-1.52 4.47c0 5 5.34 9.15 11.94 9.15S36 27.47 36 22.42A7.58 7.58 0 0 0 34.45 18z"/><path class="cls-10" d="M24 26.06A10.76 10.76 0 0 1 13.61 18a8.12 8.12 0 0 0-1.3 2.7C13.39 24.85 18.22 28 24 28s10.64-3.17 11.72-7.37a8.12 8.12 0 0 0-1.3-2.7A10.76 10.76 0 0 1 24 26.06z"/><path class="cls-3" d="M34.45 18a10.75 10.75 0 0 1-20.84 0 7.58 7.58 0 0 0-1.52 4.47c0 5 5.34 9.15 11.94 9.15S36 27.47 36 22.42A7.58 7.58 0 0 0 34.45 18z"/><path class="cls-11" d="M17.37 23.75a10.54 10.54 0 0 0-2.75 4.3A13.49 13.49 0 0 0 24 31.57v-5.51a10.76 10.76 0 0 1-6.63-2.31z"/><path class="cls-12" d="M17.37 23.75a10.66 10.66 0 0 0-1.51 1.79A14 14 0 0 0 24 28v-2a10.76 10.76 0 0 1-6.63-2.25z"/><path class="cls-3" d="M17.37 23.75a10.54 10.54 0 0 0-2.75 4.3A13.49 13.49 0 0 0 24 31.57v-5.51a10.76 10.76 0 0 1-6.63-2.31z"/><path class="cls-11" d="M34.45 18a10.78 10.78 0 0 1-3.77 5.8 10.66 10.66 0 0 1 2.76 4.3A7.86 7.86 0 0 0 36 22.42 7.58 7.58 0 0 0 34.45 18z"/><path class="cls-12" d="M35.75 20.65a8.12 8.12 0 0 0-1.3-2.7 10.78 10.78 0 0 1-3.77 5.8 10.7 10.7 0 0 1 1.52 1.79 8.87 8.87 0 0 0 3.55-4.89z"/><path class="cls-3" d="M34.45 18a10.78 10.78 0 0 1-3.77 5.8 10.66 10.66 0 0 1 2.76 4.3A7.86 7.86 0 0 0 36 22.42 7.58 7.58 0 0 0 34.45 18z"/><path class="cls-3" d="M26.39 25.6a4.58 4.58 0 0 1 3.18-2.78c2.49-.65 5.57 1.29 5.57 6 0 2.8.57 4.1 1 4.69a.84.84 0 0 1-.08 1.12l-2.15 2.15a.85.85 0 0 1-1.38-.23 12.88 12.88 0 0 1-1-5.35c.03-3.91-2.41-6.34-5.14-5.6z"/><path class="cls-11" d="M26.39 25.6a4.58 4.58 0 0 1 3.18-2.78c2.49-.65 5.57 1.29 5.57 6 0 2.8.57 4.1 1 4.69a.84.84 0 0 1-.08 1.12l-2.15 2.15a.85.85 0 0 1-1.38-.23 12.88 12.88 0 0 1-1-5.35c.03-3.91-2.41-6.34-5.14-5.6z"/><path class="cls-12" d="M29.57 22.82a4.58 4.58 0 0 0-3.18 2.78 3.64 3.64 0 0 1 1.7-.06 4.7 4.7 0 0 1 1.48-.66 3.92 3.92 0 0 1 3.24.61l1.13-1a4.13 4.13 0 0 0-4.37-1.67z"/><path class="cls-3" d="M26.39 25.6a4.58 4.58 0 0 1 3.18-2.78c2.49-.65 5.57 1.29 5.57 6 0 2.8.57 4.1 1 4.69a.84.84 0 0 1-.08 1.12l-2.15 2.15a.85.85 0 0 1-1.38-.23 12.88 12.88 0 0 1-1-5.35c.03-3.91-2.41-6.34-5.14-5.6z"/><circle class="cls-13" cx="28.61" cy="15.31" r=".6"/><circle class="cls-13" cx="19.45" cy="15.31" r=".6"/><path class="cls-14" d="M31.62 18.4c0 .42-.59.75-1.31.75S29 18.82 29 18.4s.59-.75 1.31-.75 1.31.35 1.31.75z"/><path class="cls-14" d="M19.05 18.4c0 .42-.58.75-1.3.75s-1.31-.33-1.31-.75.59-.75 1.31-.75 1.3.35 1.3.75z"/><path class="cls-3" d="M21.84 20.31a2.48 2.48 0 0 0 4.37 0"/><circle class="cls-11" cx="24.04" cy="35.49" r="1.71"/><circle class="cls-11" cx="24.04" cy="41.48" r="1.71"/><path class="cls-12" d="M24 35.06a1.71 1.71 0 0 1 1.59 1.07 1.74 1.74 0 0 0 .13-.64 1.72 1.72 0 0 0-3.43 0 1.74 1.74 0 0 0 .13.64A1.7 1.7 0 0 1 24 35.06z"/><path class="cls-12" d="M24 41.05a1.71 1.71 0 0 1 1.59 1.07 1.74 1.74 0 0 0 .13-.64 1.72 1.72 0 0 0-3.43 0 1.74 1.74 0 0 0 .13.64A1.7 1.7 0 0 1 24 41.05z"/><circle class="cls-3" cx="24.04" cy="35.49" r="1.71"/><circle class="cls-3" cx="24.04" cy="41.48" r="1.71"/><path class="cls-9" d="M35.14 28.79a7.14 7.14 0 0 0-1.2-4.26l-3.37 2.85a7.05 7.05 0 0 1 1 3.79 15.51 15.51 0 0 0 .24 2.83l3.39-3.8q-.06-.61-.06-1.41z"/><path class="cls-10" d="M35.14 28.79a7.14 7.14 0 0 0-1.2-4.26l-1.14 1c1.24 1 1.68 2.21 2.1 5.07l.3-.34q-.06-.67-.06-1.47z"/><path class="cls-3" d="M35.14 28.79a7.14 7.14 0 0 0-1.2-4.26l-3.37 2.85a7.05 7.05 0 0 1 1 3.79 15.51 15.51 0 0 0 .24 2.83l3.39-3.8q-.06-.61-.06-1.41z"/></svg>