<svg xmlns="http://www.w3.org/2000/svg" viewBox="0 0 48 48"><defs><style>.cls-2{fill:#ff6242;stroke:#45413c;stroke-linecap:round;stroke-linejoin:round}</style></defs><g><ellipse cx="24" cy="45.5" rx="11.5" ry="1.5" fill="#45413c" opacity=".15"/><g><path class="cls-2" d="M14.44 30.61c.76-2.36-1.79-6.71 3.43-8.61-.82 4.86 5.94 6.25 4.4 11.1z"/><path class="cls-2" d="M33.5 12.5c.9 2.49.61 3.94-.5 5C27.92 14.3 21.86 12 20.88 5 10.5 13 26 24 18.5 27c-3.71 1.49-7-2-6.5-5.91A11.07 11.07 0 0 0 8.5 29c0 6.9 6.94 12.5 15.5 12.5 19.6 0 18-26 9.5-29z"/><path d="M31 28c-1.5 4.5-5.52 6.29-9.09 6.48a5 5 0 0 0 4.59 3C32.12 37.5 36 31.5 31 28z" fill="#ffe500" stroke="#45413c" stroke-linecap="round" stroke-linejoin="round"/></g></g></svg>