<svg xmlns="http://www.w3.org/2000/svg" viewBox="0 0 48 48"><g><ellipse cx="24" cy="45.76" rx="9.11" ry="1.24" fill="#45413c" opacity=".15"/><path d="M34 28.73L24.5 2.2a.53.53 0 0 0-1 0L14 28.73a10.67 10.67 0 1 0 20.08 0z" fill="#00dfeb"/><path d="M17.64 29.76l9.42-20.45L24.5 2.2a.53.53 0 0 0-1 0L14 28.73a10.68 10.68 0 0 0 6.53 13.68 10.66 10.66 0 0 1-2.89-12.65z" fill="#4aeff7"/><path d="M34 28.73L24.5 2.2a.53.53 0 0 0-1 0L14 28.73a10.67 10.67 0 1 0 20.08 0z" fill="none" stroke="#45413c" stroke-linecap="round" stroke-linejoin="round"/></g></svg>