<svg xmlns="http://www.w3.org/2000/svg" viewBox="0 0 48 48"><defs><style>.cls-4{fill:none;stroke:#45413c;stroke-linecap:round;stroke-linejoin:round}</style></defs><g><ellipse cx="24" cy="45.42" rx="7.9" ry="1.58" fill="#45413c" opacity=".15"/><path d="M33.31 12.94C33.31 7 29.14 2.88 24 2.88S14.69 7 14.69 12.94c0 5.37 5.16 11.23 8.39 12.27l-.74 1.7a.65.65 0 0 0 .59.91h2.14a.65.65 0 0 0 .59-.91l-.74-1.7c3.23-1.04 8.39-6.9 8.39-12.27z" fill="#ff6196"/><g><path d="M24 7.27c4.64 0 8.48 2.85 9.18 7.08a9.6 9.6 0 0 0 .13-1.41C33.31 7 29.14 2.88 24 2.88S14.69 7 14.69 12.94a9.6 9.6 0 0 0 .13 1.41c.7-4.23 4.54-7.08 9.18-7.08z" fill="#ff87af"/></g><path class="cls-4" d="M33.31 12.94C33.31 7 29.14 2.88 24 2.88S14.69 7 14.69 12.94c0 5.37 5.16 11.23 8.39 12.27l-.74 1.7a.65.65 0 0 0 .59.91h2.14a.65.65 0 0 0 .59-.91l-.74-1.7c3.23-1.04 8.39-6.9 8.39-12.27z"/><path class="cls-4" d="M24 27.82c0 6.34 8 7.18 11.78 10.35s3.56 6.33 3.56 6.33"/></g></svg>