<svg xmlns="http://www.w3.org/2000/svg" viewBox="0 0 48 48"><defs><style>.cls-2{fill:none}.cls-2,.cls-3,.cls-9{stroke:#45413c;stroke-linecap:round;stroke-linejoin:round}.cls-3{fill:#ebcb00}.cls-4{fill:#ffe500}.cls-5{fill:#fff48c}.cls-13{fill:#ff6242}.cls-9{fill:#bf8df2}.cls-14{fill:#e04122}.cls-15{fill:#6dd627}.cls-16{fill:#46b000}</style></defs><ellipse cx="24" cy="45.5" rx="10" ry="1.5" fill="#45413c" opacity=".15"/><path class="cls-2" d="M25.79 11.75A14.83 14.83 0 0 1 24 4a14.88 14.88 0 0 1-1.76 7.7"/><ellipse class="cls-3" cx="14.89" cy="18.75" rx="10.19" ry="2.96" transform="rotate(-40.05 14.889 18.76)"/><path class="cls-4" d="M22.69 12.2c-1.06-1.25-5.4.67-9.71 4.29S6 24.06 7.09 25.31a10.19 10.19 0 1 1 15.6-13.11z"/><path class="cls-5" d="M8.35 13a10.19 10.19 0 0 1 11.79-.93c1.22-.39 2.13-.39 2.55.1a10.19 10.19 0 0 0-17.93 7.71A10.15 10.15 0 0 1 8.35 13z"/><path class="cls-2" d="M22.69 12.2c-1.06-1.25-5.4.67-9.71 4.29S6 24.06 7.09 25.31a10.19 10.19 0 1 1 15.6-13.11z"/><ellipse class="cls-3" cx="33.11" cy="18.75" rx="2.96" ry="10.19" transform="rotate(-49.95 33.108 18.752)"/><path class="cls-4" d="M25.31 12.2c1.06-1.25 5.4.67 9.71 4.29s6.94 7.57 5.89 8.82a10.19 10.19 0 1 0-15.6-13.11z"/><path class="cls-5" d="M39.65 13a10.19 10.19 0 0 0-11.79-.93c-1.22-.39-2.13-.39-2.55.1a10.19 10.19 0 0 1 17.93 7.68A10.15 10.15 0 0 0 39.65 13z"/><path class="cls-2" d="M25.31 12.2c1.06-1.25 5.4.67 9.71 4.29s6.94 7.57 5.89 8.82a10.19 10.19 0 1 0-15.6-13.11z"/><path d="M4.9 29.37a4 4 0 0 1-3.25 1.84l-1.15-2a4 4 0 0 0 3.25-1.84z" fill="#00f5bc" stroke="#45413c" stroke-linecap="round" stroke-linejoin="round"/><path d="M31.36 17.08a4 4 0 0 1-1.65 3.35l-2.09-1a4 4 0 0 0 1.64-3.35z" fill="#ff6242" stroke="#45413c" stroke-linecap="round" stroke-linejoin="round"/><path d="M30.59 40.35a4 4 0 0 1-.78-3.65l2.28-.49a4 4 0 0 0 .78 3.65z" fill="#ff6196" stroke="#45413c" stroke-linecap="round" stroke-linejoin="round"/><path class="cls-9" d="M19 16.16a4 4 0 0 0-.73 3.67l2.29.45a4 4 0 0 1 .73-3.66z"/><path class="cls-9" d="M43.49 29a4 4 0 0 0 3.71.49l.3-2.32a3.94 3.94 0 0 1-3.7-.48z"/><path d="M27.42 31.8a4 4 0 0 1-3.09 2.11L23 32a4 4 0 0 0 3.09-2.11z" fill="#ff8a14" stroke="#45413c" stroke-linecap="round" stroke-linejoin="round"/><path d="M21.43 24.42a4 4 0 0 1 3.23 1.89l-1.18 2a4 4 0 0 0-3.23-1.89z" fill="#4aeff7" stroke="#45413c" stroke-linecap="round" stroke-linejoin="round"/><path d="M15.78 38.64a4 4 0 0 1 2.43-2.85L20 37.31a4 4 0 0 0-2.42 2.84z" fill="#fff48c" stroke="#45413c" stroke-linecap="round" stroke-linejoin="round"/><path class="cls-13" d="M14.09 34.71a15.52 15.52 0 0 1-6.91 5.78l-.88-1.8c3.61-1.77 5.13-3.22 7.21-6.84L15.16 33c-.37.62-.7 1.16-1.07 1.71z"/><path class="cls-14" d="M12.77 36.46a17 17 0 0 0 1.32-1.75c.37-.55.7-1.09 1.07-1.74l-1.65-1.12a16.38 16.38 0 0 1-3.38 4.43 5.78 5.78 0 0 0 2.64.18z"/><path class="cls-2" d="M14.09 34.71a15.52 15.52 0 0 1-6.91 5.78l-.88-1.8c3.61-1.77 5.13-3.22 7.21-6.84L15.16 33c-.37.62-.7 1.16-1.07 1.71z"/><path class="cls-13" d="M15.9 22.27a15.6 15.6 0 0 1-.72 6.27 3.82 3.82 0 0 0-1.11-1.12 4 4 0 1 0 1.1 5.58c2.5-3.74 2.84-6.62 2.73-10.75zM10.73 32.4a2 2 0 1 1 2.78-.55 2 2 0 0 1-2.78.55z"/><path class="cls-14" d="M14.07 27.42l-.21-.13a19.47 19.47 0 0 1-.77 1.88 2 2 0 0 1 .42 2.68 13.32 13.32 0 0 0 1.67-3.31 3.82 3.82 0 0 0-1.11-1.12z"/><path class="cls-2" d="M15.9 22.27a15.6 15.6 0 0 1-.72 6.27 3.82 3.82 0 0 0-1.11-1.12 4 4 0 1 0 1.1 5.58c2.5-3.74 2.84-6.62 2.73-10.75zM10.73 32.4a2 2 0 1 1 2.78-.55 2 2 0 0 1-2.78.55zM13.51 31.85a13.32 13.32 0 0 0 1.67-3.31"/><path class="cls-15" d="M34.81 34.19a15.43 15.43 0 0 0 8 4.07l.45-1.95c-3.92-.91-5.72-2-8.56-5l-1.37 1.46c.56.52 1 .97 1.48 1.42z"/><path class="cls-16" d="M36.5 35.6a17.29 17.29 0 0 1-1.69-1.41c-.48-.45-.92-.9-1.44-1.45l1.37-1.46A16.34 16.34 0 0 0 39 34.83a5.83 5.83 0 0 1-2.5.77z"/><path class="cls-2" d="M34.81 34.19a15.43 15.43 0 0 0 8 4.07l.45-1.95c-3.92-.91-5.72-2-8.56-5l-1.37 1.46c.56.52 1 .97 1.48 1.42z"/><path class="cls-15" d="M28.27 22.89c.83 4.05 1.81 6.78 5.1 9.85a4 4 0 1 0-.19-5.65 4.1 4.1 0 0 0-.83 1.34 15.87 15.87 0 0 1-2.12-5.94zm6.47 8.39a2 2 0 1 1 2.82-.09 2 2 0 0 1-2.82.09z"/><path class="cls-16" d="M33.18 27.09l.17-.18a18.53 18.53 0 0 0 1.19 1.67 2 2 0 0 0 .2 2.7 13.07 13.07 0 0 1-2.39-2.85 4.1 4.1 0 0 1 .83-1.34z"/><path class="cls-2" d="M28.27 22.89c.83 4.05 1.81 6.78 5.1 9.85a4 4 0 1 0-.19-5.65 4.1 4.1 0 0 0-.83 1.34 15.87 15.87 0 0 1-2.12-5.94zm6.47 8.39a2 2 0 1 1 2.82-.09 2 2 0 0 1-2.82.09zM34.74 31.28a13.07 13.07 0 0 1-2.39-2.85"/></svg>