<svg xmlns="http://www.w3.org/2000/svg" viewBox="0 0 48 48"><defs><style>.cls-2{fill:#ff6196}.cls-3,.cls-5{fill:#e0366f}.cls-4{fill:none}.cls-4,.cls-5{stroke:#45413c;stroke-linecap:round;stroke-linejoin:round}.cls-6{fill:#ff87af}</style></defs><ellipse cx="24" cy="45.5" rx="13.5" ry="1.5" fill="#45413c" opacity=".15"/><path class="cls-2" d="M17.85 25.54s-7.87.62-11.27 11c-.39 1.21.79 2.23 1.71 1.52a6.3 6.3 0 0 1 3.93-1.47 24.66 24.66 0 0 0 2.2 7.21 1.07 1.07 0 0 0 2.06-.34C18 35.73 24 29.32 24 29.32z"/><path class="cls-3" d="M17.85 25.54a10.56 10.56 0 0 0-3.69 1.23 10.73 10.73 0 0 0 7.61 5.32A32.51 32.51 0 0 1 24 29.32z"/><path class="cls-4" d="M17.85 25.54s-7.87.62-11.27 11c-.39 1.21.79 2.23 1.71 1.52a6.3 6.3 0 0 1 3.93-1.47 24.66 24.66 0 0 0 2.2 7.21 1.07 1.07 0 0 0 2.06-.34C18 35.73 24 29.32 24 29.32z"/><path class="cls-2" d="M30.15 25.54s7.87.62 11.27 11c.39 1.21-.79 2.23-1.71 1.52a6.3 6.3 0 0 0-3.93-1.47 24.66 24.66 0 0 1-2.2 7.21 1.07 1.07 0 0 1-2.06-.34C30 35.73 24 29.32 24 29.32z"/><path class="cls-3" d="M30.15 25.54a10.56 10.56 0 0 1 3.69 1.23 10.73 10.73 0 0 1-7.61 5.32A32.51 32.51 0 0 0 24 29.32z"/><path class="cls-4" d="M30.15 25.54s7.87.62 11.27 11c.39 1.21-.79 2.23-1.71 1.52a6.3 6.3 0 0 0-3.93-1.47 24.66 24.66 0 0 1-2.2 7.21 1.07 1.07 0 0 1-2.06-.34C30 35.73 24 29.32 24 29.32z"/><path class="cls-5" d="M1.45 20.05a2 2 0 0 0 .36 1.58c4.19 5.64 18.88 3.91 18.88 3.91l1.89-4.26-19.39-9.93z"/><path class="cls-2" d="M5.23 9.24a3.07 3.07 0 0 0-2 2.11l-1.74 8.7a2.09 2.09 0 0 0 0 .66c7.12-5 19.26 4.83 19.26 4.83l1.89-4.26S13.77 6.59 5.23 9.24z"/><path class="cls-6" d="M2.45 15.05a3.13 3.13 0 0 1 1.84-1.55c7.26-2.26 14.71 8.05 16.79 11.16l1.5-3.38S13.77 6.59 5.23 9.24a3.07 3.07 0 0 0-2 2.11z"/><path class="cls-4" d="M5.23 9.24a3.07 3.07 0 0 0-2 2.11l-1.74 8.7a2.09 2.09 0 0 0 0 .66c7.12-5 19.26 4.83 19.26 4.83l1.89-4.26S13.77 6.59 5.23 9.24z"/><path class="cls-5" d="M46.55 20.05a2 2 0 0 1-.36 1.58c-4.19 5.64-18.88 3.91-18.88 3.91l-1.89-4.26 19.39-9.93z"/><path class="cls-2" d="M42.77 9.24a3.07 3.07 0 0 1 2 2.11l1.74 8.7a2.09 2.09 0 0 1 0 .66c-7.12-5-19.26 4.83-19.26 4.83l-1.89-4.26S34.23 6.59 42.77 9.24z"/><path class="cls-6" d="M45.55 15.05a3.13 3.13 0 0 0-1.84-1.55C36.45 11.24 29 21.55 26.92 24.66l-1.5-3.38s8.81-14.69 17.35-12a3.07 3.07 0 0 1 2 2.11z"/><path class="cls-4" d="M42.77 9.24a3.07 3.07 0 0 1 2 2.11l1.74 8.7a2.09 2.09 0 0 1 0 .66c-7.12-5-19.26 4.83-19.26 4.83l-1.89-4.26S34.23 6.59 42.77 9.24z"/><ellipse class="cls-2" cx="24" cy="22.59" rx="8.04" ry="7.09"/><path class="cls-6" d="M24 18.81A14.2 14.2 0 0 1 31.82 21 7.88 7.88 0 0 0 24 15.5a7.88 7.88 0 0 0-7.82 5.5A14.2 14.2 0 0 1 24 18.81z"/><ellipse class="cls-4" cx="24" cy="22.59" rx="8.04" ry="7.09"/></svg>