<svg xmlns="http://www.w3.org/2000/svg" viewBox="0 0 48 48"><defs><style>.cls-2{fill:#ff866e}.cls-12,.cls-4{fill:none}.cls-11,.cls-13,.cls-14,.cls-21,.cls-4{stroke:#45413c}.cls-11,.cls-12,.cls-13,.cls-14,.cls-21,.cls-4{stroke-linecap:round;stroke-linejoin:round}.cls-11,.cls-7{fill:#eddbff}.cls-13,.cls-8{fill:#dabff5}.cls-12{stroke:#bf8df2}.cls-14{fill:#bf8df2}.cls-21{fill:#fff48c}</style></defs><g><ellipse cx="19.27" cy="44.5" rx="14.21" ry="1.5" fill="#45413c" opacity=".15"/><g><g><g><path class="cls-2" d="M19.11 30.76l-13-6.39L4.52 37.3a.76.76 0 0 0 .43.78l12.55 6.16a3.1 3.1 0 0 0 2 .24l13.65-3a.79.79 0 0 0 .6-.67l1.55-12.93L21.15 31a3.12 3.12 0 0 1-2.04-.24z"/><path d="M21.15 31a3.12 3.12 0 0 1-2-.25l-13-6.39-.55 3.86 13.05 6.39a3.1 3.1 0 0 0 2 .25l14.19-3.14.46-3.85z" fill="#ff6242"/><path class="cls-4" d="M19.11 30.76l-13-6.39L4.52 37.3a.76.76 0 0 0 .43.78l12.55 6.16a3.1 3.1 0 0 0 2 .24l13.65-3a.79.79 0 0 0 .6-.67l1.55-12.93L21.15 31a3.12 3.12 0 0 1-2.04-.24z"/><path id="_Line_" data-name="&lt;Line&gt;" stroke="#e04122" stroke-linecap="round" stroke-linejoin="round" fill="none" d="M18.66 43.18l1.24-10.4"/><path d="M35.33 27.87l-13-6.4a3.12 3.12 0 0 0-2-.24L6.06 24.37l13.05 6.39a3.12 3.12 0 0 0 2 .25z" fill="#e04122" stroke-linecap="round" stroke-linejoin="round" stroke="#45413c"/></g><g><path class="cls-7" d="M9.02 25.81L7.4 39.29l6.64 3.26 1.62-13.48-6.64-3.26z"/><path class="cls-8" d="M9.02 25.81l-.47 3.85 6.65 3.26.46-3.85-6.64-3.26z"/><path class="cls-4" d="M9.02 25.81L7.4 39.29l6.64 3.26 1.62-13.48-6.64-3.26z"/></g><g><path class="cls-7" d="M32.12 28.58l-1.61 13.48-7.22 1.59 1.61-13.47 7.22-1.6z"/><path class="cls-8" d="M32.12 28.58l-.46 3.85-7.22 1.6.46-3.85 7.22-1.6z"/><path class="cls-4" d="M32.12 28.58l-1.61 13.48-7.22 1.59 1.61-13.47 7.22-1.6z"/></g></g><g><g><path class="cls-2" d="M16.53 18.93l-15.3-1.24 1.24 4.72a.76.76 0 0 0 .69.57l14.75 1.2a3.09 3.09 0 0 0 2-.52l12.26-8.26a.8.8 0 0 0 .32-.84l-1.24-4.72-12.73 8.57a3.18 3.18 0 0 1-1.99.52z"/><path d="M18.52 18.41a3.18 3.18 0 0 1-2 .52L1.23 17.69l.59 2.25 15.3 1.24a3.19 3.19 0 0 0 2-.52l12.73-8.57-.59-2.25z" fill="#ffa694"/><path class="cls-4" d="M16.53 18.93l-15.3-1.24 1.24 4.72a.76.76 0 0 0 .69.57l14.75 1.2a3.09 3.09 0 0 0 2-.52l12.26-8.26a.8.8 0 0 0 .32-.84l-1.24-4.72-12.73 8.57a3.18 3.18 0 0 1-1.99.52z"/><path d="M1.23 17.69L14 9.11a3.08 3.08 0 0 1 2-.51l15.3 1.24-12.78 8.57a3.18 3.18 0 0 1-2 .52z" stroke-linecap="round" stroke-linejoin="round" stroke="#45413c" fill="#ff866e"/></g><g><path class="cls-11" d="M18.28 8.78L4.51 17.95l1.37 5.26 7.38.59-1.38-5.25 13.77-9.17-7.37-.6z"/><path class="cls-12" d="M6.7 18.13l3.72.3"/></g><g><path class="cls-11" d="M12.03 10.42l16.49 1.25 1.38 5.25-6.14 4.13-1.37-5.25L5.9 14.55l6.13-4.13z"/><path class="cls-12" d="M26.7 12.9l-3.09 2.08"/></g><g><g><path class="cls-13" d="M18.9 13.6l-1.84-1.31s2-8 7.46-8.66A2.3 2.3 0 0 1 27 5.15l.86 2.35z"/><path class="cls-14" d="M18.9 13.6s4.74-.37 8.81-5.28A.78.78 0 0 0 27 7a10.27 10.27 0 0 0-8.1 6.6z"/></g><g><path class="cls-13" d="M14 15l.81-2.11S9 7.56 4.05 10a2.31 2.31 0 0 0-1.19 2.62l.59 2.44z"/><path class="cls-14" d="M14 15s-3.9 2.51-10 .68a.78.78 0 0 1-.13-1.45A9.91 9.91 0 0 1 14 15z"/></g><path class="cls-14" d="M14.5 14.3s-5.1 3-5.36 7.29l2.6-1.1 1.49 2.56s1.12-6.78 3.29-8.22z"/><path class="cls-14" d="M18.06 13.42s5.9.25 8.14 4l-2.81.24-.13 2.95s-4.15-5.48-6.74-5.75z"/><g><path d="M19.41 12.07c.38 1.45-.83 3-2.69 3.51s-3.69-.29-4.06-1.74.82-3 2.69-3.51 3.65.29 4.06 1.74z" fill="#bf8df2"/><path class="cls-8" d="M15.74 11.83a3.46 3.46 0 0 1 3.71 1 2.16 2.16 0 0 0 0-.8c-.38-1.45-2.2-2.23-4.06-1.74s-3.07 2.06-2.69 3.51a2 2 0 0 0 .35.71 3.47 3.47 0 0 1 2.69-2.68z"/><path class="cls-4" d="M19.41 12.07c.38 1.45-.83 3-2.69 3.51s-3.69-.29-4.06-1.74.82-3 2.69-3.51 3.65.29 4.06 1.74z"/></g></g></g><g><path d="M29.33 26.48a4.66 4.66 0 0 1-3.83 2.17l-1.36-2.39A4.67 4.67 0 0 0 28 24.08z" fill="#00f5bc" stroke-linecap="round" stroke-linejoin="round" stroke="#45413c"/><path d="M45 9.18a4.69 4.69 0 0 1-2 4l-2.47-1.21a4.69 4.69 0 0 0 1.94-4z" stroke-linecap="round" stroke-linejoin="round" stroke="#45413c" fill="#ff6242"/><path d="M39.55 47a4.68 4.68 0 0 1-.93-4.31l2.7-.58a4.7 4.7 0 0 0 .92 4.31z" fill="#ff6196" stroke-linecap="round" stroke-linejoin="round" stroke="#45413c"/><path d="M47.5 25.53a4.68 4.68 0 0 1-4.23 1.24l-.78-2.64a4.68 4.68 0 0 0 4.23-1.25z" fill="#ff8a14" stroke-linecap="round" stroke-linejoin="round" stroke="#45413c"/><path d="M36.54 32.53a4.7 4.7 0 0 1 3.81 2.23L39 37.14a4.66 4.66 0 0 0-3.8-2.23z" fill="#4aeff7" stroke-linecap="round" stroke-linejoin="round" stroke="#45413c"/><path class="cls-21" d="M30 44.7a4.7 4.7 0 0 1-4.18-1.41l.89-2.61a4.65 4.65 0 0 0 4.17 1.41z"/><path class="cls-21" d="M32.82 21.54a4.7 4.7 0 0 1 2.86-3.36l2.1 1.82a4.68 4.68 0 0 0-2.86 3.36z"/></g></g></g></svg>