<svg xmlns="http://www.w3.org/2000/svg" viewBox="0 0 48 48"><defs><style>.cls-1{fill:#e0e0e0}.cls-2{fill:#fff}.cls-3{fill:none;stroke:#45413c;stroke-linecap:round;stroke-linejoin:round;stroke-width:1.01px}.cls-5{fill:#9ceb60}.cls-6{fill:#c8ffa1}</style></defs><g><path class="cls-1" d="M42.77 33.32a18.85 18.85 0 0 1-1.84 3 1.45 1.45 0 0 0-.65-.84 24.1 24.1 0 0 1-10.4-13.38 24.18 24.18 0 0 1 .59-16.94 1.55 1.55 0 0 0 .09-1 19.76 19.76 0 0 1 3.18 1.34 20.71 20.71 0 0 0-.87 15.6 20.72 20.72 0 0 0 9.82 12.15z"/><path class="cls-2" d="M33.74 5.5a17.73 17.73 0 0 0-1.63 4.91 19.32 19.32 0 0 0-3-.59 21.35 21.35 0 0 1 1.42-4.7 1.55 1.55 0 0 0 .09-1 19.76 19.76 0 0 1 3.12 1.38z"/><path class="cls-3" d="M42.77 33.32a18.85 18.85 0 0 1-1.84 3 1.45 1.45 0 0 0-.65-.84 24.1 24.1 0 0 1-10.4-13.38 24.18 24.18 0 0 1 .59-16.94 1.55 1.55 0 0 0 .09-1 19.76 19.76 0 0 1 3.18 1.34 20.71 20.71 0 0 0-.87 15.6 20.72 20.72 0 0 0 9.82 12.15z"/><path class="cls-1" d="M17.54 42.83a1.57 1.57 0 0 0-.1 1 20 20 0 0 1-3.15-1.34 20.7 20.7 0 0 0 .87-15.6 20.83 20.83 0 0 0-9.8-12.17 20.84 20.84 0 0 1 1.76-2.91 1.37 1.37 0 0 0 .61.7 24.1 24.1 0 0 1 10.38 13.4 24.07 24.07 0 0 1-.57 16.92z"/><path class="cls-2" d="M11.5 15.37a17.89 17.89 0 0 0-2.15 2.2 18.61 18.61 0 0 0-4-2.85 20.84 20.84 0 0 1 1.76-2.91 1.37 1.37 0 0 0 .61.7 21.17 21.17 0 0 1 3.78 2.86z"/><path class="cls-3" d="M17.54 42.83a1.57 1.57 0 0 0-.1 1 20 20 0 0 1-3.15-1.34 20.7 20.7 0 0 0 .87-15.6 20.83 20.83 0 0 0-9.8-12.17 20.84 20.84 0 0 1 1.76-2.91 1.37 1.37 0 0 0 .61.7 24.1 24.1 0 0 1 10.38 13.4 24.07 24.07 0 0 1-.57 16.92z"/><ellipse cx="24" cy="44.68" rx="17.79" ry="2.32" fill="#45413c" opacity=".15"/><g><path class="cls-5" d="M34.78 5.22a.78.78 0 0 0-1.08.32 20.76 20.76 0 0 0-.86 15.6 20.8 20.8 0 0 0 9.83 12.15.78.78 0 0 0 1.06-.38 21.63 21.63 0 0 0-8.95-27.69z"/><path class="cls-6" d="M45.5 21.33A22.36 22.36 0 0 0 32 10.77a18.12 18.12 0 0 1 1.69-5.23.78.78 0 0 1 1.08-.32 21.54 21.54 0 0 1 9.82 12.11 20.69 20.69 0 0 1 .91 4z"/><path class="cls-3" d="M34.78 5.22a.78.78 0 0 0-1.08.32 20.76 20.76 0 0 0-.86 15.6 20.8 20.8 0 0 0 9.83 12.15.78.78 0 0 0 1.06-.38 21.63 21.63 0 0 0-8.95-27.69z"/><path class="cls-5" d="M30.47 5.16a1.54 1.54 0 0 0-1-2.11A21.55 21.55 0 0 0 7.33 10.2a1.54 1.54 0 0 0 .4 2.31A24 24 0 0 1 18.11 25.9a24.07 24.07 0 0 1-.58 16.94 1.55 1.55 0 0 0 1 2.11 21.55 21.55 0 0 0 22.1-7.15 1.53 1.53 0 0 0-.4-2.31A24.13 24.13 0 0 1 29.89 22.1a24.07 24.07 0 0 1 .58-16.94z"/><path class="cls-6" d="M30.47 5.16a21.68 21.68 0 0 0-1.48 5 20.31 20.31 0 0 0-2.93-.2 22.17 22.17 0 0 0-14.54 5.4 22.84 22.84 0 0 0-3.79-2.86 1.53 1.53 0 0 1-.39-2.31 21.37 21.37 0 0 1 10-6.81 21.63 21.63 0 0 1 12.1-.34 1.53 1.53 0 0 1 1.03 2.12z"/><path class="cls-3" d="M30.47 5.16a1.54 1.54 0 0 0-1-2.11A21.55 21.55 0 0 0 7.33 10.2a1.54 1.54 0 0 0 .4 2.31A24 24 0 0 1 18.11 25.9a24.07 24.07 0 0 1-.58 16.94 1.55 1.55 0 0 0 1 2.11 21.55 21.55 0 0 0 22.1-7.15 1.53 1.53 0 0 0-.4-2.31A24.13 24.13 0 0 1 29.89 22.1a24.07 24.07 0 0 1 .58-16.94z"/><path class="cls-5" d="M5.33 14.71a.79.79 0 0 0-1.06.38 21.63 21.63 0 0 0 9 27.69.78.78 0 0 0 1.08-.32 20.8 20.8 0 0 0 .87-15.6 20.85 20.85 0 0 0-9.89-12.15z"/><path class="cls-6" d="M9.32 17.54a22.08 22.08 0 0 0-5.54 14.22c-.14-.36-.26-.73-.39-1.1a21.47 21.47 0 0 1 .88-15.57.77.77 0 0 1 1.07-.37 17.61 17.61 0 0 1 3.98 2.82z"/><path class="cls-3" d="M5.33 14.71a.79.79 0 0 0-1.06.38 21.63 21.63 0 0 0 9 27.69.78.78 0 0 0 1.08-.32 20.8 20.8 0 0 0 .87-15.6 20.85 20.85 0 0 0-9.89-12.15z"/></g></g></svg>