<svg xmlns="http://www.w3.org/2000/svg" viewBox="0 0 48 48"><defs><style>.cls-4{fill:none}.cls-4,.cls-5,.cls-8{stroke:#45413c;stroke-linecap:round;stroke-linejoin:round}.cls-5{fill:#ff6242}.cls-8{fill:#656769}</style></defs><g><ellipse cx="24" cy="45.13" rx="14.31" ry="1.87" fill="#45413c" opacity=".15"/><path d="M33.49 13.79v-.38a6 6 0 0 1 1.09-3.29 4.8 4.8 0 0 0 .78-2.59 4.36 4.36 0 1 0-8.71 0 4.72 4.72 0 0 0 .78 2.59 6.11 6.11 0 0 1 1.08 3.29v.38A9.29 9.29 0 0 1 27 18.33a15.4 15.4 0 0 0-3.45 10.36c0 4.91 1.3 11.73 3.26 14.31h8.42c2-2.58 3.26-9.4 3.26-14.31A15.4 15.4 0 0 0 35 18.33a9.2 9.2 0 0 1-1.51-4.54z" fill="#fff"/><g><path d="M37.78 35.69a10.47 10.47 0 0 1-10.4-8.86 39.39 39.39 0 0 1-.38-5.46 20.56 20.56 0 0 1 .26-3.43q-.12.21-.24.39a15.4 15.4 0 0 0-3.45 10.36c0 4.91 1.3 11.73 3.26 14.31h8.42c1.11-1.45 2-4.26 2.57-7.31z" fill="#e0e0e0"/></g><path class="cls-4" d="M33.49 13.79v-.38a6 6 0 0 1 1.09-3.29 4.8 4.8 0 0 0 .78-2.59 4.36 4.36 0 1 0-8.71 0 4.72 4.72 0 0 0 .78 2.59 6.11 6.11 0 0 1 1.08 3.29v.38A9.29 9.29 0 0 1 27 18.33a15.4 15.4 0 0 0-3.45 10.36c0 4.91 1.3 11.73 3.26 14.31h8.42c2-2.58 3.26-9.4 3.26-14.31A15.4 15.4 0 0 0 35 18.33a9.2 9.2 0 0 1-1.51-4.54z"/><path class="cls-5" d="M33.74 11.88h-5.48a5.27 5.27 0 0 1 .25 1.53v.38a4 4 0 0 1 0 .58h5.06v-.96a5.27 5.27 0 0 1 .17-1.53z"/><path class="cls-5" d="M27 18.33a9.3 9.3 0 0 0-.64 1h9.33c-.21-.36-.42-.71-.64-1a8.08 8.08 0 0 1-.8-1.47h-6.48a8.74 8.74 0 0 1-.77 1.47z"/><circle cx="20.42" cy="33.18" r="11.82" fill="#87898c"/><path d="M20.42 41.89A11.82 11.82 0 0 1 8.71 31.62a11.46 11.46 0 0 0-.11 1.56 11.83 11.83 0 0 0 23.65 0 11.45 11.45 0 0 0-.12-1.56 11.82 11.82 0 0 1-11.71 10.27z" fill="#656769"/><circle class="cls-4" cx="20.42" cy="33.18" r="11.82"/><circle class="cls-8" cx="13.58" cy="30.06" r="1.24"/><circle class="cls-8" cx="18.55" cy="31.93" r="1.24"/><ellipse cx="20.42" cy="24.23" rx="3.27" ry="1.32" fill="#bdbec0"/><circle class="cls-8" cx="17.62" cy="26.25" r="1.24"/></g></svg>