<svg xmlns="http://www.w3.org/2000/svg" viewBox="0 0 48 48"><defs><style>.cls-7{stroke:#45413c;stroke-linecap:round;stroke-linejoin:round;fill:#ff6242}</style></defs><g><ellipse cx="24" cy="44.42" rx="12.11" ry="1.58" fill="#45413c" opacity=".15"/><path d="M43 36.23c0 2.64-8.49 5.27-19 5.27S5 39 5 36.23c0-4.07 8.49-7.37 19-7.37s19 3.3 19 7.37z" fill="#6dd627"/><path d="M24 32c8.78 0 16.15 2.32 18.31 5.48a1.89 1.89 0 0 0 .69-1.25c0-4.07-8.49-7.37-19-7.37s-19 3.3-19 7.37a1.9 1.9 0 0 0 .64 1.29C7.81 34.36 15.19 32 24 32z" fill="#9ceb60"/><path d="M43 36.23c0 2.64-8.49 5.27-19 5.27S5 39 5 36.23c0-4.07 8.49-7.37 19-7.37s19 3.3 19 7.37z" stroke="#45413c" stroke-linecap="round" stroke-linejoin="round" fill="none"/><ellipse cx="24" cy="30.44" rx="5.27" ry="1.58" fill="#46b000" stroke="#45413c" stroke-linecap="round" stroke-linejoin="round"/><path d="M24 3.58a1 1 0 0 0-1.05 1v26.58a.85.85 0 0 0 .85.86h.4a.85.85 0 0 0 .85-.86V4.63A1 1 0 0 0 24 3.58z" fill="#daedf7" stroke="#45413c" stroke-linecap="round" stroke-linejoin="round"/><path class="cls-7" d="M37.68 14.15l-5.24-2.39a3.55 3.55 0 0 1-1.9-2.13A2.77 2.77 0 0 0 28.76 7l-3.71-1.38v11.72l2.75-1a3.15 3.15 0 0 1 2.74.28 3.26 3.26 0 0 0 4.31.51l2.91-2a.53.53 0 0 0-.08-.98z"/><path class="cls-7" d="M30.54 16.59V9.63"/></g></svg>