<svg xmlns="http://www.w3.org/2000/svg" viewBox="0 0 48 48"><defs><style>.cls-2,.cls-5{fill:#4acfff;stroke:#45413c;stroke-linecap:round;stroke-linejoin:round}.cls-5{fill:none}</style></defs><g><ellipse cx="24" cy="45.5" rx="12" ry="1.5" fill="#45413c" opacity=".15"/><path class="cls-2" d="M32.21 28.49a7.77 7.77 0 0 0-2 2.55 5.1 5.1 0 0 0-.5 3.13l2.49-1.09z"/><path class="cls-2" d="M39.78 28.49a7.77 7.77 0 0 1 2 2.55 5.1 5.1 0 0 1 .5 3.13l-2.49-1.09z"/><path d="M18.36 45.42a2.17 2.17 0 0 1-2.7-1.48l-2.82-9.61a.88.88 0 0 1 .59-1.09l2.51-.73a.87.87 0 0 1 1.06.59l2.82 9.62a2.17 2.17 0 0 1-1.46 2.7z" fill="#87898c"/><path d="M19.84 42.72L17 33.1a.87.87 0 0 0-1.08-.59l-1.35.39a.61.61 0 0 1 .11.21l3.16 10.69a2.18 2.18 0 0 1-.21 1.7 2.28 2.28 0 0 0 .73-.08 2.17 2.17 0 0 0 1.48-2.7z" fill="#bdbec0"/><path class="cls-5" d="M18.36 45.42a2.17 2.17 0 0 1-2.7-1.48l-2.82-9.61a.88.88 0 0 1 .59-1.09l2.51-.73a.87.87 0 0 1 1.06.59l2.82 9.62a2.17 2.17 0 0 1-1.46 2.7z"/><path d="M36.48 11.25A14 14 0 0 0 19.26 2a14.38 14.38 0 0 0-9.75 17.87l3.92 13.37 2.51-.73-3.86-13.17A12 12 0 0 1 20.2 4.47c6.15-1.8 12.92 1.24 15 7.19a.66.66 0 1 0 1.25-.41z" fill="#e8f4fa"/><g><path d="M19.26 3.48A13.92 13.92 0 0 1 36.2 12a.64.64 0 0 0 .28-.75A14 14 0 0 0 19.26 2 14.36 14.36 0 0 0 9 16.54 14.35 14.35 0 0 1 19.26 3.48z" fill="#fff"/></g><path class="cls-5" d="M36.48 11.25A14 14 0 0 0 19.26 2a14.38 14.38 0 0 0-9.75 17.87l3.92 13.37 2.51-.73-3.86-13.17A12 12 0 0 1 20.2 4.47c6.15-1.8 12.92 1.24 15 7.19a.66.66 0 1 0 1.25-.41z"/><path d="M20.17 29.91a3 3 0 1 1-3.79-2.07 3 3 0 0 1 3.79 2.07z" fill="#c0dceb"/><path d="M16.38 29.15a3 3 0 0 1 3.79 2.06v.21a3 3 0 0 0 0-1.51 3 3 0 0 0-5.89 1.51 3 3 0 0 1 2.1-2.27z" fill="#daedf7"/><path class="cls-5" d="M20.17 29.91a3 3 0 1 1-3.79-2.07 3 3 0 0 1 3.79 2.07z"/><path d="M18.5 30.4a1.31 1.31 0 1 1-1.62-.89 1.31 1.31 0 0 1 1.62.89z" fill="#ffe500" stroke="#45413c" stroke-linecap="round" stroke-linejoin="round"/><path class="cls-5" d="M36 12.09V24.9"/><path d="M39.57 39.36l-2-3.26a6.13 6.13 0 0 0 2.66-5.18 6.42 6.42 0 0 0-4.22-6 6.21 6.21 0 0 0-4.22 6 6.07 6.07 0 0 0 2.63 5.21l-2.07 3.23z" fill="#4acfff"/><g><path d="M33.48 28.84a3.47 3.47 0 0 1 5 0 6 6 0 0 1 1.63 3.23 7.15 7.15 0 0 0 .11-1.17 6.42 6.42 0 0 0-4.22-6 6.21 6.21 0 0 0-4.22 6 7.18 7.18 0 0 0 .1 1.17 6 6 0 0 1 1.6-3.23z" fill="#80ddff"/></g><path class="cls-5" d="M39.57 39.36l-2-3.26a6.13 6.13 0 0 0 2.66-5.18 6.42 6.42 0 0 0-4.22-6 6.21 6.21 0 0 0-4.22 6 6.07 6.07 0 0 0 2.63 5.21l-2.07 3.23z"/><path d="M37.54 28.89a.61.61 0 1 1-.61-.6.6.6 0 0 1 .61.6z" fill="#4f4b45"/><path class="cls-5" d="M31.78 30.92A7.41 7.41 0 0 0 36 32.09a7.78 7.78 0 0 0 4.25-1.17"/></g></svg>