<svg xmlns="http://www.w3.org/2000/svg" viewBox="0 0 48 48"><defs><style>.cls-1{fill:#daedf7}.cls-1,.cls-4{stroke:#45413c;stroke-linecap:round;stroke-linejoin:round}.cls-2{fill:#00f5bc}.cls-3{fill:#8cffe4}.cls-4{fill:none}.cls-5{fill:#e8f4fa}.cls-6{fill:#c0dceb}.cls-8{fill:#00dba8}</style></defs><path class="cls-1" d="M39.29 35.07l-.82-3.21-1.9.49.81 3.2a1 1 0 0 0 1.91-.48z"/><path class="cls-2" d="M33.68 8.77a9.58 9.58 0 0 1-1.34-3l-.54-2.14a1 1 0 0 0-1.25-.74l-.88.23a1 1 0 0 0-.74 1.24l.54 2.12a9.62 9.62 0 0 1 .27 3.29.46.46 0 0 0 .57.49l3.1-.79a.47.47 0 0 0 .27-.7z"/><path class="cls-3" d="M33.68 8.77a9.58 9.58 0 0 1-1.34-3l-.54-2.14a1 1 0 0 0-1.25-.74l-.88.23a1 1 0 0 0-.74 1.24l.2.8.61-.16a1 1 0 0 1 1.26.74l.54 2.12a9.93 9.93 0 0 0 .7 1.91l1.18-.3a.47.47 0 0 0 .26-.7z"/><path class="cls-4" d="M33.68 8.77a9.58 9.58 0 0 1-1.34-3l-.54-2.14a1 1 0 0 0-1.25-.74l-.88.23a1 1 0 0 0-.74 1.24l.54 2.12a9.62 9.62 0 0 1 .27 3.29.46.46 0 0 0 .57.49l3.1-.79a.47.47 0 0 0 .27-.7z"/><path class="cls-5" d="M38.23 30.91L32.81 9.62l-1.9.48 5.42 21.3a1 1 0 0 0 1.19.7 1 1 0 0 0 .71-1.19z"/><path class="cls-6" transform="rotate(-14.27 32.163 11.085)" d="M31.19 9.82h1.96v2.51h-1.96z"/><path class="cls-4" d="M37.52 32.1a1 1 0 0 1-1.19-.7l-5.42-21.3 1.9-.48 5.42 21.29a1 1 0 0 1-.71 1.19z"/><ellipse cx="24" cy="44.47" rx="11.76" ry="1.53" fill="#45413c" opacity=".15"/><path class="cls-8" d="M28.61 41.27a6.87 6.87 0 0 1-4.86-2.55L9.91 21.49a11.29 11.29 0 0 1-2-3.93 1.44 1.44 0 0 1 .7-1.67 1.45 1.45 0 0 1 1.91.5 16.09 16.09 0 0 0 1.65 2.19l16.38 18.47a2.47 2.47 0 0 0 2.14.8h.27A1.28 1.28 0 0 1 32 40a4.38 4.38 0 0 1-3.39 1.27z"/><path class="cls-2" d="M8.29 18.77a1.35 1.35 0 0 1 .27-.2 1.45 1.45 0 0 1 1.91.5 16.83 16.83 0 0 0 1.65 2.2l16.43 18.47a2.47 2.47 0 0 0 2.14.8 2 2 0 0 1 .69 0A4.78 4.78 0 0 0 32 40a1.28 1.28 0 0 0-1-2.18h-.27a2.47 2.47 0 0 1-2.14-.8L12.12 18.58a16.09 16.09 0 0 1-1.65-2.19 1.44 1.44 0 0 0-2.61 1.17 10.9 10.9 0 0 0 .43 1.21z"/><path class="cls-4" d="M28.61 41.27a6.87 6.87 0 0 1-4.86-2.55L9.91 21.49a11.29 11.29 0 0 1-2-3.93 1.44 1.44 0 0 1 .7-1.67 1.45 1.45 0 0 1 1.91.5 16.09 16.09 0 0 0 1.65 2.19l16.38 18.47a2.47 2.47 0 0 0 2.14.8h.27A1.28 1.28 0 0 1 32 40a4.38 4.38 0 0 1-3.39 1.27z"/><path class="cls-8" d="M38.44 33.29A6.84 6.84 0 0 1 33.1 32L15.4 18.8a11.39 11.39 0 0 1-3-3.3 1.44 1.44 0 0 1 .26-1.79 1.44 1.44 0 0 1 2 0 16.81 16.81 0 0 0 2.15 1.71l20.53 13.8a2.44 2.44 0 0 0 2.27.25l.25-.1a1.28 1.28 0 0 1 1.57 1.83 4.35 4.35 0 0 1-2.99 2.09z"/><path class="cls-2" d="M12.44 15.5l.2.32.06-.07a1.45 1.45 0 0 1 2 0 16.88 16.88 0 0 0 2.15 1.72l20.49 13.8a2.44 2.44 0 0 0 2.27.24l.25-.1a1.26 1.26 0 0 1 1.29.21c.1-.13.19-.28.28-.42a1.28 1.28 0 0 0-1.57-1.83l-.25.1a2.45 2.45 0 0 1-2.27-.25L16.82 15.43a16.81 16.81 0 0 1-2.15-1.71 1.44 1.44 0 0 0-2.23 1.78z"/><path class="cls-4" d="M38.44 33.29A6.84 6.84 0 0 1 33.1 32L15.4 18.8a11.39 11.39 0 0 1-3-3.3 1.44 1.44 0 0 1 .26-1.79 1.44 1.44 0 0 1 2 0 16.81 16.81 0 0 0 2.15 1.71l20.53 13.8a2.44 2.44 0 0 0 2.27.25l.25-.1a1.28 1.28 0 0 1 1.57 1.83 4.35 4.35 0 0 1-2.99 2.09z"/><path class="cls-1" d="M14.69 36.62L14 39.86a1 1 0 0 0 1.92.4l.69-3.26z"/><path class="cls-2" d="M22.46 14.17a9.89 9.89 0 0 1 .12-3.3L23 8.73a1 1 0 0 0-.79-1.21l-.89-.19a1 1 0 0 0-1.21.79l-.45 2.15a10 10 0 0 1-1.21 3.07.45.45 0 0 0 .3.68l3.13.66a.46.46 0 0 0 .58-.51z"/><path class="cls-3" d="M20.76 11.84l.45-2.15a1 1 0 0 1 1.21-.79L23 9v-.27a1 1 0 0 0-.79-1.21l-.89-.19a1 1 0 0 0-1.21.79l-.45 2.15a10 10 0 0 1-1.21 3.07.45.45 0 0 0 .3.68l1.13.24a9.55 9.55 0 0 0 .88-2.42z"/><path class="cls-4" d="M22.46 14.17a9.89 9.89 0 0 1 .12-3.3L23 8.73a1 1 0 0 0-.79-1.21l-.89-.19a1 1 0 0 0-1.21.79l-.45 2.15a10 10 0 0 1-1.21 3.07.45.45 0 0 0 .3.68l3.13.66a.46.46 0 0 0 .58-.51z"/><path class="cls-4" d="M20.14 8.12s-2.95 1.05-3.29 2.68a1.33 1.33 0 0 0 2.24 1.35"/><path class="cls-2" d="M18.74 37.34C18.52 38.4 17 39 15.27 38.61s-2.88-1.5-2.66-2.55 1.77-1.62 3.46-1.27 2.93 1.5 2.67 2.55z"/><path class="cls-3" d="M16.07 36.35a3.72 3.72 0 0 1 2.44 1.49 1.34 1.34 0 0 0 .23-.5c.22-1.05-1-2.19-2.67-2.55s-3.24.22-3.46 1.27a1.41 1.41 0 0 0 .22 1.06 3.27 3.27 0 0 1 3.24-.77z"/><path class="cls-4" d="M18.74 37.34C18.52 38.4 17 39 15.27 38.61s-2.88-1.5-2.66-2.55 1.77-1.62 3.46-1.27 2.93 1.5 2.67 2.55z"/><path class="cls-5" d="M19.39 14.15l-4.5 21.51a1 1 0 0 0 1.92.4l4.5-21.51z"/><path class="cls-6" transform="rotate(-78.18 20.068 15.68)" d="M18.71 14.7h2.72v1.96h-2.72z"/><path class="cls-4" d="M19.39 14.15l-4.5 21.51a1 1 0 0 0 1.92.4l4.5-21.51z"/></svg>