<svg xmlns="http://www.w3.org/2000/svg" viewBox="0 0 48 48"><g><path d="M31.5 41.5a1 1 0 0 0 1-1 1 1 0 0 0-.95-1c-5.95-.56-4.95-6.35-4.95-6.35a8.44 8.44 0 0 0 5.9 2.39c6 0 8.5-5.93 8.5-10.62C41 12.18 28.61 4.12 25 2a2 2 0 0 0-2 0C19.39 4.12 7 12.18 7 24.88c0 4.69 2.55 10.62 8.5 10.62a8.44 8.44 0 0 0 5.9-2.39s1 5.79-4.95 6.35a1 1 0 0 0-.95 1 1 1 0 0 0 1 1z" fill="#525252"/><ellipse cx="24" cy="45.5" rx="11.5" ry="1.5" fill="#45413c" opacity=".15"/><path d="M23 7a2 2 0 0 1 2 0c3.35 2 14.23 9 15.81 20.15a13.72 13.72 0 0 0 .19-2.27C41 12.18 28.62 4.13 25 2a2 2 0 0 0-2 0C19.38 4.13 7 12.18 7 24.88a13.72 13.72 0 0 0 .19 2.27C8.77 16 19.65 9 23 7z" fill="#656769"/><path d="M31.5 41.5a1 1 0 0 0 1-1 1 1 0 0 0-.95-1c-5.95-.56-4.95-6.35-4.95-6.35a8.44 8.44 0 0 0 5.9 2.39c6 0 8.5-5.93 8.5-10.62C41 12.18 28.61 4.12 25 2a2 2 0 0 0-2 0C19.39 4.12 7 12.18 7 24.88c0 4.69 2.55 10.62 8.5 10.62a8.44 8.44 0 0 0 5.9-2.39s1 5.79-4.95 6.35a1 1 0 0 0-.95 1 1 1 0 0 0 1 1z" fill="none" stroke="#45413c" stroke-linecap="round" stroke-linejoin="round"/></g></svg>