<svg xmlns="http://www.w3.org/2000/svg" viewBox="0 0 48 48"><g><ellipse cx="24" cy="45.5" rx="11.5" ry="1.5" fill="#45413c" opacity=".15"/><g><path d="M24 11.93a10 10 0 0 1 10-10c7 0 10 7 10 12.5C44 29 30.17 38.35 25.51 41.09a3 3 0 0 1-3 0C17.83 38.35 4 29 4 14.43 4 8.9 7 1.93 14 1.93a10 10 0 0 1 10 10z" fill="#ff6242"/><path d="M13.5 6.93a10.49 10.49 0 0 1 9.6 6.24 1 1 0 0 0 1.8 0 10.49 10.49 0 0 1 9.6-6.24c5 0 8.06 3.39 9.5 7.38 0-5.5-3-12.38-10-12.38a10 10 0 0 0-10 10 10 10 0 0 0-10-10c-6.95 0-10 6.88-10 12.38 1.44-3.99 4.5-7.38 9.5-7.38z" fill="#ff866e"/><path d="M24 11.93a10 10 0 0 1 10-10c7 0 10 7 10 12.5C44 29 30.17 38.35 25.51 41.09a3 3 0 0 1-3 0C17.83 38.35 4 29 4 14.43 4 8.9 7 1.93 14 1.93a10 10 0 0 1 10 10z" fill="none" stroke="#45413c" stroke-linecap="round" stroke-linejoin="round"/></g></g></svg>