<svg xmlns="http://www.w3.org/2000/svg" viewBox="0 0 48 48"><g><ellipse cx="24" cy="45.5" rx="11.5" ry="1.5" fill="#45413c" opacity=".15"/><g><path d="M23.2 42.1L9 23.26a1 1 0 0 1 0-1.2L23.2 3.21a1 1 0 0 1 1.6 0L39 22.06a1 1 0 0 1 0 1.2L24.8 42.1a1 1 0 0 1-1.6 0z" fill="#ff6242"/><path d="M10.39 25.16L23.2 8.21a1 1 0 0 1 1.6 0l12.81 17L39 23.26a1 1 0 0 0 0-1.2L24.8 3.21a1 1 0 0 0-1.6 0L9 22.06a1 1 0 0 0 0 1.2z" fill="#ff866e"/><path d="M23.2 42.1L9 23.26a1 1 0 0 1 0-1.2L23.2 3.21a1 1 0 0 1 1.6 0L39 22.06a1 1 0 0 1 0 1.2L24.8 42.1a1 1 0 0 1-1.6 0z" fill="none" stroke="#45413c" stroke-linecap="round" stroke-linejoin="round"/></g></g></svg>