<svg xmlns="http://www.w3.org/2000/svg" viewBox="0 0 48 48"><g><path d="M34.05 16.05a10.5 10.5 0 1 0-20.1 0 10.5 10.5 0 1 0 7.51 18.73 5.1 5.1 0 0 1-5 5.68 1 1 0 0 0-.95 1 1 1 0 0 0 1 1h15a1 1 0 0 0 1-1 1 1 0 0 0-.95-1 5.1 5.1 0 0 1-5-5.68 10.5 10.5 0 1 0 7.51-18.73z" fill="#525252"/><ellipse cx="24" cy="45.5" rx="11.5" ry="1.5" fill="#45413c" opacity=".15"/><path d="M24 7.5a10.5 10.5 0 0 1 10.2 8 10.31 10.31 0 0 0 .3-2.5 10.5 10.5 0 0 0-21 0 10.31 10.31 0 0 0 .3 2.5 10.5 10.5 0 0 1 10.2-8z" fill="#656769"/><path d="M34.05 16.05a10.5 10.5 0 1 0-20.1 0 10.5 10.5 0 1 0 7.51 18.73 5.1 5.1 0 0 1-5 5.68 1 1 0 0 0-.95 1 1 1 0 0 0 1 1h15a1 1 0 0 0 1-1 1 1 0 0 0-.95-1 5.1 5.1 0 0 1-5-5.68 10.5 10.5 0 1 0 7.51-18.73z" fill="none" stroke="#45413c" stroke-linecap="round" stroke-linejoin="round"/></g></svg>