<svg xmlns="http://www.w3.org/2000/svg" viewBox="0 0 48 48"><defs><style>.cls-1{fill:#e8f4fa}.cls-2{fill:#fff}.cls-3{fill:none;stroke:#45413c;stroke-linecap:round;stroke-linejoin:round}</style></defs><g><path class="cls-1" d="M10.09 21.25L4.23 24.1c-1.3.65-.18 5.59 1.8 9.61s5.22 7.93 6.52 7.29l5.85-2.88z"/><path class="cls-2" d="M10.09 21.25L4.23 24.1c-.76.38-.69 2.23-.1 4.51l7.71-3.8z"/><path class="cls-3" d="M10.09 21.25L4.23 24.1c-1.3.65-.18 5.59 1.8 9.61s5.22 7.93 6.52 7.29l5.85-2.88z"/><ellipse cx="24" cy="43.05" rx="16.86" ry="1.95" fill="#45413c" opacity=".15"/><path d="M34 40.3L17.46 6.73l-1.35-.81-6 15.2c-.38 1.61.93 5.95 2.56 9.27s4.28 7 5.79 7.69l15.78 4.49z" fill="#c0dceb"/><path class="cls-1" d="M20.74 13.39l-3.28-6.66-1.35-.81-6 15.2a10.12 10.12 0 0 0 .61 4.26z"/><path class="cls-3" d="M34 40.3L17.46 6.73l-1.35-.81-6 15.2c-.38 1.61.93 5.95 2.56 9.27s4.28 7 5.79 7.69l15.78 4.49z"/><path class="cls-1" d="M35.69 42.29c-4.1 2-11.55-4.72-16.64-15.06S13.16 6.88 17.26 4.86 28.81 9.58 33.9 19.92s5.89 20.35 1.79 22.37z"/><path class="cls-2" d="M17.26 8.26c4.1-2 11.55 4.73 16.64 15.06a41.87 41.87 0 0 1 4.33 14.16c.45-4.34-1-10.88-4.33-17.56C28.81 9.58 21.36 2.84 17.26 4.86c-2.08 1-2.9 4.09-2.54 8.21.28-2.38 1.09-4.07 2.54-4.81z"/><path class="cls-3" d="M35.69 42.29c-4.1 2-11.55-4.72-16.64-15.06S13.16 6.88 17.26 4.86 28.81 9.58 33.9 19.92s5.89 20.35 1.79 22.37z"/><path d="M34.55 40c-2.94 1.44-8.93-4.73-13.39-13.78s-5.69-17.57-2.76-19S27.33 11.9 31.78 21s5.7 17.53 2.77 19z" fill="#e0e0e0"/><path d="M18.4 12.28c2.93-1.44 8.93 4.73 13.38 13.79a44.1 44.1 0 0 1 4.1 12c.9-3.3-.61-10-4.1-17.11C27.33 11.9 21.33 5.73 18.4 7.18c-1.51.74-1.92 3.38-1.33 7a2.81 2.81 0 0 1 1.33-1.9z" fill="#f0f0f0"/><path class="cls-3" d="M34.55 40c-2.94 1.44-8.93-4.73-13.39-13.78s-5.69-17.57-2.76-19S27.33 11.9 31.78 21s5.7 17.53 2.77 19z"/><path class="cls-1" d="M25.19 24.21c-2-4.07-4.8-4.53-5.8-4a1 1 0 0 0-.48.78 57 57 0 0 0 2.25 5.24 55.16 55.16 0 0 0 2.78 5 1 1 0 0 0 .91.09c.99-.55 2.35-3.04.34-7.11z"/><path class="cls-2" d="M25.74 27.1a9.1 9.1 0 0 1 .49 1.14 8.75 8.75 0 0 0-1-4c-2-4.07-4.8-4.53-5.8-4a1 1 0 0 0-.48.78c.27.72.56 1.47.88 2.22 1.24-.46 4.05.07 5.91 3.86z"/><path class="cls-3" d="M25.19 24.21c-2-4.07-4.8-4.53-5.8-4a1 1 0 0 0-.48.78 57 57 0 0 0 2.25 5.24 55.16 55.16 0 0 0 2.78 5 1 1 0 0 0 .91.09c.99-.55 2.35-3.04.34-7.11z"/><path d="M44.53 43.29L6.47 5.24a1.62 1.62 0 0 0-2.3 2.29l38.06 38.06a1.63 1.63 0 0 0 2.3-2.3z" fill="#ff6242" stroke="#45413c" stroke-linecap="round" stroke-linejoin="round"/></g></svg>