<svg xmlns="http://www.w3.org/2000/svg" viewBox="0 0 48 48"><defs><style>.cls-5{stroke:#45413c;stroke-linecap:round;stroke-linejoin:round}.cls-3{fill:#ffe500}.cls-5{fill:none}.cls-6{fill:#ebcb00}</style></defs><g><ellipse cx="24" cy="45.01" rx="15.29" ry="1.99" fill="#45413c" opacity=".15"/><circle cx="24" cy="6.25" r="2.66" stroke="#45413c" stroke-linecap="round" stroke-linejoin="round" fill="#fff48c"/><path class="cls-3" d="M42.62 35.51c0-3.44-3.77-5.71-5.32-8.64s-.83-7.76-2.66-13.3S27.77 6.92 24 6.92 15.19 8 13.36 13.57s-1.11 10.36-2.66 13.3-5.32 5.2-5.32 8.64z"/><g><path d="M24 11.57c4.1 0 9.55 1.08 11.66 6.38a26.44 26.44 0 0 0-1-4.38C32.81 8 27.77 6.92 24 6.92S15.19 8 13.36 13.57a26.57 26.57 0 0 0-1 4.37c2.09-5.29 7.54-6.37 11.64-6.37z" fill="#fff48c"/></g><path class="cls-5" d="M42.62 35.51c0-3.44-3.77-5.71-5.32-8.64s-.83-7.76-2.66-13.3S27.77 6.92 24 6.92 15.19 8 13.36 13.57s-1.11 10.36-2.66 13.3-5.32 5.2-5.32 8.64z"/><ellipse class="cls-3" cx="24" cy="35.51" rx="18.62" ry="1.99"/><path class="cls-6" d="M24 33.52c-10.28 0-18.62.89-18.62 2 0 .36.91.71 2.5 1a102.44 102.44 0 0 1 16.12-1 102.44 102.44 0 0 1 16.12 1c1.59-.29 2.5-.64 2.5-1 0-1.11-8.34-2-18.62-2z"/><ellipse class="cls-5" cx="24" cy="35.51" rx="18.62" ry="1.99"/><path class="cls-3" d="M24 33.52h-3.46a4 4 0 1 0 6.92 0c-1.13.01-2.27 0-3.46 0z"/><path class="cls-6" d="M24 36.06h3.93a3.68 3.68 0 0 0 .06-.58 4 4 0 0 0-.53-2h-6.92a4 4 0 0 0-.53 2 3.68 3.68 0 0 0 .06.58c1.28.02 2.58 0 3.93 0z"/><path class="cls-5" d="M24 33.52h-3.46a4 4 0 1 0 6.92 0c-1.13.01-2.27 0-3.46 0z"/></g></svg>