<svg xmlns="http://www.w3.org/2000/svg" viewBox="0 0 48 48"><defs><style>.cls-5{stroke:#45413c;stroke-linecap:round;stroke-linejoin:round}.cls-3{fill:#ffe500}.cls-5{fill:none}.cls-6{fill:#ebcb00}</style></defs><ellipse cx="24" cy="45.21" rx="13.74" ry="1.79" fill="#45413c" opacity=".15"/><circle cx="24" cy="7.39" r="2.39" stroke="#45413c" stroke-linecap="round" stroke-linejoin="round" fill="#fff48c"/><path class="cls-3" d="M40.73 33.67c0-3.08-3.39-5.13-4.78-7.76s-.75-7-2.39-11.95S27.39 8 24 8s-7.92 1-9.56 6-1 9.31-2.39 12-4.78 4.68-4.78 7.76z"/><g><path d="M24 12.17c3.68 0 8.58 1 10.48 5.72a25.15 25.15 0 0 0-.92-3.89C31.92 9 27.39 8 24 8s-7.92 1-9.56 6a25.15 25.15 0 0 0-.92 3.93c1.9-4.79 6.8-5.76 10.48-5.76z" fill="#fff48c"/></g><path class="cls-5" d="M40.73 33.67c0-3.08-3.39-5.13-4.78-7.76s-.75-7-2.39-11.95S27.39 8 24 8s-7.92 1-9.56 6-1 9.31-2.39 12-4.78 4.68-4.78 7.76z"/><ellipse class="cls-3" cx="24" cy="33.67" rx="16.73" ry="1.79"/><path class="cls-6" d="M9.51 34.57a92 92 0 0 1 14.49-.9 92 92 0 0 1 14.49.9c1.42-.27 2.24-.57 2.24-.9 0-1-7.49-1.79-16.73-1.79s-16.73.8-16.73 1.79c0 .33.82.63 2.24.9z"/><ellipse class="cls-5" cx="24" cy="33.67" rx="16.73" ry="1.79"/><path class="cls-3" d="M24 31.88h-3.11a3.58 3.58 0 1 0 6.22 0c-1.01.01-2.04 0-3.11 0z"/><path class="cls-6" d="M24 34.17h3.53a3.17 3.17 0 0 0 0-.53 3.57 3.57 0 0 0-.47-1.75h-6.22a3.57 3.57 0 0 0-.47 1.75 3.17 3.17 0 0 0 0 .53c1.25.01 2.42 0 3.63 0z"/><path class="cls-5" d="M24 31.88h-3.11a3.58 3.58 0 1 0 6.22 0c-1.01.01-2.04 0-3.11 0z"/><path d="M43.28 38.89L8.22 3.83A1.5 1.5 0 1 0 6.1 5.94L41.16 41a1.5 1.5 0 0 0 2.12-2.11z" fill="#ff6242" stroke="#45413c" stroke-linecap="round" stroke-linejoin="round"/></svg>