<svg xmlns="http://www.w3.org/2000/svg" viewBox="0 0 48 48"><defs><style>.cls-2{fill:none;stroke:#45413c;stroke-linecap:round;stroke-linejoin:round}</style></defs><g><ellipse cx="25.98" cy="45.5" rx="11.5" ry="1.5" fill="#45413c" opacity=".15"/><path class="cls-2" d="M37 18.4c-10.78 2.5-10.59-.63-21.73.87C6.86 20.39 3.5 24.58 3.5 24.58l6.17 18.19s3.33-4.19 11.74-5.31c11.14-1.5 11 1.62 21.73-.88"/><path class="cls-2" d="M34.54 27.33a47.1 47.1 0 0 0 5.23-.87"/><path class="cls-2" d="M6.26 32.7c1.23-1.53 5.15-4.48 11.78-5.37"/><path class="cls-2" d="M34.84 32.38a39.86 39.86 0 0 0 6.68-1"/><path class="cls-2" d="M8 37.7c1.18-1.47 5-4.51 11.84-5.43"/><path class="cls-2" d="M4.76 28.28c1.7-2.12 5.84-4.71 11.9-5.52 11.15-1.5 11 1.62 21.73-.88"/><path d="M7 21.87a12.84 12.84 0 0 0-3.5 2.71l6.17 18.19a12.81 12.81 0 0 1 3.54-2.71z" fill="#656769" stroke="#45413c" stroke-linecap="round" stroke-linejoin="round"/><path d="M34.06 38.09a16.08 16.08 0 0 0-1-2.71 8.65 8.65 0 0 0 1.67-2.8c1.68-4.73-1.46-8.17-5.56-7.69a6.15 6.15 0 0 0-2.22.68c-.78-1.08-1.52-2.1-2.15-3a20.84 20.84 0 0 0 1.9-11.89c-.44-4.81-4.28-10.9-8.1-8.15C15.17 5 16 14 19.77 19.72a22.67 22.67 0 0 0-3.08 6.56c-2.24 7.16 2.3 11.4 6.37 12.56a10.12 10.12 0 0 0 8-1.67 28.24 28.24 0 0 1 .78 3c.21 1-.8 2.34-1.88 1.22-1.36-1.4-3.41-.66-3.46 1a3.27 3.27 0 0 0 4.16 3c2.88-.54 4.39-2.48 3.4-7.3zm-1.94-4.77C31.5 32.17 30.76 31 30 29.8c2.57-.27 3.7 1.39 2.12 3.52zM20.28 10.77c-.17-5.56 4.84-6.17 3.6.94A13.55 13.55 0 0 1 21.74 17a20.3 20.3 0 0 1-1.46-6.23zM22.59 35c-1.56-1.92-1.3-5 1-9.81l1.42 2a7.42 7.42 0 0 0-1.55 4.65c.09 2.66 3 3.23 3 3.23s.79-.86-.07-1.39-1-2.23.94-3.29c.26.35.53.71.82 1.08a17.75 17.75 0 0 1 2.15 3.72c-2.92 2.12-6.15 1.81-7.71-.19z" fill="#4acfff" stroke="#45413c" stroke-linecap="round" stroke-linejoin="round"/></g></svg>