<svg xmlns="http://www.w3.org/2000/svg" viewBox="0 0 48 48"><defs><style>.cls-3{fill:#4acfff}</style></defs><path d="M12.93 6.86a1 1 0 0 0-.93 1v21.8a5.94 5.94 0 0 0-4-.72 6 6 0 0 0 1.26 11.9A6.15 6.15 0 0 0 15 34.6V15.71l23-1.66v13.17a5.94 5.94 0 0 0-4-.72 6 6 0 0 0 1.26 11.91A6.17 6.17 0 0 0 41 32.17V5.91a1 1 0 0 0-1.07-1z" fill="#00b8f0"/><ellipse cx="24" cy="45.5" rx="12" ry="1.5" fill="#45413c" opacity=".15"/><path class="cls-3" d="M34 29.54a6 6 0 0 1 3.27.35.54.54 0 0 0 .75-.5v-2.17a5.94 5.94 0 0 0-4-.72 6 6 0 0 0-4.92 5 6.13 6.13 0 0 0 .13 2.39A6 6 0 0 1 34 29.54z"/><path class="cls-3" d="M8 32a6.06 6.06 0 0 1 3.27.36.52.52 0 0 0 .51-.06.54.54 0 0 0 .24-.45v-2.2a5.94 5.94 0 0 0-4-.72 6 6 0 0 0-4.79 7.42A6.06 6.06 0 0 1 8 32z"/><path class="cls-3" d="M39.93 4.92l-27 1.94a1 1 0 0 0-.93 1v3a1 1 0 0 1 .93-1l27-1.86A1 1 0 0 1 41 9V6a1 1 0 0 0-1.07-1.08z"/><path d="M12.93 6.86a1 1 0 0 0-.93 1v21.8a5.94 5.94 0 0 0-4-.72 6 6 0 0 0 1.26 11.9A6.15 6.15 0 0 0 15 34.6V15.71l23-1.66v13.17a5.94 5.94 0 0 0-4-.72 6 6 0 0 0 1.26 11.91A6.17 6.17 0 0 0 41 32.17V5.91a1 1 0 0 0-1.07-1z" fill="none" stroke="#45413c" stroke-linecap="round" stroke-linejoin="round"/></svg>