<svg xmlns="http://www.w3.org/2000/svg" viewBox="0 0 48 48"><defs><style>.cls-10,.cls-2,.cls-3,.cls-4,.cls-5{fill:none;stroke-linecap:round;stroke-linejoin:round}.cls-2{stroke:#48cf3e}.cls-3{stroke:#ff4064}.cls-4{stroke:#ffb700}.cls-5{stroke:#00aed9}.cls-10{stroke:#45413c}</style></defs><ellipse cx="14.43" cy="45.5" rx="9.43" ry="1.5" fill="#45413c" opacity=".15"/><g><path class="cls-2" d="M34.94 15.55a1.51 1.51 0 1 1-1.52-1.49 1.5 1.5 0 0 1 1.52 1.49z"/><path class="cls-2" d="M42.43 14a1.5 1.5 0 1 1-1.51-1.49A1.5 1.5 0 0 1 42.43 14z"/><path class="cls-2" d="M34.94 15.55l-.06-6.76 7.49-3.06.06 8.26"/></g><g><path class="cls-3" d="M33.27 44.66A1.64 1.64 0 1 1 31.62 43a1.63 1.63 0 0 1 1.65 1.66z"/><path class="cls-3" d="M33.27 44.66l-.05-7.36 2.47 1.61"/></g><g><path class="cls-4" d="M5.06 33.64a1.28 1.28 0 1 1-1.29-1.27 1.28 1.28 0 0 1 1.29 1.27z"/><path class="cls-4" d="M5.06 33.64l-.05-5.76 1.93 1.26"/></g><g><path class="cls-5" d="M27.79 2.31v-.58"/><path class="cls-5" d="M29.03 2.82l.41-.42"/><path class="cls-5" d="M29.55 4.05l.59-.01"/><path class="cls-5" d="M29.05 5.29l.42.41"/><path class="cls-5" d="M27.82 5.81l.01.58"/><path class="cls-5" d="M26.58 5.31l-.41.41"/><path class="cls-5" d="M26.06 4.08h-.58"/><path class="cls-5" d="M26.56 2.84l-.41-.41"/></g><g><path class="cls-5" d="M10.49 44.59l-.03-3.11"/><path class="cls-5" d="M8.92 43.05l3.11-.02"/></g><g><path class="cls-5" d="M40.22 26.38l-.02-3.11"/><path class="cls-5" d="M38.66 24.84l3.1-.02"/></g><g><path class="cls-5" d="M43.98 40.18l-.01-1.55"/><path class="cls-5" d="M43.2 39.41l1.55-.01"/></g><g><path class="cls-5" d="M4.56 3.07l-.01-1.55"/><path class="cls-5" d="M3.78 2.3l1.55-.01"/></g><g><path class="cls-5" d="M24.71 26.17l-.02-1.56"/><path class="cls-5" d="M23.92 25.4l1.56-.02"/></g><path d="M20.75 19.1a5.51 5.51 0 0 1-1.83.53l-5.06.54a1.86 1.86 0 0 0-1.47 2.67l9.49 19.28a2.23 2.23 0 0 1-1 3 2.15 2.15 0 0 1-2.89-1s-5.77-11.7-8.41-17a44 44 0 0 1-3.67-10.54 13.24 13.24 0 0 1 1-8.45 12.1 12.1 0 0 1 5.61-5.83 5.42 5.42 0 0 1 6.3 1.11 11.66 11.66 0 0 1 2.09 3l1.21 2.46a25.21 25.21 0 0 1 1.62 4.53 5.46 5.46 0 0 1-2.99 5.7z" fill="#e8f4fa"/><path d="M7.72 20.93a13.22 13.22 0 0 1 1-8.45 12 12 0 0 1 5.65-5.83 5.4 5.4 0 0 1 6.3 1.11 11.61 11.61 0 0 1 2.09 3l.6 1.24a26 26 0 0 0-1.24-3.17l-1.21-2.44a11.66 11.66 0 0 0-2.09-3 5.42 5.42 0 0 0-6.3-1.11 12.1 12.1 0 0 0-5.65 5.85 13.24 13.24 0 0 0-1 8.45 43.88 43.88 0 0 0 3.47 10.06 39.54 39.54 0 0 1-1.62-5.71z" fill="#fff"/><path d="M14.87 3.92a17.52 17.52 0 0 1 2.38 3.55l2.05 4.18a16 16 0 0 1 1.35 4 6.45 6.45 0 0 1-.28 3.62l.38-.17a5.46 5.46 0 0 0 3-5.72 25.21 25.21 0 0 0-1.62-4.53l-1.22-2.46a11.66 11.66 0 0 0-2.09-3 5.42 5.42 0 0 0-6.18-1.17 7.45 7.45 0 0 1 2.23 1.7z" fill="#c0dceb"/><path d="M14.87 3.92a15.56 15.56 0 0 1 1.6 2.18 5.37 5.37 0 0 1 4.16 1.66 11.61 11.61 0 0 1 2.09 3l.64 1.24a26 26 0 0 0-1.24-3.17l-1.21-2.44a11.66 11.66 0 0 0-2.09-3 5.42 5.42 0 0 0-6.18-1.17 7.45 7.45 0 0 1 2.23 1.7z" fill="#daedf7"/><path class="cls-10" d="M20.75 19.1a5.51 5.51 0 0 1-1.83.53l-5.06.54a1.86 1.86 0 0 0-1.47 2.67l9.49 19.28a2.23 2.23 0 0 1-1 3 2.15 2.15 0 0 1-2.89-1s-5.77-11.7-8.41-17a44 44 0 0 1-3.67-10.54 13.24 13.24 0 0 1 1-8.45 12.1 12.1 0 0 1 5.61-5.83 5.42 5.42 0 0 1 6.3 1.11 11.66 11.66 0 0 1 2.09 3l1.21 2.46a25.21 25.21 0 0 1 1.62 4.53 5.46 5.46 0 0 1-2.99 5.7z"/><path d="M21.88 42.12a2.23 2.23 0 0 1-1 3 2.15 2.15 0 0 1-2.89-1l-3.55-7.2L18.36 35z" stroke-miterlimit="10" stroke="#45413c" fill="#c0dceb"/><path class="cls-10" d="M14.87 3.92a17.52 17.52 0 0 1 2.38 3.55l2.05 4.18a16 16 0 0 1 1.35 4 6.45 6.45 0 0 1-.28 3.62l.38-.17a5.46 5.46 0 0 0 3-5.72 25.21 25.21 0 0 0-1.62-4.53l-1.22-2.46a11.66 11.66 0 0 0-2.09-3 5.42 5.42 0 0 0-6.18-1.17 7.45 7.45 0 0 1 2.23 1.7z"/></svg>