<svg xmlns="http://www.w3.org/2000/svg" viewBox="0 0 48 48"><defs><style>.cls-2{fill:#656769}.cls-2,.cls-5{stroke:#45413c;stroke-linecap:round;stroke-linejoin:round}.cls-3{fill:#ffe500}.cls-4{fill:#fff48c}.cls-5{fill:none}.cls-6{fill:#ebcb00}</style></defs><g><ellipse cx="21.33" cy="45.02" rx="15.2" ry="1.98" fill="#45413c" opacity=".15"/><path class="cls-2" transform="rotate(-9.63 36.936 7.894)" d="M35.11 6.04h3.63v3.72h-3.63z"/><path class="cls-3" d="M35 6.05c-1.81.6-5.17.51-8.06 6.11-2.77 5.39-8.24 20.67-8.24 20.67s.88-13 3.38-17.41-18.29 6.23-18.29 6.23A4.08 4.08 0 0 1 7.31 25c.79 3.29-3.92 11.29.69 16.33 5 5.42 13.14 4.33 15.94.17s4.15-12.25 6.29-20.82c2.07-8.24 4.09-10.1 5.46-10.5z"/><path class="cls-4" d="M35 6c-1.81.6-5.17.52-8 6.11-2.31 4.48-6.47 15.78-7.81 19.48v2.13c1.61-4.41 5.32-14.37 7.45-18.51 2.47-4.8 5.31-5.41 7.2-5.87a1.74 1.74 0 0 1 1.92.8z"/><path class="cls-5" d="M35 6.05c-1.81.6-5.17.51-8.06 6.11-2.77 5.39-8.24 20.67-8.24 20.67s.88-13 3.38-17.41-18.29 6.23-18.29 6.23A4.08 4.08 0 0 1 7.31 25c.79 3.29-3.92 11.29.69 16.33 5 5.42 13.14 4.33 15.94.17s4.15-12.25 6.29-20.82c2.07-8.24 4.09-10.1 5.46-10.5z"/><path class="cls-3" d="M20.92 34.71a3.81 3.81 0 1 1-3.35-4.21 3.81 3.81 0 0 1 3.35 4.21z"/><path class="cls-6" d="M17.33 32.52a3.81 3.81 0 0 1 3.32 3.19 4.1 4.1 0 0 0 .27-1 3.81 3.81 0 0 0-7.57-.86 3.55 3.55 0 0 0 0 1 3.78 3.78 0 0 1 3.98-2.33z"/><path class="cls-5" d="M20.92 34.71a3.81 3.81 0 1 1-3.35-4.21 3.81 3.81 0 0 1 3.35 4.21z"/><path class="cls-3" d="M21.53 26.48a4.47 4.47 0 1 1-3.94-4.95 4.48 4.48 0 0 1 3.94 4.95z"/><path class="cls-6" d="M17.3 24.12a4.44 4.44 0 0 1 3.86 3.63 4.46 4.46 0 1 0-8.52-2.28 4.39 4.39 0 0 0 .07 1.31 4.46 4.46 0 0 1 4.59-2.66z"/><path class="cls-5" d="M21.53 26.48a4.47 4.47 0 1 1-3.94-4.95 4.48 4.48 0 0 1 3.94 4.95z"/><path class="cls-5" d="M29.5 15.06l-4.79 18.87"/><path class="cls-3" d="M33.2 19.84A2.61 2.61 0 1 1 30.9 17a2.63 2.63 0 0 1 2.3 2.84z"/><path class="cls-6" d="M30.68 18.85a2.59 2.59 0 0 1 2.22 1.92 2.61 2.61 0 1 0-4.82-.55 2.6 2.6 0 0 1 2.6-1.37z"/><path class="cls-5" d="M33.2 19.84A2.61 2.61 0 1 1 30.9 17a2.63 2.63 0 0 1 2.3 2.84z"/><path class="cls-3" d="M31.44 26.77a2.61 2.61 0 1 1-2.3-2.89 2.61 2.61 0 0 1 2.3 2.89z"/><path class="cls-6" d="M28.9 26a2.59 2.59 0 0 1 2.18 1.8 2.61 2.61 0 1 0-4.83-1.63 2.48 2.48 0 0 0 .11 1.09A2.6 2.6 0 0 1 28.9 26z"/><path class="cls-5" d="M31.44 26.77a2.61 2.61 0 1 1-2.3-2.89 2.61 2.61 0 0 1 2.3 2.89z"/><path class="cls-5" d="M21.33 24.58l-2.43.76"/><path class="cls-5" d="M20.76 33.14l-2.08.74"/><path class="cls-3" d="M23.63 12.86a1.82 1.82 0 0 0-2.34-1.08l-18.6 6.9A1.81 1.81 0 1 0 4 22.08l18.61-6.89a1.81 1.81 0 0 0 1.02-2.33z"/><path class="cls-4" d="M1.78 21.34a1.79 1.79 0 0 1 .91-.75l18.6-6.89a1.83 1.83 0 0 1 2.18.75 1.84 1.84 0 0 0 .16-1.59 1.82 1.82 0 0 0-2.34-1.08l-18.6 6.9A1.82 1.82 0 0 0 1.61 21a1.71 1.71 0 0 0 .17.34z"/><path class="cls-5" d="M23.63 12.86a1.82 1.82 0 0 0-2.34-1.08l-18.6 6.9A1.81 1.81 0 1 0 4 22.08l18.61-6.89a1.81 1.81 0 0 0 1.02-2.33z"/><path class="cls-2" d="M45.45 8.82l-7 1.2-.86-5L41 4.41a1.29 1.29 0 0 1 .75.1l3.55 1.54a.67.67 0 0 1 .39.5l.31 1.5a.67.67 0 0 1-.55.77z"/><path fill="#ffe500" stroke="#45413c" stroke-linecap="round" stroke-linejoin="round" d="M40.41 4.52l.79 5.03-2.71.47L37.63 5l2.78-.48z"/></g></svg>