<svg xmlns="http://www.w3.org/2000/svg" viewBox="0 0 48 48"><defs><style>.cls-2{fill:#ffaa54}.cls-3{fill:#fc9}.cls-10,.cls-11,.cls-4,.cls-8,.cls-9{fill:none}.cls-4,.cls-7{stroke:#45413c}.cls-10,.cls-11,.cls-4,.cls-7,.cls-8,.cls-9{stroke-linecap:round;stroke-linejoin:round}.cls-7{fill:#fff}.cls-8{stroke:#48cf3e}.cls-9{stroke:#ff4064}.cls-10{stroke:#ffb700}.cls-11{stroke:#00aed9}</style></defs><g><ellipse cx="22.44" cy="45.5" rx="9.12" ry="1.5" fill="#45413c" opacity=".15"/><path class="cls-2" d="M24.29 21s-3.68-3-5.68-.21-.83 3.62-2.53 5.31-4.79 1.24-7.78 5.4 0 8.43 3.67 11.07c3.48 2.51 9 3.65 12-.43s.59-7.11 2.24-9.4 2.66-1.89 3.31-2.79a4.3 4.3 0 0 0 .3-2.52.36.36 0 0 0-.64-.19c-.55.68-1.44 1.48-2.22.86s-1-2.19.14-3.79l.62-.85z"/><g><path class="cls-3" d="M8.84 34.8c3-4.16 6.13-3.77 7.78-5.4s.53-2.53 2.53-5.3 5.68.21 5.68.21l1.62 1.16a4.75 4.75 0 0 1 .63-1.19l.62-.85L24.29 21s-3.68-3-5.68-.21-.83 3.62-2.53 5.31-4.79 1.24-7.78 5.4a5.88 5.88 0 0 0-.6 6.13 6 6 0 0 1 1.14-2.83z"/></g><path class="cls-4" d="M24.29 21s-3.68-3-5.68-.21-.83 3.62-2.53 5.31-4.79 1.24-7.78 5.4 0 8.43 3.67 11.07c3.48 2.51 9 3.65 12-.43s.59-7.11 2.24-9.4 2.66-1.89 3.31-2.79a4.3 4.3 0 0 0 .3-2.52.36.36 0 0 0-.64-.19c-.55.68-1.44 1.48-2.22.86s-1-2.19.14-3.79l.62-.85z"/><path fill="#f0d5a8" d="M32.71 10.2L15.07 33.76l3.83 2.76 16.79-24.17-2.98-2.15z"/><path fill="#f7e5c6" d="M34.2 11.28l-1.49-1.08-17.64 23.56 1.91 1.38L34.2 11.28z"/><path class="cls-4" d="M32.71 10.2L15.07 33.76l3.83 2.76 16.79-24.17-2.98-2.15z"/><path class="cls-2" d="M43.1 4.47a1.91 1.91 0 0 1-.54 2.23l-6.87 5.65-3-2.15.71-3.39a2.74 2.74 0 0 1 2-2.09l5.44-1.35a1.91 1.91 0 0 1 2.26 1.1z"/><path class="cls-3" d="M43.1 4.47a1.91 1.91 0 0 0-2.22-1.1l-5.44 1.35a2.74 2.74 0 0 0-2 2.09l-.71 3.39.75.54.34-1.61a2.73 2.73 0 0 1 2-2.09l5.44-1.35a1.93 1.93 0 0 1 1.74.45 1.92 1.92 0 0 0 .1-1.67z"/><path class="cls-4" d="M43.1 4.47a1.91 1.91 0 0 0-2.22-1.1l-5.44 1.35a2.74 2.74 0 0 0-2 2.09l-.71 3.39 3 2.15 6.83-5.65a1.91 1.91 0 0 0 .54-2.23z"/><path class="cls-7" transform="rotate(35.81 16.21 36.209)" d="M13.85 34.89h4.73v2.63h-4.73z"/><path class="cls-7" d="M17.79 39l-4.26-3.07a1 1 0 1 0-1.23 1.7l4.26 3.08A1.05 1.05 0 1 0 17.79 39z"/><path class="cls-4" d="M36.43 8.19L15.45 37.27"/><path class="cls-7" d="M24.63 27.69l-3-2.15a1.05 1.05 0 0 0-1.23 1.71l3 2.15a1.05 1.05 0 0 0 1.23-1.71z"/><path class="cls-4" d="M36.02 7.4l2.18 4.17"/><path class="cls-4" d="M38.84 6.2l1.91 3.64"/><g><path class="cls-8" d="M38.84 23.86a1.27 1.27 0 0 1-2.53 0 1.27 1.27 0 1 1 2.53 0z"/><path class="cls-8" d="M45.18 22.59a1.27 1.27 0 1 1-1.27-1.27 1.27 1.27 0 0 1 1.27 1.27z"/><path class="cls-8" d="M38.84 23.86v-5.7l6.34-2.54v6.97"/></g><g><path class="cls-9" d="M36.62 44.38A1.68 1.68 0 1 1 35 42.71a1.68 1.68 0 0 1 1.62 1.67z"/><path class="cls-9" d="M36.62 44.38v-7.52l2.51 1.67"/></g><g><path class="cls-10" d="M10.15 14.28a1.51 1.51 0 1 1-1.51-1.52 1.51 1.51 0 0 1 1.51 1.52z"/><path class="cls-10" d="M10.15 14.28V7.46l2.27 1.52"/></g><g><path class="cls-11" d="M24.06 5.68v-.6"/><path class="cls-11" d="M25.33 6.2l.42-.42"/><path class="cls-11" d="M25.85 7.46h.59"/><path class="cls-11" d="M25.33 8.73l.42.42"/><path class="cls-11" d="M24.06 9.25v.59"/><path class="cls-11" d="M22.8 8.73l-.42.42"/><path class="cls-11" d="M22.28 7.46h-.6"/><path class="cls-11" d="M22.8 6.2l-.42-.42"/></g><g><path class="cls-11" d="M4.62 23.41v-3.18"/><path class="cls-11" d="M3.03 21.82h3.18"/></g><g><path class="cls-11" d="M43.91 32.29v-3.17"/><path class="cls-11" d="M42.33 30.7h3.17"/></g><g><path class="cls-11" d="M33.27 34.71v-1.58"/><path class="cls-11" d="M32.48 33.92h1.59"/></g><g><path class="cls-11" d="M20.85 15.62v-1.59"/><path class="cls-11" d="M20.06 14.83h1.59"/></g><g><path class="cls-11" d="M3.83 41.41v-1.58"/><path class="cls-11" d="M3.03 40.62h1.59"/></g></g></svg>