<svg xmlns="http://www.w3.org/2000/svg" viewBox="0 0 48 48"><defs><style>.cls-2{fill:#dea47a}.cls-3{fill:#f0c2a1}.cls-4,.cls-5{fill:none;stroke:#45413c;stroke-linecap:round;stroke-linejoin:round}.cls-5{fill:#87898c}</style></defs><g><ellipse cx="13.93" cy="45.35" rx="12.68" ry="1.65" fill="#45413c" opacity=".15"/><path class="cls-2" d="M19.62 35.39c-1.4-.51-1.21-2.46-.61-3.85s1.74-2.53 2.8-2.34a7.11 7.11 0 0 0 1.73-2.91c1.2-2.8-1.16-6.5-4.8-8.07s-7.95-.74-9.15 2.06a7.1 7.1 0 0 0-.94 3.25c.88.64.89 2.13.23 3.65S7 30.05 5.67 29.38A8.58 8.58 0 0 0 2 33.8C.4 37.43 1 41.2 7.62 44s9.77.71 11.33-2.93a8.59 8.59 0 0 0 .67-5.68z"/><g><path class="cls-3" d="M2.22 36.94a8.58 8.58 0 0 1 3.71-4.42c1.33.67 2.62-.83 3.22-2.2s.63-2.85-.12-3.53a3.12 3.12 0 0 1-.15.39C8.27 28.6 7 30 5.67 29.38A8.58 8.58 0 0 0 2 33.8a6.68 6.68 0 0 0-.34 5.1 9.18 9.18 0 0 1 .56-1.96z"/><path class="cls-3" d="M9.85 23.42c1.2-2.8 5.52-3.62 9.15-2.06a8.87 8.87 0 0 1 4.68 4.51c.82-2.74-1.48-6.16-4.94-7.65-3.63-1.56-7.95-.74-9.15 2.06a7.1 7.1 0 0 0-.94 3.25 1.72 1.72 0 0 1 .65 1.15c.18-.46.39-.89.55-1.26z"/></g><path class="cls-4" d="M19.62 35.39c-1.4-.51-1.21-2.46-.61-3.85s1.74-2.53 2.8-2.34a7.11 7.11 0 0 0 1.73-2.91c1.2-2.8-1.16-6.5-4.8-8.07s-7.95-.74-9.15 2.06a7.1 7.1 0 0 0-.94 3.25c.88.64.89 2.13.23 3.65S7 30.05 5.67 29.38A8.58 8.58 0 0 0 2 33.8C.4 37.43 1 41.2 7.62 44s9.77.71 11.33-2.93a8.59 8.59 0 0 0 .67-5.68z"/><path class="cls-5" d="M13.28 35.07l-3.03-1.31L22.53 6.65l2.02.87-11.27 27.55z"/><rect class="cls-3" x="20.02" y="5.39" width="6.61" height="4.41" rx=".5" ry=".5" transform="rotate(23.31 23.326 7.597)"/><path class="cls-2" d="M23.19 6H26a.5.5 0 0 1 .5.5V10a.5.5 0 0 1-.5.5h-2.81V6z" transform="rotate(23.31 24.849 8.243)"/><rect class="cls-4" x="20.02" y="5.39" width="6.61" height="4.41" rx=".5" ry=".5" transform="rotate(23.31 23.326 7.597)"/><path d="M22.72 3.74h1.2a.5.5 0 0 1 .5.5v7.22h-2.2V4.24a.5.5 0 0 1 .5-.5z" transform="rotate(23.31 23.326 7.597)" stroke="#45413c" stroke-linecap="round" stroke-linejoin="round" fill="#dea47a"/><path class="cls-5" d="M8.63 44.47l-2.02-.87 1.46-4.77 3.03 1.3-2.47 4.34z"/><path transform="rotate(23.31 10.678 36.943)" stroke="#45413c" stroke-linecap="round" stroke-linejoin="round" fill="#f0c2a1" d="M9.02 34.19h3.31v5.51H9.02z"/><path class="cls-2" d="M46.28 16.33a1.11 1.11 0 0 0-.22-1.55l-1.75-1.33a1.11 1.11 0 0 0-1.55.21l-13 17.12 1.76 1.34 11.67-15.37 1.75 1.33z"/><path class="cls-3" d="M41.58 17.21l1.33-1.75a1.1 1.1 0 0 1 1.55-.21l.87.66.8.61.15-.19a1.11 1.11 0 0 0-.22-1.55l-.87-.66-.88-.67a1.11 1.11 0 0 0-1.55.21l-1.33 1.76-11.66 15.36 1 .73z"/><path class="cls-4" d="M46.28 16.33a1.11 1.11 0 0 0-.22-1.55l-1.75-1.33a1.11 1.11 0 0 0-1.55.21l-13 17.12 1.76 1.34 11.67-15.37 1.75 1.33z"/><path d="M29.77 30.78l-3.67 4.83a1.1 1.1 0 1 0 1.76 1.33l1.33-1.75.88.67a1.11 1.11 0 0 0 1.55-.22l1.66-2.19z" fill="#87898c"/><path d="M29.19 35.19l.11.08.59-.78 1.66-2.2 1.66 1.26.07-.1-3.51-2.67L28.1 33l-.66.88-1.34 1.73a1.1 1.1 0 1 0 1.76 1.33z" fill="#bdbec0"/><path class="cls-4" d="M29.77 30.78l-3.67 4.83a1.1 1.1 0 1 0 1.76 1.33l1.33-1.75.88.67a1.11 1.11 0 0 0 1.55-.22l1.66-2.19z"/><path class="cls-4" d="M44.94 18.08L33.28 33.45"/><path class="cls-4" d="M17.47 37.37c-.76-.33-1.55.83-2.06 2s-1.41 2.51-2.34 2.11"/><path class="cls-4" d="M5.64 32.33c.76.33.48 1.7 0 2.89s-.84 2.78.08 3.14"/></g></svg>