<svg xmlns="http://www.w3.org/2000/svg" viewBox="0 0 48 48"><defs><style>.cls-1{fill:#ff6242}.cls-3{fill:none}.cls-3,.cls-5,.cls-7,.cls-8{stroke:#45413c;stroke-linejoin:round}.cls-3,.cls-5,.cls-7{stroke-linecap:round}.cls-4{fill:#ff866e}.cls-5{fill:#e04122}.cls-7{fill:#fff5e3}.cls-8{fill:#fff}</style></defs><path class="cls-1" d="M44.14 25.11a7.55 7.55 0 0 0-1.69-8.2A12.61 12.61 0 0 0 37.74 14a53.7 53.7 0 0 0-8.67-2.18 54.48 54.48 0 0 0-8.9-.92 12.85 12.85 0 0 0-5.43 1.1 7.56 7.56 0 0 0-4.39 7.13A1.21 1.21 0 0 0 12 20.25l4.23-1.51A1.39 1.39 0 0 0 17 17l-.37-1a.93.93 0 0 1 .86-1.25 60.3 60.3 0 0 1 10.9.76 60.49 60.49 0 0 1 10.51 3 .93.93 0 0 1 .38 1.47l-.7.84a1.38 1.38 0 0 0 .18 1.95l3.45 2.86a1.21 1.21 0 0 0 1.93-.52z"/><ellipse cx="27.52" cy="45.5" rx="14.5" ry="1.5" fill="#45413c" opacity=".15"/><path class="cls-1" d="M13.37 35.66h28v6.07a.93.93 0 0 1-.93.93H14.3a.93.93 0 0 1-.93-.93v-6.07z"/><path class="cls-3" d="M13.37 35.66h28v6.07a.93.93 0 0 1-.93.93H14.3a.93.93 0 0 1-.93-.93v-6.07z"/><path class="cls-1" d="M41.37 35.66h-28l4-12.42a.93.93 0 0 1 .89-.64h18.23a.93.93 0 0 1 .89.64z"/><path class="cls-4" d="M16.73 26.33H38a1.16 1.16 0 0 1 .38.06l-1-3.15a.93.93 0 0 0-.89-.64H18.25a.93.93 0 0 0-.89.64l-1 3.15a1.21 1.21 0 0 1 .37-.06z"/><path class="cls-3" d="M41.37 35.66h-28l4-12.42a.93.93 0 0 1 .89-.64h18.23a.93.93 0 0 1 .89.64z"/><path class="cls-5" d="M18.97 20.26h4.2v2.33h-4.2z"/><path class="cls-5" d="M31.57 20.26h4.2v2.33h-4.2z"/><path class="cls-4" d="M14.44 13.78a12.92 12.92 0 0 1 5.44-1.17 54.48 54.48 0 0 1 8.9.92 54 54 0 0 1 8.67 2.18 12.69 12.69 0 0 1 4.71 2.95 7.53 7.53 0 0 1 2.23 5.72 7.54 7.54 0 0 0-1.94-7.47A12.61 12.61 0 0 0 37.74 14a53.7 53.7 0 0 0-8.67-2.18 54.48 54.48 0 0 0-8.9-.92 12.85 12.85 0 0 0-5.43 1.1 7.53 7.53 0 0 0-4.38 6.49 7.53 7.53 0 0 1 4.08-4.71z"/><path class="cls-3" d="M44.14 25.11a7.55 7.55 0 0 0-1.69-8.2A12.61 12.61 0 0 0 37.74 14a53.7 53.7 0 0 0-8.67-2.18 54.48 54.48 0 0 0-8.9-.92 12.85 12.85 0 0 0-5.43 1.1 7.56 7.56 0 0 0-4.39 7.13A1.21 1.21 0 0 0 12 20.25l4.23-1.51A1.39 1.39 0 0 0 17 17l-.37-1a.93.93 0 0 1 .86-1.25 60.3 60.3 0 0 1 10.9.76 60.49 60.49 0 0 1 10.51 3 .93.93 0 0 1 .38 1.47l-.7.84a1.38 1.38 0 0 0 .18 1.95l3.45 2.86a1.21 1.21 0 0 0 1.93-.52z"/><path d="M14.3 42.67h26.14v1.4a.93.93 0 0 1-.93.93H15.23a.93.93 0 0 1-.93-.93v-1.4z" fill="#8ca4b8" stroke-linecap="round" stroke="#45413c" stroke-linejoin="round"/><path class="cls-7" d="M23.17 32.86a.94.94 0 0 1-.93.94H19a.94.94 0 0 1 0-1.87h3.27a.93.93 0 0 1 .9.93z"/><path class="cls-7" d="M36.71 32.86a.94.94 0 0 1-.94.94h-3.26a.94.94 0 1 1 0-1.87h3.26a.94.94 0 0 1 .94.93z"/><path class="cls-7" d="M23.17 29.13a.93.93 0 0 1-.93.93H19.9a.93.93 0 0 1 0-1.86h2.34a.93.93 0 0 1 .93.93z"/><path class="cls-7" d="M35.77 29.13a.93.93 0 0 1-.93.93h-2.33a.93.93 0 1 1 0-1.86h2.33a.93.93 0 0 1 .93.93z"/><path class="cls-7" d="M23.64 25.4a.94.94 0 0 1-.94.93h-1.86a.94.94 0 1 1 0-1.87h1.86a.94.94 0 0 1 .94.94z"/><path class="cls-7" d="M29.24 25.4a.94.94 0 0 1-.94.93h-1.86a.94.94 0 1 1 0-1.87h1.86a.94.94 0 0 1 .94.94z"/><path class="cls-8" d="M13.35 2.55a.32.32 0 0 1 .3 0 .33.33 0 0 1 .16.25l.41 4.45a.35.35 0 0 1-.22.35.34.34 0 0 1-.39-.13l-2.43-3.66a.35.35 0 0 1 0-.28.32.32 0 0 1 .2-.21z"/><path class="cls-8" d="M21.12 2.49a.31.31 0 0 1 .22.2.3.3 0 0 1 0 .29L19 6.78a.34.34 0 0 1-.62-.2l.3-4.4a.38.38 0 0 1 .14-.26.36.36 0 0 1 .29 0z"/><path class="cls-8" d="M5.76 7.45a.37.37 0 0 0-.1.28.35.35 0 0 0 .17.27l3.88 2.21a.35.35 0 0 0 .41-.06.33.33 0 0 0 0-.41L7.8 6a.33.33 0 0 0-.24-.15.33.33 0 0 0-.27.09z"/><path class="cls-8" d="M2.5 14.5a.35.35 0 0 0 .1.29.32.32 0 0 0 .28.09l4.43-.59A.34.34 0 0 0 7.6 14a.35.35 0 0 0-.22-.35l-4.13-1.54a.33.33 0 0 0-.29 0 .31.31 0 0 0-.16.24z"/><path class="cls-7" d="M34.84 25.4a.93.93 0 0 1-.93.93H32a.94.94 0 1 1 0-1.87h1.87a.94.94 0 0 1 .97.94z"/><path class="cls-7" d="M29.7 29.13a.92.92 0 0 1-.93.93H26a.93.93 0 0 1 0-1.86h2.8a.92.92 0 0 1 .9.93z"/><path class="cls-7" d="M29.7 32.86a.93.93 0 0 1-.93.94H26a.94.94 0 0 1 0-1.87h2.8a.93.93 0 0 1 .9.93z"/></svg>