<svg xmlns="http://www.w3.org/2000/svg" viewBox="0 0 48 48"><defs><style>.cls-3{fill:none}.cls-11,.cls-3,.cls-5{stroke:#45413c;stroke-linecap:round;stroke-linejoin:round}.cls-5{fill:#87898c}.cls-7{fill:#fffef2}.cls-8{fill:#fffacf}.cls-11{fill:#9ceb60}</style></defs><g><path d="M44.66 32.18L42.23 15a1.33 1.33 0 0 0-1.32-1.14H6.41A1.33 1.33 0 0 0 5.09 15L2.66 32.18a15.89 15.89 0 0 0-.16 2.28v2.07a4 4 0 0 0 4 4h34.3a4 4 0 0 0 4-4v-2.07a15.89 15.89 0 0 0-.14-2.28z" fill="#f0f0f0"/><path d="M44.64 32.05a4 4 0 0 1-3.83 2.83H6.51a4 4 0 0 1-3.83-2.83v.13a15.89 15.89 0 0 0-.16 2.28v2.07a4 4 0 0 0 4 4h34.3a4 4 0 0 0 4-4v-2.07a15.89 15.89 0 0 0-.16-2.28z" fill="#e0e0e0"/><path class="cls-3" d="M5.09 15L2.66 32.18a15.89 15.89 0 0 0-.16 2.28v2.07a4 4 0 0 0 4 4h34.3a4 4 0 0 0 4-4v-2.07a15.89 15.89 0 0 0-.16-2.28L42.23 15a1.33 1.33 0 0 0-1.32-1.14H6.41A1.33 1.33 0 0 0 5.09 15z"/><ellipse cx="24.84" cy="41.41" rx="21.91" ry="1.99" fill="#45413c" opacity=".15"/><path class="cls-5" d="M40.26 29.81H15.11a.67.67 0 0 1-.66-.73l1.09-11.29a.67.67 0 0 1 .66-.6h22.57a.66.66 0 0 1 .66.58l1.49 11.29a.67.67 0 0 1-.66.75z"/><path class="cls-5" d="M15.58 37.08h23.35a1.2 1.2 0 0 1 1.2 1.2v2.27H14.38v-2.27a1.2 1.2 0 0 1 1.2-1.2z"/><path d="M15.38 8.81H38.8a1.33 1.33 0 0 1 1.33 1.33v3.74H14.05v-3.75a1.33 1.33 0 0 1 1.33-1.32z" stroke="#45413c" stroke-linecap="round" stroke-linejoin="round" fill="#e0e0e0"/><path class="cls-7" d="M16.55 4.16h21.07v9.71H16.55z"/><path class="cls-8" d="M16.55 11.34h21.07v2.53H16.55z"/><path class="cls-3" d="M16.55 4.16h21.07v9.71H16.55z"/><path class="cls-7" d="M36.93 37.08H17.25l-1.53 8.42h22.74l-1.53-8.42z"/><path class="cls-8" d="M37.46 40.01l-.53-2.93H17.25l-.53 2.93h20.74z"/><path class="cls-3" d="M36.93 37.08H17.25l-1.53 8.42h22.74l-1.53-8.42z"/><path d="M8.37 34.57h-3a2.11 2.11 0 0 1-2.1-1.88l-.38-3.48 8-2.8-.49 6.21a2.11 2.11 0 0 1-2.03 1.95z" fill="#bdbec0" stroke="#45413c" stroke-linecap="round" stroke-linejoin="round"/><path d="M10 12.21H6.92A1.9 1.9 0 0 0 5 13.78L3.15 26.17a20.64 20.64 0 0 0-.23 3 2.25 2.25 0 0 0 2.3 2.2H7.9a2.82 2.82 0 0 0 2.87-2.55l1.14-14.68A1.88 1.88 0 0 0 10 12.21z" stroke="#45413c" stroke-linecap="round" stroke-linejoin="round" fill="#f0f0f0"/><path class="cls-11" d="M36.74 21.78h-9.05V19.4h8.77l.28 2.38z"/><path class="cls-3" d="M27.94 24h2.16"/><path class="cls-3" d="M27.94 25.91h2.16"/><path class="cls-3" d="M27.94 27.79h2.16"/><path class="cls-3" d="M31.84 24h1.79"/><path class="cls-3" d="M31.92 25.91h2.01"/><path class="cls-3" d="M31.84 27.79H34"/><path class="cls-3" d="M35.81 24h1.82"/><path class="cls-3" d="M35.81 25.91h1.98"/><path class="cls-3" d="M35.81 27.79h2.16"/><circle cx="20.36" cy="21.34" r="1.33" fill="#ff6242" stroke="#45413c" stroke-linecap="round" stroke-linejoin="round"/><circle class="cls-11" cx="20.11" cy="25.91" r="1.33"/></g></svg>