<svg xmlns="http://www.w3.org/2000/svg" viewBox="0 0 48 48"><defs><style>.cls-2{fill:#bdbec0}.cls-3{fill:#e0e0e0}.cls-4{fill:none}.cls-4,.cls-7{stroke:#45413c;stroke-linecap:round;stroke-linejoin:round}.cls-5{fill:#87898c}.cls-6{fill:#656769}.cls-7{fill:#e8f4fa}</style></defs><g><ellipse cx="24" cy="45.5" rx="14" ry="1.5" fill="#45413c" opacity=".15"/><path class="cls-2" d="M16 3L9.29 15.61a1 1 0 0 1-1.21.48l-1-.33a1 1 0 0 1-.56-1.42l6.91-12.9A1 1 0 0 1 15 1.11l.81.62A1 1 0 0 1 16 3z"/><path class="cls-3" d="M15.77 1.73L15 1.11a1 1 0 0 0-1.49.33l-1.29 2.4a1 1 0 0 1 1.45-.16l.81.6a.91.91 0 0 1 .4 1L16 3a1 1 0 0 0-.23-1.27z"/><path class="cls-4" d="M16 3L9.29 15.61a1 1 0 0 1-1.21.48l-1-.33a1 1 0 0 1-.56-1.42l6.91-12.9A1 1 0 0 1 15 1.11l.81.62A1 1 0 0 1 16 3z"/><path class="cls-5" d="M9.36 15.48l6.92 3.7a5.46 5.46 0 0 0 2.16.64l2.65.23 5.19-9.7-1.66-2.07a5.55 5.55 0 0 0-1.73-1.44L16 3.13z"/><path class="cls-2" d="M21.58 9.27a7 7 0 0 1 1.78 1.36l1.75 1.9 1.17-2.18-1.66-2.07a5.55 5.55 0 0 0-1.73-1.44L16 3.13 9.36 15.48l5.3-9.91z"/><path class="cls-4" d="M9.36 15.48l6.92 3.7a5.46 5.46 0 0 0 2.16.64l2.65.23 5.19-9.7-1.66-2.07a5.55 5.55 0 0 0-1.73-1.44L16 3.13z"/><path class="cls-2" d="M19.29 14.54h11V16a1 1 0 0 1-1 1h-9a1 1 0 0 1-1-1v-1.5.04z" transform="rotate(-61.85 24.782 15.788)"/><path class="cls-3" d="M27.6 11.06l-1.32-.71-.82 1.52 1.39.75a.92.92 0 0 1 .38 1.25l.77-1.46a1 1 0 0 0-.4-1.35z"/><path class="cls-4" d="M19.29 14.54h11V16a1 1 0 0 1-1 1h-9a1 1 0 0 1-1-1v-1.5.04z" transform="rotate(-61.85 24.782 15.788)"/><path class="cls-5" d="M24 19.91a3.64 3.64 0 0 1 3.8-.24l1.11.6 1.89-3.53-1.12-.6a3.64 3.64 0 0 1-1.91-3.29z"/><path class="cls-2" d="M29.68 16.14a3.64 3.64 0 0 1-1.91-3.29L26.62 15a4 4 0 0 0 2.2 2.75l1.11.6.87-1.62z"/><path class="cls-4" d="M24 19.91a3.64 3.64 0 0 1 3.8-.24l1.11.6 1.89-3.53-1.12-.6a3.64 3.64 0 0 1-1.91-3.29z"/><path class="cls-6" d="M19.69 30.08a3.5 3.5 0 0 1 4.74-1.44l9.26 5a6.5 6.5 0 0 0 6.13-11.46l-9.26-5-1.41 2.65 9.26 5A3.5 3.5 0 0 1 35.1 31l-9.26-5a6.5 6.5 0 0 0-6.13 11.46L33.82 45a1 1 0 0 0 1.35-.41l.47-.88a1 1 0 0 0-.41-1.35l-14.1-7.55a3.51 3.51 0 0 1-1.44-4.73z"/><path class="cls-5" d="M35.23 42.37l-14.1-7.55a3.51 3.51 0 0 1-1.71-4.08 3.54 3.54 0 0 0-.35.51A3.5 3.5 0 0 0 20.51 36l14.11 7.55a1 1 0 0 1 .46 1.17.87.87 0 0 0 .09-.11l.47-.88a1 1 0 0 0-.41-1.36zM25.23 27.18l9.25 5a3.5 3.5 0 0 0 4.74-1.44 2.8 2.8 0 0 0 .27-.65 3.5 3.5 0 0 1-4.39.91l-9.26-5a6.5 6.5 0 0 0-8.79 2.66 4.71 4.71 0 0 0-.3.65 6.49 6.49 0 0 1 8.48-2.13zM39.82 22.14l-9.26-5-.62 1.17 9.26 5a6.51 6.51 0 0 1 3 8.15 4.6 4.6 0 0 0 .31-.53 6.48 6.48 0 0 0-2.69-8.79z"/><path class="cls-4" d="M19.69 30.08a3.5 3.5 0 0 1 4.74-1.44l9.26 5a6.5 6.5 0 0 0 6.13-11.46l-9.26-5-1.41 2.65 9.26 5A3.5 3.5 0 0 1 35.1 31l-9.26-5a6.5 6.5 0 0 0-6.13 11.46L33.82 45a1 1 0 0 0 1.35-.41l.47-.88a1 1 0 0 0-.41-1.35l-14.1-7.55a3.51 3.51 0 0 1-1.44-4.73z"/><path class="cls-7" d="M2.67 6.79a1 1 0 0 0-1.36.41 1 1 0 0 0 .41 1.35l6.17 3.31 1-1.77zM6 .62a1 1 0 1 0-1 1.76l6.18 3.3.94-1.76z"/><path class="cls-6" d="M19.16 8.81l-1.32-.7a1 1 0 0 0-1.35.41l-2.36 4.4a1 1 0 0 0 .41 1.36l1.32.71a3.5 3.5 0 0 0 3.3-6.18z"/><path d="M19.16 8.81l-1.32-.7a1 1 0 0 0-1.35.41l-.71 1.31a.75.75 0 0 1 1-.31l2.31 1.23a2.62 2.62 0 0 1 1.24 3.16 2.9 2.9 0 0 0 .25-.36 3.51 3.51 0 0 0-1.42-4.74z" fill="#525252"/><path class="cls-4" d="M19.16 8.81l-1.32-.7a1 1 0 0 0-1.35.41l-2.36 4.4a1 1 0 0 0 .41 1.36l1.32.71a3.5 3.5 0 0 0 3.3-6.18z"/></g></svg>