<svg xmlns="http://www.w3.org/2000/svg" viewBox="0 0 48 48"><defs><style>.cls-4{fill:none;stroke:#45413c;stroke-linecap:round;stroke-linejoin:round}</style></defs><ellipse cx="24" cy="44.57" rx="21.08" ry="2.43" fill="#45413c" opacity=".15"/><path d="M4 5.62v36.76A1.61 1.61 0 0 0 5.64 44H42.4a1.61 1.61 0 0 0 1.6-1.62V12.53a3.23 3.23 0 0 0-1-2.29L37.78 5a3.25 3.25 0 0 0-2.3-1H5.64A1.61 1.61 0 0 0 4 5.62z" fill="#656769"/><path d="M43.07 10.24L37.78 5a3.25 3.25 0 0 0-2.3-1H5.64A1.61 1.61 0 0 0 4 5.62v4.46a1.61 1.61 0 0 1 1.64-1.62h29.84a3.25 3.25 0 0 1 2.3.95l5.29 5.29A3.23 3.23 0 0 1 44 17v-4.47a3.23 3.23 0 0 0-.93-2.29z" fill="#87898c"/><path class="cls-4" d="M4 5.62v36.76A1.61 1.61 0 0 0 5.64 44H42.4a1.61 1.61 0 0 0 1.6-1.62V12.53a3.23 3.23 0 0 0-1-2.29L37.78 5a3.25 3.25 0 0 0-2.3-1H5.64A1.61 1.61 0 0 0 4 5.62z"/><path d="M13.75 4h19.46v10.4a.81.81 0 0 1-.81.81H14.56a.81.81 0 0 1-.81-.81V4z" fill="#daedf7"/><path fill="#fff" d="M13.75 4h19.46v3.31H13.75z"/><path class="cls-4" d="M13.75 4h19.46v10.4a.81.81 0 0 1-.81.81H14.56a.81.81 0 0 1-.81-.81V4z"/><path fill="#fff" stroke="#45413c" stroke-linecap="round" stroke-linejoin="round" d="M8.48 26.43h30V44h-30z"/><path class="cls-4" d="M29.29 7.31v4.32"/><path d="M10.1 20.76h26.76a1.62 1.62 0 0 1 1.62 1.62v4.05h-30v-4.05a1.62 1.62 0 0 1 1.62-1.62z" fill="#80ddff" stroke="#45413c" stroke-linecap="round" stroke-linejoin="round"/></svg>