<svg xmlns="http://www.w3.org/2000/svg" viewBox="0 0 48 48"><defs><style>.cls-2{fill:#87898c}.cls-3{fill:#656769}.cls-4{fill:none;stroke-linecap:round}.cls-4,.cls-7{stroke:#45413c;stroke-linejoin:round}.cls-5{fill:#f0f0f0}.cls-7{fill:#fff}</style></defs><g><ellipse cx="19.66" cy="45.5" rx="14" ry="1.5" fill="#45413c" opacity=".15"/><path class="cls-2" d="M2.5 22.27h33.32a.48.48 0 0 1 .48.48V43a1 1 0 0 1-1 1H3.47a1 1 0 0 1-1-1V22.27z"/><path class="cls-3" d="M2.5 22.27v8.21h33.81v-7.73a.48.48 0 0 0-.49-.48z"/><path class="cls-4" d="M2.5 22.27h33.32a.48.48 0 0 1 .48.48V43a1 1 0 0 1-1 1H3.47a1 1 0 0 1-1-1V22.27z"/><path class="cls-5" d="M2.77 14.11h31.87a1 1 0 0 1 1 1v3.86a.48.48 0 0 1-.48.48H1.8v-4.37a1 1 0 0 1 .97-.97z" transform="rotate(-9.81 18.694 16.747)"/><path class="cls-4" d="M2.77 14.11h31.87a1 1 0 0 1 1 1v3.86a.48.48 0 0 1-.48.48H1.8v-4.37a1 1 0 0 1 .97-.97z" transform="rotate(-9.81 18.694 16.747)"/><path class="cls-5" d="M2.5 22.27h33.32a.48.48 0 0 1 .48.48v4.83H2.5v-5.31z"/><path d="M2.5 22.27v2.41h33.81v-1.93a.48.48 0 0 0-.49-.48z" fill="#fff"/><path class="cls-4" d="M2.5 22.27h33.32a.48.48 0 0 1 .48.48v4.83H2.5v-5.31z"/><path class="cls-4" d="M5.4 37.72h10.14"/><path class="cls-4" d="M5.4 40.14h28.01"/><path class="cls-4" d="M5.4 32.89h28.01"/><path class="cls-4" d="M19.89 29.99v2.9"/><path class="cls-3" d="M16.3 19.88l-4.76.82-3.76-4.74 4.76-.82 3.76 4.74z"/><path class="cls-2" d="M12.54 15.14l-4.76.82 1.6 2.01 4.75-.82-1.59-2.01z"/><path class="cls-3" d="M29.15 17.66l-4.76.82-3.76-4.74 4.76-.82 3.76 4.74z"/><path class="cls-2" d="M25.39 12.92l-4.76.82 1.6 2.01 4.75-.82-1.59-2.01z"/><path class="cls-4" d="M16.3 19.88l-4.76.82-3.76-4.74 4.76-.82 3.76 4.74z"/><path class="cls-4" d="M29.15 17.66l-4.76.82-3.76-4.74 4.76-.82 3.76 4.74z"/><path class="cls-3" d="M16.51 22.27h-4.83l-2.9 5.31h4.83l2.9-5.31z"/><path class="cls-3" d="M29.55 22.27h-4.83l-2.9 5.31h4.83l2.9-5.31z"/><path class="cls-2" d="M15.19 24.68l1.32-2.41h-4.83l-1.32 2.41h4.83z"/><path class="cls-2" d="M28.23 24.68l1.32-2.41h-4.83l-1.32 2.41h4.83z"/><path class="cls-4" d="M16.51 22.27h-4.83l-2.9 5.31h4.83l2.9-5.31z"/><path class="cls-4" d="M29.55 22.27h-4.83l-2.9 5.31h4.83l2.9-5.31z"/><g><path class="cls-7" d="M35.46 2.72a.32.32 0 0 0-.3 0A.33.33 0 0 0 35 3l-.42 4.61a.35.35 0 0 0 .63.22L37.71 4a.35.35 0 0 0-.17-.52z"/><path class="cls-7" d="M27.42 2.65a.35.35 0 0 0-.22.21.34.34 0 0 0 0 .31l2.44 3.92a.34.34 0 0 0 .4.15.35.35 0 0 0 .24-.35L30 2.33a.34.34 0 0 0-.14-.26.35.35 0 0 0-.3 0z"/><path class="cls-7" d="M43.32 7.79a.36.36 0 0 1 .1.29.37.37 0 0 1-.17.26l-4 2.28a.33.33 0 0 1-.42-.06.35.35 0 0 1-.05-.42l2.42-3.86a.38.38 0 0 1 .26-.16.36.36 0 0 1 .28.1z"/><path class="cls-7" d="M46.69 15.09a.34.34 0 0 1-.1.29.31.31 0 0 1-.29.1l-4.58-.61a.35.35 0 0 1-.08-.67l4.28-1.59a.33.33 0 0 1 .46.27z"/></g></g></svg>