<svg xmlns="http://www.w3.org/2000/svg" viewBox="0 0 48 48"><defs><style>.cls-2{fill:#87898c}.cls-3,.cls-9{fill:#656769}.cls-4{fill:none}.cls-4,.cls-9{stroke:#45413c;stroke-linecap:round;stroke-linejoin:round}.cls-5{fill:#fff}.cls-6{fill:#e0e0e0}</style></defs><g><ellipse cx="25.41" cy="42.83" rx="17.46" ry="1.59" fill="#45413c" opacity=".15"/><path class="cls-2" d="M5 13.88h39.16v19.78a3.05 3.05 0 0 1-3.05 3.05h-33A3.05 3.05 0 0 1 5 33.66V13.88z" transform="rotate(-24.6 24.561 25.294)"/><path class="cls-3" d="M3.34 23.4a1.06 1.06 0 0 0-.52 1.4l2.51 5.47L7 29.52a1.05 1.05 0 0 0 .53-1.4l-.88-1.91a1.06 1.06 0 0 1 .52-1.4l28.48-13a1.06 1.06 0 0 1 1.4.52l.88 1.91a1.05 1.05 0 0 0 1.4.53l1.6-.77-2.51-5.5A1.06 1.06 0 0 0 37 8z"/><path class="cls-4" d="M5 13.88h39.16v19.78a3.05 3.05 0 0 1-3.05 3.05h-33A3.05 3.05 0 0 1 5 33.66V13.88z" transform="rotate(-24.6 24.561 25.294)"/><path class="cls-5" d="M13.35 25.26a5.41 5.41 0 1 0 4.5 9.84L20.2 34l-4.5-9.84z"/><path class="cls-6" d="M13.35 25.26a5.41 5.41 0 0 0-2.67 7.17 5.35 5.35 0 0 0 .41.74A5.43 5.43 0 0 1 14 26.78l2.36-1.07-.7-1.53z"/><path class="cls-4" d="M13.35 25.26a5.41 5.41 0 1 0 4.5 9.84L20.2 34l-4.5-9.84z"/><path class="cls-5" d="M31.89 16.77l-2.35 1.08L34 27.68l2.36-1.07a5.41 5.41 0 0 0-4.51-9.84z"/><path class="cls-6" d="M39.37 20.28a5.7 5.7 0 0 0-.31-.84 5.41 5.41 0 0 0-7.17-2.67l-2.35 1.08.75 1.63 2.35-1.08a5.41 5.41 0 0 1 6.73 1.88z"/><path class="cls-4" d="M31.89 16.77l-2.35 1.08L34 27.68l2.36-1.07a5.41 5.41 0 0 0-4.51-9.84z"/><path class="cls-3" d="M2.48 21.51a1.06 1.06 0 0 0-.48 1.4l2.5 5.48 1.64-.75a1 1 0 0 0 .52-1.4l-.87-1.92a1.06 1.06 0 0 1 .52-1.4l28.48-13a1 1 0 0 1 1.4.52l.81 1.88a1.06 1.06 0 0 0 1.4.52l1.64-.75-2.48-5.47a1 1 0 0 0-1.4-.52z"/><path class="cls-2" d="M36.16 6.1l-1.64.75-30.4 13.91-1.64.75a1.06 1.06 0 0 0-.48 1.4l.66 1.45A1.07 1.07 0 0 1 3.14 23l1.64-.74 30.4-13.97 1.64-.75a1.06 1.06 0 0 1 1.4.52l-.66-1.44a1 1 0 0 0-1.4-.52z"/><path class="cls-4" d="M34.52 6.85L4.12 20.76l-1.64.75a1.06 1.06 0 0 0-.48 1.4l.75 1.64 1.75 3.84 1.64-.75a1 1 0 0 0 .52-1.4l-.87-1.92a1.06 1.06 0 0 1 .52-1.4l28.48-13a1 1 0 0 1 1.4.52l.81 1.88a1.06 1.06 0 0 0 1.4.52l1.64-.75-1.73-3.83-.75-1.64a1 1 0 0 0-1.4-.52z"/><path class="cls-3" transform="rotate(-24.6 24.854 25.934)" d="M19.82 20.53h10.1v10.82h-10.1z"/><path transform="rotate(-24.6 22.987 21.827)" fill="#525252" d="M17.95 20.93h10.1v1.79h-10.1z"/><path class="cls-4" transform="rotate(-24.6 24.854 25.934)" d="M19.82 20.53h10.1v10.82h-10.1z"/><path transform="rotate(-24.6 24.854 25.934)" fill="#e8f4fa" stroke="#45413c" stroke-linecap="round" stroke-linejoin="round" d="M22.21 24.26h5.33v3.35h-5.33z"/><path class="cls-9" d="M35.6 21a4.18 4.18 0 0 0-5.55-2l3.49 7.62A4.2 4.2 0 0 0 35.6 21z"/><path class="cls-9" d="M14.14 30.85a4.2 4.2 0 0 0 5.56 2.06l-3.49-7.62a4.2 4.2 0 0 0-2.07 5.56z"/></g></svg>