<svg xmlns="http://www.w3.org/2000/svg" viewBox="0 0 48 48"><defs><style>.cls-3{fill:none;stroke:#45413c;stroke-linecap:round;stroke-linejoin:round}</style></defs><g><path d="M30.19 8.79a15.49 15.49 0 1 0-1.37 23.11l2.34 2.34 2.58-2.58-2.34-2.34a15.48 15.48 0 0 0-1.21-20.53z" fill="#daedf7"/><g><path d="M8.29 12a15.47 15.47 0 0 1 26.34 9.37 15.48 15.48 0 1 0-30.79 0A15.38 15.38 0 0 1 8.29 12z" fill="#e8f4fa"/></g><path class="cls-3" d="M30.19 8.79a15.49 15.49 0 1 0-1.37 23.11l2.34 2.34 2.58-2.58-2.34-2.34a15.48 15.48 0 0 0-1.21-20.53z"/><ellipse cx="28.3" cy="45.34" rx="16.04" ry="1.66" fill="#45413c" opacity=".15"/><circle cx="19.24" cy="19.74" r="12.3" fill="#00b8f0"/><path d="M10.54 11a12.29 12.29 0 0 0-1.32 15.85L25.48 9.16A12.29 12.29 0 0 0 10.54 11z" fill="#4acfff"/><circle class="cls-3" cx="19.24" cy="19.74" r="12.3"/><path d="M43.4 39.39l-8.7-8.7a.92.92 0 0 0-1.29 0l-3.22 3.22a.92.92 0 0 0 0 1.29l8.7 8.7a3.19 3.19 0 0 0 4.51-4.51z" fill="#b89558"/><path d="M43.4 39.39l-8.7-8.7a.92.92 0 0 0-1.29 0l-2 2a.91.91 0 0 1 1.29 0l8.7 8.7a3.17 3.17 0 0 1 .77 3.23 3.15 3.15 0 0 0 1.27-.76 3.2 3.2 0 0 0-.04-4.47z" fill="#debb7e"/><path class="cls-3" d="M43.4 39.39l-8.7-8.7a.92.92 0 0 0-1.29 0l-3.22 3.22a.92.92 0 0 0 0 1.29l8.7 8.7a3.19 3.19 0 0 0 4.51-4.51z"/></g></svg>