<svg xmlns="http://www.w3.org/2000/svg" viewBox="0 0 48 48"><defs><style>.cls-5{stroke:#45413c;stroke-linecap:round;stroke-linejoin:round}.cls-3{fill:#ff6242}.cls-5{fill:none}</style></defs><g><path d="M24 34.49c-3.34 0-6 1.12-6 2.51v2.49c0 1.37 2.66 2.51 6 2.51s6.05-1.11 6.05-2.49V37c0-1.39-2.71-2.51-6.05-2.51z" stroke="#45413c" stroke-linecap="round" stroke-linejoin="round" fill="#656769"/><ellipse cx="24" cy="45.27" rx="13.26" ry="1.73" fill="#45413c" opacity=".15"/><ellipse class="cls-3" cx="24" cy="22.6" rx="13.45" ry="16.69"/><ellipse class="cls-3" cx="24" cy="22.6" rx="13.45" ry="16.69"/><ellipse class="cls-3" cx="24" cy="22.6" rx="13.45" ry="16.69"/><path d="M24 17.16c6.36 0 11.68.85 13.08 10.84a36 36 0 0 0 .37-5.4c0-15.53-6-16.68-13.45-16.68S10.55 7.07 10.55 22.6a36 36 0 0 0 .37 5.4c1.4-10 6.72-10.84 13.08-10.84z" fill="#ff866e"/><ellipse class="cls-5" cx="24" cy="22.6" rx="13.45" ry="16.69"/><path d="M24 4c-3.34 0-6 1.12-6 2.49V9c0 1.37 2.71 2.49 6.05 2.49s6-1.13 6-2.49V6.49C30.05 5.12 27.34 4 24 4z" fill="#87898c"/><path d="M24 9.65c-3.34 0-6-1.11-6-2.49V9c0 1.37 2.71 2.49 6.05 2.49s6-1.13 6-2.49V7.16c0 1.38-2.71 2.49-6.05 2.49z" fill="#656769"/><path class="cls-5" d="M24 4c-3.34 0-6 1.12-6 2.49V9c0 1.37 2.71 2.49 6.05 2.49s6-1.13 6-2.49V6.49C30.05 5.12 27.34 4 24 4z"/><ellipse cx="24" cy="5.92" rx="4.94" ry="1.82" fill="#ffe500"/><ellipse cx="24" cy="6.83" rx="4.25" ry=".91" fill="#ffaa54"/><ellipse class="cls-5" cx="24" cy="5.92" rx="4.94" ry="1.82"/><path class="cls-5" d="M11.87 12.63s1.66 4.52 12.13 4.52 12.13-4.52 12.13-4.52"/><path class="cls-5" d="M10.56 21.45c.17.37 2.34 4.49 13.44 4.49s13.27-4.13 13.44-4.49"/><path class="cls-5" d="M11.29 30s1.76 4.49 12.71 4.49S36.71 30 36.71 30"/></g></svg>