<svg xmlns="http://www.w3.org/2000/svg" viewBox="0 0 48 48"><defs><style>.cls-3{fill:none}.cls-3,.cls-8{stroke:#45413c;stroke-linecap:round;stroke-linejoin:round}.cls-6{fill:#fffef2}.cls-7{fill:#fff}.cls-8{fill:#fffce5}</style></defs><path d="M43 10.41L26 9.6v1.57h-4V9.6l-17 .81a2 2 0 0 0-1.9 2v27a2 2 0 0 0 2.13 2l13.44-.81a1 1 0 0 1 .95.54c.26.66 1 .91 1.89.91h5c.88 0 1.63-.25 1.89-.91a1 1 0 0 1 .95-.54l13.44.81a2 2 0 0 0 2.13-2v-27a2 2 0 0 0-1.92-2z" fill="#00b8f0"/><path d="M43 10.41L26 9.6v1.57h-4V9.6l-17 .81a2 2 0 0 0-1.9 2v3.5a2 2 0 0 1 1.9-2L24 13l19 .91a2 2 0 0 1 1.9 2V12.4a2 2 0 0 0-1.9-1.99z" fill="#4acfff"/><path class="cls-3" d="M43 10.41L26 9.6v1.57h-4V9.6l-17 .81a2 2 0 0 0-1.9 2v27a2 2 0 0 0 2.13 2l13.44-.81a1 1 0 0 1 .95.54c.26.66 1 .91 1.89.91h5c.88 0 1.63-.25 1.89-.91a1 1 0 0 1 .95-.54l13.44.81a2 2 0 0 0 2.13-2v-27a2 2 0 0 0-1.92-2z"/><path d="M21 36h6v2a1.54 1.54 0 0 1-1.54 1.54h-2.92A1.54 1.54 0 0 1 21 38v-2z" fill="#627b8c" stroke="#45413c" stroke-linecap="round" stroke-linejoin="round"/><ellipse cx="24" cy="43.5" rx="17" ry="1.5" fill="#45413c" opacity=".15"/><path class="cls-6" d="M8.59 9.5l-2.16 2.74a2.05 2.05 0 0 0-.34 1.13V39l2.5-3.67z"/><path class="cls-6" d="M39.41 9.5l2.16 2.74a2.05 2.05 0 0 1 .34 1.13V39l-2.5-3.67z"/><path class="cls-7" d="M6.43 12.24a2.05 2.05 0 0 0-.34 1.13v3.5a2.05 2.05 0 0 1 .34-1.13L8.59 13V9.5z"/><path class="cls-7" d="M41.57 12.24L39.41 9.5V13l2.16 2.74a2.05 2.05 0 0 1 .34 1.13v-3.5a2.05 2.05 0 0 0-.34-1.13z"/><path class="cls-3" d="M8.59 9.5l-2.16 2.74a2.05 2.05 0 0 0-.34 1.13V39l2.5-3.67z"/><path class="cls-3" d="M39.41 9.5l2.16 2.74a2.05 2.05 0 0 1 .34 1.13V39l-2.5-3.67z"/><path class="cls-6" d="M24 37V11a3 3 0 0 0-3-3l-11.5.92a1.52 1.52 0 0 0-.91.58v29l12.63-.4A3.42 3.42 0 0 1 24 37z"/><path class="cls-6" d="M27 8a3 3 0 0 0-3 3v26a3.42 3.42 0 0 1 2.78 1.1l12.63.4v-29a1.52 1.52 0 0 0-.91-.58z"/><path class="cls-7" d="M21 8l-11.5.92a1.52 1.52 0 0 0-.91.58v2.92a1 1 0 0 1 .91-1L21 10.5a3 3 0 0 1 3 3V11a3 3 0 0 0-3-3z"/><path class="cls-7" d="M38.5 8.92L27 8a3 3 0 0 0-3 3v2.5a3 3 0 0 1 3-3l11.5.92a1 1 0 0 1 .91 1V9.5a1.52 1.52 0 0 0-.91-.58z"/><path class="cls-3" d="M24 37V11a3 3 0 0 0-3-3l-11.5.92a1.52 1.52 0 0 0-.91.58v29l12.63-.4A3.42 3.42 0 0 1 24 37z"/><path class="cls-3" d="M27 8a3 3 0 0 0-3 3v26a3.42 3.42 0 0 1 2.78 1.1l12.63.4v-29a1.52 1.52 0 0 0-.91-.58z"/><path class="cls-8" d="M24 37a3 3 0 0 0-3-2.5l-12.41.83L6.09 39l15.09-.83A3.34 3.34 0 0 1 24 37z"/><path class="cls-8" d="M26.82 38.17l15.09.83-2.5-3.67L27 34.5a3 3 0 0 0-2.95 2.5 3.34 3.34 0 0 1 2.77 1.17z"/><path class="cls-3" d="M20.5 11.5l-9 .86"/><path class="cls-3" d="M20.5 15.33l-9 .86"/><path class="cls-3" d="M20.5 19.16l-9 .85"/><path class="cls-3" d="M20.5 22.99l-9 .85"/><path class="cls-3" d="M20.5 26.81l-9 .86"/><path class="cls-3" d="M20.5 30.64l-9 .86"/><path class="cls-3" d="M27.5 11.5l9 .86"/><path class="cls-3" d="M27.5 15.33l9 .86"/><path class="cls-3" d="M27.5 19.16l9 .85"/><path class="cls-3" d="M27.5 22.99l9 .85"/><path class="cls-3" d="M27.5 26.81l9 .86"/><path class="cls-3" d="M27.5 30.64l9 .86"/></svg>