<svg xmlns="http://www.w3.org/2000/svg" viewBox="0 0 48 48"><defs><style>.cls-1{fill:#00f5bc}.cls-2,.cls-3{fill:none;stroke:#45413c;stroke-linecap:round;stroke-linejoin:round}.cls-3{fill:#656769}</style></defs><g><path class="cls-1" d="M38.15 40.91L15.78 34.2V1.92L38 8.58a2.4 2.4 0 0 1 1.7 2.29v28.9a1.19 1.19 0 0 1-1.55 1.14z"/><path class="cls-2" d="M38.15 40.91L15.78 34.2V1.92L38 8.58a2.4 2.4 0 0 1 1.7 2.29v28.9a1.19 1.19 0 0 1-1.55 1.14z"/><path class="cls-3" d="M20.66 3.39l-4.88-1.47V34.2l4.88 1.46V3.39z"/><path class="cls-3" d="M15.78 1.92L9.8 6.11v13l5.98-5.31V1.92z"/><ellipse cx="24" cy="45.21" rx="13.75" ry="1.79" fill="#45413c" opacity=".15"/><path fill="#fffce5" d="M32.16 43.94l4.54-3.46V11.19l-4.54 3.13v29.62z"/><path fill="#fffef2" d="M32.16 14.32v4.77l4.54-3.14v-4.76l-4.54 3.13z"/><path class="cls-2" d="M32.16 43.94l4.54-3.46V11.19l-4.54 3.13v29.62z"/><path fill="#fffef2" stroke="#45413c" stroke-linecap="round" stroke-linejoin="round" d="M15.78 4.91L11.3 8.05l20.92 6.27 4.48-3.13-20.92-6.28z"/><path class="cls-1" d="M32.17 45.09l-21.51-6.45a1.2 1.2 0 0 1-.86-1.15V6.11L32 12.77a2.38 2.38 0 0 1 1.7 2.29V44a1.19 1.19 0 0 1-1.53 1.09z"/><path d="M32 12.77L9.8 6.11v3.51L32 16.28a2.38 2.38 0 0 1 1.7 2.29v-3.51a2.38 2.38 0 0 0-1.7-2.29z" fill="#8cffe4"/><path class="cls-2" d="M32.17 45.09l-21.51-6.45a1.2 1.2 0 0 1-.86-1.15V6.11L32 12.77a2.38 2.38 0 0 1 1.7 2.29V44a1.19 1.19 0 0 1-1.53 1.09z"/><path d="M14.69 7.57L9.8 6.11v31.38a1.2 1.2 0 0 0 .86 1.15l4 1.21z" fill="#656769"/><path fill="#87898c" d="M9.8 6.11v3.51l4.89 1.46V7.57L9.8 6.11z"/><path class="cls-2" d="M14.69 7.57L9.8 6.11v31.38a1.2 1.2 0 0 0 .86 1.15l4 1.21z"/><path fill="#fff" stroke="#45413c" stroke-linecap="round" stroke-linejoin="round" d="M27.81 22.98l-7.62-2.24v-4.79l7.62 2.25v4.78z"/></g></svg>