<svg xmlns="http://www.w3.org/2000/svg" viewBox="0 0 48 48"><defs><style>.cls-2{fill:#e4ffd1}.cls-2,.cls-6,.cls-9{stroke:#45413c;stroke-linecap:round;stroke-linejoin:round}.cls-6{fill:none}.cls-9{fill:#c8ffa1}</style></defs><g><ellipse cx="24" cy="38.75" rx="22.38" ry="1.64" opacity=".15" fill="#45413c"/><path class="cls-2" d="M3.08 32.13h41.84v3.55a2.18 2.18 0 0 1-2.18 2.18H5.26a2.18 2.18 0 0 1-2.18-2.18v-3.55z"/><path class="cls-2" d="M3.08 29.27h41.84v3.55A2.18 2.18 0 0 1 42.74 35H5.26a2.18 2.18 0 0 1-2.18-2.18v-3.55z"/><path d="M18.41 32.13h11.18v6.21a.55.55 0 0 1-.55.55H19a.55.55 0 0 1-.55-.55v-6.21h-.04z" fill="#debb7e" stroke="#45413c" stroke-linecap="round" stroke-linejoin="round"/><rect x="3.08" y="9.57" width="41.84" height="22.56" rx="2.18" ry="2.18" fill="#f0ffe5"/><path d="M42.74 9.57H5.26a2.19 2.19 0 0 0-2.18 2.19v3.78a2.19 2.19 0 0 1 2.18-2.18h37.48a2.19 2.19 0 0 1 2.18 2.18v-3.78a2.19 2.19 0 0 0-2.18-2.19z" fill="#fff"/><rect class="cls-6" x="3.08" y="9.57" width="41.84" height="22.56" rx="2.18" ry="2.18"/><path d="M19 8.5h10a.55.55 0 0 1 .55.55v23.08H18.41V9a.55.55 0 0 1 .59-.5z" fill="#f0d5a8"/><path d="M29.05 8.5H19a.54.54 0 0 0-.54.55v3.37a.54.54 0 0 1 .54-.54h10.1a.54.54 0 0 1 .54.54V9.05a.54.54 0 0 0-.59-.55z" fill="#f7e5c6"/><path class="cls-6" d="M19 8.5h10a.55.55 0 0 1 .55.55v23.08H18.41V9a.55.55 0 0 1 .59-.5z"/><path class="cls-9" d="M29.59 13.44h10.05a1.09 1.09 0 0 1 1.09 1.09v12.64a1.09 1.09 0 0 1-1.09 1.09H29.59V13.44z"/><path class="cls-9" d="M7.26 13.44h10.05a1.09 1.09 0 0 1 1.09 1.09v12.64a1.09 1.09 0 0 1-1.09 1.09H7.26V13.44z" transform="rotate(180 12.835 20.85)"/><path d="M12.45 23.31v-1.66l-.72-.23a3.39 3.39 0 0 1-.74-.35 1.56 1.56 0 0 1-.5-.55 1.8 1.8 0 0 1-.19-.84 2.12 2.12 0 0 1 .29-1.1 2.24 2.24 0 0 1 .77-.79 2.86 2.86 0 0 1 1.09-.36v-.29a1.78 1.78 0 0 1 0-.26.26.26 0 0 1 .07-.15.27.27 0 0 1 .19-.06c.12 0 .2 0 .22.11a1 1 0 0 1 .05.36v.3a3.43 3.43 0 0 1 1.18.26.79.79 0 0 1 .56.72.81.81 0 0 1-.18.53.63.63 0 0 1-.48.21 1.73 1.73 0 0 1-.53-.12 2.9 2.9 0 0 0-.55-.15v1.33a7.65 7.65 0 0 1 1.14.41 1.85 1.85 0 0 1 1.12 1.82 2.19 2.19 0 0 1-.17.9 2.06 2.06 0 0 1-.49.7 2.44 2.44 0 0 1-.73.48 3.25 3.25 0 0 1-.87.21v.56a.27.27 0 0 1-.08.16.25.25 0 0 1-.18.07c-.12 0-.2 0-.23-.12a1.08 1.08 0 0 1 0-.35v-.31a5.58 5.58 0 0 1-1-.12 2.12 2.12 0 0 1-.84-.34.75.75 0 0 1-.35-.64.71.71 0 0 1 .18-.5.6.6 0 0 1 .48-.21 2.48 2.48 0 0 1 .73.18 4 4 0 0 0 .76.19zm0-3.28v-1.14a.8.8 0 0 0-.38.22.56.56 0 0 0-.15.39.38.38 0 0 0 .13.3 1.32 1.32 0 0 0 .4.2zm.55 1.78v1.46a.82.82 0 0 0 .47-.29.79.79 0 0 0 .18-.51c-.01-.29-.23-.47-.65-.66z" fill="#45413c"/><path d="M37.55 20.85a2.39 2.39 0 1 1-2.39-2.39 2.39 2.39 0 0 1 2.39 2.39z" fill="#6dd627" stroke="#45413c" stroke-linecap="round" stroke-linejoin="round"/></g></svg>