<svg xmlns="http://www.w3.org/2000/svg" viewBox="0 0 48 48"><defs><style>.cls-2,.cls-6{fill:#e0e0e0;stroke:#45413c;stroke-linecap:round;stroke-linejoin:round}.cls-6{fill:none}</style></defs><g><ellipse cx="24" cy="38.75" rx="22.38" ry="1.64" opacity=".15" fill="#45413c"/><path class="cls-2" d="M3.09 32.12h41.82v3.55a2.18 2.18 0 0 1-2.18 2.18H5.27a2.18 2.18 0 0 1-2.18-2.18v-3.55z"/><path class="cls-2" d="M3.09 29.26h41.82v3.54a2.18 2.18 0 0 1-2.18 2.2H5.27a2.18 2.18 0 0 1-2.18-2.2v-3.54z"/><path d="M18.41 32.12h11.18v6.21a.55.55 0 0 1-.55.55H19a.55.55 0 0 1-.55-.55v-6.21h-.04z" fill="#debb7e" stroke="#45413c" stroke-linecap="round" stroke-linejoin="round"/><rect x="3.09" y="9.57" width="41.82" height="22.55" rx="2.18" ry="2.18" fill="#f0f0f0"/><path d="M42.73 9.57H5.27a2.18 2.18 0 0 0-2.18 2.19V17a2.18 2.18 0 0 1 2.18-2.19h37.46A2.18 2.18 0 0 1 44.91 17v-5.24a2.18 2.18 0 0 0-2.18-2.19z" fill="#fff"/><rect class="cls-6" x="3.09" y="9.57" width="41.82" height="22.55" rx="2.18" ry="2.18"/><path d="M19 8.5h10a.55.55 0 0 1 .55.55v23.07H18.41V9a.55.55 0 0 1 .59-.5z" fill="#f0d5a8"/><path d="M29.05 8.5H19a.54.54 0 0 0-.54.55v3.88a.54.54 0 0 1 .54-.54h10.1a.54.54 0 0 1 .54.54V9.05a.54.54 0 0 0-.59-.55z" fill="#f7e5c6"/><path class="cls-6" d="M19 8.5h10a.55.55 0 0 1 .55.55v23.07H18.41V9a.55.55 0 0 1 .59-.5z"/><path d="M29.59 13.44h10a1.09 1.09 0 0 1 1.09 1.09v12.64a1.09 1.09 0 0 1-1.09 1.09h-10V13.44z" fill="#f5ebff" stroke="#45413c" stroke-linecap="round" stroke-linejoin="round"/><path d="M10.52 19.67h2.6a1.46 1.46 0 0 1 .63.14 1 1 0 0 1 .44.41 1.32 1.32 0 0 1 0 1.26 1 1 0 0 1-.44.41 1.46 1.46 0 0 1-.63.14h-2.2a4.23 4.23 0 0 1-.87 2.52h4.74a1.34 1.34 0 0 1 .64.15 1 1 0 0 1 .44.41 1.3 1.3 0 0 1 0 1.25 1.09 1.09 0 0 1-.44.41 1.47 1.47 0 0 1-.64.14H8.1a1.28 1.28 0 0 1-1-.36 1.32 1.32 0 0 1-.35-1 .9.9 0 0 1 .25-.49l.54-.76a4 4 0 0 0 .52-1 3.57 3.57 0 0 0 .19-1.3h-.89a1.22 1.22 0 0 1-.89-.32 1.29 1.29 0 0 1 0-1.72 1.26 1.26 0 0 1 .89-.32h.36a4.15 4.15 0 0 1-.3-.89 4.29 4.29 0 0 1-.14-.92 2.74 2.74 0 0 1 .58-1.74A3.62 3.62 0 0 1 9.43 15a5.57 5.57 0 0 1 2.15-.41 5.93 5.93 0 0 1 2.17.39A3.9 3.9 0 0 1 15.33 16a2.29 2.29 0 0 1 .57 1.51 1.24 1.24 0 0 1-.37.94 1.32 1.32 0 0 1-1 .35.86.86 0 0 1-.58-.18 5.51 5.51 0 0 1-.58-.65 3.12 3.12 0 0 0-.75-.72 1.75 1.75 0 0 0-1-.24 1.86 1.86 0 0 0-1.15.36 1.12 1.12 0 0 0-.48 1 1.76 1.76 0 0 0 .21.9z" fill="#45413c"/><path d="M40.73 27.17v-1.55a7.26 7.26 0 0 0-4.08-3 3.55 3.55 0 1 0-3.93 0 7.14 7.14 0 0 0-3.13 1.81v3.79h10.05a1.09 1.09 0 0 0 1.09-1.05z" fill="#bf8df2" stroke="#45413c" stroke-linecap="round" stroke-linejoin="round"/></g></svg>