<svg xmlns="http://www.w3.org/2000/svg" viewBox="0 0 48 48"><defs><style>.cls-1{fill:#6dd627}.cls-1,.cls-5,.cls-6{stroke:#45413c;stroke-linecap:round;stroke-linejoin:round}.cls-3{fill:#e5feff}.cls-4{fill:#fff}.cls-5{fill:none}.cls-6{fill:#ffaa54}</style></defs><path class="cls-1" d="M30.82 30.66l-3.24 2.75a19.87 19.87 0 0 1-7.49 3.24 19.92 19.92 0 0 0-7.48 3.24l-3.22 2.27a.94.94 0 0 1-1.33-.24l-6.91-10a.9.9 0 0 1-.15-.46l-.48-6 30.2-1.37.46 5.8a.94.94 0 0 1-.36.77z"/><ellipse cx="17.35" cy="45.5" rx="10.97" ry="1.5" fill="#45413c" opacity=".15"/><path class="cls-3" d="M27.71 37.79a.74.74 0 0 1 .12-1.31 21.53 21.53 0 0 1 10.66-1.59c6.06.87 10.27 4 8.67 6.66-1.39 2.27-5.38.38-5.38.38s1.38 2.66-.88 3.79-5.51-3.14-5.51-3.14-.5 2.56-2.46 2c-2.61-.71-1.75-3-2.59-4.5a8.94 8.94 0 0 0-2.63-2.29z"/><path class="cls-4" d="M27.71 37.79c.28.19.6.4.91.63a21.06 21.06 0 0 1 9.71-1.23c4.41.64 7.84 2.49 8.76 4.46a.86.86 0 0 0 .07-.1c1.6-2.63-2.61-5.79-8.67-6.66a21.53 21.53 0 0 0-10.66 1.59.74.74 0 0 0-.12 1.31z"/><path class="cls-5" d="M27.71 37.79a.74.74 0 0 1 .12-1.31 21.53 21.53 0 0 1 10.66-1.59c6.06.87 10.27 4 8.67 6.66-1.39 2.27-5.38.38-5.38.38s1.38 2.66-.88 3.79-5.51-3.14-5.51-3.14-.5 2.56-2.46 2c-2.61-.71-1.75-3-2.59-4.5a8.94 8.94 0 0 0-2.63-2.29z"/><path class="cls-6" d="M41.78 41.93A10.57 10.57 0 0 0 39 38.55"/><path class="cls-6" d="M35.39 42.58a5 5 0 0 0-1-3.61"/><path class="cls-3" d="M11.19 16.6a.59.59 0 0 0 1-.46 17.16 17.16 0 0 0-1.75-8.41C8.05 3.44 4.52 1.16 3 3.09 1.69 4.75 4.21 7.21 4.21 7.21s-2.38-.29-2.6 1.71 3.88 3.25 3.88 3.25-1.78 1.08-.85 2.4c1.25 1.77 2.77.47 4.08.7a6.88 6.88 0 0 1 2.47 1.33z"/><path class="cls-4" d="M10.19 10.54a15.46 15.46 0 0 1 1.68 6.06.55.55 0 0 0 .27-.46 17.16 17.16 0 0 0-1.75-8.41C8.05 3.44 4.52 1.16 3 3.09a2.28 2.28 0 0 0 0 2.56c1.68-1.44 5 .82 7.19 4.89z"/><path class="cls-5" d="M11.19 16.6a.59.59 0 0 0 1-.46 17.16 17.16 0 0 0-1.75-8.41C8.05 3.44 4.52 1.16 3 3.09 1.69 4.75 4.21 7.21 4.21 7.21s-2.38-.29-2.6 1.71 3.88 3.25 3.88 3.25-1.78 1.08-.85 2.4c1.25 1.77 2.77.47 4.08.7a6.88 6.88 0 0 1 2.47 1.33z"/><path class="cls-6" d="M4.21 7.21A8.12 8.12 0 0 1 7.48 8.4"/><path class="cls-6" d="M5.49 12.17a4 4 0 0 1 2.94-.25"/><path class="cls-1" d="M11.61 19.05a19.76 19.76 0 0 0-7.48 3.24L.9 24.56a1 1 0 0 0-.23 1.33l6.88 9.75a1 1 0 0 0 1.33.23l3.23-2.28a20.08 20.08 0 0 1 7.48-3.24 19.87 19.87 0 0 0 7.49-3.24l3.22-2.27a1 1 0 0 0 .23-1.33l-6.88-9.75a1 1 0 0 0-1.33-.23l-3.22 2.28a20 20 0 0 1-7.49 3.24z"/><path d="M4 26.47l4.13 5.84a1 1 0 0 0 1.33.23l1.66-1.17a19.8 19.8 0 0 1 7.49-3.24 19.92 19.92 0 0 0 7.48-3.24l.89-.62a1 1 0 0 0 .22-1.33l-4.12-5.85a1 1 0 0 0-1.33-.23L20.08 18a19.76 19.76 0 0 1-7.48 3.24 20.19 20.19 0 0 0-7.49 3.24l-.88.63A1 1 0 0 0 4 26.47z" fill="#e4ffd1" stroke="#45413c" stroke-linecap="round" stroke-linejoin="round"/><path d="M18.3 23.71c.35 1-.57 2.23-2.06 2.75s-3 .15-3.34-.84.57-2.23 2.07-2.76 3.03-.14 3.33.85z" fill="#9ceb60" stroke="#45413c" stroke-linecap="round" stroke-linejoin="round"/><path class="cls-5" d="M8.21 36.06l.5 6.26"/><path class="cls-5" d="M31 28.3l-3.33 2.82a20.78 20.78 0 0 1-7.82 3.39 20.56 20.56 0 0 0-7.81 3.38l-3.49 2.49"/><path class="cls-5" d="M30.87 26.2L27.54 29a20.72 20.72 0 0 1-7.81 3.38 21 21 0 0 0-7.82 3.38l-3.52 2.51"/><path class="cls-6" d="M8.5 39.71L.75 28.5"/></svg>