<svg xmlns="http://www.w3.org/2000/svg" viewBox="0 0 48 48"><defs><style>.cls-4{fill:none;stroke:#45413c;stroke-linecap:round;stroke-linejoin:round}</style></defs><g><ellipse cx="24" cy="38.06" rx="22.25" ry="1.63" fill="#45413c" opacity=".15"/><rect x="3.02" y="11.29" width="41.96" height="25.69" rx="1.09" ry="1.09" fill="#fff"/><path d="M43.89 33.17H4.11A1.08 1.08 0 0 1 3 32.09v3.8A1.09 1.09 0 0 0 4.11 37h39.78A1.09 1.09 0 0 0 45 35.89v-3.8a1.08 1.08 0 0 1-1.11 1.08z" fill="#f0f0f0"/><rect class="cls-4" x="3.02" y="11.29" width="41.96" height="25.69" rx="1.09" ry="1.09"/><path class="cls-4" d="M3.33 11.62L24 25.76l20.67-14.14"/><path class="cls-4" d="M27.82 23.16L44.67 36.6"/><path class="cls-4" d="M3.33 36.6l16.85-13.44"/><g><path d="M18.64 31.25v-14a2 2 0 0 1 2-2.22H27a1.69 1.69 0 0 1 1.81 1.76A1.73 1.73 0 0 1 27 18.51h-4.53v3.72h4.2A1.71 1.71 0 0 1 28.54 24a1.75 1.75 0 0 1-1.87 1.76h-4.2v3.88h4.73a1.69 1.69 0 0 1 1.8 1.77 1.73 1.73 0 0 1-1.82 1.76h-6.57a1.86 1.86 0 0 1-1.97-1.92z" fill="#00b8f0" stroke="#45413c" stroke-linecap="round" stroke-linejoin="round"/></g></g></svg>