<svg xmlns="http://www.w3.org/2000/svg" viewBox="0 0 48 48"><defs><style>.cls-2{fill:#f0d5a8}.cls-3{fill:#debb7e}.cls-4{fill:none;stroke:#4f4b45;stroke-linejoin:round}</style></defs><g><ellipse cx="24" cy="43.01" rx="15.25" ry="1.99" fill="#45413c" opacity=".15"/><path class="cls-2" d="M5.78 36l16.74 6.7A4 4 0 0 0 24 43V20.75L4.63 13a2.68 2.68 0 0 0-.52 1.59v19A2.65 2.65 0 0 0 5.78 36z"/><path class="cls-3" d="M5.78 31a2.64 2.64 0 0 1-1.67-2.46v5A2.65 2.65 0 0 0 5.78 36l16.74 6.7A4 4 0 0 0 24 43v-5a4 4 0 0 1-1.48-.29z"/><path class="cls-4" d="M5.78 36l16.74 6.7A4 4 0 0 0 24 43V20.75L4.63 13a2.68 2.68 0 0 0-.52 1.59v19A2.65 2.65 0 0 0 5.78 36z"/><path class="cls-2" d="M42.22 36a2.65 2.65 0 0 0 1.67-2.46V14.59a2.68 2.68 0 0 0-.52-1.59L24 20.75V43a4 4 0 0 0 1.48-.29z"/><path class="cls-3" d="M42.22 31.22l-16.74 6.7a4 4 0 0 1-1.48.28V43a4 4 0 0 0 1.48-.29L42.22 36a2.65 2.65 0 0 0 1.67-2.46v-4.78a2.65 2.65 0 0 1-1.67 2.46z"/><path class="cls-4" d="M42.22 36a2.65 2.65 0 0 0 1.67-2.46V14.59a2.68 2.68 0 0 0-.52-1.59L24 20.75V43a4 4 0 0 0 1.48-.29z"/><path class="cls-2" d="M42.22 12.12L25.48 5.43a4 4 0 0 0-3 0l-16.7 6.69a2.73 2.73 0 0 0-1.15.88L24 20.75 43.37 13a2.73 2.73 0 0 0-1.15-.88z"/><path class="cls-3" d="M42.22 12.12l-.56-.22-2-.79-9.14 3.66a17.65 17.65 0 0 1-13.1 0l-9.11-3.66-2.53 1a2.73 2.73 0 0 0-1.15.89L24 20.75 43.37 13a2.73 2.73 0 0 0-1.15-.88z"/><path class="cls-4" d="M42.22 12.12L25.48 5.43a4 4 0 0 0-3 0l-16.7 6.69a2.73 2.73 0 0 0-1.15.88L24 20.75 43.37 13a2.73 2.73 0 0 0-1.15-.88z"/><path fill="#fff" stroke="#4f4b45" stroke-linejoin="round" d="M33.41 27.49l-5.73 2.29v-6.49L33.41 21v6.49z"/><path fill="#fff5e3" d="M17.2 18.03l19.89-7.96-6.13-2.45-19.89 7.96 6.13 2.45z"/><path d="M17.45 14.77l-2.18-.87-4.2 1.68L17.2 18l5.19-2a17.8 17.8 0 0 1-4.94-1.23z" fill="#f7e5c6"/><path class="cls-4" d="M17.2 18.03l19.89-7.96-6.13-2.45-19.89 7.96 6.13 2.45z"/><path fill="#fff5e3" stroke="#4f4b45" stroke-linejoin="round" d="M11.07 15.58v5.17l6.16 2.46-.03-5.18-6.13-2.45z"/><path fill="#f7e5c6" stroke="#4f4b45" stroke-linejoin="round" d="M11.07 34.34v3.81l6.16 2.47-.03-3.82-6.13-2.46z"/></g></svg>