<svg xmlns="http://www.w3.org/2000/svg" viewBox="0 0 48 48"><defs><style>.cls-2{fill:#ff6242}.cls-4{fill:none;stroke:#45413c;stroke-linecap:round;stroke-linejoin:round}</style></defs><g><ellipse cx="24" cy="44.4" rx="12.29" ry="1.6" fill="#45413c" opacity=".15"/><rect class="cls-2" x="10.81" y="2.9" width="26.39" height="31" rx="3.21" ry="3.21"/><path d="M34 2.9H14a3.2 3.2 0 0 0-3.2 3.2v2.48A3.21 3.21 0 0 1 14 5.37h20a3.21 3.21 0 0 1 3.2 3.21V6.1A3.2 3.2 0 0 0 34 2.9z" fill="#ff866e"/><rect class="cls-4" x="10.81" y="2.9" width="26.39" height="31" rx="3.21" ry="3.21"/><path d="M21.76 33.89h4.47v9.54a1.07 1.07 0 0 1-1.07 1.07h-2.33a1.07 1.07 0 0 1-1.07-1.07v-9.54z" fill="#debb7e"/><path fill="#b89558" d="M21.76 33.89h4.47v2.72h-4.47z"/><path class="cls-4" d="M21.76 33.89h4.47v9.54a1.07 1.07 0 0 1-1.07 1.07h-2.33a1.07 1.07 0 0 1-1.07-1.07v-9.54z"/><rect x="14.41" y="11.06" width="19.17" height="3.47" rx="1.07" ry="1.07" fill="#656769"/><path d="M32.52 11.06h-17a1.07 1.07 0 0 0-1.07 1.07v1.3a1.07 1.07 0 0 1 1.07-1.07h17a1.07 1.07 0 0 1 1.07 1.07v-1.3a1.07 1.07 0 0 0-1.07-1.07z" fill="#525252"/><rect class="cls-4" x="14.41" y="11.06" width="19.17" height="3.47" rx="1.07" ry="1.07"/><path d="M33.9 6.58H14.1a1.12 1.12 0 0 0 0 2.23h19.8a1.12 1.12 0 0 0 0-2.23z" fill="#e04122"/><path class="cls-2" d="M14.1 7.7h19.8a1.11 1.11 0 0 1 1 .55 1 1 0 0 0 .1-.55 1.12 1.12 0 0 0-1.1-1.12H14.1A1.12 1.12 0 0 0 13 7.7a1 1 0 0 0 .15.55 1.11 1.11 0 0 1 .95-.55z"/><path class="cls-4" d="M33.9 6.58H14.1a1.12 1.12 0 0 0 0 2.23h19.8a1.12 1.12 0 0 0 0-2.23z"/><path d="M33.56 21.16h-9.79a1.07 1.07 0 0 1-1-.63l-4.26-9.47h11.33l4.21 9.34a.54.54 0 0 1-.49.76z" fill="#fff"/><path fill="#f0f0f0" d="M30.87 13.35l-1.03-2.29H18.53l1.03 2.29h11.31z"/><path class="cls-4" d="M33.56 21.16h-9.79a1.07 1.07 0 0 1-1-.63l-4.26-9.47h11.33l4.21 9.34a.54.54 0 0 1-.49.76z"/><path class="cls-4" d="M34.03 20.87l-7.57-6.13.85-3.68"/><path class="cls-4" d="M27.61 15.67l-4.36 5.35"/><path class="cls-4" d="M26.71 13.67l-5.24-2.61"/></g></svg>