<svg xmlns="http://www.w3.org/2000/svg" viewBox="0 0 48 48"><defs><style>.cls-3{fill:#adc4d9}.cls-4{fill:none;stroke:#45413c;stroke-linecap:round;stroke-linejoin:round}</style></defs><g><ellipse cx="24" cy="44.01" rx="15.27" ry="1.99" fill="#45413c" opacity=".15"/><path d="M35.62 3.63a.65.65 0 0 0-.66.66v2.45h-24.9a.66.66 0 0 0-.67.66v30.47h32.2a2.66 2.66 0 0 0 2.66-2.65V4.29a.66.66 0 0 0-.66-.66z" fill="#8ca4b8"/><path class="cls-3" d="M44.25 4.29a.66.66 0 0 0-.66-.66h-8a.65.65 0 0 0-.66.66v2.45H10.06a.66.66 0 0 0-.67.66v3.32a.66.66 0 0 1 .67-.66H34a1 1 0 0 0 1-1V7.61a.65.65 0 0 1 .62-.61h8a.66.66 0 0 1 .66.66z"/><path class="cls-4" d="M35.62 3.63a.65.65 0 0 0-.66.66v2.45h-24.9a.66.66 0 0 0-.67.66v30.47h32.2a2.66 2.66 0 0 0 2.66-2.65V4.29a.66.66 0 0 0-.66-.66z"/><path d="M38.86 35.22a2.65 2.65 0 0 0 2.65 2.65H6.66A2.66 2.66 0 0 1 4 35.22V12.31a.67.67 0 0 1 .66-.66h33.53a.67.67 0 0 1 .67.66z" fill="#c0dceb"/><path class="cls-3" d="M38.86 35.22v-1.36H6.66A2.66 2.66 0 0 1 4 31.21v4a2.66 2.66 0 0 0 2.66 2.65h34.85a2.65 2.65 0 0 1-2.65-2.64z"/><path class="cls-4" d="M38.86 35.22a2.65 2.65 0 0 0 2.65 2.65H6.66A2.66 2.66 0 0 1 4 35.22V12.31a.67.67 0 0 1 .66-.66h33.53a.67.67 0 0 1 .67.66z"/></g></svg>