<svg xmlns="http://www.w3.org/2000/svg" viewBox="0 0 48 48"><defs><style>.cls-4,.cls-7{fill:none;stroke-linecap:round;stroke-linejoin:round}.cls-4{stroke:#e0e0e0}.cls-7{stroke:#45413c}</style></defs><rect x="5.94" y="5.93" width="36.12" height="36.13" rx="1.28" ry="1.28" fill="#fff"/><path d="M40.78 5.93H7.22a1.28 1.28 0 0 0-1.28 1.28v3.21a1.28 1.28 0 0 1 1.28-1.28h33.56a1.28 1.28 0 0 1 1.28 1.28V7.21a1.28 1.28 0 0 0-1.28-1.28z" fill="#f0f0f0"/><ellipse cx="24.01" cy="45.25" rx="13.4" ry="1.75" fill="#45413c" opacity=".15"/><path class="cls-4" d="M5.94 13.2h36.12v21.61H5.94z"/><path class="cls-4" d="M5.94 20.09h36.12v7.83H5.94z"/><path class="cls-4" transform="rotate(90 24 24)" d="M5.93 20.27h36.13v7.46H5.93z"/><path class="cls-4" transform="rotate(90 24 24)" d="M5.93 13.18h36.13v21.65H5.93z"/><path d="M21.88 26.62h4.24a1.28 1.28 0 0 1 1.28 1.28v14.17h-6.8V27.9a1.28 1.28 0 0 1 1.28-1.28z" fill="#ff6242"/><path d="M26.12 26.62h-4.24a1.28 1.28 0 0 0-1.28 1.28v2.38A1.28 1.28 0 0 1 21.88 29h4.24a1.28 1.28 0 0 1 1.28 1.28V27.9a1.28 1.28 0 0 0-1.28-1.28z" fill="#ff866e"/><path class="cls-7" d="M21.88 26.62h4.24a1.28 1.28 0 0 1 1.28 1.28v14.17h-6.8V27.9a1.28 1.28 0 0 1 1.28-1.28z"/><path d="M11.08 22h4.24a1.28 1.28 0 0 1 1.28 1.28v18.79H9.8V23.24A1.28 1.28 0 0 1 11.08 22z" fill="#6dd627"/><path d="M15.32 22h-4.24a1.28 1.28 0 0 0-1.28 1.24v2.38a1.28 1.28 0 0 1 1.28-1.28h4.24a1.28 1.28 0 0 1 1.28 1.28v-2.38A1.28 1.28 0 0 0 15.32 22z" fill="#9ceb60"/><path class="cls-7" d="M11.08 22h4.24a1.28 1.28 0 0 1 1.28 1.28v18.79H9.8V23.24A1.28 1.28 0 0 1 11.08 22z"/><path d="M32.71 13.95h4.24a1.28 1.28 0 0 1 1.28 1.28v26.84h-6.8V15.23a1.28 1.28 0 0 1 1.28-1.28z" fill="#00b8f0"/><path d="M36.94 14h-4.23a1.28 1.28 0 0 0-1.28 1.28v2.32a1.28 1.28 0 0 1 1.28-1.28h4.23a1.28 1.28 0 0 1 1.28 1.28v-2.37A1.28 1.28 0 0 0 36.94 14z" fill="#4acfff"/><path class="cls-7" d="M32.71 13.95h4.24a1.28 1.28 0 0 1 1.28 1.28v26.84h-6.8V15.23a1.28 1.28 0 0 1 1.28-1.28z"/><rect class="cls-7" x="5.94" y="5.93" width="36.12" height="36.13" rx="1.28" ry="1.28"/></svg>