<svg xmlns="http://www.w3.org/2000/svg" viewBox="0 0 48 48"><defs><style>.cls-4{fill:none;stroke:#45413c;stroke-linecap:round;stroke-linejoin:round}</style></defs><g><ellipse cx="24" cy="45.15" rx="14.2" ry="1.85" fill="#45413c" opacity=".15"/><g><rect x="7.49" y="4.35" width="33.03" height="40.15" rx="3.49" ry="3.49" fill="#debb7e"/><path d="M37 4.35H11a3.48 3.48 0 0 0-3.51 3.49v4A3.48 3.48 0 0 1 11 8.37h26a3.48 3.48 0 0 1 3.48 3.48v-4A3.48 3.48 0 0 0 37 4.35z" fill="#f0d5a8"/><rect class="cls-4" x="7.49" y="4.35" width="33.03" height="40.15" rx="3.49" ry="3.49"/><rect x="11.64" y="10.38" width="24.72" height="30.04" rx="1.24" ry="1.24" fill="#fffef2"/><path d="M35.13 10.38H12.87a1.23 1.23 0 0 0-1.23 1.24v3.93a1.23 1.23 0 0 1 1.23-1.23h22.26a1.23 1.23 0 0 1 1.23 1.23v-3.93a1.23 1.23 0 0 0-1.23-1.24z" fill="#fff"/><rect class="cls-4" x="11.64" y="10.38" width="24.72" height="30.04" rx="1.24" ry="1.24"/><path d="M26 8.1a2 2 0 1 0-4 0h-3.52a1.23 1.23 0 0 0-1.23 1.23v1.94a1.23 1.23 0 0 0 1.23 1.24h11a1.23 1.23 0 0 0 1.23-1.24V9.33a1.23 1.23 0 0 0-1.19-1.23z" fill="#daedf7"/><path d="M29.52 8.1H26a2 2 0 1 0-4 0h-3.52a1.23 1.23 0 0 0-1.23 1.23v2a1.23 1.23 0 0 1 1.23-1.18H22a2 2 0 1 1 4.08 0h3.48a1.23 1.23 0 0 1 1.23 1.18v-2a1.23 1.23 0 0 0-1.27-1.23z" fill="#e8f4fa"/><path class="cls-4" d="M26 8.1a2 2 0 1 0-4 0h-3.52a1.23 1.23 0 0 0-1.23 1.23v1.94a1.23 1.23 0 0 0 1.23 1.24h11a1.23 1.23 0 0 0 1.23-1.24V9.33a1.23 1.23 0 0 0-1.19-1.23z"/><path class="cls-4" d="M15.39 16.29h6.25"/><path class="cls-4" d="M15.39 34.35h6.25"/><path class="cls-4" d="M15.39 20H29.9"/><path class="cls-4" d="M15.39 23.32H29.9"/><path class="cls-4" d="M15.39 26.94H29.9"/></g></g></svg>