<svg xmlns="http://www.w3.org/2000/svg" viewBox="0 0 48 48"><defs><style>.cls-2{fill:#adc4d9}.cls-3{fill:#8ca4b8}.cls-4{fill:none;stroke:#45413c;stroke-linecap:round;stroke-linejoin:round}.cls-5{fill:#c0dceb}.cls-6{fill:#daedf7}.cls-7{fill:#fff}</style></defs><ellipse cx="23.6" cy="43.37" rx="14.1" ry="2.11" fill="#45413c" opacity=".15"/><path class="cls-2" d="M37.31 37.3l-7.25-14-7.3 3.79 7.25 14c.36.71 4.39 2.85 5.74 2.15s1.92-5.24 1.56-5.94z"/><path class="cls-3" d="M33.22 29.42l-7.3 3.78 3.39 6.54a8.44 8.44 0 0 0 4.09-1.17A8.84 8.84 0 0 0 36.64 36z"/><path class="cls-4" d="M37.31 37.3l-7.25-14-7.3 3.79 7.25 14c.36.71 4.39 2.85 5.74 2.15s1.92-5.24 1.56-5.94z"/><path class="cls-4" d="M29.21 39.55a9.26 9.26 0 0 0 5.71-6.86"/><path class="cls-4" d="M31.68 42.29a9.1 9.1 0 0 0 4.85-6.48"/><path class="cls-5" d="M23.43 29.79l-4.42 4.37 2.3 4.43 6.12-1.08 8.45-4.38 4.41-4.37-2.3-4.44-6.11 1.09-8.45 4.38z"/><path class="cls-2" d="M39.09 26.43l-4.41 4.36-8.45 4.38-6.13 1.09 1.21 2.33 6.12-1.08 8.45-4.38 4.41-4.37-1.2-2.33z"/><path class="cls-4" d="M23.43 29.79l-4.42 4.37 2.3 4.43 6.12-1.08 8.45-4.38 4.41-4.37-2.3-4.44-6.11 1.09-8.45 4.38z"/><path class="cls-6" d="M21.13 25.36l-4.41 4.37 2.29 4.43 6.12-1.08 8.45-4.38 4.41-4.38-2.29-4.43-6.12 1.09-8.45 4.38z"/><path class="cls-7" d="M33.06 23.47a3.63 3.63 0 0 1 3.87 1.91L38 24.32l-2.3-4.43L29.58 21l-8.45 4.38-4.41 4.37 1.06 2.05a30.6 30.6 0 0 1 7.54-5.48l1.12-.59a23.43 23.43 0 0 1 6.62-2.26z"/><path class="cls-4" d="M21.13 25.36l-4.41 4.37 2.29 4.43 6.12-1.08 8.45-4.38 4.41-4.38-2.29-4.43-6.12 1.09-8.45 4.38z"/><path class="cls-2" d="M30.54 24.24l-5.87-11.32-7.3 3.78L23.24 28c.36.71 2.3.43 4.31-.61s3.35-2.45 2.99-3.15z"/><path class="cls-3" d="M24.67 12.92l-7.3 3.78 3.39 6.54a8.25 8.25 0 0 0 4.09-1.17 8.73 8.73 0 0 0 3.24-2.55z"/><path class="cls-4" d="M30.54 24.24l-5.87-11.32-7.3 3.78L23.24 28c.36.71 2.3.43 4.31-.61s3.35-2.45 2.99-3.15z"/><path class="cls-4" d="M20.75 23.22a9.24 9.24 0 0 0 5.7-6.86"/><path class="cls-4" d="M22.74 27.06a9.23 9.23 0 0 0 5.71-6.86"/><path class="cls-5" d="M14.42 12.41l-4.41 4.38 2.29 4.43 6.12-1.09 8.45-4.38 4.41-4.37-2.29-4.43-6.12 1.09-8.45 4.37z"/><path class="cls-2" d="M30.08 9.05l-4.4 4.36-8.45 4.38-6.14 1.09 1.21 2.34 6.12-1.09 8.45-4.38 4.41-4.37-1.2-2.33z"/><path class="cls-4" d="M14.42 12.41l-4.41 4.38 2.29 4.43 6.12-1.09 8.45-4.38 4.41-4.37-2.29-4.43-6.12 1.09-8.45 4.37z"/><path class="cls-6" d="M12.13 7.98l-4.42 4.37 2.3 4.44 6.12-1.09 8.44-4.38 4.42-4.37-2.3-4.43-6.12 1.08-8.44 4.38z"/><path class="cls-7" d="M24.05 6.09A3.64 3.64 0 0 1 27.92 8L29 7l-2.3-4.43-6.13 1.03L12.13 8l-4.42 4.35 1.06 2.06a31.28 31.28 0 0 1 7.54-5.49l1.12-.58a23.24 23.24 0 0 1 6.62-2.25z"/><path class="cls-4" d="M12.13 7.98l-4.42 4.37 2.3 4.44 6.12-1.09 8.44-4.38 4.42-4.37-2.3-4.43-6.12 1.08-8.44 4.38z"/><path class="cls-4" d="M16.12 15.7l2.3 4.43"/><path class="cls-4" d="M24.57 11.32l2.3 4.43"/><path class="cls-4" d="M25.13 33.07l2.3 4.44"/><path class="cls-4" d="M33.58 28.7l2.29 4.43"/></svg>