<svg xmlns="http://www.w3.org/2000/svg" viewBox="0 0 48 48"><defs><style>.cls-3{fill:none;stroke:#45413c;stroke-linecap:round;stroke-linejoin:round}.cls-5{fill:#ff6242}.cls-6{fill:#ff866e}.cls-8{fill:#e5feff}.cls-10{fill:#daedf7}.cls-11{fill:#e8f4fa}.cls-12{fill:#adc4d9}.cls-13{fill:#c0dceb}</style></defs><g><path transform="rotate(45 18.64 26.63)" fill="#e5f8ff" d="M14.64 20.63h8v12h-8z"/><path transform="rotate(45 17.23 25.207)" fill="#b8ecff" d="M15.23 19.21h4v12h-4z"/><path class="cls-3" transform="rotate(45 18.64 26.63)" d="M14.64 20.63h8v12h-8z"/><ellipse cx="17.4" cy="42.85" rx="13.5" ry="1.5" fill="#45413c" opacity=".15"/><path class="cls-5" d="M22.85 13.42h7.41a.34.34 0 0 1 .34.34v10.16h-8V13.67a.25.25 0 0 1 .25-.25z" transform="rotate(45 26.598 18.667)"/><path class="cls-6" d="M23.43 12h3.75v10.5h-4V12.26a.25.25 0 0 1 .25-.26z" transform="rotate(45 25.18 17.26)"/><path class="cls-3" d="M22.85 13.42h7.41a.34.34 0 0 1 .34.34v10.16h-8V13.67a.25.25 0 0 1 .25-.25z" transform="rotate(45 26.598 18.667)"/><path fill="#d9fdff" d="M32.9 17.55l-5.18-5.18 2.59-.24 2.83 2.83-.24 2.59z"/><path class="cls-8" d="M30.52 15.17l-2.8-2.8 2.59-.24 1.17 1.17-.96 1.87z"/><path class="cls-3" d="M32.9 17.55l-5.18-5.18 2.59-.24 2.83 2.83-.24 2.59z"/><path class="cls-8" d="M18.64 35.11l-8.48-8.48A1.5 1.5 0 1 0 8 28.75l8.49 8.48a1.5 1.5 0 1 0 2.12-2.12z"/><path d="M14 30.49l-3.86-3.86A1.5 1.5 0 1 0 8 28.75l3.86 3.86A1.5 1.5 0 0 0 14 30.49z" fill="#fff"/><path class="cls-3" d="M18.64 35.11l-8.48-8.48A1.5 1.5 0 1 0 8 28.75l8.49 8.48a1.5 1.5 0 1 0 2.12-2.12z"/><path class="cls-10" d="M8.07 32.7h7v1.5a.5.5 0 0 1-.5.5H8.32a.25.25 0 0 1-.25-.25V32.7z" transform="rotate(45 11.57 33.702)"/><path class="cls-11" d="M8.58 31.46h3.5v2H8.83a.25.25 0 0 1-.25-.25v-1.75z" transform="rotate(45 10.334 32.46)"/><path class="cls-3" d="M8.07 32.7h7v1.5a.5.5 0 0 1-.5.5H8.32a.25.25 0 0 1-.25-.25V32.7z" transform="rotate(45 11.57 33.702)"/><path class="cls-12" transform="rotate(45 9.098 36.169)" d="M7.6 33.67h3v5h-3z"/><path class="cls-13" transform="rotate(45 8.568 35.639)" d="M7.81 33.14h1.5v5h-1.5z"/><path class="cls-3" transform="rotate(45 9.098 36.169)" d="M7.6 33.67h3v5h-3z"/><path class="cls-13" d="M10.16 40.77L4.5 35.11a1 1 0 0 0-1.42 1.42l5.66 5.65a1 1 0 0 0 1.42 0 1 1 0 0 0 0-1.41z"/><path class="cls-10" d="M7 37.65l-2.5-2.54a1 1 0 0 0-1.42 1.42l2.54 2.53A1 1 0 1 0 7 37.65z"/><path class="cls-3" d="M10.16 40.77L4.5 35.11a1 1 0 0 0-1.42 1.42l5.66 5.65a1 1 0 0 0 1.42 0 1 1 0 0 0 0-1.41z"/><path class="cls-8" d="M30.31 10.72a1 1 0 0 1 1.41 0l2.83 2.83A1 1 0 0 1 33.14 15l-2.83-2.83a1 1 0 0 1 0-1.45z"/><path class="cls-11" d="M30.31 10.72a1 1 0 0 0 0 1.41l1 1a1 1 0 1 0 1.41-1.41l-1-1a1 1 0 0 0-1.41 0z"/><path class="cls-3" d="M30.31 10.72a1 1 0 0 1 1.41 0l2.83 2.83A1 1 0 0 1 33.14 15l-2.83-2.83a1 1 0 0 1 0-1.45z"/><path class="cls-10" d="M34.4 7.86h1a1 1 0 0 1 1 1v4h-3v-4a1 1 0 0 1 1-1z" transform="rotate(45 34.909 10.36)"/><path class="cls-11" d="M34.91 8.25a1 1 0 0 1 1.41 0l.34.33-3.53 3.54-1.06-1.07z"/><path class="cls-3" d="M34.4 7.86h1a1 1 0 0 1 1 1v4h-3v-4a1 1 0 0 1 1-1z" transform="rotate(45 34.909 10.36)"/><path class="cls-13" d="M25 24.51l-4.25-4.25a1 1 0 0 0-1.41 0 1 1 0 0 0 0 1.42l4.24 4.24a1 1 0 0 0 1.42 0 1 1 0 0 0 0-1.41z"/><path class="cls-10" d="M22.42 21.92l-1.66-1.66a1 1 0 0 0-1.41 0 1 1 0 0 0 0 1.42L21 23.33a1 1 0 0 0 1.42 0 1 1 0 0 0 0-1.41z"/><path class="cls-3" d="M25 24.51l-4.25-4.25a1 1 0 0 0-1.41 0 1 1 0 0 0 0 1.42l4.24 4.24a1 1 0 0 0 1.42 0 1 1 0 0 0 0-1.41z"/><path transform="rotate(45 17.94 27.33)" fill="#8ca4b8" d="M16.43 22.34h3v10h-3z"/><path class="cls-12" transform="rotate(45 17.409 26.8)" d="M16.65 21.8h1.5v10h-1.5z"/><path class="cls-3" transform="rotate(45 17.94 27.33)" d="M16.43 22.34h3v10h-3z"/><path class="cls-3" d="M36.67 8.6l4.95-4.95"/><path class="cls-5" d="M45.13 14.3l-1.6-6a.63.63 0 0 0-1.23 0l-1.6 6a2.29 2.29 0 1 0 4.43 0z"/><path class="cls-6" d="M42.15 16.11l1.6-6a.64.64 0 0 1 .18-.31l-.4-1.5a.63.63 0 0 0-1.23 0l-1.6 6a2.3 2.3 0 0 0 1.4 2.7 2.27 2.27 0 0 1 .05-.89z"/><path class="cls-3" d="M45.13 14.3l-1.6-6a.63.63 0 0 0-1.23 0l-1.6 6a2.29 2.29 0 1 0 4.43 0z"/></g></svg>