<svg xmlns="http://www.w3.org/2000/svg" viewBox="0 0 48 48"><defs><style>.cls-4{fill:none;stroke:#45413c;stroke-linecap:round;stroke-linejoin:round}.cls-5{fill:#fff}.cls-6{fill:#e0e0e0}</style></defs><ellipse cx="24" cy="45.28" rx="13.17" ry="1.72" fill="#45413c" opacity=".15"/><rect x="5.86" y="5.86" width="36.29" height="36.29" rx="5.72" ry="5.72" fill="#00b8f0"/><path d="M36.42 5.86H11.58a5.72 5.72 0 0 0-5.72 5.72v3.34a5.72 5.72 0 0 1 5.72-5.72h24.84a5.72 5.72 0 0 1 5.72 5.72v-3.34a5.72 5.72 0 0 0-5.72-5.72z" fill="#4acfff"/><rect class="cls-4" x="5.86" y="5.86" width="36.29" height="36.29" rx="5.72" ry="5.72"/><circle class="cls-5" cx="16.66" cy="14.27" r="2.93"/><circle class="cls-5" cx="31.9" cy="14.27" r="2.93"/><path class="cls-6" d="M16.66 13.27a2.92 2.92 0 0 1 2.76 2 3 3 0 0 0 .17-1 2.93 2.93 0 1 0-5.86 0 3 3 0 0 0 .17 1 2.92 2.92 0 0 1 2.76-2z"/><path class="cls-6" d="M31.9 13.27a2.92 2.92 0 0 1 2.76 2 2.77 2.77 0 0 0 .18-1 2.94 2.94 0 1 0-5.87 0 3 3 0 0 0 .17 1 2.93 2.93 0 0 1 2.76-2z"/><circle class="cls-4" cx="16.66" cy="14.27" r="2.93"/><circle class="cls-4" cx="31.9" cy="14.27" r="2.93"/><path class="cls-5" d="M16.66 19.71a5.8 5.8 0 0 0-5.8 5.79v3.65A1.16 1.16 0 0 0 12 30.3h1.72v5.22a1.15 1.15 0 0 0 1.14 1.15h3.58a1.15 1.15 0 0 0 1.14-1.15V30.3h1.72a1.16 1.16 0 0 0 1.15-1.15V25.5a5.8 5.8 0 0 0-5.79-5.79z"/><path class="cls-6" d="M16.66 19.71a5.8 5.8 0 0 0-5.8 5.79v2.6a5.8 5.8 0 0 1 11.6 0v-2.6a5.8 5.8 0 0 0-5.8-5.79z"/><path class="cls-4" d="M16.66 19.71a5.8 5.8 0 0 0-5.8 5.79v3.65A1.16 1.16 0 0 0 12 30.3h1.72v5.22a1.15 1.15 0 0 0 1.14 1.15h3.58a1.15 1.15 0 0 0 1.14-1.15V30.3h1.72a1.16 1.16 0 0 0 1.15-1.15V25.5a5.8 5.8 0 0 0-5.79-5.79z"/><path class="cls-5" d="M31.9 19.71a4.2 4.2 0 0 0-4.2 4.19v4.83l-1.5 2.1a.58.58 0 0 0 .47.91H29v3.78a1.15 1.15 0 0 0 1.14 1.15h3.58a1.16 1.16 0 0 0 1.15-1.15v-3.78h2.3a.58.58 0 0 0 .46-.91l-1.5-2.1V23.9a4.2 4.2 0 0 0-4.23-4.19z"/><path class="cls-6" d="M31.9 22.29a4.2 4.2 0 0 1 4.2 4.2V23.9a4.2 4.2 0 0 0-8.4 0v2.59a4.2 4.2 0 0 1 4.2-4.2z"/><path class="cls-4" d="M31.9 19.71a4.2 4.2 0 0 0-4.2 4.19v4.83l-1.5 2.1a.58.58 0 0 0 .47.91H29v3.78a1.15 1.15 0 0 0 1.14 1.15h3.58a1.16 1.16 0 0 0 1.15-1.15v-3.78h2.3a.58.58 0 0 0 .46-.91l-1.5-2.1V23.9a4.2 4.2 0 0 0-4.23-4.19z"/></svg>