<svg xmlns="http://www.w3.org/2000/svg" viewBox="0 0 48 48"><defs><style>.cls-3,.cls-4,.cls-7{fill:none}.cls-3,.cls-4{stroke:#fff}.cls-3{stroke-miterlimit:10}.cls-4,.cls-7{stroke-linecap:round;stroke-linejoin:round}.cls-5{fill:#fff}.cls-7{stroke:#45413c}</style></defs><g><circle cx="24" cy="24" r="15.6" fill="#656769"/><path d="M24 11.27a15.61 15.61 0 0 1 15.53 14.17c0-.48.07-1 .07-1.44a15.6 15.6 0 0 0-31.2 0c0 .48 0 1 .07 1.44A15.61 15.61 0 0 1 24 11.27z" fill="#525252"/><g><circle class="cls-3" cx="16.52" cy="27.65" r="5.01"/><circle class="cls-3" cx="31.66" cy="27.65" r="5.01"/><path class="cls-4" d="M16.52 27.65l2.53-7.6v-4.71h-4.12"/><path class="cls-4" d="M19.05 20.05h10.76l-5.38 7.6-5.38-7.6z"/><path class="cls-4" d="M24.43 27.65h7.23l-1.85-7.6v-2.12"/><path class="cls-4" d="M27.46 17.93h4.71"/><circle class="cls-5" cx="16.52" cy="27.65" r="2.53"/><circle class="cls-5" cx="31.66" cy="27.65" r="2.53"/></g><ellipse cx="24" cy="45.43" rx="12.02" ry="1.57" fill="#45413c" opacity=".15"/><circle class="cls-7" cx="24" cy="24" r="15.6"/><path d="M24 4.15A19.85 19.85 0 1 0 43.85 24 19.85 19.85 0 0 0 24 4.15zm0 4.25a15.55 15.55 0 0 1 15.17 19.18L11 15.41A15.57 15.57 0 0 1 24 8.4zm0 31.2A15.55 15.55 0 0 1 8.83 20.42L37 32.59a15.57 15.57 0 0 1-13 7.01z" fill="#ff6242"/><g><path d="M24 6.65a19.84 19.84 0 0 1 19.79 18.6c0-.41.06-.83.06-1.25a19.85 19.85 0 0 0-39.7 0c0 .42 0 .84.06 1.25A19.84 19.84 0 0 1 24 6.65z" fill="#ff866e"/></g><path id="_Compound_Path_2" class="cls-7" d="M24 4.15A19.85 19.85 0 1 0 43.85 24 19.85 19.85 0 0 0 24 4.15zm0 4.25a15.55 15.55 0 0 1 15.17 19.18L11 15.41A15.57 15.57 0 0 1 24 8.4zm0 31.2A15.55 15.55 0 0 1 8.83 20.42L37 32.59a15.57 15.57 0 0 1-13 7.01z"/></g></svg>