<svg xmlns="http://www.w3.org/2000/svg" viewBox="0 0 48 48"><defs><style>.cls-2,.cls-5{fill:#daedf7}.cls-2,.cls-4,.cls-7{stroke:#45413c;stroke-linecap:round;stroke-linejoin:round}.cls-3{fill:#fff}.cls-4{fill:#ff6242}.cls-6{fill:#f0f0f0}.cls-7{fill:none}</style></defs><g><ellipse cx="24" cy="44.44" rx="11.98" ry="1.56" fill="#45413c" opacity=".15"/><path class="cls-2" d="M29.49 6.15a.88.88 0 0 0-1.09.61L18 43.31a.87.87 0 0 0 .6 1.09.88.88 0 0 0 1.1-.6L30.1 7.24a.88.88 0 0 0-.61-1.09z"/><path class="cls-3" d="M38 11.06c-2.92-1.9-5.23-2.2-8.16-2.79l-3.31 11.47c3 .61 5.24.9 8.16 2.8a16 16 0 0 0 5.47 2.24l2.3.47a.43.43 0 0 0 .51-.31l3-10.63a.44.44 0 0 0-.34-.55c-2.42-.5-4.76-.76-7.63-2.7z"/><path class="cls-4" d="M39.41 18.05a3.11 3.11 0 1 1-1.77-3.81 3 3 0 0 1 1.77 3.81z"/><path class="cls-5" d="M31.44 5.78a1.77 1.77 0 1 1-1.22-2.18 1.77 1.77 0 0 1 1.22 2.18z"/><path class="cls-2" d="M30 43.31L19.6 6.76a.88.88 0 1 0-1.7.48L28.34 43.8a.88.88 0 0 0 1.1.6.87.87 0 0 0 .56-1.09z"/><path class="cls-3" d="M10 11.06c2.92-1.9 5.23-2.2 8.16-2.79l3.28 11.47c-3 .61-5.24.9-8.16 2.8a16 16 0 0 1-5.47 2.24l-2.3.47a.43.43 0 0 1-.51-.31L2 14.31a.44.44 0 0 1 .34-.55c2.45-.5 4.79-.76 7.66-2.7z"/><path class="cls-6" d="M36.16 21.17C32.88 19 30.3 18.7 27 18l-.49 1.71c3 .61 5.24.9 8.16 2.8s5.11 2.16 7.77 2.71a.43.43 0 0 0 .51-.31l.3-1a18.77 18.77 0 0 1-7.09-2.74z"/><path class="cls-6" d="M21 18c-3.19.65-5.82 1-9.14 3.14a18.65 18.65 0 0 1-7.11 2.74l.3 1a.43.43 0 0 0 .51.31c2.66-.54 4.91-.85 7.77-2.71s5.09-2.17 8.16-2.8z"/><path class="cls-7" d="M38 11.06c-2.92-1.9-5.23-2.2-8.16-2.79l-3.31 11.47c3 .61 5.24.9 8.16 2.8a16 16 0 0 0 5.47 2.24l2.3.47a.43.43 0 0 0 .51-.31l3-10.63a.44.44 0 0 0-.34-.55c-2.42-.5-4.76-.76-7.63-2.7z"/><path class="cls-7" d="M10 11.06c2.92-1.9 5.23-2.2 8.16-2.79l3.28 11.47c-3 .61-5.24.9-8.16 2.8a16 16 0 0 1-5.47 2.24l-2.3.47a.43.43 0 0 1-.51-.31L2 14.31a.44.44 0 0 1 .34-.55c2.45-.5 4.79-.76 7.66-2.7z"/><path class="cls-4" d="M8.59 18.05a3 3 0 0 0 3.95 1.43 3 3 0 0 0 1.77-3.82 3 3 0 0 0-4-1.42 3 3 0 0 0-1.72 3.81z"/><path class="cls-5" d="M16.56 5.78a1.77 1.77 0 1 0 1.22-2.18 1.77 1.77 0 0 0-1.22 2.18z"/><path class="cls-3" d="M30.22 5.06a1.78 1.78 0 0 1 1.12 1c0-.08.07-.16.1-.25a1.77 1.77 0 1 0-3.31.19 1.78 1.78 0 0 1 2.09-.94z"/><path class="cls-3" d="M16.66 6a1.76 1.76 0 0 1 3.21 0A1.7 1.7 0 0 0 20 4.81a1.75 1.75 0 0 0-2.22-1.21 1.78 1.78 0 0 0-1.22 2.18c.03.09.07.22.1.22z"/><path class="cls-7" d="M31.44 5.78a1.77 1.77 0 1 1-1.22-2.18 1.77 1.77 0 0 1 1.22 2.18z"/><path class="cls-7" d="M16.56 5.78a1.77 1.77 0 1 0 1.22-2.18 1.77 1.77 0 0 0-1.22 2.18z"/></g></svg>