<svg xmlns="http://www.w3.org/2000/svg" viewBox="0 0 48 48"><g><path d="M45 12.25h-6.32A45.89 45.89 0 0 1 24 9.88 45.73 45.73 0 0 0 9.37 7.5H3c-.58 0-1 .35-1 .79v26a.94.94 0 0 0 1 .79h6.37A46 46 0 0 1 24 37.46a45.62 45.62 0 0 0 14.65 2.38H45a.93.93 0 0 0 1-.79V13a.94.94 0 0 0-1-.75z" stroke="#45413c" stroke-linecap="round" stroke-linejoin="round" fill="#fff"/><path d="M45 12.25h-6.32A45.89 45.89 0 0 1 24 9.88 45.73 45.73 0 0 0 9.37 7.5H3c-.58 0-1 .35-1 .79v8.29h7.37A45.72 45.72 0 0 1 24 19a45.62 45.62 0 0 0 14.65 2.38h7.37V13a.94.94 0 0 0-1.02-.75z" fill="#46b000" stroke="#45413c" stroke-linecap="round" stroke-linejoin="round"/><path d="M38.68 30.54A45.89 45.89 0 0 1 24 28.17a45.73 45.73 0 0 0-14.63-2.38H2v8.51a.94.94 0 0 0 1 .79h6.37A46 46 0 0 1 24 37.46a45.62 45.62 0 0 0 14.65 2.38H45a.93.93 0 0 0 1-.79v-8.51z" fill="#656769" stroke="#45413c" stroke-linecap="round" stroke-linejoin="round"/><path d="M13.53 7.69c-1.38-.12-2.77-.19-4.16-.19H3c-.58 0-1 .35-1 .79v26a.94.94 0 0 0 1 .79h6.37c1.39 0 2.78.07 4.16.19z" fill="#ff6242" stroke="#45413c" stroke-linecap="round" stroke-linejoin="round"/><ellipse cx="24" cy="45.5" rx="11.5" ry="1.5" fill="#45413c" opacity=".15"/></g></svg>