<svg xmlns="http://www.w3.org/2000/svg" viewBox="0 0 48 48"><defs><style>.cls-2{stroke:#45413c;stroke-linecap:round;stroke-linejoin:round;fill:#e04122}</style></defs><path d="M45 12.25h-6.32A45.89 45.89 0 0 1 24 9.88 45.73 45.73 0 0 0 9.37 7.5H3c-.58 0-1 .35-1 .79v26a.94.94 0 0 0 1 .79h6.37A46 46 0 0 1 24 37.46a45.62 45.62 0 0 0 14.65 2.38H45a.93.93 0 0 0 1-.79V13a.94.94 0 0 0-1-.75z" stroke="#45413c" stroke-linecap="round" stroke-linejoin="round" fill="#fff"/><path class="cls-2" d="M3 35.09h6.37q2.18 0 4.32.21V7.71q-2.14-.21-4.32-.21H3c-.58 0-1 .35-1 .79v26a.94.94 0 0 0 1 .8z"/><path class="cls-2" d="M45 12.25h-6.32c-1.45 0-2.89-.07-4.32-.2v27.58q2.14.21 4.32.21H45a.93.93 0 0 0 1-.79V13a.94.94 0 0 0-1-.75z"/><path d="M19.65 27.08l-.3.77a.5.5 0 0 0 .44.64l3.81.26v4.35a.54.54 0 0 0 .42.5.33.33 0 0 0 .41-.34v-4.35l3.86 1.24a.35.35 0 0 0 .45-.45l-.29-.95L33 26.27a.4.4 0 0 0 0-.66l-1-.95.57-2.1a.5.5 0 0 0-.47-.6l-2.18-.05-.46-1a.44.44 0 0 0-.69-.21L26.49 23l1-5.07a.51.51 0 0 0-.56-.57l-1.08.21-1.57-2.84c-.17-.31-.58-.37-.73-.12l-1.35 2.3-1-.67a.35.35 0 0 0-.58.33l.75 5.18-2-2.92c-.19-.28-.56-.31-.69-.06l-.46.85-2.22-.8a.34.34 0 0 0-.47.42l.57 2.32-1 .56a.42.42 0 0 0 0 .67z" fill="#e04122"/><ellipse cx="24" cy="45.5" rx="11.5" ry="1.5" fill="#45413c" opacity=".15"/></svg>