<svg xmlns="http://www.w3.org/2000/svg" viewBox="0 0 48 48"><defs><style>.cls-2,.cls-3{stroke:#45413c;stroke-linecap:round;stroke-linejoin:round}.cls-2{fill:#fff}.cls-3{fill:#ff6242}</style></defs><path d="M45 12.25h-6.32A45.89 45.89 0 0 1 24 9.88 45.73 45.73 0 0 0 9.37 7.5H3c-.58 0-1 .35-1 .79v26a.94.94 0 0 0 1 .79h6.37A46 46 0 0 1 24 37.46a45.62 45.62 0 0 0 14.65 2.38H45a.93.93 0 0 0 1-.79V13a.94.94 0 0 0-1-.75z" stroke="#45413c" stroke-linecap="round" stroke-linejoin="round" fill="#00b8f0"/><path class="cls-2" d="M26.22 28.08l19.83-11.22V13a.94.94 0 0 0-1-.79H39.1l-16.55 9.4z"/><path class="cls-3" d="M25.26 26.39l20.79-11.75V13a.94.94 0 0 0-1-.79H43l-19.53 11z"/><path class="cls-2" d="M17.56 21.77L2 30.57v3.73a.94.94 0 0 0 1 .79h6.12l12.1-6.85z"/><path class="cls-3" d="M18.51 23.46L2 32.79v1.51a.94.94 0 0 0 1 .79h2.18l15.09-8.53z"/><path class="cls-2" d="M46.05 39.05v-3.27L27.33 22.42l-4.32 6 15.93 11.42H45a.93.93 0 0 0 1.05-.79z"/><path class="cls-3" d="M26.2 24l-2.07 2.9 18.15 13H45a.93.93 0 0 0 1-.79v-.89z"/><path class="cls-2" d="M3 7.5c-.58 0-1 .35-1 .79v3.79L18.69 24l4.32-6L8.38 7.5z"/><path class="cls-3" d="M3 7.5c-.58 0-1 .35-1 .79V9.7l17.81 12.72 2.07-2.9L5 7.5z"/><path class="cls-2" d="M38.68 20.09a46.29 46.29 0 0 1-8-.7v-7.83A45.58 45.58 0 0 1 24 9.88a44.79 44.79 0 0 0-6.66-1.69V16a46.2 46.2 0 0 0-8-.69H2v11.94h7.37a46.21 46.21 0 0 1 8 .7v7.83A46 46 0 0 1 24 37.46a44.36 44.36 0 0 0 6.65 1.69v-7.84a46.29 46.29 0 0 0 8 .69h7.37V20.09z"/><path class="cls-3" d="M38.68 22.45a46.13 46.13 0 0 1-10.4-1.18v-10.2A42.27 42.27 0 0 1 24 9.88a43.86 43.86 0 0 0-4.25-1.2v10.2A46.8 46.8 0 0 0 9.37 17.7H2v7.19h7.37a46.22 46.22 0 0 1 10.41 1.18v10.2A43.81 43.81 0 0 1 24 37.46a42.31 42.31 0 0 0 4.25 1.2v-10.2a46.71 46.71 0 0 0 10.4 1.18h7.37v-7.19z"/><path d="M24 9.88A45.73 45.73 0 0 0 9.37 7.5H3c-.58 0-1 .35-1 .79v26a.94.94 0 0 0 1 .79h6.37A46 46 0 0 1 24 37.46a45.62 45.62 0 0 0 14.65 2.38H45a.93.93 0 0 0 1-.79V13a.94.94 0 0 0-1-.79h-6.32A45.89 45.89 0 0 1 24 9.88z" fill="none" stroke="#45413c" stroke-linecap="round" stroke-linejoin="round"/><ellipse cx="24" cy="45.5" rx="11.5" ry="1.5" fill="#45413c" opacity=".15"/></svg>