<svg xmlns="http://www.w3.org/2000/svg" viewBox="0 0 48 48"><defs><style>.cls-2{stroke:#45413c;stroke-linecap:round;stroke-linejoin:round;fill:#009fd9}</style></defs><g><path d="M45 12.25h-6.32A45.89 45.89 0 0 1 24 9.88 45.73 45.73 0 0 0 9.37 7.5H3c-.58 0-1 .35-1 .79v26a.94.94 0 0 0 1 .79h6.37A46 46 0 0 1 24 37.46a45.62 45.62 0 0 0 14.65 2.38H45a.93.93 0 0 0 1-.79V13a.94.94 0 0 0-1-.75z" stroke="#45413c" stroke-linecap="round" stroke-linejoin="round" fill="#fff"/><path class="cls-2" d="M38.68 32.79A45.62 45.62 0 0 1 24 30.41 46 46 0 0 0 9.37 28H2v3.49h7.37A46 46 0 0 1 24 33.9a45.62 45.62 0 0 0 14.65 2.38h7.37v-3.49z"/><path class="cls-2" d="M9.93 7.52H3c-.58 0-1 .35-1 .79v6.06h7.93z"/><path class="cls-2" d="M9.93 17.85H2v6.85h7.93z"/><path class="cls-2" d="M38.68 19.1A45.62 45.62 0 0 1 24 16.72c-.79-.26-1.59-.5-2.39-.72v3.49c.8.22 1.6.45 2.39.72a45.62 45.62 0 0 0 14.65 2.38h7.37V19.1z"/><path class="cls-2" d="M45 12.25h-6.32A45.89 45.89 0 0 1 24 9.88 45 45 0 0 0 13.71 7.7v6.87A46.36 46.36 0 0 1 21.64 16v-3.36c.8.22 1.6.46 2.39.72a45.62 45.62 0 0 0 14.65 2.38h7.37V13a.94.94 0 0 0-1.05-.75z"/><path class="cls-2" d="M24 27.06a45.89 45.89 0 0 0 14.65 2.37h7.37v-3.49h-7.34A45.89 45.89 0 0 1 24 23.57c-.79-.27-1.59-.5-2.39-.73v-3.35a45.41 45.41 0 0 0-7.93-1.43v6.85A44.93 44.93 0 0 1 24 27.06z"/></g><ellipse cx="24" cy="45.5" rx="11.5" ry="1.5" fill="#45413c" opacity=".15"/></svg>