<svg xmlns="http://www.w3.org/2000/svg" viewBox="0 0 48 48"><defs><style>.cls-3{stroke:#45413c;stroke-linecap:round;stroke-linejoin:round;fill:#009fd9}</style></defs><g><path d="M45 12.25c-6.89 0-12.94.36-21-2.37A45.73 45.73 0 0 0 9.37 7.5H3c-.58 0-1 .35-1 .79v26a.94.94 0 0 0 1 .79h6.37A46 46 0 0 1 24 37.46c7.92 2.69 13.76 2.38 21 2.38a.93.93 0 0 0 1-.79V13a.94.94 0 0 0-1-.75z" stroke="#45413c" stroke-linecap="round" stroke-linejoin="round" fill="#fff"/><path d="M38.68 19.36A45.62 45.62 0 0 1 24 17a45.72 45.72 0 0 0-14.63-2.39H2V28h7.37A45.73 45.73 0 0 1 24 30.36a45.62 45.62 0 0 0 14.65 2.38h7.37V19.36z" fill="#e04122" stroke="#45413c" stroke-linecap="round" stroke-linejoin="round"/><path class="cls-3" d="M45 12.25h-6.32A45.89 45.89 0 0 1 24 9.88 45.73 45.73 0 0 0 9.37 7.5H3c-.58 0-1 .35-1 .79v4h7.37A45.73 45.73 0 0 1 24 14.62 45.89 45.89 0 0 0 38.68 17h7.37v-4a.94.94 0 0 0-1.05-.75z"/><path class="cls-3" d="M38.68 35.1A45.62 45.62 0 0 1 24 32.72a46 46 0 0 0-14.63-2.37H2v3.95a.94.94 0 0 0 1 .79h6.37A46 46 0 0 1 24 37.46a45.48 45.48 0 0 0 14.65 2.38H45a.93.93 0 0 0 1-.79V35.1z"/><ellipse cx="15.18" cy="21.97" rx="4.61" ry="5.08" transform="rotate(-29.29 15.169 21.972)" fill="#fff"/><path d="M15.59 18.24l.84 1.81a.55.55 0 0 0 .35.3l1.88.5a.49.49 0 0 1 .26.82l-1.36 1.16a.42.42 0 0 0-.13.4l.32 1.91a.42.42 0 0 1-.68.41l-1.68-1.09a.47.47 0 0 0-.39-.06l-1.68.68a.52.52 0 0 1-.67-.57l.32-1.83a.54.54 0 0 0-.14-.43l-1.36-1.49a.44.44 0 0 1 .26-.77h1.88a.39.39 0 0 0 .35-.21l.84-1.6a.47.47 0 0 1 .79.06z" fill="#e04122"/></g><ellipse cx="24" cy="45.5" rx="11.5" ry="1.5" fill="#45413c" opacity=".15"/></svg>