<svg xmlns="http://www.w3.org/2000/svg" viewBox="0 0 48 48"><defs><style>.cls-2{stroke:#45413c;stroke-linecap:round;stroke-linejoin:round;fill:#ff6242}.cls-4{fill:#ffe500}</style></defs><g><path d="M45 12.25h-6.32A45.89 45.89 0 0 1 24 9.88 45.73 45.73 0 0 0 9.37 7.5H3c-.58 0-1 .35-1 .79v26a.94.94 0 0 0 1 .79h6.37A46 46 0 0 1 24 37.46a45.62 45.62 0 0 0 14.65 2.38H45a.93.93 0 0 0 1-.79V13a.94.94 0 0 0-1-.75z" stroke="#45413c" stroke-linecap="round" stroke-linejoin="round" fill="#fff"/><path class="cls-2" d="M2 31.53h7.37A46 46 0 0 1 24 33.9a45.62 45.62 0 0 0 14.65 2.38h7.37v-3.49h-7.34A45.62 45.62 0 0 1 24 30.41 46 46 0 0 0 9.37 28H2z"/><path class="cls-2" d="M2 24.68h7.37A45.73 45.73 0 0 1 24 27.06a45.89 45.89 0 0 0 14.65 2.37h7.37v-3.49h-7.34A45.89 45.89 0 0 1 24 23.57a45.73 45.73 0 0 0-14.63-2.38H2z"/><path class="cls-2" d="M2 17.83h7.37A45.73 45.73 0 0 1 24 20.21a45.62 45.62 0 0 0 14.65 2.38h7.37V19.1h-7.34A45.62 45.62 0 0 1 24 16.72a46 46 0 0 0-14.63-2.37H2z"/><path class="cls-2" d="M45 12.25h-6.32a46.53 46.53 0 0 1-7.49-.6A44.59 44.59 0 0 1 24 9.88a44.57 44.57 0 0 0-9-2 45.91 45.91 0 0 0-5.63-.38H3c-.58 0-1 .35-1 .79V11h7.37A46 46 0 0 1 24 13.36a45.62 45.62 0 0 0 14.65 2.38h7.37V13a.94.94 0 0 0-1.02-.75z"/><path d="M2 21.76h7.37a46.44 46.44 0 0 1 12.27 1.65V9.15A46.44 46.44 0 0 0 9.37 7.5H3c-.58 0-1 .35-1 .79z" fill="#009fd9" stroke="#45413c" stroke-linecap="round" stroke-linejoin="round"/><path class="cls-4" d="M11 19.06a4.34 4.34 0 0 1 0-8.68 4.41 4.41 0 0 1 1.74.37 5.08 5.08 0 0 0-3.2-1.17 5.14 5.14 0 0 0 0 10.28 5.08 5.08 0 0 0 3.22-1.17 4.41 4.41 0 0 1-1.76.37z"/><path class="cls-4" d="M17.16 14.89l1.98 1.35-2.39-.06.8 2.25-1.9-1.46-.68 2.3-.67-2.3-1.9 1.46.8-2.25-2.39.06 1.97-1.35-1.97-1.36 2.39.07-.8-2.26 1.9 1.46.67-2.29.68 2.29 1.9-1.46-.8 2.26 2.39-.07-1.98 1.36z"/></g><ellipse cx="24" cy="45.5" rx="11.5" ry="1.5" fill="#45413c" opacity=".15"/></svg>