<svg xmlns="http://www.w3.org/2000/svg" viewBox="0 0 48 48"><defs><style>.cls-5{fill:#fff}</style></defs><g><path d="M45 12.25h-6.32A45.89 45.89 0 0 1 24 9.88 45.73 45.73 0 0 0 9.37 7.5H3c-.58 0-1 .35-1 .79v26a.94.94 0 0 0 1 .79h6.37A46 46 0 0 1 24 37.46a45.62 45.62 0 0 0 14.65 2.38H45a.93.93 0 0 0 1-.79V13a.94.94 0 0 0-1-.75z" stroke="#45413c" stroke-linecap="round" stroke-linejoin="round" fill="#fff"/><path d="M4.94 8.89a14.87 14.87 0 0 0-2.55-1.22.74.74 0 0 0-.39.62v26a.94.94 0 0 0 1 .79h6.37a45.62 45.62 0 0 1 14.08 2.19C23.4 37.2 15 25.74 10.78 22.14c3.91.46 11.75 1.53 11.75 1.53A94.62 94.62 0 0 0 4.94 8.89z" fill="#e04122"/><path d="M3.5 9.79c.2.11.42.23.65.38A89.17 89.17 0 0 1 18.41 21.6c-2.48-.33-5.48-.72-7.46-1h-.18a1.5 1.5 0 0 0-1 2.64c2.48 2.13 6.8 7.47 9.82 11.41a47.68 47.68 0 0 0-10.25-1.1H3.5V9.79M2.39 7.67a.74.74 0 0 0-.39.62v26a.94.94 0 0 0 1 .79h6.37a45.62 45.62 0 0 1 14.08 2.19C23.4 37.2 15 25.74 10.78 22.14c3.91.46 11.75 1.53 11.75 1.53A94.62 94.62 0 0 0 4.94 8.89a14.87 14.87 0 0 0-2.55-1.22z" fill="#009fd9"/><path d="M4.94 8.89a14.87 14.87 0 0 0-2.55-1.22.74.74 0 0 0-.39.62v26a.94.94 0 0 0 1 .79h6.37a45.62 45.62 0 0 1 14.08 2.19C23.4 37.2 15 25.74 10.78 22.14c3.91.46 11.75 1.53 11.75 1.53A94.62 94.62 0 0 0 4.94 8.89z" fill="none" stroke="#45413c" stroke-linecap="round" stroke-linejoin="round"/><path class="cls-5" d="M7.87 19.38a3.2 3.2 0 0 1-3.13-2.56 3.2 3.2 0 1 0 6.25 0 3.18 3.18 0 0 1-3.12 2.56z"/><path class="cls-5" d="M7.87 16.91l.44-.59.17.72.64-.36-.14.73.74-.07-.43.6.7.24-.63.38.54.51-.74.08.3.68-.71-.22-.01.75-.56-.49-.31.67-.31-.67-.56.49-.01-.75-.71.22.3-.68-.74-.08.54-.51-.63-.38.7-.24-.43-.6.74.07-.14-.73.64.36.17-.72.44.59z"/><path class="cls-5" d="M8.48 26.8l.87-1.1.13 1.4 1.33-.46-.65 1.24 1.37.33-1.22.7.97 1.01-1.4-.06.26 1.37L9 30.42l-.52 1.3-.52-1.3-1.14.81.27-1.37-1.4.06.97-1.01-1.22-.7 1.37-.33-.65-1.24 1.33.46.13-1.4.86 1.1z"/></g><ellipse cx="24" cy="45.5" rx="11.5" ry="1.5" fill="#45413c" opacity=".15"/></svg>