<svg xmlns="http://www.w3.org/2000/svg" viewBox="0 0 48 48"><defs><style>.cls-3{fill:#fff}</style></defs><g><path d="M45 12.25h-6.32A45.89 45.89 0 0 1 24 9.88 45.73 45.73 0 0 0 9.37 7.5H3c-.58 0-1 .35-1 .79v26a.94.94 0 0 0 1 .79h6.37A46 46 0 0 1 24 37.46a45.62 45.62 0 0 0 14.65 2.38H45a.93.93 0 0 0 1-.79V13a.94.94 0 0 0-1-.75z" stroke="#45413c" stroke-linecap="round" stroke-linejoin="round" fill="#46b000"/><path d="M13.38 7.66c-1.29-.1-2.59-.16-3.9-.16H3.15c-.58 0-1 .35-1 .79v26a.94.94 0 0 0 1 .79h6.33c1.31 0 2.61.06 3.9.16z" fill="#fff" stroke="#45413c" stroke-linecap="round" stroke-linejoin="round"/><path class="cls-3" d="M35.15 18.42l.93-.46a.25.25 0 0 0 .14-.19l.15-1a.25.25 0 0 1 .43-.14l.73.74a.27.27 0 0 0 .22.08l1-.18a.25.25 0 0 1 .27.37l-.49.92a.25.25 0 0 0 0 .24l.49.92a.25.25 0 0 1-.27.36l-1-.17a.23.23 0 0 0-.22.07l-.73.75a.25.25 0 0 1-.43-.15l-.15-1a.22.22 0 0 0-.14-.19l-.93-.47a.25.25 0 0 1 0-.5z"/><path class="cls-3" d="M35.9 31.05c-3.73 1.89-8.76.08-11.24-4s-1.47-9 2.26-10.88a6.87 6.87 0 0 1 2.08-.69 8.54 8.54 0 0 0-5.3.73c-4.32 2.19-5.49 7.85-2.62 12.63s8.72 6.88 13 4.68a7.44 7.44 0 0 0 3.5-3.72 6.29 6.29 0 0 1-1.68 1.25z"/></g><ellipse cx="24" cy="45.5" rx="11.5" ry="1.5" fill="#45413c" opacity=".15"/></svg>