<svg xmlns="http://www.w3.org/2000/svg" viewBox="0 0 48 48"><defs><style>.cls-1{fill:#e04122;stroke:#45413c;stroke-linecap:round;stroke-linejoin:round}.cls-6{fill:#009fd9}</style></defs><g><path class="cls-1" d="M45 11.75h-6.32A45.89 45.89 0 0 1 24 9.38 45.73 45.73 0 0 0 9.37 7H3c-.58 0-1 .35-1 .79v26a.94.94 0 0 0 1 .79h6.37A46 46 0 0 1 24 37a45.62 45.62 0 0 0 14.65 2.38H45a.93.93 0 0 0 1-.79v-26a.94.94 0 0 0-1-.84z"/><path d="M16.19 7.51A46.8 46.8 0 0 0 9.37 7H3c-.58 0-1 .35-1 .79v26a.94.94 0 0 0 1 .79h6.37a46.8 46.8 0 0 1 6.82.5z" fill="#46b000" stroke-linecap="round" stroke-linejoin="round" stroke="#45413c"/><ellipse cx="16.19" cy="21.47" rx="7.55" ry="8.33" transform="rotate(-29.29 16.2 21.465)" fill="#ffe500" stroke-linecap="round" stroke-linejoin="round" stroke="#45413c"/><path class="cls-1" d="M23.62 19.82a49.24 49.24 0 0 0-14.5-2.27"/><path class="cls-1" d="M23.84 23.36a71.11 71.11 0 0 0-15.36-1.88"/><path class="cls-1" d="M22.3 26.94a45.93 45.93 0 0 0-12.76-1.85"/><path d="M19.48 17.47l-6.58-.57a.9.9 0 0 0-1 .91v3.63A6.16 6.16 0 0 0 15.64 27a1.71 1.71 0 0 0 1.11.09 5 5 0 0 0 3.73-4.9v-3.63a1.11 1.11 0 0 0-1-1.09z" stroke-miterlimit="10" stroke="#45413c" fill="#e04122"/><path d="M18.38 18.92L14 18.53a.46.46 0 0 0-.5.46v2.72a3.86 3.86 0 0 0 2.34 3.48 1.07 1.07 0 0 0 .7.06 3.11 3.11 0 0 0 2.34-3.07v-2.72a.54.54 0 0 0-.5-.54z" fill="#fff"/><path class="cls-6" d="M16.1 22.75a.28.28 0 0 0 .18 0 .8.8 0 0 0 .6-.79v-.74l-1.38-.12v.74a1 1 0 0 0 .6.91zM14.43 22.6a.25.25 0 0 0 .17 0 .8.8 0 0 0 .6-.79v-.74L13.83 21v.74a1 1 0 0 0 .6.86zM17.78 22.9a.28.28 0 0 0 .18 0 .79.79 0 0 0 .6-.78v-.74l-1.38-.12V22a1 1 0 0 0 .6.9zM16.1 20.88a.28.28 0 0 0 .18 0 .79.79 0 0 0 .6-.78v-.75l-1.38-.12V20a1 1 0 0 0 .6.88zM16.1 24.74a.28.28 0 0 0 .18 0 .8.8 0 0 0 .6-.79v-.74l-1.38-.12v.74a1 1 0 0 0 .6.91z"/></g><ellipse cx="24" cy="45.5" rx="11.5" ry="1.5" fill="#45413c" opacity=".15"/></svg>